<?xml version="1.0" encoding="utf-8" ?><!DOCTYPE svg PUBLIC "-//W3C//DTD SVG 1.1//EN" "http://www.w3.org/Graphics/SVG/1.1/DTD/svg11.dtd" 
[ <!ATTLIST svg 
  xmlns:dsy CDATA #FIXED "http://www.3ds.com/print"  
    dsy:text-version CDATA #IMPLIED > 

  <!ATTLIST text 
  xmlns:dsy CDATA #FIXED "http://www.3ds.com/print" 
    dsy:text-version CDATA #IMPLIED > 
]><svg xmlns="http://www.w3.org/2000/svg" xmlns:dsy="http://www.3ds.com/print" dsy:text-version="18000" width="297" height="210" viewBox="0 0 297 210" version="1.1"><g stroke="rgb(0, 0, 0)" stroke-width="0.35" stroke-linecap="butt" stroke-linejoin="miter" fill="none"><path d="M 140.632 84.7026 A 7 7 0 0 0 126.814 83.2403"/><circle cx="133.633" cy="84.8229" r="3.2"/><path d="M 141.235 119.759 L 140.632 84.7026"/><path d="M 124.318 123.102 L 126.814 83.2403"/><path d="M 141.235 119.759 L 124.318 123.102"/><path d="M 182.046 82.5218 A 7 7 0 0 0 168.228 83.9841"/><circle cx="175.227" cy="84.1044" r="3.2"/><path d="M 167.597 120.725 L 168.228 83.9841"/><path d="M 184.65 124.093 L 182.046 82.5218"/><path d="M 167.597 120.725 L 184.65 124.093"/><path d="M 9.99999 200 L 287 200"/><path d="M 287 200 L 287 10"/><path d="M 287 10 L 9.99999 10"/><path d="M 9.99999 10 L 9.99999 200"/><path d="M 148.5 10 L 148.5 0"/><path d="M 9.99999 105 L -5.94366e-006 105"/><path d="M 287 105 L 297 105"/><path d="M 222.7 200 L 222.7 207.5"/><path d="M 74.3 200 L 74.3 207.5"/><path d="M 222.7 10 L 222.7 2.5"/><path d="M 74.3 10 L 74.3 2.5"/><path d="M 9.99999 52.5 L 2.49999 52.5"/><path d="M 287 52.5 L 294.5 52.5"/><path d="M 9.99999 157.5 L 2.49999 157.5"/><path d="M 287 157.5 L 294.5 157.5"/><path d="M 198.5 200 L 198.5 205"/><path d="M 188.5 200 L 188.5 202.5"/><path d="M 178.5 200 L 178.5 202.5"/><path d="M 168.5 200 L 168.5 202.5"/><path d="M 287 140 L 287 200"/></g><g stroke="rgb(0, 0, 0)" stroke-width="0.13" stroke-linecap="butt" stroke-linejoin="miter" stroke-dasharray="7, 1, 1, 1" fill="none"><path d="M 137.793 84.8229 L 129.473 84.8229"/><path d="M 133.633 80.6629 L 133.633 88.9829"/><path d="M 179.387 84.1044 L 171.067 84.1044"/><path d="M 175.227 79.9444 L 175.227 88.2644"/></g><g stroke="rgb(0, 0, 0)" stroke-width="0.13" stroke-linecap="butt" stroke-linejoin="miter" fill="none"><path d="M 258.267 206.833 L 258.731 206.833 L 259.099 205.804 L 260.496 205.804 L 260.864 206.833 L 261.338 206.833 L 260.057 203.328 L 259.543 203.328 L 258.267 206.833 L 258.267 206.833 z M 259.26 205.376 L 259.8 203.832 L 260.34 205.376 L 259.26 205.376 L 259.26 205.376 z" stroke="none" fill-rule="evenodd" fill="rgb(0, 0, 0)"/></g><g stroke="rgb(0, 0, 0)" stroke-width="0.13" stroke-linecap="butt" stroke-linejoin="miter" fill="none"><path d="M 37.1949 203.333 L 36.03 203.333 L 36.03 206.833 L 37.1949 206.833 L 37.7447 206.722 L 38.1532 206.384 L 38.4053 205.835 L 38.4961 205.083 L 38.4154 204.317 L 38.3145 204.014 L 38.1733 203.772 L 37.7648 203.444 L 37.4975 203.363 L 37.1949 203.333 L 37.1949 203.333 z M 37.1596 203.752 L 37.5429 203.827 L 37.8052 204.059 L 37.9615 204.473 L 38.012 205.083 L 37.9565 205.673 L 37.8001 206.087 L 37.5328 206.334 L 37.1596 206.415 L 36.499 206.415 L 36.499 203.752 L 37.1596 203.752 L 37.1596 203.752 z" stroke="none" fill-rule="evenodd" fill="rgb(0, 0, 0)"/></g><g stroke="rgb(0, 0, 0)" stroke-width="0.13" stroke-linecap="butt" stroke-linejoin="miter" fill="none"><path d="M 185.542 4.36958 L 185.249 4.01657 L 185.053 3.92578 L 184.811 3.89552 L 184.432 3.96109 L 184.16 4.15778 L 183.994 4.47549 L 183.933 4.9193 L 183.933 6.16498 L 187.433 6.16498 L 187.433 4.84869 L 187.363 4.37968 L 187.156 4.03169 L 186.828 3.81483 L 186.384 3.73918 L 186.087 3.78458 L 185.84 3.90561 L 185.658 4.10229 L 185.542 4.36958 L 185.542 4.36958 z M 185.386 5.01512 L 185.386 5.701 L 184.352 5.701 L 184.352 4.97478 L 184.382 4.70244 L 184.473 4.5108 L 184.629 4.39481 L 184.861 4.35446 L 185.093 4.39986 L 185.255 4.52089 L 185.355 4.72766 L 185.386 5.01512 L 185.386 5.01512 z M 187.015 4.90417 L 187.015 5.701 L 185.809 5.701 L 185.809 4.94955 L 185.845 4.63184 L 185.951 4.40489 L 186.132 4.26872 L 186.394 4.22334 L 186.672 4.26872 L 186.863 4.39481 L 186.979 4.60663 L 187.015 4.90417 L 187.015 4.90417 z" stroke="none" fill-rule="evenodd" fill="rgb(0, 0, 0)"/></g><g stroke="rgb(0, 0, 0)" stroke-width="0.13" stroke-linecap="butt" stroke-linejoin="miter" fill="none"><path d="M 111.932 4.183 L 112.356 4.28386 L 112.658 4.45029 L 112.845 4.68227 L 112.905 4.95461 L 112.815 5.28241 L 112.542 5.53961 L 112.098 5.71109 L 111.483 5.76657 L 110.873 5.71109 L 110.424 5.54466 L 110.152 5.28746 L 110.056 4.95461 L 110.106 4.71252 L 110.248 4.50575 L 110.475 4.34438 L 110.787 4.23343 L 110.787 3.75432 L 110.308 3.90561 L 109.945 4.16786 L 109.718 4.52592 L 109.637 4.95461 L 109.763 5.48918 L 110.116 5.89769 L 110.696 6.15994 L 111.483 6.25072 L 112.27 6.15994 L 112.85 5.89769 L 113.208 5.48918 L 113.329 4.95461 L 113.233 4.48558 L 112.966 4.10735 L 112.527 3.84006 L 111.932 3.69884 L 111.932 4.183 L 111.932 4.183 z" stroke="none" fill-rule="evenodd" fill="rgb(0, 0, 0)"/></g><g stroke="rgb(0, 0, 0)" stroke-width="0.13" stroke-linecap="butt" stroke-linejoin="miter" fill="none"><path d="M 261.633 6.53314 L 261.633 6.06915 L 260.604 5.701 L 260.604 4.30403 L 261.633 3.93587 L 261.633 3.46181 L 258.128 4.74278 L 258.128 5.2572 L 261.633 6.53314 L 261.633 6.53314 z M 260.176 5.53961 L 258.632 5 L 260.176 4.46037 L 260.176 5.53961 L 260.176 5.53961 z" stroke="none" fill-rule="evenodd" fill="rgb(0, 0, 0)"/></g><g stroke="rgb(0, 0, 0)" stroke-width="0.13" stroke-linecap="butt" stroke-linejoin="miter" fill="none"><path d="M 35.5332 5.00504 L 35.5332 6.17003 L 39.0332 6.17003 L 39.0332 5.00504 L 38.9223 4.45532 L 38.5844 4.04683 L 38.0346 3.79466 L 37.2832 3.70389 L 36.5166 3.78458 L 36.214 3.88544 L 35.972 4.02666 L 35.6442 4.43515 L 35.5635 4.70244 L 35.5332 5.00504 L 35.5332 5.00504 z M 35.9518 5.04034 L 36.0274 4.65706 L 36.2594 4.39481 L 36.673 4.23846 L 37.2832 4.18803 L 37.8733 4.24352 L 38.2868 4.39986 L 38.5339 4.66714 L 38.6146 5.04034 L 38.6146 5.701 L 35.9518 5.701 L 35.9518 5.04034 L 35.9518 5.04034 z" stroke="none" fill-rule="evenodd" fill="rgb(0, 0, 0)"/></g><g stroke="rgb(0, 0, 0)" stroke-width="0.13" stroke-linecap="butt" stroke-linejoin="miter" fill="none"><path d="M 290.729 79.4838 L 290.729 79.5191 L 290.81 80.0032 L 291.047 80.3663 L 291.42 80.5983 L 291.914 80.6841 L 292.439 80.5983 L 292.832 80.3764 L 293.084 80.0234 L 293.175 79.5695 L 293.135 79.272 L 293.024 79.0299 L 292.842 78.8433 L 292.6 78.7071 L 292.928 78.4348 L 293.044 78.0011 L 292.968 77.6077 L 292.751 77.3102 L 292.398 77.1236 L 291.914 77.058 L 291.46 77.1387 L 291.112 77.3606 L 290.885 77.7136 L 290.81 78.1826 L 290.81 78.2179 L 291.259 78.2179 L 291.299 77.8952 L 291.43 77.6632 L 291.642 77.522 L 291.939 77.4715 L 292.202 77.5119 L 292.393 77.6178 L 292.509 77.7892 L 292.555 78.0212 L 292.509 78.2684 L 292.388 78.4348 L 292.177 78.5356 L 291.889 78.5659 L 291.692 78.5609 L 291.692 78.9593 L 291.939 78.9492 L 292.257 78.9946 L 292.494 79.1156 L 292.635 79.3123 L 292.686 79.5695 L 292.63 79.862 L 292.484 80.0789 L 292.252 80.215 L 291.945 80.2604 L 291.627 80.21 L 291.395 80.0587 L 291.249 79.8166 L 291.193 79.4838 L 290.729 79.4838 L 290.729 79.4838 z" stroke="none" fill-rule="evenodd" fill="rgb(0, 0, 0)"/></g><g stroke="rgb(0, 0, 0)" stroke-width="0.13" stroke-linecap="butt" stroke-linejoin="miter" fill="none"><path d="M 5.73378 80.0209 L 5.76909 80.0209 L 6.25324 79.9402 L 6.61635 79.7032 L 6.84834 79.33 L 6.93407 78.8357 L 6.84834 78.3112 L 6.62644 77.9179 L 6.27341 77.6657 L 5.81952 77.5749 L 5.52197 77.6153 L 5.27989 77.7262 L 5.09329 77.9078 L 4.95713 78.1499 L 4.68479 77.822 L 4.25108 77.706 L 3.8577 77.7817 L 3.56015 77.9986 L 3.37355 78.3516 L 3.30799 78.8357 L 3.38868 79.2896 L 3.61059 79.6376 L 3.96361 79.8645 L 4.43263 79.9402 L 4.46793 79.9402 L 4.46793 79.4913 L 4.14517 79.451 L 3.91318 79.3199 L 3.77197 79.1081 L 3.72154 78.8105 L 3.76188 78.5483 L 3.86779 78.3566 L 4.03926 78.2406 L 4.27125 78.1952 L 4.51837 78.2406 L 4.68479 78.3617 L 4.78566 78.5735 L 4.81592 78.8609 L 4.81087 79.0576 L 5.20929 79.0576 L 5.1992 78.8105 L 5.24459 78.4928 L 5.36563 78.2558 L 5.56231 78.1145 L 5.81952 78.0641 L 6.11203 78.1196 L 6.32889 78.2658 L 6.46505 78.4978 L 6.51044 78.8055 L 6.46001 79.1232 L 6.30871 79.3552 L 6.06664 79.5014 L 5.73378 79.5569 L 5.73378 80.0209 L 5.73378 80.0209 z" stroke="none" fill-rule="evenodd" fill="rgb(0, 0, 0)"/></g><g stroke="rgb(0, 0, 0)" stroke-width="0.13" stroke-linecap="butt" stroke-linejoin="miter" fill="none"><path d="M 290.769 133.083 L 293.175 133.083 L 293.175 132.65 L 291.274 132.65 L 291.38 132.412 L 291.561 132.216 L 292.121 131.858 L 292.419 131.706 L 292.751 131.49 L 292.988 131.237 L 293.125 130.94 L 293.175 130.602 L 293.089 130.178 L 292.852 129.845 L 292.489 129.634 L 292.02 129.558 L 291.536 129.644 L 291.168 129.881 L 290.931 130.259 L 290.85 130.758 L 290.85 130.829 L 291.309 130.829 L 291.309 130.789 L 291.354 130.446 L 291.491 130.193 L 291.707 130.032 L 291.995 129.977 L 292.287 130.027 L 292.504 130.153 L 292.646 130.35 L 292.696 130.597 L 292.661 130.829 L 292.565 131.026 L 292.403 131.197 L 292.182 131.348 L 291.884 131.51 L 291.39 131.822 L 291.042 132.155 L 290.835 132.559 L 290.769 133.068 L 290.769 133.083 L 290.769 133.083 z" stroke="none" fill-rule="evenodd" fill="rgb(0, 0, 0)"/></g><g stroke="rgb(0, 0, 0)" stroke-width="0.13" stroke-linecap="butt" stroke-linejoin="miter" fill="none"><path d="M 6.83321 132.481 L 6.83321 130.075 L 6.39949 130.075 L 6.39949 131.976 L 6.16246 131.87 L 5.96577 131.689 L 5.6077 131.129 L 5.45641 130.831 L 5.23955 130.499 L 4.98738 130.262 L 4.68983 130.125 L 4.35194 130.075 L 3.92831 130.161 L 3.59545 130.398 L 3.38364 130.761 L 3.30799 131.23 L 3.39372 131.714 L 3.63075 132.082 L 4.009 132.319 L 4.50828 132.4 L 4.57888 132.4 L 4.57888 131.941 L 4.53854 131.941 L 4.1956 131.896 L 3.94343 131.759 L 3.78205 131.543 L 3.72658 131.255 L 3.77701 130.963 L 3.90309 130.746 L 4.09978 130.604 L 4.34689 130.554 L 4.57888 130.589 L 4.77557 130.685 L 4.94704 130.847 L 5.09834 131.068 L 5.25972 131.366 L 5.5724 131.86 L 5.90525 132.208 L 6.30871 132.415 L 6.81808 132.481 L 6.83321 132.481 L 6.83321 132.481 z" stroke="none" fill-rule="evenodd" fill="rgb(0, 0, 0)"/></g><g stroke="rgb(0, 0, 0)" stroke-width="0.13" stroke-linecap="butt" stroke-linejoin="miter" fill="none"><path d="M 292.277 28.0832 L 292.731 28.0832 L 292.731 27.2158 L 293.231 27.2158 L 293.231 26.8123 L 292.731 26.8123 L 292.731 24.6588 L 292.272 24.6588 L 290.739 26.772 L 290.739 27.2158 L 292.277 27.2158 L 292.277 28.0832 L 292.277 28.0832 z M 291.163 26.8123 L 292.277 25.2439 L 292.277 26.8123 L 291.163 26.8123 L 291.163 26.8123 z" stroke="none" fill-rule="evenodd" fill="rgb(0, 0, 0)"/></g><g stroke="rgb(0, 0, 0)" stroke-width="0.13" stroke-linecap="butt" stroke-linejoin="miter" fill="none"><path d="M 6.83321 25.9726 L 6.83321 25.5187 L 5.96577 25.5187 L 5.96577 25.0194 L 5.56231 25.0194 L 5.56231 25.5187 L 3.40886 25.5187 L 3.40886 25.9777 L 5.52197 27.5108 L 5.96577 27.5108 L 5.96577 25.9726 L 6.83321 25.9726 L 6.83321 25.9726 z M 5.56231 27.0872 L 3.99387 25.9726 L 5.56231 25.9726 L 5.56231 27.0872 L 5.56231 27.0872 z" stroke="none" fill-rule="evenodd" fill="rgb(0, 0, 0)"/></g><g stroke="rgb(0, 0, 0)" stroke-width="0.13" stroke-linecap="butt" stroke-linejoin="miter" fill="none"><path d="M 291.909 185.583 L 292.368 185.583 L 292.368 182.058 L 292.025 182.058 L 291.934 182.366 L 291.753 182.572 L 291.476 182.693 L 291.092 182.734 L 291.092 183.092 L 291.909 183.092 L 291.909 185.583 L 291.909 185.583 z" stroke="none" fill-rule="evenodd" fill="rgb(0, 0, 0)"/></g><g stroke="rgb(0, 0, 0)" stroke-width="0.13" stroke-linecap="butt" stroke-linejoin="miter" fill="none"><path d="M 6.83321 183.841 L 6.83321 183.382 L 3.30799 183.382 L 3.30799 183.725 L 3.61562 183.816 L 3.8224 183.997 L 3.94343 184.275 L 3.98378 184.658 L 4.34185 184.658 L 4.34185 183.841 L 6.83321 183.841 L 6.83321 183.841 z" stroke="none" fill-rule="evenodd" fill="rgb(0, 0, 0)"/></g><g stroke="rgb(0, 0, 0)" stroke-width="0.13" stroke-linecap="butt" stroke-linejoin="miter" fill="none"><path d="M 164.081 169.969 L 163.249 169.969 L 163.249 172.469 L 164.081 172.469 L 164.473 172.39 L 164.765 172.148 L 164.945 171.756 L 165.01 171.219 L 164.952 170.671 L 164.88 170.455 L 164.78 170.282 L 164.488 170.048 L 164.297 169.991 L 164.081 169.969 L 164.081 169.969 z M 164.055 170.268 L 164.329 170.322 L 164.517 170.488 L 164.628 170.783 L 164.664 171.219 L 164.625 171.64 L 164.513 171.936 L 164.322 172.112 L 164.055 172.17 L 163.584 172.17 L 163.584 170.268 L 164.055 170.268 L 164.055 170.268 z M 166.004 170.272 L 166.217 170.272 L 166.718 169.659 L 166.365 169.659 L 166.004 170.272 L 166.004 170.272 z M 165.785 171.594 L 167.053 171.594 L 167.056 171.446 L 166.999 171.032 L 166.84 170.722 L 166.588 170.535 L 166.253 170.466 L 165.925 170.538 L 165.673 170.74 L 165.511 171.068 L 165.453 171.5 L 165.507 171.943 L 165.669 172.267 L 165.918 172.469 L 166.242 172.537 L 166.523 172.491 L 166.754 172.368 L 166.923 172.174 L 167.02 171.914 L 166.707 171.914 L 166.642 172.058 L 166.548 172.166 L 166.282 172.253 L 166.076 172.213 L 165.921 172.087 L 165.821 171.882 L 165.785 171.604 L 165.785 171.594 L 165.785 171.594 z M 165.785 171.327 L 165.824 171.079 L 165.921 170.895 L 166.069 170.783 L 166.264 170.744 L 166.455 170.783 L 166.602 170.895 L 166.692 171.079 L 166.725 171.327 L 165.785 171.327 L 165.785 171.327 z M 168.623 171.341 L 168.317 171.269 L 168.09 171.187 L 168.014 171.017 L 168.036 170.898 L 168.112 170.812 L 168.234 170.758 L 168.411 170.736 L 168.58 170.758 L 168.713 170.823 L 168.8 170.92 L 168.836 171.05 L 169.146 171.05 L 169.146 171.043 L 169.092 170.808 L 168.944 170.625 L 168.713 170.509 L 168.411 170.466 L 168.104 170.509 L 167.881 170.628 L 167.741 170.805 L 167.697 171.028 L 167.73 171.244 L 167.831 171.396 L 167.996 171.504 L 168.238 171.579 L 168.591 171.666 L 168.807 171.756 L 168.865 171.828 L 168.886 171.936 L 168.854 172.069 L 168.767 172.17 L 168.627 172.235 L 168.439 172.256 L 168.241 172.235 L 168.097 172.159 L 168 172.037 L 167.96 171.867 L 167.654 171.867 L 167.705 172.156 L 167.852 172.365 L 168.086 172.491 L 168.411 172.537 L 168.749 172.491 L 168.998 172.365 L 169.149 172.163 L 169.203 171.9 L 169.164 171.673 L 169.052 171.518 L 168.868 171.417 L 168.623 171.341 L 168.623 171.341 z M 170.813 172.202 L 170.813 170.599 L 169.999 170.599 L 169.999 170.87 L 170.496 170.87 L 170.496 172.202 L 169.848 172.202 L 169.848 172.469 L 171.469 172.469 L 171.469 172.202 L 170.813 172.202 L 170.813 172.202 z M 170.824 169.883 L 170.489 169.883 L 170.489 170.243 L 170.824 170.243 L 170.824 169.883 L 170.824 169.883 z M 173.519 172.383 L 173.519 170.535 L 173.216 170.535 L 173.216 170.848 L 172.968 170.563 L 172.816 170.491 L 172.647 170.466 L 172.341 170.538 L 172.103 170.74 L 171.948 171.064 L 171.894 171.5 L 171.948 171.939 L 172.103 172.264 L 172.341 172.469 L 172.647 172.537 L 172.82 172.512 L 172.964 172.447 L 173.216 172.174 L 173.216 172.447 L 173.187 172.664 L 173.108 172.818 L 172.957 172.909 L 172.73 172.941 L 172.532 172.919 L 172.391 172.865 L 172.308 172.772 L 172.283 172.646 L 171.977 172.646 L 171.977 172.66 L 172.024 172.89 L 172.168 173.063 L 172.398 173.175 L 172.712 173.215 L 173.086 173.161 L 173.335 173.009 L 173.476 172.746 L 173.519 172.383 L 173.519 172.383 z M 172.222 171.5 L 172.254 171.179 L 172.352 170.942 L 172.503 170.801 L 172.705 170.751 L 172.917 170.801 L 173.076 170.942 L 173.173 171.179 L 173.209 171.5 L 173.173 171.828 L 173.076 172.062 L 172.917 172.206 L 172.705 172.253 L 172.503 172.206 L 172.352 172.062 L 172.254 171.824 L 172.222 171.5 L 172.222 171.5 z M 174.182 172.469 L 174.499 172.469 L 174.499 171.352 L 174.531 171.097 L 174.635 170.909 L 174.798 170.794 L 175.014 170.751 L 175.187 170.787 L 175.295 170.884 L 175.349 171.046 L 175.367 171.262 L 175.367 172.469 L 175.684 172.469 L 175.684 171.197 L 175.669 170.942 L 175.605 170.729 L 175.392 170.535 L 175.061 170.466 L 174.877 170.491 L 174.722 170.56 L 174.589 170.675 L 174.484 170.83 L 174.484 170.535 L 174.182 170.535 L 174.182 172.469 L 174.182 172.469 z M 177.499 172.217 L 177.499 172.228 L 177.517 172.35 L 177.571 172.437 L 177.798 172.505 L 177.975 172.476 L 177.975 172.231 L 177.899 172.242 L 177.798 172.195 L 177.78 172.051 L 177.78 171.05 L 177.737 170.794 L 177.611 170.614 L 177.391 170.506 L 177.081 170.466 L 176.779 170.509 L 176.556 170.632 L 176.415 170.823 L 176.368 171.075 L 176.368 171.097 L 176.653 171.097 L 176.678 170.945 L 176.757 170.837 L 176.887 170.772 L 177.071 170.747 L 177.247 170.765 L 177.373 170.819 L 177.449 170.913 L 177.474 171.043 L 177.46 171.194 L 177.402 171.269 L 177.258 171.305 L 176.988 171.334 L 176.678 171.399 L 176.458 171.514 L 176.329 171.695 L 176.289 171.961 L 176.325 172.199 L 176.437 172.375 L 176.617 172.487 L 176.865 172.527 L 177.2 172.451 L 177.499 172.217 L 177.499 172.217 z M 177.463 171.792 L 177.42 171.979 L 177.305 172.123 L 177.132 172.217 L 176.919 172.249 L 176.782 172.231 L 176.685 172.174 L 176.624 172.073 L 176.606 171.932 L 176.62 171.806 L 176.678 171.716 L 176.909 171.615 L 177.2 171.572 L 177.463 171.486 L 177.463 171.792 L 177.463 171.792 z M 178.944 170.87 L 178.944 171.839 L 178.965 172.152 L 179.066 172.368 L 179.268 172.494 L 179.61 172.537 L 179.985 172.519 L 179.985 172.246 L 179.711 172.267 L 179.463 172.238 L 179.329 172.148 L 179.272 171.997 L 179.261 171.785 L 179.261 170.87 L 179.985 170.87 L 179.985 170.599 L 179.261 170.599 L 179.261 170.034 L 178.944 170.034 L 178.944 170.599 L 178.396 170.599 L 178.396 170.87 L 178.944 170.87 L 178.944 170.87 z M 181.656 172.202 L 181.656 170.599 L 180.842 170.599 L 180.842 170.87 L 181.339 170.87 L 181.339 172.202 L 180.691 172.202 L 180.691 172.469 L 182.312 172.469 L 182.312 172.202 L 181.656 172.202 L 181.656 172.202 z M 181.667 169.883 L 181.332 169.883 L 181.332 170.243 L 181.667 170.243 L 181.667 169.883 L 181.667 169.883 z M 182.762 171.504 L 182.82 171.943 L 182.986 172.267 L 183.249 172.469 L 183.602 172.537 L 183.951 172.469 L 184.214 172.271 L 184.38 171.947 L 184.441 171.504 L 184.38 171.064 L 184.214 170.736 L 183.951 170.538 L 183.602 170.466 L 183.249 170.538 L 182.986 170.74 L 182.82 171.064 L 182.762 171.504 L 182.762 171.504 z M 183.087 171.5 L 183.119 171.176 L 183.22 170.942 L 183.382 170.798 L 183.602 170.747 L 183.818 170.798 L 183.98 170.938 L 184.081 171.176 L 184.117 171.5 L 184.081 171.828 L 183.98 172.066 L 183.818 172.21 L 183.602 172.256 L 183.382 172.21 L 183.22 172.066 L 183.119 171.828 L 183.087 171.5 L 183.087 171.5 z M 185.025 172.469 L 185.342 172.469 L 185.342 171.352 L 185.374 171.097 L 185.478 170.909 L 185.641 170.794 L 185.857 170.751 L 186.03 170.787 L 186.138 170.884 L 186.192 171.046 L 186.21 171.262 L 186.21 172.469 L 186.527 172.469 L 186.527 171.197 L 186.512 170.942 L 186.447 170.729 L 186.235 170.535 L 185.904 170.466 L 185.72 170.491 L 185.565 170.56 L 185.432 170.675 L 185.327 170.83 L 185.327 170.535 L 185.025 170.535 L 185.025 172.469 L 185.025 172.469 z" stroke="none" fill-rule="evenodd" fill="rgb(0, 0, 0)"/></g><g stroke="rgb(0, 0, 0)" stroke-width="0.13" stroke-linecap="butt" stroke-linejoin="miter" fill="none"><path d="M 156.05 185.47 L 156.653 185.47 L 156.653 183.57 L 157.269 183.57 L 157.723 183.589 L 158.009 183.68 L 158.164 183.894 L 158.229 184.277 L 158.262 184.86 L 158.3 185.243 L 158.378 185.47 L 159.059 185.47 L 159.059 185.347 L 158.91 185.165 L 158.858 184.828 L 158.813 184.102 L 158.702 183.563 L 158.553 183.395 L 158.32 183.272 L 158.579 183.11 L 158.761 182.883 L 158.878 182.597 L 158.916 182.254 L 158.826 181.709 L 158.566 181.3 L 158.138 181.054 L 157.555 180.97 L 156.05 180.97 L 156.05 185.47 L 156.05 185.47 z M 157.386 181.521 L 157.782 181.56 L 158.061 181.683 L 158.236 181.91 L 158.294 182.267 L 158.229 182.643 L 158.054 182.87 L 157.756 182.986 L 157.347 183.019 L 156.653 183.019 L 156.653 181.521 L 157.386 181.521 L 157.386 181.521 z M 160.557 183.894 L 162.839 183.894 L 162.846 183.628 L 162.742 182.883 L 162.457 182.325 L 162.003 181.988 L 161.4 181.865 L 160.81 181.994 L 160.356 182.357 L 160.064 182.947 L 159.96 183.726 L 160.058 184.523 L 160.349 185.107 L 160.797 185.47 L 161.38 185.593 L 161.886 185.509 L 162.301 185.288 L 162.606 184.938 L 162.781 184.471 L 162.217 184.471 L 162.1 184.731 L 161.932 184.925 L 161.452 185.081 L 161.082 185.009 L 160.803 184.782 L 160.622 184.413 L 160.557 183.914 L 160.557 183.894 L 160.557 183.894 z M 160.557 183.414 L 160.628 182.967 L 160.803 182.636 L 161.069 182.435 L 161.419 182.364 L 161.763 182.435 L 162.029 182.636 L 162.191 182.967 L 162.249 183.414 L 160.557 183.414 L 160.557 183.414 z M 166.03 185.016 L 166.03 185.035 L 166.062 185.256 L 166.159 185.411 L 166.568 185.535 L 166.885 185.483 L 166.885 185.042 L 166.749 185.061 L 166.568 184.977 L 166.535 184.718 L 166.535 182.915 L 166.458 182.455 L 166.231 182.13 L 165.835 181.936 L 165.277 181.865 L 164.733 181.942 L 164.331 182.163 L 164.078 182.506 L 163.994 182.96 L 163.994 182.999 L 164.506 182.999 L 164.551 182.727 L 164.694 182.532 L 164.927 182.416 L 165.258 182.37 L 165.576 182.403 L 165.803 182.5 L 165.939 182.669 L 165.984 182.902 L 165.958 183.174 L 165.854 183.311 L 165.595 183.375 L 165.109 183.427 L 164.551 183.544 L 164.156 183.751 L 163.922 184.076 L 163.851 184.555 L 163.916 184.983 L 164.117 185.301 L 164.441 185.502 L 164.888 185.573 L 165.491 185.437 L 166.03 185.016 L 166.03 185.016 z M 165.965 184.251 L 165.887 184.588 L 165.679 184.847 L 165.368 185.016 L 164.986 185.074 L 164.739 185.042 L 164.564 184.938 L 164.454 184.756 L 164.421 184.504 L 164.447 184.277 L 164.551 184.115 L 164.966 183.933 L 165.491 183.855 L 165.965 183.7 L 165.965 184.251 L 165.965 184.251 z M 168.079 185.47 L 168.649 185.47 L 168.649 183.479 L 168.708 182.999 L 168.883 182.656 L 169.168 182.448 L 169.55 182.377 L 169.836 182.422 L 170.05 182.552 L 170.179 182.772 L 170.225 183.071 L 170.802 183.071 L 170.724 182.545 L 170.51 182.169 L 170.153 181.942 L 169.667 181.865 L 169.336 181.916 L 169.051 182.046 L 168.798 182.267 L 168.597 182.565 L 168.597 181.988 L 168.079 181.988 L 168.079 185.47 L 168.079 185.47 z M 175.697 185.47 L 178.589 185.47 L 178.589 184.925 L 176.294 184.925 L 176.294 180.97 L 175.697 180.97 L 175.697 185.47 L 175.697 185.47 z M 180.074 183.894 L 182.357 183.894 L 182.363 183.628 L 182.259 182.883 L 181.974 182.325 L 181.52 181.988 L 180.917 181.865 L 180.327 181.994 L 179.873 182.357 L 179.581 182.947 L 179.478 183.726 L 179.575 184.523 L 179.867 185.107 L 180.314 185.47 L 180.898 185.593 L 181.403 185.509 L 181.818 185.288 L 182.123 184.938 L 182.298 184.471 L 181.734 184.471 L 181.617 184.731 L 181.449 184.925 L 180.969 185.081 L 180.599 185.009 L 180.321 184.782 L 180.139 184.413 L 180.074 183.914 L 180.074 183.894 L 180.074 183.894 z M 180.074 183.414 L 180.146 182.967 L 180.321 182.636 L 180.586 182.435 L 180.937 182.364 L 181.28 182.435 L 181.546 182.636 L 181.708 182.967 L 181.767 183.414 L 180.074 183.414 L 180.074 183.414 z M 184.269 182.591 L 184.269 185.47 L 184.84 185.47 L 184.84 182.591 L 186.137 182.591 L 186.137 182.104 L 184.84 182.104 L 184.84 181.89 L 184.885 181.631 L 185.035 181.456 L 185.287 181.352 L 185.651 181.313 L 186.137 181.339 L 186.137 180.847 L 185.521 180.814 L 184.963 180.872 L 184.574 181.048 L 184.341 181.352 L 184.269 181.787 L 184.269 182.104 L 183.226 182.104 L 183.226 182.591 L 184.269 182.591 L 184.269 182.591 z M 188.147 182.591 L 188.147 184.335 L 188.186 184.899 L 188.367 185.288 L 188.731 185.515 L 189.347 185.593 L 190.021 185.561 L 190.021 185.068 L 189.528 185.107 L 189.081 185.055 L 188.841 184.893 L 188.737 184.62 L 188.718 184.238 L 188.718 182.591 L 190.021 182.591 L 190.021 182.104 L 188.718 182.104 L 188.718 181.086 L 188.147 181.086 L 188.147 182.104 L 187.161 182.104 L 187.161 182.591 L 188.147 182.591 L 188.147 182.591 z M 195.215 185.47 L 198.107 185.47 L 198.107 184.925 L 195.811 184.925 L 195.811 180.97 L 195.215 180.97 L 195.215 185.47 L 195.215 185.47 z M 198.924 183.732 L 199.027 184.523 L 199.326 185.107 L 199.799 185.47 L 200.434 185.593 L 201.063 185.47 L 201.537 185.113 L 201.835 184.53 L 201.945 183.732 L 201.835 182.941 L 201.537 182.351 L 201.063 181.994 L 200.434 181.865 L 199.799 181.994 L 199.326 182.357 L 199.027 182.941 L 198.924 183.732 L 198.924 183.732 z M 199.507 183.726 L 199.566 183.142 L 199.747 182.72 L 200.039 182.461 L 200.434 182.37 L 200.823 182.461 L 201.115 182.714 L 201.297 183.142 L 201.362 183.726 L 201.297 184.316 L 201.115 184.744 L 200.823 185.003 L 200.434 185.087 L 200.039 185.003 L 199.747 184.744 L 199.566 184.316 L 199.507 183.726 L 199.507 183.726 z M 203.819 185.47 L 204.338 182.513 L 204.857 185.47 L 205.401 185.47 L 206.257 181.988 L 205.706 181.988 L 205.129 184.945 L 204.617 181.988 L 204.053 181.988 L 203.54 184.945 L 202.963 181.988 L 202.419 181.988 L 203.274 185.47 L 203.819 185.47 L 203.819 185.47 z M 207.398 183.894 L 209.681 183.894 L 209.687 183.628 L 209.584 182.883 L 209.298 182.325 L 208.844 181.988 L 208.241 181.865 L 207.651 181.994 L 207.197 182.357 L 206.906 182.947 L 206.802 183.726 L 206.899 184.523 L 207.191 185.107 L 207.638 185.47 L 208.222 185.593 L 208.728 185.509 L 209.143 185.288 L 209.447 184.938 L 209.622 184.471 L 209.058 184.471 L 208.942 184.731 L 208.773 184.925 L 208.293 185.081 L 207.924 185.009 L 207.645 184.782 L 207.463 184.413 L 207.398 183.914 L 207.398 183.894 L 207.398 183.894 z M 207.398 183.414 L 207.47 182.967 L 207.645 182.636 L 207.911 182.435 L 208.261 182.364 L 208.604 182.435 L 208.87 182.636 L 209.032 182.967 L 209.091 183.414 L 207.398 183.414 L 207.398 183.414 z M 211.017 185.47 L 211.587 185.47 L 211.587 183.479 L 211.646 182.999 L 211.821 182.656 L 212.106 182.448 L 212.488 182.377 L 212.774 182.422 L 212.988 182.552 L 213.117 182.772 L 213.163 183.071 L 213.74 183.071 L 213.662 182.545 L 213.448 182.169 L 213.091 181.942 L 212.605 181.865 L 212.274 181.916 L 211.989 182.046 L 211.736 182.267 L 211.535 182.565 L 211.535 181.988 L 211.017 181.988 L 211.017 185.47 L 211.017 185.47 z M 217.981 185.47 L 218.577 185.47 L 219.05 184.147 L 220.847 184.147 L 221.32 185.47 L 221.929 185.47 L 220.282 180.963 L 219.621 180.963 L 217.981 185.47 L 217.981 185.47 z M 219.258 183.596 L 219.952 181.612 L 220.646 183.596 L 219.258 183.596 L 219.258 183.596 z M 223.071 183.985 L 224.64 183.985 L 224.64 183.473 L 223.071 183.473 L 223.071 183.985 L 223.071 183.985 z M 225.787 185.47 L 226.384 185.47 L 226.857 184.147 L 228.653 184.147 L 229.127 185.47 L 229.736 185.47 L 228.089 180.963 L 227.428 180.963 L 225.787 185.47 L 225.787 185.47 z M 227.065 183.596 L 227.759 181.612 L 228.452 183.596 L 227.065 183.596 L 227.065 183.596 z M 230.534 185.47 L 231.104 185.47 L 231.104 183.479 L 231.163 182.999 L 231.338 182.656 L 231.623 182.448 L 232.006 182.377 L 232.291 182.422 L 232.505 182.552 L 232.635 182.772 L 232.68 183.071 L 233.257 183.071 L 233.179 182.545 L 232.965 182.169 L 232.609 181.942 L 232.122 181.865 L 231.792 181.916 L 231.506 182.046 L 231.254 182.267 L 231.053 182.565 L 231.053 181.988 L 230.534 181.988 L 230.534 185.47 L 230.534 185.47 z M 233.996 185.47 L 234.522 185.47 L 234.522 183.142 L 234.554 182.792 L 234.651 182.539 L 234.8 182.39 L 234.995 182.331 L 235.151 182.383 L 235.254 182.513 L 235.306 182.733 L 235.326 183.025 L 235.326 185.47 L 235.818 185.47 L 235.818 183.142 L 235.851 182.798 L 235.948 182.545 L 236.104 182.39 L 236.298 182.331 L 236.454 182.383 L 236.558 182.513 L 236.622 183.025 L 236.622 185.47 L 237.148 185.47 L 237.148 183.064 L 237.115 182.565 L 237.012 182.182 L 236.804 181.949 L 236.467 181.865 L 236.071 181.994 L 235.767 182.37 L 235.527 182.001 L 235.125 181.865 L 234.755 181.994 L 234.502 182.357 L 234.502 181.988 L 233.996 181.988 L 233.996 185.47 L 233.996 185.47 z M 241.927 185.47 L 242.53 185.47 L 242.53 183.57 L 243.146 183.57 L 243.599 183.589 L 243.885 183.68 L 244.04 183.894 L 244.105 184.277 L 244.138 184.86 L 244.177 185.243 L 244.254 185.47 L 244.935 185.47 L 244.935 185.347 L 244.786 185.165 L 244.734 184.828 L 244.689 184.102 L 244.579 183.563 L 244.429 183.395 L 244.196 183.272 L 244.455 183.11 L 244.637 182.883 L 244.754 182.597 L 244.792 182.254 L 244.702 181.709 L 244.442 181.3 L 244.014 181.054 L 243.431 180.97 L 241.927 180.97 L 241.927 185.47 L 241.927 185.47 z M 243.262 181.521 L 243.658 181.56 L 243.937 181.683 L 244.112 181.91 L 244.17 182.267 L 244.105 182.643 L 243.93 182.87 L 243.632 182.986 L 243.223 183.019 L 242.53 183.019 L 242.53 181.521 L 243.262 181.521 L 243.262 181.521 z M 246.433 183.894 L 248.715 183.894 L 248.722 183.628 L 248.618 182.883 L 248.333 182.325 L 247.879 181.988 L 247.276 181.865 L 246.686 181.994 L 246.232 182.357 L 245.94 182.947 L 245.836 183.726 L 245.934 184.523 L 246.225 185.107 L 246.673 185.47 L 247.256 185.593 L 247.762 185.509 L 248.177 185.288 L 248.482 184.938 L 248.657 184.471 L 248.093 184.471 L 247.976 184.731 L 247.808 184.925 L 247.328 185.081 L 246.958 185.009 L 246.679 184.782 L 246.498 184.413 L 246.433 183.914 L 246.433 183.894 L 246.433 183.894 z M 246.433 183.414 L 246.504 182.967 L 246.679 182.636 L 246.945 182.435 L 247.295 182.364 L 247.639 182.435 L 247.905 182.636 L 248.067 182.967 L 248.125 183.414 L 246.433 183.414 L 246.433 183.414 z M 251.906 185.016 L 251.906 185.035 L 251.938 185.256 L 252.035 185.411 L 252.444 185.535 L 252.762 185.483 L 252.762 185.042 L 252.625 185.061 L 252.444 184.977 L 252.411 184.718 L 252.411 182.915 L 252.334 182.455 L 252.107 182.13 L 251.711 181.936 L 251.153 181.865 L 250.609 181.942 L 250.207 182.163 L 249.954 182.506 L 249.87 182.96 L 249.87 182.999 L 250.382 182.999 L 250.427 182.727 L 250.57 182.532 L 250.803 182.416 L 251.134 182.37 L 251.452 182.403 L 251.679 182.5 L 251.815 182.669 L 251.86 182.902 L 251.834 183.174 L 251.731 183.311 L 251.471 183.375 L 250.985 183.427 L 250.427 183.544 L 250.032 183.751 L 249.798 184.076 L 249.727 184.555 L 249.792 184.983 L 249.993 185.301 L 250.317 185.502 L 250.764 185.573 L 251.367 185.437 L 251.906 185.016 L 251.906 185.016 z M 251.841 184.251 L 251.763 184.588 L 251.555 184.847 L 251.244 185.016 L 250.862 185.074 L 250.615 185.042 L 250.44 184.938 L 250.33 184.756 L 250.298 184.504 L 250.323 184.277 L 250.427 184.115 L 250.842 183.933 L 251.367 183.855 L 251.841 183.7 L 251.841 184.251 L 251.841 184.251 z M 253.955 185.47 L 254.525 185.47 L 254.525 183.479 L 254.584 182.999 L 254.759 182.656 L 255.044 182.448 L 255.427 182.377 L 255.712 182.422 L 255.926 182.552 L 256.055 182.772 L 256.101 183.071 L 256.678 183.071 L 256.6 182.545 L 256.386 182.169 L 256.03 181.942 L 255.543 181.865 L 255.213 181.916 L 254.927 182.046 L 254.674 182.267 L 254.473 182.565 L 254.473 181.988 L 253.955 181.988 L 253.955 185.47 L 253.955 185.47 z M 261.573 185.47 L 264.465 185.47 L 264.465 184.925 L 262.17 184.925 L 262.17 180.97 L 261.573 180.97 L 261.573 185.47 L 261.573 185.47 z M 265.282 183.732 L 265.386 184.523 L 265.684 185.107 L 266.158 185.47 L 266.793 185.593 L 267.422 185.47 L 267.896 185.113 L 268.194 184.53 L 268.304 183.732 L 268.194 182.941 L 267.896 182.351 L 267.422 181.994 L 266.793 181.865 L 266.158 181.994 L 265.684 182.357 L 265.386 182.941 L 265.282 183.732 L 265.282 183.732 z M 265.866 183.726 L 265.924 183.142 L 266.106 182.72 L 266.398 182.461 L 266.793 182.37 L 267.182 182.461 L 267.474 182.714 L 267.656 183.142 L 267.72 183.726 L 267.656 184.316 L 267.474 184.744 L 267.182 185.003 L 266.793 185.087 L 266.398 185.003 L 266.106 184.744 L 265.924 184.316 L 265.866 183.726 L 265.866 183.726 z M 270.178 185.47 L 270.697 182.513 L 271.215 185.47 L 271.76 185.47 L 272.616 181.988 L 272.065 181.988 L 271.488 184.945 L 270.975 181.988 L 270.411 181.988 L 269.899 184.945 L 269.322 181.988 L 268.777 181.988 L 269.633 185.47 L 270.178 185.47 L 270.178 185.47 z M 273.757 183.894 L 276.04 183.894 L 276.046 183.628 L 275.942 182.883 L 275.657 182.325 L 275.203 181.988 L 274.6 181.865 L 274.01 181.994 L 273.556 182.357 L 273.264 182.947 L 273.161 183.726 L 273.258 184.523 L 273.55 185.107 L 273.997 185.47 L 274.581 185.593 L 275.086 185.509 L 275.501 185.288 L 275.806 184.938 L 275.981 184.471 L 275.417 184.471 L 275.3 184.731 L 275.132 184.925 L 274.652 185.081 L 274.282 185.009 L 274.004 184.782 L 273.822 184.413 L 273.757 183.914 L 273.757 183.894 L 273.757 183.894 z M 273.757 183.414 L 273.828 182.967 L 274.004 182.636 L 274.269 182.435 L 274.62 182.364 L 274.963 182.435 L 275.229 182.636 L 275.391 182.967 L 275.449 183.414 L 273.757 183.414 L 273.757 183.414 z M 277.375 185.47 L 277.946 185.47 L 277.946 183.479 L 278.004 182.999 L 278.179 182.656 L 278.465 182.448 L 278.847 182.377 L 279.132 182.422 L 279.346 182.552 L 279.476 182.772 L 279.522 183.071 L 280.099 183.071 L 280.021 182.545 L 279.807 182.169 L 279.45 181.942 L 278.964 181.865 L 278.633 181.916 L 278.348 182.046 L 278.095 182.267 L 277.894 182.565 L 277.894 181.988 L 277.375 181.988 L 277.375 185.47 L 277.375 185.47 z" stroke="none" fill-rule="evenodd" fill="rgb(0, 0, 0)"/></g><g stroke="rgb(0, 0, 0)" stroke-width="0.13" stroke-linecap="butt" stroke-linejoin="miter" fill="none"><path d="M 128.027 104.68 L 128.496 104.68 L 128.496 103.202 L 128.975 103.202 L 129.328 103.217 L 129.55 103.288 L 129.671 103.454 L 129.721 103.752 L 129.746 104.205 L 129.777 104.503 L 129.837 104.68 L 130.367 104.68 L 130.367 104.584 L 130.251 104.442 L 130.21 104.18 L 130.175 103.615 L 130.089 103.197 L 129.973 103.066 L 129.792 102.97 L 129.993 102.844 L 130.135 102.667 L 130.225 102.445 L 130.256 102.178 L 130.185 101.754 L 129.983 101.437 L 129.65 101.245 L 129.197 101.18 L 128.027 101.18 L 128.027 104.68 L 128.027 104.68 z M 129.065 101.608 L 129.373 101.638 L 129.59 101.734 L 129.726 101.911 L 129.771 102.188 L 129.721 102.481 L 129.585 102.657 L 129.353 102.748 L 129.035 102.773 L 128.496 102.773 L 128.496 101.608 L 129.065 101.608 L 129.065 101.608 z M 131.163 104.68 L 133.413 104.68 L 133.413 104.256 L 131.627 104.256 L 131.627 101.18 L 131.163 101.18 L 131.163 104.68 L 131.163 104.68 z M 134.199 104.68 L 136.449 104.68 L 136.449 104.256 L 134.663 104.256 L 134.663 101.18 L 134.199 101.18 L 134.199 104.68 L 134.199 104.68 z M 137.649 103.525 L 138.87 103.525 L 138.87 103.126 L 137.649 103.126 L 137.649 103.525 L 137.649 103.525 z" stroke="none" fill-rule="evenodd" fill="rgb(0, 0, 0)"/></g><g stroke="rgb(0, 0, 0)" stroke-width="0.13" stroke-linecap="butt" stroke-linejoin="miter" fill="none"><path d="M 128.027 110.726 L 128.496 110.726 L 128.496 109.249 L 128.975 109.249 L 129.328 109.264 L 129.55 109.334 L 129.671 109.501 L 129.721 109.798 L 129.746 110.252 L 129.777 110.55 L 129.837 110.726 L 130.367 110.726 L 130.367 110.631 L 130.251 110.489 L 130.21 110.227 L 130.175 109.662 L 130.089 109.244 L 129.973 109.113 L 129.792 109.017 L 129.993 108.891 L 130.135 108.714 L 130.225 108.492 L 130.256 108.225 L 130.185 107.801 L 129.983 107.484 L 129.65 107.292 L 129.197 107.226 L 128.027 107.226 L 128.027 110.726 L 128.027 110.726 z M 129.065 107.655 L 129.373 107.685 L 129.59 107.781 L 129.726 107.958 L 129.771 108.235 L 129.721 108.527 L 129.585 108.704 L 129.353 108.795 L 129.035 108.82 L 128.496 108.82 L 128.496 107.655 L 129.065 107.655 L 129.065 107.655 z M 131.163 110.726 L 133.413 110.726 L 133.413 110.303 L 131.627 110.303 L 131.627 107.226 L 131.163 107.226 L 131.163 110.726 L 131.163 110.726 z M 134.018 109.395 L 134.089 110.025 L 134.31 110.474 L 134.684 110.731 L 135.223 110.822 L 135.758 110.731 L 136.131 110.474 L 136.353 110.03 L 136.429 109.395 L 136.429 107.226 L 135.96 107.226 L 135.96 109.42 L 135.914 109.849 L 135.778 110.156 L 135.546 110.338 L 135.223 110.399 L 134.89 110.338 L 134.658 110.156 L 134.522 109.854 L 134.482 109.42 L 134.482 107.226 L 134.018 107.226 L 134.018 109.395 L 134.018 109.395 z" stroke="none" fill-rule="evenodd" fill="rgb(0, 0, 0)"/></g><g stroke="rgb(0, 0, 0)" stroke-width="0.13" stroke-linecap="butt" stroke-linejoin="miter" fill="none"><path d="M 169.621 106.961 L 170.09 106.961 L 170.09 105.483 L 170.569 105.483 L 170.922 105.498 L 171.144 105.569 L 171.265 105.736 L 171.315 106.033 L 171.34 106.487 L 171.371 106.785 L 171.431 106.961 L 171.961 106.961 L 171.961 106.865 L 171.845 106.724 L 171.804 106.462 L 171.769 105.897 L 171.683 105.478 L 171.567 105.347 L 171.386 105.251 L 171.587 105.125 L 171.729 104.949 L 171.819 104.727 L 171.85 104.46 L 171.779 104.036 L 171.577 103.718 L 171.245 103.527 L 170.791 103.461 L 169.621 103.461 L 169.621 106.961 L 169.621 106.961 z M 170.66 103.89 L 170.967 103.92 L 171.184 104.016 L 171.32 104.192 L 171.366 104.47 L 171.315 104.762 L 171.179 104.939 L 170.947 105.029 L 170.629 105.055 L 170.09 105.055 L 170.09 103.89 L 170.66 103.89 L 170.66 103.89 z M 172.757 106.961 L 175.007 106.961 L 175.007 106.537 L 173.221 106.537 L 173.221 103.461 L 172.757 103.461 L 172.757 106.961 L 172.757 106.961 z M 175.794 106.961 L 178.043 106.961 L 178.043 106.537 L 176.257 106.537 L 176.257 103.461 L 175.794 103.461 L 175.794 106.961 L 175.794 106.961 z M 179.243 105.806 L 180.464 105.806 L 180.464 105.408 L 179.243 105.408 L 179.243 105.806 L 179.243 105.806 z" stroke="none" fill-rule="evenodd" fill="rgb(0, 0, 0)"/></g><g stroke="rgb(0, 0, 0)" stroke-width="0.13" stroke-linecap="butt" stroke-linejoin="miter" fill="none"><path d="M 169.621 113.008 L 170.09 113.008 L 170.09 111.53 L 170.569 111.53 L 170.922 111.545 L 171.144 111.616 L 171.265 111.782 L 171.315 112.08 L 171.34 112.534 L 171.371 112.831 L 171.431 113.008 L 171.961 113.008 L 171.961 112.912 L 171.845 112.771 L 171.804 112.509 L 171.769 111.944 L 171.683 111.525 L 171.567 111.394 L 171.386 111.298 L 171.587 111.172 L 171.729 110.996 L 171.819 110.774 L 171.85 110.506 L 171.779 110.083 L 171.577 109.765 L 171.245 109.573 L 170.791 109.508 L 169.621 109.508 L 169.621 113.008 L 169.621 113.008 z M 170.66 109.937 L 170.967 109.967 L 171.184 110.063 L 171.32 110.239 L 171.366 110.517 L 171.315 110.809 L 171.179 110.986 L 170.947 111.076 L 170.629 111.102 L 170.09 111.102 L 170.09 109.937 L 170.66 109.937 L 170.66 109.937 z M 172.757 113.008 L 175.007 113.008 L 175.007 112.584 L 173.221 112.584 L 173.221 109.508 L 172.757 109.508 L 172.757 113.008 L 172.757 113.008 z M 176.812 109.508 L 175.647 109.508 L 175.647 113.008 L 176.812 113.008 L 177.362 112.897 L 177.77 112.559 L 178.023 112.009 L 178.113 111.258 L 178.033 110.491 L 177.932 110.189 L 177.791 109.947 L 177.382 109.619 L 177.115 109.538 L 176.812 109.508 L 176.812 109.508 z M 176.777 109.926 L 177.16 110.002 L 177.422 110.234 L 177.579 110.648 L 177.629 111.258 L 177.574 111.848 L 177.417 112.261 L 177.15 112.509 L 176.777 112.589 L 176.116 112.589 L 176.116 109.926 L 176.777 109.926 L 176.777 109.926 z" stroke="none" fill-rule="evenodd" fill="rgb(0, 0, 0)"/></g></svg>