<?xml version="1.0" encoding="utf-8" ?><!DOCTYPE svg PUBLIC "-//W3C//DTD SVG 1.1//EN" "http://www.w3.org/Graphics/SVG/1.1/DTD/svg11.dtd" 
[ <!ATTLIST svg 
  xmlns:dsy CDATA #FIXED "http://www.3ds.com/print"  
    dsy:text-version CDATA #IMPLIED > 

  <!ATTLIST text 
  xmlns:dsy CDATA #FIXED "http://www.3ds.com/print" 
    dsy:text-version CDATA #IMPLIED > 
]><svg xmlns="http://www.w3.org/2000/svg" xmlns:dsy="http://www.3ds.com/print" dsy:text-version="18000" width="297" height="210" viewBox="0 0 297 210" version="1.1"><g stroke="rgb(0, 0, 0)" stroke-width="0.35" stroke-linecap="butt" stroke-linejoin="miter" fill="none"><path d="M 153.749 88.2888 A 7 7 0 0 0 139.954 86.9116"/><path d="M 153.749 88.2888 L 155.287 126.602"/><circle cx="146.755" cy="88.5696" r="3.2"/><path d="M 155.287 126.602 L 145.016 125.577"/><path d="M 139.954 86.9116 L 136.472 101.195"/><path d="M 146.68 112.517 A 20.0179 20.0179 0 0 0 146.106 110.873"/><path d="M 146.106 110.873 A 14.1726 10.0002 -291.745 0 0 136.472 101.195"/><path d="M 145.016 125.577 A 14.1723 9.99998 -291.746 0 0 146.68 112.517"/><path d="M 211.99 89.3203 A 7 7 0 0 0 198.195 90.6974"/><path d="M 198.195 90.6974 L 196.656 129.011"/><circle cx="205.189" cy="90.9783" r="3.2"/></g><g stroke="rgb(0, 0, 0)" stroke-width="0.13" stroke-linecap="butt" stroke-linejoin="miter" stroke-dasharray="4, 1.5" fill="none"><path d="M 205.838 113.281 A 20.0179 20.0179 0 0 0 205.263 114.925"/><path d="M 205.187 115.184 L 205.263 114.925"/></g><g stroke="rgb(0, 0, 0)" stroke-width="0.35" stroke-linecap="butt" stroke-linejoin="miter" fill="none"><path d="M 196.656 129.011 L 203.612 128.316"/><path d="M 211.99 89.3203 L 216.31 107.042"/><path d="M 216.31 107.042 A 14.1723 10 -248.254 0 0 204.35 117.011"/><path d="M 204.35 117.011 A 20.0181 20.0181 0 0 0 203.775 118.657"/><path d="M 203.775 118.657 A 14.1732 10.0009 -248.251 0 0 203.612 128.316"/></g><g stroke="rgb(0, 0, 0)" stroke-width="0.13" stroke-linecap="butt" stroke-linejoin="miter" stroke-dasharray="4, 1.5" fill="none"><path d="M 204.35 117.011 L 205.838 113.281"/></g><g stroke="rgb(0, 0, 0)" stroke-width="0.35" stroke-linecap="butt" stroke-linejoin="miter" fill="none"><path d="M 9.99999 200 L 287 200"/><path d="M 287 200 L 287 10"/><path d="M 287 10 L 9.99999 10"/><path d="M 9.99999 10 L 9.99999 200"/><path d="M 148.5 10 L 148.5 0"/><path d="M 9.99999 105 L -5.94366e-006 105"/><path d="M 287 105 L 297 105"/><path d="M 222.7 200 L 222.7 207.5"/><path d="M 74.3 200 L 74.3 207.5"/><path d="M 222.7 10 L 222.7 2.5"/><path d="M 74.3 10 L 74.3 2.5"/><path d="M 9.99999 52.5 L 2.49999 52.5"/><path d="M 287 52.5 L 294.5 52.5"/><path d="M 9.99999 157.5 L 2.49999 157.5"/><path d="M 287 157.5 L 294.5 157.5"/><path d="M 198.5 200 L 198.5 205"/><path d="M 188.5 200 L 188.5 202.5"/><path d="M 178.5 200 L 178.5 202.5"/><path d="M 168.5 200 L 168.5 202.5"/><path d="M 287 140 L 287 200"/></g><g stroke="rgb(0, 0, 0)" stroke-width="0.13" stroke-linecap="butt" stroke-linejoin="miter" stroke-dasharray="7, 1, 1, 1" fill="none"><path d="M 150.915 88.5696 L 142.595 88.5696"/><path d="M 146.755 84.4096 L 146.755 92.7296"/><path d="M 209.349 90.9783 L 201.029 90.9783"/><path d="M 205.189 86.8183 L 205.189 95.1383"/></g><g stroke="rgb(0, 0, 0)" stroke-width="0.13" stroke-linecap="butt" stroke-linejoin="miter" fill="none"><path d="M 258.267 206.833 L 258.731 206.833 L 259.099 205.804 L 260.496 205.804 L 260.864 206.833 L 261.338 206.833 L 260.057 203.328 L 259.543 203.328 L 258.267 206.833 L 258.267 206.833 z M 259.26 205.376 L 259.8 203.832 L 260.34 205.376 L 259.26 205.376 L 259.26 205.376 z" stroke="none" fill-rule="evenodd" fill="rgb(0, 0, 0)"/></g><g stroke="rgb(0, 0, 0)" stroke-width="0.13" stroke-linecap="butt" stroke-linejoin="miter" fill="none"><path d="M 37.1949 203.333 L 36.03 203.333 L 36.03 206.833 L 37.1949 206.833 L 37.7447 206.722 L 38.1532 206.384 L 38.4053 205.835 L 38.4961 205.083 L 38.4154 204.317 L 38.3145 204.014 L 38.1733 203.772 L 37.7648 203.444 L 37.4975 203.363 L 37.1949 203.333 L 37.1949 203.333 z M 37.1596 203.752 L 37.5429 203.827 L 37.8052 204.059 L 37.9615 204.473 L 38.012 205.083 L 37.9565 205.673 L 37.8001 206.087 L 37.5328 206.334 L 37.1596 206.415 L 36.499 206.415 L 36.499 203.752 L 37.1596 203.752 L 37.1596 203.752 z" stroke="none" fill-rule="evenodd" fill="rgb(0, 0, 0)"/></g><g stroke="rgb(0, 0, 0)" stroke-width="0.13" stroke-linecap="butt" stroke-linejoin="miter" fill="none"><path d="M 185.542 4.36958 L 185.249 4.01657 L 185.053 3.92578 L 184.811 3.89552 L 184.432 3.96109 L 184.16 4.15778 L 183.994 4.47549 L 183.933 4.9193 L 183.933 6.16498 L 187.433 6.16498 L 187.433 4.84869 L 187.363 4.37968 L 187.156 4.03169 L 186.828 3.81483 L 186.384 3.73918 L 186.087 3.78458 L 185.84 3.90561 L 185.658 4.10229 L 185.542 4.36958 L 185.542 4.36958 z M 185.386 5.01512 L 185.386 5.701 L 184.352 5.701 L 184.352 4.97478 L 184.382 4.70244 L 184.473 4.5108 L 184.629 4.39481 L 184.861 4.35446 L 185.093 4.39986 L 185.255 4.52089 L 185.355 4.72766 L 185.386 5.01512 L 185.386 5.01512 z M 187.015 4.90417 L 187.015 5.701 L 185.809 5.701 L 185.809 4.94955 L 185.845 4.63184 L 185.951 4.40489 L 186.132 4.26872 L 186.394 4.22334 L 186.672 4.26872 L 186.863 4.39481 L 186.979 4.60663 L 187.015 4.90417 L 187.015 4.90417 z" stroke="none" fill-rule="evenodd" fill="rgb(0, 0, 0)"/></g><g stroke="rgb(0, 0, 0)" stroke-width="0.13" stroke-linecap="butt" stroke-linejoin="miter" fill="none"><path d="M 111.932 4.183 L 112.356 4.28386 L 112.658 4.45029 L 112.845 4.68227 L 112.905 4.95461 L 112.815 5.28241 L 112.542 5.53961 L 112.098 5.71109 L 111.483 5.76657 L 110.873 5.71109 L 110.424 5.54466 L 110.152 5.28746 L 110.056 4.95461 L 110.106 4.71252 L 110.248 4.50575 L 110.475 4.34438 L 110.787 4.23343 L 110.787 3.75432 L 110.308 3.90561 L 109.945 4.16786 L 109.718 4.52592 L 109.637 4.95461 L 109.763 5.48918 L 110.116 5.89769 L 110.696 6.15994 L 111.483 6.25072 L 112.27 6.15994 L 112.85 5.89769 L 113.208 5.48918 L 113.329 4.95461 L 113.233 4.48558 L 112.966 4.10735 L 112.527 3.84006 L 111.932 3.69884 L 111.932 4.183 L 111.932 4.183 z" stroke="none" fill-rule="evenodd" fill="rgb(0, 0, 0)"/></g><g stroke="rgb(0, 0, 0)" stroke-width="0.13" stroke-linecap="butt" stroke-linejoin="miter" fill="none"><path d="M 261.633 6.53314 L 261.633 6.06915 L 260.604 5.701 L 260.604 4.30403 L 261.633 3.93587 L 261.633 3.46181 L 258.128 4.74278 L 258.128 5.2572 L 261.633 6.53314 L 261.633 6.53314 z M 260.176 5.53961 L 258.632 5 L 260.176 4.46037 L 260.176 5.53961 L 260.176 5.53961 z" stroke="none" fill-rule="evenodd" fill="rgb(0, 0, 0)"/></g><g stroke="rgb(0, 0, 0)" stroke-width="0.13" stroke-linecap="butt" stroke-linejoin="miter" fill="none"><path d="M 35.5332 5.00504 L 35.5332 6.17003 L 39.0332 6.17003 L 39.0332 5.00504 L 38.9223 4.45532 L 38.5844 4.04683 L 38.0346 3.79466 L 37.2832 3.70389 L 36.5166 3.78458 L 36.214 3.88544 L 35.972 4.02666 L 35.6442 4.43515 L 35.5635 4.70244 L 35.5332 5.00504 L 35.5332 5.00504 z M 35.9518 5.04034 L 36.0274 4.65706 L 36.2594 4.39481 L 36.673 4.23846 L 37.2832 4.18803 L 37.8733 4.24352 L 38.2868 4.39986 L 38.5339 4.66714 L 38.6146 5.04034 L 38.6146 5.701 L 35.9518 5.701 L 35.9518 5.04034 L 35.9518 5.04034 z" stroke="none" fill-rule="evenodd" fill="rgb(0, 0, 0)"/></g><g stroke="rgb(0, 0, 0)" stroke-width="0.13" stroke-linecap="butt" stroke-linejoin="miter" fill="none"><path d="M 290.729 79.4838 L 290.729 79.5191 L 290.81 80.0032 L 291.047 80.3663 L 291.42 80.5983 L 291.914 80.6841 L 292.439 80.5983 L 292.832 80.3764 L 293.084 80.0234 L 293.175 79.5695 L 293.135 79.272 L 293.024 79.0299 L 292.842 78.8433 L 292.6 78.7071 L 292.928 78.4348 L 293.044 78.0011 L 292.968 77.6077 L 292.751 77.3102 L 292.398 77.1236 L 291.914 77.058 L 291.46 77.1387 L 291.112 77.3606 L 290.885 77.7136 L 290.81 78.1826 L 290.81 78.2179 L 291.259 78.2179 L 291.299 77.8952 L 291.43 77.6632 L 291.642 77.522 L 291.939 77.4715 L 292.202 77.5119 L 292.393 77.6178 L 292.509 77.7892 L 292.555 78.0212 L 292.509 78.2684 L 292.388 78.4348 L 292.177 78.5356 L 291.889 78.5659 L 291.692 78.5609 L 291.692 78.9593 L 291.939 78.9492 L 292.257 78.9946 L 292.494 79.1156 L 292.635 79.3123 L 292.686 79.5695 L 292.63 79.862 L 292.484 80.0789 L 292.252 80.215 L 291.945 80.2604 L 291.627 80.21 L 291.395 80.0587 L 291.249 79.8166 L 291.193 79.4838 L 290.729 79.4838 L 290.729 79.4838 z" stroke="none" fill-rule="evenodd" fill="rgb(0, 0, 0)"/></g><g stroke="rgb(0, 0, 0)" stroke-width="0.13" stroke-linecap="butt" stroke-linejoin="miter" fill="none"><path d="M 5.73378 80.0209 L 5.76909 80.0209 L 6.25324 79.9402 L 6.61635 79.7032 L 6.84834 79.33 L 6.93407 78.8357 L 6.84834 78.3112 L 6.62644 77.9179 L 6.27341 77.6657 L 5.81952 77.5749 L 5.52197 77.6153 L 5.27989 77.7262 L 5.09329 77.9078 L 4.95713 78.1499 L 4.68479 77.822 L 4.25108 77.706 L 3.8577 77.7817 L 3.56015 77.9986 L 3.37355 78.3516 L 3.30799 78.8357 L 3.38868 79.2896 L 3.61059 79.6376 L 3.96361 79.8645 L 4.43263 79.9402 L 4.46793 79.9402 L 4.46793 79.4913 L 4.14517 79.451 L 3.91318 79.3199 L 3.77197 79.1081 L 3.72154 78.8105 L 3.76188 78.5483 L 3.86779 78.3566 L 4.03926 78.2406 L 4.27125 78.1952 L 4.51837 78.2406 L 4.68479 78.3617 L 4.78566 78.5735 L 4.81592 78.8609 L 4.81087 79.0576 L 5.20929 79.0576 L 5.1992 78.8105 L 5.24459 78.4928 L 5.36563 78.2558 L 5.56231 78.1145 L 5.81952 78.0641 L 6.11203 78.1196 L 6.32889 78.2658 L 6.46505 78.4978 L 6.51044 78.8055 L 6.46001 79.1232 L 6.30871 79.3552 L 6.06664 79.5014 L 5.73378 79.5569 L 5.73378 80.0209 L 5.73378 80.0209 z" stroke="none" fill-rule="evenodd" fill="rgb(0, 0, 0)"/></g><g stroke="rgb(0, 0, 0)" stroke-width="0.13" stroke-linecap="butt" stroke-linejoin="miter" fill="none"><path d="M 290.769 133.083 L 293.175 133.083 L 293.175 132.65 L 291.274 132.65 L 291.38 132.412 L 291.561 132.216 L 292.121 131.858 L 292.419 131.706 L 292.751 131.49 L 292.988 131.237 L 293.125 130.94 L 293.175 130.602 L 293.089 130.178 L 292.852 129.845 L 292.489 129.634 L 292.02 129.558 L 291.536 129.644 L 291.168 129.881 L 290.931 130.259 L 290.85 130.758 L 290.85 130.829 L 291.309 130.829 L 291.309 130.789 L 291.354 130.446 L 291.491 130.193 L 291.707 130.032 L 291.995 129.977 L 292.287 130.027 L 292.504 130.153 L 292.646 130.35 L 292.696 130.597 L 292.661 130.829 L 292.565 131.026 L 292.403 131.197 L 292.182 131.348 L 291.884 131.51 L 291.39 131.822 L 291.042 132.155 L 290.835 132.559 L 290.769 133.068 L 290.769 133.083 L 290.769 133.083 z" stroke="none" fill-rule="evenodd" fill="rgb(0, 0, 0)"/></g><g stroke="rgb(0, 0, 0)" stroke-width="0.13" stroke-linecap="butt" stroke-linejoin="miter" fill="none"><path d="M 6.83321 132.481 L 6.83321 130.075 L 6.39949 130.075 L 6.39949 131.976 L 6.16246 131.87 L 5.96577 131.689 L 5.6077 131.129 L 5.45641 130.831 L 5.23955 130.499 L 4.98738 130.262 L 4.68983 130.125 L 4.35194 130.075 L 3.92831 130.161 L 3.59545 130.398 L 3.38364 130.761 L 3.30799 131.23 L 3.39372 131.714 L 3.63075 132.082 L 4.009 132.319 L 4.50828 132.4 L 4.57888 132.4 L 4.57888 131.941 L 4.53854 131.941 L 4.1956 131.896 L 3.94343 131.759 L 3.78205 131.543 L 3.72658 131.255 L 3.77701 130.963 L 3.90309 130.746 L 4.09978 130.604 L 4.34689 130.554 L 4.57888 130.589 L 4.77557 130.685 L 4.94704 130.847 L 5.09834 131.068 L 5.25972 131.366 L 5.5724 131.86 L 5.90525 132.208 L 6.30871 132.415 L 6.81808 132.481 L 6.83321 132.481 L 6.83321 132.481 z" stroke="none" fill-rule="evenodd" fill="rgb(0, 0, 0)"/></g><g stroke="rgb(0, 0, 0)" stroke-width="0.13" stroke-linecap="butt" stroke-linejoin="miter" fill="none"><path d="M 292.277 28.0832 L 292.731 28.0832 L 292.731 27.2158 L 293.231 27.2158 L 293.231 26.8123 L 292.731 26.8123 L 292.731 24.6588 L 292.272 24.6588 L 290.739 26.772 L 290.739 27.2158 L 292.277 27.2158 L 292.277 28.0832 L 292.277 28.0832 z M 291.163 26.8123 L 292.277 25.2439 L 292.277 26.8123 L 291.163 26.8123 L 291.163 26.8123 z" stroke="none" fill-rule="evenodd" fill="rgb(0, 0, 0)"/></g><g stroke="rgb(0, 0, 0)" stroke-width="0.13" stroke-linecap="butt" stroke-linejoin="miter" fill="none"><path d="M 6.83321 25.9726 L 6.83321 25.5187 L 5.96577 25.5187 L 5.96577 25.0194 L 5.56231 25.0194 L 5.56231 25.5187 L 3.40886 25.5187 L 3.40886 25.9777 L 5.52197 27.5108 L 5.96577 27.5108 L 5.96577 25.9726 L 6.83321 25.9726 L 6.83321 25.9726 z M 5.56231 27.0872 L 3.99387 25.9726 L 5.56231 25.9726 L 5.56231 27.0872 L 5.56231 27.0872 z" stroke="none" fill-rule="evenodd" fill="rgb(0, 0, 0)"/></g><g stroke="rgb(0, 0, 0)" stroke-width="0.13" stroke-linecap="butt" stroke-linejoin="miter" fill="none"><path d="M 291.909 185.583 L 292.368 185.583 L 292.368 182.058 L 292.025 182.058 L 291.934 182.366 L 291.753 182.572 L 291.476 182.693 L 291.092 182.734 L 291.092 183.092 L 291.909 183.092 L 291.909 185.583 L 291.909 185.583 z" stroke="none" fill-rule="evenodd" fill="rgb(0, 0, 0)"/></g><g stroke="rgb(0, 0, 0)" stroke-width="0.13" stroke-linecap="butt" stroke-linejoin="miter" fill="none"><path d="M 6.83321 183.841 L 6.83321 183.382 L 3.30799 183.382 L 3.30799 183.725 L 3.61562 183.816 L 3.8224 183.997 L 3.94343 184.275 L 3.98378 184.658 L 4.34185 184.658 L 4.34185 183.841 L 6.83321 183.841 L 6.83321 183.841 z" stroke="none" fill-rule="evenodd" fill="rgb(0, 0, 0)"/></g><g stroke="rgb(0, 0, 0)" stroke-width="0.13" stroke-linecap="butt" stroke-linejoin="miter" fill="none"><path d="M 164.081 169.969 L 163.249 169.969 L 163.249 172.469 L 164.081 172.469 L 164.473 172.39 L 164.765 172.148 L 164.945 171.756 L 165.01 171.219 L 164.952 170.671 L 164.88 170.455 L 164.78 170.282 L 164.488 170.048 L 164.297 169.991 L 164.081 169.969 L 164.081 169.969 z M 164.055 170.268 L 164.329 170.322 L 164.517 170.488 L 164.628 170.783 L 164.664 171.219 L 164.625 171.64 L 164.513 171.936 L 164.322 172.112 L 164.055 172.17 L 163.584 172.17 L 163.584 170.268 L 164.055 170.268 L 164.055 170.268 z M 166.004 170.272 L 166.217 170.272 L 166.718 169.659 L 166.365 169.659 L 166.004 170.272 L 166.004 170.272 z M 165.785 171.594 L 167.053 171.594 L 167.056 171.446 L 166.999 171.032 L 166.84 170.722 L 166.588 170.535 L 166.253 170.466 L 165.925 170.538 L 165.673 170.74 L 165.511 171.068 L 165.453 171.5 L 165.507 171.943 L 165.669 172.267 L 165.918 172.469 L 166.242 172.537 L 166.523 172.491 L 166.754 172.368 L 166.923 172.174 L 167.02 171.914 L 166.707 171.914 L 166.642 172.058 L 166.548 172.166 L 166.282 172.253 L 166.076 172.213 L 165.921 172.087 L 165.821 171.882 L 165.785 171.604 L 165.785 171.594 L 165.785 171.594 z M 165.785 171.327 L 165.824 171.079 L 165.921 170.895 L 166.069 170.783 L 166.264 170.744 L 166.455 170.783 L 166.602 170.895 L 166.692 171.079 L 166.725 171.327 L 165.785 171.327 L 165.785 171.327 z M 168.623 171.341 L 168.317 171.269 L 168.09 171.187 L 168.014 171.017 L 168.036 170.898 L 168.112 170.812 L 168.234 170.758 L 168.411 170.736 L 168.58 170.758 L 168.713 170.823 L 168.8 170.92 L 168.836 171.05 L 169.146 171.05 L 169.146 171.043 L 169.092 170.808 L 168.944 170.625 L 168.713 170.509 L 168.411 170.466 L 168.104 170.509 L 167.881 170.628 L 167.741 170.805 L 167.697 171.028 L 167.73 171.244 L 167.831 171.396 L 167.996 171.504 L 168.238 171.579 L 168.591 171.666 L 168.807 171.756 L 168.865 171.828 L 168.886 171.936 L 168.854 172.069 L 168.767 172.17 L 168.627 172.235 L 168.439 172.256 L 168.241 172.235 L 168.097 172.159 L 168 172.037 L 167.96 171.867 L 167.654 171.867 L 167.705 172.156 L 167.852 172.365 L 168.086 172.491 L 168.411 172.537 L 168.749 172.491 L 168.998 172.365 L 169.149 172.163 L 169.203 171.9 L 169.164 171.673 L 169.052 171.518 L 168.868 171.417 L 168.623 171.341 L 168.623 171.341 z M 170.813 172.202 L 170.813 170.599 L 169.999 170.599 L 169.999 170.87 L 170.496 170.87 L 170.496 172.202 L 169.848 172.202 L 169.848 172.469 L 171.469 172.469 L 171.469 172.202 L 170.813 172.202 L 170.813 172.202 z M 170.824 169.883 L 170.489 169.883 L 170.489 170.243 L 170.824 170.243 L 170.824 169.883 L 170.824 169.883 z M 173.519 172.383 L 173.519 170.535 L 173.216 170.535 L 173.216 170.848 L 172.968 170.563 L 172.816 170.491 L 172.647 170.466 L 172.341 170.538 L 172.103 170.74 L 171.948 171.064 L 171.894 171.5 L 171.948 171.939 L 172.103 172.264 L 172.341 172.469 L 172.647 172.537 L 172.82 172.512 L 172.964 172.447 L 173.216 172.174 L 173.216 172.447 L 173.187 172.664 L 173.108 172.818 L 172.957 172.909 L 172.73 172.941 L 172.532 172.919 L 172.391 172.865 L 172.308 172.772 L 172.283 172.646 L 171.977 172.646 L 171.977 172.66 L 172.024 172.89 L 172.168 173.063 L 172.398 173.175 L 172.712 173.215 L 173.086 173.161 L 173.335 173.009 L 173.476 172.746 L 173.519 172.383 L 173.519 172.383 z M 172.222 171.5 L 172.254 171.179 L 172.352 170.942 L 172.503 170.801 L 172.705 170.751 L 172.917 170.801 L 173.076 170.942 L 173.173 171.179 L 173.209 171.5 L 173.173 171.828 L 173.076 172.062 L 172.917 172.206 L 172.705 172.253 L 172.503 172.206 L 172.352 172.062 L 172.254 171.824 L 172.222 171.5 L 172.222 171.5 z M 174.182 172.469 L 174.499 172.469 L 174.499 171.352 L 174.531 171.097 L 174.635 170.909 L 174.798 170.794 L 175.014 170.751 L 175.187 170.787 L 175.295 170.884 L 175.349 171.046 L 175.367 171.262 L 175.367 172.469 L 175.684 172.469 L 175.684 171.197 L 175.669 170.942 L 175.605 170.729 L 175.392 170.535 L 175.061 170.466 L 174.877 170.491 L 174.722 170.56 L 174.589 170.675 L 174.484 170.83 L 174.484 170.535 L 174.182 170.535 L 174.182 172.469 L 174.182 172.469 z M 177.499 172.217 L 177.499 172.228 L 177.517 172.35 L 177.571 172.437 L 177.798 172.505 L 177.975 172.476 L 177.975 172.231 L 177.899 172.242 L 177.798 172.195 L 177.78 172.051 L 177.78 171.05 L 177.737 170.794 L 177.611 170.614 L 177.391 170.506 L 177.081 170.466 L 176.779 170.509 L 176.556 170.632 L 176.415 170.823 L 176.368 171.075 L 176.368 171.097 L 176.653 171.097 L 176.678 170.945 L 176.757 170.837 L 176.887 170.772 L 177.071 170.747 L 177.247 170.765 L 177.373 170.819 L 177.449 170.913 L 177.474 171.043 L 177.46 171.194 L 177.402 171.269 L 177.258 171.305 L 176.988 171.334 L 176.678 171.399 L 176.458 171.514 L 176.329 171.695 L 176.289 171.961 L 176.325 172.199 L 176.437 172.375 L 176.617 172.487 L 176.865 172.527 L 177.2 172.451 L 177.499 172.217 L 177.499 172.217 z M 177.463 171.792 L 177.42 171.979 L 177.305 172.123 L 177.132 172.217 L 176.919 172.249 L 176.782 172.231 L 176.685 172.174 L 176.624 172.073 L 176.606 171.932 L 176.62 171.806 L 176.678 171.716 L 176.909 171.615 L 177.2 171.572 L 177.463 171.486 L 177.463 171.792 L 177.463 171.792 z M 178.944 170.87 L 178.944 171.839 L 178.965 172.152 L 179.066 172.368 L 179.268 172.494 L 179.61 172.537 L 179.985 172.519 L 179.985 172.246 L 179.711 172.267 L 179.463 172.238 L 179.329 172.148 L 179.272 171.997 L 179.261 171.785 L 179.261 170.87 L 179.985 170.87 L 179.985 170.599 L 179.261 170.599 L 179.261 170.034 L 178.944 170.034 L 178.944 170.599 L 178.396 170.599 L 178.396 170.87 L 178.944 170.87 L 178.944 170.87 z M 181.656 172.202 L 181.656 170.599 L 180.842 170.599 L 180.842 170.87 L 181.339 170.87 L 181.339 172.202 L 180.691 172.202 L 180.691 172.469 L 182.312 172.469 L 182.312 172.202 L 181.656 172.202 L 181.656 172.202 z M 181.667 169.883 L 181.332 169.883 L 181.332 170.243 L 181.667 170.243 L 181.667 169.883 L 181.667 169.883 z M 182.762 171.504 L 182.82 171.943 L 182.986 172.267 L 183.249 172.469 L 183.602 172.537 L 183.951 172.469 L 184.214 172.271 L 184.38 171.947 L 184.441 171.504 L 184.38 171.064 L 184.214 170.736 L 183.951 170.538 L 183.602 170.466 L 183.249 170.538 L 182.986 170.74 L 182.82 171.064 L 182.762 171.504 L 182.762 171.504 z M 183.087 171.5 L 183.119 171.176 L 183.22 170.942 L 183.382 170.798 L 183.602 170.747 L 183.818 170.798 L 183.98 170.938 L 184.081 171.176 L 184.117 171.5 L 184.081 171.828 L 183.98 172.066 L 183.818 172.21 L 183.602 172.256 L 183.382 172.21 L 183.22 172.066 L 183.119 171.828 L 183.087 171.5 L 183.087 171.5 z M 185.025 172.469 L 185.342 172.469 L 185.342 171.352 L 185.374 171.097 L 185.478 170.909 L 185.641 170.794 L 185.857 170.751 L 186.03 170.787 L 186.138 170.884 L 186.192 171.046 L 186.21 171.262 L 186.21 172.469 L 186.527 172.469 L 186.527 171.197 L 186.512 170.942 L 186.447 170.729 L 186.235 170.535 L 185.904 170.466 L 185.72 170.491 L 185.565 170.56 L 185.432 170.675 L 185.327 170.83 L 185.327 170.535 L 185.025 170.535 L 185.025 172.469 L 185.025 172.469 z" stroke="none" fill-rule="evenodd" fill="rgb(0, 0, 0)"/></g><g stroke="rgb(0, 0, 0)" stroke-width="0.13" stroke-linecap="butt" stroke-linejoin="miter" fill="none"><path d="M 150.05 186.47 L 150.653 186.47 L 150.653 184.57 L 151.269 184.57 L 151.723 184.589 L 152.009 184.68 L 152.164 184.894 L 152.229 185.277 L 152.262 185.86 L 152.3 186.243 L 152.378 186.47 L 153.059 186.47 L 153.059 186.347 L 152.91 186.165 L 152.858 185.828 L 152.813 185.102 L 152.702 184.563 L 152.553 184.395 L 152.32 184.272 L 152.579 184.11 L 152.761 183.883 L 152.878 183.597 L 152.916 183.254 L 152.826 182.709 L 152.566 182.3 L 152.138 182.054 L 151.555 181.97 L 150.05 181.97 L 150.05 186.47 L 150.05 186.47 z M 151.386 182.521 L 151.782 182.56 L 152.061 182.683 L 152.236 182.91 L 152.294 183.267 L 152.229 183.643 L 152.054 183.87 L 151.756 183.986 L 151.347 184.019 L 150.653 184.019 L 150.653 182.521 L 151.386 182.521 L 151.386 182.521 z M 154.557 184.894 L 156.839 184.894 L 156.846 184.628 L 156.742 183.883 L 156.457 183.325 L 156.003 182.988 L 155.4 182.865 L 154.81 182.994 L 154.356 183.357 L 154.064 183.947 L 153.96 184.726 L 154.058 185.523 L 154.349 186.107 L 154.797 186.47 L 155.38 186.593 L 155.886 186.509 L 156.301 186.288 L 156.606 185.938 L 156.781 185.471 L 156.217 185.471 L 156.1 185.731 L 155.932 185.925 L 155.452 186.081 L 155.082 186.009 L 154.803 185.782 L 154.622 185.413 L 154.557 184.914 L 154.557 184.894 L 154.557 184.894 z M 154.557 184.414 L 154.628 183.967 L 154.803 183.636 L 155.069 183.435 L 155.419 183.364 L 155.763 183.435 L 156.029 183.636 L 156.191 183.967 L 156.249 184.414 L 154.557 184.414 L 154.557 184.414 z M 160.03 186.016 L 160.03 186.035 L 160.062 186.256 L 160.159 186.411 L 160.568 186.535 L 160.885 186.483 L 160.885 186.042 L 160.749 186.061 L 160.568 185.977 L 160.535 185.718 L 160.535 183.915 L 160.458 183.455 L 160.231 183.13 L 159.835 182.936 L 159.277 182.865 L 158.733 182.942 L 158.331 183.163 L 158.078 183.506 L 157.994 183.96 L 157.994 183.999 L 158.506 183.999 L 158.551 183.727 L 158.694 183.532 L 158.927 183.416 L 159.258 183.37 L 159.576 183.403 L 159.803 183.5 L 159.939 183.669 L 159.984 183.902 L 159.958 184.174 L 159.854 184.311 L 159.595 184.375 L 159.109 184.427 L 158.551 184.544 L 158.156 184.751 L 157.922 185.076 L 157.851 185.555 L 157.916 185.983 L 158.117 186.301 L 158.441 186.502 L 158.888 186.573 L 159.491 186.437 L 160.03 186.016 L 160.03 186.016 z M 159.965 185.251 L 159.887 185.588 L 159.679 185.847 L 159.368 186.016 L 158.986 186.074 L 158.739 186.042 L 158.564 185.938 L 158.454 185.756 L 158.421 185.504 L 158.447 185.277 L 158.551 185.115 L 158.966 184.933 L 159.491 184.855 L 159.965 184.7 L 159.965 185.251 L 159.965 185.251 z M 162.079 186.47 L 162.649 186.47 L 162.649 184.479 L 162.708 183.999 L 162.883 183.656 L 163.168 183.448 L 163.55 183.377 L 163.836 183.422 L 164.05 183.552 L 164.179 183.772 L 164.225 184.071 L 164.802 184.071 L 164.724 183.545 L 164.51 183.169 L 164.153 182.942 L 163.667 182.865 L 163.336 182.916 L 163.051 183.046 L 162.798 183.267 L 162.597 183.565 L 162.597 182.988 L 162.079 182.988 L 162.079 186.47 L 162.079 186.47 z M 169.697 186.47 L 172.589 186.47 L 172.589 185.925 L 170.294 185.925 L 170.294 181.97 L 169.697 181.97 L 169.697 186.47 L 169.697 186.47 z M 174.074 184.894 L 176.357 184.894 L 176.363 184.628 L 176.259 183.883 L 175.974 183.325 L 175.52 182.988 L 174.917 182.865 L 174.327 182.994 L 173.873 183.357 L 173.581 183.947 L 173.478 184.726 L 173.575 185.523 L 173.867 186.107 L 174.314 186.47 L 174.898 186.593 L 175.403 186.509 L 175.818 186.288 L 176.123 185.938 L 176.298 185.471 L 175.734 185.471 L 175.617 185.731 L 175.449 185.925 L 174.969 186.081 L 174.599 186.009 L 174.321 185.782 L 174.139 185.413 L 174.074 184.914 L 174.074 184.894 L 174.074 184.894 z M 174.074 184.414 L 174.146 183.967 L 174.321 183.636 L 174.586 183.435 L 174.937 183.364 L 175.28 183.435 L 175.546 183.636 L 175.708 183.967 L 175.767 184.414 L 174.074 184.414 L 174.074 184.414 z M 178.269 183.591 L 178.269 186.47 L 178.84 186.47 L 178.84 183.591 L 180.137 183.591 L 180.137 183.104 L 178.84 183.104 L 178.84 182.89 L 178.885 182.631 L 179.035 182.456 L 179.287 182.352 L 179.651 182.313 L 180.137 182.339 L 180.137 181.847 L 179.521 181.814 L 178.963 181.872 L 178.574 182.048 L 178.341 182.352 L 178.269 182.787 L 178.269 183.104 L 177.226 183.104 L 177.226 183.591 L 178.269 183.591 L 178.269 183.591 z M 182.147 183.591 L 182.147 185.335 L 182.186 185.899 L 182.367 186.288 L 182.731 186.515 L 183.347 186.593 L 184.021 186.561 L 184.021 186.068 L 183.528 186.107 L 183.081 186.055 L 182.841 185.893 L 182.737 185.62 L 182.718 185.238 L 182.718 183.591 L 184.021 183.591 L 184.021 183.104 L 182.718 183.104 L 182.718 182.086 L 182.147 182.086 L 182.147 183.104 L 181.161 183.104 L 181.161 183.591 L 182.147 183.591 L 182.147 183.591 z M 189.215 186.47 L 192.107 186.47 L 192.107 185.925 L 189.811 185.925 L 189.811 181.97 L 189.215 181.97 L 189.215 186.47 L 189.215 186.47 z M 192.924 184.732 L 193.027 185.523 L 193.326 186.107 L 193.799 186.47 L 194.434 186.593 L 195.063 186.47 L 195.537 186.113 L 195.835 185.53 L 195.945 184.732 L 195.835 183.941 L 195.537 183.351 L 195.063 182.994 L 194.434 182.865 L 193.799 182.994 L 193.326 183.357 L 193.027 183.941 L 192.924 184.732 L 192.924 184.732 z M 193.507 184.726 L 193.566 184.142 L 193.747 183.72 L 194.039 183.461 L 194.434 183.37 L 194.823 183.461 L 195.115 183.714 L 195.297 184.142 L 195.362 184.726 L 195.297 185.316 L 195.115 185.744 L 194.823 186.003 L 194.434 186.087 L 194.039 186.003 L 193.747 185.744 L 193.566 185.316 L 193.507 184.726 L 193.507 184.726 z M 197.819 186.47 L 198.338 183.513 L 198.857 186.47 L 199.401 186.47 L 200.257 182.988 L 199.706 182.988 L 199.129 185.945 L 198.617 182.988 L 198.053 182.988 L 197.54 185.945 L 196.963 182.988 L 196.419 182.988 L 197.274 186.47 L 197.819 186.47 L 197.819 186.47 z M 201.398 184.894 L 203.681 184.894 L 203.687 184.628 L 203.584 183.883 L 203.298 183.325 L 202.844 182.988 L 202.241 182.865 L 201.651 182.994 L 201.197 183.357 L 200.906 183.947 L 200.802 184.726 L 200.899 185.523 L 201.191 186.107 L 201.638 186.47 L 202.222 186.593 L 202.728 186.509 L 203.143 186.288 L 203.447 185.938 L 203.622 185.471 L 203.058 185.471 L 202.942 185.731 L 202.773 185.925 L 202.293 186.081 L 201.924 186.009 L 201.645 185.782 L 201.463 185.413 L 201.398 184.914 L 201.398 184.894 L 201.398 184.894 z M 201.398 184.414 L 201.47 183.967 L 201.645 183.636 L 201.911 183.435 L 202.261 183.364 L 202.604 183.435 L 202.87 183.636 L 203.032 183.967 L 203.091 184.414 L 201.398 184.414 L 201.398 184.414 z M 205.017 186.47 L 205.587 186.47 L 205.587 184.479 L 205.646 183.999 L 205.821 183.656 L 206.106 183.448 L 206.488 183.377 L 206.774 183.422 L 206.988 183.552 L 207.117 183.772 L 207.163 184.071 L 207.74 184.071 L 207.662 183.545 L 207.448 183.169 L 207.091 182.942 L 206.605 182.865 L 206.274 182.916 L 205.989 183.046 L 205.736 183.267 L 205.535 183.565 L 205.535 182.988 L 205.017 182.988 L 205.017 186.47 L 205.017 186.47 z M 211.981 186.47 L 212.577 186.47 L 213.05 185.147 L 214.847 185.147 L 215.32 186.47 L 215.929 186.47 L 214.282 181.963 L 213.621 181.963 L 211.981 186.47 L 211.981 186.47 z M 213.258 184.596 L 213.952 182.612 L 214.646 184.596 L 213.258 184.596 L 213.258 184.596 z M 217.071 184.985 L 218.64 184.985 L 218.64 184.473 L 217.071 184.473 L 217.071 184.985 L 217.071 184.985 z M 219.787 186.47 L 220.384 186.47 L 220.857 185.147 L 222.653 185.147 L 223.127 186.47 L 223.736 186.47 L 222.089 181.963 L 221.428 181.963 L 219.787 186.47 L 219.787 186.47 z M 221.065 184.596 L 221.759 182.612 L 222.452 184.596 L 221.065 184.596 L 221.065 184.596 z M 224.534 186.47 L 225.104 186.47 L 225.104 184.479 L 225.163 183.999 L 225.338 183.656 L 225.623 183.448 L 226.006 183.377 L 226.291 183.422 L 226.505 183.552 L 226.635 183.772 L 226.68 184.071 L 227.257 184.071 L 227.179 183.545 L 226.965 183.169 L 226.609 182.942 L 226.122 182.865 L 225.792 182.916 L 225.506 183.046 L 225.254 183.267 L 225.053 183.565 L 225.053 182.988 L 224.534 182.988 L 224.534 186.47 L 224.534 186.47 z M 227.996 186.47 L 228.522 186.47 L 228.522 184.142 L 228.554 183.792 L 228.651 183.539 L 228.8 183.39 L 228.995 183.331 L 229.151 183.383 L 229.254 183.513 L 229.306 183.733 L 229.326 184.025 L 229.326 186.47 L 229.818 186.47 L 229.818 184.142 L 229.851 183.798 L 229.948 183.545 L 230.104 183.39 L 230.298 183.331 L 230.454 183.383 L 230.558 183.513 L 230.622 184.025 L 230.622 186.47 L 231.148 186.47 L 231.148 184.064 L 231.115 183.565 L 231.012 183.182 L 230.804 182.949 L 230.467 182.865 L 230.071 182.994 L 229.767 183.37 L 229.527 183.001 L 229.125 182.865 L 228.755 182.994 L 228.502 183.357 L 228.502 182.988 L 227.996 182.988 L 227.996 186.47 L 227.996 186.47 z M 236.244 186.47 L 236.815 186.47 L 236.815 184.479 L 236.873 183.999 L 237.048 183.656 L 237.334 183.448 L 237.716 183.377 L 238.001 183.422 L 238.215 183.552 L 238.345 183.772 L 238.39 184.071 L 238.968 184.071 L 238.89 183.545 L 238.676 183.169 L 238.319 182.942 L 237.833 182.865 L 237.502 182.916 L 237.217 183.046 L 236.964 183.267 L 236.763 183.565 L 236.763 182.988 L 236.244 182.988 L 236.244 186.47 L 236.244 186.47 z M 240.433 184.894 L 242.715 184.894 L 242.722 184.628 L 242.618 183.883 L 242.333 183.325 L 241.879 182.988 L 241.276 182.865 L 240.686 182.994 L 240.232 183.357 L 239.94 183.947 L 239.836 184.726 L 239.934 185.523 L 240.225 186.107 L 240.673 186.47 L 241.256 186.593 L 241.762 186.509 L 242.177 186.288 L 242.482 185.938 L 242.657 185.471 L 242.093 185.471 L 241.976 185.731 L 241.808 185.925 L 241.328 186.081 L 240.958 186.009 L 240.679 185.782 L 240.498 185.413 L 240.433 184.914 L 240.433 184.894 L 240.433 184.894 z M 240.433 184.414 L 240.504 183.967 L 240.679 183.636 L 240.945 183.435 L 241.295 183.364 L 241.639 183.435 L 241.905 183.636 L 242.067 183.967 L 242.125 184.414 L 240.433 184.414 L 240.433 184.414 z M 245.906 186.016 L 245.906 186.035 L 245.938 186.256 L 246.035 186.411 L 246.444 186.535 L 246.762 186.483 L 246.762 186.042 L 246.625 186.061 L 246.444 185.977 L 246.411 185.718 L 246.411 183.915 L 246.334 183.455 L 246.107 183.13 L 245.711 182.936 L 245.153 182.865 L 244.609 182.942 L 244.207 183.163 L 243.954 183.506 L 243.87 183.96 L 243.87 183.999 L 244.382 183.999 L 244.427 183.727 L 244.57 183.532 L 244.803 183.416 L 245.134 183.37 L 245.452 183.403 L 245.679 183.5 L 245.815 183.669 L 245.86 183.902 L 245.834 184.174 L 245.731 184.311 L 245.471 184.375 L 244.985 184.427 L 244.427 184.544 L 244.032 184.751 L 243.798 185.076 L 243.727 185.555 L 243.792 185.983 L 243.993 186.301 L 244.317 186.502 L 244.764 186.573 L 245.367 186.437 L 245.906 186.016 L 245.906 186.016 z M 245.841 185.251 L 245.763 185.588 L 245.555 185.847 L 245.244 186.016 L 244.862 186.074 L 244.615 186.042 L 244.44 185.938 L 244.33 185.756 L 244.298 185.504 L 244.323 185.277 L 244.427 185.115 L 244.842 184.933 L 245.367 184.855 L 245.841 184.7 L 245.841 185.251 L 245.841 185.251 z M 247.955 186.47 L 248.525 186.47 L 248.525 184.479 L 248.584 183.999 L 248.759 183.656 L 249.044 183.448 L 249.427 183.377 L 249.712 183.422 L 249.926 183.552 L 250.055 183.772 L 250.101 184.071 L 250.678 184.071 L 250.6 183.545 L 250.386 183.169 L 250.03 182.942 L 249.543 182.865 L 249.213 182.916 L 248.927 183.046 L 248.674 183.267 L 248.473 183.565 L 248.473 182.988 L 247.955 182.988 L 247.955 186.47 L 247.955 186.47 z M 258.232 182.988 L 257.661 182.988 L 257.661 184.998 L 257.597 185.465 L 257.409 185.802 L 257.117 186.009 L 256.734 186.074 L 256.429 186.022 L 256.235 185.867 L 256.125 185.601 L 256.099 185.225 L 256.099 182.988 L 255.528 182.988 L 255.528 185.277 L 255.548 185.737 L 255.671 186.12 L 256.047 186.47 L 256.65 186.593 L 256.974 186.548 L 257.253 186.431 L 257.493 186.23 L 257.687 185.938 L 257.687 186.47 L 258.232 186.47 L 258.232 182.988 L 258.232 182.988 z M 259.989 183.526 L 259.989 182.988 L 259.419 182.988 L 259.419 187.818 L 259.989 187.818 L 259.989 185.938 L 260.19 186.243 L 260.417 186.444 L 260.988 186.593 L 261.532 186.47 L 261.96 186.1 L 262.239 185.517 L 262.343 184.726 L 262.239 183.941 L 261.96 183.357 L 261.532 182.994 L 260.988 182.865 L 260.677 182.903 L 260.411 183.027 L 260.184 183.234 L 259.989 183.526 L 259.989 183.526 z M 260.89 186.081 L 260.508 185.996 L 260.229 185.737 L 260.054 185.316 L 259.996 184.726 L 260.054 184.142 L 260.229 183.72 L 260.508 183.468 L 260.89 183.377 L 261.241 183.468 L 261.519 183.727 L 261.695 184.148 L 261.759 184.726 L 261.695 185.309 L 261.519 185.737 L 261.241 185.996 L 260.89 186.081 L 260.89 186.081 z M 263.893 183.526 L 263.893 182.988 L 263.322 182.988 L 263.322 187.818 L 263.893 187.818 L 263.893 185.938 L 264.094 186.243 L 264.321 186.444 L 264.891 186.593 L 265.436 186.47 L 265.864 186.1 L 266.143 185.517 L 266.246 184.726 L 266.143 183.941 L 265.864 183.357 L 265.436 182.994 L 264.891 182.865 L 264.58 182.903 L 264.314 183.027 L 264.087 183.234 L 263.893 183.526 L 263.893 183.526 z M 264.794 186.081 L 264.411 185.996 L 264.133 185.737 L 263.957 185.316 L 263.899 184.726 L 263.957 184.142 L 264.133 183.72 L 264.411 183.468 L 264.794 183.377 L 265.144 183.468 L 265.423 183.727 L 265.598 184.148 L 265.663 184.726 L 265.598 185.309 L 265.423 185.737 L 265.144 185.996 L 264.794 186.081 L 264.794 186.081 z M 267.757 184.894 L 270.04 184.894 L 270.046 184.628 L 269.942 183.883 L 269.657 183.325 L 269.203 182.988 L 268.6 182.865 L 268.01 182.994 L 267.556 183.357 L 267.264 183.947 L 267.161 184.726 L 267.258 185.523 L 267.55 186.107 L 267.997 186.47 L 268.581 186.593 L 269.086 186.509 L 269.501 186.288 L 269.806 185.938 L 269.981 185.471 L 269.417 185.471 L 269.3 185.731 L 269.132 185.925 L 268.652 186.081 L 268.282 186.009 L 268.004 185.782 L 267.822 185.413 L 267.757 184.914 L 267.757 184.894 L 267.757 184.894 z M 267.757 184.414 L 267.828 183.967 L 268.004 183.636 L 268.269 183.435 L 268.62 183.364 L 268.963 183.435 L 269.229 183.636 L 269.391 183.967 L 269.45 184.414 L 267.757 184.414 L 267.757 184.414 z M 271.375 186.47 L 271.946 186.47 L 271.946 184.479 L 272.004 183.999 L 272.179 183.656 L 272.465 183.448 L 272.847 183.377 L 273.133 183.422 L 273.346 183.552 L 273.476 183.772 L 273.522 184.071 L 274.099 184.071 L 274.021 183.545 L 273.807 183.169 L 273.45 182.942 L 272.964 182.865 L 272.633 182.916 L 272.348 183.046 L 272.095 183.267 L 271.894 183.565 L 271.894 182.988 L 271.375 182.988 L 271.375 186.47 L 271.375 186.47 z" stroke="none" fill-rule="evenodd" fill="rgb(0, 0, 0)"/></g><g stroke="rgb(0, 0, 0)" stroke-width="0.13" stroke-linecap="butt" stroke-linejoin="miter" fill="none"><path d="M 141.036 96.0386 L 141.371 96.0386 L 141.371 94.9831 L 141.713 94.9831 L 141.965 94.9939 L 142.124 95.0444 L 142.21 95.1633 L 142.246 95.3758 L 142.264 95.7 L 142.286 95.9125 L 142.329 96.0386 L 142.707 96.0386 L 142.707 95.9702 L 142.624 95.8693 L 142.596 95.682 L 142.57 95.2785 L 142.509 94.9795 L 142.426 94.8859 L 142.297 94.8174 L 142.441 94.7274 L 142.542 94.6013 L 142.606 94.4428 L 142.628 94.2519 L 142.578 93.9493 L 142.434 93.7223 L 142.196 93.5854 L 141.872 93.5386 L 141.036 93.5386 L 141.036 96.0386 L 141.036 96.0386 z M 141.778 93.8448 L 141.998 93.8664 L 142.153 93.9349 L 142.25 94.0609 L 142.282 94.2591 L 142.246 94.468 L 142.149 94.5941 L 141.983 94.6589 L 141.756 94.6769 L 141.371 94.6769 L 141.371 93.8448 L 141.778 93.8448 L 141.778 93.8448 z M 143.276 96.0386 L 144.883 96.0386 L 144.883 95.736 L 143.608 95.736 L 143.608 93.5386 L 143.276 93.5386 L 143.276 96.0386 L 143.276 96.0386 z M 145.445 96.0386 L 147.052 96.0386 L 147.052 95.736 L 145.776 95.736 L 145.776 93.5386 L 145.445 93.5386 L 145.445 96.0386 L 145.445 96.0386 z M 147.909 95.2137 L 148.781 95.2137 L 148.781 94.9291 L 147.909 94.9291 L 147.909 95.2137 L 147.909 95.2137 z" stroke="none" fill-rule="evenodd" fill="rgb(0, 0, 0)"/></g><g stroke="rgb(0, 0, 0)" stroke-width="0.13" stroke-linecap="butt" stroke-linejoin="miter" fill="none"><path d="M 141.036 100.358 L 141.371 100.358 L 141.371 99.3023 L 141.713 99.3023 L 141.965 99.3131 L 142.124 99.3635 L 142.21 99.4824 L 142.246 99.695 L 142.264 100.019 L 142.286 100.232 L 142.329 100.358 L 142.707 100.358 L 142.707 100.289 L 142.624 100.188 L 142.596 100.001 L 142.57 99.5977 L 142.509 99.2987 L 142.426 99.205 L 142.297 99.1366 L 142.441 99.0465 L 142.542 98.9205 L 142.606 98.762 L 142.628 98.571 L 142.578 98.2684 L 142.434 98.0415 L 142.196 97.9046 L 141.872 97.8578 L 141.036 97.8578 L 141.036 100.358 L 141.036 100.358 z M 141.778 98.164 L 141.998 98.1856 L 142.153 98.254 L 142.25 98.3801 L 142.282 98.5782 L 142.246 98.7872 L 142.149 98.9133 L 141.983 98.9781 L 141.756 98.9961 L 141.371 98.9961 L 141.371 98.164 L 141.778 98.164 L 141.778 98.164 z M 143.147 99.4068 L 143.197 99.8571 L 143.356 100.178 L 143.622 100.361 L 144.008 100.426 L 144.39 100.361 L 144.656 100.178 L 144.815 99.8607 L 144.869 99.4068 L 144.869 97.8578 L 144.534 97.8578 L 144.534 99.4248 L 144.501 99.731 L 144.404 99.9507 L 144.238 100.08 L 144.008 100.124 L 143.77 100.08 L 143.604 99.9507 L 143.507 99.7346 L 143.478 99.4248 L 143.478 97.8578 L 143.147 97.8578 L 143.147 99.4068 L 143.147 99.4068 z M 145.315 99.4068 L 145.366 99.8571 L 145.524 100.178 L 145.791 100.361 L 146.176 100.426 L 146.558 100.361 L 146.825 100.178 L 146.983 99.8607 L 147.037 99.4068 L 147.037 97.8578 L 146.702 97.8578 L 146.702 99.4248 L 146.67 99.731 L 146.573 99.9507 L 146.407 100.08 L 146.176 100.124 L 145.939 100.08 L 145.773 99.9507 L 145.676 99.7346 L 145.647 99.4248 L 145.647 97.8578 L 145.315 97.8578 L 145.315 99.4068 L 145.315 99.4068 z" stroke="none" fill-rule="evenodd" fill="rgb(0, 0, 0)"/></g><g stroke="rgb(0, 0, 0)" stroke-width="0.13" stroke-linecap="butt" stroke-linejoin="miter" fill="none"><path d="M 201.47 101.447 L 201.805 101.447 L 201.805 100.392 L 202.147 100.392 L 202.399 100.403 L 202.558 100.453 L 202.644 100.572 L 202.68 100.784 L 202.698 101.109 L 202.72 101.321 L 202.763 101.447 L 203.141 101.447 L 203.141 101.379 L 203.059 101.278 L 203.03 101.091 L 203.004 100.687 L 202.943 100.388 L 202.86 100.295 L 202.731 100.226 L 202.875 100.136 L 202.976 100.01 L 203.04 99.8515 L 203.062 99.6605 L 203.012 99.3579 L 202.868 99.131 L 202.63 98.9941 L 202.306 98.9473 L 201.47 98.9473 L 201.47 101.447 L 201.47 101.447 z M 202.212 99.2535 L 202.432 99.2751 L 202.587 99.3435 L 202.684 99.4696 L 202.716 99.6677 L 202.68 99.8767 L 202.583 100.003 L 202.417 100.068 L 202.19 100.086 L 201.805 100.086 L 201.805 99.2535 L 202.212 99.2535 L 202.212 99.2535 z M 203.711 101.447 L 205.317 101.447 L 205.317 101.145 L 204.042 101.145 L 204.042 98.9473 L 203.711 98.9473 L 203.711 101.447 L 203.711 101.447 z M 205.879 101.447 L 207.486 101.447 L 207.486 101.145 L 206.211 101.145 L 206.211 98.9473 L 205.879 98.9473 L 205.879 101.447 L 205.879 101.447 z M 208.343 100.622 L 209.215 100.622 L 209.215 100.338 L 208.343 100.338 L 208.343 100.622 L 208.343 100.622 z" stroke="none" fill-rule="evenodd" fill="rgb(0, 0, 0)"/></g><g stroke="rgb(0, 0, 0)" stroke-width="0.13" stroke-linecap="butt" stroke-linejoin="miter" fill="none"><path d="M 201.47 105.766 L 201.805 105.766 L 201.805 104.711 L 202.147 104.711 L 202.399 104.722 L 202.558 104.772 L 202.644 104.891 L 202.68 105.104 L 202.698 105.428 L 202.72 105.64 L 202.763 105.766 L 203.141 105.766 L 203.141 105.698 L 203.059 105.597 L 203.03 105.41 L 203.004 105.006 L 202.943 104.707 L 202.86 104.614 L 202.731 104.545 L 202.875 104.455 L 202.976 104.329 L 203.04 104.171 L 203.062 103.98 L 203.012 103.677 L 202.868 103.45 L 202.63 103.313 L 202.306 103.266 L 201.47 103.266 L 201.47 105.766 L 201.47 105.766 z M 202.212 103.573 L 202.432 103.594 L 202.587 103.663 L 202.684 103.789 L 202.716 103.987 L 202.68 104.196 L 202.583 104.322 L 202.417 104.387 L 202.19 104.405 L 201.805 104.405 L 201.805 103.573 L 202.212 103.573 L 202.212 103.573 z M 203.581 104.815 L 203.631 105.266 L 203.79 105.586 L 204.056 105.77 L 204.442 105.835 L 204.824 105.77 L 205.09 105.586 L 205.249 105.269 L 205.303 104.815 L 205.303 103.266 L 204.968 103.266 L 204.968 104.833 L 204.935 105.14 L 204.838 105.359 L 204.672 105.489 L 204.442 105.532 L 204.204 105.489 L 204.038 105.359 L 203.941 105.143 L 203.912 104.833 L 203.912 103.266 L 203.581 103.266 L 203.581 104.815 L 203.581 104.815 z M 206.607 103.266 L 205.775 103.266 L 205.775 105.766 L 206.607 105.766 L 206.999 105.687 L 207.291 105.446 L 207.471 105.053 L 207.536 104.516 L 207.479 103.969 L 207.406 103.753 L 207.306 103.58 L 207.014 103.346 L 206.823 103.288 L 206.607 103.266 L 206.607 103.266 z M 206.582 103.565 L 206.855 103.619 L 207.043 103.785 L 207.154 104.081 L 207.19 104.516 L 207.151 104.938 L 207.039 105.233 L 206.848 105.41 L 206.582 105.467 L 206.11 105.467 L 206.11 103.565 L 206.582 103.565 L 206.582 103.565 z" stroke="none" fill-rule="evenodd" fill="rgb(0, 0, 0)"/></g></svg>