<?xml version="1.0" encoding="utf-8" ?><!DOCTYPE svg PUBLIC "-//W3C//DTD SVG 1.1//EN" "http://www.w3.org/Graphics/SVG/1.1/DTD/svg11.dtd" 
[ <!ATTLIST svg 
  xmlns:dsy CDATA #FIXED "http://www.3ds.com/print"  
    dsy:text-version CDATA #IMPLIED > 

  <!ATTLIST text 
  xmlns:dsy CDATA #FIXED "http://www.3ds.com/print" 
    dsy:text-version CDATA #IMPLIED > 
]><svg xmlns="http://www.w3.org/2000/svg" xmlns:dsy="http://www.3ds.com/print" dsy:text-version="18000" width="1189" height="841" viewBox="0 0 1189 841" version="1.1"><g stroke="rgb(0, 0, 0)" stroke-width="0.35" stroke-linecap="butt" stroke-linejoin="miter" fill="none"><path d="M 88.9742 87.8672 L 82.9844 87.5168"/><path d="M 87.806 107.833 L 88.9742 87.8672"/><path d="M 95.7924 108.3 L 87.806 107.833"/><path d="M 96.9606 88.3345 L 95.7924 108.3"/><path d="M 102.95 88.6849 L 96.9606 88.3345"/><path d="M 124.949 55.1125 A 0.200012 0.200012 0 0 0 124.761 54.9012"/><path d="M 123.804 74.6791 L 124.949 55.1125"/><path d="M 123.593 74.8671 A 0.200012 0.200012 0 0 0 123.804 74.6791"/><path d="M 123.489 80.0698 A 0.200012 0.200012 0 0 0 123.301 79.8585"/><path d="M 123.301 79.8585 L 113.717 79.2978"/><path d="M 113.529 79.0865 A 0.200012 0.200012 0 0 0 113.717 79.2978"/><path d="M 121.76 109.619 L 123.489 80.0699"/><path d="M 121.548 109.807 A 0.200012 0.200012 0 0 0 121.76 109.619"/><path d="M 124.761 54.9012 L 117.662 54.4858"/><path d="M 117.662 54.4859 A 0.200012 0.200012 0 0 0 117.451 54.6707"/><path d="M 92.4968 53.2106 A 12.5 12.5 0 0 0 117.451 54.6707"/><path d="M 92.4968 53.2106 A 0.200012 0.200012 0 0 0 92.3086 53.0024"/><path d="M 114.009 74.3063 L 123.593 74.8671"/><path d="M 113.529 79.0864 L 113.798 74.4943"/><path d="M 114.009 74.3063 A 0.200012 0.200012 0 0 0 113.798 74.4943"/><path d="M 102.95 88.6849 L 101.794 108.451"/><path d="M 101.982 108.662 L 121.548 109.807"/><path d="M 101.794 108.451 A 0.200012 0.200012 0 0 0 101.982 108.662"/><path d="M 75.2455 52.0041 L 92.3086 53.0024"/><path d="M 75.2455 52.0041 A 0.200012 0.200012 0 0 0 75.0342 52.1921"/><path d="M 71.845 106.699 L 75.0342 52.1921"/><path d="M 71.845 106.699 A 0.200012 0.200012 0 0 0 72.033 106.91"/><path d="M 82.9844 87.5168 L 81.8279 107.283"/><path d="M 81.6166 107.471 L 72.033 106.91"/><path d="M 81.6166 107.471 A 0.200012 0.200012 0 0 0 81.828 107.283"/><path d="M 184.784 84.9136 L 178.792 84.6128"/><path d="M 183.761 105.29 L 184.784 84.9136"/><path d="M 191.771 105.29 L 183.761 105.29"/><path d="M 192.774 85.3148 L 191.771 105.29"/><path d="M 198.767 85.6156 L 192.774 85.3148"/><path d="M 197.764 69.1582 L 184.674 69.1582"/><path d="M 184.674 65.1582 A 2 2 0 0 0 184.674 69.1582"/><path d="M 184.674 65.1582 L 197.764 65.1582"/><path d="M 197.764 69.1582 A 2 2 0 0 0 197.764 65.1582"/><path d="M 212.764 50.3582 A 0.200012 0.200012 0 0 0 212.564 50.1582"/><path d="M 212.764 73.3904 L 212.764 50.3582"/><path d="M 212.564 73.5905 A 0.200012 0.200012 0 0 0 212.764 73.3904"/><path d="M 212.764 75.7905 A 0.200012 0.200012 0 0 0 212.564 75.5905"/><path d="M 212.564 75.5905 L 207.964 75.5905"/><path d="M 207.764 75.3904 A 0.200012 0.200012 0 0 0 207.964 75.5905"/><path d="M 207.964 73.5905 L 212.564 73.5905"/><path d="M 207.764 75.3904 L 207.764 73.7905"/><path d="M 207.964 73.5905 A 0.200012 0.200012 0 0 0 207.764 73.7905"/><path d="M 212.764 105.39 L 212.764 75.7905"/><path d="M 212.564 105.59 A 0.200012 0.200012 0 0 0 212.764 105.39"/><path d="M 198.767 85.6156 L 197.774 105.38"/><path d="M 197.974 105.59 L 212.564 105.59"/><path d="M 197.774 105.38 A 0.200012 0.200012 0 0 0 197.974 105.59"/><path d="M 212.564 50.1582 L 205.83 50.1582"/><path d="M 205.83 50.1582 A 0.200012 0.200012 0 0 0 205.63 50.3571"/><path d="M 180.631 50.3571 A 12.5 12.5 0 0 0 205.63 50.3571"/><path d="M 180.631 50.3571 A 0.200012 0.200012 0 0 0 180.431 50.1582"/><path d="M 180.431 50.1582 L 170.699 50.1582"/><path d="M 170.699 50.1582 A 0.200012 0.200012 0 0 0 170.499 50.3482"/><path d="M 167.811 103.886 L 170.499 50.3482"/><path d="M 167.811 103.886 A 0.200012 0.200012 0 0 0 168.001 104.096"/><path d="M 178.792 84.6128 L 177.799 104.388"/><path d="M 177.589 104.578 L 168.001 104.096"/><path d="M 177.589 104.578 A 0.200012 0.200012 0 0 0 177.799 104.388"/></g><g stroke="rgb(0, 0, 0)" stroke-width="0.13" stroke-linecap="butt" stroke-linejoin="miter" fill="none"><path d="M 79.3824 78.1931 L 80.3464 78.1931 L 80.3464 78.0115 L 79.5812 78.0115 L 79.5812 76.6931 L 79.3824 76.6931 L 79.3824 78.1931 L 79.3824 78.1931 z M 80.8413 77.6678 L 81.6021 77.6678 L 81.6043 77.5792 L 81.5697 77.3307 L 81.4746 77.1448 L 81.3233 77.0324 L 81.1223 76.9913 L 80.9256 77.0345 L 80.7743 77.1556 L 80.677 77.3523 L 80.6425 77.6116 L 80.6749 77.8775 L 80.7721 78.072 L 80.9213 78.1931 L 81.1158 78.2341 L 81.2844 78.206 L 81.4227 78.1325 L 81.5243 78.0158 L 81.5827 77.8602 L 81.3946 77.8602 L 81.3557 77.9467 L 81.2995 78.0115 L 81.1396 78.0634 L 81.0164 78.0396 L 80.9234 77.9639 L 80.8629 77.8408 L 80.8413 77.6743 L 80.8413 77.6678 L 80.8413 77.6678 z M 80.8413 77.5079 L 80.8651 77.3588 L 80.9234 77.2485 L 81.0121 77.1815 L 81.1288 77.1578 L 81.2433 77.1815 L 81.3319 77.2485 L 81.386 77.3588 L 81.4054 77.5079 L 80.8413 77.5079 L 80.8413 77.5079 z M 82.2397 77.2334 L 82.2397 78.1931 L 82.4299 78.1931 L 82.4299 77.2334 L 82.8622 77.2334 L 82.8622 77.0713 L 82.4299 77.0713 L 82.4299 77 L 82.4451 76.9135 L 82.4948 76.8552 L 82.5791 76.8206 L 82.7001 76.8076 L 82.8622 76.8162 L 82.8622 76.652 L 82.6569 76.6412 L 82.471 76.6606 L 82.3413 76.719 L 82.2635 76.8206 L 82.2397 76.9654 L 82.2397 77.0713 L 81.8917 77.0713 L 81.8917 77.2334 L 82.2397 77.2334 L 82.2397 77.2334 z M 83.5322 77.2334 L 83.5322 77.8148 L 83.5452 78.0029 L 83.6057 78.1325 L 83.7268 78.2082 L 83.9321 78.2341 L 84.1569 78.2233 L 84.1569 78.059 L 83.9926 78.072 L 83.8435 78.0547 L 83.7635 78.0007 L 83.7289 77.9099 L 83.7224 77.7824 L 83.7224 77.2334 L 84.1569 77.2334 L 84.1569 77.0713 L 83.7224 77.0713 L 83.7224 76.7319 L 83.5322 76.7319 L 83.5322 77.0713 L 83.2037 77.0713 L 83.2037 77.2334 L 83.5322 77.2334 L 83.5322 77.2334 z M 85.8838 78.1931 L 86.0848 78.1931 L 86.0848 77.5036 L 86.716 77.5036 L 86.716 77.3242 L 86.0848 77.3242 L 86.0848 76.8746 L 86.8608 76.8746 L 86.8608 76.6931 L 85.8838 76.6931 L 85.8838 78.1931 L 85.8838 78.1931 z M 87.252 78.1931 L 87.4422 78.1931 L 87.4422 77.5295 L 87.4616 77.3696 L 87.52 77.255 L 87.6151 77.1859 L 87.7426 77.162 L 87.8377 77.1772 L 87.909 77.2205 L 87.9523 77.2939 L 87.9674 77.3934 L 88.1598 77.3934 L 88.1338 77.2183 L 88.0625 77.0929 L 87.9436 77.0173 L 87.7815 76.9913 L 87.6713 77.0086 L 87.5762 77.0518 L 87.4919 77.1253 L 87.4249 77.2247 L 87.4249 77.0324 L 87.252 77.0324 L 87.252 78.1931 L 87.252 78.1931 z M 88.4256 77.6138 L 88.4602 77.8775 L 88.5596 78.072 L 88.7174 78.1931 L 88.9292 78.2341 L 89.1389 78.1931 L 89.2967 78.0742 L 89.3961 77.8796 L 89.4328 77.6138 L 89.3961 77.3501 L 89.2967 77.1534 L 89.1389 77.0345 L 88.9292 76.9913 L 88.7174 77.0345 L 88.5596 77.1556 L 88.4602 77.3501 L 88.4256 77.6138 L 88.4256 77.6138 z M 88.6201 77.6116 L 88.6396 77.4171 L 88.7001 77.2766 L 88.7974 77.1902 L 88.9292 77.1599 L 89.0589 77.1902 L 89.1562 77.2745 L 89.2167 77.4171 L 89.2383 77.6116 L 89.2167 77.8083 L 89.1562 77.951 L 89.0589 78.0374 L 88.9292 78.0656 L 88.7974 78.0374 L 88.7001 77.951 L 88.6396 77.8083 L 88.6201 77.6116 L 88.6201 77.6116 z M 89.783 78.1931 L 89.9732 78.1931 L 89.9732 77.523 L 89.9926 77.3696 L 90.0553 77.2572 L 90.1526 77.188 L 90.2822 77.162 L 90.386 77.1837 L 90.4508 77.2421 L 90.4833 77.3393 L 90.4941 77.469 L 90.4941 78.1931 L 90.6843 78.1931 L 90.6843 77.4301 L 90.6756 77.2766 L 90.6367 77.1491 L 90.5092 77.0324 L 90.3103 76.9913 L 90.2001 77.0065 L 90.1072 77.0475 L 90.0272 77.1167 L 89.9645 77.2096 L 89.9645 77.0324 L 89.783 77.0324 L 89.783 78.1931 L 89.783 78.1931 z M 91.3392 77.2334 L 91.3392 77.8148 L 91.3521 78.0029 L 91.4127 78.1325 L 91.5337 78.2082 L 91.739 78.2341 L 91.9638 78.2233 L 91.9638 78.059 L 91.7995 78.072 L 91.6504 78.0547 L 91.5704 78.0007 L 91.5359 77.9099 L 91.5294 77.7824 L 91.5294 77.2334 L 91.9638 77.2334 L 91.9638 77.0713 L 91.5294 77.0713 L 91.5294 76.7319 L 91.3392 76.7319 L 91.3392 77.0713 L 91.0106 77.0713 L 91.0106 77.2334 L 91.3392 77.2334 L 91.3392 77.2334 z M 93.6173 77.6224 L 93.6475 77.8926 L 93.7426 78.085 L 93.9026 78.1952 L 94.1338 78.2341 L 94.3629 78.1952 L 94.5229 78.085 L 94.618 77.8948 L 94.6504 77.6224 L 94.6504 76.6931 L 94.4494 76.6931 L 94.4494 77.6332 L 94.4299 77.817 L 94.3716 77.9488 L 94.2722 78.0266 L 94.1338 78.0526 L 93.9912 78.0266 L 93.8918 77.9488 L 93.8334 77.8192 L 93.8161 77.6332 L 93.8161 76.6931 L 93.6173 76.6931 L 93.6173 77.6224 L 93.6173 77.6224 z M 95.167 77.2118 L 95.167 77.0324 L 94.9768 77.0324 L 94.9768 78.6426 L 95.167 78.6426 L 95.167 78.0158 L 95.234 78.1174 L 95.3096 78.1844 L 95.4998 78.2341 L 95.6814 78.1931 L 95.824 78.0699 L 95.917 77.8753 L 95.9516 77.6116 L 95.917 77.3501 L 95.824 77.1556 L 95.6814 77.0345 L 95.4998 76.9913 L 95.3961 77.0043 L 95.3075 77.0453 L 95.2318 77.1145 L 95.167 77.2118 L 95.167 77.2118 z M 95.4674 78.0634 L 95.3399 78.0353 L 95.247 77.9488 L 95.1886 77.8083 L 95.1691 77.6116 L 95.1886 77.4171 L 95.247 77.2766 L 95.3399 77.1923 L 95.4674 77.162 L 95.5841 77.1923 L 95.6771 77.2788 L 95.7354 77.4193 L 95.757 77.6116 L 95.7354 77.8062 L 95.6771 77.9488 L 95.5841 78.0353 L 95.4674 78.0634 L 95.4674 78.0634 z M 96.4681 77.2118 L 96.4681 77.0324 L 96.2779 77.0324 L 96.2779 78.6426 L 96.4681 78.6426 L 96.4681 78.0158 L 96.5351 78.1174 L 96.6108 78.1844 L 96.801 78.2341 L 96.9825 78.1931 L 97.1252 78.0699 L 97.2181 77.8753 L 97.2527 77.6116 L 97.2181 77.3501 L 97.1252 77.1556 L 96.9825 77.0345 L 96.801 76.9913 L 96.6972 77.0043 L 96.6086 77.0453 L 96.533 77.1145 L 96.4681 77.2118 L 96.4681 77.2118 z M 96.7686 78.0634 L 96.641 78.0353 L 96.5481 77.9488 L 96.4898 77.8083 L 96.4703 77.6116 L 96.4898 77.4171 L 96.5481 77.2766 L 96.641 77.1923 L 96.7686 77.162 L 96.8853 77.1923 L 96.9782 77.2788 L 97.0366 77.4193 L 97.0582 77.6116 L 97.0366 77.8062 L 96.9782 77.9488 L 96.8853 78.0353 L 96.7686 78.0634 L 96.7686 78.0634 z M 97.7563 77.6678 L 98.5171 77.6678 L 98.5193 77.5792 L 98.4847 77.3307 L 98.3896 77.1448 L 98.2383 77.0324 L 98.0373 76.9913 L 97.8406 77.0345 L 97.6893 77.1556 L 97.5921 77.3523 L 97.5575 77.6116 L 97.5899 77.8775 L 97.6872 78.072 L 97.8363 78.1931 L 98.0308 78.2341 L 98.1994 78.206 L 98.3377 78.1325 L 98.4393 78.0158 L 98.4977 77.8602 L 98.3096 77.8602 L 98.2707 77.9467 L 98.2145 78.0115 L 98.0546 78.0634 L 97.9314 78.0396 L 97.8385 77.9639 L 97.7779 77.8408 L 97.7563 77.6743 L 97.7563 77.6678 L 97.7563 77.6678 z M 97.7563 77.5079 L 97.7801 77.3588 L 97.8385 77.2485 L 97.9271 77.1815 L 98.0438 77.1578 L 98.1583 77.1815 L 98.247 77.2485 L 98.301 77.3588 L 98.3204 77.5079 L 97.7563 77.5079 L 97.7563 77.5079 z M 98.9624 78.1931 L 99.1526 78.1931 L 99.1526 77.5295 L 99.172 77.3696 L 99.2304 77.255 L 99.3255 77.1859 L 99.453 77.162 L 99.5481 77.1772 L 99.6194 77.2205 L 99.6627 77.2939 L 99.6778 77.3934 L 99.8702 77.3934 L 99.8442 77.2183 L 99.7729 77.0929 L 99.654 77.0173 L 99.4919 76.9913 L 99.3817 77.0086 L 99.2866 77.0518 L 99.2023 77.1253 L 99.1353 77.2247 L 99.1353 77.0324 L 98.9624 77.0324 L 98.9624 78.1931 L 98.9624 78.1931 z M 101.284 78.1931 L 101.483 78.1931 L 101.64 77.7521 L 102.239 77.7521 L 102.397 78.1931 L 102.6 78.1931 L 102.051 76.6909 L 101.831 76.6909 L 101.284 78.1931 L 101.284 78.1931 z M 101.71 77.5684 L 101.941 76.907 L 102.172 77.5684 L 101.71 77.5684 L 101.71 77.5684 z M 102.98 77.6981 L 103.503 77.6981 L 103.503 77.5273 L 102.98 77.5273 L 102.98 77.6981 L 102.98 77.6981 z M 103.886 78.1931 L 104.085 78.1931 L 104.243 77.7521 L 104.841 77.7521 L 104.999 78.1931 L 105.202 78.1931 L 104.653 76.6909 L 104.433 76.6909 L 103.886 78.1931 L 103.886 78.1931 z M 104.312 77.5684 L 104.543 76.907 L 104.774 77.5684 L 104.312 77.5684 L 104.312 77.5684 z M 105.468 78.1931 L 105.658 78.1931 L 105.658 77.5295 L 105.678 77.3696 L 105.736 77.255 L 105.831 77.1859 L 105.959 77.162 L 106.054 77.1772 L 106.125 77.2205 L 106.168 77.2939 L 106.184 77.3934 L 106.376 77.3934 L 106.35 77.2183 L 106.279 77.0929 L 106.16 77.0173 L 105.998 76.9913 L 105.887 77.0086 L 105.792 77.0518 L 105.708 77.1253 L 105.641 77.2247 L 105.641 77.0324 L 105.468 77.0324 L 105.468 78.1931 L 105.468 78.1931 z M 106.622 78.1931 L 106.797 78.1931 L 106.797 77.4171 L 106.808 77.3004 L 106.841 77.2161 L 106.89 77.1664 L 106.955 77.147 L 107.007 77.1642 L 107.042 77.2075 L 107.059 77.2809 L 107.065 77.3782 L 107.065 78.1931 L 107.23 78.1931 L 107.23 77.4171 L 107.24 77.3026 L 107.273 77.2183 L 107.325 77.1664 L 107.39 77.147 L 107.441 77.1642 L 107.476 77.2075 L 107.498 77.3782 L 107.498 78.1931 L 107.673 78.1931 L 107.673 77.3912 L 107.662 77.2247 L 107.627 77.0972 L 107.558 77.0194 L 107.446 76.9913 L 107.314 77.0345 L 107.212 77.1599 L 107.132 77.0367 L 106.998 76.9913 L 106.875 77.0345 L 106.791 77.1556 L 106.791 77.0324 L 106.622 77.0324 L 106.622 78.1931 L 106.622 78.1931 z" stroke="none" fill-rule="evenodd" fill="rgb(0, 0, 0)"/></g><g stroke="rgb(0, 0, 0)" stroke-width="0.13" stroke-linecap="butt" stroke-linejoin="miter" fill="none"><path d="M 89.7765 80.7845 L 90.7275 80.7845 L 90.7275 80.603 L 89.9753 80.603 L 89.9753 80.0951 L 90.6453 80.0951 L 90.6453 79.9156 L 89.9753 79.9156 L 89.9753 79.4661 L 90.7102 79.4661 L 90.7102 79.2845 L 89.7765 79.2845 L 89.7765 80.7845 L 89.7765 80.7845 z M 92.1756 80.7845 L 92.3745 80.7845 L 92.5322 80.3436 L 93.1309 80.3436 L 93.2887 80.7845 L 93.4919 80.7845 L 92.9429 79.2824 L 92.7224 79.2824 L 92.1756 80.7845 L 92.1756 80.7845 z M 92.6014 80.1599 L 92.8327 79.4985 L 93.0639 80.1599 L 92.6014 80.1599 L 92.6014 80.1599 z M 94.0344 80.7845 L 94.2354 80.7845 L 94.659 79.6239 L 94.4623 79.6239 L 94.136 80.5598 L 93.8031 79.6239 L 93.6043 79.6239 L 94.0344 80.7845 L 94.0344 80.7845 z M 95.6771 80.6332 L 95.6771 80.6397 L 95.6879 80.7132 L 95.7203 80.7651 L 95.8564 80.8062 L 95.9624 80.7889 L 95.9624 80.6419 L 95.917 80.6484 L 95.8564 80.6203 L 95.8456 80.5338 L 95.8456 79.933 L 95.8197 79.7795 L 95.7441 79.6714 L 95.6122 79.6066 L 95.4263 79.5828 L 95.2448 79.6088 L 95.1108 79.6823 L 95.0265 79.7968 L 94.9984 79.9481 L 94.9984 79.9611 L 95.1691 79.9611 L 95.1843 79.8703 L 95.2318 79.8054 L 95.3096 79.7665 L 95.4198 79.7514 L 95.5258 79.7622 L 95.6014 79.7946 L 95.6468 79.8508 L 95.6619 79.9286 L 95.6533 80.0194 L 95.6187 80.0648 L 95.5322 80.0864 L 95.3701 80.1037 L 95.1843 80.1426 L 95.0524 80.2118 L 94.9746 80.3198 L 94.9508 80.4798 L 94.9724 80.6224 L 95.0394 80.7283 L 95.1475 80.7953 L 95.2966 80.8192 L 95.4977 80.7737 L 95.6771 80.6332 L 95.6771 80.6332 z M 95.6554 80.3782 L 95.6295 80.4906 L 95.5603 80.577 L 95.4566 80.6332 L 95.3291 80.6527 L 95.2469 80.6419 L 95.1886 80.6073 L 95.1518 80.5468 L 95.141 80.4625 L 95.1497 80.3868 L 95.1843 80.3328 L 95.3226 80.2723 L 95.4977 80.2463 L 95.6554 80.1945 L 95.6554 80.3782 L 95.6554 80.3782 z M 96.2887 80.7845 L 96.4789 80.7845 L 96.4789 80.1145 L 96.4984 79.9611 L 96.5611 79.8487 L 96.6583 79.7795 L 96.788 79.7535 L 96.8918 79.7752 L 96.9566 79.8336 L 96.989 79.9308 L 96.9998 80.0605 L 96.9998 80.7845 L 97.19 80.7845 L 97.19 80.0216 L 97.1814 79.8681 L 97.1425 79.7406 L 97.015 79.6239 L 96.8161 79.5828 L 96.7059 79.598 L 96.6129 79.639 L 96.533 79.7082 L 96.4703 79.8011 L 96.4703 79.6239 L 96.2887 79.6239 L 96.2887 80.7845 L 96.2887 80.7845 z M 97.8449 79.8249 L 97.8449 80.4063 L 97.8579 80.5944 L 97.9184 80.724 L 98.0395 80.7997 L 98.2448 80.8256 L 98.4696 80.8148 L 98.4696 80.6505 L 98.3053 80.6635 L 98.1562 80.6462 L 98.0762 80.5922 L 98.0416 80.5014 L 98.0351 80.3739 L 98.0351 79.8249 L 98.4696 79.8249 L 98.4696 79.6628 L 98.0351 79.6628 L 98.0351 79.3234 L 97.8449 79.3234 L 97.8449 79.6628 L 97.5164 79.6628 L 97.5164 79.8249 L 97.8449 79.8249 L 97.8449 79.8249 z" stroke="none" fill-rule="evenodd" fill="rgb(0, 0, 0)"/></g><g stroke="rgb(0, 0, 0)" stroke-width="0.13" stroke-linecap="butt" stroke-linejoin="miter" fill="none"><path d="M 177.508 77.5417 L 178.472 77.5417 L 178.472 77.3601 L 177.707 77.3601 L 177.707 76.0417 L 177.508 76.0417 L 177.508 77.5417 L 177.508 77.5417 z M 178.967 77.0165 L 179.728 77.0165 L 179.73 76.9279 L 179.695 76.6793 L 179.6 76.4934 L 179.449 76.381 L 179.248 76.34 L 179.051 76.3832 L 178.9 76.5042 L 178.803 76.7009 L 178.768 76.9603 L 178.8 77.2261 L 178.898 77.4207 L 179.047 77.5417 L 179.241 77.5828 L 179.41 77.5546 L 179.548 77.4811 L 179.65 77.3644 L 179.708 77.2089 L 179.52 77.2089 L 179.481 77.2953 L 179.425 77.3601 L 179.265 77.412 L 179.142 77.3882 L 179.049 77.3126 L 178.988 77.1894 L 178.967 77.0229 L 178.967 77.0165 L 178.967 77.0165 z M 178.967 76.8565 L 178.991 76.7074 L 179.049 76.5972 L 179.138 76.5302 L 179.254 76.5064 L 179.369 76.5302 L 179.457 76.5972 L 179.512 76.7074 L 179.531 76.8565 L 178.967 76.8565 L 178.967 76.8565 z M 180.365 76.582 L 180.365 77.5417 L 180.555 77.5417 L 180.555 76.582 L 180.988 76.582 L 180.988 76.4199 L 180.555 76.4199 L 180.555 76.3486 L 180.571 76.2621 L 180.62 76.2038 L 180.705 76.1692 L 180.826 76.1563 L 180.988 76.1649 L 180.988 76.0006 L 180.782 75.9898 L 180.597 76.0093 L 180.467 76.0676 L 180.389 76.1692 L 180.365 76.314 L 180.365 76.4199 L 180.017 76.4199 L 180.017 76.582 L 180.365 76.582 L 180.365 76.582 z M 181.658 76.582 L 181.658 77.1635 L 181.671 77.3515 L 181.731 77.4811 L 181.852 77.5568 L 182.058 77.5828 L 182.282 77.572 L 182.282 77.4077 L 182.118 77.4207 L 181.969 77.4034 L 181.889 77.3493 L 181.854 77.2585 L 181.848 77.131 L 181.848 76.582 L 182.282 76.582 L 182.282 76.4199 L 181.848 76.4199 L 181.848 76.0806 L 181.658 76.0806 L 181.658 76.4199 L 181.329 76.4199 L 181.329 76.582 L 181.658 76.582 L 181.658 76.582 z M 184.009 77.5417 L 184.21 77.5417 L 184.21 76.8522 L 184.841 76.8522 L 184.841 76.6728 L 184.21 76.6728 L 184.21 76.2233 L 184.986 76.2233 L 184.986 76.0417 L 184.009 76.0417 L 184.009 77.5417 L 184.009 77.5417 z M 185.377 77.5417 L 185.568 77.5417 L 185.568 76.8782 L 185.587 76.7182 L 185.646 76.6036 L 185.741 76.5345 L 185.868 76.5107 L 185.963 76.5258 L 186.035 76.5691 L 186.078 76.6426 L 186.093 76.742 L 186.285 76.742 L 186.259 76.5669 L 186.188 76.4415 L 186.069 76.3659 L 185.907 76.34 L 185.797 76.3572 L 185.702 76.4005 L 185.617 76.4739 L 185.55 76.5734 L 185.55 76.381 L 185.377 76.381 L 185.377 77.5417 L 185.377 77.5417 z M 186.551 76.9625 L 186.586 77.2261 L 186.685 77.4207 L 186.843 77.5417 L 187.055 77.5828 L 187.264 77.5417 L 187.422 77.4228 L 187.522 77.2283 L 187.558 76.9625 L 187.522 76.6987 L 187.422 76.5021 L 187.264 76.3832 L 187.055 76.34 L 186.843 76.3832 L 186.685 76.5042 L 186.586 76.6987 L 186.551 76.9625 L 186.551 76.9625 z M 186.746 76.9603 L 186.765 76.7657 L 186.826 76.6252 L 186.923 76.5388 L 187.055 76.5085 L 187.184 76.5388 L 187.282 76.6231 L 187.342 76.7657 L 187.364 76.9603 L 187.342 77.157 L 187.282 77.2996 L 187.184 77.386 L 187.055 77.4142 L 186.923 77.386 L 186.826 77.2996 L 186.765 77.157 L 186.746 76.9603 L 186.746 76.9603 z M 187.908 77.5417 L 188.099 77.5417 L 188.099 76.8716 L 188.118 76.7182 L 188.181 76.6058 L 188.278 76.5366 L 188.408 76.5107 L 188.511 76.5323 L 188.576 76.5907 L 188.609 76.6879 L 188.62 76.8176 L 188.62 77.5417 L 188.81 77.5417 L 188.81 76.7787 L 188.801 76.6252 L 188.762 76.4977 L 188.635 76.381 L 188.436 76.34 L 188.326 76.3551 L 188.233 76.3962 L 188.153 76.4653 L 188.09 76.5583 L 188.09 76.381 L 187.908 76.381 L 187.908 77.5417 L 187.908 77.5417 z M 189.465 76.582 L 189.465 77.1635 L 189.478 77.3515 L 189.538 77.4811 L 189.659 77.5568 L 189.865 77.5828 L 190.089 77.572 L 190.089 77.4077 L 189.925 77.4207 L 189.776 77.4034 L 189.696 77.3493 L 189.661 77.2585 L 189.655 77.131 L 189.655 76.582 L 190.089 76.582 L 190.089 76.4199 L 189.655 76.4199 L 189.655 76.0806 L 189.465 76.0806 L 189.465 76.4199 L 189.136 76.4199 L 189.136 76.582 L 189.465 76.582 L 189.465 76.582 z M 191.743 76.9711 L 191.773 77.2413 L 191.868 77.4336 L 192.028 77.5438 L 192.259 77.5828 L 192.488 77.5438 L 192.648 77.4336 L 192.743 77.2434 L 192.776 76.9711 L 192.776 76.0417 L 192.575 76.0417 L 192.575 76.9819 L 192.555 77.1656 L 192.497 77.2974 L 192.398 77.3752 L 192.259 77.4012 L 192.117 77.3752 L 192.017 77.2974 L 191.959 77.1678 L 191.942 76.9819 L 191.942 76.0417 L 191.743 76.0417 L 191.743 76.9711 L 191.743 76.9711 z M 193.292 76.5604 L 193.292 76.381 L 193.102 76.381 L 193.102 77.9913 L 193.292 77.9913 L 193.292 77.3644 L 193.359 77.4661 L 193.435 77.533 L 193.625 77.5828 L 193.807 77.5417 L 193.95 77.4185 L 194.042 77.2239 L 194.077 76.9603 L 194.042 76.6987 L 193.95 76.5042 L 193.807 76.3832 L 193.625 76.34 L 193.522 76.3529 L 193.433 76.394 L 193.357 76.4631 L 193.292 76.5604 L 193.292 76.5604 z M 193.593 77.412 L 193.465 77.3839 L 193.372 77.2974 L 193.314 77.157 L 193.295 76.9603 L 193.314 76.7657 L 193.372 76.6252 L 193.465 76.541 L 193.593 76.5107 L 193.71 76.541 L 193.803 76.6274 L 193.861 76.7679 L 193.883 76.9603 L 193.861 77.1548 L 193.803 77.2974 L 193.71 77.3839 L 193.593 77.412 L 193.593 77.412 z M 194.594 76.5604 L 194.594 76.381 L 194.403 76.381 L 194.403 77.9913 L 194.594 77.9913 L 194.594 77.3644 L 194.661 77.4661 L 194.736 77.533 L 194.926 77.5828 L 195.108 77.5417 L 195.251 77.4185 L 195.344 77.2239 L 195.378 76.9603 L 195.344 76.6987 L 195.251 76.5042 L 195.108 76.3832 L 194.926 76.34 L 194.823 76.3529 L 194.734 76.394 L 194.658 76.4631 L 194.594 76.5604 L 194.594 76.5604 z M 194.894 77.412 L 194.767 77.3839 L 194.674 77.2974 L 194.615 77.157 L 194.596 76.9603 L 194.615 76.7657 L 194.674 76.6252 L 194.767 76.541 L 194.894 76.5107 L 195.011 76.541 L 195.104 76.6274 L 195.162 76.7679 L 195.184 76.9603 L 195.162 77.1548 L 195.104 77.2974 L 195.011 77.3839 L 194.894 77.412 L 194.894 77.412 z M 195.882 77.0165 L 196.643 77.0165 L 196.645 76.9279 L 196.61 76.6793 L 196.515 76.4934 L 196.364 76.381 L 196.163 76.34 L 195.966 76.3832 L 195.815 76.5042 L 195.718 76.7009 L 195.683 76.9603 L 195.715 77.2261 L 195.813 77.4207 L 195.962 77.5417 L 196.156 77.5828 L 196.325 77.5546 L 196.463 77.4811 L 196.565 77.3644 L 196.623 77.2089 L 196.435 77.2089 L 196.396 77.2953 L 196.34 77.3601 L 196.18 77.412 L 196.057 77.3882 L 195.964 77.3126 L 195.903 77.1894 L 195.882 77.0229 L 195.882 77.0165 L 195.882 77.0165 z M 195.882 76.8565 L 195.906 76.7074 L 195.964 76.5972 L 196.053 76.5302 L 196.169 76.5064 L 196.284 76.5302 L 196.372 76.5972 L 196.426 76.7074 L 196.446 76.8565 L 195.882 76.8565 L 195.882 76.8565 z M 197.088 77.5417 L 197.278 77.5417 L 197.278 76.8782 L 197.297 76.7182 L 197.356 76.6036 L 197.451 76.5345 L 197.578 76.5107 L 197.674 76.5258 L 197.745 76.5691 L 197.788 76.6426 L 197.803 76.742 L 197.996 76.742 L 197.97 76.5669 L 197.898 76.4415 L 197.779 76.3659 L 197.617 76.34 L 197.507 76.3572 L 197.412 76.4005 L 197.328 76.4739 L 197.261 76.5734 L 197.261 76.381 L 197.088 76.381 L 197.088 77.5417 L 197.088 77.5417 z M 199.409 77.5417 L 199.608 77.5417 L 199.766 77.1008 L 200.364 77.1008 L 200.522 77.5417 L 200.725 77.5417 L 200.176 76.0396 L 199.956 76.0396 L 199.409 77.5417 L 199.409 77.5417 z M 199.835 76.9171 L 200.066 76.2557 L 200.297 76.9171 L 199.835 76.9171 L 199.835 76.9171 z M 201.106 77.0468 L 201.629 77.0468 L 201.629 76.876 L 201.106 76.876 L 201.106 77.0468 L 201.106 77.0468 z M 202.011 77.5417 L 202.21 77.5417 L 202.368 77.1008 L 202.967 77.1008 L 203.125 77.5417 L 203.328 77.5417 L 202.779 76.0396 L 202.558 76.0396 L 202.011 77.5417 L 202.011 77.5417 z M 202.437 76.9171 L 202.668 76.2557 L 202.9 76.9171 L 202.437 76.9171 L 202.437 76.9171 z M 203.594 77.5417 L 203.784 77.5417 L 203.784 76.8782 L 203.803 76.7182 L 203.862 76.6036 L 203.957 76.5345 L 204.084 76.5107 L 204.179 76.5258 L 204.251 76.5691 L 204.294 76.6426 L 204.309 76.742 L 204.501 76.742 L 204.475 76.5669 L 204.404 76.4415 L 204.285 76.3659 L 204.123 76.34 L 204.013 76.3572 L 203.918 76.4005 L 203.833 76.4739 L 203.766 76.5734 L 203.766 76.381 L 203.594 76.381 L 203.594 77.5417 L 203.594 77.5417 z M 204.748 77.5417 L 204.923 77.5417 L 204.923 76.7657 L 204.934 76.649 L 204.966 76.5648 L 205.016 76.515 L 205.081 76.4956 L 205.132 76.5129 L 205.167 76.5561 L 205.184 76.6296 L 205.191 76.7269 L 205.191 77.5417 L 205.355 77.5417 L 205.355 76.7657 L 205.366 76.6512 L 205.398 76.5669 L 205.45 76.515 L 205.515 76.4956 L 205.567 76.5129 L 205.601 76.5561 L 205.623 76.7269 L 205.623 77.5417 L 205.798 77.5417 L 205.798 76.7398 L 205.787 76.5734 L 205.753 76.4459 L 205.684 76.368 L 205.571 76.34 L 205.439 76.3832 L 205.338 76.5085 L 205.258 76.3854 L 205.124 76.34 L 205.001 76.3832 L 204.916 76.5042 L 204.916 76.381 L 204.748 76.381 L 204.748 77.5417 L 204.748 77.5417 z" stroke="none" fill-rule="evenodd" fill="rgb(0, 0, 0)"/></g><g stroke="rgb(0, 0, 0)" stroke-width="0.13" stroke-linecap="butt" stroke-linejoin="miter" fill="none"><path d="M 186.601 80.1332 L 187.552 80.1332 L 187.552 79.9516 L 186.8 79.9516 L 186.8 79.4437 L 187.47 79.4437 L 187.47 79.2643 L 186.8 79.2643 L 186.8 78.8148 L 187.535 78.8148 L 187.535 78.6332 L 186.601 78.6332 L 186.601 80.1332 L 186.601 80.1332 z M 189 80.1332 L 189.199 80.1332 L 189.357 79.6923 L 189.955 79.6923 L 190.113 80.1332 L 190.316 80.1332 L 189.767 78.631 L 189.547 78.631 L 189 80.1332 L 189 80.1332 z M 189.426 79.5085 L 189.657 78.8472 L 189.888 79.5085 L 189.426 79.5085 L 189.426 79.5085 z M 190.582 80.1332 L 190.772 80.1332 L 190.772 79.4697 L 190.792 79.3097 L 190.85 79.1951 L 190.945 79.126 L 191.073 79.1022 L 191.168 79.1173 L 191.239 79.1606 L 191.282 79.2341 L 191.298 79.3335 L 191.49 79.3335 L 191.464 79.1584 L 191.393 79.033 L 191.274 78.9574 L 191.112 78.9315 L 191.001 78.9487 L 190.906 78.9919 L 190.822 79.0654 L 190.755 79.1649 L 190.755 78.9725 L 190.582 78.9725 L 190.582 80.1332 L 190.582 80.1332 z M 191.883 80.1332 L 192.073 80.1332 L 192.073 79.4697 L 192.093 79.3097 L 192.151 79.1951 L 192.246 79.126 L 192.374 79.1022 L 192.469 79.1173 L 192.54 79.1606 L 192.584 79.2341 L 192.599 79.3335 L 192.791 79.3335 L 192.765 79.1584 L 192.694 79.033 L 192.575 78.9574 L 192.413 78.9315 L 192.303 78.9487 L 192.207 78.9919 L 192.123 79.0654 L 192.056 79.1649 L 192.056 78.9725 L 191.883 78.9725 L 191.883 80.1332 L 191.883 80.1332 z M 193.695 79.9733 L 193.695 79.0114 L 193.206 79.0114 L 193.206 79.1735 L 193.504 79.1735 L 193.504 79.9733 L 193.115 79.9733 L 193.115 80.1332 L 194.088 80.1332 L 194.088 79.9733 L 193.695 79.9733 L 193.695 79.9733 z M 193.701 78.5813 L 193.5 78.5813 L 193.5 78.7974 L 193.701 78.7974 L 193.701 78.5813 L 193.701 78.5813 z M 195.015 78.8148 L 194.799 78.4473 L 194.587 78.4473 L 194.888 78.8148 L 195.015 78.8148 L 195.015 78.8148 z M 194.581 79.608 L 195.341 79.608 L 195.344 79.5193 L 195.309 79.2708 L 195.214 79.0849 L 195.063 78.9725 L 194.862 78.9315 L 194.665 78.9747 L 194.514 79.0957 L 194.416 79.2924 L 194.382 79.5518 L 194.414 79.8176 L 194.512 80.0121 L 194.661 80.1332 L 194.855 80.1743 L 195.024 80.1461 L 195.162 80.0726 L 195.264 79.9559 L 195.322 79.8004 L 195.134 79.8004 L 195.095 79.8868 L 195.039 79.9516 L 194.879 80.0035 L 194.756 79.9797 L 194.663 79.9041 L 194.602 79.7809 L 194.581 79.6144 L 194.581 79.608 L 194.581 79.608 z M 194.581 79.448 L 194.604 79.2989 L 194.663 79.1887 L 194.751 79.1216 L 194.868 79.0979 L 194.983 79.1216 L 195.071 79.1887 L 195.125 79.2989 L 195.145 79.448 L 194.581 79.448 L 194.581 79.448 z M 195.787 80.1332 L 195.977 80.1332 L 195.977 79.4697 L 195.996 79.3097 L 196.055 79.1951 L 196.15 79.126 L 196.277 79.1022 L 196.372 79.1173 L 196.444 79.1606 L 196.487 79.2341 L 196.502 79.3335 L 196.694 79.3335 L 196.669 79.1584 L 196.597 79.033 L 196.478 78.9574 L 196.316 78.9315 L 196.206 78.9487 L 196.111 78.9919 L 196.027 79.0654 L 195.96 79.1649 L 195.96 78.9725 L 195.787 78.9725 L 195.787 80.1332 L 195.787 80.1332 z M 197.183 79.608 L 197.944 79.608 L 197.946 79.5193 L 197.911 79.2708 L 197.816 79.0849 L 197.665 78.9725 L 197.464 78.9315 L 197.267 78.9747 L 197.116 79.0957 L 197.019 79.2924 L 196.984 79.5518 L 197.017 79.8176 L 197.114 80.0121 L 197.263 80.1332 L 197.457 80.1743 L 197.626 80.1461 L 197.764 80.0726 L 197.866 79.9559 L 197.924 79.8004 L 197.736 79.8004 L 197.697 79.8868 L 197.641 79.9516 L 197.481 80.0035 L 197.358 79.9797 L 197.265 79.9041 L 197.205 79.7809 L 197.183 79.6144 L 197.183 79.608 L 197.183 79.608 z M 197.183 79.448 L 197.207 79.2989 L 197.265 79.1887 L 197.354 79.1216 L 197.47 79.0979 L 197.585 79.1216 L 197.674 79.1887 L 197.728 79.2989 L 197.747 79.448 L 197.183 79.448 L 197.183 79.448 z" stroke="none" fill-rule="evenodd" fill="rgb(0, 0, 0)"/></g></svg>