<?xml version="1.0" encoding="utf-8" ?><!DOCTYPE svg PUBLIC "-//W3C//DTD SVG 1.1//EN" "http://www.w3.org/Graphics/SVG/1.1/DTD/svg11.dtd" 
[ <!ATTLIST svg 
  xmlns:dsy CDATA #FIXED "http://www.3ds.com/print"  
    dsy:text-version CDATA #IMPLIED > 

  <!ATTLIST text 
  xmlns:dsy CDATA #FIXED "http://www.3ds.com/print" 
    dsy:text-version CDATA #IMPLIED > 
]><svg xmlns="http://www.w3.org/2000/svg" xmlns:dsy="http://www.3ds.com/print" dsy:text-version="18000" width="1189" height="841" viewBox="0 0 1189 841" version="1.1"><g stroke="rgb(0, 0, 0)" stroke-width="0.35" stroke-linecap="butt" stroke-linejoin="miter" fill="none"><path d="M 93.0729 71.175 L 82.5525 88.1845"/><path d="M 87.5703 91.288 L 82.5525 88.1845"/><path d="M 98.0907 74.2786 L 87.5703 91.288"/><path d="M 174.633 121.62 L 98.0907 74.2786"/><path d="M 174.633 121.62 L 273.75 134.88"/><path d="M 273.75 134.88 L 271.098 154.704"/><path d="M 271.098 154.704 L 276.946 155.486"/><path d="M 276.946 155.486 L 279.598 135.662"/><path d="M 224.846 220.117 L 239.571 233.652"/><path d="M 218.079 227.48 L 224.846 220.117"/><path d="M 232.803 241.015 L 218.079 227.48"/><circle cx="61.1782" cy="68.5706" r="3.2"/><circle cx="295.91" cy="154.599" r="3.2"/><circle cx="74.4316" cy="395.545" r="3.2"/><circle cx="81.0451" cy="361.176" r="6"/><path d="M 168.932 156.153 L 167.378 176.092"/><path d="M 173.36 176.559 L 167.378 176.092"/><path d="M 174.914 156.619 L 173.36 176.559"/><path d="M 168.932 156.153 L 174.914 156.619"/><path d="M 301.326 160.44 L 300.646 159.707"/><path d="M 313.788 148.877 L 301.326 160.44"/><path d="M 313.108 148.144 L 313.788 148.877"/><path d="M 300.646 159.707 L 313.108 148.144"/><path d="M 295.066 142.397 L 294.21 141.879"/><path d="M 294.21 141.879 L 289.038 150.438"/><path d="M 289.038 150.438 L 289.894 150.955"/><path d="M 289.894 150.955 L 295.066 142.397"/><path d="M 54.4512 69.8182 L 51.5738 54.0166"/><path d="M 51.5738 54.0166 L 50.59 54.1957"/><path d="M 50.59 54.1957 L 53.4674 69.9974"/><path d="M 53.4674 69.9974 L 54.4512 69.8182"/><path d="M 70.2884 59.4048 L 69.299 69.3557"/><path d="M 69.2933 59.3058 L 70.2884 59.4048"/><path d="M 68.3039 69.2568 L 69.2933 59.3058"/><path d="M 69.299 69.3557 L 68.3039 69.2568"/><path d="M 71.8056 416.164 L 232.803 241.015"/><path d="M 63.1285 412.982 A 5 5 0 0 0 71.8056 416.164"/><path d="M 314.649 140.352 L 279.598 135.662"/><path d="M 317.667 148.691 L 239.571 233.652"/><path d="M 317.667 148.691 A 5 5 0 0 0 314.649 140.352"/><path d="M 56.1549 48.3412 L 93.0729 71.175"/><path d="M 63.1285 412.982 L 48.5289 52.796"/><path d="M 56.1549 48.3412 A 5 5 0 0 0 48.5289 52.7961"/><path d="M 471.206 70.5581 L 460.685 87.5676"/><path d="M 465.703 90.6711 L 460.685 87.5676"/><path d="M 476.223 73.6616 L 465.703 90.6711"/><path d="M 552.766 121.003 L 476.223 73.6616"/><path d="M 552.766 121.003 L 651.883 134.263"/><path d="M 651.883 134.263 L 649.231 154.087"/><path d="M 649.231 154.087 L 655.079 154.869"/><path d="M 655.079 154.869 L 657.731 135.046"/><path d="M 602.979 219.501 L 617.703 233.035"/><path d="M 596.211 226.863 L 602.979 219.501"/><path d="M 610.936 240.398 L 596.211 226.863"/><circle cx="439.311" cy="67.9536" r="3.19998"/><circle cx="674.043" cy="153.982" r="3.19998"/><circle cx="452.564" cy="394.928" r="3.19998"/><circle cx="459.178" cy="360.559" r="6"/><path d="M 547.065 155.536 L 545.511 175.475"/><path d="M 551.493 175.942 L 545.511 175.475"/><path d="M 553.047 156.002 L 551.493 175.942"/><path d="M 547.065 155.536 L 553.047 156.002"/><path d="M 679.489 159.851 L 678.809 159.118"/><path d="M 691.952 148.289 L 679.489 159.851"/><path d="M 691.272 147.556 L 691.952 148.289"/><path d="M 678.809 159.118 L 691.272 147.556"/><path d="M 668.057 150.366 L 673.229 141.807"/><path d="M 673.229 141.807 L 672.373 141.29"/><path d="M 672.373 141.29 L 667.201 149.849"/><path d="M 667.201 149.849 L 668.057 150.366"/><path d="M 432.211 68.8762 L 430.109 52.9528"/><path d="M 430.109 52.9528 L 429.118 53.0836"/><path d="M 429.118 53.0836 L 431.22 69.007"/><path d="M 431.22 69.007 L 432.211 68.8762"/><path d="M 448.538 59.2492 L 447.064 69.1399"/><path d="M 447.549 59.1017 L 448.538 59.2492"/><path d="M 446.075 68.9924 L 447.549 59.1017"/><path d="M 447.064 69.1399 L 446.075 68.9924"/><path d="M 692.782 139.735 L 657.731 135.046"/><path d="M 695.8 148.074 L 617.703 233.035"/><path d="M 695.8 148.074 A 5 5 0 0 0 692.782 139.735"/><path d="M 434.288 47.7242 L 471.206 70.5581"/><path d="M 434.288 47.7242 A 5 5 0 0 0 426.662 52.1791"/><path d="M 449.938 415.547 L 610.936 240.398"/><path d="M 441.261 412.366 L 426.662 52.1791"/><path d="M 441.261 412.366 A 5 5 0 0 0 449.938 415.547"/><path d="M 766.092 95.5295 L 760.103 95.1791"/><path d="M 764.924 115.495 L 766.092 95.5295"/><path d="M 772.911 115.963 L 764.924 115.495"/><path d="M 774.079 95.9968 L 772.911 115.963"/><path d="M 780.068 96.3472 L 774.079 95.9968"/><path d="M 802.067 62.7748 A 0.199997 0.199997 0 0 0 801.879 62.5635"/><path d="M 800.922 82.3414 L 802.067 62.7748"/><path d="M 800.711 82.5294 A 0.199997 0.199997 0 0 0 800.922 82.3414"/><path d="M 800.607 87.7321 A 0.199997 0.199997 0 0 0 800.419 87.5208"/><path d="M 800.419 87.5208 L 790.835 86.9601"/><path d="M 790.647 86.7488 A 0.199997 0.199997 0 0 0 790.835 86.9601"/><path d="M 798.878 117.282 L 800.607 87.7322"/><path d="M 798.667 117.47 A 0.199997 0.199997 0 0 0 798.878 117.282"/><path d="M 801.879 62.5635 L 794.78 62.1481"/><path d="M 794.78 62.1482 A 0.199997 0.199997 0 0 0 794.569 62.333"/><path d="M 769.615 60.8729 A 12.5 12.5 0 0 0 794.569 62.3329"/><path d="M 769.615 60.8729 A 0.199997 0.199997 0 0 0 769.427 60.6647"/><path d="M 791.127 81.9686 L 800.711 82.5294"/><path d="M 790.647 86.7487 L 790.916 82.1566"/><path d="M 791.127 81.9686 A 0.199997 0.199997 0 0 0 790.916 82.1566"/><path d="M 780.068 96.3472 L 778.912 116.113"/><path d="M 779.1 116.325 L 798.667 117.47"/><path d="M 778.912 116.113 A 0.199997 0.199997 0 0 0 779.1 116.325"/><path d="M 752.364 59.6664 L 769.427 60.6647"/><path d="M 752.364 59.6664 A 0.199997 0.199997 0 0 0 752.152 59.8544"/><path d="M 748.963 114.361 L 752.152 59.8544"/><path d="M 748.963 114.361 A 0.199997 0.199997 0 0 0 749.151 114.573"/><path d="M 760.103 95.1791 L 758.946 114.945"/><path d="M 758.735 115.133 L 749.151 114.573"/><path d="M 758.735 115.133 A 0.199997 0.199997 0 0 0 758.946 114.945"/><path d="M 768.099 181.731 L 762.107 181.43"/><path d="M 767.076 202.107 L 768.099 181.731"/><path d="M 775.086 202.107 L 767.076 202.107"/><path d="M 776.089 182.132 L 775.086 202.107"/><path d="M 782.082 182.433 L 776.089 182.132"/><path d="M 781.079 165.975 L 767.989 165.975"/><path d="M 767.989 161.975 A 2 2 0 0 0 767.989 165.975"/><path d="M 767.989 161.975 L 781.079 161.975"/><path d="M 781.079 165.975 A 2 2 0 0 0 781.079 161.975"/><path d="M 796.079 147.175 A 0.199997 0.199997 0 0 0 795.879 146.975"/><path d="M 796.079 170.208 L 796.079 147.175"/><path d="M 795.879 170.408 A 0.199997 0.199997 0 0 0 796.079 170.208"/><path d="M 796.079 172.608 A 0.199997 0.199997 0 0 0 795.879 172.408"/><path d="M 795.879 172.408 L 791.279 172.408"/><path d="M 791.079 172.208 A 0.199997 0.199997 0 0 0 791.279 172.408"/><path d="M 791.279 170.408 L 795.879 170.408"/><path d="M 791.079 172.208 L 791.079 170.608"/><path d="M 791.279 170.408 A 0.199997 0.199997 0 0 0 791.079 170.608"/><path d="M 796.079 202.208 L 796.079 172.608"/><path d="M 795.879 202.408 A 0.199997 0.199997 0 0 0 796.079 202.208"/><path d="M 782.082 182.433 L 781.089 202.198"/><path d="M 781.289 202.408 L 795.879 202.408"/><path d="M 781.089 202.198 A 0.199997 0.199997 0 0 0 781.289 202.408"/><path d="M 795.879 146.975 L 789.146 146.975"/><path d="M 789.146 146.975 A 0.199997 0.199997 0 0 0 788.946 147.174"/><path d="M 763.946 147.174 A 12.5 12.5 0 0 0 788.946 147.174"/><path d="M 763.946 147.174 A 0.199997 0.199997 0 0 0 763.746 146.975"/><path d="M 763.746 146.975 L 754.014 146.975"/><path d="M 754.014 146.975 A 0.199997 0.199997 0 0 0 753.814 147.165"/><path d="M 751.127 200.704 L 753.814 147.165"/><path d="M 751.127 200.704 A 0.199997 0.199997 0 0 0 751.316 200.913"/><path d="M 762.107 181.43 L 761.114 201.205"/><path d="M 760.904 201.395 L 751.316 200.913"/><path d="M 760.904 201.395 A 0.199997 0.199997 0 0 0 761.114 201.205"/></g><g stroke="rgb(0, 0, 0)" stroke-width="0.13" stroke-linecap="butt" stroke-linejoin="miter" fill="none"><path d="M 90.4313 215.305 L 90.9003 215.305 L 90.9003 213.696 L 92.3729 213.696 L 92.3729 213.278 L 90.9003 213.278 L 90.9003 212.229 L 92.7108 212.229 L 92.7108 211.805 L 90.4313 211.805 L 90.4313 215.305 L 90.4313 215.305 z M 93.6237 215.305 L 94.0675 215.305 L 94.0675 213.757 L 94.1129 213.384 L 94.249 213.116 L 94.4709 212.955 L 94.7685 212.9 L 94.9904 212.935 L 95.1568 213.036 L 95.2577 213.207 L 95.293 213.439 L 95.7418 213.439 L 95.6813 213.031 L 95.5149 212.738 L 95.2375 212.562 L 94.8593 212.501 L 94.602 212.542 L 94.3801 212.642 L 94.1835 212.814 L 94.0271 213.046 L 94.0271 212.597 L 93.6237 212.597 L 93.6237 215.305 L 93.6237 215.305 z M 96.3621 213.954 L 96.4428 214.569 L 96.6748 215.023 L 97.043 215.305 L 97.5372 215.401 L 98.0264 215.305 L 98.3946 215.028 L 98.6265 214.574 L 98.7123 213.954 L 98.6265 213.338 L 98.3946 212.879 L 98.0264 212.602 L 97.5372 212.501 L 97.043 212.602 L 96.6748 212.884 L 96.4428 213.338 L 96.3621 213.954 L 96.3621 213.954 z M 96.816 213.949 L 96.8614 213.495 L 97.0026 213.167 L 97.2296 212.965 L 97.5372 212.895 L 97.8398 212.965 L 98.0667 213.162 L 98.208 213.495 L 98.2584 213.949 L 98.208 214.407 L 98.0667 214.74 L 97.8398 214.942 L 97.5372 215.008 L 97.2296 214.942 L 97.0026 214.74 L 96.8614 214.407 L 96.816 213.949 L 96.816 213.949 z M 99.5293 215.305 L 99.9731 215.305 L 99.9731 213.742 L 100.018 213.384 L 100.165 213.121 L 100.392 212.96 L 100.694 212.9 L 100.936 212.95 L 101.088 213.086 L 101.163 213.313 L 101.189 213.616 L 101.189 215.305 L 101.632 215.305 L 101.632 213.525 L 101.612 213.167 L 101.521 212.869 L 101.224 212.597 L 100.76 212.501 L 100.503 212.536 L 100.286 212.632 L 100.099 212.794 L 99.9529 213.01 L 99.9529 212.597 L 99.5293 212.597 L 99.5293 215.305 L 99.5293 215.305 z M 103.16 213.066 L 103.16 214.423 L 103.191 214.861 L 103.332 215.164 L 103.614 215.34 L 104.093 215.401 L 104.618 215.376 L 104.618 214.992 L 104.235 215.023 L 103.887 214.982 L 103.7 214.856 L 103.619 214.645 L 103.604 214.347 L 103.604 213.066 L 104.618 213.066 L 104.618 212.688 L 103.604 212.688 L 103.604 211.896 L 103.16 211.896 L 103.16 212.688 L 102.394 212.688 L 102.394 213.066 L 103.16 213.066 L 103.16 213.066 z M 105.127 216.142 L 105.127 216.495 L 108.163 216.495 L 108.163 216.142 L 105.127 216.142 L 105.127 216.142 z M 108.658 215.305 L 110.907 215.305 L 110.907 214.882 L 109.122 214.882 L 109.122 211.805 L 108.658 211.805 L 108.658 215.305 L 108.658 215.305 z M 112.062 214.08 L 113.837 214.08 L 113.842 213.873 L 113.761 213.293 L 113.539 212.859 L 113.186 212.597 L 112.717 212.501 L 112.258 212.602 L 111.905 212.884 L 111.678 213.343 L 111.598 213.949 L 111.673 214.569 L 111.9 215.023 L 112.248 215.305 L 112.702 215.401 L 113.096 215.335 L 113.418 215.164 L 113.655 214.892 L 113.792 214.529 L 113.353 214.529 L 113.262 214.73 L 113.131 214.882 L 112.758 215.003 L 112.47 214.947 L 112.253 214.771 L 112.112 214.483 L 112.062 214.095 L 112.062 214.08 L 112.062 214.08 z M 112.062 213.706 L 112.117 213.359 L 112.253 213.101 L 112.46 212.945 L 112.732 212.889 L 113 212.945 L 113.207 213.101 L 113.333 213.359 L 113.378 213.706 L 112.062 213.706 L 112.062 213.706 z M 115.325 213.066 L 115.325 215.305 L 115.768 215.305 L 115.768 213.066 L 116.777 213.066 L 116.777 212.688 L 115.768 212.688 L 115.768 212.521 L 115.804 212.32 L 115.92 212.183 L 116.116 212.103 L 116.399 212.072 L 116.777 212.093 L 116.777 211.709 L 116.298 211.684 L 115.864 211.73 L 115.562 211.866 L 115.38 212.103 L 115.325 212.441 L 115.325 212.688 L 114.513 212.688 L 114.513 213.066 L 115.325 213.066 L 115.325 213.066 z M 118.341 213.066 L 118.341 214.423 L 118.371 214.861 L 118.512 215.164 L 118.794 215.34 L 119.274 215.401 L 119.798 215.376 L 119.798 214.992 L 119.415 215.023 L 119.067 214.982 L 118.88 214.856 L 118.799 214.645 L 118.784 214.347 L 118.784 213.066 L 119.798 213.066 L 119.798 212.688 L 118.784 212.688 L 118.784 211.896 L 118.341 211.896 L 118.341 212.688 L 117.574 212.688 L 117.574 213.066 L 118.341 213.066 L 118.341 213.066 z M 120.307 216.142 L 120.307 216.495 L 123.343 216.495 L 123.343 216.142 L 120.307 216.142 L 120.307 216.142 z M 123.656 213.974 L 123.727 214.604 L 123.949 215.053 L 124.322 215.31 L 124.861 215.401 L 125.396 215.31 L 125.769 215.053 L 125.991 214.609 L 126.067 213.974 L 126.067 211.805 L 125.598 211.805 L 125.598 213.999 L 125.552 214.428 L 125.416 214.735 L 125.184 214.917 L 124.861 214.977 L 124.529 214.917 L 124.297 214.735 L 124.16 214.433 L 124.12 213.999 L 124.12 211.805 L 123.656 211.805 L 123.656 213.974 L 123.656 213.974 z M 127.272 213.016 L 127.272 212.597 L 126.828 212.597 L 126.828 216.354 L 127.272 216.354 L 127.272 214.892 L 127.428 215.129 L 127.605 215.285 L 128.049 215.401 L 128.472 215.305 L 128.805 215.018 L 129.022 214.564 L 129.103 213.949 L 129.022 213.338 L 128.805 212.884 L 128.472 212.602 L 128.049 212.501 L 127.807 212.531 L 127.6 212.627 L 127.423 212.789 L 127.272 213.016 L 127.272 213.016 z M 127.973 215.003 L 127.676 214.937 L 127.459 214.735 L 127.323 214.407 L 127.277 213.949 L 127.323 213.495 L 127.459 213.167 L 127.676 212.97 L 127.973 212.9 L 128.245 212.97 L 128.462 213.172 L 128.598 213.5 L 128.649 213.949 L 128.598 214.402 L 128.462 214.735 L 128.245 214.937 L 127.973 215.003 L 127.973 215.003 z M 130.308 213.016 L 130.308 212.597 L 129.864 212.597 L 129.864 216.354 L 130.308 216.354 L 130.308 214.892 L 130.464 215.129 L 130.641 215.285 L 131.085 215.401 L 131.508 215.305 L 131.841 215.018 L 132.058 214.564 L 132.139 213.949 L 132.058 213.338 L 131.841 212.884 L 131.508 212.602 L 131.085 212.501 L 130.843 212.531 L 130.636 212.627 L 130.459 212.789 L 130.308 213.016 L 130.308 213.016 z M 131.009 215.003 L 130.712 214.937 L 130.495 214.735 L 130.359 214.407 L 130.313 213.949 L 130.359 213.495 L 130.495 213.167 L 130.712 212.97 L 131.009 212.9 L 131.281 212.97 L 131.498 213.172 L 131.635 213.5 L 131.685 213.949 L 131.635 214.402 L 131.498 214.735 L 131.281 214.937 L 131.009 215.003 L 131.009 215.003 z M 133.314 214.08 L 135.089 214.08 L 135.094 213.873 L 135.013 213.293 L 134.792 212.859 L 134.439 212.597 L 133.97 212.501 L 133.511 212.602 L 133.158 212.884 L 132.931 213.343 L 132.85 213.949 L 132.926 214.569 L 133.153 215.023 L 133.501 215.305 L 133.954 215.401 L 134.348 215.335 L 134.671 215.164 L 134.908 214.892 L 135.044 214.529 L 134.605 214.529 L 134.514 214.73 L 134.383 214.882 L 134.01 215.003 L 133.722 214.947 L 133.506 214.771 L 133.364 214.483 L 133.314 214.095 L 133.314 214.08 L 133.314 214.08 z M 133.314 213.706 L 133.369 213.359 L 133.506 213.101 L 133.712 212.945 L 133.985 212.889 L 134.252 212.945 L 134.459 213.101 L 134.585 213.359 L 134.63 213.706 L 133.314 213.706 L 133.314 213.706 z M 136.128 215.305 L 136.572 215.305 L 136.572 213.757 L 136.617 213.384 L 136.753 213.116 L 136.975 212.955 L 137.273 212.9 L 137.495 212.935 L 137.661 213.036 L 137.762 213.207 L 137.797 213.439 L 138.246 213.439 L 138.186 213.031 L 138.019 212.738 L 137.742 212.562 L 137.364 212.501 L 137.106 212.542 L 136.885 212.642 L 136.688 212.814 L 136.531 213.046 L 136.531 212.597 L 136.128 212.597 L 136.128 215.305 L 136.128 215.305 z M 141.544 215.305 L 142.008 215.305 L 142.377 214.276 L 143.774 214.276 L 144.142 215.305 L 144.616 215.305 L 143.335 211.8 L 142.82 211.8 L 141.544 215.305 L 141.544 215.305 z M 142.538 213.848 L 143.078 212.304 L 143.617 213.848 L 142.538 213.848 L 142.538 213.848 z M 145.503 214.15 L 146.724 214.15 L 146.724 213.752 L 145.503 213.752 L 145.503 214.15 L 145.503 214.15 z M 147.617 215.305 L 148.08 215.305 L 148.449 214.276 L 149.846 214.276 L 150.214 215.305 L 150.688 215.305 L 149.407 211.8 L 148.892 211.8 L 147.617 215.305 L 147.617 215.305 z M 148.61 213.848 L 149.15 212.304 L 149.689 213.848 L 148.61 213.848 L 148.61 213.848 z M 151.308 215.305 L 151.752 215.305 L 151.752 213.757 L 151.797 213.384 L 151.934 213.116 L 152.155 212.955 L 152.453 212.9 L 152.675 212.935 L 152.841 213.036 L 152.942 213.207 L 152.977 213.439 L 153.426 213.439 L 153.366 213.031 L 153.199 212.738 L 152.922 212.562 L 152.544 212.501 L 152.287 212.542 L 152.065 212.642 L 151.868 212.814 L 151.712 213.046 L 151.712 212.597 L 151.308 212.597 L 151.308 215.305 L 151.308 215.305 z M 154.001 215.305 L 154.41 215.305 L 154.41 213.495 L 154.435 213.222 L 154.511 213.026 L 154.627 212.91 L 154.778 212.864 L 154.899 212.905 L 154.98 213.005 L 155.02 213.177 L 155.035 213.404 L 155.035 215.305 L 155.418 215.305 L 155.418 213.495 L 155.444 213.227 L 155.519 213.031 L 155.64 212.91 L 155.792 212.864 L 155.913 212.905 L 155.993 213.005 L 156.044 213.404 L 156.044 215.305 L 156.452 215.305 L 156.452 213.434 L 156.427 213.046 L 156.346 212.748 L 156.185 212.567 L 155.923 212.501 L 155.615 212.602 L 155.378 212.895 L 155.191 212.607 L 154.879 212.501 L 154.591 212.602 L 154.395 212.884 L 154.395 212.597 L 154.001 212.597 L 154.001 215.305 L 154.001 215.305 z M 160.684 214.15 L 161.904 214.15 L 161.904 213.752 L 160.684 213.752 L 160.684 214.15 L 160.684 214.15 z M 166.302 215.305 L 166.766 215.305 L 166.766 213.828 L 167.28 213.828 L 167.8 213.802 L 168.213 213.626 L 168.48 213.283 L 168.571 212.814 L 168.501 212.38 L 168.299 212.062 L 167.966 211.871 L 167.512 211.805 L 166.302 211.805 L 166.302 215.305 L 166.302 215.305 z M 167.386 212.234 L 167.689 212.264 L 167.91 212.36 L 168.042 212.536 L 168.087 212.814 L 168.037 213.106 L 167.9 213.283 L 167.668 213.374 L 167.351 213.399 L 166.766 213.399 L 166.766 212.234 L 167.386 212.234 L 167.386 212.234 z M 170.24 212.057 L 170.24 214.932 L 169.328 214.932 L 169.328 215.305 L 171.592 215.305 L 171.592 214.932 L 170.684 214.932 L 170.684 211.684 L 169.544 211.684 L 169.544 212.057 L 170.24 212.057 L 170.24 212.057 z M 174.003 214.952 L 174.003 214.967 L 174.028 215.139 L 174.104 215.26 L 174.421 215.356 L 174.668 215.315 L 174.668 214.972 L 174.563 214.987 L 174.421 214.922 L 174.396 214.72 L 174.396 213.318 L 174.336 212.96 L 174.159 212.708 L 173.851 212.557 L 173.418 212.501 L 172.994 212.562 L 172.681 212.733 L 172.485 213 L 172.419 213.353 L 172.419 213.384 L 172.818 213.384 L 172.853 213.172 L 172.964 213.021 L 173.145 212.93 L 173.403 212.895 L 173.65 212.92 L 173.826 212.995 L 173.932 213.127 L 173.967 213.308 L 173.947 213.52 L 173.867 213.626 L 173.665 213.676 L 173.287 213.717 L 172.853 213.807 L 172.545 213.969 L 172.364 214.221 L 172.308 214.594 L 172.359 214.927 L 172.515 215.174 L 172.767 215.33 L 173.115 215.386 L 173.584 215.28 L 174.003 214.952 L 174.003 214.952 z M 173.952 214.357 L 173.892 214.619 L 173.73 214.821 L 173.488 214.952 L 173.191 214.998 L 172.999 214.972 L 172.863 214.892 L 172.777 214.75 L 172.752 214.554 L 172.772 214.377 L 172.853 214.251 L 173.176 214.11 L 173.584 214.049 L 173.952 213.928 L 173.952 214.357 L 173.952 214.357 z M 177.094 213.016 L 176.938 212.789 L 176.761 212.627 L 176.555 212.536 L 176.318 212.501 L 175.889 212.602 L 175.556 212.884 L 175.339 213.338 L 175.264 213.949 L 175.339 214.564 L 175.556 215.018 L 175.889 215.305 L 176.318 215.401 L 176.555 215.371 L 176.756 215.285 L 176.933 215.129 L 177.094 214.892 L 177.094 216.354 L 177.538 216.354 L 177.538 212.597 L 177.094 212.597 L 177.094 213.016 L 177.094 213.016 z M 175.717 213.949 L 175.763 213.5 L 175.904 213.172 L 176.116 212.97 L 176.393 212.9 L 176.686 212.97 L 176.908 213.167 L 177.039 213.495 L 177.089 213.949 L 177.039 214.407 L 176.908 214.735 L 176.686 214.937 L 176.393 215.003 L 176.116 214.937 L 175.904 214.735 L 175.763 214.402 L 175.717 213.949 L 175.717 213.949 z M 180.554 212.597 L 180.11 212.597 L 180.11 214.16 L 180.06 214.523 L 179.913 214.786 L 179.686 214.947 L 179.389 214.998 L 179.152 214.957 L 179.001 214.836 L 178.915 214.629 L 178.895 214.337 L 178.895 212.597 L 178.451 212.597 L 178.451 214.377 L 178.466 214.735 L 178.562 215.033 L 178.854 215.305 L 179.323 215.401 L 179.575 215.366 L 179.792 215.275 L 179.979 215.119 L 180.13 214.892 L 180.13 215.305 L 180.554 215.305 L 180.554 212.597 L 180.554 212.597 z M 181.89 214.08 L 183.666 214.08 L 183.671 213.873 L 183.59 213.293 L 183.368 212.859 L 183.015 212.597 L 182.546 212.501 L 182.087 212.602 L 181.734 212.884 L 181.507 213.343 L 181.426 213.949 L 181.502 214.569 L 181.729 215.023 L 182.077 215.305 L 182.531 215.401 L 182.924 215.335 L 183.247 215.164 L 183.484 214.892 L 183.62 214.529 L 183.181 214.529 L 183.091 214.73 L 182.959 214.882 L 182.586 215.003 L 182.299 214.947 L 182.082 214.771 L 181.941 214.483 L 181.89 214.095 L 181.89 214.08 L 181.89 214.08 z M 181.89 213.706 L 181.946 213.359 L 182.082 213.101 L 182.289 212.945 L 182.561 212.889 L 182.828 212.945 L 183.035 213.101 L 183.161 213.359 L 183.207 213.706 L 181.89 213.706 L 181.89 213.706 z M 189.238 214.887 L 189.238 215.305 L 189.682 215.305 L 189.682 211.684 L 189.243 211.684 L 189.243 213.01 L 188.905 212.627 L 188.699 212.536 L 188.462 212.501 L 188.033 212.602 L 187.7 212.884 L 187.483 213.338 L 187.408 213.949 L 187.483 214.559 L 187.7 215.018 L 188.033 215.305 L 188.462 215.401 L 188.699 215.366 L 188.91 215.275 L 189.238 214.887 L 189.238 214.887 z M 188.537 212.9 L 188.83 212.97 L 189.052 213.167 L 189.183 213.495 L 189.233 213.949 L 189.183 214.407 L 189.052 214.735 L 188.83 214.937 L 188.537 215.003 L 188.26 214.937 L 188.048 214.735 L 187.907 214.402 L 187.861 213.949 L 187.907 213.5 L 188.048 213.172 L 188.26 212.97 L 188.537 212.9 L 188.537 212.9 z M 192.698 212.597 L 192.254 212.597 L 192.254 214.16 L 192.204 214.523 L 192.057 214.786 L 191.831 214.947 L 191.533 214.998 L 191.296 214.957 L 191.145 214.836 L 191.059 214.629 L 191.039 214.337 L 191.039 212.597 L 190.595 212.597 L 190.595 214.377 L 190.61 214.735 L 190.706 215.033 L 190.998 215.305 L 191.467 215.401 L 191.72 215.366 L 191.936 215.275 L 192.123 215.119 L 192.274 214.892 L 192.274 215.305 L 192.698 215.305 L 192.698 212.597 L 192.698 212.597 z M 196.556 215.305 L 197.025 215.305 L 197.025 213.661 L 198.427 213.661 L 198.427 215.305 L 198.891 215.305 L 198.891 211.805 L 198.427 211.805 L 198.427 213.232 L 197.025 213.232 L 197.025 211.805 L 196.556 211.805 L 196.556 215.305 L 196.556 215.305 z M 201.327 214.952 L 201.327 214.967 L 201.352 215.139 L 201.428 215.26 L 201.746 215.356 L 201.993 215.315 L 201.993 214.972 L 201.887 214.987 L 201.746 214.922 L 201.72 214.72 L 201.72 213.318 L 201.66 212.96 L 201.483 212.708 L 201.176 212.557 L 200.742 212.501 L 200.318 212.562 L 200.006 212.733 L 199.809 213 L 199.743 213.353 L 199.743 213.384 L 200.142 213.384 L 200.177 213.172 L 200.288 213.021 L 200.47 212.93 L 200.727 212.895 L 200.974 212.92 L 201.15 212.995 L 201.256 213.127 L 201.292 213.308 L 201.271 213.52 L 201.191 213.626 L 200.989 213.676 L 200.611 213.717 L 200.177 213.807 L 199.869 213.969 L 199.688 214.221 L 199.632 214.594 L 199.683 214.927 L 199.839 215.174 L 200.091 215.33 L 200.439 215.386 L 200.908 215.28 L 201.327 214.952 L 201.327 214.952 z M 201.277 214.357 L 201.216 214.619 L 201.055 214.821 L 200.813 214.952 L 200.515 214.998 L 200.323 214.972 L 200.187 214.892 L 200.101 214.75 L 200.076 214.554 L 200.096 214.377 L 200.177 214.251 L 200.5 214.11 L 200.908 214.049 L 201.277 213.928 L 201.277 214.357 L 201.277 214.357 z M 204.842 212.597 L 204.398 212.597 L 204.398 214.16 L 204.348 214.523 L 204.202 214.786 L 203.975 214.947 L 203.677 214.998 L 203.44 214.957 L 203.289 214.836 L 203.203 214.629 L 203.183 214.337 L 203.183 212.597 L 202.739 212.597 L 202.739 214.377 L 202.754 214.735 L 202.85 215.033 L 203.143 215.305 L 203.612 215.401 L 203.864 215.366 L 204.081 215.275 L 204.267 215.119 L 204.418 214.892 L 204.418 215.305 L 204.842 215.305 L 204.842 212.597 L 204.842 212.597 z M 206.385 213.066 L 206.385 214.423 L 206.416 214.861 L 206.557 215.164 L 206.839 215.34 L 207.318 215.401 L 207.843 215.376 L 207.843 214.992 L 207.46 215.023 L 207.112 214.982 L 206.925 214.856 L 206.844 214.645 L 206.829 214.347 L 206.829 213.066 L 207.843 213.066 L 207.843 212.688 L 206.829 212.688 L 206.829 211.896 L 206.385 211.896 L 206.385 212.688 L 205.619 212.688 L 205.619 213.066 L 206.385 213.066 L 206.385 213.066 z" stroke="none" fill-rule="evenodd" fill="rgb(0, 0, 0)"/></g><g stroke="rgb(0, 0, 0)" stroke-width="0.13" stroke-linecap="butt" stroke-linejoin="miter" fill="none"><path d="M 458.564 224.688 L 459.033 224.688 L 459.033 223.079 L 460.506 223.079 L 460.506 222.661 L 459.033 222.661 L 459.033 221.612 L 460.844 221.612 L 460.844 221.188 L 458.564 221.188 L 458.564 224.688 L 458.564 224.688 z M 461.756 224.688 L 462.2 224.688 L 462.2 223.14 L 462.246 222.767 L 462.382 222.499 L 462.604 222.338 L 462.901 222.283 L 463.123 222.318 L 463.29 222.419 L 463.39 222.59 L 463.426 222.822 L 463.875 222.822 L 463.814 222.414 L 463.648 222.121 L 463.37 221.945 L 462.992 221.884 L 462.735 221.925 L 462.513 222.025 L 462.316 222.197 L 462.16 222.429 L 462.16 221.98 L 461.756 221.98 L 461.756 224.688 L 461.756 224.688 z M 464.495 223.337 L 464.576 223.952 L 464.808 224.406 L 465.176 224.688 L 465.67 224.784 L 466.159 224.688 L 466.527 224.411 L 466.759 223.957 L 466.845 223.337 L 466.759 222.721 L 466.527 222.262 L 466.159 221.985 L 465.67 221.884 L 465.176 221.985 L 464.808 222.268 L 464.576 222.721 L 464.495 223.337 L 464.495 223.337 z M 464.949 223.332 L 464.994 222.878 L 465.135 222.55 L 465.362 222.348 L 465.67 222.278 L 465.973 222.348 L 466.199 222.545 L 466.341 222.878 L 466.391 223.332 L 466.341 223.791 L 466.199 224.123 L 465.973 224.325 L 465.67 224.391 L 465.362 224.325 L 465.135 224.123 L 464.994 223.791 L 464.949 223.332 L 464.949 223.332 z M 467.662 224.688 L 468.106 224.688 L 468.106 223.125 L 468.151 222.767 L 468.297 222.505 L 468.524 222.343 L 468.827 222.283 L 469.069 222.333 L 469.22 222.469 L 469.296 222.696 L 469.321 222.999 L 469.321 224.688 L 469.765 224.688 L 469.765 222.908 L 469.745 222.55 L 469.654 222.252 L 469.357 221.98 L 468.893 221.884 L 468.635 221.919 L 468.418 222.015 L 468.232 222.177 L 468.086 222.394 L 468.086 221.98 L 467.662 221.98 L 467.662 224.688 L 467.662 224.688 z M 471.293 222.449 L 471.293 223.806 L 471.323 224.244 L 471.465 224.547 L 471.747 224.724 L 472.226 224.784 L 472.751 224.759 L 472.751 224.376 L 472.367 224.406 L 472.019 224.365 L 471.833 224.239 L 471.752 224.028 L 471.737 223.73 L 471.737 222.449 L 472.751 222.449 L 472.751 222.071 L 471.737 222.071 L 471.737 221.279 L 471.293 221.279 L 471.293 222.071 L 470.527 222.071 L 470.527 222.449 L 471.293 222.449 L 471.293 222.449 z M 473.26 225.525 L 473.26 225.878 L 476.296 225.878 L 476.296 225.525 L 473.26 225.525 L 473.26 225.525 z M 476.79 224.688 L 479.039 224.688 L 479.039 224.265 L 477.254 224.265 L 477.254 221.188 L 476.79 221.188 L 476.79 224.688 L 476.79 224.688 z M 480.194 223.463 L 481.97 223.463 L 481.975 223.256 L 481.894 222.676 L 481.672 222.242 L 481.319 221.98 L 480.85 221.884 L 480.391 221.985 L 480.038 222.268 L 479.811 222.726 L 479.73 223.332 L 479.806 223.952 L 480.033 224.406 L 480.381 224.688 L 480.835 224.784 L 481.228 224.719 L 481.551 224.547 L 481.788 224.275 L 481.924 223.912 L 481.485 223.912 L 481.395 224.113 L 481.264 224.265 L 480.89 224.386 L 480.603 224.33 L 480.386 224.154 L 480.245 223.866 L 480.194 223.478 L 480.194 223.463 L 480.194 223.463 z M 480.194 223.09 L 480.25 222.742 L 480.386 222.484 L 480.593 222.328 L 480.865 222.273 L 481.132 222.328 L 481.339 222.484 L 481.465 222.742 L 481.511 223.09 L 480.194 223.09 L 480.194 223.09 z M 483.457 222.449 L 483.457 224.688 L 483.901 224.688 L 483.901 222.449 L 484.91 222.449 L 484.91 222.071 L 483.901 222.071 L 483.901 221.904 L 483.936 221.703 L 484.052 221.566 L 484.249 221.486 L 484.532 221.456 L 484.91 221.476 L 484.91 221.092 L 484.431 221.067 L 483.997 221.113 L 483.694 221.249 L 483.513 221.486 L 483.457 221.824 L 483.457 222.071 L 482.645 222.071 L 482.645 222.449 L 483.457 222.449 L 483.457 222.449 z M 486.473 222.449 L 486.473 223.806 L 486.503 224.244 L 486.645 224.547 L 486.927 224.724 L 487.406 224.784 L 487.931 224.759 L 487.931 224.376 L 487.547 224.406 L 487.199 224.365 L 487.013 224.239 L 486.932 224.028 L 486.917 223.73 L 486.917 222.449 L 487.931 222.449 L 487.931 222.071 L 486.917 222.071 L 486.917 221.279 L 486.473 221.279 L 486.473 222.071 L 485.707 222.071 L 485.707 222.449 L 486.473 222.449 L 486.473 222.449 z M 488.44 225.525 L 488.44 225.878 L 491.476 225.878 L 491.476 225.525 L 488.44 225.525 L 488.44 225.525 z M 491.789 223.357 L 491.859 223.987 L 492.081 224.436 L 492.454 224.693 L 492.994 224.784 L 493.529 224.693 L 493.902 224.436 L 494.124 223.992 L 494.199 223.357 L 494.199 221.188 L 493.73 221.188 L 493.73 223.382 L 493.685 223.811 L 493.549 224.118 L 493.317 224.3 L 492.994 224.36 L 492.661 224.3 L 492.429 224.118 L 492.293 223.816 L 492.253 223.382 L 492.253 221.188 L 491.789 221.188 L 491.789 223.357 L 491.789 223.357 z M 495.405 222.399 L 495.405 221.98 L 494.961 221.98 L 494.961 225.737 L 495.405 225.737 L 495.405 224.275 L 495.561 224.512 L 495.738 224.668 L 496.181 224.784 L 496.605 224.688 L 496.938 224.401 L 497.155 223.947 L 497.235 223.332 L 497.155 222.721 L 496.938 222.268 L 496.605 221.985 L 496.181 221.884 L 495.939 221.914 L 495.732 222.01 L 495.556 222.172 L 495.405 222.399 L 495.405 222.399 z M 496.106 224.386 L 495.808 224.32 L 495.591 224.118 L 495.455 223.791 L 495.41 223.332 L 495.455 222.878 L 495.591 222.55 L 495.808 222.353 L 496.106 222.283 L 496.378 222.353 L 496.595 222.555 L 496.731 222.883 L 496.781 223.332 L 496.731 223.786 L 496.595 224.118 L 496.378 224.32 L 496.106 224.386 L 496.106 224.386 z M 498.441 222.399 L 498.441 221.98 L 497.997 221.98 L 497.997 225.737 L 498.441 225.737 L 498.441 224.275 L 498.597 224.512 L 498.774 224.668 L 499.217 224.784 L 499.641 224.688 L 499.974 224.401 L 500.191 223.947 L 500.271 223.332 L 500.191 222.721 L 499.974 222.268 L 499.641 221.985 L 499.217 221.884 L 498.975 221.914 L 498.768 222.01 L 498.592 222.172 L 498.441 222.399 L 498.441 222.399 z M 499.142 224.386 L 498.844 224.32 L 498.627 224.118 L 498.491 223.791 L 498.446 223.332 L 498.491 222.878 L 498.627 222.55 L 498.844 222.353 L 499.142 222.283 L 499.414 222.353 L 499.631 222.555 L 499.767 222.883 L 499.817 223.332 L 499.767 223.786 L 499.631 224.118 L 499.414 224.32 L 499.142 224.386 L 499.142 224.386 z M 501.446 223.463 L 503.222 223.463 L 503.227 223.256 L 503.146 222.676 L 502.924 222.242 L 502.571 221.98 L 502.102 221.884 L 501.643 221.985 L 501.29 222.268 L 501.063 222.726 L 500.982 223.332 L 501.058 223.952 L 501.285 224.406 L 501.633 224.688 L 502.087 224.784 L 502.48 224.719 L 502.803 224.547 L 503.04 224.275 L 503.176 223.912 L 502.737 223.912 L 502.647 224.113 L 502.516 224.265 L 502.142 224.386 L 501.855 224.33 L 501.638 224.154 L 501.497 223.866 L 501.446 223.478 L 501.446 223.463 L 501.446 223.463 z M 501.446 223.09 L 501.502 222.742 L 501.638 222.484 L 501.845 222.328 L 502.117 222.273 L 502.384 222.328 L 502.591 222.484 L 502.717 222.742 L 502.763 223.09 L 501.446 223.09 L 501.446 223.09 z M 504.261 224.688 L 504.704 224.688 L 504.704 223.14 L 504.75 222.767 L 504.886 222.499 L 505.108 222.338 L 505.405 222.283 L 505.627 222.318 L 505.794 222.419 L 505.895 222.59 L 505.93 222.822 L 506.379 222.822 L 506.318 222.414 L 506.152 222.121 L 505.874 221.945 L 505.496 221.884 L 505.239 221.925 L 505.017 222.025 L 504.82 222.197 L 504.664 222.429 L 504.664 221.98 L 504.261 221.98 L 504.261 224.688 L 504.261 224.688 z M 509.677 224.688 L 510.141 224.688 L 510.509 223.659 L 511.906 223.659 L 512.274 224.688 L 512.748 224.688 L 511.467 221.183 L 510.953 221.183 L 509.677 224.688 L 509.677 224.688 z M 510.67 223.231 L 511.21 221.688 L 511.75 223.231 L 510.67 223.231 L 510.67 223.231 z M 513.636 223.533 L 514.856 223.533 L 514.856 223.135 L 513.636 223.135 L 513.636 223.533 L 513.636 223.533 z M 515.749 224.688 L 516.213 224.688 L 516.581 223.659 L 517.978 223.659 L 518.346 224.688 L 518.82 224.688 L 517.539 221.183 L 517.025 221.183 L 515.749 224.688 L 515.749 224.688 z M 516.742 223.231 L 517.282 221.688 L 517.822 223.231 L 516.742 223.231 L 516.742 223.231 z M 519.441 224.688 L 519.884 224.688 L 519.884 223.14 L 519.93 222.767 L 520.066 222.499 L 520.288 222.338 L 520.585 222.283 L 520.807 222.318 L 520.974 222.419 L 521.075 222.59 L 521.11 222.822 L 521.559 222.822 L 521.498 222.414 L 521.332 222.121 L 521.054 221.945 L 520.676 221.884 L 520.419 221.925 L 520.197 222.025 L 520 222.197 L 519.844 222.429 L 519.844 221.98 L 519.441 221.98 L 519.441 224.688 L 519.441 224.688 z M 522.134 224.688 L 522.542 224.688 L 522.542 222.878 L 522.567 222.605 L 522.643 222.409 L 522.759 222.293 L 522.91 222.247 L 523.031 222.288 L 523.112 222.389 L 523.152 222.56 L 523.168 222.787 L 523.168 224.688 L 523.551 224.688 L 523.551 222.878 L 523.576 222.61 L 523.652 222.414 L 523.773 222.293 L 523.924 222.247 L 524.045 222.288 L 524.126 222.389 L 524.176 222.787 L 524.176 224.688 L 524.585 224.688 L 524.585 222.817 L 524.559 222.429 L 524.479 222.131 L 524.317 221.95 L 524.055 221.884 L 523.747 221.985 L 523.51 222.278 L 523.324 221.99 L 523.011 221.884 L 522.724 221.985 L 522.527 222.268 L 522.527 221.98 L 522.134 221.98 L 522.134 224.688 L 522.134 224.688 z M 528.816 223.533 L 530.036 223.533 L 530.036 223.135 L 528.816 223.135 L 528.816 223.533 L 528.816 223.533 z M 534.434 224.688 L 534.898 224.688 L 534.898 223.211 L 535.412 223.211 L 535.932 223.185 L 536.345 223.009 L 536.613 222.666 L 536.703 222.197 L 536.633 221.763 L 536.431 221.445 L 536.098 221.254 L 535.644 221.188 L 534.434 221.188 L 534.434 224.688 L 534.434 224.688 z M 535.518 221.617 L 535.821 221.647 L 536.043 221.743 L 536.174 221.919 L 536.219 222.197 L 536.169 222.489 L 536.033 222.666 L 535.801 222.757 L 535.483 222.782 L 534.898 222.782 L 534.898 221.617 L 535.518 221.617 L 535.518 221.617 z M 538.373 221.44 L 538.373 224.315 L 537.46 224.315 L 537.46 224.688 L 539.724 224.688 L 539.724 224.315 L 538.817 224.315 L 538.817 221.067 L 537.677 221.067 L 537.677 221.44 L 538.373 221.44 L 538.373 221.44 z M 542.135 224.335 L 542.135 224.35 L 542.16 224.522 L 542.236 224.643 L 542.554 224.739 L 542.801 224.698 L 542.801 224.355 L 542.695 224.37 L 542.554 224.305 L 542.528 224.103 L 542.528 222.701 L 542.468 222.343 L 542.291 222.091 L 541.984 221.94 L 541.55 221.884 L 541.126 221.945 L 540.814 222.116 L 540.617 222.383 L 540.551 222.737 L 540.551 222.767 L 540.95 222.767 L 540.985 222.555 L 541.096 222.404 L 541.278 222.313 L 541.535 222.278 L 541.782 222.303 L 541.958 222.378 L 542.064 222.51 L 542.1 222.691 L 542.08 222.903 L 541.999 223.009 L 541.797 223.059 L 541.419 223.1 L 540.985 223.19 L 540.678 223.352 L 540.496 223.604 L 540.44 223.977 L 540.491 224.31 L 540.647 224.557 L 540.899 224.713 L 541.247 224.769 L 541.716 224.663 L 542.135 224.335 L 542.135 224.335 z M 542.085 223.74 L 542.024 224.002 L 541.863 224.204 L 541.621 224.335 L 541.323 224.381 L 541.131 224.355 L 540.995 224.275 L 540.91 224.133 L 540.884 223.937 L 540.904 223.76 L 540.985 223.634 L 541.308 223.493 L 541.716 223.432 L 542.085 223.311 L 542.085 223.74 L 542.085 223.74 z M 545.227 222.399 L 545.07 222.172 L 544.894 222.01 L 544.687 221.919 L 544.45 221.884 L 544.021 221.985 L 543.688 222.268 L 543.471 222.721 L 543.396 223.332 L 543.471 223.947 L 543.688 224.401 L 544.021 224.688 L 544.45 224.784 L 544.687 224.754 L 544.889 224.668 L 545.065 224.512 L 545.227 224.275 L 545.227 225.737 L 545.67 225.737 L 545.67 221.98 L 545.227 221.98 L 545.227 222.399 L 545.227 222.399 z M 543.85 223.332 L 543.895 222.883 L 544.036 222.555 L 544.248 222.353 L 544.526 222.283 L 544.818 222.353 L 545.04 222.55 L 545.171 222.878 L 545.221 223.332 L 545.171 223.791 L 545.04 224.118 L 544.818 224.32 L 544.526 224.386 L 544.248 224.32 L 544.036 224.118 L 543.895 223.786 L 543.85 223.332 L 543.85 223.332 z M 548.686 221.98 L 548.242 221.98 L 548.242 223.543 L 548.192 223.907 L 548.046 224.169 L 547.819 224.33 L 547.521 224.381 L 547.284 224.34 L 547.133 224.219 L 547.047 224.012 L 547.027 223.72 L 547.027 221.98 L 546.583 221.98 L 546.583 223.76 L 546.598 224.118 L 546.694 224.416 L 546.987 224.688 L 547.456 224.784 L 547.708 224.749 L 547.925 224.658 L 548.111 224.502 L 548.263 224.275 L 548.263 224.688 L 548.686 224.688 L 548.686 221.98 L 548.686 221.98 z M 550.023 223.463 L 551.798 223.463 L 551.803 223.256 L 551.722 222.676 L 551.5 222.242 L 551.147 221.98 L 550.678 221.884 L 550.219 221.985 L 549.866 222.268 L 549.639 222.726 L 549.559 223.332 L 549.634 223.952 L 549.861 224.406 L 550.209 224.688 L 550.663 224.784 L 551.056 224.719 L 551.379 224.547 L 551.616 224.275 L 551.752 223.912 L 551.314 223.912 L 551.223 224.113 L 551.092 224.265 L 550.719 224.386 L 550.431 224.33 L 550.214 224.154 L 550.073 223.866 L 550.023 223.478 L 550.023 223.463 L 550.023 223.463 z M 550.023 223.09 L 550.078 222.742 L 550.214 222.484 L 550.421 222.328 L 550.693 222.273 L 550.961 222.328 L 551.167 222.484 L 551.294 222.742 L 551.339 223.09 L 550.023 223.09 L 550.023 223.09 z M 557.371 224.27 L 557.371 224.688 L 557.814 224.688 L 557.814 221.067 L 557.376 221.067 L 557.376 222.394 L 557.038 222.01 L 556.831 221.919 L 556.594 221.884 L 556.165 221.985 L 555.832 222.268 L 555.616 222.721 L 555.54 223.332 L 555.616 223.942 L 555.832 224.401 L 556.165 224.688 L 556.594 224.784 L 556.831 224.749 L 557.043 224.658 L 557.371 224.27 L 557.371 224.27 z M 556.67 222.283 L 556.962 222.353 L 557.184 222.55 L 557.315 222.878 L 557.366 223.332 L 557.315 223.791 L 557.184 224.118 L 556.962 224.32 L 556.67 224.386 L 556.392 224.32 L 556.18 224.118 L 556.039 223.786 L 555.994 223.332 L 556.039 222.883 L 556.18 222.555 L 556.392 222.353 L 556.67 222.283 L 556.67 222.283 z M 560.83 221.98 L 560.386 221.98 L 560.386 223.543 L 560.336 223.907 L 560.19 224.169 L 559.963 224.33 L 559.665 224.381 L 559.428 224.34 L 559.277 224.219 L 559.191 224.012 L 559.171 223.72 L 559.171 221.98 L 558.727 221.98 L 558.727 223.76 L 558.742 224.118 L 558.838 224.416 L 559.131 224.688 L 559.6 224.784 L 559.852 224.749 L 560.069 224.658 L 560.255 224.502 L 560.407 224.275 L 560.407 224.688 L 560.83 224.688 L 560.83 221.98 L 560.83 221.98 z M 566.489 222.797 L 566.842 222.505 L 566.932 222.308 L 566.963 222.066 L 566.897 221.688 L 566.701 221.415 L 566.383 221.249 L 565.939 221.188 L 564.693 221.188 L 564.693 224.688 L 566.01 224.688 L 566.479 224.618 L 566.827 224.411 L 567.043 224.083 L 567.119 223.639 L 567.074 223.342 L 566.953 223.095 L 566.756 222.913 L 566.489 222.797 L 566.489 222.797 z M 565.843 222.641 L 565.157 222.641 L 565.157 221.607 L 565.883 221.607 L 566.156 221.637 L 566.347 221.728 L 566.463 221.884 L 566.504 222.116 L 566.458 222.348 L 566.337 222.51 L 566.131 222.61 L 565.843 222.641 L 565.843 222.641 z M 565.954 224.27 L 565.157 224.27 L 565.157 223.064 L 565.909 223.064 L 566.226 223.1 L 566.453 223.206 L 566.59 223.387 L 566.635 223.649 L 566.59 223.927 L 566.463 224.118 L 566.252 224.234 L 565.954 224.27 L 565.954 224.27 z M 569.459 224.335 L 569.459 224.35 L 569.484 224.522 L 569.56 224.643 L 569.878 224.739 L 570.125 224.698 L 570.125 224.355 L 570.019 224.37 L 569.878 224.305 L 569.852 224.103 L 569.852 222.701 L 569.792 222.343 L 569.615 222.091 L 569.308 221.94 L 568.874 221.884 L 568.451 221.945 L 568.138 222.116 L 567.941 222.383 L 567.876 222.737 L 567.876 222.767 L 568.274 222.767 L 568.309 222.555 L 568.42 222.404 L 568.602 222.313 L 568.859 222.278 L 569.106 222.303 L 569.283 222.378 L 569.389 222.51 L 569.424 222.691 L 569.404 222.903 L 569.323 223.009 L 569.121 223.059 L 568.743 223.1 L 568.309 223.19 L 568.002 223.352 L 567.82 223.604 L 567.765 223.977 L 567.815 224.31 L 567.971 224.557 L 568.224 224.713 L 568.572 224.769 L 569.041 224.663 L 569.459 224.335 L 569.459 224.335 z M 569.409 223.74 L 569.348 224.002 L 569.187 224.204 L 568.945 224.335 L 568.647 224.381 L 568.456 224.355 L 568.319 224.275 L 568.234 224.133 L 568.208 223.937 L 568.229 223.76 L 568.309 223.634 L 568.632 223.493 L 569.041 223.432 L 569.409 223.311 L 569.409 223.74 L 569.409 223.74 z M 572.213 223.11 L 571.784 223.009 L 571.466 222.893 L 571.36 222.656 L 571.391 222.489 L 571.497 222.368 L 571.668 222.293 L 571.915 222.262 L 572.152 222.293 L 572.339 222.383 L 572.46 222.52 L 572.51 222.701 L 572.944 222.701 L 572.944 222.691 L 572.868 222.363 L 572.662 222.106 L 572.339 221.945 L 571.915 221.884 L 571.487 221.945 L 571.174 222.111 L 570.977 222.358 L 570.917 222.671 L 570.962 222.974 L 571.103 223.185 L 571.335 223.337 L 571.673 223.443 L 572.167 223.564 L 572.47 223.69 L 572.551 223.791 L 572.581 223.942 L 572.535 224.128 L 572.414 224.27 L 572.218 224.36 L 571.956 224.391 L 571.678 224.36 L 571.476 224.255 L 571.34 224.083 L 571.285 223.846 L 570.856 223.846 L 570.927 224.249 L 571.133 224.542 L 571.461 224.719 L 571.915 224.784 L 572.389 224.719 L 572.737 224.542 L 572.949 224.26 L 573.025 223.891 L 572.969 223.574 L 572.813 223.357 L 572.556 223.216 L 572.213 223.11 L 572.213 223.11 z" stroke="none" fill-rule="evenodd" fill="rgb(0, 0, 0)"/></g><g stroke="rgb(0, 0, 0)" stroke-width="0.13" stroke-linecap="butt" stroke-linejoin="miter" fill="none"><path d="M 751.756 89.9883 L 752.024 89.9883 L 752.024 89.069 L 752.865 89.069 L 752.865 88.8298 L 752.024 88.8298 L 752.024 88.2303 L 753.058 88.2303 L 753.058 87.9883 L 751.756 87.9883 L 751.756 89.9883 L 751.756 89.9883 z M 753.58 89.9883 L 753.833 89.9883 L 753.833 89.1036 L 753.859 88.8903 L 753.937 88.7375 L 754.064 88.6453 L 754.234 88.6136 L 754.361 88.6338 L 754.456 88.6915 L 754.514 88.7894 L 754.534 88.922 L 754.79 88.922 L 754.756 88.6886 L 754.661 88.5214 L 754.502 88.4205 L 754.286 88.386 L 754.139 88.4091 L 754.012 88.4667 L 753.9 88.5646 L 753.81 88.6972 L 753.81 88.4407 L 753.58 88.4407 L 753.58 89.9883 L 753.58 89.9883 z M 755.145 89.2159 L 755.191 89.5675 L 755.323 89.8269 L 755.534 89.9883 L 755.816 90.043 L 756.096 89.9883 L 756.306 89.8298 L 756.439 89.5704 L 756.488 89.2159 L 756.439 88.8644 L 756.306 88.6021 L 756.096 88.4436 L 755.816 88.386 L 755.534 88.4436 L 755.323 88.605 L 755.191 88.8644 L 755.145 89.2159 L 755.145 89.2159 z M 755.404 89.2131 L 755.43 88.9537 L 755.511 88.7664 L 755.64 88.6511 L 755.816 88.6108 L 755.989 88.6511 L 756.119 88.7635 L 756.199 88.9537 L 756.228 89.2131 L 756.199 89.4753 L 756.119 89.6655 L 755.989 89.7808 L 755.816 89.8182 L 755.64 89.7808 L 755.511 89.6655 L 755.43 89.4753 L 755.404 89.2131 L 755.404 89.2131 z M 756.954 89.9883 L 757.208 89.9883 L 757.208 89.0949 L 757.234 88.8903 L 757.318 88.7404 L 757.447 88.6483 L 757.62 88.6136 L 757.759 88.6425 L 757.845 88.7203 L 757.888 88.85 L 757.903 89.0229 L 757.903 89.9883 L 758.156 89.9883 L 758.156 88.971 L 758.145 88.7664 L 758.093 88.5964 L 757.923 88.4407 L 757.658 88.386 L 757.511 88.4061 L 757.387 88.4609 L 757.28 88.5531 L 757.197 88.6771 L 757.197 88.4407 L 756.954 88.4407 L 756.954 89.9883 L 756.954 89.9883 z M 759.029 88.7087 L 759.029 89.4839 L 759.047 89.7347 L 759.127 89.9076 L 759.289 90.0085 L 759.563 90.043 L 759.862 90.0286 L 759.862 89.8096 L 759.643 89.8269 L 759.444 89.8038 L 759.338 89.7318 L 759.292 89.6108 L 759.283 89.4407 L 759.283 88.7087 L 759.862 88.7087 L 759.862 88.4926 L 759.283 88.4926 L 759.283 88.0402 L 759.029 88.0402 L 759.029 88.4926 L 758.591 88.4926 L 758.591 88.7087 L 759.029 88.7087 L 759.029 88.7087 z M 760.153 90.4667 L 760.153 90.6684 L 761.888 90.6684 L 761.888 90.4667 L 760.153 90.4667 L 760.153 90.4667 z M 762.171 89.9883 L 763.456 89.9883 L 763.456 89.7462 L 762.436 89.7462 L 762.436 87.9883 L 762.171 87.9883 L 762.171 89.9883 L 762.171 89.9883 z M 764.116 89.288 L 765.13 89.288 L 765.133 89.1699 L 765.087 88.8384 L 764.96 88.5906 L 764.758 88.4407 L 764.49 88.386 L 764.228 88.4436 L 764.026 88.605 L 763.897 88.8672 L 763.851 89.2131 L 763.894 89.5675 L 764.024 89.8269 L 764.222 89.9883 L 764.482 90.043 L 764.707 90.0056 L 764.891 89.9076 L 765.026 89.752 L 765.104 89.5445 L 764.854 89.5445 L 764.802 89.6597 L 764.727 89.7462 L 764.514 89.8154 L 764.349 89.7837 L 764.225 89.6828 L 764.145 89.5186 L 764.116 89.2966 L 764.116 89.288 L 764.116 89.288 z M 764.116 89.0748 L 764.148 88.8759 L 764.225 88.7289 L 764.344 88.6396 L 764.499 88.6079 L 764.652 88.6396 L 764.77 88.7289 L 764.842 88.8759 L 764.868 89.0748 L 764.116 89.0748 L 764.116 89.0748 z M 765.98 88.7087 L 765.98 89.9883 L 766.234 89.9883 L 766.234 88.7087 L 766.81 88.7087 L 766.81 88.4926 L 766.234 88.4926 L 766.234 88.3975 L 766.254 88.2822 L 766.32 88.2044 L 766.433 88.1583 L 766.594 88.1411 L 766.81 88.1525 L 766.81 87.9335 L 766.537 87.9191 L 766.289 87.9451 L 766.116 88.0229 L 766.012 88.1583 L 765.98 88.3514 L 765.98 88.4926 L 765.516 88.4926 L 765.516 88.7087 L 765.98 88.7087 L 765.98 88.7087 z M 767.704 88.7087 L 767.704 89.4839 L 767.721 89.7347 L 767.802 89.9076 L 767.963 90.0085 L 768.237 90.043 L 768.537 90.0286 L 768.537 89.8096 L 768.318 89.8269 L 768.119 89.8038 L 768.012 89.7318 L 767.966 89.6108 L 767.957 89.4407 L 767.957 88.7087 L 768.537 88.7087 L 768.537 88.4926 L 767.957 88.4926 L 767.957 88.0402 L 767.704 88.0402 L 767.704 88.4926 L 767.266 88.4926 L 767.266 88.7087 L 767.704 88.7087 L 767.704 88.7087 z M 768.828 90.4667 L 768.828 90.6684 L 770.563 90.6684 L 770.563 90.4667 L 768.828 90.4667 L 768.828 90.4667 z M 770.741 89.2275 L 770.781 89.5877 L 770.908 89.8442 L 771.122 89.9911 L 771.43 90.043 L 771.735 89.9911 L 771.949 89.8442 L 772.075 89.5906 L 772.119 89.2275 L 772.119 87.9883 L 771.851 87.9883 L 771.851 89.2419 L 771.825 89.4868 L 771.747 89.6627 L 771.614 89.7664 L 771.43 89.801 L 771.24 89.7664 L 771.107 89.6627 L 771.029 89.4897 L 771.006 89.2419 L 771.006 87.9883 L 770.741 87.9883 L 770.741 89.2275 L 770.741 89.2275 z M 772.807 88.6799 L 772.807 88.4407 L 772.554 88.4407 L 772.554 90.5877 L 772.807 90.5877 L 772.807 89.752 L 772.897 89.8874 L 772.998 89.9767 L 773.251 90.043 L 773.493 89.9883 L 773.684 89.824 L 773.807 89.5646 L 773.854 89.2131 L 773.807 88.8644 L 773.684 88.605 L 773.493 88.4436 L 773.251 88.386 L 773.113 88.4033 L 772.995 88.458 L 772.894 88.5502 L 772.807 88.6799 L 772.807 88.6799 z M 773.208 89.8154 L 773.038 89.7779 L 772.914 89.6627 L 772.836 89.4753 L 772.81 89.2131 L 772.836 88.9537 L 772.914 88.7664 L 773.038 88.654 L 773.208 88.6136 L 773.364 88.654 L 773.488 88.7693 L 773.565 88.9566 L 773.594 89.2131 L 773.565 89.4724 L 773.488 89.6627 L 773.364 89.7779 L 773.208 89.8154 L 773.208 89.8154 z M 774.542 88.6799 L 774.542 88.4407 L 774.289 88.4407 L 774.289 90.5877 L 774.542 90.5877 L 774.542 89.752 L 774.632 89.8874 L 774.732 89.9767 L 774.986 90.043 L 775.228 89.9883 L 775.418 89.824 L 775.542 89.5646 L 775.588 89.2131 L 775.542 88.8644 L 775.418 88.605 L 775.228 88.4436 L 774.986 88.386 L 774.848 88.4033 L 774.73 88.458 L 774.629 88.5502 L 774.542 88.6799 L 774.542 88.6799 z M 774.943 89.8154 L 774.773 89.7779 L 774.649 89.6627 L 774.571 89.4753 L 774.545 89.2131 L 774.571 88.9537 L 774.649 88.7664 L 774.773 88.654 L 774.943 88.6136 L 775.099 88.654 L 775.222 88.7693 L 775.3 88.9566 L 775.329 89.2131 L 775.3 89.4724 L 775.222 89.6627 L 775.099 89.7779 L 774.943 89.8154 L 774.943 89.8154 z M 776.26 89.288 L 777.274 89.288 L 777.277 89.1699 L 777.231 88.8384 L 777.104 88.5906 L 776.903 88.4407 L 776.635 88.386 L 776.372 88.4436 L 776.171 88.605 L 776.041 88.8672 L 775.995 89.2131 L 776.038 89.5675 L 776.168 89.8269 L 776.367 89.9883 L 776.626 90.043 L 776.851 90.0056 L 777.035 89.9076 L 777.171 89.752 L 777.248 89.5445 L 776.998 89.5445 L 776.946 89.6597 L 776.871 89.7462 L 776.658 89.8154 L 776.493 89.7837 L 776.369 89.6828 L 776.289 89.5186 L 776.26 89.2966 L 776.26 89.288 L 776.26 89.288 z M 776.26 89.0748 L 776.292 88.8759 L 776.369 88.7289 L 776.488 88.6396 L 776.643 88.6079 L 776.796 88.6396 L 776.914 88.7289 L 776.986 88.8759 L 777.012 89.0748 L 776.26 89.0748 L 776.26 89.0748 z M 777.868 89.9883 L 778.122 89.9883 L 778.122 89.1036 L 778.147 88.8903 L 778.225 88.7375 L 778.352 88.6453 L 778.522 88.6136 L 778.649 88.6338 L 778.744 88.6915 L 778.802 88.7894 L 778.822 88.922 L 779.078 88.922 L 779.044 88.6886 L 778.949 88.5214 L 778.79 88.4205 L 778.574 88.386 L 778.427 88.4091 L 778.3 88.4667 L 778.188 88.5646 L 778.099 88.6972 L 778.099 88.4407 L 777.868 88.4407 L 777.868 89.9883 L 777.868 89.9883 z M 780.963 89.9883 L 781.228 89.9883 L 781.439 89.4004 L 782.237 89.4004 L 782.447 89.9883 L 782.718 89.9883 L 781.986 87.9854 L 781.692 87.9854 L 780.963 89.9883 L 780.963 89.9883 z M 781.531 89.1555 L 781.839 88.2736 L 782.147 89.1555 L 781.531 89.1555 L 781.531 89.1555 z M 783.225 89.3284 L 783.923 89.3284 L 783.923 89.1006 L 783.225 89.1006 L 783.225 89.3284 L 783.225 89.3284 z M 784.433 89.9883 L 784.698 89.9883 L 784.908 89.4004 L 785.707 89.4004 L 785.917 89.9883 L 786.188 89.9883 L 785.456 87.9854 L 785.162 87.9854 L 784.433 89.9883 L 784.433 89.9883 z M 785 89.1555 L 785.309 88.2736 L 785.617 89.1555 L 785 89.1555 L 785 89.1555 z M 786.542 89.9883 L 786.796 89.9883 L 786.796 89.1036 L 786.822 88.8903 L 786.9 88.7375 L 787.026 88.6453 L 787.196 88.6136 L 787.323 88.6338 L 787.418 88.6915 L 787.476 88.7894 L 787.496 88.922 L 787.753 88.922 L 787.718 88.6886 L 787.623 88.5214 L 787.464 88.4205 L 787.248 88.386 L 787.101 88.4091 L 786.975 88.4667 L 786.862 88.5646 L 786.773 88.6972 L 786.773 88.4407 L 786.542 88.4407 L 786.542 89.9883 L 786.542 89.9883 z M 788.081 89.9883 L 788.315 89.9883 L 788.315 88.9537 L 788.329 88.7981 L 788.372 88.6857 L 788.439 88.6194 L 788.525 88.5934 L 788.594 88.6165 L 788.64 88.6741 L 788.663 88.7722 L 788.672 88.9019 L 788.672 89.9883 L 788.891 89.9883 L 788.891 88.9537 L 788.905 88.801 L 788.949 88.6886 L 789.018 88.6194 L 789.104 88.5934 L 789.173 88.6165 L 789.219 88.6741 L 789.248 88.9019 L 789.248 89.9883 L 789.482 89.9883 L 789.482 88.9191 L 789.467 88.6972 L 789.421 88.5272 L 789.329 88.4235 L 789.179 88.386 L 789.003 88.4436 L 788.868 88.6108 L 788.761 88.4465 L 788.583 88.386 L 788.418 88.4436 L 788.306 88.605 L 788.306 88.4407 L 788.081 88.4407 L 788.081 89.9883 L 788.081 89.9883 z" stroke="none" fill-rule="evenodd" fill="rgb(0, 0, 0)"/></g><g stroke="rgb(0, 0, 0)" stroke-width="0.13" stroke-linecap="butt" stroke-linejoin="miter" fill="none"><path d="M 765.62 93.4436 L 766.888 93.4436 L 766.888 93.2015 L 765.885 93.2015 L 765.885 92.5243 L 766.779 92.5243 L 766.779 92.2851 L 765.885 92.2851 L 765.885 91.6857 L 766.865 91.6857 L 766.865 91.4436 L 765.62 91.4436 L 765.62 93.4436 L 765.62 93.4436 z M 767.093 93.922 L 767.093 94.1237 L 768.828 94.1237 L 768.828 93.922 L 767.093 93.922 L 767.093 93.922 z M 768.819 93.4436 L 769.084 93.4436 L 769.295 92.8557 L 770.093 92.8557 L 770.303 93.4436 L 770.574 93.4436 L 769.842 91.4407 L 769.548 91.4407 L 768.819 93.4436 L 768.819 93.4436 z M 769.387 92.6108 L 769.695 91.7289 L 770.003 92.6108 L 769.387 92.6108 L 769.387 92.6108 z M 771.297 93.4436 L 771.565 93.4436 L 772.13 91.8961 L 771.868 91.8961 L 771.433 93.1439 L 770.989 91.8961 L 770.724 91.8961 L 771.297 93.4436 L 771.297 93.4436 z M 773.488 93.2419 L 773.488 93.2505 L 773.502 93.3485 L 773.545 93.4177 L 773.727 93.4724 L 773.868 93.4493 L 773.868 93.2534 L 773.807 93.262 L 773.727 93.2246 L 773.712 93.1093 L 773.712 92.3082 L 773.678 92.1036 L 773.577 91.9595 L 773.401 91.873 L 773.153 91.8413 L 772.911 91.8759 L 772.733 91.9739 L 772.62 92.1266 L 772.583 92.3283 L 772.583 92.3456 L 772.81 92.3456 L 772.831 92.2246 L 772.894 92.1381 L 772.998 92.0862 L 773.145 92.0661 L 773.286 92.0805 L 773.387 92.1237 L 773.447 92.1987 L 773.467 92.3024 L 773.456 92.4235 L 773.41 92.4839 L 773.295 92.5128 L 773.078 92.5358 L 772.831 92.5877 L 772.655 92.6799 L 772.551 92.824 L 772.519 93.0373 L 772.548 93.2275 L 772.637 93.3687 L 772.782 93.458 L 772.98 93.4897 L 773.248 93.4292 L 773.488 93.2419 L 773.488 93.2419 z M 773.459 92.9018 L 773.424 93.0517 L 773.332 93.1669 L 773.194 93.2419 L 773.024 93.2678 L 772.914 93.2534 L 772.836 93.2073 L 772.787 93.1266 L 772.773 93.0142 L 772.784 92.9133 L 772.831 92.8413 L 773.015 92.7606 L 773.248 92.726 L 773.459 92.6569 L 773.459 92.9018 L 773.459 92.9018 z M 774.303 93.4436 L 774.557 93.4436 L 774.557 92.5502 L 774.583 92.3456 L 774.666 92.1957 L 774.796 92.1036 L 774.969 92.069 L 775.107 92.0978 L 775.194 92.1756 L 775.237 92.3053 L 775.251 92.4782 L 775.251 93.4436 L 775.505 93.4436 L 775.505 92.4263 L 775.493 92.2217 L 775.442 92.0517 L 775.271 91.8961 L 775.006 91.8413 L 774.859 91.8615 L 774.735 91.9163 L 774.629 92.0084 L 774.545 92.1324 L 774.545 91.8961 L 774.303 91.8961 L 774.303 93.4436 L 774.303 93.4436 z M 776.378 92.1641 L 776.378 92.9393 L 776.395 93.19 L 776.476 93.3629 L 776.637 93.4638 L 776.911 93.4984 L 777.211 93.4839 L 777.211 93.265 L 776.992 93.2822 L 776.793 93.2592 L 776.686 93.1871 L 776.64 93.0661 L 776.632 92.8961 L 776.632 92.1641 L 777.211 92.1641 L 777.211 91.9479 L 776.632 91.9479 L 776.632 91.4955 L 776.378 91.4955 L 776.378 91.9479 L 775.94 91.9479 L 775.94 92.1641 L 776.378 92.1641 L 776.378 92.1641 z" stroke="none" fill-rule="evenodd" fill="rgb(0, 0, 0)"/></g><g stroke="rgb(0, 0, 0)" stroke-width="0.13" stroke-linecap="butt" stroke-linejoin="miter" fill="none"><path d="M 754.508 175.6 L 754.776 175.6 L 754.776 174.68 L 755.617 174.68 L 755.617 174.441 L 754.776 174.441 L 754.776 173.842 L 755.811 173.842 L 755.811 173.6 L 754.508 173.6 L 754.508 175.6 L 754.508 175.6 z M 756.332 175.6 L 756.586 175.6 L 756.586 174.715 L 756.612 174.502 L 756.69 174.349 L 756.816 174.257 L 756.986 174.225 L 757.113 174.245 L 757.208 174.303 L 757.266 174.401 L 757.286 174.533 L 757.543 174.533 L 757.508 174.3 L 757.413 174.133 L 757.254 174.032 L 757.038 173.997 L 756.891 174.02 L 756.764 174.078 L 756.652 174.176 L 756.563 174.308 L 756.563 174.052 L 756.332 174.052 L 756.332 175.6 L 756.332 175.6 z M 757.897 174.827 L 757.943 175.179 L 758.076 175.438 L 758.286 175.6 L 758.568 175.654 L 758.848 175.6 L 759.058 175.441 L 759.191 175.182 L 759.24 174.827 L 759.191 174.476 L 759.058 174.213 L 758.848 174.055 L 758.568 173.997 L 758.286 174.055 L 758.076 174.216 L 757.943 174.476 L 757.897 174.827 L 757.897 174.827 z M 758.156 174.824 L 758.182 174.565 L 758.263 174.378 L 758.393 174.262 L 758.568 174.222 L 758.741 174.262 L 758.871 174.375 L 758.952 174.565 L 758.981 174.824 L 758.952 175.087 L 758.871 175.277 L 758.741 175.392 L 758.568 175.43 L 758.393 175.392 L 758.263 175.277 L 758.182 175.087 L 758.156 174.824 L 758.156 174.824 z M 759.707 175.6 L 759.96 175.6 L 759.96 174.706 L 759.986 174.502 L 760.07 174.352 L 760.2 174.26 L 760.372 174.225 L 760.511 174.254 L 760.597 174.332 L 760.641 174.461 L 760.655 174.634 L 760.655 175.6 L 760.909 175.6 L 760.909 174.582 L 760.897 174.378 L 760.845 174.208 L 760.675 174.052 L 760.41 173.997 L 760.263 174.017 L 760.139 174.072 L 760.032 174.164 L 759.949 174.288 L 759.949 174.052 L 759.707 174.052 L 759.707 175.6 L 759.707 175.6 z M 761.782 174.32 L 761.782 175.095 L 761.799 175.346 L 761.88 175.519 L 762.041 175.62 L 762.315 175.654 L 762.615 175.64 L 762.615 175.421 L 762.396 175.438 L 762.197 175.415 L 762.09 175.343 L 762.044 175.222 L 762.035 175.052 L 762.035 174.32 L 762.615 174.32 L 762.615 174.104 L 762.035 174.104 L 762.035 173.651 L 761.782 173.651 L 761.782 174.104 L 761.344 174.104 L 761.344 174.32 L 761.782 174.32 L 761.782 174.32 z M 762.906 176.078 L 762.906 176.28 L 764.641 176.28 L 764.641 176.078 L 762.906 176.078 L 762.906 176.078 z M 764.923 175.6 L 766.208 175.6 L 766.208 175.357 L 765.188 175.357 L 765.188 173.6 L 764.923 173.6 L 764.923 175.6 L 764.923 175.6 z M 766.868 174.899 L 767.883 174.899 L 767.885 174.781 L 767.839 174.45 L 767.713 174.202 L 767.511 174.052 L 767.243 173.997 L 766.981 174.055 L 766.779 174.216 L 766.649 174.479 L 766.603 174.824 L 766.646 175.179 L 766.776 175.438 L 766.975 175.6 L 767.234 175.654 L 767.459 175.617 L 767.643 175.519 L 767.779 175.363 L 767.857 175.156 L 767.606 175.156 L 767.554 175.271 L 767.479 175.357 L 767.266 175.427 L 767.102 175.395 L 766.978 175.294 L 766.897 175.13 L 766.868 174.908 L 766.868 174.899 L 766.868 174.899 z M 766.868 174.686 L 766.9 174.487 L 766.978 174.34 L 767.096 174.251 L 767.251 174.219 L 767.404 174.251 L 767.522 174.34 L 767.594 174.487 L 767.62 174.686 L 766.868 174.686 L 766.868 174.686 z M 768.733 174.32 L 768.733 175.6 L 768.986 175.6 L 768.986 174.32 L 769.563 174.32 L 769.563 174.104 L 768.986 174.104 L 768.986 174.009 L 769.006 173.893 L 769.073 173.816 L 769.185 173.77 L 769.347 173.752 L 769.563 173.764 L 769.563 173.545 L 769.289 173.53 L 769.041 173.556 L 768.868 173.634 L 768.764 173.77 L 768.733 173.963 L 768.733 174.104 L 768.269 174.104 L 768.269 174.32 L 768.733 174.32 L 768.733 174.32 z M 770.456 174.32 L 770.456 175.095 L 770.473 175.346 L 770.554 175.519 L 770.715 175.62 L 770.989 175.654 L 771.289 175.64 L 771.289 175.421 L 771.07 175.438 L 770.871 175.415 L 770.764 175.343 L 770.718 175.222 L 770.71 175.052 L 770.71 174.32 L 771.289 174.32 L 771.289 174.104 L 770.71 174.104 L 770.71 173.651 L 770.456 173.651 L 770.456 174.104 L 770.018 174.104 L 770.018 174.32 L 770.456 174.32 L 770.456 174.32 z M 771.58 176.078 L 771.58 176.28 L 773.315 176.28 L 773.315 176.078 L 771.58 176.078 L 771.58 176.078 z M 773.493 174.839 L 773.534 175.199 L 773.661 175.455 L 773.874 175.602 L 774.182 175.654 L 774.488 175.602 L 774.701 175.455 L 774.828 175.202 L 774.871 174.839 L 774.871 173.6 L 774.603 173.6 L 774.603 174.853 L 774.577 175.098 L 774.499 175.274 L 774.367 175.378 L 774.182 175.412 L 773.992 175.378 L 773.859 175.274 L 773.782 175.101 L 773.759 174.853 L 773.759 173.6 L 773.493 173.6 L 773.493 174.839 L 773.493 174.839 z M 775.56 174.291 L 775.56 174.052 L 775.306 174.052 L 775.306 176.199 L 775.56 176.199 L 775.56 175.363 L 775.649 175.499 L 775.75 175.588 L 776.004 175.654 L 776.246 175.6 L 776.436 175.435 L 776.56 175.176 L 776.606 174.824 L 776.56 174.476 L 776.436 174.216 L 776.246 174.055 L 776.004 173.997 L 775.865 174.015 L 775.747 174.069 L 775.646 174.161 L 775.56 174.291 L 775.56 174.291 z M 775.96 175.427 L 775.79 175.389 L 775.666 175.274 L 775.589 175.087 L 775.563 174.824 L 775.589 174.565 L 775.666 174.378 L 775.79 174.265 L 775.96 174.225 L 776.116 174.265 L 776.24 174.381 L 776.318 174.568 L 776.346 174.824 L 776.318 175.084 L 776.24 175.274 L 776.116 175.389 L 775.96 175.427 L 775.96 175.427 z M 777.295 174.291 L 777.295 174.052 L 777.041 174.052 L 777.041 176.199 L 777.295 176.199 L 777.295 175.363 L 777.384 175.499 L 777.485 175.588 L 777.738 175.654 L 777.981 175.6 L 778.171 175.435 L 778.295 175.176 L 778.341 174.824 L 778.295 174.476 L 778.171 174.216 L 777.981 174.055 L 777.738 173.997 L 777.6 174.015 L 777.482 174.069 L 777.381 174.161 L 777.295 174.291 L 777.295 174.291 z M 777.695 175.427 L 777.525 175.389 L 777.401 175.274 L 777.323 175.087 L 777.297 174.824 L 777.323 174.565 L 777.401 174.378 L 777.525 174.265 L 777.695 174.225 L 777.851 174.265 L 777.975 174.381 L 778.053 174.568 L 778.081 174.824 L 778.053 175.084 L 777.975 175.274 L 777.851 175.389 L 777.695 175.427 L 777.695 175.427 z M 779.012 174.899 L 780.027 174.899 L 780.029 174.781 L 779.983 174.45 L 779.857 174.202 L 779.655 174.052 L 779.387 173.997 L 779.125 174.055 L 778.923 174.216 L 778.793 174.479 L 778.747 174.824 L 778.79 175.179 L 778.92 175.438 L 779.119 175.6 L 779.378 175.654 L 779.603 175.617 L 779.787 175.519 L 779.923 175.363 L 780.001 175.156 L 779.75 175.156 L 779.698 175.271 L 779.623 175.357 L 779.41 175.427 L 779.246 175.395 L 779.122 175.294 L 779.041 175.13 L 779.012 174.908 L 779.012 174.899 L 779.012 174.899 z M 779.012 174.686 L 779.044 174.487 L 779.122 174.34 L 779.24 174.251 L 779.396 174.219 L 779.548 174.251 L 779.666 174.34 L 779.738 174.487 L 779.764 174.686 L 779.012 174.686 L 779.012 174.686 z M 780.62 175.6 L 780.874 175.6 L 780.874 174.715 L 780.9 174.502 L 780.978 174.349 L 781.104 174.257 L 781.274 174.225 L 781.401 174.245 L 781.496 174.303 L 781.554 174.401 L 781.574 174.533 L 781.831 174.533 L 781.796 174.3 L 781.701 174.133 L 781.542 174.032 L 781.326 173.997 L 781.179 174.02 L 781.053 174.078 L 780.94 174.176 L 780.851 174.308 L 780.851 174.052 L 780.62 174.052 L 780.62 175.6 L 780.62 175.6 z M 783.715 175.6 L 783.98 175.6 L 784.191 175.012 L 784.989 175.012 L 785.2 175.6 L 785.47 175.6 L 784.738 173.597 L 784.444 173.597 L 783.715 175.6 L 783.715 175.6 z M 784.283 174.767 L 784.591 173.885 L 784.9 174.767 L 784.283 174.767 L 784.283 174.767 z M 785.978 174.94 L 786.675 174.94 L 786.675 174.712 L 785.978 174.712 L 785.978 174.94 L 785.978 174.94 z M 787.185 175.6 L 787.45 175.6 L 787.661 175.012 L 788.459 175.012 L 788.669 175.6 L 788.94 175.6 L 788.208 173.597 L 787.914 173.597 L 787.185 175.6 L 787.185 175.6 z M 787.753 174.767 L 788.061 173.885 L 788.37 174.767 L 787.753 174.767 L 787.753 174.767 z M 789.295 175.6 L 789.548 175.6 L 789.548 174.715 L 789.574 174.502 L 789.652 174.349 L 789.779 174.257 L 789.949 174.225 L 790.076 174.245 L 790.171 174.303 L 790.228 174.401 L 790.248 174.533 L 790.505 174.533 L 790.47 174.3 L 790.375 174.133 L 790.217 174.032 L 790.001 173.997 L 789.854 174.02 L 789.727 174.078 L 789.614 174.176 L 789.525 174.308 L 789.525 174.052 L 789.295 174.052 L 789.295 175.6 L 789.295 175.6 z M 790.833 175.6 L 791.067 175.6 L 791.067 174.565 L 791.081 174.409 L 791.125 174.297 L 791.191 174.231 L 791.277 174.205 L 791.346 174.228 L 791.393 174.285 L 791.416 174.383 L 791.424 174.513 L 791.424 175.6 L 791.643 175.6 L 791.643 174.565 L 791.658 174.412 L 791.701 174.3 L 791.77 174.231 L 791.857 174.205 L 791.926 174.228 L 791.972 174.285 L 792.001 174.513 L 792.001 175.6 L 792.234 175.6 L 792.234 174.53 L 792.22 174.308 L 792.174 174.138 L 792.081 174.035 L 791.931 173.997 L 791.756 174.055 L 791.62 174.222 L 791.514 174.058 L 791.335 173.997 L 791.171 174.055 L 791.058 174.216 L 791.058 174.052 L 790.833 174.052 L 790.833 175.6 L 790.833 175.6 z" stroke="none" fill-rule="evenodd" fill="rgb(0, 0, 0)"/></g><g stroke="rgb(0, 0, 0)" stroke-width="0.13" stroke-linecap="butt" stroke-linejoin="miter" fill="none"><path d="M 766.638 179.055 L 767.906 179.055 L 767.906 178.813 L 766.903 178.813 L 766.903 178.136 L 767.796 178.136 L 767.796 177.896 L 766.903 177.896 L 766.903 177.297 L 767.883 177.297 L 767.883 177.055 L 766.638 177.055 L 766.638 179.055 L 766.638 179.055 z M 768.11 179.533 L 768.11 179.735 L 769.845 179.735 L 769.845 179.533 L 768.11 179.533 L 768.11 179.533 z M 769.836 179.055 L 770.102 179.055 L 770.312 178.467 L 771.11 178.467 L 771.321 179.055 L 771.592 179.055 L 770.86 177.052 L 770.566 177.052 L 769.836 179.055 L 769.836 179.055 z M 770.404 178.222 L 770.713 177.34 L 771.021 178.222 L 770.404 178.222 L 770.404 178.222 z M 771.946 179.055 L 772.2 179.055 L 772.2 178.17 L 772.226 177.957 L 772.303 177.804 L 772.43 177.712 L 772.6 177.68 L 772.727 177.7 L 772.822 177.758 L 772.88 177.856 L 772.9 177.989 L 773.156 177.989 L 773.122 177.755 L 773.027 177.588 L 772.868 177.487 L 772.652 177.453 L 772.505 177.476 L 772.378 177.533 L 772.266 177.631 L 772.177 177.764 L 772.177 177.507 L 771.946 177.507 L 771.946 179.055 L 771.946 179.055 z M 773.681 179.055 L 773.934 179.055 L 773.934 178.17 L 773.96 177.957 L 774.038 177.804 L 774.165 177.712 L 774.335 177.68 L 774.462 177.7 L 774.557 177.758 L 774.615 177.856 L 774.635 177.989 L 774.891 177.989 L 774.857 177.755 L 774.762 177.588 L 774.603 177.487 L 774.387 177.453 L 774.24 177.476 L 774.113 177.533 L 774.001 177.631 L 773.911 177.764 L 773.911 177.507 L 773.681 177.507 L 773.681 179.055 L 773.681 179.055 z M 776.096 178.842 L 776.096 177.559 L 775.445 177.559 L 775.445 177.775 L 775.842 177.775 L 775.842 178.842 L 775.324 178.842 L 775.324 179.055 L 776.62 179.055 L 776.62 178.842 L 776.096 178.842 L 776.096 178.842 z M 776.104 176.986 L 775.836 176.986 L 775.836 177.274 L 776.104 177.274 L 776.104 176.986 L 776.104 176.986 z M 777.857 177.297 L 777.568 176.807 L 777.286 176.807 L 777.687 177.297 L 777.857 177.297 L 777.857 177.297 z M 777.277 178.355 L 778.292 178.355 L 778.295 178.236 L 778.249 177.905 L 778.122 177.657 L 777.92 177.507 L 777.652 177.453 L 777.39 177.51 L 777.188 177.672 L 777.058 177.934 L 777.012 178.28 L 777.055 178.634 L 777.185 178.893 L 777.384 179.055 L 777.643 179.11 L 777.868 179.072 L 778.053 178.974 L 778.188 178.819 L 778.266 178.611 L 778.015 178.611 L 777.963 178.726 L 777.888 178.813 L 777.675 178.882 L 777.511 178.85 L 777.387 178.749 L 777.306 178.585 L 777.277 178.363 L 777.277 178.355 L 777.277 178.355 z M 777.277 178.141 L 777.309 177.943 L 777.387 177.796 L 777.505 177.706 L 777.661 177.674 L 777.813 177.706 L 777.932 177.796 L 778.004 177.943 L 778.03 178.141 L 777.277 178.141 L 777.277 178.141 z M 778.885 179.055 L 779.139 179.055 L 779.139 178.17 L 779.165 177.957 L 779.243 177.804 L 779.37 177.712 L 779.54 177.68 L 779.666 177.7 L 779.762 177.758 L 779.819 177.856 L 779.839 177.989 L 780.096 177.989 L 780.061 177.755 L 779.966 177.588 L 779.808 177.487 L 779.591 177.453 L 779.445 177.476 L 779.318 177.533 L 779.205 177.631 L 779.116 177.764 L 779.116 177.507 L 778.885 177.507 L 778.885 179.055 L 778.885 179.055 z M 780.747 178.355 L 781.762 178.355 L 781.764 178.236 L 781.718 177.905 L 781.591 177.657 L 781.39 177.507 L 781.122 177.453 L 780.859 177.51 L 780.658 177.672 L 780.528 177.934 L 780.482 178.28 L 780.525 178.634 L 780.655 178.893 L 780.854 179.055 L 781.113 179.11 L 781.338 179.072 L 781.522 178.974 L 781.658 178.819 L 781.736 178.611 L 781.485 178.611 L 781.433 178.726 L 781.358 178.813 L 781.145 178.882 L 780.981 178.85 L 780.857 178.749 L 780.776 178.585 L 780.747 178.363 L 780.747 178.355 L 780.747 178.355 z M 780.747 178.141 L 780.779 177.943 L 780.857 177.796 L 780.975 177.706 L 781.13 177.674 L 781.283 177.706 L 781.401 177.796 L 781.473 177.943 L 781.499 178.141 L 780.747 178.141 L 780.747 178.141 z" stroke="none" fill-rule="evenodd" fill="rgb(0, 0, 0)"/></g></svg>