<?xml version="1.0" encoding="utf-8"?>
<!-- Generator: Adobe Illustrator 22.1.0, SVG Export Plug-In . SVG Version: 6.00 Build 0)  -->
<svg version="1.1" id="Calque_1" dsy:text-version="18000" xmlns:dsy="http://www.3ds.com/print"
	 xmlns="http://www.w3.org/2000/svg" xmlns:xlink="http://www.w3.org/1999/xlink" x="0px" y="0px" viewBox="0 0 1189 841"
	 style="enable-background:new 0 0 1189 841;" xml:space="preserve">
<style type="text/css">
	.st0{fill:none;stroke:#FF0000;stroke-width:2.834646e-02;}
</style>
<path class="st0" d="M93.1,71.2l-10.5,17"/>
<path class="st0" d="M87.6,91.3l-5-3.1"/>
<path class="st0" d="M98.1,74.3l-10.5,17"/>
<path class="st0" d="M174.6,121.6L98.1,74.3"/>
<path class="st0" d="M174.6,121.6l99.1,13.3"/>
<path class="st0" d="M273.8,134.9l-2.7,19.8"/>
<path class="st0" d="M271.1,154.7l5.8,0.8"/>
<path class="st0" d="M276.9,155.5l2.7-19.8"/>
<path class="st0" d="M224.8,220.1l14.7,13.5"/>
<path class="st0" d="M218.1,227.5l6.8-7.4"/>
<path class="st0" d="M232.8,241l-14.7-13.5"/>
<circle class="st0" cx="61.2" cy="68.6" r="3.2"/>
<circle class="st0" cx="295.9" cy="154.6" r="3.2"/>
<circle class="st0" cx="74.4" cy="395.5" r="3.2"/>
<circle class="st0" cx="81" cy="361.2" r="6"/>
<path class="st0" d="M168.9,156.2l-1.6,19.9"/>
<path class="st0" d="M173.4,176.6l-6-0.5"/>
<path class="st0" d="M174.9,156.6l-1.6,19.9"/>
<path class="st0" d="M168.9,156.2l6,0.5"/>
<path class="st0" d="M301.3,160.4l-0.7-0.7"/>
<path class="st0" d="M313.8,148.9l-12.5,11.6"/>
<path class="st0" d="M313.1,148.1l0.7,0.7"/>
<path class="st0" d="M300.6,159.7l12.5-11.6"/>
<path class="st0" d="M295.1,142.4l-0.9-0.5"/>
<path class="st0" d="M294.2,141.9l-5.2,8.6"/>
<path class="st0" d="M289,150.4l0.9,0.5"/>
<path class="st0" d="M289.9,151l5.2-8.6"/>
<path class="st0" d="M54.5,69.8L51.6,54"/>
<path class="st0" d="M51.6,54l-1,0.2"/>
<path class="st0" d="M50.6,54.2L53.5,70"/>
<path class="st0" d="M53.5,70l1-0.2"/>
<path class="st0" d="M70.3,59.4l-1,10"/>
<path class="st0" d="M69.3,59.3l1,0.1"/>
<path class="st0" d="M68.3,69.3l1-10"/>
<path class="st0" d="M69.3,69.4l-1-0.1"/>
<path class="st0" d="M71.8,416.2l161-175.1"/>
<path class="st0" d="M63.1,413c0.1,2.8,2.4,4.9,5.2,4.8c1.3-0.1,2.6-0.6,3.5-1.6"/>
<path class="st0" d="M314.6,140.4l-35.1-4.7"/>
<path class="st0" d="M317.7,148.7l-78.1,85"/>
<path class="st0" d="M317.7,148.7c1.9-2,1.7-5.2-0.3-7.1c-0.8-0.7-1.7-1.1-2.7-1.3"/>
<path class="st0" d="M56.2,48.3l36.9,22.8"/>
<path class="st0" d="M63.1,413L48.5,52.8"/>
<path class="st0" d="M56.2,48.3c-2.3-1.5-5.4-0.7-6.9,1.6c-0.5,0.8-0.8,1.8-0.7,2.8"/>
<path class="st0" d="M471.2,70.6l-10.5,17"/>
<path class="st0" d="M465.7,90.7l-5-3.1"/>
<path class="st0" d="M476.2,73.7l-10.5,17"/>
<path class="st0" d="M552.8,121l-76.5-47.3"/>
<path class="st0" d="M552.8,121l99.1,13.3"/>
<path class="st0" d="M651.9,134.3l-2.7,19.8"/>
<path class="st0" d="M649.2,154.1l5.8,0.8"/>
<path class="st0" d="M655.1,154.9l2.7-19.8"/>
<path class="st0" d="M603,219.5l14.7,13.5"/>
<path class="st0" d="M596.2,226.9l6.8-7.4"/>
<path class="st0" d="M610.9,240.4l-14.7-13.5"/>
<circle class="st0" cx="439.3" cy="68" r="3.2"/>
<circle class="st0" cx="674" cy="154" r="3.2"/>
<circle class="st0" cx="452.6" cy="394.9" r="3.2"/>
<circle class="st0" cx="459.2" cy="360.6" r="6"/>
<path class="st0" d="M547.1,155.5l-1.6,19.9"/>
<path class="st0" d="M551.5,175.9l-6-0.5"/>
<path class="st0" d="M553,156l-1.6,19.9"/>
<path class="st0" d="M547.1,155.5l6,0.5"/>
<path class="st0" d="M679.5,159.9l-0.7-0.7"/>
<path class="st0" d="M692,148.3l-12.5,11.6"/>
<path class="st0" d="M691.3,147.6l0.7,0.7"/>
<path class="st0" d="M678.8,159.1l12.5-11.6"/>
<path class="st0" d="M668.1,150.4l5.2-8.6"/>
<path class="st0" d="M673.2,141.8l-0.9-0.5"/>
<path class="st0" d="M672.4,141.3l-5.2,8.6"/>
<path class="st0" d="M667.2,149.8l0.9,0.5"/>
<path class="st0" d="M432.2,68.9L430.1,53"/>
<path class="st0" d="M430.1,53l-1,0.1"/>
<path class="st0" d="M429.1,53.1l2.1,15.9"/>
<path class="st0" d="M431.2,69l1-0.1"/>
<path class="st0" d="M448.5,59.2l-1.5,9.9"/>
<path class="st0" d="M447.5,59.1l1,0.1"/>
<path class="st0" d="M446.1,69l1.5-9.9"/>
<path class="st0" d="M447.1,69.1l-1-0.1"/>
<path class="st0" d="M692.8,139.7l-35.1-4.7"/>
<path class="st0" d="M695.8,148.1l-78.1,85"/>
<path class="st0" d="M695.8,148.1c1.9-2,1.7-5.2-0.3-7.1c-0.8-0.7-1.7-1.1-2.7-1.3"/>
<path class="st0" d="M434.3,47.7l36.9,22.8"/>
<path class="st0" d="M434.3,47.7c-2.3-1.5-5.4-0.7-6.9,1.6c-0.5,0.8-0.8,1.8-0.7,2.8"/>
<path class="st0" d="M449.9,415.5l161-175.1"/>
<path class="st0" d="M441.3,412.4L426.7,52.2"/>
<path class="st0" d="M441.3,412.4c0.1,2.8,2.4,4.9,5.2,4.8c1.3-0.1,2.6-0.6,3.5-1.6"/>
<path class="st0" d="M766.1,95.5l-6-0.4"/>
<path class="st0" d="M764.9,115.5l1.2-20"/>
<path class="st0" d="M772.9,116l-8-0.5"/>
<path class="st0" d="M774.1,96l-1.2,20"/>
<path class="st0" d="M780.1,96.3l-6-0.4"/>
<path class="st0" d="M802.1,62.8c0-0.1-0.1-0.2-0.2-0.2"/>
<path class="st0" d="M800.9,82.3l1.1-19.6"/>
<path class="st0" d="M800.7,82.5c0.1,0,0.2-0.1,0.2-0.2"/>
<path class="st0" d="M800.6,87.7c0-0.1-0.1-0.2-0.2-0.2"/>
<path class="st0" d="M800.4,87.5l-9.6-0.6"/>
<path class="st0" d="M790.6,86.7c0,0.1,0.1,0.2,0.2,0.2l0,0"/>
<path class="st0" d="M798.9,117.3l1.7-29.5"/>
<path class="st0" d="M798.7,117.5c0.1,0,0.2-0.1,0.2-0.2"/>
<path class="st0" d="M801.9,62.6l-7.1-0.4"/>
<path class="st0" d="M794.8,62.1c-0.1,0-0.2,0.1-0.2,0.2"/>
<path class="st0" d="M769.6,60.9c-0.3,6.9,5.1,12.7,12,13c6.7,0.3,12.5-4.8,13-11.6"/>
<path class="st0" d="M769.6,60.9c0-0.1-0.1-0.2-0.2-0.2"/>
<path class="st0" d="M791.1,82l9.6,0.6"/>
<path class="st0" d="M790.6,86.7l0.3-4.6"/>
<path class="st0" d="M791.1,82c-0.1,0-0.2,0.1-0.2,0.2"/>
<path class="st0" d="M780.1,96.3l-1.2,19.8"/>
<path class="st0" d="M779.1,116.3l19.6,1.1"/>
<path class="st0" d="M778.9,116.1c0,0.1,0.1,0.2,0.2,0.2c0,0,0,0,0,0"/>
<path class="st0" d="M752.4,59.7l17.1,1"/>
<path class="st0" d="M752.4,59.7c-0.1,0-0.2,0.1-0.2,0.2c0,0,0,0,0,0"/>
<path class="st0" d="M749,114.4l3.2-54.5"/>
<path class="st0" d="M749,114.4c0,0.1,0.1,0.2,0.2,0.2c0,0,0,0,0,0"/>
<path class="st0" d="M760.1,95.2l-1.2,19.8"/>
<path class="st0" d="M758.7,115.1l-9.6-0.6"/>
<path class="st0" d="M758.7,115.1c0.1,0,0.2-0.1,0.2-0.2"/>
<path class="st0" d="M768.1,181.7l-6-0.3"/>
<path class="st0" d="M767.1,202.1l1-20.4"/>
<path class="st0" d="M775.1,202.1h-8"/>
<path class="st0" d="M776.1,182.1l-1,20"/>
<path class="st0" d="M782.1,182.4l-6-0.3"/>
<path class="st0" d="M781.1,166H768"/>
<path class="st0" d="M768,162c-1.1,0-2,0.9-2,2s0.9,2,2,2"/>
<path class="st0" d="M768,162h13.1"/>
<path class="st0" d="M781.1,166c1.1,0,2-0.9,2-2s-0.9-2-2-2"/>
<path class="st0" d="M796.1,147.2c0-0.1-0.1-0.2-0.2-0.2"/>
<path class="st0" d="M796.1,170.2v-23"/>
<path class="st0" d="M795.9,170.4c0.1,0,0.2-0.1,0.2-0.2"/>
<path class="st0" d="M796.1,172.6c0-0.1-0.1-0.2-0.2-0.2"/>
<path class="st0" d="M795.9,172.4h-4.6"/>
<path class="st0" d="M791.1,172.2c0,0.1,0.1,0.2,0.2,0.2l0,0"/>
<path class="st0" d="M791.3,170.4h4.6"/>
<path class="st0" d="M791.1,172.2v-1.6"/>
<path class="st0" d="M791.3,170.4c-0.1,0-0.2,0.1-0.2,0.2v0"/>
<path class="st0" d="M796.1,202.2v-29.6"/>
<path class="st0" d="M795.9,202.4c0.1,0,0.2-0.1,0.2-0.2"/>
<path class="st0" d="M782.1,182.4l-1,19.8"/>
<path class="st0" d="M781.3,202.4h14.6"/>
<path class="st0" d="M781.1,202.2c0,0.1,0.1,0.2,0.2,0.2c0,0,0,0,0,0"/>
<path class="st0" d="M795.9,147h-6.7"/>
<path class="st0" d="M789.1,147c-0.1,0-0.2,0.1-0.2,0.2"/>
<path class="st0" d="M763.9,147.2c0,6.9,5.6,12.5,12.5,12.5s12.5-5.6,12.5-12.5"/>
<path class="st0" d="M763.9,147.2c0-0.1-0.1-0.2-0.2-0.2"/>
<path class="st0" d="M763.7,147H754"/>
<path class="st0" d="M754,147c-0.1,0-0.2,0.1-0.2,0.2"/>
<path class="st0" d="M751.1,200.7l2.7-53.5"/>
<path class="st0" d="M751.1,200.7c0,0.1,0.1,0.2,0.2,0.2"/>
<path class="st0" d="M762.1,181.4l-1,19.8"/>
<path class="st0" d="M760.9,201.4l-9.6-0.5"/>
<path class="st0" d="M760.9,201.4c0.1,0,0.2-0.1,0.2-0.2c0,0,0,0,0,0"/>
<path d="M90.4,215.3h0.5v-1.6h1.5v-0.4h-1.5v-1h1.8v-0.4h-2.3V215.3L90.4,215.3z M93.6,215.3h0.4v-1.5l0-0.4l0.1-0.3l0.2-0.2
	l0.3-0.1l0.2,0l0.2,0.1l0.1,0.2l0,0.2h0.4l-0.1-0.4l-0.2-0.3l-0.3-0.2l-0.4-0.1l-0.3,0l-0.2,0.1l-0.2,0.2L94,213v-0.4h-0.4V215.3
	L93.6,215.3z M96.4,214l0.1,0.6l0.2,0.5l0.4,0.3l0.5,0.1l0.5-0.1l0.4-0.3l0.2-0.5l0.1-0.6l-0.1-0.6l-0.2-0.5l-0.4-0.3l-0.5-0.1
	l-0.5,0.1l-0.4,0.3l-0.2,0.5L96.4,214L96.4,214z M96.8,213.9l0-0.5l0.1-0.3l0.2-0.2l0.3-0.1l0.3,0.1l0.2,0.2l0.1,0.3l0.1,0.5
	l-0.1,0.5l-0.1,0.3l-0.2,0.2l-0.3,0.1l-0.3-0.1l-0.2-0.2l-0.1-0.3L96.8,213.9L96.8,213.9z M99.5,215.3h0.4v-1.6l0-0.4l0.1-0.3
	l0.2-0.2l0.3-0.1l0.2,0.1l0.2,0.1l0.1,0.2l0,0.3v1.7h0.4v-1.8l0-0.4l-0.1-0.3l-0.3-0.3l-0.5-0.1l-0.3,0l-0.2,0.1l-0.2,0.2L100,213
	v-0.4h-0.4V215.3L99.5,215.3z M103.2,213.1v1.4l0,0.4l0.1,0.3l0.3,0.2l0.5,0.1l0.5,0V215l-0.4,0l-0.3,0l-0.2-0.1l-0.1-0.2l0-0.3
	v-1.3h1v-0.4h-1v-0.8h-0.4v0.8h-0.8v0.4H103.2L103.2,213.1z M105.1,216.1v0.4h3v-0.4H105.1L105.1,216.1z M108.7,215.3h2.2v-0.4h-1.8
	v-3.1h-0.5V215.3L108.7,215.3z M112.1,214.1h1.8l0-0.2l-0.1-0.6l-0.2-0.4l-0.4-0.3l-0.5-0.1l-0.5,0.1l-0.4,0.3l-0.2,0.5l-0.1,0.6
	l0.1,0.6l0.2,0.5l0.3,0.3l0.5,0.1l0.4-0.1l0.3-0.2l0.2-0.3l0.1-0.4h-0.4l-0.1,0.2l-0.1,0.2l-0.4,0.1l-0.3-0.1l-0.2-0.2l-0.1-0.3
	L112.1,214.1L112.1,214.1L112.1,214.1z M112.1,213.7l0.1-0.3l0.1-0.3l0.2-0.2l0.3-0.1l0.3,0.1l0.2,0.2l0.1,0.3l0,0.3H112.1
	L112.1,213.7z M115.3,213.1v2.2h0.4v-2.2h1v-0.4h-1v-0.2l0-0.2l0.1-0.1l0.2-0.1l0.3,0l0.4,0v-0.4l-0.5,0l-0.4,0l-0.3,0.1l-0.2,0.2
	l-0.1,0.3v0.2h-0.8v0.4H115.3L115.3,213.1z M118.3,213.1v1.4l0,0.4l0.1,0.3l0.3,0.2l0.5,0.1l0.5,0V215l-0.4,0l-0.3,0l-0.2-0.1
	l-0.1-0.2l0-0.3v-1.3h1v-0.4h-1v-0.8h-0.4v0.8h-0.8v0.4H118.3L118.3,213.1z M120.3,216.1v0.4h3v-0.4H120.3L120.3,216.1z M123.7,214
	l0.1,0.6l0.2,0.4l0.4,0.3l0.5,0.1l0.5-0.1l0.4-0.3l0.2-0.4l0.1-0.6v-2.2h-0.5v2.2l0,0.4l-0.1,0.3l-0.2,0.2l-0.3,0.1l-0.3-0.1
	l-0.2-0.2l-0.1-0.3l0-0.4v-2.2h-0.5V214L123.7,214z M127.3,213v-0.4h-0.4v3.8h0.4v-1.5l0.2,0.2l0.2,0.2l0.4,0.1l0.4-0.1l0.3-0.3
	l0.2-0.5l0.1-0.6l-0.1-0.6l-0.2-0.5l-0.3-0.3l-0.4-0.1l-0.2,0l-0.2,0.1l-0.2,0.2L127.3,213L127.3,213z M128,215l-0.3-0.1l-0.2-0.2
	l-0.1-0.3l0-0.5l0-0.5l0.1-0.3l0.2-0.2l0.3-0.1l0.3,0.1l0.2,0.2l0.1,0.3l0.1,0.4l-0.1,0.5l-0.1,0.3l-0.2,0.2L128,215L128,215z
	 M130.3,213v-0.4h-0.4v3.8h0.4v-1.5l0.2,0.2l0.2,0.2l0.4,0.1l0.4-0.1l0.3-0.3l0.2-0.5l0.1-0.6l-0.1-0.6l-0.2-0.5l-0.3-0.3l-0.4-0.1
	l-0.2,0l-0.2,0.1l-0.2,0.2L130.3,213L130.3,213z M131,215l-0.3-0.1l-0.2-0.2l-0.1-0.3l0-0.5l0-0.5l0.1-0.3l0.2-0.2l0.3-0.1l0.3,0.1
	l0.2,0.2l0.1,0.3l0.1,0.4l-0.1,0.5l-0.1,0.3l-0.2,0.2L131,215L131,215z M133.3,214.1h1.8l0-0.2l-0.1-0.6l-0.2-0.4l-0.4-0.3l-0.5-0.1
	l-0.5,0.1l-0.4,0.3l-0.2,0.5l-0.1,0.6l0.1,0.6l0.2,0.5l0.3,0.3l0.5,0.1l0.4-0.1l0.3-0.2l0.2-0.3l0.1-0.4h-0.4l-0.1,0.2l-0.1,0.2
	L134,215l-0.3-0.1l-0.2-0.2l-0.1-0.3L133.3,214.1L133.3,214.1L133.3,214.1z M133.3,213.7l0.1-0.3l0.1-0.3l0.2-0.2l0.3-0.1l0.3,0.1
	l0.2,0.2l0.1,0.3l0,0.3H133.3L133.3,213.7z M136.1,215.3h0.4v-1.5l0-0.4l0.1-0.3l0.2-0.2l0.3-0.1l0.2,0l0.2,0.1l0.1,0.2l0,0.2h0.4
	l-0.1-0.4l-0.2-0.3l-0.3-0.2l-0.4-0.1l-0.3,0l-0.2,0.1l-0.2,0.2l-0.2,0.2v-0.4h-0.4V215.3L136.1,215.3z M141.5,215.3h0.5l0.4-1h1.4
	l0.4,1h0.5l-1.3-3.5h-0.5L141.5,215.3L141.5,215.3z M142.5,213.8l0.5-1.5l0.5,1.5H142.5L142.5,213.8z M145.5,214.2h1.2v-0.4h-1.2
	V214.2L145.5,214.2z M147.6,215.3h0.5l0.4-1h1.4l0.4,1h0.5l-1.3-3.5h-0.5L147.6,215.3L147.6,215.3z M148.6,213.8l0.5-1.5l0.5,1.5
	H148.6L148.6,213.8z M151.3,215.3h0.4v-1.5l0-0.4l0.1-0.3l0.2-0.2l0.3-0.1l0.2,0l0.2,0.1l0.1,0.2l0,0.2h0.4l-0.1-0.4l-0.2-0.3
	l-0.3-0.2l-0.4-0.1l-0.3,0l-0.2,0.1l-0.2,0.2l-0.2,0.2v-0.4h-0.4V215.3L151.3,215.3z M154,215.3h0.4v-1.8l0-0.3l0.1-0.2l0.1-0.1
	l0.2,0l0.1,0l0.1,0.1l0,0.2l0,0.2v1.9h0.4v-1.8l0-0.3l0.1-0.2l0.1-0.1l0.2,0l0.1,0l0.1,0.1l0.1,0.4v1.9h0.4v-1.9l0-0.4l-0.1-0.3
	l-0.2-0.2l-0.3-0.1l-0.3,0.1l-0.2,0.3l-0.2-0.3l-0.3-0.1l-0.3,0.1l-0.2,0.3v-0.3H154V215.3L154,215.3z M160.7,214.2h1.2v-0.4h-1.2
	V214.2L160.7,214.2z M166.3,215.3h0.5v-1.5h0.5l0.5,0l0.4-0.2l0.3-0.3l0.1-0.5l-0.1-0.4l-0.2-0.3l-0.3-0.2l-0.5-0.1h-1.2V215.3
	L166.3,215.3z M167.4,212.2l0.3,0l0.2,0.1l0.1,0.2l0,0.3l-0.1,0.3l-0.1,0.2l-0.2,0.1l-0.3,0h-0.6v-1.2H167.4L167.4,212.2z
	 M170.2,212.1v2.9h-0.9v0.4h2.3v-0.4h-0.9v-3.2h-1.1v0.4H170.2L170.2,212.1z M174,215L174,215l0,0.2l0.1,0.1l0.3,0.1l0.2,0V215
	l-0.1,0l-0.1-0.1l0-0.2v-1.4l-0.1-0.4l-0.2-0.3l-0.3-0.2l-0.4-0.1l-0.4,0.1l-0.3,0.2l-0.2,0.3l-0.1,0.4v0h0.4l0-0.2l0.1-0.2l0.2-0.1
	l0.3,0l0.2,0l0.2,0.1l0.1,0.1l0,0.2l0,0.2l-0.1,0.1l-0.2,0l-0.4,0l-0.4,0.1l-0.3,0.2l-0.2,0.3l-0.1,0.4l0.1,0.3l0.2,0.2l0.3,0.2
	l0.3,0.1l0.5-0.1L174,215L174,215z M174,214.4l-0.1,0.3l-0.2,0.2l-0.2,0.1l-0.3,0l-0.2,0l-0.1-0.1l-0.1-0.1l0-0.2l0-0.2l0.1-0.1
	l0.3-0.1l0.4-0.1l0.4-0.1V214.4L174,214.4z M177.1,213l-0.2-0.2l-0.2-0.2l-0.2-0.1l-0.2,0l-0.4,0.1l-0.3,0.3l-0.2,0.5l-0.1,0.6
	l0.1,0.6l0.2,0.5l0.3,0.3l0.4,0.1l0.2,0l0.2-0.1l0.2-0.2l0.2-0.2v1.5h0.4v-3.8h-0.4V213L177.1,213z M175.7,213.9l0-0.4l0.1-0.3
	l0.2-0.2l0.3-0.1l0.3,0.1l0.2,0.2l0.1,0.3l0.1,0.5l-0.1,0.5l-0.1,0.3l-0.2,0.2l-0.3,0.1l-0.3-0.1l-0.2-0.2l-0.1-0.3L175.7,213.9
	L175.7,213.9z M180.6,212.6h-0.4v1.6l-0.1,0.4l-0.1,0.3l-0.2,0.2l-0.3,0.1l-0.2,0l-0.2-0.1l-0.1-0.2l0-0.3v-1.7h-0.4v1.8l0,0.4
	l0.1,0.3l0.3,0.3l0.5,0.1l0.3,0l0.2-0.1l0.2-0.2l0.2-0.2v0.4h0.4V212.6L180.6,212.6z M181.9,214.1h1.8l0-0.2l-0.1-0.6l-0.2-0.4
	l-0.4-0.3l-0.5-0.1l-0.5,0.1l-0.4,0.3l-0.2,0.5l-0.1,0.6l0.1,0.6l0.2,0.5l0.3,0.3l0.5,0.1l0.4-0.1l0.3-0.2l0.2-0.3l0.1-0.4h-0.4
	l-0.1,0.2l-0.1,0.2l-0.4,0.1l-0.3-0.1l-0.2-0.2l-0.1-0.3L181.9,214.1L181.9,214.1L181.9,214.1z M181.9,213.7l0.1-0.3l0.1-0.3
	l0.2-0.2l0.3-0.1l0.3,0.1l0.2,0.2l0.1,0.3l0,0.3H181.9L181.9,213.7z M189.2,214.9v0.4h0.4v-3.6h-0.4v1.3l-0.3-0.4l-0.2-0.1l-0.2,0
	l-0.4,0.1l-0.3,0.3l-0.2,0.5l-0.1,0.6l0.1,0.6l0.2,0.5l0.3,0.3l0.4,0.1l0.2,0l0.2-0.1L189.2,214.9L189.2,214.9z M188.5,212.9
	l0.3,0.1l0.2,0.2l0.1,0.3l0.1,0.5l-0.1,0.5l-0.1,0.3l-0.2,0.2l-0.3,0.1l-0.3-0.1l-0.2-0.2l-0.1-0.3l0-0.5l0-0.4l0.1-0.3l0.2-0.2
	L188.5,212.9L188.5,212.9z M192.7,212.6h-0.4v1.6l-0.1,0.4l-0.1,0.3l-0.2,0.2l-0.3,0.1l-0.2,0l-0.2-0.1l-0.1-0.2l0-0.3v-1.7h-0.4
	v1.8l0,0.4l0.1,0.3l0.3,0.3l0.5,0.1l0.3,0l0.2-0.1l0.2-0.2l0.2-0.2v0.4h0.4V212.6L192.7,212.6z M196.6,215.3h0.5v-1.6h1.4v1.6h0.5
	v-3.5h-0.5v1.4H197v-1.4h-0.5V215.3L196.6,215.3z M201.3,215L201.3,215l0,0.2l0.1,0.1l0.3,0.1l0.2,0V215l-0.1,0l-0.1-0.1l0-0.2v-1.4
	l-0.1-0.4l-0.2-0.3l-0.3-0.2l-0.4-0.1l-0.4,0.1l-0.3,0.2l-0.2,0.3l-0.1,0.4v0h0.4l0-0.2l0.1-0.2l0.2-0.1l0.3,0l0.2,0l0.2,0.1
	l0.1,0.1l0,0.2l0,0.2l-0.1,0.1l-0.2,0l-0.4,0l-0.4,0.1l-0.3,0.2l-0.2,0.3l-0.1,0.4l0.1,0.3l0.2,0.2l0.3,0.2l0.3,0.1l0.5-0.1
	L201.3,215L201.3,215z M201.3,214.4l-0.1,0.3l-0.2,0.2l-0.2,0.1l-0.3,0l-0.2,0l-0.1-0.1l-0.1-0.1l0-0.2l0-0.2l0.1-0.1l0.3-0.1
	l0.4-0.1l0.4-0.1V214.4L201.3,214.4z M204.8,212.6h-0.4v1.6l0,0.4l-0.1,0.3l-0.2,0.2l-0.3,0.1l-0.2,0l-0.2-0.1l-0.1-0.2l0-0.3v-1.7
	h-0.4v1.8l0,0.4l0.1,0.3l0.3,0.3l0.5,0.1l0.3,0l0.2-0.1l0.2-0.2l0.2-0.2v0.4h0.4V212.6L204.8,212.6z M206.4,213.1v1.4l0,0.4l0.1,0.3
	l0.3,0.2l0.5,0.1l0.5,0V215l-0.4,0l-0.3,0l-0.2-0.1l-0.1-0.2l0-0.3v-1.3h1v-0.4h-1v-0.8h-0.4v0.8h-0.8v0.4H206.4L206.4,213.1z"/>
<path d="M458.6,224.7h0.5v-1.6h1.5v-0.4H459v-1h1.8v-0.4h-2.3V224.7L458.6,224.7z M461.8,224.7h0.4v-1.5l0-0.4l0.1-0.3l0.2-0.2
	l0.3-0.1l0.2,0l0.2,0.1l0.1,0.2l0,0.2h0.4l-0.1-0.4l-0.2-0.3l-0.3-0.2l-0.4-0.1l-0.3,0l-0.2,0.1l-0.2,0.2l-0.2,0.2V222h-0.4V224.7
	L461.8,224.7z M464.5,223.3l0.1,0.6l0.2,0.5l0.4,0.3l0.5,0.1l0.5-0.1l0.4-0.3l0.2-0.5l0.1-0.6l-0.1-0.6l-0.2-0.5l-0.4-0.3l-0.5-0.1
	l-0.5,0.1l-0.4,0.3l-0.2,0.5L464.5,223.3L464.5,223.3z M464.9,223.3l0-0.5l0.1-0.3l0.2-0.2l0.3-0.1l0.3,0.1l0.2,0.2l0.1,0.3l0,0.5
	l0,0.5l-0.1,0.3l-0.2,0.2l-0.3,0.1l-0.3-0.1l-0.2-0.2l-0.1-0.3L464.9,223.3L464.9,223.3z M467.7,224.7h0.4v-1.6l0-0.4l0.1-0.3
	l0.2-0.2l0.3-0.1l0.2,0l0.2,0.1l0.1,0.2l0,0.3v1.7h0.4v-1.8l0-0.4l-0.1-0.3l-0.3-0.3l-0.5-0.1l-0.3,0l-0.2,0.1l-0.2,0.2l-0.1,0.2
	V222h-0.4V224.7L467.7,224.7z M471.3,222.4v1.4l0,0.4l0.1,0.3l0.3,0.2l0.5,0.1l0.5,0v-0.4l-0.4,0l-0.3,0l-0.2-0.1l-0.1-0.2l0-0.3
	v-1.3h1v-0.4h-1v-0.8h-0.4v0.8h-0.8v0.4H471.3L471.3,222.4z M473.3,225.5v0.4h3v-0.4H473.3L473.3,225.5z M476.8,224.7h2.2v-0.4h-1.8
	v-3.1h-0.5V224.7L476.8,224.7z M480.2,223.5h1.8l0-0.2l-0.1-0.6l-0.2-0.4l-0.4-0.3l-0.5-0.1l-0.5,0.1l-0.4,0.3l-0.2,0.5l-0.1,0.6
	l0.1,0.6l0.2,0.5l0.3,0.3l0.5,0.1l0.4-0.1l0.3-0.2l0.2-0.3l0.1-0.4h-0.4l-0.1,0.2l-0.1,0.2l-0.4,0.1l-0.3-0.1l-0.2-0.2l-0.1-0.3
	L480.2,223.5L480.2,223.5L480.2,223.5z M480.2,223.1l0.1-0.3l0.1-0.3l0.2-0.2l0.3-0.1l0.3,0.1l0.2,0.2l0.1,0.3l0,0.3H480.2
	L480.2,223.1z M483.5,222.4v2.2h0.4v-2.2h1v-0.4h-1v-0.2l0-0.2l0.1-0.1l0.2-0.1l0.3,0l0.4,0v-0.4l-0.5,0l-0.4,0l-0.3,0.1l-0.2,0.2
	l-0.1,0.3v0.2h-0.8v0.4H483.5L483.5,222.4z M486.5,222.4v1.4l0,0.4l0.1,0.3l0.3,0.2l0.5,0.1l0.5,0v-0.4l-0.4,0l-0.3,0l-0.2-0.1
	l-0.1-0.2l0-0.3v-1.3h1v-0.4h-1v-0.8h-0.4v0.8h-0.8v0.4H486.5L486.5,222.4z M488.4,225.5v0.4h3v-0.4H488.4L488.4,225.5z
	 M491.8,223.4l0.1,0.6l0.2,0.4l0.4,0.3l0.5,0.1l0.5-0.1l0.4-0.3l0.2-0.4l0.1-0.6v-2.2h-0.5v2.2l0,0.4l-0.1,0.3l-0.2,0.2l-0.3,0.1
	l-0.3-0.1l-0.2-0.2l-0.1-0.3l0-0.4v-2.2h-0.5V223.4L491.8,223.4z M495.4,222.4V222H495v3.8h0.4v-1.5l0.2,0.2l0.2,0.2l0.4,0.1
	l0.4-0.1l0.3-0.3l0.2-0.5l0.1-0.6l-0.1-0.6l-0.2-0.5l-0.3-0.3l-0.4-0.1l-0.2,0l-0.2,0.1l-0.2,0.2L495.4,222.4L495.4,222.4z
	 M496.1,224.4l-0.3-0.1l-0.2-0.2l-0.1-0.3l0-0.5l0-0.5l0.1-0.3l0.2-0.2l0.3-0.1l0.3,0.1l0.2,0.2l0.1,0.3l0.1,0.4l-0.1,0.5l-0.1,0.3
	l-0.2,0.2L496.1,224.4L496.1,224.4z M498.4,222.4V222H498v3.8h0.4v-1.5l0.2,0.2l0.2,0.2l0.4,0.1l0.4-0.1l0.3-0.3l0.2-0.5l0.1-0.6
	l-0.1-0.6l-0.2-0.5l-0.3-0.3l-0.4-0.1l-0.2,0l-0.2,0.1l-0.2,0.2L498.4,222.4L498.4,222.4z M499.1,224.4l-0.3-0.1l-0.2-0.2l-0.1-0.3
	l0-0.5l0-0.5l0.1-0.3l0.2-0.2l0.3-0.1l0.3,0.1l0.2,0.2l0.1,0.3l0,0.4l0,0.5l-0.1,0.3l-0.2,0.2L499.1,224.4L499.1,224.4z
	 M501.4,223.5h1.8l0-0.2l-0.1-0.6l-0.2-0.4l-0.4-0.3l-0.5-0.1l-0.5,0.1l-0.4,0.3l-0.2,0.5l-0.1,0.6l0.1,0.6l0.2,0.5l0.3,0.3l0.5,0.1
	l0.4-0.1l0.3-0.2l0.2-0.3l0.1-0.4h-0.4l-0.1,0.2l-0.1,0.2l-0.4,0.1l-0.3-0.1l-0.2-0.2l-0.1-0.3L501.4,223.5L501.4,223.5L501.4,223.5
	z M501.4,223.1l0.1-0.3l0.1-0.3l0.2-0.2l0.3-0.1l0.3,0.1l0.2,0.2l0.1,0.3l0,0.3H501.4L501.4,223.1z M504.3,224.7h0.4v-1.5l0-0.4
	l0.1-0.3l0.2-0.2l0.3-0.1l0.2,0l0.2,0.1l0.1,0.2l0,0.2h0.4l-0.1-0.4l-0.2-0.3l-0.3-0.2l-0.4-0.1l-0.3,0L505,222l-0.2,0.2l-0.2,0.2
	V222h-0.4V224.7L504.3,224.7z M509.7,224.7h0.5l0.4-1h1.4l0.4,1h0.5l-1.3-3.5H511L509.7,224.7L509.7,224.7z M510.7,223.2l0.5-1.5
	l0.5,1.5H510.7L510.7,223.2z M513.6,223.5h1.2v-0.4h-1.2V223.5L513.6,223.5z M515.7,224.7h0.5l0.4-1h1.4l0.4,1h0.5l-1.3-3.5H517
	L515.7,224.7L515.7,224.7z M516.7,223.2l0.5-1.5l0.5,1.5H516.7L516.7,223.2z M519.4,224.7h0.4v-1.5l0-0.4l0.1-0.3l0.2-0.2l0.3-0.1
	l0.2,0l0.2,0.1l0.1,0.2l0,0.2h0.4l-0.1-0.4l-0.2-0.3l-0.3-0.2l-0.4-0.1l-0.3,0l-0.2,0.1l-0.2,0.2l-0.2,0.2V222h-0.4V224.7
	L519.4,224.7z M522.1,224.7h0.4v-1.8l0-0.3l0.1-0.2l0.1-0.1l0.2,0l0.1,0l0.1,0.1l0,0.2l0,0.2v1.9h0.4v-1.8l0-0.3l0.1-0.2l0.1-0.1
	l0.2,0l0.1,0l0.1,0.1l0.1,0.4v1.9h0.4v-1.9l0-0.4l-0.1-0.3l-0.2-0.2l-0.3-0.1l-0.3,0.1l-0.2,0.3l-0.2-0.3l-0.3-0.1l-0.3,0.1
	l-0.2,0.3V222h-0.4V224.7L522.1,224.7z M528.8,223.5h1.2v-0.4h-1.2V223.5L528.8,223.5z M534.4,224.7h0.5v-1.5h0.5l0.5,0l0.4-0.2
	l0.3-0.3l0.1-0.5l-0.1-0.4l-0.2-0.3l-0.3-0.2l-0.5-0.1h-1.2V224.7L534.4,224.7z M535.5,221.6l0.3,0l0.2,0.1l0.1,0.2l0,0.3l0,0.3
	l-0.1,0.2l-0.2,0.1l-0.3,0h-0.6v-1.2H535.5L535.5,221.6z M538.4,221.4v2.9h-0.9v0.4h2.3v-0.4h-0.9v-3.2h-1.1v0.4H538.4L538.4,221.4z
	 M542.1,224.3L542.1,224.3l0,0.2l0.1,0.1l0.3,0.1l0.2,0v-0.3l-0.1,0l-0.1-0.1l0-0.2v-1.4l-0.1-0.4l-0.2-0.3l-0.3-0.2l-0.4-0.1
	l-0.4,0.1l-0.3,0.2l-0.2,0.3l-0.1,0.4v0h0.4l0-0.2l0.1-0.2l0.2-0.1l0.3,0l0.2,0l0.2,0.1l0.1,0.1l0,0.2l0,0.2L542,223l-0.2,0.1
	l-0.4,0l-0.4,0.1l-0.3,0.2l-0.2,0.3l-0.1,0.4l0.1,0.3l0.2,0.2l0.3,0.2l0.3,0.1l0.5-0.1L542.1,224.3L542.1,224.3z M542.1,223.7
	L542,224l-0.2,0.2l-0.2,0.1l-0.3,0l-0.2,0l-0.1-0.1l-0.1-0.1l0-0.2l0-0.2l0.1-0.1l0.3-0.1l0.4-0.1l0.4-0.1V223.7L542.1,223.7z
	 M545.2,222.4l-0.2-0.2l-0.2-0.2l-0.2-0.1l-0.2,0L544,222l-0.3,0.3l-0.2,0.5l-0.1,0.6l0.1,0.6l0.2,0.5l0.3,0.3l0.4,0.1l0.2,0
	l0.2-0.1l0.2-0.2l0.2-0.2v1.5h0.4V222h-0.4V222.4L545.2,222.4z M543.8,223.3l0-0.4l0.1-0.3l0.2-0.2l0.3-0.1l0.3,0.1l0.2,0.2l0.1,0.3
	l0,0.5l0,0.5l-0.1,0.3l-0.2,0.2l-0.3,0.1l-0.3-0.1l-0.2-0.2l-0.1-0.3L543.8,223.3L543.8,223.3z M548.7,222h-0.4v1.6l0,0.4l-0.1,0.3
	l-0.2,0.2l-0.3,0.1l-0.2,0l-0.2-0.1L547,224l0-0.3V222h-0.4v1.8l0,0.4l0.1,0.3l0.3,0.3l0.5,0.1l0.3,0l0.2-0.1l0.2-0.2l0.2-0.2v0.4
	h0.4V222L548.7,222z M550,223.5h1.8l0-0.2l-0.1-0.6l-0.2-0.4l-0.4-0.3l-0.5-0.1l-0.5,0.1l-0.4,0.3l-0.2,0.5l-0.1,0.6l0.1,0.6
	l0.2,0.5l0.3,0.3l0.5,0.1l0.4-0.1l0.3-0.2l0.2-0.3l0.1-0.4h-0.4l-0.1,0.2l-0.1,0.2l-0.4,0.1l-0.3-0.1l-0.2-0.2l-0.1-0.3L550,223.5
	L550,223.5L550,223.5z M550,223.1l0.1-0.3l0.1-0.3l0.2-0.2l0.3-0.1l0.3,0.1l0.2,0.2l0.1,0.3l0,0.3H550L550,223.1z M557.4,224.3v0.4
	h0.4v-3.6h-0.4v1.3L557,222l-0.2-0.1l-0.2,0l-0.4,0.1l-0.3,0.3l-0.2,0.5l-0.1,0.6l0.1,0.6l0.2,0.5l0.3,0.3l0.4,0.1l0.2,0l0.2-0.1
	L557.4,224.3L557.4,224.3z M556.7,222.3l0.3,0.1l0.2,0.2l0.1,0.3l0.1,0.5l-0.1,0.5l-0.1,0.3l-0.2,0.2l-0.3,0.1l-0.3-0.1l-0.2-0.2
	l-0.1-0.3l0-0.5l0-0.4l0.1-0.3l0.2-0.2L556.7,222.3L556.7,222.3z M560.8,222h-0.4v1.6l0,0.4l-0.1,0.3l-0.2,0.2l-0.3,0.1l-0.2,0
	l-0.2-0.1l-0.1-0.2l0-0.3V222h-0.4v1.8l0,0.4l0.1,0.3l0.3,0.3l0.5,0.1l0.3,0l0.2-0.1l0.2-0.2l0.2-0.2v0.4h0.4V222L560.8,222z
	 M566.5,222.8l0.4-0.3l0.1-0.2l0-0.2l-0.1-0.4l-0.2-0.3l-0.3-0.2l-0.4-0.1h-1.2v3.5h1.3l0.5-0.1l0.3-0.2l0.2-0.3l0.1-0.4l0-0.3
	l-0.1-0.2l-0.2-0.2L566.5,222.8L566.5,222.8z M565.8,222.6h-0.7v-1h0.7l0.3,0l0.2,0.1l0.1,0.2l0,0.2l0,0.2l-0.1,0.2l-0.2,0.1
	L565.8,222.6L565.8,222.6z M566,224.3h-0.8v-1.2h0.8l0.3,0l0.2,0.1l0.1,0.2l0,0.3l0,0.3l-0.1,0.2l-0.2,0.1L566,224.3L566,224.3z
	 M569.5,224.3L569.5,224.3l0,0.2l0.1,0.1l0.3,0.1l0.2,0v-0.3l-0.1,0l-0.1-0.1l0-0.2v-1.4l-0.1-0.4l-0.2-0.3l-0.3-0.2l-0.4-0.1
	l-0.4,0.1l-0.3,0.2l-0.2,0.3l-0.1,0.4v0h0.4l0-0.2l0.1-0.2l0.2-0.1l0.3,0l0.2,0l0.2,0.1l0.1,0.1l0,0.2l0,0.2l-0.1,0.1l-0.2,0.1
	l-0.4,0l-0.4,0.1l-0.3,0.2l-0.2,0.3l-0.1,0.4l0,0.3l0.2,0.2l0.3,0.2l0.3,0.1l0.5-0.1L569.5,224.3L569.5,224.3z M569.4,223.7
	l-0.1,0.3l-0.2,0.2l-0.2,0.1l-0.3,0l-0.2,0l-0.1-0.1l-0.1-0.1l0-0.2l0-0.2l0.1-0.1l0.3-0.1l0.4-0.1l0.4-0.1V223.7L569.4,223.7z
	 M572.2,223.1l-0.4-0.1l-0.3-0.1l-0.1-0.2l0-0.2l0.1-0.1l0.2-0.1l0.2,0l0.2,0l0.2,0.1l0.1,0.1l0,0.2h0.4v0l-0.1-0.3l-0.2-0.3
	l-0.3-0.2l-0.4-0.1l-0.4,0.1l-0.3,0.2l-0.2,0.2l-0.1,0.3l0,0.3l0.1,0.2l0.2,0.2l0.3,0.1l0.5,0.1l0.3,0.1l0.1,0.1l0,0.2l0,0.2
	l-0.1,0.1l-0.2,0.1l-0.3,0l-0.3,0l-0.2-0.1l-0.1-0.2l-0.1-0.2h-0.4l0.1,0.4l0.2,0.3l0.3,0.2l0.5,0.1l0.5-0.1l0.3-0.2l0.2-0.3
	l0.1-0.4l-0.1-0.3l-0.2-0.2l-0.3-0.1L572.2,223.1L572.2,223.1z"/>
<path d="M751.8,90h0.3v-0.9h0.8v-0.2H752v-0.6h1V88h-1.3V90L751.8,90z M753.6,90h0.3v-0.9l0-0.2l0.1-0.2l0.1-0.1l0.2,0l0.1,0
	l0.1,0.1l0.1,0.1l0,0.1h0.3l0-0.2l-0.1-0.2l-0.2-0.1l-0.2,0l-0.1,0l-0.1,0.1l-0.1,0.1l-0.1,0.1v-0.3h-0.2V90L753.6,90z M755.1,89.2
	l0,0.4l0.1,0.3l0.2,0.2l0.3,0.1l0.3-0.1l0.2-0.2l0.1-0.3l0-0.4l0-0.4l-0.1-0.3l-0.2-0.2l-0.3-0.1l-0.3,0.1l-0.2,0.2l-0.1,0.3
	L755.1,89.2L755.1,89.2z M755.4,89.2l0-0.3l0.1-0.2l0.1-0.1l0.2,0l0.2,0l0.1,0.1l0.1,0.2l0,0.3l0,0.3l-0.1,0.2l-0.1,0.1l-0.2,0
	l-0.2,0l-0.1-0.1l-0.1-0.2L755.4,89.2L755.4,89.2z M757,90h0.3v-0.9l0-0.2l0.1-0.1l0.1-0.1l0.2,0l0.1,0l0.1,0.1l0,0.1l0,0.2v1h0.3
	v-1l0-0.2l-0.1-0.2l-0.2-0.2l-0.3-0.1l-0.1,0l-0.1,0.1l-0.1,0.1l-0.1,0.1v-0.2H757V90L757,90z M759,88.7v0.8l0,0.3l0.1,0.2l0.2,0.1
	l0.3,0l0.3,0v-0.2l-0.2,0l-0.2,0l-0.1-0.1l0-0.1l0-0.2v-0.7h0.6v-0.2h-0.6V88H759v0.5h-0.4v0.2H759L759,88.7z M760.2,90.5v0.2h1.7
	v-0.2H760.2L760.2,90.5z M762.2,90h1.3v-0.2h-1V88h-0.3V90L762.2,90z M764.1,89.3h1l0-0.1l0-0.3l-0.1-0.2l-0.2-0.1l-0.3-0.1
	l-0.3,0.1l-0.2,0.2l-0.1,0.3l0,0.3l0,0.4l0.1,0.3l0.2,0.2l0.3,0.1l0.2,0l0.2-0.1l0.1-0.2l0.1-0.2h-0.3l-0.1,0.1l-0.1,0.1l-0.2,0.1
	l-0.2,0l-0.1-0.1l-0.1-0.2L764.1,89.3L764.1,89.3L764.1,89.3z M764.1,89.1l0-0.2l0.1-0.1l0.1-0.1l0.2,0l0.2,0l0.1,0.1l0.1,0.1l0,0.2
	H764.1L764.1,89.1z M766,88.7V90h0.3v-1.3h0.6v-0.2h-0.6v-0.1l0-0.1l0.1-0.1l0.1,0l0.2,0l0.2,0v-0.2l-0.3,0l-0.2,0l-0.2,0.1
	l-0.1,0.1l0,0.2v0.1h-0.5v0.2H766L766,88.7z M767.7,88.7v0.8l0,0.3l0.1,0.2L768,90l0.3,0l0.3,0v-0.2l-0.2,0l-0.2,0l-0.1-0.1l0-0.1
	l0-0.2v-0.7h0.6v-0.2H768V88h-0.3v0.5h-0.4v0.2H767.7L767.7,88.7z M768.8,90.5v0.2h1.7v-0.2H768.8L768.8,90.5z M770.7,89.2l0,0.4
	l0.1,0.3l0.2,0.1l0.3,0.1l0.3-0.1l0.2-0.1l0.1-0.3l0-0.4V88h-0.3v1.3l0,0.2l-0.1,0.2l-0.1,0.1l-0.2,0l-0.2,0l-0.1-0.1l-0.1-0.2
	l0-0.2V88h-0.3V89.2L770.7,89.2z M772.8,88.7v-0.2h-0.3v2.1h0.3v-0.8l0.1,0.1L773,90l0.3,0.1l0.2-0.1l0.2-0.2l0.1-0.3l0-0.4l0-0.3
	l-0.1-0.3l-0.2-0.2l-0.2-0.1l-0.1,0l-0.1,0.1l-0.1,0.1L772.8,88.7L772.8,88.7z M773.2,89.8l-0.2,0l-0.1-0.1l-0.1-0.2l0-0.3l0-0.3
	l0.1-0.2l0.1-0.1l0.2,0l0.2,0l0.1,0.1l0.1,0.2l0,0.3l0,0.3l-0.1,0.2l-0.1,0.1L773.2,89.8L773.2,89.8z M774.5,88.7v-0.2h-0.3v2.1h0.3
	v-0.8l0.1,0.1l0.1,0.1L775,90l0.2-0.1l0.2-0.2l0.1-0.3l0-0.4l0-0.3l-0.1-0.3l-0.2-0.2l-0.2-0.1l-0.1,0l-0.1,0.1l-0.1,0.1L774.5,88.7
	L774.5,88.7z M774.9,89.8l-0.2,0l-0.1-0.1l-0.1-0.2l0-0.3l0-0.3l0.1-0.2l0.1-0.1l0.2,0l0.2,0l0.1,0.1l0.1,0.2l0,0.3l0,0.3l-0.1,0.2
	l-0.1,0.1L774.9,89.8L774.9,89.8z M776.3,89.3h1l0-0.1l0-0.3l-0.1-0.2l-0.2-0.1l-0.3-0.1l-0.3,0.1l-0.2,0.2l-0.1,0.3l0,0.3l0,0.4
	l0.1,0.3l0.2,0.2l0.3,0.1l0.2,0l0.2-0.1l0.1-0.2l0.1-0.2H777l-0.1,0.1l-0.1,0.1l-0.2,0.1l-0.2,0l-0.1-0.1l-0.1-0.2L776.3,89.3
	L776.3,89.3L776.3,89.3z M776.3,89.1l0-0.2l0.1-0.1l0.1-0.1l0.2,0l0.2,0l0.1,0.1l0.1,0.1l0,0.2H776.3L776.3,89.1z M777.9,90h0.3
	v-0.9l0-0.2l0.1-0.2l0.1-0.1l0.2,0l0.1,0l0.1,0.1l0.1,0.1l0,0.1h0.3l0-0.2l-0.1-0.2l-0.2-0.1l-0.2,0l-0.1,0l-0.1,0.1l-0.1,0.1
	l-0.1,0.1v-0.3h-0.2V90L777.9,90z M781,90h0.3l0.2-0.6h0.8l0.2,0.6h0.3l-0.7-2h-0.3L781,90L781,90z M781.5,89.2l0.3-0.9l0.3,0.9
	H781.5L781.5,89.2z M783.2,89.3h0.7v-0.2h-0.7V89.3L783.2,89.3z M784.4,90h0.3l0.2-0.6h0.8l0.2,0.6h0.3l-0.7-2h-0.3L784.4,90
	L784.4,90z M785,89.2l0.3-0.9l0.3,0.9H785L785,89.2z M786.5,90h0.3v-0.9l0-0.2l0.1-0.2l0.1-0.1l0.2,0l0.1,0l0.1,0.1l0.1,0.1l0,0.1
	h0.3l0-0.2l-0.1-0.2l-0.2-0.1l-0.2,0l-0.1,0l-0.1,0.1l-0.1,0.1l-0.1,0.1v-0.3h-0.2V90L786.5,90z M788.1,90h0.2v-1l0-0.2l0-0.1
	l0.1-0.1l0.1,0l0.1,0l0,0.1l0,0.1l0,0.1V90h0.2v-1l0-0.2l0-0.1l0.1-0.1l0.1,0l0.1,0l0,0.1l0,0.2V90h0.2v-1.1l0-0.2l0-0.2l-0.1-0.1
	l-0.1,0l-0.2,0.1l-0.1,0.2l-0.1-0.2l-0.2-0.1l-0.2,0.1l-0.1,0.2v-0.2h-0.2V90L788.1,90z"/>
<path d="M765.6,93.4h1.3v-0.2h-1v-0.7h0.9v-0.2h-0.9v-0.6h1v-0.2h-1.2V93.4L765.6,93.4z M767.1,93.9v0.2h1.7v-0.2H767.1L767.1,93.9z
	 M768.8,93.4h0.3l0.2-0.6h0.8l0.2,0.6h0.3l-0.7-2h-0.3L768.8,93.4L768.8,93.4z M769.4,92.6l0.3-0.9l0.3,0.9H769.4L769.4,92.6z
	 M771.3,93.4h0.3l0.6-1.5h-0.3l-0.4,1.2l-0.4-1.2h-0.3L771.3,93.4L771.3,93.4z M773.5,93.2L773.5,93.2l0,0.1l0,0.1l0.2,0.1l0.1,0
	v-0.2l-0.1,0l-0.1,0l0-0.1v-0.8l0-0.2l-0.1-0.1l-0.2-0.1l-0.2,0l-0.2,0l-0.2,0.1l-0.1,0.2l0,0.2v0h0.2l0-0.1l0.1-0.1l0.1-0.1l0.1,0
	l0.1,0l0.1,0l0.1,0.1l0,0.1l0,0.1l0,0.1l-0.1,0l-0.2,0l-0.2,0.1l-0.2,0.1l-0.1,0.1l0,0.2l0,0.2l0.1,0.1l0.1,0.1l0.2,0l0.3-0.1
	L773.5,93.2L773.5,93.2z M773.5,92.9l0,0.1l-0.1,0.1l-0.1,0.1l-0.2,0l-0.1,0l-0.1,0l0-0.1l0-0.1l0-0.1l0-0.1l0.2-0.1l0.2,0l0.2-0.1
	V92.9L773.5,92.9z M774.3,93.4h0.3v-0.9l0-0.2l0.1-0.1l0.1-0.1l0.2,0l0.1,0l0.1,0.1l0,0.1l0,0.2v1h0.3v-1l0-0.2l-0.1-0.2l-0.2-0.2
	l-0.3-0.1l-0.1,0l-0.1,0.1l-0.1,0.1l-0.1,0.1v-0.2h-0.2V93.4L774.3,93.4z M776.4,92.2v0.8l0,0.3l0.1,0.2l0.2,0.1l0.3,0l0.3,0v-0.2
	l-0.2,0l-0.2,0l-0.1-0.1l0-0.1l0-0.2v-0.7h0.6v-0.2h-0.6v-0.5h-0.3v0.5h-0.4v0.2H776.4L776.4,92.2z"/>
<path d="M754.5,175.6h0.3v-0.9h0.8v-0.2h-0.8v-0.6h1v-0.2h-1.3V175.6L754.5,175.6z M756.3,175.6h0.3v-0.9l0-0.2l0.1-0.2l0.1-0.1
	l0.2,0l0.1,0l0.1,0.1l0.1,0.1l0,0.1h0.3l0-0.2l-0.1-0.2l-0.2-0.1l-0.2,0l-0.1,0l-0.1,0.1l-0.1,0.1l-0.1,0.1v-0.3h-0.2V175.6
	L756.3,175.6z M757.9,174.8l0,0.4l0.1,0.3l0.2,0.2l0.3,0.1l0.3-0.1l0.2-0.2l0.1-0.3l0-0.4l0-0.4l-0.1-0.3l-0.2-0.2l-0.3-0.1
	l-0.3,0.1l-0.2,0.2l-0.1,0.3L757.9,174.8L757.9,174.8z M758.2,174.8l0-0.3l0.1-0.2l0.1-0.1l0.2,0l0.2,0l0.1,0.1l0.1,0.2l0,0.3l0,0.3
	l-0.1,0.2l-0.1,0.1l-0.2,0l-0.2,0l-0.1-0.1l-0.1-0.2L758.2,174.8L758.2,174.8z M759.7,175.6h0.3v-0.9l0-0.2l0.1-0.1l0.1-0.1l0.2,0
	l0.1,0l0.1,0.1l0,0.1l0,0.2v1h0.3v-1l0-0.2l-0.1-0.2l-0.2-0.2l-0.3-0.1l-0.1,0l-0.1,0.1l-0.1,0.1l-0.1,0.1v-0.2h-0.2V175.6
	L759.7,175.6z M761.8,174.3v0.8l0,0.3l0.1,0.2l0.2,0.1l0.3,0l0.3,0v-0.2l-0.2,0l-0.2,0l-0.1-0.1l0-0.1l0-0.2v-0.7h0.6v-0.2H762v-0.5
	h-0.3v0.5h-0.4v0.2H761.8L761.8,174.3z M762.9,176.1v0.2h1.7v-0.2H762.9L762.9,176.1z M764.9,175.6h1.3v-0.2h-1v-1.8h-0.3V175.6
	L764.9,175.6z M766.9,174.9h1l0-0.1l0-0.3l-0.1-0.2l-0.2-0.1l-0.3-0.1l-0.3,0.1l-0.2,0.2l-0.1,0.3l0,0.3l0,0.4l0.1,0.3l0.2,0.2
	l0.3,0.1l0.2,0l0.2-0.1l0.1-0.2l0.1-0.2h-0.3l-0.1,0.1l-0.1,0.1l-0.2,0.1l-0.2,0l-0.1-0.1l-0.1-0.2L766.9,174.9L766.9,174.9
	L766.9,174.9z M766.9,174.7l0-0.2l0.1-0.1l0.1-0.1l0.2,0l0.2,0l0.1,0.1l0.1,0.1l0,0.2H766.9L766.9,174.7z M768.7,174.3v1.3h0.3v-1.3
	h0.6v-0.2H769V174l0-0.1l0.1-0.1l0.1,0l0.2,0l0.2,0v-0.2l-0.3,0l-0.2,0l-0.2,0.1l-0.1,0.1l0,0.2v0.1h-0.5v0.2H768.7L768.7,174.3z
	 M770.5,174.3v0.8l0,0.3l0.1,0.2l0.2,0.1l0.3,0l0.3,0v-0.2l-0.2,0l-0.2,0l-0.1-0.1l0-0.1l0-0.2v-0.7h0.6v-0.2h-0.6v-0.5h-0.3v0.5
	H770v0.2H770.5L770.5,174.3z M771.6,176.1v0.2h1.7v-0.2H771.6L771.6,176.1z M773.5,174.8l0,0.4l0.1,0.3l0.2,0.1l0.3,0.1l0.3-0.1
	l0.2-0.1l0.1-0.3l0-0.4v-1.2h-0.3v1.3l0,0.2l-0.1,0.2l-0.1,0.1l-0.2,0l-0.2,0l-0.1-0.1l-0.1-0.2l0-0.2v-1.3h-0.3V174.8L773.5,174.8z
	 M775.6,174.3v-0.2h-0.3v2.1h0.3v-0.8l0.1,0.1l0.1,0.1l0.3,0.1l0.2-0.1l0.2-0.2l0.1-0.3l0-0.4l0-0.3l-0.1-0.3l-0.2-0.2L776,174
	l-0.1,0l-0.1,0.1l-0.1,0.1L775.6,174.3L775.6,174.3z M776,175.4l-0.2,0l-0.1-0.1l-0.1-0.2l0-0.3l0-0.3l0.1-0.2l0.1-0.1l0.2,0l0.2,0
	l0.1,0.1l0.1,0.2l0,0.3l0,0.3l-0.1,0.2l-0.1,0.1L776,175.4L776,175.4z M777.3,174.3v-0.2H777v2.1h0.3v-0.8l0.1,0.1l0.1,0.1l0.3,0.1
	l0.2-0.1l0.2-0.2l0.1-0.3l0-0.4l0-0.3l-0.1-0.3l-0.2-0.2l-0.2-0.1l-0.1,0l-0.1,0.1l-0.1,0.1L777.3,174.3L777.3,174.3z M777.7,175.4
	l-0.2,0l-0.1-0.1l-0.1-0.2l0-0.3l0-0.3l0.1-0.2l0.1-0.1l0.2,0l0.2,0l0.1,0.1l0.1,0.2l0,0.3l0,0.3l-0.1,0.2l-0.1,0.1L777.7,175.4
	L777.7,175.4z M779,174.9h1l0-0.1l0-0.3l-0.1-0.2l-0.2-0.1l-0.3-0.1l-0.3,0.1l-0.2,0.2l-0.1,0.3l0,0.3l0,0.4l0.1,0.3l0.2,0.2
	l0.3,0.1l0.2,0l0.2-0.1l0.1-0.2l0.1-0.2h-0.3l-0.1,0.1l-0.1,0.1l-0.2,0.1l-0.2,0l-0.1-0.1l-0.1-0.2L779,174.9L779,174.9L779,174.9z
	 M779,174.7l0-0.2l0.1-0.1l0.1-0.1l0.2,0l0.2,0l0.1,0.1l0.1,0.1l0,0.2H779L779,174.7z M780.6,175.6h0.3v-0.9l0-0.2l0.1-0.2l0.1-0.1
	l0.2,0l0.1,0l0.1,0.1l0.1,0.1l0,0.1h0.3l0-0.2l-0.1-0.2l-0.2-0.1l-0.2,0l-0.1,0l-0.1,0.1l-0.1,0.1l-0.1,0.1v-0.3h-0.2V175.6
	L780.6,175.6z M783.7,175.6h0.3l0.2-0.6h0.8l0.2,0.6h0.3l-0.7-2h-0.3L783.7,175.6L783.7,175.6z M784.3,174.8l0.3-0.9l0.3,0.9H784.3
	L784.3,174.8z M786,174.9h0.7v-0.2H786V174.9L786,174.9z M787.2,175.6h0.3l0.2-0.6h0.8l0.2,0.6h0.3l-0.7-2h-0.3L787.2,175.6
	L787.2,175.6z M787.8,174.8l0.3-0.9l0.3,0.9H787.8L787.8,174.8z M789.3,175.6h0.3v-0.9l0-0.2l0.1-0.2l0.1-0.1l0.2,0l0.1,0l0.1,0.1
	l0.1,0.1l0,0.1h0.3l0-0.2l-0.1-0.2l-0.2-0.1l-0.2,0l-0.1,0l-0.1,0.1l-0.1,0.1l-0.1,0.1v-0.3h-0.2V175.6L789.3,175.6z M790.8,175.6
	h0.2v-1l0-0.2l0-0.1l0.1-0.1l0.1,0l0.1,0l0,0.1l0,0.1l0,0.1v1.1h0.2v-1l0-0.2l0-0.1l0.1-0.1l0.1,0l0.1,0l0,0.1l0,0.2v1.1h0.2v-1.1
	l0-0.2l0-0.2l-0.1-0.1l-0.1,0l-0.2,0.1l-0.1,0.2l-0.1-0.2l-0.2-0.1l-0.2,0.1l-0.1,0.2v-0.2h-0.2V175.6L790.8,175.6z"/>
<path d="M766.6,179.1h1.3v-0.2h-1v-0.7h0.9v-0.2h-0.9v-0.6h1v-0.2h-1.2V179.1L766.6,179.1z M768.1,179.5v0.2h1.7v-0.2H768.1
	L768.1,179.5z M769.8,179.1h0.3l0.2-0.6h0.8l0.2,0.6h0.3l-0.7-2h-0.3L769.8,179.1L769.8,179.1z M770.4,178.2l0.3-0.9l0.3,0.9H770.4
	L770.4,178.2z M771.9,179.1h0.3v-0.9l0-0.2l0.1-0.2l0.1-0.1l0.2,0l0.1,0l0.1,0.1l0.1,0.1l0,0.1h0.3l0-0.2l-0.1-0.2l-0.2-0.1l-0.2,0
	l-0.1,0l-0.1,0.1l-0.1,0.1l-0.1,0.1v-0.3h-0.2V179.1L771.9,179.1z M773.7,179.1h0.3v-0.9l0-0.2l0.1-0.2l0.1-0.1l0.2,0l0.1,0l0.1,0.1
	l0.1,0.1l0,0.1h0.3l0-0.2l-0.1-0.2l-0.2-0.1l-0.2,0l-0.1,0l-0.1,0.1l-0.1,0.1l-0.1,0.1v-0.3h-0.2V179.1L773.7,179.1z M776.1,178.8
	v-1.3h-0.7v0.2h0.4v1.1h-0.5v0.2h1.3v-0.2H776.1L776.1,178.8z M776.1,177h-0.3v0.3h0.3V177L776.1,177z M777.9,177.3l-0.3-0.5h-0.3
	l0.4,0.5H777.9L777.9,177.3z M777.3,178.4h1l0-0.1l0-0.3l-0.1-0.2l-0.2-0.1l-0.3-0.1l-0.3,0.1l-0.2,0.2l-0.1,0.3l0,0.3l0,0.4
	l0.1,0.3l0.2,0.2l0.3,0.1l0.2,0l0.2-0.1l0.1-0.2l0.1-0.2H778l-0.1,0.1l-0.1,0.1l-0.2,0.1l-0.2,0l-0.1-0.1l-0.1-0.2L777.3,178.4
	L777.3,178.4L777.3,178.4z M777.3,178.1l0-0.2l0.1-0.1l0.1-0.1l0.2,0l0.2,0l0.1,0.1l0.1,0.1l0,0.2H777.3L777.3,178.1z M778.9,179.1
	h0.3v-0.9l0-0.2l0.1-0.2l0.1-0.1l0.2,0l0.1,0l0.1,0.1l0.1,0.1l0,0.1h0.3l0-0.2l-0.1-0.2l-0.2-0.1l-0.2,0l-0.1,0l-0.1,0.1l-0.1,0.1
	l-0.1,0.1v-0.3h-0.2V179.1L778.9,179.1z M780.7,178.4h1l0-0.1l0-0.3l-0.1-0.2l-0.2-0.1l-0.3-0.1l-0.3,0.1l-0.2,0.2l-0.1,0.3l0,0.3
	l0,0.4l0.1,0.3l0.2,0.2l0.3,0.1l0.2,0l0.2-0.1l0.1-0.2l0.1-0.2h-0.3l-0.1,0.1l-0.1,0.1l-0.2,0.1l-0.2,0l-0.1-0.1l-0.1-0.2
	L780.7,178.4L780.7,178.4L780.7,178.4z M780.7,178.1l0-0.2l0.1-0.1l0.1-0.1l0.2,0l0.2,0l0.1,0.1l0.1,0.1l0,0.2H780.7L780.7,178.1z"
	/>
</svg>
