<?xml version="1.0" encoding="utf-8" ?><!DOCTYPE svg PUBLIC "-//W3C//DTD SVG 1.1//EN" "http://www.w3.org/Graphics/SVG/1.1/DTD/svg11.dtd" 
[ <!ATTLIST svg 
  xmlns:dsy CDATA #FIXED "http://www.3ds.com/print"  
    dsy:text-version CDATA #IMPLIED > 

  <!ATTLIST text 
  xmlns:dsy CDATA #FIXED "http://www.3ds.com/print" 
    dsy:text-version CDATA #IMPLIED > 
]><svg xmlns="http://www.w3.org/2000/svg" xmlns:dsy="http://www.3ds.com/print" dsy:text-version="18000" width="1189" height="841" viewBox="0 0 1189 841" version="1.1"><g stroke="rgb(0, 0, 0)" stroke-width="0.35" stroke-linecap="butt" stroke-linejoin="miter" fill="none"><path d="M 144.581 124.955 L 134.061 141.965"/><path d="M 139.078 145.068 L 134.061 141.965"/><path d="M 149.599 128.059 L 139.078 145.068"/><path d="M 226.141 175.4 L 149.599 128.059"/><path d="M 226.141 175.4 L 325.258 188.66"/><path d="M 325.258 188.66 L 322.606 208.484"/><path d="M 322.606 208.484 L 328.454 209.266"/><path d="M 328.454 209.266 L 331.106 189.443"/><path d="M 276.354 273.898 L 291.079 287.432"/><path d="M 269.587 281.26 L 276.354 273.898"/><path d="M 284.311 294.795 L 269.587 281.26"/><circle cx="112.686" cy="122.351" r="3.2"/><circle cx="347.418" cy="208.379" r="3.2"/><circle cx="125.94" cy="449.325" r="3.2"/><circle cx="132.553" cy="414.956" r="6"/><path d="M 220.441 209.933 L 218.886 229.872"/><path d="M 224.868 230.339 L 218.886 229.872"/><path d="M 226.422 210.399 L 224.868 230.339"/><path d="M 220.441 209.933 L 226.422 210.399"/><path d="M 352.835 214.22 L 352.154 213.487"/><path d="M 365.297 202.657 L 352.835 214.22"/><path d="M 364.616 201.924 L 365.297 202.657"/><path d="M 352.154 213.487 L 364.616 201.924"/><path d="M 346.574 196.177 L 345.718 195.659"/><path d="M 345.718 195.659 L 340.546 204.218"/><path d="M 340.546 204.218 L 341.402 204.735"/><path d="M 341.402 204.735 L 346.574 196.177"/><path d="M 105.959 123.598 L 103.082 107.797"/><path d="M 103.082 107.797 L 102.098 107.976"/><path d="M 102.098 107.976 L 104.975 123.778"/><path d="M 104.975 123.778 L 105.959 123.598"/><path d="M 121.796 113.185 L 120.807 123.136"/><path d="M 120.801 113.086 L 121.796 113.185"/><path d="M 119.812 123.037 L 120.801 113.086"/><path d="M 120.807 123.136 L 119.812 123.037"/><path d="M 123.314 469.944 L 284.311 294.795"/><path d="M 114.637 466.763 A 5 5 0 0 0 123.314 469.944"/><path d="M 366.157 194.132 L 331.106 189.443"/><path d="M 369.175 202.471 L 291.079 287.432"/><path d="M 369.175 202.471 A 5 5 0 0 0 366.157 194.132"/><path d="M 107.663 102.121 L 144.581 124.955"/><path d="M 114.637 466.763 L 100.037 106.576"/><path d="M 107.663 102.121 A 5 5 0 0 0 100.037 106.576"/></g><g stroke="rgb(0, 0, 0)" stroke-width="0.13" stroke-linecap="butt" stroke-linejoin="miter" fill="none"><path d="M 113.896 268.616 L 113.982 269.085 L 114.234 269.085 L 114.234 267.194 L 112.958 267.194 L 112.958 267.623 L 113.745 267.623 L 113.745 267.653 L 113.684 268.117 L 113.523 268.46 L 113.276 268.677 L 112.968 268.747 L 112.625 268.657 L 112.358 268.384 L 112.186 267.935 L 112.126 267.32 L 112.181 266.71 L 112.353 266.261 L 112.625 265.989 L 112.993 265.893 L 113.246 265.943 L 113.452 266.085 L 113.604 266.322 L 113.689 266.639 L 114.189 266.639 L 114.058 266.155 L 113.81 265.792 L 113.462 265.57 L 113.024 265.489 L 112.449 265.616 L 112.015 265.984 L 111.738 266.564 L 111.642 267.335 L 111.738 268.112 L 112.015 268.692 L 112.424 269.06 L 112.938 269.181 L 113.225 269.141 L 113.483 269.04 L 113.704 268.863 L 113.896 268.616 L 113.896 268.616 z M 116.574 268.732 L 116.574 268.747 L 116.599 268.919 L 116.675 269.04 L 116.993 269.136 L 117.24 269.095 L 117.24 268.752 L 117.134 268.768 L 116.993 268.702 L 116.967 268.5 L 116.967 267.098 L 116.907 266.74 L 116.73 266.488 L 116.423 266.337 L 115.989 266.281 L 115.565 266.342 L 115.253 266.513 L 115.056 266.781 L 114.991 267.134 L 114.991 267.164 L 115.389 267.164 L 115.424 266.952 L 115.535 266.801 L 115.717 266.71 L 115.974 266.675 L 116.221 266.7 L 116.398 266.775 L 116.503 266.907 L 116.539 267.088 L 116.519 267.3 L 116.438 267.406 L 116.236 267.456 L 115.858 267.497 L 115.424 267.587 L 115.117 267.749 L 114.935 268.001 L 114.88 268.374 L 114.93 268.707 L 115.086 268.954 L 115.338 269.11 L 115.686 269.166 L 116.155 269.06 L 116.574 268.732 L 116.574 268.732 z M 116.524 268.137 L 116.463 268.399 L 116.302 268.601 L 116.06 268.732 L 115.762 268.778 L 115.57 268.752 L 115.434 268.672 L 115.349 268.531 L 115.323 268.334 L 115.344 268.157 L 115.424 268.031 L 115.747 267.89 L 116.155 267.83 L 116.524 267.708 L 116.524 268.137 L 116.524 268.137 z M 118.42 268.667 L 118.748 269.055 L 119.197 269.181 L 119.62 269.085 L 119.958 268.798 L 120.17 268.339 L 120.251 267.729 L 120.17 267.118 L 119.953 266.664 L 119.62 266.382 L 119.197 266.281 L 118.753 266.412 L 118.571 266.574 L 118.42 266.791 L 118.42 265.464 L 117.976 265.464 L 117.976 269.085 L 118.42 269.085 L 118.42 268.667 L 118.42 268.667 z M 119.797 267.729 L 119.746 268.183 L 119.61 268.515 L 119.393 268.717 L 119.121 268.783 L 118.823 268.717 L 118.606 268.515 L 118.47 268.188 L 118.425 267.729 L 118.47 267.275 L 118.606 266.947 L 118.823 266.75 L 119.121 266.68 L 119.393 266.75 L 119.61 266.952 L 119.746 267.28 L 119.797 267.729 L 119.797 267.729 z M 122.646 268.732 L 122.646 268.747 L 122.671 268.919 L 122.747 269.04 L 123.065 269.136 L 123.312 269.095 L 123.312 268.752 L 123.206 268.768 L 123.065 268.702 L 123.039 268.5 L 123.039 267.098 L 122.979 266.74 L 122.802 266.488 L 122.495 266.337 L 122.061 266.281 L 121.637 266.342 L 121.325 266.513 L 121.128 266.781 L 121.063 267.134 L 121.063 267.164 L 121.461 267.164 L 121.496 266.952 L 121.607 266.801 L 121.789 266.71 L 122.046 266.675 L 122.293 266.7 L 122.47 266.775 L 122.576 266.907 L 122.611 267.088 L 122.591 267.3 L 122.51 267.406 L 122.308 267.456 L 121.93 267.497 L 121.496 267.587 L 121.189 267.749 L 121.007 268.001 L 120.952 268.374 L 121.002 268.707 L 121.158 268.954 L 121.411 269.11 L 121.759 269.166 L 122.228 269.06 L 122.646 268.732 L 122.646 268.732 z M 122.596 268.137 L 122.535 268.399 L 122.374 268.601 L 122.132 268.732 L 121.834 268.778 L 121.643 268.752 L 121.506 268.672 L 121.421 268.531 L 121.395 268.334 L 121.416 268.157 L 121.496 268.031 L 121.819 267.89 L 122.228 267.83 L 122.596 267.708 L 122.596 268.137 L 122.596 268.137 z M 124.24 269.085 L 124.684 269.085 L 124.684 267.537 L 124.729 267.164 L 124.865 266.896 L 125.087 266.735 L 125.385 266.68 L 125.606 266.715 L 125.773 266.816 L 125.874 266.987 L 125.909 267.219 L 126.358 267.219 L 126.297 266.811 L 126.131 266.518 L 125.854 266.342 L 125.475 266.281 L 125.218 266.322 L 124.996 266.422 L 124.8 266.594 L 124.643 266.826 L 124.643 266.377 L 124.24 266.377 L 124.24 269.085 L 124.24 269.085 z M 128.466 268.712 L 128.466 266.468 L 127.326 266.468 L 127.326 266.846 L 128.022 266.846 L 128.022 268.712 L 127.114 268.712 L 127.114 269.085 L 129.384 269.085 L 129.384 268.712 L 128.466 268.712 L 128.466 268.712 z M 128.481 265.464 L 128.012 265.464 L 128.012 265.969 L 128.481 265.969 L 128.481 265.464 L 128.481 265.464 z M 130.74 266.846 L 130.74 268.203 L 130.771 268.641 L 130.912 268.944 L 131.194 269.121 L 131.673 269.181 L 132.198 269.156 L 132.198 268.773 L 131.815 268.803 L 131.467 268.763 L 131.28 268.636 L 131.199 268.425 L 131.184 268.127 L 131.184 266.846 L 132.198 266.846 L 132.198 266.468 L 131.184 266.468 L 131.184 265.676 L 130.74 265.676 L 130.74 266.468 L 129.974 266.468 L 129.974 266.846 L 130.74 266.846 L 130.74 266.846 z M 136.651 267.93 L 137.872 267.93 L 137.872 267.532 L 136.651 267.532 L 136.651 267.93 L 136.651 267.93 z M 142.31 269.085 L 144.559 269.085 L 144.559 268.662 L 142.774 268.662 L 142.774 265.585 L 142.31 265.585 L 142.31 269.085 L 142.31 269.085 z M 145.714 267.86 L 147.489 267.86 L 147.494 267.653 L 147.413 267.073 L 147.192 266.639 L 146.838 266.377 L 146.369 266.281 L 145.911 266.382 L 145.558 266.664 L 145.331 267.123 L 145.25 267.729 L 145.326 268.349 L 145.552 268.803 L 145.9 269.085 L 146.354 269.181 L 146.748 269.116 L 147.07 268.944 L 147.308 268.672 L 147.444 268.309 L 147.005 268.309 L 146.914 268.51 L 146.783 268.662 L 146.41 268.783 L 146.122 268.727 L 145.905 268.551 L 145.764 268.263 L 145.714 267.875 L 145.714 267.86 L 145.714 267.86 z M 145.714 267.487 L 145.769 267.139 L 145.905 266.881 L 146.112 266.725 L 146.385 266.67 L 146.652 266.725 L 146.859 266.881 L 146.985 267.139 L 147.03 267.487 L 145.714 267.487 L 145.714 267.487 z M 148.977 266.846 L 148.977 269.085 L 149.421 269.085 L 149.421 266.846 L 150.429 266.846 L 150.429 266.468 L 149.421 266.468 L 149.421 266.301 L 149.456 266.1 L 149.572 265.964 L 149.769 265.883 L 150.051 265.853 L 150.429 265.873 L 150.429 265.489 L 149.95 265.464 L 149.516 265.51 L 149.214 265.646 L 149.032 265.883 L 148.977 266.221 L 148.977 266.468 L 148.165 266.468 L 148.165 266.846 L 148.977 266.846 L 148.977 266.846 z M 151.993 266.846 L 151.993 268.203 L 152.023 268.641 L 152.164 268.944 L 152.447 269.121 L 152.926 269.181 L 153.45 269.156 L 153.45 268.773 L 153.067 268.803 L 152.719 268.763 L 152.532 268.636 L 152.452 268.425 L 152.436 268.127 L 152.436 266.846 L 153.45 266.846 L 153.45 266.468 L 152.436 266.468 L 152.436 265.676 L 151.993 265.676 L 151.993 266.468 L 151.226 266.468 L 151.226 266.846 L 151.993 266.846 L 151.993 266.846 z M 157.48 269.085 L 157.949 269.085 L 157.949 267.477 L 159.421 267.477 L 159.421 267.058 L 157.949 267.058 L 157.949 266.009 L 159.759 266.009 L 159.759 265.585 L 157.48 265.585 L 157.48 269.085 L 157.48 269.085 z M 160.672 269.085 L 161.116 269.085 L 161.116 267.537 L 161.161 267.164 L 161.297 266.896 L 161.519 266.735 L 161.817 266.68 L 162.039 266.715 L 162.205 266.816 L 162.306 266.987 L 162.341 267.219 L 162.79 267.219 L 162.73 266.811 L 162.563 266.518 L 162.286 266.342 L 161.908 266.281 L 161.65 266.322 L 161.429 266.422 L 161.232 266.594 L 161.076 266.826 L 161.076 266.377 L 160.672 266.377 L 160.672 269.085 L 160.672 269.085 z M 163.411 267.734 L 163.491 268.349 L 163.723 268.803 L 164.091 269.085 L 164.586 269.181 L 165.075 269.085 L 165.443 268.808 L 165.675 268.354 L 165.761 267.734 L 165.675 267.118 L 165.443 266.659 L 165.075 266.382 L 164.586 266.281 L 164.091 266.382 L 163.723 266.664 L 163.491 267.118 L 163.411 267.734 L 163.411 267.734 z M 163.864 267.729 L 163.91 267.275 L 164.051 266.947 L 164.278 266.745 L 164.586 266.675 L 164.888 266.745 L 165.115 266.942 L 165.256 267.275 L 165.307 267.729 L 165.256 268.188 L 165.115 268.52 L 164.888 268.722 L 164.586 268.788 L 164.278 268.722 L 164.051 268.52 L 163.91 268.188 L 163.864 267.729 L 163.864 267.729 z M 166.578 269.085 L 167.021 269.085 L 167.021 267.522 L 167.067 267.164 L 167.213 266.902 L 167.44 266.74 L 167.743 266.68 L 167.985 266.73 L 168.136 266.866 L 168.212 267.093 L 168.237 267.396 L 168.237 269.085 L 168.681 269.085 L 168.681 267.305 L 168.661 266.947 L 168.57 266.649 L 168.272 266.377 L 167.808 266.281 L 167.551 266.317 L 167.334 266.412 L 167.148 266.574 L 167.001 266.791 L 167.001 266.377 L 166.578 266.377 L 166.578 269.085 L 166.578 269.085 z M 170.209 266.846 L 170.209 268.203 L 170.239 268.641 L 170.38 268.944 L 170.663 269.121 L 171.142 269.181 L 171.666 269.156 L 171.666 268.773 L 171.283 268.803 L 170.935 268.763 L 170.748 268.636 L 170.668 268.425 L 170.653 268.127 L 170.653 266.846 L 171.666 266.846 L 171.666 266.468 L 170.653 266.468 L 170.653 265.676 L 170.209 265.676 L 170.209 266.468 L 169.442 266.468 L 169.442 266.846 L 170.209 266.846 L 170.209 266.846 z M 175.524 267.754 L 175.595 268.384 L 175.817 268.833 L 176.19 269.09 L 176.73 269.181 L 177.264 269.09 L 177.638 268.833 L 177.859 268.389 L 177.935 267.754 L 177.935 265.585 L 177.466 265.585 L 177.466 267.779 L 177.421 268.208 L 177.284 268.515 L 177.052 268.697 L 176.73 268.757 L 176.397 268.697 L 176.165 268.515 L 176.029 268.213 L 175.988 267.779 L 175.988 265.585 L 175.524 265.585 L 175.524 267.754 L 175.524 267.754 z M 179.14 266.796 L 179.14 266.377 L 178.697 266.377 L 178.697 270.134 L 179.14 270.134 L 179.14 268.672 L 179.297 268.909 L 179.473 269.065 L 179.917 269.181 L 180.341 269.085 L 180.674 268.798 L 180.89 268.344 L 180.971 267.729 L 180.89 267.118 L 180.674 266.664 L 180.341 266.382 L 179.917 266.281 L 179.675 266.312 L 179.468 266.407 L 179.292 266.569 L 179.14 266.796 L 179.14 266.796 z M 179.841 268.783 L 179.544 268.717 L 179.327 268.515 L 179.191 268.188 L 179.145 267.729 L 179.191 267.275 L 179.327 266.947 L 179.544 266.75 L 179.841 266.68 L 180.114 266.75 L 180.331 266.952 L 180.467 267.28 L 180.517 267.729 L 180.467 268.183 L 180.331 268.515 L 180.114 268.717 L 179.841 268.783 L 179.841 268.783 z M 182.176 266.796 L 182.176 266.377 L 181.733 266.377 L 181.733 270.134 L 182.176 270.134 L 182.176 268.672 L 182.333 268.909 L 182.509 269.065 L 182.953 269.181 L 183.377 269.085 L 183.71 268.798 L 183.926 268.344 L 184.007 267.729 L 183.926 267.118 L 183.71 266.664 L 183.377 266.382 L 182.953 266.281 L 182.711 266.312 L 182.504 266.407 L 182.328 266.569 L 182.176 266.796 L 182.176 266.796 z M 182.877 268.783 L 182.58 268.717 L 182.363 268.515 L 182.227 268.188 L 182.181 267.729 L 182.227 267.275 L 182.363 266.947 L 182.58 266.75 L 182.877 266.68 L 183.15 266.75 L 183.367 266.952 L 183.503 267.28 L 183.553 267.729 L 183.503 268.183 L 183.367 268.515 L 183.15 268.717 L 182.877 268.783 L 182.877 268.783 z M 185.182 267.86 L 186.957 267.86 L 186.962 267.653 L 186.882 267.073 L 186.66 266.639 L 186.307 266.377 L 185.838 266.281 L 185.379 266.382 L 185.026 266.664 L 184.799 267.123 L 184.718 267.729 L 184.794 268.349 L 185.021 268.803 L 185.369 269.085 L 185.823 269.181 L 186.216 269.116 L 186.539 268.944 L 186.776 268.672 L 186.912 268.309 L 186.473 268.309 L 186.382 268.51 L 186.251 268.662 L 185.878 268.783 L 185.591 268.727 L 185.374 268.551 L 185.233 268.263 L 185.182 267.875 L 185.182 267.86 L 185.182 267.86 z M 185.182 267.487 L 185.238 267.139 L 185.374 266.881 L 185.581 266.725 L 185.853 266.67 L 186.12 266.725 L 186.327 266.881 L 186.453 267.139 L 186.498 267.487 L 185.182 267.487 L 185.182 267.487 z M 187.996 269.085 L 188.44 269.085 L 188.44 267.537 L 188.486 267.164 L 188.622 266.896 L 188.844 266.735 L 189.141 266.68 L 189.363 266.715 L 189.529 266.816 L 189.63 266.987 L 189.666 267.219 L 190.114 267.219 L 190.054 266.811 L 189.888 266.518 L 189.61 266.342 L 189.232 266.281 L 188.975 266.322 L 188.753 266.422 L 188.556 266.594 L 188.4 266.826 L 188.4 266.377 L 187.996 266.377 L 187.996 269.085 L 187.996 269.085 z M 193.413 269.085 L 193.877 269.085 L 194.245 268.056 L 195.642 268.056 L 196.01 269.085 L 196.484 269.085 L 195.203 265.58 L 194.689 265.58 L 193.413 269.085 L 193.413 269.085 z M 194.406 267.628 L 194.946 266.085 L 195.486 267.628 L 194.406 267.628 L 194.406 267.628 z M 197.372 267.93 L 198.592 267.93 L 198.592 267.532 L 197.372 267.532 L 197.372 267.93 L 197.372 267.93 z M 199.485 269.085 L 199.949 269.085 L 200.317 268.056 L 201.714 268.056 L 202.082 269.085 L 202.556 269.085 L 201.275 265.58 L 200.761 265.58 L 199.485 269.085 L 199.485 269.085 z M 200.478 267.628 L 201.018 266.085 L 201.558 267.628 L 200.478 267.628 L 200.478 267.628 z M 203.176 269.085 L 203.62 269.085 L 203.62 267.537 L 203.666 267.164 L 203.802 266.896 L 204.024 266.735 L 204.321 266.68 L 204.543 266.715 L 204.71 266.816 L 204.81 266.987 L 204.846 267.219 L 205.295 267.219 L 205.234 266.811 L 205.068 266.518 L 204.79 266.342 L 204.412 266.281 L 204.155 266.322 L 203.933 266.422 L 203.736 266.594 L 203.58 266.826 L 203.58 266.377 L 203.176 266.377 L 203.176 269.085 L 203.176 269.085 z M 205.87 269.085 L 206.278 269.085 L 206.278 267.275 L 206.303 267.002 L 206.379 266.806 L 206.495 266.69 L 206.646 266.644 L 206.767 266.685 L 206.848 266.786 L 206.888 266.957 L 206.903 267.184 L 206.903 269.085 L 207.287 269.085 L 207.287 267.275 L 207.312 267.007 L 207.388 266.811 L 207.509 266.69 L 207.66 266.644 L 207.781 266.685 L 207.862 266.786 L 207.912 267.184 L 207.912 269.085 L 208.321 269.085 L 208.321 267.214 L 208.295 266.826 L 208.215 266.528 L 208.053 266.347 L 207.791 266.281 L 207.483 266.382 L 207.246 266.675 L 207.06 266.387 L 206.747 266.281 L 206.46 266.382 L 206.263 266.664 L 206.263 266.377 L 205.87 266.377 L 205.87 269.085 L 205.87 269.085 z M 212.552 267.93 L 213.772 267.93 L 213.772 267.532 L 212.552 267.532 L 212.552 267.93 L 212.552 267.93 z M 218.17 269.085 L 218.634 269.085 L 218.634 267.608 L 219.148 267.608 L 219.668 267.582 L 220.081 267.406 L 220.349 267.063 L 220.439 266.594 L 220.369 266.16 L 220.167 265.842 L 219.834 265.651 L 219.38 265.585 L 218.17 265.585 L 218.17 269.085 L 218.17 269.085 z M 219.254 266.014 L 219.557 266.044 L 219.779 266.14 L 219.91 266.317 L 219.955 266.594 L 219.905 266.886 L 219.769 267.063 L 219.537 267.154 L 219.219 267.179 L 218.634 267.179 L 218.634 266.014 L 219.254 266.014 L 219.254 266.014 z M 222.109 265.837 L 222.109 268.712 L 221.196 268.712 L 221.196 269.085 L 223.46 269.085 L 223.46 268.712 L 222.553 268.712 L 222.553 265.464 L 221.413 265.464 L 221.413 265.837 L 222.109 265.837 L 222.109 265.837 z M 225.871 268.732 L 225.871 268.747 L 225.896 268.919 L 225.972 269.04 L 226.29 269.136 L 226.537 269.095 L 226.537 268.752 L 226.431 268.768 L 226.29 268.702 L 226.264 268.5 L 226.264 267.098 L 226.204 266.74 L 226.027 266.488 L 225.72 266.337 L 225.286 266.281 L 224.862 266.342 L 224.55 266.513 L 224.353 266.781 L 224.287 267.134 L 224.287 267.164 L 224.686 267.164 L 224.721 266.952 L 224.832 266.801 L 225.014 266.71 L 225.271 266.675 L 225.518 266.7 L 225.694 266.775 L 225.8 266.907 L 225.836 267.088 L 225.816 267.3 L 225.735 267.406 L 225.533 267.456 L 225.155 267.497 L 224.721 267.587 L 224.413 267.749 L 224.232 268.001 L 224.176 268.374 L 224.227 268.707 L 224.383 268.954 L 224.635 269.11 L 224.983 269.166 L 225.452 269.06 L 225.871 268.732 L 225.871 268.732 z M 225.821 268.137 L 225.76 268.399 L 225.599 268.601 L 225.357 268.732 L 225.059 268.778 L 224.867 268.752 L 224.731 268.672 L 224.645 268.531 L 224.62 268.334 L 224.64 268.157 L 224.721 268.031 L 225.044 267.89 L 225.452 267.83 L 225.821 267.708 L 225.821 268.137 L 225.821 268.137 z M 228.962 266.796 L 228.806 266.569 L 228.63 266.407 L 228.423 266.317 L 228.186 266.281 L 227.757 266.382 L 227.424 266.664 L 227.207 267.118 L 227.132 267.729 L 227.207 268.344 L 227.424 268.798 L 227.757 269.085 L 228.186 269.181 L 228.423 269.151 L 228.625 269.065 L 228.801 268.909 L 228.962 268.672 L 228.962 270.134 L 229.406 270.134 L 229.406 266.377 L 228.962 266.377 L 228.962 266.796 L 228.962 266.796 z M 227.586 267.729 L 227.631 267.28 L 227.772 266.952 L 227.984 266.75 L 228.261 266.68 L 228.554 266.75 L 228.776 266.947 L 228.907 267.275 L 228.957 267.729 L 228.907 268.188 L 228.776 268.515 L 228.554 268.717 L 228.261 268.783 L 227.984 268.717 L 227.772 268.515 L 227.631 268.183 L 227.586 267.729 L 227.586 267.729 z M 232.422 266.377 L 231.978 266.377 L 231.978 267.94 L 231.928 268.304 L 231.782 268.566 L 231.555 268.727 L 231.257 268.778 L 231.02 268.737 L 230.869 268.616 L 230.783 268.409 L 230.763 268.117 L 230.763 266.377 L 230.319 266.377 L 230.319 268.157 L 230.334 268.515 L 230.43 268.813 L 230.723 269.085 L 231.192 269.181 L 231.444 269.146 L 231.661 269.055 L 231.847 268.899 L 231.999 268.672 L 231.999 269.085 L 232.422 269.085 L 232.422 266.377 L 232.422 266.377 z M 233.759 267.86 L 235.534 267.86 L 235.539 267.653 L 235.458 267.073 L 235.236 266.639 L 234.883 266.377 L 234.414 266.281 L 233.955 266.382 L 233.602 266.664 L 233.375 267.123 L 233.295 267.729 L 233.37 268.349 L 233.597 268.803 L 233.945 269.085 L 234.399 269.181 L 234.792 269.116 L 235.115 268.944 L 235.352 268.672 L 235.488 268.309 L 235.05 268.309 L 234.959 268.51 L 234.828 268.662 L 234.455 268.783 L 234.167 268.727 L 233.95 268.551 L 233.809 268.263 L 233.759 267.875 L 233.759 267.86 L 233.759 267.86 z M 233.759 267.487 L 233.814 267.139 L 233.95 266.881 L 234.157 266.725 L 234.429 266.67 L 234.697 266.725 L 234.903 266.881 L 235.029 267.139 L 235.075 267.487 L 233.759 267.487 L 233.759 267.487 z M 241.107 268.667 L 241.107 269.085 L 241.55 269.085 L 241.55 265.464 L 241.112 265.464 L 241.112 266.791 L 240.774 266.407 L 240.567 266.317 L 240.33 266.281 L 239.901 266.382 L 239.568 266.664 L 239.352 267.118 L 239.276 267.729 L 239.352 268.339 L 239.568 268.798 L 239.901 269.085 L 240.33 269.181 L 240.567 269.146 L 240.779 269.055 L 241.107 268.667 L 241.107 268.667 z M 240.406 266.68 L 240.698 266.75 L 240.92 266.947 L 241.051 267.275 L 241.102 267.729 L 241.051 268.188 L 240.92 268.515 L 240.698 268.717 L 240.406 268.783 L 240.128 268.717 L 239.916 268.515 L 239.775 268.183 L 239.73 267.729 L 239.775 267.28 L 239.916 266.952 L 240.128 266.75 L 240.406 266.68 L 240.406 266.68 z M 244.566 266.377 L 244.122 266.377 L 244.122 267.94 L 244.072 268.304 L 243.926 268.566 L 243.699 268.727 L 243.401 268.778 L 243.164 268.737 L 243.013 268.616 L 242.927 268.409 L 242.907 268.117 L 242.907 266.377 L 242.463 266.377 L 242.463 268.157 L 242.478 268.515 L 242.574 268.813 L 242.867 269.085 L 243.336 269.181 L 243.588 269.146 L 243.805 269.055 L 243.991 268.899 L 244.143 268.672 L 244.143 269.085 L 244.566 269.085 L 244.566 266.377 L 244.566 266.377 z M 248.55 269.085 L 248.994 269.085 L 248.994 267.522 L 249.04 267.164 L 249.186 266.902 L 249.413 266.74 L 249.715 266.68 L 249.957 266.73 L 250.109 266.866 L 250.184 267.093 L 250.21 267.396 L 250.21 269.085 L 250.653 269.085 L 250.653 267.305 L 250.633 266.947 L 250.542 266.649 L 250.245 266.377 L 249.781 266.281 L 249.529 266.317 L 249.312 266.412 L 249.13 266.564 L 248.994 266.77 L 248.994 265.464 L 248.55 265.464 L 248.55 269.085 L 248.55 269.085 z M 253.195 268.732 L 253.195 268.747 L 253.22 268.919 L 253.296 269.04 L 253.614 269.136 L 253.861 269.095 L 253.861 268.752 L 253.755 268.768 L 253.614 268.702 L 253.589 268.5 L 253.589 267.098 L 253.528 266.74 L 253.352 266.488 L 253.044 266.337 L 252.61 266.281 L 252.187 266.342 L 251.874 266.513 L 251.677 266.781 L 251.612 267.134 L 251.612 267.164 L 252.01 267.164 L 252.045 266.952 L 252.156 266.801 L 252.338 266.71 L 252.595 266.675 L 252.842 266.7 L 253.019 266.775 L 253.125 266.907 L 253.16 267.088 L 253.14 267.3 L 253.059 267.406 L 252.857 267.456 L 252.479 267.497 L 252.045 267.587 L 251.738 267.749 L 251.556 268.001 L 251.501 268.374 L 251.551 268.707 L 251.707 268.954 L 251.96 269.11 L 252.308 269.166 L 252.777 269.06 L 253.195 268.732 L 253.195 268.732 z M 253.145 268.137 L 253.084 268.399 L 252.923 268.601 L 252.681 268.732 L 252.383 268.778 L 252.192 268.752 L 252.055 268.672 L 251.97 268.531 L 251.945 268.334 L 251.965 268.157 L 252.045 268.031 L 252.368 267.89 L 252.777 267.83 L 253.145 267.708 L 253.145 268.137 L 253.145 268.137 z M 256.71 266.377 L 256.267 266.377 L 256.267 267.94 L 256.216 268.304 L 256.07 268.566 L 255.843 268.727 L 255.545 268.778 L 255.308 268.737 L 255.157 268.616 L 255.071 268.409 L 255.051 268.117 L 255.051 266.377 L 254.607 266.377 L 254.607 268.157 L 254.622 268.515 L 254.718 268.813 L 255.011 269.085 L 255.48 269.181 L 255.732 269.146 L 255.949 269.055 L 256.135 268.899 L 256.287 268.672 L 256.287 269.085 L 256.71 269.085 L 256.71 266.377 L 256.71 266.377 z M 258.254 266.846 L 258.254 268.203 L 258.284 268.641 L 258.425 268.944 L 258.707 269.121 L 259.187 269.181 L 259.711 269.156 L 259.711 268.773 L 259.328 268.803 L 258.98 268.763 L 258.793 268.636 L 258.713 268.425 L 258.697 268.127 L 258.697 266.846 L 259.711 266.846 L 259.711 266.468 L 258.697 266.468 L 258.697 265.676 L 258.254 265.676 L 258.254 266.468 L 257.487 266.468 L 257.487 266.846 L 258.254 266.846 L 258.254 266.846 z" stroke="none" fill-rule="evenodd" fill="rgb(0, 0, 0)"/></g></svg>