<?xml version="1.0" encoding="utf-8" ?><!DOCTYPE svg PUBLIC "-//W3C//DTD SVG 1.1//EN" "http://www.w3.org/Graphics/SVG/1.1/DTD/svg11.dtd" 
[ <!ATTLIST svg 
  xmlns:dsy CDATA #FIXED "http://www.3ds.com/print"  
    dsy:text-version CDATA #IMPLIED > 

  <!ATTLIST text 
  xmlns:dsy CDATA #FIXED "http://www.3ds.com/print" 
    dsy:text-version CDATA #IMPLIED > 
]><svg xmlns="http://www.w3.org/2000/svg" xmlns:dsy="http://www.3ds.com/print" dsy:text-version="18000" width="1189" height="841" viewBox="0 0 1189 841" version="1.1"><g stroke="rgb(0, 0, 0)" stroke-width="0.35" stroke-linecap="butt" stroke-linejoin="miter" fill="none"><path d="M 97.5121 89.9496 L 86.9917 106.959"/><path d="M 92.0095 110.063 L 86.9917 106.959"/><path d="M 102.53 93.0532 L 92.0095 110.063"/><path d="M 179.072 140.395 L 102.53 93.0532"/><path d="M 179.072 140.395 L 278.189 153.655"/><path d="M 278.189 153.655 L 275.537 173.478"/><path d="M 275.537 173.478 L 281.385 174.26"/><path d="M 281.385 174.26 L 284.037 154.437"/><path d="M 229.285 238.892 L 244.01 252.427"/><path d="M 222.518 246.254 L 229.285 238.892"/><path d="M 237.242 259.789 L 222.518 246.254"/><circle cx="65.6173" cy="87.3452" r="3.2"/><circle cx="300.349" cy="173.373" r="3.2"/><circle cx="78.8708" cy="414.32" r="3.2"/><circle cx="85.4842" cy="379.95" r="6"/><path d="M 173.372 174.927 L 171.817 194.867"/><path d="M 177.799 195.333 L 171.817 194.867"/><path d="M 179.353 175.394 L 177.799 195.333"/><path d="M 173.372 174.927 L 179.353 175.394"/><path d="M 305.796 179.243 L 305.116 178.51"/><path d="M 318.258 167.68 L 305.796 179.243"/><path d="M 317.578 166.947 L 318.258 167.68"/><path d="M 305.116 178.51 L 317.578 166.947"/><path d="M 294.364 169.758 L 299.536 161.199"/><path d="M 299.536 161.199 L 298.68 160.682"/><path d="M 298.68 160.682 L 293.508 169.24"/><path d="M 293.508 169.24 L 294.364 169.758"/><path d="M 58.5178 88.2677 L 56.4157 72.3443"/><path d="M 56.4157 72.3443 L 55.4243 72.4752"/><path d="M 55.4243 72.4752 L 57.5264 88.3986"/><path d="M 57.5264 88.3986 L 58.5178 88.2677"/><path d="M 74.8449 78.6407 L 73.3703 88.5314"/><path d="M 73.8558 78.4933 L 74.8449 78.6407"/><path d="M 72.3813 88.384 L 73.8558 78.4933"/><path d="M 73.3703 88.5314 L 72.3813 88.384"/><path d="M 319.088 159.126 L 284.037 154.437"/><path d="M 322.106 167.466 L 244.01 252.427"/><path d="M 322.106 167.466 A 5 5 0 0 0 319.088 159.126"/><path d="M 60.5941 67.1158 L 97.5121 89.9496"/><path d="M 60.5941 67.1158 A 5 5 0 0 0 52.9681 71.5707"/><path d="M 76.2447 434.938 L 237.242 259.789"/><path d="M 67.5677 431.757 L 52.9681 71.5706"/><path d="M 67.5677 431.757 A 5 5 0 0 0 76.2447 434.938"/></g><g stroke="rgb(0, 0, 0)" stroke-width="0.13" stroke-linecap="butt" stroke-linejoin="miter" fill="none"><path d="M 76.8272 223.611 L 76.913 224.08 L 77.1651 224.08 L 77.1651 222.189 L 75.8892 222.189 L 75.8892 222.617 L 76.6759 222.617 L 76.6759 222.648 L 76.6154 223.111 L 76.454 223.454 L 76.2069 223.671 L 75.8993 223.742 L 75.5564 223.651 L 75.2891 223.379 L 75.1176 222.93 L 75.0571 222.315 L 75.1125 221.704 L 75.284 221.256 L 75.5564 220.983 L 75.9245 220.887 L 76.1767 220.938 L 76.3834 221.079 L 76.5347 221.316 L 76.6205 221.634 L 77.1198 221.634 L 76.9886 221.15 L 76.7415 220.787 L 76.3935 220.565 L 75.9548 220.484 L 75.3798 220.61 L 74.9461 220.978 L 74.6687 221.558 L 74.5729 222.33 L 74.6687 223.106 L 74.9461 223.686 L 75.3546 224.055 L 75.869 224.176 L 76.1565 224.135 L 76.4137 224.034 L 76.6356 223.858 L 76.8272 223.611 L 76.8272 223.611 z M 79.5052 223.727 L 79.5052 223.742 L 79.5304 223.913 L 79.6061 224.034 L 79.9238 224.13 L 80.1709 224.09 L 80.1709 223.747 L 80.065 223.762 L 79.9238 223.696 L 79.8986 223.495 L 79.8986 222.093 L 79.8381 221.735 L 79.6615 221.482 L 79.3539 221.331 L 78.9202 221.276 L 78.4966 221.336 L 78.1839 221.508 L 77.9872 221.775 L 77.9216 222.128 L 77.9216 222.158 L 78.32 222.158 L 78.3553 221.946 L 78.4663 221.795 L 78.6479 221.704 L 78.9051 221.669 L 79.1522 221.694 L 79.3287 221.77 L 79.4346 221.901 L 79.4699 222.083 L 79.4497 222.294 L 79.369 222.4 L 79.1673 222.451 L 78.7891 222.491 L 78.3553 222.582 L 78.0477 222.743 L 77.8661 222.995 L 77.8107 223.369 L 77.8611 223.702 L 78.0174 223.949 L 78.2696 224.105 L 78.6176 224.16 L 79.0866 224.055 L 79.5052 223.727 L 79.5052 223.727 z M 79.4548 223.132 L 79.3942 223.394 L 79.2329 223.596 L 78.9908 223.727 L 78.6932 223.772 L 78.5016 223.747 L 78.3654 223.666 L 78.2797 223.525 L 78.2545 223.328 L 78.2747 223.152 L 78.3553 223.026 L 78.6781 222.885 L 79.0866 222.824 L 79.4548 222.703 L 79.4548 223.132 L 79.4548 223.132 z M 81.351 223.661 L 81.6788 224.049 L 82.1277 224.176 L 82.5513 224.08 L 82.8892 223.792 L 83.101 223.333 L 83.1817 222.723 L 83.101 222.113 L 82.8842 221.659 L 82.5513 221.377 L 82.1277 221.276 L 81.6839 221.407 L 81.5023 221.568 L 81.351 221.785 L 81.351 220.459 L 80.9072 220.459 L 80.9072 224.08 L 81.351 224.08 L 81.351 223.661 L 81.351 223.661 z M 82.7278 222.723 L 82.6774 223.177 L 82.5412 223.51 L 82.3244 223.712 L 82.052 223.777 L 81.7545 223.712 L 81.5376 223.51 L 81.4015 223.182 L 81.3561 222.723 L 81.4015 222.269 L 81.5376 221.941 L 81.7545 221.745 L 82.052 221.674 L 82.3244 221.745 L 82.5412 221.946 L 82.6774 222.274 L 82.7278 222.723 L 82.7278 222.723 z M 85.5773 223.727 L 85.5773 223.742 L 85.6025 223.913 L 85.6781 224.034 L 85.9958 224.13 L 86.243 224.09 L 86.243 223.747 L 86.1371 223.762 L 85.9958 223.696 L 85.9706 223.495 L 85.9706 222.093 L 85.9101 221.735 L 85.7336 221.482 L 85.426 221.331 L 84.9922 221.276 L 84.5686 221.336 L 84.2559 221.508 L 84.0592 221.775 L 83.9937 222.128 L 83.9937 222.158 L 84.3921 222.158 L 84.4274 221.946 L 84.5383 221.795 L 84.7199 221.704 L 84.9771 221.669 L 85.2242 221.694 L 85.4007 221.77 L 85.5066 221.901 L 85.5419 222.083 L 85.5218 222.294 L 85.4411 222.4 L 85.2394 222.451 L 84.8611 222.491 L 84.4274 222.582 L 84.1198 222.743 L 83.9382 222.995 L 83.8827 223.369 L 83.9332 223.702 L 84.0895 223.949 L 84.3417 224.105 L 84.6896 224.16 L 85.1587 224.055 L 85.5773 223.727 L 85.5773 223.727 z M 85.5268 223.132 L 85.4663 223.394 L 85.3049 223.596 L 85.0628 223.727 L 84.7653 223.772 L 84.5737 223.747 L 84.4375 223.666 L 84.3517 223.525 L 84.3265 223.328 L 84.3467 223.152 L 84.4274 223.026 L 84.7502 222.885 L 85.1587 222.824 L 85.5268 222.703 L 85.5268 223.132 L 85.5268 223.132 z M 87.1709 224.08 L 87.6147 224.08 L 87.6147 222.531 L 87.6601 222.158 L 87.7963 221.891 L 88.0182 221.73 L 88.3157 221.674 L 88.5376 221.709 L 88.7041 221.81 L 88.8049 221.982 L 88.8402 222.214 L 89.2891 222.214 L 89.2286 221.805 L 89.0621 221.513 L 88.7848 221.336 L 88.4065 221.276 L 88.1493 221.316 L 87.9274 221.417 L 87.7307 221.588 L 87.5744 221.82 L 87.5744 221.372 L 87.1709 221.372 L 87.1709 224.08 L 87.1709 224.08 z M 91.3971 223.707 L 91.3971 221.462 L 90.2574 221.462 L 90.2574 221.841 L 90.9533 221.841 L 90.9533 223.707 L 90.0456 223.707 L 90.0456 224.08 L 92.315 224.08 L 92.315 223.707 L 91.3971 223.707 L 91.3971 223.707 z M 91.4123 220.459 L 90.9433 220.459 L 90.9433 220.963 L 91.4123 220.963 L 91.4123 220.459 L 91.4123 220.459 z M 93.6716 221.841 L 93.6716 223.197 L 93.7019 223.636 L 93.8431 223.939 L 94.1255 224.115 L 94.6046 224.176 L 95.1291 224.15 L 95.1291 223.767 L 94.7458 223.797 L 94.3979 223.757 L 94.2113 223.631 L 94.1306 223.419 L 94.1154 223.122 L 94.1154 221.841 L 95.1291 221.841 L 95.1291 221.462 L 94.1154 221.462 L 94.1154 220.671 L 93.6716 220.671 L 93.6716 221.462 L 92.9051 221.462 L 92.9051 221.841 L 93.6716 221.841 L 93.6716 221.841 z M 99.5823 222.925 L 100.803 222.925 L 100.803 222.526 L 99.5823 222.526 L 99.5823 222.925 L 99.5823 222.925 z M 105.241 224.08 L 107.49 224.08 L 107.49 223.656 L 105.705 223.656 L 105.705 220.58 L 105.241 220.58 L 105.241 224.08 L 105.241 224.08 z M 108.645 222.854 L 110.42 222.854 L 110.425 222.648 L 110.345 222.068 L 110.123 221.634 L 109.77 221.372 L 109.301 221.276 L 108.842 221.377 L 108.489 221.659 L 108.262 222.118 L 108.181 222.723 L 108.257 223.343 L 108.484 223.797 L 108.832 224.08 L 109.285 224.176 L 109.679 224.11 L 110.002 223.939 L 110.239 223.666 L 110.375 223.303 L 109.936 223.303 L 109.845 223.505 L 109.714 223.656 L 109.341 223.777 L 109.054 223.722 L 108.837 223.545 L 108.695 223.258 L 108.645 222.869 L 108.645 222.854 L 108.645 222.854 z M 108.645 222.481 L 108.7 222.133 L 108.837 221.876 L 109.043 221.72 L 109.316 221.664 L 109.583 221.72 L 109.79 221.876 L 109.916 222.133 L 109.961 222.481 L 108.645 222.481 L 108.645 222.481 z M 111.908 221.841 L 111.908 224.08 L 112.352 224.08 L 112.352 221.841 L 113.36 221.841 L 113.36 221.462 L 112.352 221.462 L 112.352 221.296 L 112.387 221.094 L 112.503 220.958 L 112.7 220.877 L 112.982 220.847 L 113.36 220.867 L 113.36 220.484 L 112.881 220.459 L 112.448 220.504 L 112.145 220.64 L 111.963 220.877 L 111.908 221.215 L 111.908 221.462 L 111.096 221.462 L 111.096 221.841 L 111.908 221.841 L 111.908 221.841 z M 114.924 221.841 L 114.924 223.197 L 114.954 223.636 L 115.095 223.939 L 115.378 224.115 L 115.857 224.176 L 116.381 224.15 L 116.381 223.767 L 115.998 223.797 L 115.65 223.757 L 115.463 223.631 L 115.383 223.419 L 115.368 223.122 L 115.368 221.841 L 116.381 221.841 L 116.381 221.462 L 115.368 221.462 L 115.368 220.671 L 114.924 220.671 L 114.924 221.462 L 114.157 221.462 L 114.157 221.841 L 114.924 221.841 L 114.924 221.841 z M 120.411 224.08 L 120.88 224.08 L 120.88 222.471 L 122.353 222.471 L 122.353 222.052 L 120.88 222.052 L 120.88 221.003 L 122.69 221.003 L 122.69 220.58 L 120.411 220.58 L 120.411 224.08 L 120.411 224.08 z M 123.603 224.08 L 124.047 224.08 L 124.047 222.531 L 124.092 222.158 L 124.229 221.891 L 124.45 221.73 L 124.748 221.674 L 124.97 221.709 L 125.136 221.81 L 125.237 221.982 L 125.273 222.214 L 125.721 222.214 L 125.661 221.805 L 125.494 221.513 L 125.217 221.336 L 124.839 221.276 L 124.582 221.316 L 124.36 221.417 L 124.163 221.588 L 124.007 221.82 L 124.007 221.372 L 123.603 221.372 L 123.603 224.08 L 123.603 224.08 z M 126.342 222.728 L 126.422 223.343 L 126.654 223.797 L 127.023 224.08 L 127.517 224.176 L 128.006 224.08 L 128.374 223.802 L 128.606 223.349 L 128.692 222.728 L 128.606 222.113 L 128.374 221.654 L 128.006 221.377 L 127.517 221.276 L 127.023 221.377 L 126.654 221.659 L 126.422 222.113 L 126.342 222.728 L 126.342 222.728 z M 126.796 222.723 L 126.841 222.269 L 126.982 221.941 L 127.209 221.74 L 127.517 221.669 L 127.819 221.74 L 128.046 221.936 L 128.188 222.269 L 128.238 222.723 L 128.188 223.182 L 128.046 223.515 L 127.819 223.717 L 127.517 223.782 L 127.209 223.717 L 126.982 223.515 L 126.841 223.182 L 126.796 222.723 L 126.796 222.723 z M 129.509 224.08 L 129.953 224.08 L 129.953 222.516 L 129.998 222.158 L 130.144 221.896 L 130.371 221.735 L 130.674 221.674 L 130.916 221.725 L 131.067 221.861 L 131.143 222.088 L 131.168 222.39 L 131.168 224.08 L 131.612 224.08 L 131.612 222.299 L 131.592 221.941 L 131.501 221.644 L 131.203 221.372 L 130.739 221.276 L 130.482 221.311 L 130.265 221.407 L 130.079 221.568 L 129.932 221.785 L 129.932 221.372 L 129.509 221.372 L 129.509 224.08 L 129.509 224.08 z M 133.14 221.841 L 133.14 223.197 L 133.17 223.636 L 133.311 223.939 L 133.594 224.115 L 134.073 224.176 L 134.597 224.15 L 134.597 223.767 L 134.214 223.797 L 133.866 223.757 L 133.68 223.631 L 133.599 223.419 L 133.584 223.122 L 133.584 221.841 L 134.597 221.841 L 134.597 221.462 L 133.584 221.462 L 133.584 220.671 L 133.14 220.671 L 133.14 221.462 L 132.373 221.462 L 132.373 221.841 L 133.14 221.841 L 133.14 221.841 z M 138.456 222.748 L 138.526 223.379 L 138.748 223.828 L 139.121 224.085 L 139.661 224.176 L 140.195 224.085 L 140.569 223.828 L 140.791 223.384 L 140.866 222.748 L 140.866 220.58 L 140.397 220.58 L 140.397 222.774 L 140.352 223.202 L 140.216 223.51 L 139.984 223.691 L 139.661 223.752 L 139.328 223.691 L 139.096 223.51 L 138.96 223.207 L 138.92 222.774 L 138.92 220.58 L 138.456 220.58 L 138.456 222.748 L 138.456 222.748 z M 142.072 221.79 L 142.072 221.372 L 141.628 221.372 L 141.628 225.129 L 142.072 225.129 L 142.072 223.666 L 142.228 223.903 L 142.404 224.06 L 142.848 224.176 L 143.272 224.08 L 143.605 223.792 L 143.822 223.338 L 143.902 222.723 L 143.822 222.113 L 143.605 221.659 L 143.272 221.377 L 142.848 221.276 L 142.606 221.306 L 142.399 221.402 L 142.223 221.563 L 142.072 221.79 L 142.072 221.79 z M 142.773 223.777 L 142.475 223.712 L 142.258 223.51 L 142.122 223.182 L 142.077 222.723 L 142.122 222.269 L 142.258 221.941 L 142.475 221.745 L 142.773 221.674 L 143.045 221.745 L 143.262 221.946 L 143.398 222.274 L 143.448 222.723 L 143.398 223.177 L 143.262 223.51 L 143.045 223.712 L 142.773 223.777 L 142.773 223.777 z M 145.108 221.79 L 145.108 221.372 L 144.664 221.372 L 144.664 225.129 L 145.108 225.129 L 145.108 223.666 L 145.264 223.903 L 145.44 224.06 L 145.884 224.176 L 146.308 224.08 L 146.641 223.792 L 146.858 223.338 L 146.938 222.723 L 146.858 222.113 L 146.641 221.659 L 146.308 221.377 L 145.884 221.276 L 145.642 221.306 L 145.435 221.402 L 145.259 221.563 L 145.108 221.79 L 145.108 221.79 z M 145.809 223.777 L 145.511 223.712 L 145.294 223.51 L 145.158 223.182 L 145.113 222.723 L 145.158 222.269 L 145.294 221.941 L 145.511 221.745 L 145.809 221.674 L 146.081 221.745 L 146.298 221.946 L 146.434 222.274 L 146.484 222.723 L 146.434 223.177 L 146.298 223.51 L 146.081 223.712 L 145.809 223.777 L 145.809 223.777 z M 148.113 222.854 L 149.889 222.854 L 149.894 222.648 L 149.813 222.068 L 149.591 221.634 L 149.238 221.372 L 148.769 221.276 L 148.31 221.377 L 147.957 221.659 L 147.73 222.118 L 147.649 222.723 L 147.725 223.343 L 147.952 223.797 L 148.3 224.08 L 148.754 224.176 L 149.147 224.11 L 149.47 223.939 L 149.707 223.666 L 149.843 223.303 L 149.404 223.303 L 149.314 223.505 L 149.182 223.656 L 148.809 223.777 L 148.522 223.722 L 148.305 223.545 L 148.164 223.258 L 148.113 222.869 L 148.113 222.854 L 148.113 222.854 z M 148.113 222.481 L 148.169 222.133 L 148.305 221.876 L 148.512 221.72 L 148.784 221.664 L 149.051 221.72 L 149.258 221.876 L 149.384 222.133 L 149.43 222.481 L 148.113 222.481 L 148.113 222.481 z M 150.927 224.08 L 151.371 224.08 L 151.371 222.531 L 151.417 222.158 L 151.553 221.891 L 151.775 221.73 L 152.072 221.674 L 152.294 221.709 L 152.461 221.81 L 152.561 221.982 L 152.597 222.214 L 153.046 222.214 L 152.985 221.805 L 152.819 221.513 L 152.541 221.336 L 152.163 221.276 L 151.906 221.316 L 151.684 221.417 L 151.487 221.588 L 151.331 221.82 L 151.331 221.372 L 150.927 221.372 L 150.927 224.08 L 150.927 224.08 z M 156.344 224.08 L 156.808 224.08 L 157.176 223.051 L 158.573 223.051 L 158.941 224.08 L 159.415 224.08 L 158.134 220.575 L 157.62 220.575 L 156.344 224.08 L 156.344 224.08 z M 157.337 222.622 L 157.877 221.079 L 158.417 222.622 L 157.337 222.622 L 157.337 222.622 z M 160.303 222.925 L 161.523 222.925 L 161.523 222.526 L 160.303 222.526 L 160.303 222.925 L 160.303 222.925 z M 162.416 224.08 L 162.88 224.08 L 163.248 223.051 L 164.645 223.051 L 165.013 224.08 L 165.487 224.08 L 164.206 220.575 L 163.692 220.575 L 162.416 224.08 L 162.416 224.08 z M 163.409 222.622 L 163.949 221.079 L 164.489 222.622 L 163.409 222.622 L 163.409 222.622 z M 166.108 224.08 L 166.551 224.08 L 166.551 222.531 L 166.597 222.158 L 166.733 221.891 L 166.955 221.73 L 167.252 221.674 L 167.474 221.709 L 167.641 221.81 L 167.742 221.982 L 167.777 222.214 L 168.226 222.214 L 168.165 221.805 L 167.999 221.513 L 167.721 221.336 L 167.343 221.276 L 167.086 221.316 L 166.864 221.417 L 166.667 221.588 L 166.511 221.82 L 166.511 221.372 L 166.108 221.372 L 166.108 224.08 L 166.108 224.08 z M 168.801 224.08 L 169.209 224.08 L 169.209 222.269 L 169.234 221.997 L 169.31 221.8 L 169.426 221.684 L 169.577 221.639 L 169.698 221.679 L 169.779 221.78 L 169.819 221.952 L 169.835 222.178 L 169.835 224.08 L 170.218 224.08 L 170.218 222.269 L 170.243 222.002 L 170.319 221.805 L 170.44 221.684 L 170.591 221.639 L 170.712 221.679 L 170.793 221.78 L 170.843 222.178 L 170.843 224.08 L 171.252 224.08 L 171.252 222.209 L 171.226 221.82 L 171.146 221.523 L 170.984 221.341 L 170.722 221.276 L 170.415 221.377 L 170.177 221.669 L 169.991 221.382 L 169.678 221.276 L 169.391 221.377 L 169.194 221.659 L 169.194 221.372 L 168.801 221.372 L 168.801 224.08 L 168.801 224.08 z M 175.483 222.925 L 176.703 222.925 L 176.703 222.526 L 175.483 222.526 L 175.483 222.925 L 175.483 222.925 z M 181.101 224.08 L 181.565 224.08 L 181.565 222.602 L 182.08 222.602 L 182.599 222.577 L 183.013 222.4 L 183.28 222.057 L 183.371 221.588 L 183.3 221.155 L 183.098 220.837 L 182.765 220.645 L 182.311 220.58 L 181.101 220.58 L 181.101 224.08 L 181.101 224.08 z M 182.185 221.008 L 182.488 221.039 L 182.71 221.135 L 182.841 221.311 L 182.886 221.588 L 182.836 221.881 L 182.7 222.057 L 182.468 222.148 L 182.15 222.173 L 181.565 222.173 L 181.565 221.008 L 182.185 221.008 L 182.185 221.008 z M 185.04 220.832 L 185.04 223.707 L 184.127 223.707 L 184.127 224.08 L 186.391 224.08 L 186.391 223.707 L 185.484 223.707 L 185.484 220.459 L 184.344 220.459 L 184.344 220.832 L 185.04 220.832 L 185.04 220.832 z M 188.802 223.727 L 188.802 223.742 L 188.827 223.913 L 188.903 224.034 L 189.221 224.13 L 189.468 224.09 L 189.468 223.747 L 189.362 223.762 L 189.221 223.696 L 189.196 223.495 L 189.196 222.093 L 189.135 221.735 L 188.958 221.482 L 188.651 221.331 L 188.217 221.276 L 187.793 221.336 L 187.481 221.508 L 187.284 221.775 L 187.219 222.128 L 187.219 222.158 L 187.617 222.158 L 187.652 221.946 L 187.763 221.795 L 187.945 221.704 L 188.202 221.669 L 188.449 221.694 L 188.626 221.77 L 188.732 221.901 L 188.767 222.083 L 188.747 222.294 L 188.666 222.4 L 188.464 222.451 L 188.086 222.491 L 187.652 222.582 L 187.345 222.743 L 187.163 222.995 L 187.108 223.369 L 187.158 223.702 L 187.314 223.949 L 187.567 224.105 L 187.915 224.16 L 188.384 224.055 L 188.802 223.727 L 188.802 223.727 z M 188.752 223.132 L 188.691 223.394 L 188.53 223.596 L 188.288 223.727 L 187.99 223.772 L 187.799 223.747 L 187.662 223.666 L 187.577 223.525 L 187.551 223.328 L 187.572 223.152 L 187.652 223.026 L 187.975 222.885 L 188.384 222.824 L 188.752 222.703 L 188.752 223.132 L 188.752 223.132 z M 191.894 221.79 L 191.737 221.563 L 191.561 221.402 L 191.354 221.311 L 191.117 221.276 L 190.688 221.377 L 190.355 221.659 L 190.139 222.113 L 190.063 222.723 L 190.139 223.338 L 190.355 223.792 L 190.688 224.08 L 191.117 224.176 L 191.354 224.145 L 191.556 224.06 L 191.732 223.903 L 191.894 223.666 L 191.894 225.129 L 192.337 225.129 L 192.337 221.372 L 191.894 221.372 L 191.894 221.79 L 191.894 221.79 z M 190.517 222.723 L 190.562 222.274 L 190.703 221.946 L 190.915 221.745 L 191.193 221.674 L 191.485 221.745 L 191.707 221.941 L 191.838 222.269 L 191.889 222.723 L 191.838 223.182 L 191.707 223.51 L 191.485 223.712 L 191.193 223.777 L 190.915 223.712 L 190.703 223.51 L 190.562 223.177 L 190.517 222.723 L 190.517 222.723 z M 195.353 221.372 L 194.909 221.372 L 194.909 222.935 L 194.859 223.298 L 194.713 223.56 L 194.486 223.722 L 194.188 223.772 L 193.951 223.732 L 193.8 223.611 L 193.714 223.404 L 193.694 223.111 L 193.694 221.372 L 193.25 221.372 L 193.25 223.152 L 193.265 223.51 L 193.361 223.807 L 193.654 224.08 L 194.123 224.176 L 194.375 224.14 L 194.592 224.049 L 194.778 223.893 L 194.93 223.666 L 194.93 224.08 L 195.353 224.08 L 195.353 221.372 L 195.353 221.372 z M 196.69 222.854 L 198.465 222.854 L 198.47 222.648 L 198.389 222.068 L 198.167 221.634 L 197.814 221.372 L 197.345 221.276 L 196.886 221.377 L 196.533 221.659 L 196.306 222.118 L 196.226 222.723 L 196.301 223.343 L 196.528 223.797 L 196.876 224.08 L 197.33 224.176 L 197.724 224.11 L 198.046 223.939 L 198.283 223.666 L 198.42 223.303 L 197.981 223.303 L 197.89 223.505 L 197.759 223.656 L 197.386 223.777 L 197.098 223.722 L 196.881 223.545 L 196.74 223.258 L 196.69 222.869 L 196.69 222.854 L 196.69 222.854 z M 196.69 222.481 L 196.745 222.133 L 196.881 221.876 L 197.088 221.72 L 197.361 221.664 L 197.628 221.72 L 197.835 221.876 L 197.961 222.133 L 198.006 222.481 L 196.69 222.481 L 196.69 222.481 z M 204.038 223.661 L 204.038 224.08 L 204.482 224.08 L 204.482 220.459 L 204.043 220.459 L 204.043 221.785 L 203.705 221.402 L 203.498 221.311 L 203.261 221.276 L 202.832 221.377 L 202.5 221.659 L 202.283 222.113 L 202.207 222.723 L 202.283 223.333 L 202.5 223.792 L 202.832 224.08 L 203.261 224.176 L 203.498 224.14 L 203.71 224.049 L 204.038 223.661 L 204.038 223.661 z M 203.337 221.674 L 203.629 221.745 L 203.851 221.941 L 203.982 222.269 L 204.033 222.723 L 203.982 223.182 L 203.851 223.51 L 203.629 223.712 L 203.337 223.777 L 203.059 223.712 L 202.848 223.51 L 202.706 223.177 L 202.661 222.723 L 202.706 222.274 L 202.848 221.946 L 203.059 221.745 L 203.337 221.674 L 203.337 221.674 z M 207.497 221.372 L 207.054 221.372 L 207.054 222.935 L 207.003 223.298 L 206.857 223.56 L 206.63 223.722 L 206.332 223.772 L 206.095 223.732 L 205.944 223.611 L 205.858 223.404 L 205.838 223.111 L 205.838 221.372 L 205.394 221.372 L 205.394 223.152 L 205.41 223.51 L 205.505 223.807 L 205.798 224.08 L 206.267 224.176 L 206.519 224.14 L 206.736 224.049 L 206.922 223.893 L 207.074 223.666 L 207.074 224.08 L 207.497 224.08 L 207.497 221.372 L 207.497 221.372 z M 213.156 222.189 L 213.509 221.896 L 213.6 221.699 L 213.63 221.457 L 213.564 221.079 L 213.368 220.807 L 213.05 220.64 L 212.606 220.58 L 211.361 220.58 L 211.361 224.08 L 212.677 224.08 L 213.146 224.009 L 213.494 223.802 L 213.711 223.475 L 213.786 223.031 L 213.741 222.733 L 213.62 222.486 L 213.423 222.305 L 213.156 222.189 L 213.156 222.189 z M 212.51 222.032 L 211.824 222.032 L 211.824 220.998 L 212.551 220.998 L 212.823 221.029 L 213.015 221.119 L 213.131 221.276 L 213.171 221.508 L 213.126 221.74 L 213.005 221.901 L 212.798 222.002 L 212.51 222.032 L 212.51 222.032 z M 212.621 223.661 L 211.824 223.661 L 211.824 222.456 L 212.576 222.456 L 212.894 222.491 L 213.121 222.597 L 213.257 222.779 L 213.302 223.041 L 213.257 223.318 L 213.131 223.51 L 212.919 223.626 L 212.621 223.661 L 212.621 223.661 z M 216.126 223.727 L 216.126 223.742 L 216.152 223.913 L 216.227 224.034 L 216.545 224.13 L 216.792 224.09 L 216.792 223.747 L 216.686 223.762 L 216.545 223.696 L 216.52 223.495 L 216.52 222.093 L 216.459 221.735 L 216.283 221.482 L 215.975 221.331 L 215.541 221.276 L 215.118 221.336 L 214.805 221.508 L 214.608 221.775 L 214.543 222.128 L 214.543 222.158 L 214.941 222.158 L 214.977 221.946 L 215.087 221.795 L 215.269 221.704 L 215.526 221.669 L 215.773 221.694 L 215.95 221.77 L 216.056 221.901 L 216.091 222.083 L 216.071 222.294 L 215.99 222.4 L 215.788 222.451 L 215.41 222.491 L 214.977 222.582 L 214.669 222.743 L 214.487 222.995 L 214.432 223.369 L 214.482 223.702 L 214.639 223.949 L 214.891 224.105 L 215.239 224.16 L 215.708 224.055 L 216.126 223.727 L 216.126 223.727 z M 216.076 223.132 L 216.015 223.394 L 215.854 223.596 L 215.612 223.727 L 215.314 223.772 L 215.123 223.747 L 214.987 223.666 L 214.901 223.525 L 214.876 223.328 L 214.896 223.152 L 214.977 223.026 L 215.299 222.885 L 215.708 222.824 L 216.076 222.703 L 216.076 223.132 L 216.076 223.132 z M 218.88 222.501 L 218.451 222.4 L 218.134 222.284 L 218.028 222.047 L 218.058 221.881 L 218.164 221.76 L 218.335 221.684 L 218.582 221.654 L 218.819 221.684 L 219.006 221.775 L 219.127 221.911 L 219.178 222.093 L 219.611 222.093 L 219.611 222.083 L 219.536 221.755 L 219.329 221.498 L 219.006 221.336 L 218.582 221.276 L 218.154 221.336 L 217.841 221.503 L 217.644 221.75 L 217.584 222.063 L 217.629 222.365 L 217.77 222.577 L 218.002 222.728 L 218.34 222.834 L 218.835 222.955 L 219.137 223.081 L 219.218 223.182 L 219.248 223.333 L 219.203 223.52 L 219.082 223.661 L 218.885 223.752 L 218.623 223.782 L 218.345 223.752 L 218.144 223.646 L 218.007 223.475 L 217.952 223.238 L 217.523 223.238 L 217.594 223.641 L 217.801 223.934 L 218.129 224.11 L 218.582 224.176 L 219.056 224.11 L 219.404 223.934 L 219.616 223.651 L 219.692 223.283 L 219.636 222.965 L 219.48 222.748 L 219.223 222.607 L 218.88 222.501 L 218.88 222.501 z" stroke="none" fill-rule="evenodd" fill="rgb(0, 0, 0)"/></g></svg>