<?xml version="1.0" encoding="utf-8"?>
<!-- Generator: Adobe Illustrator 22.1.0, SVG Export Plug-In . SVG Version: 6.00 Build 0)  -->
<svg version="1.1" id="Calque_1" dsy:text-version="18000" xmlns:dsy="http://www.3ds.com/print"
	 xmlns="http://www.w3.org/2000/svg" xmlns:xlink="http://www.w3.org/1999/xlink" x="0px" y="0px" viewBox="0 0 1189 841"
	 style="enable-background:new 0 0 1189 841;" xml:space="preserve">
<style type="text/css">
	.st0{fill:none;stroke:#FF0000;stroke-width:2.834646e-02;}
</style>
<path class="st0" d="M-418.1-421.6l-16.1,6.2"/>
<path class="st0" d="M-438.6-475.2l20.5,53.6"/>
<path class="st0" d="M-842.6-258.9l-20.5-53.6"/>
<path class="st0" d="M-826.5-265.1l-16.1,6.2"/>
<path class="st0" d="M-847-318.7l20.5,53.6"/>
<path class="st0" d="M-454.7-469L-847-318.7"/>
<path class="st0" d="M-434.2-415.4l-20.5-53.6"/>
<circle class="st0" cx="-237.5" cy="-490.4" r="9.2"/>
<circle class="st0" cx="-403.2" cy="516.7" r="17.2"/>
<circle class="st0" cx="-359.6" cy="679" r="9.2"/>
<path class="st0" d="M-438.6-475.2l203.9-41.2"/>
<path class="st0" d="M-200.4-485.7c1.4-15.8-10.3-29.7-26-31.1c-2.7-0.2-5.5-0.1-8.2,0.5"/>
<path class="st0" d="M-863.1-312.5l-49.3,18.9"/>
<path class="st0" d="M-912.4-293.6c-14.8,5.7-22.2,22.3-16.5,37.1c0.5,1.3,1.1,2.6,1.8,3.9"/>
<path class="st0" d="M-307.4,715.6l107-1201.3"/>
<path class="st0" d="M-927.1-252.7l555.4,982.2"/>
<path class="st0" d="M-371.7,729.5c9.4,16.6,30.4,22.4,46.9,13c9.9-5.6,16.3-15.6,17.4-26.9"/>
<path class="st0" d="M47.3-322.3l17.2,0.2"/>
<path class="st0" d="M64.6-322.2l-0.5,57.4"/>
<path class="st0" d="M64.1-264.8l23,0.2"/>
<path class="st0" d="M87-264.6l0.5-57.4"/>
<path class="st0" d="M87.5-321.9l17.2,0.2"/>
<path class="st0" d="M104.7-321.8l-0.5,57.4"/>
<path class="st0" d="M104.2-264.4l71.7,0.6"/>
<path class="st0" d="M176-263.8v-200.9"/>
<path class="st0" d="M129.5-465.1l46.5,0.4"/>
<path class="st0" d="M72.1-465.6c-0.2,15.8,12.5,28.9,28.3,29.1c15.8,0.2,28.9-12.5,29.1-28.3c0-0.1,0-0.2,0-0.3"/>
<path class="st0" d="M-37.5-466.6l109.5,1"/>
<path class="st0" d="M-39.3-265.7l1.8-200.9"/>
<path class="st0" d="M-10.6-265.4l-28.7-0.3"/>
<path class="st0" d="M-10-322.8l-0.5,57.4"/>
<path class="st0" d="M7.2-322.7l-17.2-0.2"/>
<path class="st0" d="M6.7-265.3l0.5-57.4"/>
<path class="st0" d="M46.8-264.9l-40.2-0.4"/>
<path class="st0" d="M47.3-322.3l-0.5,57.4"/>
<path class="st0" d="M440.6-321.7l17.2,0.2"/>
<path class="st0" d="M457.8-321.6l-0.5,57.4"/>
<path class="st0" d="M457.3-264.2l23,0.2"/>
<path class="st0" d="M480.3-264l0.5-57.4"/>
<path class="st0" d="M480.8-321.3l17.2,0.2"/>
<path class="st0" d="M498-321.2l-0.5,57.4"/>
<path class="st0" d="M497.5-263.8l71.7,0.6"/>
<path class="st0" d="M569.2-263.1v-198"/>
<path class="st0" d="M522.6-461.6l46.6,0.4"/>
<path class="st0" d="M465.5-462.1c1.4,15.8,15.4,27.4,31.2,26c13.6-1.2,24.4-11.9,25.9-25.5"/>
<path class="st0" d="M355.8-463.1l109.7,1"/>
<path class="st0" d="M354-265.1l1.8-198"/>
<path class="st0" d="M382.7-264.8l-28.7-0.3"/>
<path class="st0" d="M383.2-322.2l-0.5,57.4"/>
<path class="st0" d="M400.4-322.1l-17.2-0.2"/>
<path class="st0" d="M399.9-264.7l0.5-57.4"/>
<path class="st0" d="M440.1-264.3l-40.2-0.4"/>
<path class="st0" d="M440.6-321.7l-0.5,57.4"/>
<path class="st0" d="M587.4-45.3l20.5,53.6"/>
<path class="st0" d="M607.9,8.3l-15.8,6.1"/>
<path class="st0" d="M592.1,14.4l-20.5-53.6"/>
<path class="st0" d="M571.6-39.2L178.7,111.3"/>
<path class="st0" d="M178.7,111.3l20.5,53.6"/>
<path class="st0" d="M199.3,164.9l-15.8,6.1"/>
<path class="st0" d="M183.5,171l-20.5-53.6"/>
<circle class="st0" cx="-20" cy="235.4" r="9.2"/>
<circle class="st0" cx="788.6" cy="-60.5" r="9.2"/>
<circle class="st0" cx="666.4" cy="1108.9" r="9.2"/>
<circle class="st0" cx="622.8" cy="946.6" r="17.2"/>
<path class="st0" d="M523.2,179.1l53.6-20.5"/>
<path class="st0" d="M576.8,158.6l51.4,134"/>
<path class="st0" d="M628.1,292.6l-53.6,20.5"/>
<path class="st0" d="M574.5,313.1l-51.4-134"/>
<path class="st0" d="M338.7,249.8l-40.2,15.4"/>
<path class="st0" d="M415.7,327.8l-77-78.1"/>
<path class="st0" d="M408.5,223l7.2,104.8"/>
<path class="st0" d="M448.7,207.6L408.5,223"/>
<path class="st0" d="M448.7,361.3V207.6"/>
<path class="st0" d="M408.5,376.7l40.2-15.4"/>
<path class="st0" d="M298.5,265.2l110,111.5"/>
<path class="st0" d="M-34,249.9l-2,2.1"/>
<path class="st0" d="M-36,252l-26.8-26"/>
<path class="st0" d="M-62.7,226l2-2.1"/>
<path class="st0" d="M-34,249.9l-26.8-26"/>
<path class="st0" d="M-2.6,225.5l-17.1-29.9"/>
<path class="st0" d="M-17.2,194.2l-2.5,1.4"/>
<path class="st0" d="M-0.1,224.1l-17.1-29.9"/>
<path class="st0" d="M-2.6,225.5l2.5-1.4"/>
<path class="st0" d="M807.7-54.4l4.7-14.9"/>
<path class="st0" d="M812.5-69.4l2.7,0.9"/>
<path class="st0" d="M815.2-68.5l-4.7,14.9"/>
<path class="st0" d="M810.5-53.6l-2.7-0.9"/>
<path class="st0" d="M765.6-61.6l2.9,0.2"/>
<path class="st0" d="M767.4-91.3l-1.8,29.7"/>
<path class="st0" d="M770.3-91.3h-2.9"/>
<path class="st0" d="M768.5-61.4l1.8-29.9"/>
<path class="st0" d="M452.4,407.6l138-52.9"/>
<path class="st0" d="M606.9,397.6c11.8-4.5,17.8-17.8,13.2-29.7c-4.5-11.8-17.8-17.8-29.7-13.2l0,0"/>
<path class="st0" d="M606.9,397.6l-138,52.9"/>
<path class="st0" d="M452.4,407.6c-11.8,4.6-17.7,17.9-13,29.7c4.6,11.7,17.7,17.6,29.5,13.1"/>
<path class="st0" d="M782.8,533.4c0.8,0.1,1.5-0.5,1.6-1.3"/>
<path class="st0" d="M782.8,533.4l-82.8-8.6"/>
<path class="st0" d="M700,524.8c-0.8-0.1-1.5,0.5-1.6,1.3c0,0,0,0,0,0"/>
<path class="st0" d="M778.1,592.1c0.1-0.8-0.5-1.5-1.3-1.6c0,0,0,0,0,0"/>
<path class="st0" d="M698.4,526.1l-5.7,54.2"/>
<path class="st0" d="M694.1,581.9l82.8,8.6"/>
<path class="st0" d="M692.8,580.3c-0.1,0.8,0.5,1.5,1.3,1.6"/>
<path class="st0" d="M768.1-114.5L587.4-45.3"/>
<path class="st0" d="M845.7-55l-61.3,587.1"/>
<path class="st0" d="M845.7-55c3.3-31.5-19.6-59.8-51.1-63.1c-9-0.9-18.1,0.3-26.5,3.5"/>
<path class="st0" d="M162.9,117.4l-195.3,74.8"/>
<path class="st0" d="M-32.4,192.2c-29.6,11.3-44.4,44.5-33.1,74.1c2.1,5.4,4.9,10.4,8.5,14.9"/>
<path class="st0" d="M778.1,592.1l-54.6,522.8"/>
<path class="st0" d="M-57,281.3l678.3,863.1"/>
<path class="st0" d="M621.3,1144.4c19.6,24.9,55.7,29.3,80.6,9.7c12.2-9.6,20-23.7,21.6-39.2"/>
<path class="st0" d="M1884.3,259.5l85.6,8.9"/>
<path class="st0" d="M1890.3,202.4l-6,57.1"/>
<path class="st0" d="M1975.9,211.4l-85.6-8.9"/>
<path class="st0" d="M2047.1-470.2l-71.2,681.6"/>
<path class="st0" d="M1779.1-367.5l268-102.7"/>
<path class="st0" d="M1779.1-367.5l20.5,53.6"/>
<path class="st0" d="M1783.8-307.9l15.8-6.1"/>
<path class="st0" d="M1783.8-307.9l-20.5-53.6"/>
<path class="st0" d="M1370.4-210.9l392.9-150.6"/>
<path class="st0" d="M1391-157.3l-20.5-53.6"/>
<path class="st0" d="M1375.1-151.2l15.8-6.1"/>
<path class="st0" d="M1354.6-204.8l20.5,53.6"/>
<path class="st0" d="M1086.6-102.1l268-102.7"/>
<circle class="st0" cx="1171.7" cy="-86.8" r="9.2"/>
<circle class="st0" cx="1980.2" cy="-382.7" r="9.2"/>
<circle class="st0" cx="1858.1" cy="786.7" r="9.2"/>
<circle class="st0" cx="1814.5" cy="624.3" r="17.2"/>
<path class="st0" d="M1714.8-143.1l53.6-20.5"/>
<path class="st0" d="M1768.4-163.7l51.4,134"/>
<path class="st0" d="M1819.8-29.7l-53.6,20.5"/>
<path class="st0" d="M1766.2-9.1l-51.4-134"/>
<path class="st0" d="M1530.4-72.4L1490.2-57"/>
<path class="st0" d="M1607.4,5.6l-77-78.1"/>
<path class="st0" d="M1600.2-99.2l7.2,104.8"/>
<path class="st0" d="M1640.4-114.6l-40.2,15.4"/>
<path class="st0" d="M1640.4,39.1v-153.7"/>
<path class="st0" d="M1600.2,54.5l40.2-15.4"/>
<path class="st0" d="M1490.2-57l110,111.5"/>
<path class="st0" d="M2012.9-419l-2.8-0.7"/>
<path class="st0" d="M2002.5-377.2l10.4-41.8"/>
<path class="st0" d="M1999.7-377.9l2.8,0.7"/>
<path class="st0" d="M2010.1-419.7l-10.4,41.8"/>
<path class="st0" d="M1174-121.8l2.5-1.5"/>
<path class="st0" d="M1176.5-123.3l14.8,24.6"/>
<path class="st0" d="M1191.3-98.7l-2.5,1.5"/>
<path class="st0" d="M1174-121.8l14.9,24.6"/>
<path class="st0" d="M1155.2-70.9l2.3-1.7"/>
<path class="st0" d="M1136.8-96.5l18.4,25.6"/>
<path class="st0" d="M1139.1-98.2l-2.3,1.7"/>
<path class="st0" d="M1157.5-72.6l-18.4-25.6"/>
<path class="st0" d="M1957.3-381.9l2.9-0.1"/>
<path class="st0" d="M1955.7-424.9l1.5,43"/>
<path class="st0" d="M1958.6-425l-2.9,0.1"/>
<path class="st0" d="M1960.1-382l-1.5-43"/>
<path class="st0" d="M1086.6-102.1L1813,822.2"/>
<path class="st0" d="M1970,268.5l-54.8,524.2"/>
<path class="st0" d="M1813,822.2c19.6,24.9,55.7,29.2,80.6,9.6c12.2-9.6,20-23.7,21.6-39.1"/>
<g>
	<path d="M-639.7-58.4h1.9v-6.1h2l1.4,0.1l0.9,0.3l0.5,0.7l0.2,1.2l0.1,1.9l0.1,1.2l0.2,0.7h2.2v-0.4l-0.5-0.6l-0.2-1.1l-0.1-2.3
		l-0.4-1.7l-0.5-0.5l-0.7-0.4l0.8-0.5l0.6-0.7l0.4-0.9l0.1-1.1l-0.3-1.7l-0.8-1.3l-1.4-0.8l-1.9-0.3h-4.8V-58.4L-639.7-58.4z
		 M-635.4-71l1.3,0.1l0.9,0.4l0.6,0.7l0.2,1.1l-0.2,1.2l-0.6,0.7l-0.9,0.4l-1.3,0.1h-2.2V-71H-635.4L-635.4-71z M-625.3-63.4h7.3
		l0-0.8l-0.3-2.4l-0.9-1.8l-1.4-1.1l-1.9-0.4l-1.9,0.4l-1.4,1.2l-0.9,1.9l-0.3,2.5l0.3,2.5l0.9,1.9l1.4,1.2l1.9,0.4l1.6-0.3l1.3-0.7
		l1-1.1l0.6-1.5h-1.8l-0.4,0.8l-0.5,0.6l-1.5,0.5l-1.2-0.2l-0.9-0.7l-0.6-1.2L-625.3-63.4L-625.3-63.4L-625.3-63.4z M-625.3-65
		l0.2-1.4l0.6-1.1l0.8-0.6l1.1-0.2l1.1,0.2l0.8,0.6l0.5,1.1l0.2,1.4H-625.3L-625.3-65z M-607.8-59.9L-607.8-59.9l0.1,0.8l0.3,0.5
		l1.3,0.4l1-0.2v-1.4l-0.4,0.1l-0.6-0.3l-0.1-0.8v-5.7l-0.2-1.5l-0.7-1l-1.3-0.6l-1.8-0.2l-1.7,0.2l-1.3,0.7l-0.8,1.1l-0.3,1.4v0.1
		h1.6l0.1-0.9l0.5-0.6l0.7-0.4l1.1-0.1l1,0.1l0.7,0.3l0.4,0.5l0.1,0.7l-0.1,0.9l-0.3,0.4l-0.8,0.2l-1.5,0.2l-1.8,0.4l-1.3,0.7
		l-0.7,1l-0.2,1.5l0.2,1.4l0.6,1l1,0.6l1.4,0.2l1.9-0.4L-607.8-59.9L-607.8-59.9z M-608-62.3l-0.2,1.1l-0.7,0.8l-1,0.5l-1.2,0.2
		l-0.8-0.1l-0.6-0.3l-0.4-0.6l-0.1-0.8l0.1-0.7l0.3-0.5l1.3-0.6l1.7-0.2l1.5-0.5V-62.3L-608-62.3z M-601.3-58.4h1.8v-6.3l0.2-1.5
		l0.6-1.1l0.9-0.7l1.2-0.2l0.9,0.1l0.7,0.4l0.4,0.7l0.1,0.9h1.8l-0.2-1.7l-0.7-1.2l-1.1-0.7l-1.5-0.2l-1.1,0.2l-0.9,0.4l-0.8,0.7
		l-0.6,1v-1.8h-1.7V-58.4L-601.3-58.4z M-591.5-55v1.4h12.4V-55H-591.5L-591.5-55z M-577.4-58.4h1.9v-6.1h2l1.4,0.1l0.9,0.3l0.5,0.7
		l0.2,1.2l0.1,1.9l0.1,1.2l0.2,0.7h2.2v-0.4l-0.5-0.6l-0.2-1.1l-0.1-2.3l-0.4-1.7l-0.5-0.5l-0.7-0.4l0.8-0.5l0.6-0.7l0.4-0.9
		l0.1-1.1l-0.3-1.7l-0.8-1.3l-1.4-0.8l-1.9-0.3h-4.8V-58.4L-577.4-58.4z M-573.2-71l1.3,0.1l0.9,0.4l0.6,0.7l0.2,1.1l-0.2,1.2
		l-0.6,0.7l-1,0.4l-1.3,0.1h-2.2V-71H-573.2L-573.2-71z M-559.1-59.9v-9.2h-4.7v1.5h2.9v7.7h-3.7v1.5h9.3v-1.5H-559.1L-559.1-59.9z
		 M-559-73.3h-1.9v2.1h1.9V-73.3L-559-73.3z M-543.5-58.9v-10.6h-1.7v1.8l-1.4-1.6l-0.9-0.4l-1-0.1l-1.8,0.4l-1.4,1.2l-0.9,1.9
		l-0.3,2.5l0.3,2.5l0.9,1.9l1.4,1.2l1.8,0.4l1-0.1l0.8-0.4l1.4-1.6v1.6l-0.2,1.2l-0.5,0.9l-0.9,0.5l-1.3,0.2l-1.1-0.1l-0.8-0.3
		l-0.5-0.5l-0.1-0.7h-1.8v0.1l0.3,1.3l0.8,1l1.3,0.6l1.8,0.2l2.2-0.3l1.4-0.9l0.8-1.5L-543.5-58.9L-543.5-58.9z M-551-64l0.2-1.8
		l0.6-1.4l0.9-0.8l1.2-0.3l1.2,0.3l0.9,0.8l0.6,1.4l0.2,1.8l-0.2,1.9l-0.6,1.3l-0.9,0.8l-1.2,0.3l-1.2-0.3l-0.9-0.8l-0.6-1.4
		L-551-64L-551-64z M-539.7-58.4h1.8v-6.4l0.2-1.5l0.6-1.1l0.9-0.7l1.2-0.2l1,0.2l0.6,0.6l0.3,0.9l0.1,1.2v6.9h1.8v-7.3l-0.1-1.5
		l-0.4-1.2l-1.2-1.1l-1.9-0.4l-1,0.1l-0.9,0.4l-0.7,0.6l-0.6,0.8v-5.4h-1.8V-58.4L-539.7-58.4z M-524.9-67.6v5.6l0.1,1.8l0.6,1.2
		l1.2,0.7l2,0.2l2.1-0.1v-1.6l-1.6,0.1l-1.4-0.2l-0.8-0.5l-0.3-0.9l-0.1-1.2v-5.3h4.2v-1.5h-4.2v-3.2h-1.8v3.2h-3.1v1.5H-524.9
		L-524.9-67.6z M-516.8-55v1.4h12.4V-55H-516.8L-516.8-55z M-502.3-58.4h9.2v-1.7h-7.3v-12.6h-1.9V-58.4L-502.3-58.4z M-490.5-64
		l0.3,2.5l0.9,1.9l1.5,1.2l2,0.4l2-0.4l1.5-1.1l0.9-1.9l0.4-2.5l-0.4-2.5l-0.9-1.9l-1.5-1.1l-2-0.4l-2,0.4l-1.5,1.2l-0.9,1.9
		L-490.5-64L-490.5-64z M-488.6-64l0.2-1.9l0.6-1.3l0.9-0.8l1.3-0.3l1.2,0.3l0.9,0.8l0.6,1.4l0.2,1.9l-0.2,1.9l-0.6,1.4l-0.9,0.8
		l-1.2,0.3l-1.3-0.3l-0.9-0.8l-0.6-1.4L-488.6-64L-488.6-64z M-474.9-58.4l1.7-9.4l1.7,9.4h1.7l2.7-11.1h-1.8l-1.8,9.4l-1.6-9.4
		h-1.8l-1.6,9.4l-1.8-9.4h-1.7l2.7,11.1H-474.9L-474.9-58.4z M-463.5-63.4h7.3l0-0.8l-0.3-2.4l-0.9-1.8l-1.4-1.1l-1.9-0.4l-1.9,0.4
		l-1.4,1.2l-0.9,1.9l-0.3,2.5l0.3,2.5l0.9,1.9l1.4,1.2l1.9,0.4l1.6-0.3l1.3-0.7l1-1.1l0.6-1.5h-1.8l-0.4,0.8l-0.5,0.6l-1.5,0.5
		l-1.2-0.2l-0.9-0.7l-0.6-1.2L-463.5-63.4L-463.5-63.4L-463.5-63.4z M-463.5-65l0.2-1.4l0.6-1.1l0.8-0.6l1.1-0.2l1.1,0.2l0.8,0.6
		l0.5,1.1l0.2,1.4H-463.5L-463.5-65z M-451.9-58.4h1.8v-6.3l0.2-1.5l0.6-1.1l0.9-0.7l1.2-0.2l0.9,0.1l0.7,0.4l0.4,0.7l0.1,0.9h1.8
		l-0.2-1.7l-0.7-1.2l-1.1-0.7l-1.5-0.2l-1.1,0.2l-0.9,0.4l-0.8,0.7l-0.6,1v-1.8h-1.7V-58.4L-451.9-58.4z M-429.7-58.4h1.9l1.5-4.2
		h5.7l1.5,4.2h1.9l-5.3-14.4h-2.1L-429.7-58.4L-429.7-58.4z M-425.6-64.4l2.2-6.3l2.2,6.3H-425.6L-425.6-64.4z M-413.5-63.1h5v-1.6
		h-5V-63.1L-413.5-63.1z M-404.8-58.4h1.9l1.5-4.2h5.7l1.5,4.2h1.9l-5.3-14.4h-2.1L-404.8-58.4L-404.8-58.4z M-400.7-64.4l2.2-6.3
		l2.2,6.3H-400.7L-400.7-64.4z M-389.7-58.4h1.8v-6.3l0.2-1.5l0.6-1.1l0.9-0.7l1.2-0.2l0.9,0.1l0.7,0.4l0.4,0.7l0.1,0.9h1.8
		l-0.2-1.7l-0.7-1.2l-1.1-0.7l-1.5-0.2l-1.1,0.2l-0.9,0.4l-0.8,0.7l-0.6,1v-1.8h-1.7V-58.4L-389.7-58.4z M-378.6-58.4h1.7v-7.4
		l0.1-1.1l0.3-0.8l0.5-0.5l0.6-0.2l0.5,0.2l0.3,0.4l0.2,0.7l0.1,0.9v7.8h1.6v-7.4l0.1-1.1l0.3-0.8l0.5-0.5l0.6-0.2l0.5,0.2l0.3,0.4
		l0.2,1.6v7.8h1.7v-7.7l-0.1-1.6l-0.3-1.2l-0.7-0.7l-1.1-0.3l-1.3,0.4l-1,1.2l-0.8-1.2l-1.3-0.4l-1.2,0.4l-0.8,1.2v-1.2h-1.6V-58.4
		L-378.6-58.4z"/>
</g>
<g>
	<path d="M-639.4-33.6h1.9v-6.1h2.1l2.1-0.1l1.7-0.7l1.1-1.4l0.4-1.9l-0.3-1.8l-0.8-1.3l-1.4-0.8l-1.9-0.3h-5V-33.6L-639.4-33.6z
		 M-635-46.2l1.2,0.1l0.9,0.4l0.5,0.7l0.2,1.1l-0.2,1.2l-0.6,0.7l-1,0.4l-1.3,0.1h-2.4v-4.8H-635L-635-46.2z M-623.3-46.9v11.8h-3.7
		v1.5h9.3v-1.5h-3.7v-13.3h-4.7v1.5H-623.3L-623.3-46.9z M-607.8-35.1L-607.8-35.1l0.1,0.8l0.3,0.5l1.3,0.4l1-0.2V-35l-0.4,0.1
		l-0.6-0.3l-0.1-0.8v-5.7l-0.2-1.5l-0.7-1l-1.3-0.6l-1.8-0.2l-1.7,0.2l-1.3,0.7l-0.8,1.1l-0.3,1.4v0.1h1.6l0.1-0.9l0.5-0.6l0.7-0.4
		l1.1-0.1l1,0.1l0.7,0.3l0.4,0.5l0.1,0.7l-0.1,0.9l-0.3,0.4l-0.8,0.2l-1.5,0.2l-1.8,0.4l-1.3,0.7l-0.7,1l-0.2,1.5l0.2,1.4l0.6,1
		l1,0.6l1.4,0.2l1.9-0.4L-607.8-35.1L-607.8-35.1z M-608-37.5l-0.2,1.1l-0.7,0.8l-1,0.5l-1.2,0.2l-0.8-0.1l-0.6-0.3l-0.4-0.6
		l-0.1-0.8l0.1-0.7l0.3-0.5l1.3-0.6l1.7-0.2l1.5-0.5V-37.5L-608-37.5z M-595.2-43l-0.6-0.9l-0.7-0.7l-0.8-0.4l-1-0.1l-1.8,0.4
		l-1.4,1.2l-0.9,1.9l-0.3,2.5l0.3,2.5l0.9,1.9l1.4,1.2l1.8,0.4l1-0.1l0.8-0.4l0.7-0.6l0.7-1v6h1.8v-15.4h-1.8V-43L-595.2-43z
		 M-600.8-39.2l0.2-1.8l0.6-1.3l0.9-0.8l1.1-0.3l1.2,0.3l0.9,0.8l0.5,1.3l0.2,1.9l-0.2,1.9l-0.5,1.3l-0.9,0.8l-1.2,0.3l-1.1-0.3
		L-600-36l-0.6-1.4L-600.8-39.2L-600.8-39.2z M-581-44.7h-1.8v6.4l-0.2,1.5l-0.6,1.1l-0.9,0.7l-1.2,0.2l-1-0.2l-0.6-0.5l-0.4-0.8
		l-0.1-1.2v-7.1h-1.8v7.3l0.1,1.5l0.4,1.2l1.2,1.1l1.9,0.4l1-0.1l0.9-0.4l0.8-0.6l0.6-0.9v1.7h1.7V-44.7L-581-44.7z M-575.5-38.6
		h7.3l0-0.8l-0.3-2.4l-0.9-1.8l-1.4-1.1l-1.9-0.4l-1.9,0.4l-1.4,1.2l-0.9,1.9l-0.3,2.5l0.3,2.5l0.9,1.9l1.4,1.2l1.9,0.4l1.6-0.3
		l1.3-0.7l1-1.1l0.6-1.5h-1.8l-0.4,0.8l-0.5,0.6l-1.5,0.5l-1.2-0.2l-0.9-0.7l-0.6-1.2L-575.5-38.6L-575.5-38.6L-575.5-38.6z
		 M-575.5-40.2l0.2-1.4l0.6-1.1l0.8-0.6l1.1-0.2l1.1,0.2l0.8,0.6l0.5,1.1l0.2,1.4H-575.5L-575.5-40.2z M-545.3-41.4l1.4-1.2l0.4-0.8
		l0.1-1l-0.3-1.5l-0.8-1.1l-1.3-0.7l-1.8-0.2h-5.1v14.4h5.4l1.9-0.3l1.4-0.8l0.9-1.3l0.3-1.8l-0.2-1.2l-0.5-1l-0.8-0.7L-545.3-41.4
		L-545.3-41.4z M-548-42h-2.8v-4.2h3l1.1,0.1l0.8,0.4l0.5,0.6l0.2,0.9l-0.2,1l-0.5,0.7l-0.8,0.4L-548-42L-548-42z M-547.5-35.3h-3.3
		v-4.9h3.1l1.3,0.1l0.9,0.4l0.6,0.7l0.2,1.1l-0.2,1.1l-0.5,0.8l-0.9,0.5L-547.5-35.3L-547.5-35.3z M-534.2-35.1v-9.2h-4.7v1.6h2.9
		v7.6h-3.7v1.5h9.3v-1.5H-534.2L-534.2-35.1z M-534.1-48.5h-1.9v2.1h1.9V-48.5L-534.1-48.5z M-525.7-38.6h7.3l0-0.8l-0.3-2.4
		l-0.9-1.8l-1.4-1.1l-1.9-0.4l-1.9,0.4l-1.4,1.2l-0.9,1.9l-0.3,2.5l0.3,2.5l0.9,1.9l1.4,1.2l1.9,0.4l1.6-0.3l1.3-0.7l1-1.1l0.6-1.5
		h-1.8l-0.4,0.8l-0.5,0.6l-1.5,0.5l-1.2-0.2l-0.9-0.7l-0.6-1.2L-525.7-38.6L-525.7-38.6L-525.7-38.6z M-525.7-40.2l0.2-1.4l0.6-1.1
		l0.8-0.6l1.1-0.2l1.1,0.2l0.8,0.6l0.5,1.1l0.2,1.4H-525.7L-525.7-40.2z M-511.2-46.9v11.8h-3.7v1.5h9.3v-1.5h-3.7v-13.3h-4.7v1.5
		H-511.2L-511.2-46.9z M-498.8-46.9v11.8h-3.7v1.5h9.3v-1.5h-3.7v-13.3h-4.7v1.5H-498.8L-498.8-46.9z M-488.4-38.6h7.3l0-0.8
		l-0.3-2.4l-0.9-1.8l-1.4-1.1l-1.9-0.4l-1.9,0.4l-1.4,1.2l-0.9,1.9l-0.3,2.5l0.3,2.5l0.9,1.9l1.4,1.2l1.9,0.4l1.6-0.3l1.3-0.7l1-1.1
		l0.6-1.5h-1.8l-0.4,0.8l-0.5,0.6l-1.5,0.5l-1.2-0.2l-0.9-0.7l-0.6-1.2L-488.4-38.6L-488.4-38.6L-488.4-38.6z M-488.4-40.2l0.2-1.4
		l0.6-1.1l0.8-0.6l1.1-0.2l1.1,0.2l0.8,0.6l0.5,1.1l0.2,1.4H-488.4L-488.4-40.2z M-475.1-42.8v5.6l0.1,1.8l0.6,1.2l1.2,0.7l2,0.2
		l2.1-0.1v-1.6l-1.6,0.1l-1.4-0.2l-0.8-0.5l-0.3-0.9l-0.1-1.2v-5.3h4.2v-1.6h-4.2v-3.2h-1.8v3.2h-3.1v1.6H-475.1L-475.1-42.8z
		 M-462.6-42.8v5.6l0.1,1.8l0.6,1.2l1.2,0.7l2,0.2l2.1-0.1v-1.6l-1.6,0.1l-1.4-0.2l-0.8-0.5l-0.3-0.9l-0.1-1.2v-5.3h4.2v-1.6h-4.2
		v-3.2h-1.8v3.2h-3.1v1.6H-462.6L-462.6-42.8z M-451-38.6h7.3l0-0.8l-0.3-2.4l-0.9-1.8l-1.4-1.1l-1.9-0.4l-1.9,0.4l-1.4,1.2
		l-0.9,1.9l-0.3,2.5l0.3,2.5l0.9,1.9l1.4,1.2l1.9,0.4l1.6-0.3l1.3-0.7l1-1.1l0.6-1.5h-1.8l-0.4,0.8l-0.5,0.6l-1.5,0.5l-1.2-0.2
		l-0.9-0.7l-0.6-1.2L-451-38.6L-451-38.6L-451-38.6z M-451-40.2l0.2-1.4l0.6-1.1l0.8-0.6l1.1-0.2l1.1,0.2l0.8,0.6l0.5,1.1l0.2,1.4
		H-451L-451-40.2z M-420.9-35.3v1.7h1.8v-14.8h-1.8v5.4l-1.4-1.6l-0.8-0.4l-1-0.1l-1.8,0.4l-1.4,1.2l-0.9,1.9l-0.3,2.5l0.3,2.5
		l0.9,1.9l1.4,1.2l1.8,0.4l1-0.1l0.9-0.4L-420.9-35.3L-420.9-35.3z M-423.8-43.5l1.2,0.3l0.9,0.8l0.5,1.3l0.2,1.9l-0.2,1.9l-0.5,1.3
		l-0.9,0.8l-1.2,0.3l-1.1-0.3l-0.9-0.8l-0.6-1.4l-0.2-1.9l0.2-1.8l0.6-1.3l0.9-0.8L-423.8-43.5L-423.8-43.5z M-413.7-38.6h7.3l0-0.8
		l-0.3-2.4l-0.9-1.8l-1.4-1.1l-1.9-0.4l-1.9,0.4l-1.4,1.2l-0.9,1.9l-0.3,2.5l0.3,2.5l0.9,1.9l1.4,1.2l1.9,0.4l1.6-0.3l1.3-0.7l1-1.1
		l0.6-1.5h-1.8l-0.4,0.8l-0.5,0.6l-1.5,0.5l-1.2-0.2l-0.9-0.7l-0.6-1.2L-413.7-38.6L-413.7-38.6L-413.7-38.6z M-413.7-40.2l0.2-1.4
		l0.6-1.1l0.8-0.6l1.1-0.2l1.1,0.2l0.8,0.6l0.5,1.1l0.2,1.4H-413.7L-413.7-40.2z M-390.4-33.6h1.9v-6.1h2.1l2.1-0.1l1.7-0.7l1.1-1.4
		l0.4-1.9l-0.3-1.8l-0.8-1.3l-1.4-0.8l-1.9-0.3h-5V-33.6L-390.4-33.6z M-386-46.2l1.2,0.1l0.9,0.4l0.5,0.7l0.2,1.1l-0.2,1.2
		l-0.6,0.7l-0.9,0.4l-1.3,0.1h-2.4v-4.8H-386L-386-46.2z M-372.4-35.1v-9.2h-4.7v1.6h2.9v7.6h-3.7v1.5h9.3v-1.5H-372.4L-372.4-35.1z
		 M-372.3-48.5h-1.9v2.1h1.9V-48.5L-372.3-48.5z M-365.5-33.6h1.8V-40l0.2-1.5l0.6-1.1l0.9-0.7l1.2-0.2l1,0.2l0.6,0.6l0.3,0.9
		l0.1,1.2v6.9h1.8v-7.3l-0.1-1.5l-0.4-1.2l-1.2-1.1l-1.9-0.4l-1.1,0.1l-0.9,0.4l-0.8,0.7l-0.6,0.9v-1.7h-1.7V-33.6L-365.5-33.6z
		 M-346-41h1.8l-0.4-1.7l-0.9-1.3l-1.4-0.8l-1.8-0.3l-2,0.4l-1.5,1.2l-1,1.9l-0.3,2.5l0.3,2.5l0.9,1.9l1.5,1.2l2,0.4l1.8-0.3
		l1.4-0.9l0.9-1.4l0.4-1.8h-1.7l-0.3,1.2l-0.6,0.9l-0.8,0.5l-1,0.2l-1.3-0.3l-0.9-0.8l-0.6-1.3l-0.2-1.9l0.2-1.9l0.6-1.3l0.9-0.8
		l1.2-0.3l1.1,0.2l0.8,0.5l0.5,0.8L-346-41L-346-41z M-339-38.6h7.3l0-0.8l-0.3-2.4l-0.9-1.8l-1.4-1.1l-1.9-0.4l-1.9,0.4l-1.4,1.2
		l-0.9,1.9l-0.3,2.5l0.3,2.5l0.9,1.9l1.4,1.2l1.9,0.4l1.6-0.3l1.3-0.7l1-1.1l0.6-1.5h-1.8l-0.4,0.8l-0.5,0.6l-1.5,0.5l-1.2-0.2
		l-0.9-0.7l-0.6-1.2L-339-38.6L-339-38.6L-339-38.6z M-339-40.2l0.2-1.4l0.6-1.1l0.8-0.6l1.1-0.2l1.1,0.2l0.8,0.6l0.5,1.1l0.2,1.4
		H-339L-339-40.2z"/>
</g>
<g>
	<path d="M-20.5-386.1h1.2v-3.6h1.2l0.9,0l0.5,0.2l0.3,0.4l0.1,0.7l0.1,1.1l0.1,0.7l0.1,0.4h1.3v-0.2l-0.3-0.3l-0.1-0.6l-0.1-1.4
		l-0.2-1l-0.3-0.3l-0.4-0.2l0.5-0.3l0.3-0.4l0.2-0.5l0.1-0.7l-0.2-1l-0.5-0.8l-0.8-0.5l-1.1-0.2h-2.9V-386.1L-20.5-386.1z
		 M-18-393.6l0.8,0.1l0.5,0.2l0.3,0.4l0.1,0.7l-0.1,0.7l-0.3,0.4l-0.6,0.2l-0.8,0.1h-1.3v-2.9H-18L-18-393.6z M-11.9-389.1h4.4
		l0-0.5l-0.2-1.4l-0.5-1.1l-0.9-0.6l-1.2-0.2l-1.1,0.2l-0.9,0.7l-0.6,1.1l-0.2,1.5l0.2,1.5l0.6,1.1l0.9,0.7l1.1,0.2l1-0.2l0.8-0.4
		l0.6-0.7l0.3-0.9h-1.1l-0.2,0.5l-0.3,0.4l-0.9,0.3l-0.7-0.1l-0.5-0.4l-0.3-0.7L-11.9-389.1L-11.9-389.1L-11.9-389.1z M-11.9-390
		l0.1-0.9l0.3-0.6l0.5-0.4l0.7-0.1l0.7,0.1l0.5,0.4l0.3,0.6l0.1,0.9H-11.9L-11.9-390z M-1.4-386.9L-1.4-386.9l0.1,0.5l0.2,0.3
		l0.8,0.2l0.6-0.1v-0.8l-0.3,0l-0.3-0.2l-0.1-0.5v-3.4l-0.1-0.9l-0.4-0.6l-0.8-0.4l-1.1-0.1l-1,0.1l-0.8,0.4l-0.5,0.7l-0.2,0.9v0.1
		h1l0.1-0.5l0.3-0.4l0.4-0.2l0.6-0.1l0.6,0.1l0.4,0.2l0.3,0.3l0.1,0.4l0,0.5l-0.2,0.3l-0.5,0.1l-0.9,0.1l-1.1,0.2l-0.8,0.4l-0.4,0.6
		l-0.1,0.9l0.1,0.8l0.4,0.6l0.6,0.4l0.9,0.1l1.2-0.3L-1.4-386.9L-1.4-386.9z M-1.6-388.4l-0.1,0.6l-0.4,0.5l-0.6,0.3l-0.7,0.1
		l-0.5-0.1l-0.3-0.2l-0.2-0.3l-0.1-0.5l0.1-0.4l0.2-0.3l0.8-0.3l1-0.1l0.9-0.3V-388.4L-1.6-388.4z M2.5-386.1h1.1v-3.8l0.1-0.9
		l0.3-0.7l0.5-0.4l0.7-0.1l0.5,0.1l0.4,0.2l0.2,0.4l0.1,0.6h1.1l-0.1-1l-0.4-0.7l-0.7-0.4L5.5-393l-0.6,0.1l-0.5,0.2l-0.5,0.4
		l-0.4,0.6v-1.1h-1V-386.1L2.5-386.1z M8.4-384v0.9h7.5v-0.9H8.4L8.4-384z M16.8-386.1H18v-3.6h1.2l0.9,0l0.5,0.2l0.3,0.4l0.1,0.7
		l0.1,1.1l0.1,0.7l0.1,0.4h1.3v-0.2l-0.3-0.3l-0.1-0.6l-0.1-1.4l-0.2-1l-0.3-0.3l-0.4-0.2l0.5-0.3L22-391l0.2-0.5l0.1-0.7l-0.2-1
		l-0.5-0.8l-0.8-0.5l-1.1-0.2h-2.9V-386.1L16.8-386.1z M19.4-393.6l0.8,0.1l0.5,0.2l0.3,0.4l0.1,0.7l-0.1,0.7l-0.3,0.4l-0.6,0.2
		l-0.8,0.1H18v-2.9H19.4L19.4-393.6z M27.8-387v-5.5H25v0.9h1.7v4.6h-2.2v0.9h5.6v-0.9H27.8L27.8-387z M27.9-395h-1.2v1.2h1.2V-395
		L27.9-395z M37.1-386.4v-6.4h-1v1.1l-0.9-1l-0.5-0.2l-0.6-0.1l-1.1,0.2l-0.8,0.7l-0.5,1.1l-0.2,1.5l0.2,1.5l0.5,1.1l0.8,0.7
		l1.1,0.2l0.6-0.1l0.5-0.2l0.9-0.9v0.9l-0.1,0.7l-0.3,0.5l-0.5,0.3l-0.8,0.1l-0.7-0.1l-0.5-0.2L33-385l-0.1-0.4h-1.1v0l0.2,0.8
		l0.5,0.6l0.8,0.4l1.1,0.1l1.3-0.2l0.9-0.5l0.5-0.9L37.1-386.4L37.1-386.4z M32.7-389.4l0.1-1.1l0.3-0.8l0.5-0.5l0.7-0.2l0.7,0.2
		l0.5,0.5l0.3,0.8l0.1,1.1l-0.1,1.1l-0.3,0.8l-0.5,0.5l-0.7,0.2l-0.7-0.2l-0.5-0.5l-0.3-0.8L32.7-389.4L32.7-389.4z M39.4-386.1h1.1
		v-3.8l0.1-0.9l0.4-0.6l0.6-0.4l0.7-0.1l0.6,0.1l0.4,0.3l0.2,0.6l0.1,0.7v4.2h1.1v-4.4l0-0.9l-0.2-0.7l-0.7-0.7l-1.1-0.2l-0.6,0.1
		l-0.5,0.2l-0.4,0.4l-0.3,0.5v-3.2h-1.1V-386.1L39.4-386.1z M48.4-391.6v3.3l0.1,1.1l0.3,0.7l0.7,0.4l1.2,0.1l1.3-0.1v-0.9l-0.9,0.1
		l-0.9-0.1l-0.5-0.3l-0.2-0.5l0-0.7v-3.2h2.5v-0.9h-2.5v-1.9h-1.1v1.9h-1.9v0.9H48.4L48.4-391.6z M53.2-384v0.9h7.5v-0.9H53.2
		L53.2-384z M61.9-386.1h5.5v-1H63v-7.6h-1.1V-386.1L61.9-386.1z M69-389.4l0.2,1.5l0.6,1.1l0.9,0.7l1.2,0.2l1.2-0.2l0.9-0.7
		l0.6-1.1l0.2-1.5l-0.2-1.5L74-392l-0.9-0.7l-1.2-0.2l-1.2,0.2l-0.9,0.7l-0.6,1.1L69-389.4L69-389.4z M70.1-389.4l0.1-1.1l0.3-0.8
		l0.6-0.5l0.8-0.2l0.7,0.2l0.6,0.5l0.3,0.8l0.1,1.1l-0.1,1.1l-0.3,0.8l-0.6,0.5l-0.7,0.2l-0.8-0.2l-0.6-0.5l-0.3-0.8L70.1-389.4
		L70.1-389.4z M78.3-386.1l1-5.7l1,5.7h1l1.6-6.7h-1.1l-1.1,5.7l-1-5.7h-1.1l-1,5.7l-1.1-5.7h-1l1.6,6.7H78.3L78.3-386.1z
		 M85.2-389.1h4.4l0-0.5l-0.2-1.4l-0.5-1.1l-0.9-0.6l-1.2-0.2l-1.1,0.2l-0.9,0.7l-0.6,1.1l-0.2,1.5l0.2,1.5l0.6,1.1l0.9,0.7l1.1,0.2
		l1-0.2l0.8-0.4l0.6-0.7l0.3-0.9h-1.1l-0.2,0.5l-0.3,0.4l-0.9,0.3l-0.7-0.1l-0.5-0.4l-0.3-0.7L85.2-389.1L85.2-389.1L85.2-389.1z
		 M85.2-390l0.1-0.9l0.3-0.6l0.5-0.4l0.7-0.1l0.7,0.1l0.5,0.4l0.3,0.6l0.1,0.9H85.2L85.2-390z M92.1-386.1h1.1v-3.8l0.1-0.9l0.3-0.7
		l0.5-0.4l0.7-0.1l0.5,0.1l0.4,0.2l0.2,0.4l0.1,0.6h1.1l-0.1-1l-0.4-0.7l-0.7-0.4l-0.9-0.1l-0.6,0.1l-0.5,0.2l-0.5,0.4l-0.4,0.6
		v-1.1h-1V-386.1L92.1-386.1z M105.4-386.1h1.1l0.9-2.5h3.4l0.9,2.5h1.2l-3.2-8.6h-1.3L105.4-386.1L105.4-386.1z M107.9-389.6
		l1.3-3.8l1.3,3.8H107.9L107.9-389.6z M115.2-388.9h3v-1h-3V-388.9L115.2-388.9z M120.4-386.1h1.1l0.9-2.5h3.4l0.9,2.5h1.2l-3.2-8.6
		h-1.3L120.4-386.1L120.4-386.1z M122.8-389.6l1.3-3.8l1.3,3.8H122.8L122.8-389.6z M129.4-386.1h1.1v-3.8l0.1-0.9l0.3-0.7l0.5-0.4
		l0.7-0.1l0.5,0.1l0.4,0.2l0.2,0.4l0.1,0.6h1.1l-0.1-1l-0.4-0.7l-0.7-0.4l-0.9-0.1l-0.6,0.1l-0.5,0.2l-0.5,0.4l-0.4,0.6v-1.1h-1
		V-386.1L129.4-386.1z M136.1-386.1h1v-4.5l0.1-0.7l0.2-0.5l0.3-0.3l0.4-0.1l0.3,0.1l0.2,0.2l0.1,0.4l0,0.6v4.7h0.9v-4.5l0.1-0.7
		l0.2-0.5l0.3-0.3l0.4-0.1l0.3,0.1l0.2,0.2l0.1,1v4.7h1v-4.6l-0.1-1l-0.2-0.7l-0.4-0.4l-0.6-0.2l-0.8,0.2l-0.6,0.7l-0.5-0.7
		l-0.8-0.3l-0.7,0.2L137-392v-0.7h-1V-386.1L136.1-386.1z"/>
</g>
<g>
	<path d="M35.6-371.2h5.5v-1h-4.3v-2.9h3.8v-1h-3.8v-2.6H41v-1h-5.4V-371.2L35.6-371.2z M42-369.1v0.9h7.5v-0.9H42L42-369.1z
		 M49.4-371.2h1.1l0.9-2.5h3.4l0.9,2.5H57l-3.2-8.6h-1.3L49.4-371.2L49.4-371.2z M51.9-374.8l1.3-3.8l1.3,3.8H51.9L51.9-374.8z
		 M60.1-371.2h1.2l2.4-6.7h-1.1l-1.9,5.4l-1.9-5.4h-1.1L60.1-371.2L60.1-371.2z M69.5-372.1L69.5-372.1l0.1,0.5l0.2,0.3l0.8,0.2
		l0.6-0.1v-0.8l-0.3,0l-0.3-0.2l-0.1-0.5v-3.4l-0.1-0.9l-0.4-0.6l-0.8-0.4l-1.1-0.1l-1,0.1l-0.8,0.4l-0.5,0.7l-0.2,0.9v0.1h1
		l0.1-0.5l0.3-0.4l0.4-0.2l0.6-0.1l0.6,0.1l0.4,0.2l0.3,0.3l0.1,0.4l0,0.5l-0.2,0.3l-0.5,0.1l-0.9,0.1l-1.1,0.2l-0.8,0.4l-0.4,0.6
		l-0.1,0.9l0.1,0.8l0.4,0.6l0.6,0.4l0.9,0.1l1.2-0.3L69.5-372.1L69.5-372.1z M69.4-373.5l-0.1,0.6l-0.4,0.5l-0.6,0.3l-0.7,0.1
		L67-372l-0.3-0.2l-0.2-0.3l-0.1-0.5l0.1-0.4l0.2-0.3l0.8-0.3l1-0.1l0.9-0.3V-373.5L69.4-373.5z M73-371.2h1.1v-3.8l0.1-0.9l0.4-0.6
		l0.6-0.4l0.7-0.1l0.6,0.1l0.4,0.3l0.2,0.6l0.1,0.7v4.2h1.1v-4.4l0-0.9l-0.2-0.7l-0.7-0.7l-1.1-0.2l-0.6,0.1l-0.5,0.2l-0.5,0.4
		l-0.4,0.5v-1h-1V-371.2L73-371.2z M82-376.7v3.3l0.1,1.1l0.3,0.7l0.7,0.4l1.2,0.1l1.3-0.1v-0.9l-0.9,0.1l-0.9-0.1l-0.5-0.3
		l-0.2-0.5l0-0.7v-3.2h2.5v-0.9H83v-1.9H82v1.9h-1.9v0.9H82L82-376.7z"/>
</g>
<g>
	<path d="M372.7-385.5h1.2v-3.6h1.2l0.9,0l0.5,0.2l0.3,0.4l0.1,0.7l0.1,1.1l0.1,0.7l0.1,0.4h1.3v-0.2l-0.3-0.3l-0.1-0.6l-0.1-1.4
		l-0.2-1l-0.3-0.3l-0.4-0.2l0.5-0.3l0.3-0.4l0.2-0.5l0.1-0.7l-0.2-1l-0.5-0.8l-0.8-0.5l-1.1-0.2h-2.9V-385.5L372.7-385.5z
		 M375.3-393l0.8,0.1l0.5,0.2l0.3,0.4l0.1,0.7l-0.1,0.7l-0.3,0.4l-0.6,0.2l-0.8,0.1h-1.3v-2.9H375.3L375.3-393z M381.4-388.5h4.4
		l0-0.5l-0.2-1.4l-0.5-1.1l-0.9-0.6l-1.2-0.2l-1.1,0.2l-0.9,0.7l-0.6,1.1l-0.2,1.5l0.2,1.5l0.6,1.1l0.9,0.7l1.1,0.2l1-0.2l0.8-0.4
		l0.6-0.7l0.3-0.9h-1.1l-0.2,0.5l-0.3,0.4l-0.9,0.3l-0.7-0.1l-0.5-0.4l-0.3-0.7L381.4-388.5L381.4-388.5L381.4-388.5z M381.4-389.4
		l0.1-0.9l0.3-0.6l0.5-0.4l0.7-0.1l0.7,0.1l0.5,0.4l0.3,0.6l0.1,0.9H381.4L381.4-389.4z M391.8-386.3L391.8-386.3l0.1,0.5l0.2,0.3
		l0.8,0.2l0.6-0.1v-0.8l-0.3,0l-0.3-0.2l-0.1-0.5v-3.4l-0.1-0.9l-0.4-0.6l-0.8-0.4l-1.1-0.1l-1,0.1l-0.8,0.4l-0.5,0.7l-0.2,0.9v0.1
		h1l0.1-0.5l0.3-0.4l0.4-0.2l0.6-0.1l0.6,0.1l0.4,0.2l0.3,0.3l0.1,0.4l-0.1,0.5l-0.2,0.3l-0.5,0.1l-0.9,0.1l-1.1,0.2l-0.8,0.4
		l-0.4,0.6l-0.1,0.9l0.1,0.8l0.4,0.6l0.6,0.4l0.9,0.1l1.2-0.3L391.8-386.3L391.8-386.3z M391.7-387.8l-0.1,0.6l-0.4,0.5l-0.6,0.3
		l-0.7,0.1l-0.5-0.1l-0.3-0.2l-0.2-0.3l-0.1-0.5l0-0.4l0.2-0.3l0.8-0.3l1-0.1l0.9-0.3V-387.8L391.7-387.8z M395.8-385.5h1.1v-3.8
		l0.1-0.9l0.3-0.7l0.5-0.4l0.7-0.1l0.5,0.1l0.4,0.2l0.2,0.4l0.1,0.6h1.1l-0.1-1l-0.4-0.7l-0.7-0.4l-0.9-0.1l-0.6,0.1l-0.5,0.2
		l-0.5,0.4l-0.4,0.6v-1.1h-1V-385.5L395.8-385.5z M401.6-383.4v0.9h7.5v-0.9H401.6L401.6-383.4z M410.1-385.5h1.2v-3.6h1.2l0.9,0
		l0.5,0.2l0.3,0.4l0.1,0.7l0.1,1.1l0.1,0.7l0.1,0.4h1.3v-0.2l-0.3-0.3l-0.1-0.6l-0.1-1.4l-0.2-1l-0.3-0.3l-0.4-0.2l0.5-0.3l0.4-0.4
		l0.2-0.5l0.1-0.7l-0.2-1l-0.5-0.8l-0.8-0.5l-1.1-0.2h-2.9V-385.5L410.1-385.5z M412.6-393l0.8,0.1l0.5,0.2l0.3,0.4l0.1,0.7
		l-0.1,0.7l-0.3,0.4l-0.6,0.2l-0.8,0.1h-1.3v-2.9H412.6L412.6-393z M421.1-386.4v-5.5h-2.8v0.9h1.7v4.6h-2.2v0.9h5.6v-0.9H421.1
		L421.1-386.4z M421.1-394.4H420v1.2h1.2V-394.4L421.1-394.4z M430.4-385.8v-6.4h-1v1.1l-0.9-1l-0.5-0.2l-0.6-0.1l-1.1,0.2l-0.8,0.7
		l-0.5,1.1l-0.2,1.5l0.2,1.5l0.5,1.1l0.8,0.7l1.1,0.2l0.6-0.1l0.5-0.2l0.9-0.9v0.9l-0.1,0.7l-0.3,0.5l-0.5,0.3l-0.8,0.1l-0.7-0.1
		l-0.5-0.2l-0.3-0.3l-0.1-0.4h-1.1v0l0.2,0.8l0.5,0.6l0.8,0.4l1.1,0.1l1.3-0.2l0.9-0.5l0.5-0.9L430.4-385.8L430.4-385.8z
		 M425.9-388.8l0.1-1.1l0.3-0.8l0.5-0.5l0.7-0.2l0.7,0.2l0.5,0.5l0.3,0.8l0.1,1.1l-0.1,1.1l-0.3,0.8l-0.5,0.5l-0.7,0.2l-0.7-0.2
		l-0.5-0.5l-0.3-0.8L425.9-388.8L425.9-388.8z M432.7-385.5h1.1v-3.8l0.1-0.9l0.4-0.6l0.6-0.4l0.7-0.1l0.6,0.1l0.4,0.3l0.2,0.6
		l0.1,0.7v4.2h1.1v-4.4l0-0.9l-0.2-0.7l-0.7-0.7l-1.1-0.2l-0.6,0.1l-0.5,0.2l-0.4,0.4l-0.3,0.5v-3.2h-1.1V-385.5L432.7-385.5z
		 M441.6-391v3.3l0.1,1.1l0.3,0.7l0.7,0.4l1.2,0.1l1.3-0.1v-0.9l-0.9,0.1l-0.9-0.1l-0.5-0.3l-0.2-0.5l0-0.7v-3.2h2.5v-0.9h-2.5v-1.9
		h-1.1v1.9h-1.9v0.9H441.6L441.6-391z M446.5-383.4v0.9h7.5v-0.9H446.5L446.5-383.4z M455.1-385.5h5.5v-1h-4.4v-7.6h-1.1V-385.5
		L455.1-385.5z M462.2-388.8l0.2,1.5l0.6,1.1l0.9,0.7l1.2,0.2l1.2-0.2l0.9-0.7l0.6-1.1l0.2-1.5l-0.2-1.5l-0.6-1.1l-0.9-0.7l-1.2-0.2
		l-1.2,0.2l-0.9,0.7l-0.6,1.1L462.2-388.8L462.2-388.8z M463.4-388.8l0.1-1.1l0.3-0.8l0.6-0.5l0.8-0.2l0.7,0.2l0.6,0.5l0.3,0.8
		l0.1,1.1l-0.1,1.1l-0.3,0.8l-0.6,0.5l-0.7,0.2l-0.8-0.2l-0.6-0.5l-0.3-0.8L463.4-388.8L463.4-388.8z M471.6-385.5l1-5.7l1,5.7h1
		l1.6-6.7h-1.1l-1.1,5.7l-1-5.7H472l-1,5.7l-1.1-5.7h-1l1.6,6.7H471.6L471.6-385.5z M478.4-388.5h4.4l0-0.5l-0.2-1.4l-0.5-1.1
		l-0.9-0.6l-1.2-0.2l-1.1,0.2l-0.9,0.7l-0.6,1.1l-0.2,1.5l0.2,1.5l0.6,1.1l0.9,0.7l1.1,0.2l1-0.2l0.8-0.4l0.6-0.7l0.3-0.9h-1.1
		l-0.2,0.5l-0.3,0.4l-0.9,0.3l-0.7-0.1l-0.5-0.4l-0.3-0.7L478.4-388.5L478.4-388.5L478.4-388.5z M478.4-389.4l0.1-0.9l0.3-0.6
		l0.5-0.4l0.7-0.1l0.7,0.1l0.5,0.4l0.3,0.6l0.1,0.9H478.4L478.4-389.4z M485.4-385.5h1.1v-3.8l0.1-0.9l0.3-0.7l0.5-0.4l0.7-0.1
		l0.5,0.1l0.4,0.2l0.2,0.4l0.1,0.6h1.1l-0.1-1l-0.4-0.7l-0.7-0.4l-0.9-0.1l-0.6,0.1l-0.5,0.2l-0.5,0.4l-0.4,0.6v-1.1h-1V-385.5
		L485.4-385.5z M498.7-385.5h1.1l0.9-2.5h3.4l0.9,2.5h1.2l-3.2-8.6h-1.3L498.7-385.5L498.7-385.5z M501.1-389l1.3-3.8l1.3,3.8H501.1
		L501.1-389z M508.4-388.3h3v-1h-3V-388.3L508.4-388.3z M513.6-385.5h1.1l0.9-2.5h3.4l0.9,2.5h1.2l-3.2-8.6h-1.3L513.6-385.5
		L513.6-385.5z M516.1-389l1.3-3.8l1.3,3.8H516.1L516.1-389z M522.7-385.5h1.1v-3.8l0.1-0.9l0.3-0.7l0.5-0.4l0.7-0.1l0.5,0.1
		l0.4,0.2l0.2,0.4l0.1,0.6h1.1l-0.1-1l-0.4-0.7l-0.7-0.4l-0.9-0.1l-0.6,0.1l-0.5,0.2l-0.5,0.4l-0.4,0.6v-1.1h-1V-385.5L522.7-385.5z
		 M529.3-385.5h1v-4.5l0.1-0.7l0.2-0.5l0.3-0.3l0.4-0.1l0.3,0.1l0.2,0.2l0.1,0.4l0,0.6v4.7h0.9v-4.5l0.1-0.7l0.2-0.5l0.3-0.3
		l0.4-0.1l0.3,0.1l0.2,0.2l0.1,1v4.7h1v-4.6l-0.1-1l-0.2-0.7l-0.4-0.4l-0.6-0.2l-0.8,0.2l-0.6,0.7l-0.5-0.7l-0.8-0.3l-0.7,0.2
		l-0.5,0.7v-0.7h-1V-385.5L529.3-385.5z"/>
</g>
<g>
	<path d="M421.4-370.6h5.5v-1h-4.3v-2.9h3.8v-1h-3.8v-2.6h4.2v-1h-5.4V-370.6L421.4-370.6z M427.8-368.5v0.9h7.5v-0.9H427.8
		L427.8-368.5z M435.2-370.6h1.1l0.9-2.5h3.4l0.9,2.5h1.2l-3.2-8.6h-1.3L435.2-370.6L435.2-370.6z M437.7-374.2l1.3-3.8l1.3,3.8
		H437.7L437.7-374.2z M444.3-370.6h1.1v-3.8l0.1-0.9l0.3-0.7l0.5-0.4l0.7-0.1l0.5,0.1l0.4,0.2l0.2,0.4l0.1,0.6h1.1l-0.1-1l-0.4-0.7
		l-0.7-0.4l-0.9-0.1l-0.6,0.1l-0.5,0.2l-0.5,0.4l-0.4,0.6v-1.1h-1V-370.6L444.3-370.6z M451.8-370.6h1.1v-3.8l0.1-0.9l0.3-0.7
		l0.5-0.4l0.7-0.1l0.5,0.1l0.4,0.2l0.2,0.4l0.1,0.6h1.1l-0.1-1l-0.4-0.7l-0.7-0.4l-0.9-0.1l-0.6,0.1l-0.5,0.2l-0.5,0.4l-0.4,0.6
		v-1.1h-1V-370.6L451.8-370.6z M462.2-371.5v-5.5h-2.8v0.9h1.7v4.6h-2.2v0.9h5.6v-0.9H462.2L462.2-371.5z M462.2-379.5H461v1.2h1.2
		V-379.5L462.2-379.5z M469.7-378.2l-1.2-2.1h-1.2l1.7,2.1H469.7L469.7-378.2z M467.2-373.6h4.4l0-0.5l-0.2-1.4l-0.5-1.1l-0.9-0.6
		l-1.2-0.2l-1.1,0.2l-0.9,0.7l-0.6,1.1l-0.2,1.5l0.2,1.5l0.6,1.1l0.9,0.7l1.1,0.2l1-0.2l0.8-0.4l0.6-0.7l0.3-0.9h-1.1l-0.2,0.5
		l-0.3,0.4l-0.9,0.3l-0.7-0.1l-0.5-0.4l-0.3-0.7L467.2-373.6L467.2-373.6L467.2-373.6z M467.2-374.5l0.1-0.9l0.3-0.6l0.5-0.4
		l0.7-0.1l0.7,0.1l0.5,0.4l0.3,0.6l0.1,0.9H467.2L467.2-374.5z M474.2-370.6h1.1v-3.8l0.1-0.9l0.3-0.7l0.5-0.4l0.7-0.1l0.5,0.1
		l0.4,0.2l0.2,0.4l0.1,0.6h1.1l-0.1-1l-0.4-0.7l-0.7-0.4l-0.9-0.1l-0.6,0.1l-0.5,0.2l-0.5,0.4l-0.4,0.6v-1.1h-1V-370.6L474.2-370.6z
		 M482.2-373.6h4.4l0-0.5l-0.2-1.4l-0.5-1.1l-0.9-0.6l-1.2-0.2l-1.1,0.2l-0.9,0.7l-0.6,1.1l-0.2,1.5l0.2,1.5l0.6,1.1l0.9,0.7
		l1.1,0.2l1-0.2l0.8-0.4l0.6-0.7l0.3-0.9h-1.1l-0.2,0.5l-0.3,0.4l-0.9,0.3l-0.7-0.1l-0.5-0.4l-0.3-0.7L482.2-373.6L482.2-373.6
		L482.2-373.6z M482.2-374.5l0.1-0.9l0.3-0.6l0.5-0.4l0.7-0.1l0.7,0.1l0.5,0.4l0.3,0.6l0.1,0.9H482.2L482.2-374.5z"/>
</g>
<g>
	<path d="M378.9,644.1h1.9V638h2l1.4,0.1l0.9,0.3l0.5,0.7l0.2,1.2l0.1,1.9l0.1,1.2l0.2,0.7h2.2v-0.4l-0.5-0.6l-0.2-1.1l-0.1-2.3
		l-0.4-1.7l-0.5-0.5l-0.7-0.4l0.8-0.5l0.6-0.7l0.4-0.9l0.1-1.1l-0.3-1.7l-0.8-1.3l-1.4-0.8l-1.9-0.3h-4.8V644.1L378.9,644.1z
		 M383.2,631.5l1.3,0.1l0.9,0.4l0.6,0.7l0.2,1.1l-0.2,1.2l-0.6,0.7l-1,0.4l-1.3,0.1h-2.2v-4.8H383.2L383.2,631.5z M393.3,639h7.3
		l0-0.8l-0.3-2.4l-0.9-1.8l-1.4-1.1l-1.9-0.4l-1.9,0.4l-1.4,1.2l-0.9,1.9l-0.3,2.5l0.3,2.5l0.9,1.9l1.4,1.2l1.9,0.4l1.6-0.3l1.3-0.7
		l1-1.1l0.6-1.5h-1.8l-0.4,0.8l-0.5,0.6l-1.5,0.5l-1.2-0.2l-0.9-0.7l-0.6-1.2L393.3,639L393.3,639L393.3,639z M393.3,637.5l0.2-1.4
		l0.6-1.1l0.8-0.6l1.1-0.2l1.1,0.2l0.8,0.6l0.5,1.1l0.2,1.4H393.3L393.3,637.5z M410.7,642.6L410.7,642.6l0.1,0.8l0.3,0.5l1.3,0.4
		l1-0.2v-1.4l-0.4,0.1l-0.6-0.3l-0.1-0.8v-5.7l-0.2-1.5l-0.7-1l-1.3-0.6l-1.8-0.2l-1.7,0.2l-1.3,0.7l-0.8,1.1l-0.3,1.4v0.1h1.6
		l0.1-0.9l0.5-0.6l0.7-0.4l1.1-0.1l1,0.1l0.7,0.3l0.4,0.5l0.1,0.7l-0.1,0.9l-0.3,0.4l-0.8,0.2l-1.6,0.2l-1.8,0.4l-1.3,0.7l-0.7,1
		l-0.2,1.5l0.2,1.4l0.6,1l1,0.6l1.4,0.2l1.9-0.4L410.7,642.6L410.7,642.6z M410.5,640.2l-0.2,1.1l-0.7,0.8l-1,0.5l-1.2,0.2l-0.8-0.1
		l-0.6-0.3l-0.4-0.6l-0.1-0.8l0.1-0.7l0.3-0.5l1.3-0.6l1.7-0.2l1.5-0.5V640.2L410.5,640.2z M417.3,644.1h1.8v-6.3l0.2-1.5l0.6-1.1
		l0.9-0.7l1.2-0.2l0.9,0.1l0.7,0.4l0.4,0.7l0.1,0.9h1.8l-0.2-1.7l-0.7-1.2l-1.1-0.7l-1.5-0.2l-1.1,0.2l-0.9,0.4l-0.8,0.7l-0.6,0.9
		V633h-1.7V644.1L417.3,644.1z M427.1,647.5v1.4h12.4v-1.4H427.1L427.1,647.5z M441.2,644.1h1.9V638h2l1.4,0.1l0.9,0.3l0.5,0.7
		l0.2,1.2l0.1,1.9l0.1,1.2l0.2,0.7h2.2v-0.4l-0.5-0.6l-0.2-1.1l-0.1-2.3l-0.4-1.7l-0.5-0.5l-0.7-0.4l0.8-0.5l0.6-0.7l0.4-0.9
		l0.1-1.1l-0.3-1.7l-0.8-1.3l-1.4-0.8l-1.9-0.3h-4.8V644.1L441.2,644.1z M445.4,631.5l1.3,0.1l0.9,0.4l0.6,0.7l0.2,1.1l-0.2,1.2
		l-0.6,0.7l-0.9,0.4l-1.3,0.1h-2.2v-4.8H445.4L445.4,631.5z M459.5,642.5v-9.2h-4.7v1.5h2.9v7.7H454v1.5h9.3v-1.5H459.5L459.5,642.5
		z M459.6,629.2h-1.9v2.1h1.9V629.2L459.6,629.2z M475,643.6V633h-1.7v1.8l-1.4-1.6l-0.9-0.4l-1-0.1l-1.8,0.4l-1.4,1.2L466,636
		l-0.3,2.5l0.3,2.5l0.9,1.9l1.4,1.2l1.8,0.4l1-0.1l0.8-0.4l1.4-1.6v1.6l-0.2,1.2l-0.5,0.9l-0.9,0.5l-1.3,0.2l-1.1-0.1l-0.8-0.3
		l-0.5-0.5l-0.1-0.7h-1.8v0.1l0.3,1.3l0.8,1l1.3,0.6l1.8,0.2l2.1-0.3l1.4-0.9l0.8-1.5L475,643.6L475,643.6z M467.6,638.5l0.2-1.8
		l0.6-1.4l0.9-0.8l1.2-0.3l1.2,0.3l0.9,0.8l0.6,1.4l0.2,1.8l-0.2,1.9l-0.6,1.3l-0.9,0.8l-1.2,0.3l-1.2-0.3l-0.9-0.8l-0.6-1.4
		L467.6,638.5L467.6,638.5z M478.8,644.1h1.8v-6.4l0.2-1.5l0.6-1.1l0.9-0.7l1.2-0.2l1,0.2l0.6,0.6l0.3,0.9l0.1,1.2v6.9h1.8v-7.3
		l-0.1-1.5l-0.4-1.2l-1.2-1.1l-1.9-0.4l-1,0.1l-0.9,0.4l-0.7,0.6l-0.6,0.8v-5.4h-1.8V644.1L478.8,644.1z M493.7,634.9v5.6l0.1,1.8
		l0.6,1.2l1.2,0.7l2,0.2l2.1-0.1v-1.6l-1.6,0.1l-1.4-0.2l-0.8-0.5l-0.3-0.9l-0.1-1.2v-5.3h4.2v-1.5h-4.2v-3.2h-1.8v3.2h-3.1v1.5
		H493.7L493.7,634.9z M501.8,647.5v1.4h12.4v-1.4H501.8L501.8,647.5z M516.3,644.1h9.2v-1.7h-7.3v-12.6h-1.9V644.1L516.3,644.1z
		 M528.1,638.5l0.3,2.5l1,1.9l1.5,1.2l2,0.4l2-0.4l1.5-1.1l0.9-1.9l0.4-2.5l-0.4-2.5l-0.9-1.9l-1.5-1.1l-2-0.4l-2,0.4l-1.5,1.2
		l-1,1.9L528.1,638.5L528.1,638.5z M529.9,638.5l0.2-1.9l0.6-1.3l0.9-0.8l1.3-0.3l1.2,0.3l0.9,0.8l0.6,1.4l0.2,1.9l-0.2,1.9
		l-0.6,1.4l-0.9,0.8l-1.2,0.3l-1.3-0.3l-0.9-0.8l-0.6-1.4L529.9,638.5L529.9,638.5z M543.7,644.1l1.7-9.4l1.7,9.4h1.7l2.7-11.1h-1.8
		l-1.8,9.4l-1.6-9.4h-1.8l-1.6,9.4L541,633h-1.7l2.7,11.1H543.7L543.7,644.1z M555.1,639h7.3l0-0.8l-0.3-2.4l-0.9-1.8l-1.4-1.1
		l-1.9-0.4l-1.9,0.4l-1.4,1.2l-0.9,1.9l-0.3,2.5l0.3,2.5l0.9,1.9l1.4,1.2l1.9,0.4l1.6-0.3l1.3-0.7l1-1.1l0.6-1.5h-1.8l-0.4,0.8
		l-0.5,0.6l-1.5,0.5l-1.2-0.2l-0.9-0.7l-0.6-1.2L555.1,639L555.1,639L555.1,639z M555.1,637.5l0.2-1.4l0.6-1.1l0.8-0.6l1.1-0.2
		l1.1,0.2l0.8,0.6l0.5,1.1l0.2,1.4H555.1L555.1,637.5z M566.6,644.1h1.8v-6.3l0.2-1.5l0.6-1.1l0.9-0.7l1.2-0.2l0.9,0.1l0.7,0.4
		l0.4,0.7l0.1,0.9h1.8l-0.2-1.7l-0.7-1.2l-1.1-0.7l-1.5-0.2l-1.1,0.2l-0.9,0.4l-0.8,0.7l-0.6,0.9V633h-1.7V644.1L566.6,644.1z
		 M588.9,644.1h1.9l1.5-4.2h5.7l1.5,4.2h1.9l-5.3-14.4h-2.1L588.9,644.1L588.9,644.1z M592.9,638.1l2.2-6.3l2.2,6.3H592.9
		L592.9,638.1z M605.1,639.3h5v-1.6h-5V639.3L605.1,639.3z M613.7,644.1h1.9l1.5-4.2h5.7l1.5,4.2h1.9l-5.3-14.4H619L613.7,644.1
		L613.7,644.1z M617.8,638.1l2.2-6.3l2.2,6.3H617.8L617.8,638.1z M628.9,644.1h1.8v-6.3l0.2-1.5l0.6-1.1l0.9-0.7l1.2-0.2l0.9,0.1
		l0.7,0.4l0.4,0.7l0.1,0.9h1.8l-0.2-1.7l-0.7-1.2l-1.1-0.7l-1.5-0.2l-1.1,0.2l-0.9,0.4l-0.8,0.7l-0.6,0.9V633h-1.7V644.1
		L628.9,644.1z M639.9,644.1h1.7v-7.4l0.1-1.1l0.3-0.8l0.5-0.5l0.6-0.2l0.5,0.2l0.3,0.4l0.2,0.7l0.1,0.9v7.8h1.6v-7.4l0.1-1.1
		l0.3-0.8l0.5-0.5l0.6-0.2l0.5,0.2l0.3,0.4l0.2,1.6v7.8h1.7v-7.7l-0.1-1.6l-0.3-1.2l-0.7-0.7l-1.1-0.3l-1.3,0.4l-1,1.2l-0.8-1.2
		l-1.3-0.4l-1.2,0.4l-0.8,1.2V633h-1.6V644.1L639.9,644.1z"/>
</g>
<g>
	<path d="M429,668.9h1.9v-6.1h2.1l2.1-0.1l1.7-0.7l1.1-1.4l0.4-1.9l-0.3-1.8l-0.8-1.3l-1.4-0.8l-1.9-0.3h-5V668.9L429,668.9z
		 M433.4,656.3l1.2,0.1l0.9,0.4l0.5,0.7l0.2,1.1l-0.2,1.2l-0.6,0.7l-0.9,0.4l-1.3,0.1h-2.4v-4.8H433.4L433.4,656.3z M445.1,655.5
		v11.8h-3.7v1.5h9.3v-1.5h-3.7V654h-4.7v1.5H445.1L445.1,655.5z M460.5,667.4L460.5,667.4l0.1,0.8l0.3,0.5l1.3,0.4l1-0.2v-1.4
		l-0.4,0.1l-0.6-0.3l-0.1-0.8v-5.7l-0.2-1.5l-0.7-1l-1.3-0.6l-1.8-0.2l-1.7,0.2l-1.3,0.7l-0.8,1.1l-0.3,1.4v0.1h1.6l0.1-0.9l0.5-0.6
		l0.7-0.4l1.1-0.1l1,0.1l0.7,0.3l0.4,0.5l0.1,0.7l-0.1,0.9L460,662l-0.8,0.2l-1.5,0.2l-1.8,0.4l-1.3,0.7l-0.7,1l-0.2,1.5l0.2,1.4
		l0.6,1l1,0.6l1.4,0.2l1.9-0.4L460.5,667.4L460.5,667.4z M460.3,665l-0.2,1.1l-0.7,0.8l-1,0.5l-1.2,0.2l-0.8-0.1l-0.6-0.3l-0.4-0.6
		l-0.1-0.8l0.1-0.7l0.3-0.5l1.3-0.6l1.7-0.2l1.5-0.5V665L460.3,665z M473.2,659.5l-0.6-0.9l-0.7-0.7l-0.8-0.4l-1-0.1l-1.8,0.4
		l-1.4,1.2l-0.9,1.9l-0.3,2.5l0.3,2.5l0.9,1.9l1.4,1.2l1.8,0.4l1-0.1l0.8-0.4l0.7-0.6l0.7-1v6h1.8v-15.4h-1.8V659.5L473.2,659.5z
		 M467.6,663.3l0.2-1.8l0.6-1.3l0.9-0.8l1.1-0.3l1.2,0.3l0.9,0.8l0.5,1.3l0.2,1.9l-0.2,1.9l-0.5,1.3l-0.9,0.8l-1.2,0.3l-1.1-0.3
		l-0.9-0.8l-0.6-1.4L467.6,663.3L467.6,663.3z M487.4,657.8h-1.8v6.4l-0.2,1.5l-0.6,1.1l-0.9,0.7l-1.2,0.2l-1-0.2l-0.6-0.5l-0.4-0.8
		l-0.1-1.2v-7.1h-1.8v7.3l0.1,1.5l0.4,1.2l1.2,1.1l1.9,0.4l1-0.1l0.9-0.4l0.8-0.6l0.6-0.9v1.7h1.7V657.8L487.4,657.8z M492.9,663.8
		h7.3l0-0.8l-0.3-2.4l-0.9-1.8l-1.4-1.1l-1.9-0.4l-1.9,0.4l-1.4,1.2l-0.9,1.9l-0.3,2.5l0.3,2.5l0.9,1.9l1.4,1.2l1.9,0.4l1.6-0.3
		l1.3-0.7l1-1.1l0.6-1.5h-1.8l-0.4,0.8l-0.5,0.6l-1.5,0.5l-1.2-0.2l-0.9-0.7l-0.6-1.2L492.9,663.8L492.9,663.8L492.9,663.8z
		 M492.9,662.3l0.2-1.4l0.6-1.1l0.8-0.6l1.1-0.2l1.1,0.2l0.8,0.6l0.5,1.1l0.2,1.4H492.9L492.9,662.3z M523,667.1v1.7h1.8V654H523
		v5.4l-1.4-1.6l-0.8-0.4l-1-0.1l-1.8,0.4l-1.4,1.2l-0.9,1.9l-0.3,2.5l0.3,2.5l0.9,1.9l1.4,1.2l1.8,0.4l1-0.1l0.9-0.4L523,667.1
		L523,667.1z M520.1,659l1.2,0.3l0.9,0.8l0.5,1.3l0.2,1.9l-0.2,1.9l-0.5,1.3l-0.9,0.8l-1.2,0.3l-1.1-0.3l-0.9-0.8l-0.6-1.4l-0.2-1.9
		l0.2-1.8l0.6-1.3l0.9-0.8L520.1,659L520.1,659z M537.2,657.8h-1.8v6.4l-0.2,1.5l-0.6,1.1l-0.9,0.7l-1.2,0.2l-1-0.2l-0.6-0.5
		l-0.4-0.8l-0.1-1.2v-7.1h-1.8v7.3l0.1,1.5l0.4,1.2l1.2,1.1l1.9,0.4l1-0.1l0.9-0.4l0.8-0.6l0.6-0.9v1.7h1.7V657.8L537.2,657.8z
		 M553.5,668.9h1.8v-6.4l0.2-1.5l0.6-1.1l0.9-0.7l1.2-0.2l1,0.2l0.6,0.6l0.3,0.9l0.1,1.2v6.9h1.8v-7.3l-0.1-1.5l-0.4-1.2l-1.2-1.1
		l-1.9-0.4l-1,0.1l-0.9,0.4l-0.7,0.6l-0.6,0.8V654h-1.8V668.9L553.5,668.9z M572.6,667.4L572.6,667.4l0.1,0.8l0.3,0.5l1.3,0.4l1-0.2
		v-1.4l-0.4,0.1l-0.6-0.3l-0.1-0.8v-5.7l-0.2-1.5l-0.7-1l-1.3-0.6l-1.8-0.2l-1.7,0.2l-1.3,0.7l-0.8,1.1l-0.3,1.4v0.1h1.6l0.1-0.9
		l0.5-0.6l0.7-0.4l1.1-0.1l1,0.1l0.7,0.3l0.4,0.5l0.1,0.7l-0.1,0.9L572,662l-0.8,0.2l-1.6,0.2l-1.8,0.4l-1.3,0.7l-0.7,1l-0.2,1.5
		l0.2,1.4l0.6,1l1,0.6l1.4,0.2l1.9-0.4L572.6,667.4L572.6,667.4z M572.4,665l-0.2,1.1l-0.7,0.8l-1,0.5l-1.2,0.2l-0.8-0.1l-0.6-0.3
		l-0.4-0.6l-0.1-0.8l0.1-0.7l0.3-0.5l1.3-0.6l1.7-0.2l1.5-0.5V665L572.4,665z M587,657.8h-1.8v6.4l-0.2,1.5l-0.6,1.1l-0.9,0.7
		l-1.2,0.2l-1-0.2l-0.6-0.5l-0.4-0.8l-0.1-1.2v-7.1h-1.8v7.3l0.1,1.5l0.4,1.2l1.2,1.1l1.9,0.4l1-0.1l0.9-0.4l0.8-0.6l0.6-0.9v1.7
		h1.7V657.8L587,657.8z M593.3,659.7v5.6l0.1,1.8l0.6,1.2l1.2,0.7l2,0.2l2.2-0.1v-1.6l-1.6,0.1l-1.4-0.2l-0.8-0.5l-0.3-0.9l-0.1-1.2
		v-5.3h4.2v-1.5h-4.2v-3.2h-1.8v3.2h-3.1v1.5H593.3L593.3,659.7z"/>
</g>
<g>
	<path d="M1518.5,243.6h1.9v-6.1h2l1.4,0.1l0.9,0.3l0.5,0.7l0.2,1.2l0.1,1.9l0.1,1.2l0.2,0.7h2.2v-0.4l-0.5-0.6l-0.2-1.1l-0.1-2.3
		l-0.4-1.7l-0.5-0.5l-0.7-0.4l0.8-0.5l0.6-0.7l0.4-0.9l0.1-1.1l-0.3-1.7l-0.8-1.3l-1.4-0.8l-1.9-0.3h-4.8V243.6L1518.5,243.6z
		 M1522.8,231l1.3,0.1l0.9,0.4l0.6,0.7l0.2,1.1l-0.2,1.2l-0.6,0.7l-0.9,0.4l-1.3,0.1h-2.2V231H1522.8L1522.8,231z M1532.9,238.5h7.3
		l0-0.8l-0.3-2.4l-0.9-1.8l-1.4-1.1l-1.9-0.4l-1.9,0.4l-1.4,1.2l-0.9,1.9l-0.3,2.5l0.3,2.5l0.9,1.9l1.4,1.2l1.9,0.4l1.6-0.3l1.3-0.7
		l1-1.1l0.6-1.5h-1.8l-0.4,0.8l-0.5,0.6l-1.5,0.5l-1.2-0.2l-0.9-0.7l-0.6-1.2L1532.9,238.5L1532.9,238.5L1532.9,238.5z M1532.9,237
		l0.2-1.4l0.6-1.1l0.8-0.6l1.1-0.2l1.1,0.2l0.8,0.6l0.5,1.1l0.2,1.4H1532.9L1532.9,237z M1550.4,242.1L1550.4,242.1l0.1,0.8l0.3,0.5
		l1.3,0.4l1-0.2v-1.4l-0.4,0.1l-0.6-0.3l-0.1-0.8v-5.7l-0.2-1.5l-0.7-1l-1.3-0.6l-1.8-0.2l-1.7,0.2l-1.3,0.7l-0.8,1.1l-0.3,1.4v0.1
		h1.6l0.1-0.9l0.5-0.6l0.7-0.4l1.1-0.1l1,0.1l0.7,0.3l0.4,0.5l0.1,0.7l-0.1,0.9l-0.3,0.4l-0.8,0.2l-1.5,0.2l-1.8,0.4l-1.3,0.7
		l-0.7,1l-0.2,1.5l0.2,1.4l0.6,1l1,0.6l1.4,0.2l1.9-0.4L1550.4,242.1L1550.4,242.1z M1550.2,239.7l-0.2,1.1l-0.7,0.8l-1,0.5
		l-1.2,0.2l-0.8-0.1l-0.6-0.3l-0.4-0.6l-0.1-0.8l0.1-0.7l0.3-0.5l1.3-0.6l1.7-0.2l1.5-0.5V239.7L1550.2,239.7z M1556.9,243.6h1.8
		v-6.3l0.2-1.5l0.6-1.1l0.9-0.7l1.2-0.2l0.9,0.1l0.7,0.4l0.4,0.7l0.1,1h1.8l-0.2-1.7l-0.7-1.2l-1.1-0.7l-1.5-0.2l-1.1,0.2l-0.9,0.4
		l-0.8,0.7l-0.6,0.9v-1.8h-1.7V243.6L1556.9,243.6z M1566.7,247v1.4h12.4V247H1566.7L1566.7,247z M1580.8,243.6h1.9v-6.1h2l1.4,0.1
		l0.9,0.3l0.5,0.7l0.2,1.2l0.1,1.9l0.1,1.2l0.2,0.7h2.2v-0.4l-0.5-0.6l-0.2-1.1l-0.1-2.3l-0.4-1.7l-0.5-0.5l-0.7-0.4l0.8-0.5
		l0.6-0.7l0.4-0.9l0.1-1.1l-0.3-1.7l-0.8-1.3l-1.4-0.8l-1.9-0.3h-4.8V243.6L1580.8,243.6z M1585,231l1.3,0.1l0.9,0.4l0.6,0.7
		l0.2,1.1l-0.2,1.2l-0.6,0.7l-0.9,0.4l-1.3,0.1h-2.2V231H1585L1585,231z M1599.1,242v-9.2h-4.7v1.5h2.9v7.7h-3.7v1.5h9.3V242H1599.1
		L1599.1,242z M1599.2,228.7h-1.9v2.1h1.9V228.7L1599.2,228.7z M1614.6,243.1v-10.6h-1.7v1.8l-1.4-1.6l-0.9-0.4l-1-0.1l-1.8,0.4
		l-1.4,1.2l-0.9,1.9l-0.3,2.5l0.3,2.5l0.9,1.9l1.4,1.2l1.8,0.4l1-0.1l0.8-0.4l1.4-1.6v1.6l-0.2,1.2l-0.5,0.9l-0.9,0.5l-1.3,0.2
		l-1.1-0.1l-0.8-0.3l-0.5-0.5l-0.1-0.7h-1.8v0.1l0.3,1.3l0.8,1l1.3,0.6l1.8,0.2l2.2-0.3l1.4-0.9l0.8-1.5L1614.6,243.1L1614.6,243.1z
		 M1607.2,238l0.2-1.8l0.6-1.4l0.9-0.8l1.2-0.3l1.2,0.3l0.9,0.8l0.6,1.4l0.2,1.8l-0.2,1.9l-0.6,1.3l-0.9,0.8l-1.2,0.3l-1.2-0.3
		l-0.9-0.8l-0.6-1.4L1607.2,238L1607.2,238z M1618.4,243.6h1.8v-6.4l0.2-1.5l0.6-1.1l0.9-0.7l1.2-0.2l1,0.2l0.6,0.6l0.3,0.9l0.1,1.2
		v6.9h1.8v-7.3l-0.1-1.5l-0.4-1.2l-1.2-1.1l-1.9-0.4l-1,0.1l-0.9,0.4l-0.7,0.6l-0.6,0.8v-5.4h-1.8V243.6L1618.4,243.6z
		 M1633.3,234.4v5.6l0.1,1.8l0.6,1.2l1.2,0.7l2,0.2l2.1-0.1v-1.6l-1.6,0.1l-1.4-0.2l-0.8-0.5l-0.3-0.9l-0.1-1.2v-5.3h4.2v-1.5h-4.2
		v-3.2h-1.8v3.2h-3.1v1.5H1633.3L1633.3,234.4z M1641.4,247v1.4h12.4V247H1641.4L1641.4,247z M1655.9,243.6h9.2v-1.7h-7.3v-12.6
		h-1.9V243.6L1655.9,243.6z M1667.7,238l0.3,2.5l1,1.9l1.5,1.2l2,0.4l2-0.4l1.5-1.1l1-1.9l0.4-2.5l-0.4-2.5l-1-1.9l-1.5-1.1l-2-0.4
		l-2,0.4l-1.5,1.2l-1,1.9L1667.7,238L1667.7,238z M1669.6,238l0.2-1.9l0.6-1.3l0.9-0.8l1.3-0.3l1.2,0.3l0.9,0.8l0.6,1.4l0.2,1.9
		l-0.2,1.9l-0.6,1.4l-0.9,0.8l-1.2,0.3l-1.3-0.3l-0.9-0.8l-0.6-1.4L1669.6,238L1669.6,238z M1683.3,243.6l1.7-9.4l1.7,9.4h1.7
		l2.7-11.1h-1.8l-1.8,9.4l-1.6-9.4h-1.8l-1.6,9.4l-1.8-9.4h-1.7l2.7,11.1H1683.3L1683.3,243.6z M1694.7,238.5h7.3l0-0.8l-0.3-2.4
		l-0.9-1.8l-1.4-1.1l-1.9-0.4l-1.9,0.4l-1.4,1.2l-0.9,1.9l-0.3,2.5l0.3,2.5l0.9,1.9l1.4,1.2l1.9,0.4l1.6-0.3l1.3-0.7l1-1.1l0.6-1.5
		h-1.8l-0.4,0.8l-0.5,0.6l-1.5,0.5l-1.2-0.2l-0.9-0.7l-0.6-1.2L1694.7,238.5L1694.7,238.5L1694.7,238.5z M1694.7,237l0.2-1.4
		l0.6-1.1l0.8-0.6l1.1-0.2l1.1,0.2l0.8,0.6l0.5,1.1l0.2,1.4H1694.7L1694.7,237z M1706.3,243.6h1.8v-6.3l0.2-1.5l0.6-1.1l0.9-0.7
		l1.2-0.2l0.9,0.1l0.7,0.4l0.4,0.7l0.1,1h1.8l-0.2-1.7l-0.7-1.2l-1.1-0.7l-1.5-0.2l-1.1,0.2l-0.9,0.4l-0.8,0.7l-0.6,0.9v-1.8h-1.7
		V243.6L1706.3,243.6z M1728.5,243.6h1.9l1.5-4.2h5.7l1.5,4.2h1.9l-5.3-14.4h-2.1L1728.5,243.6L1728.5,243.6z M1732.5,237.6l2.2-6.3
		l2.2,6.3H1732.5L1732.5,237.6z M1744.7,238.8h5v-1.6h-5V238.8L1744.7,238.8z M1753.4,243.6h1.9l1.5-4.2h5.7l1.5,4.2h1.9l-5.3-14.4
		h-2.1L1753.4,243.6L1753.4,243.6z M1757.4,237.6l2.2-6.3l2.2,6.3H1757.4L1757.4,237.6z M1768.5,243.6h1.8v-6.3l0.2-1.5l0.6-1.1
		l0.9-0.7l1.2-0.2l0.9,0.1l0.7,0.4l0.4,0.7l0.1,1h1.8l-0.2-1.7l-0.7-1.2l-1.1-0.7l-1.6-0.2l-1.1,0.2l-0.9,0.4l-0.8,0.7l-0.6,0.9
		v-1.8h-1.7V243.6L1768.5,243.6z M1779.5,243.6h1.7v-7.4l0.1-1.1l0.3-0.8l0.5-0.5l0.6-0.2l0.5,0.2l0.3,0.4l0.2,0.7l0.1,0.9v7.8h1.6
		v-7.4l0.1-1.1l0.3-0.8l0.5-0.5l0.6-0.2l0.5,0.2l0.3,0.4l0.2,1.6v7.8h1.7v-7.7l-0.1-1.6l-0.3-1.2l-0.7-0.7l-1.1-0.3l-1.3,0.4l-1,1.2
		l-0.8-1.2l-1.3-0.4l-1.2,0.4l-0.8,1.2v-1.2h-1.6V243.6L1779.5,243.6z"/>
</g>
<g>
	<path d="M1574.8,268.4h1.9v-6.1h2.1l2.1-0.1l1.7-0.7l1.1-1.4l0.4-1.9l-0.3-1.8l-0.8-1.3l-1.4-0.8l-1.9-0.3h-5V268.4L1574.8,268.4z
		 M1579.2,255.8l1.2,0.1l0.9,0.4l0.5,0.7l0.2,1.1l-0.2,1.2l-0.6,0.7l-1,0.4l-1.3,0.1h-2.4v-4.8H1579.2L1579.2,255.8z M1590.9,255
		v11.8h-3.7v1.5h9.3v-1.5h-3.7v-13.3h-4.7v1.5H1590.9L1590.9,255z M1606.4,266.9L1606.4,266.9l0.1,0.8l0.3,0.5l1.3,0.4l1-0.2V267
		l-0.4,0.1l-0.6-0.3l-0.1-0.8v-5.7l-0.2-1.5l-0.7-1l-1.3-0.6l-1.8-0.2l-1.7,0.2l-1.3,0.7l-0.8,1.1l-0.3,1.4v0.1h1.6l0.1-0.9l0.5-0.6
		l0.7-0.4l1.1-0.1l1,0.1l0.7,0.3l0.4,0.5l0.1,0.7l-0.1,0.9l-0.3,0.4l-0.8,0.2l-1.6,0.2l-1.8,0.4l-1.3,0.7l-0.7,1l-0.2,1.5l0.2,1.4
		l0.6,1l1,0.6l1.4,0.2l1.9-0.4L1606.4,266.9L1606.4,266.9z M1606.2,264.5l-0.2,1.1l-0.7,0.8l-1,0.5l-1.2,0.2l-0.8-0.1l-0.6-0.3
		l-0.4-0.6l-0.1-0.8l0.1-0.7l0.3-0.5l1.3-0.6l1.7-0.2l1.5-0.5V264.5L1606.2,264.5z M1619,259l-0.6-0.9l-0.7-0.7l-0.8-0.4l-1-0.1
		l-1.8,0.4l-1.4,1.2l-0.9,1.9l-0.3,2.5l0.3,2.5l0.9,1.9l1.4,1.2l1.8,0.4l1-0.1l0.8-0.4l0.7-0.6l0.7-1v6h1.8v-15.4h-1.8V259L1619,259
		z M1613.4,262.8l0.2-1.8l0.6-1.3l0.9-0.8l1.1-0.3l1.2,0.3l0.9,0.8l0.5,1.3l0.2,1.9l-0.2,1.9l-0.5,1.3l-0.9,0.8l-1.2,0.3l-1.1-0.3
		l-0.9-0.8l-0.6-1.4L1613.4,262.8L1613.4,262.8z M1633.2,257.2h-1.8v6.4l-0.2,1.5l-0.6,1.1l-0.9,0.7l-1.2,0.2l-1-0.2l-0.6-0.5
		l-0.4-0.8l-0.1-1.2v-7.1h-1.8v7.3l0.1,1.5l0.4,1.2l1.2,1.1l1.9,0.4l1-0.1l0.9-0.4l0.8-0.6l0.6-0.9v1.7h1.7V257.2L1633.2,257.2z
		 M1638.7,263.3h7.3l0-0.8l-0.3-2.4l-0.9-1.8l-1.4-1.1l-1.9-0.4l-1.9,0.4l-1.4,1.2l-0.9,1.9l-0.3,2.5l0.3,2.5l0.9,1.9l1.4,1.2
		l1.9,0.4l1.6-0.3l1.3-0.7l1-1.1l0.6-1.5h-1.8l-0.4,0.8l-0.5,0.6l-1.5,0.5l-1.2-0.2l-0.9-0.7l-0.6-1.2L1638.7,263.3L1638.7,263.3
		L1638.7,263.3z M1638.7,261.8l0.2-1.4l0.6-1.1l0.8-0.6l1.1-0.2l1.1,0.2l0.8,0.6l0.5,1.1l0.2,1.4H1638.7L1638.7,261.8z
		 M1668.8,266.6v1.7h1.8v-14.8h-1.8v5.4l-1.4-1.6l-0.8-0.4l-1-0.1l-1.8,0.4l-1.4,1.2l-0.9,1.9l-0.3,2.5l0.3,2.5l0.9,1.9l1.4,1.2
		l1.8,0.4l1-0.1l0.9-0.4L1668.8,266.6L1668.8,266.6z M1666,258.5l1.2,0.3l0.9,0.8l0.5,1.3l0.2,1.9l-0.2,1.9l-0.5,1.3l-0.9,0.8
		l-1.2,0.3l-1.1-0.3l-0.9-0.8l-0.6-1.4l-0.2-1.9l0.2-1.8l0.6-1.3l0.9-0.8L1666,258.5L1666,258.5z M1683,257.2h-1.8v6.4l-0.2,1.5
		l-0.6,1.1l-0.9,0.7l-1.2,0.2l-1-0.2l-0.6-0.5l-0.4-0.8l-0.1-1.2v-7.1h-1.8v7.3l0.1,1.5l0.4,1.2l1.2,1.1l1.9,0.4l1-0.1l0.9-0.4
		l0.8-0.6l0.6-0.9v1.7h1.7V257.2L1683,257.2z M1701.1,266.6l1.3,1.6l1.8,0.5l1.7-0.4l1.4-1.2l0.9-1.9l0.3-2.5l-0.3-2.5l-0.9-1.9
		l-1.4-1.2l-1.7-0.4l-1.8,0.5l-0.7,0.7l-0.6,0.9v-5.4h-1.8v14.8h1.8V266.6L1701.1,266.6z M1706.7,262.8l-0.2,1.9l-0.6,1.4l-0.9,0.8
		l-1.1,0.3l-1.2-0.3l-0.9-0.8l-0.6-1.3l-0.2-1.9l0.2-1.9l0.6-1.3l0.9-0.8l1.2-0.3l1.1,0.3l0.9,0.8l0.6,1.3L1706.7,262.8
		L1706.7,262.8z M1718.4,266.9L1718.4,266.9l0.1,0.8l0.3,0.5l1.3,0.4l1-0.2V267l-0.4,0.1l-0.6-0.3l-0.1-0.8v-5.7l-0.2-1.5l-0.7-1
		l-1.3-0.6l-1.8-0.2l-1.7,0.2l-1.3,0.7l-0.8,1.1l-0.3,1.4v0.1h1.6l0.1-0.9l0.5-0.6l0.7-0.4l1.1-0.1l1,0.1l0.7,0.3l0.4,0.5l0.1,0.7
		l-0.1,0.9l-0.3,0.4l-0.8,0.2l-1.5,0.2l-1.8,0.4l-1.3,0.7l-0.7,1l-0.2,1.5l0.2,1.4l0.6,1l1,0.6l1.4,0.2l1.9-0.4L1718.4,266.9
		L1718.4,266.9z M1718.2,264.5l-0.2,1.1l-0.7,0.8l-1,0.5l-1.2,0.2l-0.8-0.1l-0.6-0.3l-0.4-0.6l-0.1-0.8l0.1-0.7l0.3-0.5l1.3-0.6
		l1.7-0.2l1.5-0.5V264.5L1718.2,264.5z M1729.7,261.9l-1.8-0.4l-1.3-0.5l-0.4-1l0.1-0.7l0.4-0.5l0.7-0.3l1-0.1l1,0.1l0.8,0.4
		l0.5,0.6l0.2,0.7h1.8v0l-0.3-1.3l-0.8-1.1l-1.3-0.7l-1.7-0.2l-1.8,0.2l-1.3,0.7l-0.8,1l-0.2,1.3l0.2,1.2l0.6,0.9l1,0.6l1.4,0.4
		l2,0.5l1.2,0.5l0.3,0.4l0.1,0.6l-0.2,0.8l-0.5,0.6l-0.8,0.4l-1.1,0.1l-1.1-0.1l-0.8-0.4l-0.6-0.7l-0.2-1h-1.8l0.3,1.7l0.8,1.2
		l1.3,0.7l1.9,0.3l1.9-0.3l1.4-0.7l0.9-1.2l0.3-1.5l-0.2-1.3l-0.6-0.9l-1.1-0.6L1729.7,261.9L1729.7,261.9z"/>
</g>
</svg>
