<?xml version="1.0" encoding="utf-8" ?><!DOCTYPE svg PUBLIC "-//W3C//DTD SVG 1.1//EN" "http://www.w3.org/Graphics/SVG/1.1/DTD/svg11.dtd" 
[ <!ATTLIST svg 
  xmlns:dsy CDATA #FIXED "http://www.3ds.com/print"  
    dsy:text-version CDATA #IMPLIED > 

  <!ATTLIST text 
  xmlns:dsy CDATA #FIXED "http://www.3ds.com/print" 
    dsy:text-version CDATA #IMPLIED > 
]><svg xmlns="http://www.w3.org/2000/svg" xmlns:dsy="http://www.3ds.com/print" dsy:text-version="18000" width="1189" height="841" viewBox="0 0 1189 841" version="1.1"><g stroke="rgb(0, 0, 0)" stroke-width="0.35" stroke-linecap="butt" stroke-linejoin="miter" fill="none"><path d="M 257.311 60.0864 L 264.468 78.762"/><path d="M 264.468 78.762 L 258.958 80.8733"/><path d="M 258.958 80.8733 L 251.801 62.1978"/><path d="M 251.801 62.1978 L 114.916 114.656"/><path d="M 114.916 114.656 L 122.073 133.332"/><path d="M 122.073 133.332 L 116.563 135.443"/><path d="M 116.563 135.443 L 109.406 116.768"/><circle cx="45.6714" cy="157.905" r="3.20007"/><circle cx="327.395" cy="54.7952" r="3.20007"/><circle cx="284.847" cy="462.254" r="3.20007"/><circle cx="269.64" cy="405.68" r="6"/><path d="M 234.924 138.275 L 253.6 131.118"/><path d="M 253.6 131.118 L 271.492 177.807"/><path d="M 271.492 177.807 L 252.816 184.964"/><path d="M 252.816 184.964 L 234.924 138.275"/><path d="M 170.666 162.901 L 156.659 168.268"/><path d="M 197.492 190.102 L 170.666 162.901"/><path d="M 194.982 153.582 L 197.492 190.102"/><path d="M 208.989 148.214 L 194.982 153.582"/><path d="M 208.989 201.76 L 208.989 148.214"/><path d="M 194.982 207.128 L 208.989 201.76"/><path d="M 156.659 168.268 L 194.982 207.128"/><path d="M 40.8021 162.946 L 40.1056 163.663"/><path d="M 40.1056 163.663 L 30.7781 154.608"/><path d="M 30.7781 154.608 L 31.4746 153.89"/><path d="M 40.8021 162.946 L 31.4746 153.89"/><path d="M 51.7495 154.439 L 45.7771 144.031"/><path d="M 46.6444 143.533 L 45.7771 144.031"/><path d="M 52.6168 153.941 L 46.6444 143.533"/><path d="M 51.7495 154.439 L 52.6168 153.941"/><path d="M 334.079 56.9036 L 335.725 51.6968"/><path d="M 335.725 51.6968 L 336.678 51.9982"/><path d="M 336.678 51.9982 L 335.033 57.205"/><path d="M 335.033 57.205 L 334.079 56.9036"/><path d="M 319.405 54.4096 L 320.402 54.4694"/><path d="M 320.026 44.0631 L 319.405 54.4096"/><path d="M 321.026 44.0631 L 320.026 44.0631"/><path d="M 320.402 54.4694 L 321.026 44.0631"/><path d="M 210.287 217.893 L 258.374 199.465"/><path d="M 264.099 214.405 A 8 8 0 1 0 258.374 199.465"/><path d="M 264.099 214.405 L 216.012 232.834"/><path d="M 210.287 217.893 A 8 8 0 0 0 216.012 232.834"/><path d="M 325.391 261.742 A 0.5 0.5 0 0 0 325.94 261.296"/><path d="M 325.391 261.742 L 296.548 258.73"/><path d="M 296.548 258.73 A 0.5 0.5 0 0 0 295.999 259.175"/><path d="M 323.759 282.183 A 0.5 0.5 0 0 0 323.314 281.634"/><path d="M 295.999 259.175 L 294.025 278.073"/><path d="M 294.471 278.622 L 323.314 281.634"/><path d="M 294.025 278.073 A 0.5 0.5 0 0 0 294.471 278.622"/><path d="M 320.255 35.9645 L 257.311 60.0864"/><path d="M 347.303 56.7173 L 325.94 261.296"/><path d="M 347.303 56.7173 A 20 20 0 0 0 320.255 35.9645"/><path d="M 109.406 116.768 L 41.3566 142.846"/><path d="M 41.3567 142.846 A 20 20 0 0 0 32.7884 173.88"/><path d="M 323.759 282.183 L 304.738 464.331"/><path d="M 32.7883 173.879 L 269.121 474.612"/><path d="M 269.121 474.612 A 20 20 0 0 0 304.738 464.331"/><path d="M 676.413 272.669 L 706.251 275.785"/><path d="M 678.491 252.777 L 676.413 272.669"/><path d="M 708.328 255.893 L 678.491 252.777"/><path d="M 639.751 54.1858 L 646.908 72.8613"/><path d="M 641.398 74.9727 L 646.908 72.8613"/><path d="M 641.398 74.9727 L 634.241 56.2971"/><path d="M 497.356 108.756 L 634.241 56.2971"/><path d="M 504.513 127.431 L 497.356 108.756"/><path d="M 499.003 129.542 L 504.513 127.431"/><path d="M 491.846 110.867 L 499.003 129.542"/><circle cx="428.111" cy="152.004" r="3.19995"/><circle cx="709.835" cy="48.8945" r="3.19995"/><circle cx="667.287" cy="456.353" r="3.19995"/><circle cx="652.08" cy="399.78" r="6"/><path d="M 617.364 132.375 L 636.04 125.218"/><path d="M 636.04 125.218 L 653.932 171.907"/><path d="M 653.932 171.907 L 635.256 179.064"/><path d="M 635.256 179.064 L 617.364 132.375"/><path d="M 553.106 157 L 539.099 162.368"/><path d="M 579.932 184.202 L 553.106 157"/><path d="M 577.422 147.681 L 579.932 184.202"/><path d="M 591.429 142.314 L 577.422 147.681"/><path d="M 591.429 195.859 L 591.429 142.314"/><path d="M 577.422 201.227 L 591.429 195.859"/><path d="M 539.099 162.368 L 577.422 201.227"/><path d="M 721.213 36.2549 L 720.243 36.0137"/><path d="M 717.594 50.8118 L 721.213 36.2549"/><path d="M 716.624 50.5706 L 717.594 50.8118"/><path d="M 720.243 36.0137 L 716.624 50.5706"/><path d="M 428.922 139.812 L 429.778 139.295"/><path d="M 429.778 139.295 L 434.952 147.852"/><path d="M 434.952 147.852 L 434.097 148.369"/><path d="M 428.922 139.812 L 434.097 148.369"/><path d="M 422.364 157.544 L 423.176 156.96"/><path d="M 415.94 148.614 L 422.364 157.544"/><path d="M 416.752 148.03 L 415.94 148.614"/><path d="M 423.176 156.96 L 416.752 148.03"/><path d="M 701.836 49.1663 L 702.835 49.1306"/><path d="M 701.302 34.1757 L 701.836 49.1663"/><path d="M 702.302 34.1401 L 701.302 34.1757"/><path d="M 702.835 49.1306 L 702.302 34.1401"/><path d="M 423.797 136.945 L 491.846 110.867"/><path d="M 423.797 136.945 A 20 20 0 0 0 415.228 167.979"/><path d="M 729.743 50.8167 L 708.328 255.893"/><path d="M 639.751 54.1858 L 702.695 30.0638"/><path d="M 729.744 50.8167 A 20 20 0 0 0 702.695 30.0638"/><path d="M 706.251 275.785 L 687.178 458.43"/><path d="M 415.228 167.979 L 651.561 468.711"/><path d="M 651.561 468.711 A 20 20 0 0 0 687.178 458.43"/><path d="M 791.756 91.7764 L 797.756 91.8303"/><path d="M 797.756 91.8303 L 797.576 111.83"/><path d="M 797.576 111.83 L 805.576 111.901"/><path d="M 805.576 111.901 L 805.756 91.9022"/><path d="M 805.756 91.9022 L 811.756 91.9562"/><path d="M 811.756 91.9562 L 811.576 111.955"/><path d="M 811.576 111.955 L 836.575 112.18"/><path d="M 836.575 112.18 L 836.575 43.1772"/><path d="M 820.332 43.0313 L 836.575 43.1772"/><path d="M 800.433 42.8524 A 10 10 0 0 0 820.332 43.0313"/><path d="M 782.197 42.6885 L 800.433 42.8524"/><path d="M 781.981 66.6876 L 782.197 42.6885"/><path d="M 789.981 66.7595 L 781.981 66.6876"/><path d="M 789.936 71.7593 L 789.981 66.7595"/><path d="M 781.937 71.6874 L 789.936 71.7593"/><path d="M 781.577 111.686 L 781.937 71.6874"/><path d="M 791.577 111.776 L 781.577 111.686"/><path d="M 791.756 91.7764 L 791.577 111.776"/><path d="M 898.367 91.514 L 904.366 91.5679"/><path d="M 904.366 91.5679 L 904.187 111.567"/><path d="M 904.187 111.567 L 912.186 111.639"/><path d="M 912.186 111.639 L 912.366 91.6398"/><path d="M 912.366 91.6398 L 918.366 91.6938"/><path d="M 918.366 91.6938 L 918.186 111.693"/><path d="M 918.186 111.693 L 943.185 111.918"/><path d="M 943.185 111.918 L 943.185 42.9149"/><path d="M 926.918 42.7687 L 943.185 42.9149"/><path d="M 907.019 42.5898 A 10 10 0 0 0 926.918 42.7686"/><path d="M 888.807 42.4261 L 907.019 42.5898"/><path d="M 888.591 66.4252 L 888.807 42.4261"/><path d="M 896.591 66.4971 L 888.591 66.4252"/><path d="M 896.546 71.4968 L 896.591 66.4971"/><path d="M 888.547 71.4249 L 896.546 71.4968"/><path d="M 888.187 111.423 L 888.547 71.4249"/><path d="M 898.187 111.513 L 888.187 111.423"/><path d="M 898.367 91.514 L 898.187 111.513"/></g><g stroke="rgb(0, 0, 0)" stroke-width="0.13" stroke-linecap="butt" stroke-linejoin="miter" fill="none"><path d="M 154.498 288.206 L 154.967 288.206 L 154.967 286.728 L 155.446 286.728 L 155.799 286.743 L 156.021 286.814 L 156.142 286.98 L 156.193 287.278 L 156.218 287.732 L 156.248 288.029 L 156.309 288.206 L 156.838 288.206 L 156.838 288.11 L 156.722 287.969 L 156.682 287.707 L 156.647 287.142 L 156.561 286.723 L 156.445 286.592 L 156.263 286.496 L 156.465 286.37 L 156.606 286.194 L 156.697 285.972 L 156.727 285.704 L 156.657 285.281 L 156.455 284.963 L 156.122 284.771 L 155.668 284.706 L 154.498 284.706 L 154.498 288.206 L 154.498 288.206 z M 155.537 285.135 L 155.845 285.165 L 156.062 285.261 L 156.198 285.437 L 156.243 285.715 L 156.193 286.007 L 156.057 286.184 L 155.825 286.274 L 155.507 286.3 L 154.967 286.3 L 154.967 285.135 L 155.537 285.135 L 155.537 285.135 z M 158.972 287.833 L 158.972 285.588 L 157.832 285.588 L 157.832 285.967 L 158.528 285.967 L 158.528 287.833 L 157.62 287.833 L 157.62 288.206 L 159.889 288.206 L 159.889 287.833 L 158.972 287.833 L 158.972 287.833 z M 158.987 284.585 L 158.518 284.585 L 158.518 285.089 L 158.987 285.089 L 158.987 284.585 L 158.987 284.585 z M 162.759 288.085 L 162.759 285.498 L 162.335 285.498 L 162.335 285.936 L 161.987 285.538 L 161.776 285.437 L 161.539 285.402 L 161.11 285.503 L 160.777 285.785 L 160.56 286.239 L 160.485 286.849 L 160.56 287.465 L 160.777 287.918 L 161.11 288.206 L 161.539 288.302 L 161.781 288.266 L 161.982 288.176 L 162.335 287.792 L 162.335 288.176 L 162.295 288.478 L 162.184 288.695 L 161.972 288.821 L 161.655 288.867 L 161.377 288.836 L 161.181 288.761 L 161.065 288.63 L 161.029 288.453 L 160.601 288.453 L 160.601 288.473 L 160.666 288.796 L 160.868 289.038 L 161.191 289.194 L 161.629 289.25 L 162.154 289.174 L 162.502 288.962 L 162.699 288.594 L 162.759 288.085 L 162.759 288.085 z M 160.943 286.849 L 160.989 286.4 L 161.125 286.068 L 161.337 285.871 L 161.619 285.8 L 161.917 285.871 L 162.139 286.068 L 162.275 286.4 L 162.325 286.849 L 162.275 287.308 L 162.139 287.636 L 161.917 287.838 L 161.619 287.903 L 161.337 287.838 L 161.125 287.636 L 160.989 287.303 L 160.943 286.849 L 160.943 286.849 z M 163.687 288.206 L 164.131 288.206 L 164.131 286.642 L 164.176 286.284 L 164.322 286.022 L 164.549 285.861 L 164.852 285.8 L 165.094 285.851 L 165.245 285.987 L 165.321 286.214 L 165.346 286.516 L 165.346 288.206 L 165.79 288.206 L 165.79 286.426 L 165.77 286.068 L 165.679 285.77 L 165.382 285.498 L 164.918 285.402 L 164.665 285.437 L 164.449 285.533 L 164.267 285.684 L 164.131 285.891 L 164.131 284.585 L 163.687 284.585 L 163.687 288.206 L 163.687 288.206 z M 167.318 285.967 L 167.318 287.323 L 167.348 287.762 L 167.49 288.065 L 167.772 288.241 L 168.251 288.302 L 168.776 288.276 L 168.776 287.893 L 168.392 287.923 L 168.044 287.883 L 167.858 287.757 L 167.777 287.545 L 167.762 287.248 L 167.762 285.967 L 168.776 285.967 L 168.776 285.588 L 167.762 285.588 L 167.762 284.797 L 167.318 284.797 L 167.318 285.588 L 166.552 285.588 L 166.552 285.967 L 167.318 285.967 L 167.318 285.967 z M 172.714 288.206 L 173.183 288.206 L 173.183 286.728 L 173.663 286.728 L 174.016 286.743 L 174.237 286.814 L 174.358 286.98 L 174.409 287.278 L 174.434 287.732 L 174.464 288.029 L 174.525 288.206 L 175.054 288.206 L 175.054 288.11 L 174.938 287.969 L 174.898 287.707 L 174.863 287.142 L 174.777 286.723 L 174.661 286.592 L 174.48 286.496 L 174.681 286.37 L 174.822 286.194 L 174.913 285.972 L 174.944 285.704 L 174.873 285.281 L 174.671 284.963 L 174.338 284.771 L 173.884 284.706 L 172.714 284.706 L 172.714 288.206 L 172.714 288.206 z M 173.753 285.135 L 174.061 285.165 L 174.278 285.261 L 174.414 285.437 L 174.459 285.715 L 174.409 286.007 L 174.273 286.184 L 174.041 286.274 L 173.723 286.3 L 173.183 286.3 L 173.183 285.135 L 173.753 285.135 L 173.753 285.135 z M 176.219 286.98 L 177.995 286.98 L 178 286.774 L 177.919 286.194 L 177.697 285.76 L 177.344 285.498 L 176.875 285.402 L 176.416 285.503 L 176.063 285.785 L 175.836 286.244 L 175.755 286.849 L 175.831 287.47 L 176.058 287.923 L 176.406 288.206 L 176.86 288.302 L 177.253 288.236 L 177.576 288.065 L 177.813 287.792 L 177.949 287.429 L 177.511 287.429 L 177.42 287.631 L 177.289 287.782 L 176.915 287.903 L 176.628 287.848 L 176.411 287.671 L 176.27 287.384 L 176.219 286.995 L 176.219 286.98 L 176.219 286.98 z M 176.219 286.607 L 176.275 286.259 L 176.411 286.002 L 176.618 285.846 L 176.89 285.79 L 177.157 285.846 L 177.364 286.002 L 177.49 286.259 L 177.536 286.607 L 176.219 286.607 L 176.219 286.607 z M 180.476 287.853 L 180.476 287.868 L 180.501 288.039 L 180.577 288.16 L 180.895 288.256 L 181.142 288.216 L 181.142 287.873 L 181.036 287.888 L 180.895 287.823 L 180.869 287.621 L 180.869 286.219 L 180.809 285.861 L 180.632 285.609 L 180.325 285.457 L 179.891 285.402 L 179.467 285.462 L 179.155 285.634 L 178.958 285.901 L 178.892 286.254 L 178.892 286.284 L 179.291 286.284 L 179.326 286.073 L 179.437 285.921 L 179.619 285.831 L 179.876 285.795 L 180.123 285.82 L 180.299 285.896 L 180.405 286.027 L 180.441 286.209 L 180.42 286.421 L 180.34 286.526 L 180.138 286.577 L 179.76 286.617 L 179.326 286.708 L 179.018 286.869 L 178.837 287.122 L 178.781 287.495 L 178.832 287.828 L 178.988 288.075 L 179.24 288.231 L 179.588 288.287 L 180.057 288.181 L 180.476 287.853 L 180.476 287.853 z M 180.426 287.258 L 180.365 287.52 L 180.204 287.722 L 179.962 287.853 L 179.664 287.898 L 179.472 287.873 L 179.336 287.792 L 179.25 287.651 L 179.225 287.454 L 179.245 287.278 L 179.326 287.152 L 179.649 287.011 L 180.057 286.95 L 180.426 286.829 L 180.426 287.258 L 180.426 287.258 z M 182.07 288.206 L 182.513 288.206 L 182.513 286.658 L 182.559 286.284 L 182.695 286.017 L 182.917 285.856 L 183.214 285.8 L 183.436 285.836 L 183.603 285.936 L 183.704 286.108 L 183.739 286.34 L 184.188 286.34 L 184.127 285.931 L 183.961 285.639 L 183.683 285.462 L 183.305 285.402 L 183.048 285.442 L 182.826 285.543 L 182.629 285.715 L 182.473 285.947 L 182.473 285.498 L 182.07 285.498 L 182.07 288.206 L 182.07 288.206 z M 187.995 288.206 L 190.245 288.206 L 190.245 287.782 L 188.459 287.782 L 188.459 284.706 L 187.995 284.706 L 187.995 288.206 L 187.995 288.206 z M 190.88 286.854 L 190.961 287.47 L 191.193 287.923 L 191.561 288.206 L 192.055 288.302 L 192.544 288.206 L 192.913 287.928 L 193.145 287.475 L 193.23 286.854 L 193.145 286.239 L 192.913 285.78 L 192.544 285.503 L 192.055 285.402 L 191.561 285.503 L 191.193 285.785 L 190.961 286.239 L 190.88 286.854 L 190.88 286.854 z M 191.334 286.849 L 191.379 286.395 L 191.521 286.068 L 191.748 285.866 L 192.055 285.795 L 192.358 285.866 L 192.585 286.063 L 192.726 286.395 L 192.776 286.849 L 192.726 287.308 L 192.585 287.641 L 192.358 287.843 L 192.055 287.908 L 191.748 287.843 L 191.521 287.641 L 191.379 287.308 L 191.334 286.849 L 191.334 286.849 z M 194.688 288.206 L 195.091 285.906 L 195.495 288.206 L 195.918 288.206 L 196.584 285.498 L 196.155 285.498 L 195.706 287.797 L 195.308 285.498 L 194.869 285.498 L 194.471 287.797 L 194.022 285.498 L 193.598 285.498 L 194.264 288.206 L 194.688 288.206 L 194.688 288.206 z M 197.472 286.98 L 199.247 286.98 L 199.252 286.774 L 199.171 286.194 L 198.949 285.76 L 198.596 285.498 L 198.127 285.402 L 197.668 285.503 L 197.315 285.785 L 197.088 286.244 L 197.008 286.849 L 197.083 287.47 L 197.31 287.923 L 197.658 288.206 L 198.112 288.302 L 198.505 288.236 L 198.828 288.065 L 199.065 287.792 L 199.201 287.429 L 198.763 287.429 L 198.672 287.631 L 198.541 287.782 L 198.168 287.903 L 197.88 287.848 L 197.663 287.671 L 197.522 287.384 L 197.472 286.995 L 197.472 286.98 L 197.472 286.98 z M 197.472 286.607 L 197.527 286.259 L 197.663 286.002 L 197.87 285.846 L 198.142 285.79 L 198.41 285.846 L 198.616 286.002 L 198.743 286.259 L 198.788 286.607 L 197.472 286.607 L 197.472 286.607 z M 200.286 288.206 L 200.73 288.206 L 200.73 286.658 L 200.775 286.284 L 200.911 286.017 L 201.133 285.856 L 201.431 285.8 L 201.652 285.836 L 201.819 285.936 L 201.92 286.108 L 201.955 286.34 L 202.404 286.34 L 202.343 285.931 L 202.177 285.639 L 201.9 285.462 L 201.521 285.402 L 201.264 285.442 L 201.042 285.543 L 200.846 285.715 L 200.689 285.947 L 200.689 285.498 L 200.286 285.498 L 200.286 288.206 L 200.286 288.206 z M 206.887 288.206 L 207.583 288.206 L 207.583 287.454 L 206.887 287.454 L 206.887 288.206 L 206.887 288.206 z M 208.738 288.206 L 209.202 288.206 L 209.57 287.177 L 210.967 287.177 L 211.335 288.206 L 211.81 288.206 L 210.529 284.701 L 210.014 284.701 L 208.738 288.206 L 208.738 288.206 z M 209.732 286.748 L 210.271 285.205 L 210.811 286.748 L 209.732 286.748 L 209.732 286.748 z M 212.697 287.051 L 213.918 287.051 L 213.918 286.653 L 212.697 286.653 L 212.697 287.051 L 212.697 287.051 z M 214.81 288.206 L 215.274 288.206 L 215.642 287.177 L 217.039 287.177 L 217.408 288.206 L 217.882 288.206 L 216.601 284.701 L 216.086 284.701 L 214.81 288.206 L 214.81 288.206 z M 215.804 286.748 L 216.343 285.205 L 216.883 286.748 L 215.804 286.748 L 215.804 286.748 z M 218.502 288.206 L 218.946 288.206 L 218.946 286.658 L 218.991 286.284 L 219.127 286.017 L 219.349 285.856 L 219.647 285.8 L 219.869 285.836 L 220.035 285.936 L 220.136 286.108 L 220.171 286.34 L 220.62 286.34 L 220.56 285.931 L 220.393 285.639 L 220.116 285.462 L 219.738 285.402 L 219.48 285.442 L 219.258 285.543 L 219.062 285.715 L 218.905 285.947 L 218.905 285.498 L 218.502 285.498 L 218.502 288.206 L 218.502 288.206 z M 221.195 288.206 L 221.604 288.206 L 221.604 286.395 L 221.629 286.123 L 221.704 285.926 L 221.82 285.81 L 221.972 285.765 L 222.093 285.805 L 222.173 285.906 L 222.214 286.078 L 222.229 286.305 L 222.229 288.206 L 222.612 288.206 L 222.612 286.395 L 222.637 286.128 L 222.713 285.931 L 222.834 285.81 L 222.985 285.765 L 223.106 285.805 L 223.187 285.906 L 223.238 286.305 L 223.238 288.206 L 223.646 288.206 L 223.646 286.335 L 223.621 285.947 L 223.54 285.649 L 223.379 285.467 L 223.116 285.402 L 222.809 285.503 L 222.572 285.795 L 222.385 285.508 L 222.073 285.402 L 221.785 285.503 L 221.588 285.785 L 221.588 285.498 L 221.195 285.498 L 221.195 288.206 L 221.195 288.206 z M 227.877 287.051 L 229.098 287.051 L 229.098 286.653 L 227.877 286.653 L 227.877 287.051 L 227.877 287.051 z M 233.495 288.206 L 233.959 288.206 L 233.959 286.728 L 234.474 286.728 L 234.993 286.703 L 235.407 286.526 L 235.674 286.184 L 235.765 285.715 L 235.694 285.281 L 235.493 284.963 L 235.16 284.771 L 234.706 284.706 L 233.495 284.706 L 233.495 288.206 L 233.495 288.206 z M 234.58 285.135 L 234.882 285.165 L 235.104 285.261 L 235.235 285.437 L 235.281 285.715 L 235.23 286.007 L 235.094 286.184 L 234.862 286.274 L 234.544 286.3 L 233.959 286.3 L 233.959 285.135 L 234.58 285.135 L 234.58 285.135 z M 237.434 284.958 L 237.434 287.833 L 236.521 287.833 L 236.521 288.206 L 238.786 288.206 L 238.786 287.833 L 237.878 287.833 L 237.878 284.585 L 236.738 284.585 L 236.738 284.958 L 237.434 284.958 L 237.434 284.958 z M 241.196 287.853 L 241.196 287.868 L 241.222 288.039 L 241.297 288.16 L 241.615 288.256 L 241.862 288.216 L 241.862 287.873 L 241.756 287.888 L 241.615 287.823 L 241.59 287.621 L 241.59 286.219 L 241.529 285.861 L 241.353 285.609 L 241.045 285.457 L 240.611 285.402 L 240.188 285.462 L 239.875 285.634 L 239.678 285.901 L 239.613 286.254 L 239.613 286.284 L 240.011 286.284 L 240.047 286.073 L 240.158 285.921 L 240.339 285.831 L 240.596 285.795 L 240.843 285.82 L 241.02 285.896 L 241.126 286.027 L 241.161 286.209 L 241.141 286.421 L 241.06 286.526 L 240.859 286.577 L 240.48 286.617 L 240.047 286.708 L 239.739 286.869 L 239.557 287.122 L 239.502 287.495 L 239.552 287.828 L 239.709 288.075 L 239.961 288.231 L 240.309 288.287 L 240.778 288.181 L 241.196 287.853 L 241.196 287.853 z M 241.146 287.258 L 241.086 287.52 L 240.924 287.722 L 240.682 287.853 L 240.384 287.898 L 240.193 287.873 L 240.057 287.792 L 239.971 287.651 L 239.946 287.454 L 239.966 287.278 L 240.047 287.152 L 240.369 287.011 L 240.778 286.95 L 241.146 286.829 L 241.146 287.258 L 241.146 287.258 z M 244.288 285.916 L 244.132 285.689 L 243.955 285.528 L 243.748 285.437 L 243.511 285.402 L 243.083 285.503 L 242.75 285.785 L 242.533 286.239 L 242.457 286.849 L 242.533 287.465 L 242.75 287.918 L 243.083 288.206 L 243.511 288.302 L 243.748 288.271 L 243.95 288.186 L 244.127 288.029 L 244.288 287.792 L 244.288 289.255 L 244.732 289.255 L 244.732 285.498 L 244.288 285.498 L 244.288 285.916 L 244.288 285.916 z M 242.911 286.849 L 242.957 286.4 L 243.098 286.073 L 243.31 285.871 L 243.587 285.8 L 243.879 285.871 L 244.101 286.068 L 244.232 286.395 L 244.283 286.849 L 244.232 287.308 L 244.101 287.636 L 243.879 287.838 L 243.587 287.903 L 243.31 287.838 L 243.098 287.636 L 242.957 287.303 L 242.911 286.849 L 242.911 286.849 z M 247.748 285.498 L 247.304 285.498 L 247.304 287.061 L 247.253 287.424 L 247.107 287.686 L 246.88 287.848 L 246.583 287.898 L 246.346 287.858 L 246.194 287.737 L 246.109 287.53 L 246.088 287.238 L 246.088 285.498 L 245.645 285.498 L 245.645 287.278 L 245.66 287.636 L 245.756 287.934 L 246.048 288.206 L 246.517 288.302 L 246.769 288.266 L 246.986 288.176 L 247.173 288.019 L 247.324 287.792 L 247.324 288.206 L 247.748 288.206 L 247.748 285.498 L 247.748 285.498 z M 249.084 286.98 L 250.859 286.98 L 250.864 286.774 L 250.784 286.194 L 250.562 285.76 L 250.209 285.498 L 249.74 285.402 L 249.281 285.503 L 248.928 285.785 L 248.701 286.244 L 248.62 286.849 L 248.696 287.47 L 248.923 287.923 L 249.271 288.206 L 249.725 288.302 L 250.118 288.236 L 250.441 288.065 L 250.678 287.792 L 250.814 287.429 L 250.375 287.429 L 250.284 287.631 L 250.153 287.782 L 249.78 287.903 L 249.493 287.848 L 249.276 287.671 L 249.135 287.384 L 249.084 286.995 L 249.084 286.98 L 249.084 286.98 z M 249.084 286.607 L 249.14 286.259 L 249.276 286.002 L 249.482 285.846 L 249.755 285.79 L 250.022 285.846 L 250.229 286.002 L 250.355 286.259 L 250.4 286.607 L 249.084 286.607 L 249.084 286.607 z M 256.432 287.787 L 256.432 288.206 L 256.876 288.206 L 256.876 284.585 L 256.437 284.585 L 256.437 285.911 L 256.099 285.528 L 255.892 285.437 L 255.655 285.402 L 255.227 285.503 L 254.894 285.785 L 254.677 286.239 L 254.601 286.849 L 254.677 287.459 L 254.894 287.918 L 255.227 288.206 L 255.655 288.302 L 255.892 288.266 L 256.104 288.176 L 256.432 287.787 L 256.432 287.787 z M 255.731 285.8 L 256.024 285.871 L 256.245 286.068 L 256.377 286.395 L 256.427 286.849 L 256.377 287.308 L 256.245 287.636 L 256.024 287.838 L 255.731 287.903 L 255.454 287.838 L 255.242 287.636 L 255.101 287.303 L 255.055 286.849 L 255.101 286.4 L 255.242 286.073 L 255.454 285.871 L 255.731 285.8 L 255.731 285.8 z M 259.892 285.498 L 259.448 285.498 L 259.448 287.061 L 259.397 287.424 L 259.251 287.686 L 259.024 287.848 L 258.727 287.898 L 258.49 287.858 L 258.338 287.737 L 258.253 287.53 L 258.232 287.238 L 258.232 285.498 L 257.789 285.498 L 257.789 287.278 L 257.804 287.636 L 257.9 287.934 L 258.192 288.206 L 258.661 288.302 L 258.913 288.266 L 259.13 288.176 L 259.317 288.019 L 259.468 287.792 L 259.468 288.206 L 259.892 288.206 L 259.892 285.498 L 259.892 285.498 z M 263.876 288.206 L 264.32 288.206 L 264.32 286.642 L 264.365 286.284 L 264.511 286.022 L 264.738 285.861 L 265.041 285.8 L 265.283 285.851 L 265.434 285.987 L 265.51 286.214 L 265.535 286.516 L 265.535 288.206 L 265.979 288.206 L 265.979 286.426 L 265.959 286.068 L 265.868 285.77 L 265.57 285.498 L 265.106 285.402 L 264.854 285.437 L 264.637 285.533 L 264.456 285.684 L 264.32 285.891 L 264.32 284.585 L 263.876 284.585 L 263.876 288.206 L 263.876 288.206 z M 268.521 287.853 L 268.521 287.868 L 268.546 288.039 L 268.621 288.16 L 268.939 288.256 L 269.186 288.216 L 269.186 287.873 L 269.08 287.888 L 268.939 287.823 L 268.914 287.621 L 268.914 286.219 L 268.853 285.861 L 268.677 285.609 L 268.369 285.457 L 267.936 285.402 L 267.512 285.462 L 267.199 285.634 L 267.003 285.901 L 266.937 286.254 L 266.937 286.284 L 267.335 286.284 L 267.371 286.073 L 267.482 285.921 L 267.663 285.831 L 267.92 285.795 L 268.168 285.82 L 268.344 285.896 L 268.45 286.027 L 268.485 286.209 L 268.465 286.421 L 268.384 286.526 L 268.183 286.577 L 267.804 286.617 L 267.371 286.708 L 267.063 286.869 L 266.882 287.122 L 266.826 287.495 L 266.877 287.828 L 267.033 288.075 L 267.285 288.231 L 267.633 288.287 L 268.102 288.181 L 268.521 287.853 L 268.521 287.853 z M 268.47 287.258 L 268.41 287.52 L 268.248 287.722 L 268.006 287.853 L 267.709 287.898 L 267.517 287.873 L 267.381 287.792 L 267.295 287.651 L 267.27 287.454 L 267.29 287.278 L 267.371 287.152 L 267.694 287.011 L 268.102 286.95 L 268.47 286.829 L 268.47 287.258 L 268.47 287.258 z M 272.036 285.498 L 271.592 285.498 L 271.592 287.061 L 271.542 287.424 L 271.395 287.686 L 271.168 287.848 L 270.871 287.898 L 270.634 287.858 L 270.482 287.737 L 270.397 287.53 L 270.377 287.238 L 270.377 285.498 L 269.933 285.498 L 269.933 287.278 L 269.948 287.636 L 270.044 287.934 L 270.336 288.206 L 270.805 288.302 L 271.057 288.266 L 271.274 288.176 L 271.461 288.019 L 271.612 287.792 L 271.612 288.206 L 272.036 288.206 L 272.036 285.498 L 272.036 285.498 z M 273.579 285.967 L 273.579 287.323 L 273.609 287.762 L 273.75 288.065 L 274.033 288.241 L 274.512 288.302 L 275.036 288.276 L 275.036 287.893 L 274.653 287.923 L 274.305 287.883 L 274.119 287.757 L 274.038 287.545 L 274.023 287.248 L 274.023 285.967 L 275.036 285.967 L 275.036 285.588 L 274.023 285.588 L 274.023 284.797 L 273.579 284.797 L 273.579 285.588 L 272.812 285.588 L 272.812 285.967 L 273.579 285.967 L 273.579 285.967 z" stroke="none" fill-rule="evenodd" fill="rgb(0, 0, 0)"/></g><g stroke="rgb(0, 0, 0)" stroke-width="0.13" stroke-linecap="butt" stroke-linejoin="miter" fill="none"><path d="M 546.938 282.305 L 547.407 282.305 L 547.407 280.828 L 547.886 280.828 L 548.239 280.843 L 548.461 280.913 L 548.582 281.08 L 548.633 281.377 L 548.658 281.831 L 548.688 282.129 L 548.749 282.305 L 549.278 282.305 L 549.278 282.209 L 549.162 282.068 L 549.122 281.806 L 549.087 281.241 L 549.001 280.823 L 548.885 280.691 L 548.703 280.596 L 548.905 280.469 L 549.046 280.293 L 549.137 280.071 L 549.167 279.804 L 549.097 279.38 L 548.895 279.062 L 548.562 278.871 L 548.108 278.805 L 546.938 278.805 L 546.938 282.305 L 546.938 282.305 z M 547.977 279.234 L 548.285 279.264 L 548.502 279.36 L 548.638 279.536 L 548.683 279.814 L 548.633 280.106 L 548.497 280.283 L 548.265 280.374 L 547.947 280.399 L 547.407 280.399 L 547.407 279.234 L 547.977 279.234 L 547.977 279.234 z M 551.412 281.932 L 551.412 279.688 L 550.272 279.688 L 550.272 280.066 L 550.968 280.066 L 550.968 281.932 L 550.06 281.932 L 550.06 282.305 L 552.329 282.305 L 552.329 281.932 L 551.412 281.932 L 551.412 281.932 z M 551.427 278.684 L 550.958 278.684 L 550.958 279.189 L 551.427 279.189 L 551.427 278.684 L 551.427 278.684 z M 555.199 282.184 L 555.199 279.597 L 554.775 279.597 L 554.775 280.036 L 554.427 279.637 L 554.216 279.536 L 553.979 279.501 L 553.55 279.602 L 553.217 279.885 L 553 280.338 L 552.925 280.949 L 553 281.564 L 553.217 282.018 L 553.55 282.305 L 553.979 282.401 L 554.221 282.366 L 554.422 282.275 L 554.775 281.892 L 554.775 282.275 L 554.735 282.578 L 554.624 282.794 L 554.412 282.921 L 554.095 282.966 L 553.817 282.936 L 553.621 282.86 L 553.505 282.729 L 553.469 282.552 L 553.041 282.552 L 553.041 282.573 L 553.106 282.895 L 553.308 283.137 L 553.631 283.294 L 554.069 283.349 L 554.594 283.274 L 554.942 283.062 L 555.139 282.694 L 555.199 282.184 L 555.199 282.184 z M 553.383 280.949 L 553.429 280.5 L 553.565 280.167 L 553.777 279.97 L 554.059 279.9 L 554.357 279.97 L 554.579 280.167 L 554.715 280.5 L 554.765 280.949 L 554.715 281.408 L 554.579 281.735 L 554.357 281.937 L 554.059 282.003 L 553.777 281.937 L 553.565 281.735 L 553.429 281.403 L 553.383 280.949 L 553.383 280.949 z M 556.127 282.305 L 556.571 282.305 L 556.571 280.742 L 556.616 280.384 L 556.762 280.122 L 556.989 279.96 L 557.292 279.9 L 557.534 279.95 L 557.685 280.086 L 557.761 280.313 L 557.786 280.616 L 557.786 282.305 L 558.23 282.305 L 558.23 280.525 L 558.21 280.167 L 558.119 279.869 L 557.822 279.597 L 557.358 279.501 L 557.105 279.536 L 556.889 279.632 L 556.707 279.784 L 556.571 279.99 L 556.571 278.684 L 556.127 278.684 L 556.127 282.305 L 556.127 282.305 z M 559.758 280.066 L 559.758 281.423 L 559.788 281.861 L 559.93 282.164 L 560.212 282.341 L 560.691 282.401 L 561.216 282.376 L 561.216 281.993 L 560.832 282.023 L 560.484 281.982 L 560.298 281.856 L 560.217 281.645 L 560.202 281.347 L 560.202 280.066 L 561.216 280.066 L 561.216 279.688 L 560.202 279.688 L 560.202 278.896 L 559.758 278.896 L 559.758 279.688 L 558.992 279.688 L 558.992 280.066 L 559.758 280.066 L 559.758 280.066 z M 565.154 282.305 L 565.623 282.305 L 565.623 280.828 L 566.102 280.828 L 566.456 280.843 L 566.677 280.913 L 566.798 281.08 L 566.849 281.377 L 566.874 281.831 L 566.904 282.129 L 566.965 282.305 L 567.494 282.305 L 567.494 282.209 L 567.378 282.068 L 567.338 281.806 L 567.303 281.241 L 567.217 280.823 L 567.101 280.691 L 566.919 280.596 L 567.121 280.469 L 567.262 280.293 L 567.353 280.071 L 567.383 279.804 L 567.313 279.38 L 567.111 279.062 L 566.778 278.871 L 566.324 278.805 L 565.154 278.805 L 565.154 282.305 L 565.154 282.305 z M 566.193 279.234 L 566.501 279.264 L 566.718 279.36 L 566.854 279.536 L 566.899 279.814 L 566.849 280.106 L 566.713 280.283 L 566.481 280.374 L 566.163 280.399 L 565.623 280.399 L 565.623 279.234 L 566.193 279.234 L 566.193 279.234 z M 568.659 281.08 L 570.435 281.08 L 570.44 280.873 L 570.359 280.293 L 570.137 279.859 L 569.784 279.597 L 569.315 279.501 L 568.856 279.602 L 568.503 279.885 L 568.276 280.343 L 568.195 280.949 L 568.271 281.569 L 568.498 282.023 L 568.846 282.305 L 569.3 282.401 L 569.693 282.336 L 570.016 282.164 L 570.253 281.892 L 570.389 281.529 L 569.95 281.529 L 569.86 281.73 L 569.729 281.882 L 569.355 282.003 L 569.068 281.947 L 568.851 281.771 L 568.71 281.483 L 568.659 281.095 L 568.659 281.08 L 568.659 281.08 z M 568.659 280.707 L 568.715 280.359 L 568.851 280.101 L 569.058 279.945 L 569.33 279.89 L 569.597 279.945 L 569.804 280.101 L 569.93 280.359 L 569.976 280.707 L 568.659 280.707 L 568.659 280.707 z M 572.916 281.952 L 572.916 281.967 L 572.941 282.139 L 573.017 282.26 L 573.334 282.356 L 573.582 282.315 L 573.582 281.972 L 573.476 281.987 L 573.334 281.922 L 573.309 281.72 L 573.309 280.318 L 573.249 279.96 L 573.072 279.708 L 572.765 279.557 L 572.331 279.501 L 571.907 279.562 L 571.595 279.733 L 571.398 280 L 571.332 280.354 L 571.332 280.384 L 571.731 280.384 L 571.766 280.172 L 571.877 280.021 L 572.059 279.93 L 572.316 279.895 L 572.563 279.92 L 572.739 279.995 L 572.845 280.127 L 572.881 280.308 L 572.86 280.52 L 572.78 280.626 L 572.578 280.676 L 572.2 280.717 L 571.766 280.807 L 571.458 280.969 L 571.277 281.221 L 571.221 281.594 L 571.272 281.927 L 571.428 282.174 L 571.68 282.33 L 572.028 282.386 L 572.497 282.28 L 572.916 281.952 L 572.916 281.952 z M 572.865 281.357 L 572.805 281.619 L 572.643 281.821 L 572.401 281.952 L 572.104 281.998 L 571.912 281.972 L 571.776 281.892 L 571.69 281.75 L 571.665 281.554 L 571.685 281.377 L 571.766 281.251 L 572.089 281.11 L 572.497 281.049 L 572.865 280.928 L 572.865 281.357 L 572.865 281.357 z M 574.51 282.305 L 574.953 282.305 L 574.953 280.757 L 574.999 280.384 L 575.135 280.116 L 575.357 279.955 L 575.654 279.9 L 575.876 279.935 L 576.043 280.036 L 576.143 280.207 L 576.179 280.439 L 576.628 280.439 L 576.567 280.031 L 576.401 279.738 L 576.123 279.562 L 575.745 279.501 L 575.488 279.542 L 575.266 279.642 L 575.069 279.814 L 574.913 280.046 L 574.913 279.597 L 574.51 279.597 L 574.51 282.305 L 574.51 282.305 z M 580.435 282.305 L 582.685 282.305 L 582.685 281.882 L 580.899 281.882 L 580.899 278.805 L 580.435 278.805 L 580.435 282.305 L 580.435 282.305 z M 583.32 280.954 L 583.401 281.569 L 583.633 282.023 L 584.001 282.305 L 584.495 282.401 L 584.984 282.305 L 585.352 282.028 L 585.584 281.574 L 585.67 280.954 L 585.584 280.338 L 585.352 279.879 L 584.984 279.602 L 584.495 279.501 L 584.001 279.602 L 583.633 279.885 L 583.401 280.338 L 583.32 280.954 L 583.32 280.954 z M 583.774 280.949 L 583.819 280.495 L 583.96 280.167 L 584.187 279.965 L 584.495 279.895 L 584.798 279.965 L 585.025 280.162 L 585.166 280.495 L 585.216 280.949 L 585.166 281.408 L 585.025 281.74 L 584.798 281.942 L 584.495 282.008 L 584.187 281.942 L 583.96 281.74 L 583.819 281.408 L 583.774 280.949 L 583.774 280.949 z M 587.128 282.305 L 587.531 280.006 L 587.935 282.305 L 588.358 282.305 L 589.024 279.597 L 588.595 279.597 L 588.146 281.897 L 587.748 279.597 L 587.309 279.597 L 586.911 281.897 L 586.462 279.597 L 586.038 279.597 L 586.704 282.305 L 587.128 282.305 L 587.128 282.305 z M 589.911 281.08 L 591.687 281.08 L 591.692 280.873 L 591.611 280.293 L 591.389 279.859 L 591.036 279.597 L 590.567 279.501 L 590.108 279.602 L 589.755 279.885 L 589.528 280.343 L 589.448 280.949 L 589.523 281.569 L 589.75 282.023 L 590.098 282.305 L 590.552 282.401 L 590.945 282.336 L 591.268 282.164 L 591.505 281.892 L 591.641 281.529 L 591.203 281.529 L 591.112 281.73 L 590.981 281.882 L 590.607 282.003 L 590.32 281.947 L 590.103 281.771 L 589.962 281.483 L 589.911 281.095 L 589.911 281.08 L 589.911 281.08 z M 589.911 280.707 L 589.967 280.359 L 590.103 280.101 L 590.31 279.945 L 590.582 279.89 L 590.849 279.945 L 591.056 280.101 L 591.182 280.359 L 591.228 280.707 L 589.911 280.707 L 589.911 280.707 z M 592.726 282.305 L 593.169 282.305 L 593.169 280.757 L 593.215 280.384 L 593.351 280.116 L 593.573 279.955 L 593.87 279.9 L 594.092 279.935 L 594.259 280.036 L 594.36 280.207 L 594.395 280.439 L 594.844 280.439 L 594.783 280.031 L 594.617 279.738 L 594.339 279.562 L 593.961 279.501 L 593.704 279.542 L 593.482 279.642 L 593.285 279.814 L 593.129 280.046 L 593.129 279.597 L 592.726 279.597 L 592.726 282.305 L 592.726 282.305 z M 598.142 282.305 L 598.606 282.305 L 598.974 281.276 L 600.371 281.276 L 600.739 282.305 L 601.213 282.305 L 599.932 278.8 L 599.418 278.8 L 598.142 282.305 L 598.142 282.305 z M 599.135 280.848 L 599.675 279.305 L 600.215 280.848 L 599.135 280.848 L 599.135 280.848 z M 602.101 281.15 L 603.321 281.15 L 603.321 280.752 L 602.101 280.752 L 602.101 281.15 L 602.101 281.15 z M 604.214 282.305 L 604.678 282.305 L 605.046 281.276 L 606.443 281.276 L 606.811 282.305 L 607.285 282.305 L 606.004 278.8 L 605.49 278.8 L 604.214 282.305 L 604.214 282.305 z M 605.208 280.848 L 605.747 279.305 L 606.287 280.848 L 605.208 280.848 L 605.208 280.848 z M 607.906 282.305 L 608.349 282.305 L 608.349 280.757 L 608.395 280.384 L 608.531 280.116 L 608.753 279.955 L 609.05 279.9 L 609.272 279.935 L 609.439 280.036 L 609.54 280.207 L 609.575 280.439 L 610.024 280.439 L 609.963 280.031 L 609.797 279.738 L 609.519 279.562 L 609.141 279.501 L 608.884 279.542 L 608.662 279.642 L 608.465 279.814 L 608.309 280.046 L 608.309 279.597 L 607.906 279.597 L 607.906 282.305 L 607.906 282.305 z M 610.599 282.305 L 611.007 282.305 L 611.007 280.495 L 611.032 280.222 L 611.108 280.026 L 611.224 279.91 L 611.375 279.864 L 611.496 279.905 L 611.577 280.006 L 611.617 280.177 L 611.633 280.404 L 611.633 282.305 L 612.016 282.305 L 612.016 280.495 L 612.041 280.227 L 612.117 280.031 L 612.238 279.91 L 612.389 279.864 L 612.51 279.905 L 612.591 280.006 L 612.641 280.404 L 612.641 282.305 L 613.05 282.305 L 613.05 280.434 L 613.024 280.046 L 612.944 279.748 L 612.782 279.567 L 612.52 279.501 L 612.213 279.602 L 611.976 279.895 L 611.789 279.607 L 611.476 279.501 L 611.189 279.602 L 610.992 279.885 L 610.992 279.597 L 610.599 279.597 L 610.599 282.305 L 610.599 282.305 z M 617.281 281.15 L 618.501 281.15 L 618.501 280.752 L 617.281 280.752 L 617.281 281.15 L 617.281 281.15 z M 622.899 282.305 L 623.363 282.305 L 623.363 280.828 L 623.877 280.828 L 624.397 280.802 L 624.81 280.626 L 625.078 280.283 L 625.169 279.814 L 625.098 279.38 L 624.896 279.062 L 624.563 278.871 L 624.109 278.805 L 622.899 278.805 L 622.899 282.305 L 622.899 282.305 z M 623.983 279.234 L 624.286 279.264 L 624.508 279.36 L 624.639 279.536 L 624.684 279.814 L 624.634 280.106 L 624.498 280.283 L 624.266 280.374 L 623.948 280.399 L 623.363 280.399 L 623.363 279.234 L 623.983 279.234 L 623.983 279.234 z M 626.838 279.057 L 626.838 281.932 L 625.925 281.932 L 625.925 282.305 L 628.189 282.305 L 628.189 281.932 L 627.282 281.932 L 627.282 278.684 L 626.142 278.684 L 626.142 279.057 L 626.838 279.057 L 626.838 279.057 z M 630.6 281.952 L 630.6 281.967 L 630.625 282.139 L 630.701 282.26 L 631.019 282.356 L 631.266 282.315 L 631.266 281.972 L 631.16 281.987 L 631.019 281.922 L 630.993 281.72 L 630.993 280.318 L 630.933 279.96 L 630.756 279.708 L 630.449 279.557 L 630.015 279.501 L 629.591 279.562 L 629.279 279.733 L 629.082 280 L 629.016 280.354 L 629.016 280.384 L 629.415 280.384 L 629.45 280.172 L 629.561 280.021 L 629.743 279.93 L 630 279.895 L 630.247 279.92 L 630.424 279.995 L 630.529 280.127 L 630.565 280.308 L 630.545 280.52 L 630.464 280.626 L 630.262 280.676 L 629.884 280.717 L 629.45 280.807 L 629.143 280.969 L 628.961 281.221 L 628.906 281.594 L 628.956 281.927 L 629.112 282.174 L 629.365 282.33 L 629.712 282.386 L 630.181 282.28 L 630.6 281.952 L 630.6 281.952 z M 630.55 281.357 L 630.489 281.619 L 630.328 281.821 L 630.086 281.952 L 629.788 281.998 L 629.596 281.972 L 629.46 281.892 L 629.375 281.75 L 629.349 281.554 L 629.37 281.377 L 629.45 281.251 L 629.773 281.11 L 630.181 281.049 L 630.55 280.928 L 630.55 281.357 L 630.55 281.357 z M 633.692 280.016 L 633.535 279.789 L 633.359 279.627 L 633.152 279.536 L 632.915 279.501 L 632.486 279.602 L 632.153 279.885 L 631.937 280.338 L 631.861 280.949 L 631.937 281.564 L 632.153 282.018 L 632.486 282.305 L 632.915 282.401 L 633.152 282.371 L 633.354 282.285 L 633.53 282.129 L 633.692 281.892 L 633.692 283.354 L 634.135 283.354 L 634.135 279.597 L 633.692 279.597 L 633.692 280.016 L 633.692 280.016 z M 632.315 280.949 L 632.36 280.5 L 632.501 280.172 L 632.713 279.97 L 632.991 279.9 L 633.283 279.97 L 633.505 280.167 L 633.636 280.495 L 633.687 280.949 L 633.636 281.408 L 633.505 281.735 L 633.283 281.937 L 632.991 282.003 L 632.713 281.937 L 632.501 281.735 L 632.36 281.403 L 632.315 280.949 L 632.315 280.949 z M 637.151 279.597 L 636.707 279.597 L 636.707 281.16 L 636.657 281.524 L 636.511 281.786 L 636.284 281.947 L 635.986 281.998 L 635.749 281.957 L 635.598 281.836 L 635.512 281.629 L 635.492 281.337 L 635.492 279.597 L 635.048 279.597 L 635.048 281.377 L 635.063 281.735 L 635.159 282.033 L 635.452 282.305 L 635.921 282.401 L 636.173 282.366 L 636.39 282.275 L 636.576 282.119 L 636.728 281.892 L 636.728 282.305 L 637.151 282.305 L 637.151 279.597 L 637.151 279.597 z M 638.488 281.08 L 640.263 281.08 L 640.268 280.873 L 640.187 280.293 L 639.965 279.859 L 639.612 279.597 L 639.143 279.501 L 638.684 279.602 L 638.331 279.885 L 638.104 280.343 L 638.024 280.949 L 638.099 281.569 L 638.326 282.023 L 638.674 282.305 L 639.128 282.401 L 639.521 282.336 L 639.844 282.164 L 640.081 281.892 L 640.217 281.529 L 639.779 281.529 L 639.688 281.73 L 639.557 281.882 L 639.184 282.003 L 638.896 281.947 L 638.679 281.771 L 638.538 281.483 L 638.488 281.095 L 638.488 281.08 L 638.488 281.08 z M 638.488 280.707 L 638.543 280.359 L 638.679 280.101 L 638.886 279.945 L 639.158 279.89 L 639.426 279.945 L 639.632 280.101 L 639.759 280.359 L 639.804 280.707 L 638.488 280.707 L 638.488 280.707 z M 645.836 281.887 L 645.836 282.305 L 646.279 282.305 L 646.279 278.684 L 645.841 278.684 L 645.841 280.011 L 645.503 279.627 L 645.296 279.536 L 645.059 279.501 L 644.63 279.602 L 644.297 279.885 L 644.081 280.338 L 644.005 280.949 L 644.081 281.559 L 644.297 282.018 L 644.63 282.305 L 645.059 282.401 L 645.296 282.366 L 645.508 282.275 L 645.836 281.887 L 645.836 281.887 z M 645.135 279.9 L 645.427 279.97 L 645.649 280.167 L 645.78 280.495 L 645.831 280.949 L 645.78 281.408 L 645.649 281.735 L 645.427 281.937 L 645.135 282.003 L 644.857 281.937 L 644.645 281.735 L 644.504 281.403 L 644.459 280.949 L 644.504 280.5 L 644.645 280.172 L 644.857 279.97 L 645.135 279.9 L 645.135 279.9 z M 649.295 279.597 L 648.851 279.597 L 648.851 281.16 L 648.801 281.524 L 648.655 281.786 L 648.428 281.947 L 648.13 281.998 L 647.893 281.957 L 647.742 281.836 L 647.656 281.629 L 647.636 281.337 L 647.636 279.597 L 647.192 279.597 L 647.192 281.377 L 647.207 281.735 L 647.303 282.033 L 647.596 282.305 L 648.065 282.401 L 648.317 282.366 L 648.534 282.275 L 648.72 282.119 L 648.872 281.892 L 648.872 282.305 L 649.295 282.305 L 649.295 279.597 L 649.295 279.597 z M 654.954 280.414 L 655.307 280.122 L 655.398 279.925 L 655.428 279.683 L 655.362 279.305 L 655.166 279.032 L 654.848 278.866 L 654.404 278.805 L 653.158 278.805 L 653.158 282.305 L 654.475 282.305 L 654.944 282.235 L 655.292 282.028 L 655.508 281.7 L 655.584 281.256 L 655.539 280.959 L 655.418 280.712 L 655.221 280.53 L 654.954 280.414 L 654.954 280.414 z M 654.308 280.258 L 653.622 280.258 L 653.622 279.224 L 654.349 279.224 L 654.621 279.254 L 654.813 279.345 L 654.928 279.501 L 654.969 279.733 L 654.923 279.965 L 654.802 280.127 L 654.596 280.227 L 654.308 280.258 L 654.308 280.258 z M 654.419 281.887 L 653.622 281.887 L 653.622 280.681 L 654.374 280.681 L 654.691 280.717 L 654.918 280.823 L 655.055 281.004 L 655.1 281.266 L 655.055 281.544 L 654.928 281.735 L 654.717 281.851 L 654.419 281.887 L 654.419 281.887 z M 657.924 281.952 L 657.924 281.967 L 657.949 282.139 L 658.025 282.26 L 658.343 282.356 L 658.59 282.315 L 658.59 281.972 L 658.484 281.987 L 658.343 281.922 L 658.318 281.72 L 658.318 280.318 L 658.257 279.96 L 658.081 279.708 L 657.773 279.557 L 657.339 279.501 L 656.916 279.562 L 656.603 279.733 L 656.406 280 L 656.341 280.354 L 656.341 280.384 L 656.739 280.384 L 656.774 280.172 L 656.885 280.021 L 657.067 279.93 L 657.324 279.895 L 657.571 279.92 L 657.748 279.995 L 657.854 280.127 L 657.889 280.308 L 657.869 280.52 L 657.788 280.626 L 657.586 280.676 L 657.208 280.717 L 656.774 280.807 L 656.467 280.969 L 656.285 281.221 L 656.23 281.594 L 656.28 281.927 L 656.436 282.174 L 656.689 282.33 L 657.037 282.386 L 657.506 282.28 L 657.924 281.952 L 657.924 281.952 z M 657.874 281.357 L 657.813 281.619 L 657.652 281.821 L 657.41 281.952 L 657.112 281.998 L 656.921 281.972 L 656.784 281.892 L 656.699 281.75 L 656.673 281.554 L 656.694 281.377 L 656.774 281.251 L 657.097 281.11 L 657.506 281.049 L 657.874 280.928 L 657.874 281.357 L 657.874 281.357 z M 660.678 280.727 L 660.249 280.626 L 659.931 280.51 L 659.825 280.273 L 659.856 280.106 L 659.962 279.985 L 660.133 279.91 L 660.38 279.879 L 660.617 279.91 L 660.804 280 L 660.925 280.137 L 660.975 280.318 L 661.409 280.318 L 661.409 280.308 L 661.333 279.98 L 661.127 279.723 L 660.804 279.562 L 660.38 279.501 L 659.952 279.562 L 659.639 279.728 L 659.442 279.975 L 659.382 280.288 L 659.427 280.591 L 659.568 280.802 L 659.8 280.954 L 660.138 281.06 L 660.632 281.181 L 660.935 281.307 L 661.016 281.408 L 661.046 281.559 L 661 281.745 L 660.879 281.887 L 660.683 281.977 L 660.421 282.008 L 660.143 281.977 L 659.941 281.872 L 659.805 281.7 L 659.75 281.463 L 659.321 281.463 L 659.392 281.866 L 659.599 282.159 L 659.926 282.336 L 660.38 282.401 L 660.854 282.336 L 661.202 282.159 L 661.414 281.877 L 661.49 281.508 L 661.434 281.191 L 661.278 280.974 L 661.021 280.833 L 660.678 280.727 L 660.678 280.727 z" stroke="none" fill-rule="evenodd" fill="rgb(0, 0, 0)"/></g><g stroke="rgb(0, 0, 0)" stroke-width="0.13" stroke-linecap="butt" stroke-linejoin="miter" fill="none"><path d="M 785.499 80.5887 L 785.834 80.5887 L 785.834 79.5333 L 786.176 79.5333 L 786.428 79.5441 L 786.586 79.5945 L 786.673 79.7134 L 786.709 79.9259 L 786.727 80.2501 L 786.749 80.4626 L 786.792 80.5887 L 787.17 80.5887 L 787.17 80.5203 L 787.087 80.4194 L 787.058 80.2321 L 787.033 79.8287 L 786.972 79.5297 L 786.889 79.436 L 786.759 79.3676 L 786.903 79.2775 L 787.004 79.1514 L 787.069 78.9929 L 787.091 78.802 L 787.04 78.4994 L 786.896 78.2725 L 786.659 78.1356 L 786.334 78.0887 L 785.499 78.0887 L 785.499 80.5887 L 785.499 80.5887 z M 786.241 78.395 L 786.46 78.4166 L 786.615 78.485 L 786.713 78.6111 L 786.745 78.8092 L 786.709 79.0181 L 786.612 79.1442 L 786.446 79.209 L 786.219 79.2271 L 785.834 79.2271 L 785.834 78.395 L 786.241 78.395 L 786.241 78.395 z M 788.002 79.7134 L 789.27 79.7134 L 789.274 79.5657 L 789.216 79.1514 L 789.058 78.8416 L 788.805 78.6543 L 788.47 78.5859 L 788.143 78.6579 L 787.891 78.8596 L 787.728 79.1874 L 787.671 79.6198 L 787.725 80.0628 L 787.887 80.387 L 788.135 80.5887 L 788.46 80.6572 L 788.741 80.6104 L 788.971 80.4879 L 789.141 80.2933 L 789.238 80.034 L 788.924 80.034 L 788.859 80.1781 L 788.766 80.2861 L 788.499 80.3726 L 788.294 80.333 L 788.139 80.2069 L 788.038 80.0016 L 788.002 79.7242 L 788.002 79.7134 L 788.002 79.7134 z M 788.002 79.4468 L 788.042 79.1982 L 788.139 79.0145 L 788.287 78.9029 L 788.481 78.8632 L 788.672 78.9029 L 788.82 79.0145 L 788.91 79.1982 L 788.942 79.4468 L 788.002 79.4468 L 788.002 79.4468 z M 791.042 80.3366 L 791.042 80.3474 L 791.06 80.4698 L 791.115 80.5563 L 791.341 80.6248 L 791.518 80.5959 L 791.518 80.351 L 791.442 80.3618 L 791.341 80.3149 L 791.323 80.1709 L 791.323 79.1694 L 791.28 78.9137 L 791.154 78.7336 L 790.934 78.6255 L 790.625 78.5859 L 790.322 78.6291 L 790.099 78.7516 L 789.958 78.9425 L 789.911 79.1946 L 789.911 79.2162 L 790.196 79.2162 L 790.221 79.065 L 790.3 78.9569 L 790.43 78.8921 L 790.614 78.8668 L 790.79 78.8849 L 790.916 78.9389 L 790.992 79.0325 L 791.017 79.1622 L 791.003 79.3135 L 790.945 79.3892 L 790.801 79.4252 L 790.531 79.454 L 790.221 79.5189 L 790.001 79.6342 L 789.872 79.8143 L 789.832 80.0808 L 789.868 80.3185 L 789.98 80.4951 L 790.16 80.6068 L 790.409 80.6464 L 790.744 80.5707 L 791.042 80.3366 L 791.042 80.3366 z M 791.006 79.9115 L 790.963 80.0988 L 790.848 80.2429 L 790.675 80.3366 L 790.463 80.369 L 790.326 80.351 L 790.228 80.2933 L 790.167 80.1925 L 790.149 80.052 L 790.164 79.9259 L 790.221 79.8359 L 790.452 79.735 L 790.744 79.6918 L 791.006 79.6053 L 791.006 79.9115 L 791.006 79.9115 z M 792.181 80.5887 L 792.498 80.5887 L 792.498 79.4828 L 792.53 79.2162 L 792.628 79.0253 L 792.786 78.9101 L 792.999 78.8704 L 793.157 78.8957 L 793.276 78.9677 L 793.348 79.0902 L 793.373 79.2559 L 793.694 79.2559 L 793.651 78.9641 L 793.532 78.7552 L 793.334 78.6291 L 793.063 78.5859 L 792.88 78.6147 L 792.721 78.6867 L 792.581 78.8092 L 792.469 78.9749 L 792.469 78.6543 L 792.181 78.6543 L 792.181 80.5887 L 792.181 80.5887 z M 793.892 81.1867 L 793.892 81.4389 L 796.06 81.4389 L 796.06 81.1867 L 793.892 81.1867 L 793.892 81.1867 z M 796.341 80.5887 L 796.676 80.5887 L 796.676 79.5333 L 797.019 79.5333 L 797.271 79.5441 L 797.429 79.5945 L 797.516 79.7134 L 797.552 79.9259 L 797.57 80.2501 L 797.591 80.4626 L 797.635 80.5887 L 798.013 80.5887 L 798.013 80.5203 L 797.93 80.4194 L 797.901 80.2321 L 797.876 79.8287 L 797.815 79.5297 L 797.732 79.436 L 797.602 79.3676 L 797.746 79.2775 L 797.847 79.1514 L 797.912 78.9929 L 797.934 78.802 L 797.883 78.4994 L 797.739 78.2725 L 797.501 78.1356 L 797.177 78.0887 L 796.341 78.0887 L 796.341 80.5887 L 796.341 80.5887 z M 797.084 78.395 L 797.303 78.4166 L 797.458 78.485 L 797.555 78.6111 L 797.588 78.8092 L 797.552 79.0181 L 797.455 79.1442 L 797.289 79.209 L 797.062 79.2271 L 796.676 79.2271 L 796.676 78.395 L 797.084 78.395 L 797.084 78.395 z M 799.537 80.3222 L 799.537 78.7192 L 798.723 78.7192 L 798.723 78.9893 L 799.22 78.9893 L 799.22 80.3222 L 798.571 80.3222 L 798.571 80.5887 L 800.192 80.5887 L 800.192 80.3222 L 799.537 80.3222 L 799.537 80.3222 z M 799.547 78.0023 L 799.212 78.0023 L 799.212 78.3625 L 799.547 78.3625 L 799.547 78.0023 L 799.547 78.0023 z M 802.242 80.5023 L 802.242 78.6543 L 801.939 78.6543 L 801.939 78.9677 L 801.691 78.6831 L 801.54 78.6111 L 801.37 78.5859 L 801.064 78.6579 L 800.826 78.8596 L 800.671 79.1838 L 800.617 79.6198 L 800.671 80.0592 L 800.826 80.3834 L 801.064 80.5887 L 801.37 80.6572 L 801.543 80.632 L 801.687 80.5671 L 801.939 80.2933 L 801.939 80.5671 L 801.911 80.7833 L 801.831 80.9382 L 801.68 81.0282 L 801.453 81.0607 L 801.255 81.0391 L 801.115 80.985 L 801.032 80.8914 L 801.006 80.7653 L 800.7 80.7653 L 800.7 80.7797 L 800.747 81.0102 L 800.891 81.1831 L 801.122 81.2948 L 801.435 81.3344 L 801.81 81.2804 L 802.058 81.1291 L 802.199 80.8661 L 802.242 80.5023 L 802.242 80.5023 z M 800.945 79.6198 L 800.978 79.2991 L 801.075 79.0614 L 801.226 78.9209 L 801.428 78.8704 L 801.64 78.9209 L 801.799 79.0614 L 801.896 79.2991 L 801.932 79.6198 L 801.896 79.9475 L 801.799 80.1817 L 801.64 80.3258 L 801.428 80.3726 L 801.226 80.3258 L 801.075 80.1817 L 800.978 79.9439 L 800.945 79.6198 L 800.945 79.6198 z M 802.905 80.5887 L 803.222 80.5887 L 803.222 79.472 L 803.254 79.2162 L 803.359 79.0289 L 803.521 78.9137 L 803.737 78.8704 L 803.91 78.9065 L 804.018 79.0037 L 804.072 79.1658 L 804.09 79.382 L 804.09 80.5887 L 804.407 80.5887 L 804.407 79.3171 L 804.393 79.0614 L 804.328 78.8488 L 804.115 78.6543 L 803.784 78.5859 L 803.604 78.6111 L 803.449 78.6795 L 803.319 78.7876 L 803.222 78.9353 L 803.222 78.0023 L 802.905 78.0023 L 802.905 80.5887 L 802.905 80.5887 z M 805.498 78.9893 L 805.498 79.9583 L 805.52 80.2717 L 805.621 80.4879 L 805.823 80.614 L 806.165 80.6572 L 806.54 80.6392 L 806.54 80.3654 L 806.266 80.387 L 806.017 80.3582 L 805.884 80.2681 L 805.826 80.1168 L 805.815 79.9043 L 805.815 78.9893 L 806.54 78.9893 L 806.54 78.7192 L 805.815 78.7192 L 805.815 78.1536 L 805.498 78.1536 L 805.498 78.7192 L 804.951 78.7192 L 804.951 78.9893 L 805.498 78.9893 L 805.498 78.9893 z M 806.903 81.1867 L 806.903 81.4389 L 809.072 81.4389 L 809.072 81.1867 L 806.903 81.1867 L 806.903 81.1867 z M 809.425 80.5887 L 811.032 80.5887 L 811.032 80.2861 L 809.756 80.2861 L 809.756 78.0887 L 809.425 78.0887 L 809.425 80.5887 L 809.425 80.5887 z M 811.485 79.6234 L 811.543 80.0628 L 811.709 80.387 L 811.972 80.5887 L 812.325 80.6572 L 812.674 80.5887 L 812.937 80.3906 L 813.103 80.0664 L 813.164 79.6234 L 813.103 79.1838 L 812.937 78.856 L 812.674 78.6579 L 812.325 78.5859 L 811.972 78.6579 L 811.709 78.8596 L 811.543 79.1838 L 811.485 79.6234 L 811.485 79.6234 z M 811.81 79.6198 L 811.842 79.2955 L 811.943 79.0614 L 812.105 78.9173 L 812.325 78.8668 L 812.541 78.9173 L 812.703 79.0577 L 812.804 79.2955 L 812.84 79.6198 L 812.804 79.9475 L 812.703 80.1853 L 812.541 80.3294 L 812.325 80.3762 L 812.105 80.3294 L 811.943 80.1853 L 811.842 79.9475 L 811.81 79.6198 L 811.81 79.6198 z M 814.205 80.5887 L 814.493 78.9461 L 814.782 80.5887 L 815.084 80.5887 L 815.56 78.6543 L 815.253 78.6543 L 814.933 80.2969 L 814.648 78.6543 L 814.335 78.6543 L 814.05 80.2969 L 813.73 78.6543 L 813.427 78.6543 L 813.903 80.5887 L 814.205 80.5887 L 814.205 80.5887 z M 816.194 79.7134 L 817.462 79.7134 L 817.465 79.5657 L 817.408 79.1514 L 817.249 78.8416 L 816.997 78.6543 L 816.662 78.5859 L 816.334 78.6579 L 816.082 78.8596 L 815.92 79.1874 L 815.862 79.6198 L 815.916 80.0628 L 816.078 80.387 L 816.327 80.5887 L 816.651 80.6572 L 816.932 80.6104 L 817.163 80.4879 L 817.332 80.2933 L 817.429 80.034 L 817.116 80.034 L 817.051 80.1781 L 816.957 80.2861 L 816.691 80.3726 L 816.485 80.333 L 816.331 80.2069 L 816.23 80.0016 L 816.194 79.7242 L 816.194 79.7134 L 816.194 79.7134 z M 816.194 79.4468 L 816.233 79.1982 L 816.331 79.0145 L 816.478 78.9029 L 816.673 78.8632 L 816.864 78.9029 L 817.011 79.0145 L 817.101 79.1982 L 817.134 79.4468 L 816.194 79.4468 L 816.194 79.4468 z M 818.204 80.5887 L 818.521 80.5887 L 818.521 79.4828 L 818.553 79.2162 L 818.65 79.0253 L 818.809 78.9101 L 819.021 78.8704 L 819.18 78.8957 L 819.299 78.9677 L 819.371 79.0902 L 819.396 79.2559 L 819.717 79.2559 L 819.674 78.9641 L 819.555 78.7552 L 819.357 78.6291 L 819.086 78.5859 L 818.903 78.6147 L 818.744 78.6867 L 818.604 78.8092 L 818.492 78.9749 L 818.492 78.6543 L 818.204 78.6543 L 818.204 80.5887 L 818.204 80.5887 z M 822.073 80.5887 L 822.404 80.5887 L 822.667 79.8539 L 823.665 79.8539 L 823.928 80.5887 L 824.266 80.5887 L 823.351 78.0851 L 822.984 78.0851 L 822.073 80.5887 L 822.073 80.5887 z M 822.782 79.5477 L 823.168 78.4454 L 823.553 79.5477 L 822.782 79.5477 L 822.782 79.5477 z M 824.9 79.7638 L 825.772 79.7638 L 825.772 79.4792 L 824.9 79.4792 L 824.9 79.7638 L 824.9 79.7638 z M 826.41 80.5887 L 826.741 80.5887 L 827.004 79.8539 L 828.002 79.8539 L 828.265 80.5887 L 828.604 80.5887 L 827.689 78.0851 L 827.321 78.0851 L 826.41 80.5887 L 826.41 80.5887 z M 827.119 79.5477 L 827.505 78.4454 L 827.89 79.5477 L 827.119 79.5477 L 827.119 79.5477 z M 829.047 80.5887 L 829.364 80.5887 L 829.364 79.4828 L 829.396 79.2162 L 829.493 79.0253 L 829.652 78.9101 L 829.864 78.8704 L 830.023 78.8957 L 830.142 78.9677 L 830.214 79.0902 L 830.239 79.2559 L 830.56 79.2559 L 830.516 78.9641 L 830.398 78.7552 L 830.199 78.6291 L 829.929 78.5859 L 829.745 78.6147 L 829.587 78.6867 L 829.447 78.8092 L 829.335 78.9749 L 829.335 78.6543 L 829.047 78.6543 L 829.047 80.5887 L 829.047 80.5887 z M 830.97 80.5887 L 831.262 80.5887 L 831.262 79.2955 L 831.28 79.101 L 831.334 78.9605 L 831.417 78.8776 L 831.525 78.8452 L 831.612 78.874 L 831.669 78.9461 L 831.698 79.0686 L 831.709 79.2307 L 831.709 80.5887 L 831.983 80.5887 L 831.983 79.2955 L 832.001 79.1046 L 832.055 78.9641 L 832.141 78.8776 L 832.249 78.8452 L 832.336 78.874 L 832.393 78.9461 L 832.429 79.2307 L 832.429 80.5887 L 832.721 80.5887 L 832.721 79.2523 L 832.703 78.9749 L 832.645 78.7624 L 832.53 78.6327 L 832.343 78.5859 L 832.123 78.6579 L 831.954 78.8668 L 831.82 78.6615 L 831.597 78.5859 L 831.392 78.6579 L 831.251 78.8596 L 831.251 78.6543 L 830.97 78.6543 L 830.97 80.5887 L 830.97 80.5887 z" stroke="none" fill-rule="evenodd" fill="rgb(0, 0, 0)"/></g><g stroke="rgb(0, 0, 0)" stroke-width="0.13" stroke-linecap="butt" stroke-linejoin="miter" fill="none"><path d="M 799.641 84.9079 L 801.226 84.9079 L 801.226 84.6053 L 799.973 84.6053 L 799.973 83.7588 L 801.089 83.7588 L 801.089 83.4598 L 799.973 83.4598 L 799.973 82.7105 L 801.197 82.7105 L 801.197 82.4079 L 799.641 82.4079 L 799.641 84.9079 L 799.641 84.9079 z M 801.482 85.5059 L 801.482 85.7581 L 803.651 85.7581 L 803.651 85.5059 L 801.482 85.5059 L 801.482 85.5059 z M 803.64 84.9079 L 803.971 84.9079 L 804.234 84.173 L 805.232 84.173 L 805.495 84.9079 L 805.834 84.9079 L 804.919 82.4043 L 804.551 82.4043 L 803.64 84.9079 L 803.64 84.9079 z M 804.349 83.8668 L 804.735 82.7645 L 805.12 83.8668 L 804.349 83.8668 L 804.349 83.8668 z M 806.277 84.9079 L 806.594 84.9079 L 806.594 83.802 L 806.626 83.5354 L 806.723 83.3445 L 806.882 83.2292 L 807.094 83.1896 L 807.253 83.2148 L 807.372 83.2869 L 807.444 83.4094 L 807.469 83.5751 L 807.79 83.5751 L 807.746 83.2833 L 807.628 83.0743 L 807.429 82.9482 L 807.159 82.905 L 806.975 82.9338 L 806.817 83.0059 L 806.677 83.1284 L 806.565 83.2941 L 806.565 82.9734 L 806.277 82.9734 L 806.277 84.9079 L 806.277 84.9079 z M 808.445 84.9079 L 808.762 84.9079 L 808.762 83.802 L 808.795 83.5354 L 808.892 83.3445 L 809.05 83.2292 L 809.263 83.1896 L 809.421 83.2148 L 809.54 83.2869 L 809.612 83.4094 L 809.638 83.5751 L 809.958 83.5751 L 809.915 83.2833 L 809.796 83.0743 L 809.598 82.9482 L 809.328 82.905 L 809.144 82.9338 L 808.986 83.0059 L 808.845 83.1284 L 808.733 83.2941 L 808.733 82.9734 L 808.445 82.9734 L 808.445 84.9079 L 808.445 84.9079 z M 811.464 84.6414 L 811.464 83.0383 L 810.65 83.0383 L 810.65 83.3085 L 811.147 83.3085 L 811.147 84.6414 L 810.499 84.6414 L 810.499 84.9079 L 812.12 84.9079 L 812.12 84.6414 L 811.464 84.6414 L 811.464 84.6414 z M 811.475 82.3215 L 811.14 82.3215 L 811.14 82.6817 L 811.475 82.6817 L 811.475 82.3215 L 811.475 82.3215 z M 813.665 82.7105 L 813.305 82.0981 L 812.952 82.0981 L 813.452 82.7105 L 813.665 82.7105 L 813.665 82.7105 z M 812.941 84.0325 L 814.209 84.0325 L 814.212 83.8848 L 814.155 83.4706 L 813.996 83.1608 L 813.744 82.9734 L 813.409 82.905 L 813.081 82.9771 L 812.829 83.1788 L 812.667 83.5066 L 812.609 83.9389 L 812.664 84.382 L 812.826 84.7062 L 813.074 84.9079 L 813.398 84.9763 L 813.679 84.9295 L 813.91 84.807 L 814.079 84.6125 L 814.176 84.3531 L 813.863 84.3531 L 813.798 84.4973 L 813.705 84.6053 L 813.438 84.6918 L 813.233 84.6522 L 813.078 84.5261 L 812.977 84.3207 L 812.941 84.0433 L 812.941 84.0325 L 812.941 84.0325 z M 812.941 83.766 L 812.981 83.5174 L 813.078 83.3337 L 813.225 83.222 L 813.42 83.1824 L 813.611 83.222 L 813.759 83.3337 L 813.849 83.5174 L 813.881 83.766 L 812.941 83.766 L 812.941 83.766 z M 814.951 84.9079 L 815.268 84.9079 L 815.268 83.802 L 815.3 83.5354 L 815.398 83.3445 L 815.556 83.2292 L 815.769 83.1896 L 815.927 83.2148 L 816.046 83.2869 L 816.118 83.4094 L 816.143 83.5751 L 816.464 83.5751 L 816.421 83.2833 L 816.302 83.0743 L 816.104 82.9482 L 815.833 82.905 L 815.65 82.9338 L 815.491 83.0059 L 815.351 83.1284 L 815.239 83.2941 L 815.239 82.9734 L 814.951 82.9734 L 814.951 84.9079 L 814.951 84.9079 z M 817.278 84.0325 L 818.546 84.0325 L 818.55 83.8848 L 818.492 83.4706 L 818.333 83.1608 L 818.081 82.9734 L 817.746 82.905 L 817.419 82.9771 L 817.166 83.1788 L 817.004 83.5066 L 816.947 83.9389 L 817.001 84.382 L 817.163 84.7062 L 817.411 84.9079 L 817.736 84.9763 L 818.017 84.9295 L 818.247 84.807 L 818.416 84.6125 L 818.514 84.3531 L 818.2 84.3531 L 818.135 84.4973 L 818.042 84.6053 L 817.775 84.6918 L 817.57 84.6522 L 817.415 84.5261 L 817.314 84.3207 L 817.278 84.0433 L 817.278 84.0325 L 817.278 84.0325 z M 817.278 83.766 L 817.318 83.5174 L 817.415 83.3337 L 817.563 83.222 L 817.757 83.1824 L 817.948 83.222 L 818.096 83.3337 L 818.186 83.5174 L 818.218 83.766 L 817.278 83.766 L 817.278 83.766 z" stroke="none" fill-rule="evenodd" fill="rgb(0, 0, 0)"/></g><g stroke="rgb(0, 0, 0)" stroke-width="0.13" stroke-linecap="butt" stroke-linejoin="miter" fill="none"><path d="M 892.909 80.5387 L 893.244 80.5387 L 893.244 79.4832 L 893.586 79.4832 L 893.838 79.494 L 893.997 79.5444 L 894.083 79.6633 L 894.119 79.8759 L 894.137 80.2001 L 894.159 80.4126 L 894.202 80.5387 L 894.58 80.5387 L 894.58 80.4703 L 894.497 80.3694 L 894.469 80.1821 L 894.443 79.7786 L 894.382 79.4796 L 894.299 79.386 L 894.17 79.3175 L 894.314 79.2275 L 894.414 79.1014 L 894.479 78.9429 L 894.501 78.752 L 894.451 78.4493 L 894.306 78.2224 L 894.069 78.0855 L 893.744 78.0387 L 892.909 78.0387 L 892.909 80.5387 L 892.909 80.5387 z M 893.651 78.3449 L 893.871 78.3665 L 894.025 78.4349 L 894.123 78.561 L 894.155 78.7592 L 894.119 78.9681 L 894.022 79.0942 L 893.856 79.159 L 893.629 79.177 L 893.244 79.177 L 893.244 78.3449 L 893.651 78.3449 L 893.651 78.3449 z M 895.412 79.6633 L 896.68 79.6633 L 896.684 79.5156 L 896.626 79.1014 L 896.468 78.7916 L 896.216 78.6042 L 895.881 78.5358 L 895.553 78.6078 L 895.301 78.8096 L 895.139 79.1374 L 895.081 79.5697 L 895.135 80.0128 L 895.297 80.337 L 895.546 80.5387 L 895.87 80.6071 L 896.151 80.5603 L 896.381 80.4378 L 896.551 80.2433 L 896.648 79.9839 L 896.335 79.9839 L 896.27 80.1281 L 896.176 80.2361 L 895.909 80.3226 L 895.704 80.283 L 895.549 80.1569 L 895.448 79.9515 L 895.412 79.6741 L 895.412 79.6633 L 895.412 79.6633 z M 895.412 79.3968 L 895.452 79.1482 L 895.549 78.9645 L 895.697 78.8528 L 895.891 78.8132 L 896.082 78.8528 L 896.23 78.9645 L 896.32 79.1482 L 896.353 79.3968 L 895.412 79.3968 L 895.412 79.3968 z M 898.453 80.2866 L 898.453 80.2974 L 898.471 80.4198 L 898.525 80.5063 L 898.752 80.5747 L 898.928 80.5459 L 898.928 80.301 L 898.852 80.3118 L 898.752 80.2649 L 898.734 80.1208 L 898.734 79.1194 L 898.69 78.8636 L 898.564 78.6835 L 898.345 78.5754 L 898.035 78.5358 L 897.732 78.579 L 897.509 78.7015 L 897.368 78.8925 L 897.322 79.1446 L 897.322 79.1662 L 897.606 79.1662 L 897.631 79.015 L 897.711 78.9069 L 897.84 78.842 L 898.024 78.8168 L 898.201 78.8348 L 898.327 78.8889 L 898.402 78.9825 L 898.427 79.1122 L 898.413 79.2635 L 898.355 79.3391 L 898.211 79.3752 L 897.941 79.404 L 897.631 79.4688 L 897.412 79.5841 L 897.282 79.7642 L 897.242 80.0308 L 897.278 80.2685 L 897.39 80.445 L 897.57 80.5567 L 897.819 80.5963 L 898.154 80.5207 L 898.453 80.2866 L 898.453 80.2866 z M 898.417 79.8615 L 898.373 80.0488 L 898.258 80.1929 L 898.085 80.2866 L 897.873 80.319 L 897.736 80.301 L 897.639 80.2433 L 897.577 80.1425 L 897.559 80.002 L 897.574 79.8759 L 897.631 79.7858 L 897.862 79.6849 L 898.154 79.6417 L 898.417 79.5553 L 898.417 79.8615 L 898.417 79.8615 z M 899.591 80.5387 L 899.908 80.5387 L 899.908 79.4328 L 899.94 79.1662 L 900.038 78.9753 L 900.196 78.86 L 900.409 78.8204 L 900.567 78.8456 L 900.686 78.9177 L 900.758 79.0402 L 900.783 79.2059 L 901.104 79.2059 L 901.061 78.9141 L 900.942 78.7051 L 900.744 78.579 L 900.474 78.5358 L 900.29 78.5646 L 900.131 78.6367 L 899.991 78.7592 L 899.879 78.9249 L 899.879 78.6042 L 899.591 78.6042 L 899.591 80.5387 L 899.591 80.5387 z M 901.302 81.1367 L 901.302 81.3889 L 903.471 81.3889 L 903.471 81.1367 L 901.302 81.1367 L 901.302 81.1367 z M 903.752 80.5387 L 904.087 80.5387 L 904.087 79.4832 L 904.429 79.4832 L 904.681 79.494 L 904.84 79.5444 L 904.926 79.6633 L 904.962 79.8759 L 904.98 80.2001 L 905.002 80.4126 L 905.045 80.5387 L 905.423 80.5387 L 905.423 80.4703 L 905.34 80.3694 L 905.311 80.1821 L 905.286 79.7786 L 905.225 79.4796 L 905.142 79.386 L 905.012 79.3175 L 905.156 79.2275 L 905.257 79.1014 L 905.322 78.9429 L 905.344 78.752 L 905.293 78.4493 L 905.149 78.2224 L 904.912 78.0855 L 904.587 78.0387 L 903.752 78.0387 L 903.752 80.5387 L 903.752 80.5387 z M 904.494 78.3449 L 904.713 78.3665 L 904.868 78.4349 L 904.966 78.561 L 904.998 78.7592 L 904.962 78.9681 L 904.865 79.0942 L 904.699 79.159 L 904.472 79.177 L 904.087 79.177 L 904.087 78.3449 L 904.494 78.3449 L 904.494 78.3449 z M 906.947 80.2722 L 906.947 78.6691 L 906.133 78.6691 L 906.133 78.9393 L 906.63 78.9393 L 906.63 80.2722 L 905.981 80.2722 L 905.981 80.5387 L 907.602 80.5387 L 907.602 80.2722 L 906.947 80.2722 L 906.947 80.2722 z M 906.958 77.9523 L 906.623 77.9523 L 906.623 78.3125 L 906.958 78.3125 L 906.958 77.9523 L 906.958 77.9523 z M 909.652 80.4523 L 909.652 78.6042 L 909.35 78.6042 L 909.35 78.9177 L 909.101 78.6331 L 908.95 78.561 L 908.78 78.5358 L 908.474 78.6078 L 908.236 78.8096 L 908.082 79.1338 L 908.028 79.5697 L 908.082 80.0092 L 908.236 80.3334 L 908.474 80.5387 L 908.78 80.6071 L 908.953 80.5819 L 909.097 80.5171 L 909.35 80.2433 L 909.35 80.5171 L 909.321 80.7332 L 909.242 80.8881 L 909.09 80.9781 L 908.863 81.0106 L 908.665 80.989 L 908.525 80.9349 L 908.442 80.8413 L 908.417 80.7152 L 908.11 80.7152 L 908.11 80.7296 L 908.157 80.9601 L 908.301 81.1331 L 908.532 81.2448 L 908.845 81.2844 L 909.22 81.2303 L 909.468 81.079 L 909.609 80.8161 L 909.652 80.4523 L 909.652 80.4523 z M 908.355 79.5697 L 908.388 79.2491 L 908.485 79.0114 L 908.636 78.8708 L 908.838 78.8204 L 909.051 78.8708 L 909.209 79.0114 L 909.306 79.2491 L 909.342 79.5697 L 909.306 79.8975 L 909.209 80.1317 L 909.051 80.2758 L 908.838 80.3226 L 908.636 80.2758 L 908.485 80.1317 L 908.388 79.8939 L 908.355 79.5697 L 908.355 79.5697 z M 910.315 80.5387 L 910.632 80.5387 L 910.632 79.422 L 910.664 79.1662 L 910.769 78.9789 L 910.931 78.8636 L 911.147 78.8204 L 911.32 78.8564 L 911.428 78.9537 L 911.482 79.1158 L 911.5 79.3319 L 911.5 80.5387 L 911.817 80.5387 L 911.817 79.2671 L 911.803 79.0114 L 911.738 78.7988 L 911.525 78.6042 L 911.194 78.5358 L 911.014 78.561 L 910.859 78.6295 L 910.729 78.7375 L 910.632 78.8853 L 910.632 77.9523 L 910.315 77.9523 L 910.315 80.5387 L 910.315 80.5387 z M 912.909 78.9393 L 912.909 79.9083 L 912.93 80.2217 L 913.031 80.4378 L 913.233 80.5639 L 913.575 80.6071 L 913.95 80.5891 L 913.95 80.3154 L 913.676 80.337 L 913.427 80.3082 L 913.294 80.2181 L 913.236 80.0668 L 913.226 79.8542 L 913.226 78.9393 L 913.95 78.9393 L 913.95 78.6691 L 913.226 78.6691 L 913.226 78.1035 L 912.909 78.1035 L 912.909 78.6691 L 912.361 78.6691 L 912.361 78.9393 L 912.909 78.9393 L 912.909 78.9393 z M 914.314 81.1367 L 914.314 81.3889 L 916.482 81.3889 L 916.482 81.1367 L 914.314 81.1367 L 914.314 81.1367 z M 916.835 80.5387 L 918.442 80.5387 L 918.442 80.2361 L 917.167 80.2361 L 917.167 78.0387 L 916.835 78.0387 L 916.835 80.5387 L 916.835 80.5387 z M 918.896 79.5733 L 918.953 80.0128 L 919.119 80.337 L 919.382 80.5387 L 919.735 80.6071 L 920.084 80.5387 L 920.347 80.3406 L 920.513 80.0164 L 920.574 79.5733 L 920.513 79.1338 L 920.347 78.806 L 920.084 78.6078 L 919.735 78.5358 L 919.382 78.6078 L 919.119 78.8096 L 918.953 79.1338 L 918.896 79.5733 L 918.896 79.5733 z M 919.22 79.5697 L 919.252 79.2455 L 919.353 79.0114 L 919.515 78.8672 L 919.735 78.8168 L 919.951 78.8672 L 920.113 79.0077 L 920.214 79.2455 L 920.25 79.5697 L 920.214 79.8975 L 920.113 80.1353 L 919.951 80.2794 L 919.735 80.3262 L 919.515 80.2794 L 919.353 80.1353 L 919.252 79.8975 L 919.22 79.5697 L 919.22 79.5697 z M 921.615 80.5387 L 921.904 78.8961 L 922.192 80.5387 L 922.494 80.5387 L 922.97 78.6042 L 922.664 78.6042 L 922.343 80.2469 L 922.058 78.6042 L 921.745 78.6042 L 921.461 80.2469 L 921.14 78.6042 L 920.837 78.6042 L 921.313 80.5387 L 921.615 80.5387 L 921.615 80.5387 z M 923.604 79.6633 L 924.872 79.6633 L 924.875 79.5156 L 924.818 79.1014 L 924.659 78.7916 L 924.407 78.6042 L 924.072 78.5358 L 923.744 78.6078 L 923.492 78.8096 L 923.33 79.1374 L 923.272 79.5697 L 923.326 80.0128 L 923.489 80.337 L 923.737 80.5387 L 924.061 80.6071 L 924.342 80.5603 L 924.573 80.4378 L 924.742 80.2433 L 924.839 79.9839 L 924.526 79.9839 L 924.461 80.1281 L 924.368 80.2361 L 924.101 80.3226 L 923.896 80.283 L 923.741 80.1569 L 923.64 79.9515 L 923.604 79.6741 L 923.604 79.6633 L 923.604 79.6633 z M 923.604 79.3968 L 923.643 79.1482 L 923.741 78.9645 L 923.888 78.8528 L 924.083 78.8132 L 924.274 78.8528 L 924.422 78.9645 L 924.512 79.1482 L 924.544 79.3968 L 923.604 79.3968 L 923.604 79.3968 z M 925.614 80.5387 L 925.931 80.5387 L 925.931 79.4328 L 925.963 79.1662 L 926.061 78.9753 L 926.219 78.86 L 926.432 78.8204 L 926.59 78.8456 L 926.709 78.9177 L 926.781 79.0402 L 926.806 79.2059 L 927.127 79.2059 L 927.084 78.9141 L 926.965 78.7051 L 926.767 78.579 L 926.496 78.5358 L 926.313 78.5646 L 926.154 78.6367 L 926.014 78.7592 L 925.902 78.9249 L 925.902 78.6042 L 925.614 78.6042 L 925.614 80.5387 L 925.614 80.5387 z M 929.483 80.5387 L 929.814 80.5387 L 930.077 79.8038 L 931.075 79.8038 L 931.338 80.5387 L 931.677 80.5387 L 930.762 78.0351 L 930.394 78.0351 L 929.483 80.5387 L 929.483 80.5387 z M 930.192 79.4976 L 930.578 78.3953 L 930.963 79.4976 L 930.192 79.4976 L 930.192 79.4976 z M 932.311 79.7137 L 933.182 79.7137 L 933.182 79.4292 L 932.311 79.4292 L 932.311 79.7137 L 932.311 79.7137 z M 933.82 80.5387 L 934.151 80.5387 L 934.414 79.8038 L 935.412 79.8038 L 935.675 80.5387 L 936.014 80.5387 L 935.099 78.0351 L 934.731 78.0351 L 933.82 80.5387 L 933.82 80.5387 z M 934.53 79.4976 L 934.915 78.3953 L 935.3 79.4976 L 934.53 79.4976 L 934.53 79.4976 z M 936.457 80.5387 L 936.774 80.5387 L 936.774 79.4328 L 936.806 79.1662 L 936.904 78.9753 L 937.062 78.86 L 937.275 78.8204 L 937.433 78.8456 L 937.552 78.9177 L 937.624 79.0402 L 937.649 79.2059 L 937.97 79.2059 L 937.927 78.9141 L 937.808 78.7051 L 937.61 78.579 L 937.339 78.5358 L 937.156 78.5646 L 936.997 78.6367 L 936.857 78.7592 L 936.745 78.9249 L 936.745 78.6042 L 936.457 78.6042 L 936.457 80.5387 L 936.457 80.5387 z M 938.38 80.5387 L 938.672 80.5387 L 938.672 79.2455 L 938.69 79.051 L 938.744 78.9105 L 938.827 78.8276 L 938.935 78.7952 L 939.022 78.824 L 939.079 78.8961 L 939.108 79.0186 L 939.119 79.1806 L 939.119 80.5387 L 939.393 80.5387 L 939.393 79.2455 L 939.411 79.0546 L 939.465 78.9141 L 939.551 78.8276 L 939.659 78.7952 L 939.746 78.824 L 939.803 78.8961 L 939.839 79.1806 L 939.839 80.5387 L 940.131 80.5387 L 940.131 79.2023 L 940.113 78.9249 L 940.055 78.7123 L 939.94 78.5826 L 939.753 78.5358 L 939.533 78.6078 L 939.364 78.8168 L 939.231 78.6115 L 939.007 78.5358 L 938.802 78.6078 L 938.661 78.8096 L 938.661 78.6042 L 938.38 78.6042 L 938.38 80.5387 L 938.38 80.5387 z" stroke="none" fill-rule="evenodd" fill="rgb(0, 0, 0)"/></g><g stroke="rgb(0, 0, 0)" stroke-width="0.13" stroke-linecap="butt" stroke-linejoin="miter" fill="none"><path d="M 909.22 84.8578 L 910.805 84.8578 L 910.805 84.5552 L 909.551 84.5552 L 909.551 83.7087 L 910.668 83.7087 L 910.668 83.4097 L 909.551 83.4097 L 909.551 82.6605 L 910.776 82.6605 L 910.776 82.3579 L 909.22 82.3579 L 909.22 84.8578 L 909.22 84.8578 z M 911.061 85.4558 L 911.061 85.708 L 913.229 85.708 L 913.229 85.4558 L 911.061 85.4558 L 911.061 85.4558 z M 913.219 84.8578 L 913.55 84.8578 L 913.813 84.123 L 914.811 84.123 L 915.074 84.8578 L 915.412 84.8578 L 914.497 82.3543 L 914.13 82.3543 L 913.219 84.8578 L 913.219 84.8578 z M 913.928 83.8168 L 914.314 82.7145 L 914.699 83.8168 L 913.928 83.8168 L 913.928 83.8168 z M 916.317 84.8578 L 916.652 84.8578 L 917.358 82.9235 L 917.03 82.9235 L 916.486 84.4832 L 915.931 82.9235 L 915.6 82.9235 L 916.317 84.8578 L 916.317 84.8578 z M 919.054 84.6057 L 919.054 84.6165 L 919.072 84.739 L 919.126 84.8254 L 919.353 84.8939 L 919.53 84.8651 L 919.53 84.6201 L 919.454 84.6309 L 919.353 84.5841 L 919.335 84.44 L 919.335 83.4385 L 919.292 83.1828 L 919.166 83.0027 L 918.946 82.8947 L 918.636 82.855 L 918.334 82.8983 L 918.11 83.0207 L 917.97 83.2116 L 917.923 83.4638 L 917.923 83.4854 L 918.208 83.4854 L 918.233 83.3341 L 918.312 83.226 L 918.442 83.1612 L 918.626 83.136 L 918.802 83.154 L 918.928 83.208 L 919.004 83.3017 L 919.029 83.4313 L 919.015 83.5826 L 918.957 83.6583 L 918.813 83.6943 L 918.543 83.7231 L 918.233 83.788 L 918.013 83.9033 L 917.884 84.0834 L 917.844 84.3499 L 917.88 84.5877 L 917.992 84.7642 L 918.172 84.8759 L 918.42 84.9155 L 918.755 84.8398 L 919.054 84.6057 L 919.054 84.6057 z M 919.018 84.1806 L 918.975 84.3679 L 918.86 84.512 L 918.687 84.6057 L 918.474 84.6381 L 918.337 84.6201 L 918.24 84.5624 L 918.179 84.4616 L 918.161 84.3211 L 918.175 84.195 L 918.233 84.105 L 918.464 84.0041 L 918.755 83.9609 L 919.018 83.8745 L 919.018 84.1806 L 919.018 84.1806 z M 920.074 84.8578 L 920.391 84.8578 L 920.391 83.7411 L 920.423 83.4854 L 920.528 83.2981 L 920.69 83.1828 L 920.906 83.1396 L 921.079 83.1756 L 921.187 83.2729 L 921.241 83.4349 L 921.259 83.6511 L 921.259 84.8578 L 921.576 84.8578 L 921.576 83.5862 L 921.561 83.3305 L 921.497 83.118 L 921.284 82.9235 L 920.953 82.855 L 920.769 82.8802 L 920.614 82.9487 L 920.481 83.0639 L 920.376 83.2188 L 920.376 82.9235 L 920.074 82.9235 L 920.074 84.8578 L 920.074 84.8578 z M 922.667 83.2584 L 922.667 84.2275 L 922.689 84.5408 L 922.79 84.757 L 922.992 84.8831 L 923.334 84.9263 L 923.708 84.9083 L 923.708 84.6345 L 923.435 84.6561 L 923.186 84.6273 L 923.053 84.5372 L 922.995 84.3859 L 922.984 84.1734 L 922.984 83.2584 L 923.708 83.2584 L 923.708 82.9883 L 922.984 82.9883 L 922.984 82.4227 L 922.667 82.4227 L 922.667 82.9883 L 922.12 82.9883 L 922.12 83.2584 L 922.667 83.2584 L 922.667 83.2584 z" stroke="none" fill-rule="evenodd" fill="rgb(0, 0, 0)"/></g></svg>