<?xml version="1.0" encoding="utf-8" ?><!DOCTYPE svg PUBLIC "-//W3C//DTD SVG 1.1//EN" "http://www.w3.org/Graphics/SVG/1.1/DTD/svg11.dtd" 
[ <!ATTLIST svg 
  xmlns:dsy CDATA #FIXED "http://www.3ds.com/print"  
    dsy:text-version CDATA #IMPLIED > 

  <!ATTLIST text 
  xmlns:dsy CDATA #FIXED "http://www.3ds.com/print" 
    dsy:text-version CDATA #IMPLIED > 
]><svg xmlns="http://www.w3.org/2000/svg" xmlns:dsy="http://www.3ds.com/print" dsy:text-version="18000" width="1189" height="841" viewBox="0 0 1189 841" version="1.1"><g stroke="rgb(0, 0, 0)" stroke-width="0.35" stroke-linecap="butt" stroke-linejoin="miter" fill="none"><path d="M 217.984 64.6699 L 212.381 66.8171"/><path d="M 210.827 45.9944 L 217.984 64.6699"/><path d="M 70.0795 121.351 L 62.9225 102.675"/><path d="M 75.6821 119.204 L 70.0795 121.351"/><path d="M 68.5252 100.528 L 75.6821 119.204"/><path d="M 205.224 48.1415 L 68.5252 100.528"/><path d="M 212.381 66.8171 L 205.224 48.1415"/><circle cx="280.911" cy="40.7031" r="3.19995"/><circle cx="223.156" cy="391.588" r="6"/><circle cx="238.363" cy="448.162" r="3.19995"/><path d="M 210.827 45.9944 L 281.874 31.6459"/><path d="M 293.814 42.3348 A 10 10 0 0 0 281.874 31.6459"/><path d="M 62.9225 102.675 L 45.7496 109.257"/><path d="M 45.7496 109.257 A 10 10 0 0 0 40.6234 123.517"/><path d="M 256.548 460.914 L 293.814 42.3347"/><path d="M 40.6235 123.517 L 234.15 465.757"/><path d="M 234.15 465.757 A 12 12 0 0 0 256.548 460.914"/><path d="M 380.153 99.2589 L 386.153 99.3127"/><path d="M 386.153 99.3127 L 385.973 119.312"/><path d="M 385.973 119.312 L 393.973 119.384"/><path d="M 393.973 119.384 L 394.153 99.3846"/><path d="M 394.153 99.3846 L 400.153 99.4386"/><path d="M 400.153 99.4386 L 399.973 119.438"/><path d="M 399.973 119.438 L 424.972 119.662"/><path d="M 424.972 119.662 L 424.972 49.6596"/><path d="M 408.764 49.514 L 424.972 49.6596"/><path d="M 388.765 49.3342 A 10 10 0 1 0 408.764 49.5139"/><path d="M 350.604 48.9912 L 388.765 49.3342"/><path d="M 349.975 118.988 L 350.604 48.9912"/><path d="M 359.974 119.078 L 349.975 118.988"/><path d="M 360.154 99.0791 L 359.974 119.078"/><path d="M 366.154 99.133 L 360.154 99.0791"/><path d="M 365.974 119.132 L 366.154 99.133"/><path d="M 379.974 119.258 L 365.974 119.132"/><path d="M 380.153 99.2589 L 379.974 119.258"/><path d="M 517.18 99.4682 L 523.18 99.5221"/><path d="M 523.18 99.5221 L 523 119.521"/><path d="M 523 119.521 L 531 119.593"/><path d="M 531 119.593 L 531.179 99.594"/><path d="M 531.179 99.594 L 537.179 99.6479"/><path d="M 537.179 99.6479 L 536.999 119.647"/><path d="M 536.999 119.647 L 561.998 119.872"/><path d="M 561.998 119.872 L 561.998 50.869"/><path d="M 545.756 50.723 L 561.998 50.869"/><path d="M 525.857 50.5442 A 10 10 0 0 0 545.756 50.723"/><path d="M 487.621 50.2006 L 525.857 50.5442"/><path d="M 487.001 119.198 L 487.621 50.2006"/><path d="M 497.001 119.288 L 487.001 119.198"/><path d="M 497.181 99.2885 L 497.001 119.288"/><path d="M 503.18 99.3423 L 497.181 99.2885"/><path d="M 503.001 119.342 L 503.18 99.3423"/><path d="M 517 119.467 L 503.001 119.342"/><path d="M 517.18 99.4682 L 517 119.467"/><path d="M 568.326 195.776 L 575.483 214.452"/><path d="M 575.483 214.452 L 569.974 216.563"/><path d="M 569.974 216.563 L 562.817 197.887"/><path d="M 562.817 197.887 L 425.931 250.346"/><path d="M 425.931 250.346 L 433.088 269.021"/><path d="M 433.088 269.021 L 427.579 271.133"/><path d="M 427.579 271.133 L 420.422 252.457"/><circle cx="356.687" cy="293.595" r="3.19995"/><circle cx="638.411" cy="190.485" r="3.19995"/><circle cx="595.862" cy="597.943" r="3.19995"/><circle cx="580.656" cy="541.37" r="6"/><path d="M 545.939 273.965 L 564.615 266.808"/><path d="M 564.615 266.808 L 582.507 313.497"/><path d="M 582.507 313.497 L 563.832 320.654"/><path d="M 563.832 320.654 L 545.939 273.965"/><path d="M 481.682 298.59 L 467.675 303.958"/><path d="M 508.508 325.792 L 481.682 298.59"/><path d="M 505.998 289.271 L 508.508 325.792"/><path d="M 520.005 283.904 L 505.998 289.271"/><path d="M 520.005 337.45 L 520.005 283.904"/><path d="M 505.998 342.817 L 520.005 337.45"/><path d="M 467.675 303.958 L 505.998 342.817"/><path d="M 351.818 298.635 L 351.121 299.353"/><path d="M 351.121 299.353 L 341.794 290.297"/><path d="M 341.794 290.297 L 342.49 289.58"/><path d="M 351.818 298.635 L 342.49 289.58"/><path d="M 362.765 290.129 L 356.793 279.721"/><path d="M 357.66 279.223 L 356.793 279.721"/><path d="M 363.632 289.631 L 357.66 279.223"/><path d="M 362.765 290.129 L 363.632 289.631"/><path d="M 645.095 192.593 L 646.74 187.386"/><path d="M 646.74 187.386 L 647.694 187.688"/><path d="M 647.694 187.688 L 646.048 192.895"/><path d="M 646.048 192.895 L 645.095 192.593"/><path d="M 630.421 190.099 L 631.417 190.159"/><path d="M 631.041 179.753 L 630.421 190.099"/><path d="M 632.041 179.753 L 631.041 179.753"/><path d="M 631.417 190.159 L 632.041 179.753"/><path d="M 521.302 353.583 L 569.389 335.154"/><path d="M 575.115 350.095 A 8 8 0 1 0 569.389 335.154"/><path d="M 575.115 350.095 L 527.028 368.523"/><path d="M 521.302 353.583 A 8 8 0 0 0 527.028 368.523"/><path d="M 636.407 397.431 A 0.5 0.5 0 0 0 636.956 396.986"/><path d="M 636.406 397.431 L 607.563 394.419"/><path d="M 607.563 394.419 A 0.5 0.5 0 0 0 607.014 394.865"/><path d="M 634.775 417.872 A 0.5 0.5 0 0 0 634.329 417.323"/><path d="M 607.014 394.865 L 605.041 413.762"/><path d="M 605.486 414.311 L 634.329 417.323"/><path d="M 605.041 413.762 A 0.5 0.5 0 0 0 605.486 414.311"/><path d="M 631.27 171.654 L 568.326 195.776"/><path d="M 658.319 192.407 L 636.956 396.986"/><path d="M 658.319 192.407 A 20 20 0 0 0 631.27 171.654"/><path d="M 420.422 252.457 L 352.372 278.536"/><path d="M 352.372 278.536 A 20 20 0 0 0 343.804 309.569"/><path d="M 634.775 417.872 L 615.754 600.021"/><path d="M 343.804 309.569 L 580.137 610.301"/><path d="M 580.137 610.301 A 20 20 0 0 0 615.754 600.021"/><path d="M 1020.21 301.991 L 1050.05 305.107"/><path d="M 1022.29 282.099 L 1020.21 301.991"/><path d="M 1052.12 285.215 L 1022.29 282.099"/><path d="M 1076.92 47.7225 L 1052.12 285.215"/><path d="M 983.547 83.5076 L 1076.92 47.7225"/><path d="M 983.547 83.5076 L 990.703 102.183"/><path d="M 985.194 104.294 L 990.703 102.183"/><path d="M 985.194 104.294 L 978.037 85.6189"/><path d="M 841.152 138.077 L 978.037 85.6189"/><path d="M 848.309 156.753 L 841.152 138.077"/><path d="M 842.799 158.864 L 848.309 156.753"/><path d="M 835.642 140.189 L 842.799 158.864"/><path d="M 742.264 175.974 L 835.642 140.189"/><circle cx="771.907" cy="181.326" r="3.19995"/><circle cx="1053.63" cy="78.2163" r="3.19995"/><circle cx="1011.08" cy="485.675" r="3.19995"/><circle cx="995.876" cy="429.102" r="6"/><path d="M 961.16 161.696 L 979.835 154.539"/><path d="M 979.835 154.539 L 997.728 201.228"/><path d="M 997.728 201.228 L 979.052 208.385"/><path d="M 979.052 208.385 L 961.16 161.696"/><path d="M 896.902 186.322 L 882.895 191.69"/><path d="M 923.728 213.523 L 896.902 186.322"/><path d="M 921.218 177.003 L 923.728 213.523"/><path d="M 935.225 171.635 L 921.218 177.003"/><path d="M 935.225 225.181 L 935.225 171.635"/><path d="M 921.218 230.549 L 935.225 225.181"/><path d="M 882.895 191.69 L 921.218 230.549"/><path d="M 1065.01 65.5767 L 1064.04 65.3354"/><path d="M 1061.39 80.1335 L 1065.01 65.5767"/><path d="M 1060.42 79.8923 L 1061.39 80.1335"/><path d="M 1064.04 65.3354 L 1060.42 79.8923"/><path d="M 772.718 169.134 L 773.574 168.616"/><path d="M 773.574 168.616 L 778.748 177.173"/><path d="M 778.748 177.173 L 777.893 177.691"/><path d="M 772.718 169.134 L 777.893 177.691"/><path d="M 766.16 186.865 L 766.971 186.281"/><path d="M 759.736 177.936 L 766.16 186.865"/><path d="M 760.548 177.352 L 759.736 177.936"/><path d="M 766.971 186.281 L 760.548 177.352"/><path d="M 1045.63 78.488 L 1046.63 78.4524"/><path d="M 1045.1 63.4975 L 1045.63 78.488"/><path d="M 1046.1 63.4619 L 1045.1 63.4975"/><path d="M 1046.63 78.4524 L 1046.1 63.4619"/><path d="M 742.264 175.974 L 995.357 498.033"/><path d="M 1050.05 305.107 L 1030.97 487.752"/><path d="M 995.357 498.033 A 20 20 0 0 0 1030.97 487.752"/></g><g stroke="rgb(0, 0, 0)" stroke-width="0.13" stroke-linecap="butt" stroke-linejoin="miter" fill="none"><path d="M 140.78 191.21 L 141.45 191.21 L 141.45 189.099 L 142.135 189.099 L 142.639 189.121 L 142.956 189.222 L 143.129 189.459 L 143.201 189.885 L 143.237 190.533 L 143.28 190.958 L 143.367 191.21 L 144.123 191.21 L 144.123 191.073 L 143.957 190.872 L 143.9 190.497 L 143.849 189.69 L 143.727 189.092 L 143.561 188.905 L 143.302 188.768 L 143.59 188.588 L 143.792 188.336 L 143.921 188.019 L 143.965 187.637 L 143.864 187.032 L 143.576 186.578 L 143.1 186.304 L 142.452 186.21 L 140.78 186.21 L 140.78 191.21 L 140.78 191.21 z M 142.264 186.823 L 142.704 186.866 L 143.014 187.003 L 143.208 187.255 L 143.273 187.651 L 143.201 188.069 L 143.006 188.321 L 142.675 188.451 L 142.221 188.487 L 141.45 188.487 L 141.45 186.823 L 142.264 186.823 L 142.264 186.823 z M 145.787 189.459 L 148.323 189.459 L 148.331 189.164 L 148.215 188.336 L 147.898 187.716 L 147.394 187.341 L 146.724 187.204 L 146.068 187.349 L 145.564 187.752 L 145.24 188.408 L 145.125 189.272 L 145.233 190.158 L 145.557 190.807 L 146.054 191.21 L 146.702 191.347 L 147.264 191.253 L 147.725 191.008 L 148.064 190.619 L 148.259 190.101 L 147.632 190.101 L 147.502 190.389 L 147.315 190.605 L 146.782 190.778 L 146.371 190.699 L 146.061 190.447 L 145.859 190.036 L 145.787 189.481 L 145.787 189.459 L 145.787 189.459 z M 145.787 188.926 L 145.867 188.429 L 146.061 188.062 L 146.357 187.838 L 146.746 187.759 L 147.128 187.838 L 147.423 188.062 L 147.603 188.429 L 147.668 188.926 L 145.787 188.926 L 145.787 188.926 z M 151.868 190.706 L 151.868 190.727 L 151.904 190.972 L 152.012 191.145 L 152.466 191.282 L 152.819 191.225 L 152.819 190.735 L 152.668 190.756 L 152.466 190.663 L 152.43 190.374 L 152.43 188.372 L 152.344 187.86 L 152.091 187.5 L 151.652 187.284 L 151.032 187.204 L 150.427 187.291 L 149.981 187.536 L 149.7 187.918 L 149.606 188.422 L 149.606 188.465 L 150.175 188.465 L 150.225 188.163 L 150.384 187.947 L 150.643 187.817 L 151.011 187.766 L 151.364 187.802 L 151.616 187.91 L 151.767 188.098 L 151.818 188.357 L 151.789 188.66 L 151.674 188.811 L 151.385 188.883 L 150.845 188.941 L 150.225 189.07 L 149.786 189.301 L 149.527 189.661 L 149.447 190.194 L 149.519 190.67 L 149.743 191.023 L 150.103 191.246 L 150.6 191.326 L 151.27 191.174 L 151.868 190.706 L 151.868 190.706 z M 151.796 189.856 L 151.71 190.23 L 151.479 190.519 L 151.133 190.706 L 150.708 190.771 L 150.434 190.735 L 150.24 190.619 L 150.117 190.418 L 150.081 190.137 L 150.11 189.885 L 150.225 189.704 L 150.687 189.503 L 151.27 189.416 L 151.796 189.243 L 151.796 189.856 L 151.796 189.856 z M 154.145 191.21 L 154.779 191.21 L 154.779 188.998 L 154.844 188.465 L 155.038 188.083 L 155.355 187.853 L 155.78 187.774 L 156.097 187.824 L 156.335 187.968 L 156.479 188.213 L 156.53 188.544 L 157.171 188.544 L 157.084 187.961 L 156.847 187.543 L 156.45 187.291 L 155.91 187.204 L 155.542 187.262 L 155.225 187.406 L 154.945 187.651 L 154.721 187.983 L 154.721 187.341 L 154.145 187.341 L 154.145 191.21 L 154.145 191.21 z M 157.567 192.406 L 157.567 192.911 L 161.904 192.911 L 161.904 192.406 L 157.567 192.406 L 157.567 192.406 z M 162.466 191.21 L 163.136 191.21 L 163.136 189.099 L 163.821 189.099 L 164.325 189.121 L 164.642 189.222 L 164.815 189.459 L 164.887 189.885 L 164.923 190.533 L 164.966 190.958 L 165.053 191.21 L 165.809 191.21 L 165.809 191.073 L 165.643 190.872 L 165.586 190.497 L 165.535 189.69 L 165.413 189.092 L 165.247 188.905 L 164.988 188.768 L 165.276 188.588 L 165.478 188.336 L 165.607 188.019 L 165.651 187.637 L 165.55 187.032 L 165.261 186.578 L 164.786 186.304 L 164.138 186.21 L 162.466 186.21 L 162.466 191.21 L 162.466 191.21 z M 163.95 186.823 L 164.39 186.866 L 164.7 187.003 L 164.894 187.255 L 164.959 187.651 L 164.887 188.069 L 164.692 188.321 L 164.361 188.451 L 163.907 188.487 L 163.136 188.487 L 163.136 186.823 L 163.95 186.823 L 163.95 186.823 z M 168.857 190.677 L 168.857 187.471 L 167.228 187.471 L 167.228 188.011 L 168.223 188.011 L 168.223 190.677 L 166.926 190.677 L 166.926 191.21 L 170.168 191.21 L 170.168 190.677 L 168.857 190.677 L 168.857 190.677 z M 168.878 186.037 L 168.208 186.037 L 168.208 186.758 L 168.878 186.758 L 168.878 186.037 L 168.878 186.037 z M 174.267 191.037 L 174.267 187.341 L 173.662 187.341 L 173.662 187.968 L 173.165 187.399 L 172.862 187.255 L 172.524 187.204 L 171.911 187.349 L 171.436 187.752 L 171.126 188.4 L 171.018 189.272 L 171.126 190.151 L 171.436 190.8 L 171.911 191.21 L 172.524 191.347 L 172.87 191.297 L 173.158 191.167 L 173.662 190.619 L 173.662 191.167 L 173.604 191.599 L 173.446 191.909 L 173.143 192.089 L 172.689 192.154 L 172.293 192.111 L 172.012 192.003 L 171.846 191.815 L 171.796 191.563 L 171.184 191.563 L 171.184 191.592 L 171.277 192.053 L 171.566 192.399 L 172.027 192.622 L 172.653 192.702 L 173.403 192.594 L 173.9 192.291 L 174.181 191.765 L 174.267 191.037 L 174.267 191.037 z M 171.674 189.272 L 171.738 188.631 L 171.933 188.155 L 172.236 187.874 L 172.639 187.774 L 173.064 187.874 L 173.381 188.155 L 173.576 188.631 L 173.648 189.272 L 173.576 189.928 L 173.381 190.396 L 173.064 190.684 L 172.639 190.778 L 172.236 190.684 L 171.933 190.396 L 171.738 189.921 L 171.674 189.272 L 171.674 189.272 z M 175.593 191.21 L 176.227 191.21 L 176.227 188.977 L 176.292 188.465 L 176.501 188.091 L 176.825 187.86 L 177.257 187.774 L 177.603 187.846 L 177.819 188.04 L 177.927 188.364 L 177.963 188.797 L 177.963 191.21 L 178.597 191.21 L 178.597 188.667 L 178.568 188.155 L 178.439 187.73 L 178.014 187.341 L 177.351 187.204 L 176.991 187.255 L 176.681 187.392 L 176.421 187.608 L 176.227 187.903 L 176.227 186.037 L 175.593 186.037 L 175.593 191.21 L 175.593 191.21 z M 180.78 188.011 L 180.78 189.949 L 180.823 190.576 L 181.025 191.008 L 181.429 191.261 L 182.113 191.347 L 182.862 191.311 L 182.862 190.763 L 182.315 190.807 L 181.818 190.749 L 181.551 190.569 L 181.436 190.266 L 181.414 189.841 L 181.414 188.011 L 182.862 188.011 L 182.862 187.471 L 181.414 187.471 L 181.414 186.34 L 180.78 186.34 L 180.78 187.471 L 179.685 187.471 L 179.685 188.011 L 180.78 188.011 L 180.78 188.011 z M 183.59 192.406 L 183.59 192.911 L 187.927 192.911 L 187.927 192.406 L 183.59 192.406 L 183.59 192.406 z M 188.633 191.21 L 191.846 191.21 L 191.846 190.605 L 189.296 190.605 L 189.296 186.21 L 188.633 186.21 L 188.633 191.21 L 188.633 191.21 z M 192.754 189.279 L 192.87 190.158 L 193.201 190.807 L 193.727 191.21 L 194.433 191.347 L 195.132 191.21 L 195.658 190.814 L 195.989 190.166 L 196.112 189.279 L 195.989 188.4 L 195.658 187.745 L 195.132 187.349 L 194.433 187.204 L 193.727 187.349 L 193.201 187.752 L 192.87 188.4 L 192.754 189.279 L 192.754 189.279 z M 193.403 189.272 L 193.468 188.624 L 193.669 188.155 L 193.993 187.867 L 194.433 187.766 L 194.865 187.867 L 195.189 188.148 L 195.391 188.624 L 195.463 189.272 L 195.391 189.928 L 195.189 190.403 L 194.865 190.691 L 194.433 190.785 L 193.993 190.691 L 193.669 190.403 L 193.468 189.928 L 193.403 189.272 L 193.403 189.272 z M 198.194 191.21 L 198.77 187.925 L 199.346 191.21 L 199.952 191.21 L 200.903 187.341 L 200.29 187.341 L 199.649 190.627 L 199.08 187.341 L 198.453 187.341 L 197.884 190.627 L 197.243 187.341 L 196.638 187.341 L 197.589 191.21 L 198.194 191.21 L 198.194 191.21 z M 202.171 189.459 L 204.707 189.459 L 204.714 189.164 L 204.599 188.336 L 204.282 187.716 L 203.777 187.341 L 203.107 187.204 L 202.452 187.349 L 201.947 187.752 L 201.623 188.408 L 201.508 189.272 L 201.616 190.158 L 201.94 190.807 L 202.437 191.21 L 203.086 191.347 L 203.648 191.253 L 204.109 191.008 L 204.447 190.619 L 204.642 190.101 L 204.015 190.101 L 203.885 190.389 L 203.698 190.605 L 203.165 190.778 L 202.754 190.699 L 202.444 190.447 L 202.243 190.036 L 202.171 189.481 L 202.171 189.459 L 202.171 189.459 z M 202.171 188.926 L 202.25 188.429 L 202.444 188.062 L 202.74 187.838 L 203.129 187.759 L 203.511 187.838 L 203.806 188.062 L 203.986 188.429 L 204.051 188.926 L 202.171 188.926 L 202.171 188.926 z M 206.191 191.21 L 206.825 191.21 L 206.825 188.998 L 206.89 188.465 L 207.084 188.083 L 207.401 187.853 L 207.826 187.774 L 208.143 187.824 L 208.381 187.968 L 208.525 188.213 L 208.576 188.544 L 209.217 188.544 L 209.13 187.961 L 208.893 187.543 L 208.496 187.291 L 207.956 187.204 L 207.589 187.262 L 207.272 187.406 L 206.991 187.651 L 206.767 187.983 L 206.767 187.341 L 206.191 187.341 L 206.191 191.21 L 206.191 191.21 z M 213.929 191.21 L 214.591 191.21 L 215.117 189.74 L 217.113 189.74 L 217.639 191.21 L 218.316 191.21 L 216.486 186.203 L 215.751 186.203 L 213.929 191.21 L 213.929 191.21 z M 215.348 189.128 L 216.119 186.923 L 216.89 189.128 L 215.348 189.128 L 215.348 189.128 z M 219.584 189.56 L 221.328 189.56 L 221.328 188.991 L 219.584 188.991 L 219.584 189.56 L 219.584 189.56 z M 222.603 191.21 L 223.266 191.21 L 223.792 189.74 L 225.787 189.74 L 226.313 191.21 L 226.991 191.21 L 225.161 186.203 L 224.426 186.203 L 222.603 191.21 L 222.603 191.21 z M 224.022 189.128 L 224.793 186.923 L 225.564 189.128 L 224.022 189.128 L 224.022 189.128 z M 227.877 191.21 L 228.511 191.21 L 228.511 188.998 L 228.576 188.465 L 228.77 188.083 L 229.087 187.853 L 229.512 187.774 L 229.829 187.824 L 230.067 187.968 L 230.211 188.213 L 230.261 188.544 L 230.903 188.544 L 230.816 187.961 L 230.578 187.543 L 230.182 187.291 L 229.642 187.204 L 229.274 187.262 L 228.957 187.406 L 228.676 187.651 L 228.453 187.983 L 228.453 187.341 L 227.877 187.341 L 227.877 191.21 L 227.877 191.21 z M 231.724 191.21 L 232.308 191.21 L 232.308 188.624 L 232.344 188.235 L 232.452 187.954 L 232.617 187.788 L 232.833 187.723 L 233.006 187.781 L 233.122 187.925 L 233.179 188.17 L 233.201 188.494 L 233.201 191.21 L 233.748 191.21 L 233.748 188.624 L 233.785 188.242 L 233.893 187.961 L 234.065 187.788 L 234.282 187.723 L 234.455 187.781 L 234.57 187.925 L 234.642 188.494 L 234.642 191.21 L 235.225 191.21 L 235.225 188.537 L 235.189 187.983 L 235.074 187.557 L 234.844 187.298 L 234.469 187.204 L 234.029 187.349 L 233.691 187.766 L 233.424 187.356 L 232.978 187.204 L 232.567 187.349 L 232.286 187.752 L 232.286 187.341 L 231.724 187.341 L 231.724 191.21 L 231.724 191.21 z" stroke="none" fill-rule="evenodd" fill="rgb(0, 0, 0)"/></g><g stroke="rgb(0, 0, 0)" stroke-width="0.13" stroke-linecap="butt" stroke-linejoin="miter" fill="none"><path d="M 140.867 199.849 L 141.53 199.849 L 141.53 197.738 L 142.264 197.738 L 143.006 197.702 L 143.597 197.449 L 143.979 196.959 L 144.109 196.289 L 144.008 195.67 L 143.72 195.216 L 143.244 194.942 L 142.596 194.849 L 140.867 194.849 L 140.867 199.849 L 140.867 199.849 z M 142.416 195.461 L 142.848 195.504 L 143.165 195.641 L 143.352 195.893 L 143.417 196.289 L 143.345 196.707 L 143.151 196.959 L 142.819 197.089 L 142.365 197.125 L 141.53 197.125 L 141.53 195.461 L 142.416 195.461 L 142.416 195.461 z M 146.493 195.209 L 146.493 199.315 L 145.189 199.315 L 145.189 199.849 L 148.424 199.849 L 148.424 199.315 L 147.128 199.315 L 147.128 194.676 L 145.499 194.676 L 145.499 195.209 L 146.493 195.209 L 146.493 195.209 z M 151.868 199.344 L 151.868 199.366 L 151.904 199.611 L 152.012 199.784 L 152.466 199.921 L 152.819 199.863 L 152.819 199.373 L 152.668 199.395 L 152.466 199.301 L 152.43 199.013 L 152.43 197.01 L 152.344 196.498 L 152.091 196.138 L 151.652 195.922 L 151.032 195.843 L 150.427 195.929 L 149.981 196.174 L 149.7 196.556 L 149.606 197.06 L 149.606 197.104 L 150.175 197.104 L 150.225 196.801 L 150.384 196.585 L 150.643 196.455 L 151.011 196.405 L 151.364 196.441 L 151.616 196.549 L 151.767 196.736 L 151.818 196.995 L 151.789 197.298 L 151.674 197.449 L 151.385 197.521 L 150.845 197.579 L 150.225 197.709 L 149.786 197.939 L 149.527 198.299 L 149.447 198.833 L 149.519 199.308 L 149.743 199.661 L 150.103 199.885 L 150.6 199.964 L 151.27 199.813 L 151.868 199.344 L 151.868 199.344 z M 151.796 198.494 L 151.71 198.869 L 151.479 199.157 L 151.133 199.344 L 150.708 199.409 L 150.434 199.373 L 150.24 199.258 L 150.117 199.056 L 150.081 198.775 L 150.11 198.523 L 150.225 198.343 L 150.687 198.141 L 151.27 198.055 L 151.796 197.882 L 151.796 198.494 L 151.796 198.494 z M 156.285 196.578 L 156.061 196.253 L 155.809 196.023 L 155.514 195.893 L 155.175 195.843 L 154.563 195.987 L 154.087 196.39 L 153.777 197.039 L 153.669 197.91 L 153.777 198.789 L 154.087 199.438 L 154.563 199.849 L 155.175 199.985 L 155.514 199.942 L 155.802 199.82 L 156.054 199.596 L 156.285 199.258 L 156.285 201.347 L 156.919 201.347 L 156.919 195.98 L 156.285 195.98 L 156.285 196.578 L 156.285 196.578 z M 154.318 197.91 L 154.383 197.269 L 154.584 196.801 L 154.887 196.513 L 155.283 196.412 L 155.701 196.513 L 156.018 196.794 L 156.205 197.262 L 156.277 197.91 L 156.205 198.566 L 156.018 199.034 L 155.701 199.323 L 155.283 199.416 L 154.887 199.323 L 154.584 199.034 L 154.383 198.559 L 154.318 197.91 L 154.318 197.91 z M 161.227 195.98 L 160.593 195.98 L 160.593 198.213 L 160.521 198.732 L 160.312 199.106 L 159.988 199.337 L 159.563 199.409 L 159.224 199.351 L 159.008 199.178 L 158.885 198.883 L 158.857 198.465 L 158.857 195.98 L 158.223 195.98 L 158.223 198.523 L 158.244 199.034 L 158.381 199.459 L 158.799 199.849 L 159.469 199.985 L 159.829 199.935 L 160.139 199.805 L 160.406 199.582 L 160.622 199.258 L 160.622 199.849 L 161.227 199.849 L 161.227 195.98 L 161.227 195.98 z M 163.136 198.098 L 165.672 198.098 L 165.679 197.802 L 165.564 196.974 L 165.247 196.354 L 164.743 195.98 L 164.073 195.843 L 163.417 195.987 L 162.913 196.39 L 162.589 197.046 L 162.473 197.91 L 162.581 198.797 L 162.906 199.445 L 163.403 199.849 L 164.051 199.985 L 164.613 199.892 L 165.074 199.647 L 165.413 199.258 L 165.607 198.739 L 164.981 198.739 L 164.851 199.027 L 164.664 199.243 L 164.13 199.416 L 163.72 199.337 L 163.41 199.085 L 163.208 198.674 L 163.136 198.119 L 163.136 198.098 L 163.136 198.098 z M 163.136 197.565 L 163.215 197.068 L 163.41 196.7 L 163.705 196.477 L 164.094 196.398 L 164.476 196.477 L 164.772 196.7 L 164.952 197.068 L 165.017 197.565 L 163.136 197.565 L 163.136 197.565 z M 173.648 197.147 L 174.152 196.729 L 174.282 196.448 L 174.325 196.102 L 174.231 195.562 L 173.95 195.173 L 173.496 194.935 L 172.862 194.849 L 171.083 194.849 L 171.083 199.849 L 172.963 199.849 L 173.633 199.748 L 174.13 199.452 L 174.44 198.984 L 174.548 198.35 L 174.483 197.925 L 174.31 197.572 L 174.029 197.313 L 173.648 197.147 L 173.648 197.147 z M 172.725 196.923 L 171.746 196.923 L 171.746 195.446 L 172.783 195.446 L 173.172 195.49 L 173.446 195.619 L 173.612 195.843 L 173.669 196.174 L 173.604 196.506 L 173.432 196.736 L 173.136 196.88 L 172.725 196.923 L 172.725 196.923 z M 172.884 199.251 L 171.746 199.251 L 171.746 197.529 L 172.819 197.529 L 173.273 197.579 L 173.597 197.73 L 173.792 197.99 L 173.857 198.364 L 173.792 198.761 L 173.612 199.034 L 173.309 199.2 L 172.884 199.251 L 172.884 199.251 z M 177.531 199.315 L 177.531 196.109 L 175.903 196.109 L 175.903 196.65 L 176.897 196.65 L 176.897 199.315 L 175.6 199.315 L 175.6 199.849 L 178.842 199.849 L 178.842 199.315 L 177.531 199.315 L 177.531 199.315 z M 177.553 194.676 L 176.883 194.676 L 176.883 195.396 L 177.553 195.396 L 177.553 194.676 L 177.553 194.676 z M 180.485 198.098 L 183.021 198.098 L 183.028 197.802 L 182.913 196.974 L 182.596 196.354 L 182.091 195.98 L 181.421 195.843 L 180.766 195.987 L 180.261 196.39 L 179.937 197.046 L 179.822 197.91 L 179.93 198.797 L 180.254 199.445 L 180.751 199.849 L 181.4 199.985 L 181.962 199.892 L 182.423 199.647 L 182.761 199.258 L 182.956 198.739 L 182.329 198.739 L 182.2 199.027 L 182.012 199.243 L 181.479 199.416 L 181.068 199.337 L 180.759 199.085 L 180.557 198.674 L 180.485 198.119 L 180.485 198.098 L 180.485 198.098 z M 180.485 197.565 L 180.564 197.068 L 180.759 196.7 L 181.054 196.477 L 181.443 196.398 L 181.825 196.477 L 182.12 196.7 L 182.3 197.068 L 182.365 197.565 L 180.485 197.565 L 180.485 197.565 z M 185.528 195.209 L 185.528 199.315 L 184.224 199.315 L 184.224 199.849 L 187.459 199.849 L 187.459 199.315 L 186.162 199.315 L 186.162 194.676 L 184.534 194.676 L 184.534 195.209 L 185.528 195.209 L 185.528 195.209 z M 189.865 195.209 L 189.865 199.315 L 188.561 199.315 L 188.561 199.849 L 191.796 199.849 L 191.796 199.315 L 190.499 199.315 L 190.499 194.676 L 188.871 194.676 L 188.871 195.209 L 189.865 195.209 L 189.865 195.209 z M 193.496 198.098 L 196.032 198.098 L 196.04 197.802 L 195.924 196.974 L 195.607 196.354 L 195.103 195.98 L 194.433 195.843 L 193.777 195.987 L 193.273 196.39 L 192.949 197.046 L 192.834 197.91 L 192.942 198.797 L 193.266 199.445 L 193.763 199.849 L 194.411 199.985 L 194.973 199.892 L 195.434 199.647 L 195.773 199.258 L 195.968 198.739 L 195.341 198.739 L 195.211 199.027 L 195.024 199.243 L 194.491 199.416 L 194.08 199.337 L 193.77 199.085 L 193.568 198.674 L 193.496 198.119 L 193.496 198.098 L 193.496 198.098 z M 193.496 197.565 L 193.576 197.068 L 193.77 196.7 L 194.066 196.477 L 194.455 196.398 L 194.836 196.477 L 195.132 196.7 L 195.312 197.068 L 195.377 197.565 L 193.496 197.565 L 193.496 197.565 z M 198.129 196.65 L 198.129 198.588 L 198.172 199.214 L 198.374 199.647 L 198.777 199.899 L 199.462 199.985 L 200.211 199.949 L 200.211 199.402 L 199.663 199.445 L 199.166 199.387 L 198.9 199.207 L 198.785 198.905 L 198.763 198.48 L 198.763 196.65 L 200.211 196.65 L 200.211 196.109 L 198.763 196.109 L 198.763 194.978 L 198.129 194.978 L 198.129 196.109 L 197.034 196.109 L 197.034 196.65 L 198.129 196.65 L 198.129 196.65 z M 202.466 196.65 L 202.466 198.588 L 202.509 199.214 L 202.711 199.647 L 203.115 199.899 L 203.799 199.985 L 204.548 199.949 L 204.548 199.402 L 204.001 199.445 L 203.504 199.387 L 203.237 199.207 L 203.122 198.905 L 203.1 198.48 L 203.1 196.65 L 204.548 196.65 L 204.548 196.109 L 203.1 196.109 L 203.1 194.978 L 202.466 194.978 L 202.466 196.109 L 201.371 196.109 L 201.371 196.65 L 202.466 196.65 L 202.466 196.65 z M 206.508 198.098 L 209.044 198.098 L 209.051 197.802 L 208.936 196.974 L 208.619 196.354 L 208.115 195.98 L 207.444 195.843 L 206.789 195.987 L 206.285 196.39 L 205.96 197.046 L 205.845 197.91 L 205.953 198.797 L 206.277 199.445 L 206.774 199.849 L 207.423 199.985 L 207.985 199.892 L 208.446 199.647 L 208.785 199.258 L 208.979 198.739 L 208.352 198.739 L 208.223 199.027 L 208.035 199.243 L 207.502 199.416 L 207.091 199.337 L 206.782 199.085 L 206.58 198.674 L 206.508 198.119 L 206.508 198.098 L 206.508 198.098 z M 206.508 197.565 L 206.587 197.068 L 206.782 196.7 L 207.077 196.477 L 207.466 196.398 L 207.848 196.477 L 208.143 196.7 L 208.323 197.068 L 208.388 197.565 L 206.508 197.565 L 206.508 197.565 z M 217.005 199.251 L 217.005 199.849 L 217.639 199.849 L 217.639 194.676 L 217.012 194.676 L 217.012 196.57 L 216.529 196.023 L 216.234 195.893 L 215.895 195.843 L 215.283 195.987 L 214.808 196.39 L 214.498 197.039 L 214.39 197.91 L 214.498 198.782 L 214.808 199.438 L 215.283 199.849 L 215.895 199.985 L 216.234 199.935 L 216.537 199.805 L 217.005 199.251 L 217.005 199.251 z M 216.004 196.412 L 216.421 196.513 L 216.738 196.794 L 216.926 197.262 L 216.998 197.91 L 216.926 198.566 L 216.738 199.034 L 216.421 199.323 L 216.004 199.416 L 215.607 199.323 L 215.305 199.034 L 215.103 198.559 L 215.038 197.91 L 215.103 197.269 L 215.305 196.801 L 215.607 196.513 L 216.004 196.412 L 216.004 196.412 z M 219.519 198.098 L 222.055 198.098 L 222.063 197.802 L 221.947 196.974 L 221.63 196.354 L 221.126 195.98 L 220.456 195.843 L 219.8 195.987 L 219.296 196.39 L 218.972 197.046 L 218.857 197.91 L 218.965 198.797 L 219.289 199.445 L 219.786 199.849 L 220.434 199.985 L 220.996 199.892 L 221.457 199.647 L 221.796 199.258 L 221.991 198.739 L 221.364 198.739 L 221.234 199.027 L 221.047 199.243 L 220.514 199.416 L 220.103 199.337 L 219.793 199.085 L 219.591 198.674 L 219.519 198.119 L 219.519 198.098 L 219.519 198.098 z M 219.519 197.565 L 219.599 197.068 L 219.793 196.7 L 220.089 196.477 L 220.478 196.398 L 220.859 196.477 L 221.155 196.7 L 221.335 197.068 L 221.4 197.565 L 219.519 197.565 L 219.519 197.565 z M 227.61 199.849 L 228.273 199.849 L 228.273 197.738 L 229.008 197.738 L 229.75 197.702 L 230.341 197.449 L 230.723 196.959 L 230.852 196.289 L 230.751 195.67 L 230.463 195.216 L 229.988 194.942 L 229.339 194.849 L 227.61 194.849 L 227.61 199.849 L 227.61 199.849 z M 229.159 195.461 L 229.591 195.504 L 229.908 195.641 L 230.096 195.893 L 230.161 196.289 L 230.089 196.707 L 229.894 196.959 L 229.563 197.089 L 229.109 197.125 L 228.273 197.125 L 228.273 195.461 L 229.159 195.461 L 229.159 195.461 z M 233.914 199.315 L 233.914 196.109 L 232.286 196.109 L 232.286 196.65 L 233.28 196.65 L 233.28 199.315 L 231.983 199.315 L 231.983 199.849 L 235.225 199.849 L 235.225 199.315 L 233.914 199.315 L 233.914 199.315 z M 233.936 194.676 L 233.266 194.676 L 233.266 195.396 L 233.936 195.396 L 233.936 194.676 L 233.936 194.676 z M 236.313 199.849 L 236.947 199.849 L 236.947 197.615 L 237.012 197.104 L 237.221 196.729 L 237.545 196.498 L 237.978 196.412 L 238.323 196.484 L 238.54 196.678 L 238.648 197.003 L 238.684 197.435 L 238.684 199.849 L 239.318 199.849 L 239.318 197.305 L 239.289 196.794 L 239.159 196.369 L 238.734 195.98 L 238.071 195.843 L 237.704 195.893 L 237.394 196.03 L 237.127 196.261 L 236.919 196.57 L 236.919 195.98 L 236.313 195.98 L 236.313 199.849 L 236.313 199.849 z M 243.114 197.262 L 243.741 197.262 L 243.612 196.686 L 243.302 196.232 L 242.819 195.951 L 242.192 195.843 L 241.501 195.987 L 240.975 196.39 L 240.643 197.046 L 240.528 197.925 L 240.636 198.797 L 240.96 199.445 L 241.472 199.849 L 242.171 199.985 L 242.79 199.877 L 243.273 199.575 L 243.604 199.099 L 243.748 198.465 L 243.143 198.465 L 243.035 198.869 L 242.833 199.171 L 242.545 199.359 L 242.192 199.416 L 241.753 199.323 L 241.436 199.034 L 241.241 198.566 L 241.176 197.903 L 241.241 197.255 L 241.443 196.787 L 241.767 196.498 L 242.192 196.398 L 242.567 196.462 L 242.848 196.628 L 243.035 196.902 L 243.114 197.262 L 243.114 197.262 z M 245.542 198.098 L 248.078 198.098 L 248.086 197.802 L 247.97 196.974 L 247.653 196.354 L 247.149 195.98 L 246.479 195.843 L 245.823 195.987 L 245.319 196.39 L 244.995 197.046 L 244.88 197.91 L 244.988 198.797 L 245.312 199.445 L 245.809 199.849 L 246.457 199.985 L 247.019 199.892 L 247.48 199.647 L 247.819 199.258 L 248.014 198.739 L 247.387 198.739 L 247.257 199.027 L 247.07 199.243 L 246.537 199.416 L 246.126 199.337 L 245.816 199.085 L 245.614 198.674 L 245.542 198.119 L 245.542 198.098 L 245.542 198.098 z M 245.542 197.565 L 245.622 197.068 L 245.816 196.7 L 246.112 196.477 L 246.501 196.398 L 246.882 196.477 L 247.178 196.7 L 247.358 197.068 L 247.423 197.565 L 245.542 197.565 L 245.542 197.565 z" stroke="none" fill-rule="evenodd" fill="rgb(0, 0, 0)"/></g><g stroke="rgb(0, 0, 0)" stroke-width="0.13" stroke-linecap="butt" stroke-linejoin="miter" fill="none"><path d="M 356.502 77.0466 L 356.904 77.0466 L 356.904 75.7801 L 357.314 75.7801 L 357.617 75.793 L 357.807 75.8536 L 357.911 75.9962 L 357.954 76.2512 L 357.976 76.6403 L 358.002 76.8953 L 358.054 77.0466 L 358.508 77.0466 L 358.508 76.9645 L 358.408 76.8434 L 358.374 76.6187 L 358.343 76.1345 L 358.27 75.7758 L 358.17 75.6633 L 358.015 75.5812 L 358.188 75.4731 L 358.309 75.3218 L 358.386 75.1317 L 358.412 74.9025 L 358.352 74.5394 L 358.179 74.2671 L 357.894 74.1028 L 357.505 74.0466 L 356.502 74.0466 L 356.502 77.0466 L 356.502 77.0466 z M 357.392 74.4141 L 357.656 74.44 L 357.842 74.5222 L 357.959 74.6735 L 357.997 74.9112 L 357.954 75.1619 L 357.837 75.3132 L 357.639 75.391 L 357.366 75.4127 L 356.904 75.4127 L 356.904 74.4141 L 357.392 74.4141 L 357.392 74.4141 z M 359.506 75.9962 L 361.028 75.9962 L 361.032 75.819 L 360.963 75.3218 L 360.773 74.9501 L 360.47 74.7253 L 360.068 74.6432 L 359.675 74.7296 L 359.372 74.9717 L 359.178 75.3651 L 359.108 75.8838 L 359.173 76.4155 L 359.368 76.8046 L 359.666 77.0466 L 360.055 77.1288 L 360.392 77.0726 L 360.669 76.9256 L 360.872 76.6921 L 360.989 76.3809 L 360.613 76.3809 L 360.535 76.5538 L 360.422 76.6835 L 360.103 76.7873 L 359.856 76.7397 L 359.67 76.5884 L 359.549 76.342 L 359.506 76.0092 L 359.506 75.9962 L 359.506 75.9962 z M 359.506 75.6763 L 359.554 75.3781 L 359.67 75.1576 L 359.848 75.0236 L 360.081 74.976 L 360.31 75.0236 L 360.487 75.1576 L 360.595 75.3781 L 360.634 75.6763 L 359.506 75.6763 L 359.506 75.6763 z M 363.154 76.744 L 363.154 76.757 L 363.176 76.904 L 363.241 77.0078 L 363.513 77.0898 L 363.725 77.0553 L 363.725 76.7614 L 363.634 76.7743 L 363.513 76.7181 L 363.492 76.5452 L 363.492 75.3434 L 363.44 75.0366 L 363.288 74.8204 L 363.025 74.6907 L 362.653 74.6432 L 362.29 74.6951 L 362.022 74.842 L 361.853 75.0711 L 361.797 75.3737 L 361.797 75.3997 L 362.139 75.3997 L 362.169 75.2181 L 362.264 75.0884 L 362.42 75.0106 L 362.64 74.9803 L 362.852 75.002 L 363.003 75.0668 L 363.094 75.1792 L 363.124 75.3348 L 363.107 75.5164 L 363.038 75.6072 L 362.865 75.6504 L 362.541 75.6849 L 362.169 75.7628 L 361.905 75.9011 L 361.75 76.1172 L 361.702 76.4371 L 361.745 76.7224 L 361.879 76.9343 L 362.095 77.0682 L 362.394 77.1158 L 362.796 77.025 L 363.154 76.744 L 363.154 76.744 z M 363.111 76.2339 L 363.059 76.4587 L 362.921 76.6317 L 362.714 76.744 L 362.458 76.783 L 362.294 76.7614 L 362.178 76.6921 L 362.104 76.5711 L 362.082 76.4025 L 362.1 76.2512 L 362.169 76.1432 L 362.446 76.0222 L 362.796 75.9703 L 363.111 75.8665 L 363.111 76.2339 L 363.111 76.2339 z M 364.52 77.0466 L 364.901 77.0466 L 364.901 75.7195 L 364.94 75.3997 L 365.056 75.1705 L 365.247 75.0322 L 365.502 74.9847 L 365.692 75.015 L 365.835 75.1014 L 365.921 75.2484 L 365.951 75.4472 L 366.336 75.4472 L 366.284 75.097 L 366.141 74.8464 L 365.904 74.6951 L 365.58 74.6432 L 365.359 74.6777 L 365.169 74.7642 L 365 74.9112 L 364.866 75.11 L 364.866 74.7253 L 364.52 74.7253 L 364.52 77.0466 L 364.52 77.0466 z M 366.574 77.7642 L 366.574 78.0668 L 369.176 78.0668 L 369.176 77.7642 L 366.574 77.7642 L 366.574 77.7642 z M 369.513 77.0466 L 369.915 77.0466 L 369.915 75.7801 L 370.326 75.7801 L 370.629 75.793 L 370.819 75.8536 L 370.922 75.9962 L 370.966 76.2512 L 370.987 76.6403 L 371.013 76.8953 L 371.065 77.0466 L 371.519 77.0466 L 371.519 76.9645 L 371.42 76.8434 L 371.385 76.6187 L 371.355 76.1345 L 371.281 75.7758 L 371.182 75.6633 L 371.026 75.5812 L 371.199 75.4731 L 371.32 75.3218 L 371.398 75.1317 L 371.424 74.9025 L 371.363 74.5394 L 371.19 74.2671 L 370.905 74.1028 L 370.516 74.0466 L 369.513 74.0466 L 369.513 77.0466 L 369.513 77.0466 z M 370.404 74.4141 L 370.667 74.44 L 370.853 74.5222 L 370.97 74.6735 L 371.009 74.9112 L 370.966 75.1619 L 370.849 75.3132 L 370.65 75.391 L 370.378 75.4127 L 369.915 75.4127 L 369.915 74.4141 L 370.404 74.4141 L 370.404 74.4141 z M 373.348 76.7267 L 373.348 74.8031 L 372.371 74.8031 L 372.371 75.1273 L 372.967 75.1273 L 372.967 76.7267 L 372.189 76.7267 L 372.189 77.0466 L 374.134 77.0466 L 374.134 76.7267 L 373.348 76.7267 L 373.348 76.7267 z M 373.36 73.9429 L 372.958 73.9429 L 372.958 74.3752 L 373.36 74.3752 L 373.36 73.9429 L 373.36 73.9429 z M 376.594 76.9429 L 376.594 74.7253 L 376.231 74.7253 L 376.231 75.1014 L 375.933 74.7599 L 375.751 74.6735 L 375.548 74.6432 L 375.18 74.7296 L 374.895 74.9717 L 374.709 75.3608 L 374.644 75.8838 L 374.709 76.4112 L 374.895 76.8002 L 375.18 77.0466 L 375.548 77.1288 L 375.755 77.0985 L 375.928 77.0207 L 376.231 76.6921 L 376.231 77.0207 L 376.196 77.28 L 376.101 77.4659 L 375.92 77.574 L 375.647 77.6129 L 375.409 77.587 L 375.241 77.5222 L 375.141 77.4097 L 375.111 77.2584 L 374.744 77.2584 L 374.744 77.2758 L 374.8 77.5524 L 374.973 77.7599 L 375.25 77.8939 L 375.626 77.9415 L 376.075 77.8766 L 376.373 77.6951 L 376.542 77.3795 L 376.594 76.9429 L 376.594 76.9429 z M 375.038 75.8838 L 375.077 75.4991 L 375.193 75.2138 L 375.375 75.0452 L 375.617 74.9847 L 375.872 75.0452 L 376.062 75.2138 L 376.179 75.4991 L 376.222 75.8838 L 376.179 76.2772 L 376.062 76.5582 L 375.872 76.7311 L 375.617 76.7873 L 375.375 76.7311 L 375.193 76.5582 L 375.077 76.2729 L 375.038 75.8838 L 375.038 75.8838 z M 377.389 77.0466 L 377.77 77.0466 L 377.77 75.7066 L 377.809 75.3997 L 377.934 75.1749 L 378.128 75.0366 L 378.388 74.9847 L 378.595 75.0279 L 378.725 75.1446 L 378.79 75.3392 L 378.811 75.5985 L 378.811 77.0466 L 379.192 77.0466 L 379.192 75.5207 L 379.175 75.2138 L 379.097 74.9587 L 378.842 74.7253 L 378.444 74.6432 L 378.228 74.6735 L 378.042 74.7556 L 377.886 74.8853 L 377.77 75.0625 L 377.77 73.9429 L 377.389 73.9429 L 377.389 77.0466 L 377.389 77.0466 z M 380.502 75.1273 L 380.502 76.2902 L 380.528 76.6662 L 380.649 76.9256 L 380.891 77.0769 L 381.301 77.1288 L 381.751 77.1072 L 381.751 76.7786 L 381.422 76.8046 L 381.124 76.77 L 380.964 76.6619 L 380.895 76.4803 L 380.882 76.2253 L 380.882 75.1273 L 381.751 75.1273 L 381.751 74.8031 L 380.882 74.8031 L 380.882 74.1245 L 380.502 74.1245 L 380.502 74.8031 L 379.845 74.8031 L 379.845 75.1273 L 380.502 75.1273 L 380.502 75.1273 z M 382.188 77.7642 L 382.188 78.0668 L 384.79 78.0668 L 384.79 77.7642 L 382.188 77.7642 L 382.188 77.7642 z M 385.213 77.0466 L 387.141 77.0466 L 387.141 76.6835 L 385.611 76.6835 L 385.611 74.0466 L 385.213 74.0466 L 385.213 77.0466 L 385.213 77.0466 z M 387.686 75.8881 L 387.755 76.4155 L 387.954 76.8046 L 388.27 77.0466 L 388.693 77.1288 L 389.113 77.0466 L 389.428 76.8089 L 389.627 76.4199 L 389.7 75.8881 L 389.627 75.3608 L 389.428 74.9674 L 389.113 74.7296 L 388.693 74.6432 L 388.27 74.7296 L 387.954 74.9717 L 387.755 75.3608 L 387.686 75.8881 L 387.686 75.8881 z M 388.075 75.8838 L 388.114 75.4948 L 388.235 75.2138 L 388.43 75.0409 L 388.693 74.9803 L 388.953 75.0409 L 389.147 75.2095 L 389.268 75.4948 L 389.311 75.8838 L 389.268 76.2772 L 389.147 76.5625 L 388.953 76.7354 L 388.693 76.7916 L 388.43 76.7354 L 388.235 76.5625 L 388.114 76.2772 L 388.075 75.8838 L 388.075 75.8838 z M 390.95 77.0466 L 391.296 75.0754 L 391.641 77.0466 L 392.004 77.0466 L 392.575 74.7253 L 392.208 74.7253 L 391.823 76.6965 L 391.481 74.7253 L 391.105 74.7253 L 390.764 76.6965 L 390.379 74.7253 L 390.016 74.7253 L 390.587 77.0466 L 390.95 77.0466 L 390.95 77.0466 z M 393.336 75.9962 L 394.858 75.9962 L 394.862 75.819 L 394.793 75.3218 L 394.602 74.9501 L 394.3 74.7253 L 393.898 74.6432 L 393.504 74.7296 L 393.202 74.9717 L 393.007 75.3651 L 392.938 75.8838 L 393.003 76.4155 L 393.198 76.8046 L 393.496 77.0466 L 393.885 77.1288 L 394.222 77.0726 L 394.499 76.9256 L 394.702 76.6921 L 394.819 76.3809 L 394.443 76.3809 L 394.365 76.5538 L 394.252 76.6835 L 393.932 76.7873 L 393.686 76.7397 L 393.5 76.5884 L 393.379 76.342 L 393.336 76.0092 L 393.336 75.9962 L 393.336 75.9962 z M 393.336 75.6763 L 393.383 75.3781 L 393.5 75.1576 L 393.677 75.0236 L 393.911 74.976 L 394.14 75.0236 L 394.317 75.1576 L 394.425 75.3781 L 394.464 75.6763 L 393.336 75.6763 L 393.336 75.6763 z M 395.748 77.0466 L 396.128 77.0466 L 396.128 75.7195 L 396.167 75.3997 L 396.284 75.1705 L 396.474 75.0322 L 396.729 74.9847 L 396.919 75.015 L 397.062 75.1014 L 397.149 75.2484 L 397.179 75.4472 L 397.564 75.4472 L 397.512 75.097 L 397.369 74.8464 L 397.131 74.6951 L 396.807 74.6432 L 396.587 74.6777 L 396.396 74.7642 L 396.228 74.9112 L 396.094 75.11 L 396.094 74.7253 L 395.748 74.7253 L 395.748 77.0466 L 395.748 77.0466 z M 400.391 77.0466 L 400.788 77.0466 L 401.104 76.1648 L 402.301 76.1648 L 402.617 77.0466 L 403.023 77.0466 L 401.925 74.0423 L 401.484 74.0423 L 400.391 77.0466 L 400.391 77.0466 z M 401.242 75.7974 L 401.705 74.4746 L 402.167 75.7974 L 401.242 75.7974 L 401.242 75.7974 z M 403.784 76.0567 L 404.83 76.0567 L 404.83 75.7152 L 403.784 75.7152 L 403.784 76.0567 L 403.784 76.0567 z M 405.595 77.0466 L 405.993 77.0466 L 406.308 76.1648 L 407.506 76.1648 L 407.821 77.0466 L 408.228 77.0466 L 407.13 74.0423 L 406.689 74.0423 L 405.595 77.0466 L 405.595 77.0466 z M 406.447 75.7974 L 406.909 74.4746 L 407.372 75.7974 L 406.447 75.7974 L 406.447 75.7974 z M 408.759 77.0466 L 409.14 77.0466 L 409.14 75.7195 L 409.179 75.3997 L 409.296 75.1705 L 409.486 75.0322 L 409.741 74.9847 L 409.931 75.015 L 410.074 75.1014 L 410.16 75.2484 L 410.19 75.4472 L 410.575 75.4472 L 410.523 75.097 L 410.38 74.8464 L 410.143 74.6951 L 409.819 74.6432 L 409.598 74.6777 L 409.408 74.7642 L 409.239 74.9112 L 409.105 75.11 L 409.105 74.7253 L 408.759 74.7253 L 408.759 77.0466 L 408.759 77.0466 z M 411.068 77.0466 L 411.418 77.0466 L 411.418 75.4948 L 411.44 75.2614 L 411.504 75.0928 L 411.604 74.9933 L 411.734 74.9544 L 411.837 74.989 L 411.906 75.0754 L 411.941 75.2224 L 411.954 75.4169 L 411.954 77.0466 L 412.283 77.0466 L 412.283 75.4948 L 412.304 75.2657 L 412.369 75.097 L 412.473 74.9933 L 412.602 74.9544 L 412.706 74.989 L 412.775 75.0754 L 412.819 75.4169 L 412.819 77.0466 L 413.169 77.0466 L 413.169 75.4429 L 413.147 75.11 L 413.078 74.855 L 412.94 74.6994 L 412.715 74.6432 L 412.451 74.7296 L 412.248 74.9803 L 412.088 74.7339 L 411.82 74.6432 L 411.574 74.7296 L 411.405 74.9717 L 411.405 74.7253 L 411.068 74.7253 L 411.068 77.0466 L 411.068 77.0466 z" stroke="none" fill-rule="evenodd" fill="rgb(0, 0, 0)"/></g><g stroke="rgb(0, 0, 0)" stroke-width="0.13" stroke-linecap="butt" stroke-linejoin="miter" fill="none"><path d="M 376.075 82.2296 L 377.977 82.2296 L 377.977 81.8665 L 376.473 81.8665 L 376.473 80.8506 L 377.813 80.8506 L 377.813 80.4919 L 376.473 80.4919 L 376.473 79.5927 L 377.943 79.5927 L 377.943 79.2296 L 376.075 79.2296 L 376.075 82.2296 L 376.075 82.2296 z M 378.284 82.9472 L 378.284 83.2498 L 380.886 83.2498 L 380.886 82.9472 L 378.284 82.9472 L 378.284 82.9472 z M 380.874 82.2296 L 381.271 82.2296 L 381.587 81.3478 L 382.784 81.3478 L 383.1 82.2296 L 383.506 82.2296 L 382.408 79.2253 L 381.967 79.2253 L 380.874 82.2296 L 380.874 82.2296 z M 381.725 80.9803 L 382.188 79.6576 L 382.65 80.9803 L 381.725 80.9803 L 381.725 80.9803 z M 384.591 82.2296 L 384.993 82.2296 L 385.84 79.9083 L 385.447 79.9083 L 384.794 81.78 L 384.129 79.9083 L 383.731 79.9083 L 384.591 82.2296 L 384.591 82.2296 z M 387.876 81.927 L 387.876 81.94 L 387.898 82.087 L 387.963 82.1907 L 388.235 82.2728 L 388.447 82.2383 L 388.447 81.9443 L 388.356 81.9573 L 388.235 81.9011 L 388.214 81.7281 L 388.214 80.5264 L 388.162 80.2195 L 388.01 80.0034 L 387.747 79.8737 L 387.375 79.8262 L 387.012 79.8781 L 386.744 80.025 L 386.575 80.2541 L 386.519 80.5567 L 386.519 80.5826 L 386.861 80.5826 L 386.891 80.4011 L 386.986 80.2714 L 387.141 80.1936 L 387.362 80.1633 L 387.574 80.1849 L 387.725 80.2498 L 387.816 80.3622 L 387.846 80.5178 L 387.829 80.6993 L 387.76 80.7902 L 387.587 80.8334 L 387.263 80.8679 L 386.891 80.9457 L 386.627 81.0841 L 386.471 81.3002 L 386.424 81.6201 L 386.467 81.9054 L 386.601 82.1172 L 386.817 82.2512 L 387.116 82.2988 L 387.518 82.208 L 387.876 81.927 L 387.876 81.927 z M 387.833 81.4169 L 387.781 81.6417 L 387.643 81.8146 L 387.435 81.927 L 387.18 81.9659 L 387.016 81.9443 L 386.899 81.8751 L 386.826 81.7541 L 386.804 81.5855 L 386.822 81.4342 L 386.891 81.3262 L 387.167 81.2051 L 387.518 81.1533 L 387.833 81.0495 L 387.833 81.4169 L 387.833 81.4169 z M 389.1 82.2296 L 389.48 82.2296 L 389.48 80.8896 L 389.519 80.5826 L 389.644 80.3578 L 389.839 80.2195 L 390.098 80.1677 L 390.306 80.2109 L 390.435 80.3276 L 390.5 80.5222 L 390.522 80.7815 L 390.522 82.2296 L 390.902 82.2296 L 390.902 80.7037 L 390.885 80.3968 L 390.807 80.1417 L 390.552 79.9083 L 390.154 79.8262 L 389.934 79.8564 L 389.748 79.9385 L 389.588 80.0769 L 389.463 80.2628 L 389.463 79.9083 L 389.1 79.9083 L 389.1 82.2296 L 389.1 82.2296 z M 392.212 80.3103 L 392.212 81.4731 L 392.238 81.8492 L 392.359 82.1086 L 392.601 82.2599 L 393.012 82.3118 L 393.461 82.2902 L 393.461 81.9616 L 393.133 81.9875 L 392.835 81.9529 L 392.675 81.8449 L 392.605 81.6633 L 392.592 81.4083 L 392.592 80.3103 L 393.461 80.3103 L 393.461 79.9861 L 392.592 79.9861 L 392.592 79.3074 L 392.212 79.3074 L 392.212 79.9861 L 391.555 79.9861 L 391.555 80.3103 L 392.212 80.3103 L 392.212 80.3103 z" stroke="none" fill-rule="evenodd" fill="rgb(0, 0, 0)"/></g><g stroke="rgb(0, 0, 0)" stroke-width="0.13" stroke-linecap="butt" stroke-linejoin="miter" fill="none"><path d="M 493.528 77.256 L 493.93 77.256 L 493.93 75.9894 L 494.341 75.9894 L 494.643 76.0024 L 494.834 76.0629 L 494.937 76.2056 L 494.981 76.4606 L 495.002 76.8497 L 495.028 77.1047 L 495.08 77.256 L 495.534 77.256 L 495.534 77.1738 L 495.434 77.0528 L 495.4 76.828 L 495.37 76.3439 L 495.296 75.9851 L 495.197 75.8727 L 495.041 75.7906 L 495.214 75.6825 L 495.335 75.5312 L 495.413 75.341 L 495.439 75.1119 L 495.378 74.7488 L 495.205 74.4764 L 494.92 74.3122 L 494.531 74.256 L 493.528 74.256 L 493.528 77.256 L 493.528 77.256 z M 494.419 74.6234 L 494.682 74.6494 L 494.868 74.7315 L 494.985 74.8828 L 495.024 75.1205 L 494.981 75.3713 L 494.864 75.5226 L 494.665 75.6004 L 494.393 75.622 L 493.93 75.622 L 493.93 74.6234 L 494.419 74.6234 L 494.419 74.6234 z M 496.532 76.2056 L 498.054 76.2056 L 498.058 76.0283 L 497.989 75.5312 L 497.799 75.1595 L 497.496 74.9347 L 497.094 74.8525 L 496.701 74.939 L 496.398 75.1811 L 496.204 75.5745 L 496.135 76.0931 L 496.2 76.6249 L 496.394 77.0139 L 496.692 77.256 L 497.081 77.3381 L 497.419 77.2819 L 497.695 77.1349 L 497.898 76.9015 L 498.015 76.5903 L 497.639 76.5903 L 497.561 76.7632 L 497.449 76.8929 L 497.129 76.9966 L 496.883 76.9491 L 496.697 76.7978 L 496.576 76.5514 L 496.532 76.2185 L 496.532 76.2056 L 496.532 76.2056 z M 496.532 75.8857 L 496.58 75.5874 L 496.697 75.3669 L 496.874 75.233 L 497.107 75.1854 L 497.336 75.233 L 497.514 75.3669 L 497.622 75.5874 L 497.661 75.8857 L 496.532 75.8857 L 496.532 75.8857 z M 500.181 76.9534 L 500.181 76.9664 L 500.202 77.1133 L 500.267 77.2171 L 500.54 77.2992 L 500.751 77.2646 L 500.751 76.9707 L 500.661 76.9836 L 500.54 76.9274 L 500.518 76.7545 L 500.518 75.5528 L 500.466 75.2459 L 500.315 75.0298 L 500.051 74.9001 L 499.679 74.8525 L 499.316 74.9044 L 499.048 75.0514 L 498.88 75.2805 L 498.824 75.5831 L 498.824 75.609 L 499.165 75.609 L 499.195 75.4275 L 499.29 75.2978 L 499.446 75.22 L 499.666 75.1897 L 499.878 75.2113 L 500.03 75.2762 L 500.12 75.3885 L 500.151 75.5442 L 500.133 75.7257 L 500.064 75.8165 L 499.891 75.8597 L 499.567 75.8943 L 499.195 75.9721 L 498.932 76.1105 L 498.776 76.3266 L 498.728 76.6465 L 498.772 76.9318 L 498.906 77.1436 L 499.122 77.2776 L 499.42 77.3251 L 499.822 77.2344 L 500.181 76.9534 L 500.181 76.9534 z M 500.138 76.4433 L 500.086 76.6681 L 499.947 76.841 L 499.74 76.9534 L 499.485 76.9923 L 499.321 76.9707 L 499.204 76.9015 L 499.13 76.7805 L 499.109 76.6119 L 499.126 76.4606 L 499.195 76.3525 L 499.472 76.2315 L 499.822 76.1796 L 500.138 76.0759 L 500.138 76.4433 L 500.138 76.4433 z M 501.547 77.256 L 501.927 77.256 L 501.927 75.9289 L 501.966 75.609 L 502.083 75.3799 L 502.273 75.2416 L 502.528 75.194 L 502.718 75.2243 L 502.861 75.3107 L 502.947 75.4577 L 502.978 75.6566 L 503.362 75.6566 L 503.311 75.3065 L 503.168 75.0557 L 502.93 74.9044 L 502.606 74.8525 L 502.385 74.8871 L 502.195 74.9736 L 502.027 75.1205 L 501.893 75.3194 L 501.893 74.9347 L 501.547 74.9347 L 501.547 77.256 L 501.547 77.256 z M 503.6 77.9736 L 503.6 78.2761 L 506.202 78.2761 L 506.202 77.9736 L 503.6 77.9736 L 503.6 77.9736 z M 506.54 77.256 L 506.942 77.256 L 506.942 75.9894 L 507.352 75.9894 L 507.655 76.0024 L 507.845 76.0629 L 507.949 76.2056 L 507.992 76.4606 L 508.014 76.8497 L 508.04 77.1047 L 508.091 77.256 L 508.545 77.256 L 508.545 77.1738 L 508.446 77.0528 L 508.411 76.828 L 508.381 76.3439 L 508.308 75.9851 L 508.208 75.8727 L 508.053 75.7906 L 508.225 75.6825 L 508.347 75.5312 L 508.424 75.341 L 508.45 75.1119 L 508.39 74.7488 L 508.217 74.4764 L 507.932 74.3122 L 507.543 74.256 L 506.54 74.256 L 506.54 77.256 L 506.54 77.256 z M 507.43 74.6234 L 507.694 74.6494 L 507.88 74.7315 L 507.996 74.8828 L 508.035 75.1205 L 507.992 75.3713 L 507.875 75.5226 L 507.677 75.6004 L 507.404 75.622 L 506.942 75.622 L 506.942 74.6234 L 507.43 74.6234 L 507.43 74.6234 z M 510.374 76.9361 L 510.374 75.0125 L 509.397 75.0125 L 509.397 75.3367 L 509.993 75.3367 L 509.993 76.9361 L 509.215 76.9361 L 509.215 77.256 L 511.161 77.256 L 511.161 76.9361 L 510.374 76.9361 L 510.374 76.9361 z M 510.387 74.1523 L 509.985 74.1523 L 509.985 74.5845 L 510.387 74.5845 L 510.387 74.1523 L 510.387 74.1523 z M 513.62 77.1522 L 513.62 74.9347 L 513.257 74.9347 L 513.257 75.3107 L 512.959 74.9692 L 512.777 74.8828 L 512.574 74.8525 L 512.207 74.939 L 511.921 75.1811 L 511.736 75.5701 L 511.671 76.0931 L 511.736 76.6205 L 511.921 77.0096 L 512.207 77.256 L 512.574 77.3381 L 512.782 77.3079 L 512.955 77.23 L 513.257 76.9015 L 513.257 77.23 L 513.223 77.4894 L 513.128 77.6753 L 512.946 77.7833 L 512.674 77.8223 L 512.436 77.7963 L 512.267 77.7315 L 512.168 77.6191 L 512.138 77.4678 L 511.77 77.4678 L 511.77 77.4851 L 511.826 77.7617 L 511.999 77.9692 L 512.276 78.1032 L 512.652 78.1508 L 513.102 78.0859 L 513.4 77.9044 L 513.568 77.5888 L 513.62 77.1522 L 513.62 77.1522 z M 512.064 76.0931 L 512.103 75.7084 L 512.22 75.4232 L 512.401 75.2546 L 512.643 75.194 L 512.898 75.2546 L 513.089 75.4232 L 513.205 75.7084 L 513.249 76.0931 L 513.205 76.4865 L 513.089 76.7675 L 512.898 76.9404 L 512.643 76.9966 L 512.401 76.9404 L 512.22 76.7675 L 512.103 76.4822 L 512.064 76.0931 L 512.064 76.0931 z M 514.416 77.256 L 514.796 77.256 L 514.796 75.916 L 514.835 75.609 L 514.96 75.3842 L 515.155 75.2459 L 515.414 75.194 L 515.622 75.2372 L 515.751 75.354 L 515.816 75.5485 L 515.838 75.8079 L 515.838 77.256 L 516.218 77.256 L 516.218 75.73 L 516.201 75.4232 L 516.123 75.1681 L 515.868 74.9347 L 515.47 74.8525 L 515.254 74.8828 L 515.068 74.9649 L 514.913 75.0946 L 514.796 75.2719 L 514.796 74.1523 L 514.416 74.1523 L 514.416 77.256 L 514.416 77.256 z M 517.528 75.3367 L 517.528 76.4995 L 517.554 76.8756 L 517.675 77.1349 L 517.917 77.2863 L 518.328 77.3381 L 518.777 77.3165 L 518.777 76.988 L 518.449 77.0139 L 518.151 76.9793 L 517.991 76.8713 L 517.921 76.6897 L 517.908 76.4347 L 517.908 75.3367 L 518.777 75.3367 L 518.777 75.0125 L 517.908 75.0125 L 517.908 74.3338 L 517.528 74.3338 L 517.528 75.0125 L 516.871 75.0125 L 516.871 75.3367 L 517.528 75.3367 L 517.528 75.3367 z M 519.214 77.9736 L 519.214 78.2761 L 521.816 78.2761 L 521.816 77.9736 L 519.214 77.9736 L 519.214 77.9736 z M 522.24 77.256 L 524.168 77.256 L 524.168 76.8929 L 522.638 76.8929 L 522.638 74.256 L 522.24 74.256 L 522.24 77.256 L 522.24 77.256 z M 524.712 76.0975 L 524.782 76.6249 L 524.98 77.0139 L 525.296 77.256 L 525.72 77.3381 L 526.139 77.256 L 526.455 77.0182 L 526.653 76.6292 L 526.727 76.0975 L 526.653 75.5701 L 526.455 75.1768 L 526.139 74.939 L 525.72 74.8525 L 525.296 74.939 L 524.98 75.1811 L 524.782 75.5701 L 524.712 76.0975 L 524.712 76.0975 z M 525.102 76.0931 L 525.14 75.7041 L 525.261 75.4232 L 525.456 75.2502 L 525.72 75.1897 L 525.979 75.2502 L 526.174 75.4188 L 526.295 75.7041 L 526.338 76.0931 L 526.295 76.4865 L 526.174 76.7719 L 525.979 76.9448 L 525.72 77.0009 L 525.456 76.9448 L 525.261 76.7719 L 525.14 76.4865 L 525.102 76.0931 L 525.102 76.0931 z M 527.976 77.256 L 528.322 75.2848 L 528.668 77.256 L 529.031 77.256 L 529.602 74.9347 L 529.234 74.9347 L 528.849 76.9058 L 528.508 74.9347 L 528.132 74.9347 L 527.79 76.9058 L 527.406 74.9347 L 527.042 74.9347 L 527.613 77.256 L 527.976 77.256 L 527.976 77.256 z M 530.362 76.2056 L 531.884 76.2056 L 531.888 76.0283 L 531.819 75.5312 L 531.629 75.1595 L 531.326 74.9347 L 530.924 74.8525 L 530.531 74.939 L 530.228 75.1811 L 530.034 75.5745 L 529.965 76.0931 L 530.029 76.6249 L 530.224 77.0139 L 530.522 77.256 L 530.911 77.3381 L 531.248 77.2819 L 531.525 77.1349 L 531.728 76.9015 L 531.845 76.5903 L 531.469 76.5903 L 531.391 76.7632 L 531.279 76.8929 L 530.959 76.9966 L 530.712 76.9491 L 530.527 76.7978 L 530.406 76.5514 L 530.362 76.2185 L 530.362 76.2056 L 530.362 76.2056 z M 530.362 75.8857 L 530.41 75.5874 L 530.527 75.3669 L 530.704 75.233 L 530.937 75.1854 L 531.166 75.233 L 531.344 75.3669 L 531.452 75.5874 L 531.491 75.8857 L 530.362 75.8857 L 530.362 75.8857 z M 532.774 77.256 L 533.155 77.256 L 533.155 75.9289 L 533.194 75.609 L 533.31 75.3799 L 533.501 75.2416 L 533.756 75.194 L 533.946 75.2243 L 534.089 75.3107 L 534.175 75.4577 L 534.205 75.6566 L 534.59 75.6566 L 534.538 75.3065 L 534.395 75.0557 L 534.158 74.9044 L 533.833 74.8525 L 533.613 74.8871 L 533.423 74.9736 L 533.254 75.1205 L 533.12 75.3194 L 533.12 74.9347 L 532.774 74.9347 L 532.774 77.256 L 532.774 77.256 z M 537.417 77.256 L 537.815 77.256 L 538.13 76.3741 L 539.328 76.3741 L 539.643 77.256 L 540.05 77.256 L 538.952 74.2517 L 538.511 74.2517 L 537.417 77.256 L 537.417 77.256 z M 538.269 76.0067 L 538.731 74.684 L 539.194 76.0067 L 538.269 76.0067 L 538.269 76.0067 z M 540.81 76.2661 L 541.857 76.2661 L 541.857 75.9246 L 540.81 75.9246 L 540.81 76.2661 L 540.81 76.2661 z M 542.622 77.256 L 543.019 77.256 L 543.335 76.3741 L 544.532 76.3741 L 544.848 77.256 L 545.254 77.256 L 544.156 74.2517 L 543.715 74.2517 L 542.622 77.256 L 542.622 77.256 z M 543.473 76.0067 L 543.936 74.684 L 544.398 76.0067 L 543.473 76.0067 L 543.473 76.0067 z M 545.786 77.256 L 546.166 77.256 L 546.166 75.9289 L 546.205 75.609 L 546.322 75.3799 L 546.512 75.2416 L 546.767 75.194 L 546.957 75.2243 L 547.1 75.3107 L 547.186 75.4577 L 547.217 75.6566 L 547.601 75.6566 L 547.55 75.3065 L 547.407 75.0557 L 547.169 74.9044 L 546.845 74.8525 L 546.624 74.8871 L 546.434 74.9736 L 546.266 75.1205 L 546.132 75.3194 L 546.132 74.9347 L 545.786 74.9347 L 545.786 77.256 L 545.786 77.256 z M 548.094 77.256 L 548.444 77.256 L 548.444 75.7041 L 548.466 75.4707 L 548.531 75.3021 L 548.63 75.2027 L 548.76 75.1638 L 548.864 75.1984 L 548.933 75.2848 L 548.967 75.4318 L 548.98 75.6263 L 548.98 77.256 L 549.309 77.256 L 549.309 75.7041 L 549.331 75.475 L 549.395 75.3065 L 549.499 75.2027 L 549.629 75.1638 L 549.733 75.1984 L 549.802 75.2848 L 549.845 75.6263 L 549.845 77.256 L 550.195 77.256 L 550.195 75.6522 L 550.173 75.3194 L 550.104 75.0643 L 549.966 74.9088 L 549.741 74.8525 L 549.477 74.939 L 549.274 75.1897 L 549.114 74.9433 L 548.846 74.8525 L 548.6 74.939 L 548.431 75.1811 L 548.431 74.9347 L 548.094 74.9347 L 548.094 77.256 L 548.094 77.256 z" stroke="none" fill-rule="evenodd" fill="rgb(0, 0, 0)"/></g><g stroke="rgb(0, 0, 0)" stroke-width="0.13" stroke-linecap="butt" stroke-linejoin="miter" fill="none"><path d="M 510.499 82.439 L 512.401 82.439 L 512.401 82.0759 L 510.897 82.0759 L 510.897 81.06 L 512.237 81.06 L 512.237 80.7012 L 510.897 80.7012 L 510.897 79.8021 L 512.367 79.8021 L 512.367 79.439 L 510.499 79.439 L 510.499 82.439 L 510.499 82.439 z M 512.708 83.1566 L 512.708 83.4592 L 515.311 83.4592 L 515.311 83.1566 L 512.708 83.1566 L 512.708 83.1566 z M 515.298 82.439 L 515.695 82.439 L 516.011 81.5571 L 517.208 81.5571 L 517.524 82.439 L 517.93 82.439 L 516.832 79.4346 L 516.391 79.4346 L 515.298 82.439 L 515.298 82.439 z M 516.149 81.1897 L 516.612 79.8669 L 517.074 81.1897 L 516.149 81.1897 L 516.149 81.1897 z M 518.462 82.439 L 518.842 82.439 L 518.842 81.1119 L 518.881 80.792 L 518.998 80.5629 L 519.188 80.4246 L 519.443 80.377 L 519.633 80.4072 L 519.776 80.4937 L 519.863 80.6407 L 519.893 80.8395 L 520.278 80.8395 L 520.226 80.4894 L 520.083 80.2386 L 519.845 80.0873 L 519.521 80.0355 L 519.301 80.0701 L 519.11 80.1565 L 518.942 80.3035 L 518.808 80.5023 L 518.808 80.1176 L 518.462 80.1176 L 518.462 82.439 L 518.462 82.439 z M 521.064 82.439 L 521.445 82.439 L 521.445 81.1119 L 521.484 80.792 L 521.6 80.5629 L 521.791 80.4246 L 522.046 80.377 L 522.236 80.4072 L 522.378 80.4937 L 522.465 80.6407 L 522.495 80.8395 L 522.88 80.8395 L 522.828 80.4894 L 522.685 80.2386 L 522.448 80.0873 L 522.123 80.0355 L 521.903 80.0701 L 521.713 80.1565 L 521.544 80.3035 L 521.41 80.5023 L 521.41 80.1176 L 521.064 80.1176 L 521.064 82.439 L 521.064 82.439 z M 524.687 82.1191 L 524.687 80.1954 L 523.71 80.1954 L 523.71 80.5197 L 524.306 80.5197 L 524.306 82.1191 L 523.528 82.1191 L 523.528 82.439 L 525.474 82.439 L 525.474 82.1191 L 524.687 82.1191 L 524.687 82.1191 z M 524.7 79.3352 L 524.298 79.3352 L 524.298 79.7675 L 524.7 79.7675 L 524.7 79.3352 L 524.7 79.3352 z M 527.328 79.8021 L 526.896 79.0672 L 526.472 79.0672 L 527.073 79.8021 L 527.328 79.8021 L 527.328 79.8021 z M 526.459 81.3885 L 527.981 81.3885 L 527.985 81.2113 L 527.916 80.7142 L 527.726 80.3424 L 527.423 80.1176 L 527.021 80.0355 L 526.628 80.1219 L 526.325 80.364 L 526.131 80.7574 L 526.062 81.2761 L 526.126 81.8079 L 526.321 82.1969 L 526.619 82.439 L 527.008 82.5211 L 527.345 82.4649 L 527.622 82.3179 L 527.825 82.0845 L 527.942 81.7733 L 527.566 81.7733 L 527.488 81.9462 L 527.376 82.0759 L 527.056 82.1796 L 526.809 82.132 L 526.623 81.9808 L 526.502 81.7344 L 526.459 81.4015 L 526.459 81.3885 L 526.459 81.3885 z M 526.459 81.0687 L 526.507 80.7704 L 526.623 80.5499 L 526.801 80.4159 L 527.034 80.3683 L 527.263 80.4159 L 527.44 80.5499 L 527.549 80.7704 L 527.587 81.0687 L 526.459 81.0687 L 526.459 81.0687 z M 528.871 82.439 L 529.252 82.439 L 529.252 81.1119 L 529.291 80.792 L 529.407 80.5629 L 529.598 80.4246 L 529.853 80.377 L 530.043 80.4072 L 530.186 80.4937 L 530.272 80.6407 L 530.302 80.8395 L 530.687 80.8395 L 530.635 80.4894 L 530.492 80.2386 L 530.255 80.0873 L 529.93 80.0355 L 529.71 80.0701 L 529.52 80.1565 L 529.351 80.3035 L 529.217 80.5023 L 529.217 80.1176 L 528.871 80.1176 L 528.871 82.439 L 528.871 82.439 z M 531.664 81.3885 L 533.186 81.3885 L 533.19 81.2113 L 533.121 80.7142 L 532.931 80.3424 L 532.628 80.1176 L 532.226 80.0355 L 531.833 80.1219 L 531.53 80.364 L 531.335 80.7574 L 531.266 81.2761 L 531.331 81.8079 L 531.526 82.1969 L 531.824 82.439 L 532.213 82.5211 L 532.55 82.4649 L 532.827 82.3179 L 533.03 82.0845 L 533.147 81.7733 L 532.771 81.7733 L 532.693 81.9462 L 532.58 82.0759 L 532.26 82.1796 L 532.014 82.132 L 531.828 81.9808 L 531.707 81.7344 L 531.664 81.4015 L 531.664 81.3885 L 531.664 81.3885 z M 531.664 81.0687 L 531.711 80.7704 L 531.828 80.5499 L 532.005 80.4159 L 532.239 80.3683 L 532.468 80.4159 L 532.645 80.5499 L 532.753 80.7704 L 532.792 81.0687 L 531.664 81.0687 L 531.664 81.0687 z" stroke="none" fill-rule="evenodd" fill="rgb(0, 0, 0)"/></g><g stroke="rgb(0, 0, 0)" stroke-width="0.13" stroke-linecap="butt" stroke-linejoin="miter" fill="none"><path d="M 495.682 435.977 L 496.352 435.977 L 496.352 433.866 L 497.037 433.866 L 497.541 433.888 L 497.858 433.988 L 498.031 434.226 L 498.103 434.651 L 498.139 435.3 L 498.182 435.725 L 498.269 435.977 L 499.025 435.977 L 499.025 435.84 L 498.86 435.638 L 498.802 435.264 L 498.751 434.457 L 498.629 433.859 L 498.463 433.671 L 498.204 433.535 L 498.492 433.354 L 498.694 433.102 L 498.824 432.785 L 498.867 432.403 L 498.766 431.798 L 498.478 431.344 L 498.002 431.071 L 497.354 430.977 L 495.682 430.977 L 495.682 435.977 L 495.682 435.977 z M 497.166 431.589 L 497.606 431.632 L 497.916 431.769 L 498.11 432.022 L 498.175 432.418 L 498.103 432.836 L 497.909 433.088 L 497.577 433.217 L 497.123 433.254 L 496.352 433.254 L 496.352 431.589 L 497.166 431.589 L 497.166 431.589 z M 500.69 434.226 L 503.226 434.226 L 503.233 433.931 L 503.117 433.102 L 502.801 432.483 L 502.296 432.108 L 501.626 431.971 L 500.971 432.115 L 500.466 432.519 L 500.142 433.174 L 500.027 434.039 L 500.135 434.925 L 500.459 435.573 L 500.956 435.977 L 501.605 436.114 L 502.166 436.02 L 502.628 435.775 L 502.966 435.386 L 503.161 434.867 L 502.534 434.867 L 502.404 435.156 L 502.217 435.372 L 501.684 435.545 L 501.273 435.465 L 500.963 435.213 L 500.762 434.803 L 500.69 434.248 L 500.69 434.226 L 500.69 434.226 z M 500.69 433.693 L 500.769 433.196 L 500.963 432.828 L 501.259 432.605 L 501.648 432.526 L 502.03 432.605 L 502.325 432.828 L 502.505 433.196 L 502.57 433.693 L 500.69 433.693 L 500.69 433.693 z M 506.77 435.473 L 506.77 435.494 L 506.806 435.739 L 506.914 435.912 L 507.368 436.049 L 507.721 435.991 L 507.721 435.501 L 507.57 435.523 L 507.368 435.429 L 507.332 435.141 L 507.332 433.138 L 507.246 432.627 L 506.994 432.266 L 506.554 432.05 L 505.935 431.971 L 505.329 432.058 L 504.883 432.303 L 504.602 432.684 L 504.508 433.189 L 504.508 433.232 L 505.077 433.232 L 505.128 432.929 L 505.286 432.713 L 505.545 432.583 L 505.913 432.533 L 506.266 432.569 L 506.518 432.677 L 506.669 432.864 L 506.72 433.124 L 506.691 433.426 L 506.576 433.578 L 506.288 433.65 L 505.747 433.707 L 505.128 433.837 L 504.688 434.068 L 504.429 434.428 L 504.349 434.961 L 504.422 435.437 L 504.645 435.79 L 505.005 436.013 L 505.502 436.092 L 506.172 435.941 L 506.77 435.473 L 506.77 435.473 z M 506.698 434.622 L 506.612 434.997 L 506.381 435.285 L 506.035 435.473 L 505.61 435.537 L 505.337 435.501 L 505.142 435.386 L 505.02 435.184 L 504.983 434.903 L 505.012 434.651 L 505.128 434.471 L 505.589 434.269 L 506.172 434.183 L 506.698 434.01 L 506.698 434.622 L 506.698 434.622 z M 509.047 435.977 L 509.681 435.977 L 509.681 433.765 L 509.746 433.232 L 509.94 432.85 L 510.257 432.62 L 510.682 432.54 L 510.999 432.591 L 511.237 432.735 L 511.381 432.98 L 511.432 433.311 L 512.073 433.311 L 511.986 432.728 L 511.749 432.31 L 511.352 432.058 L 510.812 431.971 L 510.445 432.029 L 510.128 432.173 L 509.847 432.418 L 509.623 432.749 L 509.623 432.108 L 509.047 432.108 L 509.047 435.977 L 509.047 435.977 z M 512.469 437.173 L 512.469 437.677 L 516.806 437.677 L 516.806 437.173 L 512.469 437.173 L 512.469 437.173 z M 517.368 435.977 L 518.038 435.977 L 518.038 433.866 L 518.723 433.866 L 519.227 433.888 L 519.544 433.988 L 519.717 434.226 L 519.789 434.651 L 519.825 435.3 L 519.868 435.725 L 519.955 435.977 L 520.711 435.977 L 520.711 435.84 L 520.545 435.638 L 520.488 435.264 L 520.437 434.457 L 520.315 433.859 L 520.149 433.671 L 519.89 433.535 L 520.178 433.354 L 520.38 433.102 L 520.509 432.785 L 520.553 432.403 L 520.452 431.798 L 520.164 431.344 L 519.688 431.071 L 519.04 430.977 L 517.368 430.977 L 517.368 435.977 L 517.368 435.977 z M 518.852 431.589 L 519.292 431.632 L 519.602 431.769 L 519.796 432.022 L 519.861 432.418 L 519.789 432.836 L 519.594 433.088 L 519.263 433.217 L 518.809 433.254 L 518.038 433.254 L 518.038 431.589 L 518.852 431.589 L 518.852 431.589 z M 523.759 435.444 L 523.759 432.238 L 522.13 432.238 L 522.13 432.778 L 523.125 432.778 L 523.125 435.444 L 521.828 435.444 L 521.828 435.977 L 525.07 435.977 L 525.07 435.444 L 523.759 435.444 L 523.759 435.444 z M 523.78 430.804 L 523.11 430.804 L 523.11 431.524 L 523.78 431.524 L 523.78 430.804 L 523.78 430.804 z M 529.169 435.804 L 529.169 432.108 L 528.564 432.108 L 528.564 432.735 L 528.067 432.166 L 527.764 432.022 L 527.426 431.971 L 526.813 432.115 L 526.338 432.519 L 526.028 433.167 L 525.92 434.039 L 526.028 434.918 L 526.338 435.566 L 526.813 435.977 L 527.426 436.114 L 527.772 436.063 L 528.06 435.934 L 528.564 435.386 L 528.564 435.934 L 528.507 436.366 L 528.348 436.676 L 528.045 436.856 L 527.592 436.921 L 527.195 436.877 L 526.914 436.769 L 526.749 436.582 L 526.698 436.33 L 526.086 436.33 L 526.086 436.359 L 526.179 436.82 L 526.468 437.166 L 526.929 437.389 L 527.556 437.468 L 528.305 437.36 L 528.802 437.058 L 529.083 436.532 L 529.169 435.804 L 529.169 435.804 z M 526.576 434.039 L 526.641 433.398 L 526.835 432.922 L 527.138 432.641 L 527.541 432.54 L 527.966 432.641 L 528.283 432.922 L 528.478 433.398 L 528.55 434.039 L 528.478 434.694 L 528.283 435.163 L 527.966 435.451 L 527.541 435.545 L 527.138 435.451 L 526.835 435.163 L 526.641 434.687 L 526.576 434.039 L 526.576 434.039 z M 530.495 435.977 L 531.129 435.977 L 531.129 433.743 L 531.194 433.232 L 531.403 432.857 L 531.727 432.627 L 532.159 432.54 L 532.505 432.612 L 532.721 432.807 L 532.829 433.131 L 532.865 433.563 L 532.865 435.977 L 533.499 435.977 L 533.499 433.434 L 533.471 432.922 L 533.341 432.497 L 532.916 432.108 L 532.253 431.971 L 531.893 432.022 L 531.583 432.158 L 531.323 432.375 L 531.129 432.67 L 531.129 430.804 L 530.495 430.804 L 530.495 435.977 L 530.495 435.977 z M 535.682 432.778 L 535.682 434.716 L 535.726 435.343 L 535.927 435.775 L 536.331 436.027 L 537.015 436.114 L 537.764 436.078 L 537.764 435.53 L 537.217 435.573 L 536.72 435.516 L 536.453 435.336 L 536.338 435.033 L 536.316 434.608 L 536.316 432.778 L 537.764 432.778 L 537.764 432.238 L 536.316 432.238 L 536.316 431.107 L 535.682 431.107 L 535.682 432.238 L 534.587 432.238 L 534.587 432.778 L 535.682 432.778 L 535.682 432.778 z M 538.492 437.173 L 538.492 437.677 L 542.829 437.677 L 542.829 437.173 L 538.492 437.173 L 538.492 437.173 z M 543.535 435.977 L 546.749 435.977 L 546.749 435.372 L 544.198 435.372 L 544.198 430.977 L 543.535 430.977 L 543.535 435.977 L 543.535 435.977 z M 547.656 434.046 L 547.772 434.925 L 548.103 435.573 L 548.629 435.977 L 549.335 436.114 L 550.034 435.977 L 550.56 435.581 L 550.891 434.932 L 551.014 434.046 L 550.891 433.167 L 550.56 432.511 L 550.034 432.115 L 549.335 431.971 L 548.629 432.115 L 548.103 432.519 L 547.772 433.167 L 547.656 434.046 L 547.656 434.046 z M 548.305 434.039 L 548.37 433.39 L 548.571 432.922 L 548.896 432.634 L 549.335 432.533 L 549.767 432.634 L 550.091 432.915 L 550.293 433.39 L 550.365 434.039 L 550.293 434.694 L 550.091 435.17 L 549.767 435.458 L 549.335 435.552 L 548.896 435.458 L 548.571 435.17 L 548.37 434.694 L 548.305 434.039 L 548.305 434.039 z M 553.096 435.977 L 553.672 432.692 L 554.248 435.977 L 554.854 435.977 L 555.805 432.108 L 555.192 432.108 L 554.551 435.393 L 553.982 432.108 L 553.355 432.108 L 552.786 435.393 L 552.145 432.108 L 551.54 432.108 L 552.491 435.977 L 553.096 435.977 L 553.096 435.977 z M 557.073 434.226 L 559.609 434.226 L 559.616 433.931 L 559.501 433.102 L 559.184 432.483 L 558.679 432.108 L 558.009 431.971 L 557.354 432.115 L 556.849 432.519 L 556.525 433.174 L 556.41 434.039 L 556.518 434.925 L 556.842 435.573 L 557.339 435.977 L 557.988 436.114 L 558.55 436.02 L 559.011 435.775 L 559.349 435.386 L 559.544 434.867 L 558.917 434.867 L 558.787 435.156 L 558.6 435.372 L 558.067 435.545 L 557.656 435.465 L 557.346 435.213 L 557.145 434.803 L 557.073 434.248 L 557.073 434.226 L 557.073 434.226 z M 557.073 433.693 L 557.152 433.196 L 557.346 432.828 L 557.642 432.605 L 558.031 432.526 L 558.413 432.605 L 558.708 432.828 L 558.888 433.196 L 558.953 433.693 L 557.073 433.693 L 557.073 433.693 z M 561.093 435.977 L 561.727 435.977 L 561.727 433.765 L 561.792 433.232 L 561.986 432.85 L 562.303 432.62 L 562.728 432.54 L 563.045 432.591 L 563.283 432.735 L 563.427 432.98 L 563.478 433.311 L 564.119 433.311 L 564.032 432.728 L 563.795 432.31 L 563.398 432.058 L 562.858 431.971 L 562.491 432.029 L 562.174 432.173 L 561.893 432.418 L 561.669 432.749 L 561.669 432.108 L 561.093 432.108 L 561.093 435.977 L 561.093 435.977 z M 568.831 435.977 L 569.493 435.977 L 570.019 434.507 L 572.015 434.507 L 572.541 435.977 L 573.218 435.977 L 571.388 430.97 L 570.653 430.97 L 568.831 435.977 L 568.831 435.977 z M 570.25 433.895 L 571.021 431.69 L 571.792 433.895 L 570.25 433.895 L 570.25 433.895 z M 574.486 434.327 L 576.23 434.327 L 576.23 433.758 L 574.486 433.758 L 574.486 434.327 L 574.486 434.327 z M 577.505 435.977 L 578.168 435.977 L 578.694 434.507 L 580.689 434.507 L 581.215 435.977 L 581.893 435.977 L 580.063 430.97 L 579.328 430.97 L 577.505 435.977 L 577.505 435.977 z M 578.924 433.895 L 579.695 431.69 L 580.466 433.895 L 578.924 433.895 L 578.924 433.895 z M 582.779 435.977 L 583.413 435.977 L 583.413 433.765 L 583.477 433.232 L 583.672 432.85 L 583.989 432.62 L 584.414 432.54 L 584.731 432.591 L 584.969 432.735 L 585.113 432.98 L 585.163 433.311 L 585.805 433.311 L 585.718 432.728 L 585.48 432.31 L 585.084 432.058 L 584.544 431.971 L 584.176 432.029 L 583.859 432.173 L 583.578 432.418 L 583.355 432.749 L 583.355 432.108 L 582.779 432.108 L 582.779 435.977 L 582.779 435.977 z M 586.626 435.977 L 587.209 435.977 L 587.209 433.39 L 587.245 433.001 L 587.354 432.72 L 587.519 432.555 L 587.735 432.49 L 587.908 432.547 L 588.024 432.692 L 588.081 432.937 L 588.103 433.261 L 588.103 435.977 L 588.65 435.977 L 588.65 433.39 L 588.686 433.009 L 588.794 432.728 L 588.967 432.555 L 589.184 432.49 L 589.356 432.547 L 589.472 432.692 L 589.544 433.261 L 589.544 435.977 L 590.127 435.977 L 590.127 433.304 L 590.091 432.749 L 589.976 432.324 L 589.745 432.065 L 589.371 431.971 L 588.931 432.115 L 588.593 432.533 L 588.326 432.122 L 587.879 431.971 L 587.469 432.115 L 587.188 432.519 L 587.188 432.108 L 586.626 432.108 L 586.626 435.977 L 586.626 435.977 z" stroke="none" fill-rule="evenodd" fill="rgb(0, 0, 0)"/></g><g stroke="rgb(0, 0, 0)" stroke-width="0.13" stroke-linecap="butt" stroke-linejoin="miter" fill="none"><path d="M 513.117 444.615 L 513.78 444.615 L 513.78 442.504 L 514.515 442.504 L 515.257 442.468 L 515.848 442.216 L 516.23 441.726 L 516.36 441.056 L 516.259 440.437 L 515.97 439.983 L 515.495 439.709 L 514.847 439.615 L 513.117 439.615 L 513.117 444.615 L 513.117 444.615 z M 514.666 440.228 L 515.099 440.271 L 515.416 440.408 L 515.603 440.66 L 515.668 441.056 L 515.596 441.474 L 515.401 441.726 L 515.07 441.856 L 514.616 441.892 L 513.78 441.892 L 513.78 440.228 L 514.666 440.228 L 514.666 440.228 z M 518.744 439.975 L 518.744 444.082 L 517.44 444.082 L 517.44 444.615 L 520.675 444.615 L 520.675 444.082 L 519.378 444.082 L 519.378 439.442 L 517.75 439.442 L 517.75 439.975 L 518.744 439.975 L 518.744 439.975 z M 524.119 444.111 L 524.119 444.132 L 524.155 444.377 L 524.263 444.55 L 524.717 444.687 L 525.07 444.63 L 525.07 444.14 L 524.919 444.161 L 524.717 444.068 L 524.681 443.779 L 524.681 441.777 L 524.594 441.265 L 524.342 440.905 L 523.903 440.689 L 523.283 440.609 L 522.678 440.696 L 522.231 440.941 L 521.95 441.323 L 521.857 441.827 L 521.857 441.87 L 522.426 441.87 L 522.476 441.568 L 522.635 441.352 L 522.894 441.222 L 523.262 441.171 L 523.615 441.207 L 523.867 441.315 L 524.018 441.503 L 524.068 441.762 L 524.04 442.065 L 523.924 442.216 L 523.636 442.288 L 523.096 442.346 L 522.476 442.475 L 522.037 442.706 L 521.777 443.066 L 521.698 443.599 L 521.77 444.075 L 521.994 444.428 L 522.354 444.651 L 522.851 444.73 L 523.521 444.579 L 524.119 444.111 L 524.119 444.111 z M 524.047 443.261 L 523.96 443.635 L 523.73 443.924 L 523.384 444.111 L 522.959 444.176 L 522.685 444.14 L 522.491 444.024 L 522.368 443.823 L 522.332 443.542 L 522.361 443.29 L 522.476 443.109 L 522.937 442.908 L 523.521 442.821 L 524.047 442.648 L 524.047 443.261 L 524.047 443.261 z M 528.535 441.344 L 528.312 441.02 L 528.06 440.79 L 527.764 440.66 L 527.426 440.609 L 526.813 440.754 L 526.338 441.157 L 526.028 441.805 L 525.92 442.677 L 526.028 443.556 L 526.338 444.204 L 526.813 444.615 L 527.426 444.752 L 527.764 444.709 L 528.053 444.586 L 528.305 444.363 L 528.535 444.024 L 528.535 446.114 L 529.169 446.114 L 529.169 440.746 L 528.535 440.746 L 528.535 441.344 L 528.535 441.344 z M 526.568 442.677 L 526.633 442.036 L 526.835 441.568 L 527.138 441.279 L 527.534 441.179 L 527.952 441.279 L 528.269 441.56 L 528.456 442.029 L 528.528 442.677 L 528.456 443.333 L 528.269 443.801 L 527.952 444.089 L 527.534 444.183 L 527.138 444.089 L 526.835 443.801 L 526.633 443.326 L 526.568 442.677 L 526.568 442.677 z M 533.478 440.746 L 532.844 440.746 L 532.844 442.98 L 532.772 443.498 L 532.563 443.873 L 532.238 444.104 L 531.813 444.176 L 531.475 444.118 L 531.259 443.945 L 531.136 443.65 L 531.107 443.232 L 531.107 440.746 L 530.473 440.746 L 530.473 443.29 L 530.495 443.801 L 530.632 444.226 L 531.05 444.615 L 531.72 444.752 L 532.08 444.702 L 532.39 444.572 L 532.656 444.349 L 532.872 444.024 L 532.872 444.615 L 533.478 444.615 L 533.478 440.746 L 533.478 440.746 z M 535.387 442.864 L 537.923 442.864 L 537.93 442.569 L 537.815 441.741 L 537.498 441.121 L 536.993 440.746 L 536.323 440.609 L 535.668 440.754 L 535.164 441.157 L 534.839 441.813 L 534.724 442.677 L 534.832 443.563 L 535.156 444.212 L 535.653 444.615 L 536.302 444.752 L 536.864 444.658 L 537.325 444.413 L 537.663 444.024 L 537.858 443.506 L 537.231 443.506 L 537.102 443.794 L 536.914 444.01 L 536.381 444.183 L 535.97 444.104 L 535.661 443.852 L 535.459 443.441 L 535.387 442.886 L 535.387 442.864 L 535.387 442.864 z M 535.387 442.331 L 535.466 441.834 L 535.661 441.467 L 535.956 441.243 L 536.345 441.164 L 536.727 441.243 L 537.022 441.467 L 537.202 441.834 L 537.267 442.331 L 535.387 442.331 L 535.387 442.331 z M 545.884 444.017 L 545.884 444.615 L 546.518 444.615 L 546.518 439.442 L 545.891 439.442 L 545.891 441.337 L 545.408 440.79 L 545.113 440.66 L 544.774 440.609 L 544.162 440.754 L 543.687 441.157 L 543.377 441.805 L 543.269 442.677 L 543.377 443.549 L 543.687 444.204 L 544.162 444.615 L 544.774 444.752 L 545.113 444.702 L 545.416 444.572 L 545.884 444.017 L 545.884 444.017 z M 544.882 441.179 L 545.3 441.279 L 545.617 441.56 L 545.805 442.029 L 545.877 442.677 L 545.805 443.333 L 545.617 443.801 L 545.3 444.089 L 544.882 444.183 L 544.486 444.089 L 544.184 443.801 L 543.982 443.326 L 543.917 442.677 L 543.982 442.036 L 544.184 441.568 L 544.486 441.279 L 544.882 441.179 L 544.882 441.179 z M 550.826 440.746 L 550.192 440.746 L 550.192 442.98 L 550.12 443.498 L 549.911 443.873 L 549.587 444.104 L 549.162 444.176 L 548.823 444.118 L 548.607 443.945 L 548.485 443.65 L 548.456 443.232 L 548.456 440.746 L 547.822 440.746 L 547.822 443.29 L 547.844 443.801 L 547.98 444.226 L 548.398 444.615 L 549.068 444.752 L 549.429 444.702 L 549.738 444.572 L 550.005 444.349 L 550.221 444.024 L 550.221 444.615 L 550.826 444.615 L 550.826 440.746 L 550.826 440.746 z M 556.518 444.615 L 557.152 444.615 L 557.152 442.382 L 557.217 441.87 L 557.426 441.496 L 557.75 441.265 L 558.182 441.179 L 558.528 441.251 L 558.744 441.445 L 558.852 441.769 L 558.888 442.202 L 558.888 444.615 L 559.522 444.615 L 559.522 442.072 L 559.493 441.56 L 559.364 441.135 L 558.939 440.746 L 558.276 440.609 L 557.916 440.66 L 557.606 440.797 L 557.346 441.013 L 557.152 441.308 L 557.152 439.442 L 556.518 439.442 L 556.518 444.615 L 556.518 444.615 z M 563.153 444.111 L 563.153 444.132 L 563.189 444.377 L 563.297 444.55 L 563.751 444.687 L 564.104 444.63 L 564.104 444.14 L 563.953 444.161 L 563.751 444.068 L 563.715 443.779 L 563.715 441.777 L 563.629 441.265 L 563.377 440.905 L 562.937 440.689 L 562.318 440.609 L 561.712 440.696 L 561.266 440.941 L 560.985 441.323 L 560.891 441.827 L 560.891 441.87 L 561.46 441.87 L 561.511 441.568 L 561.669 441.352 L 561.929 441.222 L 562.296 441.171 L 562.649 441.207 L 562.901 441.315 L 563.052 441.503 L 563.103 441.762 L 563.074 442.065 L 562.959 442.216 L 562.671 442.288 L 562.13 442.346 L 561.511 442.475 L 561.071 442.706 L 560.812 443.066 L 560.733 443.599 L 560.805 444.075 L 561.028 444.428 L 561.388 444.651 L 561.885 444.73 L 562.555 444.579 L 563.153 444.111 L 563.153 444.111 z M 563.081 443.261 L 562.995 443.635 L 562.764 443.924 L 562.418 444.111 L 561.993 444.176 L 561.72 444.14 L 561.525 444.024 L 561.403 443.823 L 561.367 443.542 L 561.395 443.29 L 561.511 443.109 L 561.972 442.908 L 562.555 442.821 L 563.081 442.648 L 563.081 443.261 L 563.081 443.261 z M 568.175 440.746 L 567.541 440.746 L 567.541 442.98 L 567.469 443.498 L 567.26 443.873 L 566.936 444.104 L 566.511 444.176 L 566.172 444.118 L 565.956 443.945 L 565.833 443.65 L 565.805 443.232 L 565.805 440.746 L 565.171 440.746 L 565.171 443.29 L 565.192 443.801 L 565.329 444.226 L 565.747 444.615 L 566.417 444.752 L 566.777 444.702 L 567.087 444.572 L 567.354 444.349 L 567.57 444.024 L 567.57 444.615 L 568.175 444.615 L 568.175 440.746 L 568.175 440.746 z M 570.379 441.416 L 570.379 443.354 L 570.423 443.981 L 570.624 444.413 L 571.028 444.666 L 571.712 444.752 L 572.462 444.716 L 572.462 444.168 L 571.914 444.212 L 571.417 444.154 L 571.15 443.974 L 571.035 443.671 L 571.013 443.246 L 571.013 441.416 L 572.462 441.416 L 572.462 440.876 L 571.013 440.876 L 571.013 439.745 L 570.379 439.745 L 570.379 440.876 L 569.284 440.876 L 569.284 441.416 L 570.379 441.416 L 570.379 441.416 z" stroke="none" fill-rule="evenodd" fill="rgb(0, 0, 0)"/></g><g stroke="rgb(0, 0, 0)" stroke-width="0.13" stroke-linecap="butt" stroke-linejoin="miter" fill="none"><path d="M 892.761 296.426 L 893.431 296.426 L 893.431 294.315 L 894.116 294.315 L 894.62 294.336 L 894.937 294.437 L 895.11 294.675 L 895.182 295.1 L 895.218 295.749 L 895.261 296.174 L 895.348 296.426 L 896.104 296.426 L 896.104 296.289 L 895.938 296.087 L 895.881 295.713 L 895.83 294.906 L 895.708 294.308 L 895.542 294.12 L 895.283 293.983 L 895.571 293.803 L 895.773 293.551 L 895.902 293.234 L 895.946 292.852 L 895.845 292.247 L 895.557 291.793 L 895.081 291.519 L 894.433 291.426 L 892.761 291.426 L 892.761 296.426 L 892.761 296.426 z M 894.245 292.038 L 894.685 292.081 L 894.995 292.218 L 895.189 292.47 L 895.254 292.867 L 895.182 293.285 L 894.987 293.537 L 894.656 293.666 L 894.202 293.702 L 893.431 293.702 L 893.431 292.038 L 894.245 292.038 L 894.245 292.038 z M 897.768 294.675 L 900.304 294.675 L 900.312 294.38 L 900.196 293.551 L 899.879 292.932 L 899.375 292.557 L 898.705 292.42 L 898.049 292.564 L 897.545 292.968 L 897.221 293.623 L 897.106 294.488 L 897.214 295.374 L 897.538 296.022 L 898.035 296.426 L 898.683 296.563 L 899.245 296.469 L 899.706 296.224 L 900.045 295.835 L 900.24 295.316 L 899.613 295.316 L 899.483 295.604 L 899.296 295.821 L 898.763 295.994 L 898.352 295.914 L 898.042 295.662 L 897.84 295.251 L 897.768 294.697 L 897.768 294.675 L 897.768 294.675 z M 897.768 294.142 L 897.848 293.645 L 898.042 293.277 L 898.338 293.054 L 898.727 292.975 L 899.108 293.054 L 899.404 293.277 L 899.584 293.645 L 899.649 294.142 L 897.768 294.142 L 897.768 294.142 z M 903.849 295.921 L 903.849 295.943 L 903.885 296.188 L 903.993 296.361 L 904.447 296.498 L 904.8 296.44 L 904.8 295.95 L 904.649 295.972 L 904.447 295.878 L 904.411 295.59 L 904.411 293.587 L 904.325 293.076 L 904.072 292.715 L 903.633 292.499 L 903.013 292.42 L 902.408 292.506 L 901.961 292.751 L 901.68 293.133 L 901.587 293.638 L 901.587 293.681 L 902.156 293.681 L 902.206 293.378 L 902.365 293.162 L 902.624 293.032 L 902.992 292.982 L 903.345 293.018 L 903.597 293.126 L 903.748 293.313 L 903.799 293.573 L 903.77 293.875 L 903.654 294.027 L 903.366 294.099 L 902.826 294.156 L 902.206 294.286 L 901.767 294.517 L 901.508 294.877 L 901.428 295.41 L 901.5 295.885 L 901.724 296.238 L 902.084 296.462 L 902.581 296.541 L 903.251 296.39 L 903.849 295.921 L 903.849 295.921 z M 903.777 295.071 L 903.691 295.446 L 903.46 295.734 L 903.114 295.921 L 902.689 295.986 L 902.415 295.95 L 902.221 295.835 L 902.098 295.633 L 902.062 295.352 L 902.091 295.1 L 902.206 294.92 L 902.667 294.718 L 903.251 294.632 L 903.777 294.459 L 903.777 295.071 L 903.777 295.071 z M 906.126 296.426 L 906.76 296.426 L 906.76 294.214 L 906.825 293.681 L 907.019 293.299 L 907.336 293.068 L 907.761 292.989 L 908.078 293.04 L 908.316 293.184 L 908.46 293.429 L 908.51 293.76 L 909.152 293.76 L 909.065 293.177 L 908.827 292.759 L 908.431 292.506 L 907.891 292.42 L 907.523 292.478 L 907.206 292.622 L 906.925 292.867 L 906.702 293.198 L 906.702 292.557 L 906.126 292.557 L 906.126 296.426 L 906.126 296.426 z M 909.548 297.622 L 909.548 298.126 L 913.885 298.126 L 913.885 297.622 L 909.548 297.622 L 909.548 297.622 z M 914.447 296.426 L 915.117 296.426 L 915.117 294.315 L 915.801 294.315 L 916.306 294.336 L 916.623 294.437 L 916.796 294.675 L 916.868 295.1 L 916.904 295.749 L 916.947 296.174 L 917.033 296.426 L 917.79 296.426 L 917.79 296.289 L 917.624 296.087 L 917.567 295.713 L 917.516 294.906 L 917.394 294.308 L 917.228 294.12 L 916.969 293.983 L 917.257 293.803 L 917.458 293.551 L 917.588 293.234 L 917.631 292.852 L 917.531 292.247 L 917.242 291.793 L 916.767 291.519 L 916.118 291.426 L 914.447 291.426 L 914.447 296.426 L 914.447 296.426 z M 915.931 292.038 L 916.371 292.081 L 916.68 292.218 L 916.875 292.47 L 916.94 292.867 L 916.868 293.285 L 916.673 293.537 L 916.342 293.666 L 915.888 293.702 L 915.117 293.702 L 915.117 292.038 L 915.931 292.038 L 915.931 292.038 z M 920.837 295.893 L 920.837 292.687 L 919.209 292.687 L 919.209 293.227 L 920.203 293.227 L 920.203 295.893 L 918.907 295.893 L 918.907 296.426 L 922.149 296.426 L 922.149 295.893 L 920.837 295.893 L 920.837 295.893 z M 920.859 291.253 L 920.189 291.253 L 920.189 291.973 L 920.859 291.973 L 920.859 291.253 L 920.859 291.253 z M 926.248 296.253 L 926.248 292.557 L 925.643 292.557 L 925.643 293.184 L 925.146 292.615 L 924.843 292.47 L 924.505 292.42 L 923.892 292.564 L 923.417 292.968 L 923.107 293.616 L 922.999 294.488 L 923.107 295.367 L 923.417 296.015 L 923.892 296.426 L 924.505 296.563 L 924.85 296.512 L 925.139 296.383 L 925.643 295.835 L 925.643 296.383 L 925.585 296.815 L 925.427 297.125 L 925.124 297.305 L 924.67 297.37 L 924.274 297.326 L 923.993 297.218 L 923.827 297.031 L 923.777 296.779 L 923.164 296.779 L 923.164 296.808 L 923.258 297.269 L 923.546 297.615 L 924.007 297.838 L 924.634 297.917 L 925.384 297.809 L 925.881 297.506 L 926.162 296.981 L 926.248 296.253 L 926.248 296.253 z M 923.654 294.488 L 923.719 293.847 L 923.914 293.371 L 924.216 293.09 L 924.62 292.989 L 925.045 293.09 L 925.362 293.371 L 925.556 293.847 L 925.628 294.488 L 925.556 295.143 L 925.362 295.612 L 925.045 295.9 L 924.62 295.994 L 924.216 295.9 L 923.914 295.612 L 923.719 295.136 L 923.654 294.488 L 923.654 294.488 z M 927.574 296.426 L 928.208 296.426 L 928.208 294.192 L 928.273 293.681 L 928.482 293.306 L 928.806 293.076 L 929.238 292.989 L 929.584 293.061 L 929.8 293.256 L 929.908 293.58 L 929.944 294.012 L 929.944 296.426 L 930.578 296.426 L 930.578 293.883 L 930.549 293.371 L 930.42 292.946 L 929.994 292.557 L 929.332 292.42 L 928.971 292.47 L 928.662 292.607 L 928.402 292.823 L 928.208 293.119 L 928.208 291.253 L 927.574 291.253 L 927.574 296.426 L 927.574 296.426 z M 932.761 293.227 L 932.761 295.165 L 932.804 295.792 L 933.006 296.224 L 933.409 296.476 L 934.094 296.563 L 934.843 296.527 L 934.843 295.979 L 934.296 296.022 L 933.798 295.965 L 933.532 295.785 L 933.417 295.482 L 933.395 295.057 L 933.395 293.227 L 934.843 293.227 L 934.843 292.687 L 933.395 292.687 L 933.395 291.555 L 932.761 291.555 L 932.761 292.687 L 931.666 292.687 L 931.666 293.227 L 932.761 293.227 L 932.761 293.227 z M 935.571 297.622 L 935.571 298.126 L 939.908 298.126 L 939.908 297.622 L 935.571 297.622 L 935.571 297.622 z M 940.614 296.426 L 943.827 296.426 L 943.827 295.821 L 941.277 295.821 L 941.277 291.426 L 940.614 291.426 L 940.614 296.426 L 940.614 296.426 z M 944.735 294.495 L 944.85 295.374 L 945.182 296.022 L 945.708 296.426 L 946.414 296.563 L 947.113 296.426 L 947.638 296.03 L 947.97 295.381 L 948.092 294.495 L 947.97 293.616 L 947.638 292.96 L 947.113 292.564 L 946.414 292.42 L 945.708 292.564 L 945.182 292.968 L 944.85 293.616 L 944.735 294.495 L 944.735 294.495 z M 945.383 294.488 L 945.448 293.839 L 945.65 293.371 L 945.974 293.083 L 946.414 292.982 L 946.846 293.083 L 947.17 293.364 L 947.372 293.839 L 947.444 294.488 L 947.372 295.143 L 947.17 295.619 L 946.846 295.907 L 946.414 296.001 L 945.974 295.907 L 945.65 295.619 L 945.448 295.143 L 945.383 294.488 L 945.383 294.488 z M 950.174 296.426 L 950.751 293.141 L 951.327 296.426 L 951.932 296.426 L 952.883 292.557 L 952.271 292.557 L 951.63 295.842 L 951.061 292.557 L 950.434 292.557 L 949.865 295.842 L 949.224 292.557 L 948.618 292.557 L 949.569 296.426 L 950.174 296.426 L 950.174 296.426 z M 954.151 294.675 L 956.687 294.675 L 956.695 294.38 L 956.579 293.551 L 956.262 292.932 L 955.758 292.557 L 955.088 292.42 L 954.432 292.564 L 953.928 292.968 L 953.604 293.623 L 953.489 294.488 L 953.597 295.374 L 953.921 296.022 L 954.418 296.426 L 955.066 296.563 L 955.628 296.469 L 956.089 296.224 L 956.428 295.835 L 956.623 295.316 L 955.996 295.316 L 955.866 295.604 L 955.679 295.821 L 955.146 295.994 L 954.735 295.914 L 954.425 295.662 L 954.223 295.251 L 954.151 294.697 L 954.151 294.675 L 954.151 294.675 z M 954.151 294.142 L 954.231 293.645 L 954.425 293.277 L 954.721 293.054 L 955.11 292.975 L 955.491 293.054 L 955.787 293.277 L 955.967 293.645 L 956.032 294.142 L 954.151 294.142 L 954.151 294.142 z M 958.172 296.426 L 958.806 296.426 L 958.806 294.214 L 958.87 293.681 L 959.065 293.299 L 959.382 293.068 L 959.807 292.989 L 960.124 293.04 L 960.362 293.184 L 960.506 293.429 L 960.556 293.76 L 961.198 293.76 L 961.111 293.177 L 960.873 292.759 L 960.477 292.506 L 959.937 292.42 L 959.569 292.478 L 959.252 292.622 L 958.971 292.867 L 958.748 293.198 L 958.748 292.557 L 958.172 292.557 L 958.172 296.426 L 958.172 296.426 z M 965.909 296.426 L 966.572 296.426 L 967.098 294.956 L 969.094 294.956 L 969.62 296.426 L 970.297 296.426 L 968.467 291.419 L 967.732 291.419 L 965.909 296.426 L 965.909 296.426 z M 967.329 294.344 L 968.099 292.139 L 968.87 294.344 L 967.329 294.344 L 967.329 294.344 z M 971.565 294.776 L 973.308 294.776 L 973.308 294.207 L 971.565 294.207 L 971.565 294.776 L 971.565 294.776 z M 974.584 296.426 L 975.246 296.426 L 975.772 294.956 L 977.768 294.956 L 978.294 296.426 L 978.971 296.426 L 977.141 291.419 L 976.406 291.419 L 974.584 296.426 L 974.584 296.426 z M 976.003 294.344 L 976.774 292.139 L 977.545 294.344 L 976.003 294.344 L 976.003 294.344 z M 979.857 296.426 L 980.491 296.426 L 980.491 294.214 L 980.556 293.681 L 980.751 293.299 L 981.068 293.068 L 981.493 292.989 L 981.81 293.04 L 982.048 293.184 L 982.192 293.429 L 982.242 293.76 L 982.883 293.76 L 982.797 293.177 L 982.559 292.759 L 982.163 292.506 L 981.622 292.42 L 981.255 292.478 L 980.938 292.622 L 980.657 292.867 L 980.434 293.198 L 980.434 292.557 L 979.857 292.557 L 979.857 296.426 L 979.857 296.426 z M 983.705 296.426 L 984.288 296.426 L 984.288 293.839 L 984.324 293.45 L 984.432 293.169 L 984.598 293.004 L 984.814 292.939 L 984.987 292.996 L 985.102 293.141 L 985.16 293.385 L 985.182 293.71 L 985.182 296.426 L 985.729 296.426 L 985.729 293.839 L 985.765 293.458 L 985.873 293.177 L 986.046 293.004 L 986.262 292.939 L 986.435 292.996 L 986.55 293.141 L 986.622 293.71 L 986.622 296.426 L 987.206 296.426 L 987.206 293.753 L 987.17 293.198 L 987.055 292.773 L 986.824 292.514 L 986.45 292.42 L 986.01 292.564 L 985.671 292.982 L 985.405 292.571 L 984.958 292.42 L 984.548 292.564 L 984.267 292.968 L 984.267 292.557 L 983.705 292.557 L 983.705 296.426 L 983.705 296.426 z" stroke="none" fill-rule="evenodd" fill="rgb(0, 0, 0)"/></g><g stroke="rgb(0, 0, 0)" stroke-width="0.13" stroke-linecap="butt" stroke-linejoin="miter" fill="none"><path d="M 912.365 305.064 L 913.028 305.064 L 913.028 302.953 L 913.763 302.953 L 914.505 302.917 L 915.095 302.665 L 915.477 302.175 L 915.607 301.505 L 915.506 300.885 L 915.218 300.432 L 914.742 300.158 L 914.094 300.064 L 912.365 300.064 L 912.365 305.064 L 912.365 305.064 z M 913.914 300.677 L 914.346 300.72 L 914.663 300.857 L 914.85 301.109 L 914.915 301.505 L 914.843 301.923 L 914.649 302.175 L 914.317 302.305 L 913.863 302.341 L 913.028 302.341 L 913.028 300.677 L 913.914 300.677 L 913.914 300.677 z M 917.992 300.424 L 917.992 304.531 L 916.688 304.531 L 916.688 305.064 L 919.922 305.064 L 919.922 304.531 L 918.626 304.531 L 918.626 299.891 L 916.997 299.891 L 916.997 300.424 L 917.992 300.424 L 917.992 300.424 z M 923.366 304.56 L 923.366 304.581 L 923.402 304.826 L 923.51 304.999 L 923.964 305.136 L 924.317 305.078 L 924.317 304.589 L 924.166 304.61 L 923.964 304.517 L 923.928 304.228 L 923.928 302.225 L 923.842 301.714 L 923.59 301.354 L 923.15 301.138 L 922.531 301.058 L 921.925 301.145 L 921.479 301.39 L 921.198 301.772 L 921.104 302.276 L 921.104 302.319 L 921.673 302.319 L 921.724 302.017 L 921.882 301.8 L 922.142 301.671 L 922.509 301.62 L 922.862 301.656 L 923.114 301.764 L 923.265 301.952 L 923.316 302.211 L 923.287 302.514 L 923.172 302.665 L 922.884 302.737 L 922.343 302.795 L 921.724 302.924 L 921.284 303.155 L 921.025 303.515 L 920.946 304.048 L 921.018 304.524 L 921.241 304.877 L 921.601 305.1 L 922.098 305.179 L 922.768 305.028 L 923.366 304.56 L 923.366 304.56 z M 923.294 303.71 L 923.208 304.084 L 922.977 304.372 L 922.631 304.56 L 922.206 304.625 L 921.933 304.589 L 921.738 304.473 L 921.616 304.272 L 921.58 303.991 L 921.608 303.738 L 921.724 303.558 L 922.185 303.357 L 922.768 303.27 L 923.294 303.097 L 923.294 303.71 L 923.294 303.71 z M 927.783 301.793 L 927.559 301.469 L 927.307 301.238 L 927.012 301.109 L 926.673 301.058 L 926.061 301.202 L 925.585 301.606 L 925.276 302.254 L 925.167 303.126 L 925.276 304.005 L 925.585 304.653 L 926.061 305.064 L 926.673 305.201 L 927.012 305.158 L 927.3 305.035 L 927.552 304.812 L 927.783 304.473 L 927.783 306.563 L 928.417 306.563 L 928.417 301.195 L 927.783 301.195 L 927.783 301.793 L 927.783 301.793 z M 925.816 303.126 L 925.881 302.485 L 926.082 302.017 L 926.385 301.728 L 926.781 301.628 L 927.199 301.728 L 927.516 302.009 L 927.703 302.478 L 927.776 303.126 L 927.703 303.782 L 927.516 304.25 L 927.199 304.538 L 926.781 304.632 L 926.385 304.538 L 926.082 304.25 L 925.881 303.774 L 925.816 303.126 L 925.816 303.126 z M 932.725 301.195 L 932.091 301.195 L 932.091 303.429 L 932.019 303.947 L 931.81 304.322 L 931.486 304.553 L 931.061 304.625 L 930.722 304.567 L 930.506 304.394 L 930.384 304.099 L 930.355 303.681 L 930.355 301.195 L 929.721 301.195 L 929.721 303.738 L 929.742 304.25 L 929.879 304.675 L 930.297 305.064 L 930.967 305.201 L 931.327 305.151 L 931.637 305.021 L 931.904 304.798 L 932.12 304.473 L 932.12 305.064 L 932.725 305.064 L 932.725 301.195 L 932.725 301.195 z M 934.634 303.313 L 937.17 303.313 L 937.177 303.018 L 937.062 302.189 L 936.745 301.57 L 936.241 301.195 L 935.571 301.058 L 934.915 301.202 L 934.411 301.606 L 934.087 302.261 L 933.971 303.126 L 934.08 304.012 L 934.404 304.661 L 934.901 305.064 L 935.549 305.201 L 936.111 305.107 L 936.572 304.862 L 936.911 304.473 L 937.105 303.955 L 936.479 303.955 L 936.349 304.243 L 936.162 304.459 L 935.628 304.632 L 935.218 304.553 L 934.908 304.3 L 934.706 303.89 L 934.634 303.335 L 934.634 303.313 L 934.634 303.313 z M 934.634 302.78 L 934.714 302.283 L 934.908 301.916 L 935.203 301.692 L 935.592 301.613 L 935.974 301.692 L 936.27 301.916 L 936.45 302.283 L 936.515 302.78 L 934.634 302.78 L 934.634 302.78 z M 945.131 304.466 L 945.131 305.064 L 945.765 305.064 L 945.765 299.891 L 945.139 299.891 L 945.139 301.786 L 944.656 301.238 L 944.36 301.109 L 944.022 301.058 L 943.409 301.202 L 942.934 301.606 L 942.624 302.254 L 942.516 303.126 L 942.624 303.998 L 942.934 304.653 L 943.409 305.064 L 944.022 305.201 L 944.36 305.151 L 944.663 305.021 L 945.131 304.466 L 945.131 304.466 z M 944.13 301.628 L 944.548 301.728 L 944.865 302.009 L 945.052 302.478 L 945.124 303.126 L 945.052 303.782 L 944.865 304.25 L 944.548 304.538 L 944.13 304.632 L 943.734 304.538 L 943.431 304.25 L 943.229 303.774 L 943.164 303.126 L 943.229 302.485 L 943.431 302.017 L 943.734 301.728 L 944.13 301.628 L 944.13 301.628 z M 950.074 301.195 L 949.44 301.195 L 949.44 303.429 L 949.368 303.947 L 949.159 304.322 L 948.834 304.553 L 948.409 304.625 L 948.071 304.567 L 947.855 304.394 L 947.732 304.099 L 947.703 303.681 L 947.703 301.195 L 947.069 301.195 L 947.069 303.738 L 947.091 304.25 L 947.228 304.675 L 947.646 305.064 L 948.316 305.201 L 948.676 305.151 L 948.986 305.021 L 949.252 304.798 L 949.469 304.473 L 949.469 305.064 L 950.074 305.064 L 950.074 301.195 L 950.074 301.195 z M 956.363 304.466 L 956.832 305.021 L 957.473 305.201 L 958.078 305.064 L 958.561 304.653 L 958.863 303.998 L 958.979 303.126 L 958.863 302.254 L 958.553 301.606 L 958.078 301.202 L 957.473 301.058 L 956.839 301.246 L 956.579 301.476 L 956.363 301.786 L 956.363 299.891 L 955.729 299.891 L 955.729 305.064 L 956.363 305.064 L 956.363 304.466 L 956.363 304.466 z M 958.33 303.126 L 958.258 303.774 L 958.064 304.25 L 957.754 304.538 L 957.365 304.632 L 956.94 304.538 L 956.63 304.25 L 956.435 303.782 L 956.37 303.126 L 956.435 302.478 L 956.63 302.009 L 956.94 301.728 L 957.365 301.628 L 957.754 301.728 L 958.064 302.017 L 958.258 302.485 L 958.33 303.126 L 958.33 303.126 z M 962.401 304.56 L 962.401 304.581 L 962.437 304.826 L 962.545 304.999 L 962.999 305.136 L 963.352 305.078 L 963.352 304.589 L 963.2 304.61 L 962.999 304.517 L 962.963 304.228 L 962.963 302.225 L 962.876 301.714 L 962.624 301.354 L 962.185 301.138 L 961.565 301.058 L 960.96 301.145 L 960.513 301.39 L 960.232 301.772 L 960.138 302.276 L 960.138 302.319 L 960.708 302.319 L 960.758 302.017 L 960.917 301.8 L 961.176 301.671 L 961.543 301.62 L 961.896 301.656 L 962.149 301.764 L 962.3 301.952 L 962.35 302.211 L 962.321 302.514 L 962.206 302.665 L 961.918 302.737 L 961.378 302.795 L 960.758 302.924 L 960.319 303.155 L 960.059 303.515 L 959.98 304.048 L 960.052 304.524 L 960.275 304.877 L 960.636 305.1 L 961.133 305.179 L 961.803 305.028 L 962.401 304.56 L 962.401 304.56 z M 962.329 303.71 L 962.242 304.084 L 962.012 304.372 L 961.666 304.56 L 961.241 304.625 L 960.967 304.589 L 960.772 304.473 L 960.65 304.272 L 960.614 303.991 L 960.643 303.738 L 960.758 303.558 L 961.219 303.357 L 961.803 303.27 L 962.329 303.097 L 962.329 303.71 L 962.329 303.71 z M 966.334 302.809 L 965.722 302.665 L 965.268 302.499 L 965.117 302.161 L 965.16 301.923 L 965.311 301.75 L 965.556 301.642 L 965.909 301.599 L 966.248 301.642 L 966.515 301.772 L 966.687 301.966 L 966.76 302.225 L 967.379 302.225 L 967.379 302.211 L 967.271 301.743 L 966.976 301.375 L 966.515 301.145 L 965.909 301.058 L 965.297 301.145 L 964.85 301.383 L 964.569 301.736 L 964.483 302.182 L 964.548 302.615 L 964.749 302.917 L 965.081 303.133 L 965.564 303.285 L 966.27 303.457 L 966.702 303.638 L 966.817 303.782 L 966.86 303.998 L 966.796 304.264 L 966.623 304.466 L 966.342 304.596 L 965.967 304.639 L 965.571 304.596 L 965.283 304.445 L 965.088 304.2 L 965.009 303.861 L 964.396 303.861 L 964.497 304.437 L 964.793 304.855 L 965.261 305.107 L 965.909 305.201 L 966.587 305.107 L 967.084 304.855 L 967.386 304.452 L 967.494 303.926 L 967.415 303.472 L 967.192 303.162 L 966.824 302.96 L 966.334 302.809 L 966.334 302.809 z" stroke="none" fill-rule="evenodd" fill="rgb(0, 0, 0)"/></g></svg>