<?xml version="1.0" encoding="UTF-8" standalone="no"?>
<svg
   xmlns:dsy="http://www.3ds.com/print"
   xmlns:dc="http://purl.org/dc/elements/1.1/"
   xmlns:cc="http://creativecommons.org/ns#"
   xmlns:rdf="http://www.w3.org/1999/02/22-rdf-syntax-ns#"
   xmlns:svg="http://www.w3.org/2000/svg"
   xmlns="http://www.w3.org/2000/svg"
   xmlns:sodipodi="http://sodipodi.sourceforge.net/DTD/sodipodi-0.dtd"
   xmlns:inkscape="http://www.inkscape.org/namespaces/inkscape"
   dsy:text-version="18000"
   width="297"
   height="210"
   viewBox="0 0 297 210"
   version="1.1"
   id="svg56"
   sodipodi:docname="FD.svg"
   inkscape:version="0.92.4 (5da689c313, 2019-01-14)">
  <metadata
     id="metadata62">
    <rdf:RDF>
      <cc:Work
         rdf:about="">
        <dc:format>image/svg+xml</dc:format>
        <dc:type
           rdf:resource="http://purl.org/dc/dcmitype/StillImage" />
      </cc:Work>
    </rdf:RDF>
  </metadata>
  <defs
     id="defs60" />
  <sodipodi:namedview
     pagecolor="#ffffff"
     bordercolor="#666666"
     borderopacity="1"
     objecttolerance="10"
     gridtolerance="10"
     guidetolerance="10"
     inkscape:pageopacity="0"
     inkscape:pageshadow="2"
     inkscape:window-width="1920"
     inkscape:window-height="1017"
     id="namedview58"
     showgrid="false"
     inkscape:zoom="8"
     inkscape:cx="53.409534"
     inkscape:cy="194.6875"
     inkscape:window-x="1912"
     inkscape:window-y="-8"
     inkscape:window-maximized="1"
     inkscape:current-layer="svg56" />
  <g
     stroke="rgb(0, 0, 0)"
     stroke-width="0.35"
     stroke-linecap="butt"
     stroke-linejoin="miter"
     fill="none"
     id="g30">
    <path
       d="M 11.3664 6.22021 A 7 7 0 0 0 10.8607 20.0748"
       id="path2"
       style="stroke-width:0.18897638;stroke-miterlimit:4;stroke-dasharray:none;stroke:#ff0000;stroke-opacity:1" />
    <path
       d="M 11.3664 6.22021 L 46.9806 2.53366"
       id="path4"
       style="stroke-width:0.18897638;stroke-miterlimit:4;stroke-dasharray:none;stroke:#ff0000;stroke-opacity:1" />
    <path
       d="M 10.8607 20.0748 L 46.1115 26.3476"
       id="path6"
       style="stroke-width:0.18897638;stroke-miterlimit:4;stroke-dasharray:none;stroke:#ff0000;stroke-opacity:1" />
    <circle
       cx="12.0871"
       cy="13.183"
       r="3.2"
       id="circle8"
       style="stroke-width:0.18897638;stroke-miterlimit:4;stroke-dasharray:none;stroke:#ff0000;stroke-opacity:1" />
    <path
       d="M 46.1436 25.4672 L 46.1115 26.3476"
       id="path10"
       style="stroke-width:0.18897638;stroke-miterlimit:4;stroke-dasharray:none;stroke:#ff0000;stroke-opacity:1" />
    <path
       d="M 46.9806 2.53366 L 46.9755 2.67453"
       id="path12"
       style="stroke:#ff0000;stroke-opacity:1;stroke-width:0.18897638;stroke-miterlimit:4;stroke-dasharray:none" />
    <path
       d="M 46.9755 2.67451 A 12.9543 12.5 -2.18947 0 0 46.1436 25.4672"
       id="path14"
       style="stroke-width:0.18897638;stroke-miterlimit:4;stroke-dasharray:none;stroke:#ff0000;stroke-opacity:1" />
    <path
       d="M 47.3805 7.30811 A 7 7 0 0 0 47.8862 21.1626"
       id="path16"
       style="stroke-width:0.18897638;stroke-miterlimit:4;stroke-dasharray:none;stroke:#ff0000;stroke-opacity:1" />
    <path
       d="M 47.8862 21.1626 L 83.5004 24.8492"
       id="path18"
       style="stroke-width:0.18897638;stroke-miterlimit:4;stroke-dasharray:none;stroke:#ff0000;stroke-opacity:1" />
    <path
       d="M 47.3805 7.30811 L 82.6313 1.03523"
       id="path20"
       style="stroke-width:0.18897638;stroke-miterlimit:4;stroke-dasharray:none;stroke:#ff0000;stroke-opacity:1" />
    <circle
       cx="48.6069"
       cy="14.1998"
       r="3.2"
       id="circle22"
       style="stroke-width:0.18897638;stroke-miterlimit:4;stroke-dasharray:none;stroke:#ff0000;stroke-opacity:1" />
    <path
       d="M 82.6855 2.52206 L 82.6313 1.03523"
       id="path24"
       style="stroke-width:0.18897638;stroke-miterlimit:4;stroke-dasharray:none;stroke:#ff0000;stroke-opacity:1" />
    <path
       d="M 83.5004 24.8492 L 83.4786 24.2531"
       id="path26"
       style="stroke-width:0.18897638;stroke-miterlimit:4;stroke-dasharray:none;stroke:#ff0000;stroke-opacity:1" />
    <path
       d="M 82.6855 2.52206 A 12.9542 12.5 -357.81 0 0 83.4786 24.2531"
       id="path28"
       style="stroke-width:0.18897638;stroke-miterlimit:4;stroke-dasharray:none;stroke:#ff0000;stroke-opacity:1" />
  </g>
  <g
     stroke="rgb(0, 0, 0)"
     stroke-width="0.13"
     stroke-linecap="butt"
     stroke-linejoin="miter"
     fill="none"
     id="g34">
    <path
       d="M 17.0963 10.6326 L 17.3614 10.6326 L 17.5718 10.0447 L 18.3701 10.0447 L 18.5805 10.6326 L 18.8513 10.6326 L 18.1194 8.62968 L 17.8254 8.62968 L 17.0963 10.6326 L 17.0963 10.6326 z M 17.664 9.79971 L 17.9724 8.91788 L 18.2807 9.79971 L 17.664 9.79971 L 17.664 9.79971 z M 18.8312 10.6326 L 19.0963 10.6326 L 19.3067 10.0447 L 20.1049 10.0447 L 20.3153 10.6326 L 20.5862 10.6326 L 19.8542 8.62968 L 19.5603 8.62968 L 18.8312 10.6326 L 18.8312 10.6326 z M 19.3989 9.79971 L 19.7073 8.91788 L 20.0156 9.79971 L 19.3989 9.79971 L 19.3989 9.79971 z M 20.9407 10.6326 L 21.1943 10.6326 L 21.1943 9.74785 L 21.2202 9.53459 L 21.298 9.38185 L 21.4248 9.28963 L 21.5949 9.25793 L 21.7217 9.27811 L 21.8168 9.33574 L 21.8744 9.43372 L 21.8946 9.56628 L 22.1511 9.56628 L 22.1165 9.33286 L 22.0214 9.16571 L 21.8629 9.06485 L 21.6467 9.03026 L 21.4998 9.05331 L 21.373 9.11096 L 21.2606 9.20894 L 21.1712 9.34151 L 21.1712 9.08502 L 20.9407 9.08502 L 20.9407 10.6326 L 20.9407 10.6326 z M 22.4796 10.6326 L 22.713 10.6326 L 22.713 9.59799 L 22.7274 9.44237 L 22.7707 9.32997 L 22.8369 9.26369 L 22.9234 9.23776 L 22.9926 9.2608 L 23.0387 9.31845 L 23.0617 9.41643 L 23.0704 9.54611 L 23.0704 10.6326 L 23.2894 10.6326 L 23.2894 9.59799 L 23.3038 9.44525 L 23.347 9.33286 L 23.4162 9.26369 L 23.5026 9.23776 L 23.5718 9.2608 L 23.6179 9.31845 L 23.6467 9.54611 L 23.6467 10.6326 L 23.8802 10.6326 L 23.8802 9.5634 L 23.8658 9.34151 L 23.8196 9.17148 L 23.7274 9.06773 L 23.5776 9.03026 L 23.4018 9.08791 L 23.2663 9.25505 L 23.1597 9.09077 L 22.981 9.03026 L 22.8168 9.08791 L 22.7044 9.24928 L 22.7044 9.08502 L 22.4796 9.08502 L 22.4796 10.6326 L 22.4796 10.6326 z M 26.056 10.6326 L 26.324 10.6326 L 26.324 9.71326 L 27.1655 9.71326 L 27.1655 9.47406 L 26.324 9.47406 L 26.324 8.87465 L 27.3586 8.87465 L 27.3586 8.63257 L 26.056 8.63257 L 26.056 10.6326 L 26.056 10.6326 z M 27.6929 9.87177 L 27.7332 10.232 L 27.86 10.4885 L 28.0733 10.6355 L 28.3816 10.6873 L 28.6871 10.6355 L 28.9003 10.4885 L 29.0271 10.2349 L 29.0704 9.87177 L 29.0704 8.63257 L 28.8024 8.63257 L 28.8024 9.88617 L 28.7764 10.1311 L 28.6986 10.3069 L 28.566 10.4107 L 28.3816 10.4453 L 28.1914 10.4107 L 28.0588 10.3069 L 27.981 10.134 L 27.958 9.88617 L 27.958 8.63257 L 27.6929 8.63257 L 27.6929 9.87177 L 27.6929 9.87177 z M 29.7678 9.97263 L 30.4652 9.97263 L 30.4652 9.74496 L 29.7678 9.74496 L 29.7678 9.97263 L 29.7678 9.97263 z M 31.2606 10.6326 L 31.5286 10.6326 L 31.5286 9.71326 L 32.3701 9.71326 L 32.3701 9.47406 L 31.5286 9.47406 L 31.5286 8.87465 L 32.5632 8.87465 L 32.5632 8.63257 L 31.2606 8.63257 L 31.2606 10.6326 L 31.2606 10.6326 z M 32.8975 9.87177 L 32.9378 10.232 L 33.0646 10.4885 L 33.2779 10.6355 L 33.5862 10.6873 L 33.8917 10.6355 L 34.105 10.4885 L 34.2318 10.2349 L 34.275 9.87177 L 34.275 8.63257 L 34.007 8.63257 L 34.007 9.88617 L 33.981 10.1311 L 33.9032 10.3069 L 33.7707 10.4107 L 33.5862 10.4453 L 33.396 10.4107 L 33.2635 10.3069 L 33.1856 10.134 L 33.1626 9.88617 L 33.1626 8.63257 L 32.8975 8.63257 L 32.8975 9.87177 L 32.8975 9.87177 z M 34.9724 9.97263 L 35.6698 9.97263 L 35.6698 9.74496 L 34.9724 9.74496 L 34.9724 9.97263 L 34.9724 9.97263 z"
       stroke="none"
       fill-rule="evenodd"
       fill="rgb(0, 0, 0)"
       id="path32" />
  </g>
  <g
     stroke="rgb(0, 0, 0)"
     stroke-width="0.13"
     stroke-linecap="butt"
     stroke-linejoin="miter"
     fill="none"
     id="g38">
    <path
       d="M 17.9695 12.0879 L 17.3038 12.0879 L 17.3038 14.0879 L 17.9695 14.0879 L 18.2836 14.0245 L 18.5171 13.8314 L 18.6611 13.5173 L 18.713 13.0879 L 18.6669 12.6499 L 18.6093 12.477 L 18.5286 12.3386 L 18.2952 12.1513 L 18.1424 12.1052 L 17.9695 12.0879 L 17.9695 12.0879 z M 17.9493 12.3271 L 18.1684 12.3703 L 18.3182 12.5029 L 18.4075 12.7392 L 18.4364 13.0879 L 18.4047 13.4251 L 18.3153 13.6614 L 18.1626 13.8026 L 17.9493 13.8487 L 17.5718 13.8487 L 17.5718 12.3271 L 17.9493 12.3271 L 17.9493 12.3271 z M 19.0358 13.3156 L 19.0819 13.6672 L 19.2145 13.9265 L 19.4248 14.0879 L 19.7073 14.1427 L 19.9868 14.0879 L 20.1972 13.9294 L 20.3297 13.67 L 20.3787 13.3156 L 20.3297 12.964 L 20.1972 12.7017 L 19.9868 12.5432 L 19.7073 12.4856 L 19.4248 12.5432 L 19.2145 12.7046 L 19.0819 12.964 L 19.0358 13.3156 L 19.0358 13.3156 z M 19.2952 13.3127 L 19.3211 13.0533 L 19.4018 12.866 L 19.5315 12.7507 L 19.7073 12.7104 L 19.8802 12.7507 L 20.0098 12.8631 L 20.0905 13.0533 L 20.1194 13.3127 L 20.0905 13.5749 L 20.0098 13.7651 L 19.8802 13.8804 L 19.7073 13.9179 L 19.5315 13.8804 L 19.4018 13.7651 L 19.3211 13.5749 L 19.2952 13.3127 L 19.2952 13.3127 z M 21.2116 14.0879 L 21.4421 12.7738 L 21.6727 14.0879 L 21.9147 14.0879 L 22.2952 12.5404 L 22.0502 12.5404 L 21.7937 13.8545 L 21.566 12.5404 L 21.3153 12.5404 L 21.0877 13.8545 L 20.8312 12.5404 L 20.5891 12.5404 L 20.9695 14.0879 L 21.2116 14.0879 L 21.2116 14.0879 z M 22.5805 14.0879 L 22.8341 14.0879 L 22.8341 13.1945 L 22.86 12.9899 L 22.9436 12.8401 L 23.0733 12.7478 L 23.2462 12.7133 L 23.3845 12.7421 L 23.4709 12.8199 L 23.5142 12.9496 L 23.5286 13.1225 L 23.5286 14.0879 L 23.7822 14.0879 L 23.7822 13.0706 L 23.7707 12.866 L 23.7188 12.696 L 23.5488 12.5404 L 23.2836 12.4856 L 23.1367 12.5058 L 23.0127 12.5605 L 22.9061 12.6527 L 22.8225 12.7767 L 22.8225 12.5404 L 22.5805 12.5404 L 22.5805 14.0879 L 22.5805 14.0879 z M 24.5632 13.428 L 25.2606 13.428 L 25.2606 13.2003 L 24.5632 13.2003 L 24.5632 13.428 L 24.5632 13.428 z M 26.0617 14.0879 L 27.347 14.0879 L 27.347 13.8458 L 26.3269 13.8458 L 26.3269 12.0879 L 26.0617 12.0879 L 26.0617 14.0879 L 26.0617 14.0879 z M 28.007 13.3876 L 29.0214 13.3876 L 29.0243 13.2695 L 28.9782 12.938 L 28.8514 12.6902 L 28.6496 12.5404 L 28.3816 12.4856 L 28.1194 12.5432 L 27.9176 12.7046 L 27.788 12.9669 L 27.7418 13.3127 L 27.7851 13.6672 L 27.9148 13.9265 L 28.1136 14.0879 L 28.373 14.1427 L 28.5977 14.1052 L 28.7822 14.0072 L 28.9176 13.8516 L 28.9954 13.6441 L 28.7447 13.6441 L 28.6929 13.7594 L 28.6179 13.8458 L 28.4047 13.915 L 28.2404 13.8833 L 28.1165 13.7824 L 28.0358 13.6182 L 28.007 13.3963 L 28.007 13.3876 L 28.007 13.3876 z M 28.007 13.1744 L 28.0387 12.9755 L 28.1165 12.8285 L 28.2346 12.7392 L 28.3903 12.7075 L 28.543 12.7392 L 28.6611 12.8285 L 28.7332 12.9755 L 28.7591 13.1744 L 28.007 13.1744 L 28.007 13.1744 z M 29.8715 12.8084 L 29.8715 14.0879 L 30.1251 14.0879 L 30.1251 12.8084 L 30.7015 12.8084 L 30.7015 12.5922 L 30.1251 12.5922 L 30.1251 12.4971 L 30.1453 12.3819 L 30.2116 12.304 L 30.324 12.2579 L 30.4854 12.2406 L 30.7015 12.2522 L 30.7015 12.0332 L 30.4277 12.0187 L 30.1799 12.0447 L 30.007 12.1225 L 29.9032 12.2579 L 29.8715 12.451 L 29.8715 12.5922 L 29.4075 12.5922 L 29.4075 12.8084 L 29.8715 12.8084 L 29.8715 12.8084 z M 31.5949 12.8084 L 31.5949 13.5836 L 31.6122 13.8343 L 31.6929 14.0072 L 31.8542 14.1081 L 32.128 14.1427 L 32.4277 14.1283 L 32.4277 13.9092 L 32.2087 13.9265 L 32.0099 13.9035 L 31.9032 13.8314 L 31.8571 13.7104 L 31.8485 13.5404 L 31.8485 12.8084 L 32.4277 12.8084 L 32.4277 12.5922 L 31.8485 12.5922 L 31.8485 12.1398 L 31.5949 12.1398 L 31.5949 12.5922 L 31.1568 12.5922 L 31.1568 12.8084 L 31.5949 12.8084 L 31.5949 12.8084 z M 33.2375 13.428 L 33.9349 13.428 L 33.9349 13.2003 L 33.2375 13.2003 L 33.2375 13.428 L 33.2375 13.428 z"
       stroke="none"
       fill-rule="evenodd"
       fill="rgb(0, 0, 0)"
       id="path36" />
  </g>
  <g
     stroke="rgb(0, 0, 0)"
     stroke-width="0.13"
     stroke-linecap="butt"
     stroke-linejoin="miter"
     fill="none"
     id="g42">
    <path
       d="M 17.2836 16.7824 L 17.324 17.1427 L 17.4508 17.3991 L 17.664 17.5461 L 17.9724 17.598 L 18.2779 17.5461 L 18.4911 17.3991 L 18.6179 17.1455 L 18.6611 16.7824 L 18.6611 15.5432 L 18.3931 15.5432 L 18.3931 16.7968 L 18.3672 17.0418 L 18.2894 17.2176 L 18.1568 17.3213 L 17.9724 17.3559 L 17.7822 17.3213 L 17.6496 17.2176 L 17.5718 17.0447 L 17.5488 16.7968 L 17.5488 15.5432 L 17.2836 15.5432 L 17.2836 16.7824 L 17.2836 16.7824 z M 19.0992 17.5432 L 19.3643 17.5432 L 19.3643 16.6989 L 19.6583 16.6989 L 19.9551 16.6844 L 20.1914 16.5836 L 20.3441 16.3876 L 20.396 16.1196 L 20.3557 15.8718 L 20.2404 15.6902 L 20.0502 15.5807 L 19.7908 15.5432 L 19.0992 15.5432 L 19.0992 17.5432 L 19.0992 17.5432 z M 19.7188 15.7882 L 19.8917 15.8055 L 20.0185 15.8602 L 20.0934 15.9611 L 20.1194 16.1196 L 20.0905 16.2867 L 20.0127 16.3876 L 19.8802 16.4395 L 19.6986 16.4539 L 19.3643 16.4539 L 19.3643 15.7882 L 19.7188 15.7882 L 19.7188 15.7882 z"
       stroke="none"
       fill-rule="evenodd"
       fill="rgb(0, 0, 0)"
       id="path40" />
  </g>
  <g
     stroke="rgb(0, 0, 0)"
     stroke-width="0.13"
     stroke-linecap="butt"
     stroke-linejoin="miter"
     fill="none"
     id="g46">
    <path
       d="M 54.0025 11.7205 L 54.2676 11.7205 L 54.478 11.1326 L 55.2762 11.1326 L 55.4866 11.7205 L 55.7575 11.7205 L 55.0255 9.71758 L 54.7316 9.71758 L 54.0025 11.7205 L 54.0025 11.7205 z M 54.5702 10.8876 L 54.8785 10.0058 L 55.1869 10.8876 L 54.5702 10.8876 L 54.5702 10.8876 z M 55.7373 11.7205 L 56.0025 11.7205 L 56.2128 11.1326 L 57.0111 11.1326 L 57.2215 11.7205 L 57.4924 11.7205 L 56.7604 9.71758 L 56.4664 9.71758 L 55.7373 11.7205 L 55.7373 11.7205 z M 56.305 10.8876 L 56.6134 10.0058 L 56.9218 10.8876 L 56.305 10.8876 L 56.305 10.8876 z M 57.8468 11.7205 L 58.1004 11.7205 L 58.1004 10.8357 L 58.1264 10.6225 L 58.2042 10.4697 L 58.331 10.3775 L 58.501 10.3458 L 58.6278 10.366 L 58.7229 10.4236 L 58.7806 10.5216 L 58.8007 10.6542 L 59.0572 10.6542 L 59.0226 10.4207 L 58.9275 10.2536 L 58.769 10.1527 L 58.5529 10.1181 L 58.4059 10.1412 L 58.2791 10.1989 L 58.1667 10.2968 L 58.0774 10.4294 L 58.0774 10.1729 L 57.8468 10.1729 L 57.8468 11.7205 L 57.8468 11.7205 z M 59.3857 11.7205 L 59.6192 11.7205 L 59.6192 10.6859 L 59.6336 10.5303 L 59.6768 10.4179 L 59.7431 10.3516 L 59.8295 10.3257 L 59.8987 10.3487 L 59.9448 10.4063 L 59.9679 10.5043 L 59.9765 10.634 L 59.9765 11.7205 L 60.1955 11.7205 L 60.1955 10.6859 L 60.2099 10.5331 L 60.2532 10.4207 L 60.3223 10.3516 L 60.4088 10.3257 L 60.478 10.3487 L 60.5241 10.4063 L 60.5529 10.634 L 60.5529 11.7205 L 60.7863 11.7205 L 60.7863 10.6513 L 60.7719 10.4294 L 60.7258 10.2594 L 60.6336 10.1556 L 60.4837 10.1181 L 60.3079 10.1758 L 60.1725 10.3429 L 60.0659 10.1787 L 59.8872 10.1181 L 59.7229 10.1758 L 59.6105 10.3372 L 59.6105 10.1729 L 59.3857 10.1729 L 59.3857 11.7205 L 59.3857 11.7205 z M 62.9621 11.7205 L 63.2301 11.7205 L 63.2301 10.8011 L 64.0716 10.8011 L 64.0716 10.562 L 63.2301 10.562 L 63.2301 9.96254 L 64.2647 9.96254 L 64.2647 9.72046 L 62.9621 9.72046 L 62.9621 11.7205 L 62.9621 11.7205 z M 64.599 10.9597 L 64.6393 11.3199 L 64.7661 11.5764 L 64.9794 11.7233 L 65.2878 11.7752 L 65.5932 11.7233 L 65.8065 11.5764 L 65.9333 11.3228 L 65.9765 10.9597 L 65.9765 9.72046 L 65.7085 9.72046 L 65.7085 10.9741 L 65.6826 11.219 L 65.6048 11.3948 L 65.4722 11.4986 L 65.2878 11.5331 L 65.0975 11.4986 L 64.965 11.3948 L 64.8872 11.2219 L 64.8641 10.9741 L 64.8641 9.72046 L 64.599 9.72046 L 64.599 10.9597 L 64.599 10.9597 z M 66.6739 11.0605 L 67.3713 11.0605 L 67.3713 10.8329 L 66.6739 10.8329 L 66.6739 11.0605 L 66.6739 11.0605 z M 68.1667 11.7205 L 68.4347 11.7205 L 68.4347 10.8011 L 69.2762 10.8011 L 69.2762 10.562 L 68.4347 10.562 L 68.4347 9.96254 L 69.4693 9.96254 L 69.4693 9.72046 L 68.1667 9.72046 L 68.1667 11.7205 L 68.1667 11.7205 z M 69.8036 10.9597 L 69.8439 11.3199 L 69.9707 11.5764 L 70.184 11.7233 L 70.4924 11.7752 L 70.7978 11.7233 L 71.0111 11.5764 L 71.1379 11.3228 L 71.1811 10.9597 L 71.1811 9.72046 L 70.9131 9.72046 L 70.9131 10.9741 L 70.8872 11.219 L 70.8094 11.3948 L 70.6768 11.4986 L 70.4924 11.5331 L 70.3022 11.4986 L 70.1696 11.3948 L 70.0918 11.2219 L 70.0687 10.9741 L 70.0687 9.72046 L 69.8036 9.72046 L 69.8036 10.9597 L 69.8036 10.9597 z M 71.8785 11.0605 L 72.5759 11.0605 L 72.5759 10.8329 L 71.8785 10.8329 L 71.8785 11.0605 L 71.8785 11.0605 z"
       stroke="none"
       fill-rule="evenodd"
       fill="rgb(0, 0, 0)"
       id="path44" />
  </g>
  <g
     stroke="rgb(0, 0, 0)"
     stroke-width="0.13"
     stroke-linecap="butt"
     stroke-linejoin="miter"
     fill="none"
     id="g50">
    <path
       d="M 54.8756 13.1758 L 54.2099 13.1758 L 54.2099 15.1758 L 54.8756 15.1758 L 55.1898 15.1124 L 55.4232 14.9193 L 55.5673 14.6052 L 55.6192 14.1758 L 55.5731 13.7378 L 55.5154 13.5648 L 55.4347 13.4265 L 55.2013 13.2392 L 55.0486 13.1931 L 54.8756 13.1758 L 54.8756 13.1758 z M 54.8555 13.415 L 55.0745 13.4582 L 55.2244 13.5908 L 55.3137 13.8271 L 55.3425 14.1758 L 55.3108 14.513 L 55.2215 14.7493 L 55.0687 14.8905 L 54.8555 14.9366 L 54.478 14.9366 L 54.478 13.415 L 54.8555 13.415 L 54.8555 13.415 z M 55.9419 14.4035 L 55.988 14.7551 L 56.1206 15.0144 L 56.331 15.1758 L 56.6134 15.2305 L 56.8929 15.1758 L 57.1033 15.0173 L 57.2359 14.7579 L 57.2849 14.4035 L 57.2359 14.0519 L 57.1033 13.7896 L 56.8929 13.6311 L 56.6134 13.5735 L 56.331 13.6311 L 56.1206 13.7925 L 55.988 14.0519 L 55.9419 14.4035 L 55.9419 14.4035 z M 56.2013 14.4006 L 56.2272 14.1412 L 56.3079 13.9539 L 56.4376 13.8386 L 56.6134 13.7983 L 56.7863 13.8386 L 56.916 13.951 L 56.9967 14.1412 L 57.0255 14.4006 L 56.9967 14.6628 L 56.916 14.853 L 56.7863 14.9683 L 56.6134 15.0058 L 56.4376 14.9683 L 56.3079 14.853 L 56.2272 14.6628 L 56.2013 14.4006 L 56.2013 14.4006 z M 58.1177 15.1758 L 58.3483 13.8617 L 58.5788 15.1758 L 58.8209 15.1758 L 59.2013 13.6283 L 58.9563 13.6283 L 58.6999 14.9424 L 58.4722 13.6283 L 58.2215 13.6283 L 57.9938 14.9424 L 57.7373 13.6283 L 57.4952 13.6283 L 57.8757 15.1758 L 58.1177 15.1758 L 58.1177 15.1758 z M 59.4866 15.1758 L 59.7402 15.1758 L 59.7402 14.2824 L 59.7661 14.0778 L 59.8497 13.928 L 59.9794 13.8357 L 60.1523 13.8012 L 60.2906 13.83 L 60.3771 13.9078 L 60.4203 14.0375 L 60.4347 14.2104 L 60.4347 15.1758 L 60.6883 15.1758 L 60.6883 14.1585 L 60.6768 13.9539 L 60.6249 13.7839 L 60.4549 13.6283 L 60.1898 13.5735 L 60.0428 13.5937 L 59.9189 13.6484 L 59.8123 13.7406 L 59.7287 13.8646 L 59.7287 13.6283 L 59.4866 13.6283 L 59.4866 15.1758 L 59.4866 15.1758 z M 61.4693 14.5159 L 62.1667 14.5159 L 62.1667 14.2882 L 61.4693 14.2882 L 61.4693 14.5159 L 61.4693 14.5159 z M 62.9679 15.1758 L 64.2532 15.1758 L 64.2532 14.9337 L 63.233 14.9337 L 63.233 13.1758 L 62.9679 13.1758 L 62.9679 15.1758 L 62.9679 15.1758 z M 64.9131 14.4755 L 65.9275 14.4755 L 65.9304 14.3573 L 65.8843 14.0259 L 65.7575 13.7781 L 65.5558 13.6283 L 65.2878 13.5735 L 65.0255 13.6311 L 64.8238 13.7925 L 64.6941 14.0548 L 64.648 14.4006 L 64.6912 14.7551 L 64.8209 15.0144 L 65.0197 15.1758 L 65.2791 15.2305 L 65.5039 15.1931 L 65.6883 15.0951 L 65.8238 14.9395 L 65.9016 14.732 L 65.6509 14.732 L 65.599 14.8473 L 65.5241 14.9337 L 65.3108 15.0029 L 65.1465 14.9712 L 65.0226 14.8703 L 64.9419 14.7061 L 64.9131 14.4842 L 64.9131 14.4755 L 64.9131 14.4755 z M 64.9131 14.2623 L 64.9448 14.0634 L 65.0226 13.9164 L 65.1408 13.8271 L 65.2964 13.7954 L 65.4491 13.8271 L 65.5673 13.9164 L 65.6393 14.0634 L 65.6653 14.2623 L 64.9131 14.2623 L 64.9131 14.2623 z M 66.7777 13.8963 L 66.7777 15.1758 L 67.0313 15.1758 L 67.0313 13.8963 L 67.6076 13.8963 L 67.6076 13.6801 L 67.0313 13.6801 L 67.0313 13.585 L 67.0514 13.4697 L 67.1177 13.3919 L 67.2301 13.3458 L 67.3915 13.3285 L 67.6076 13.3401 L 67.6076 13.121 L 67.3339 13.1066 L 67.086 13.1326 L 66.9131 13.2104 L 66.8094 13.3458 L 66.7777 13.5389 L 66.7777 13.6801 L 66.3137 13.6801 L 66.3137 13.8963 L 66.7777 13.8963 L 66.7777 13.8963 z M 68.501 13.8963 L 68.501 14.6715 L 68.5183 14.9222 L 68.599 15.0951 L 68.7604 15.196 L 69.0341 15.2305 L 69.3339 15.2161 L 69.3339 14.9971 L 69.1148 15.0144 L 68.916 14.9914 L 68.8094 14.9193 L 68.7633 14.7983 L 68.7546 14.6283 L 68.7546 13.8963 L 69.3339 13.8963 L 69.3339 13.6801 L 68.7546 13.6801 L 68.7546 13.2277 L 68.501 13.2277 L 68.501 13.6801 L 68.063 13.6801 L 68.063 13.8963 L 68.501 13.8963 L 68.501 13.8963 z M 70.1437 14.5159 L 70.8411 14.5159 L 70.8411 14.2882 L 70.1437 14.2882 L 70.1437 14.5159 L 70.1437 14.5159 z"
       stroke="none"
       fill-rule="evenodd"
       fill="rgb(0, 0, 0)"
       id="path48" />
  </g>
  <g
     stroke="rgb(0, 0, 0)"
     stroke-width="0.13"
     stroke-linecap="butt"
     stroke-linejoin="miter"
     fill="none"
     id="g54">
    <path
       d="M 54.8756 16.6311 L 54.2099 16.6311 L 54.2099 18.6311 L 54.8756 18.6311 L 55.1898 18.5677 L 55.4232 18.3746 L 55.5673 18.0605 L 55.6192 17.6311 L 55.5731 17.1931 L 55.5154 17.0202 L 55.4347 16.8818 L 55.2013 16.6945 L 55.0486 16.6484 L 54.8756 16.6311 L 54.8756 16.6311 z M 54.8555 16.8703 L 55.0745 16.9135 L 55.2244 17.0461 L 55.3137 17.2824 L 55.3425 17.6311 L 55.3108 17.9683 L 55.2215 18.2046 L 55.0687 18.3458 L 54.8555 18.3919 L 54.478 18.3919 L 54.478 16.8703 L 54.8555 16.8703 L 54.8555 16.8703 z M 55.8728 17.6311 L 55.9246 18.0807 L 56.0745 18.4121 L 56.3079 18.6167 L 56.6134 18.6859 L 56.916 18.6167 L 57.1523 18.4121 L 57.2993 18.0807 L 57.354 17.6311 L 57.2993 17.1844 L 57.2359 17.0029 L 57.1523 16.853 L 56.916 16.6484 L 56.7719 16.5965 L 56.6134 16.5764 L 56.305 16.6484 L 56.0716 16.8501 L 55.9246 17.1815 L 55.8728 17.6311 L 55.8728 17.6311 z M 56.1494 17.6311 L 56.1811 17.2824 L 56.2762 17.0259 L 56.4232 16.8703 L 56.6134 16.8156 L 56.8007 16.8703 L 56.9477 17.0288 L 57.0428 17.2853 L 57.0774 17.6311 L 57.0428 17.9798 L 56.9477 18.2363 L 56.8007 18.3919 L 56.6134 18.4438 L 56.4232 18.3919 L 56.2762 18.2363 L 56.1811 17.9827 L 56.1494 17.6311 L 56.1494 17.6311 z M 57.8036 18.6311 L 58.0572 18.6311 L 58.3454 16.8963 L 58.6422 18.6311 L 58.8843 18.6311 L 59.2359 16.6282 L 59.0053 16.6282 L 58.7575 18.3314 L 58.4722 16.6282 L 58.2215 16.6282 L 57.9419 18.3314 L 57.6941 16.6282 L 57.4578 16.6282 L 57.8036 18.6311 L 57.8036 18.6311 z M 59.4261 18.6311 L 59.6653 18.6311 L 59.6653 16.9913 L 60.4318 18.6311 L 60.7402 18.6311 L 60.7402 16.6311 L 60.4981 16.6311 L 60.4981 18.2709 L 59.7402 16.6311 L 59.4261 16.6311 L 59.4261 18.6311 L 59.4261 18.6311 z"
       stroke="none"
       fill-rule="evenodd"
       fill="rgb(0, 0, 0)"
       id="path52" />
  </g>
</svg>
