<?xml version="1.0" encoding="utf-8" ?><!DOCTYPE svg PUBLIC "-//W3C//DTD SVG 1.1//EN" "http://www.w3.org/Graphics/SVG/1.1/DTD/svg11.dtd" 
[ <!ATTLIST svg 
  xmlns:dsy CDATA #FIXED "http://www.3ds.com/print"  
    dsy:text-version CDATA #IMPLIED > 

  <!ATTLIST text 
  xmlns:dsy CDATA #FIXED "http://www.3ds.com/print" 
    dsy:text-version CDATA #IMPLIED > 
]><svg xmlns="http://www.w3.org/2000/svg" xmlns:dsy="http://www.3ds.com/print" dsy:text-version="18000" width="297" height="210" viewBox="0 0 297 210" version="1.1"><g stroke="rgb(0, 0, 0)" stroke-width="0.35" stroke-linecap="butt" stroke-linejoin="miter" fill="none"><path d="M 156.72 89.83 A 7 7 0 0 0 142.866 89.3244"/><path d="M 156.72 89.83 L 160.407 125.444"/><path d="M 142.866 89.3244 L 136.593 124.575"/><circle cx="149.758" cy="90.5508" r="3.2"/><path d="M 137.473 124.607 L 136.593 124.575"/><path d="M 160.407 125.444 L 160.266 125.439"/><path d="M 160.266 125.439 A 12.9543 12.5 -272.189 0 0 137.473 124.607"/><path d="M 199.204 89.8486 A 7 7 0 0 0 185.35 90.3543"/><path d="M 185.35 90.3543 L 181.663 125.968"/><path d="M 199.204 89.8486 L 205.477 125.099"/><circle cx="192.313" cy="91.075" r="3.2"/><path d="M 203.991 125.154 L 205.477 125.099"/><path d="M 181.663 125.968 L 182.259 125.947"/><path d="M 203.991 125.154 A 12.9542 12.5 -267.81 0 0 182.259 125.947"/><path d="M 9.99999 200 L 287 200"/><path d="M 287 200 L 287 10"/><path d="M 287 10 L 9.99999 10"/><path d="M 9.99999 10 L 9.99999 200"/><path d="M 148.5 10 L 148.5 0"/><path d="M 9.99999 105 L -5.94366e-006 105"/><path d="M 287 105 L 297 105"/><path d="M 222.7 200 L 222.7 207.5"/><path d="M 74.3 200 L 74.3 207.5"/><path d="M 222.7 10 L 222.7 2.5"/><path d="M 74.3 10 L 74.3 2.5"/><path d="M 9.99999 52.5 L 2.49999 52.5"/><path d="M 287 52.5 L 294.5 52.5"/><path d="M 9.99999 157.5 L 2.49999 157.5"/><path d="M 287 157.5 L 294.5 157.5"/><path d="M 198.5 200 L 198.5 205"/><path d="M 188.5 200 L 188.5 202.5"/><path d="M 178.5 200 L 178.5 202.5"/><path d="M 168.5 200 L 168.5 202.5"/><path d="M 287 140 L 287 200"/></g><g stroke="rgb(0, 0, 0)" stroke-width="0.13" stroke-linecap="butt" stroke-linejoin="miter" stroke-dasharray="7, 1, 1, 1" fill="none"><path d="M 153.918 90.5508 L 145.598 90.5508"/><path d="M 149.758 86.3908 L 149.758 94.7108"/><path d="M 196.473 91.075 L 188.153 91.075"/><path d="M 192.313 86.915 L 192.313 95.235"/></g><g stroke="rgb(0, 0, 0)" stroke-width="0.13" stroke-linecap="butt" stroke-linejoin="miter" fill="none"><path d="M 258.267 206.833 L 258.731 206.833 L 259.099 205.804 L 260.496 205.804 L 260.864 206.833 L 261.338 206.833 L 260.057 203.328 L 259.543 203.328 L 258.267 206.833 L 258.267 206.833 z M 259.26 205.376 L 259.8 203.832 L 260.34 205.376 L 259.26 205.376 L 259.26 205.376 z" stroke="none" fill-rule="evenodd" fill="rgb(0, 0, 0)"/></g><g stroke="rgb(0, 0, 0)" stroke-width="0.13" stroke-linecap="butt" stroke-linejoin="miter" fill="none"><path d="M 37.1949 203.333 L 36.03 203.333 L 36.03 206.833 L 37.1949 206.833 L 37.7447 206.722 L 38.1532 206.384 L 38.4053 205.835 L 38.4961 205.083 L 38.4154 204.317 L 38.3145 204.014 L 38.1733 203.772 L 37.7648 203.444 L 37.4975 203.363 L 37.1949 203.333 L 37.1949 203.333 z M 37.1596 203.752 L 37.5429 203.827 L 37.8052 204.059 L 37.9615 204.473 L 38.012 205.083 L 37.9565 205.673 L 37.8001 206.087 L 37.5328 206.334 L 37.1596 206.415 L 36.499 206.415 L 36.499 203.752 L 37.1596 203.752 L 37.1596 203.752 z" stroke="none" fill-rule="evenodd" fill="rgb(0, 0, 0)"/></g><g stroke="rgb(0, 0, 0)" stroke-width="0.13" stroke-linecap="butt" stroke-linejoin="miter" fill="none"><path d="M 185.542 4.36958 L 185.249 4.01657 L 185.053 3.92578 L 184.811 3.89552 L 184.432 3.96109 L 184.16 4.15778 L 183.994 4.47549 L 183.933 4.9193 L 183.933 6.16498 L 187.433 6.16498 L 187.433 4.84869 L 187.363 4.37968 L 187.156 4.03169 L 186.828 3.81483 L 186.384 3.73918 L 186.087 3.78458 L 185.84 3.90561 L 185.658 4.10229 L 185.542 4.36958 L 185.542 4.36958 z M 185.386 5.01512 L 185.386 5.701 L 184.352 5.701 L 184.352 4.97478 L 184.382 4.70244 L 184.473 4.5108 L 184.629 4.39481 L 184.861 4.35446 L 185.093 4.39986 L 185.255 4.52089 L 185.355 4.72766 L 185.386 5.01512 L 185.386 5.01512 z M 187.015 4.90417 L 187.015 5.701 L 185.809 5.701 L 185.809 4.94955 L 185.845 4.63184 L 185.951 4.40489 L 186.132 4.26872 L 186.394 4.22334 L 186.672 4.26872 L 186.863 4.39481 L 186.979 4.60663 L 187.015 4.90417 L 187.015 4.90417 z" stroke="none" fill-rule="evenodd" fill="rgb(0, 0, 0)"/></g><g stroke="rgb(0, 0, 0)" stroke-width="0.13" stroke-linecap="butt" stroke-linejoin="miter" fill="none"><path d="M 111.932 4.183 L 112.356 4.28386 L 112.658 4.45029 L 112.845 4.68227 L 112.905 4.95461 L 112.815 5.28241 L 112.542 5.53961 L 112.098 5.71109 L 111.483 5.76657 L 110.873 5.71109 L 110.424 5.54466 L 110.152 5.28746 L 110.056 4.95461 L 110.106 4.71252 L 110.248 4.50575 L 110.475 4.34438 L 110.787 4.23343 L 110.787 3.75432 L 110.308 3.90561 L 109.945 4.16786 L 109.718 4.52592 L 109.637 4.95461 L 109.763 5.48918 L 110.116 5.89769 L 110.696 6.15994 L 111.483 6.25072 L 112.27 6.15994 L 112.85 5.89769 L 113.208 5.48918 L 113.329 4.95461 L 113.233 4.48558 L 112.966 4.10735 L 112.527 3.84006 L 111.932 3.69884 L 111.932 4.183 L 111.932 4.183 z" stroke="none" fill-rule="evenodd" fill="rgb(0, 0, 0)"/></g><g stroke="rgb(0, 0, 0)" stroke-width="0.13" stroke-linecap="butt" stroke-linejoin="miter" fill="none"><path d="M 261.633 6.53314 L 261.633 6.06915 L 260.604 5.701 L 260.604 4.30403 L 261.633 3.93587 L 261.633 3.46181 L 258.128 4.74278 L 258.128 5.2572 L 261.633 6.53314 L 261.633 6.53314 z M 260.176 5.53961 L 258.632 5 L 260.176 4.46037 L 260.176 5.53961 L 260.176 5.53961 z" stroke="none" fill-rule="evenodd" fill="rgb(0, 0, 0)"/></g><g stroke="rgb(0, 0, 0)" stroke-width="0.13" stroke-linecap="butt" stroke-linejoin="miter" fill="none"><path d="M 35.5332 5.00504 L 35.5332 6.17003 L 39.0332 6.17003 L 39.0332 5.00504 L 38.9223 4.45532 L 38.5844 4.04683 L 38.0346 3.79466 L 37.2832 3.70389 L 36.5166 3.78458 L 36.214 3.88544 L 35.972 4.02666 L 35.6442 4.43515 L 35.5635 4.70244 L 35.5332 5.00504 L 35.5332 5.00504 z M 35.9518 5.04034 L 36.0274 4.65706 L 36.2594 4.39481 L 36.673 4.23846 L 37.2832 4.18803 L 37.8733 4.24352 L 38.2868 4.39986 L 38.5339 4.66714 L 38.6146 5.04034 L 38.6146 5.701 L 35.9518 5.701 L 35.9518 5.04034 L 35.9518 5.04034 z" stroke="none" fill-rule="evenodd" fill="rgb(0, 0, 0)"/></g><g stroke="rgb(0, 0, 0)" stroke-width="0.13" stroke-linecap="butt" stroke-linejoin="miter" fill="none"><path d="M 290.729 79.4838 L 290.729 79.5191 L 290.81 80.0032 L 291.047 80.3663 L 291.42 80.5983 L 291.914 80.6841 L 292.439 80.5983 L 292.832 80.3764 L 293.084 80.0234 L 293.175 79.5695 L 293.135 79.272 L 293.024 79.0299 L 292.842 78.8433 L 292.6 78.7071 L 292.928 78.4348 L 293.044 78.0011 L 292.968 77.6077 L 292.751 77.3102 L 292.398 77.1236 L 291.914 77.058 L 291.46 77.1387 L 291.112 77.3606 L 290.885 77.7136 L 290.81 78.1826 L 290.81 78.2179 L 291.259 78.2179 L 291.299 77.8952 L 291.43 77.6632 L 291.642 77.522 L 291.939 77.4715 L 292.202 77.5119 L 292.393 77.6178 L 292.509 77.7892 L 292.555 78.0212 L 292.509 78.2684 L 292.388 78.4348 L 292.177 78.5356 L 291.889 78.5659 L 291.692 78.5609 L 291.692 78.9593 L 291.939 78.9492 L 292.257 78.9946 L 292.494 79.1156 L 292.635 79.3123 L 292.686 79.5695 L 292.63 79.862 L 292.484 80.0789 L 292.252 80.215 L 291.945 80.2604 L 291.627 80.21 L 291.395 80.0587 L 291.249 79.8166 L 291.193 79.4838 L 290.729 79.4838 L 290.729 79.4838 z" stroke="none" fill-rule="evenodd" fill="rgb(0, 0, 0)"/></g><g stroke="rgb(0, 0, 0)" stroke-width="0.13" stroke-linecap="butt" stroke-linejoin="miter" fill="none"><path d="M 5.73378 80.0209 L 5.76909 80.0209 L 6.25324 79.9402 L 6.61635 79.7032 L 6.84834 79.33 L 6.93407 78.8357 L 6.84834 78.3112 L 6.62644 77.9179 L 6.27341 77.6657 L 5.81952 77.5749 L 5.52197 77.6153 L 5.27989 77.7262 L 5.09329 77.9078 L 4.95713 78.1499 L 4.68479 77.822 L 4.25108 77.706 L 3.8577 77.7817 L 3.56015 77.9986 L 3.37355 78.3516 L 3.30799 78.8357 L 3.38868 79.2896 L 3.61059 79.6376 L 3.96361 79.8645 L 4.43263 79.9402 L 4.46793 79.9402 L 4.46793 79.4913 L 4.14517 79.451 L 3.91318 79.3199 L 3.77197 79.1081 L 3.72154 78.8105 L 3.76188 78.5483 L 3.86779 78.3566 L 4.03926 78.2406 L 4.27125 78.1952 L 4.51837 78.2406 L 4.68479 78.3617 L 4.78566 78.5735 L 4.81592 78.8609 L 4.81087 79.0576 L 5.20929 79.0576 L 5.1992 78.8105 L 5.24459 78.4928 L 5.36563 78.2558 L 5.56231 78.1145 L 5.81952 78.0641 L 6.11203 78.1196 L 6.32889 78.2658 L 6.46505 78.4978 L 6.51044 78.8055 L 6.46001 79.1232 L 6.30871 79.3552 L 6.06664 79.5014 L 5.73378 79.5569 L 5.73378 80.0209 L 5.73378 80.0209 z" stroke="none" fill-rule="evenodd" fill="rgb(0, 0, 0)"/></g><g stroke="rgb(0, 0, 0)" stroke-width="0.13" stroke-linecap="butt" stroke-linejoin="miter" fill="none"><path d="M 290.769 133.083 L 293.175 133.083 L 293.175 132.65 L 291.274 132.65 L 291.38 132.412 L 291.561 132.216 L 292.121 131.858 L 292.419 131.706 L 292.751 131.49 L 292.988 131.237 L 293.125 130.94 L 293.175 130.602 L 293.089 130.178 L 292.852 129.845 L 292.489 129.634 L 292.02 129.558 L 291.536 129.644 L 291.168 129.881 L 290.931 130.259 L 290.85 130.758 L 290.85 130.829 L 291.309 130.829 L 291.309 130.789 L 291.354 130.446 L 291.491 130.193 L 291.707 130.032 L 291.995 129.977 L 292.287 130.027 L 292.504 130.153 L 292.646 130.35 L 292.696 130.597 L 292.661 130.829 L 292.565 131.026 L 292.403 131.197 L 292.182 131.348 L 291.884 131.51 L 291.39 131.822 L 291.042 132.155 L 290.835 132.559 L 290.769 133.068 L 290.769 133.083 L 290.769 133.083 z" stroke="none" fill-rule="evenodd" fill="rgb(0, 0, 0)"/></g><g stroke="rgb(0, 0, 0)" stroke-width="0.13" stroke-linecap="butt" stroke-linejoin="miter" fill="none"><path d="M 6.83321 132.481 L 6.83321 130.075 L 6.39949 130.075 L 6.39949 131.976 L 6.16246 131.87 L 5.96577 131.689 L 5.6077 131.129 L 5.45641 130.831 L 5.23955 130.499 L 4.98738 130.262 L 4.68983 130.125 L 4.35194 130.075 L 3.92831 130.161 L 3.59545 130.398 L 3.38364 130.761 L 3.30799 131.23 L 3.39372 131.714 L 3.63075 132.082 L 4.009 132.319 L 4.50828 132.4 L 4.57888 132.4 L 4.57888 131.941 L 4.53854 131.941 L 4.1956 131.896 L 3.94343 131.759 L 3.78205 131.543 L 3.72658 131.255 L 3.77701 130.963 L 3.90309 130.746 L 4.09978 130.604 L 4.34689 130.554 L 4.57888 130.589 L 4.77557 130.685 L 4.94704 130.847 L 5.09834 131.068 L 5.25972 131.366 L 5.5724 131.86 L 5.90525 132.208 L 6.30871 132.415 L 6.81808 132.481 L 6.83321 132.481 L 6.83321 132.481 z" stroke="none" fill-rule="evenodd" fill="rgb(0, 0, 0)"/></g><g stroke="rgb(0, 0, 0)" stroke-width="0.13" stroke-linecap="butt" stroke-linejoin="miter" fill="none"><path d="M 292.277 28.0832 L 292.731 28.0832 L 292.731 27.2158 L 293.231 27.2158 L 293.231 26.8123 L 292.731 26.8123 L 292.731 24.6588 L 292.272 24.6588 L 290.739 26.772 L 290.739 27.2158 L 292.277 27.2158 L 292.277 28.0832 L 292.277 28.0832 z M 291.163 26.8123 L 292.277 25.2439 L 292.277 26.8123 L 291.163 26.8123 L 291.163 26.8123 z" stroke="none" fill-rule="evenodd" fill="rgb(0, 0, 0)"/></g><g stroke="rgb(0, 0, 0)" stroke-width="0.13" stroke-linecap="butt" stroke-linejoin="miter" fill="none"><path d="M 6.83321 25.9726 L 6.83321 25.5187 L 5.96577 25.5187 L 5.96577 25.0194 L 5.56231 25.0194 L 5.56231 25.5187 L 3.40886 25.5187 L 3.40886 25.9777 L 5.52197 27.5108 L 5.96577 27.5108 L 5.96577 25.9726 L 6.83321 25.9726 L 6.83321 25.9726 z M 5.56231 27.0872 L 3.99387 25.9726 L 5.56231 25.9726 L 5.56231 27.0872 L 5.56231 27.0872 z" stroke="none" fill-rule="evenodd" fill="rgb(0, 0, 0)"/></g><g stroke="rgb(0, 0, 0)" stroke-width="0.13" stroke-linecap="butt" stroke-linejoin="miter" fill="none"><path d="M 291.909 185.583 L 292.368 185.583 L 292.368 182.058 L 292.025 182.058 L 291.934 182.366 L 291.753 182.572 L 291.476 182.693 L 291.092 182.734 L 291.092 183.092 L 291.909 183.092 L 291.909 185.583 L 291.909 185.583 z" stroke="none" fill-rule="evenodd" fill="rgb(0, 0, 0)"/></g><g stroke="rgb(0, 0, 0)" stroke-width="0.13" stroke-linecap="butt" stroke-linejoin="miter" fill="none"><path d="M 6.83321 183.841 L 6.83321 183.382 L 3.30799 183.382 L 3.30799 183.725 L 3.61562 183.816 L 3.8224 183.997 L 3.94343 184.275 L 3.98378 184.658 L 4.34185 184.658 L 4.34185 183.841 L 6.83321 183.841 L 6.83321 183.841 z" stroke="none" fill-rule="evenodd" fill="rgb(0, 0, 0)"/></g><g stroke="rgb(0, 0, 0)" stroke-width="0.13" stroke-linecap="butt" stroke-linejoin="miter" fill="none"><path d="M 164.081 169.969 L 163.249 169.969 L 163.249 172.469 L 164.081 172.469 L 164.473 172.39 L 164.765 172.148 L 164.945 171.756 L 165.01 171.219 L 164.952 170.671 L 164.88 170.455 L 164.78 170.282 L 164.488 170.048 L 164.297 169.991 L 164.081 169.969 L 164.081 169.969 z M 164.055 170.268 L 164.329 170.322 L 164.517 170.488 L 164.628 170.783 L 164.664 171.219 L 164.625 171.64 L 164.513 171.936 L 164.322 172.112 L 164.055 172.17 L 163.584 172.17 L 163.584 170.268 L 164.055 170.268 L 164.055 170.268 z M 166.004 170.272 L 166.217 170.272 L 166.718 169.659 L 166.365 169.659 L 166.004 170.272 L 166.004 170.272 z M 165.785 171.594 L 167.053 171.594 L 167.056 171.446 L 166.999 171.032 L 166.84 170.722 L 166.588 170.535 L 166.253 170.466 L 165.925 170.538 L 165.673 170.74 L 165.511 171.068 L 165.453 171.5 L 165.507 171.943 L 165.669 172.267 L 165.918 172.469 L 166.242 172.537 L 166.523 172.491 L 166.754 172.368 L 166.923 172.174 L 167.02 171.914 L 166.707 171.914 L 166.642 172.058 L 166.548 172.166 L 166.282 172.253 L 166.076 172.213 L 165.921 172.087 L 165.821 171.882 L 165.785 171.604 L 165.785 171.594 L 165.785 171.594 z M 165.785 171.327 L 165.824 171.079 L 165.921 170.895 L 166.069 170.783 L 166.264 170.744 L 166.455 170.783 L 166.602 170.895 L 166.692 171.079 L 166.725 171.327 L 165.785 171.327 L 165.785 171.327 z M 168.623 171.341 L 168.317 171.269 L 168.09 171.187 L 168.014 171.017 L 168.036 170.898 L 168.112 170.812 L 168.234 170.758 L 168.411 170.736 L 168.58 170.758 L 168.713 170.823 L 168.8 170.92 L 168.836 171.05 L 169.146 171.05 L 169.146 171.043 L 169.092 170.808 L 168.944 170.625 L 168.713 170.509 L 168.411 170.466 L 168.104 170.509 L 167.881 170.628 L 167.741 170.805 L 167.697 171.028 L 167.73 171.244 L 167.831 171.396 L 167.996 171.504 L 168.238 171.579 L 168.591 171.666 L 168.807 171.756 L 168.865 171.828 L 168.886 171.936 L 168.854 172.069 L 168.767 172.17 L 168.627 172.235 L 168.439 172.256 L 168.241 172.235 L 168.097 172.159 L 168 172.037 L 167.96 171.867 L 167.654 171.867 L 167.705 172.156 L 167.852 172.365 L 168.086 172.491 L 168.411 172.537 L 168.749 172.491 L 168.998 172.365 L 169.149 172.163 L 169.203 171.9 L 169.164 171.673 L 169.052 171.518 L 168.868 171.417 L 168.623 171.341 L 168.623 171.341 z M 170.813 172.202 L 170.813 170.599 L 169.999 170.599 L 169.999 170.87 L 170.496 170.87 L 170.496 172.202 L 169.848 172.202 L 169.848 172.469 L 171.469 172.469 L 171.469 172.202 L 170.813 172.202 L 170.813 172.202 z M 170.824 169.883 L 170.489 169.883 L 170.489 170.243 L 170.824 170.243 L 170.824 169.883 L 170.824 169.883 z M 173.519 172.383 L 173.519 170.535 L 173.216 170.535 L 173.216 170.848 L 172.968 170.563 L 172.816 170.491 L 172.647 170.466 L 172.341 170.538 L 172.103 170.74 L 171.948 171.064 L 171.894 171.5 L 171.948 171.939 L 172.103 172.264 L 172.341 172.469 L 172.647 172.537 L 172.82 172.512 L 172.964 172.447 L 173.216 172.174 L 173.216 172.447 L 173.187 172.664 L 173.108 172.818 L 172.957 172.909 L 172.73 172.941 L 172.532 172.919 L 172.391 172.865 L 172.308 172.772 L 172.283 172.646 L 171.977 172.646 L 171.977 172.66 L 172.024 172.89 L 172.168 173.063 L 172.398 173.175 L 172.712 173.215 L 173.086 173.161 L 173.335 173.009 L 173.476 172.746 L 173.519 172.383 L 173.519 172.383 z M 172.222 171.5 L 172.254 171.179 L 172.352 170.942 L 172.503 170.801 L 172.705 170.751 L 172.917 170.801 L 173.076 170.942 L 173.173 171.179 L 173.209 171.5 L 173.173 171.828 L 173.076 172.062 L 172.917 172.206 L 172.705 172.253 L 172.503 172.206 L 172.352 172.062 L 172.254 171.824 L 172.222 171.5 L 172.222 171.5 z M 174.182 172.469 L 174.499 172.469 L 174.499 171.352 L 174.531 171.097 L 174.635 170.909 L 174.798 170.794 L 175.014 170.751 L 175.187 170.787 L 175.295 170.884 L 175.349 171.046 L 175.367 171.262 L 175.367 172.469 L 175.684 172.469 L 175.684 171.197 L 175.669 170.942 L 175.605 170.729 L 175.392 170.535 L 175.061 170.466 L 174.877 170.491 L 174.722 170.56 L 174.589 170.675 L 174.484 170.83 L 174.484 170.535 L 174.182 170.535 L 174.182 172.469 L 174.182 172.469 z M 177.499 172.217 L 177.499 172.228 L 177.517 172.35 L 177.571 172.437 L 177.798 172.505 L 177.975 172.476 L 177.975 172.231 L 177.899 172.242 L 177.798 172.195 L 177.78 172.051 L 177.78 171.05 L 177.737 170.794 L 177.611 170.614 L 177.391 170.506 L 177.081 170.466 L 176.779 170.509 L 176.556 170.632 L 176.415 170.823 L 176.368 171.075 L 176.368 171.097 L 176.653 171.097 L 176.678 170.945 L 176.757 170.837 L 176.887 170.772 L 177.071 170.747 L 177.247 170.765 L 177.373 170.819 L 177.449 170.913 L 177.474 171.043 L 177.46 171.194 L 177.402 171.269 L 177.258 171.305 L 176.988 171.334 L 176.678 171.399 L 176.458 171.514 L 176.329 171.695 L 176.289 171.961 L 176.325 172.199 L 176.437 172.375 L 176.617 172.487 L 176.865 172.527 L 177.2 172.451 L 177.499 172.217 L 177.499 172.217 z M 177.463 171.792 L 177.42 171.979 L 177.305 172.123 L 177.132 172.217 L 176.919 172.249 L 176.782 172.231 L 176.685 172.174 L 176.624 172.073 L 176.606 171.932 L 176.62 171.806 L 176.678 171.716 L 176.909 171.615 L 177.2 171.572 L 177.463 171.486 L 177.463 171.792 L 177.463 171.792 z M 178.944 170.87 L 178.944 171.839 L 178.965 172.152 L 179.066 172.368 L 179.268 172.494 L 179.61 172.537 L 179.985 172.519 L 179.985 172.246 L 179.711 172.267 L 179.463 172.238 L 179.329 172.148 L 179.272 171.997 L 179.261 171.785 L 179.261 170.87 L 179.985 170.87 L 179.985 170.599 L 179.261 170.599 L 179.261 170.034 L 178.944 170.034 L 178.944 170.599 L 178.396 170.599 L 178.396 170.87 L 178.944 170.87 L 178.944 170.87 z M 181.656 172.202 L 181.656 170.599 L 180.842 170.599 L 180.842 170.87 L 181.339 170.87 L 181.339 172.202 L 180.691 172.202 L 180.691 172.469 L 182.312 172.469 L 182.312 172.202 L 181.656 172.202 L 181.656 172.202 z M 181.667 169.883 L 181.332 169.883 L 181.332 170.243 L 181.667 170.243 L 181.667 169.883 L 181.667 169.883 z M 182.762 171.504 L 182.82 171.943 L 182.986 172.267 L 183.249 172.469 L 183.602 172.537 L 183.951 172.469 L 184.214 172.271 L 184.38 171.947 L 184.441 171.504 L 184.38 171.064 L 184.214 170.736 L 183.951 170.538 L 183.602 170.466 L 183.249 170.538 L 182.986 170.74 L 182.82 171.064 L 182.762 171.504 L 182.762 171.504 z M 183.087 171.5 L 183.119 171.176 L 183.22 170.942 L 183.382 170.798 L 183.602 170.747 L 183.818 170.798 L 183.98 170.938 L 184.081 171.176 L 184.117 171.5 L 184.081 171.828 L 183.98 172.066 L 183.818 172.21 L 183.602 172.256 L 183.382 172.21 L 183.22 172.066 L 183.119 171.828 L 183.087 171.5 L 183.087 171.5 z M 185.025 172.469 L 185.342 172.469 L 185.342 171.352 L 185.374 171.097 L 185.478 170.909 L 185.641 170.794 L 185.857 170.751 L 186.03 170.787 L 186.138 170.884 L 186.192 171.046 L 186.21 171.262 L 186.21 172.469 L 186.527 172.469 L 186.527 171.197 L 186.512 170.942 L 186.447 170.729 L 186.235 170.535 L 185.904 170.466 L 185.72 170.491 L 185.565 170.56 L 185.432 170.675 L 185.327 170.83 L 185.327 170.535 L 185.025 170.535 L 185.025 172.469 L 185.025 172.469 z" stroke="none" fill-rule="evenodd" fill="rgb(0, 0, 0)"/></g><g stroke="rgb(0, 0, 0)" stroke-width="0.13" stroke-linecap="butt" stroke-linejoin="miter" fill="none"><path d="M 152.264 185.47 L 152.867 185.47 L 152.867 183.401 L 154.76 183.401 L 154.76 182.863 L 152.867 182.863 L 152.867 181.514 L 155.195 181.514 L 155.195 180.97 L 152.264 180.97 L 152.264 185.47 L 152.264 185.47 z M 156.368 185.47 L 156.939 185.47 L 156.939 183.479 L 156.997 182.999 L 157.172 182.656 L 157.457 182.448 L 157.84 182.377 L 158.125 182.422 L 158.339 182.552 L 158.469 182.772 L 158.514 183.071 L 159.091 183.071 L 159.014 182.545 L 158.8 182.169 L 158.443 181.942 L 157.957 181.865 L 157.626 181.916 L 157.341 182.046 L 157.088 182.267 L 156.887 182.565 L 156.887 181.988 L 156.368 181.988 L 156.368 185.47 L 156.368 185.47 z M 159.889 183.732 L 159.993 184.523 L 160.291 185.107 L 160.764 185.47 L 161.4 185.593 L 162.029 185.47 L 162.502 185.113 L 162.8 184.53 L 162.911 183.732 L 162.8 182.941 L 162.502 182.351 L 162.029 181.994 L 161.4 181.865 L 160.764 181.994 L 160.291 182.357 L 159.993 182.941 L 159.889 183.732 L 159.889 183.732 z M 160.473 183.726 L 160.531 183.142 L 160.713 182.72 L 161.004 182.461 L 161.4 182.37 L 161.789 182.461 L 162.081 182.714 L 162.262 183.142 L 162.327 183.726 L 162.262 184.316 L 162.081 184.744 L 161.789 185.003 L 161.4 185.087 L 161.004 185.003 L 160.713 184.744 L 160.531 184.316 L 160.473 183.726 L 160.473 183.726 z M 163.961 185.47 L 164.532 185.47 L 164.532 183.46 L 164.59 182.999 L 164.778 182.662 L 165.07 182.455 L 165.459 182.377 L 165.77 182.442 L 165.965 182.617 L 166.062 182.909 L 166.094 183.298 L 166.094 185.47 L 166.665 185.47 L 166.665 183.181 L 166.639 182.72 L 166.522 182.338 L 166.14 181.988 L 165.543 181.865 L 165.213 181.91 L 164.934 182.033 L 164.694 182.241 L 164.506 182.519 L 164.506 181.988 L 163.961 181.988 L 163.961 185.47 L 163.961 185.47 z M 168.63 182.591 L 168.63 184.335 L 168.669 184.899 L 168.85 185.288 L 169.213 185.515 L 169.829 185.593 L 170.504 185.561 L 170.504 185.068 L 170.011 185.107 L 169.563 185.055 L 169.323 184.893 L 169.22 184.62 L 169.2 184.238 L 169.2 182.591 L 170.504 182.591 L 170.504 182.104 L 169.2 182.104 L 169.2 181.086 L 168.63 181.086 L 168.63 182.104 L 167.644 182.104 L 167.644 182.591 L 168.63 182.591 L 168.63 182.591 z M 175.697 185.47 L 178.589 185.47 L 178.589 184.925 L 176.294 184.925 L 176.294 180.97 L 175.697 180.97 L 175.697 185.47 L 175.697 185.47 z M 180.074 183.894 L 182.357 183.894 L 182.363 183.628 L 182.259 182.883 L 181.974 182.325 L 181.52 181.988 L 180.917 181.865 L 180.327 181.994 L 179.873 182.357 L 179.581 182.947 L 179.478 183.726 L 179.575 184.523 L 179.867 185.107 L 180.314 185.47 L 180.898 185.593 L 181.403 185.509 L 181.818 185.288 L 182.123 184.938 L 182.298 184.471 L 181.734 184.471 L 181.617 184.731 L 181.449 184.925 L 180.969 185.081 L 180.599 185.009 L 180.321 184.782 L 180.139 184.413 L 180.074 183.914 L 180.074 183.894 L 180.074 183.894 z M 180.074 183.414 L 180.146 182.967 L 180.321 182.636 L 180.586 182.435 L 180.937 182.364 L 181.28 182.435 L 181.546 182.636 L 181.708 182.967 L 181.767 183.414 L 180.074 183.414 L 180.074 183.414 z M 184.269 182.591 L 184.269 185.47 L 184.84 185.47 L 184.84 182.591 L 186.137 182.591 L 186.137 182.104 L 184.84 182.104 L 184.84 181.89 L 184.885 181.631 L 185.035 181.456 L 185.287 181.352 L 185.651 181.313 L 186.137 181.339 L 186.137 180.847 L 185.521 180.814 L 184.963 180.872 L 184.574 181.048 L 184.341 181.352 L 184.269 181.787 L 184.269 182.104 L 183.225 182.104 L 183.225 182.591 L 184.269 182.591 L 184.269 182.591 z M 188.147 182.591 L 188.147 184.335 L 188.186 184.899 L 188.367 185.288 L 188.731 185.515 L 189.347 185.593 L 190.021 185.561 L 190.021 185.068 L 189.528 185.107 L 189.081 185.055 L 188.841 184.893 L 188.737 184.62 L 188.718 184.238 L 188.718 182.591 L 190.021 182.591 L 190.021 182.104 L 188.718 182.104 L 188.718 181.086 L 188.147 181.086 L 188.147 182.104 L 187.161 182.104 L 187.161 182.591 L 188.147 182.591 L 188.147 182.591 z M 194.981 183.758 L 195.072 184.568 L 195.357 185.146 L 195.837 185.476 L 196.531 185.593 L 197.218 185.476 L 197.698 185.146 L 197.983 184.575 L 198.081 183.758 L 198.081 180.97 L 197.478 180.97 L 197.478 183.79 L 197.419 184.341 L 197.244 184.737 L 196.946 184.97 L 196.531 185.048 L 196.103 184.97 L 195.805 184.737 L 195.63 184.348 L 195.578 183.79 L 195.578 180.97 L 194.981 180.97 L 194.981 183.758 L 194.981 183.758 z M 199.63 182.526 L 199.63 181.988 L 199.06 181.988 L 199.06 186.818 L 199.63 186.818 L 199.63 184.938 L 199.831 185.243 L 200.058 185.444 L 200.629 185.593 L 201.174 185.47 L 201.602 185.1 L 201.88 184.517 L 201.984 183.726 L 201.88 182.941 L 201.602 182.357 L 201.174 181.994 L 200.629 181.865 L 200.318 181.903 L 200.052 182.027 L 199.825 182.234 L 199.63 182.526 L 199.63 182.526 z M 200.532 185.081 L 200.149 184.996 L 199.87 184.737 L 199.695 184.316 L 199.637 183.726 L 199.695 183.142 L 199.87 182.72 L 200.149 182.468 L 200.532 182.377 L 200.882 182.468 L 201.161 182.727 L 201.336 183.148 L 201.401 183.726 L 201.336 184.309 L 201.161 184.737 L 200.882 184.996 L 200.532 185.081 L 200.532 185.081 z M 203.534 182.526 L 203.534 181.988 L 202.963 181.988 L 202.963 186.818 L 203.534 186.818 L 203.534 184.938 L 203.735 185.243 L 203.962 185.444 L 204.532 185.593 L 205.077 185.47 L 205.505 185.1 L 205.784 184.517 L 205.888 183.726 L 205.784 182.941 L 205.505 182.357 L 205.077 181.994 L 204.532 181.865 L 204.221 181.903 L 203.955 182.027 L 203.728 182.234 L 203.534 182.526 L 203.534 182.526 z M 204.435 185.081 L 204.053 184.996 L 203.774 184.737 L 203.599 184.316 L 203.54 183.726 L 203.599 183.142 L 203.774 182.72 L 204.053 182.468 L 204.435 182.377 L 204.785 182.468 L 205.064 182.727 L 205.239 183.148 L 205.304 183.726 L 205.239 184.309 L 205.064 184.737 L 204.785 184.996 L 204.435 185.081 L 204.435 185.081 z M 207.398 183.894 L 209.681 183.894 L 209.687 183.628 L 209.584 182.883 L 209.298 182.325 L 208.844 181.988 L 208.241 181.865 L 207.651 181.994 L 207.197 182.357 L 206.906 182.947 L 206.802 183.726 L 206.899 184.523 L 207.191 185.107 L 207.638 185.47 L 208.222 185.593 L 208.728 185.509 L 209.143 185.288 L 209.447 184.938 L 209.622 184.471 L 209.058 184.471 L 208.942 184.731 L 208.773 184.925 L 208.293 185.081 L 207.924 185.009 L 207.645 184.782 L 207.463 184.413 L 207.398 183.914 L 207.398 183.894 L 207.398 183.894 z M 207.398 183.414 L 207.47 182.967 L 207.645 182.636 L 207.911 182.435 L 208.261 182.364 L 208.604 182.435 L 208.87 182.636 L 209.032 182.967 L 209.091 183.414 L 207.398 183.414 L 207.398 183.414 z M 211.017 185.47 L 211.587 185.47 L 211.587 183.479 L 211.646 182.999 L 211.821 182.656 L 212.106 182.448 L 212.488 182.377 L 212.774 182.422 L 212.988 182.552 L 213.117 182.772 L 213.163 183.071 L 213.74 183.071 L 213.662 182.545 L 213.448 182.169 L 213.091 181.942 L 212.605 181.865 L 212.274 181.916 L 211.989 182.046 L 211.736 182.267 L 211.535 182.565 L 211.535 181.988 L 211.017 181.988 L 211.017 185.47 L 211.017 185.47 z M 217.981 185.47 L 218.577 185.47 L 219.05 184.147 L 220.847 184.147 L 221.32 185.47 L 221.929 185.47 L 220.282 180.963 L 219.621 180.963 L 217.981 185.47 L 217.981 185.47 z M 219.258 183.596 L 219.952 181.612 L 220.646 183.596 L 219.258 183.596 L 219.258 183.596 z M 223.071 183.985 L 224.64 183.985 L 224.64 183.473 L 223.071 183.473 L 223.071 183.985 L 223.071 183.985 z M 225.787 185.47 L 226.384 185.47 L 226.857 184.147 L 228.653 184.147 L 229.127 185.47 L 229.736 185.47 L 228.089 180.963 L 227.428 180.963 L 225.787 185.47 L 225.787 185.47 z M 227.065 183.596 L 227.759 181.612 L 228.452 183.596 L 227.065 183.596 L 227.065 183.596 z M 230.534 185.47 L 231.104 185.47 L 231.104 183.479 L 231.163 182.999 L 231.338 182.656 L 231.623 182.448 L 232.006 182.377 L 232.291 182.422 L 232.505 182.552 L 232.635 182.772 L 232.68 183.071 L 233.257 183.071 L 233.179 182.545 L 232.965 182.169 L 232.609 181.942 L 232.122 181.865 L 231.792 181.916 L 231.506 182.046 L 231.254 182.267 L 231.053 182.565 L 231.053 181.988 L 230.534 181.988 L 230.534 185.47 L 230.534 185.47 z M 233.996 185.47 L 234.522 185.47 L 234.522 183.142 L 234.554 182.792 L 234.651 182.539 L 234.8 182.39 L 234.995 182.331 L 235.151 182.383 L 235.254 182.513 L 235.306 182.733 L 235.326 183.025 L 235.326 185.47 L 235.818 185.47 L 235.818 183.142 L 235.851 182.798 L 235.948 182.545 L 236.104 182.39 L 236.298 182.331 L 236.454 182.383 L 236.558 182.513 L 236.622 183.025 L 236.622 185.47 L 237.148 185.47 L 237.148 183.064 L 237.115 182.565 L 237.012 182.182 L 236.804 181.949 L 236.467 181.865 L 236.071 181.994 L 235.767 182.37 L 235.527 182.001 L 235.125 181.865 L 234.755 181.994 L 234.502 182.357 L 234.502 181.988 L 233.996 181.988 L 233.996 185.47 L 233.996 185.47 z M 242.043 185.47 L 242.646 185.47 L 242.646 183.401 L 244.54 183.401 L 244.54 182.863 L 242.646 182.863 L 242.646 181.514 L 244.974 181.514 L 244.974 180.97 L 242.043 180.97 L 242.043 185.47 L 242.043 185.47 z M 246.148 185.47 L 246.718 185.47 L 246.718 183.479 L 246.777 182.999 L 246.952 182.656 L 247.237 182.448 L 247.62 182.377 L 247.905 182.422 L 248.119 182.552 L 248.249 182.772 L 248.294 183.071 L 248.871 183.071 L 248.793 182.545 L 248.579 182.169 L 248.223 181.942 L 247.736 181.865 L 247.406 181.916 L 247.12 182.046 L 246.867 182.267 L 246.666 182.565 L 246.666 181.988 L 246.148 181.988 L 246.148 185.47 L 246.148 185.47 z M 249.669 183.732 L 249.772 184.523 L 250.071 185.107 L 250.544 185.47 L 251.179 185.593 L 251.808 185.47 L 252.282 185.113 L 252.58 184.53 L 252.69 183.732 L 252.58 182.941 L 252.282 182.351 L 251.808 181.994 L 251.179 181.865 L 250.544 181.994 L 250.071 182.357 L 249.772 182.941 L 249.669 183.732 L 249.669 183.732 z M 250.252 183.726 L 250.311 183.142 L 250.492 182.72 L 250.784 182.461 L 251.179 182.37 L 251.568 182.461 L 251.86 182.714 L 252.042 183.142 L 252.107 183.726 L 252.042 184.316 L 251.86 184.744 L 251.568 185.003 L 251.179 185.087 L 250.784 185.003 L 250.492 184.744 L 250.311 184.316 L 250.252 183.726 L 250.252 183.726 z M 253.741 185.47 L 254.311 185.47 L 254.311 183.46 L 254.37 182.999 L 254.558 182.662 L 254.849 182.455 L 255.238 182.377 L 255.55 182.442 L 255.744 182.617 L 255.841 182.909 L 255.874 183.298 L 255.874 185.47 L 256.444 185.47 L 256.444 183.181 L 256.419 182.72 L 256.302 182.338 L 255.919 181.988 L 255.323 181.865 L 254.992 181.91 L 254.713 182.033 L 254.473 182.241 L 254.285 182.519 L 254.285 181.988 L 253.741 181.988 L 253.741 185.47 L 253.741 185.47 z M 258.409 182.591 L 258.409 184.335 L 258.448 184.899 L 258.63 185.288 L 258.993 185.515 L 259.609 185.593 L 260.283 185.561 L 260.283 185.068 L 259.79 185.107 L 259.343 185.055 L 259.103 184.893 L 258.999 184.62 L 258.98 184.238 L 258.98 182.591 L 260.283 182.591 L 260.283 182.104 L 258.98 182.104 L 258.98 181.086 L 258.409 181.086 L 258.409 182.104 L 257.424 182.104 L 257.424 182.591 L 258.409 182.591 L 258.409 182.591 z M 265.477 185.47 L 268.369 185.47 L 268.369 184.925 L 266.073 184.925 L 266.073 180.97 L 265.477 180.97 L 265.477 185.47 L 265.477 185.47 z M 269.186 183.732 L 269.29 184.523 L 269.588 185.107 L 270.061 185.47 L 270.697 185.593 L 271.326 185.47 L 271.799 185.113 L 272.097 184.53 L 272.207 183.732 L 272.097 182.941 L 271.799 182.351 L 271.326 181.994 L 270.697 181.865 L 270.061 181.994 L 269.588 182.357 L 269.29 182.941 L 269.186 183.732 L 269.186 183.732 z M 269.769 183.726 L 269.828 183.142 L 270.009 182.72 L 270.301 182.461 L 270.697 182.37 L 271.086 182.461 L 271.377 182.714 L 271.559 183.142 L 271.624 183.726 L 271.559 184.316 L 271.377 184.744 L 271.086 185.003 L 270.697 185.087 L 270.301 185.003 L 270.009 184.744 L 269.828 184.316 L 269.769 183.726 L 269.769 183.726 z M 274.081 185.47 L 274.6 182.513 L 275.119 185.47 L 275.663 185.47 L 276.519 181.988 L 275.968 181.988 L 275.391 184.945 L 274.879 181.988 L 274.315 181.988 L 273.802 184.945 L 273.225 181.988 L 272.681 181.988 L 273.537 185.47 L 274.081 185.47 L 274.081 185.47 z M 277.661 183.894 L 279.943 183.894 L 279.949 183.628 L 279.846 182.883 L 279.56 182.325 L 279.107 181.988 L 278.503 181.865 L 277.913 181.994 L 277.46 182.357 L 277.168 182.947 L 277.064 183.726 L 277.161 184.523 L 277.453 185.107 L 277.9 185.47 L 278.484 185.593 L 278.99 185.509 L 279.405 185.288 L 279.71 184.938 L 279.885 184.471 L 279.32 184.471 L 279.204 184.731 L 279.035 184.925 L 278.555 185.081 L 278.186 185.009 L 277.907 184.782 L 277.725 184.413 L 277.661 183.914 L 277.661 183.894 L 277.661 183.894 z M 277.661 183.414 L 277.732 182.967 L 277.907 182.636 L 278.173 182.435 L 278.523 182.364 L 278.867 182.435 L 279.132 182.636 L 279.295 182.967 L 279.353 183.414 L 277.661 183.414 L 277.661 183.414 z M 281.279 185.47 L 281.849 185.47 L 281.849 183.479 L 281.908 182.999 L 282.083 182.656 L 282.368 182.448 L 282.751 182.377 L 283.036 182.422 L 283.25 182.552 L 283.38 182.772 L 283.425 183.071 L 284.002 183.071 L 283.924 182.545 L 283.71 182.169 L 283.354 181.942 L 282.867 181.865 L 282.537 181.916 L 282.251 182.046 L 281.998 182.267 L 281.797 182.565 L 281.797 181.988 L 281.279 181.988 L 281.279 185.47 L 281.279 185.47 z" stroke="none" fill-rule="evenodd" fill="rgb(0, 0, 0)"/></g><g stroke="rgb(0, 0, 0)" stroke-width="0.13" stroke-linecap="butt" stroke-linejoin="miter" fill="none"><path d="M 142.721 106.239 L 143.19 106.239 L 143.19 104.63 L 144.662 104.63 L 144.662 104.211 L 143.19 104.211 L 143.19 103.162 L 145 103.162 L 145 102.739 L 142.721 102.739 L 142.721 106.239 L 142.721 106.239 z M 145.767 106.239 L 148.016 106.239 L 148.016 105.815 L 146.231 105.815 L 146.231 102.739 L 145.767 102.739 L 145.767 106.239 L 145.767 106.239 z M 148.621 104.907 L 148.692 105.538 L 148.914 105.987 L 149.287 106.244 L 149.827 106.335 L 150.361 106.244 L 150.734 105.987 L 150.956 105.543 L 151.032 104.907 L 151.032 102.739 L 150.563 102.739 L 150.563 104.933 L 150.518 105.361 L 150.381 105.669 L 150.149 105.85 L 149.827 105.911 L 149.494 105.85 L 149.262 105.669 L 149.126 105.366 L 149.085 104.933 L 149.085 102.739 L 148.621 102.739 L 148.621 104.907 L 148.621 104.907 z M 152.253 105.084 L 153.473 105.084 L 153.473 104.686 L 152.253 104.686 L 152.253 105.084 L 152.253 105.084 z" stroke="none" fill-rule="evenodd" fill="rgb(0, 0, 0)"/></g><g stroke="rgb(0, 0, 0)" stroke-width="0.13" stroke-linecap="butt" stroke-linejoin="miter" fill="none"><path d="M 142.721 112.286 L 143.19 112.286 L 143.19 110.677 L 144.662 110.677 L 144.662 110.258 L 143.19 110.258 L 143.19 109.209 L 145 109.209 L 145 108.786 L 142.721 108.786 L 142.721 112.286 L 142.721 112.286 z M 145.767 112.286 L 148.016 112.286 L 148.016 111.862 L 146.231 111.862 L 146.231 108.786 L 145.767 108.786 L 145.767 112.286 L 145.767 112.286 z M 148.621 110.954 L 148.692 111.585 L 148.914 112.033 L 149.287 112.291 L 149.827 112.381 L 150.361 112.291 L 150.734 112.033 L 150.956 111.59 L 151.032 110.954 L 151.032 108.786 L 150.563 108.786 L 150.563 110.979 L 150.518 111.408 L 150.381 111.716 L 150.149 111.897 L 149.827 111.958 L 149.494 111.897 L 149.262 111.716 L 149.126 111.413 L 149.085 110.979 L 149.085 108.786 L 148.621 108.786 L 148.621 110.954 L 148.621 110.954 z" stroke="none" fill-rule="evenodd" fill="rgb(0, 0, 0)"/></g><g stroke="rgb(0, 0, 0)" stroke-width="0.13" stroke-linecap="butt" stroke-linejoin="miter" fill="none"><path d="M 187.318 109.763 L 187.787 109.763 L 187.787 108.154 L 189.26 108.154 L 189.26 107.736 L 187.787 107.736 L 187.787 106.687 L 189.597 106.687 L 189.597 106.263 L 187.318 106.263 L 187.318 109.763 L 187.318 109.763 z M 190.364 109.763 L 192.613 109.763 L 192.613 109.339 L 190.828 109.339 L 190.828 106.263 L 190.364 106.263 L 190.364 109.763 L 190.364 109.763 z M 193.218 108.432 L 193.289 109.062 L 193.511 109.511 L 193.884 109.768 L 194.424 109.859 L 194.958 109.768 L 195.332 109.511 L 195.553 109.067 L 195.629 108.432 L 195.629 106.263 L 195.16 106.263 L 195.16 108.457 L 195.115 108.886 L 194.979 109.193 L 194.747 109.375 L 194.424 109.435 L 194.091 109.375 L 193.859 109.193 L 193.723 108.891 L 193.682 108.457 L 193.682 106.263 L 193.218 106.263 L 193.218 108.432 L 193.218 108.432 z M 196.85 108.608 L 198.07 108.608 L 198.07 108.21 L 196.85 108.21 L 196.85 108.608 L 196.85 108.608 z" stroke="none" fill-rule="evenodd" fill="rgb(0, 0, 0)"/></g><g stroke="rgb(0, 0, 0)" stroke-width="0.13" stroke-linecap="butt" stroke-linejoin="miter" fill="none"><path d="M 187.318 115.81 L 187.787 115.81 L 187.787 114.201 L 189.26 114.201 L 189.26 113.782 L 187.787 113.782 L 187.787 112.733 L 189.597 112.733 L 189.597 112.31 L 187.318 112.31 L 187.318 115.81 L 187.318 115.81 z M 190.364 115.81 L 192.613 115.81 L 192.613 115.386 L 190.828 115.386 L 190.828 112.31 L 190.364 112.31 L 190.364 115.81 L 190.364 115.81 z M 194.419 112.31 L 193.254 112.31 L 193.254 115.81 L 194.419 115.81 L 194.968 115.699 L 195.377 115.361 L 195.629 114.811 L 195.72 114.06 L 195.639 113.293 L 195.538 112.991 L 195.397 112.749 L 194.989 112.421 L 194.721 112.34 L 194.419 112.31 L 194.419 112.31 z M 194.383 112.728 L 194.767 112.804 L 195.029 113.036 L 195.185 113.45 L 195.236 114.06 L 195.18 114.65 L 195.024 115.063 L 194.757 115.311 L 194.383 115.391 L 193.723 115.391 L 193.723 112.728 L 194.383 112.728 L 194.383 112.728 z" stroke="none" fill-rule="evenodd" fill="rgb(0, 0, 0)"/></g></svg>