<?xml version="1.0" encoding="utf-8" ?><!DOCTYPE svg PUBLIC "-//W3C//DTD SVG 1.1//EN" "http://www.w3.org/Graphics/SVG/1.1/DTD/svg11.dtd" 
[ <!ATTLIST svg 
  xmlns:dsy CDATA #FIXED "http://www.3ds.com/print"  
    dsy:text-version CDATA #IMPLIED > 

  <!ATTLIST text 
  xmlns:dsy CDATA #FIXED "http://www.3ds.com/print" 
    dsy:text-version CDATA #IMPLIED > 
]><svg xmlns="http://www.w3.org/2000/svg" xmlns:dsy="http://www.3ds.com/print" dsy:text-version="18000" width="297" height="210" viewBox="0 0 297 210" version="1.1"><g stroke="rgb(0, 0, 0)" stroke-width="0.35" stroke-linecap="butt" stroke-linejoin="miter" fill="none"><path d="M 127.42 82.3429 A 7 7 0 0 0 113.556 82.3429"/><circle cx="120.488" cy="83.3171" r="3.2"/><path d="M 113.556 82.3429 L 111.3 98.3946"/><path d="M 124.596 107.549 A 18888.7 18888.7 0 0 0 111.301 98.3943"/><path d="M 127.42 82.3429 L 131.449 111.009"/><path d="M 131.449 111.01 A 116.759 116.759 0 0 0 124.596 107.549"/><path d="M 173.409 84.645 A 7 7 0 0 0 159.545 84.645"/><circle cx="166.477" cy="85.6192" r="3.2"/><path d="M 173.409 84.645 L 175.562 99.9666"/><path d="M 175.564 99.9684 A 22605.7 22605.7 0 0 0 161.452 109.52"/><path d="M 159.545 84.645 L 155.518 113.303"/><path d="M 161.449 109.519 A 127.702 127.702 0 0 0 160.566 110.053"/><path d="M 160.566 110.053 A 126.593 126.593 0 0 0 155.518 113.303"/><path d="M 155.518 113.303 L 155.517 113.312"/></g><g stroke="rgb(0, 0, 0)" stroke-width="0.13" stroke-linecap="butt" stroke-linejoin="miter" stroke-dasharray="4, 1.5" fill="none"><path d="M 160.566 110.053 L 155.543 113.121"/></g><g stroke="rgb(0, 0, 0)" stroke-width="0.35" stroke-linecap="butt" stroke-linejoin="miter" fill="none"><path d="M 9.99999 200 L 287 200"/><path d="M 287 200 L 287 10"/><path d="M 287 10 L 9.99999 10"/><path d="M 9.99999 10 L 9.99999 200"/><path d="M 148.5 10 L 148.5 0"/><path d="M 9.99999 105 L -5.94366e-006 105"/><path d="M 287 105 L 297 105"/><path d="M 222.7 200 L 222.7 207.5"/><path d="M 74.3 200 L 74.3 207.5"/><path d="M 222.7 10 L 222.7 2.5"/><path d="M 74.3 10 L 74.3 2.5"/><path d="M 9.99999 52.5 L 2.49999 52.5"/><path d="M 287 52.5 L 294.5 52.5"/><path d="M 9.99999 157.5 L 2.49999 157.5"/><path d="M 287 157.5 L 294.5 157.5"/><path d="M 98.5 202.5 L 198.5 202.5"/><path d="M 198.5 200 L 198.5 205"/><path d="M 188.5 200 L 188.5 202.5"/><path d="M 178.5 200 L 178.5 202.5"/><path d="M 168.5 200 L 168.5 202.5"/><path d="M 287 140 L 287 200"/></g><g stroke="rgb(0, 0, 0)" stroke-width="0.13" stroke-linecap="butt" stroke-linejoin="miter" stroke-dasharray="7, 1, 1, 1" fill="none"><path d="M 124.648 83.3171 L 116.328 83.3171"/><path d="M 120.488 79.1571 L 120.488 87.4771"/><path d="M 170.637 85.6192 L 162.317 85.6192"/><path d="M 166.477 81.4592 L 166.477 89.7792"/></g><g stroke="rgb(0, 0, 0)" stroke-width="0.13" stroke-linecap="butt" stroke-linejoin="miter" fill="none"><path d="M 258.267 206.833 L 258.731 206.833 L 259.099 205.804 L 260.496 205.804 L 260.864 206.833 L 261.338 206.833 L 260.057 203.328 L 259.543 203.328 L 258.267 206.833 L 258.267 206.833 z M 259.26 205.376 L 259.8 203.832 L 260.34 205.376 L 259.26 205.376 L 259.26 205.376 z" stroke="none" fill-rule="evenodd" fill="rgb(0, 0, 0)"/></g><g stroke="rgb(0, 0, 0)" stroke-width="0.13" stroke-linecap="butt" stroke-linejoin="miter" fill="none"><path d="M 37.1949 203.333 L 36.03 203.333 L 36.03 206.833 L 37.1949 206.833 L 37.7447 206.722 L 38.1532 206.384 L 38.4053 205.835 L 38.4961 205.083 L 38.4154 204.317 L 38.3145 204.014 L 38.1733 203.772 L 37.7648 203.444 L 37.4975 203.363 L 37.1949 203.333 L 37.1949 203.333 z M 37.1596 203.752 L 37.5429 203.827 L 37.8052 204.059 L 37.9615 204.473 L 38.012 205.083 L 37.9565 205.673 L 37.8001 206.087 L 37.5328 206.334 L 37.1596 206.415 L 36.499 206.415 L 36.499 203.752 L 37.1596 203.752 L 37.1596 203.752 z" stroke="none" fill-rule="evenodd" fill="rgb(0, 0, 0)"/></g><g stroke="rgb(0, 0, 0)" stroke-width="0.13" stroke-linecap="butt" stroke-linejoin="miter" fill="none"><path d="M 185.542 4.36958 L 185.249 4.01657 L 185.053 3.92578 L 184.811 3.89552 L 184.432 3.96109 L 184.16 4.15778 L 183.994 4.47549 L 183.933 4.9193 L 183.933 6.16498 L 187.433 6.16498 L 187.433 4.84869 L 187.363 4.37968 L 187.156 4.03169 L 186.828 3.81483 L 186.384 3.73918 L 186.087 3.78458 L 185.84 3.90561 L 185.658 4.10229 L 185.542 4.36958 L 185.542 4.36958 z M 185.386 5.01512 L 185.386 5.701 L 184.352 5.701 L 184.352 4.97478 L 184.382 4.70244 L 184.473 4.5108 L 184.629 4.39481 L 184.861 4.35446 L 185.093 4.39986 L 185.255 4.52089 L 185.355 4.72766 L 185.386 5.01512 L 185.386 5.01512 z M 187.015 4.90417 L 187.015 5.701 L 185.809 5.701 L 185.809 4.94955 L 185.845 4.63184 L 185.951 4.40489 L 186.132 4.26872 L 186.394 4.22334 L 186.672 4.26872 L 186.863 4.39481 L 186.979 4.60663 L 187.015 4.90417 L 187.015 4.90417 z" stroke="none" fill-rule="evenodd" fill="rgb(0, 0, 0)"/></g><g stroke="rgb(0, 0, 0)" stroke-width="0.13" stroke-linecap="butt" stroke-linejoin="miter" fill="none"><path d="M 111.932 4.183 L 112.356 4.28386 L 112.658 4.45029 L 112.845 4.68227 L 112.905 4.95461 L 112.815 5.28241 L 112.542 5.53961 L 112.098 5.71109 L 111.483 5.76657 L 110.873 5.71109 L 110.424 5.54466 L 110.152 5.28746 L 110.056 4.95461 L 110.106 4.71252 L 110.248 4.50575 L 110.475 4.34438 L 110.787 4.23343 L 110.787 3.75432 L 110.308 3.90561 L 109.945 4.16786 L 109.718 4.52592 L 109.637 4.95461 L 109.763 5.48918 L 110.116 5.89769 L 110.696 6.15994 L 111.483 6.25072 L 112.27 6.15994 L 112.85 5.89769 L 113.208 5.48918 L 113.329 4.95461 L 113.233 4.48558 L 112.966 4.10735 L 112.527 3.84006 L 111.932 3.69884 L 111.932 4.183 L 111.932 4.183 z" stroke="none" fill-rule="evenodd" fill="rgb(0, 0, 0)"/></g><g stroke="rgb(0, 0, 0)" stroke-width="0.13" stroke-linecap="butt" stroke-linejoin="miter" fill="none"><path d="M 261.633 6.53314 L 261.633 6.06915 L 260.604 5.701 L 260.604 4.30403 L 261.633 3.93587 L 261.633 3.46181 L 258.128 4.74278 L 258.128 5.2572 L 261.633 6.53314 L 261.633 6.53314 z M 260.176 5.53961 L 258.632 5 L 260.176 4.46037 L 260.176 5.53961 L 260.176 5.53961 z" stroke="none" fill-rule="evenodd" fill="rgb(0, 0, 0)"/></g><g stroke="rgb(0, 0, 0)" stroke-width="0.13" stroke-linecap="butt" stroke-linejoin="miter" fill="none"><path d="M 35.5332 5.00504 L 35.5332 6.17003 L 39.0332 6.17003 L 39.0332 5.00504 L 38.9223 4.45532 L 38.5844 4.04683 L 38.0346 3.79466 L 37.2832 3.70389 L 36.5166 3.78458 L 36.214 3.88544 L 35.972 4.02666 L 35.6442 4.43515 L 35.5635 4.70244 L 35.5332 5.00504 L 35.5332 5.00504 z M 35.9518 5.04034 L 36.0274 4.65706 L 36.2594 4.39481 L 36.673 4.23846 L 37.2832 4.18803 L 37.8733 4.24352 L 38.2868 4.39986 L 38.5339 4.66714 L 38.6146 5.04034 L 38.6146 5.701 L 35.9518 5.701 L 35.9518 5.04034 L 35.9518 5.04034 z" stroke="none" fill-rule="evenodd" fill="rgb(0, 0, 0)"/></g><g stroke="rgb(0, 0, 0)" stroke-width="0.13" stroke-linecap="butt" stroke-linejoin="miter" fill="none"><path d="M 290.729 79.4838 L 290.729 79.5191 L 290.81 80.0032 L 291.047 80.3663 L 291.42 80.5983 L 291.914 80.6841 L 292.439 80.5983 L 292.832 80.3764 L 293.084 80.0234 L 293.175 79.5695 L 293.135 79.272 L 293.024 79.0299 L 292.842 78.8433 L 292.6 78.7071 L 292.928 78.4348 L 293.044 78.0011 L 292.968 77.6077 L 292.751 77.3102 L 292.398 77.1236 L 291.914 77.058 L 291.46 77.1387 L 291.112 77.3606 L 290.885 77.7136 L 290.81 78.1826 L 290.81 78.2179 L 291.259 78.2179 L 291.299 77.8952 L 291.43 77.6632 L 291.642 77.522 L 291.939 77.4715 L 292.202 77.5119 L 292.393 77.6178 L 292.509 77.7892 L 292.555 78.0212 L 292.509 78.2684 L 292.388 78.4348 L 292.177 78.5356 L 291.889 78.5659 L 291.692 78.5609 L 291.692 78.9593 L 291.939 78.9492 L 292.257 78.9946 L 292.494 79.1156 L 292.635 79.3123 L 292.686 79.5695 L 292.63 79.862 L 292.484 80.0789 L 292.252 80.215 L 291.945 80.2604 L 291.627 80.21 L 291.395 80.0587 L 291.249 79.8166 L 291.193 79.4838 L 290.729 79.4838 L 290.729 79.4838 z" stroke="none" fill-rule="evenodd" fill="rgb(0, 0, 0)"/></g><g stroke="rgb(0, 0, 0)" stroke-width="0.13" stroke-linecap="butt" stroke-linejoin="miter" fill="none"><path d="M 5.73378 80.0209 L 5.76909 80.0209 L 6.25324 79.9402 L 6.61635 79.7032 L 6.84834 79.33 L 6.93407 78.8357 L 6.84834 78.3112 L 6.62644 77.9179 L 6.27341 77.6657 L 5.81952 77.5749 L 5.52197 77.6153 L 5.27989 77.7262 L 5.09329 77.9078 L 4.95713 78.1499 L 4.68479 77.822 L 4.25108 77.706 L 3.8577 77.7817 L 3.56015 77.9986 L 3.37355 78.3516 L 3.30799 78.8357 L 3.38868 79.2896 L 3.61059 79.6376 L 3.96361 79.8645 L 4.43263 79.9402 L 4.46793 79.9402 L 4.46793 79.4913 L 4.14517 79.451 L 3.91318 79.3199 L 3.77197 79.1081 L 3.72154 78.8105 L 3.76188 78.5483 L 3.86779 78.3566 L 4.03926 78.2406 L 4.27125 78.1952 L 4.51837 78.2406 L 4.68479 78.3617 L 4.78566 78.5735 L 4.81592 78.8609 L 4.81087 79.0576 L 5.20929 79.0576 L 5.1992 78.8105 L 5.24459 78.4928 L 5.36563 78.2558 L 5.56231 78.1145 L 5.81952 78.0641 L 6.11203 78.1196 L 6.32889 78.2658 L 6.46505 78.4978 L 6.51044 78.8055 L 6.46001 79.1232 L 6.30871 79.3552 L 6.06664 79.5014 L 5.73378 79.5569 L 5.73378 80.0209 L 5.73378 80.0209 z" stroke="none" fill-rule="evenodd" fill="rgb(0, 0, 0)"/></g><g stroke="rgb(0, 0, 0)" stroke-width="0.13" stroke-linecap="butt" stroke-linejoin="miter" fill="none"><path d="M 290.769 133.083 L 293.175 133.083 L 293.175 132.65 L 291.274 132.65 L 291.38 132.412 L 291.561 132.216 L 292.121 131.858 L 292.419 131.706 L 292.751 131.49 L 292.988 131.237 L 293.125 130.94 L 293.175 130.602 L 293.089 130.178 L 292.852 129.845 L 292.489 129.634 L 292.02 129.558 L 291.536 129.644 L 291.168 129.881 L 290.931 130.259 L 290.85 130.758 L 290.85 130.829 L 291.309 130.829 L 291.309 130.789 L 291.354 130.446 L 291.491 130.193 L 291.707 130.032 L 291.995 129.977 L 292.287 130.027 L 292.504 130.153 L 292.646 130.35 L 292.696 130.597 L 292.661 130.829 L 292.565 131.026 L 292.403 131.197 L 292.182 131.348 L 291.884 131.51 L 291.39 131.822 L 291.042 132.155 L 290.835 132.559 L 290.769 133.068 L 290.769 133.083 L 290.769 133.083 z" stroke="none" fill-rule="evenodd" fill="rgb(0, 0, 0)"/></g><g stroke="rgb(0, 0, 0)" stroke-width="0.13" stroke-linecap="butt" stroke-linejoin="miter" fill="none"><path d="M 6.83321 132.481 L 6.83321 130.075 L 6.39949 130.075 L 6.39949 131.976 L 6.16246 131.87 L 5.96577 131.689 L 5.6077 131.129 L 5.45641 130.831 L 5.23955 130.499 L 4.98738 130.262 L 4.68983 130.125 L 4.35194 130.075 L 3.92831 130.161 L 3.59545 130.398 L 3.38364 130.761 L 3.30799 131.23 L 3.39372 131.714 L 3.63075 132.082 L 4.009 132.319 L 4.50828 132.4 L 4.57888 132.4 L 4.57888 131.941 L 4.53854 131.941 L 4.1956 131.896 L 3.94343 131.759 L 3.78205 131.543 L 3.72658 131.255 L 3.77701 130.963 L 3.90309 130.746 L 4.09978 130.604 L 4.34689 130.554 L 4.57888 130.589 L 4.77557 130.685 L 4.94704 130.847 L 5.09834 131.068 L 5.25972 131.366 L 5.5724 131.86 L 5.90525 132.208 L 6.30871 132.415 L 6.81808 132.481 L 6.83321 132.481 L 6.83321 132.481 z" stroke="none" fill-rule="evenodd" fill="rgb(0, 0, 0)"/></g><g stroke="rgb(0, 0, 0)" stroke-width="0.13" stroke-linecap="butt" stroke-linejoin="miter" fill="none"><path d="M 292.277 28.0832 L 292.731 28.0832 L 292.731 27.2158 L 293.231 27.2158 L 293.231 26.8123 L 292.731 26.8123 L 292.731 24.6588 L 292.272 24.6588 L 290.739 26.772 L 290.739 27.2158 L 292.277 27.2158 L 292.277 28.0832 L 292.277 28.0832 z M 291.163 26.8123 L 292.277 25.2439 L 292.277 26.8123 L 291.163 26.8123 L 291.163 26.8123 z" stroke="none" fill-rule="evenodd" fill="rgb(0, 0, 0)"/></g><g stroke="rgb(0, 0, 0)" stroke-width="0.13" stroke-linecap="butt" stroke-linejoin="miter" fill="none"><path d="M 6.83321 25.9726 L 6.83321 25.5187 L 5.96577 25.5187 L 5.96577 25.0194 L 5.56231 25.0194 L 5.56231 25.5187 L 3.40886 25.5187 L 3.40886 25.9777 L 5.52197 27.5108 L 5.96577 27.5108 L 5.96577 25.9726 L 6.83321 25.9726 L 6.83321 25.9726 z M 5.56231 27.0872 L 3.99387 25.9726 L 5.56231 25.9726 L 5.56231 27.0872 L 5.56231 27.0872 z" stroke="none" fill-rule="evenodd" fill="rgb(0, 0, 0)"/></g><g stroke="rgb(0, 0, 0)" stroke-width="0.13" stroke-linecap="butt" stroke-linejoin="miter" fill="none"><path d="M 291.909 185.583 L 292.368 185.583 L 292.368 182.058 L 292.025 182.058 L 291.934 182.366 L 291.753 182.572 L 291.476 182.693 L 291.092 182.734 L 291.092 183.092 L 291.909 183.092 L 291.909 185.583 L 291.909 185.583 z" stroke="none" fill-rule="evenodd" fill="rgb(0, 0, 0)"/></g><g stroke="rgb(0, 0, 0)" stroke-width="0.13" stroke-linecap="butt" stroke-linejoin="miter" fill="none"><path d="M 6.83321 183.841 L 6.83321 183.382 L 3.30799 183.382 L 3.30799 183.725 L 3.61562 183.816 L 3.8224 183.997 L 3.94343 184.275 L 3.98378 184.658 L 4.34185 184.658 L 4.34185 183.841 L 6.83321 183.841 L 6.83321 183.841 z" stroke="none" fill-rule="evenodd" fill="rgb(0, 0, 0)"/></g><g stroke="rgb(0, 0, 0)" stroke-width="0.13" stroke-linecap="butt" stroke-linejoin="miter" fill="none"><path d="M 279.416 196.571 L 279.81 196.571 L 279.81 193.55 L 279.516 193.55 L 279.438 193.813 L 279.282 193.991 L 279.045 194.094 L 278.716 194.129 L 278.716 194.436 L 279.416 194.436 L 279.416 196.571 L 279.416 196.571 z M 281.422 196.973 L 281.72 196.973 L 282.767 193.489 L 282.464 193.489 L 281.422 196.973 L 281.422 196.973 z M 284.621 196.571 L 285.014 196.571 L 285.014 193.55 L 284.72 193.55 L 284.643 193.813 L 284.487 193.991 L 284.249 194.094 L 283.921 194.129 L 283.921 194.436 L 284.621 194.436 L 284.621 196.571 L 284.621 196.571 z" stroke="none" fill-rule="evenodd" fill="rgb(0, 0, 0)"/></g><g stroke="rgb(0, 0, 0)" stroke-width="0.13" stroke-linecap="butt" stroke-linejoin="miter" fill="none"><path d="M 164.081 160.969 L 163.249 160.969 L 163.249 163.469 L 164.081 163.469 L 164.473 163.39 L 164.765 163.148 L 164.945 162.756 L 165.01 162.219 L 164.952 161.671 L 164.88 161.455 L 164.78 161.282 L 164.488 161.048 L 164.297 160.991 L 164.081 160.969 L 164.081 160.969 z M 164.055 161.268 L 164.329 161.322 L 164.517 161.488 L 164.628 161.783 L 164.664 162.219 L 164.625 162.64 L 164.513 162.936 L 164.322 163.112 L 164.055 163.17 L 163.584 163.17 L 163.584 161.268 L 164.055 161.268 L 164.055 161.268 z M 166.004 161.272 L 166.217 161.272 L 166.718 160.659 L 166.365 160.659 L 166.004 161.272 L 166.004 161.272 z M 165.785 162.594 L 167.053 162.594 L 167.056 162.446 L 166.999 162.032 L 166.84 161.722 L 166.588 161.535 L 166.253 161.466 L 165.925 161.538 L 165.673 161.74 L 165.511 162.068 L 165.453 162.5 L 165.507 162.943 L 165.669 163.267 L 165.918 163.469 L 166.242 163.537 L 166.523 163.491 L 166.754 163.368 L 166.923 163.174 L 167.02 162.914 L 166.707 162.914 L 166.642 163.058 L 166.548 163.166 L 166.282 163.253 L 166.076 163.213 L 165.921 163.087 L 165.821 162.882 L 165.785 162.604 L 165.785 162.594 L 165.785 162.594 z M 165.785 162.327 L 165.824 162.079 L 165.921 161.895 L 166.069 161.783 L 166.264 161.744 L 166.455 161.783 L 166.602 161.895 L 166.692 162.079 L 166.725 162.327 L 165.785 162.327 L 165.785 162.327 z M 168.623 162.341 L 168.317 162.269 L 168.09 162.187 L 168.014 162.017 L 168.036 161.898 L 168.112 161.812 L 168.234 161.758 L 168.411 161.736 L 168.58 161.758 L 168.713 161.823 L 168.8 161.92 L 168.836 162.05 L 169.146 162.05 L 169.146 162.043 L 169.092 161.808 L 168.944 161.625 L 168.713 161.509 L 168.411 161.466 L 168.104 161.509 L 167.881 161.628 L 167.741 161.805 L 167.697 162.028 L 167.73 162.244 L 167.831 162.396 L 167.996 162.504 L 168.238 162.579 L 168.591 162.666 L 168.807 162.756 L 168.865 162.828 L 168.886 162.936 L 168.854 163.069 L 168.767 163.17 L 168.627 163.235 L 168.439 163.256 L 168.241 163.235 L 168.097 163.159 L 168 163.037 L 167.96 162.867 L 167.654 162.867 L 167.705 163.156 L 167.852 163.365 L 168.086 163.491 L 168.411 163.537 L 168.749 163.491 L 168.998 163.365 L 169.149 163.163 L 169.203 162.9 L 169.164 162.673 L 169.052 162.518 L 168.868 162.417 L 168.623 162.341 L 168.623 162.341 z M 170.813 163.202 L 170.813 161.599 L 169.999 161.599 L 169.999 161.87 L 170.496 161.87 L 170.496 163.202 L 169.848 163.202 L 169.848 163.469 L 171.469 163.469 L 171.469 163.202 L 170.813 163.202 L 170.813 163.202 z M 170.824 160.883 L 170.489 160.883 L 170.489 161.243 L 170.824 161.243 L 170.824 160.883 L 170.824 160.883 z M 173.519 163.383 L 173.519 161.535 L 173.216 161.535 L 173.216 161.848 L 172.968 161.563 L 172.816 161.491 L 172.647 161.466 L 172.341 161.538 L 172.103 161.74 L 171.948 162.064 L 171.894 162.5 L 171.948 162.939 L 172.103 163.264 L 172.341 163.469 L 172.647 163.537 L 172.82 163.512 L 172.964 163.447 L 173.216 163.174 L 173.216 163.447 L 173.187 163.664 L 173.108 163.818 L 172.957 163.909 L 172.73 163.941 L 172.532 163.919 L 172.391 163.865 L 172.308 163.772 L 172.283 163.646 L 171.977 163.646 L 171.977 163.66 L 172.024 163.89 L 172.168 164.063 L 172.398 164.175 L 172.712 164.215 L 173.086 164.161 L 173.335 164.009 L 173.476 163.746 L 173.519 163.383 L 173.519 163.383 z M 172.222 162.5 L 172.254 162.179 L 172.352 161.942 L 172.503 161.801 L 172.705 161.751 L 172.917 161.801 L 173.076 161.942 L 173.173 162.179 L 173.209 162.5 L 173.173 162.828 L 173.076 163.062 L 172.917 163.206 L 172.705 163.253 L 172.503 163.206 L 172.352 163.062 L 172.254 162.824 L 172.222 162.5 L 172.222 162.5 z M 174.182 163.469 L 174.499 163.469 L 174.499 162.352 L 174.531 162.097 L 174.635 161.909 L 174.798 161.794 L 175.014 161.751 L 175.187 161.787 L 175.295 161.884 L 175.349 162.046 L 175.367 162.262 L 175.367 163.469 L 175.684 163.469 L 175.684 162.197 L 175.669 161.942 L 175.605 161.729 L 175.392 161.535 L 175.061 161.466 L 174.877 161.491 L 174.722 161.56 L 174.589 161.675 L 174.484 161.83 L 174.484 161.535 L 174.182 161.535 L 174.182 163.469 L 174.182 163.469 z M 177.499 163.217 L 177.499 163.228 L 177.517 163.35 L 177.571 163.437 L 177.798 163.505 L 177.975 163.476 L 177.975 163.231 L 177.899 163.242 L 177.798 163.195 L 177.78 163.051 L 177.78 162.05 L 177.737 161.794 L 177.611 161.614 L 177.391 161.506 L 177.081 161.466 L 176.779 161.509 L 176.556 161.632 L 176.415 161.823 L 176.368 162.075 L 176.368 162.097 L 176.653 162.097 L 176.678 161.945 L 176.757 161.837 L 176.887 161.772 L 177.071 161.747 L 177.247 161.765 L 177.373 161.819 L 177.449 161.913 L 177.474 162.043 L 177.46 162.194 L 177.402 162.269 L 177.258 162.305 L 176.988 162.334 L 176.678 162.399 L 176.458 162.514 L 176.329 162.695 L 176.289 162.961 L 176.325 163.199 L 176.437 163.375 L 176.617 163.487 L 176.865 163.527 L 177.2 163.451 L 177.499 163.217 L 177.499 163.217 z M 177.463 162.792 L 177.42 162.979 L 177.305 163.123 L 177.132 163.217 L 176.919 163.249 L 176.782 163.231 L 176.685 163.174 L 176.624 163.073 L 176.606 162.932 L 176.62 162.806 L 176.678 162.716 L 176.909 162.615 L 177.2 162.572 L 177.463 162.486 L 177.463 162.792 L 177.463 162.792 z M 178.944 161.87 L 178.944 162.839 L 178.965 163.152 L 179.066 163.368 L 179.268 163.494 L 179.61 163.537 L 179.985 163.519 L 179.985 163.246 L 179.711 163.267 L 179.463 163.238 L 179.329 163.148 L 179.272 162.997 L 179.261 162.785 L 179.261 161.87 L 179.985 161.87 L 179.985 161.599 L 179.261 161.599 L 179.261 161.034 L 178.944 161.034 L 178.944 161.599 L 178.396 161.599 L 178.396 161.87 L 178.944 161.87 L 178.944 161.87 z M 181.656 163.202 L 181.656 161.599 L 180.842 161.599 L 180.842 161.87 L 181.339 161.87 L 181.339 163.202 L 180.691 163.202 L 180.691 163.469 L 182.312 163.469 L 182.312 163.202 L 181.656 163.202 L 181.656 163.202 z M 181.667 160.883 L 181.332 160.883 L 181.332 161.243 L 181.667 161.243 L 181.667 160.883 L 181.667 160.883 z M 182.762 162.504 L 182.82 162.943 L 182.986 163.267 L 183.249 163.469 L 183.602 163.537 L 183.951 163.469 L 184.214 163.271 L 184.38 162.947 L 184.441 162.504 L 184.38 162.064 L 184.214 161.736 L 183.951 161.538 L 183.602 161.466 L 183.249 161.538 L 182.986 161.74 L 182.82 162.064 L 182.762 162.504 L 182.762 162.504 z M 183.087 162.5 L 183.119 162.176 L 183.22 161.942 L 183.382 161.798 L 183.602 161.747 L 183.818 161.798 L 183.98 161.938 L 184.081 162.176 L 184.117 162.5 L 184.081 162.828 L 183.98 163.066 L 183.818 163.21 L 183.602 163.256 L 183.382 163.21 L 183.22 163.066 L 183.119 162.828 L 183.087 162.5 L 183.087 162.5 z M 185.025 163.469 L 185.342 163.469 L 185.342 162.352 L 185.374 162.097 L 185.478 161.909 L 185.641 161.794 L 185.857 161.751 L 186.03 161.787 L 186.138 161.884 L 186.192 162.046 L 186.21 162.262 L 186.21 163.469 L 186.527 163.469 L 186.527 162.197 L 186.512 161.942 L 186.447 161.729 L 186.235 161.535 L 185.904 161.466 L 185.72 161.491 L 185.565 161.56 L 185.432 161.675 L 185.327 161.83 L 185.327 161.535 L 185.025 161.535 L 185.025 163.469 L 185.025 163.469 z" stroke="none" fill-rule="evenodd" fill="rgb(0, 0, 0)"/></g><g stroke="rgb(0, 0, 0)" stroke-width="0.13" stroke-linecap="butt" stroke-linejoin="miter" fill="none"><path d="M 146.264 174.47 L 146.867 174.47 L 146.867 172.401 L 148.76 172.401 L 148.76 171.863 L 146.867 171.863 L 146.867 170.514 L 149.195 170.514 L 149.195 169.97 L 146.264 169.97 L 146.264 174.47 L 146.264 174.47 z M 150.368 174.47 L 150.939 174.47 L 150.939 172.479 L 150.997 171.999 L 151.172 171.656 L 151.457 171.448 L 151.84 171.377 L 152.125 171.422 L 152.339 171.552 L 152.469 171.772 L 152.514 172.071 L 153.091 172.071 L 153.014 171.545 L 152.8 171.169 L 152.443 170.942 L 151.957 170.865 L 151.626 170.916 L 151.341 171.046 L 151.088 171.267 L 150.887 171.565 L 150.887 170.988 L 150.368 170.988 L 150.368 174.47 L 150.368 174.47 z M 153.889 172.732 L 153.993 173.523 L 154.291 174.107 L 154.764 174.47 L 155.4 174.593 L 156.029 174.47 L 156.502 174.113 L 156.8 173.53 L 156.911 172.732 L 156.8 171.941 L 156.502 171.351 L 156.029 170.994 L 155.4 170.865 L 154.764 170.994 L 154.291 171.357 L 153.993 171.941 L 153.889 172.732 L 153.889 172.732 z M 154.473 172.726 L 154.531 172.142 L 154.713 171.72 L 155.004 171.461 L 155.4 171.37 L 155.789 171.461 L 156.081 171.714 L 156.262 172.142 L 156.327 172.726 L 156.262 173.316 L 156.081 173.744 L 155.789 174.003 L 155.4 174.087 L 155.004 174.003 L 154.713 173.744 L 154.531 173.316 L 154.473 172.726 L 154.473 172.726 z M 157.961 174.47 L 158.532 174.47 L 158.532 172.46 L 158.59 171.999 L 158.778 171.662 L 159.07 171.455 L 159.459 171.377 L 159.77 171.442 L 159.965 171.617 L 160.062 171.909 L 160.094 172.298 L 160.094 174.47 L 160.665 174.47 L 160.665 172.181 L 160.639 171.72 L 160.522 171.338 L 160.14 170.988 L 159.543 170.865 L 159.213 170.91 L 158.934 171.033 L 158.694 171.241 L 158.506 171.519 L 158.506 170.988 L 157.961 170.988 L 157.961 174.47 L 157.961 174.47 z M 162.63 171.591 L 162.63 173.335 L 162.669 173.899 L 162.85 174.288 L 163.213 174.515 L 163.829 174.593 L 164.504 174.561 L 164.504 174.068 L 164.011 174.107 L 163.563 174.055 L 163.323 173.893 L 163.22 173.62 L 163.2 173.238 L 163.2 171.591 L 164.504 171.591 L 164.504 171.104 L 163.2 171.104 L 163.2 170.086 L 162.63 170.086 L 162.63 171.104 L 161.644 171.104 L 161.644 171.591 L 162.63 171.591 L 162.63 171.591 z M 169.697 174.47 L 172.589 174.47 L 172.589 173.925 L 170.294 173.925 L 170.294 169.97 L 169.697 169.97 L 169.697 174.47 L 169.697 174.47 z M 174.074 172.894 L 176.357 172.894 L 176.363 172.628 L 176.259 171.883 L 175.974 171.325 L 175.52 170.988 L 174.917 170.865 L 174.327 170.994 L 173.873 171.357 L 173.581 171.947 L 173.478 172.726 L 173.575 173.523 L 173.867 174.107 L 174.314 174.47 L 174.898 174.593 L 175.403 174.509 L 175.818 174.288 L 176.123 173.938 L 176.298 173.471 L 175.734 173.471 L 175.617 173.731 L 175.449 173.925 L 174.969 174.081 L 174.599 174.009 L 174.321 173.782 L 174.139 173.413 L 174.074 172.914 L 174.074 172.894 L 174.074 172.894 z M 174.074 172.414 L 174.146 171.967 L 174.321 171.636 L 174.586 171.435 L 174.937 171.364 L 175.28 171.435 L 175.546 171.636 L 175.708 171.967 L 175.767 172.414 L 174.074 172.414 L 174.074 172.414 z M 178.269 171.591 L 178.269 174.47 L 178.84 174.47 L 178.84 171.591 L 180.137 171.591 L 180.137 171.104 L 178.84 171.104 L 178.84 170.89 L 178.885 170.631 L 179.035 170.456 L 179.287 170.352 L 179.651 170.313 L 180.137 170.339 L 180.137 169.847 L 179.521 169.814 L 178.963 169.872 L 178.574 170.048 L 178.341 170.352 L 178.269 170.787 L 178.269 171.104 L 177.225 171.104 L 177.225 171.591 L 178.269 171.591 L 178.269 171.591 z M 182.147 171.591 L 182.147 173.335 L 182.186 173.899 L 182.367 174.288 L 182.731 174.515 L 183.347 174.593 L 184.021 174.561 L 184.021 174.068 L 183.528 174.107 L 183.081 174.055 L 182.841 173.893 L 182.737 173.62 L 182.718 173.238 L 182.718 171.591 L 184.021 171.591 L 184.021 171.104 L 182.718 171.104 L 182.718 170.086 L 182.147 170.086 L 182.147 171.104 L 181.161 171.104 L 181.161 171.591 L 182.147 171.591 L 182.147 171.591 z M 188.981 172.758 L 189.072 173.568 L 189.357 174.146 L 189.837 174.476 L 190.531 174.593 L 191.218 174.476 L 191.698 174.146 L 191.983 173.575 L 192.081 172.758 L 192.081 169.97 L 191.478 169.97 L 191.478 172.79 L 191.419 173.341 L 191.244 173.737 L 190.946 173.97 L 190.531 174.048 L 190.103 173.97 L 189.805 173.737 L 189.63 173.348 L 189.578 172.79 L 189.578 169.97 L 188.981 169.97 L 188.981 172.758 L 188.981 172.758 z M 193.63 171.526 L 193.63 170.988 L 193.06 170.988 L 193.06 175.818 L 193.63 175.818 L 193.63 173.938 L 193.831 174.243 L 194.058 174.444 L 194.629 174.593 L 195.174 174.47 L 195.602 174.1 L 195.88 173.517 L 195.984 172.726 L 195.88 171.941 L 195.602 171.357 L 195.174 170.994 L 194.629 170.865 L 194.318 170.903 L 194.052 171.027 L 193.825 171.234 L 193.63 171.526 L 193.63 171.526 z M 194.532 174.081 L 194.149 173.996 L 193.87 173.737 L 193.695 173.316 L 193.637 172.726 L 193.695 172.142 L 193.87 171.72 L 194.149 171.468 L 194.532 171.377 L 194.882 171.468 L 195.161 171.727 L 195.336 172.148 L 195.401 172.726 L 195.336 173.309 L 195.161 173.737 L 194.882 173.996 L 194.532 174.081 L 194.532 174.081 z M 197.534 171.526 L 197.534 170.988 L 196.963 170.988 L 196.963 175.818 L 197.534 175.818 L 197.534 173.938 L 197.735 174.243 L 197.962 174.444 L 198.532 174.593 L 199.077 174.47 L 199.505 174.1 L 199.784 173.517 L 199.888 172.726 L 199.784 171.941 L 199.505 171.357 L 199.077 170.994 L 198.532 170.865 L 198.221 170.903 L 197.955 171.027 L 197.728 171.234 L 197.534 171.526 L 197.534 171.526 z M 198.435 174.081 L 198.053 173.996 L 197.774 173.737 L 197.599 173.316 L 197.54 172.726 L 197.599 172.142 L 197.774 171.72 L 198.053 171.468 L 198.435 171.377 L 198.785 171.468 L 199.064 171.727 L 199.239 172.148 L 199.304 172.726 L 199.239 173.309 L 199.064 173.737 L 198.785 173.996 L 198.435 174.081 L 198.435 174.081 z M 201.398 172.894 L 203.681 172.894 L 203.687 172.628 L 203.584 171.883 L 203.298 171.325 L 202.844 170.988 L 202.241 170.865 L 201.651 170.994 L 201.197 171.357 L 200.906 171.947 L 200.802 172.726 L 200.899 173.523 L 201.191 174.107 L 201.638 174.47 L 202.222 174.593 L 202.728 174.509 L 203.143 174.288 L 203.447 173.938 L 203.622 173.471 L 203.058 173.471 L 202.942 173.731 L 202.773 173.925 L 202.293 174.081 L 201.924 174.009 L 201.645 173.782 L 201.463 173.413 L 201.398 172.914 L 201.398 172.894 L 201.398 172.894 z M 201.398 172.414 L 201.47 171.967 L 201.645 171.636 L 201.911 171.435 L 202.261 171.364 L 202.604 171.435 L 202.87 171.636 L 203.032 171.967 L 203.091 172.414 L 201.398 172.414 L 201.398 172.414 z M 205.017 174.47 L 205.587 174.47 L 205.587 172.479 L 205.646 171.999 L 205.821 171.656 L 206.106 171.448 L 206.488 171.377 L 206.774 171.422 L 206.988 171.552 L 207.117 171.772 L 207.163 172.071 L 207.74 172.071 L 207.662 171.545 L 207.448 171.169 L 207.091 170.942 L 206.605 170.865 L 206.274 170.916 L 205.989 171.046 L 205.736 171.267 L 205.535 171.565 L 205.535 170.988 L 205.017 170.988 L 205.017 174.47 L 205.017 174.47 z M 211.981 174.47 L 212.577 174.47 L 213.05 173.147 L 214.847 173.147 L 215.32 174.47 L 215.929 174.47 L 214.282 169.963 L 213.621 169.963 L 211.981 174.47 L 211.981 174.47 z M 213.258 172.596 L 213.952 170.612 L 214.646 172.596 L 213.258 172.596 L 213.258 172.596 z M 217.071 172.985 L 218.64 172.985 L 218.64 172.473 L 217.071 172.473 L 217.071 172.985 L 217.071 172.985 z M 219.787 174.47 L 220.384 174.47 L 220.857 173.147 L 222.653 173.147 L 223.127 174.47 L 223.736 174.47 L 222.089 169.963 L 221.428 169.963 L 219.787 174.47 L 219.787 174.47 z M 221.065 172.596 L 221.759 170.612 L 222.452 172.596 L 221.065 172.596 L 221.065 172.596 z M 224.534 174.47 L 225.104 174.47 L 225.104 172.479 L 225.163 171.999 L 225.338 171.656 L 225.623 171.448 L 226.006 171.377 L 226.291 171.422 L 226.505 171.552 L 226.635 171.772 L 226.68 172.071 L 227.257 172.071 L 227.179 171.545 L 226.965 171.169 L 226.609 170.942 L 226.122 170.865 L 225.792 170.916 L 225.506 171.046 L 225.254 171.267 L 225.053 171.565 L 225.053 170.988 L 224.534 170.988 L 224.534 174.47 L 224.534 174.47 z M 227.996 174.47 L 228.522 174.47 L 228.522 172.142 L 228.554 171.792 L 228.651 171.539 L 228.8 171.39 L 228.995 171.331 L 229.151 171.383 L 229.254 171.513 L 229.306 171.733 L 229.326 172.025 L 229.326 174.47 L 229.818 174.47 L 229.818 172.142 L 229.851 171.798 L 229.948 171.545 L 230.104 171.39 L 230.298 171.331 L 230.454 171.383 L 230.558 171.513 L 230.622 172.025 L 230.622 174.47 L 231.148 174.47 L 231.148 172.064 L 231.115 171.565 L 231.012 171.182 L 230.804 170.949 L 230.467 170.865 L 230.071 170.994 L 229.767 171.37 L 229.527 171.001 L 229.125 170.865 L 228.755 170.994 L 228.502 171.357 L 228.502 170.988 L 227.996 170.988 L 227.996 174.47 L 227.996 174.47 z M 236.043 174.47 L 236.646 174.47 L 236.646 172.401 L 238.54 172.401 L 238.54 171.863 L 236.646 171.863 L 236.646 170.514 L 238.974 170.514 L 238.974 169.97 L 236.043 169.97 L 236.043 174.47 L 236.043 174.47 z M 240.148 174.47 L 240.718 174.47 L 240.718 172.479 L 240.777 171.999 L 240.952 171.656 L 241.237 171.448 L 241.62 171.377 L 241.905 171.422 L 242.119 171.552 L 242.249 171.772 L 242.294 172.071 L 242.871 172.071 L 242.793 171.545 L 242.579 171.169 L 242.223 170.942 L 241.736 170.865 L 241.406 170.916 L 241.12 171.046 L 240.867 171.267 L 240.666 171.565 L 240.666 170.988 L 240.148 170.988 L 240.148 174.47 L 240.148 174.47 z M 243.669 172.732 L 243.772 173.523 L 244.071 174.107 L 244.544 174.47 L 245.179 174.593 L 245.808 174.47 L 246.282 174.113 L 246.58 173.53 L 246.69 172.732 L 246.58 171.941 L 246.282 171.351 L 245.808 170.994 L 245.179 170.865 L 244.544 170.994 L 244.071 171.357 L 243.772 171.941 L 243.669 172.732 L 243.669 172.732 z M 244.252 172.726 L 244.311 172.142 L 244.492 171.72 L 244.784 171.461 L 245.179 171.37 L 245.568 171.461 L 245.86 171.714 L 246.042 172.142 L 246.107 172.726 L 246.042 173.316 L 245.86 173.744 L 245.568 174.003 L 245.179 174.087 L 244.784 174.003 L 244.492 173.744 L 244.311 173.316 L 244.252 172.726 L 244.252 172.726 z M 247.741 174.47 L 248.311 174.47 L 248.311 172.46 L 248.37 171.999 L 248.558 171.662 L 248.849 171.455 L 249.238 171.377 L 249.55 171.442 L 249.744 171.617 L 249.841 171.909 L 249.874 172.298 L 249.874 174.47 L 250.445 174.47 L 250.445 172.181 L 250.419 171.72 L 250.302 171.338 L 249.919 170.988 L 249.323 170.865 L 248.992 170.91 L 248.713 171.033 L 248.473 171.241 L 248.285 171.519 L 248.285 170.988 L 247.741 170.988 L 247.741 174.47 L 247.741 174.47 z M 252.409 171.591 L 252.409 173.335 L 252.448 173.899 L 252.63 174.288 L 252.993 174.515 L 253.609 174.593 L 254.283 174.561 L 254.283 174.068 L 253.79 174.107 L 253.343 174.055 L 253.103 173.893 L 252.999 173.62 L 252.98 173.238 L 252.98 171.591 L 254.283 171.591 L 254.283 171.104 L 252.98 171.104 L 252.98 170.086 L 252.409 170.086 L 252.409 171.104 L 251.424 171.104 L 251.424 171.591 L 252.409 171.591 L 252.409 171.591 z M 259.243 172.758 L 259.334 173.568 L 259.62 174.146 L 260.099 174.476 L 260.793 174.593 L 261.48 174.476 L 261.96 174.146 L 262.246 173.575 L 262.343 172.758 L 262.343 169.97 L 261.74 169.97 L 261.74 172.79 L 261.682 173.341 L 261.506 173.737 L 261.208 173.97 L 260.793 174.048 L 260.365 173.97 L 260.067 173.737 L 259.892 173.348 L 259.84 172.79 L 259.84 169.97 L 259.243 169.97 L 259.243 172.758 L 259.243 172.758 z M 263.893 171.526 L 263.893 170.988 L 263.322 170.988 L 263.322 175.818 L 263.893 175.818 L 263.893 173.938 L 264.094 174.243 L 264.321 174.444 L 264.891 174.593 L 265.436 174.47 L 265.864 174.1 L 266.143 173.517 L 266.246 172.726 L 266.143 171.941 L 265.864 171.357 L 265.436 170.994 L 264.891 170.865 L 264.58 170.903 L 264.314 171.027 L 264.087 171.234 L 263.893 171.526 L 263.893 171.526 z M 264.794 174.081 L 264.411 173.996 L 264.133 173.737 L 263.957 173.316 L 263.899 172.726 L 263.957 172.142 L 264.133 171.72 L 264.411 171.468 L 264.794 171.377 L 265.144 171.468 L 265.423 171.727 L 265.598 172.148 L 265.663 172.726 L 265.598 173.309 L 265.423 173.737 L 265.144 173.996 L 264.794 174.081 L 264.794 174.081 z M 267.796 171.526 L 267.796 170.988 L 267.225 170.988 L 267.225 175.818 L 267.796 175.818 L 267.796 173.938 L 267.997 174.243 L 268.224 174.444 L 268.795 174.593 L 269.339 174.47 L 269.767 174.1 L 270.046 173.517 L 270.15 172.726 L 270.046 171.941 L 269.767 171.357 L 269.339 170.994 L 268.795 170.865 L 268.483 170.903 L 268.217 171.027 L 267.991 171.234 L 267.796 171.526 L 267.796 171.526 z M 268.697 174.081 L 268.315 173.996 L 268.036 173.737 L 267.861 173.316 L 267.803 172.726 L 267.861 172.142 L 268.036 171.72 L 268.315 171.468 L 268.697 171.377 L 269.047 171.468 L 269.326 171.727 L 269.501 172.148 L 269.566 172.726 L 269.501 173.309 L 269.326 173.737 L 269.047 173.996 L 268.697 174.081 L 268.697 174.081 z M 271.661 172.894 L 273.943 172.894 L 273.949 172.628 L 273.846 171.883 L 273.56 171.325 L 273.107 170.988 L 272.504 170.865 L 271.913 170.994 L 271.46 171.357 L 271.168 171.947 L 271.064 172.726 L 271.161 173.523 L 271.453 174.107 L 271.9 174.47 L 272.484 174.593 L 272.99 174.509 L 273.405 174.288 L 273.71 173.938 L 273.885 173.471 L 273.321 173.471 L 273.204 173.731 L 273.035 173.925 L 272.555 174.081 L 272.186 174.009 L 271.907 173.782 L 271.725 173.413 L 271.661 172.914 L 271.661 172.894 L 271.661 172.894 z M 271.661 172.414 L 271.732 171.967 L 271.907 171.636 L 272.173 171.435 L 272.523 171.364 L 272.867 171.435 L 273.132 171.636 L 273.295 171.967 L 273.353 172.414 L 271.661 172.414 L 271.661 172.414 z M 275.279 174.47 L 275.849 174.47 L 275.849 172.479 L 275.908 171.999 L 276.083 171.656 L 276.368 171.448 L 276.751 171.377 L 277.036 171.422 L 277.25 171.552 L 277.38 171.772 L 277.425 172.071 L 278.002 172.071 L 277.924 171.545 L 277.71 171.169 L 277.354 170.942 L 276.867 170.865 L 276.537 170.916 L 276.251 171.046 L 275.998 171.267 L 275.797 171.565 L 275.797 170.988 L 275.279 170.988 L 275.279 174.47 L 275.279 174.47 z" stroke="none" fill-rule="evenodd" fill="rgb(0, 0, 0)"/></g><g stroke="rgb(0, 0, 0)" stroke-width="0.13" stroke-linecap="butt" stroke-linejoin="miter" fill="none"><path d="M 114.972 92.1738 L 115.441 92.1738 L 115.441 90.565 L 116.914 90.565 L 116.914 90.1464 L 115.441 90.1464 L 115.441 89.0974 L 117.252 89.0974 L 117.252 88.6738 L 114.972 88.6738 L 114.972 92.1738 L 114.972 92.1738 z M 118.018 92.1738 L 120.268 92.1738 L 120.268 91.7501 L 118.482 91.7501 L 118.482 88.6738 L 118.018 88.6738 L 118.018 92.1738 L 118.018 92.1738 z M 120.873 90.8423 L 120.943 91.4727 L 121.165 91.9216 L 121.539 92.1788 L 122.078 92.2696 L 122.613 92.1788 L 122.986 91.9216 L 123.208 91.4778 L 123.284 90.8423 L 123.284 88.6738 L 122.814 88.6738 L 122.814 90.8676 L 122.769 91.2962 L 122.633 91.6039 L 122.401 91.7854 L 122.078 91.8459 L 121.745 91.7854 L 121.513 91.6039 L 121.377 91.3013 L 121.337 90.8676 L 121.337 88.6738 L 120.873 88.6738 L 120.873 90.8423 L 120.873 90.8423 z M 124.504 91.0189 L 125.724 91.0189 L 125.724 90.6204 L 124.504 90.6204 L 124.504 91.0189 L 124.504 91.0189 z" stroke="none" fill-rule="evenodd" fill="rgb(0, 0, 0)"/></g><g stroke="rgb(0, 0, 0)" stroke-width="0.13" stroke-linecap="butt" stroke-linejoin="miter" fill="none"><path d="M 114.972 98.2206 L 115.441 98.2206 L 115.441 96.6118 L 116.914 96.6118 L 116.914 96.1932 L 115.441 96.1932 L 115.441 95.1442 L 117.252 95.1442 L 117.252 94.7206 L 114.972 94.7206 L 114.972 98.2206 L 114.972 98.2206 z M 117.837 96.8892 L 117.907 97.5196 L 118.129 97.9684 L 118.503 98.2256 L 119.042 98.3164 L 119.577 98.2256 L 119.95 97.9684 L 120.172 97.5246 L 120.247 96.8892 L 120.247 94.7206 L 119.778 94.7206 L 119.778 96.9144 L 119.733 97.3431 L 119.597 97.6507 L 119.365 97.8323 L 119.042 97.8928 L 118.709 97.8323 L 118.477 97.6507 L 118.341 97.3481 L 118.301 96.9144 L 118.301 94.7206 L 117.837 94.7206 L 117.837 96.8892 L 117.837 96.8892 z M 120.873 96.8892 L 120.943 97.5196 L 121.165 97.9684 L 121.539 98.2256 L 122.078 98.3164 L 122.613 98.2256 L 122.986 97.9684 L 123.208 97.5246 L 123.284 96.8892 L 123.284 94.7206 L 122.814 94.7206 L 122.814 96.9144 L 122.769 97.3431 L 122.633 97.6507 L 122.401 97.8323 L 122.078 97.8928 L 121.745 97.8323 L 121.513 97.6507 L 121.377 97.3481 L 121.337 96.9144 L 121.337 94.7206 L 120.873 94.7206 L 120.873 96.8892 L 120.873 96.8892 z" stroke="none" fill-rule="evenodd" fill="rgb(0, 0, 0)"/></g><g stroke="rgb(0, 0, 0)" stroke-width="0.13" stroke-linecap="butt" stroke-linejoin="miter" fill="none"><path d="M 160.961 95.4759 L 161.43 95.4759 L 161.43 93.8671 L 162.903 93.8671 L 162.903 93.4485 L 161.43 93.4485 L 161.43 92.3995 L 163.241 92.3995 L 163.241 91.9759 L 160.961 91.9759 L 160.961 95.4759 L 160.961 95.4759 z M 164.008 95.4759 L 166.257 95.4759 L 166.257 95.0522 L 164.472 95.0522 L 164.472 91.9759 L 164.008 91.9759 L 164.008 95.4759 L 164.008 95.4759 z M 166.862 94.1445 L 166.933 94.7749 L 167.155 95.2237 L 167.528 95.4809 L 168.067 95.5717 L 168.602 95.4809 L 168.975 95.2237 L 169.197 94.7799 L 169.273 94.1445 L 169.273 91.9759 L 168.804 91.9759 L 168.804 94.1697 L 168.758 94.5984 L 168.622 94.906 L 168.39 95.0875 L 168.067 95.1481 L 167.734 95.0875 L 167.503 94.906 L 167.366 94.6034 L 167.326 94.1697 L 167.326 91.9759 L 166.862 91.9759 L 166.862 94.1445 L 166.862 94.1445 z M 170.493 94.321 L 171.714 94.321 L 171.714 93.9226 L 170.493 93.9226 L 170.493 94.321 L 170.493 94.321 z" stroke="none" fill-rule="evenodd" fill="rgb(0, 0, 0)"/></g><g stroke="rgb(0, 0, 0)" stroke-width="0.13" stroke-linecap="butt" stroke-linejoin="miter" fill="none"><path d="M 160.961 101.523 L 161.43 101.523 L 161.43 99.9139 L 162.903 99.9139 L 162.903 99.4953 L 161.43 99.4953 L 161.43 98.4463 L 163.241 98.4463 L 163.241 98.0227 L 160.961 98.0227 L 160.961 101.523 L 160.961 101.523 z M 163.826 100.191 L 163.897 100.822 L 164.118 101.271 L 164.492 101.528 L 165.031 101.619 L 165.566 101.528 L 165.939 101.271 L 166.161 100.827 L 166.237 100.191 L 166.237 98.0227 L 165.768 98.0227 L 165.768 100.217 L 165.722 100.645 L 165.586 100.953 L 165.354 101.134 L 165.031 101.195 L 164.698 101.134 L 164.466 100.953 L 164.33 100.65 L 164.29 100.217 L 164.29 98.0227 L 163.826 98.0227 L 163.826 100.191 L 163.826 100.191 z M 168.062 98.0227 L 166.897 98.0227 L 166.897 101.523 L 168.062 101.523 L 168.612 101.412 L 169.021 101.074 L 169.273 100.524 L 169.363 99.7727 L 169.283 99.0061 L 169.182 98.7035 L 169.041 98.4615 L 168.632 98.1337 L 168.365 98.053 L 168.062 98.0227 L 168.062 98.0227 z M 168.027 98.4413 L 168.41 98.5169 L 168.673 98.7489 L 168.829 99.1625 L 168.879 99.7727 L 168.824 100.363 L 168.667 100.776 L 168.4 101.023 L 168.027 101.104 L 167.366 101.104 L 167.366 98.4413 L 168.027 98.4413 L 168.027 98.4413 z" stroke="none" fill-rule="evenodd" fill="rgb(0, 0, 0)"/></g></svg>