<?xml version="1.0" encoding="UTF-8" standalone="no"?>
<svg
   xmlns:dsy="http://www.3ds.com/print"
   xmlns:dc="http://purl.org/dc/elements/1.1/"
   xmlns:cc="http://creativecommons.org/ns#"
   xmlns:rdf="http://www.w3.org/1999/02/22-rdf-syntax-ns#"
   xmlns:svg="http://www.w3.org/2000/svg"
   xmlns="http://www.w3.org/2000/svg"
   xmlns:sodipodi="http://sodipodi.sourceforge.net/DTD/sodipodi-0.dtd"
   xmlns:inkscape="http://www.inkscape.org/namespaces/inkscape"
   dsy:text-version="18000"
   width="297"
   height="210"
   viewBox="0 0 297 210"
   version="1.1"
   id="svg64"
   sodipodi:docname="FU.svg"
   inkscape:version="0.92.4 (5da689c313, 2019-01-14)">
  <metadata
     id="metadata70">
    <rdf:RDF>
      <cc:Work
         rdf:about="">
        <dc:format>image/svg+xml</dc:format>
        <dc:type
           rdf:resource="http://purl.org/dc/dcmitype/StillImage" />
      </cc:Work>
    </rdf:RDF>
  </metadata>
  <defs
     id="defs68" />
  <sodipodi:namedview
     pagecolor="#ffffff"
     bordercolor="#666666"
     borderopacity="1"
     objecttolerance="10"
     gridtolerance="10"
     guidetolerance="10"
     inkscape:pageopacity="0"
     inkscape:pageshadow="2"
     inkscape:window-width="2560"
     inkscape:window-height="1361"
     id="namedview66"
     showgrid="false"
     inkscape:zoom="12.714453"
     inkscape:cx="85.207342"
     inkscape:cy="180.70277"
     inkscape:window-x="-9"
     inkscape:window-y="-9"
     inkscape:window-maximized="1"
     inkscape:current-layer="svg64" />
  <g
     stroke="rgb(0, 0, 0)"
     stroke-width="0.35"
     stroke-linecap="butt"
     stroke-linejoin="miter"
     fill="none"
     id="g30">
    <path
       d="M 8.34689 28.3212 A 7 7 0 0 0 15.2788 40.3275"
       id="path2"
       style="stroke:#ff0000;stroke-opacity:1;stroke-width:0.18897638;stroke-miterlimit:4;stroke-dasharray:none" />
    <circle
       cx="12.6565"
       cy="33.8372"
       r="3.2"
       id="circle4"
       style="stroke:#ff0000;stroke-opacity:1;stroke-width:0.18897638;stroke-miterlimit:4;stroke-dasharray:none" />
    <path
       d="M 15.2788 40.3275 L 30.3079 34.2553"
       id="path6"
       style="stroke:#ff0000;stroke-opacity:1;stroke-width:0.18897638;stroke-miterlimit:4;stroke-dasharray:none" />
    <path
       d="M 31.5874 18.1615 A 18888.7 18888.7 0 0 0 30.3073 34.2555"
       id="path8"
       style="stroke:#ff0000;stroke-opacity:1;stroke-width:0.18897638;stroke-miterlimit:4;stroke-dasharray:none" />
    <path
       d="M 8.34689 28.3212 L 31.1584 10.4988"
       id="path10"
       style="stroke:#ff0000;stroke-opacity:1;stroke-width:0.18897638;stroke-miterlimit:4;stroke-dasharray:none" />
    <path
       d="M 31.1587 10.4988 A 116.759 116.759 0 0 0 31.5876 18.1635"
       id="path12"
       style="stroke:#ff0000;stroke-opacity:1;stroke-width:0.18897638;stroke-miterlimit:4;stroke-dasharray:none" />
    <path
       d="M 51.6045 11.9542 A 7 7 0 0 0 37.7408 11.9542"
       id="path14"
       style="stroke:#ff0000;stroke-opacity:1;stroke-width:0.18897638;stroke-miterlimit:4;stroke-dasharray:none" />
    <circle
       cx="44.6727"
       cy="12.9284"
       r="3.2"
       id="circle16"
       style="stroke:#ff0000;stroke-opacity:1;stroke-width:0.18897638;stroke-miterlimit:4;stroke-dasharray:none" />
    <path
       d="M 51.6045 11.9542 L 53.7579 27.2758"
       id="path18"
       style="stroke:#ff0000;stroke-opacity:1;stroke-width:0.18897638;stroke-miterlimit:4;stroke-dasharray:none" />
    <path
       d="M 53.7596 27.277 A 22605.7 22605.7 0 0 0 39.6468 36.8288"
       id="path20"
       style="stroke:#ff0000;stroke-opacity:1;stroke-width:0.18897638;stroke-miterlimit:4;stroke-dasharray:none" />
    <path
       d="M 37.7408 11.9542 L 33.7132 40.6123"
       id="path22"
       style="stroke:#ff0000;stroke-opacity:1;stroke-width:0.18897638;stroke-miterlimit:4;stroke-dasharray:none" />
    <path
       d="M 39.644 36.8277 A 127.702 127.702 0 0 0 38.7609 37.3623"
       id="path24"
       style="stroke:#ff0000;stroke-opacity:1;stroke-width:0.18897638;stroke-miterlimit:4;stroke-dasharray:none" />
    <path
       d="M 38.7609 37.3624 A 126.593 126.593 0 0 0 33.7131 40.6123"
       id="path26"
       style="stroke:#ff0000;stroke-opacity:1;stroke-width:0.18897638;stroke-miterlimit:4;stroke-dasharray:none" />
    <path
       d="M 33.7132 40.6123 L 33.712 40.6207"
       id="path28" />
  </g>
  <g
     stroke="rgb(0, 0, 0)"
     stroke-width="0.13"
     stroke-linecap="butt"
     stroke-linejoin="miter"
     fill="none"
     id="g34">
    <path
       d="M 13.8467 26.3479 L 14.1118 26.3479 L 14.3222 25.7601 L 15.1205 25.7601 L 15.3309 26.3479 L 15.6017 26.3479 L 14.8698 24.3451 L 14.5758 24.3451 L 13.8467 26.3479 L 13.8467 26.3479 z M 14.4144 25.5151 L 14.7228 24.6333 L 15.0311 25.5151 L 14.4144 25.5151 L 14.4144 25.5151 z M 15.5816 26.3479 L 15.8467 26.3479 L 16.0571 25.7601 L 16.8554 25.7601 L 17.0657 26.3479 L 17.3366 26.3479 L 16.6046 24.3451 L 16.3107 24.3451 L 15.5816 26.3479 L 15.5816 26.3479 z M 16.1493 25.5151 L 16.4577 24.6333 L 16.766 25.5151 L 16.1493 25.5151 L 16.1493 25.5151 z M 17.6911 26.3479 L 17.9447 26.3479 L 17.9447 25.4632 L 17.9706 25.25 L 18.0484 25.0972 L 18.1752 25.005 L 18.3453 24.9733 L 18.4721 24.9935 L 18.5672 25.0511 L 18.6248 25.1491 L 18.645 25.2817 L 18.9015 25.2817 L 18.8669 25.0482 L 18.7718 24.8811 L 18.6133 24.7802 L 18.3971 24.7456 L 18.2502 24.7687 L 18.1234 24.8263 L 18.011 24.9243 L 17.9216 25.0569 L 17.9216 24.8004 L 17.6911 24.8004 L 17.6911 26.3479 L 17.6911 26.3479 z M 19.23 26.3479 L 19.4634 26.3479 L 19.4634 25.3134 L 19.4778 25.1577 L 19.5211 25.0453 L 19.5873 24.9791 L 19.6738 24.9531 L 19.743 24.9762 L 19.7891 25.0338 L 19.8121 25.1318 L 19.8208 25.2615 L 19.8208 26.3479 L 20.0398 26.3479 L 20.0398 25.3134 L 20.0542 25.1606 L 20.0974 25.0482 L 20.1666 24.9791 L 20.253 24.9531 L 20.3222 24.9762 L 20.3683 25.0338 L 20.3971 25.2615 L 20.3971 26.3479 L 20.6306 26.3479 L 20.6306 25.2788 L 20.6162 25.0569 L 20.57 24.8869 L 20.4778 24.7831 L 20.328 24.7456 L 20.1522 24.8033 L 20.0167 24.9704 L 19.9101 24.8062 L 19.7314 24.7456 L 19.5672 24.8033 L 19.4548 24.9647 L 19.4548 24.8004 L 19.23 24.8004 L 19.23 26.3479 L 19.23 26.3479 z M 22.8064 26.3479 L 23.0744 26.3479 L 23.0744 25.4286 L 23.9159 25.4286 L 23.9159 25.1894 L 23.0744 25.1894 L 23.0744 24.59 L 24.109 24.59 L 24.109 24.3479 L 22.8064 24.3479 L 22.8064 26.3479 L 22.8064 26.3479 z M 24.4432 25.5871 L 24.4836 25.9474 L 24.6104 26.2039 L 24.8237 26.3508 L 25.132 26.4027 L 25.4375 26.3508 L 25.6507 26.2039 L 25.7775 25.9503 L 25.8208 25.5871 L 25.8208 24.3479 L 25.5528 24.3479 L 25.5528 25.6015 L 25.5268 25.8465 L 25.449 26.0223 L 25.3164 26.126 L 25.132 26.1606 L 24.9418 26.126 L 24.8092 26.0223 L 24.7314 25.8494 L 24.7084 25.6015 L 24.7084 24.3479 L 24.4432 24.3479 L 24.4432 25.5871 L 24.4432 25.5871 z M 26.5182 25.688 L 27.2156 25.688 L 27.2156 25.4603 L 26.5182 25.4603 L 26.5182 25.688 L 26.5182 25.688 z"
       stroke="none"
       fill-rule="evenodd"
       fill="rgb(0, 0, 0)"
       id="path32" />
  </g>
  <g
     stroke="rgb(0, 0, 0)"
     stroke-width="0.13"
     stroke-linecap="butt"
     stroke-linejoin="miter"
     fill="none"
     id="g38">
    <path
       d="M 12.3971 29.8033 L 12.6651 29.8033 L 12.6651 28.884 L 13.5066 28.884 L 13.5066 28.6448 L 12.6651 28.6448 L 12.6651 28.0454 L 13.6997 28.0454 L 13.6997 27.8033 L 12.3971 27.8033 L 12.3971 29.8033 L 12.3971 29.8033 z M 14.034 29.0425 L 14.0744 29.4027 L 14.2012 29.6592 L 14.4144 29.8062 L 14.7228 29.858 L 15.0283 29.8062 L 15.2415 29.6592 L 15.3683 29.4056 L 15.4115 29.0425 L 15.4115 27.8033 L 15.1435 27.8033 L 15.1435 29.0569 L 15.1176 29.3018 L 15.0398 29.4776 L 14.9072 29.5814 L 14.7228 29.616 L 14.5326 29.5814 L 14.4 29.4776 L 14.3222 29.3047 L 14.2992 29.0569 L 14.2992 27.8033 L 14.034 27.8033 L 14.034 29.0425 L 14.034 29.0425 z M 16.109 29.1433 L 16.8064 29.1433 L 16.8064 28.9157 L 16.109 28.9157 L 16.109 29.1433 L 16.109 29.1433 z M 17.5038 29.0425 L 17.5441 29.4027 L 17.6709 29.6592 L 17.8842 29.8062 L 18.1925 29.858 L 18.498 29.8062 L 18.7113 29.6592 L 18.8381 29.4056 L 18.8813 29.0425 L 18.8813 27.8033 L 18.6133 27.8033 L 18.6133 29.0569 L 18.5873 29.3018 L 18.5095 29.4776 L 18.377 29.5814 L 18.1925 29.616 L 18.0023 29.5814 L 17.8698 29.4776 L 17.7919 29.3047 L 17.7689 29.0569 L 17.7689 27.8033 L 17.5038 27.8033 L 17.5038 29.0425 L 17.5038 29.0425 z M 19.57 28.4949 L 19.57 28.2557 L 19.3164 28.2557 L 19.3164 30.4027 L 19.57 30.4027 L 19.57 29.567 L 19.6594 29.7024 L 19.7602 29.7918 L 20.0138 29.858 L 20.2559 29.8033 L 20.4461 29.639 L 20.57 29.3797 L 20.6162 29.0281 L 20.57 28.6794 L 20.4461 28.42 L 20.2559 28.2586 L 20.0138 28.201 L 19.8755 28.2183 L 19.7574 28.273 L 19.6565 28.3652 L 19.57 28.4949 L 19.57 28.4949 z M 19.9706 29.6304 L 19.8006 29.5929 L 19.6767 29.4776 L 19.5989 29.2903 L 19.5729 29.0281 L 19.5989 28.7687 L 19.6767 28.5814 L 19.8006 28.469 L 19.9706 28.4286 L 20.1262 28.469 L 20.2502 28.5843 L 20.328 28.7716 L 20.3568 29.0281 L 20.328 29.2874 L 20.2502 29.4776 L 20.1262 29.5929 L 19.9706 29.6304 L 19.9706 29.6304 z M 21.3136 29.1433 L 22.011 29.1433 L 22.011 28.9157 L 21.3136 28.9157 L 21.3136 29.1433 L 21.3136 29.1433 z M 22.8121 29.8033 L 24.0974 29.8033 L 24.0974 29.5612 L 23.0773 29.5612 L 23.0773 27.8033 L 22.8121 27.8033 L 22.8121 29.8033 L 22.8121 29.8033 z M 24.7574 29.103 L 25.7718 29.103 L 25.7747 28.9848 L 25.7285 28.6534 L 25.6017 28.4056 L 25.4 28.2557 L 25.132 28.201 L 24.8698 28.2586 L 24.668 28.42 L 24.5383 28.6823 L 24.4922 29.0281 L 24.5355 29.3825 L 24.6651 29.6419 L 24.864 29.8033 L 25.1234 29.858 L 25.3481 29.8206 L 25.5326 29.7226 L 25.668 29.567 L 25.7458 29.3595 L 25.4951 29.3595 L 25.4432 29.4747 L 25.3683 29.5612 L 25.1551 29.6304 L 24.9908 29.5987 L 24.8669 29.4978 L 24.7862 29.3335 L 24.7574 29.1116 L 24.7574 29.103 L 24.7574 29.103 z M 24.7574 28.8897 L 24.7891 28.6909 L 24.8669 28.5439 L 24.985 28.4546 L 25.1407 28.4229 L 25.2934 28.4546 L 25.4115 28.5439 L 25.4836 28.6909 L 25.5095 28.8897 L 24.7574 28.8897 L 24.7574 28.8897 z M 26.6219 28.5237 L 26.6219 29.8033 L 26.8755 29.8033 L 26.8755 28.5237 L 27.4519 28.5237 L 27.4519 28.3076 L 26.8755 28.3076 L 26.8755 28.2125 L 26.8957 28.0972 L 26.962 28.0194 L 27.0744 27.9733 L 27.2358 27.956 L 27.4519 27.9675 L 27.4519 27.7485 L 27.1781 27.7341 L 26.9303 27.7601 L 26.7574 27.8379 L 26.6536 27.9733 L 26.6219 28.1664 L 26.6219 28.3076 L 26.1579 28.3076 L 26.1579 28.5237 L 26.6219 28.5237 L 26.6219 28.5237 z M 28.3453 28.5237 L 28.3453 29.299 L 28.3626 29.5497 L 28.4432 29.7226 L 28.6046 29.8235 L 28.8784 29.858 L 29.1781 29.8436 L 29.1781 29.6246 L 28.9591 29.6419 L 28.7603 29.6189 L 28.6536 29.5468 L 28.6075 29.4258 L 28.5989 29.2557 L 28.5989 28.5237 L 29.1781 28.5237 L 29.1781 28.3076 L 28.5989 28.3076 L 28.5989 27.8552 L 28.3453 27.8552 L 28.3453 28.3076 L 27.9072 28.3076 L 27.9072 28.5237 L 28.3453 28.5237 L 28.3453 28.5237 z M 29.9879 29.1433 L 30.6853 29.1433 L 30.6853 28.9157 L 29.9879 28.9157 L 29.9879 29.1433 L 29.9879 29.1433 z"
       stroke="none"
       fill-rule="evenodd"
       fill="rgb(0, 0, 0)"
       id="path36" />
  </g>
  <g
     stroke="rgb(0, 0, 0)"
     stroke-width="0.13"
     stroke-linecap="butt"
     stroke-linejoin="miter"
     fill="none"
     id="g42">
    <path
       d="M 18.1032 33.1724 L 18.1436 33.5326 L 18.2704 33.7891 L 18.4836 33.9361 L 18.792 33.9879 L 19.0975 33.9361 L 19.3107 33.7891 L 19.4375 33.5355 L 19.4808 33.1724 L 19.4808 31.9332 L 19.2127 31.9332 L 19.2127 33.1868 L 19.1868 33.4317 L 19.109 33.6075 L 18.9764 33.7113 L 18.792 33.7459 L 18.6018 33.7113 L 18.4692 33.6075 L 18.3914 33.4346 L 18.3684 33.1868 L 18.3684 31.9332 L 18.1032 31.9332 L 18.1032 33.1724 L 18.1032 33.1724 z M 19.9188 33.9332 L 20.1839 33.9332 L 20.1839 33.0888 L 20.4779 33.0888 L 20.7747 33.0744 L 21.011 32.9735 L 21.1637 32.7776 L 21.2156 32.5096 L 21.1753 32.2617 L 21.06 32.0802 L 20.8698 31.9706 L 20.6104 31.9332 L 19.9188 31.9332 L 19.9188 33.9332 L 19.9188 33.9332 z M 20.5384 32.1781 L 20.7113 32.1954 L 20.8381 32.2502 L 20.913 32.351 L 20.939 32.5096 L 20.9101 32.6767 L 20.8323 32.7776 L 20.6998 32.8294 L 20.5182 32.8438 L 20.1839 32.8438 L 20.1839 32.1781 L 20.5384 32.1781 L 20.5384 32.1781 z"
       stroke="none"
       fill-rule="evenodd"
       fill="rgb(0, 0, 0)"
       id="path40" />
  </g>
  <g
     stroke="rgb(0, 0, 0)"
     stroke-width="0.13"
     stroke-linecap="butt"
     stroke-linejoin="miter"
     fill="none"
     id="g46">
    <path
       d="M 37.4782 18.655 L 37.7433 18.655 L 37.9537 18.0671 L 38.752 18.0671 L 38.9624 18.655 L 39.2332 18.655 L 38.5013 16.6521 L 38.2073 16.6521 L 37.4782 18.655 L 37.4782 18.655 z M 38.0459 17.8221 L 38.3543 16.9403 L 38.6626 17.8221 L 38.0459 17.8221 L 38.0459 17.8221 z M 39.2131 18.655 L 39.4782 18.655 L 39.6886 18.0671 L 40.4869 18.0671 L 40.6972 18.655 L 40.9681 18.655 L 40.2361 16.6521 L 39.9422 16.6521 L 39.2131 18.655 L 39.2131 18.655 z M 39.7808 17.8221 L 40.0892 16.9403 L 40.3975 17.8221 L 39.7808 17.8221 L 39.7808 17.8221 z M 41.3226 18.655 L 41.5762 18.655 L 41.5762 17.7703 L 41.6021 17.557 L 41.6799 17.4043 L 41.8067 17.3121 L 41.9768 17.2804 L 42.1036 17.3005 L 42.1987 17.3582 L 42.2563 17.4561 L 42.2765 17.5887 L 42.533 17.5887 L 42.4984 17.3553 L 42.4033 17.1881 L 42.2448 17.0873 L 42.0286 17.0527 L 41.8817 17.0757 L 41.7549 17.1334 L 41.6425 17.2314 L 41.5531 17.3639 L 41.5531 17.1075 L 41.3226 17.1075 L 41.3226 18.655 L 41.3226 18.655 z M 42.8615 18.655 L 43.0949 18.655 L 43.0949 17.6204 L 43.1093 17.4648 L 43.1526 17.3524 L 43.2188 17.2861 L 43.3053 17.2602 L 43.3745 17.2832 L 43.4206 17.3409 L 43.4436 17.4389 L 43.4523 17.5685 L 43.4523 18.655 L 43.6713 18.655 L 43.6713 17.6204 L 43.6857 17.4677 L 43.7289 17.3553 L 43.7981 17.2861 L 43.8845 17.2602 L 43.9537 17.2832 L 43.9998 17.3409 L 44.0286 17.5685 L 44.0286 18.655 L 44.2621 18.655 L 44.2621 17.5858 L 44.2477 17.3639 L 44.2015 17.1939 L 44.1093 17.0902 L 43.9595 17.0527 L 43.7837 17.1103 L 43.6482 17.2775 L 43.5416 17.1132 L 43.3629 17.0527 L 43.1987 17.1103 L 43.0863 17.2717 L 43.0863 17.1075 L 42.8615 17.1075 L 42.8615 18.655 L 42.8615 18.655 z"
       stroke="none"
       fill-rule="evenodd"
       fill="rgb(0, 0, 0)"
       id="path44" />
  </g>
  <g
     stroke="rgb(0, 0, 0)"
     stroke-width="0.13"
     stroke-linecap="butt"
     stroke-linejoin="miter"
     fill="none"
     id="g50">
    <path
       d="M 37.7635 22.1103 L 38.0315 22.1103 L 38.0315 21.191 L 38.873 21.191 L 38.873 20.9518 L 38.0315 20.9518 L 38.0315 20.3524 L 39.0661 20.3524 L 39.0661 20.1103 L 37.7635 20.1103 L 37.7635 22.1103 L 37.7635 22.1103 z M 39.4004 21.3495 L 39.4407 21.7098 L 39.5675 21.9662 L 39.7808 22.1132 L 40.0892 22.1651 L 40.3946 22.1132 L 40.6079 21.9662 L 40.7347 21.7126 L 40.7779 21.3495 L 40.7779 20.1103 L 40.5099 20.1103 L 40.5099 21.3639 L 40.484 21.6089 L 40.4062 21.7847 L 40.2736 21.8884 L 40.0892 21.923 L 39.899 21.8884 L 39.7664 21.7847 L 39.6886 21.6118 L 39.6655 21.3639 L 39.6655 20.1103 L 39.4004 20.1103 L 39.4004 21.3495 L 39.4004 21.3495 z M 41.4753 21.4504 L 42.1727 21.4504 L 42.1727 21.2227 L 41.4753 21.2227 L 41.4753 21.4504 L 41.4753 21.4504 z M 42.9681 22.1103 L 43.2361 22.1103 L 43.2361 21.191 L 44.0776 21.191 L 44.0776 20.9518 L 43.2361 20.9518 L 43.2361 20.3524 L 44.2707 20.3524 L 44.2707 20.1103 L 42.9681 20.1103 L 42.9681 22.1103 L 42.9681 22.1103 z M 44.605 21.3495 L 44.6454 21.7098 L 44.7722 21.9662 L 44.9854 22.1132 L 45.2938 22.1651 L 45.5992 22.1132 L 45.8125 21.9662 L 45.9393 21.7126 L 45.9825 21.3495 L 45.9825 20.1103 L 45.7145 20.1103 L 45.7145 21.3639 L 45.6886 21.6089 L 45.6108 21.7847 L 45.4782 21.8884 L 45.2938 21.923 L 45.1036 21.8884 L 44.971 21.7847 L 44.8932 21.6118 L 44.8701 21.3639 L 44.8701 20.1103 L 44.605 20.1103 L 44.605 21.3495 L 44.605 21.3495 z M 46.6799 21.4504 L 47.3773 21.4504 L 47.3773 21.2227 L 46.6799 21.2227 L 46.6799 21.4504 L 46.6799 21.4504 z"
       stroke="none"
       fill-rule="evenodd"
       fill="rgb(0, 0, 0)"
       id="path48" />
  </g>
  <g
     stroke="rgb(0, 0, 0)"
     stroke-width="0.13"
     stroke-linecap="butt"
     stroke-linejoin="miter"
     fill="none"
     id="g54">
    <path
       d="M 37.6655 24.8049 L 37.7059 25.1651 L 37.8327 25.4216 L 38.0459 25.5685 L 38.3543 25.6204 L 38.6598 25.5685 L 38.873 25.4216 L 38.9998 25.168 L 39.043 24.8049 L 39.043 23.5657 L 38.775 23.5657 L 38.775 24.8193 L 38.7491 25.0642 L 38.6713 25.24 L 38.5387 25.3438 L 38.3543 25.3783 L 38.1641 25.3438 L 38.0315 25.24 L 37.9537 25.0671 L 37.9307 24.8193 L 37.9307 23.5657 L 37.6655 23.5657 L 37.6655 24.8049 L 37.6655 24.8049 z M 39.7318 24.2573 L 39.7318 24.0181 L 39.4782 24.0181 L 39.4782 26.1651 L 39.7318 26.1651 L 39.7318 25.3293 L 39.8211 25.4648 L 39.922 25.5541 L 40.1756 25.6204 L 40.4177 25.5657 L 40.6079 25.4014 L 40.7318 25.142 L 40.7779 24.7904 L 40.7318 24.4417 L 40.6079 24.1824 L 40.4177 24.021 L 40.1756 23.9633 L 40.0373 23.9807 L 39.9191 24.0354 L 39.8183 24.1276 L 39.7318 24.2573 L 39.7318 24.2573 z M 40.1324 25.3927 L 39.9624 25.3553 L 39.8384 25.24 L 39.7606 25.0527 L 39.7347 24.7904 L 39.7606 24.5311 L 39.8384 24.3438 L 39.9624 24.2314 L 40.1324 24.191 L 40.288 24.2314 L 40.4119 24.3466 L 40.4897 24.534 L 40.5186 24.7904 L 40.4897 25.0498 L 40.4119 25.24 L 40.288 25.3553 L 40.1324 25.3927 L 40.1324 25.3927 z M 41.4753 24.9057 L 42.1727 24.9057 L 42.1727 24.6781 L 41.4753 24.6781 L 41.4753 24.9057 L 41.4753 24.9057 z"
       stroke="none"
       fill-rule="evenodd"
       fill="rgb(0, 0, 0)"
       id="path52" />
  </g>
  <g
     stroke="rgb(0, 0, 0)"
     stroke-width="0.13"
     stroke-linecap="butt"
     stroke-linejoin="miter"
     fill="none"
     id="g58">
    <path
       d="M 37.7693 29.021 L 39.0546 29.021 L 39.0546 28.7789 L 38.0344 28.7789 L 38.0344 27.021 L 37.7693 27.021 L 37.7693 29.021 L 37.7693 29.021 z M 39.7145 28.3207 L 40.7289 28.3207 L 40.7318 28.2025 L 40.6857 27.8711 L 40.5589 27.6233 L 40.3572 27.4734 L 40.0892 27.4187 L 39.8269 27.4763 L 39.6252 27.6377 L 39.4955 27.9 L 39.4494 28.2458 L 39.4926 28.6003 L 39.6223 28.8596 L 39.8211 29.021 L 40.0805 29.0757 L 40.3053 29.0383 L 40.4897 28.9403 L 40.6252 28.7847 L 40.703 28.5772 L 40.4523 28.5772 L 40.4004 28.6925 L 40.3255 28.7789 L 40.1122 28.8481 L 39.9479 28.8164 L 39.824 28.7155 L 39.7433 28.5513 L 39.7145 28.3294 L 39.7145 28.3207 L 39.7145 28.3207 z M 39.7145 28.1075 L 39.7462 27.9086 L 39.824 27.7616 L 39.9422 27.6723 L 40.0978 27.6406 L 40.2505 27.6723 L 40.3687 27.7616 L 40.4407 27.9086 L 40.4667 28.1075 L 39.7145 28.1075 L 39.7145 28.1075 z M 41.5791 27.7415 L 41.5791 29.021 L 41.8327 29.021 L 41.8327 27.7415 L 42.409 27.7415 L 42.409 27.5253 L 41.8327 27.5253 L 41.8327 27.4302 L 41.8528 27.3149 L 41.9191 27.2371 L 42.0315 27.191 L 42.1929 27.1737 L 42.409 27.1853 L 42.409 26.9662 L 42.1353 26.9518 L 41.8874 26.9778 L 41.7145 27.0556 L 41.6108 27.191 L 41.5791 27.3841 L 41.5791 27.5253 L 41.1151 27.5253 L 41.1151 27.7415 L 41.5791 27.7415 L 41.5791 27.7415 z M 43.3024 27.7415 L 43.3024 28.5167 L 43.3197 28.7674 L 43.4004 28.9403 L 43.5618 29.0412 L 43.8356 29.0757 L 44.1353 29.0613 L 44.1353 28.8423 L 43.9162 28.8596 L 43.7174 28.8366 L 43.6108 28.7645 L 43.5647 28.6435 L 43.556 28.4734 L 43.556 27.7415 L 44.1353 27.7415 L 44.1353 27.5253 L 43.556 27.5253 L 43.556 27.0729 L 43.3024 27.0729 L 43.3024 27.5253 L 42.8644 27.5253 L 42.8644 27.7415 L 43.3024 27.7415 L 43.3024 27.7415 z M 44.9451 28.3611 L 45.6425 28.3611 L 45.6425 28.1334 L 44.9451 28.1334 L 44.9451 28.3611 L 44.9451 28.3611 z"
       stroke="none"
       fill-rule="evenodd"
       fill="rgb(0, 0, 0)"
       id="path56" />
  </g>
  <g
     stroke="rgb(0, 0, 0)"
     stroke-width="0.13"
     stroke-linecap="butt"
     stroke-linejoin="miter"
     fill="none"
     id="g62">
    <path
       d="M 38.3514 30.4763 L 37.6857 30.4763 L 37.6857 32.4763 L 38.3514 32.4763 L 38.6655 32.4129 L 38.899 32.2198 L 39.043 31.9057 L 39.0949 31.4763 L 39.0488 31.0383 L 38.9912 30.8654 L 38.9105 30.727 L 38.6771 30.5397 L 38.5243 30.4936 L 38.3514 30.4763 L 38.3514 30.4763 z M 38.3312 30.7155 L 38.5503 30.7587 L 38.7001 30.8913 L 38.7894 31.1276 L 38.8183 31.4763 L 38.7866 31.8135 L 38.6972 32.0498 L 38.5445 32.191 L 38.3312 32.2371 L 37.9537 32.2371 L 37.9537 30.7155 L 38.3312 30.7155 L 38.3312 30.7155 z M 39.3485 31.4763 L 39.4004 31.9259 L 39.5503 32.2573 L 39.7837 32.4619 L 40.0892 32.5311 L 40.3918 32.4619 L 40.6281 32.2573 L 40.775 31.9259 L 40.8298 31.4763 L 40.775 31.0296 L 40.7116 30.8481 L 40.6281 30.6982 L 40.3918 30.4936 L 40.2477 30.4417 L 40.0892 30.4216 L 39.7808 30.4936 L 39.5474 30.6953 L 39.4004 31.0267 L 39.3485 31.4763 L 39.3485 31.4763 z M 39.6252 31.4763 L 39.6569 31.1276 L 39.752 30.8711 L 39.899 30.7155 L 40.0892 30.6608 L 40.2765 30.7155 L 40.4235 30.874 L 40.5186 31.1305 L 40.5531 31.4763 L 40.5186 31.825 L 40.4235 32.0815 L 40.2765 32.2371 L 40.0892 32.289 L 39.899 32.2371 L 39.752 32.0815 L 39.6569 31.8279 L 39.6252 31.4763 L 39.6252 31.4763 z M 41.2794 32.4763 L 41.533 32.4763 L 41.8211 30.7415 L 42.118 32.4763 L 42.3601 32.4763 L 42.7116 30.4734 L 42.4811 30.4734 L 42.2332 32.1766 L 41.9479 30.4734 L 41.6972 30.4734 L 41.4177 32.1766 L 41.1698 30.4734 L 40.9335 30.4734 L 41.2794 32.4763 L 41.2794 32.4763 z M 42.9018 32.4763 L 43.141 32.4763 L 43.141 30.8365 L 43.9076 32.4763 L 44.216 32.4763 L 44.216 30.4763 L 43.9739 30.4763 L 43.9739 32.1161 L 43.216 30.4763 L 42.9018 30.4763 L 42.9018 32.4763 L 42.9018 32.4763 z"
       stroke="none"
       fill-rule="evenodd"
       fill="rgb(0, 0, 0)"
       id="path60" />
  </g>
</svg>
