<?xml version="1.0" encoding="utf-8"?>
<!-- Generator: Adobe Illustrator 22.1.0, SVG Export Plug-In . SVG Version: 6.00 Build 0)  -->
<svg version="1.1" id="Calque_1" dsy:text-version="18000" xmlns:dsy="http://www.3ds.com/print"
	 xmlns="http://www.w3.org/2000/svg" xmlns:xlink="http://www.w3.org/1999/xlink" x="0px" y="0px" viewBox="0 0 297 210"
	 style="enable-background:new 0 0 297 210;" xml:space="preserve">
<style type="text/css">
	.st0{fill:none;stroke:#000000;stroke-width:0.35;}
	.st1{fill:none;stroke:#000000;stroke-width:0.13;stroke-dasharray:4,1.5;}
</style>
<g>
	<path class="st0" d="M53.4,80.1c-3.6-10.4-14.9-15.9-25.2-12.3c-8.4,2.9-13.8,11-13.4,19.8"/>
	<circle class="st0" cx="34.6" cy="86.6" r="9.1"/>
</g>
<g>
	<path class="st1" d="M51.8,147.1l-0.8,0"/>
</g>
<g>
	<path class="st0" d="M53.4,80.1l27.1,78.8"/>
	<path class="st0" d="M14.8,87.6l3.8,73.7"/>
	<path class="st0" d="M52.6,147.1c-12.9-0.6-25.4,4.6-34,14.2"/>
	<path class="st0" d="M80.5,158.9c-7.6-7.2-17.5-11.4-27.9-11.8"/>
</g>
<g>
	<path class="st1" d="M51,147l1.6,0.1"/>
</g>
<g>
	<path class="st0" d="M254.2,50.4c-5-9.8-16.9-13.6-26.7-8.7c-7.9,4-12.2,12.8-10.5,21.5"/>
	<circle class="st0" cx="236.5" cy="59.4" r="9.1"/>
	<path class="st0" d="M217,63.2l16.4,84.4"/>
	<path class="st0" d="M254.2,50.4l32.7,64.2"/>
	<path class="st0" d="M252.6,119.9c-9.9,6.3-16.8,16.3-19.1,27.7"/>
	<path class="st0" d="M286.9,114.6c-11.6-3.1-24.1-1.2-34.3,5.3"/>
</g>
<g>
	<path class="st1" d="M251.9,120.4l-0.7,0.4"/>
	<path class="st1" d="M252.6,119.9l-1.4,0.9"/>
</g>
<g>
	<path class="st0" d="M-309,392.8h785.2"/>
	<path class="st0" d="M476.2,392.8v-538.6"/>
	<path class="st0" d="M476.2-145.7H-309"/>
	<path class="st0" d="M-309-145.7v538.6"/>
	<path class="st0" d="M83.6-145.7v-28.3"/>
	<path class="st0" d="M-309,123.6h-28.3"/>
	<path class="st0" d="M476.2,123.6h28.3"/>
	<path class="st0" d="M293.9,392.8v21.3"/>
	<path class="st0" d="M-126.7,392.8v21.3"/>
	<path class="st0" d="M293.9-145.7V-167"/>
	<path class="st0" d="M-126.7-145.7V-167"/>
	<path class="st0" d="M-309-25.3h-21.3"/>
	<path class="st0" d="M476.2-25.3h21.3"/>
	<path class="st0" d="M-309,272.4h-21.3"/>
	<path class="st0" d="M476.2,272.4h21.3"/>
	<path class="st0" d="M225.3,392.8V407"/>
	<path class="st0" d="M197,392.8v7.1"/>
	<path class="st0" d="M168.6,392.8v7.1"/>
	<path class="st0" d="M140.3,392.8v7.1"/>
	<path class="st0" d="M476.2,222.8v170.1"/>
</g>
<g>
	<path d="M394.7,412.2h1.3l1-2.9h4l1,2.9h1.3l-3.6-9.9h-1.5L394.7,412.2L394.7,412.2z M397.6,408.1l1.5-4.4l1.5,4.4H397.6
		L397.6,408.1z"/>
</g>
<g>
	<path d="M-231.9,402.3h-3.3v9.9h3.3l1.6-0.3l1.2-1l0.7-1.6l0.3-2.1l-0.2-2.2l-0.3-0.9l-0.4-0.7l-1.2-0.9l-0.8-0.2L-231.9,402.3
		L-231.9,402.3z M-232,403.5l1.1,0.2l0.7,0.7l0.4,1.2l0.1,1.7l-0.2,1.7l-0.4,1.2l-0.8,0.7l-1.1,0.2h-1.9v-7.5H-232L-232,403.5z"/>
</g>
<g>
	<path d="M188.6-161.7l-0.8-1l-0.6-0.3l-0.7-0.1l-1.1,0.2l-0.8,0.6l-0.5,0.9l-0.2,1.3v3.5h9.9v-3.7l-0.2-1.3l-0.6-1l-0.9-0.6
		l-1.3-0.2l-0.8,0.1l-0.7,0.3l-0.5,0.6L188.6-161.7L188.6-161.7z M188.1-159.9v1.9h-2.9v-2.1l0.1-0.8l0.3-0.5l0.4-0.3l0.7-0.1
		l0.7,0.1l0.5,0.3l0.3,0.6L188.1-159.9L188.1-159.9z M192.8-160.2v2.3h-3.4v-2.1l0.1-0.9l0.3-0.6l0.5-0.4l0.7-0.1l0.8,0.1l0.5,0.4
		l0.3,0.6L192.8-160.2L192.8-160.2z"/>
</g>
<g>
	<path d="M-20.1-162.2l1.2,0.3l0.9,0.5l0.5,0.7l0.2,0.8l-0.3,0.9l-0.8,0.7l-1.3,0.5l-1.7,0.2l-1.7-0.2l-1.3-0.5l-0.8-0.7l-0.3-0.9
		l0.1-0.7l0.4-0.6l0.6-0.5l0.9-0.3v-1.4l-1.4,0.4l-1,0.7l-0.6,1l-0.2,1.2l0.4,1.5l1,1.2l1.6,0.7l2.2,0.3l2.2-0.3l1.6-0.7l1-1.2
		l0.3-1.5l-0.3-1.3l-0.8-1.1l-1.2-0.8l-1.7-0.4V-162.2L-20.1-162.2z"/>
</g>
<g>
	<path d="M404.3-155.6v-1.3l-2.9-1v-4l2.9-1v-1.3l-9.9,3.6v1.5L404.3-155.6L404.3-155.6z M400.1-158.4l-4.4-1.5l4.4-1.5V-158.4
		L400.1-158.4z"/>
</g>
<g>
	<path d="M-236.6-159.9v3.3h9.9v-3.3l-0.3-1.6l-1-1.2l-1.6-0.7l-2.1-0.3l-2.2,0.2l-0.9,0.3l-0.7,0.4l-0.9,1.2l-0.2,0.8L-236.6-159.9
		L-236.6-159.9z M-235.4-159.8l0.2-1.1l0.7-0.7l1.2-0.4l1.7-0.1l1.7,0.2l1.2,0.4l0.7,0.8l0.2,1.1v1.9h-7.5V-159.8L-235.4-159.8z"/>
</g>
<g>
	<path d="M486.8,51.2v0.1l0.2,1.4l0.7,1l1.1,0.7l1.4,0.2l1.5-0.2l1.1-0.6l0.7-1l0.3-1.3l-0.1-0.8l-0.3-0.7l-0.5-0.5l-0.7-0.4
		l0.9-0.8l0.3-1.2l-0.2-1.1l-0.6-0.8l-1-0.5l-1.4-0.2l-1.3,0.2l-1,0.6l-0.6,1l-0.2,1.3v0.1h1.3l0.1-0.9l0.4-0.7l0.6-0.4l0.8-0.1
		l0.7,0.1l0.5,0.3l0.3,0.5l0.1,0.7l-0.1,0.7l-0.3,0.5l-0.6,0.3l-0.8,0.1l-0.6,0v1.1l0.7,0l0.9,0.1l0.7,0.3l0.4,0.6l0.1,0.7l-0.2,0.8
		l-0.4,0.6l-0.7,0.4l-0.9,0.1l-0.9-0.1l-0.7-0.4l-0.4-0.7l-0.2-0.9H486.8L486.8,51.2z"/>
</g>
<g>
	<path d="M-321.1,52.7h0.1l1.4-0.2l1-0.7l0.7-1.1l0.2-1.4l-0.2-1.5l-0.6-1.1l-1-0.7l-1.3-0.3l-0.8,0.1l-0.7,0.3l-0.5,0.5l-0.4,0.7
		l-0.8-0.9l-1.2-0.3l-1.1,0.2l-0.8,0.6l-0.5,1l-0.2,1.4l0.2,1.3l0.6,1l1,0.6l1.3,0.2h0.1v-1.3l-0.9-0.1l-0.7-0.4l-0.4-0.6l-0.1-0.8
		l0.1-0.7l0.3-0.5l0.5-0.3l0.7-0.1l0.7,0.1l0.5,0.3l0.3,0.6l0.1,0.8l0,0.6h1.1l0-0.7l0.1-0.9l0.3-0.7l0.6-0.4l0.7-0.1l0.8,0.2
		l0.6,0.4l0.4,0.7l0.1,0.9l-0.1,0.9l-0.4,0.7l-0.7,0.4l-0.9,0.2V52.7L-321.1,52.7z"/>
</g>
<g>
	<path d="M486.9,203.2h6.8v-1.2h-5.4l0.3-0.7l0.5-0.6l1.6-1l0.8-0.4l0.9-0.6l0.7-0.7l0.4-0.8l0.1-1l-0.2-1.2l-0.7-0.9l-1-0.6
		l-1.3-0.2l-1.4,0.2l-1,0.7l-0.7,1.1l-0.2,1.4v0.2h1.3v-0.1l0.1-1l0.4-0.7l0.6-0.5l0.8-0.2l0.8,0.1l0.6,0.4l0.4,0.6l0.1,0.7
		l-0.1,0.7l-0.3,0.6l-0.5,0.5l-0.6,0.4l-0.8,0.5l-1.4,0.9l-1,0.9l-0.6,1.1L486.9,203.2L486.9,203.2L486.9,203.2z"/>
</g>
<g>
	<path d="M-318,201.5v-6.8h-1.2v5.4l-0.7-0.3l-0.6-0.5l-1-1.6l-0.4-0.8l-0.6-0.9l-0.7-0.7l-0.8-0.4l-1-0.1l-1.2,0.2l-0.9,0.7l-0.6,1
		l-0.2,1.3l0.2,1.4l0.7,1l1.1,0.7l1.4,0.2h0.2v-1.3h-0.1l-1-0.1l-0.7-0.4l-0.5-0.6l-0.2-0.8l0.1-0.8l0.4-0.6l0.6-0.4l0.7-0.1
		l0.7,0.1l0.6,0.3l0.5,0.5l0.4,0.6l0.5,0.8l0.9,1.4l0.9,1l1.1,0.6L-318,201.5L-318,201.5L-318,201.5z"/>
</g>
<g>
	<path d="M491.1-94.5h1.3v-2.5h1.4v-1.1h-1.4v-6.1h-1.3l-4.3,6v1.3h4.4V-94.5L491.1-94.5z M488-98.1l3.2-4.4v4.4H488L488-98.1z"/>
</g>
<g>
	<path d="M-318-100.5v-1.3h-2.5v-1.4h-1.1v1.4h-6.1v1.3l6,4.3h1.3v-4.4H-318L-318-100.5z M-321.6-97.3l-4.4-3.2h4.4V-97.3
		L-321.6-97.3z"/>
</g>
<g>
	<path d="M490.1,352h1.3v-10h-1l-0.3,0.9l-0.5,0.6l-0.8,0.3l-1.1,0.1v1h2.3V352L490.1,352z"/>
</g>
<g>
	<path d="M-318,347v-1.3h-10v1l0.9,0.3l0.6,0.5l0.3,0.8l0.1,1.1h1V347H-318L-318,347z"/>
</g>
<g>
	<path d="M127.8,307.7h-2.4v7.1h2.4l1.1-0.2l0.8-0.7l0.5-1.1l0.2-1.5l-0.2-1.6l-0.2-0.6l-0.3-0.5l-0.8-0.7l-0.5-0.2L127.8,307.7
		L127.8,307.7z M127.7,308.6l0.8,0.2l0.5,0.5l0.3,0.8l0.1,1.2l-0.1,1.2l-0.3,0.8l-0.5,0.5l-0.8,0.2h-1.3v-5.4H127.7L127.7,308.6z
		 M133.2,308.6h0.6l1.4-1.7h-1L133.2,308.6L133.2,308.6z M132.6,312.3h3.6l0-0.4l-0.2-1.2l-0.5-0.9l-0.7-0.5l-0.9-0.2l-0.9,0.2
		l-0.7,0.6l-0.5,0.9l-0.2,1.2l0.2,1.3l0.5,0.9l0.7,0.6l0.9,0.2l0.8-0.1l0.7-0.3l0.5-0.5l0.3-0.7h-0.9l-0.2,0.4l-0.3,0.3l-0.8,0.2
		l-0.6-0.1l-0.4-0.4l-0.3-0.6L132.6,312.3L132.6,312.3L132.6,312.3z M132.6,311.6l0.1-0.7l0.3-0.5l0.4-0.3l0.6-0.1l0.5,0.1l0.4,0.3
		l0.3,0.5l0.1,0.7H132.6L132.6,311.6z M140.6,311.6l-0.9-0.2l-0.6-0.2l-0.2-0.5l0.1-0.3l0.2-0.2l0.3-0.2l0.5-0.1l0.5,0.1l0.4,0.2
		l0.2,0.3l0.1,0.4h0.9v0l-0.2-0.7l-0.4-0.5l-0.7-0.3l-0.9-0.1l-0.9,0.1l-0.6,0.3l-0.4,0.5l-0.1,0.6l0.1,0.6l0.3,0.4l0.5,0.3l0.7,0.2
		l1,0.2l0.6,0.3l0.2,0.2l0.1,0.3l-0.1,0.4L141,314l-0.4,0.2l-0.5,0.1l-0.6-0.1l-0.4-0.2l-0.3-0.3l-0.1-0.5h-0.9l0.1,0.8l0.4,0.6
		l0.7,0.4l0.9,0.1l1-0.1l0.7-0.4l0.4-0.6l0.2-0.7l-0.1-0.6l-0.3-0.4l-0.5-0.3L140.6,311.6L140.6,311.6z M146.8,314v-4.5h-2.3v0.8
		h1.4v3.8h-1.8v0.8h4.6V314H146.8L146.8,314z M146.9,307.5h-0.9v1h0.9V307.5L146.9,307.5z M154.5,314.6v-5.2h-0.9v0.9l-0.7-0.8
		l-0.4-0.2l-0.5-0.1l-0.9,0.2l-0.7,0.6l-0.4,0.9l-0.2,1.2l0.2,1.2l0.4,0.9l0.7,0.6l0.9,0.2l0.5-0.1l0.4-0.2l0.7-0.8v0.8l-0.1,0.6
		l-0.2,0.4l-0.4,0.3l-0.6,0.1l-0.6-0.1l-0.4-0.2l-0.2-0.3l-0.1-0.4h-0.9v0l0.1,0.7l0.4,0.5l0.7,0.3l0.9,0.1l1.1-0.2l0.7-0.4l0.4-0.7
		L154.5,314.6L154.5,314.6z M150.8,312.1l0.1-0.9l0.3-0.7l0.4-0.4l0.6-0.1l0.6,0.1l0.5,0.4l0.3,0.7l0.1,0.9l-0.1,0.9l-0.3,0.7
		l-0.5,0.4l-0.6,0.1l-0.6-0.1l-0.4-0.4l-0.3-0.7L150.8,312.1L150.8,312.1z M156.4,314.8h0.9v-3.2l0.1-0.7l0.3-0.5l0.5-0.3l0.6-0.1
		l0.5,0.1l0.3,0.3l0.2,0.5l0.1,0.6v3.4h0.9v-3.6l0-0.7l-0.2-0.6l-0.6-0.5l-0.9-0.2l-0.5,0.1l-0.4,0.2l-0.4,0.3l-0.3,0.4v-0.8h-0.9
		V314.8L156.4,314.8z M165.8,314.1L165.8,314.1l0.1,0.4l0.2,0.2l0.6,0.2l0.5-0.1v-0.7l-0.2,0l-0.3-0.1l-0.1-0.4v-2.8l-0.1-0.7
		l-0.4-0.5l-0.6-0.3l-0.9-0.1l-0.9,0.1l-0.6,0.3l-0.4,0.5l-0.1,0.7v0.1h0.8l0.1-0.4l0.2-0.3l0.4-0.2l0.5-0.1l0.5,0.1l0.4,0.2
		l0.2,0.3l0.1,0.4l0,0.4l-0.2,0.2l-0.4,0.1l-0.8,0.1l-0.9,0.2l-0.6,0.3l-0.4,0.5l-0.1,0.8l0.1,0.7l0.3,0.5l0.5,0.3l0.7,0.1l0.9-0.2
		L165.8,314.1L165.8,314.1z M165.7,312.9l-0.1,0.5l-0.3,0.4l-0.5,0.3l-0.6,0.1l-0.4-0.1l-0.3-0.2l-0.2-0.3l-0.1-0.4l0-0.4l0.2-0.3
		l0.7-0.3l0.8-0.1l0.7-0.2V312.9L165.7,312.9z M169.9,310.3v2.7l0.1,0.9l0.3,0.6l0.6,0.4l1,0.1l1.1-0.1v-0.8l-0.8,0.1l-0.7-0.1
		l-0.4-0.3l-0.2-0.4l0-0.6v-2.6h2.1v-0.8h-2.1v-1.6h-0.9v1.6h-1.6v0.8H169.9L169.9,310.3z M177.6,314v-4.5h-2.3v0.8h1.4v3.8h-1.8
		v0.8h4.6V314H177.6L177.6,314z M177.6,307.5h-0.9v1h0.9V307.5L177.6,307.5z M180.7,312.1l0.2,1.2l0.5,0.9l0.7,0.6l1,0.2l1-0.2
		l0.7-0.6l0.5-0.9l0.2-1.3l-0.2-1.2l-0.5-0.9l-0.7-0.6l-1-0.2l-1,0.2l-0.7,0.6l-0.5,0.9L180.7,312.1L180.7,312.1z M181.6,312.1
		l0.1-0.9l0.3-0.7l0.5-0.4l0.6-0.1l0.6,0.1l0.5,0.4l0.3,0.7l0.1,0.9l-0.1,0.9l-0.3,0.7l-0.5,0.4l-0.6,0.1l-0.6-0.1l-0.5-0.4
		l-0.3-0.7L181.6,312.1L181.6,312.1z M187.1,314.8h0.9v-3.2l0.1-0.7l0.3-0.5l0.5-0.3l0.6-0.1l0.5,0.1l0.3,0.3l0.2,0.5l0.1,0.6v3.4
		h0.9v-3.6l0-0.7l-0.2-0.6l-0.6-0.5l-0.9-0.2l-0.5,0.1l-0.4,0.2l-0.4,0.3l-0.3,0.4v-0.8h-0.9V314.8L187.1,314.8z"/>
</g>
<g>
	<path d="M99.8,351.7h1.7v-5.9h5.4v-1.5h-5.4v-3.8h6.6v-1.5h-8.3V351.7L99.8,351.7z M111.4,351.7h1.6V346l0.2-1.4l0.5-1l0.8-0.6
		l1.1-0.2l0.8,0.1l0.6,0.4l0.4,0.6l0.1,0.8h1.6l-0.2-1.5l-0.6-1.1l-1-0.6l-1.4-0.2l-0.9,0.1l-0.8,0.4l-0.7,0.6l-0.6,0.8v-1.6h-1.5
		V351.7L111.4,351.7z M121.4,346.7l0.3,2.2l0.8,1.7l1.3,1l1.8,0.3l1.8-0.3l1.3-1l0.8-1.7l0.3-2.3l-0.3-2.2l-0.8-1.7l-1.3-1l-1.8-0.4
		l-1.8,0.4l-1.3,1l-0.8,1.7L121.4,346.7L121.4,346.7z M123.1,346.7l0.2-1.7l0.5-1.2l0.8-0.7l1.1-0.3l1.1,0.3l0.8,0.7l0.5,1.2
		l0.2,1.7l-0.2,1.7l-0.5,1.2l-0.8,0.7l-1.1,0.2l-1.1-0.2l-0.8-0.7l-0.5-1.2L123.1,346.7L123.1,346.7z M132.9,351.7h1.6V346l0.2-1.3
		l0.5-1l0.8-0.6l1.1-0.2l0.9,0.2l0.5,0.5l0.3,0.8l0.1,1.1v6.2h1.6v-6.5l-0.1-1.3l-0.3-1.1l-1.1-1l-1.7-0.3l-0.9,0.1l-0.8,0.3
		l-0.7,0.6l-0.5,0.8v-1.5h-1.5V351.7L132.9,351.7z M146.2,343.5v4.9l0.1,1.6l0.5,1.1l1,0.6l1.7,0.2l1.9-0.1v-1.4l-1.4,0.1l-1.3-0.1
		l-0.7-0.5l-0.3-0.8l-0.1-1.1v-4.7h3.7v-1.4h-3.7v-2.9h-1.6v2.9h-2.8v1.4H146.2L146.2,343.5z M166.2,351.7h8.2v-1.5h-6.5v-11.2h-1.7
		V351.7L166.2,351.7z M178.6,347.2h6.5l0-0.8l-0.3-2.1l-0.8-1.6l-1.3-1l-1.7-0.3l-1.7,0.4l-1.3,1l-0.8,1.7l-0.3,2.2l0.3,2.3l0.8,1.7
		l1.3,1l1.7,0.3l1.4-0.2l1.2-0.6l0.9-1l0.5-1.3h-1.6l-0.3,0.7l-0.5,0.5l-1.4,0.4l-1-0.2l-0.8-0.6l-0.5-1L178.6,347.2L178.6,347.2
		L178.6,347.2z M178.6,345.8l0.2-1.3l0.5-0.9l0.8-0.6l1-0.2l1,0.2l0.8,0.6l0.5,0.9l0.2,1.3H178.6L178.6,345.8z M190.5,343.5v8.2h1.6
		v-8.2h3.7v-1.4h-3.7v-0.6l0.1-0.7l0.4-0.5l0.7-0.3l1-0.1l1.4,0.1v-1.4l-1.7-0.1l-1.6,0.2l-1.1,0.5l-0.7,0.9l-0.2,1.2v0.9h-3v1.4
		H190.5L190.5,343.5z M201.5,343.5v4.9l0.1,1.6l0.5,1.1l1,0.6l1.7,0.2l1.9-0.1v-1.4l-1.4,0.1l-1.3-0.1l-0.7-0.5l-0.3-0.8l-0.1-1.1
		v-4.7h3.7v-1.4h-3.7v-2.9h-1.6v2.9h-2.8v1.4H201.5L201.5,343.5z M220.9,346.8l0.3,2.3l0.8,1.6l1.4,0.9l2,0.3l1.9-0.3l1.4-0.9
		l0.8-1.6l0.3-2.3v-7.9H228v8l-0.2,1.6l-0.5,1.1l-0.8,0.7l-1.2,0.2l-1.2-0.2l-0.8-0.7l-0.5-1.1l-0.1-1.6v-8h-1.7V346.8L220.9,346.8z
		 M234.1,343.3v-1.5h-1.6v13.7h1.6v-5.3l0.6,0.9l0.6,0.6l1.6,0.4l1.5-0.3l1.2-1l0.8-1.7l0.3-2.2l-0.3-2.2l-0.8-1.7l-1.2-1l-1.5-0.4
		l-0.9,0.1l-0.8,0.4l-0.6,0.6L234.1,343.3L234.1,343.3z M236.6,350.6l-1.1-0.2l-0.8-0.7l-0.5-1.2l-0.2-1.7l0.2-1.7l0.5-1.2l0.8-0.7
		l1.1-0.3l1,0.3l0.8,0.7l0.5,1.2l0.2,1.6l-0.2,1.7l-0.5,1.2l-0.8,0.7L236.6,350.6L236.6,350.6z M245.1,343.3v-1.5h-1.6v13.7h1.6
		v-5.3l0.6,0.9l0.6,0.6l1.6,0.4l1.5-0.3l1.2-1l0.8-1.7l0.3-2.2l-0.3-2.2l-0.8-1.7l-1.2-1l-1.5-0.4l-0.9,0.1l-0.8,0.4l-0.6,0.6
		L245.1,343.3L245.1,343.3z M247.7,350.6l-1.1-0.2l-0.8-0.7l-0.5-1.2l-0.2-1.7l0.2-1.7l0.5-1.2l0.8-0.7l1.1-0.3l1,0.3l0.8,0.7
		l0.5,1.2l0.2,1.6l-0.2,1.7l-0.5,1.2l-0.8,0.7L247.7,350.6L247.7,350.6z M256.1,347.2h6.5l0-0.8l-0.3-2.1l-0.8-1.6l-1.3-1l-1.7-0.3
		l-1.7,0.4l-1.3,1l-0.8,1.7l-0.3,2.2l0.3,2.3l0.8,1.7l1.3,1l1.7,0.3l1.4-0.2l1.2-0.6l0.9-1l0.5-1.3h-1.6l-0.3,0.7l-0.5,0.5l-1.4,0.4
		l-1-0.2l-0.8-0.6l-0.5-1L256.1,347.2L256.1,347.2L256.1,347.2z M256.1,345.8l0.2-1.3l0.5-0.9l0.8-0.6l1-0.2l1,0.2l0.8,0.6l0.5,0.9
		l0.2,1.3H256.1L256.1,345.8z M266.3,351.7h1.6V346l0.2-1.4l0.5-1l0.8-0.6l1.1-0.2l0.8,0.1l0.6,0.4l0.4,0.6l0.1,0.8h1.6l-0.2-1.5
		l-0.6-1.1l-1-0.6l-1.4-0.2l-0.9,0.1l-0.8,0.4l-0.7,0.6l-0.6,0.8v-1.6h-1.5V351.7L266.3,351.7z M286.1,351.7h1.7l1.3-3.8h5.1
		l1.3,3.8h1.7l-4.7-12.8h-1.9L286.1,351.7L286.1,351.7z M289.7,346.3l2-5.6l2,5.6H289.7L289.7,346.3z M300.5,347.4h4.4V346h-4.4
		V347.4L300.5,347.4z M308.2,351.7h1.7l1.3-3.8h5.1l1.3,3.8h1.7l-4.7-12.8h-1.9L308.2,351.7L308.2,351.7z M311.8,346.3l2-5.6l2,5.6
		H311.8L311.8,346.3z M321.7,351.7h1.6V346l0.2-1.4l0.5-1l0.8-0.6l1.1-0.2l0.8,0.1l0.6,0.4l0.4,0.6l0.1,0.8h1.6l-0.2-1.5l-0.6-1.1
		l-1-0.6l-1.4-0.2l-0.9,0.1l-0.8,0.4l-0.7,0.6l-0.6,0.8v-1.6h-1.5V351.7L321.7,351.7z M331.5,351.7h1.5v-6.6l0.1-1l0.3-0.7l0.4-0.4
		l0.6-0.2l0.4,0.1l0.3,0.4l0.1,0.6l0.1,0.8v6.9h1.4v-6.6l0.1-1l0.3-0.7l0.4-0.4l0.6-0.2l0.4,0.1l0.3,0.4l0.2,1.5v6.9h1.5v-6.8
		l-0.1-1.4l-0.3-1.1l-0.6-0.7l-1-0.2l-1.1,0.4l-0.9,1.1l-0.7-1l-1.1-0.4l-1,0.4l-0.7,1v-1h-1.4V351.7L331.5,351.7z M353.9,351.7h1.7
		v-5.4h1.7l1.3,0.1l0.8,0.3l0.4,0.6l0.2,1.1l0.1,1.7l0.1,1.1l0.2,0.6h1.9v-0.3l-0.4-0.5l-0.1-1l-0.1-2.1l-0.3-1.5l-0.4-0.5l-0.7-0.3
		l0.7-0.5l0.5-0.6l0.3-0.8l0.1-1l-0.3-1.5l-0.7-1.2l-1.2-0.7l-1.7-0.2h-4.3V351.7L353.9,351.7z M357.7,340.5l1.1,0.1l0.8,0.3
		l0.5,0.6l0.2,1l-0.2,1.1l-0.5,0.6l-0.8,0.3l-1.2,0.1h-2v-4.2H357.7L357.7,340.5z M366.7,347.2h6.5l0-0.8l-0.3-2.1l-0.8-1.6l-1.3-1
		l-1.7-0.3l-1.7,0.4l-1.3,1l-0.8,1.7l-0.3,2.2l0.3,2.3l0.8,1.7l1.3,1l1.7,0.3l1.4-0.2l1.2-0.6l0.9-1l0.5-1.3h-1.6l-0.3,0.7l-0.5,0.5
		l-1.4,0.4l-1-0.2l-0.8-0.6l-0.5-1L366.7,347.2L366.7,347.2L366.7,347.2z M366.7,345.8l0.2-1.3l0.5-0.9l0.8-0.6l1-0.2l1,0.2l0.8,0.6
		l0.5,0.9l0.2,1.3H366.7L366.7,345.8z M382.2,350.4L382.2,350.4l0.1,0.7l0.3,0.4l1.2,0.4l0.9-0.1v-1.3l-0.4,0.1l-0.5-0.2l-0.1-0.7
		v-5.1l-0.2-1.3l-0.6-0.9l-1.1-0.5l-1.6-0.2l-1.5,0.2l-1.1,0.6l-0.7,1l-0.2,1.3v0.1h1.5l0.1-0.8l0.4-0.6l0.7-0.3l0.9-0.1l0.9,0.1
		l0.6,0.3l0.4,0.5l0.1,0.7l-0.1,0.8l-0.3,0.4l-0.7,0.2l-1.4,0.1l-1.6,0.3l-1.1,0.6l-0.7,0.9l-0.2,1.4l0.2,1.2l0.6,0.9l0.9,0.6
		l1.3,0.2l1.7-0.4L382.2,350.4L382.2,350.4z M382.1,348.2l-0.2,1l-0.6,0.7l-0.9,0.5l-1.1,0.2l-0.7-0.1l-0.5-0.3l-0.3-0.5l-0.1-0.7
		l0.1-0.6l0.3-0.5l1.2-0.5l1.5-0.2l1.3-0.4V348.2L382.1,348.2z M388,351.7h1.6V346l0.2-1.4l0.5-1l0.8-0.6l1.1-0.2l0.8,0.1l0.6,0.4
		l0.4,0.6l0.1,0.8h1.6l-0.2-1.5l-0.6-1.1l-1-0.6l-1.4-0.2l-0.9,0.1l-0.8,0.4l-0.7,0.6l-0.6,0.8v-1.6H388V351.7L388,351.7z
		 M409.6,351.7h8.2v-1.5h-6.5v-11.2h-1.7V351.7L409.6,351.7z M420.2,346.7l0.3,2.2l0.8,1.7l1.3,1l1.8,0.3l1.8-0.3l1.3-1l0.8-1.7
		l0.3-2.3l-0.3-2.2l-0.8-1.7l-1.3-1l-1.8-0.4l-1.8,0.4l-1.3,1l-0.8,1.7L420.2,346.7L420.2,346.7z M421.8,346.7l0.2-1.7l0.5-1.2
		l0.8-0.7l1.1-0.3l1.1,0.3l0.8,0.7l0.5,1.2l0.2,1.7l-0.2,1.7l-0.5,1.2l-0.8,0.7l-1.1,0.2l-1.1-0.2l-0.8-0.7l-0.5-1.2L421.8,346.7
		L421.8,346.7z M434,351.7l1.5-8.4l1.5,8.4h1.5l2.4-9.9h-1.6l-1.6,8.4l-1.5-8.4h-1.6l-1.5,8.4l-1.6-8.4h-1.5l2.4,9.9H434L434,351.7z
		 M444.2,347.2h6.5l0-0.8l-0.3-2.1l-0.8-1.6l-1.3-1l-1.7-0.3l-1.7,0.4l-1.3,1l-0.8,1.7l-0.3,2.2l0.3,2.3l0.8,1.7l1.3,1l1.7,0.3
		l1.4-0.2l1.2-0.6l0.9-1l0.5-1.3h-1.6l-0.3,0.7l-0.5,0.5l-1.4,0.4l-1-0.2l-0.8-0.6l-0.5-1L444.2,347.2L444.2,347.2L444.2,347.2z
		 M444.2,345.8l0.2-1.3l0.5-0.9l0.8-0.6l1-0.2l1,0.2l0.8,0.6l0.5,0.9l0.2,1.3H444.2L444.2,345.8z M454.4,351.7h1.6V346l0.2-1.4
		l0.5-1l0.8-0.6l1.1-0.2l0.8,0.1l0.6,0.4l0.4,0.6l0.1,0.8h1.6l-0.2-1.5l-0.6-1.1l-1-0.6l-1.4-0.2l-0.9,0.1l-0.8,0.4l-0.7,0.6
		l-0.6,0.8v-1.6h-1.5V351.7L454.4,351.7z"/>
</g>
<g>
	<path d="M24.7,117.3H26v-4.6h4.2v-1.2H26v-3h5.1v-1.2h-6.5V117.3L24.7,117.3z M33.3,117.3h6.4v-1.2h-5.1v-8.7h-1.3V117.3
		L33.3,117.3z M41.4,113.6l0.2,1.8l0.6,1.3l1.1,0.7l1.5,0.3l1.5-0.3l1.1-0.7l0.6-1.3l0.2-1.8v-6.1h-1.3v6.2l-0.1,1.2l-0.4,0.9
		l-0.7,0.5l-0.9,0.2l-0.9-0.2l-0.7-0.5l-0.4-0.9l-0.1-1.2v-6.2h-1.3V113.6L41.4,113.6z M51.7,114.1h3.5v-1.1h-3.5V114.1L51.7,114.1z
		"/>
</g>
<g>
	<path d="M24.4,134.5h1.3v-4.2h1.4l1,0l0.6,0.2l0.3,0.5l0.1,0.8l0.1,1.3l0.1,0.8l0.2,0.5h1.5v-0.3l-0.3-0.4l-0.1-0.7l-0.1-1.6
		l-0.2-1.2l-0.3-0.4l-0.5-0.3l0.6-0.4l0.4-0.5l0.3-0.6l0.1-0.8l-0.2-1.2l-0.6-0.9l-0.9-0.5l-1.3-0.2h-3.3V134.5L24.4,134.5z
		 M27.4,125.8l0.9,0.1l0.6,0.3l0.4,0.5l0.1,0.8l-0.1,0.8l-0.4,0.5l-0.7,0.3l-0.9,0.1h-1.5v-3.3H27.4L27.4,125.8z M33.3,134.5h6.4
		v-1.2h-5.1v-8.7h-1.3V134.5L33.3,134.5z M41.4,130.7l0.2,1.8l0.6,1.3l1.1,0.7l1.5,0.3l1.5-0.3l1.1-0.7l0.6-1.3l0.2-1.8v-6.1h-1.3
		v6.2l-0.1,1.2l-0.4,0.9l-0.7,0.5l-0.9,0.2l-0.9-0.2l-0.7-0.5l-0.4-0.9l-0.1-1.2v-6.2h-1.3V130.7L41.4,130.7z"/>
</g>
<g>
	<path d="M232.2,87.3h1.3v-4.6h4.2v-1.2h-4.2v-3h5.1v-1.2h-6.5V87.3L232.2,87.3z M240.9,87.3h6.4v-1.2h-5.1v-8.7h-1.3V87.3
		L240.9,87.3z M249,83.6l0.2,1.8l0.6,1.3l1.1,0.7l1.5,0.3l1.5-0.3l1.1-0.7l0.6-1.3l0.2-1.8v-6.1h-1.3v6.2l-0.1,1.2l-0.4,0.9
		l-0.7,0.5l-0.9,0.2l-0.9-0.2l-0.7-0.5l-0.4-0.9l-0.1-1.2v-6.2H249V83.6L249,83.6z M259.2,84.1h3.5v-1.1h-3.5V84.1L259.2,84.1z"/>
</g>
<g>
	<path d="M232,104.5h1.3v-4.2h1.4l1,0l0.6,0.2l0.3,0.5l0.1,0.8l0.1,1.3l0.1,0.8l0.2,0.5h1.5v-0.3l-0.3-0.4l-0.1-0.7l-0.1-1.6
		l-0.2-1.2l-0.3-0.4l-0.5-0.3l0.6-0.4l0.4-0.5l0.3-0.6l0.1-0.8l-0.2-1.2l-0.6-0.9l-0.9-0.5l-1.3-0.2H232V104.5L232,104.5z
		 M234.9,95.8l0.9,0.1l0.6,0.3l0.4,0.5l0.1,0.8l-0.1,0.8l-0.4,0.5l-0.7,0.3l-0.9,0.1h-1.5v-3.3H234.9L234.9,95.8z M240.9,104.5h6.4
		v-1.2h-5.1v-8.7h-1.3V104.5L240.9,104.5z M252.4,94.6h-3.3v9.9h3.3l1.6-0.3l1.2-1l0.7-1.6l0.3-2.1l-0.2-2.2l-0.3-0.9l-0.4-0.7
		l-1.2-0.9l-0.8-0.2L252.4,94.6L252.4,94.6z M252.3,95.7l1.1,0.2l0.7,0.7l0.4,1.2l0.1,1.7l-0.2,1.7l-0.4,1.2l-0.8,0.7l-1.1,0.2h-1.9
		v-7.5H252.3L252.3,95.7z"/>
</g>
</svg>
