<?xml version="1.0" encoding="utf-8"?>
<!-- Generator: Adobe Illustrator 22.1.0, SVG Export Plug-In . SVG Version: 6.00 Build 0)  -->
<svg version="1.1" id="Calque_1" dsy:text-version="18000" xmlns:dsy="http://www.3ds.com/print"
	 xmlns="http://www.w3.org/2000/svg" xmlns:xlink="http://www.w3.org/1999/xlink" x="0px" y="0px" viewBox="0 0 297 210"
	 style="enable-background:new 0 0 297 210;" xml:space="preserve">
<style type="text/css">
	.st0{fill:none;stroke:#000000;stroke-width:0.35;}
	.st1{fill:none;stroke:#000000;stroke-width:0.13;stroke-dasharray:4,1.5;}
	.st2{fill:none;stroke:#000000;stroke-width:0.13;stroke-dasharray:7,1,1,1;}
</style>
<path class="st0" d="M101.3,62.8C99.3,52,89,44.8,78.2,46.8c-8.7,1.6-15.3,8.7-16.2,17.5"/>
<circle class="st0" cx="81.7" cy="66.3" r="9.1"/>
<path class="st0" d="M101.3,62.8l13.4,73.9"/>
<path class="st0" d="M62,64.3l-9,89.4"/>
<path class="st0" d="M100,130.8c-19.2-3.9-38.5,5.5-47,22.9"/>
<path class="st0" d="M114.6,136.7c-4.5-2.8-9.4-4.8-14.6-5.9"/>
<path class="st1" d="M98.4,130.5l0.8,0.2"/>
<path class="st0" d="M114.8,137.5c-4.7-3.3-10-5.6-15.5-6.9"/>
<path class="st0" d="M114.8,137.5l-0.2-0.8"/>
<path class="st1" d="M98.4,130.5l1.6,0.3"/>
<path class="st0" d="M240.2,68.1c-1.1-10.9-10.8-18.9-21.7-17.7c-8.8,0.9-16,7.5-17.5,16.2"/>
<circle class="st0" cx="220.4" cy="70.1" r="9.1"/>
<path class="st1" d="M202.9,134.5l-0.8,0.2"/>
<path class="st1" d="M202.1,134.7c-5.2,1-10.1,3-14.6,5.9"/>
<path class="st0" d="M200.9,66.6l-13.5,74.7"/>
<path class="st0" d="M240.2,68.1l8.6,85.5"/>
<path class="st0" d="M248.8,153.7c-9.4-15.2-27.4-22.9-45.1-19.4"/>
<path class="st0" d="M203.7,134.3c-5.9,1.2-11.4,3.6-16.3,7"/>
<path class="st1" d="M203.7,134.3l-1.6,0.3"/>
<g>
	<path class="st0" d="M-308.7,369.5h785.2"/>
	<path class="st0" d="M476.5,369.5v-538.6"/>
	<path class="st0" d="M476.5-169.1h-785.2"/>
	<path class="st0" d="M-308.7-169.1v538.6"/>
	<path class="st0" d="M83.9-169.1v-28.3"/>
	<path class="st0" d="M-308.7,100.2h-28.3"/>
	<path class="st0" d="M476.5,100.2h28.3"/>
	<path class="st0" d="M294.2,369.5v21.3"/>
	<path class="st0" d="M-126.5,369.5v21.3"/>
	<path class="st0" d="M294.2-169.1v-21.3"/>
	<path class="st0" d="M-126.5-169.1v-21.3"/>
	<path class="st0" d="M-308.7-48.6H-330"/>
	<path class="st0" d="M476.5-48.6h21.3"/>
	<path class="st0" d="M-308.7,249H-330"/>
	<path class="st0" d="M476.5,249h21.3"/>
	<path class="st0" d="M225.6,369.5v14.2"/>
	<path class="st0" d="M197.3,369.5v7.1"/>
	<path class="st0" d="M168.9,369.5v7.1"/>
	<path class="st0" d="M140.6,369.5v7.1"/>
	<path class="st0" d="M476.5,199.4v170.1"/>
</g>
<path class="st2" d="M93.5,66.3H69.9"/>
<path class="st2" d="M81.7,54.5v23.6"/>
<path class="st2" d="M232.2,70.1h-23.6"/>
<path class="st2" d="M220.4,58.3v23.6"/>
<g>
	<path d="M395,388.9h1.3l1-2.9h4l1,2.9h1.3l-3.6-9.9h-1.5L395,388.9L395,388.9z M397.8,384.7l1.5-4.4l1.5,4.4H397.8L397.8,384.7z"/>
</g>
<g>
	<path d="M-231.6,378.9h-3.3v9.9h3.3l1.6-0.3l1.2-1l0.7-1.6l0.3-2.1l-0.2-2.2l-0.3-0.9l-0.4-0.7l-1.2-0.9l-0.8-0.2L-231.6,378.9
		L-231.6,378.9z M-231.7,380.1l1.1,0.2l0.7,0.7l0.4,1.2l0.1,1.7l-0.2,1.7l-0.4,1.2l-0.8,0.7l-1.1,0.2h-1.9v-7.5H-231.7L-231.7,380.1
		z"/>
</g>
<g>
	<path d="M188.9-185l-0.8-1l-0.6-0.3l-0.7-0.1l-1.1,0.2l-0.8,0.6l-0.5,0.9l-0.2,1.3v3.5h9.9v-3.7L194-185l-0.6-1l-0.9-0.6l-1.3-0.2
		l-0.8,0.1l-0.7,0.3l-0.5,0.6L188.9-185L188.9-185z M188.4-183.2v1.9h-2.9v-2.1l0.1-0.8l0.3-0.5l0.4-0.3l0.7-0.1l0.7,0.1l0.5,0.3
		l0.3,0.6L188.4-183.2L188.4-183.2z M193-183.5v2.3h-3.4v-2.1l0.1-0.9l0.3-0.6l0.5-0.4l0.7-0.1l0.8,0.1l0.5,0.4l0.3,0.6L193-183.5
		L193-183.5z"/>
</g>
<g>
	<path d="M-19.8-185.6l1.2,0.3l0.9,0.5l0.5,0.7l0.2,0.8l-0.3,0.9l-0.8,0.7l-1.3,0.5l-1.7,0.2l-1.7-0.2l-1.3-0.5l-0.8-0.7l-0.3-0.9
		l0.1-0.7l0.4-0.6l0.6-0.5l0.9-0.3v-1.4l-1.4,0.4l-1,0.7l-0.6,1l-0.2,1.2l0.4,1.5l1,1.2l1.6,0.7l2.2,0.3l2.2-0.3l1.6-0.7l1-1.2
		l0.3-1.5l-0.3-1.3l-0.8-1.1l-1.2-0.8l-1.7-0.4V-185.6L-19.8-185.6z"/>
</g>
<g>
	<path d="M404.6-178.9v-1.3l-2.9-1v-4l2.9-1v-1.3l-9.9,3.6v1.5L404.6-178.9L404.6-178.9z M400.4-181.7l-4.4-1.5l4.4-1.5V-181.7
		L400.4-181.7z"/>
</g>
<g>
	<path d="M-236.4-183.2v3.3h9.9v-3.3l-0.3-1.6l-1-1.2l-1.6-0.7l-2.1-0.3l-2.2,0.2l-0.9,0.3l-0.7,0.4l-0.9,1.2l-0.2,0.8L-236.4-183.2
		L-236.4-183.2z M-235.2-183.1l0.2-1.1l0.7-0.7l1.2-0.4l1.7-0.1l1.7,0.2l1.2,0.4l0.7,0.8l0.2,1.1v1.9h-7.5V-183.1L-235.2-183.1z"/>
</g>
<g>
	<path d="M487,27.9V28l0.2,1.4l0.7,1L489,31l1.4,0.2l1.5-0.2l1.1-0.6l0.7-1l0.3-1.3l-0.1-0.8l-0.3-0.7l-0.5-0.5l-0.7-0.4l0.9-0.8
		l0.3-1.2l-0.2-1.1l-0.6-0.8l-1-0.5l-1.4-0.2l-1.3,0.2l-1,0.6l-0.6,1l-0.2,1.3v0.1h1.3l0.1-0.9l0.4-0.7l0.6-0.4l0.8-0.1l0.7,0.1
		l0.5,0.3l0.3,0.5l0.1,0.7l-0.1,0.7l-0.3,0.5l-0.6,0.3l-0.8,0.1l-0.6,0v1.1l0.7,0l0.9,0.1l0.7,0.3l0.4,0.6l0.1,0.7l-0.2,0.8
		l-0.4,0.6l-0.7,0.4l-0.9,0.1l-0.9-0.1l-0.7-0.4l-0.4-0.7l-0.2-0.9H487L487,27.9z"/>
</g>
<g>
	<path d="M-320.8,29.4h0.1l1.4-0.2l1-0.7l0.7-1.1l0.2-1.4l-0.2-1.5l-0.6-1.1l-1-0.7l-1.3-0.3l-0.8,0.1l-0.7,0.3l-0.5,0.5l-0.4,0.7
		l-0.8-0.9l-1.2-0.3l-1.1,0.2l-0.8,0.6l-0.5,1l-0.2,1.4l0.2,1.3l0.6,1l1,0.6l1.3,0.2h0.1v-1.3l-0.9-0.1l-0.7-0.4l-0.4-0.6l-0.1-0.8
		l0.1-0.7l0.3-0.5l0.5-0.3l0.7-0.1l0.7,0.1l0.5,0.3l0.3,0.6l0.1,0.8l0,0.6h1.1l0-0.7l0.1-0.9l0.3-0.7l0.6-0.4l0.7-0.1l0.8,0.2
		l0.6,0.4l0.4,0.7l0.1,0.9l-0.1,0.9l-0.4,0.7l-0.7,0.4l-0.9,0.2V29.4L-320.8,29.4z"/>
</g>
<g>
	<path d="M487.1,179.8h6.8v-1.2h-5.4l0.3-0.7l0.5-0.6l1.6-1l0.8-0.4l0.9-0.6l0.7-0.7l0.4-0.8l0.1-1l-0.2-1.2l-0.7-0.9l-1-0.6
		l-1.3-0.2l-1.4,0.2l-1,0.7l-0.7,1.1l-0.2,1.4v0.2h1.3v-0.1l0.1-1l0.4-0.7l0.6-0.5l0.8-0.2l0.8,0.1l0.6,0.4l0.4,0.6l0.1,0.7
		l-0.1,0.7l-0.3,0.6l-0.5,0.5l-0.6,0.4l-0.8,0.5l-1.4,0.9l-1,0.9l-0.6,1.1L487.1,179.8L487.1,179.8L487.1,179.8z"/>
</g>
<g>
	<path d="M-317.7,178.1v-6.8h-1.2v5.4l-0.7-0.3l-0.6-0.5l-1-1.6l-0.4-0.8l-0.6-0.9l-0.7-0.7l-0.8-0.4l-1-0.1l-1.2,0.2l-0.9,0.7
		l-0.6,1l-0.2,1.3l0.2,1.4l0.7,1l1.1,0.7l1.4,0.2h0.2v-1.3h-0.1l-1-0.1l-0.7-0.4l-0.5-0.6l-0.2-0.8l0.1-0.8l0.4-0.6l0.6-0.4l0.7-0.1
		l0.7,0.1l0.6,0.3l0.5,0.5l0.4,0.6l0.5,0.8l0.9,1.4l0.9,1l1.1,0.6L-317.7,178.1L-317.7,178.1L-317.7,178.1z"/>
</g>
<g>
	<path d="M491.4-117.8h1.3v-2.5h1.4v-1.1h-1.4v-6.1h-1.3l-4.3,6v1.3h4.4V-117.8L491.4-117.8z M488.3-121.4l3.2-4.4v4.4H488.3
		L488.3-121.4z"/>
</g>
<g>
	<path d="M-317.7-123.8v-1.3h-2.5v-1.4h-1.1v1.4h-6.1v1.3l6,4.3h1.3v-4.4H-317.7L-317.7-123.8z M-321.3-120.6l-4.4-3.2h4.4V-120.6
		L-321.3-120.6z"/>
</g>
<g>
	<path d="M490.4,328.6h1.3v-10h-1l-0.3,0.9l-0.5,0.6l-0.8,0.3l-1.1,0.1v1h2.3V328.6L490.4,328.6z"/>
</g>
<g>
	<path d="M-317.7,323.7v-1.3h-10v1l0.9,0.3l0.6,0.5l0.3,0.8l0.1,1.1h1v-2.3H-317.7L-317.7,323.7z"/>
</g>
<g>
	<path d="M128,284.4h-2.4v7.1h2.4l1.1-0.2l0.8-0.7l0.5-1.1l0.2-1.5l-0.2-1.6l-0.2-0.6l-0.3-0.5l-0.8-0.7l-0.5-0.2L128,284.4
		L128,284.4z M128,285.2l0.8,0.2l0.5,0.5l0.3,0.8l0.1,1.2l-0.1,1.2l-0.3,0.8l-0.5,0.5l-0.8,0.2h-1.3v-5.4H128L128,285.2z
		 M133.5,285.2h0.6l1.4-1.7h-1L133.5,285.2L133.5,285.2z M132.9,289h3.6l0-0.4l-0.2-1.2l-0.5-0.9l-0.7-0.5l-0.9-0.2l-0.9,0.2
		l-0.7,0.6l-0.5,0.9l-0.2,1.2l0.2,1.3l0.5,0.9l0.7,0.6l0.9,0.2l0.8-0.1l0.7-0.3l0.5-0.5l0.3-0.7h-0.9l-0.2,0.4l-0.3,0.3l-0.8,0.2
		l-0.6-0.1l-0.4-0.4l-0.3-0.6L132.9,289L132.9,289L132.9,289z M132.9,288.2l0.1-0.7l0.3-0.5l0.4-0.3l0.6-0.1l0.5,0.1l0.4,0.3
		l0.3,0.5l0.1,0.7H132.9L132.9,288.2z M140.9,288.3l-0.9-0.2l-0.6-0.2l-0.2-0.5l0.1-0.3l0.2-0.2l0.3-0.2l0.5-0.1l0.5,0.1l0.4,0.2
		l0.2,0.3l0.1,0.4h0.9v0l-0.2-0.7l-0.4-0.5l-0.7-0.3l-0.9-0.1l-0.9,0.1l-0.6,0.3l-0.4,0.5l-0.1,0.6l0.1,0.6l0.3,0.4l0.5,0.3l0.7,0.2
		l1,0.2l0.6,0.3l0.2,0.2l0.1,0.3l-0.1,0.4l-0.2,0.3l-0.4,0.2l-0.5,0.1l-0.6-0.1l-0.4-0.2l-0.3-0.3l-0.1-0.5h-0.9l0.1,0.8l0.4,0.6
		l0.7,0.4l0.9,0.1l1-0.1l0.7-0.4l0.4-0.6l0.2-0.7l-0.1-0.6l-0.3-0.4l-0.5-0.3L140.9,288.3L140.9,288.3z M147.1,290.7v-4.5h-2.3v0.8
		h1.4v3.8h-1.8v0.8h4.6v-0.8H147.1L147.1,290.7z M147.1,284.1h-0.9v1h0.9V284.1L147.1,284.1z M154.8,291.2V286h-0.9v0.9l-0.7-0.8
		l-0.4-0.2l-0.5-0.1l-0.9,0.2l-0.7,0.6l-0.4,0.9l-0.2,1.2l0.2,1.2l0.4,0.9l0.7,0.6l0.9,0.2l0.5-0.1l0.4-0.2l0.7-0.8v0.8l-0.1,0.6
		l-0.2,0.4l-0.4,0.3l-0.6,0.1l-0.6-0.1l-0.4-0.2l-0.2-0.3l-0.1-0.4h-0.9v0l0.1,0.7l0.4,0.5l0.7,0.3l0.9,0.1l1.1-0.2l0.7-0.4l0.4-0.7
		L154.8,291.2L154.8,291.2z M151.1,288.7l0.1-0.9l0.3-0.7l0.4-0.4l0.6-0.1l0.6,0.1l0.5,0.4l0.3,0.7l0.1,0.9l-0.1,0.9l-0.3,0.7
		l-0.5,0.4l-0.6,0.1l-0.6-0.1l-0.4-0.4l-0.3-0.7L151.1,288.7L151.1,288.7z M156.7,291.5h0.9v-3.2l0.1-0.7l0.3-0.5l0.5-0.3l0.6-0.1
		l0.5,0.1l0.3,0.3l0.2,0.5l0.1,0.6v3.4h0.9v-3.6l0-0.7l-0.2-0.6l-0.6-0.5l-0.9-0.2l-0.5,0.1l-0.4,0.2l-0.4,0.3l-0.3,0.4V286h-0.9
		V291.5L156.7,291.5z M166.1,290.7L166.1,290.7l0.1,0.4l0.2,0.2l0.6,0.2l0.5-0.1v-0.7l-0.2,0l-0.3-0.1l-0.1-0.4v-2.8l-0.1-0.7
		l-0.4-0.5l-0.6-0.3l-0.9-0.1l-0.9,0.1l-0.6,0.3l-0.4,0.5l-0.1,0.7v0.1h0.8l0.1-0.4l0.2-0.3l0.4-0.2l0.5-0.1l0.5,0.1l0.4,0.2
		l0.2,0.3l0.1,0.4l0,0.4l-0.2,0.2l-0.4,0.1l-0.8,0.1l-0.9,0.2l-0.6,0.3l-0.4,0.5l-0.1,0.8l0.1,0.7l0.3,0.5l0.5,0.3l0.7,0.1l0.9-0.2
		L166.1,290.7L166.1,290.7z M166,289.5l-0.1,0.5l-0.3,0.4l-0.5,0.3l-0.6,0.1l-0.4-0.1l-0.3-0.2l-0.2-0.3l-0.1-0.4l0-0.4l0.2-0.3
		l0.7-0.3l0.8-0.1l0.7-0.2V289.5L166,289.5z M170.2,286.9v2.7l0.1,0.9l0.3,0.6l0.6,0.4l1,0.1l1.1-0.1v-0.8l-0.8,0.1l-0.7-0.1
		l-0.4-0.3l-0.2-0.4l0-0.6v-2.6h2.1v-0.8h-2.1v-1.6h-0.9v1.6h-1.6v0.8H170.2L170.2,286.9z M177.8,290.7v-4.5h-2.3v0.8h1.4v3.8h-1.8
		v0.8h4.6v-0.8H177.8L177.8,290.7z M177.9,284.1h-0.9v1h0.9V284.1L177.9,284.1z M181,288.7l0.2,1.2l0.5,0.9l0.7,0.6l1,0.2l1-0.2
		l0.7-0.6l0.5-0.9l0.2-1.3l-0.2-1.2l-0.5-0.9l-0.7-0.6l-1-0.2l-1,0.2l-0.7,0.6l-0.5,0.9L181,288.7L181,288.7z M181.9,288.7l0.1-0.9
		l0.3-0.7l0.5-0.4l0.6-0.1l0.6,0.1l0.5,0.4l0.3,0.7l0.1,0.9l-0.1,0.9l-0.3,0.7l-0.5,0.4l-0.6,0.1l-0.6-0.1l-0.5-0.4l-0.3-0.7
		L181.9,288.7L181.9,288.7z M187.4,291.5h0.9v-3.2l0.1-0.7l0.3-0.5l0.5-0.3l0.6-0.1l0.5,0.1l0.3,0.3l0.2,0.5l0.1,0.6v3.4h0.9v-3.6
		l0-0.7l-0.2-0.6l-0.6-0.5l-0.9-0.2l-0.5,0.1l-0.4,0.2l-0.4,0.3l-0.3,0.4V286h-0.9V291.5L187.4,291.5z"/>
</g>
<g>
	<path d="M100.1,328.3h1.7v-5.9h5.4v-1.5h-5.4v-3.8h6.6v-1.5h-8.3V328.3L100.1,328.3z M111.7,328.3h1.6v-5.6l0.2-1.4l0.5-1l0.8-0.6
		l1.1-0.2l0.8,0.1l0.6,0.4l0.4,0.6l0.1,0.8h1.6l-0.2-1.5l-0.6-1.1l-1-0.6l-1.4-0.2l-0.9,0.1l-0.8,0.4l-0.7,0.6l-0.6,0.8v-1.6h-1.5
		V328.3L111.7,328.3z M121.7,323.4l0.3,2.2l0.8,1.7l1.3,1l1.8,0.3l1.8-0.3l1.3-1l0.8-1.7l0.3-2.3l-0.3-2.2l-0.8-1.7l-1.3-1l-1.8-0.4
		l-1.8,0.4l-1.3,1l-0.8,1.7L121.7,323.4L121.7,323.4z M123.3,323.4l0.2-1.7l0.5-1.2l0.8-0.7l1.1-0.3l1.1,0.3l0.8,0.7l0.5,1.2
		l0.2,1.7l-0.2,1.7l-0.5,1.2l-0.8,0.7l-1.1,0.2l-1.1-0.2l-0.8-0.7l-0.5-1.2L123.3,323.4L123.3,323.4z M133.2,328.3h1.6v-5.7l0.2-1.3
		l0.5-1l0.8-0.6l1.1-0.2l0.9,0.2l0.5,0.5l0.3,0.8l0.1,1.1v6.2h1.6v-6.5l-0.1-1.3l-0.3-1.1l-1.1-1l-1.7-0.3l-0.9,0.1l-0.8,0.3
		l-0.7,0.6l-0.5,0.8v-1.5h-1.5V328.3L133.2,328.3z M146.5,320.1v4.9l0.1,1.6l0.5,1.1l1,0.6l1.7,0.2l1.9-0.1v-1.4l-1.4,0.1l-1.3-0.1
		l-0.7-0.5l-0.3-0.8l-0.1-1.1v-4.7h3.7v-1.4h-3.7v-2.9h-1.6v2.9h-2.8v1.4H146.5L146.5,320.1z M166.5,328.3h8.2v-1.5h-6.5v-11.2h-1.7
		V328.3L166.5,328.3z M178.9,323.8h6.5l0-0.8l-0.3-2.1l-0.8-1.6l-1.3-1l-1.7-0.3l-1.7,0.4l-1.3,1l-0.8,1.7l-0.3,2.2l0.3,2.3l0.8,1.7
		l1.3,1l1.7,0.3l1.4-0.2l1.2-0.6l0.9-1l0.5-1.3h-1.6l-0.3,0.7l-0.5,0.5l-1.4,0.4l-1-0.2l-0.8-0.6l-0.5-1L178.9,323.8L178.9,323.8
		L178.9,323.8z M178.9,322.5l0.2-1.3l0.5-0.9l0.8-0.6l1-0.2l1,0.2l0.8,0.6l0.5,0.9l0.2,1.3H178.9L178.9,322.5z M190.8,320.1v8.2h1.6
		v-8.2h3.7v-1.4h-3.7v-0.6l0.1-0.7l0.4-0.5l0.7-0.3l1-0.1l1.4,0.1v-1.4l-1.7-0.1l-1.6,0.2l-1.1,0.5l-0.7,0.9l-0.2,1.2v0.9h-3v1.4
		H190.8L190.8,320.1z M201.8,320.1v4.9l0.1,1.6l0.5,1.1l1,0.6l1.7,0.2l1.9-0.1v-1.4l-1.4,0.1l-1.3-0.1l-0.7-0.5l-0.3-0.8l-0.1-1.1
		v-4.7h3.7v-1.4h-3.7v-2.9h-1.6v2.9H199v1.4H201.8L201.8,320.1z M221.2,323.5l0.3,2.3l0.8,1.6l1.4,0.9l2,0.3l1.9-0.3l1.4-0.9
		l0.8-1.6l0.3-2.3v-7.9h-1.7v8l-0.2,1.6l-0.5,1.1l-0.8,0.7l-1.2,0.2l-1.2-0.2l-0.8-0.7l-0.5-1.1l-0.1-1.6v-8h-1.7V323.5L221.2,323.5
		z M234.3,320v-1.5h-1.6v13.7h1.6v-5.3l0.6,0.9l0.6,0.6l1.6,0.4l1.5-0.3l1.2-1l0.8-1.7l0.3-2.2l-0.3-2.2l-0.8-1.7l-1.2-1l-1.5-0.4
		l-0.9,0.1l-0.8,0.4l-0.6,0.6L234.3,320L234.3,320z M236.9,327.2l-1.1-0.2l-0.8-0.7l-0.5-1.2l-0.2-1.7l0.2-1.7l0.5-1.2l0.8-0.7
		l1.1-0.3l1,0.3l0.8,0.7l0.5,1.2l0.2,1.6l-0.2,1.7l-0.5,1.2l-0.8,0.7L236.9,327.2L236.9,327.2z M245.4,320v-1.5h-1.6v13.7h1.6v-5.3
		l0.6,0.9l0.6,0.6l1.6,0.4l1.5-0.3l1.2-1l0.8-1.7l0.3-2.2l-0.3-2.2l-0.8-1.7l-1.2-1l-1.5-0.4l-0.9,0.1l-0.8,0.4l-0.6,0.6L245.4,320
		L245.4,320z M248,327.2l-1.1-0.2l-0.8-0.7l-0.5-1.2l-0.2-1.7l0.2-1.7l0.5-1.2l0.8-0.7l1.1-0.3l1,0.3l0.8,0.7l0.5,1.2l0.2,1.6
		l-0.2,1.7l-0.5,1.2l-0.8,0.7L248,327.2L248,327.2z M256.4,323.8h6.5l0-0.8l-0.3-2.1l-0.8-1.6l-1.3-1l-1.7-0.3l-1.7,0.4l-1.3,1
		l-0.8,1.7l-0.3,2.2l0.3,2.3l0.8,1.7l1.3,1l1.7,0.3l1.4-0.2l1.2-0.6l0.9-1l0.5-1.3h-1.6l-0.3,0.7l-0.5,0.5l-1.4,0.4l-1-0.2l-0.8-0.6
		l-0.5-1L256.4,323.8L256.4,323.8L256.4,323.8z M256.4,322.5l0.2-1.3l0.5-0.9l0.8-0.6l1-0.2l1,0.2l0.8,0.6l0.5,0.9l0.2,1.3H256.4
		L256.4,322.5z M266.6,328.3h1.6v-5.6l0.2-1.4l0.5-1l0.8-0.6l1.1-0.2l0.8,0.1l0.6,0.4l0.4,0.6l0.1,0.8h1.6l-0.2-1.5l-0.6-1.1l-1-0.6
		l-1.4-0.2l-0.9,0.1l-0.8,0.4l-0.7,0.6l-0.6,0.8v-1.6h-1.5V328.3L266.6,328.3z M286.3,328.3h1.7l1.3-3.8h5.1l1.3,3.8h1.7l-4.7-12.8
		H291L286.3,328.3L286.3,328.3z M290,323l2-5.6l2,5.6H290L290,323z M300.8,324.1h4.4v-1.5h-4.4V324.1L300.8,324.1z M308.5,328.3h1.7
		l1.3-3.8h5.1l1.3,3.8h1.7l-4.7-12.8h-1.9L308.5,328.3L308.5,328.3z M312.1,323l2-5.6l2,5.6H312.1L312.1,323z M321.9,328.3h1.6v-5.6
		l0.2-1.4l0.5-1l0.8-0.6l1.1-0.2l0.8,0.1l0.6,0.4l0.4,0.6l0.1,0.8h1.6l-0.2-1.5l-0.6-1.1l-1-0.6l-1.4-0.2l-0.9,0.1l-0.8,0.4
		l-0.7,0.6l-0.6,0.8v-1.6h-1.5V328.3L321.9,328.3z M331.7,328.3h1.5v-6.6l0.1-1l0.3-0.7l0.4-0.4l0.6-0.2l0.4,0.1l0.3,0.4l0.1,0.6
		l0.1,0.8v6.9h1.4v-6.6l0.1-1l0.3-0.7l0.4-0.4l0.6-0.2l0.4,0.1l0.3,0.4l0.2,1.5v6.9h1.5v-6.8l-0.1-1.4l-0.3-1.1l-0.6-0.7l-1-0.2
		l-1.1,0.4l-0.9,1.1l-0.7-1l-1.1-0.4l-1,0.4l-0.7,1v-1h-1.4V328.3L331.7,328.3z M354.2,328.3h1.7v-5.4h1.7l1.3,0.1l0.8,0.3l0.4,0.6
		l0.2,1.1l0.1,1.7l0.1,1.1l0.2,0.6h1.9V328l-0.4-0.5l-0.1-1l-0.1-2.1l-0.3-1.5l-0.4-0.5l-0.7-0.3l0.7-0.5l0.5-0.6l0.3-0.8l0.1-1
		l-0.3-1.5l-0.7-1.2l-1.2-0.7l-1.7-0.2h-4.3V328.3L354.2,328.3z M358,317.1l1.1,0.1l0.8,0.3l0.5,0.6l0.2,1l-0.2,1.1l-0.5,0.6
		l-0.8,0.3l-1.2,0.1h-2v-4.2H358L358,317.1z M367,323.8h6.5l0-0.8l-0.3-2.1l-0.8-1.6l-1.3-1l-1.7-0.3l-1.7,0.4l-1.3,1l-0.8,1.7
		l-0.3,2.2l0.3,2.3l0.8,1.7l1.3,1l1.7,0.3l1.4-0.2l1.2-0.6l0.9-1l0.5-1.3h-1.6l-0.3,0.7l-0.5,0.5l-1.4,0.4l-1-0.2l-0.8-0.6l-0.5-1
		L367,323.8L367,323.8L367,323.8z M367,322.5l0.2-1.3l0.5-0.9l0.8-0.6l1-0.2l1,0.2l0.8,0.6l0.5,0.9l0.2,1.3H367L367,322.5z
		 M382.5,327L382.5,327l0.1,0.7l0.3,0.4l1.2,0.4l0.9-0.1v-1.3l-0.4,0.1l-0.5-0.2l-0.1-0.7v-5.1l-0.2-1.3l-0.6-0.9l-1.1-0.5l-1.6-0.2
		l-1.5,0.2l-1.1,0.6l-0.7,1l-0.2,1.3v0.1h1.5l0.1-0.8l0.4-0.6l0.7-0.3l0.9-0.1l0.9,0.1l0.6,0.3l0.4,0.5l0.1,0.7l-0.1,0.8l-0.3,0.4
		l-0.7,0.2l-1.4,0.1l-1.6,0.3l-1.1,0.6l-0.7,0.9l-0.2,1.4l0.2,1.2l0.6,0.9l0.9,0.6l1.3,0.2l1.7-0.4L382.5,327L382.5,327z
		 M382.3,324.9l-0.2,1l-0.6,0.7l-0.9,0.5l-1.1,0.2l-0.7-0.1l-0.5-0.3l-0.3-0.5l-0.1-0.7l0.1-0.6l0.3-0.5l1.2-0.5l1.5-0.2l1.3-0.4
		V324.9L382.3,324.9z M388.3,328.3h1.6v-5.6l0.2-1.4l0.5-1l0.8-0.6l1.1-0.2l0.8,0.1l0.6,0.4l0.4,0.6l0.1,0.8h1.6l-0.2-1.5l-0.6-1.1
		l-1-0.6l-1.4-0.2l-0.9,0.1l-0.8,0.4l-0.7,0.6l-0.6,0.8v-1.6h-1.5V328.3L388.3,328.3z M409.3,323.5l0.3,2.3l0.8,1.6l1.4,0.9l2,0.3
		l2-0.3l1.4-0.9l0.8-1.6l0.3-2.3v-7.9h-1.7v8l-0.2,1.6l-0.5,1.1l-0.8,0.7l-1.2,0.2l-1.2-0.2l-0.8-0.7l-0.5-1.1l-0.1-1.6v-8h-1.7
		V323.5L409.3,323.5z M422.4,320v-1.5h-1.6v13.7h1.6v-5.3l0.6,0.9l0.6,0.6l1.6,0.4l1.5-0.3l1.2-1l0.8-1.7l0.3-2.2l-0.3-2.2l-0.8-1.7
		l-1.2-1l-1.5-0.4l-0.9,0.1l-0.8,0.4l-0.6,0.6L422.4,320L422.4,320z M425,327.2l-1.1-0.2l-0.8-0.7l-0.5-1.2l-0.2-1.7l0.2-1.7
		l0.5-1.2l0.8-0.7l1.1-0.3l1,0.3l0.8,0.7l0.5,1.2l0.2,1.6l-0.2,1.7l-0.5,1.2L426,327L425,327.2L425,327.2z M433.5,320v-1.5h-1.6
		v13.7h1.6v-5.3l0.6,0.9l0.6,0.6l1.6,0.4l1.5-0.3l1.2-1l0.8-1.7l0.3-2.2l-0.3-2.2l-0.8-1.7l-1.2-1l-1.5-0.4l-0.9,0.1l-0.8,0.4
		l-0.6,0.6L433.5,320L433.5,320z M436.1,327.2L435,327l-0.8-0.7l-0.5-1.2l-0.2-1.7l0.2-1.7l0.5-1.2l0.8-0.7l1.1-0.3l1,0.3l0.8,0.7
		l0.5,1.2l0.2,1.6l-0.2,1.7l-0.5,1.2L437,327L436.1,327.2L436.1,327.2z M444.5,323.8h6.5l0-0.8l-0.3-2.1l-0.8-1.6l-1.3-1l-1.7-0.3
		l-1.7,0.4l-1.3,1l-0.8,1.7l-0.3,2.2l0.3,2.3l0.8,1.7l1.3,1l1.7,0.3l1.4-0.2l1.2-0.6l0.9-1l0.5-1.3h-1.6l-0.3,0.7l-0.5,0.5l-1.4,0.4
		l-1-0.2l-0.8-0.6l-0.5-1L444.5,323.8L444.5,323.8L444.5,323.8z M444.5,322.5l0.2-1.3l0.5-0.9l0.8-0.6l1-0.2l1,0.2l0.8,0.6l0.5,0.9
		l0.2,1.3H444.5L444.5,322.5z M454.7,328.3h1.6v-5.6l0.2-1.4l0.5-1l0.8-0.6l1.1-0.2l0.8,0.1l0.6,0.4l0.4,0.6l0.1,0.8h1.6l-0.2-1.5
		l-0.6-1.1l-1-0.6l-1.4-0.2l-0.9,0.1l-0.8,0.4l-0.7,0.6l-0.6,0.8v-1.6h-1.5V328.3L454.7,328.3z"/>
</g>
<path d="M66.8,106.5h1.3v-4.6h4.2v-1.2h-4.2v-3h5.1v-1.2h-6.5V106.5L66.8,106.5z M75.4,106.5h6.4v-1.2h-5.1v-8.7h-1.3V106.5
	L75.4,106.5z M83.5,102.7l0.2,1.8l0.6,1.3l1.1,0.7l1.5,0.3l1.5-0.3l1.1-0.7l0.6-1.3l0.2-1.8v-6.1H89v6.2l-0.1,1.2l-0.4,0.9l-0.7,0.5
	l-0.9,0.2l-0.9-0.2l-0.7-0.5l-0.4-0.9l-0.1-1.2v-6.2h-1.3V102.7L83.5,102.7z M93.8,103.2h3.5v-1.1h-3.5V103.2L93.8,103.2z"/>
<path d="M66.5,123.6h1.3v-4.2h1.4l1,0l0.6,0.2l0.3,0.5l0.1,0.8l0.1,1.3l0.1,0.8l0.2,0.5h1.5v-0.3l-0.3-0.4l-0.1-0.7l-0.1-1.6
	l-0.2-1.2L72,119l-0.5-0.3l0.6-0.4l0.4-0.5l0.3-0.6l0.1-0.8l-0.2-1.2l-0.6-0.9l-0.9-0.5l-1.3-0.2h-3.3V123.6L66.5,123.6z
	 M69.5,114.9l0.9,0.1l0.6,0.3l0.4,0.5l0.1,0.8l-0.1,0.8l-0.4,0.5l-0.7,0.3l-0.9,0.1h-1.5v-3.3H69.5L69.5,114.9z M74.9,119.9l0.2,1.8
	l0.6,1.3l1.1,0.7l1.5,0.3l1.5-0.3l1.1-0.7l0.6-1.3l0.2-1.8v-6.1h-1.3v6.2l-0.1,1.2l-0.4,0.9l-0.7,0.5l-0.9,0.2l-0.9-0.2l-0.7-0.5
	l-0.4-0.9l-0.1-1.2v-6.2h-1.3V119.9L74.9,119.9z M83.5,119.9l0.2,1.8l0.6,1.3l1.1,0.7l1.5,0.3l1.5-0.3l1.1-0.7l0.6-1.3l0.2-1.8v-6.1
	H89v6.2l-0.1,1.2l-0.4,0.9l-0.7,0.5l-0.9,0.2l-0.9-0.2l-0.7-0.5l-0.4-0.9l-0.1-1.2v-6.2h-1.3V119.9L83.5,119.9z"/>
<path d="M204.1,110.3h1.3v-4.6h4.2v-1.2h-4.2v-3h5.1v-1.2h-6.5V110.3L204.1,110.3z M212.7,110.3h6.4v-1.2h-5.1v-8.7h-1.3V110.3
	L212.7,110.3z M220.8,106.6l0.2,1.8l0.6,1.3l1.1,0.7l1.5,0.3l1.5-0.3l1.1-0.7l0.6-1.3l0.2-1.8v-6.1h-1.3v6.2l-0.1,1.2l-0.4,0.9
	l-0.7,0.5l-0.9,0.2l-0.9-0.2l-0.7-0.5l-0.4-0.9l-0.1-1.2v-6.2h-1.3V106.6L220.8,106.6z M231.1,107.1h3.5v-1.1h-3.5V107.1
	L231.1,107.1z"/>
<path d="M203.8,127.5h1.3v-4.2h1.4l1,0l0.6,0.2l0.3,0.5l0.1,0.8l0.1,1.3l0.1,0.8l0.2,0.5h1.5v-0.3l-0.3-0.4l-0.1-0.7l-0.1-1.6
	l-0.2-1.2l-0.3-0.4l-0.5-0.3l0.6-0.4l0.4-0.5l0.3-0.6l0.1-0.8l-0.2-1.2l-0.6-0.9l-0.9-0.5l-1.3-0.2h-3.3V127.5L203.8,127.5z
	 M206.8,118.8l0.9,0.1l0.6,0.3l0.4,0.5l0.1,0.8l-0.1,0.8l-0.4,0.5l-0.7,0.3l-0.9,0.1h-1.5v-3.3H206.8L206.8,118.8z M212.2,123.7
	l0.2,1.8l0.6,1.3l1.1,0.7l1.5,0.3l1.5-0.3l1.1-0.7l0.6-1.3l0.2-1.8v-6.1h-1.3v6.2l-0.1,1.2l-0.4,0.9l-0.7,0.5l-0.9,0.2l-0.9-0.2
	l-0.7-0.5l-0.4-0.9l-0.1-1.2v-6.2h-1.3V123.7L212.2,123.7z M224.2,117.5h-3.3v9.9h3.3l1.6-0.3l1.2-1l0.7-1.6l0.3-2.1l-0.2-2.2
	l-0.3-0.9l-0.4-0.7l-1.2-0.9l-0.8-0.2L224.2,117.5L224.2,117.5z M224.1,118.7l1.1,0.2l0.7,0.7l0.4,1.2l0.1,1.7l-0.2,1.7l-0.4,1.2
	l-0.8,0.7l-1.1,0.2h-1.9v-7.5H224.1L224.1,118.7z"/>
</svg>
