<?xml version="1.0" encoding="utf-8" ?><!DOCTYPE svg PUBLIC "-//W3C//DTD SVG 1.1//EN" "http://www.w3.org/Graphics/SVG/1.1/DTD/svg11.dtd" 
[ <!ATTLIST svg 
  xmlns:dsy CDATA #FIXED "http://www.3ds.com/print"  
    dsy:text-version CDATA #IMPLIED > 

  <!ATTLIST text 
  xmlns:dsy CDATA #FIXED "http://www.3ds.com/print" 
    dsy:text-version CDATA #IMPLIED > 
]><svg xmlns="http://www.w3.org/2000/svg" xmlns:dsy="http://www.3ds.com/print" dsy:text-version="18000" width="297" height="210" viewBox="0 0 297 210" version="1.1"><g stroke="rgb(0, 0, 0)" stroke-width="0.35" stroke-linecap="butt" stroke-linejoin="miter" fill="none"><path d="M 137.853 89.673 A 7 7 0 0 0 124.243 92.3156"/><circle cx="131.234" cy="91.9506" r="3.2"/></g><g stroke="rgb(0, 0, 0)" stroke-width="0.13" stroke-linecap="butt" stroke-linejoin="miter" stroke-dasharray="4, 1.5" fill="none"><path d="M 137.289 113.294 L 137 113.278"/></g><g stroke="rgb(0, 0, 0)" stroke-width="0.35" stroke-linecap="butt" stroke-linejoin="miter" fill="none"><path d="M 137.853 89.673 L 147.42 117.477"/><path d="M 124.243 92.3156 L 125.6 118.309"/><path d="M 137.58 113.304 A 15.1598 15.0039 -357.176 0 0 125.6 118.309"/><path d="M 147.421 117.476 A 15.2499 15.2499 0 0 0 137.58 113.305"/></g><g stroke="rgb(0, 0, 0)" stroke-width="0.13" stroke-linecap="butt" stroke-linejoin="miter" stroke-dasharray="4, 1.5" fill="none"><path d="M 137 113.278 L 137.58 113.304"/></g><g stroke="rgb(0, 0, 0)" stroke-width="0.35" stroke-linecap="butt" stroke-linejoin="miter" fill="none"><path d="M 208.69 79.1904 A 7 7 0 0 0 195.582 83.7066"/><circle cx="202.454" cy="82.3696" r="3.20001"/><path d="M 195.582 83.7066 L 201.379 113.496"/><path d="M 208.69 79.1904 L 220.237 101.841"/><path d="M 208.124 103.723 A 15.1624 15.0084 -31.886 0 0 201.379 113.496"/><path d="M 220.237 101.841 A 15.1531 14.993 -31.9977 0 0 208.124 103.723"/></g><g stroke="rgb(0, 0, 0)" stroke-width="0.13" stroke-linecap="butt" stroke-linejoin="miter" stroke-dasharray="4, 1.5" fill="none"><path d="M 207.881 103.881 L 207.634 104.035"/><path d="M 208.124 103.723 L 207.634 104.035"/></g><g stroke="rgb(0, 0, 0)" stroke-width="0.35" stroke-linecap="butt" stroke-linejoin="miter" fill="none"><path d="M 9.99999 200 L 287 200"/><path d="M 287 200 L 287 10"/><path d="M 287 10 L 9.99999 10"/><path d="M 9.99999 10 L 9.99999 200"/><path d="M 148.5 10 L 148.5 0"/><path d="M 9.99999 105 L -5.94366e-006 105"/><path d="M 287 105 L 297 105"/><path d="M 222.7 200 L 222.7 207.5"/><path d="M 74.3 200 L 74.3 207.5"/><path d="M 222.7 10 L 222.7 2.5"/><path d="M 74.3 10 L 74.3 2.5"/><path d="M 9.99999 52.5 L 2.49999 52.5"/><path d="M 287 52.5 L 294.5 52.5"/><path d="M 9.99999 157.5 L 2.49999 157.5"/><path d="M 287 157.5 L 294.5 157.5"/><path d="M 198.5 200 L 198.5 205"/><path d="M 188.5 200 L 188.5 202.5"/><path d="M 178.5 200 L 178.5 202.5"/><path d="M 168.5 200 L 168.5 202.5"/><path d="M 287 140 L 287 200"/></g><g stroke="rgb(0, 0, 0)" stroke-width="0.13" stroke-linecap="butt" stroke-linejoin="miter" stroke-dasharray="7, 1, 1, 1" fill="none"><path d="M 135.394 91.9506 L 127.074 91.9506"/><path d="M 131.234 87.7906 L 131.234 96.1106"/><path d="M 206.613 82.3696 L 198.294 82.3696"/><path d="M 202.454 78.2096 L 202.454 86.5296"/></g><g stroke="rgb(0, 0, 0)" stroke-width="0.13" stroke-linecap="butt" stroke-linejoin="miter" fill="none"><path d="M 258.267 206.833 L 258.731 206.833 L 259.099 205.804 L 260.496 205.804 L 260.864 206.833 L 261.338 206.833 L 260.057 203.328 L 259.543 203.328 L 258.267 206.833 L 258.267 206.833 z M 259.26 205.376 L 259.8 203.832 L 260.34 205.376 L 259.26 205.376 L 259.26 205.376 z" stroke="none" fill-rule="evenodd" fill="rgb(0, 0, 0)"/></g><g stroke="rgb(0, 0, 0)" stroke-width="0.13" stroke-linecap="butt" stroke-linejoin="miter" fill="none"><path d="M 37.1949 203.333 L 36.03 203.333 L 36.03 206.833 L 37.1949 206.833 L 37.7447 206.722 L 38.1532 206.384 L 38.4053 205.835 L 38.4961 205.083 L 38.4154 204.317 L 38.3145 204.014 L 38.1733 203.772 L 37.7648 203.444 L 37.4975 203.363 L 37.1949 203.333 L 37.1949 203.333 z M 37.1596 203.752 L 37.5429 203.827 L 37.8052 204.059 L 37.9615 204.473 L 38.012 205.083 L 37.9565 205.673 L 37.8001 206.087 L 37.5328 206.334 L 37.1596 206.415 L 36.499 206.415 L 36.499 203.752 L 37.1596 203.752 L 37.1596 203.752 z" stroke="none" fill-rule="evenodd" fill="rgb(0, 0, 0)"/></g><g stroke="rgb(0, 0, 0)" stroke-width="0.13" stroke-linecap="butt" stroke-linejoin="miter" fill="none"><path d="M 185.542 4.36958 L 185.249 4.01657 L 185.053 3.92578 L 184.811 3.89552 L 184.432 3.96109 L 184.16 4.15778 L 183.994 4.47549 L 183.933 4.9193 L 183.933 6.16498 L 187.433 6.16498 L 187.433 4.84869 L 187.363 4.37968 L 187.156 4.03169 L 186.828 3.81483 L 186.384 3.73918 L 186.087 3.78458 L 185.84 3.90561 L 185.658 4.10229 L 185.542 4.36958 L 185.542 4.36958 z M 185.386 5.01512 L 185.386 5.701 L 184.352 5.701 L 184.352 4.97478 L 184.382 4.70244 L 184.473 4.5108 L 184.629 4.39481 L 184.861 4.35446 L 185.093 4.39986 L 185.255 4.52089 L 185.355 4.72766 L 185.386 5.01512 L 185.386 5.01512 z M 187.015 4.90417 L 187.015 5.701 L 185.809 5.701 L 185.809 4.94955 L 185.845 4.63184 L 185.951 4.40489 L 186.132 4.26872 L 186.394 4.22334 L 186.672 4.26872 L 186.863 4.39481 L 186.979 4.60663 L 187.015 4.90417 L 187.015 4.90417 z" stroke="none" fill-rule="evenodd" fill="rgb(0, 0, 0)"/></g><g stroke="rgb(0, 0, 0)" stroke-width="0.13" stroke-linecap="butt" stroke-linejoin="miter" fill="none"><path d="M 111.932 4.183 L 112.356 4.28386 L 112.658 4.45029 L 112.845 4.68227 L 112.905 4.95461 L 112.815 5.28241 L 112.542 5.53961 L 112.098 5.71109 L 111.483 5.76657 L 110.873 5.71109 L 110.424 5.54466 L 110.152 5.28746 L 110.056 4.95461 L 110.106 4.71252 L 110.248 4.50575 L 110.475 4.34438 L 110.787 4.23343 L 110.787 3.75432 L 110.308 3.90561 L 109.945 4.16786 L 109.718 4.52592 L 109.637 4.95461 L 109.763 5.48918 L 110.116 5.89769 L 110.696 6.15994 L 111.483 6.25072 L 112.27 6.15994 L 112.85 5.89769 L 113.208 5.48918 L 113.329 4.95461 L 113.233 4.48558 L 112.966 4.10735 L 112.527 3.84006 L 111.932 3.69884 L 111.932 4.183 L 111.932 4.183 z" stroke="none" fill-rule="evenodd" fill="rgb(0, 0, 0)"/></g><g stroke="rgb(0, 0, 0)" stroke-width="0.13" stroke-linecap="butt" stroke-linejoin="miter" fill="none"><path d="M 261.633 6.53314 L 261.633 6.06915 L 260.604 5.701 L 260.604 4.30403 L 261.633 3.93587 L 261.633 3.46181 L 258.128 4.74278 L 258.128 5.2572 L 261.633 6.53314 L 261.633 6.53314 z M 260.176 5.53961 L 258.632 5 L 260.176 4.46037 L 260.176 5.53961 L 260.176 5.53961 z" stroke="none" fill-rule="evenodd" fill="rgb(0, 0, 0)"/></g><g stroke="rgb(0, 0, 0)" stroke-width="0.13" stroke-linecap="butt" stroke-linejoin="miter" fill="none"><path d="M 35.5332 5.00504 L 35.5332 6.17003 L 39.0332 6.17003 L 39.0332 5.00504 L 38.9223 4.45532 L 38.5844 4.04683 L 38.0346 3.79466 L 37.2832 3.70389 L 36.5166 3.78458 L 36.214 3.88544 L 35.972 4.02666 L 35.6442 4.43515 L 35.5635 4.70244 L 35.5332 5.00504 L 35.5332 5.00504 z M 35.9518 5.04034 L 36.0274 4.65706 L 36.2594 4.39481 L 36.673 4.23846 L 37.2832 4.18803 L 37.8733 4.24352 L 38.2868 4.39986 L 38.5339 4.66714 L 38.6146 5.04034 L 38.6146 5.701 L 35.9518 5.701 L 35.9518 5.04034 L 35.9518 5.04034 z" stroke="none" fill-rule="evenodd" fill="rgb(0, 0, 0)"/></g><g stroke="rgb(0, 0, 0)" stroke-width="0.13" stroke-linecap="butt" stroke-linejoin="miter" fill="none"><path d="M 290.729 79.4838 L 290.729 79.5191 L 290.81 80.0032 L 291.047 80.3663 L 291.42 80.5983 L 291.914 80.6841 L 292.439 80.5983 L 292.832 80.3764 L 293.084 80.0234 L 293.175 79.5695 L 293.135 79.272 L 293.024 79.0299 L 292.842 78.8433 L 292.6 78.7071 L 292.928 78.4348 L 293.044 78.0011 L 292.968 77.6077 L 292.751 77.3102 L 292.398 77.1236 L 291.914 77.058 L 291.46 77.1387 L 291.112 77.3606 L 290.885 77.7136 L 290.81 78.1826 L 290.81 78.2179 L 291.259 78.2179 L 291.299 77.8952 L 291.43 77.6632 L 291.642 77.522 L 291.939 77.4715 L 292.202 77.5119 L 292.393 77.6178 L 292.509 77.7892 L 292.555 78.0212 L 292.509 78.2684 L 292.388 78.4348 L 292.177 78.5356 L 291.889 78.5659 L 291.692 78.5609 L 291.692 78.9593 L 291.939 78.9492 L 292.257 78.9946 L 292.494 79.1156 L 292.635 79.3123 L 292.686 79.5695 L 292.63 79.862 L 292.484 80.0789 L 292.252 80.215 L 291.945 80.2604 L 291.627 80.21 L 291.395 80.0587 L 291.249 79.8166 L 291.193 79.4838 L 290.729 79.4838 L 290.729 79.4838 z" stroke="none" fill-rule="evenodd" fill="rgb(0, 0, 0)"/></g><g stroke="rgb(0, 0, 0)" stroke-width="0.13" stroke-linecap="butt" stroke-linejoin="miter" fill="none"><path d="M 5.73378 80.0209 L 5.76909 80.0209 L 6.25324 79.9402 L 6.61635 79.7032 L 6.84834 79.33 L 6.93407 78.8357 L 6.84834 78.3112 L 6.62644 77.9179 L 6.27341 77.6657 L 5.81952 77.5749 L 5.52197 77.6153 L 5.27989 77.7262 L 5.09329 77.9078 L 4.95713 78.1499 L 4.68479 77.822 L 4.25108 77.706 L 3.8577 77.7817 L 3.56015 77.9986 L 3.37355 78.3516 L 3.30799 78.8357 L 3.38868 79.2896 L 3.61059 79.6376 L 3.96361 79.8645 L 4.43263 79.9402 L 4.46793 79.9402 L 4.46793 79.4913 L 4.14517 79.451 L 3.91318 79.3199 L 3.77197 79.1081 L 3.72154 78.8105 L 3.76188 78.5483 L 3.86779 78.3566 L 4.03926 78.2406 L 4.27125 78.1952 L 4.51837 78.2406 L 4.68479 78.3617 L 4.78566 78.5735 L 4.81592 78.8609 L 4.81087 79.0576 L 5.20929 79.0576 L 5.1992 78.8105 L 5.24459 78.4928 L 5.36563 78.2558 L 5.56231 78.1145 L 5.81952 78.0641 L 6.11203 78.1196 L 6.32889 78.2658 L 6.46505 78.4978 L 6.51044 78.8055 L 6.46001 79.1232 L 6.30871 79.3552 L 6.06664 79.5014 L 5.73378 79.5569 L 5.73378 80.0209 L 5.73378 80.0209 z" stroke="none" fill-rule="evenodd" fill="rgb(0, 0, 0)"/></g><g stroke="rgb(0, 0, 0)" stroke-width="0.13" stroke-linecap="butt" stroke-linejoin="miter" fill="none"><path d="M 290.769 133.083 L 293.175 133.083 L 293.175 132.65 L 291.274 132.65 L 291.38 132.412 L 291.561 132.216 L 292.121 131.858 L 292.419 131.706 L 292.751 131.49 L 292.988 131.237 L 293.125 130.94 L 293.175 130.602 L 293.089 130.178 L 292.852 129.845 L 292.489 129.634 L 292.02 129.558 L 291.536 129.644 L 291.168 129.881 L 290.931 130.259 L 290.85 130.758 L 290.85 130.829 L 291.309 130.829 L 291.309 130.789 L 291.354 130.446 L 291.491 130.193 L 291.707 130.032 L 291.995 129.977 L 292.287 130.027 L 292.504 130.153 L 292.646 130.35 L 292.696 130.597 L 292.661 130.829 L 292.565 131.026 L 292.403 131.197 L 292.182 131.348 L 291.884 131.51 L 291.39 131.822 L 291.042 132.155 L 290.835 132.559 L 290.769 133.068 L 290.769 133.083 L 290.769 133.083 z" stroke="none" fill-rule="evenodd" fill="rgb(0, 0, 0)"/></g><g stroke="rgb(0, 0, 0)" stroke-width="0.13" stroke-linecap="butt" stroke-linejoin="miter" fill="none"><path d="M 6.83321 132.481 L 6.83321 130.075 L 6.39949 130.075 L 6.39949 131.976 L 6.16246 131.87 L 5.96577 131.689 L 5.6077 131.129 L 5.45641 130.831 L 5.23955 130.499 L 4.98738 130.262 L 4.68983 130.125 L 4.35194 130.075 L 3.92831 130.161 L 3.59545 130.398 L 3.38364 130.761 L 3.30799 131.23 L 3.39372 131.714 L 3.63075 132.082 L 4.009 132.319 L 4.50828 132.4 L 4.57888 132.4 L 4.57888 131.941 L 4.53854 131.941 L 4.1956 131.896 L 3.94343 131.759 L 3.78205 131.543 L 3.72658 131.255 L 3.77701 130.963 L 3.90309 130.746 L 4.09978 130.604 L 4.34689 130.554 L 4.57888 130.589 L 4.77557 130.685 L 4.94704 130.847 L 5.09834 131.068 L 5.25972 131.366 L 5.5724 131.86 L 5.90525 132.208 L 6.30871 132.415 L 6.81808 132.481 L 6.83321 132.481 L 6.83321 132.481 z" stroke="none" fill-rule="evenodd" fill="rgb(0, 0, 0)"/></g><g stroke="rgb(0, 0, 0)" stroke-width="0.13" stroke-linecap="butt" stroke-linejoin="miter" fill="none"><path d="M 292.277 28.0832 L 292.731 28.0832 L 292.731 27.2158 L 293.231 27.2158 L 293.231 26.8123 L 292.731 26.8123 L 292.731 24.6588 L 292.272 24.6588 L 290.739 26.772 L 290.739 27.2158 L 292.277 27.2158 L 292.277 28.0832 L 292.277 28.0832 z M 291.163 26.8123 L 292.277 25.2439 L 292.277 26.8123 L 291.163 26.8123 L 291.163 26.8123 z" stroke="none" fill-rule="evenodd" fill="rgb(0, 0, 0)"/></g><g stroke="rgb(0, 0, 0)" stroke-width="0.13" stroke-linecap="butt" stroke-linejoin="miter" fill="none"><path d="M 6.83321 25.9726 L 6.83321 25.5187 L 5.96577 25.5187 L 5.96577 25.0194 L 5.56231 25.0194 L 5.56231 25.5187 L 3.40886 25.5187 L 3.40886 25.9777 L 5.52197 27.5108 L 5.96577 27.5108 L 5.96577 25.9726 L 6.83321 25.9726 L 6.83321 25.9726 z M 5.56231 27.0872 L 3.99387 25.9726 L 5.56231 25.9726 L 5.56231 27.0872 L 5.56231 27.0872 z" stroke="none" fill-rule="evenodd" fill="rgb(0, 0, 0)"/></g><g stroke="rgb(0, 0, 0)" stroke-width="0.13" stroke-linecap="butt" stroke-linejoin="miter" fill="none"><path d="M 291.909 185.583 L 292.368 185.583 L 292.368 182.058 L 292.025 182.058 L 291.934 182.366 L 291.753 182.572 L 291.476 182.693 L 291.092 182.734 L 291.092 183.092 L 291.909 183.092 L 291.909 185.583 L 291.909 185.583 z" stroke="none" fill-rule="evenodd" fill="rgb(0, 0, 0)"/></g><g stroke="rgb(0, 0, 0)" stroke-width="0.13" stroke-linecap="butt" stroke-linejoin="miter" fill="none"><path d="M 6.83321 183.841 L 6.83321 183.382 L 3.30799 183.382 L 3.30799 183.725 L 3.61562 183.816 L 3.8224 183.997 L 3.94343 184.275 L 3.98378 184.658 L 4.34185 184.658 L 4.34185 183.841 L 6.83321 183.841 L 6.83321 183.841 z" stroke="none" fill-rule="evenodd" fill="rgb(0, 0, 0)"/></g><g stroke="rgb(0, 0, 0)" stroke-width="0.13" stroke-linecap="butt" stroke-linejoin="miter" fill="none"><path d="M 164.081 169.969 L 163.249 169.969 L 163.249 172.469 L 164.081 172.469 L 164.473 172.39 L 164.765 172.148 L 164.945 171.756 L 165.01 171.219 L 164.952 170.671 L 164.88 170.455 L 164.78 170.282 L 164.488 170.048 L 164.297 169.991 L 164.081 169.969 L 164.081 169.969 z M 164.055 170.268 L 164.329 170.322 L 164.517 170.488 L 164.628 170.783 L 164.664 171.219 L 164.625 171.64 L 164.513 171.936 L 164.322 172.112 L 164.055 172.17 L 163.584 172.17 L 163.584 170.268 L 164.055 170.268 L 164.055 170.268 z M 166.004 170.272 L 166.217 170.272 L 166.718 169.659 L 166.365 169.659 L 166.004 170.272 L 166.004 170.272 z M 165.785 171.594 L 167.053 171.594 L 167.056 171.446 L 166.999 171.032 L 166.84 170.722 L 166.588 170.535 L 166.253 170.466 L 165.925 170.538 L 165.673 170.74 L 165.511 171.068 L 165.453 171.5 L 165.507 171.943 L 165.669 172.267 L 165.918 172.469 L 166.242 172.537 L 166.523 172.491 L 166.754 172.368 L 166.923 172.174 L 167.02 171.914 L 166.707 171.914 L 166.642 172.058 L 166.548 172.166 L 166.282 172.253 L 166.076 172.213 L 165.921 172.087 L 165.821 171.882 L 165.785 171.604 L 165.785 171.594 L 165.785 171.594 z M 165.785 171.327 L 165.824 171.079 L 165.921 170.895 L 166.069 170.783 L 166.264 170.744 L 166.455 170.783 L 166.602 170.895 L 166.692 171.079 L 166.725 171.327 L 165.785 171.327 L 165.785 171.327 z M 168.623 171.341 L 168.317 171.269 L 168.09 171.187 L 168.014 171.017 L 168.036 170.898 L 168.112 170.812 L 168.234 170.758 L 168.411 170.736 L 168.58 170.758 L 168.713 170.823 L 168.8 170.92 L 168.836 171.05 L 169.146 171.05 L 169.146 171.043 L 169.092 170.808 L 168.944 170.625 L 168.713 170.509 L 168.411 170.466 L 168.104 170.509 L 167.881 170.628 L 167.741 170.805 L 167.697 171.028 L 167.73 171.244 L 167.831 171.396 L 167.996 171.504 L 168.238 171.579 L 168.591 171.666 L 168.807 171.756 L 168.865 171.828 L 168.886 171.936 L 168.854 172.069 L 168.767 172.17 L 168.627 172.235 L 168.439 172.256 L 168.241 172.235 L 168.097 172.159 L 168 172.037 L 167.96 171.867 L 167.654 171.867 L 167.705 172.156 L 167.852 172.365 L 168.086 172.491 L 168.411 172.537 L 168.749 172.491 L 168.998 172.365 L 169.149 172.163 L 169.203 171.9 L 169.164 171.673 L 169.052 171.518 L 168.868 171.417 L 168.623 171.341 L 168.623 171.341 z M 170.813 172.202 L 170.813 170.599 L 169.999 170.599 L 169.999 170.87 L 170.496 170.87 L 170.496 172.202 L 169.848 172.202 L 169.848 172.469 L 171.469 172.469 L 171.469 172.202 L 170.813 172.202 L 170.813 172.202 z M 170.824 169.883 L 170.489 169.883 L 170.489 170.243 L 170.824 170.243 L 170.824 169.883 L 170.824 169.883 z M 173.519 172.383 L 173.519 170.535 L 173.216 170.535 L 173.216 170.848 L 172.968 170.563 L 172.816 170.491 L 172.647 170.466 L 172.341 170.538 L 172.103 170.74 L 171.948 171.064 L 171.894 171.5 L 171.948 171.939 L 172.103 172.264 L 172.341 172.469 L 172.647 172.537 L 172.82 172.512 L 172.964 172.447 L 173.216 172.174 L 173.216 172.447 L 173.187 172.664 L 173.108 172.818 L 172.957 172.909 L 172.73 172.941 L 172.532 172.919 L 172.391 172.865 L 172.308 172.772 L 172.283 172.646 L 171.977 172.646 L 171.977 172.66 L 172.024 172.89 L 172.168 173.063 L 172.398 173.175 L 172.712 173.215 L 173.086 173.161 L 173.335 173.009 L 173.476 172.746 L 173.519 172.383 L 173.519 172.383 z M 172.222 171.5 L 172.254 171.179 L 172.352 170.942 L 172.503 170.801 L 172.705 170.751 L 172.917 170.801 L 173.076 170.942 L 173.173 171.179 L 173.209 171.5 L 173.173 171.828 L 173.076 172.062 L 172.917 172.206 L 172.705 172.253 L 172.503 172.206 L 172.352 172.062 L 172.254 171.824 L 172.222 171.5 L 172.222 171.5 z M 174.182 172.469 L 174.499 172.469 L 174.499 171.352 L 174.531 171.097 L 174.635 170.909 L 174.798 170.794 L 175.014 170.751 L 175.187 170.787 L 175.295 170.884 L 175.349 171.046 L 175.367 171.262 L 175.367 172.469 L 175.684 172.469 L 175.684 171.197 L 175.669 170.942 L 175.605 170.729 L 175.392 170.535 L 175.061 170.466 L 174.877 170.491 L 174.722 170.56 L 174.589 170.675 L 174.484 170.83 L 174.484 170.535 L 174.182 170.535 L 174.182 172.469 L 174.182 172.469 z M 177.499 172.217 L 177.499 172.228 L 177.517 172.35 L 177.571 172.437 L 177.798 172.505 L 177.975 172.476 L 177.975 172.231 L 177.899 172.242 L 177.798 172.195 L 177.78 172.051 L 177.78 171.05 L 177.737 170.794 L 177.611 170.614 L 177.391 170.506 L 177.081 170.466 L 176.779 170.509 L 176.556 170.632 L 176.415 170.823 L 176.368 171.075 L 176.368 171.097 L 176.653 171.097 L 176.678 170.945 L 176.757 170.837 L 176.887 170.772 L 177.071 170.747 L 177.247 170.765 L 177.373 170.819 L 177.449 170.913 L 177.474 171.043 L 177.46 171.194 L 177.402 171.269 L 177.258 171.305 L 176.988 171.334 L 176.678 171.399 L 176.458 171.514 L 176.329 171.695 L 176.289 171.961 L 176.325 172.199 L 176.437 172.375 L 176.617 172.487 L 176.865 172.527 L 177.2 172.451 L 177.499 172.217 L 177.499 172.217 z M 177.463 171.792 L 177.42 171.979 L 177.305 172.123 L 177.132 172.217 L 176.919 172.249 L 176.782 172.231 L 176.685 172.174 L 176.624 172.073 L 176.606 171.932 L 176.62 171.806 L 176.678 171.716 L 176.909 171.615 L 177.2 171.572 L 177.463 171.486 L 177.463 171.792 L 177.463 171.792 z M 178.944 170.87 L 178.944 171.839 L 178.965 172.152 L 179.066 172.368 L 179.268 172.494 L 179.61 172.537 L 179.985 172.519 L 179.985 172.246 L 179.711 172.267 L 179.463 172.238 L 179.329 172.148 L 179.272 171.997 L 179.261 171.785 L 179.261 170.87 L 179.985 170.87 L 179.985 170.599 L 179.261 170.599 L 179.261 170.034 L 178.944 170.034 L 178.944 170.599 L 178.396 170.599 L 178.396 170.87 L 178.944 170.87 L 178.944 170.87 z M 181.656 172.202 L 181.656 170.599 L 180.842 170.599 L 180.842 170.87 L 181.339 170.87 L 181.339 172.202 L 180.691 172.202 L 180.691 172.469 L 182.312 172.469 L 182.312 172.202 L 181.656 172.202 L 181.656 172.202 z M 181.667 169.883 L 181.332 169.883 L 181.332 170.243 L 181.667 170.243 L 181.667 169.883 L 181.667 169.883 z M 182.762 171.504 L 182.82 171.943 L 182.986 172.267 L 183.249 172.469 L 183.602 172.537 L 183.951 172.469 L 184.214 172.271 L 184.38 171.947 L 184.441 171.504 L 184.38 171.064 L 184.214 170.736 L 183.951 170.538 L 183.602 170.466 L 183.249 170.538 L 182.986 170.74 L 182.82 171.064 L 182.762 171.504 L 182.762 171.504 z M 183.087 171.5 L 183.119 171.176 L 183.22 170.942 L 183.382 170.798 L 183.602 170.747 L 183.818 170.798 L 183.98 170.938 L 184.081 171.176 L 184.117 171.5 L 184.081 171.828 L 183.98 172.066 L 183.818 172.21 L 183.602 172.256 L 183.382 172.21 L 183.22 172.066 L 183.119 171.828 L 183.087 171.5 L 183.087 171.5 z M 185.025 172.469 L 185.342 172.469 L 185.342 171.352 L 185.374 171.097 L 185.478 170.909 L 185.641 170.794 L 185.857 170.751 L 186.03 170.787 L 186.138 170.884 L 186.192 171.046 L 186.21 171.262 L 186.21 172.469 L 186.527 172.469 L 186.527 171.197 L 186.512 170.942 L 186.447 170.729 L 186.235 170.535 L 185.904 170.466 L 185.72 170.491 L 185.565 170.56 L 185.432 170.675 L 185.327 170.83 L 185.327 170.535 L 185.025 170.535 L 185.025 172.469 L 185.025 172.469 z" stroke="none" fill-rule="evenodd" fill="rgb(0, 0, 0)"/></g><g stroke="rgb(0, 0, 0)" stroke-width="0.13" stroke-linecap="butt" stroke-linejoin="miter" fill="none"><path d="M 154.215 185.47 L 154.818 185.47 L 154.818 183.401 L 156.712 183.401 L 156.712 182.863 L 154.818 182.863 L 154.818 181.514 L 157.146 181.514 L 157.146 180.97 L 154.215 180.97 L 154.215 185.47 L 154.215 185.47 z M 158.32 185.47 L 158.89 185.47 L 158.89 183.479 L 158.949 182.999 L 159.124 182.656 L 159.409 182.448 L 159.792 182.377 L 160.077 182.422 L 160.291 182.552 L 160.421 182.772 L 160.466 183.071 L 161.043 183.071 L 160.965 182.545 L 160.751 182.169 L 160.395 181.942 L 159.909 181.865 L 159.578 181.916 L 159.293 182.046 L 159.04 182.267 L 158.839 182.565 L 158.839 181.988 L 158.32 181.988 L 158.32 185.47 L 158.32 185.47 z M 161.841 183.732 L 161.945 184.523 L 162.243 185.107 L 162.716 185.47 L 163.352 185.593 L 163.981 185.47 L 164.454 185.113 L 164.752 184.53 L 164.862 183.732 L 164.752 182.941 L 164.454 182.351 L 163.981 181.994 L 163.352 181.865 L 162.716 181.994 L 162.243 182.357 L 161.945 182.941 L 161.841 183.732 L 161.841 183.732 z M 162.424 183.726 L 162.483 183.142 L 162.664 182.72 L 162.956 182.461 L 163.352 182.37 L 163.741 182.461 L 164.032 182.714 L 164.214 183.142 L 164.279 183.726 L 164.214 184.316 L 164.032 184.744 L 163.741 185.003 L 163.352 185.087 L 162.956 185.003 L 162.664 184.744 L 162.483 184.316 L 162.424 183.726 L 162.424 183.726 z M 165.913 185.47 L 166.483 185.47 L 166.483 183.46 L 166.542 182.999 L 166.73 182.662 L 167.022 182.455 L 167.411 182.377 L 167.722 182.442 L 167.916 182.617 L 168.014 182.909 L 168.046 183.298 L 168.046 185.47 L 168.617 185.47 L 168.617 183.181 L 168.591 182.72 L 168.474 182.338 L 168.091 181.988 L 167.495 181.865 L 167.164 181.91 L 166.885 182.033 L 166.646 182.241 L 166.457 182.519 L 166.457 181.988 L 165.913 181.988 L 165.913 185.47 L 165.913 185.47 z M 170.581 182.591 L 170.581 184.335 L 170.62 184.899 L 170.802 185.288 L 171.165 185.515 L 171.781 185.593 L 172.455 185.561 L 172.455 185.068 L 171.963 185.107 L 171.515 185.055 L 171.275 184.893 L 171.171 184.62 L 171.152 184.238 L 171.152 182.591 L 172.455 182.591 L 172.455 182.104 L 171.152 182.104 L 171.152 181.086 L 170.581 181.086 L 170.581 182.104 L 169.596 182.104 L 169.596 182.591 L 170.581 182.591 L 170.581 182.591 z M 177.649 185.47 L 180.541 185.47 L 180.541 184.925 L 178.246 184.925 L 178.246 180.97 L 177.649 180.97 L 177.649 185.47 L 177.649 185.47 z M 182.026 183.894 L 184.308 183.894 L 184.315 183.628 L 184.211 182.883 L 183.926 182.325 L 183.472 181.988 L 182.869 181.865 L 182.279 181.994 L 181.825 182.357 L 181.533 182.947 L 181.429 183.726 L 181.527 184.523 L 181.818 185.107 L 182.266 185.47 L 182.849 185.593 L 183.355 185.509 L 183.77 185.288 L 184.075 184.938 L 184.25 184.471 L 183.686 184.471 L 183.569 184.731 L 183.401 184.925 L 182.921 185.081 L 182.551 185.009 L 182.272 184.782 L 182.091 184.413 L 182.026 183.914 L 182.026 183.894 L 182.026 183.894 z M 182.026 183.414 L 182.097 182.967 L 182.272 182.636 L 182.538 182.435 L 182.888 182.364 L 183.232 182.435 L 183.498 182.636 L 183.66 182.967 L 183.718 183.414 L 182.026 183.414 L 182.026 183.414 z M 186.221 182.591 L 186.221 185.47 L 186.792 185.47 L 186.792 182.591 L 188.089 182.591 L 188.089 182.104 L 186.792 182.104 L 186.792 181.89 L 186.837 181.631 L 186.986 181.456 L 187.239 181.352 L 187.602 181.313 L 188.089 181.339 L 188.089 180.847 L 187.473 180.814 L 186.915 180.872 L 186.526 181.048 L 186.293 181.352 L 186.221 181.787 L 186.221 182.104 L 185.177 182.104 L 185.177 182.591 L 186.221 182.591 L 186.221 182.591 z M 190.099 182.591 L 190.099 184.335 L 190.138 184.899 L 190.319 185.288 L 190.682 185.515 L 191.298 185.593 L 191.973 185.561 L 191.973 185.068 L 191.48 185.107 L 191.032 185.055 L 190.792 184.893 L 190.689 184.62 L 190.669 184.238 L 190.669 182.591 L 191.973 182.591 L 191.973 182.104 L 190.669 182.104 L 190.669 181.086 L 190.099 181.086 L 190.099 182.104 L 189.113 182.104 L 189.113 182.591 L 190.099 182.591 L 190.099 182.591 z M 196.933 183.758 L 197.024 184.568 L 197.309 185.146 L 197.789 185.476 L 198.483 185.593 L 199.17 185.476 L 199.65 185.146 L 199.935 184.575 L 200.032 183.758 L 200.032 180.97 L 199.429 180.97 L 199.429 183.79 L 199.371 184.341 L 199.196 184.737 L 198.898 184.97 L 198.483 185.048 L 198.055 184.97 L 197.756 184.737 L 197.581 184.348 L 197.53 183.79 L 197.53 180.97 L 196.933 180.97 L 196.933 183.758 L 196.933 183.758 z M 201.582 182.526 L 201.582 181.988 L 201.012 181.988 L 201.012 186.818 L 201.582 186.818 L 201.582 184.938 L 201.783 185.243 L 202.01 185.444 L 202.581 185.593 L 203.125 185.47 L 203.553 185.1 L 203.832 184.517 L 203.936 183.726 L 203.832 182.941 L 203.553 182.357 L 203.125 181.994 L 202.581 181.865 L 202.269 181.903 L 202.004 182.027 L 201.777 182.234 L 201.582 182.526 L 201.582 182.526 z M 202.483 185.081 L 202.101 184.996 L 201.822 184.737 L 201.647 184.316 L 201.589 183.726 L 201.647 183.142 L 201.822 182.72 L 202.101 182.468 L 202.483 182.377 L 202.834 182.468 L 203.112 182.727 L 203.287 183.148 L 203.352 183.726 L 203.287 184.309 L 203.112 184.737 L 202.834 184.996 L 202.483 185.081 L 202.483 185.081 z M 205.486 182.526 L 205.486 181.988 L 204.915 181.988 L 204.915 186.818 L 205.486 186.818 L 205.486 184.938 L 205.687 185.243 L 205.914 185.444 L 206.484 185.593 L 207.029 185.47 L 207.457 185.1 L 207.736 184.517 L 207.839 183.726 L 207.736 182.941 L 207.457 182.357 L 207.029 181.994 L 206.484 181.865 L 206.173 181.903 L 205.907 182.027 L 205.68 182.234 L 205.486 182.526 L 205.486 182.526 z M 206.387 185.081 L 206.004 184.996 L 205.725 184.737 L 205.55 184.316 L 205.492 183.726 L 205.55 183.142 L 205.725 182.72 L 206.004 182.468 L 206.387 182.377 L 206.737 182.468 L 207.016 182.727 L 207.191 183.148 L 207.256 183.726 L 207.191 184.309 L 207.016 184.737 L 206.737 184.996 L 206.387 185.081 L 206.387 185.081 z M 209.35 183.894 L 211.633 183.894 L 211.639 183.628 L 211.535 182.883 L 211.25 182.325 L 210.796 181.988 L 210.193 181.865 L 209.603 181.994 L 209.149 182.357 L 208.857 182.947 L 208.754 183.726 L 208.851 184.523 L 209.143 185.107 L 209.59 185.47 L 210.174 185.593 L 210.679 185.509 L 211.094 185.288 L 211.399 184.938 L 211.574 184.471 L 211.01 184.471 L 210.893 184.731 L 210.725 184.925 L 210.245 185.081 L 209.875 185.009 L 209.597 184.782 L 209.415 184.413 L 209.35 183.914 L 209.35 183.894 L 209.35 183.894 z M 209.35 183.414 L 209.421 182.967 L 209.597 182.636 L 209.862 182.435 L 210.213 182.364 L 210.556 182.435 L 210.822 182.636 L 210.984 182.967 L 211.042 183.414 L 209.35 183.414 L 209.35 183.414 z M 212.968 185.47 L 213.539 185.47 L 213.539 183.479 L 213.597 182.999 L 213.772 182.656 L 214.058 182.448 L 214.44 182.377 L 214.725 182.422 L 214.939 182.552 L 215.069 182.772 L 215.115 183.071 L 215.692 183.071 L 215.614 182.545 L 215.4 182.169 L 215.043 181.942 L 214.557 181.865 L 214.226 181.916 L 213.941 182.046 L 213.688 182.267 L 213.487 182.565 L 213.487 181.988 L 212.968 181.988 L 212.968 185.47 L 212.968 185.47 z M 219.932 185.47 L 220.529 185.47 L 221.002 184.147 L 222.798 184.147 L 223.272 185.47 L 223.881 185.47 L 222.234 180.963 L 221.573 180.963 L 219.932 185.47 L 219.932 185.47 z M 221.21 183.596 L 221.903 181.612 L 222.597 183.596 L 221.21 183.596 L 221.21 183.596 z M 225.022 183.985 L 226.591 183.985 L 226.591 183.473 L 225.022 183.473 L 225.022 183.985 L 225.022 183.985 z M 227.739 185.47 L 228.336 185.47 L 228.809 184.147 L 230.605 184.147 L 231.079 185.47 L 231.688 185.47 L 230.041 180.963 L 229.38 180.963 L 227.739 185.47 L 227.739 185.47 z M 229.017 183.596 L 229.71 181.612 L 230.404 183.596 L 229.017 183.596 L 229.017 183.596 z M 232.486 185.47 L 233.056 185.47 L 233.056 183.479 L 233.115 182.999 L 233.29 182.656 L 233.575 182.448 L 233.957 182.377 L 234.243 182.422 L 234.457 182.552 L 234.586 182.772 L 234.632 183.071 L 235.209 183.071 L 235.131 182.545 L 234.917 182.169 L 234.561 181.942 L 234.074 181.865 L 233.743 181.916 L 233.458 182.046 L 233.205 182.267 L 233.004 182.565 L 233.004 181.988 L 232.486 181.988 L 232.486 185.47 L 232.486 185.47 z M 235.948 185.47 L 236.473 185.47 L 236.473 183.142 L 236.506 182.792 L 236.603 182.539 L 236.752 182.39 L 236.947 182.331 L 237.102 182.383 L 237.206 182.513 L 237.258 182.733 L 237.277 183.025 L 237.277 185.47 L 237.77 185.47 L 237.77 183.142 L 237.803 182.798 L 237.9 182.545 L 238.055 182.39 L 238.25 182.331 L 238.406 182.383 L 238.509 182.513 L 238.574 183.025 L 238.574 185.47 L 239.099 185.47 L 239.099 183.064 L 239.067 182.565 L 238.963 182.182 L 238.756 181.949 L 238.419 181.865 L 238.023 181.994 L 237.718 182.37 L 237.478 182.001 L 237.076 181.865 L 236.707 181.994 L 236.454 182.357 L 236.454 181.988 L 235.948 181.988 L 235.948 185.47 L 235.948 185.47 z M 243.878 185.47 L 244.481 185.47 L 244.481 183.57 L 245.097 183.57 L 245.551 183.589 L 245.836 183.68 L 245.992 183.894 L 246.057 184.277 L 246.089 184.86 L 246.128 185.243 L 246.206 185.47 L 246.887 185.47 L 246.887 185.347 L 246.738 185.165 L 246.686 184.828 L 246.64 184.102 L 246.53 183.563 L 246.381 183.395 L 246.148 183.272 L 246.407 183.11 L 246.589 182.883 L 246.705 182.597 L 246.744 182.254 L 246.653 181.709 L 246.394 181.3 L 245.966 181.054 L 245.383 180.97 L 243.878 180.97 L 243.878 185.47 L 243.878 185.47 z M 245.214 181.521 L 245.609 181.56 L 245.888 181.683 L 246.063 181.91 L 246.122 182.267 L 246.057 182.643 L 245.882 182.87 L 245.584 182.986 L 245.175 183.019 L 244.481 183.019 L 244.481 181.521 L 245.214 181.521 L 245.214 181.521 z M 248.385 183.894 L 250.667 183.894 L 250.674 183.628 L 250.57 182.883 L 250.285 182.325 L 249.831 181.988 L 249.228 181.865 L 248.638 181.994 L 248.184 182.357 L 247.892 182.947 L 247.788 183.726 L 247.885 184.523 L 248.177 185.107 L 248.625 185.47 L 249.208 185.593 L 249.714 185.509 L 250.129 185.288 L 250.434 184.938 L 250.609 184.471 L 250.045 184.471 L 249.928 184.731 L 249.759 184.925 L 249.28 185.081 L 248.91 185.009 L 248.631 184.782 L 248.45 184.413 L 248.385 183.914 L 248.385 183.894 L 248.385 183.894 z M 248.385 183.414 L 248.456 182.967 L 248.631 182.636 L 248.897 182.435 L 249.247 182.364 L 249.591 182.435 L 249.857 182.636 L 250.019 182.967 L 250.077 183.414 L 248.385 183.414 L 248.385 183.414 z M 253.857 185.016 L 253.857 185.035 L 253.89 185.256 L 253.987 185.411 L 254.396 185.535 L 254.713 185.483 L 254.713 185.042 L 254.577 185.061 L 254.396 184.977 L 254.363 184.718 L 254.363 182.915 L 254.285 182.455 L 254.058 182.13 L 253.663 181.936 L 253.105 181.865 L 252.561 181.942 L 252.158 182.163 L 251.906 182.506 L 251.821 182.96 L 251.821 182.999 L 252.334 182.999 L 252.379 182.727 L 252.522 182.532 L 252.755 182.416 L 253.086 182.37 L 253.403 182.403 L 253.63 182.5 L 253.767 182.669 L 253.812 182.902 L 253.786 183.174 L 253.682 183.311 L 253.423 183.375 L 252.937 183.427 L 252.379 183.544 L 251.983 183.751 L 251.75 184.076 L 251.679 184.555 L 251.743 184.983 L 251.945 185.301 L 252.269 185.502 L 252.716 185.573 L 253.319 185.437 L 253.857 185.016 L 253.857 185.016 z M 253.792 184.251 L 253.715 184.588 L 253.507 184.847 L 253.196 185.016 L 252.813 185.074 L 252.567 185.042 L 252.392 184.938 L 252.282 184.756 L 252.249 184.504 L 252.275 184.277 L 252.379 184.115 L 252.794 183.933 L 253.319 183.855 L 253.792 183.7 L 253.792 184.251 L 253.792 184.251 z M 255.906 185.47 L 256.477 185.47 L 256.477 183.479 L 256.535 182.999 L 256.71 182.656 L 256.996 182.448 L 257.378 182.377 L 257.664 182.422 L 257.878 182.552 L 258.007 182.772 L 258.053 183.071 L 258.63 183.071 L 258.552 182.545 L 258.338 182.169 L 257.981 181.942 L 257.495 181.865 L 257.164 181.916 L 256.879 182.046 L 256.626 182.267 L 256.425 182.565 L 256.425 181.988 L 255.906 181.988 L 255.906 185.47 L 255.906 185.47 z M 263.525 185.47 L 266.417 185.47 L 266.417 184.925 L 264.122 184.925 L 264.122 180.97 L 263.525 180.97 L 263.525 185.47 L 263.525 185.47 z M 267.234 183.732 L 267.338 184.523 L 267.636 185.107 L 268.109 185.47 L 268.745 185.593 L 269.374 185.47 L 269.847 185.113 L 270.145 184.53 L 270.256 183.732 L 270.145 182.941 L 269.847 182.351 L 269.374 181.994 L 268.745 181.865 L 268.109 181.994 L 267.636 182.357 L 267.338 182.941 L 267.234 183.732 L 267.234 183.732 z M 267.818 183.726 L 267.876 183.142 L 268.058 182.72 L 268.349 182.461 L 268.745 182.37 L 269.134 182.461 L 269.426 182.714 L 269.607 183.142 L 269.672 183.726 L 269.607 184.316 L 269.426 184.744 L 269.134 185.003 L 268.745 185.087 L 268.349 185.003 L 268.058 184.744 L 267.876 184.316 L 267.818 183.726 L 267.818 183.726 z M 272.13 185.47 L 272.648 182.513 L 273.167 185.47 L 273.712 185.47 L 274.568 181.988 L 274.017 181.988 L 273.439 184.945 L 272.927 181.988 L 272.363 181.988 L 271.851 184.945 L 271.274 181.988 L 270.729 181.988 L 271.585 185.47 L 272.13 185.47 L 272.13 185.47 z M 275.709 183.894 L 277.991 183.894 L 277.998 183.628 L 277.894 182.883 L 277.609 182.325 L 277.155 181.988 L 276.552 181.865 L 275.962 181.994 L 275.508 182.357 L 275.216 182.947 L 275.112 183.726 L 275.21 184.523 L 275.501 185.107 L 275.949 185.47 L 276.532 185.593 L 277.038 185.509 L 277.453 185.288 L 277.758 184.938 L 277.933 184.471 L 277.369 184.471 L 277.252 184.731 L 277.083 184.925 L 276.604 185.081 L 276.234 185.009 L 275.955 184.782 L 275.774 184.413 L 275.709 183.914 L 275.709 183.894 L 275.709 183.894 z M 275.709 183.414 L 275.78 182.967 L 275.955 182.636 L 276.221 182.435 L 276.571 182.364 L 276.915 182.435 L 277.181 182.636 L 277.343 182.967 L 277.401 183.414 L 275.709 183.414 L 275.709 183.414 z M 279.327 185.47 L 279.898 185.47 L 279.898 183.479 L 279.956 182.999 L 280.131 182.656 L 280.416 182.448 L 280.799 182.377 L 281.084 182.422 L 281.298 182.552 L 281.428 182.772 L 281.473 183.071 L 282.05 183.071 L 281.973 182.545 L 281.759 182.169 L 281.402 181.942 L 280.916 181.865 L 280.585 181.916 L 280.3 182.046 L 280.047 182.267 L 279.846 182.565 L 279.846 181.988 L 279.327 181.988 L 279.327 185.47 L 279.327 185.47 z" stroke="none" fill-rule="evenodd" fill="rgb(0, 0, 0)"/></g><g stroke="rgb(0, 0, 0)" stroke-width="0.13" stroke-linecap="butt" stroke-linejoin="miter" fill="none"><path d="M 127.718 102.807 L 128.187 102.807 L 128.187 101.198 L 129.659 101.198 L 129.659 100.78 L 128.187 100.78 L 128.187 99.7309 L 129.997 99.7309 L 129.997 99.3073 L 127.718 99.3073 L 127.718 102.807 L 127.718 102.807 z M 130.764 102.807 L 133.013 102.807 L 133.013 102.384 L 131.228 102.384 L 131.228 99.3073 L 130.764 99.3073 L 130.764 102.807 L 130.764 102.807 z M 133.618 101.476 L 133.689 102.106 L 133.911 102.555 L 134.284 102.812 L 134.824 102.903 L 135.358 102.812 L 135.731 102.555 L 135.953 102.111 L 136.029 101.476 L 136.029 99.3073 L 135.56 99.3073 L 135.56 101.501 L 135.515 101.93 L 135.378 102.237 L 135.146 102.419 L 134.824 102.479 L 134.491 102.419 L 134.259 102.237 L 134.123 101.935 L 134.082 101.501 L 134.082 99.3073 L 133.618 99.3073 L 133.618 101.476 L 133.618 101.476 z M 137.249 101.652 L 138.47 101.652 L 138.47 101.254 L 137.249 101.254 L 137.249 101.652 L 137.249 101.652 z" stroke="none" fill-rule="evenodd" fill="rgb(0, 0, 0)"/></g><g stroke="rgb(0, 0, 0)" stroke-width="0.13" stroke-linecap="butt" stroke-linejoin="miter" fill="none"><path d="M 127.627 108.854 L 128.096 108.854 L 128.096 107.376 L 128.575 107.376 L 128.928 107.392 L 129.15 107.462 L 129.271 107.629 L 129.321 107.926 L 129.347 108.38 L 129.377 108.678 L 129.437 108.854 L 129.967 108.854 L 129.967 108.758 L 129.851 108.617 L 129.811 108.355 L 129.775 107.79 L 129.69 107.371 L 129.574 107.24 L 129.392 107.144 L 129.594 107.018 L 129.735 106.842 L 129.826 106.62 L 129.856 106.353 L 129.785 105.929 L 129.584 105.611 L 129.251 105.42 L 128.797 105.354 L 127.627 105.354 L 127.627 108.854 L 127.627 108.854 z M 128.666 105.783 L 128.973 105.813 L 129.19 105.909 L 129.326 106.085 L 129.372 106.363 L 129.321 106.655 L 129.185 106.832 L 128.953 106.923 L 128.636 106.948 L 128.096 106.948 L 128.096 105.783 L 128.666 105.783 L 128.666 105.783 z M 130.764 108.854 L 133.013 108.854 L 133.013 108.43 L 131.228 108.43 L 131.228 105.354 L 130.764 105.354 L 130.764 108.854 L 130.764 108.854 z M 133.618 107.523 L 133.689 108.153 L 133.911 108.602 L 134.284 108.859 L 134.824 108.95 L 135.358 108.859 L 135.731 108.602 L 135.953 108.158 L 136.029 107.523 L 136.029 105.354 L 135.56 105.354 L 135.56 107.548 L 135.515 107.977 L 135.378 108.284 L 135.146 108.466 L 134.824 108.526 L 134.491 108.466 L 134.259 108.284 L 134.123 107.982 L 134.082 107.548 L 134.082 105.354 L 133.618 105.354 L 133.618 107.523 L 133.618 107.523 z" stroke="none" fill-rule="evenodd" fill="rgb(0, 0, 0)"/></g><g stroke="rgb(0, 0, 0)" stroke-width="0.13" stroke-linecap="butt" stroke-linejoin="miter" fill="none"><path d="M 200.938 92.2262 L 201.407 92.2262 L 201.407 90.6174 L 202.879 90.6174 L 202.879 90.1988 L 201.407 90.1988 L 201.407 89.1498 L 203.217 89.1498 L 203.217 88.7262 L 200.938 88.7262 L 200.938 92.2262 L 200.938 92.2262 z M 203.984 92.2262 L 206.233 92.2262 L 206.233 91.8026 L 204.448 91.8026 L 204.448 88.7262 L 203.984 88.7262 L 203.984 92.2262 L 203.984 92.2262 z M 206.838 90.8948 L 206.909 91.5252 L 207.131 91.974 L 207.504 92.2312 L 208.044 92.322 L 208.578 92.2312 L 208.951 91.974 L 209.173 91.5302 L 209.249 90.8948 L 209.249 88.7262 L 208.78 88.7262 L 208.78 90.92 L 208.734 91.3487 L 208.598 91.6563 L 208.366 91.8379 L 208.044 91.8984 L 207.711 91.8379 L 207.479 91.6563 L 207.343 91.3537 L 207.302 90.92 L 207.302 88.7262 L 206.838 88.7262 L 206.838 90.8948 L 206.838 90.8948 z M 210.469 91.0713 L 211.69 91.0713 L 211.69 90.6729 L 210.469 90.6729 L 210.469 91.0713 L 210.469 91.0713 z" stroke="none" fill-rule="evenodd" fill="rgb(0, 0, 0)"/></g><g stroke="rgb(0, 0, 0)" stroke-width="0.13" stroke-linecap="butt" stroke-linejoin="miter" fill="none"><path d="M 200.847 98.273 L 201.316 98.273 L 201.316 96.7954 L 201.795 96.7954 L 202.148 96.8105 L 202.37 96.8811 L 202.491 97.0475 L 202.541 97.3451 L 202.567 97.799 L 202.597 98.0965 L 202.657 98.273 L 203.187 98.273 L 203.187 98.1772 L 203.071 98.036 L 203.031 97.7737 L 202.995 97.2089 L 202.91 96.7903 L 202.794 96.6592 L 202.612 96.5634 L 202.814 96.4373 L 202.955 96.2608 L 203.046 96.0389 L 203.076 95.7716 L 203.005 95.348 L 202.804 95.0302 L 202.471 94.8386 L 202.017 94.773 L 200.847 94.773 L 200.847 98.273 L 200.847 98.273 z M 201.886 95.2017 L 202.193 95.232 L 202.41 95.3278 L 202.546 95.5043 L 202.592 95.7817 L 202.541 96.0742 L 202.405 96.2507 L 202.173 96.3415 L 201.856 96.3667 L 201.316 96.3667 L 201.316 95.2017 L 201.886 95.2017 L 201.886 95.2017 z M 203.984 98.273 L 206.233 98.273 L 206.233 97.8494 L 204.448 97.8494 L 204.448 94.773 L 203.984 94.773 L 203.984 98.273 L 203.984 98.273 z M 208.039 94.773 L 206.874 94.773 L 206.874 98.273 L 208.039 98.273 L 208.588 98.1621 L 208.997 97.8242 L 209.249 97.2745 L 209.34 96.523 L 209.259 95.7565 L 209.158 95.4539 L 209.017 95.2118 L 208.608 94.884 L 208.341 94.8033 L 208.039 94.773 L 208.039 94.773 z M 208.003 95.1916 L 208.387 95.2673 L 208.649 95.4993 L 208.805 95.9128 L 208.856 96.523 L 208.8 97.1131 L 208.644 97.5266 L 208.376 97.7737 L 208.003 97.8544 L 207.343 97.8544 L 207.343 95.1916 L 208.003 95.1916 L 208.003 95.1916 z" stroke="none" fill-rule="evenodd" fill="rgb(0, 0, 0)"/></g></svg>