<?xml version="1.0" encoding="UTF-8" standalone="no"?>
<svg
   xmlns:dsy="http://www.3ds.com/print"
   xmlns:dc="http://purl.org/dc/elements/1.1/"
   xmlns:cc="http://creativecommons.org/ns#"
   xmlns:rdf="http://www.w3.org/1999/02/22-rdf-syntax-ns#"
   xmlns:svg="http://www.w3.org/2000/svg"
   xmlns="http://www.w3.org/2000/svg"
   xmlns:sodipodi="http://sodipodi.sourceforge.net/DTD/sodipodi-0.dtd"
   xmlns:inkscape="http://www.inkscape.org/namespaces/inkscape"
   dsy:text-version="18000"
   width="297"
   height="210"
   viewBox="0 0 297 210"
   version="1.1"
   id="svg52"
   sodipodi:docname="RL.svg"
   inkscape:version="0.92.4 (5da689c313, 2019-01-14)">
  <metadata
     id="metadata58">
    <rdf:RDF>
      <cc:Work
         rdf:about="">
        <dc:format>image/svg+xml</dc:format>
        <dc:type
           rdf:resource="http://purl.org/dc/dcmitype/StillImage" />
      </cc:Work>
    </rdf:RDF>
  </metadata>
  <defs
     id="defs56" />
  <sodipodi:namedview
     pagecolor="#ffffff"
     bordercolor="#666666"
     borderopacity="1"
     objecttolerance="10"
     gridtolerance="10"
     guidetolerance="10"
     inkscape:pageopacity="0"
     inkscape:pageshadow="2"
     inkscape:window-width="1920"
     inkscape:window-height="1017"
     id="namedview54"
     showgrid="false"
     inkscape:zoom="12.714453"
     inkscape:cx="11.394308"
     inkscape:cy="186.71105"
     inkscape:window-x="1912"
     inkscape:window-y="-8"
     inkscape:window-maximized="1"
     inkscape:current-layer="svg52" />
  <g
     stroke="rgb(0, 0, 0)"
     stroke-width="0.35"
     stroke-linecap="butt"
     stroke-linejoin="miter"
     fill="none"
     id="g26">
    <path
       d="M 7.61801 32.6451 L 35.4219 23.0778"
       id="path2"
       style="stroke:#ff0000;stroke-opacity:1;stroke-width:0.18897638;stroke-miterlimit:4;stroke-dasharray:none" />
    <path
       d="M 7.61801 32.6451 A 7 7 0 0 0 10.2606 46.2547"
       id="path4"
       style="stroke:#ff0000;stroke-opacity:1;stroke-width:0.18897638;stroke-miterlimit:4;stroke-dasharray:none" />
    <path
       d="M 10.2606 46.2547 L 36.254 44.8977"
       id="path6"
       style="stroke:#ff0000;stroke-opacity:1;stroke-width:0.18897638;stroke-miterlimit:4;stroke-dasharray:none" />
    <path
       d="M 31.2488 32.9184 A 15.1598 15.0039 -267.174 0 0 36.254 44.8977"
       id="path8"
       style="stroke:#ff0000;stroke-opacity:1;stroke-width:0.18897638;stroke-miterlimit:4;stroke-dasharray:none" />
    <path
       d="M 35.4213 23.0772 A 15.2501 15.2501 0 0 0 31.2495 32.9184"
       id="path10"
       style="stroke:#ff0000;stroke-opacity:1;stroke-width:0.18897638;stroke-miterlimit:4;stroke-dasharray:none" />
    <circle
       cx="9.89565"
       cy="39.2642"
       r="3.2"
       id="circle12"
       style="stroke:#ff0000;stroke-opacity:1;stroke-width:0.18897638;stroke-miterlimit:4;stroke-dasharray:none" />
    <path
       d="M 7.67782 13.7956 A 7 7 0 0 0 12.1941 26.9032"
       id="path14"
       style="stroke:#ff0000;stroke-opacity:1;stroke-width:0.18897638;stroke-miterlimit:4;stroke-dasharray:none" />
    <circle
       cx="10.857"
       cy="20.032"
       r="3.2"
       id="circle16"
       style="stroke:#ff0000;stroke-opacity:1;stroke-width:0.18897638;stroke-miterlimit:4;stroke-dasharray:none" />
    <path
       d="M 32.3686 14.6047 A 15.1626 15.0087 -301.867 0 0 41.9838 21.1064"
       id="path18"
       style="stroke:#ff0000;stroke-opacity:1;stroke-width:0.18897638;stroke-miterlimit:4;stroke-dasharray:none" />
    <path
       d="M 30.8673 1.97412 A 15.1598 15.0039 -302.824 0 0 32.3688 14.605"
       id="path20"
       style="stroke:#ff0000;stroke-opacity:1;stroke-width:0.18897638;stroke-miterlimit:4;stroke-dasharray:none" />
    <path
       d="M 12.1941 26.9032 L 41.9838 21.1064"
       id="path22"
       style="stroke:#ff0000;stroke-opacity:1;stroke-width:0.18897638;stroke-miterlimit:4;stroke-dasharray:none" />
    <path
       d="M 7.67782 13.7956 L 30.8673 1.97412"
       id="path24"
       style="stroke:#ff0000;stroke-opacity:1;stroke-width:0.18897638;stroke-miterlimit:4;stroke-dasharray:none" />
  </g>
  <g
     stroke="rgb(0, 0, 0)"
     stroke-width="0.13"
     stroke-linecap="butt"
     stroke-linejoin="miter"
     fill="none"
     id="g30">
    <path
       d="M 15.8742 34.6307 L 16.1393 34.6307 L 16.3497 34.0428 L 17.148 34.0428 L 17.3584 34.6307 L 17.6292 34.6307 L 16.8973 32.6278 L 16.6033 32.6278 L 15.8742 34.6307 L 15.8742 34.6307 z M 16.4419 33.7979 L 16.7503 32.916 L 17.0586 33.7979 L 16.4419 33.7979 L 16.4419 33.7979 z M 17.6091 34.6307 L 17.8742 34.6307 L 18.0846 34.0428 L 18.8828 34.0428 L 19.0932 34.6307 L 19.3641 34.6307 L 18.6321 32.6278 L 18.3382 32.6278 L 17.6091 34.6307 L 17.6091 34.6307 z M 18.1768 33.7979 L 18.4852 32.916 L 18.7935 33.7979 L 18.1768 33.7979 L 18.1768 33.7979 z M 19.7186 34.6307 L 19.9722 34.6307 L 19.9722 33.746 L 19.9981 33.5327 L 20.0759 33.38 L 20.2027 33.2878 L 20.3728 33.2561 L 20.4996 33.2763 L 20.5947 33.3339 L 20.6523 33.4319 L 20.6725 33.5644 L 20.929 33.5644 L 20.8944 33.331 L 20.7993 33.1639 L 20.6408 33.063 L 20.4246 33.0284 L 20.2777 33.0515 L 20.1509 33.1091 L 20.0385 33.2071 L 19.9491 33.3397 L 19.9491 33.0832 L 19.7186 33.0832 L 19.7186 34.6307 L 19.7186 34.6307 z M 21.2575 34.6307 L 21.4909 34.6307 L 21.4909 33.5961 L 21.5053 33.4405 L 21.5486 33.3281 L 21.6148 33.2618 L 21.7013 33.2359 L 21.7705 33.259 L 21.8166 33.3166 L 21.8396 33.4146 L 21.8483 33.5443 L 21.8483 34.6307 L 22.0673 34.6307 L 22.0673 33.5961 L 22.0817 33.4434 L 22.1249 33.331 L 22.1941 33.2618 L 22.2805 33.2359 L 22.3497 33.259 L 22.3958 33.3166 L 22.4246 33.5443 L 22.4246 34.6307 L 22.6581 34.6307 L 22.6581 33.5616 L 22.6437 33.3397 L 22.5975 33.1696 L 22.5053 33.0659 L 22.3555 33.0284 L 22.1797 33.0861 L 22.0442 33.2532 L 21.9376 33.0889 L 21.7589 33.0284 L 21.5947 33.0861 L 21.4823 33.2474 L 21.4823 33.0832 L 21.2575 33.0832 L 21.2575 34.6307 L 21.2575 34.6307 z M 24.8339 34.6307 L 25.1019 34.6307 L 25.1019 33.7114 L 25.9434 33.7114 L 25.9434 33.4722 L 25.1019 33.4722 L 25.1019 32.8728 L 26.1365 32.8728 L 26.1365 32.6307 L 24.8339 32.6307 L 24.8339 34.6307 L 24.8339 34.6307 z M 26.4707 33.8699 L 26.5111 34.2301 L 26.6379 34.4866 L 26.8512 34.6336 L 27.1595 34.6855 L 27.465 34.6336 L 27.6782 34.4866 L 27.805 34.233 L 27.8483 33.8699 L 27.8483 32.6307 L 27.5803 32.6307 L 27.5803 33.8843 L 27.5543 34.1293 L 27.4765 34.3051 L 27.3439 34.4088 L 27.1595 34.4434 L 26.9693 34.4088 L 26.8367 34.3051 L 26.7589 34.1322 L 26.7359 33.8843 L 26.7359 32.6307 L 26.4707 32.6307 L 26.4707 33.8699 L 26.4707 33.8699 z M 28.5457 33.9708 L 29.2431 33.9708 L 29.2431 33.7431 L 28.5457 33.7431 L 28.5457 33.9708 L 28.5457 33.9708 z"
       stroke="none"
       fill-rule="evenodd"
       fill="rgb(0, 0, 0)"
       id="path28" />
  </g>
  <g
     stroke="rgb(0, 0, 0)"
     stroke-width="0.13"
     stroke-linecap="butt"
     stroke-linejoin="miter"
     fill="none"
     id="g34">
    <path
       d="M 16.1076 38.0861 L 16.3756 38.0861 L 16.3756 37.2417 L 16.6494 37.2417 L 16.8511 37.2503 L 16.9779 37.2907 L 17.0471 37.3858 L 17.0759 37.5558 L 17.0903 37.8152 L 17.1076 37.9852 L 17.1422 38.0861 L 17.4448 38.0861 L 17.4448 38.0313 L 17.3785 37.9506 L 17.3555 37.8008 L 17.3353 37.478 L 17.2863 37.2388 L 17.22 37.1639 L 17.1163 37.1091 L 17.2316 37.0371 L 17.3122 36.9362 L 17.3641 36.8094 L 17.3814 36.6567 L 17.3411 36.4146 L 17.2258 36.233 L 17.0356 36.1235 L 16.7762 36.0861 L 16.1076 36.0861 L 16.1076 38.0861 L 16.1076 38.0861 z M 16.7013 36.331 L 16.8771 36.3483 L 17.001 36.4031 L 17.0788 36.5039 L 17.1048 36.6624 L 17.0759 36.8296 L 16.9981 36.9304 L 16.8656 36.9823 L 16.684 36.9967 L 16.3756 36.9967 L 16.3756 36.331 L 16.7013 36.331 L 16.7013 36.331 z M 17.7964 37.3253 L 17.8367 37.6855 L 17.9635 37.942 L 18.1768 38.0889 L 18.4852 38.1408 L 18.7906 38.0889 L 19.0039 37.942 L 19.1307 37.6884 L 19.1739 37.3253 L 19.1739 36.0861 L 18.9059 36.0861 L 18.9059 37.3397 L 18.88 37.5846 L 18.8022 37.7604 L 18.6696 37.8642 L 18.4852 37.8987 L 18.295 37.8642 L 18.1624 37.7604 L 18.0846 37.5875 L 18.0615 37.3397 L 18.0615 36.0861 L 17.7964 36.0861 L 17.7964 37.3253 L 17.7964 37.3253 z M 19.8713 37.4261 L 20.5687 37.4261 L 20.5687 37.1985 L 19.8713 37.1985 L 19.8713 37.4261 L 19.8713 37.4261 z M 21.952 36.0861 L 21.2863 36.0861 L 21.2863 38.0861 L 21.952 38.0861 L 22.2661 38.0227 L 22.4996 37.8296 L 22.6437 37.5155 L 22.6955 37.0861 L 22.6494 36.648 L 22.5918 36.4751 L 22.5111 36.3368 L 22.2777 36.1495 L 22.1249 36.1033 L 21.952 36.0861 L 21.952 36.0861 z M 21.9318 36.3253 L 22.1509 36.3685 L 22.3007 36.501 L 22.3901 36.7374 L 22.4189 37.0861 L 22.3872 37.4232 L 22.2978 37.6595 L 22.1451 37.8008 L 21.9318 37.8469 L 21.5543 37.8469 L 21.5543 36.3253 L 21.9318 36.3253 L 21.9318 36.3253 z M 23.0183 37.3137 L 23.0644 37.6653 L 23.197 37.9247 L 23.4073 38.0861 L 23.6898 38.1408 L 23.9693 38.0861 L 24.1797 37.9276 L 24.3122 37.6682 L 24.3612 37.3137 L 24.3122 36.9621 L 24.1797 36.6999 L 23.9693 36.5414 L 23.6898 36.4837 L 23.4073 36.5414 L 23.197 36.7028 L 23.0644 36.9621 L 23.0183 37.3137 L 23.0183 37.3137 z M 23.2777 37.3108 L 23.3036 37.0515 L 23.3843 36.8642 L 23.514 36.7489 L 23.6898 36.7085 L 23.8627 36.7489 L 23.9924 36.8613 L 24.0731 37.0515 L 24.1019 37.3108 L 24.0731 37.5731 L 23.9924 37.7633 L 23.8627 37.8786 L 23.6898 37.916 L 23.514 37.8786 L 23.3843 37.7633 L 23.3036 37.5731 L 23.2777 37.3108 L 23.2777 37.3108 z M 25.1941 38.0861 L 25.4246 36.7719 L 25.6552 38.0861 L 25.8973 38.0861 L 26.2777 36.5385 L 26.0327 36.5385 L 25.7762 37.8526 L 25.5486 36.5385 L 25.2978 36.5385 L 25.0702 37.8526 L 24.8137 36.5385 L 24.5716 36.5385 L 24.952 38.0861 L 25.1941 38.0861 L 25.1941 38.0861 z M 26.563 38.0861 L 26.8166 38.0861 L 26.8166 37.1927 L 26.8425 36.9881 L 26.9261 36.8382 L 27.0558 36.746 L 27.2287 36.7114 L 27.367 36.7402 L 27.4535 36.8181 L 27.4967 36.9477 L 27.5111 37.1206 L 27.5111 38.0861 L 27.7647 38.0861 L 27.7647 37.0688 L 27.7532 36.8642 L 27.7013 36.6941 L 27.5313 36.5385 L 27.2661 36.4837 L 27.1192 36.5039 L 26.9952 36.5587 L 26.8886 36.6509 L 26.805 36.7748 L 26.805 36.5385 L 26.563 36.5385 L 26.563 38.0861 L 26.563 38.0861 z M 28.5457 37.4261 L 29.2431 37.4261 L 29.2431 37.1985 L 28.5457 37.1985 L 28.5457 37.4261 L 28.5457 37.4261 z"
       stroke="none"
       fill-rule="evenodd"
       fill="rgb(0, 0, 0)"
       id="path32" />
  </g>
  <g
     stroke="rgb(0, 0, 0)"
     stroke-width="0.13"
     stroke-linecap="butt"
     stroke-linejoin="miter"
     fill="none"
     id="g38">
    <path
       d="M 16.1653 41.5414 L 17.4506 41.5414 L 17.4506 41.2993 L 16.4304 41.2993 L 16.4304 39.5414 L 16.1653 39.5414 L 16.1653 41.5414 L 16.1653 41.5414 z M 18.1105 40.8411 L 19.1249 40.8411 L 19.1278 40.7229 L 19.0817 40.3915 L 18.9549 40.1437 L 18.7532 39.9938 L 18.4852 39.9391 L 18.2229 39.9967 L 18.0212 40.1581 L 17.8915 40.4203 L 17.8454 40.7662 L 17.8886 41.1206 L 18.0183 41.38 L 18.2171 41.5414 L 18.4765 41.5961 L 18.7013 41.5587 L 18.8857 41.4607 L 19.0212 41.3051 L 19.099 41.0976 L 18.8483 41.0976 L 18.7964 41.2128 L 18.7215 41.2993 L 18.5082 41.3685 L 18.3439 41.3368 L 18.22 41.2359 L 18.1393 41.0716 L 18.1105 40.8497 L 18.1105 40.8411 L 18.1105 40.8411 z M 18.1105 40.6278 L 18.1422 40.429 L 18.22 40.282 L 18.3382 40.1927 L 18.4938 40.161 L 18.6465 40.1927 L 18.7647 40.282 L 18.8367 40.429 L 18.8627 40.6278 L 18.1105 40.6278 L 18.1105 40.6278 z M 19.9751 40.2618 L 19.9751 41.5414 L 20.2287 41.5414 L 20.2287 40.2618 L 20.805 40.2618 L 20.805 40.0457 L 20.2287 40.0457 L 20.2287 39.9506 L 20.2488 39.8353 L 20.3151 39.7575 L 20.4275 39.7114 L 20.5889 39.6941 L 20.805 39.7056 L 20.805 39.4866 L 20.5313 39.4722 L 20.2834 39.4982 L 20.1105 39.576 L 20.0068 39.7114 L 19.9751 39.9045 L 19.9751 40.0457 L 19.5111 40.0457 L 19.5111 40.2618 L 19.9751 40.2618 L 19.9751 40.2618 z M 21.6984 40.2618 L 21.6984 41.0371 L 21.7157 41.2878 L 21.7964 41.4607 L 21.9578 41.5616 L 22.2316 41.5961 L 22.5313 41.5817 L 22.5313 41.3627 L 22.3122 41.38 L 22.1134 41.3569 L 22.0068 41.2849 L 21.9607 41.1639 L 21.952 40.9938 L 21.952 40.2618 L 22.5313 40.2618 L 22.5313 40.0457 L 21.952 40.0457 L 21.952 39.5933 L 21.6984 39.5933 L 21.6984 40.0457 L 21.2604 40.0457 L 21.2604 40.2618 L 21.6984 40.2618 L 21.6984 40.2618 z M 23.3411 40.8814 L 24.0385 40.8814 L 24.0385 40.6538 L 23.3411 40.6538 L 23.3411 40.8814 L 23.3411 40.8814 z M 24.7359 40.7806 L 24.7762 41.1408 L 24.903 41.3973 L 25.1163 41.5443 L 25.4246 41.5961 L 25.7301 41.5443 L 25.9434 41.3973 L 26.0702 41.1437 L 26.1134 40.7806 L 26.1134 39.5414 L 25.8454 39.5414 L 25.8454 40.795 L 25.8195 41.0399 L 25.7416 41.2157 L 25.6091 41.3195 L 25.4246 41.3541 L 25.2344 41.3195 L 25.1019 41.2157 L 25.0241 41.0428 L 25.001 40.795 L 25.001 39.5414 L 24.7359 39.5414 L 24.7359 40.7806 L 24.7359 40.7806 z M 26.8022 40.233 L 26.8022 39.9938 L 26.5486 39.9938 L 26.5486 42.1408 L 26.8022 42.1408 L 26.8022 41.3051 L 26.8915 41.4405 L 26.9924 41.5299 L 27.246 41.5961 L 27.488 41.5414 L 27.6782 41.3771 L 27.8022 41.1178 L 27.8483 40.7662 L 27.8022 40.4175 L 27.6782 40.1581 L 27.488 39.9967 L 27.246 39.9391 L 27.1076 39.9564 L 26.9895 40.0111 L 26.8886 40.1033 L 26.8022 40.233 L 26.8022 40.233 z M 27.2027 41.3685 L 27.0327 41.331 L 26.9088 41.2157 L 26.831 41.0284 L 26.805 40.7662 L 26.831 40.5068 L 26.9088 40.3195 L 27.0327 40.2071 L 27.2027 40.1667 L 27.3584 40.2071 L 27.4823 40.3224 L 27.5601 40.5097 L 27.5889 40.7662 L 27.5601 41.0255 L 27.4823 41.2157 L 27.3584 41.331 L 27.2027 41.3685 L 27.2027 41.3685 z"
       stroke="none"
       fill-rule="evenodd"
       fill="rgb(0, 0, 0)"
       id="path36" />
  </g>
  <g
     stroke="rgb(0, 0, 0)"
     stroke-width="0.13"
     stroke-linecap="butt"
     stroke-linejoin="miter"
     fill="none"
     id="g42">
    <path
       d="M 14.2575 14.8918 L 14.5226 14.8918 L 14.733 14.3039 L 15.5312 14.3039 L 15.7416 14.8918 L 16.0125 14.8918 L 15.2805 12.8889 L 14.9866 12.8889 L 14.2575 14.8918 L 14.2575 14.8918 z M 14.8252 14.0589 L 15.1336 13.1771 L 15.4419 14.0589 L 14.8252 14.0589 L 14.8252 14.0589 z M 15.9923 14.8918 L 16.2575 14.8918 L 16.4678 14.3039 L 17.2661 14.3039 L 17.4765 14.8918 L 17.7474 14.8918 L 17.0154 12.8889 L 16.7214 12.8889 L 15.9923 14.8918 L 15.9923 14.8918 z M 16.5601 14.0589 L 16.8684 13.1771 L 17.1768 14.0589 L 16.5601 14.0589 L 16.5601 14.0589 z M 18.1019 14.8918 L 18.3555 14.8918 L 18.3555 14.0071 L 18.3814 13.7938 L 18.4592 13.6411 L 18.586 13.5489 L 18.756 13.5172 L 18.8828 13.5373 L 18.9779 13.595 L 19.0356 13.6929 L 19.0557 13.8255 L 19.3122 13.8255 L 19.2776 13.5921 L 19.1825 13.4249 L 19.024 13.3241 L 18.8079 13.2895 L 18.6609 13.3125 L 18.5341 13.3702 L 18.4217 13.4682 L 18.3324 13.6007 L 18.3324 13.3443 L 18.1019 13.3443 L 18.1019 14.8918 L 18.1019 14.8918 z M 19.6408 14.8918 L 19.8742 14.8918 L 19.8742 13.8572 L 19.8886 13.7016 L 19.9318 13.5892 L 19.9981 13.5229 L 20.0846 13.497 L 20.1537 13.52 L 20.1998 13.5777 L 20.2229 13.6757 L 20.2315 13.8053 L 20.2315 14.8918 L 20.4506 14.8918 L 20.4506 13.8572 L 20.465 13.7045 L 20.5082 13.5921 L 20.5774 13.5229 L 20.6638 13.497 L 20.733 13.52 L 20.7791 13.5777 L 20.8079 13.8053 L 20.8079 14.8918 L 21.0413 14.8918 L 21.0413 13.8226 L 21.0269 13.6007 L 20.9808 13.4307 L 20.8886 13.327 L 20.7387 13.2895 L 20.563 13.3471 L 20.4275 13.5143 L 20.3209 13.35 L 20.1422 13.2895 L 19.9779 13.3471 L 19.8655 13.5085 L 19.8655 13.3443 L 19.6408 13.3443 L 19.6408 14.8918 L 19.6408 14.8918 z M 23.2171 14.8918 L 23.4851 14.8918 L 23.4851 13.9725 L 24.3266 13.9725 L 24.3266 13.7333 L 23.4851 13.7333 L 23.4851 13.1339 L 24.5197 13.1339 L 24.5197 12.8918 L 23.2171 12.8918 L 23.2171 14.8918 L 23.2171 14.8918 z M 24.854 14.131 L 24.8944 14.4912 L 25.0212 14.7477 L 25.2344 14.8947 L 25.5428 14.9465 L 25.8483 14.8947 L 26.0615 14.7477 L 26.1883 14.4941 L 26.2315 14.131 L 26.2315 12.8918 L 25.9635 12.8918 L 25.9635 14.1454 L 25.9376 14.3904 L 25.8598 14.5661 L 25.7272 14.6699 L 25.5428 14.7045 L 25.3526 14.6699 L 25.22 14.5661 L 25.1422 14.3932 L 25.1191 14.1454 L 25.1191 12.8918 L 24.854 12.8918 L 24.854 14.131 L 24.854 14.131 z M 26.9289 14.2319 L 27.6264 14.2319 L 27.6264 14.0042 L 26.9289 14.0042 L 26.9289 14.2319 L 26.9289 14.2319 z"
       stroke="none"
       fill-rule="evenodd"
       fill="rgb(0, 0, 0)"
       id="path40" />
  </g>
  <g
     stroke="rgb(0, 0, 0)"
     stroke-width="0.13"
     stroke-linecap="butt"
     stroke-linejoin="miter"
     fill="none"
     id="g46">
    <path
       d="M 14.4909 18.3471 L 14.7589 18.3471 L 14.7589 17.5028 L 15.0327 17.5028 L 15.2344 17.5114 L 15.3612 17.5517 L 15.4304 17.6469 L 15.4592 17.8169 L 15.4736 18.0762 L 15.4909 18.2463 L 15.5255 18.3471 L 15.8281 18.3471 L 15.8281 18.2924 L 15.7618 18.2117 L 15.7387 18.0618 L 15.7186 17.7391 L 15.6696 17.4999 L 15.6033 17.4249 L 15.4995 17.3702 L 15.6148 17.2981 L 15.6955 17.1973 L 15.7474 17.0705 L 15.7647 16.9177 L 15.7243 16.6757 L 15.6091 16.4941 L 15.4189 16.3846 L 15.1595 16.3471 L 14.4909 16.3471 L 14.4909 18.3471 L 14.4909 18.3471 z M 15.0846 16.5921 L 15.2604 16.6094 L 15.3843 16.6641 L 15.4621 16.765 L 15.488 16.9235 L 15.4592 17.0907 L 15.3814 17.1915 L 15.2488 17.2434 L 15.0673 17.2578 L 14.7589 17.2578 L 14.7589 16.5921 L 15.0846 16.5921 L 15.0846 16.5921 z M 16.1797 17.5863 L 16.22 17.9466 L 16.3468 18.203 L 16.5601 18.35 L 16.8684 18.4019 L 17.1739 18.35 L 17.3872 18.203 L 17.514 17.9494 L 17.5572 17.5863 L 17.5572 16.3471 L 17.2892 16.3471 L 17.2892 17.6007 L 17.2632 17.8457 L 17.1854 18.0215 L 17.0529 18.1252 L 16.8684 18.1598 L 16.6782 18.1252 L 16.5457 18.0215 L 16.4678 17.8486 L 16.4448 17.6007 L 16.4448 16.3471 L 16.1797 16.3471 L 16.1797 17.5863 L 16.1797 17.5863 z M 18.2546 17.6872 L 18.952 17.6872 L 18.952 17.4595 L 18.2546 17.4595 L 18.2546 17.6872 L 18.2546 17.6872 z M 20.3353 16.3471 L 19.6696 16.3471 L 19.6696 18.3471 L 20.3353 18.3471 L 20.6494 18.2837 L 20.8828 18.0907 L 21.0269 17.7765 L 21.0788 17.3471 L 21.0327 16.9091 L 20.9751 16.7362 L 20.8944 16.5979 L 20.6609 16.4105 L 20.5082 16.3644 L 20.3353 16.3471 L 20.3353 16.3471 z M 20.3151 16.5863 L 20.5341 16.6296 L 20.684 16.7621 L 20.7733 16.9984 L 20.8021 17.3471 L 20.7704 17.6843 L 20.6811 17.9206 L 20.5284 18.0618 L 20.3151 18.1079 L 19.9376 18.1079 L 19.9376 16.5863 L 20.3151 16.5863 L 20.3151 16.5863 z M 21.4016 17.5748 L 21.4477 17.9264 L 21.5802 18.1858 L 21.7906 18.3471 L 22.073 18.4019 L 22.3526 18.3471 L 22.563 18.1886 L 22.6955 17.9293 L 22.7445 17.5748 L 22.6955 17.2232 L 22.563 16.961 L 22.3526 16.8025 L 22.073 16.7448 L 21.7906 16.8025 L 21.5802 16.9639 L 21.4477 17.2232 L 21.4016 17.5748 L 21.4016 17.5748 z M 21.6609 17.5719 L 21.6869 17.3126 L 21.7676 17.1252 L 21.8972 17.01 L 22.073 16.9696 L 22.2459 17.01 L 22.3756 17.1224 L 22.4563 17.3126 L 22.4851 17.5719 L 22.4563 17.8342 L 22.3756 18.0244 L 22.2459 18.1396 L 22.073 18.1771 L 21.8972 18.1396 L 21.7676 18.0244 L 21.6869 17.8342 L 21.6609 17.5719 L 21.6609 17.5719 z M 23.5774 18.3471 L 23.8079 17.033 L 24.0385 18.3471 L 24.2805 18.3471 L 24.6609 16.7996 L 24.416 16.7996 L 24.1595 18.1137 L 23.9318 16.7996 L 23.6811 16.7996 L 23.4534 18.1137 L 23.197 16.7996 L 22.9549 16.7996 L 23.3353 18.3471 L 23.5774 18.3471 L 23.5774 18.3471 z M 24.9462 18.3471 L 25.1998 18.3471 L 25.1998 17.4538 L 25.2258 17.2492 L 25.3093 17.0993 L 25.439 17.0071 L 25.6119 16.9725 L 25.7503 17.0013 L 25.8367 17.0791 L 25.88 17.2088 L 25.8944 17.3817 L 25.8944 18.3471 L 26.148 18.3471 L 26.148 17.3298 L 26.1364 17.1252 L 26.0846 16.9552 L 25.9145 16.7996 L 25.6494 16.7448 L 25.5024 16.765 L 25.3785 16.8198 L 25.2719 16.912 L 25.1883 17.0359 L 25.1883 16.7996 L 24.9462 16.7996 L 24.9462 18.3471 L 24.9462 18.3471 z M 26.9289 17.6872 L 27.6264 17.6872 L 27.6264 17.4595 L 26.9289 17.4595 L 26.9289 17.6872 L 26.9289 17.6872 z"
       stroke="none"
       fill-rule="evenodd"
       fill="rgb(0, 0, 0)"
       id="path44" />
  </g>
  <g
     stroke="rgb(0, 0, 0)"
     stroke-width="0.13"
     stroke-linecap="butt"
     stroke-linejoin="miter"
     fill="none"
     id="g50">
    <path
       d="M 14.5485 21.8025 L 15.8338 21.8025 L 15.8338 21.5604 L 14.8137 21.5604 L 14.8137 19.8025 L 14.5485 19.8025 L 14.5485 21.8025 L 14.5485 21.8025 z M 16.4938 21.1022 L 17.5082 21.1022 L 17.5111 20.984 L 17.465 20.6526 L 17.3382 20.4048 L 17.1364 20.2549 L 16.8684 20.2001 L 16.6062 20.2578 L 16.4044 20.4192 L 16.2748 20.6814 L 16.2287 21.0272 L 16.2719 21.3817 L 16.4016 21.6411 L 16.6004 21.8025 L 16.8598 21.8572 L 17.0846 21.8197 L 17.269 21.7218 L 17.4044 21.5661 L 17.4823 21.3587 L 17.2315 21.3587 L 17.1797 21.4739 L 17.1047 21.5604 L 16.8915 21.6295 L 16.7272 21.5979 L 16.6033 21.497 L 16.5226 21.3327 L 16.4938 21.1108 L 16.4938 21.1022 L 16.4938 21.1022 z M 16.4938 20.8889 L 16.5255 20.6901 L 16.6033 20.5431 L 16.7214 20.4538 L 16.8771 20.4221 L 17.0298 20.4538 L 17.148 20.5431 L 17.22 20.6901 L 17.2459 20.8889 L 16.4938 20.8889 L 16.4938 20.8889 z M 18.3583 20.5229 L 18.3583 21.8025 L 18.6119 21.8025 L 18.6119 20.5229 L 19.1883 20.5229 L 19.1883 20.3068 L 18.6119 20.3068 L 18.6119 20.2117 L 18.6321 20.0964 L 18.6984 20.0186 L 18.8108 19.9725 L 18.9722 19.9552 L 19.1883 19.9667 L 19.1883 19.7477 L 18.9145 19.7333 L 18.6667 19.7592 L 18.4938 19.837 L 18.39 19.9725 L 18.3583 20.1656 L 18.3583 20.3068 L 17.8944 20.3068 L 17.8944 20.5229 L 18.3583 20.5229 L 18.3583 20.5229 z M 20.0817 20.5229 L 20.0817 21.2981 L 20.099 21.5489 L 20.1797 21.7218 L 20.341 21.8226 L 20.6148 21.8572 L 20.9145 21.8428 L 20.9145 21.6238 L 20.6955 21.6411 L 20.4967 21.618 L 20.39 21.546 L 20.3439 21.4249 L 20.3353 21.2549 L 20.3353 20.5229 L 20.9145 20.5229 L 20.9145 20.3068 L 20.3353 20.3068 L 20.3353 19.8543 L 20.0817 19.8543 L 20.0817 20.3068 L 19.6436 20.3068 L 19.6436 20.5229 L 20.0817 20.5229 L 20.0817 20.5229 z M 21.7243 21.1425 L 22.4217 21.1425 L 22.4217 20.9149 L 21.7243 20.9149 L 21.7243 21.1425 L 21.7243 21.1425 z M 23.805 19.8025 L 23.1393 19.8025 L 23.1393 21.8025 L 23.805 21.8025 L 24.1191 21.7391 L 24.3526 21.546 L 24.4967 21.2319 L 24.5485 20.8025 L 24.5024 20.3644 L 24.4448 20.1915 L 24.3641 20.0532 L 24.1307 19.8659 L 23.9779 19.8197 L 23.805 19.8025 L 23.805 19.8025 z M 23.7849 20.0417 L 24.0039 20.0849 L 24.1537 20.2174 L 24.2431 20.4538 L 24.2719 20.8025 L 24.2402 21.1396 L 24.1508 21.3759 L 23.9981 21.5172 L 23.7849 21.5633 L 23.4073 21.5633 L 23.4073 20.0417 L 23.7849 20.0417 L 23.7849 20.0417 z M 24.8713 21.0301 L 24.9174 21.3817 L 25.05 21.6411 L 25.2604 21.8025 L 25.5428 21.8572 L 25.8223 21.8025 L 26.0327 21.644 L 26.1653 21.3846 L 26.2142 21.0301 L 26.1653 20.6785 L 26.0327 20.4163 L 25.8223 20.2578 L 25.5428 20.2001 L 25.2604 20.2578 L 25.05 20.4192 L 24.9174 20.6785 L 24.8713 21.0301 L 24.8713 21.0301 z M 25.1307 21.0272 L 25.1566 20.7679 L 25.2373 20.5806 L 25.367 20.4653 L 25.5428 20.4249 L 25.7157 20.4653 L 25.8454 20.5777 L 25.9261 20.7679 L 25.9549 21.0272 L 25.9261 21.2895 L 25.8454 21.4797 L 25.7157 21.595 L 25.5428 21.6324 L 25.367 21.595 L 25.2373 21.4797 L 25.1566 21.2895 L 25.1307 21.0272 L 25.1307 21.0272 z M 27.0471 21.8025 L 27.2776 20.4883 L 27.5082 21.8025 L 27.7503 21.8025 L 28.1307 20.2549 L 27.8857 20.2549 L 27.6292 21.569 L 27.4016 20.2549 L 27.1508 20.2549 L 26.9232 21.569 L 26.6667 20.2549 L 26.4246 20.2549 L 26.805 21.8025 L 27.0471 21.8025 L 27.0471 21.8025 z M 28.416 21.8025 L 28.6696 21.8025 L 28.6696 20.9091 L 28.6955 20.7045 L 28.7791 20.5546 L 28.9088 20.4624 L 29.0817 20.4278 L 29.22 20.4566 L 29.3065 20.5345 L 29.3497 20.6641 L 29.3641 20.837 L 29.3641 21.8025 L 29.6177 21.8025 L 29.6177 20.7852 L 29.6062 20.5806 L 29.5543 20.4105 L 29.3843 20.2549 L 29.1191 20.2001 L 28.9722 20.2203 L 28.8483 20.2751 L 28.7416 20.3673 L 28.6581 20.4912 L 28.6581 20.2549 L 28.416 20.2549 L 28.416 21.8025 L 28.416 21.8025 z"
       stroke="none"
       fill-rule="evenodd"
       fill="rgb(0, 0, 0)"
       id="path48" />
  </g>
</svg>
