<?xml version="1.0" encoding="UTF-8" standalone="no"?>
<svg
   xmlns:dsy="http://www.3ds.com/print"
   xmlns:dc="http://purl.org/dc/elements/1.1/"
   xmlns:cc="http://creativecommons.org/ns#"
   xmlns:rdf="http://www.w3.org/1999/02/22-rdf-syntax-ns#"
   xmlns:svg="http://www.w3.org/2000/svg"
   xmlns="http://www.w3.org/2000/svg"
   xmlns:sodipodi="http://sodipodi.sourceforge.net/DTD/sodipodi-0.dtd"
   xmlns:inkscape="http://www.inkscape.org/namespaces/inkscape"
   dsy:text-version="18000"
   width="297"
   height="210"
   viewBox="0 0 297 210"
   version="1.1"
   id="svg58"
   sodipodi:docname="RU.svg"
   inkscape:version="0.92.4 (5da689c313, 2019-01-14)">
  <metadata
     id="metadata64">
    <rdf:RDF>
      <cc:Work
         rdf:about="">
        <dc:format>image/svg+xml</dc:format>
        <dc:type
           rdf:resource="http://purl.org/dc/dcmitype/StillImage" />
      </cc:Work>
    </rdf:RDF>
  </metadata>
  <defs
     id="defs62" />
  <sodipodi:namedview
     pagecolor="#ffffff"
     bordercolor="#666666"
     borderopacity="1"
     objecttolerance="10"
     gridtolerance="10"
     guidetolerance="10"
     inkscape:pageopacity="0"
     inkscape:pageshadow="2"
     inkscape:window-width="1920"
     inkscape:window-height="1017"
     id="namedview60"
     showgrid="false"
     inkscape:zoom="8"
     inkscape:cx="48.011954"
     inkscape:cy="204.68658"
     inkscape:window-x="1912"
     inkscape:window-y="-8"
     inkscape:window-maximized="1"
     inkscape:current-layer="svg58" />
  <g
     stroke="rgb(0, 0, 0)"
     stroke-width="0.35"
     stroke-linecap="butt"
     stroke-linejoin="miter"
     fill="none"
     id="g28">
    <path
       d="M 8.78763 6.06389 A 7 7 0 0 0 9.32968 19.917"
       id="path2"
       style="stroke:#ff0000;stroke-opacity:1;stroke-width:0.18897638;stroke-miterlimit:4;stroke-dasharray:none" />
    <circle
       cx="10.0321"
       cy="12.9524"
       r="3.2"
       id="circle4"
       style="stroke:#ff0000;stroke-opacity:1;stroke-width:0.18897638;stroke-miterlimit:4;stroke-dasharray:none" />
    <path
       d="M 32.7369 6.78123 A 15.1516 15.0001 -258.545 0 0 40.8806 23.0992"
       id="path6"
       style="stroke:#ff0000;stroke-opacity:1;stroke-width:0.18897638;stroke-miterlimit:4;stroke-dasharray:none" />
    <path
       d="M 35.155 1.30023 A 15.2805 15.2805 0 0 0 32.7369 6.78125"
       id="path8"
       style="stroke:#ff0000;stroke-opacity:1;stroke-width:0.18897638;stroke-miterlimit:4;stroke-dasharray:none" />
    <path
       d="M 9.32968 19.917 L 40.8806 23.0992"
       id="path10"
       style="stroke:#ff0000;stroke-opacity:1;stroke-width:0.18897638;stroke-miterlimit:4;stroke-dasharray:none" />
    <path
       d="M 8.78763 6.06389 L 35.1551 1.30028"
       id="path12"
       style="stroke:#ff0000;stroke-opacity:1;stroke-width:0.18897638;stroke-miterlimit:4;stroke-dasharray:none" />
    <path
       d="M 41.5938 19.492 L 67.9612 24.2556"
       id="path14"
       style="stroke:#ff0000;stroke-opacity:1;stroke-width:0.18897638;stroke-miterlimit:4;stroke-dasharray:none" />
    <path
       d="M 42.1359 5.63884 A 7 7 0 0 0 41.5938 19.492"
       id="path16"
       style="stroke:#ff0000;stroke-opacity:1;stroke-width:0.18897638;stroke-miterlimit:4;stroke-dasharray:none" />
    <path
       d="M 42.1359 5.63884 L 72.3132 2.59521"
       id="path18"
       style="stroke:#ff0000;stroke-opacity:1;stroke-width:0.18897638;stroke-miterlimit:4;stroke-dasharray:none" />
    <path
       d="M 72.3132 2.59521 A 15.1514 14.9998 -281.424 0 0 65.4839 18.4958"
       id="path20"
       style="stroke:#ff0000;stroke-opacity:1;stroke-width:0.18897638;stroke-miterlimit:4;stroke-dasharray:none" />
    <path
       d="M 65.484 18.4958 A 15.2819 15.2819 0 0 0 67.9612 24.2556"
       id="path22"
       style="stroke:#ff0000;stroke-opacity:1;stroke-width:0.18897638;stroke-miterlimit:4;stroke-dasharray:none" />
    <circle
       cx="42.8383"
       cy="12.6035"
       r="3.2"
       id="circle24"
       style="stroke:#ff0000;stroke-opacity:1;stroke-width:0.18897638;stroke-miterlimit:4;stroke-dasharray:none" />
    <path
       d="M 65.482 18.4861 L 65.4859 18.5056"
       id="path26"
       style="stroke-width:0.18897638;stroke-miterlimit:4;stroke-dasharray:none;stroke:#ff0000;stroke-opacity:1" />
  </g>
  <g
     stroke="rgb(0, 0, 0)"
     stroke-width="0.13"
     stroke-linecap="butt"
     stroke-linejoin="miter"
     fill="none"
     id="g32">
    <path
       d="M 15.1456 8.91148 L 15.4107 8.91148 L 15.6211 8.32359 L 16.4194 8.32359 L 16.6298 8.91148 L 16.9007 8.91148 L 16.1687 6.9086 L 15.8747 6.9086 L 15.1456 8.91148 L 15.1456 8.91148 z M 15.7133 8.07863 L 16.0217 7.19679 L 16.33 8.07863 L 15.7133 8.07863 L 15.7133 8.07863 z M 16.8805 8.91148 L 17.1456 8.91148 L 17.356 8.32359 L 18.1543 8.32359 L 18.3646 8.91148 L 18.6355 8.91148 L 17.9035 6.9086 L 17.6096 6.9086 L 16.8805 8.91148 L 16.8805 8.91148 z M 17.4482 8.07863 L 17.7566 7.19679 L 18.0649 8.07863 L 17.4482 8.07863 L 17.4482 8.07863 z M 18.99 8.91148 L 19.2436 8.91148 L 19.2436 8.02676 L 19.2695 7.81351 L 19.3473 7.66077 L 19.4741 7.56854 L 19.6442 7.53685 L 19.771 7.55702 L 19.8661 7.61465 L 19.9237 7.71263 L 19.9439 7.8452 L 20.2004 7.8452 L 20.1658 7.61177 L 20.0707 7.44463 L 19.9122 7.34377 L 19.696 7.30917 L 19.5491 7.33223 L 19.4223 7.38986 L 19.3099 7.48785 L 19.2205 7.62042 L 19.2205 7.36394 L 18.99 7.36394 L 18.99 8.91148 L 18.99 8.91148 z M 20.5289 8.91148 L 20.7623 8.91148 L 20.7623 7.87691 L 20.7767 7.72128 L 20.82 7.60889 L 20.8862 7.5426 L 20.9727 7.51666 L 21.0419 7.53972 L 21.088 7.59737 L 21.111 7.69534 L 21.1197 7.82503 L 21.1197 8.91148 L 21.3387 8.91148 L 21.3387 7.87691 L 21.3531 7.72417 L 21.3963 7.61177 L 21.4655 7.5426 L 21.552 7.51666 L 21.6211 7.53972 L 21.6672 7.59737 L 21.696 7.82503 L 21.696 8.91148 L 21.9295 8.91148 L 21.9295 7.84232 L 21.9151 7.62042 L 21.869 7.45039 L 21.7767 7.34663 L 21.6269 7.30917 L 21.4511 7.36682 L 21.3156 7.53397 L 21.209 7.36969 L 21.0303 7.30917 L 20.8661 7.36682 L 20.7537 7.5282 L 20.7537 7.36394 L 20.5289 7.36394 L 20.5289 8.91148 L 20.5289 8.91148 z"
       stroke="none"
       fill-rule="evenodd"
       fill="rgb(0, 0, 0)"
       id="path30" />
  </g>
  <g
     stroke="rgb(0, 0, 0)"
     stroke-width="0.13"
     stroke-linecap="butt"
     stroke-linejoin="miter"
     fill="none"
     id="g36">
    <path
       d="M 15.4309 12.3668 L 15.6989 12.3668 L 15.6989 11.4475 L 16.5404 11.4475 L 16.5404 11.2083 L 15.6989 11.2083 L 15.6989 10.6089 L 16.7335 10.6089 L 16.7335 10.3668 L 15.4309 10.3668 L 15.4309 12.3668 L 15.4309 12.3668 z M 17.0678 11.606 L 17.1081 11.9662 L 17.2349 12.2227 L 17.4482 12.3697 L 17.7566 12.4216 L 18.062 12.3697 L 18.2753 12.2227 L 18.4021 11.9691 L 18.4453 11.606 L 18.4453 10.3668 L 18.1773 10.3668 L 18.1773 11.6204 L 18.1514 11.8654 L 18.0736 12.0412 L 17.941 12.1449 L 17.7566 12.1795 L 17.5664 12.1449 L 17.4338 12.0412 L 17.356 11.8683 L 17.3329 11.6204 L 17.3329 10.3668 L 17.0678 10.3668 L 17.0678 11.606 L 17.0678 11.606 z M 19.1427 11.7069 L 19.8401 11.7069 L 19.8401 11.4792 L 19.1427 11.4792 L 19.1427 11.7069 L 19.1427 11.7069 z M 20.5837 12.3668 L 20.8517 12.3668 L 20.8517 11.5224 L 21.1254 11.5224 L 21.3272 11.5311 L 21.454 11.5714 L 21.5231 11.6665 L 21.552 11.8366 L 21.5664 12.0959 L 21.5837 12.266 L 21.6182 12.3668 L 21.9208 12.3668 L 21.9208 12.3121 L 21.8545 12.2314 L 21.8315 12.0815 L 21.8113 11.7588 L 21.7623 11.5196 L 21.696 11.4446 L 21.5923 11.3899 L 21.7076 11.3178 L 21.7883 11.217 L 21.8401 11.0902 L 21.8574 10.9374 L 21.8171 10.6953 L 21.7018 10.5138 L 21.5116 10.4043 L 21.2522 10.3668 L 20.5837 10.3668 L 20.5837 12.3668 L 20.5837 12.3668 z M 21.1773 10.6118 L 21.3531 10.6291 L 21.477 10.6838 L 21.5548 10.7847 L 21.5808 10.9432 L 21.552 11.1103 L 21.4741 11.2112 L 21.3416 11.2631 L 21.16 11.2775 L 20.8517 11.2775 L 20.8517 10.6118 L 21.1773 10.6118 L 21.1773 10.6118 z M 22.2724 11.606 L 22.3128 11.9662 L 22.4396 12.2227 L 22.6528 12.3697 L 22.9612 12.4216 L 23.2667 12.3697 L 23.4799 12.2227 L 23.6067 11.9691 L 23.6499 11.606 L 23.6499 10.3668 L 23.3819 10.3668 L 23.3819 11.6204 L 23.356 11.8654 L 23.2782 12.0412 L 23.1456 12.1449 L 22.9612 12.1795 L 22.771 12.1449 L 22.6384 12.0412 L 22.5606 11.8683 L 22.5375 11.6204 L 22.5375 10.3668 L 22.2724 10.3668 L 22.2724 11.606 L 22.2724 11.606 z M 24.3473 11.7069 L 25.0448 11.7069 L 25.0448 11.4792 L 24.3473 11.4792 L 24.3473 11.7069 L 24.3473 11.7069 z"
       stroke="none"
       fill-rule="evenodd"
       fill="rgb(0, 0, 0)"
       id="path34" />
  </g>
  <g
     stroke="rgb(0, 0, 0)"
     stroke-width="0.13"
     stroke-linecap="butt"
     stroke-linejoin="miter"
     fill="none"
     id="g40">
    <path
       d="M 15.3329 15.0613 L 15.3733 15.4216 L 15.5001 15.6781 L 15.7133 15.825 L 16.0217 15.8769 L 16.3272 15.825 L 16.5404 15.6781 L 16.6672 15.4245 L 16.7105 15.0613 L 16.7105 13.8221 L 16.4424 13.8221 L 16.4424 15.0757 L 16.4165 15.3207 L 16.3387 15.4965 L 16.2061 15.6002 L 16.0217 15.6348 L 15.8315 15.6002 L 15.6989 15.4965 L 15.6211 15.3236 L 15.5981 15.0757 L 15.5981 13.8221 L 15.3329 13.8221 L 15.3329 15.0613 L 15.3329 15.0613 z M 17.3992 14.5138 L 17.3992 14.2746 L 17.1456 14.2746 L 17.1456 16.4216 L 17.3992 16.4216 L 17.3992 15.5858 L 17.4886 15.7213 L 17.5894 15.8106 L 17.843 15.8769 L 18.0851 15.8221 L 18.2753 15.6579 L 18.3992 15.3985 L 18.4453 15.0469 L 18.3992 14.6982 L 18.2753 14.4389 L 18.0851 14.2775 L 17.843 14.2198 L 17.7047 14.2371 L 17.5865 14.2919 L 17.4857 14.3841 L 17.3992 14.5138 L 17.3992 14.5138 z M 17.7998 15.6492 L 17.6298 15.6118 L 17.5058 15.4965 L 17.428 15.3092 L 17.4021 15.0469 L 17.428 14.7876 L 17.5058 14.6002 L 17.6298 14.4879 L 17.7998 14.4475 L 17.9554 14.4879 L 18.0793 14.6031 L 18.1571 14.7904 L 18.186 15.0469 L 18.1571 15.3063 L 18.0793 15.4965 L 17.9554 15.6118 L 17.7998 15.6492 L 17.7998 15.6492 z M 19.1427 15.1622 L 19.8401 15.1622 L 19.8401 14.9345 L 19.1427 14.9345 L 19.1427 15.1622 L 19.1427 15.1622 z"
       stroke="none"
       fill-rule="evenodd"
       fill="rgb(0, 0, 0)"
       id="path38" />
  </g>
  <g
     stroke="rgb(0, 0, 0)"
     stroke-width="0.13"
     stroke-linecap="butt"
     stroke-linejoin="miter"
     fill="none"
     id="g44">
    <path
       d="M 15.4367 19.2775 L 16.722 19.2775 L 16.722 19.0354 L 15.7018 19.0354 L 15.7018 17.2775 L 15.4367 17.2775 L 15.4367 19.2775 L 15.4367 19.2775 z M 17.3819 18.5772 L 18.3963 18.5772 L 18.3992 18.459 L 18.3531 18.1276 L 18.2263 17.8798 L 18.0246 17.7299 L 17.7566 17.6752 L 17.4943 17.7328 L 17.2926 17.8942 L 17.1629 18.1564 L 17.1168 18.5023 L 17.16 18.8567 L 17.2897 19.1161 L 17.4886 19.2775 L 17.7479 19.3322 L 17.9727 19.2948 L 18.1571 19.1968 L 18.2926 19.0412 L 18.3704 18.8337 L 18.1197 18.8337 L 18.0678 18.9489 L 17.9929 19.0354 L 17.7796 19.1046 L 17.6154 19.0729 L 17.4914 18.972 L 17.4107 18.8077 L 17.3819 18.5858 L 17.3819 18.5772 L 17.3819 18.5772 z M 17.3819 18.3639 L 17.4136 18.1651 L 17.4914 18.0181 L 17.6096 17.9288 L 17.7652 17.8971 L 17.9179 17.9288 L 18.0361 18.0181 L 18.1081 18.1651 L 18.1341 18.3639 L 17.3819 18.3639 L 17.3819 18.3639 z M 19.2465 17.9979 L 19.2465 19.2775 L 19.5001 19.2775 L 19.5001 17.9979 L 20.0764 17.9979 L 20.0764 17.7818 L 19.5001 17.7818 L 19.5001 17.6867 L 19.5203 17.5714 L 19.5865 17.4936 L 19.6989 17.4475 L 19.8603 17.4302 L 20.0764 17.4417 L 20.0764 17.2227 L 19.8027 17.2083 L 19.5548 17.2343 L 19.3819 17.3121 L 19.2782 17.4475 L 19.2465 17.6406 L 19.2465 17.7818 L 18.7825 17.7818 L 18.7825 17.9979 L 19.2465 17.9979 L 19.2465 17.9979 z M 20.9698 17.9979 L 20.9698 18.7732 L 20.9871 19.0239 L 21.0678 19.1968 L 21.2292 19.2977 L 21.503 19.3322 L 21.8027 19.3178 L 21.8027 19.0988 L 21.5837 19.1161 L 21.3848 19.093 L 21.2782 19.021 L 21.2321 18.9 L 21.2234 18.7299 L 21.2234 17.9979 L 21.8027 17.9979 L 21.8027 17.7818 L 21.2234 17.7818 L 21.2234 17.3293 L 20.9698 17.3293 L 20.9698 17.7818 L 20.5318 17.7818 L 20.5318 17.9979 L 20.9698 17.9979 L 20.9698 17.9979 z M 22.6125 18.6175 L 23.3099 18.6175 L 23.3099 18.3899 L 22.6125 18.3899 L 22.6125 18.6175 L 22.6125 18.6175 z M 24.0073 18.5167 L 24.0476 18.8769 L 24.1744 19.1334 L 24.3877 19.2804 L 24.696 19.3322 L 25.0015 19.2804 L 25.2148 19.1334 L 25.3416 18.8798 L 25.3848 18.5167 L 25.3848 17.2775 L 25.1168 17.2775 L 25.1168 18.5311 L 25.0909 18.776 L 25.0131 18.9518 L 24.8805 19.0556 L 24.696 19.0902 L 24.5058 19.0556 L 24.3733 18.9518 L 24.2955 18.7789 L 24.2724 18.5311 L 24.2724 17.2775 L 24.0073 17.2775 L 24.0073 18.5167 L 24.0073 18.5167 z M 25.8228 19.2775 L 26.088 19.2775 L 26.088 18.4331 L 26.3819 18.4331 L 26.6788 18.4187 L 26.9151 18.3178 L 27.0678 18.1219 L 27.1197 17.8539 L 27.0793 17.606 L 26.9641 17.4245 L 26.7739 17.3149 L 26.5145 17.2775 L 25.8228 17.2775 L 25.8228 19.2775 L 25.8228 19.2775 z M 26.4424 17.5224 L 26.6154 17.5397 L 26.7422 17.5945 L 26.8171 17.6953 L 26.843 17.8539 L 26.8142 18.021 L 26.7364 18.1219 L 26.6038 18.1737 L 26.4223 18.1881 L 26.088 18.1881 L 26.088 17.5224 L 26.4424 17.5224 L 26.4424 17.5224 z"
       stroke="none"
       fill-rule="evenodd"
       fill="rgb(0, 0, 0)"
       id="path42" />
  </g>
  <g
     stroke="rgb(0, 0, 0)"
     stroke-width="0.13"
     stroke-linecap="butt"
     stroke-linejoin="miter"
     fill="none"
     id="g48">
    <path
       d="M 47.3802 11.163 L 47.6453 11.163 L 47.8557 10.5751 L 48.6539 10.5751 L 48.8643 11.163 L 49.1352 11.163 L 48.4032 9.16013 L 48.1093 9.16013 L 47.3802 11.163 L 47.3802 11.163 z M 47.9479 10.3302 L 48.2563 9.44832 L 48.5646 10.3302 L 47.9479 10.3302 L 47.9479 10.3302 z M 49.115 11.163 L 49.3802 11.163 L 49.5905 10.5751 L 50.3888 10.5751 L 50.5992 11.163 L 50.8701 11.163 L 50.1381 9.16013 L 49.8441 9.16013 L 49.115 11.163 L 49.115 11.163 z M 49.6828 10.3302 L 49.9911 9.44832 L 50.2995 10.3302 L 49.6828 10.3302 L 49.6828 10.3302 z M 51.2246 11.163 L 51.4782 11.163 L 51.4782 10.2783 L 51.5041 10.065 L 51.5819 9.91229 L 51.7087 9.82007 L 51.8787 9.78838 L 52.0055 9.80855 L 52.1006 9.86618 L 52.1583 9.96416 L 52.1784 10.0967 L 52.4349 10.0967 L 52.4003 9.8633 L 52.3052 9.69615 L 52.1467 9.59529 L 51.9306 9.5607 L 51.7836 9.58376 L 51.6568 9.6414 L 51.5444 9.73938 L 51.4551 9.87195 L 51.4551 9.61546 L 51.2246 9.61546 L 51.2246 11.163 L 51.2246 11.163 z M 52.7635 11.163 L 52.9969 11.163 L 52.9969 10.1284 L 53.0113 9.97281 L 53.0545 9.86041 L 53.1208 9.79413 L 53.2073 9.7682 L 53.2764 9.79126 L 53.3225 9.84889 L 53.3456 9.94687 L 53.3542 10.0766 L 53.3542 11.163 L 53.5733 11.163 L 53.5733 10.1284 L 53.5877 9.97569 L 53.6309 9.8633 L 53.7001 9.79413 L 53.7865 9.7682 L 53.8557 9.79126 L 53.9018 9.84889 L 53.9306 10.0766 L 53.9306 11.163 L 54.164 11.163 L 54.164 10.0938 L 54.1496 9.87195 L 54.1035 9.70192 L 54.0113 9.59818 L 53.8614 9.5607 L 53.6856 9.61835 L 53.5502 9.78549 L 53.4436 9.62123 L 53.2649 9.5607 L 53.1006 9.61835 L 52.9882 9.77972 L 52.9882 9.61546 L 52.7635 9.61546 L 52.7635 11.163 L 52.7635 11.163 z M 56.3398 11.163 L 56.6078 11.163 L 56.6078 10.2437 L 57.4493 10.2437 L 57.4493 10.0045 L 56.6078 10.0045 L 56.6078 9.40509 L 57.6424 9.40509 L 57.6424 9.16301 L 56.3398 9.16301 L 56.3398 11.163 L 56.3398 11.163 z M 57.9767 10.4022 L 58.0171 10.7624 L 58.1439 11.0189 L 58.3571 11.1659 L 58.6655 11.2178 L 58.971 11.1659 L 59.1842 11.0189 L 59.311 10.7653 L 59.3542 10.4022 L 59.3542 9.16301 L 59.0862 9.16301 L 59.0862 10.4166 L 59.0603 10.6616 L 58.9825 10.8374 L 58.8499 10.9411 L 58.6655 10.9757 L 58.4753 10.9411 L 58.3427 10.8374 L 58.2649 10.6644 L 58.2418 10.4166 L 58.2418 9.16301 L 57.9767 9.16301 L 57.9767 10.4022 L 57.9767 10.4022 z M 60.0516 10.5031 L 60.7491 10.5031 L 60.7491 10.2754 L 60.0516 10.2754 L 60.0516 10.5031 L 60.0516 10.5031 z"
       stroke="none"
       fill-rule="evenodd"
       fill="rgb(0, 0, 0)"
       id="path46" />
  </g>
  <g
     stroke="rgb(0, 0, 0)"
     stroke-width="0.13"
     stroke-linecap="butt"
     stroke-linejoin="miter"
     fill="none"
     id="g52">
    <path
       d="M 47.6136 14.6183 L 47.8816 14.6183 L 47.8816 13.774 L 48.1554 13.774 L 48.3571 13.7826 L 48.4839 13.823 L 48.5531 13.9181 L 48.5819 14.0881 L 48.5963 14.3475 L 48.6136 14.5175 L 48.6482 14.6183 L 48.9508 14.6183 L 48.9508 14.5636 L 48.8845 14.4829 L 48.8614 14.333 L 48.8413 14.0103 L 48.7923 13.7711 L 48.726 13.6962 L 48.6222 13.6414 L 48.7375 13.5694 L 48.8182 13.4685 L 48.8701 13.3417 L 48.8874 13.1889 L 48.847 12.9469 L 48.7318 12.7653 L 48.5416 12.6558 L 48.2822 12.6183 L 47.6136 12.6183 L 47.6136 14.6183 L 47.6136 14.6183 z M 48.2073 12.8633 L 48.3831 12.8806 L 48.507 12.9353 L 48.5848 13.0362 L 48.6107 13.1947 L 48.5819 13.3619 L 48.5041 13.4627 L 48.3715 13.5146 L 48.19 13.529 L 47.8816 13.529 L 47.8816 12.8633 L 48.2073 12.8633 L 48.2073 12.8633 z M 49.3024 13.8575 L 49.3427 14.2178 L 49.4695 14.4743 L 49.6828 14.6212 L 49.9911 14.6731 L 50.2966 14.6212 L 50.5099 14.4743 L 50.6367 14.2207 L 50.6799 13.8575 L 50.6799 12.6183 L 50.4119 12.6183 L 50.4119 13.8719 L 50.3859 14.1169 L 50.3081 14.2927 L 50.1756 14.3964 L 49.9911 14.431 L 49.8009 14.3964 L 49.6684 14.2927 L 49.5905 14.1198 L 49.5675 13.8719 L 49.5675 12.6183 L 49.3024 12.6183 L 49.3024 13.8575 L 49.3024 13.8575 z M 51.3773 13.9584 L 52.0747 13.9584 L 52.0747 13.7307 L 51.3773 13.7307 L 51.3773 13.9584 L 51.3773 13.9584 z M 52.7721 13.8575 L 52.8125 14.2178 L 52.9393 14.4743 L 53.1525 14.6212 L 53.4609 14.6731 L 53.7663 14.6212 L 53.9796 14.4743 L 54.1064 14.2207 L 54.1496 13.8575 L 54.1496 12.6183 L 53.8816 12.6183 L 53.8816 13.8719 L 53.8557 14.1169 L 53.7779 14.2927 L 53.6453 14.3964 L 53.4609 14.431 L 53.2707 14.3964 L 53.1381 14.2927 L 53.0603 14.1198 L 53.0372 13.8719 L 53.0372 12.6183 L 52.7721 12.6183 L 52.7721 13.8575 L 52.7721 13.8575 z M 54.8384 13.31 L 54.8384 13.0708 L 54.5848 13.0708 L 54.5848 15.2178 L 54.8384 15.2178 L 54.8384 14.382 L 54.9277 14.5175 L 55.0286 14.6068 L 55.2822 14.6731 L 55.5243 14.6183 L 55.7145 14.4541 L 55.8384 14.1947 L 55.8845 13.8431 L 55.8384 13.4944 L 55.7145 13.2351 L 55.5243 13.0737 L 55.2822 13.016 L 55.1439 13.0333 L 55.0257 13.0881 L 54.9248 13.1803 L 54.8384 13.31 L 54.8384 13.31 z M 55.239 14.4454 L 55.0689 14.408 L 54.945 14.2927 L 54.8672 14.1054 L 54.8413 13.8431 L 54.8672 13.5838 L 54.945 13.3964 L 55.0689 13.2841 L 55.239 13.2437 L 55.3946 13.2841 L 55.5185 13.3993 L 55.5963 13.5867 L 55.6251 13.8431 L 55.5963 14.1025 L 55.5185 14.2927 L 55.3946 14.408 L 55.239 14.4454 L 55.239 14.4454 z M 56.5819 13.9584 L 57.2793 13.9584 L 57.2793 13.7307 L 56.5819 13.7307 L 56.5819 13.9584 L 56.5819 13.9584 z"
       stroke="none"
       fill-rule="evenodd"
       fill="rgb(0, 0, 0)"
       id="path50" />
  </g>
  <g
     stroke="rgb(0, 0, 0)"
     stroke-width="0.13"
     stroke-linecap="butt"
     stroke-linejoin="miter"
     fill="none"
     id="g56">
    <path
       d="M 47.6712 18.0737 L 48.9565 18.0737 L 48.9565 17.8316 L 47.9364 17.8316 L 47.9364 16.0737 L 47.6712 16.0737 L 47.6712 18.0737 L 47.6712 18.0737 z M 49.6165 17.3734 L 50.6309 17.3734 L 50.6338 17.2552 L 50.5877 16.9238 L 50.4609 16.676 L 50.2591 16.5261 L 49.9911 16.4714 L 49.7289 16.529 L 49.5271 16.6904 L 49.3975 16.9526 L 49.3514 17.2984 L 49.3946 17.6529 L 49.5243 17.9123 L 49.7231 18.0737 L 49.9825 18.1284 L 50.2073 18.091 L 50.3917 17.993 L 50.5271 17.8374 L 50.605 17.6299 L 50.3542 17.6299 L 50.3024 17.7451 L 50.2274 17.8316 L 50.0142 17.9008 L 49.8499 17.8691 L 49.726 17.7682 L 49.6453 17.6039 L 49.6165 17.382 L 49.6165 17.3734 L 49.6165 17.3734 z M 49.6165 17.1601 L 49.6482 16.9613 L 49.726 16.8143 L 49.8441 16.725 L 49.9998 16.6933 L 50.1525 16.725 L 50.2707 16.8143 L 50.3427 16.9613 L 50.3686 17.1601 L 49.6165 17.1601 L 49.6165 17.1601 z M 51.481 16.7941 L 51.481 18.0737 L 51.7346 18.0737 L 51.7346 16.7941 L 52.311 16.7941 L 52.311 16.578 L 51.7346 16.578 L 51.7346 16.4829 L 51.7548 16.3676 L 51.8211 16.2898 L 51.9335 16.2437 L 52.0949 16.2264 L 52.311 16.2379 L 52.311 16.0189 L 52.0372 16.0045 L 51.7894 16.0304 L 51.6165 16.1082 L 51.5127 16.2437 L 51.481 16.4368 L 51.481 16.578 L 51.0171 16.578 L 51.0171 16.7941 L 51.481 16.7941 L 51.481 16.7941 z M 53.2044 16.7941 L 53.2044 17.5694 L 53.2217 17.8201 L 53.3024 17.993 L 53.4637 18.0938 L 53.7375 18.1284 L 54.0372 18.114 L 54.0372 17.895 L 53.8182 17.9123 L 53.6194 17.8892 L 53.5127 17.8172 L 53.4666 17.6962 L 53.458 17.5261 L 53.458 16.7941 L 54.0372 16.7941 L 54.0372 16.578 L 53.458 16.578 L 53.458 16.1255 L 53.2044 16.1255 L 53.2044 16.578 L 52.7663 16.578 L 52.7663 16.7941 L 53.2044 16.7941 L 53.2044 16.7941 z M 54.847 17.4137 L 55.5444 17.4137 L 55.5444 17.1861 L 54.847 17.1861 L 54.847 17.4137 L 54.847 17.4137 z M 56.9277 16.0737 L 56.262 16.0737 L 56.262 18.0737 L 56.9277 18.0737 L 57.2418 18.0103 L 57.4753 17.8172 L 57.6194 17.5031 L 57.6712 17.0737 L 57.6251 16.6356 L 57.5675 16.4627 L 57.4868 16.3244 L 57.2534 16.1371 L 57.1006 16.091 L 56.9277 16.0737 L 56.9277 16.0737 z M 56.9076 16.3129 L 57.1266 16.3561 L 57.2764 16.4887 L 57.3658 16.725 L 57.3946 17.0737 L 57.3629 17.4108 L 57.2735 17.6472 L 57.1208 17.7884 L 56.9076 17.8345 L 56.53 17.8345 L 56.53 16.3129 L 56.9076 16.3129 L 56.9076 16.3129 z M 57.994 17.3013 L 58.0401 17.6529 L 58.1727 17.9123 L 58.3831 18.0737 L 58.6655 18.1284 L 58.945 18.0737 L 59.1554 17.9152 L 59.288 17.6558 L 59.3369 17.3013 L 59.288 16.9498 L 59.1554 16.6875 L 58.945 16.529 L 58.6655 16.4714 L 58.3831 16.529 L 58.1727 16.6904 L 58.0401 16.9498 L 57.994 17.3013 L 57.994 17.3013 z M 58.2534 17.2984 L 58.2793 17.0391 L 58.36 16.8518 L 58.4897 16.7365 L 58.6655 16.6962 L 58.8384 16.7365 L 58.9681 16.8489 L 59.0488 17.0391 L 59.0776 17.2984 L 59.0488 17.5607 L 58.9681 17.7509 L 58.8384 17.8662 L 58.6655 17.9036 L 58.4897 17.8662 L 58.36 17.7509 L 58.2793 17.5607 L 58.2534 17.2984 L 58.2534 17.2984 z M 60.1698 18.0737 L 60.4003 16.7596 L 60.6309 18.0737 L 60.873 18.0737 L 61.2534 16.5261 L 61.0084 16.5261 L 60.7519 17.8402 L 60.5243 16.5261 L 60.2735 16.5261 L 60.0459 17.8402 L 59.7894 16.5261 L 59.5473 16.5261 L 59.9277 18.0737 L 60.1698 18.0737 L 60.1698 18.0737 z M 61.5387 18.0737 L 61.7923 18.0737 L 61.7923 17.1803 L 61.8182 16.9757 L 61.9018 16.8258 L 62.0315 16.7336 L 62.2044 16.699 L 62.3427 16.7278 L 62.4292 16.8057 L 62.4724 16.9353 L 62.4868 17.1082 L 62.4868 18.0737 L 62.7404 18.0737 L 62.7404 17.0564 L 62.7289 16.8518 L 62.677 16.6817 L 62.507 16.5261 L 62.2418 16.4714 L 62.0949 16.4915 L 61.971 16.5463 L 61.8643 16.6385 L 61.7808 16.7624 L 61.7808 16.5261 L 61.5387 16.5261 L 61.5387 18.0737 L 61.5387 18.0737 z"
       stroke="none"
       fill-rule="evenodd"
       fill="rgb(0, 0, 0)"
       id="path54" />
  </g>
</svg>
