<?xml version="1.0" encoding="utf-8" ?><!DOCTYPE svg PUBLIC "-//W3C//DTD SVG 1.1//EN" "http://www.w3.org/Graphics/SVG/1.1/DTD/svg11.dtd" 
[ <!ATTLIST svg 
  xmlns:dsy CDATA #FIXED "http://www.3ds.com/print"  
    dsy:text-version CDATA #IMPLIED > 

  <!ATTLIST text 
  xmlns:dsy CDATA #FIXED "http://www.3ds.com/print" 
    dsy:text-version CDATA #IMPLIED > 
]><svg xmlns="http://www.w3.org/2000/svg" xmlns:dsy="http://www.3ds.com/print" dsy:text-version="18000" width="1189" height="841" viewBox="0 0 1189 841" version="1.1"><g stroke="rgb(0, 0, 0)" stroke-width="0.13" stroke-linecap="butt" stroke-linejoin="miter" fill="none"><path d="M 948.228 526.979 L 948.228 571.013"/><path d="M 515.267 526.979 L 515.267 571.013"/></g><g stroke="rgb(0, 0, 0)" stroke-width="0.35" stroke-linecap="butt" stroke-linejoin="miter" fill="none"><circle cx="716.894" cy="282.242" r="3.09991"/><circle cx="416.894" cy="282.242" r="3.09991"/><circle cx="596.894" cy="538.416" r="3.09991"/><path d="M 515.267 524.979 L 948.228 524.979"/><circle cx="885.787" cy="441.665" r="3.1001"/><circle cx="585.787" cy="441.665" r="3.1001"/><circle cx="705.787" cy="73.6525" r="3.1001"/><circle cx="931.196" cy="436.284" r="3.10001"/><circle cx="899.38" cy="127.749" r="3.10001"/><circle cx="990.817" cy="116.216" r="3.10005"/><circle cx="961.782" cy="485.874" r="3.10005"/></g><g stroke="rgb(0, 0, 0)" stroke-width="0.13" stroke-linecap="butt" stroke-linejoin="miter" fill="none"><path d="M 506.061 263.843 L 507.121 263.843 L 507.121 256.811 L 509.542 256.811 L 509.542 255.843 L 503.629 255.843 L 503.629 256.811 L 506.061 256.811 L 506.061 263.843 L 506.061 263.843 z M 511.525 263.843 L 512.539 263.843 L 512.539 260.304 L 512.643 259.451 L 512.954 258.84 L 513.462 258.471 L 514.142 258.344 L 514.649 258.425 L 515.029 258.655 L 515.26 259.047 L 515.341 259.577 L 516.366 259.577 L 516.228 258.644 L 515.848 257.975 L 515.214 257.572 L 514.349 257.433 L 513.761 257.526 L 513.254 257.756 L 512.805 258.148 L 512.447 258.678 L 512.447 257.652 L 511.525 257.652 L 511.525 263.843 L 511.525 263.843 z M 521.185 262.99 L 521.185 257.86 L 518.58 257.86 L 518.58 258.724 L 520.17 258.724 L 520.17 262.99 L 518.096 262.99 L 518.096 263.843 L 523.283 263.843 L 523.283 262.99 L 521.185 262.99 L 521.185 262.99 z M 521.219 255.566 L 520.147 255.566 L 520.147 256.719 L 521.219 256.719 L 521.219 255.566 L 521.219 255.566 z M 528.701 263.036 L 528.701 263.07 L 528.758 263.462 L 528.931 263.739 L 529.657 263.958 L 530.222 263.866 L 530.222 263.082 L 529.98 263.116 L 529.657 262.966 L 529.6 262.505 L 529.6 259.301 L 529.461 258.482 L 529.058 257.906 L 528.355 257.56 L 527.364 257.433 L 526.395 257.572 L 525.681 257.964 L 525.231 258.575 L 525.081 259.381 L 525.081 259.451 L 525.992 259.451 L 526.072 258.966 L 526.326 258.621 L 526.741 258.413 L 527.329 258.332 L 527.894 258.39 L 528.297 258.563 L 528.539 258.863 L 528.62 259.278 L 528.574 259.762 L 528.389 260.004 L 527.928 260.119 L 527.064 260.211 L 526.072 260.419 L 525.369 260.788 L 524.954 261.364 L 524.828 262.217 L 524.943 262.978 L 525.3 263.543 L 525.876 263.9 L 526.672 264.027 L 527.744 263.785 L 528.701 263.036 L 528.701 263.036 z M 528.585 261.675 L 528.447 262.275 L 528.078 262.736 L 527.525 263.036 L 526.845 263.139 L 526.407 263.082 L 526.096 262.897 L 525.9 262.575 L 525.842 262.125 L 525.888 261.721 L 526.072 261.433 L 526.81 261.111 L 527.744 260.972 L 528.585 260.696 L 528.585 261.675 L 528.585 261.675 z M 531.963 263.843 L 532.977 263.843 L 532.977 260.269 L 533.081 259.451 L 533.415 258.851 L 533.934 258.482 L 534.626 258.344 L 535.179 258.459 L 535.525 258.771 L 535.698 259.289 L 535.755 259.981 L 535.755 263.843 L 536.77 263.843 L 536.77 259.773 L 536.724 258.955 L 536.516 258.275 L 535.836 257.652 L 534.776 257.433 L 534.188 257.514 L 533.692 257.733 L 533.266 258.102 L 532.931 258.598 L 532.931 257.652 L 531.963 257.652 L 531.963 263.843 L 531.963 263.843 z M 543.721 263.566 L 543.721 257.652 L 542.753 257.652 L 542.753 258.655 L 541.957 257.745 L 541.473 257.514 L 540.931 257.433 L 539.951 257.664 L 539.191 258.309 L 538.695 259.347 L 538.522 260.742 L 538.695 262.148 L 539.191 263.185 L 539.951 263.843 L 540.931 264.062 L 541.484 263.981 L 541.946 263.773 L 542.753 262.897 L 542.753 263.773 L 542.66 264.465 L 542.407 264.961 L 541.923 265.249 L 541.196 265.353 L 540.562 265.283 L 540.113 265.111 L 539.848 264.811 L 539.767 264.407 L 538.787 264.407 L 538.787 264.453 L 538.937 265.191 L 539.398 265.745 L 540.136 266.102 L 541.139 266.229 L 542.338 266.056 L 543.133 265.572 L 543.582 264.73 L 543.721 263.566 L 543.721 263.566 z M 539.571 260.742 L 539.675 259.716 L 539.986 258.955 L 540.47 258.505 L 541.116 258.344 L 541.796 258.505 L 542.303 258.955 L 542.614 259.716 L 542.729 260.742 L 542.614 261.791 L 542.303 262.54 L 541.796 263.001 L 541.116 263.151 L 540.47 263.001 L 539.986 262.54 L 539.675 261.779 L 539.571 260.742 L 539.571 260.742 z M 547.859 256.419 L 547.859 262.99 L 545.773 262.99 L 545.773 263.843 L 550.948 263.843 L 550.948 262.99 L 548.874 262.99 L 548.874 255.566 L 546.268 255.566 L 546.268 256.419 L 547.859 256.419 L 547.859 256.419 z M 553.669 261.041 L 557.727 261.041 L 557.738 260.569 L 557.554 259.243 L 557.046 258.252 L 556.24 257.652 L 555.167 257.433 L 554.118 257.664 L 553.312 258.309 L 552.793 259.358 L 552.608 260.742 L 552.781 262.16 L 553.3 263.197 L 554.095 263.843 L 555.133 264.062 L 556.032 263.912 L 556.77 263.52 L 557.312 262.897 L 557.623 262.067 L 556.62 262.067 L 556.412 262.528 L 556.113 262.874 L 555.26 263.151 L 554.603 263.024 L 554.107 262.621 L 553.784 261.964 L 553.669 261.076 L 553.669 261.041 L 553.669 261.041 z M 553.669 260.188 L 553.796 259.393 L 554.107 258.805 L 554.58 258.448 L 555.202 258.321 L 555.813 258.448 L 556.286 258.805 L 556.574 259.393 L 556.677 260.188 L 553.669 260.188 L 553.669 260.188 z M 566.372 263.843 L 567.444 263.843 L 567.444 260.085 L 570.649 260.085 L 570.649 263.843 L 571.709 263.843 L 571.709 255.843 L 570.649 255.843 L 570.649 259.105 L 567.444 259.105 L 567.444 255.843 L 566.372 255.843 L 566.372 263.843 L 566.372 263.843 z M 577.277 263.036 L 577.277 263.07 L 577.334 263.462 L 577.507 263.739 L 578.234 263.958 L 578.798 263.866 L 578.798 263.082 L 578.556 263.116 L 578.234 262.966 L 578.176 262.505 L 578.176 259.301 L 578.038 258.482 L 577.634 257.906 L 576.931 257.56 L 575.94 257.433 L 574.971 257.572 L 574.257 257.964 L 573.807 258.575 L 573.657 259.381 L 573.657 259.451 L 574.568 259.451 L 574.649 258.966 L 574.902 258.621 L 575.317 258.413 L 575.905 258.332 L 576.47 258.39 L 576.873 258.563 L 577.115 258.863 L 577.196 259.278 L 577.15 259.762 L 576.966 260.004 L 576.505 260.119 L 575.64 260.211 L 574.649 260.419 L 573.945 260.788 L 573.53 261.364 L 573.404 262.217 L 573.519 262.978 L 573.876 263.543 L 574.453 263.9 L 575.248 264.027 L 576.32 263.785 L 577.277 263.036 L 577.277 263.036 z M 577.162 261.675 L 577.023 262.275 L 576.654 262.736 L 576.101 263.036 L 575.421 263.139 L 574.983 263.082 L 574.672 262.897 L 574.476 262.575 L 574.418 262.125 L 574.464 261.721 L 574.649 261.433 L 575.386 261.111 L 576.32 260.972 L 577.162 260.696 L 577.162 261.675 L 577.162 261.675 z M 585.311 257.652 L 584.297 257.652 L 584.297 261.226 L 584.182 262.056 L 583.847 262.655 L 583.329 263.024 L 582.649 263.139 L 582.107 263.047 L 581.761 262.771 L 581.565 262.298 L 581.519 261.629 L 581.519 257.652 L 580.505 257.652 L 580.505 261.721 L 580.539 262.54 L 580.758 263.22 L 581.427 263.843 L 582.499 264.062 L 583.075 263.981 L 583.571 263.773 L 583.997 263.416 L 584.343 262.897 L 584.343 263.843 L 585.311 263.843 L 585.311 257.652 L 585.311 257.652 z M 588.839 258.724 L 588.839 261.825 L 588.908 262.828 L 589.231 263.52 L 589.876 263.923 L 590.971 264.062 L 592.17 264.004 L 592.17 263.128 L 591.294 263.197 L 590.499 263.105 L 590.072 262.817 L 589.888 262.332 L 589.853 261.652 L 589.853 258.724 L 592.17 258.724 L 592.17 257.86 L 589.853 257.86 L 589.853 256.05 L 588.839 256.05 L 588.839 257.86 L 587.087 257.86 L 587.087 258.724 L 588.839 258.724 L 588.839 258.724 z" stroke="none" fill-rule="evenodd" fill="rgb(0, 0, 0)"/></g><g stroke="rgb(0, 0, 0)" stroke-width="0.13" stroke-linecap="butt" stroke-linejoin="miter" fill="none"><path d="M 472.793 291.485 L 473.865 291.485 L 473.865 288.108 L 474.96 288.108 L 475.767 288.142 L 476.274 288.304 L 476.551 288.684 L 476.666 289.364 L 476.724 290.402 L 476.793 291.082 L 476.931 291.485 L 478.142 291.485 L 478.142 291.266 L 477.877 290.943 L 477.784 290.344 L 477.704 289.053 L 477.508 288.096 L 477.243 287.796 L 476.828 287.577 L 477.289 287.289 L 477.611 286.886 L 477.819 286.379 L 477.888 285.768 L 477.727 284.799 L 477.266 284.073 L 476.505 283.635 L 475.467 283.485 L 472.793 283.485 L 472.793 291.485 L 472.793 291.485 z M 475.168 284.465 L 475.871 284.534 L 476.366 284.753 L 476.678 285.157 L 476.781 285.791 L 476.666 286.459 L 476.355 286.863 L 475.825 287.07 L 475.098 287.128 L 473.865 287.128 L 473.865 284.465 L 475.168 284.465 L 475.168 284.465 z M 483.018 290.632 L 483.018 285.502 L 480.413 285.502 L 480.413 286.367 L 482.003 286.367 L 482.003 290.632 L 479.928 290.632 L 479.928 291.485 L 485.116 291.485 L 485.116 290.632 L 483.018 290.632 L 483.018 290.632 z M 483.052 283.208 L 481.98 283.208 L 481.98 284.361 L 483.052 284.361 L 483.052 283.208 L 483.052 283.208 z M 491.675 291.208 L 491.675 285.295 L 490.706 285.295 L 490.706 286.298 L 489.911 285.387 L 489.427 285.157 L 488.885 285.076 L 487.905 285.306 L 487.145 285.952 L 486.649 286.99 L 486.476 288.384 L 486.649 289.791 L 487.145 290.828 L 487.905 291.485 L 488.885 291.704 L 489.438 291.623 L 489.9 291.416 L 490.706 290.54 L 490.706 291.416 L 490.614 292.108 L 490.361 292.603 L 489.877 292.892 L 489.15 292.995 L 488.516 292.926 L 488.067 292.753 L 487.802 292.453 L 487.721 292.05 L 486.741 292.05 L 486.741 292.096 L 486.891 292.834 L 487.352 293.387 L 488.09 293.745 L 489.093 293.871 L 490.292 293.698 L 491.087 293.214 L 491.536 292.373 L 491.675 291.208 L 491.675 291.208 z M 487.525 288.384 L 487.629 287.358 L 487.94 286.598 L 488.424 286.148 L 489.07 285.987 L 489.75 286.148 L 490.257 286.598 L 490.568 287.358 L 490.683 288.384 L 490.568 289.433 L 490.257 290.183 L 489.75 290.644 L 489.07 290.794 L 488.424 290.644 L 487.94 290.183 L 487.629 289.422 L 487.525 288.384 L 487.525 288.384 z M 493.796 291.485 L 494.81 291.485 L 494.81 287.912 L 494.914 287.093 L 495.248 286.494 L 495.767 286.125 L 496.459 285.987 L 497.012 286.102 L 497.358 286.413 L 497.531 286.932 L 497.588 287.623 L 497.588 291.485 L 498.603 291.485 L 498.603 287.416 L 498.557 286.598 L 498.349 285.917 L 497.669 285.295 L 496.609 285.076 L 496.032 285.157 L 495.536 285.376 L 495.121 285.721 L 494.81 286.194 L 494.81 283.208 L 493.796 283.208 L 493.796 291.485 L 493.796 291.485 z M 502.096 286.367 L 502.096 289.468 L 502.165 290.471 L 502.487 291.162 L 503.133 291.566 L 504.228 291.704 L 505.427 291.647 L 505.427 290.77 L 504.551 290.84 L 503.755 290.747 L 503.329 290.459 L 503.145 289.975 L 503.11 289.295 L 503.11 286.367 L 505.427 286.367 L 505.427 285.502 L 503.11 285.502 L 503.11 283.693 L 502.096 283.693 L 502.096 285.502 L 500.343 285.502 L 500.343 286.367 L 502.096 286.367 L 502.096 286.367 z M 514.43 291.485 L 515.502 291.485 L 515.502 288.108 L 516.597 288.108 L 517.404 288.142 L 517.911 288.304 L 518.188 288.684 L 518.303 289.364 L 518.361 290.402 L 518.43 291.082 L 518.568 291.485 L 519.779 291.485 L 519.779 291.266 L 519.513 290.943 L 519.421 290.344 L 519.341 289.053 L 519.145 288.096 L 518.879 287.796 L 518.464 287.577 L 518.926 287.289 L 519.248 286.886 L 519.456 286.379 L 519.525 285.768 L 519.364 284.799 L 518.902 284.073 L 518.142 283.635 L 517.104 283.485 L 514.43 283.485 L 514.43 291.485 L 514.43 291.485 z M 516.805 284.465 L 517.508 284.534 L 518.003 284.753 L 518.315 285.157 L 518.418 285.791 L 518.303 286.459 L 517.992 286.863 L 517.462 287.07 L 516.735 287.128 L 515.502 287.128 L 515.502 284.465 L 516.805 284.465 L 516.805 284.465 z M 522.441 288.684 L 526.499 288.684 L 526.511 288.211 L 526.326 286.886 L 525.819 285.894 L 525.012 285.295 L 523.94 285.076 L 522.891 285.306 L 522.084 285.952 L 521.565 287.001 L 521.381 288.384 L 521.554 289.802 L 522.073 290.84 L 522.868 291.485 L 523.905 291.704 L 524.805 291.554 L 525.542 291.162 L 526.084 290.54 L 526.395 289.71 L 525.392 289.71 L 525.185 290.171 L 524.885 290.517 L 524.032 290.794 L 523.375 290.667 L 522.879 290.263 L 522.557 289.606 L 522.441 288.719 L 522.441 288.684 L 522.441 288.684 z M 522.441 287.831 L 522.568 287.036 L 522.879 286.448 L 523.352 286.09 L 523.975 285.964 L 524.586 286.09 L 525.058 286.448 L 525.346 287.036 L 525.45 287.831 L 522.441 287.831 L 522.441 287.831 z M 532.171 290.678 L 532.171 290.713 L 532.228 291.105 L 532.401 291.381 L 533.127 291.6 L 533.692 291.508 L 533.692 290.724 L 533.45 290.759 L 533.127 290.609 L 533.07 290.148 L 533.07 286.943 L 532.931 286.125 L 532.528 285.549 L 531.825 285.203 L 530.833 285.076 L 529.865 285.214 L 529.15 285.606 L 528.701 286.217 L 528.551 287.024 L 528.551 287.093 L 529.462 287.093 L 529.542 286.609 L 529.796 286.263 L 530.211 286.056 L 530.799 285.975 L 531.364 286.033 L 531.767 286.206 L 532.009 286.505 L 532.09 286.92 L 532.044 287.404 L 531.859 287.647 L 531.398 287.762 L 530.534 287.854 L 529.542 288.062 L 528.839 288.43 L 528.424 289.007 L 528.297 289.86 L 528.413 290.621 L 528.77 291.185 L 529.346 291.543 L 530.142 291.67 L 531.214 291.428 L 532.171 290.678 L 532.171 290.678 z M 532.055 289.318 L 531.917 289.917 L 531.548 290.379 L 530.995 290.678 L 530.315 290.782 L 529.877 290.724 L 529.565 290.54 L 529.369 290.217 L 529.312 289.768 L 529.358 289.364 L 529.542 289.076 L 530.28 288.753 L 531.214 288.615 L 532.055 288.338 L 532.055 289.318 L 532.055 289.318 z M 535.813 291.485 L 536.828 291.485 L 536.828 287.946 L 536.931 287.093 L 537.243 286.482 L 537.75 286.113 L 538.43 285.987 L 538.937 286.067 L 539.318 286.298 L 539.548 286.69 L 539.629 287.22 L 540.655 287.22 L 540.516 286.286 L 540.136 285.618 L 539.502 285.214 L 538.637 285.076 L 538.05 285.168 L 537.542 285.399 L 537.093 285.791 L 536.735 286.321 L 536.735 285.295 L 535.813 285.295 L 535.813 291.485 L 535.813 291.485 z M 548.943 288.442 L 549.104 289.883 L 549.612 290.909 L 550.465 291.497 L 551.698 291.704 L 552.92 291.497 L 553.773 290.909 L 554.28 289.894 L 554.453 288.442 L 554.453 283.485 L 553.381 283.485 L 553.381 288.5 L 553.277 289.479 L 552.966 290.183 L 552.436 290.598 L 551.698 290.736 L 550.937 290.598 L 550.407 290.183 L 550.096 289.491 L 550.003 288.5 L 550.003 283.485 L 548.943 283.485 L 548.943 288.442 L 548.943 288.442 z M 557.208 286.252 L 557.208 285.295 L 556.194 285.295 L 556.194 293.883 L 557.208 293.883 L 557.208 290.54 L 557.565 291.082 L 557.969 291.439 L 558.983 291.704 L 559.952 291.485 L 560.712 290.828 L 561.208 289.791 L 561.393 288.384 L 561.208 286.99 L 560.712 285.952 L 559.952 285.306 L 558.983 285.076 L 558.43 285.145 L 557.957 285.364 L 557.554 285.733 L 557.208 286.252 L 557.208 286.252 z M 558.81 290.794 L 558.13 290.644 L 557.635 290.183 L 557.323 289.433 L 557.22 288.384 L 557.323 287.347 L 557.635 286.598 L 558.13 286.148 L 558.81 285.987 L 559.433 286.148 L 559.929 286.609 L 560.24 287.358 L 560.355 288.384 L 560.24 289.422 L 559.929 290.183 L 559.433 290.644 L 558.81 290.794 L 558.81 290.794 z M 564.148 286.252 L 564.148 285.295 L 563.133 285.295 L 563.133 293.883 L 564.148 293.883 L 564.148 290.54 L 564.505 291.082 L 564.908 291.439 L 565.923 291.704 L 566.891 291.485 L 567.652 290.828 L 568.148 289.791 L 568.332 288.384 L 568.148 286.99 L 567.652 285.952 L 566.891 285.306 L 565.923 285.076 L 565.37 285.145 L 564.897 285.364 L 564.493 285.733 L 564.148 286.252 L 564.148 286.252 z M 565.75 290.794 L 565.07 290.644 L 564.574 290.183 L 564.263 289.433 L 564.159 288.384 L 564.263 287.347 L 564.574 286.598 L 565.07 286.148 L 565.75 285.987 L 566.372 286.148 L 566.868 286.609 L 567.179 287.358 L 567.295 288.384 L 567.179 289.422 L 566.868 290.183 L 566.372 290.644 L 565.75 290.794 L 565.75 290.794 z M 571.018 288.684 L 575.076 288.684 L 575.087 288.211 L 574.903 286.886 L 574.396 285.894 L 573.589 285.295 L 572.517 285.076 L 571.468 285.306 L 570.661 285.952 L 570.142 287.001 L 569.957 288.384 L 570.13 289.802 L 570.649 290.84 L 571.445 291.485 L 572.482 291.704 L 573.381 291.554 L 574.119 291.162 L 574.661 290.54 L 574.972 289.71 L 573.969 289.71 L 573.762 290.171 L 573.462 290.517 L 572.609 290.794 L 571.952 290.667 L 571.456 290.263 L 571.133 289.606 L 571.018 288.719 L 571.018 288.684 L 571.018 288.684 z M 571.018 287.831 L 571.145 287.036 L 571.456 286.448 L 571.929 286.09 L 572.551 285.964 L 573.162 286.09 L 573.635 286.448 L 573.923 287.036 L 574.027 287.831 L 571.018 287.831 L 571.018 287.831 z M 577.45 291.485 L 578.465 291.485 L 578.465 287.946 L 578.568 287.093 L 578.88 286.482 L 579.387 286.113 L 580.067 285.987 L 580.574 286.067 L 580.955 286.298 L 581.185 286.69 L 581.266 287.22 L 582.292 287.22 L 582.154 286.286 L 581.773 285.618 L 581.139 285.214 L 580.275 285.076 L 579.687 285.168 L 579.179 285.399 L 578.73 285.791 L 578.372 286.321 L 578.372 285.295 L 577.45 285.295 L 577.45 291.485 L 577.45 291.485 z M 589.831 291.485 L 590.891 291.485 L 591.733 289.134 L 594.926 289.134 L 595.767 291.485 L 596.851 291.485 L 593.923 283.474 L 592.747 283.474 L 589.831 291.485 L 589.831 291.485 z M 592.102 288.154 L 593.335 284.626 L 594.569 288.154 L 592.102 288.154 L 592.102 288.154 z M 598.88 288.845 L 601.669 288.845 L 601.669 287.935 L 598.88 287.935 L 598.88 288.845 L 598.88 288.845 z M 603.71 291.485 L 604.77 291.485 L 605.612 289.134 L 608.805 289.134 L 609.646 291.485 L 610.73 291.485 L 607.802 283.474 L 606.626 283.474 L 603.71 291.485 L 603.71 291.485 z M 605.981 288.154 L 607.214 284.626 L 608.448 288.154 L 605.981 288.154 L 605.981 288.154 z M 612.148 291.485 L 613.162 291.485 L 613.162 287.946 L 613.266 287.093 L 613.577 286.482 L 614.084 286.113 L 614.765 285.987 L 615.272 286.067 L 615.652 286.298 L 615.883 286.69 L 615.963 287.22 L 616.989 287.22 L 616.851 286.286 L 616.471 285.618 L 615.837 285.214 L 614.972 285.076 L 614.384 285.168 L 613.877 285.399 L 613.427 285.791 L 613.07 286.321 L 613.07 285.295 L 612.148 285.295 L 612.148 291.485 L 612.148 291.485 z M 618.304 291.485 L 619.237 291.485 L 619.237 287.347 L 619.295 286.724 L 619.468 286.275 L 619.733 286.01 L 620.079 285.906 L 620.355 285.998 L 620.54 286.229 L 620.632 286.621 L 620.667 287.139 L 620.667 291.485 L 621.543 291.485 L 621.543 287.347 L 621.6 286.736 L 621.773 286.286 L 622.05 286.01 L 622.396 285.906 L 622.672 285.998 L 622.857 286.229 L 622.972 287.139 L 622.972 291.485 L 623.906 291.485 L 623.906 287.208 L 623.848 286.321 L 623.664 285.641 L 623.295 285.226 L 622.695 285.076 L 621.992 285.306 L 621.451 285.975 L 621.024 285.318 L 620.309 285.076 L 619.652 285.306 L 619.203 285.952 L 619.203 285.295 L 618.304 285.295 L 618.304 291.485 L 618.304 291.485 z" stroke="none" fill-rule="evenodd" fill="rgb(0, 0, 0)"/></g><g stroke="rgb(0, 0, 0)" stroke-width="0.13" stroke-linecap="butt" stroke-linejoin="miter" fill="none"><path d="M 411.234 36.9636 L 410.83 38.6581 L 410.165 39.8685 L 409.237 40.6149 L 408.147 40.857 L 406.836 40.4938 L 405.807 39.4045 L 405.121 37.6293 L 404.9 35.1682 L 405.121 32.7273 L 405.787 30.9319 L 406.816 29.8426 L 408.147 29.4593 L 409.116 29.661 L 409.943 30.2258 L 410.588 31.1336 L 411.032 32.3843 L 412.949 32.3843 L 412.343 30.468 L 411.294 29.0155 L 409.862 28.1077 L 408.147 27.7849 L 406.009 28.2892 L 404.375 29.7014 L 403.326 32.0212 L 402.963 35.1682 L 403.326 38.3152 L 404.375 40.6351 L 406.009 42.0673 L 408.147 42.5515 L 410.023 42.1682 L 411.536 41.0991 L 412.606 39.344 L 413.17 36.9636 L 411.234 36.9636 L 411.234 36.9636 z M 415.41 36.7619 L 415.732 39.223 L 416.66 41.0385 L 418.133 42.1682 L 420.11 42.5515 L 422.067 42.1682 L 423.539 41.0587 L 424.467 39.2432 L 424.81 36.7619 L 424.467 34.3008 L 423.539 32.465 L 422.067 31.3555 L 420.11 30.9521 L 418.133 31.3555 L 416.66 32.4852 L 415.732 34.3008 L 415.41 36.7619 L 415.41 36.7619 z M 417.225 36.7417 L 417.407 34.9261 L 417.972 33.6149 L 418.879 32.808 L 420.11 32.5256 L 421.32 32.808 L 422.228 33.5947 L 422.793 34.9261 L 422.995 36.7417 L 422.793 38.5775 L 422.228 39.9089 L 421.32 40.7158 L 420.11 40.978 L 418.879 40.7158 L 417.972 39.9089 L 417.407 38.5775 L 417.225 36.7417 L 417.225 36.7417 z M 431.609 29.1769 L 431.609 40.6754 L 427.957 40.6754 L 427.957 42.1682 L 437.015 42.1682 L 437.015 40.6754 L 433.384 40.6754 L 433.384 27.6841 L 428.825 27.6841 L 428.825 29.1769 L 431.609 29.1769 L 431.609 29.1769 z M 443.753 29.1769 L 443.753 40.6754 L 440.101 40.6754 L 440.101 42.1682 L 449.159 42.1682 L 449.159 40.6754 L 445.528 40.6754 L 445.528 27.6841 L 440.969 27.6841 L 440.969 29.1769 L 443.753 29.1769 L 443.753 29.1769 z M 458.802 40.7561 L 458.802 40.8167 L 458.902 41.5025 L 459.205 41.9866 L 460.476 42.3699 L 461.464 42.2086 L 461.464 40.8368 L 461.041 40.8973 L 460.476 40.6351 L 460.375 39.8282 L 460.375 34.2201 L 460.133 32.7878 L 459.427 31.7792 L 458.196 31.174 L 456.462 30.9521 L 454.767 31.1942 L 453.516 31.88 L 452.73 32.9492 L 452.467 34.3613 L 452.467 34.4824 L 454.061 34.4824 L 454.202 33.6351 L 454.646 33.0299 L 455.372 32.6667 L 456.401 32.5256 L 457.39 32.6264 L 458.096 32.929 L 458.519 33.4535 L 458.66 34.1797 L 458.58 35.027 L 458.257 35.4506 L 457.45 35.6523 L 455.937 35.8137 L 454.202 36.1769 L 452.972 36.8224 L 452.245 37.8311 L 452.024 39.3239 L 452.225 40.6553 L 452.851 41.6437 L 453.859 42.2691 L 455.251 42.491 L 457.127 42.0673 L 458.802 40.7561 L 458.802 40.7561 z M 458.6 38.3757 L 458.358 39.4247 L 457.712 40.2316 L 456.744 40.7561 L 455.554 40.9377 L 454.787 40.8368 L 454.243 40.514 L 453.9 39.9492 L 453.799 39.1625 L 453.879 38.4564 L 454.202 37.9521 L 455.493 37.3872 L 457.127 37.1451 L 458.6 36.661 L 458.6 38.3757 L 458.6 38.3757 z M 472.943 41.6841 L 472.943 31.3354 L 471.248 31.3354 L 471.248 33.0904 L 469.856 31.4968 L 469.009 31.0933 L 468.061 30.9521 L 466.346 31.3555 L 465.015 32.4852 L 464.147 34.3008 L 463.845 36.7417 L 464.147 39.2028 L 465.015 41.0184 L 466.346 42.1682 L 468.061 42.5515 L 469.029 42.4103 L 469.836 42.0472 L 471.248 40.514 L 471.248 42.0472 L 471.087 43.2576 L 470.643 44.125 L 469.796 44.6293 L 468.525 44.8109 L 467.415 44.6898 L 466.629 44.3872 L 466.165 43.8627 L 466.024 43.1567 L 464.309 43.1567 L 464.309 43.2374 L 464.571 44.5284 L 465.378 45.4968 L 466.669 46.1221 L 468.424 46.344 L 470.522 46.0414 L 471.914 45.1942 L 472.701 43.7215 L 472.943 41.6841 L 472.943 41.6841 z M 465.681 36.7417 L 465.862 34.9463 L 466.407 33.6149 L 467.254 32.8282 L 468.384 32.5457 L 469.574 32.8282 L 470.462 33.6149 L 471.006 34.9463 L 471.208 36.7417 L 471.006 38.5775 L 470.462 39.8887 L 469.574 40.6956 L 468.384 40.9578 L 467.254 40.6956 L 466.407 39.8887 L 465.862 38.5573 L 465.681 36.7417 L 465.681 36.7417 z M 478.208 37.2662 L 485.309 37.2662 L 485.329 36.4391 L 485.006 34.1192 L 484.119 32.3843 L 482.707 31.3354 L 480.83 30.9521 L 478.995 31.3555 L 477.583 32.4852 L 476.675 34.3209 L 476.352 36.7417 L 476.655 39.223 L 477.562 41.0385 L 478.954 42.1682 L 480.77 42.5515 L 482.343 42.2892 L 483.634 41.6034 L 484.583 40.514 L 485.127 39.0616 L 483.372 39.0616 L 483.009 39.8685 L 482.485 40.4737 L 480.992 40.9578 L 479.842 40.736 L 478.975 40.0299 L 478.41 38.88 L 478.208 37.3267 L 478.208 37.2662 L 478.208 37.2662 z M 478.208 35.7734 L 478.43 34.3815 L 478.975 33.3527 L 479.802 32.7273 L 480.891 32.5054 L 481.96 32.7273 L 482.787 33.3527 L 483.292 34.3815 L 483.473 35.7734 L 478.208 35.7734 L 478.208 35.7734 z M 504.191 42.1682 L 506.047 42.1682 L 506.047 29.8627 L 510.283 29.8627 L 510.283 28.1682 L 499.934 28.1682 L 499.934 29.8627 L 504.191 29.8627 L 504.191 42.1682 L 504.191 42.1682 z M 521.439 31.3354 L 519.663 31.3354 L 519.663 37.589 L 519.462 39.0414 L 518.877 40.0904 L 517.969 40.736 L 516.779 40.9377 L 515.831 40.7763 L 515.225 40.2921 L 514.882 39.465 L 514.802 38.295 L 514.802 31.3354 L 513.026 31.3354 L 513.026 38.4564 L 513.087 39.8887 L 513.47 41.0789 L 514.64 42.1682 L 516.516 42.5515 L 517.525 42.4103 L 518.392 42.0472 L 519.139 41.4218 L 519.744 40.514 L 519.744 42.1682 L 521.439 42.1682 L 521.439 31.3354 L 521.439 31.3354 z M 526.905 40.4938 L 528.217 42.0472 L 530.012 42.5515 L 531.707 42.1682 L 533.058 41.0184 L 533.905 39.1826 L 534.228 36.7417 L 533.905 34.3008 L 533.038 32.4852 L 531.707 31.3555 L 530.012 30.9521 L 528.237 31.4766 L 527.511 32.1221 L 526.905 32.9896 L 526.905 27.6841 L 525.13 27.6841 L 525.13 42.1682 L 526.905 42.1682 L 526.905 40.4938 L 526.905 40.4938 z M 532.413 36.7417 L 532.211 38.5573 L 531.666 39.8887 L 530.799 40.6956 L 529.709 40.9578 L 528.519 40.6956 L 527.652 39.8887 L 527.107 38.5775 L 526.926 36.7417 L 527.107 34.9261 L 527.652 33.6149 L 528.519 32.8282 L 529.709 32.5457 L 530.799 32.8282 L 531.666 33.6351 L 532.211 34.9463 L 532.413 36.7417 L 532.413 36.7417 z M 538.929 37.2662 L 546.029 37.2662 L 546.05 36.4391 L 545.727 34.1192 L 544.839 32.3843 L 543.427 31.3354 L 541.551 30.9521 L 539.715 31.3555 L 538.303 32.4852 L 537.395 34.3209 L 537.073 36.7417 L 537.375 39.223 L 538.283 41.0385 L 539.675 42.1682 L 541.49 42.5515 L 543.064 42.2892 L 544.355 41.6034 L 545.303 40.514 L 545.848 39.0616 L 544.093 39.0616 L 543.73 39.8685 L 543.205 40.4737 L 541.712 40.9578 L 540.563 40.736 L 539.695 40.0299 L 539.13 38.88 L 538.929 37.3267 L 538.929 37.2662 L 538.929 37.2662 z M 538.929 35.7734 L 539.15 34.3815 L 539.695 33.3527 L 540.522 32.7273 L 541.612 32.5054 L 542.681 32.7273 L 543.508 33.3527 L 544.012 34.3815 L 544.194 35.7734 L 538.929 35.7734 L 538.929 35.7734 z M 554.825 35.8541 L 553.11 35.4506 L 551.839 34.9866 L 551.416 34.0385 L 551.537 33.3728 L 551.96 32.8887 L 552.646 32.5861 L 553.635 32.465 L 554.583 32.5861 L 555.329 32.9492 L 555.813 33.4938 L 556.015 34.2201 L 557.75 34.2201 L 557.75 34.1797 L 557.447 32.8685 L 556.62 31.8397 L 555.329 31.1942 L 553.635 30.9521 L 551.92 31.1942 L 550.669 31.8599 L 549.882 32.8483 L 549.64 34.0991 L 549.822 35.3094 L 550.387 36.1567 L 551.315 36.7619 L 552.666 37.1855 L 554.643 37.6697 L 555.854 38.174 L 556.176 38.5775 L 556.297 39.1826 L 556.116 39.929 L 555.632 40.4938 L 554.845 40.857 L 553.796 40.978 L 552.686 40.857 L 551.88 40.4333 L 551.335 39.7474 L 551.113 38.7993 L 549.398 38.7993 L 549.681 40.4131 L 550.508 41.5832 L 551.819 42.2892 L 553.635 42.5515 L 555.531 42.2892 L 556.923 41.5832 L 557.77 40.4535 L 558.073 38.9809 L 557.851 37.71 L 557.225 36.8426 L 556.197 36.2777 L 554.825 35.8541 L 554.825 35.8541 z M 581.251 36.9636 L 580.848 38.6581 L 580.182 39.8685 L 579.254 40.6149 L 578.165 40.857 L 576.854 40.4938 L 575.825 39.4045 L 575.139 37.6293 L 574.917 35.1682 L 575.139 32.7273 L 575.805 30.9319 L 576.833 29.8426 L 578.165 29.4593 L 579.133 29.661 L 579.96 30.2258 L 580.606 31.1336 L 581.05 32.3843 L 582.966 32.3843 L 582.361 30.468 L 581.312 29.0155 L 579.88 28.1077 L 578.165 27.7849 L 576.027 28.2892 L 574.393 29.7014 L 573.344 32.0212 L 572.98 35.1682 L 573.344 38.3152 L 574.393 40.6351 L 576.027 42.0673 L 578.165 42.5515 L 580.041 42.1682 L 581.554 41.0991 L 582.623 39.344 L 583.188 36.9636 L 581.251 36.9636 L 581.251 36.9636 z M 592.387 40.7561 L 592.387 40.8167 L 592.488 41.5025 L 592.79 41.9866 L 594.061 42.3699 L 595.05 42.2086 L 595.05 40.8368 L 594.626 40.8973 L 594.061 40.6351 L 593.96 39.8282 L 593.96 34.2201 L 593.718 32.7878 L 593.012 31.7792 L 591.782 31.174 L 590.047 30.9521 L 588.352 31.1942 L 587.101 31.88 L 586.315 32.9492 L 586.052 34.3613 L 586.052 34.4824 L 587.646 34.4824 L 587.787 33.6351 L 588.231 33.0299 L 588.957 32.6667 L 589.986 32.5256 L 590.975 32.6264 L 591.681 32.929 L 592.104 33.4535 L 592.246 34.1797 L 592.165 35.027 L 591.842 35.4506 L 591.035 35.6523 L 589.522 35.8137 L 587.787 36.1769 L 586.557 36.8224 L 585.831 37.8311 L 585.609 39.3239 L 585.81 40.6553 L 586.436 41.6437 L 587.444 42.2691 L 588.836 42.491 L 590.712 42.0673 L 592.387 40.7561 L 592.387 40.7561 z M 592.185 38.3757 L 591.943 39.4247 L 591.297 40.2316 L 590.329 40.7561 L 589.139 40.9377 L 588.372 40.8368 L 587.828 40.514 L 587.485 39.9492 L 587.384 39.1625 L 587.465 38.4564 L 587.787 37.9521 L 589.078 37.3872 L 590.712 37.1451 L 592.185 36.661 L 592.185 38.3757 L 592.185 38.3757 z M 598.761 42.1682 L 600.537 42.1682 L 600.537 35.9752 L 600.718 34.4824 L 601.263 33.4131 L 602.15 32.7676 L 603.341 32.5457 L 604.228 32.687 L 604.894 33.0904 L 605.297 33.7763 L 605.439 34.7042 L 607.234 34.7042 L 606.992 33.0703 L 606.326 31.9002 L 605.217 31.1942 L 603.704 30.9521 L 602.675 31.1135 L 601.787 31.5169 L 601.001 32.2028 L 600.375 33.1307 L 600.375 31.3354 L 598.761 31.3354 L 598.761 42.1682 L 598.761 42.1682 z M 611.914 40.4938 L 613.225 42.0472 L 615.021 42.5515 L 616.715 42.1682 L 618.067 41.0184 L 618.914 39.1826 L 619.237 36.7417 L 618.914 34.3008 L 618.047 32.4852 L 616.715 31.3555 L 615.021 30.9521 L 613.246 31.4766 L 612.519 32.1221 L 611.914 32.9896 L 611.914 27.6841 L 610.139 27.6841 L 610.139 42.1682 L 611.914 42.1682 L 611.914 40.4938 L 611.914 40.4938 z M 617.421 36.7417 L 617.22 38.5573 L 616.675 39.8887 L 615.808 40.6956 L 614.718 40.9578 L 613.528 40.6956 L 612.661 39.8887 L 612.116 38.5775 L 611.934 36.7417 L 612.116 34.9261 L 612.661 33.6149 L 613.528 32.8282 L 614.718 32.5457 L 615.808 32.8282 L 616.675 33.6351 L 617.22 34.9463 L 617.421 36.7417 L 617.421 36.7417 z M 621.859 36.7619 L 622.182 39.223 L 623.11 41.0385 L 624.583 42.1682 L 626.56 42.5515 L 628.516 42.1682 L 629.989 41.0587 L 630.917 39.2432 L 631.26 36.7619 L 630.917 34.3008 L 629.989 32.465 L 628.516 31.3555 L 626.56 30.9521 L 624.583 31.3555 L 623.11 32.4852 L 622.182 34.3008 L 621.859 36.7619 L 621.859 36.7619 z M 623.675 36.7417 L 623.857 34.9261 L 624.421 33.6149 L 625.329 32.808 L 626.56 32.5256 L 627.77 32.808 L 628.678 33.5947 L 629.243 34.9261 L 629.444 36.7417 L 629.243 38.5775 L 628.678 39.9089 L 627.77 40.7158 L 626.56 40.978 L 625.329 40.7158 L 624.421 39.9089 L 623.857 38.5775 L 623.675 36.7417 L 623.675 36.7417 z M 634.528 42.1682 L 636.303 42.1682 L 636.303 35.9146 L 636.485 34.4824 L 637.07 33.4333 L 637.978 32.7878 L 639.188 32.5457 L 640.156 32.7474 L 640.761 33.2921 L 641.064 34.1999 L 641.165 35.4103 L 641.165 42.1682 L 642.94 42.1682 L 642.94 35.0472 L 642.859 33.6149 L 642.496 32.4247 L 641.306 31.3354 L 639.45 30.9521 L 638.421 31.0933 L 637.554 31.4766 L 636.808 32.1221 L 636.223 32.9896 L 636.223 31.3354 L 634.528 31.3354 L 634.528 42.1682 L 634.528 42.1682 z M 648.225 37.2662 L 655.326 37.2662 L 655.346 36.4391 L 655.024 34.1192 L 654.136 32.3843 L 652.724 31.3354 L 650.848 30.9521 L 649.012 31.3555 L 647.6 32.4852 L 646.692 34.3209 L 646.37 36.7417 L 646.672 39.223 L 647.58 41.0385 L 648.972 42.1682 L 650.787 42.5515 L 652.361 42.2892 L 653.652 41.6034 L 654.6 40.514 L 655.145 39.0616 L 653.39 39.0616 L 653.027 39.8685 L 652.502 40.4737 L 651.009 40.9578 L 649.859 40.736 L 648.992 40.0299 L 648.427 38.88 L 648.225 37.3267 L 648.225 37.2662 L 648.225 37.2662 z M 648.225 35.7734 L 648.447 34.3815 L 648.992 33.3527 L 649.819 32.7273 L 650.908 32.5054 L 651.978 32.7273 L 652.805 33.3527 L 653.309 34.3815 L 653.491 35.7734 L 648.225 35.7734 L 648.225 35.7734 z M 672.695 37.5486 L 677.577 37.5486 L 677.577 35.955 L 672.695 35.955 L 672.695 37.5486 L 672.695 37.5486 z M 694.926 42.1682 L 696.802 42.1682 L 696.802 36.2576 L 698.718 36.2576 L 700.13 36.3181 L 701.018 36.6005 L 701.502 37.2662 L 701.704 38.4564 L 701.805 40.272 L 701.926 41.4622 L 702.168 42.1682 L 704.286 42.1682 L 704.286 41.7849 L 703.822 41.2201 L 703.661 40.1711 L 703.519 37.9117 L 703.177 36.2374 L 702.713 35.7129 L 701.986 35.3296 L 702.793 34.8253 L 703.358 34.1192 L 703.721 33.2316 L 703.842 32.1625 L 703.56 30.468 L 702.753 29.197 L 701.421 28.4305 L 699.606 28.1682 L 694.926 28.1682 L 694.926 42.1682 L 694.926 42.1682 z M 699.081 29.8829 L 700.312 30.004 L 701.179 30.3872 L 701.724 31.0933 L 701.906 32.2028 L 701.704 33.3728 L 701.159 34.0789 L 700.231 34.442 L 698.96 34.5428 L 696.802 34.5428 L 696.802 29.8829 L 699.081 29.8829 L 699.081 29.8829 z M 706.868 36.7619 L 707.191 39.223 L 708.119 41.0385 L 709.591 42.1682 L 711.568 42.5515 L 713.525 42.1682 L 714.998 41.0587 L 715.926 39.2432 L 716.269 36.7619 L 715.926 34.3008 L 714.998 32.465 L 713.525 31.3555 L 711.568 30.9521 L 709.591 31.3555 L 708.119 32.4852 L 707.191 34.3008 L 706.868 36.7619 L 706.868 36.7619 z M 708.684 36.7417 L 708.865 34.9261 L 709.43 33.6149 L 710.338 32.808 L 711.568 32.5256 L 712.779 32.808 L 713.687 33.5947 L 714.251 34.9261 L 714.453 36.7417 L 714.251 38.5775 L 713.687 39.9089 L 712.779 40.7158 L 711.568 40.978 L 710.338 40.7158 L 709.43 39.9089 L 708.865 38.5775 L 708.684 36.7417 L 708.684 36.7417 z M 727.888 31.3354 L 726.113 31.3354 L 726.113 37.589 L 725.911 39.0414 L 725.326 40.0904 L 724.419 40.736 L 723.228 40.9377 L 722.28 40.7763 L 721.675 40.2921 L 721.332 39.465 L 721.251 38.295 L 721.251 31.3354 L 719.476 31.3354 L 719.476 38.4564 L 719.537 39.8887 L 719.92 41.0789 L 721.09 42.1682 L 722.966 42.5515 L 723.975 42.4103 L 724.842 42.0472 L 725.589 41.4218 L 726.194 40.514 L 726.194 42.1682 L 727.888 42.1682 L 727.888 31.3354 L 727.888 31.3354 z M 733.234 37.2662 L 740.335 37.2662 L 740.355 36.4391 L 740.032 34.1192 L 739.145 32.3843 L 737.733 31.3354 L 735.857 30.9521 L 734.021 31.3555 L 732.609 32.4852 L 731.701 34.3209 L 731.378 36.7417 L 731.681 39.223 L 732.589 41.0385 L 733.981 42.1682 L 735.796 42.5515 L 737.37 42.2892 L 738.661 41.6034 L 739.609 40.514 L 740.154 39.0616 L 738.398 39.0616 L 738.035 39.8685 L 737.511 40.4737 L 736.018 40.9578 L 734.868 40.736 L 734.001 40.0299 L 733.436 38.88 L 733.234 37.3267 L 733.234 37.2662 L 733.234 37.2662 z M 733.234 35.7734 L 733.456 34.3815 L 734.001 33.3527 L 734.828 32.7273 L 735.917 32.5054 L 736.986 32.7273 L 737.813 33.3527 L 738.318 34.3815 L 738.499 35.7734 L 733.234 35.7734 L 733.234 35.7734 z M 754.012 42.1682 L 755.868 42.1682 L 757.341 38.0529 L 762.929 38.0529 L 764.401 42.1682 L 766.298 42.1682 L 761.174 28.1481 L 759.116 28.1481 L 754.012 42.1682 L 754.012 42.1682 z M 757.986 36.3383 L 760.145 30.1653 L 762.303 36.3383 L 757.986 36.3383 L 757.986 36.3383 z M 768.779 42.1682 L 770.554 42.1682 L 770.554 35.9752 L 770.736 34.4824 L 771.28 33.4131 L 772.168 32.7676 L 773.358 32.5457 L 774.246 32.687 L 774.911 33.0904 L 775.315 33.7763 L 775.456 34.7042 L 777.252 34.7042 L 777.009 33.0703 L 776.344 31.9002 L 775.234 31.1942 L 773.721 30.9521 L 772.692 31.1135 L 771.805 31.5169 L 771.018 32.2028 L 770.393 33.1307 L 770.393 31.3354 L 768.779 31.3354 L 768.779 42.1682 L 768.779 42.1682 z M 780.923 42.1682 L 782.698 42.1682 L 782.698 35.9752 L 782.88 34.4824 L 783.424 33.4131 L 784.312 32.7676 L 785.502 32.5457 L 786.39 32.687 L 787.056 33.0904 L 787.459 33.7763 L 787.6 34.7042 L 789.396 34.7042 L 789.154 33.0703 L 788.488 31.9002 L 787.378 31.1942 L 785.865 30.9521 L 784.837 31.1135 L 783.949 31.5169 L 783.162 32.2028 L 782.537 33.1307 L 782.537 31.3354 L 780.923 31.3354 L 780.923 42.1682 L 780.923 42.1682 z M 797.828 40.6754 L 797.828 31.6985 L 793.269 31.6985 L 793.269 33.2114 L 796.053 33.2114 L 796.053 40.6754 L 792.422 40.6754 L 792.422 42.1682 L 801.499 42.1682 L 801.499 40.6754 L 797.828 40.6754 L 797.828 40.6754 z M 797.888 27.6841 L 796.012 27.6841 L 796.012 29.7014 L 797.888 29.7014 L 797.888 27.6841 L 797.888 27.6841 z M 810.154 29.8627 L 808.136 26.4333 L 806.159 26.4333 L 808.963 29.8627 L 810.154 29.8627 L 810.154 29.8627 z M 806.099 37.2662 L 813.2 37.2662 L 813.22 36.4391 L 812.897 34.1192 L 812.009 32.3843 L 810.597 31.3354 L 808.721 30.9521 L 806.886 31.3555 L 805.473 32.4852 L 804.566 34.3209 L 804.243 36.7417 L 804.545 39.223 L 805.453 41.0385 L 806.845 42.1682 L 808.661 42.5515 L 810.234 42.2892 L 811.525 41.6034 L 812.473 40.514 L 813.018 39.0616 L 811.263 39.0616 L 810.9 39.8685 L 810.375 40.4737 L 808.883 40.9578 L 807.733 40.736 L 806.865 40.0299 L 806.301 38.88 L 806.099 37.3267 L 806.099 37.2662 L 806.099 37.2662 z M 806.099 35.7734 L 806.321 34.3815 L 806.865 33.3527 L 807.692 32.7273 L 808.782 32.5054 L 809.851 32.7273 L 810.678 33.3527 L 811.182 34.3815 L 811.364 35.7734 L 806.099 35.7734 L 806.099 35.7734 z M 817.355 42.1682 L 819.13 42.1682 L 819.13 35.9752 L 819.312 34.4824 L 819.857 33.4131 L 820.744 32.7676 L 821.935 32.5457 L 822.822 32.687 L 823.488 33.0904 L 823.891 33.7763 L 824.033 34.7042 L 825.828 34.7042 L 825.586 33.0703 L 824.92 31.9002 L 823.811 31.1942 L 822.298 30.9521 L 821.269 31.1135 L 820.381 31.5169 L 819.594 32.2028 L 818.969 33.1307 L 818.969 31.3354 L 817.355 31.3354 L 817.355 42.1682 L 817.355 42.1682 z M 830.387 37.2662 L 837.488 37.2662 L 837.508 36.4391 L 837.185 34.1192 L 836.298 32.3843 L 834.886 31.3354 L 833.009 30.9521 L 831.174 31.3555 L 829.762 32.4852 L 828.854 34.3209 L 828.531 36.7417 L 828.834 39.223 L 829.741 41.0385 L 831.133 42.1682 L 832.949 42.5515 L 834.522 42.2892 L 835.814 41.6034 L 836.762 40.514 L 837.306 39.0616 L 835.551 39.0616 L 835.188 39.8685 L 834.664 40.4737 L 833.171 40.9578 L 832.021 40.736 L 831.154 40.0299 L 830.589 38.88 L 830.387 37.3267 L 830.387 37.2662 L 830.387 37.2662 z M 830.387 35.7734 L 830.609 34.3815 L 831.154 33.3527 L 831.981 32.7273 L 833.07 32.5054 L 834.139 32.7273 L 834.966 33.3527 L 835.471 34.3815 L 835.652 35.7734 L 830.387 35.7734 L 830.387 35.7734 z M 857.278 28.1682 L 852.618 28.1682 L 852.618 42.1682 L 857.278 42.1682 L 859.476 41.7244 L 861.11 40.3728 L 862.119 38.174 L 862.482 35.1682 L 862.159 32.1019 L 861.756 30.8915 L 861.191 29.9233 L 859.557 28.612 L 858.488 28.2892 L 857.278 28.1682 L 857.278 28.1682 z M 857.136 29.8426 L 858.669 30.1451 L 859.718 31.0731 L 860.344 32.7273 L 860.546 35.1682 L 860.324 37.5284 L 859.698 39.1826 L 858.629 40.1711 L 857.136 40.4938 L 854.494 40.4938 L 854.494 29.8426 L 857.136 29.8426 L 857.136 29.8426 z M 865.932 42.1682 L 867.707 42.1682 L 867.707 35.9752 L 867.888 34.4824 L 868.433 33.4131 L 869.321 32.7676 L 870.511 32.5457 L 871.399 32.687 L 872.064 33.0904 L 872.468 33.7763 L 872.609 34.7042 L 874.404 34.7042 L 874.162 33.0703 L 873.497 31.9002 L 872.387 31.1942 L 870.874 30.9521 L 869.845 31.1135 L 868.958 31.5169 L 868.171 32.2028 L 867.546 33.1307 L 867.546 31.3354 L 865.932 31.3354 L 865.932 42.1682 L 865.932 42.1682 z M 876.886 36.7619 L 877.208 39.223 L 878.136 41.0385 L 879.609 42.1682 L 881.586 42.5515 L 883.543 42.1682 L 885.015 41.0587 L 885.943 39.2432 L 886.286 36.7619 L 885.943 34.3008 L 885.015 32.465 L 883.543 31.3555 L 881.586 30.9521 L 879.609 31.3555 L 878.136 32.4852 L 877.208 34.3008 L 876.886 36.7619 L 876.886 36.7619 z M 878.701 36.7417 L 878.883 34.9261 L 879.448 33.6149 L 880.355 32.808 L 881.586 32.5256 L 882.796 32.808 L 883.704 33.5947 L 884.269 34.9261 L 884.471 36.7417 L 884.269 38.5775 L 883.704 39.9089 L 882.796 40.7158 L 881.586 40.978 L 880.355 40.7158 L 879.448 39.9089 L 878.883 38.5775 L 878.701 36.7417 L 878.701 36.7417 z M 894.981 40.6754 L 894.981 31.6985 L 890.422 31.6985 L 890.422 33.2114 L 893.206 33.2114 L 893.206 40.6754 L 889.574 40.6754 L 889.574 42.1682 L 898.652 42.1682 L 898.652 40.6754 L 894.981 40.6754 L 894.981 40.6754 z M 895.041 27.6841 L 893.165 27.6841 L 893.165 29.7014 L 895.041 29.7014 L 895.041 27.6841 L 895.041 27.6841 z M 904.079 33.2114 L 904.079 38.6379 L 904.2 40.393 L 904.765 41.6034 L 905.894 42.3094 L 907.811 42.5515 L 909.909 42.4506 L 909.909 40.9175 L 908.376 41.0385 L 906.984 40.8771 L 906.237 40.3728 L 905.914 39.5256 L 905.854 38.3354 L 905.854 33.2114 L 909.909 33.2114 L 909.909 31.6985 L 905.854 31.6985 L 905.854 28.5313 L 904.079 28.5313 L 904.079 31.6985 L 901.012 31.6985 L 901.012 33.2114 L 904.079 33.2114 L 904.079 33.2114 z M 915.396 37.2662 L 922.497 37.2662 L 922.517 36.4391 L 922.194 34.1192 L 921.306 32.3843 L 919.894 31.3354 L 918.018 30.9521 L 916.182 31.3555 L 914.77 32.4852 L 913.863 34.3209 L 913.54 36.7417 L 913.842 39.223 L 914.75 41.0385 L 916.142 42.1682 L 917.958 42.5515 L 919.531 42.2892 L 920.822 41.6034 L 921.77 40.514 L 922.315 39.0616 L 920.56 39.0616 L 920.197 39.8685 L 919.672 40.4737 L 918.18 40.9578 L 917.03 40.736 L 916.162 40.0299 L 915.597 38.88 L 915.396 37.3267 L 915.396 37.2662 L 915.396 37.2662 z M 915.396 35.7734 L 915.618 34.3815 L 916.162 33.3527 L 916.989 32.7273 L 918.079 32.5054 L 919.148 32.7273 L 919.975 33.3527 L 920.479 34.3815 L 920.661 35.7734 L 915.396 35.7734 L 915.396 35.7734 z" stroke="none" fill-rule="evenodd" fill="rgb(0, 0, 0)"/></g><g stroke="rgb(0, 0, 0)" stroke-width="0.13" stroke-linecap="butt" stroke-linejoin="miter" fill="none"><path d="M 674.833 493.843 L 675.894 493.843 L 675.894 486.811 L 678.315 486.811 L 678.315 485.843 L 672.401 485.843 L 672.401 486.811 L 674.833 486.811 L 674.833 493.843 L 674.833 493.843 z M 680.297 493.843 L 681.312 493.843 L 681.312 490.304 L 681.415 489.451 L 681.727 488.84 L 682.234 488.471 L 682.914 488.344 L 683.421 488.425 L 683.802 488.655 L 684.032 489.047 L 684.113 489.577 L 685.139 489.577 L 685 488.644 L 684.62 487.975 L 683.986 487.572 L 683.122 487.433 L 682.534 487.526 L 682.026 487.756 L 681.577 488.148 L 681.219 488.678 L 681.219 487.652 L 680.297 487.652 L 680.297 493.843 L 680.297 493.843 z M 689.957 492.99 L 689.957 487.86 L 687.352 487.86 L 687.352 488.724 L 688.943 488.724 L 688.943 492.99 L 686.868 492.99 L 686.868 493.843 L 692.055 493.843 L 692.055 492.99 L 689.957 492.99 L 689.957 492.99 z M 689.992 485.566 L 688.92 485.566 L 688.92 486.719 L 689.992 486.719 L 689.992 485.566 L 689.992 485.566 z M 697.473 493.036 L 697.473 493.07 L 697.531 493.462 L 697.704 493.739 L 698.43 493.958 L 698.995 493.866 L 698.995 493.082 L 698.753 493.116 L 698.43 492.967 L 698.372 492.505 L 698.372 489.301 L 698.234 488.482 L 697.831 487.906 L 697.127 487.56 L 696.136 487.433 L 695.168 487.572 L 694.453 487.964 L 694.003 488.575 L 693.854 489.382 L 693.854 489.451 L 694.764 489.451 L 694.845 488.966 L 695.099 488.621 L 695.513 488.413 L 696.101 488.332 L 696.666 488.39 L 697.07 488.563 L 697.312 488.863 L 697.392 489.278 L 697.346 489.762 L 697.162 490.004 L 696.701 490.119 L 695.836 490.211 L 694.845 490.419 L 694.142 490.788 L 693.727 491.364 L 693.6 492.217 L 693.715 492.978 L 694.073 493.543 L 694.649 493.9 L 695.444 494.027 L 696.516 493.785 L 697.473 493.036 L 697.473 493.036 z M 697.358 491.675 L 697.22 492.275 L 696.851 492.736 L 696.297 493.036 L 695.617 493.139 L 695.179 493.082 L 694.868 492.897 L 694.672 492.575 L 694.614 492.125 L 694.66 491.722 L 694.845 491.433 L 695.583 491.111 L 696.516 490.972 L 697.358 490.696 L 697.358 491.675 L 697.358 491.675 z M 700.735 493.843 L 701.75 493.843 L 701.75 490.269 L 701.854 489.451 L 702.188 488.851 L 702.707 488.482 L 703.398 488.344 L 703.952 488.459 L 704.297 488.771 L 704.47 489.289 L 704.528 489.981 L 704.528 493.843 L 705.542 493.843 L 705.542 489.773 L 705.496 488.955 L 705.289 488.275 L 704.609 487.652 L 703.548 487.433 L 702.96 487.514 L 702.465 487.733 L 702.038 488.102 L 701.704 488.598 L 701.704 487.652 L 700.735 487.652 L 700.735 493.843 L 700.735 493.843 z M 712.493 493.566 L 712.493 487.652 L 711.525 487.652 L 711.525 488.655 L 710.73 487.745 L 710.246 487.514 L 709.704 487.433 L 708.724 487.664 L 707.963 488.309 L 707.467 489.347 L 707.295 490.742 L 707.467 492.148 L 707.963 493.186 L 708.724 493.843 L 709.704 494.062 L 710.257 493.981 L 710.718 493.773 L 711.525 492.897 L 711.525 493.773 L 711.433 494.465 L 711.179 494.961 L 710.695 495.249 L 709.969 495.353 L 709.335 495.284 L 708.885 495.111 L 708.62 494.811 L 708.539 494.407 L 707.56 494.407 L 707.56 494.454 L 707.71 495.191 L 708.171 495.745 L 708.908 496.102 L 709.911 496.229 L 711.11 496.056 L 711.906 495.572 L 712.355 494.73 L 712.493 493.566 L 712.493 493.566 z M 708.344 490.742 L 708.447 489.716 L 708.759 488.955 L 709.243 488.505 L 709.888 488.344 L 710.568 488.505 L 711.076 488.955 L 711.387 489.716 L 711.502 490.742 L 711.387 491.791 L 711.076 492.54 L 710.568 493.001 L 709.888 493.151 L 709.243 493.001 L 708.759 492.54 L 708.447 491.779 L 708.344 490.742 L 708.344 490.742 z M 716.632 486.419 L 716.632 492.99 L 714.545 492.99 L 714.545 493.843 L 719.721 493.843 L 719.721 492.99 L 717.646 492.99 L 717.646 485.566 L 715.041 485.566 L 715.041 486.419 L 716.632 486.419 L 716.632 486.419 z M 722.442 491.041 L 726.499 491.041 L 726.511 490.569 L 726.326 489.243 L 725.819 488.252 L 725.012 487.652 L 723.94 487.433 L 722.891 487.664 L 722.084 488.309 L 721.565 489.358 L 721.381 490.742 L 721.554 492.16 L 722.073 493.197 L 722.868 493.843 L 723.906 494.062 L 724.805 493.912 L 725.542 493.52 L 726.084 492.897 L 726.396 492.067 L 725.393 492.067 L 725.185 492.528 L 724.885 492.874 L 724.032 493.151 L 723.375 493.024 L 722.88 492.621 L 722.557 491.964 L 722.442 491.076 L 722.442 491.041 L 722.442 491.041 z M 722.442 490.188 L 722.568 489.393 L 722.88 488.805 L 723.352 488.448 L 723.975 488.321 L 724.586 488.448 L 725.058 488.805 L 725.346 489.393 L 725.45 490.188 L 722.442 490.188 L 722.442 490.188 z M 739.26 489.52 L 740.067 488.851 L 740.275 488.402 L 740.344 487.848 L 740.194 486.984 L 739.744 486.361 L 739.018 485.981 L 738.004 485.843 L 735.156 485.843 L 735.156 493.843 L 738.165 493.843 L 739.237 493.681 L 740.032 493.209 L 740.528 492.459 L 740.701 491.445 L 740.597 490.765 L 740.321 490.2 L 739.871 489.785 L 739.26 489.52 L 739.26 489.52 z M 737.785 489.162 L 736.217 489.162 L 736.217 486.799 L 737.877 486.799 L 738.499 486.868 L 738.937 487.076 L 739.202 487.433 L 739.295 487.964 L 739.191 488.494 L 738.914 488.863 L 738.442 489.093 L 737.785 489.162 L 737.785 489.162 z M 738.038 492.886 L 736.217 492.886 L 736.217 490.131 L 737.934 490.131 L 738.661 490.211 L 739.179 490.454 L 739.491 490.869 L 739.594 491.468 L 739.491 492.102 L 739.202 492.54 L 738.718 492.805 L 738.038 492.886 L 738.038 492.886 z M 746.05 493.036 L 746.05 493.07 L 746.107 493.462 L 746.28 493.739 L 747.007 493.958 L 747.571 493.866 L 747.571 493.082 L 747.329 493.116 L 747.007 492.967 L 746.949 492.505 L 746.949 489.301 L 746.811 488.482 L 746.407 487.906 L 745.704 487.56 L 744.713 487.433 L 743.744 487.572 L 743.03 487.964 L 742.58 488.575 L 742.43 489.382 L 742.43 489.451 L 743.341 489.451 L 743.422 488.966 L 743.675 488.621 L 744.09 488.413 L 744.678 488.332 L 745.243 488.39 L 745.646 488.563 L 745.888 488.863 L 745.969 489.278 L 745.923 489.762 L 745.739 490.004 L 745.277 490.119 L 744.413 490.211 L 743.422 490.419 L 742.718 490.788 L 742.303 491.364 L 742.177 492.217 L 742.292 492.978 L 742.649 493.543 L 743.226 493.9 L 744.021 494.027 L 745.093 493.785 L 746.05 493.036 L 746.05 493.036 z M 745.935 491.675 L 745.796 492.275 L 745.427 492.736 L 744.874 493.036 L 744.194 493.139 L 743.756 493.082 L 743.445 492.897 L 743.249 492.575 L 743.191 492.125 L 743.237 491.722 L 743.422 491.433 L 744.159 491.111 L 745.093 490.972 L 745.935 490.696 L 745.935 491.675 L 745.935 491.675 z M 752.344 490.235 L 751.364 490.004 L 750.638 489.739 L 750.396 489.197 L 750.465 488.817 L 750.707 488.54 L 751.099 488.367 L 751.664 488.298 L 752.205 488.367 L 752.632 488.575 L 752.909 488.886 L 753.024 489.301 L 754.015 489.301 L 754.015 489.278 L 753.842 488.528 L 753.37 487.941 L 752.632 487.572 L 751.664 487.433 L 750.684 487.572 L 749.969 487.952 L 749.52 488.517 L 749.381 489.232 L 749.485 489.923 L 749.808 490.407 L 750.338 490.753 L 751.11 490.995 L 752.24 491.272 L 752.932 491.56 L 753.116 491.791 L 753.185 492.137 L 753.081 492.563 L 752.805 492.886 L 752.355 493.093 L 751.756 493.162 L 751.122 493.093 L 750.661 492.851 L 750.349 492.459 L 750.223 491.918 L 749.243 491.918 L 749.404 492.84 L 749.877 493.508 L 750.626 493.912 L 751.664 494.062 L 752.747 493.912 L 753.543 493.508 L 754.027 492.863 L 754.2 492.021 L 754.073 491.295 L 753.716 490.799 L 753.128 490.477 L 752.344 490.235 L 752.344 490.235 z" stroke="none" fill-rule="evenodd" fill="rgb(0, 0, 0)"/></g><g stroke="rgb(0, 0, 0)" stroke-width="0.13" stroke-linecap="butt" stroke-linejoin="miter" fill="none"><path d="M 672.793 521.485 L 673.865 521.485 L 673.865 518.108 L 674.96 518.108 L 675.767 518.142 L 676.274 518.304 L 676.551 518.684 L 676.666 519.364 L 676.724 520.402 L 676.793 521.082 L 676.931 521.485 L 678.142 521.485 L 678.142 521.266 L 677.877 520.943 L 677.784 520.344 L 677.704 519.053 L 677.508 518.096 L 677.242 517.796 L 676.828 517.577 L 677.289 517.289 L 677.611 516.886 L 677.819 516.379 L 677.888 515.768 L 677.727 514.799 L 677.266 514.073 L 676.505 513.635 L 675.467 513.485 L 672.793 513.485 L 672.793 521.485 L 672.793 521.485 z M 675.168 514.465 L 675.871 514.534 L 676.366 514.753 L 676.678 515.157 L 676.781 515.791 L 676.666 516.459 L 676.355 516.863 L 675.825 517.07 L 675.098 517.128 L 673.865 517.128 L 673.865 514.465 L 675.168 514.465 L 675.168 514.465 z M 683.018 520.632 L 683.018 515.502 L 680.413 515.502 L 680.413 516.367 L 682.003 516.367 L 682.003 520.632 L 679.928 520.632 L 679.928 521.485 L 685.116 521.485 L 685.116 520.632 L 683.018 520.632 L 683.018 520.632 z M 683.052 513.209 L 681.98 513.209 L 681.98 514.361 L 683.052 514.361 L 683.052 513.209 L 683.052 513.209 z M 691.675 521.209 L 691.675 515.295 L 690.707 515.295 L 690.707 516.298 L 689.911 515.387 L 689.427 515.157 L 688.885 515.076 L 687.905 515.307 L 687.145 515.952 L 686.649 516.99 L 686.476 518.384 L 686.649 519.791 L 687.145 520.828 L 687.905 521.485 L 688.885 521.704 L 689.439 521.624 L 689.9 521.416 L 690.707 520.54 L 690.707 521.416 L 690.614 522.108 L 690.361 522.603 L 689.877 522.892 L 689.15 522.995 L 688.516 522.926 L 688.067 522.753 L 687.802 522.453 L 687.721 522.05 L 686.741 522.05 L 686.741 522.096 L 686.891 522.834 L 687.352 523.387 L 688.09 523.745 L 689.093 523.871 L 690.292 523.698 L 691.087 523.214 L 691.536 522.373 L 691.675 521.209 L 691.675 521.209 z M 687.525 518.384 L 687.629 517.358 L 687.94 516.598 L 688.424 516.148 L 689.07 515.987 L 689.75 516.148 L 690.257 516.598 L 690.568 517.358 L 690.683 518.384 L 690.568 519.433 L 690.257 520.183 L 689.75 520.644 L 689.07 520.794 L 688.424 520.644 L 687.94 520.183 L 687.629 519.422 L 687.525 518.384 L 687.525 518.384 z M 693.796 521.485 L 694.81 521.485 L 694.81 517.912 L 694.914 517.093 L 695.248 516.494 L 695.767 516.125 L 696.459 515.987 L 697.012 516.102 L 697.358 516.413 L 697.531 516.932 L 697.588 517.624 L 697.588 521.485 L 698.603 521.485 L 698.603 517.416 L 698.557 516.598 L 698.349 515.917 L 697.669 515.295 L 696.609 515.076 L 696.032 515.157 L 695.537 515.376 L 695.122 515.721 L 694.81 516.194 L 694.81 513.209 L 693.796 513.209 L 693.796 521.485 L 693.796 521.485 z M 702.096 516.367 L 702.096 519.468 L 702.165 520.471 L 702.488 521.162 L 703.133 521.566 L 704.228 521.704 L 705.427 521.647 L 705.427 520.771 L 704.551 520.84 L 703.756 520.747 L 703.329 520.459 L 703.145 519.975 L 703.11 519.295 L 703.11 516.367 L 705.427 516.367 L 705.427 515.502 L 703.11 515.502 L 703.11 513.693 L 702.096 513.693 L 702.096 515.502 L 700.344 515.502 L 700.344 516.367 L 702.096 516.367 L 702.096 516.367 z M 714.43 521.485 L 715.502 521.485 L 715.502 518.108 L 716.597 518.108 L 717.404 518.142 L 717.911 518.304 L 718.188 518.684 L 718.303 519.364 L 718.361 520.402 L 718.43 521.082 L 718.568 521.485 L 719.779 521.485 L 719.779 521.266 L 719.514 520.943 L 719.421 520.344 L 719.341 519.053 L 719.145 518.096 L 718.88 517.796 L 718.465 517.577 L 718.926 517.289 L 719.248 516.886 L 719.456 516.379 L 719.525 515.768 L 719.364 514.799 L 718.903 514.073 L 718.142 513.635 L 717.104 513.485 L 714.43 513.485 L 714.43 521.485 L 714.43 521.485 z M 716.805 514.465 L 717.508 514.534 L 718.004 514.753 L 718.315 515.157 L 718.419 515.791 L 718.303 516.459 L 717.992 516.863 L 717.462 517.07 L 716.735 517.128 L 715.502 517.128 L 715.502 514.465 L 716.805 514.465 L 716.805 514.465 z M 722.442 518.684 L 726.499 518.684 L 726.511 518.211 L 726.326 516.886 L 725.819 515.894 L 725.012 515.295 L 723.94 515.076 L 722.891 515.307 L 722.084 515.952 L 721.565 517.001 L 721.381 518.384 L 721.554 519.802 L 722.073 520.84 L 722.868 521.485 L 723.906 521.704 L 724.805 521.554 L 725.542 521.162 L 726.084 520.54 L 726.396 519.71 L 725.393 519.71 L 725.185 520.171 L 724.885 520.517 L 724.032 520.794 L 723.375 520.667 L 722.88 520.263 L 722.557 519.606 L 722.442 518.719 L 722.442 518.684 L 722.442 518.684 z M 722.442 517.831 L 722.568 517.036 L 722.88 516.448 L 723.352 516.09 L 723.975 515.964 L 724.586 516.09 L 725.058 516.448 L 725.346 517.036 L 725.45 517.831 L 722.442 517.831 L 722.442 517.831 z M 732.171 520.678 L 732.171 520.713 L 732.228 521.105 L 732.401 521.381 L 733.128 521.6 L 733.692 521.508 L 733.692 520.724 L 733.45 520.759 L 733.128 520.609 L 733.07 520.148 L 733.07 516.943 L 732.932 516.125 L 732.528 515.549 L 731.825 515.203 L 730.834 515.076 L 729.865 515.214 L 729.151 515.606 L 728.701 516.217 L 728.551 517.024 L 728.551 517.093 L 729.462 517.093 L 729.542 516.609 L 729.796 516.263 L 730.211 516.056 L 730.799 515.975 L 731.364 516.033 L 731.767 516.206 L 732.009 516.505 L 732.09 516.92 L 732.044 517.405 L 731.859 517.647 L 731.398 517.762 L 730.534 517.854 L 729.542 518.062 L 728.839 518.43 L 728.424 519.007 L 728.298 519.86 L 728.413 520.621 L 728.77 521.185 L 729.346 521.543 L 730.142 521.67 L 731.214 521.428 L 732.171 520.678 L 732.171 520.678 z M 732.055 519.318 L 731.917 519.917 L 731.548 520.379 L 730.995 520.678 L 730.315 520.782 L 729.877 520.724 L 729.566 520.54 L 729.37 520.217 L 729.312 519.768 L 729.358 519.364 L 729.542 519.076 L 730.28 518.753 L 731.214 518.615 L 732.055 518.338 L 732.055 519.318 L 732.055 519.318 z M 735.813 521.485 L 736.828 521.485 L 736.828 517.946 L 736.932 517.093 L 737.243 516.482 L 737.75 516.113 L 738.43 515.987 L 738.937 516.067 L 739.318 516.298 L 739.548 516.69 L 739.629 517.22 L 740.655 517.22 L 740.517 516.286 L 740.136 515.618 L 739.502 515.214 L 738.638 515.076 L 738.05 515.168 L 737.543 515.399 L 737.093 515.791 L 736.736 516.321 L 736.736 515.295 L 735.813 515.295 L 735.813 521.485 L 735.813 521.485 z M 749.358 521.485 L 754.499 521.485 L 754.499 520.517 L 750.419 520.517 L 750.419 513.485 L 749.358 513.485 L 749.358 521.485 L 749.358 521.485 z M 755.952 518.396 L 756.136 519.802 L 756.667 520.84 L 757.508 521.485 L 758.638 521.704 L 759.756 521.485 L 760.597 520.851 L 761.128 519.814 L 761.324 518.396 L 761.128 516.99 L 760.597 515.941 L 759.756 515.307 L 758.638 515.076 L 757.508 515.307 L 756.667 515.952 L 756.136 516.99 L 755.952 518.396 L 755.952 518.396 z M 756.989 518.384 L 757.093 517.347 L 757.416 516.598 L 757.935 516.136 L 758.638 515.975 L 759.329 516.136 L 759.848 516.586 L 760.171 517.347 L 760.286 518.384 L 760.171 519.433 L 759.848 520.194 L 759.329 520.655 L 758.638 520.805 L 757.935 520.655 L 757.416 520.194 L 757.093 519.433 L 756.989 518.384 L 756.989 518.384 z M 764.655 521.485 L 765.577 516.229 L 766.499 521.485 L 767.468 521.485 L 768.989 515.295 L 768.01 515.295 L 766.984 520.551 L 766.073 515.295 L 765.07 515.295 L 764.159 520.551 L 763.133 515.295 L 762.165 515.295 L 763.687 521.485 L 764.655 521.485 L 764.655 521.485 z M 771.018 518.684 L 775.076 518.684 L 775.087 518.211 L 774.903 516.886 L 774.396 515.894 L 773.589 515.295 L 772.517 515.076 L 771.468 515.307 L 770.661 515.952 L 770.142 517.001 L 769.958 518.384 L 770.131 519.802 L 770.649 520.84 L 771.445 521.485 L 772.482 521.704 L 773.381 521.554 L 774.119 521.162 L 774.661 520.54 L 774.972 519.71 L 773.969 519.71 L 773.762 520.171 L 773.462 520.517 L 772.609 520.794 L 771.952 520.667 L 771.456 520.263 L 771.133 519.606 L 771.018 518.719 L 771.018 518.684 L 771.018 518.684 z M 771.018 517.831 L 771.145 517.036 L 771.456 516.448 L 771.929 516.09 L 772.551 515.964 L 773.162 516.09 L 773.635 516.448 L 773.923 517.036 L 774.027 517.831 L 771.018 517.831 L 771.018 517.831 z M 777.451 521.485 L 778.465 521.485 L 778.465 517.946 L 778.569 517.093 L 778.88 516.482 L 779.387 516.113 L 780.067 515.987 L 780.574 516.067 L 780.955 516.298 L 781.185 516.69 L 781.266 517.22 L 782.292 517.22 L 782.154 516.286 L 781.773 515.618 L 781.139 515.214 L 780.275 515.076 L 779.687 515.168 L 779.18 515.399 L 778.73 515.791 L 778.373 516.321 L 778.373 515.295 L 777.451 515.295 L 777.451 521.485 L 777.451 521.485 z M 789.831 521.485 L 790.891 521.485 L 791.733 519.134 L 794.926 519.134 L 795.768 521.485 L 796.851 521.485 L 793.923 513.474 L 792.747 513.474 L 789.831 521.485 L 789.831 521.485 z M 792.102 518.154 L 793.335 514.626 L 794.569 518.154 L 792.102 518.154 L 792.102 518.154 z M 798.88 518.845 L 801.67 518.845 L 801.67 517.935 L 798.88 517.935 L 798.88 518.845 L 798.88 518.845 z M 803.71 521.485 L 804.771 521.485 L 805.612 519.134 L 808.805 519.134 L 809.647 521.485 L 810.73 521.485 L 807.802 513.474 L 806.626 513.474 L 803.71 521.485 L 803.71 521.485 z M 805.981 518.154 L 807.214 514.626 L 808.448 518.154 L 805.981 518.154 L 805.981 518.154 z M 812.148 521.485 L 813.162 521.485 L 813.162 517.946 L 813.266 517.093 L 813.577 516.482 L 814.085 516.113 L 814.765 515.987 L 815.272 516.067 L 815.652 516.298 L 815.883 516.69 L 815.964 517.22 L 816.99 517.22 L 816.851 516.286 L 816.471 515.618 L 815.837 515.214 L 814.972 515.076 L 814.384 515.168 L 813.877 515.399 L 813.428 515.791 L 813.07 516.321 L 813.07 515.295 L 812.148 515.295 L 812.148 521.485 L 812.148 521.485 z M 818.304 521.485 L 819.237 521.485 L 819.237 517.347 L 819.295 516.724 L 819.468 516.275 L 819.733 516.01 L 820.079 515.906 L 820.356 515.998 L 820.54 516.229 L 820.632 516.621 L 820.667 517.139 L 820.667 521.485 L 821.543 521.485 L 821.543 517.347 L 821.601 516.736 L 821.773 516.286 L 822.05 516.01 L 822.396 515.906 L 822.673 515.998 L 822.857 516.229 L 822.972 517.139 L 822.972 521.485 L 823.906 521.485 L 823.906 517.209 L 823.848 516.321 L 823.664 515.641 L 823.295 515.226 L 822.696 515.076 L 821.992 515.307 L 821.451 515.975 L 821.024 515.318 L 820.31 515.076 L 819.652 515.307 L 819.203 515.952 L 819.203 515.295 L 818.304 515.295 L 818.304 521.485 L 818.304 521.485 z" stroke="none" fill-rule="evenodd" fill="rgb(0, 0, 0)"/></g><g stroke="rgb(0, 0, 0)" stroke-width="0.13" stroke-linecap="butt" stroke-linejoin="miter" fill="none"><path d="M 846.804 99.5197 L 847.611 98.8511 L 847.819 98.4016 L 847.888 97.8483 L 847.738 96.9837 L 847.289 96.3612 L 846.562 95.9808 L 845.548 95.8425 L 842.701 95.8425 L 842.701 103.843 L 845.709 103.843 L 846.781 103.681 L 847.577 103.208 L 848.072 102.459 L 848.245 101.445 L 848.142 100.765 L 847.865 100.2 L 847.415 99.7849 L 846.804 99.5197 L 846.804 99.5197 z M 845.329 99.1624 L 843.761 99.1624 L 843.761 96.7993 L 845.421 96.7993 L 846.044 96.8684 L 846.482 97.0759 L 846.747 97.4333 L 846.839 97.9635 L 846.735 98.4938 L 846.459 98.8627 L 845.986 99.0932 L 845.329 99.1624 L 845.329 99.1624 z M 845.583 102.886 L 843.761 102.886 L 843.761 100.131 L 845.479 100.131 L 846.205 100.211 L 846.724 100.453 L 847.035 100.868 L 847.139 101.468 L 847.035 102.102 L 846.747 102.54 L 846.263 102.805 L 845.583 102.886 L 845.583 102.886 z M 853.018 102.99 L 853.018 97.8598 L 850.413 97.8598 L 850.413 98.7244 L 852.003 98.7244 L 852.003 102.99 L 849.928 102.99 L 849.928 103.843 L 855.116 103.843 L 855.116 102.99 L 853.018 102.99 L 853.018 102.99 z M 853.052 95.5658 L 851.98 95.5658 L 851.98 96.7186 L 853.052 96.7186 L 853.052 95.5658 L 853.052 95.5658 z M 857.744 101.041 L 861.802 101.041 L 861.813 100.569 L 861.629 99.2431 L 861.122 98.2517 L 860.315 97.6523 L 859.243 97.4333 L 858.194 97.6638 L 857.387 98.3093 L 856.868 99.3583 L 856.683 100.742 L 856.856 102.16 L 857.375 103.197 L 858.17 103.843 L 859.208 104.062 L 860.107 103.912 L 860.845 103.52 L 861.387 102.897 L 861.698 102.067 L 860.695 102.067 L 860.487 102.528 L 860.188 102.874 L 859.335 103.151 L 858.678 103.024 L 858.182 102.621 L 857.859 101.964 L 857.744 101.076 L 857.744 101.041 L 857.744 101.041 z M 857.744 100.188 L 857.871 99.3929 L 858.182 98.8051 L 858.655 98.4477 L 859.277 98.3209 L 859.888 98.4477 L 860.361 98.8051 L 860.649 99.3929 L 860.753 100.188 L 857.744 100.188 L 857.744 100.188 z M 865.813 96.4188 L 865.813 102.99 L 863.727 102.99 L 863.727 103.843 L 868.903 103.843 L 868.903 102.99 L 866.828 102.99 L 866.828 95.5658 L 864.222 95.5658 L 864.222 96.4188 L 865.813 96.4188 L 865.813 96.4188 z M 872.753 96.4188 L 872.753 102.99 L 870.666 102.99 L 870.666 103.843 L 875.842 103.843 L 875.842 102.99 L 873.767 102.99 L 873.767 95.5658 L 871.162 95.5658 L 871.162 96.4188 L 872.753 96.4188 L 872.753 96.4188 z M 878.563 101.041 L 882.62 101.041 L 882.632 100.569 L 882.447 99.2431 L 881.94 98.2517 L 881.133 97.6523 L 880.061 97.4333 L 879.012 97.6638 L 878.205 98.3093 L 877.686 99.3583 L 877.502 100.742 L 877.675 102.16 L 878.194 103.197 L 878.989 103.843 L 880.026 104.062 L 880.926 103.912 L 881.663 103.52 L 882.205 102.897 L 882.516 102.067 L 881.514 102.067 L 881.306 102.528 L 881.006 102.874 L 880.153 103.151 L 879.496 103.024 L 879.001 102.621 L 878.678 101.964 L 878.563 101.076 L 878.563 101.041 L 878.563 101.041 z M 878.563 100.188 L 878.689 99.3929 L 879.001 98.8051 L 879.473 98.4477 L 880.096 98.3209 L 880.707 98.4477 L 881.179 98.8051 L 881.467 99.3929 L 881.571 100.188 L 878.563 100.188 L 878.563 100.188 z M 885.975 98.7244 L 885.975 101.825 L 886.044 102.828 L 886.367 103.52 L 887.012 103.923 L 888.107 104.062 L 889.306 104.004 L 889.306 103.128 L 888.43 103.197 L 887.635 103.105 L 887.208 102.817 L 887.024 102.332 L 886.989 101.652 L 886.989 98.7244 L 889.306 98.7244 L 889.306 97.8598 L 886.989 97.8598 L 886.989 96.05 L 885.975 96.05 L 885.975 97.8598 L 884.222 97.8598 L 884.222 98.7244 L 885.975 98.7244 L 885.975 98.7244 z M 892.914 98.7244 L 892.914 101.825 L 892.983 102.828 L 893.306 103.52 L 893.952 103.923 L 895.047 104.062 L 896.246 104.004 L 896.246 103.128 L 895.37 103.197 L 894.574 103.105 L 894.148 102.817 L 893.963 102.332 L 893.929 101.652 L 893.929 98.7244 L 896.246 98.7244 L 896.246 97.8598 L 893.929 97.8598 L 893.929 96.05 L 892.914 96.05 L 892.914 97.8598 L 891.162 97.8598 L 891.162 98.7244 L 892.914 98.7244 L 892.914 98.7244 z M 899.381 101.041 L 903.439 101.041 L 903.45 100.569 L 903.266 99.2431 L 902.759 98.2517 L 901.952 97.6523 L 900.88 97.4333 L 899.831 97.6638 L 899.024 98.3093 L 898.505 99.3583 L 898.32 100.742 L 898.493 102.16 L 899.012 103.197 L 899.808 103.843 L 900.845 104.062 L 901.744 103.912 L 902.482 103.52 L 903.024 102.897 L 903.335 102.067 L 902.332 102.067 L 902.125 102.528 L 901.825 102.874 L 900.972 103.151 L 900.315 103.024 L 899.819 102.621 L 899.496 101.964 L 899.381 101.076 L 899.381 101.041 L 899.381 101.041 z M 899.381 100.188 L 899.508 99.3929 L 899.819 98.8051 L 900.292 98.4477 L 900.914 98.3209 L 901.525 98.4477 L 901.998 98.8051 L 902.286 99.3929 L 902.39 100.188 L 899.381 100.188 L 899.381 100.188 z M 912.326 103.843 L 913.387 103.843 L 913.387 100.465 L 914.563 100.465 L 915.75 100.407 L 916.695 100.004 L 917.306 99.22 L 917.514 98.1479 L 917.352 97.1566 L 916.891 96.4304 L 916.13 95.9923 L 915.093 95.8425 L 912.326 95.8425 L 912.326 103.843 L 912.326 103.843 z M 914.805 96.8223 L 915.496 96.8915 L 916.004 97.1105 L 916.303 97.514 L 916.407 98.1479 L 916.292 98.8166 L 915.981 99.22 L 915.45 99.4275 L 914.724 99.4852 L 913.387 99.4852 L 913.387 96.8223 L 914.805 96.8223 L 914.805 96.8223 z M 924.084 97.6523 L 923.07 97.6523 L 923.07 101.226 L 922.955 102.056 L 922.62 102.655 L 922.102 103.024 L 921.422 103.139 L 920.88 103.047 L 920.534 102.77 L 920.338 102.298 L 920.292 101.629 L 920.292 97.6523 L 919.277 97.6523 L 919.277 101.721 L 919.312 102.54 L 919.531 103.22 L 920.2 103.843 L 921.272 104.062 L 921.848 103.981 L 922.344 103.773 L 922.77 103.416 L 923.116 102.897 L 923.116 103.843 L 924.084 103.843 L 924.084 97.6523 L 924.084 97.6523 z M 929.283 100.234 L 928.303 100.004 L 927.577 99.7388 L 927.335 99.197 L 927.404 98.8166 L 927.646 98.5399 L 928.038 98.367 L 928.603 98.2979 L 929.145 98.367 L 929.571 98.5745 L 929.848 98.8857 L 929.963 99.3007 L 930.955 99.3007 L 930.955 99.2776 L 930.782 98.5284 L 930.309 97.9405 L 929.571 97.5716 L 928.603 97.4333 L 927.623 97.5716 L 926.909 97.952 L 926.459 98.5168 L 926.321 99.2316 L 926.424 99.9232 L 926.747 100.407 L 927.277 100.753 L 928.05 100.995 L 929.179 101.272 L 929.871 101.56 L 930.056 101.791 L 930.125 102.136 L 930.021 102.563 L 929.744 102.886 L 929.295 103.093 L 928.695 103.162 L 928.061 103.093 L 927.6 102.851 L 927.289 102.459 L 927.162 101.917 L 926.182 101.917 L 926.344 102.84 L 926.816 103.508 L 927.566 103.912 L 928.603 104.062 L 929.687 103.912 L 930.482 103.508 L 930.966 102.863 L 931.139 102.021 L 931.012 101.295 L 930.655 100.799 L 930.067 100.477 L 929.283 100.234 L 929.283 100.234 z M 933.191 103.843 L 934.205 103.843 L 934.205 100.269 L 934.309 99.4506 L 934.643 98.8511 L 935.162 98.4822 L 935.854 98.3439 L 936.407 98.4592 L 936.753 98.7704 L 936.926 99.2892 L 936.984 99.9808 L 936.984 103.843 L 937.998 103.843 L 937.998 99.7733 L 937.952 98.9549 L 937.744 98.2748 L 937.064 97.6523 L 936.004 97.4333 L 935.427 97.514 L 934.932 97.733 L 934.517 98.0788 L 934.205 98.5515 L 934.205 95.5658 L 933.191 95.5658 L 933.191 103.843 L 933.191 103.843 z M 941.122 101.203 L 943.911 101.203 L 943.911 100.292 L 941.122 100.292 L 941.122 101.203 L 941.122 101.203 z M 946.886 103.843 L 947.958 103.843 L 947.958 100.465 L 949.053 100.465 L 949.86 100.5 L 950.367 100.661 L 950.644 101.041 L 950.759 101.721 L 950.816 102.759 L 950.886 103.439 L 951.024 103.843 L 952.234 103.843 L 952.234 103.624 L 951.969 103.301 L 951.877 102.701 L 951.796 101.41 L 951.6 100.453 L 951.335 100.154 L 950.92 99.9348 L 951.381 99.6465 L 951.704 99.2431 L 951.912 98.7358 L 951.981 98.1249 L 951.819 97.1566 L 951.358 96.4304 L 950.597 95.9923 L 949.56 95.8425 L 946.886 95.8425 L 946.886 103.843 L 946.886 103.843 z M 949.26 96.8223 L 949.963 96.8915 L 950.459 97.1105 L 950.77 97.514 L 950.874 98.1479 L 950.759 98.8166 L 950.448 99.22 L 949.917 99.4275 L 949.191 99.4852 L 947.958 99.4852 L 947.958 96.8223 L 949.26 96.8223 L 949.26 96.8223 z M 953.71 100.753 L 953.894 102.16 L 954.425 103.197 L 955.266 103.843 L 956.396 104.062 L 957.514 103.843 L 958.355 103.208 L 958.886 102.171 L 959.082 100.753 L 958.886 99.3468 L 958.355 98.2979 L 957.514 97.6638 L 956.396 97.4333 L 955.266 97.6638 L 954.425 98.3093 L 953.894 99.3468 L 953.71 100.753 L 953.71 100.753 z M 954.747 100.742 L 954.851 99.7042 L 955.174 98.9549 L 955.693 98.4938 L 956.396 98.3324 L 957.087 98.4938 L 957.606 98.9434 L 957.929 99.7042 L 958.044 100.742 L 957.929 101.791 L 957.606 102.551 L 957.087 103.013 L 956.396 103.162 L 955.693 103.013 L 955.174 102.551 L 954.851 101.791 L 954.747 100.742 L 954.747 100.742 z M 964.753 102.886 L 964.753 103.843 L 965.768 103.843 L 965.768 95.5658 L 964.765 95.5658 L 964.765 98.5975 L 963.992 97.7214 L 963.52 97.514 L 962.978 97.4333 L 961.998 97.6638 L 961.237 98.3093 L 960.742 99.3468 L 960.569 100.742 L 960.742 102.136 L 961.237 103.185 L 961.998 103.843 L 962.978 104.062 L 963.52 103.981 L 964.004 103.773 L 964.753 102.886 L 964.753 102.886 z M 963.151 98.3439 L 963.819 98.5053 L 964.327 98.9549 L 964.626 99.7042 L 964.742 100.742 L 964.626 101.791 L 964.327 102.54 L 963.819 103.001 L 963.151 103.151 L 962.517 103.001 L 962.033 102.54 L 961.71 101.779 L 961.606 100.742 L 961.71 99.7157 L 962.033 98.9664 L 962.517 98.5053 L 963.151 98.3439 L 963.151 98.3439 z" stroke="none" fill-rule="evenodd" fill="rgb(0, 0, 0)"/></g><g stroke="rgb(0, 0, 0)" stroke-width="0.13" stroke-linecap="butt" stroke-linejoin="miter" fill="none"><path d="M 936.804 79.5197 L 937.611 78.8511 L 937.819 78.4016 L 937.888 77.8483 L 937.738 76.9837 L 937.289 76.3612 L 936.562 75.9808 L 935.548 75.8425 L 932.701 75.8425 L 932.701 83.8425 L 935.709 83.8425 L 936.781 83.6812 L 937.577 83.2085 L 938.072 82.4592 L 938.245 81.4448 L 938.142 80.7647 L 937.865 80.1998 L 937.415 79.7849 L 936.804 79.5197 L 936.804 79.5197 z M 935.329 79.1624 L 933.761 79.1624 L 933.761 76.7993 L 935.421 76.7993 L 936.044 76.8684 L 936.482 77.0759 L 936.747 77.4333 L 936.839 77.9635 L 936.735 78.4938 L 936.459 78.8627 L 935.986 79.0932 L 935.329 79.1624 L 935.329 79.1624 z M 935.583 82.8857 L 933.761 82.8857 L 933.761 80.1307 L 935.479 80.1307 L 936.205 80.2114 L 936.724 80.4534 L 937.035 80.8685 L 937.139 81.4679 L 937.035 82.1019 L 936.747 82.5399 L 936.263 82.8051 L 935.583 82.8857 L 935.583 82.8857 z M 943.018 82.9895 L 943.018 77.8598 L 940.413 77.8598 L 940.413 78.7244 L 942.003 78.7244 L 942.003 82.9895 L 939.928 82.9895 L 939.928 83.8425 L 945.116 83.8425 L 945.116 82.9895 L 943.018 82.9895 L 943.018 82.9895 z M 943.052 75.5658 L 941.98 75.5658 L 941.98 76.7186 L 943.052 76.7186 L 943.052 75.5658 L 943.052 75.5658 z M 947.744 81.0414 L 951.802 81.0414 L 951.813 80.5687 L 951.629 79.2431 L 951.122 78.2517 L 950.315 77.6523 L 949.243 77.4333 L 948.194 77.6638 L 947.387 78.3093 L 946.868 79.3583 L 946.683 80.7416 L 946.856 82.1595 L 947.375 83.197 L 948.17 83.8425 L 949.208 84.0615 L 950.107 83.9117 L 950.845 83.5198 L 951.387 82.8973 L 951.698 82.0673 L 950.695 82.0673 L 950.487 82.5284 L 950.188 82.8742 L 949.335 83.1509 L 948.678 83.0241 L 948.182 82.6206 L 947.859 81.9636 L 947.744 81.0759 L 947.744 81.0414 L 947.744 81.0414 z M 947.744 80.1884 L 947.871 79.3929 L 948.182 78.8051 L 948.655 78.4477 L 949.277 78.3209 L 949.888 78.4477 L 950.361 78.8051 L 950.649 79.3929 L 950.753 80.1884 L 947.744 80.1884 L 947.744 80.1884 z M 955.813 76.4188 L 955.813 82.9895 L 953.727 82.9895 L 953.727 83.8425 L 958.903 83.8425 L 958.903 82.9895 L 956.828 82.9895 L 956.828 75.5658 L 954.222 75.5658 L 954.222 76.4188 L 955.813 76.4188 L 955.813 76.4188 z M 961.623 81.0414 L 965.681 81.0414 L 965.692 80.5687 L 965.508 79.2431 L 965.001 78.2517 L 964.194 77.6523 L 963.122 77.4333 L 962.073 77.6638 L 961.266 78.3093 L 960.747 79.3583 L 960.562 80.7416 L 960.735 82.1595 L 961.254 83.197 L 962.049 83.8425 L 963.087 84.0615 L 963.986 83.9117 L 964.724 83.5198 L 965.266 82.8973 L 965.577 82.0673 L 964.574 82.0673 L 964.367 82.5284 L 964.067 82.8742 L 963.214 83.1509 L 962.557 83.0241 L 962.061 82.6206 L 961.738 81.9636 L 961.623 81.0759 L 961.623 81.0414 L 961.623 81.0414 z M 961.623 80.1884 L 961.75 79.3929 L 962.061 78.8051 L 962.534 78.4477 L 963.156 78.3209 L 963.767 78.4477 L 964.24 78.8051 L 964.528 79.3929 L 964.632 80.1884 L 961.623 80.1884 L 961.623 80.1884 z M 969.035 78.7244 L 969.035 81.8252 L 969.104 82.8281 L 969.427 83.5198 L 970.073 83.9232 L 971.168 84.0615 L 972.367 84.0039 L 972.367 83.1278 L 971.49 83.197 L 970.695 83.1048 L 970.269 82.8166 L 970.084 82.3325 L 970.05 81.6523 L 970.05 78.7244 L 972.367 78.7244 L 972.367 77.8598 L 970.05 77.8598 L 970.05 76.05 L 969.035 76.05 L 969.035 77.8598 L 967.283 77.8598 L 967.283 78.7244 L 969.035 78.7244 L 969.035 78.7244 z M 975.975 78.7244 L 975.975 81.8252 L 976.044 82.8281 L 976.367 83.5198 L 977.012 83.9232 L 978.107 84.0615 L 979.306 84.0039 L 979.306 83.1278 L 978.43 83.197 L 977.635 83.1048 L 977.208 82.8166 L 977.024 82.3325 L 976.989 81.6523 L 976.989 78.7244 L 979.306 78.7244 L 979.306 77.8598 L 976.989 77.8598 L 976.989 76.05 L 975.975 76.05 L 975.975 77.8598 L 974.222 77.8598 L 974.222 78.7244 L 975.975 78.7244 L 975.975 78.7244 z M 982.442 81.0414 L 986.499 81.0414 L 986.511 80.5687 L 986.326 79.2431 L 985.819 78.2517 L 985.012 77.6523 L 983.94 77.4333 L 982.891 77.6638 L 982.084 78.3093 L 981.565 79.3583 L 981.381 80.7416 L 981.554 82.1595 L 982.073 83.197 L 982.868 83.8425 L 983.906 84.0615 L 984.805 83.9117 L 985.542 83.5198 L 986.084 82.8973 L 986.395 82.0673 L 985.393 82.0673 L 985.185 82.5284 L 984.885 82.8742 L 984.032 83.1509 L 983.375 83.0241 L 982.88 82.6206 L 982.557 81.9636 L 982.442 81.0759 L 982.442 81.0414 L 982.442 81.0414 z M 982.442 80.1884 L 982.568 79.3929 L 982.88 78.8051 L 983.352 78.4477 L 983.975 78.3209 L 984.586 78.4477 L 985.058 78.8051 L 985.346 79.3929 L 985.45 80.1884 L 982.442 80.1884 L 982.442 80.1884 z M 999.237 82.8857 L 999.237 83.8425 L 1000.25 83.8425 L 1000.25 75.5658 L 999.249 75.5658 L 999.249 78.5975 L 998.476 77.7214 L 998.004 77.514 L 997.462 77.4333 L 996.482 77.6638 L 995.721 78.3093 L 995.225 79.3468 L 995.053 80.7416 L 995.225 82.1365 L 995.721 83.1855 L 996.482 83.8425 L 997.462 84.0615 L 998.004 83.9808 L 998.488 83.7734 L 999.237 82.8857 L 999.237 82.8857 z M 997.635 78.3439 L 998.303 78.5053 L 998.81 78.9549 L 999.11 79.7042 L 999.225 80.7416 L 999.11 81.7906 L 998.81 82.5399 L 998.303 83.001 L 997.635 83.1509 L 997.001 83.001 L 996.517 82.5399 L 996.194 81.7791 L 996.09 80.7416 L 996.194 79.7157 L 996.517 78.9664 L 997.001 78.5053 L 997.635 78.3439 L 997.635 78.3439 z M 1003.26 81.0414 L 1007.32 81.0414 L 1007.33 80.5687 L 1007.14 79.2431 L 1006.64 78.2517 L 1005.83 77.6523 L 1004.76 77.4333 L 1003.71 77.6638 L 1002.9 78.3093 L 1002.38 79.3583 L 1002.2 80.7416 L 1002.37 82.1595 L 1002.89 83.197 L 1003.69 83.8425 L 1004.72 84.0615 L 1005.62 83.9117 L 1006.36 83.5198 L 1006.9 82.8973 L 1007.21 82.0673 L 1006.21 82.0673 L 1006 82.5284 L 1005.7 82.8742 L 1004.85 83.1509 L 1004.19 83.0241 L 1003.7 82.6206 L 1003.38 81.9636 L 1003.26 81.0759 L 1003.26 81.0414 L 1003.26 81.0414 z M 1003.26 80.1884 L 1003.39 79.3929 L 1003.7 78.8051 L 1004.17 78.4477 L 1004.79 78.3209 L 1005.4 78.4477 L 1005.88 78.8051 L 1006.16 79.3929 L 1006.27 80.1884 L 1003.26 80.1884 L 1003.26 80.1884 z M 1017.21 78.6091 L 1017.21 77.6523 L 1016.19 77.6523 L 1016.19 86.2402 L 1017.21 86.2402 L 1017.21 82.8973 L 1017.57 83.4391 L 1017.97 83.7964 L 1018.98 84.0615 L 1019.95 83.8425 L 1020.71 83.1855 L 1021.21 82.148 L 1021.39 80.7416 L 1021.21 79.3468 L 1020.71 78.3093 L 1019.95 77.6638 L 1018.98 77.4333 L 1018.43 77.5024 L 1017.96 77.7214 L 1017.55 78.0903 L 1017.21 78.6091 L 1017.21 78.6091 z M 1018.81 83.1509 L 1018.13 83.001 L 1017.63 82.5399 L 1017.32 81.7906 L 1017.22 80.7416 L 1017.32 79.7042 L 1017.63 78.9549 L 1018.13 78.5053 L 1018.81 78.3439 L 1019.43 78.5053 L 1019.93 78.9664 L 1020.24 79.7157 L 1020.36 80.7416 L 1020.24 81.7791 L 1019.93 82.5399 L 1019.43 83.001 L 1018.81 83.1509 L 1018.81 83.1509 z M 1026.29 82.9895 L 1026.29 77.8598 L 1023.69 77.8598 L 1023.69 78.7244 L 1025.28 78.7244 L 1025.28 82.9895 L 1023.2 82.9895 L 1023.2 83.8425 L 1028.39 83.8425 L 1028.39 82.9895 L 1026.29 82.9895 L 1026.29 82.9895 z M 1026.33 75.5658 L 1025.25 75.5658 L 1025.25 76.7186 L 1026.33 76.7186 L 1026.33 75.5658 L 1026.33 75.5658 z M 1030.13 83.8425 L 1031.15 83.8425 L 1031.15 80.269 L 1031.25 79.4506 L 1031.58 78.8511 L 1032.1 78.4822 L 1032.79 78.3439 L 1033.35 78.4592 L 1033.69 78.7704 L 1033.87 79.2892 L 1033.92 79.9808 L 1033.92 83.8425 L 1034.94 83.8425 L 1034.94 79.7733 L 1034.89 78.9549 L 1034.68 78.2748 L 1034 77.6523 L 1032.94 77.4333 L 1032.36 77.514 L 1031.86 77.733 L 1031.43 78.1019 L 1031.1 78.5975 L 1031.1 77.6523 L 1030.13 77.6523 L 1030.13 83.8425 L 1030.13 83.8425 z M 1041.01 79.7042 L 1042.02 79.7042 L 1041.81 78.782 L 1041.31 78.0557 L 1040.54 77.6062 L 1039.54 77.4333 L 1038.43 77.6638 L 1037.59 78.3093 L 1037.06 79.3583 L 1036.87 80.7647 L 1037.05 82.1595 L 1037.57 83.197 L 1038.38 83.8425 L 1039.5 84.0615 L 1040.49 83.8886 L 1041.27 83.4045 L 1041.8 82.6437 L 1042.03 81.6293 L 1041.06 81.6293 L 1040.89 82.2748 L 1040.56 82.759 L 1040.1 83.0587 L 1039.54 83.1509 L 1038.83 83.001 L 1038.33 82.5399 L 1038.02 81.7906 L 1037.91 80.7301 L 1038.02 79.6926 L 1038.34 78.9434 L 1038.86 78.4822 L 1039.54 78.3209 L 1040.14 78.4246 L 1040.59 78.6898 L 1040.89 79.1278 L 1041.01 79.7042 L 1041.01 79.7042 z M 1044.9 81.0414 L 1048.95 81.0414 L 1048.97 80.5687 L 1048.78 79.2431 L 1048.27 78.2517 L 1047.47 77.6523 L 1046.4 77.4333 L 1045.35 77.6638 L 1044.54 78.3093 L 1044.02 79.3583 L 1043.84 80.7416 L 1044.01 82.1595 L 1044.53 83.197 L 1045.32 83.8425 L 1046.36 84.0615 L 1047.26 83.9117 L 1048 83.5198 L 1048.54 82.8973 L 1048.85 82.0673 L 1047.85 82.0673 L 1047.64 82.5284 L 1047.34 82.8742 L 1046.49 83.1509 L 1045.83 83.0241 L 1045.34 82.6206 L 1045.01 81.9636 L 1044.9 81.0759 L 1044.9 81.0414 L 1044.9 81.0414 z M 1044.9 80.1884 L 1045.02 79.3929 L 1045.34 78.8051 L 1045.81 78.4477 L 1046.43 78.3209 L 1047.04 78.4477 L 1047.51 78.8051 L 1047.8 79.3929 L 1047.91 80.1884 L 1044.9 80.1884 L 1044.9 80.1884 z" stroke="none" fill-rule="evenodd" fill="rgb(0, 0, 0)"/></g><g stroke="rgb(0, 0, 0)" stroke-width="0.13" stroke-linecap="butt" stroke-linejoin="miter" fill="none"><path d="M 722.685 567.013 L 723.139 567.013 L 723.139 566.146 L 723.638 566.146 L 723.638 565.742 L 723.139 565.742 L 723.139 563.589 L 722.68 563.589 L 721.147 565.702 L 721.147 566.146 L 722.685 566.146 L 722.685 567.013 L 722.685 567.013 z M 721.57 565.742 L 722.685 564.174 L 722.685 565.742 L 721.57 565.742 L 721.57 565.742 z M 724.873 565.914 L 724.873 565.949 L 724.953 566.433 L 725.19 566.796 L 725.564 567.028 L 726.058 567.114 L 726.582 567.028 L 726.976 566.806 L 727.228 566.453 L 727.319 565.999 L 727.278 565.702 L 727.167 565.46 L 726.986 565.273 L 726.744 565.137 L 727.072 564.865 L 727.188 564.431 L 727.112 564.038 L 726.895 563.74 L 726.542 563.553 L 726.058 563.488 L 725.604 563.569 L 725.256 563.791 L 725.029 564.144 L 724.953 564.613 L 724.953 564.648 L 725.402 564.648 L 725.443 564.325 L 725.574 564.093 L 725.786 563.952 L 726.083 563.901 L 726.345 563.942 L 726.537 564.048 L 726.653 564.219 L 726.698 564.451 L 726.653 564.698 L 726.532 564.865 L 726.32 564.966 L 726.033 564.996 L 725.836 564.991 L 725.836 565.389 L 726.083 565.379 L 726.401 565.425 L 726.638 565.546 L 726.779 565.742 L 726.83 565.999 L 726.774 566.292 L 726.628 566.509 L 726.396 566.645 L 726.088 566.69 L 725.771 566.64 L 725.539 566.489 L 725.392 566.247 L 725.337 565.914 L 724.873 565.914 L 724.873 565.914 z M 728.649 567.013 L 731.055 567.013 L 731.055 566.579 L 729.154 566.579 L 729.259 566.342 L 729.441 566.146 L 730.001 565.788 L 730.298 565.636 L 730.631 565.42 L 730.868 565.167 L 731.004 564.87 L 731.055 564.532 L 730.969 564.108 L 730.732 563.775 L 730.369 563.564 L 729.9 563.488 L 729.416 563.574 L 729.048 563.811 L 728.811 564.189 L 728.73 564.688 L 728.73 564.759 L 729.189 564.759 L 729.189 564.719 L 729.234 564.376 L 729.37 564.123 L 729.587 563.962 L 729.875 563.907 L 730.167 563.957 L 730.384 564.083 L 730.525 564.28 L 730.576 564.527 L 730.54 564.759 L 730.445 564.956 L 730.283 565.127 L 730.061 565.278 L 729.764 565.44 L 729.269 565.752 L 728.922 566.085 L 728.715 566.489 L 728.649 566.998 L 728.649 567.013 L 728.649 567.013 z M 733.268 567.013 L 733.964 567.013 L 733.964 566.262 L 733.268 566.262 L 733.268 567.013 L 733.268 567.013 z M 736.141 566.146 L 736.217 566.544 L 736.434 566.852 L 736.777 567.043 L 737.231 567.114 L 737.528 567.079 L 737.796 566.988 L 738.023 566.832 L 738.214 566.61 L 738.365 566.332 L 738.476 565.989 L 738.542 565.596 L 738.567 565.142 L 738.481 564.431 L 738.234 563.912 L 737.841 563.599 L 737.301 563.488 L 736.807 563.579 L 736.434 563.821 L 736.192 564.194 L 736.111 564.663 L 736.192 565.147 L 736.429 565.515 L 736.782 565.747 L 737.231 565.823 L 737.705 565.727 L 738.063 565.435 L 737.982 565.994 L 737.821 566.393 L 737.574 566.63 L 737.236 566.706 L 736.974 566.67 L 736.782 566.559 L 736.656 566.383 L 736.605 566.146 L 736.141 566.146 L 736.141 566.146 z M 736.6 564.658 L 736.651 564.345 L 736.792 564.098 L 737.014 563.942 L 737.301 563.886 L 737.599 563.942 L 737.826 564.098 L 737.967 564.34 L 738.023 564.653 L 737.967 564.971 L 737.826 565.208 L 737.594 565.354 L 737.286 565.404 L 737.009 565.354 L 736.792 565.208 L 736.651 564.976 L 736.6 564.658 L 736.6 564.658 z M 742.298 564.456 L 742.202 564.048 L 741.98 563.745 L 741.638 563.553 L 741.194 563.488 L 740.896 563.523 L 740.639 563.619 L 740.412 563.775 L 740.22 563.997 L 740.069 564.275 L 739.958 564.613 L 739.888 565.011 L 739.867 565.46 L 739.948 566.176 L 740.195 566.695 L 740.594 567.008 L 741.138 567.114 L 741.627 567.023 L 742.001 566.786 L 742.243 566.413 L 742.328 565.939 L 742.243 565.46 L 742.011 565.092 L 741.653 564.86 L 741.209 564.779 L 740.73 564.88 L 740.372 565.167 L 740.447 564.613 L 740.609 564.214 L 740.856 563.977 L 741.199 563.896 L 741.451 563.937 L 741.643 564.043 L 741.769 564.219 L 741.834 564.456 L 742.298 564.456 L 742.298 564.456 z M 741.839 565.944 L 741.784 566.262 L 741.643 566.504 L 741.416 566.665 L 741.133 566.716 L 740.836 566.665 L 740.609 566.509 L 740.462 566.267 L 740.417 565.949 L 740.467 565.636 L 740.609 565.399 L 740.841 565.248 L 741.153 565.193 L 741.426 565.248 L 741.643 565.394 L 741.784 565.631 L 741.839 565.944 L 741.839 565.944 z" stroke="none" fill-rule="evenodd" fill="rgb(0, 0, 0)"/><path d="M 517.199 568.496 L 515.267 569.013 L 517.199 569.531"/><path d="M 946.296 569.531 L 948.228 569.013 L 946.296 568.496"/><path d="M 948.228 569.013 L 515.267 569.013"/></g></svg>