<?xml version="1.0" encoding="utf-8" ?><!DOCTYPE svg PUBLIC "-//W3C//DTD SVG 1.1//EN" "http://www.w3.org/Graphics/SVG/1.1/DTD/svg11.dtd" 
[ <!ATTLIST svg 
  xmlns:dsy CDATA #FIXED "http://www.3ds.com/print"  
    dsy:text-version CDATA #IMPLIED > 

  <!ATTLIST text 
  xmlns:dsy CDATA #FIXED "http://www.3ds.com/print" 
    dsy:text-version CDATA #IMPLIED > 
]><svg xmlns="http://www.w3.org/2000/svg" xmlns:dsy="http://www.3ds.com/print" dsy:text-version="18000" width="2000" height="2000" viewBox="0 0 2000 2000" version="1.1"><g stroke="rgb(0, 0, 0)" stroke-width="0.13" stroke-linecap="butt" stroke-linejoin="miter" fill="none"><path d="M 657.688 1737.12 L 657.688 1781.15"/><path d="M 224.727 1737.12 L 224.727 1781.15"/></g><g stroke="rgb(0, 0, 0)" stroke-width="0.35" stroke-linecap="butt" stroke-linejoin="miter" fill="none"><circle cx="716.894" cy="1441.24" r="3.10004"/><circle cx="416.894" cy="1441.24" r="3.10004"/><circle cx="596.894" cy="1697.42" r="3.10004"/><path d="M 224.727 1735.12 L 657.688 1735.12"/><circle cx="595.247" cy="1651.8" r="3.09998"/><circle cx="295.247" cy="1651.8" r="3.09998"/><circle cx="415.247" cy="1283.79" r="3.09998"/><circle cx="643.004" cy="1203.41" r="3.09999"/><circle cx="334.469" cy="1235.22" r="3.09999"/><circle cx="267.029" cy="1145.84" r="3.10003"/><circle cx="636.686" cy="1174.88" r="3.10003"/></g><g stroke="rgb(0, 0, 0)" stroke-width="0.13" stroke-linecap="butt" stroke-linejoin="miter" fill="none"><path d="M 534.833 1502.84 L 535.894 1502.84 L 535.894 1495.81 L 538.315 1495.81 L 538.315 1494.84 L 532.401 1494.84 L 532.401 1495.81 L 534.833 1495.81 L 534.833 1502.84 L 534.833 1502.84 z M 540.297 1502.84 L 541.312 1502.84 L 541.312 1499.3 L 541.415 1498.45 L 541.727 1497.84 L 542.234 1497.47 L 542.914 1497.34 L 543.421 1497.42 L 543.802 1497.66 L 544.032 1498.05 L 544.113 1498.58 L 545.139 1498.58 L 545 1497.64 L 544.62 1496.98 L 543.986 1496.57 L 543.122 1496.43 L 542.534 1496.53 L 542.026 1496.76 L 541.577 1497.15 L 541.219 1497.68 L 541.219 1496.65 L 540.297 1496.65 L 540.297 1502.84 L 540.297 1502.84 z M 549.957 1501.99 L 549.957 1496.86 L 547.352 1496.86 L 547.352 1497.72 L 548.943 1497.72 L 548.943 1501.99 L 546.868 1501.99 L 546.868 1502.84 L 552.055 1502.84 L 552.055 1501.99 L 549.957 1501.99 L 549.957 1501.99 z M 549.992 1494.57 L 548.92 1494.57 L 548.92 1495.72 L 549.992 1495.72 L 549.992 1494.57 L 549.992 1494.57 z M 557.473 1502.04 L 557.473 1502.07 L 557.531 1502.46 L 557.704 1502.74 L 558.43 1502.96 L 558.995 1502.87 L 558.995 1502.08 L 558.753 1502.12 L 558.43 1501.97 L 558.372 1501.51 L 558.372 1498.3 L 558.234 1497.48 L 557.831 1496.91 L 557.127 1496.56 L 556.136 1496.43 L 555.168 1496.57 L 554.453 1496.96 L 554.003 1497.57 L 553.854 1498.38 L 553.854 1498.45 L 554.764 1498.45 L 554.845 1497.97 L 555.099 1497.62 L 555.513 1497.41 L 556.101 1497.33 L 556.666 1497.39 L 557.07 1497.56 L 557.312 1497.86 L 557.392 1498.28 L 557.346 1498.76 L 557.162 1499 L 556.701 1499.12 L 555.836 1499.21 L 554.845 1499.42 L 554.142 1499.79 L 553.727 1500.36 L 553.6 1501.22 L 553.715 1501.98 L 554.073 1502.54 L 554.649 1502.9 L 555.444 1503.03 L 556.516 1502.78 L 557.473 1502.04 L 557.473 1502.04 z M 557.358 1500.68 L 557.22 1501.27 L 556.851 1501.74 L 556.297 1502.04 L 555.617 1502.14 L 555.179 1502.08 L 554.868 1501.9 L 554.672 1501.57 L 554.614 1501.13 L 554.66 1500.72 L 554.845 1500.43 L 555.583 1500.11 L 556.516 1499.97 L 557.358 1499.7 L 557.358 1500.68 L 557.358 1500.68 z M 560.735 1502.84 L 561.75 1502.84 L 561.75 1499.27 L 561.854 1498.45 L 562.188 1497.85 L 562.707 1497.48 L 563.398 1497.34 L 563.952 1497.46 L 564.297 1497.77 L 564.47 1498.29 L 564.528 1498.98 L 564.528 1502.84 L 565.542 1502.84 L 565.542 1498.77 L 565.496 1497.95 L 565.289 1497.27 L 564.609 1496.65 L 563.548 1496.43 L 562.96 1496.51 L 562.465 1496.73 L 562.038 1497.1 L 561.704 1497.6 L 561.704 1496.65 L 560.735 1496.65 L 560.735 1502.84 L 560.735 1502.84 z M 572.493 1502.57 L 572.493 1496.65 L 571.525 1496.65 L 571.525 1497.66 L 570.73 1496.74 L 570.246 1496.51 L 569.704 1496.43 L 568.724 1496.66 L 567.963 1497.31 L 567.467 1498.35 L 567.295 1499.74 L 567.467 1501.15 L 567.963 1502.19 L 568.724 1502.84 L 569.704 1503.06 L 570.257 1502.98 L 570.718 1502.77 L 571.525 1501.9 L 571.525 1502.77 L 571.433 1503.47 L 571.179 1503.96 L 570.695 1504.25 L 569.969 1504.35 L 569.335 1504.28 L 568.885 1504.11 L 568.62 1503.81 L 568.539 1503.41 L 567.56 1503.41 L 567.56 1503.45 L 567.71 1504.19 L 568.171 1504.74 L 568.908 1505.1 L 569.911 1505.23 L 571.11 1505.06 L 571.906 1504.57 L 572.355 1503.73 L 572.493 1502.57 L 572.493 1502.57 z M 568.344 1499.74 L 568.447 1498.72 L 568.759 1497.95 L 569.243 1497.51 L 569.888 1497.34 L 570.568 1497.51 L 571.076 1497.95 L 571.387 1498.72 L 571.502 1499.74 L 571.387 1500.79 L 571.076 1501.54 L 570.568 1502 L 569.888 1502.15 L 569.243 1502 L 568.759 1501.54 L 568.447 1500.78 L 568.344 1499.74 L 568.344 1499.74 z M 576.632 1495.42 L 576.632 1501.99 L 574.545 1501.99 L 574.545 1502.84 L 579.721 1502.84 L 579.721 1501.99 L 577.646 1501.99 L 577.646 1494.57 L 575.041 1494.57 L 575.041 1495.42 L 576.632 1495.42 L 576.632 1495.42 z M 582.442 1500.04 L 586.499 1500.04 L 586.511 1499.57 L 586.326 1498.24 L 585.819 1497.25 L 585.012 1496.65 L 583.94 1496.43 L 582.891 1496.66 L 582.084 1497.31 L 581.565 1498.36 L 581.381 1499.74 L 581.554 1501.16 L 582.073 1502.2 L 582.868 1502.84 L 583.906 1503.06 L 584.805 1502.91 L 585.542 1502.52 L 586.084 1501.9 L 586.396 1501.07 L 585.393 1501.07 L 585.185 1501.53 L 584.885 1501.87 L 584.032 1502.15 L 583.375 1502.02 L 582.88 1501.62 L 582.557 1500.96 L 582.442 1500.08 L 582.442 1500.04 L 582.442 1500.04 z M 582.442 1499.19 L 582.568 1498.39 L 582.88 1497.81 L 583.352 1497.45 L 583.975 1497.32 L 584.586 1497.45 L 585.058 1497.81 L 585.346 1498.39 L 585.45 1499.19 L 582.442 1499.19 L 582.442 1499.19 z M 599.26 1498.52 L 600.067 1497.85 L 600.275 1497.4 L 600.344 1496.85 L 600.194 1495.98 L 599.744 1495.36 L 599.018 1494.98 L 598.004 1494.84 L 595.156 1494.84 L 595.156 1502.84 L 598.165 1502.84 L 599.237 1502.68 L 600.032 1502.21 L 600.528 1501.46 L 600.701 1500.44 L 600.597 1499.76 L 600.321 1499.2 L 599.871 1498.78 L 599.26 1498.52 L 599.26 1498.52 z M 597.785 1498.16 L 596.217 1498.16 L 596.217 1495.8 L 597.877 1495.8 L 598.499 1495.87 L 598.937 1496.08 L 599.202 1496.43 L 599.295 1496.96 L 599.191 1497.49 L 598.914 1497.86 L 598.442 1498.09 L 597.785 1498.16 L 597.785 1498.16 z M 598.038 1501.89 L 596.217 1501.89 L 596.217 1499.13 L 597.934 1499.13 L 598.661 1499.21 L 599.179 1499.45 L 599.491 1499.87 L 599.594 1500.47 L 599.491 1501.1 L 599.202 1501.54 L 598.718 1501.81 L 598.038 1501.89 L 598.038 1501.89 z M 606.05 1502.04 L 606.05 1502.07 L 606.107 1502.46 L 606.28 1502.74 L 607.007 1502.96 L 607.571 1502.87 L 607.571 1502.08 L 607.329 1502.12 L 607.007 1501.97 L 606.949 1501.51 L 606.949 1498.3 L 606.811 1497.48 L 606.407 1496.91 L 605.704 1496.56 L 604.713 1496.43 L 603.744 1496.57 L 603.03 1496.96 L 602.58 1497.57 L 602.43 1498.38 L 602.43 1498.45 L 603.341 1498.45 L 603.422 1497.97 L 603.675 1497.62 L 604.09 1497.41 L 604.678 1497.33 L 605.243 1497.39 L 605.646 1497.56 L 605.888 1497.86 L 605.969 1498.28 L 605.923 1498.76 L 605.739 1499 L 605.277 1499.12 L 604.413 1499.21 L 603.422 1499.42 L 602.718 1499.79 L 602.303 1500.36 L 602.177 1501.22 L 602.292 1501.98 L 602.649 1502.54 L 603.226 1502.9 L 604.021 1503.03 L 605.093 1502.78 L 606.05 1502.04 L 606.05 1502.04 z M 605.935 1500.68 L 605.796 1501.27 L 605.427 1501.74 L 604.874 1502.04 L 604.194 1502.14 L 603.756 1502.08 L 603.445 1501.9 L 603.249 1501.57 L 603.191 1501.13 L 603.237 1500.72 L 603.422 1500.43 L 604.159 1500.11 L 605.093 1499.97 L 605.935 1499.7 L 605.935 1500.68 L 605.935 1500.68 z M 612.344 1499.23 L 611.364 1499 L 610.638 1498.74 L 610.396 1498.2 L 610.465 1497.82 L 610.707 1497.54 L 611.099 1497.37 L 611.664 1497.3 L 612.205 1497.37 L 612.632 1497.57 L 612.909 1497.89 L 613.024 1498.3 L 614.015 1498.3 L 614.015 1498.28 L 613.842 1497.53 L 613.37 1496.94 L 612.632 1496.57 L 611.664 1496.43 L 610.684 1496.57 L 609.969 1496.95 L 609.52 1497.52 L 609.381 1498.23 L 609.485 1498.92 L 609.808 1499.41 L 610.338 1499.75 L 611.11 1500 L 612.24 1500.27 L 612.932 1500.56 L 613.116 1500.79 L 613.185 1501.14 L 613.081 1501.56 L 612.805 1501.89 L 612.355 1502.09 L 611.756 1502.16 L 611.122 1502.09 L 610.661 1501.85 L 610.349 1501.46 L 610.223 1500.92 L 609.243 1500.92 L 609.404 1501.84 L 609.877 1502.51 L 610.626 1502.91 L 611.664 1503.06 L 612.747 1502.91 L 613.543 1502.51 L 614.027 1501.86 L 614.2 1501.02 L 614.073 1500.3 L 613.716 1499.8 L 613.128 1499.48 L 612.344 1499.23 L 612.344 1499.23 z" stroke="none" fill-rule="evenodd" fill="rgb(0, 0, 0)"/></g><g stroke="rgb(0, 0, 0)" stroke-width="0.13" stroke-linecap="butt" stroke-linejoin="miter" fill="none"><path d="M 532.793 1530.49 L 533.865 1530.49 L 533.865 1527.11 L 534.96 1527.11 L 535.767 1527.14 L 536.274 1527.3 L 536.551 1527.68 L 536.666 1528.36 L 536.724 1529.4 L 536.793 1530.08 L 536.931 1530.49 L 538.142 1530.49 L 538.142 1530.27 L 537.877 1529.94 L 537.784 1529.34 L 537.704 1528.05 L 537.508 1527.1 L 537.242 1526.8 L 536.828 1526.58 L 537.289 1526.29 L 537.611 1525.89 L 537.819 1525.38 L 537.888 1524.77 L 537.727 1523.8 L 537.266 1523.07 L 536.505 1522.64 L 535.467 1522.49 L 532.793 1522.49 L 532.793 1530.49 L 532.793 1530.49 z M 535.168 1523.46 L 535.871 1523.53 L 536.366 1523.75 L 536.678 1524.16 L 536.781 1524.79 L 536.666 1525.46 L 536.355 1525.86 L 535.825 1526.07 L 535.098 1526.13 L 533.865 1526.13 L 533.865 1523.46 L 535.168 1523.46 L 535.168 1523.46 z M 543.018 1529.63 L 543.018 1524.5 L 540.413 1524.5 L 540.413 1525.37 L 542.003 1525.37 L 542.003 1529.63 L 539.928 1529.63 L 539.928 1530.49 L 545.116 1530.49 L 545.116 1529.63 L 543.018 1529.63 L 543.018 1529.63 z M 543.052 1522.21 L 541.98 1522.21 L 541.98 1523.36 L 543.052 1523.36 L 543.052 1522.21 L 543.052 1522.21 z M 551.675 1530.21 L 551.675 1524.29 L 550.707 1524.29 L 550.707 1525.3 L 549.911 1524.39 L 549.427 1524.16 L 548.885 1524.08 L 547.905 1524.31 L 547.145 1524.95 L 546.649 1525.99 L 546.476 1527.38 L 546.649 1528.79 L 547.145 1529.83 L 547.905 1530.49 L 548.885 1530.7 L 549.439 1530.62 L 549.9 1530.42 L 550.707 1529.54 L 550.707 1530.42 L 550.614 1531.11 L 550.361 1531.6 L 549.877 1531.89 L 549.15 1532 L 548.516 1531.93 L 548.067 1531.75 L 547.802 1531.45 L 547.721 1531.05 L 546.741 1531.05 L 546.741 1531.1 L 546.891 1531.83 L 547.352 1532.39 L 548.09 1532.74 L 549.093 1532.87 L 550.292 1532.7 L 551.087 1532.21 L 551.536 1531.37 L 551.675 1530.21 L 551.675 1530.21 z M 547.525 1527.38 L 547.629 1526.36 L 547.94 1525.6 L 548.424 1525.15 L 549.07 1524.99 L 549.75 1525.15 L 550.257 1525.6 L 550.568 1526.36 L 550.683 1527.38 L 550.568 1528.43 L 550.257 1529.18 L 549.75 1529.64 L 549.07 1529.79 L 548.424 1529.64 L 547.94 1529.18 L 547.629 1528.42 L 547.525 1527.38 L 547.525 1527.38 z M 553.796 1530.49 L 554.81 1530.49 L 554.81 1526.91 L 554.914 1526.09 L 555.248 1525.49 L 555.767 1525.12 L 556.459 1524.99 L 557.012 1525.1 L 557.358 1525.41 L 557.531 1525.93 L 557.588 1526.62 L 557.588 1530.49 L 558.603 1530.49 L 558.603 1526.42 L 558.557 1525.6 L 558.349 1524.92 L 557.669 1524.29 L 556.609 1524.08 L 556.032 1524.16 L 555.537 1524.38 L 555.122 1524.72 L 554.81 1525.19 L 554.81 1522.21 L 553.796 1522.21 L 553.796 1530.49 L 553.796 1530.49 z M 562.096 1525.37 L 562.096 1528.47 L 562.165 1529.47 L 562.488 1530.16 L 563.133 1530.57 L 564.228 1530.7 L 565.427 1530.65 L 565.427 1529.77 L 564.551 1529.84 L 563.756 1529.75 L 563.329 1529.46 L 563.145 1528.98 L 563.11 1528.29 L 563.11 1525.37 L 565.427 1525.37 L 565.427 1524.5 L 563.11 1524.5 L 563.11 1522.69 L 562.096 1522.69 L 562.096 1524.5 L 560.344 1524.5 L 560.344 1525.37 L 562.096 1525.37 L 562.096 1525.37 z M 574.43 1530.49 L 575.502 1530.49 L 575.502 1527.11 L 576.597 1527.11 L 577.404 1527.14 L 577.911 1527.3 L 578.188 1527.68 L 578.303 1528.36 L 578.361 1529.4 L 578.43 1530.08 L 578.568 1530.49 L 579.779 1530.49 L 579.779 1530.27 L 579.514 1529.94 L 579.421 1529.34 L 579.341 1528.05 L 579.145 1527.1 L 578.88 1526.8 L 578.465 1526.58 L 578.926 1526.29 L 579.248 1525.89 L 579.456 1525.38 L 579.525 1524.77 L 579.364 1523.8 L 578.903 1523.07 L 578.142 1522.64 L 577.104 1522.49 L 574.43 1522.49 L 574.43 1530.49 L 574.43 1530.49 z M 576.805 1523.46 L 577.508 1523.53 L 578.004 1523.75 L 578.315 1524.16 L 578.419 1524.79 L 578.303 1525.46 L 577.992 1525.86 L 577.462 1526.07 L 576.735 1526.13 L 575.502 1526.13 L 575.502 1523.46 L 576.805 1523.46 L 576.805 1523.46 z M 582.442 1527.68 L 586.499 1527.68 L 586.511 1527.21 L 586.326 1525.89 L 585.819 1524.89 L 585.012 1524.29 L 583.94 1524.08 L 582.891 1524.31 L 582.084 1524.95 L 581.565 1526 L 581.381 1527.38 L 581.554 1528.8 L 582.073 1529.84 L 582.868 1530.49 L 583.906 1530.7 L 584.805 1530.55 L 585.542 1530.16 L 586.084 1529.54 L 586.396 1528.71 L 585.393 1528.71 L 585.185 1529.17 L 584.885 1529.52 L 584.032 1529.79 L 583.375 1529.67 L 582.88 1529.26 L 582.557 1528.61 L 582.442 1527.72 L 582.442 1527.68 L 582.442 1527.68 z M 582.442 1526.83 L 582.568 1526.04 L 582.88 1525.45 L 583.352 1525.09 L 583.975 1524.96 L 584.586 1525.09 L 585.058 1525.45 L 585.346 1526.04 L 585.45 1526.83 L 582.442 1526.83 L 582.442 1526.83 z M 592.171 1529.68 L 592.171 1529.71 L 592.228 1530.1 L 592.401 1530.38 L 593.128 1530.6 L 593.692 1530.51 L 593.692 1529.72 L 593.45 1529.76 L 593.128 1529.61 L 593.07 1529.15 L 593.07 1525.94 L 592.932 1525.12 L 592.528 1524.55 L 591.825 1524.2 L 590.834 1524.08 L 589.865 1524.21 L 589.151 1524.61 L 588.701 1525.22 L 588.551 1526.02 L 588.551 1526.09 L 589.462 1526.09 L 589.542 1525.61 L 589.796 1525.26 L 590.211 1525.06 L 590.799 1524.98 L 591.364 1525.03 L 591.767 1525.21 L 592.009 1525.51 L 592.09 1525.92 L 592.044 1526.4 L 591.859 1526.65 L 591.398 1526.76 L 590.534 1526.85 L 589.542 1527.06 L 588.839 1527.43 L 588.424 1528.01 L 588.298 1528.86 L 588.413 1529.62 L 588.77 1530.19 L 589.346 1530.54 L 590.142 1530.67 L 591.214 1530.43 L 592.171 1529.68 L 592.171 1529.68 z M 592.055 1528.32 L 591.917 1528.92 L 591.548 1529.38 L 590.995 1529.68 L 590.315 1529.78 L 589.877 1529.72 L 589.566 1529.54 L 589.37 1529.22 L 589.312 1528.77 L 589.358 1528.36 L 589.542 1528.08 L 590.28 1527.75 L 591.214 1527.61 L 592.055 1527.34 L 592.055 1528.32 L 592.055 1528.32 z M 595.813 1530.49 L 596.828 1530.49 L 596.828 1526.95 L 596.932 1526.09 L 597.243 1525.48 L 597.75 1525.11 L 598.43 1524.99 L 598.937 1525.07 L 599.318 1525.3 L 599.548 1525.69 L 599.629 1526.22 L 600.655 1526.22 L 600.517 1525.29 L 600.136 1524.62 L 599.502 1524.21 L 598.638 1524.08 L 598.05 1524.17 L 597.543 1524.4 L 597.093 1524.79 L 596.736 1525.32 L 596.736 1524.29 L 595.813 1524.29 L 595.813 1530.49 L 595.813 1530.49 z M 609.358 1530.49 L 614.499 1530.49 L 614.499 1529.52 L 610.419 1529.52 L 610.419 1522.49 L 609.358 1522.49 L 609.358 1530.49 L 609.358 1530.49 z M 615.952 1527.4 L 616.136 1528.8 L 616.667 1529.84 L 617.508 1530.49 L 618.638 1530.7 L 619.756 1530.49 L 620.597 1529.85 L 621.128 1528.81 L 621.324 1527.4 L 621.128 1525.99 L 620.597 1524.94 L 619.756 1524.31 L 618.638 1524.08 L 617.508 1524.31 L 616.667 1524.95 L 616.136 1525.99 L 615.952 1527.4 L 615.952 1527.4 z M 616.989 1527.38 L 617.093 1526.35 L 617.416 1525.6 L 617.935 1525.14 L 618.638 1524.98 L 619.329 1525.14 L 619.848 1525.59 L 620.171 1526.35 L 620.286 1527.38 L 620.171 1528.43 L 619.848 1529.19 L 619.329 1529.66 L 618.638 1529.81 L 617.935 1529.66 L 617.416 1529.19 L 617.093 1528.43 L 616.989 1527.38 L 616.989 1527.38 z M 624.655 1530.49 L 625.577 1525.23 L 626.499 1530.49 L 627.468 1530.49 L 628.989 1524.29 L 628.01 1524.29 L 626.984 1529.55 L 626.073 1524.29 L 625.07 1524.29 L 624.159 1529.55 L 623.133 1524.29 L 622.165 1524.29 L 623.687 1530.49 L 624.655 1530.49 L 624.655 1530.49 z M 631.018 1527.68 L 635.076 1527.68 L 635.087 1527.21 L 634.903 1525.89 L 634.396 1524.89 L 633.589 1524.29 L 632.517 1524.08 L 631.468 1524.31 L 630.661 1524.95 L 630.142 1526 L 629.958 1527.38 L 630.131 1528.8 L 630.649 1529.84 L 631.445 1530.49 L 632.482 1530.7 L 633.381 1530.55 L 634.119 1530.16 L 634.661 1529.54 L 634.972 1528.71 L 633.969 1528.71 L 633.762 1529.17 L 633.462 1529.52 L 632.609 1529.79 L 631.952 1529.67 L 631.456 1529.26 L 631.133 1528.61 L 631.018 1527.72 L 631.018 1527.68 L 631.018 1527.68 z M 631.018 1526.83 L 631.145 1526.04 L 631.456 1525.45 L 631.929 1525.09 L 632.551 1524.96 L 633.162 1525.09 L 633.635 1525.45 L 633.923 1526.04 L 634.027 1526.83 L 631.018 1526.83 L 631.018 1526.83 z M 637.451 1530.49 L 638.465 1530.49 L 638.465 1526.95 L 638.569 1526.09 L 638.88 1525.48 L 639.387 1525.11 L 640.067 1524.99 L 640.574 1525.07 L 640.955 1525.3 L 641.185 1525.69 L 641.266 1526.22 L 642.292 1526.22 L 642.154 1525.29 L 641.773 1524.62 L 641.139 1524.21 L 640.275 1524.08 L 639.687 1524.17 L 639.18 1524.4 L 638.73 1524.79 L 638.373 1525.32 L 638.373 1524.29 L 637.451 1524.29 L 637.451 1530.49 L 637.451 1530.49 z M 649.831 1530.49 L 650.891 1530.49 L 651.733 1528.13 L 654.926 1528.13 L 655.768 1530.49 L 656.851 1530.49 L 653.923 1522.47 L 652.747 1522.47 L 649.831 1530.49 L 649.831 1530.49 z M 652.102 1527.15 L 653.335 1523.63 L 654.569 1527.15 L 652.102 1527.15 L 652.102 1527.15 z M 658.88 1527.85 L 661.67 1527.85 L 661.67 1526.93 L 658.88 1526.93 L 658.88 1527.85 L 658.88 1527.85 z M 663.71 1530.49 L 664.771 1530.49 L 665.612 1528.13 L 668.805 1528.13 L 669.647 1530.49 L 670.73 1530.49 L 667.802 1522.47 L 666.626 1522.47 L 663.71 1530.49 L 663.71 1530.49 z M 665.981 1527.15 L 667.214 1523.63 L 668.448 1527.15 L 665.981 1527.15 L 665.981 1527.15 z M 672.148 1530.49 L 673.162 1530.49 L 673.162 1526.95 L 673.266 1526.09 L 673.577 1525.48 L 674.085 1525.11 L 674.765 1524.99 L 675.272 1525.07 L 675.652 1525.3 L 675.883 1525.69 L 675.964 1526.22 L 676.99 1526.22 L 676.851 1525.29 L 676.471 1524.62 L 675.837 1524.21 L 674.972 1524.08 L 674.384 1524.17 L 673.877 1524.4 L 673.428 1524.79 L 673.07 1525.32 L 673.07 1524.29 L 672.148 1524.29 L 672.148 1530.49 L 672.148 1530.49 z M 678.304 1530.49 L 679.237 1530.49 L 679.237 1526.35 L 679.295 1525.72 L 679.468 1525.27 L 679.733 1525.01 L 680.079 1524.91 L 680.356 1525 L 680.54 1525.23 L 680.632 1525.62 L 680.667 1526.14 L 680.667 1530.49 L 681.543 1530.49 L 681.543 1526.35 L 681.601 1525.74 L 681.773 1525.29 L 682.05 1525.01 L 682.396 1524.91 L 682.673 1525 L 682.857 1525.23 L 682.972 1526.14 L 682.972 1530.49 L 683.906 1530.49 L 683.906 1526.21 L 683.848 1525.32 L 683.664 1524.64 L 683.295 1524.23 L 682.696 1524.08 L 681.992 1524.31 L 681.451 1524.98 L 681.024 1524.32 L 680.31 1524.08 L 679.652 1524.31 L 679.203 1524.95 L 679.203 1524.29 L 678.304 1524.29 L 678.304 1530.49 L 678.304 1530.49 z" stroke="none" fill-rule="evenodd" fill="rgb(0, 0, 0)"/></g><g stroke="rgb(0, 0, 0)" stroke-width="0.13" stroke-linecap="butt" stroke-linejoin="miter" fill="none"><path d="M 426.804 1208.52 L 427.611 1207.85 L 427.819 1207.4 L 427.888 1206.85 L 427.738 1205.98 L 427.289 1205.36 L 426.562 1204.98 L 425.548 1204.84 L 422.701 1204.84 L 422.701 1212.84 L 425.709 1212.84 L 426.781 1212.68 L 427.577 1212.21 L 428.072 1211.46 L 428.245 1210.44 L 428.142 1209.76 L 427.865 1209.2 L 427.415 1208.78 L 426.804 1208.52 L 426.804 1208.52 z M 425.329 1208.16 L 423.761 1208.16 L 423.761 1205.8 L 425.421 1205.8 L 426.044 1205.87 L 426.482 1206.08 L 426.747 1206.43 L 426.839 1206.96 L 426.735 1207.49 L 426.459 1207.86 L 425.986 1208.09 L 425.329 1208.16 L 425.329 1208.16 z M 425.583 1211.89 L 423.761 1211.89 L 423.761 1209.13 L 425.479 1209.13 L 426.205 1209.21 L 426.724 1209.45 L 427.035 1209.87 L 427.139 1210.47 L 427.035 1211.1 L 426.747 1211.54 L 426.263 1211.8 L 425.583 1211.89 L 425.583 1211.89 z M 433.018 1211.99 L 433.018 1206.86 L 430.413 1206.86 L 430.413 1207.72 L 432.003 1207.72 L 432.003 1211.99 L 429.928 1211.99 L 429.928 1212.84 L 435.116 1212.84 L 435.116 1211.99 L 433.018 1211.99 L 433.018 1211.99 z M 433.052 1204.57 L 431.98 1204.57 L 431.98 1205.72 L 433.052 1205.72 L 433.052 1204.57 L 433.052 1204.57 z M 437.744 1210.04 L 441.802 1210.04 L 441.813 1209.57 L 441.629 1208.24 L 441.121 1207.25 L 440.315 1206.65 L 439.242 1206.43 L 438.194 1206.66 L 437.387 1207.31 L 436.868 1208.36 L 436.683 1209.74 L 436.856 1211.16 L 437.375 1212.2 L 438.17 1212.84 L 439.208 1213.06 L 440.107 1212.91 L 440.845 1212.52 L 441.387 1211.9 L 441.698 1211.07 L 440.695 1211.07 L 440.487 1211.53 L 440.188 1211.87 L 439.335 1212.15 L 438.678 1212.02 L 438.182 1211.62 L 437.859 1210.96 L 437.744 1210.08 L 437.744 1210.04 L 437.744 1210.04 z M 437.744 1209.19 L 437.871 1208.39 L 438.182 1207.8 L 438.655 1207.45 L 439.277 1207.32 L 439.888 1207.45 L 440.361 1207.8 L 440.649 1208.39 L 440.753 1209.19 L 437.744 1209.19 L 437.744 1209.19 z M 445.813 1205.42 L 445.813 1211.99 L 443.727 1211.99 L 443.727 1212.84 L 448.902 1212.84 L 448.902 1211.99 L 446.828 1211.99 L 446.828 1204.57 L 444.222 1204.57 L 444.222 1205.42 L 445.813 1205.42 L 445.813 1205.42 z M 452.753 1205.42 L 452.753 1211.99 L 450.666 1211.99 L 450.666 1212.84 L 455.842 1212.84 L 455.842 1211.99 L 453.767 1211.99 L 453.767 1204.57 L 451.162 1204.57 L 451.162 1205.42 L 452.753 1205.42 L 452.753 1205.42 z M 458.562 1210.04 L 462.62 1210.04 L 462.632 1209.57 L 462.447 1208.24 L 461.94 1207.25 L 461.133 1206.65 L 460.061 1206.43 L 459.012 1206.66 L 458.205 1207.31 L 457.686 1208.36 L 457.502 1209.74 L 457.675 1211.16 L 458.194 1212.2 L 458.989 1212.84 L 460.026 1213.06 L 460.926 1212.91 L 461.663 1212.52 L 462.205 1211.9 L 462.516 1211.07 L 461.513 1211.07 L 461.306 1211.53 L 461.006 1211.87 L 460.153 1212.15 L 459.496 1212.02 L 459 1211.62 L 458.678 1210.96 L 458.562 1210.08 L 458.562 1210.04 L 458.562 1210.04 z M 458.562 1209.19 L 458.689 1208.39 L 459 1207.8 L 459.473 1207.45 L 460.096 1207.32 L 460.706 1207.45 L 461.179 1207.8 L 461.467 1208.39 L 461.571 1209.19 L 458.562 1209.19 L 458.562 1209.19 z M 465.975 1207.72 L 465.975 1210.83 L 466.044 1211.83 L 466.366 1212.52 L 467.012 1212.92 L 468.107 1213.06 L 469.306 1213 L 469.306 1212.13 L 468.43 1212.2 L 467.634 1212.1 L 467.208 1211.82 L 467.023 1211.33 L 466.989 1210.65 L 466.989 1207.72 L 469.306 1207.72 L 469.306 1206.86 L 466.989 1206.86 L 466.989 1205.05 L 465.975 1205.05 L 465.975 1206.86 L 464.222 1206.86 L 464.222 1207.72 L 465.975 1207.72 L 465.975 1207.72 z M 472.914 1207.72 L 472.914 1210.83 L 472.983 1211.83 L 473.306 1212.52 L 473.951 1212.92 L 475.047 1213.06 L 476.245 1213 L 476.245 1212.13 L 475.369 1212.2 L 474.574 1212.1 L 474.147 1211.82 L 473.963 1211.33 L 473.928 1210.65 L 473.928 1207.72 L 476.245 1207.72 L 476.245 1206.86 L 473.928 1206.86 L 473.928 1205.05 L 472.914 1205.05 L 472.914 1206.86 L 471.162 1206.86 L 471.162 1207.72 L 472.914 1207.72 L 472.914 1207.72 z M 479.381 1210.04 L 483.438 1210.04 L 483.45 1209.57 L 483.266 1208.24 L 482.758 1207.25 L 481.951 1206.65 L 480.879 1206.43 L 479.83 1206.66 L 479.023 1207.31 L 478.505 1208.36 L 478.32 1209.74 L 478.493 1211.16 L 479.012 1212.2 L 479.807 1212.84 L 480.845 1213.06 L 481.744 1212.91 L 482.482 1212.52 L 483.023 1211.9 L 483.335 1211.07 L 482.332 1211.07 L 482.124 1211.53 L 481.825 1211.87 L 480.972 1212.15 L 480.315 1212.02 L 479.819 1211.62 L 479.496 1210.96 L 479.381 1210.08 L 479.381 1210.04 L 479.381 1210.04 z M 479.381 1209.19 L 479.508 1208.39 L 479.819 1207.8 L 480.292 1207.45 L 480.914 1207.32 L 481.525 1207.45 L 481.998 1207.8 L 482.286 1208.39 L 482.389 1209.19 L 479.381 1209.19 L 479.381 1209.19 z M 492.326 1212.84 L 493.387 1212.84 L 493.387 1209.46 L 494.562 1209.46 L 495.75 1209.41 L 496.695 1209 L 497.306 1208.22 L 497.513 1207.15 L 497.352 1206.16 L 496.891 1205.43 L 496.13 1204.99 L 495.093 1204.84 L 492.326 1204.84 L 492.326 1212.84 L 492.326 1212.84 z M 494.804 1205.82 L 495.496 1205.89 L 496.003 1206.11 L 496.303 1206.51 L 496.407 1207.15 L 496.292 1207.82 L 495.98 1208.22 L 495.45 1208.43 L 494.724 1208.49 L 493.387 1208.49 L 493.387 1205.82 L 494.804 1205.82 L 494.804 1205.82 z M 504.084 1206.65 L 503.07 1206.65 L 503.07 1210.23 L 502.954 1211.06 L 502.62 1211.66 L 502.101 1212.02 L 501.421 1212.14 L 500.879 1212.05 L 500.534 1211.77 L 500.338 1211.3 L 500.292 1210.63 L 500.292 1206.65 L 499.277 1206.65 L 499.277 1210.72 L 499.312 1211.54 L 499.531 1212.22 L 500.199 1212.84 L 501.271 1213.06 L 501.848 1212.98 L 502.343 1212.77 L 502.77 1212.42 L 503.116 1211.9 L 503.116 1212.84 L 504.084 1212.84 L 504.084 1206.65 L 504.084 1206.65 z M 509.283 1209.23 L 508.303 1209 L 507.577 1208.74 L 507.335 1208.2 L 507.404 1207.82 L 507.646 1207.54 L 508.038 1207.37 L 508.603 1207.3 L 509.145 1207.37 L 509.571 1207.57 L 509.848 1207.89 L 509.963 1208.3 L 510.954 1208.3 L 510.954 1208.28 L 510.781 1207.53 L 510.309 1206.94 L 509.571 1206.57 L 508.603 1206.43 L 507.623 1206.57 L 506.908 1206.95 L 506.459 1207.52 L 506.32 1208.23 L 506.424 1208.92 L 506.747 1209.41 L 507.277 1209.75 L 508.049 1210 L 509.179 1210.27 L 509.871 1210.56 L 510.055 1210.79 L 510.124 1211.14 L 510.021 1211.56 L 509.744 1211.89 L 509.294 1212.09 L 508.695 1212.16 L 508.061 1212.09 L 507.6 1211.85 L 507.289 1211.46 L 507.162 1210.92 L 506.182 1210.92 L 506.343 1211.84 L 506.816 1212.51 L 507.565 1212.91 L 508.603 1213.06 L 509.686 1212.91 L 510.482 1212.51 L 510.966 1211.86 L 511.139 1211.02 L 511.012 1210.29 L 510.655 1209.8 L 510.067 1209.48 L 509.283 1209.23 L 509.283 1209.23 z M 513.191 1212.84 L 514.205 1212.84 L 514.205 1209.27 L 514.309 1208.45 L 514.643 1207.85 L 515.162 1207.48 L 515.853 1207.34 L 516.407 1207.46 L 516.753 1207.77 L 516.925 1208.29 L 516.983 1208.98 L 516.983 1212.84 L 517.998 1212.84 L 517.998 1208.77 L 517.951 1207.95 L 517.744 1207.27 L 517.064 1206.65 L 516.003 1206.43 L 515.427 1206.51 L 514.931 1206.73 L 514.516 1207.08 L 514.205 1207.55 L 514.205 1204.57 L 513.191 1204.57 L 513.191 1212.84 L 513.191 1212.84 z M 521.121 1210.2 L 523.911 1210.2 L 523.911 1209.29 L 521.121 1209.29 L 521.121 1210.2 L 521.121 1210.2 z M 526.885 1212.84 L 527.957 1212.84 L 527.957 1209.46 L 529.052 1209.46 L 529.859 1209.5 L 530.366 1209.66 L 530.643 1210.04 L 530.758 1210.72 L 530.816 1211.76 L 530.885 1212.44 L 531.023 1212.84 L 532.234 1212.84 L 532.234 1212.62 L 531.969 1212.3 L 531.876 1211.7 L 531.796 1210.41 L 531.6 1209.45 L 531.335 1209.15 L 530.92 1208.93 L 531.381 1208.65 L 531.704 1208.24 L 531.911 1207.74 L 531.98 1207.12 L 531.819 1206.16 L 531.358 1205.43 L 530.597 1204.99 L 529.559 1204.84 L 526.885 1204.84 L 526.885 1212.84 L 526.885 1212.84 z M 529.26 1205.82 L 529.963 1205.89 L 530.459 1206.11 L 530.77 1206.51 L 530.874 1207.15 L 530.758 1207.82 L 530.447 1208.22 L 529.917 1208.43 L 529.191 1208.49 L 527.957 1208.49 L 527.957 1205.82 L 529.26 1205.82 L 529.26 1205.82 z M 533.709 1209.75 L 533.894 1211.16 L 534.424 1212.2 L 535.265 1212.84 L 536.395 1213.06 L 537.513 1212.84 L 538.355 1212.21 L 538.885 1211.17 L 539.081 1209.75 L 538.885 1208.35 L 538.355 1207.3 L 537.513 1206.66 L 536.395 1206.43 L 535.265 1206.66 L 534.424 1207.31 L 533.894 1208.35 L 533.709 1209.75 L 533.709 1209.75 z M 534.747 1209.74 L 534.85 1208.7 L 535.173 1207.95 L 535.692 1207.49 L 536.395 1207.33 L 537.087 1207.49 L 537.606 1207.94 L 537.928 1208.7 L 538.044 1209.74 L 537.928 1210.79 L 537.606 1211.55 L 537.087 1212.01 L 536.395 1212.16 L 535.692 1212.01 L 535.173 1211.55 L 534.85 1210.79 L 534.747 1209.74 L 534.747 1209.74 z M 544.753 1211.89 L 544.753 1212.84 L 545.767 1212.84 L 545.767 1204.57 L 544.764 1204.57 L 544.764 1207.6 L 543.992 1206.72 L 543.519 1206.51 L 542.977 1206.43 L 541.997 1206.66 L 541.237 1207.31 L 540.741 1208.35 L 540.568 1209.74 L 540.741 1211.14 L 541.237 1212.19 L 541.997 1212.84 L 542.977 1213.06 L 543.519 1212.98 L 544.003 1212.77 L 544.753 1211.89 L 544.753 1211.89 z M 543.15 1207.34 L 543.819 1207.51 L 544.326 1207.95 L 544.626 1208.7 L 544.741 1209.74 L 544.626 1210.79 L 544.326 1211.54 L 543.819 1212 L 543.15 1212.15 L 542.516 1212 L 542.032 1211.54 L 541.709 1210.78 L 541.606 1209.74 L 541.709 1208.72 L 542.032 1207.97 L 542.516 1207.51 L 543.15 1207.34 L 543.15 1207.34 z" stroke="none" fill-rule="evenodd" fill="rgb(0, 0, 0)"/></g><g stroke="rgb(0, 0, 0)" stroke-width="0.13" stroke-linecap="butt" stroke-linejoin="miter" fill="none"><path d="M 466.061 1272.84 L 467.121 1272.84 L 467.121 1265.81 L 469.542 1265.81 L 469.542 1264.84 L 463.629 1264.84 L 463.629 1265.81 L 466.061 1265.81 L 466.061 1272.84 L 466.061 1272.84 z M 471.525 1272.84 L 472.539 1272.84 L 472.539 1269.3 L 472.643 1268.45 L 472.954 1267.84 L 473.462 1267.47 L 474.142 1267.34 L 474.649 1267.42 L 475.029 1267.66 L 475.26 1268.05 L 475.34 1268.58 L 476.366 1268.58 L 476.228 1267.64 L 475.848 1266.98 L 475.214 1266.57 L 474.349 1266.43 L 473.761 1266.53 L 473.254 1266.76 L 472.804 1267.15 L 472.447 1267.68 L 472.447 1266.65 L 471.525 1266.65 L 471.525 1272.84 L 471.525 1272.84 z M 481.185 1271.99 L 481.185 1266.86 L 478.58 1266.86 L 478.58 1267.72 L 480.17 1267.72 L 480.17 1271.99 L 478.095 1271.99 L 478.095 1272.84 L 483.283 1272.84 L 483.283 1271.99 L 481.185 1271.99 L 481.185 1271.99 z M 481.219 1264.57 L 480.147 1264.57 L 480.147 1265.72 L 481.219 1265.72 L 481.219 1264.57 L 481.219 1264.57 z M 488.701 1272.04 L 488.701 1272.07 L 488.758 1272.46 L 488.931 1272.74 L 489.657 1272.96 L 490.222 1272.87 L 490.222 1272.08 L 489.98 1272.12 L 489.657 1271.97 L 489.6 1271.51 L 489.6 1268.3 L 489.461 1267.48 L 489.058 1266.91 L 488.355 1266.56 L 487.363 1266.43 L 486.395 1266.57 L 485.68 1266.96 L 485.231 1267.57 L 485.081 1268.38 L 485.081 1268.45 L 485.992 1268.45 L 486.072 1267.97 L 486.326 1267.62 L 486.741 1267.41 L 487.329 1267.33 L 487.894 1267.39 L 488.297 1267.56 L 488.539 1267.86 L 488.62 1268.28 L 488.574 1268.76 L 488.389 1269 L 487.928 1269.12 L 487.064 1269.21 L 486.072 1269.42 L 485.369 1269.79 L 484.954 1270.36 L 484.827 1271.22 L 484.943 1271.98 L 485.3 1272.54 L 485.876 1272.9 L 486.672 1273.03 L 487.744 1272.78 L 488.701 1272.04 L 488.701 1272.04 z M 488.585 1270.68 L 488.447 1271.27 L 488.078 1271.74 L 487.525 1272.04 L 486.845 1272.14 L 486.407 1272.08 L 486.095 1271.9 L 485.9 1271.57 L 485.842 1271.12 L 485.888 1270.72 L 486.072 1270.43 L 486.81 1270.11 L 487.744 1269.97 L 488.585 1269.7 L 488.585 1270.68 L 488.585 1270.68 z M 491.963 1272.84 L 492.977 1272.84 L 492.977 1269.27 L 493.081 1268.45 L 493.415 1267.85 L 493.934 1267.48 L 494.626 1267.34 L 495.179 1267.46 L 495.525 1267.77 L 495.698 1268.29 L 495.755 1268.98 L 495.755 1272.84 L 496.77 1272.84 L 496.77 1268.77 L 496.724 1267.95 L 496.516 1267.27 L 495.836 1266.65 L 494.776 1266.43 L 494.188 1266.51 L 493.692 1266.73 L 493.265 1267.1 L 492.931 1267.6 L 492.931 1266.65 L 491.963 1266.65 L 491.963 1272.84 L 491.963 1272.84 z M 503.721 1272.57 L 503.721 1266.65 L 502.752 1266.65 L 502.752 1267.66 L 501.957 1266.74 L 501.473 1266.51 L 500.931 1266.43 L 499.951 1266.66 L 499.191 1267.31 L 498.695 1268.35 L 498.522 1269.74 L 498.695 1271.15 L 499.191 1272.19 L 499.951 1272.84 L 500.931 1273.06 L 501.484 1272.98 L 501.946 1272.77 L 502.752 1271.9 L 502.752 1272.77 L 502.66 1273.46 L 502.407 1273.96 L 501.922 1274.25 L 501.196 1274.35 L 500.562 1274.28 L 500.113 1274.11 L 499.848 1273.81 L 499.767 1273.41 L 498.787 1273.41 L 498.787 1273.45 L 498.937 1274.19 L 499.398 1274.74 L 500.136 1275.1 L 501.139 1275.23 L 502.337 1275.06 L 503.133 1274.57 L 503.582 1273.73 L 503.721 1272.57 L 503.721 1272.57 z M 499.571 1269.74 L 499.675 1268.72 L 499.986 1267.95 L 500.47 1267.51 L 501.116 1267.34 L 501.796 1267.51 L 502.303 1267.95 L 502.614 1268.72 L 502.729 1269.74 L 502.614 1270.79 L 502.303 1271.54 L 501.796 1272 L 501.116 1272.15 L 500.47 1272 L 499.986 1271.54 L 499.675 1270.78 L 499.571 1269.74 L 499.571 1269.74 z M 507.859 1265.42 L 507.859 1271.99 L 505.773 1271.99 L 505.773 1272.84 L 510.948 1272.84 L 510.948 1271.99 L 508.873 1271.99 L 508.873 1264.57 L 506.268 1264.57 L 506.268 1265.42 L 507.859 1265.42 L 507.859 1265.42 z M 513.669 1270.04 L 517.726 1270.04 L 517.738 1269.57 L 517.554 1268.24 L 517.046 1267.25 L 516.239 1266.65 L 515.167 1266.43 L 514.118 1266.66 L 513.311 1267.31 L 512.793 1268.36 L 512.608 1269.74 L 512.781 1271.16 L 513.3 1272.2 L 514.095 1272.84 L 515.133 1273.06 L 516.032 1272.91 L 516.77 1272.52 L 517.311 1271.9 L 517.623 1271.07 L 516.62 1271.07 L 516.412 1271.53 L 516.113 1271.87 L 515.26 1272.15 L 514.603 1272.02 L 514.107 1271.62 L 513.784 1270.96 L 513.669 1270.08 L 513.669 1270.04 L 513.669 1270.04 z M 513.669 1269.19 L 513.796 1268.39 L 514.107 1267.8 L 514.58 1267.45 L 515.202 1267.32 L 515.813 1267.45 L 516.286 1267.8 L 516.574 1268.39 L 516.677 1269.19 L 513.669 1269.19 L 513.669 1269.19 z M 526.372 1272.84 L 527.444 1272.84 L 527.444 1269.08 L 530.649 1269.08 L 530.649 1272.84 L 531.709 1272.84 L 531.709 1264.84 L 530.649 1264.84 L 530.649 1268.1 L 527.444 1268.1 L 527.444 1264.84 L 526.372 1264.84 L 526.372 1272.84 L 526.372 1272.84 z M 537.277 1272.04 L 537.277 1272.07 L 537.334 1272.46 L 537.507 1272.74 L 538.234 1272.96 L 538.798 1272.87 L 538.798 1272.08 L 538.556 1272.12 L 538.234 1271.97 L 538.176 1271.51 L 538.176 1268.3 L 538.038 1267.48 L 537.634 1266.91 L 536.931 1266.56 L 535.94 1266.43 L 534.971 1266.57 L 534.257 1266.96 L 533.807 1267.57 L 533.657 1268.38 L 533.657 1268.45 L 534.568 1268.45 L 534.649 1267.97 L 534.902 1267.62 L 535.317 1267.41 L 535.905 1267.33 L 536.47 1267.39 L 536.873 1267.56 L 537.115 1267.86 L 537.196 1268.28 L 537.15 1268.76 L 536.966 1269 L 536.505 1269.12 L 535.64 1269.21 L 534.649 1269.42 L 533.945 1269.79 L 533.53 1270.36 L 533.404 1271.22 L 533.519 1271.98 L 533.876 1272.54 L 534.453 1272.9 L 535.248 1273.03 L 536.32 1272.78 L 537.277 1272.04 L 537.277 1272.04 z M 537.162 1270.68 L 537.023 1271.27 L 536.654 1271.74 L 536.101 1272.04 L 535.421 1272.14 L 534.983 1272.08 L 534.672 1271.9 L 534.476 1271.57 L 534.418 1271.12 L 534.464 1270.72 L 534.649 1270.43 L 535.386 1270.11 L 536.32 1269.97 L 537.162 1269.7 L 537.162 1270.68 L 537.162 1270.68 z M 545.311 1266.65 L 544.297 1266.65 L 544.297 1270.23 L 544.182 1271.06 L 543.847 1271.66 L 543.329 1272.02 L 542.649 1272.14 L 542.107 1272.05 L 541.761 1271.77 L 541.565 1271.3 L 541.519 1270.63 L 541.519 1266.65 L 540.505 1266.65 L 540.505 1270.72 L 540.539 1271.54 L 540.758 1272.22 L 541.427 1272.84 L 542.499 1273.06 L 543.075 1272.98 L 543.571 1272.77 L 543.997 1272.42 L 544.343 1271.9 L 544.343 1272.84 L 545.311 1272.84 L 545.311 1266.65 L 545.311 1266.65 z M 548.839 1267.72 L 548.839 1270.83 L 548.908 1271.83 L 549.231 1272.52 L 549.876 1272.92 L 550.971 1273.06 L 552.17 1273 L 552.17 1272.13 L 551.294 1272.2 L 550.499 1272.1 L 550.072 1271.82 L 549.888 1271.33 L 549.853 1270.65 L 549.853 1267.72 L 552.17 1267.72 L 552.17 1266.86 L 549.853 1266.86 L 549.853 1265.05 L 548.839 1265.05 L 548.839 1266.86 L 547.087 1266.86 L 547.087 1267.72 L 548.839 1267.72 L 548.839 1267.72 z" stroke="none" fill-rule="evenodd" fill="rgb(0, 0, 0)"/></g><g stroke="rgb(0, 0, 0)" stroke-width="0.13" stroke-linecap="butt" stroke-linejoin="miter" fill="none"><path d="M 432.793 1300.49 L 433.865 1300.49 L 433.865 1297.11 L 434.96 1297.11 L 435.767 1297.14 L 436.274 1297.3 L 436.551 1297.68 L 436.666 1298.36 L 436.724 1299.4 L 436.793 1300.08 L 436.931 1300.49 L 438.142 1300.49 L 438.142 1300.27 L 437.876 1299.94 L 437.784 1299.34 L 437.704 1298.05 L 437.508 1297.1 L 437.242 1296.8 L 436.828 1296.58 L 437.289 1296.29 L 437.611 1295.89 L 437.819 1295.38 L 437.888 1294.77 L 437.727 1293.8 L 437.266 1293.07 L 436.505 1292.64 L 435.467 1292.49 L 432.793 1292.49 L 432.793 1300.49 L 432.793 1300.49 z M 435.168 1293.47 L 435.871 1293.53 L 436.366 1293.75 L 436.678 1294.16 L 436.781 1294.79 L 436.666 1295.46 L 436.355 1295.86 L 435.825 1296.07 L 435.098 1296.13 L 433.865 1296.13 L 433.865 1293.47 L 435.168 1293.47 L 435.168 1293.47 z M 443.018 1299.63 L 443.018 1294.5 L 440.413 1294.5 L 440.413 1295.37 L 442.003 1295.37 L 442.003 1299.63 L 439.928 1299.63 L 439.928 1300.49 L 445.116 1300.49 L 445.116 1299.63 L 443.018 1299.63 L 443.018 1299.63 z M 443.052 1292.21 L 441.98 1292.21 L 441.98 1293.36 L 443.052 1293.36 L 443.052 1292.21 L 443.052 1292.21 z M 451.675 1300.21 L 451.675 1294.29 L 450.706 1294.29 L 450.706 1295.3 L 449.911 1294.39 L 449.427 1294.16 L 448.885 1294.08 L 447.905 1294.31 L 447.145 1294.95 L 446.649 1295.99 L 446.476 1297.38 L 446.649 1298.79 L 447.145 1299.83 L 447.905 1300.49 L 448.885 1300.7 L 449.438 1300.62 L 449.9 1300.42 L 450.706 1299.54 L 450.706 1300.42 L 450.614 1301.11 L 450.361 1301.6 L 449.877 1301.89 L 449.15 1302 L 448.516 1301.93 L 448.067 1301.75 L 447.802 1301.45 L 447.721 1301.05 L 446.741 1301.05 L 446.741 1301.1 L 446.891 1301.83 L 447.352 1302.39 L 448.09 1302.74 L 449.093 1302.87 L 450.292 1302.7 L 451.087 1302.21 L 451.536 1301.37 L 451.675 1300.21 L 451.675 1300.21 z M 447.525 1297.38 L 447.629 1296.36 L 447.94 1295.6 L 448.424 1295.15 L 449.07 1294.99 L 449.75 1295.15 L 450.257 1295.6 L 450.568 1296.36 L 450.683 1297.38 L 450.568 1298.43 L 450.257 1299.18 L 449.75 1299.64 L 449.07 1299.79 L 448.424 1299.64 L 447.94 1299.18 L 447.629 1298.42 L 447.525 1297.38 L 447.525 1297.38 z M 453.796 1300.49 L 454.81 1300.49 L 454.81 1296.91 L 454.914 1296.09 L 455.248 1295.49 L 455.767 1295.12 L 456.459 1294.99 L 457.012 1295.1 L 457.358 1295.41 L 457.531 1295.93 L 457.588 1296.62 L 457.588 1300.49 L 458.603 1300.49 L 458.603 1296.42 L 458.557 1295.6 L 458.349 1294.92 L 457.669 1294.29 L 456.608 1294.08 L 456.032 1294.16 L 455.536 1294.38 L 455.121 1294.72 L 454.81 1295.19 L 454.81 1292.21 L 453.796 1292.21 L 453.796 1300.49 L 453.796 1300.49 z M 462.096 1295.37 L 462.096 1298.47 L 462.165 1299.47 L 462.487 1300.16 L 463.133 1300.57 L 464.228 1300.7 L 465.427 1300.65 L 465.427 1299.77 L 464.551 1299.84 L 463.755 1299.75 L 463.329 1299.46 L 463.145 1298.98 L 463.11 1298.29 L 463.11 1295.37 L 465.427 1295.37 L 465.427 1294.5 L 463.11 1294.5 L 463.11 1292.69 L 462.096 1292.69 L 462.096 1294.5 L 460.343 1294.5 L 460.343 1295.37 L 462.096 1295.37 L 462.096 1295.37 z M 474.43 1300.49 L 475.502 1300.49 L 475.502 1297.11 L 476.597 1297.11 L 477.404 1297.14 L 477.911 1297.3 L 478.188 1297.68 L 478.303 1298.36 L 478.361 1299.4 L 478.43 1300.08 L 478.568 1300.49 L 479.779 1300.49 L 479.779 1300.27 L 479.513 1299.94 L 479.421 1299.34 L 479.34 1298.05 L 479.145 1297.1 L 478.879 1296.8 L 478.464 1296.58 L 478.926 1296.29 L 479.248 1295.89 L 479.456 1295.38 L 479.525 1294.77 L 479.364 1293.8 L 478.902 1293.07 L 478.142 1292.64 L 477.104 1292.49 L 474.43 1292.49 L 474.43 1300.49 L 474.43 1300.49 z M 476.804 1293.47 L 477.508 1293.53 L 478.003 1293.75 L 478.315 1294.16 L 478.418 1294.79 L 478.303 1295.46 L 477.992 1295.86 L 477.462 1296.07 L 476.735 1296.13 L 475.502 1296.13 L 475.502 1293.47 L 476.804 1293.47 L 476.804 1293.47 z M 482.441 1297.68 L 486.499 1297.68 L 486.511 1297.21 L 486.326 1295.89 L 485.819 1294.89 L 485.012 1294.29 L 483.94 1294.08 L 482.891 1294.31 L 482.084 1294.95 L 481.565 1296 L 481.381 1297.38 L 481.554 1298.8 L 482.072 1299.84 L 482.868 1300.49 L 483.905 1300.7 L 484.804 1300.55 L 485.542 1300.16 L 486.084 1299.54 L 486.395 1298.71 L 485.392 1298.71 L 485.185 1299.17 L 484.885 1299.52 L 484.032 1299.79 L 483.375 1299.67 L 482.879 1299.26 L 482.557 1298.61 L 482.441 1297.72 L 482.441 1297.68 L 482.441 1297.68 z M 482.441 1296.83 L 482.568 1296.04 L 482.879 1295.45 L 483.352 1295.09 L 483.975 1294.96 L 484.585 1295.09 L 485.058 1295.45 L 485.346 1296.04 L 485.45 1296.83 L 482.441 1296.83 L 482.441 1296.83 z M 492.17 1299.68 L 492.17 1299.71 L 492.228 1300.1 L 492.401 1300.38 L 493.127 1300.6 L 493.692 1300.51 L 493.692 1299.72 L 493.45 1299.76 L 493.127 1299.61 L 493.07 1299.15 L 493.07 1295.94 L 492.931 1295.12 L 492.528 1294.55 L 491.825 1294.2 L 490.833 1294.08 L 489.865 1294.21 L 489.15 1294.61 L 488.701 1295.22 L 488.551 1296.02 L 488.551 1296.09 L 489.462 1296.09 L 489.542 1295.61 L 489.796 1295.26 L 490.211 1295.06 L 490.799 1294.98 L 491.364 1295.03 L 491.767 1295.21 L 492.009 1295.51 L 492.09 1295.92 L 492.044 1296.4 L 491.859 1296.65 L 491.398 1296.76 L 490.534 1296.85 L 489.542 1297.06 L 488.839 1297.43 L 488.424 1298.01 L 488.297 1298.86 L 488.413 1299.62 L 488.77 1300.19 L 489.346 1300.54 L 490.142 1300.67 L 491.214 1300.43 L 492.17 1299.68 L 492.17 1299.68 z M 492.055 1298.32 L 491.917 1298.92 L 491.548 1299.38 L 490.995 1299.68 L 490.315 1299.78 L 489.877 1299.72 L 489.565 1299.54 L 489.369 1299.22 L 489.312 1298.77 L 489.358 1298.36 L 489.542 1298.08 L 490.28 1297.75 L 491.214 1297.61 L 492.055 1297.34 L 492.055 1298.32 L 492.055 1298.32 z M 495.813 1300.49 L 496.828 1300.49 L 496.828 1296.95 L 496.931 1296.09 L 497.243 1295.48 L 497.75 1295.11 L 498.43 1294.99 L 498.937 1295.07 L 499.317 1295.3 L 499.548 1295.69 L 499.629 1296.22 L 500.655 1296.22 L 500.516 1295.29 L 500.136 1294.62 L 499.502 1294.21 L 498.637 1294.08 L 498.049 1294.17 L 497.542 1294.4 L 497.093 1294.79 L 496.735 1295.32 L 496.735 1294.29 L 495.813 1294.29 L 495.813 1300.49 L 495.813 1300.49 z M 508.943 1297.44 L 509.104 1298.88 L 509.611 1299.91 L 510.464 1300.5 L 511.698 1300.7 L 512.92 1300.5 L 513.773 1299.91 L 514.28 1298.89 L 514.453 1297.44 L 514.453 1292.49 L 513.381 1292.49 L 513.381 1297.5 L 513.277 1298.48 L 512.966 1299.18 L 512.436 1299.6 L 511.698 1299.74 L 510.937 1299.6 L 510.407 1299.18 L 510.096 1298.49 L 510.003 1297.5 L 510.003 1292.49 L 508.943 1292.49 L 508.943 1297.44 L 508.943 1297.44 z M 517.208 1295.25 L 517.208 1294.29 L 516.194 1294.29 L 516.194 1302.88 L 517.208 1302.88 L 517.208 1299.54 L 517.565 1300.08 L 517.969 1300.44 L 518.983 1300.7 L 519.951 1300.49 L 520.712 1299.83 L 521.208 1298.79 L 521.392 1297.38 L 521.208 1295.99 L 520.712 1294.95 L 519.951 1294.31 L 518.983 1294.08 L 518.43 1294.15 L 517.957 1294.36 L 517.554 1294.73 L 517.208 1295.25 L 517.208 1295.25 z M 518.81 1299.79 L 518.13 1299.64 L 517.634 1299.18 L 517.323 1298.43 L 517.219 1297.38 L 517.323 1296.35 L 517.634 1295.6 L 518.13 1295.15 L 518.81 1294.99 L 519.433 1295.15 L 519.928 1295.61 L 520.24 1296.36 L 520.355 1297.38 L 520.24 1298.42 L 519.928 1299.18 L 519.433 1299.64 L 518.81 1299.79 L 518.81 1299.79 z M 524.147 1295.25 L 524.147 1294.29 L 523.133 1294.29 L 523.133 1302.88 L 524.147 1302.88 L 524.147 1299.54 L 524.505 1300.08 L 524.908 1300.44 L 525.923 1300.7 L 526.891 1300.49 L 527.652 1299.83 L 528.147 1298.79 L 528.332 1297.38 L 528.147 1295.99 L 527.652 1294.95 L 526.891 1294.31 L 525.923 1294.08 L 525.369 1294.15 L 524.897 1294.36 L 524.493 1294.73 L 524.147 1295.25 L 524.147 1295.25 z M 525.75 1299.79 L 525.07 1299.64 L 524.574 1299.18 L 524.263 1298.43 L 524.159 1297.38 L 524.263 1296.35 L 524.574 1295.6 L 525.07 1295.15 L 525.75 1294.99 L 526.372 1295.15 L 526.868 1295.61 L 527.179 1296.36 L 527.294 1297.38 L 527.179 1298.42 L 526.868 1299.18 L 526.372 1299.64 L 525.75 1299.79 L 525.75 1299.79 z M 531.018 1297.68 L 535.075 1297.68 L 535.087 1297.21 L 534.902 1295.89 L 534.395 1294.89 L 533.588 1294.29 L 532.516 1294.08 L 531.467 1294.31 L 530.66 1294.95 L 530.142 1296 L 529.957 1297.38 L 530.13 1298.8 L 530.649 1299.84 L 531.444 1300.49 L 532.482 1300.7 L 533.381 1300.55 L 534.119 1300.16 L 534.66 1299.54 L 534.972 1298.71 L 533.969 1298.71 L 533.761 1299.17 L 533.461 1299.52 L 532.608 1299.79 L 531.951 1299.67 L 531.456 1299.26 L 531.133 1298.61 L 531.018 1297.72 L 531.018 1297.68 L 531.018 1297.68 z M 531.018 1296.83 L 531.144 1296.04 L 531.456 1295.45 L 531.928 1295.09 L 532.551 1294.96 L 533.162 1295.09 L 533.634 1295.45 L 533.923 1296.04 L 534.026 1296.83 L 531.018 1296.83 L 531.018 1296.83 z M 537.45 1300.49 L 538.464 1300.49 L 538.464 1296.95 L 538.568 1296.09 L 538.879 1295.48 L 539.387 1295.11 L 540.067 1294.99 L 540.574 1295.07 L 540.954 1295.3 L 541.185 1295.69 L 541.266 1296.22 L 542.291 1296.22 L 542.153 1295.29 L 541.773 1294.62 L 541.139 1294.21 L 540.274 1294.08 L 539.686 1294.17 L 539.179 1294.4 L 538.729 1294.79 L 538.372 1295.32 L 538.372 1294.29 L 537.45 1294.29 L 537.45 1300.49 L 537.45 1300.49 z M 549.83 1300.49 L 550.891 1300.49 L 551.732 1298.13 L 554.925 1298.13 L 555.767 1300.49 L 556.85 1300.49 L 553.922 1292.47 L 552.747 1292.47 L 549.83 1300.49 L 549.83 1300.49 z M 552.101 1297.15 L 553.335 1293.63 L 554.568 1297.15 L 552.101 1297.15 L 552.101 1297.15 z M 558.879 1297.85 L 561.669 1297.85 L 561.669 1296.93 L 558.879 1296.93 L 558.879 1297.85 L 558.879 1297.85 z M 563.709 1300.49 L 564.77 1300.49 L 565.611 1298.13 L 568.804 1298.13 L 569.646 1300.49 L 570.729 1300.49 L 567.801 1292.47 L 566.626 1292.47 L 563.709 1300.49 L 563.709 1300.49 z M 565.98 1297.15 L 567.214 1293.63 L 568.447 1297.15 L 565.98 1297.15 L 565.98 1297.15 z M 572.147 1300.49 L 573.162 1300.49 L 573.162 1296.95 L 573.265 1296.09 L 573.577 1295.48 L 574.084 1295.11 L 574.764 1294.99 L 575.271 1295.07 L 575.652 1295.3 L 575.882 1295.69 L 575.963 1296.22 L 576.989 1296.22 L 576.85 1295.29 L 576.47 1294.62 L 575.836 1294.21 L 574.971 1294.08 L 574.383 1294.17 L 573.876 1294.4 L 573.427 1294.79 L 573.069 1295.32 L 573.069 1294.29 L 572.147 1294.29 L 572.147 1300.49 L 572.147 1300.49 z M 578.303 1300.49 L 579.237 1300.49 L 579.237 1296.35 L 579.294 1295.72 L 579.467 1295.27 L 579.732 1295.01 L 580.078 1294.91 L 580.355 1295 L 580.539 1295.23 L 580.631 1295.62 L 580.666 1296.14 L 580.666 1300.49 L 581.542 1300.49 L 581.542 1296.35 L 581.6 1295.74 L 581.773 1295.29 L 582.049 1295.01 L 582.395 1294.91 L 582.672 1295 L 582.856 1295.23 L 582.971 1296.14 L 582.971 1300.49 L 583.905 1300.49 L 583.905 1296.21 L 583.847 1295.32 L 583.663 1294.64 L 583.294 1294.23 L 582.695 1294.08 L 581.992 1294.31 L 581.45 1294.98 L 581.023 1294.32 L 580.309 1294.08 L 579.651 1294.31 L 579.202 1294.95 L 579.202 1294.29 L 578.303 1294.29 L 578.303 1300.49 L 578.303 1300.49 z" stroke="none" fill-rule="evenodd" fill="rgb(0, 0, 0)"/></g><g stroke="rgb(0, 0, 0)" stroke-width="0.13" stroke-linecap="butt" stroke-linejoin="miter" fill="none"><path d="M 416.804 1118.52 L 417.611 1117.85 L 417.819 1117.4 L 417.888 1116.85 L 417.738 1115.98 L 417.289 1115.36 L 416.562 1114.98 L 415.548 1114.84 L 412.701 1114.84 L 412.701 1122.84 L 415.709 1122.84 L 416.781 1122.68 L 417.577 1122.21 L 418.072 1121.46 L 418.245 1120.44 L 418.142 1119.76 L 417.865 1119.2 L 417.415 1118.78 L 416.804 1118.52 L 416.804 1118.52 z M 415.329 1118.16 L 413.761 1118.16 L 413.761 1115.8 L 415.421 1115.8 L 416.044 1115.87 L 416.482 1116.08 L 416.747 1116.43 L 416.839 1116.96 L 416.735 1117.49 L 416.459 1117.86 L 415.986 1118.09 L 415.329 1118.16 L 415.329 1118.16 z M 415.583 1121.89 L 413.761 1121.89 L 413.761 1119.13 L 415.479 1119.13 L 416.205 1119.21 L 416.724 1119.45 L 417.035 1119.87 L 417.139 1120.47 L 417.035 1121.1 L 416.747 1121.54 L 416.263 1121.81 L 415.583 1121.89 L 415.583 1121.89 z M 423.018 1121.99 L 423.018 1116.86 L 420.413 1116.86 L 420.413 1117.72 L 422.003 1117.72 L 422.003 1121.99 L 419.928 1121.99 L 419.928 1122.84 L 425.116 1122.84 L 425.116 1121.99 L 423.018 1121.99 L 423.018 1121.99 z M 423.052 1114.57 L 421.98 1114.57 L 421.98 1115.72 L 423.052 1115.72 L 423.052 1114.57 L 423.052 1114.57 z M 427.744 1120.04 L 431.802 1120.04 L 431.813 1119.57 L 431.629 1118.24 L 431.121 1117.25 L 430.315 1116.65 L 429.242 1116.43 L 428.194 1116.66 L 427.387 1117.31 L 426.868 1118.36 L 426.683 1119.74 L 426.856 1121.16 L 427.375 1122.2 L 428.17 1122.84 L 429.208 1123.06 L 430.107 1122.91 L 430.845 1122.52 L 431.387 1121.9 L 431.698 1121.07 L 430.695 1121.07 L 430.487 1121.53 L 430.188 1121.87 L 429.335 1122.15 L 428.678 1122.02 L 428.182 1121.62 L 427.859 1120.96 L 427.744 1120.08 L 427.744 1120.04 L 427.744 1120.04 z M 427.744 1119.19 L 427.871 1118.39 L 428.182 1117.81 L 428.655 1117.45 L 429.277 1117.32 L 429.888 1117.45 L 430.361 1117.81 L 430.649 1118.39 L 430.753 1119.19 L 427.744 1119.19 L 427.744 1119.19 z M 435.813 1115.42 L 435.813 1121.99 L 433.727 1121.99 L 433.727 1122.84 L 438.902 1122.84 L 438.902 1121.99 L 436.828 1121.99 L 436.828 1114.57 L 434.222 1114.57 L 434.222 1115.42 L 435.813 1115.42 L 435.813 1115.42 z M 441.623 1120.04 L 445.681 1120.04 L 445.692 1119.57 L 445.508 1118.24 L 445 1117.25 L 444.194 1116.65 L 443.121 1116.43 L 442.072 1116.66 L 441.266 1117.31 L 440.747 1118.36 L 440.562 1119.74 L 440.735 1121.16 L 441.254 1122.2 L 442.049 1122.84 L 443.087 1123.06 L 443.986 1122.91 L 444.724 1122.52 L 445.266 1121.9 L 445.577 1121.07 L 444.574 1121.07 L 444.366 1121.53 L 444.067 1121.87 L 443.214 1122.15 L 442.557 1122.02 L 442.061 1121.62 L 441.738 1120.96 L 441.623 1120.08 L 441.623 1120.04 L 441.623 1120.04 z M 441.623 1119.19 L 441.75 1118.39 L 442.061 1117.81 L 442.534 1117.45 L 443.156 1117.32 L 443.767 1117.45 L 444.24 1117.81 L 444.528 1118.39 L 444.632 1119.19 L 441.623 1119.19 L 441.623 1119.19 z M 449.035 1117.72 L 449.035 1120.83 L 449.104 1121.83 L 449.427 1122.52 L 450.072 1122.92 L 451.168 1123.06 L 452.366 1123 L 452.366 1122.13 L 451.49 1122.2 L 450.695 1122.1 L 450.268 1121.82 L 450.084 1121.33 L 450.049 1120.65 L 450.049 1117.72 L 452.366 1117.72 L 452.366 1116.86 L 450.049 1116.86 L 450.049 1115.05 L 449.035 1115.05 L 449.035 1116.86 L 447.283 1116.86 L 447.283 1117.72 L 449.035 1117.72 L 449.035 1117.72 z M 455.975 1117.72 L 455.975 1120.83 L 456.044 1121.83 L 456.366 1122.52 L 457.012 1122.92 L 458.107 1123.06 L 459.306 1123 L 459.306 1122.13 L 458.43 1122.2 L 457.634 1122.1 L 457.208 1121.82 L 457.023 1121.33 L 456.989 1120.65 L 456.989 1117.72 L 459.306 1117.72 L 459.306 1116.86 L 456.989 1116.86 L 456.989 1115.05 L 455.975 1115.05 L 455.975 1116.86 L 454.222 1116.86 L 454.222 1117.72 L 455.975 1117.72 L 455.975 1117.72 z M 462.441 1120.04 L 466.499 1120.04 L 466.511 1119.57 L 466.326 1118.24 L 465.819 1117.25 L 465.012 1116.65 L 463.94 1116.43 L 462.891 1116.66 L 462.084 1117.31 L 461.565 1118.36 L 461.381 1119.74 L 461.554 1121.16 L 462.072 1122.2 L 462.868 1122.84 L 463.905 1123.06 L 464.804 1122.91 L 465.542 1122.52 L 466.084 1121.9 L 466.395 1121.07 L 465.392 1121.07 L 465.185 1121.53 L 464.885 1121.87 L 464.032 1122.15 L 463.375 1122.02 L 462.879 1121.62 L 462.557 1120.96 L 462.441 1120.08 L 462.441 1120.04 L 462.441 1120.04 z M 462.441 1119.19 L 462.568 1118.39 L 462.879 1117.81 L 463.352 1117.45 L 463.975 1117.32 L 464.585 1117.45 L 465.058 1117.81 L 465.346 1118.39 L 465.45 1119.19 L 462.441 1119.19 L 462.441 1119.19 z M 479.237 1121.89 L 479.237 1122.84 L 480.251 1122.84 L 480.251 1114.57 L 479.248 1114.57 L 479.248 1117.6 L 478.476 1116.72 L 478.003 1116.51 L 477.462 1116.43 L 476.482 1116.66 L 475.721 1117.31 L 475.225 1118.35 L 475.052 1119.74 L 475.225 1121.14 L 475.721 1122.19 L 476.482 1122.84 L 477.462 1123.06 L 478.003 1122.98 L 478.487 1122.77 L 479.237 1121.89 L 479.237 1121.89 z M 477.634 1117.34 L 478.303 1117.51 L 478.81 1117.95 L 479.11 1118.7 L 479.225 1119.74 L 479.11 1120.79 L 478.81 1121.54 L 478.303 1122 L 477.634 1122.15 L 477 1122 L 476.516 1121.54 L 476.194 1120.78 L 476.09 1119.74 L 476.194 1118.72 L 476.516 1117.97 L 477 1117.51 L 477.634 1117.34 L 477.634 1117.34 z M 483.26 1120.04 L 487.317 1120.04 L 487.329 1119.57 L 487.145 1118.24 L 486.637 1117.25 L 485.83 1116.65 L 484.758 1116.43 L 483.709 1116.66 L 482.902 1117.31 L 482.384 1118.36 L 482.199 1119.74 L 482.372 1121.16 L 482.891 1122.2 L 483.686 1122.84 L 484.724 1123.06 L 485.623 1122.91 L 486.361 1122.52 L 486.902 1121.9 L 487.214 1121.07 L 486.211 1121.07 L 486.003 1121.53 L 485.704 1121.87 L 484.851 1122.15 L 484.194 1122.02 L 483.698 1121.62 L 483.375 1120.96 L 483.26 1120.08 L 483.26 1120.04 L 483.26 1120.04 z M 483.26 1119.19 L 483.387 1118.39 L 483.698 1117.81 L 484.17 1117.45 L 484.793 1117.32 L 485.404 1117.45 L 485.877 1117.81 L 486.165 1118.39 L 486.268 1119.19 L 483.26 1119.19 L 483.26 1119.19 z M 497.208 1117.61 L 497.208 1116.65 L 496.194 1116.65 L 496.194 1125.24 L 497.208 1125.24 L 497.208 1121.9 L 497.565 1122.44 L 497.969 1122.8 L 498.983 1123.06 L 499.951 1122.84 L 500.712 1122.19 L 501.208 1121.15 L 501.392 1119.74 L 501.208 1118.35 L 500.712 1117.31 L 499.951 1116.66 L 498.983 1116.43 L 498.43 1116.5 L 497.957 1116.72 L 497.554 1117.09 L 497.208 1117.61 L 497.208 1117.61 z M 498.81 1122.15 L 498.13 1122 L 497.634 1121.54 L 497.323 1120.79 L 497.219 1119.74 L 497.323 1118.7 L 497.634 1117.95 L 498.13 1117.51 L 498.81 1117.34 L 499.433 1117.51 L 499.928 1117.97 L 500.24 1118.72 L 500.355 1119.74 L 500.24 1120.78 L 499.928 1121.54 L 499.433 1122 L 498.81 1122.15 L 498.81 1122.15 z M 506.292 1121.99 L 506.292 1116.86 L 503.686 1116.86 L 503.686 1117.72 L 505.277 1117.72 L 505.277 1121.99 L 503.202 1121.99 L 503.202 1122.84 L 508.389 1122.84 L 508.389 1121.99 L 506.292 1121.99 L 506.292 1121.99 z M 506.326 1114.57 L 505.254 1114.57 L 505.254 1115.72 L 506.326 1115.72 L 506.326 1114.57 L 506.326 1114.57 z M 510.13 1122.84 L 511.145 1122.84 L 511.145 1119.27 L 511.248 1118.45 L 511.583 1117.85 L 512.101 1117.48 L 512.793 1117.34 L 513.346 1117.46 L 513.692 1117.77 L 513.865 1118.29 L 513.923 1118.98 L 513.923 1122.84 L 514.937 1122.84 L 514.937 1118.77 L 514.891 1117.95 L 514.683 1117.27 L 514.003 1116.65 L 512.943 1116.43 L 512.355 1116.51 L 511.859 1116.73 L 511.433 1117.1 L 511.098 1117.6 L 511.098 1116.65 L 510.13 1116.65 L 510.13 1122.84 L 510.13 1122.84 z M 521.012 1118.7 L 522.015 1118.7 L 521.807 1117.78 L 521.312 1117.06 L 520.539 1116.61 L 519.536 1116.43 L 518.43 1116.66 L 517.588 1117.31 L 517.058 1118.36 L 516.874 1119.76 L 517.047 1121.16 L 517.565 1122.2 L 518.384 1122.84 L 519.502 1123.06 L 520.493 1122.89 L 521.266 1122.4 L 521.796 1121.64 L 522.026 1120.63 L 521.058 1120.63 L 520.885 1121.27 L 520.562 1121.76 L 520.101 1122.06 L 519.536 1122.15 L 518.833 1122 L 518.326 1121.54 L 518.015 1120.79 L 517.911 1119.73 L 518.015 1118.69 L 518.338 1117.94 L 518.856 1117.48 L 519.536 1117.32 L 520.136 1117.42 L 520.585 1117.69 L 520.885 1118.13 L 521.012 1118.7 L 521.012 1118.7 z M 524.897 1120.04 L 528.954 1120.04 L 528.966 1119.57 L 528.781 1118.24 L 528.274 1117.25 L 527.467 1116.65 L 526.395 1116.43 L 525.346 1116.66 L 524.539 1117.31 L 524.021 1118.36 L 523.836 1119.74 L 524.009 1121.16 L 524.528 1122.2 L 525.323 1122.84 L 526.361 1123.06 L 527.26 1122.91 L 527.997 1122.52 L 528.539 1121.9 L 528.851 1121.07 L 527.848 1121.07 L 527.64 1121.53 L 527.34 1121.87 L 526.487 1122.15 L 525.83 1122.02 L 525.335 1121.62 L 525.012 1120.96 L 524.897 1120.08 L 524.897 1120.04 L 524.897 1120.04 z M 524.897 1119.19 L 525.023 1118.39 L 525.335 1117.81 L 525.807 1117.45 L 526.43 1117.32 L 527.041 1117.45 L 527.513 1117.81 L 527.802 1118.39 L 527.905 1119.19 L 524.897 1119.19 L 524.897 1119.19 z" stroke="none" fill-rule="evenodd" fill="rgb(0, 0, 0)"/></g><g stroke="rgb(0, 0, 0)" stroke-width="0.13" stroke-linecap="butt" stroke-linejoin="miter" fill="none"><path d="M 432.144 1777.15 L 432.598 1777.15 L 432.598 1776.28 L 433.098 1776.28 L 433.098 1775.88 L 432.598 1775.88 L 432.598 1773.73 L 432.139 1773.73 L 430.606 1775.84 L 430.606 1776.28 L 432.144 1776.28 L 432.144 1777.15 L 432.144 1777.15 z M 431.03 1775.88 L 432.144 1774.31 L 432.144 1775.88 L 431.03 1775.88 L 431.03 1775.88 z M 434.332 1776.05 L 434.332 1776.09 L 434.413 1776.57 L 434.65 1776.93 L 435.023 1777.17 L 435.517 1777.25 L 436.042 1777.17 L 436.435 1776.94 L 436.687 1776.59 L 436.778 1776.14 L 436.738 1775.84 L 436.627 1775.6 L 436.445 1775.41 L 436.203 1775.27 L 436.531 1775 L 436.647 1774.57 L 436.571 1774.18 L 436.355 1773.88 L 436.002 1773.69 L 435.517 1773.63 L 435.063 1773.71 L 434.715 1773.93 L 434.489 1774.28 L 434.413 1774.75 L 434.413 1774.79 L 434.862 1774.79 L 434.902 1774.46 L 435.033 1774.23 L 435.245 1774.09 L 435.543 1774.04 L 435.805 1774.08 L 435.996 1774.19 L 436.112 1774.36 L 436.158 1774.59 L 436.112 1774.84 L 435.991 1775 L 435.78 1775.1 L 435.492 1775.13 L 435.295 1775.13 L 435.295 1775.53 L 435.543 1775.52 L 435.86 1775.56 L 436.097 1775.68 L 436.239 1775.88 L 436.289 1776.14 L 436.234 1776.43 L 436.087 1776.65 L 435.855 1776.78 L 435.548 1776.83 L 435.23 1776.78 L 434.998 1776.63 L 434.852 1776.38 L 434.796 1776.05 L 434.332 1776.05 L 434.332 1776.05 z M 438.109 1777.15 L 440.514 1777.15 L 440.514 1776.72 L 438.613 1776.72 L 438.719 1776.48 L 438.9 1776.28 L 439.46 1775.93 L 439.758 1775.77 L 440.091 1775.56 L 440.328 1775.31 L 440.464 1775.01 L 440.514 1774.67 L 440.428 1774.25 L 440.191 1773.91 L 439.828 1773.7 L 439.359 1773.63 L 438.875 1773.71 L 438.507 1773.95 L 438.27 1774.33 L 438.189 1774.83 L 438.189 1774.9 L 438.648 1774.9 L 438.648 1774.86 L 438.694 1774.51 L 438.83 1774.26 L 439.047 1774.1 L 439.334 1774.04 L 439.627 1774.09 L 439.843 1774.22 L 439.985 1774.42 L 440.035 1774.66 L 440 1774.9 L 439.904 1775.09 L 439.743 1775.26 L 439.521 1775.42 L 439.223 1775.58 L 438.729 1775.89 L 438.381 1776.22 L 438.174 1776.63 L 438.109 1777.14 L 438.109 1777.15 L 438.109 1777.15 z M 442.727 1777.15 L 443.423 1777.15 L 443.423 1776.4 L 442.727 1776.4 L 442.727 1777.15 L 442.727 1777.15 z M 445.601 1776.28 L 445.677 1776.68 L 445.893 1776.99 L 446.236 1777.18 L 446.69 1777.25 L 446.988 1777.22 L 447.255 1777.13 L 447.482 1776.97 L 447.674 1776.75 L 447.825 1776.47 L 447.936 1776.13 L 448.001 1775.73 L 448.027 1775.28 L 447.941 1774.57 L 447.694 1774.05 L 447.3 1773.74 L 446.761 1773.63 L 446.267 1773.72 L 445.893 1773.96 L 445.651 1774.33 L 445.571 1774.8 L 445.651 1775.28 L 445.888 1775.65 L 446.241 1775.89 L 446.69 1775.96 L 447.164 1775.86 L 447.522 1775.57 L 447.442 1776.13 L 447.28 1776.53 L 447.033 1776.77 L 446.695 1776.84 L 446.433 1776.81 L 446.241 1776.7 L 446.115 1776.52 L 446.065 1776.28 L 445.601 1776.28 L 445.601 1776.28 z M 446.06 1774.8 L 446.11 1774.48 L 446.251 1774.24 L 446.473 1774.08 L 446.761 1774.02 L 447.058 1774.08 L 447.285 1774.24 L 447.427 1774.48 L 447.482 1774.79 L 447.427 1775.11 L 447.285 1775.35 L 447.053 1775.49 L 446.746 1775.54 L 446.468 1775.49 L 446.251 1775.35 L 446.11 1775.11 L 446.06 1774.8 L 446.06 1774.8 z M 451.758 1774.59 L 451.662 1774.19 L 451.44 1773.88 L 451.097 1773.69 L 450.653 1773.63 L 450.356 1773.66 L 450.098 1773.76 L 449.872 1773.91 L 449.68 1774.14 L 449.529 1774.41 L 449.418 1774.75 L 449.347 1775.15 L 449.327 1775.6 L 449.408 1776.31 L 449.655 1776.83 L 450.053 1777.15 L 450.598 1777.25 L 451.087 1777.16 L 451.46 1776.92 L 451.702 1776.55 L 451.788 1776.08 L 451.702 1775.6 L 451.47 1775.23 L 451.112 1775 L 450.668 1774.92 L 450.189 1775.02 L 449.831 1775.31 L 449.907 1774.75 L 450.068 1774.35 L 450.315 1774.11 L 450.658 1774.03 L 450.91 1774.07 L 451.102 1774.18 L 451.228 1774.36 L 451.294 1774.59 L 451.758 1774.59 L 451.758 1774.59 z M 451.299 1776.08 L 451.243 1776.4 L 451.102 1776.64 L 450.875 1776.8 L 450.593 1776.85 L 450.295 1776.8 L 450.068 1776.65 L 449.922 1776.4 L 449.877 1776.09 L 449.927 1775.77 L 450.068 1775.54 L 450.3 1775.39 L 450.613 1775.33 L 450.885 1775.39 L 451.102 1775.53 L 451.243 1775.77 L 451.299 1776.08 L 451.299 1776.08 z" stroke="none" fill-rule="evenodd" fill="rgb(0, 0, 0)"/><path d="M 226.659 1778.63 L 224.727 1779.15 L 226.659 1779.67"/><path d="M 655.756 1779.67 L 657.688 1779.15 L 655.756 1778.63"/><path d="M 657.688 1779.15 L 224.727 1779.15"/></g></svg>