<?xml version="1.0" encoding="utf-8" ?><!DOCTYPE svg PUBLIC "-//W3C//DTD SVG 1.1//EN" "http://www.w3.org/Graphics/SVG/1.1/DTD/svg11.dtd" 
[ <!ATTLIST svg 
  xmlns:dsy CDATA #FIXED "http://www.3ds.com/print"  
    dsy:text-version CDATA #IMPLIED > 

  <!ATTLIST text 
  xmlns:dsy CDATA #FIXED "http://www.3ds.com/print" 
    dsy:text-version CDATA #IMPLIED > 
]><svg xmlns="http://www.w3.org/2000/svg" xmlns:dsy="http://www.3ds.com/print" dsy:text-version="18000" width="2000" height="2000" viewBox="0 0 2000 2000" version="1.1"><g stroke="rgb(0, 0, 0)" stroke-width="0.13" stroke-linecap="butt" stroke-linejoin="miter" fill="none"><path d="M 101.918 1483.52 L 101.918 1400.27"/><path d="M 571.918 1483.52 L 571.918 1400.27"/></g><g stroke="rgb(0, 0, 0)" stroke-width="0.35" stroke-linecap="butt" stroke-linejoin="miter" fill="none"><circle cx="465.635" cy="1458.3" r="3.10001"/><circle cx="215.635" cy="1458.3" r="3.10001"/><circle cx="340.595" cy="1760.75" r="3.10001"/><path d="M 325.441 1750.62 L 325.441 1729.28"/><path d="M 330.911 1729.28 L 325.441 1729.28"/><path d="M 330.911 1750.62 L 330.911 1729.28"/><path d="M 325.441 1750.62 L 330.911 1750.62"/><path d="M 350.279 1750.62 L 355.751 1750.62"/><path d="M 350.279 1750.62 L 350.279 1729.28"/><path d="M 350.279 1729.28 L 355.751 1729.28"/><path d="M 355.751 1750.62 L 355.751 1729.28"/><path d="M 571.918 1485.52 L 101.918 1485.52"/><circle cx="333.818" cy="1933.54" r="3.10001"/><circle cx="486.918" cy="1538.2" r="3.10001"/><circle cx="186.918" cy="1538.2" r="3.10001"/><circle cx="504.464" cy="1401.98" r="3.09991"/><circle cx="164.294" cy="1408.06" r="3.09991"/><circle cx="552.383" cy="1511.47" r="3.10001"/><circle cx="510.158" cy="1926.69" r="3.10001"/></g><g stroke="rgb(0, 0, 0)" stroke-width="0.13" stroke-linecap="butt" stroke-linejoin="miter" fill="none"><path d="M 289.133 1431.17 L 290.194 1431.17 L 290.194 1424.13 L 292.615 1424.13 L 292.615 1423.17 L 286.701 1423.17 L 286.701 1424.13 L 289.133 1424.13 L 289.133 1431.17 L 289.133 1431.17 z M 294.597 1431.17 L 295.612 1431.17 L 295.612 1427.63 L 295.716 1426.77 L 296.027 1426.16 L 296.534 1425.79 L 297.214 1425.67 L 297.721 1425.75 L 298.102 1425.98 L 298.332 1426.37 L 298.413 1426.9 L 299.439 1426.9 L 299.301 1425.97 L 298.92 1425.3 L 298.286 1424.9 L 297.422 1424.76 L 296.834 1424.85 L 296.327 1425.08 L 295.877 1425.47 L 295.52 1426 L 295.52 1424.98 L 294.597 1424.98 L 294.597 1431.17 L 294.597 1431.17 z M 304.257 1430.31 L 304.257 1425.18 L 301.652 1425.18 L 301.652 1426.05 L 303.243 1426.05 L 303.243 1430.31 L 301.168 1430.31 L 301.168 1431.17 L 306.355 1431.17 L 306.355 1430.31 L 304.257 1430.31 L 304.257 1430.31 z M 304.292 1422.89 L 303.22 1422.89 L 303.22 1424.04 L 304.292 1424.04 L 304.292 1422.89 L 304.292 1422.89 z M 311.773 1430.36 L 311.773 1430.39 L 311.831 1430.79 L 312.004 1431.06 L 312.73 1431.28 L 313.295 1431.19 L 313.295 1430.41 L 313.053 1430.44 L 312.73 1430.29 L 312.672 1429.83 L 312.672 1426.62 L 312.534 1425.81 L 312.131 1425.23 L 311.427 1424.88 L 310.436 1424.76 L 309.468 1424.9 L 308.753 1425.29 L 308.303 1425.9 L 308.154 1426.71 L 308.154 1426.77 L 309.064 1426.77 L 309.145 1426.29 L 309.399 1425.94 L 309.814 1425.74 L 310.401 1425.66 L 310.966 1425.71 L 311.37 1425.89 L 311.612 1426.19 L 311.693 1426.6 L 311.646 1427.09 L 311.462 1427.33 L 311.001 1427.44 L 310.136 1427.54 L 309.145 1427.74 L 308.442 1428.11 L 308.027 1428.69 L 307.9 1429.54 L 308.015 1430.3 L 308.373 1430.87 L 308.949 1431.22 L 309.744 1431.35 L 310.816 1431.11 L 311.773 1430.36 L 311.773 1430.36 z M 311.658 1429 L 311.52 1429.6 L 311.151 1430.06 L 310.597 1430.36 L 309.917 1430.46 L 309.479 1430.41 L 309.168 1430.22 L 308.972 1429.9 L 308.914 1429.45 L 308.961 1429.05 L 309.145 1428.76 L 309.883 1428.43 L 310.816 1428.3 L 311.658 1428.02 L 311.658 1429 L 311.658 1429 z M 315.035 1431.17 L 316.05 1431.17 L 316.05 1427.59 L 316.154 1426.77 L 316.488 1426.17 L 317.007 1425.81 L 317.698 1425.67 L 318.252 1425.78 L 318.597 1426.09 L 318.77 1426.61 L 318.828 1427.3 L 318.828 1431.17 L 319.842 1431.17 L 319.842 1427.1 L 319.796 1426.28 L 319.589 1425.6 L 318.909 1424.98 L 317.848 1424.76 L 317.26 1424.84 L 316.765 1425.06 L 316.338 1425.43 L 316.004 1425.92 L 316.004 1424.98 L 315.035 1424.98 L 315.035 1431.17 L 315.035 1431.17 z M 326.793 1430.89 L 326.793 1424.98 L 325.825 1424.98 L 325.825 1425.98 L 325.03 1425.07 L 324.546 1424.84 L 324.004 1424.76 L 323.024 1424.99 L 322.263 1425.63 L 321.767 1426.67 L 321.595 1428.07 L 321.767 1429.47 L 322.263 1430.51 L 323.024 1431.17 L 324.004 1431.39 L 324.557 1431.3 L 325.018 1431.1 L 325.825 1430.22 L 325.825 1431.1 L 325.733 1431.79 L 325.479 1432.28 L 324.995 1432.57 L 324.269 1432.68 L 323.635 1432.61 L 323.185 1432.43 L 322.92 1432.13 L 322.84 1431.73 L 321.86 1431.73 L 321.86 1431.78 L 322.01 1432.51 L 322.471 1433.07 L 323.208 1433.43 L 324.211 1433.55 L 325.41 1433.38 L 326.206 1432.9 L 326.655 1432.05 L 326.793 1430.89 L 326.793 1430.89 z M 322.644 1428.07 L 322.747 1427.04 L 323.059 1426.28 L 323.543 1425.83 L 324.188 1425.67 L 324.868 1425.83 L 325.376 1426.28 L 325.687 1427.04 L 325.802 1428.07 L 325.687 1429.11 L 325.376 1429.86 L 324.868 1430.32 L 324.188 1430.47 L 323.543 1430.32 L 323.059 1429.86 L 322.747 1429.1 L 322.644 1428.07 L 322.644 1428.07 z M 330.932 1423.74 L 330.932 1430.31 L 328.845 1430.31 L 328.845 1431.17 L 334.021 1431.17 L 334.021 1430.31 L 331.946 1430.31 L 331.946 1422.89 L 329.341 1422.89 L 329.341 1423.74 L 330.932 1423.74 L 330.932 1423.74 z M 336.742 1428.37 L 340.799 1428.37 L 340.811 1427.89 L 340.626 1426.57 L 340.119 1425.58 L 339.312 1424.98 L 338.24 1424.76 L 337.191 1424.99 L 336.384 1425.63 L 335.865 1426.68 L 335.681 1428.07 L 335.854 1429.48 L 336.373 1430.52 L 337.168 1431.17 L 338.206 1431.39 L 339.105 1431.24 L 339.842 1430.84 L 340.384 1430.22 L 340.695 1429.39 L 339.693 1429.39 L 339.485 1429.85 L 339.185 1430.2 L 338.332 1430.47 L 337.675 1430.35 L 337.18 1429.94 L 336.857 1429.29 L 336.742 1428.4 L 336.742 1428.37 L 336.742 1428.37 z M 336.742 1427.51 L 336.868 1426.72 L 337.18 1426.13 L 337.652 1425.77 L 338.275 1425.64 L 338.886 1425.77 L 339.358 1426.13 L 339.646 1426.72 L 339.75 1427.51 L 336.742 1427.51 L 336.742 1427.51 z M 349.445 1431.17 L 350.517 1431.17 L 350.517 1427.41 L 353.721 1427.41 L 353.721 1431.17 L 354.782 1431.17 L 354.782 1423.17 L 353.721 1423.17 L 353.721 1426.43 L 350.517 1426.43 L 350.517 1423.17 L 349.445 1423.17 L 349.445 1431.17 L 349.445 1431.17 z M 360.35 1430.36 L 360.35 1430.39 L 360.407 1430.79 L 360.58 1431.06 L 361.306 1431.28 L 361.871 1431.19 L 361.871 1430.41 L 361.629 1430.44 L 361.306 1430.29 L 361.249 1429.83 L 361.249 1426.62 L 361.11 1425.81 L 360.707 1425.23 L 360.004 1424.88 L 359.012 1424.76 L 358.044 1424.9 L 357.329 1425.29 L 356.88 1425.9 L 356.73 1426.71 L 356.73 1426.77 L 357.641 1426.77 L 357.721 1426.29 L 357.975 1425.94 L 358.39 1425.74 L 358.978 1425.66 L 359.543 1425.71 L 359.946 1425.89 L 360.188 1426.19 L 360.269 1426.6 L 360.223 1427.09 L 360.038 1427.33 L 359.577 1427.44 L 358.713 1427.54 L 357.721 1427.74 L 357.018 1428.11 L 356.603 1428.69 L 356.476 1429.54 L 356.592 1430.3 L 356.949 1430.87 L 357.525 1431.22 L 358.321 1431.35 L 359.393 1431.11 L 360.35 1430.36 L 360.35 1430.36 z M 360.234 1429 L 360.096 1429.6 L 359.727 1430.06 L 359.174 1430.36 L 358.494 1430.46 L 358.056 1430.41 L 357.744 1430.22 L 357.548 1429.9 L 357.491 1429.45 L 357.537 1429.05 L 357.721 1428.76 L 358.459 1428.43 L 359.393 1428.3 L 360.234 1428.02 L 360.234 1429 L 360.234 1429 z M 368.384 1424.98 L 367.37 1424.98 L 367.37 1428.55 L 367.255 1429.38 L 366.92 1429.98 L 366.401 1430.35 L 365.721 1430.46 L 365.18 1430.37 L 364.834 1430.09 L 364.638 1429.62 L 364.592 1428.95 L 364.592 1424.98 L 363.577 1424.98 L 363.577 1429.05 L 363.612 1429.86 L 363.831 1430.54 L 364.499 1431.17 L 365.572 1431.39 L 366.148 1431.3 L 366.644 1431.1 L 367.07 1430.74 L 367.416 1430.22 L 367.416 1431.17 L 368.384 1431.17 L 368.384 1424.98 L 368.384 1424.98 z M 371.912 1426.05 L 371.912 1429.15 L 371.981 1430.15 L 372.303 1430.84 L 372.949 1431.25 L 374.044 1431.39 L 375.243 1431.33 L 375.243 1430.45 L 374.367 1430.52 L 373.572 1430.43 L 373.145 1430.14 L 372.961 1429.66 L 372.926 1428.98 L 372.926 1426.05 L 375.243 1426.05 L 375.243 1425.18 L 372.926 1425.18 L 372.926 1423.37 L 371.912 1423.37 L 371.912 1425.18 L 370.159 1425.18 L 370.159 1426.05 L 371.912 1426.05 L 371.912 1426.05 z" stroke="none" fill-rule="evenodd" fill="rgb(0, 0, 0)"/></g><g stroke="rgb(0, 0, 0)" stroke-width="0.13" stroke-linecap="butt" stroke-linejoin="miter" fill="none"><path d="M 256.096 1458.81 L 261.237 1458.81 L 261.237 1457.84 L 257.156 1457.84 L 257.156 1450.81 L 256.096 1450.81 L 256.096 1458.81 L 256.096 1458.81 z M 263.877 1456.01 L 267.935 1456.01 L 267.946 1455.54 L 267.762 1454.21 L 267.254 1453.22 L 266.448 1452.62 L 265.376 1452.4 L 264.327 1452.63 L 263.52 1453.28 L 263.001 1454.32 L 262.816 1455.71 L 262.989 1457.13 L 263.508 1458.16 L 264.303 1458.81 L 265.341 1459.03 L 266.24 1458.88 L 266.978 1458.49 L 267.52 1457.86 L 267.831 1457.03 L 266.828 1457.03 L 266.62 1457.49 L 266.321 1457.84 L 265.468 1458.12 L 264.811 1457.99 L 264.315 1457.59 L 263.992 1456.93 L 263.877 1456.04 L 263.877 1456.01 L 263.877 1456.01 z M 263.877 1455.15 L 264.004 1454.36 L 264.315 1453.77 L 264.788 1453.41 L 265.41 1453.29 L 266.021 1453.41 L 266.494 1453.77 L 266.782 1454.36 L 266.886 1455.15 L 263.877 1455.15 L 263.877 1455.15 z M 271.335 1453.69 L 271.335 1458.81 L 272.35 1458.81 L 272.35 1453.69 L 274.655 1453.69 L 274.655 1452.83 L 272.35 1452.83 L 272.35 1452.45 L 272.43 1451.98 L 272.695 1451.67 L 273.145 1451.49 L 273.791 1451.42 L 274.655 1451.47 L 274.655 1450.59 L 273.56 1450.53 L 272.569 1450.64 L 271.877 1450.95 L 271.462 1451.49 L 271.335 1452.26 L 271.335 1452.83 L 269.479 1452.83 L 269.479 1453.69 L 271.335 1453.69 L 271.335 1453.69 z M 278.229 1453.69 L 278.229 1456.79 L 278.298 1457.79 L 278.62 1458.49 L 279.266 1458.89 L 280.361 1459.03 L 281.56 1458.97 L 281.56 1458.09 L 280.684 1458.16 L 279.889 1458.07 L 279.462 1457.78 L 279.278 1457.3 L 279.243 1456.62 L 279.243 1453.69 L 281.56 1453.69 L 281.56 1452.83 L 279.243 1452.83 L 279.243 1451.02 L 278.229 1451.02 L 278.229 1452.83 L 276.476 1452.83 L 276.476 1453.69 L 278.229 1453.69 L 278.229 1453.69 z M 290.77 1458.81 L 291.842 1458.81 L 291.842 1455.13 L 295.208 1455.13 L 295.208 1454.17 L 291.842 1454.17 L 291.842 1451.78 L 295.981 1451.78 L 295.981 1450.81 L 290.77 1450.81 L 290.77 1458.81 L 290.77 1458.81 z M 298.067 1458.81 L 299.082 1458.81 L 299.082 1455.27 L 299.185 1454.42 L 299.497 1453.81 L 300.004 1453.44 L 300.684 1453.31 L 301.191 1453.39 L 301.572 1453.62 L 301.802 1454.01 L 301.883 1454.54 L 302.909 1454.54 L 302.77 1453.61 L 302.39 1452.94 L 301.756 1452.54 L 300.891 1452.4 L 300.303 1452.49 L 299.796 1452.72 L 299.347 1453.11 L 298.989 1453.64 L 298.989 1452.62 L 298.067 1452.62 L 298.067 1458.81 L 298.067 1458.81 z M 304.327 1455.72 L 304.511 1457.13 L 305.041 1458.16 L 305.883 1458.81 L 307.012 1459.03 L 308.131 1458.81 L 308.972 1458.17 L 309.502 1457.14 L 309.698 1455.72 L 309.502 1454.31 L 308.972 1453.26 L 308.131 1452.63 L 307.012 1452.4 L 305.883 1452.63 L 305.041 1453.28 L 304.511 1454.31 L 304.327 1455.72 L 304.327 1455.72 z M 305.364 1455.71 L 305.468 1454.67 L 305.791 1453.92 L 306.309 1453.46 L 307.012 1453.3 L 307.704 1453.46 L 308.223 1453.91 L 308.546 1454.67 L 308.661 1455.71 L 308.546 1456.76 L 308.223 1457.52 L 307.704 1457.98 L 307.012 1458.13 L 306.309 1457.98 L 305.791 1457.52 L 305.468 1456.76 L 305.364 1455.71 L 305.364 1455.71 z M 311.566 1458.81 L 312.58 1458.81 L 312.58 1455.24 L 312.684 1454.42 L 313.018 1453.82 L 313.537 1453.45 L 314.229 1453.31 L 314.782 1453.43 L 315.128 1453.74 L 315.301 1454.26 L 315.358 1454.95 L 315.358 1458.81 L 316.373 1458.81 L 316.373 1454.74 L 316.327 1453.92 L 316.119 1453.24 L 315.439 1452.62 L 314.378 1452.4 L 313.791 1452.48 L 313.295 1452.7 L 312.868 1453.07 L 312.534 1453.56 L 312.534 1452.62 L 311.566 1452.62 L 311.566 1458.81 L 311.566 1458.81 z M 319.865 1453.69 L 319.865 1456.79 L 319.935 1457.79 L 320.257 1458.49 L 320.903 1458.89 L 321.998 1459.03 L 323.197 1458.97 L 323.197 1458.09 L 322.321 1458.16 L 321.525 1458.07 L 321.099 1457.78 L 320.914 1457.3 L 320.88 1456.62 L 320.88 1453.69 L 323.197 1453.69 L 323.197 1452.83 L 320.88 1452.83 L 320.88 1451.02 L 319.865 1451.02 L 319.865 1452.83 L 318.113 1452.83 L 318.113 1453.69 L 319.865 1453.69 L 319.865 1453.69 z M 332.015 1455.77 L 332.177 1457.21 L 332.684 1458.23 L 333.537 1458.82 L 334.77 1459.03 L 335.992 1458.82 L 336.845 1458.23 L 337.353 1457.22 L 337.525 1455.77 L 337.525 1450.81 L 336.453 1450.81 L 336.453 1455.82 L 336.35 1456.8 L 336.038 1457.51 L 335.508 1457.92 L 334.77 1458.06 L 334.01 1457.92 L 333.479 1457.51 L 333.168 1456.81 L 333.076 1455.82 L 333.076 1450.81 L 332.015 1450.81 L 332.015 1455.77 L 332.015 1455.77 z M 340.28 1453.58 L 340.28 1452.62 L 339.266 1452.62 L 339.266 1461.21 L 340.28 1461.21 L 340.28 1457.86 L 340.638 1458.41 L 341.041 1458.76 L 342.056 1459.03 L 343.024 1458.81 L 343.785 1458.15 L 344.28 1457.11 L 344.465 1455.71 L 344.28 1454.31 L 343.785 1453.28 L 343.024 1452.63 L 342.056 1452.4 L 341.502 1452.47 L 341.03 1452.69 L 340.626 1453.06 L 340.28 1453.58 L 340.28 1453.58 z M 341.883 1458.12 L 341.203 1457.97 L 340.707 1457.51 L 340.396 1456.76 L 340.292 1455.71 L 340.396 1454.67 L 340.707 1453.92 L 341.203 1453.47 L 341.883 1453.31 L 342.505 1453.47 L 343.001 1453.93 L 343.312 1454.68 L 343.427 1455.71 L 343.312 1456.75 L 343.001 1457.51 L 342.505 1457.97 L 341.883 1458.12 L 341.883 1458.12 z M 347.22 1453.58 L 347.22 1452.62 L 346.206 1452.62 L 346.206 1461.21 L 347.22 1461.21 L 347.22 1457.86 L 347.577 1458.41 L 347.981 1458.76 L 348.995 1459.03 L 349.963 1458.81 L 350.724 1458.15 L 351.22 1457.11 L 351.404 1455.71 L 351.22 1454.31 L 350.724 1453.28 L 349.963 1452.63 L 348.995 1452.4 L 348.442 1452.47 L 347.969 1452.69 L 347.566 1453.06 L 347.22 1453.58 L 347.22 1453.58 z M 348.822 1458.12 L 348.142 1457.97 L 347.646 1457.51 L 347.335 1456.76 L 347.231 1455.71 L 347.335 1454.67 L 347.646 1453.92 L 348.142 1453.47 L 348.822 1453.31 L 349.445 1453.47 L 349.94 1453.93 L 350.252 1454.68 L 350.367 1455.71 L 350.252 1456.75 L 349.94 1457.51 L 349.445 1457.97 L 348.822 1458.12 L 348.822 1458.12 z M 354.09 1456.01 L 358.148 1456.01 L 358.159 1455.54 L 357.975 1454.21 L 357.468 1453.22 L 356.661 1452.62 L 355.589 1452.4 L 354.54 1452.63 L 353.733 1453.28 L 353.214 1454.32 L 353.03 1455.71 L 353.203 1457.13 L 353.721 1458.16 L 354.517 1458.81 L 355.554 1459.03 L 356.453 1458.88 L 357.191 1458.49 L 357.733 1457.86 L 358.044 1457.03 L 357.041 1457.03 L 356.834 1457.49 L 356.534 1457.84 L 355.681 1458.12 L 355.024 1457.99 L 354.528 1457.59 L 354.206 1456.93 L 354.09 1456.04 L 354.09 1456.01 L 354.09 1456.01 z M 354.09 1455.15 L 354.217 1454.36 L 354.528 1453.77 L 355.001 1453.41 L 355.623 1453.29 L 356.234 1453.41 L 356.707 1453.77 L 356.995 1454.36 L 357.099 1455.15 L 354.09 1455.15 L 354.09 1455.15 z M 360.523 1458.81 L 361.537 1458.81 L 361.537 1455.27 L 361.641 1454.42 L 361.952 1453.81 L 362.459 1453.44 L 363.139 1453.31 L 363.646 1453.39 L 364.027 1453.62 L 364.257 1454.01 L 364.338 1454.54 L 365.364 1454.54 L 365.226 1453.61 L 364.845 1452.94 L 364.211 1452.54 L 363.347 1452.4 L 362.759 1452.49 L 362.252 1452.72 L 361.802 1453.11 L 361.445 1453.64 L 361.445 1452.62 L 360.523 1452.62 L 360.523 1458.81 L 360.523 1458.81 z M 372.903 1458.81 L 373.963 1458.81 L 374.805 1456.46 L 377.998 1456.46 L 378.84 1458.81 L 379.923 1458.81 L 376.995 1450.8 L 375.819 1450.8 L 372.903 1458.81 L 372.903 1458.81 z M 375.174 1455.48 L 376.407 1451.95 L 377.641 1455.48 L 375.174 1455.48 L 375.174 1455.48 z M 381.952 1456.17 L 384.742 1456.17 L 384.742 1455.26 L 381.952 1455.26 L 381.952 1456.17 L 381.952 1456.17 z M 386.782 1458.81 L 387.842 1458.81 L 388.684 1456.46 L 391.877 1456.46 L 392.719 1458.81 L 393.802 1458.81 L 390.874 1450.8 L 389.698 1450.8 L 386.782 1458.81 L 386.782 1458.81 z M 389.053 1455.48 L 390.286 1451.95 L 391.52 1455.48 L 389.053 1455.48 L 389.053 1455.48 z M 395.22 1458.81 L 396.234 1458.81 L 396.234 1455.27 L 396.338 1454.42 L 396.649 1453.81 L 397.157 1453.44 L 397.837 1453.31 L 398.344 1453.39 L 398.724 1453.62 L 398.955 1454.01 L 399.036 1454.54 L 400.061 1454.54 L 399.923 1453.61 L 399.543 1452.94 L 398.909 1452.54 L 398.044 1452.4 L 397.456 1452.49 L 396.949 1452.72 L 396.499 1453.11 L 396.142 1453.64 L 396.142 1452.62 L 395.22 1452.62 L 395.22 1458.81 L 395.22 1458.81 z M 401.376 1458.81 L 402.309 1458.81 L 402.309 1454.67 L 402.367 1454.05 L 402.54 1453.6 L 402.805 1453.33 L 403.151 1453.23 L 403.427 1453.32 L 403.612 1453.55 L 403.704 1453.94 L 403.739 1454.46 L 403.739 1458.81 L 404.615 1458.81 L 404.615 1454.67 L 404.672 1454.06 L 404.845 1453.61 L 405.122 1453.33 L 405.468 1453.23 L 405.744 1453.32 L 405.929 1453.55 L 406.044 1454.46 L 406.044 1458.81 L 406.978 1458.81 L 406.978 1454.53 L 406.92 1453.64 L 406.736 1452.96 L 406.367 1452.55 L 405.768 1452.4 L 405.064 1452.63 L 404.523 1453.3 L 404.096 1452.64 L 403.381 1452.4 L 402.724 1452.63 L 402.275 1453.28 L 402.275 1452.62 L 401.376 1452.62 L 401.376 1458.81 L 401.376 1458.81 z" stroke="none" fill-rule="evenodd" fill="rgb(0, 0, 0)"/></g><g stroke="rgb(0, 0, 0)" stroke-width="0.13" stroke-linecap="butt" stroke-linejoin="miter" fill="none"><path d="M 305.272 1831.17 L 306.332 1831.17 L 306.332 1824.13 L 308.753 1824.13 L 308.753 1823.17 L 302.84 1823.17 L 302.84 1824.13 L 305.272 1824.13 L 305.272 1831.17 L 305.272 1831.17 z M 310.736 1831.17 L 311.75 1831.17 L 311.75 1827.63 L 311.854 1826.77 L 312.165 1826.16 L 312.672 1825.79 L 313.353 1825.67 L 313.86 1825.75 L 314.24 1825.98 L 314.471 1826.37 L 314.551 1826.9 L 315.577 1826.9 L 315.439 1825.97 L 315.059 1825.3 L 314.425 1824.9 L 313.56 1824.76 L 312.972 1824.85 L 312.465 1825.08 L 312.015 1825.47 L 311.658 1826 L 311.658 1824.98 L 310.736 1824.98 L 310.736 1831.17 L 310.736 1831.17 z M 320.396 1830.31 L 320.396 1825.18 L 317.791 1825.18 L 317.791 1826.05 L 319.381 1826.05 L 319.381 1830.31 L 317.306 1830.31 L 317.306 1831.17 L 322.494 1831.17 L 322.494 1830.31 L 320.396 1830.31 L 320.396 1830.31 z M 320.43 1822.89 L 319.358 1822.89 L 319.358 1824.04 L 320.43 1824.04 L 320.43 1822.89 L 320.43 1822.89 z M 327.912 1830.36 L 327.912 1830.39 L 327.969 1830.79 L 328.142 1831.06 L 328.868 1831.28 L 329.433 1831.19 L 329.433 1830.41 L 329.191 1830.44 L 328.868 1830.29 L 328.811 1829.83 L 328.811 1826.62 L 328.672 1825.81 L 328.269 1825.23 L 327.566 1824.88 L 326.574 1824.76 L 325.606 1824.9 L 324.891 1825.29 L 324.442 1825.9 L 324.292 1826.71 L 324.292 1826.77 L 325.203 1826.77 L 325.283 1826.29 L 325.537 1825.94 L 325.952 1825.74 L 326.54 1825.66 L 327.105 1825.71 L 327.508 1825.89 L 327.75 1826.19 L 327.831 1826.6 L 327.785 1827.09 L 327.6 1827.33 L 327.139 1827.44 L 326.275 1827.54 L 325.283 1827.74 L 324.58 1828.11 L 324.165 1828.69 L 324.038 1829.54 L 324.154 1830.3 L 324.511 1830.87 L 325.087 1831.22 L 325.883 1831.35 L 326.955 1831.11 L 327.912 1830.36 L 327.912 1830.36 z M 327.796 1829 L 327.658 1829.6 L 327.289 1830.06 L 326.736 1830.36 L 326.056 1830.46 L 325.618 1830.41 L 325.306 1830.22 L 325.11 1829.9 L 325.053 1829.45 L 325.099 1829.05 L 325.283 1828.76 L 326.021 1828.43 L 326.955 1828.3 L 327.796 1828.02 L 327.796 1829 L 327.796 1829 z M 331.174 1831.17 L 332.188 1831.17 L 332.188 1827.59 L 332.292 1826.77 L 332.626 1826.18 L 333.145 1825.81 L 333.837 1825.67 L 334.39 1825.78 L 334.736 1826.09 L 334.909 1826.61 L 334.966 1827.3 L 334.966 1831.17 L 335.981 1831.17 L 335.981 1827.1 L 335.935 1826.28 L 335.727 1825.6 L 335.047 1824.98 L 333.987 1824.76 L 333.399 1824.84 L 332.903 1825.06 L 332.476 1825.43 L 332.142 1825.92 L 332.142 1824.98 L 331.174 1824.98 L 331.174 1831.17 L 331.174 1831.17 z M 342.932 1830.89 L 342.932 1824.98 L 341.963 1824.98 L 341.963 1825.98 L 341.168 1825.07 L 340.684 1824.84 L 340.142 1824.76 L 339.162 1824.99 L 338.402 1825.63 L 337.906 1826.67 L 337.733 1828.07 L 337.906 1829.47 L 338.402 1830.51 L 339.162 1831.17 L 340.142 1831.39 L 340.695 1831.3 L 341.157 1831.1 L 341.963 1830.22 L 341.963 1831.1 L 341.871 1831.79 L 341.618 1832.28 L 341.134 1832.57 L 340.407 1832.68 L 339.773 1832.61 L 339.324 1832.43 L 339.059 1832.13 L 338.978 1831.73 L 337.998 1831.73 L 337.998 1831.78 L 338.148 1832.52 L 338.609 1833.07 L 339.347 1833.43 L 340.35 1833.55 L 341.548 1833.38 L 342.344 1832.9 L 342.793 1832.05 L 342.932 1830.89 L 342.932 1830.89 z M 338.782 1828.07 L 338.886 1827.04 L 339.197 1826.28 L 339.681 1825.83 L 340.327 1825.67 L 341.007 1825.83 L 341.514 1826.28 L 341.825 1827.04 L 341.94 1828.07 L 341.825 1829.11 L 341.514 1829.86 L 341.007 1830.32 L 340.327 1830.47 L 339.681 1830.32 L 339.197 1829.86 L 338.886 1829.1 L 338.782 1828.07 L 338.782 1828.07 z M 347.07 1823.74 L 347.07 1830.31 L 344.984 1830.31 L 344.984 1831.17 L 350.159 1831.17 L 350.159 1830.31 L 348.085 1830.31 L 348.085 1822.89 L 345.479 1822.89 L 345.479 1823.74 L 347.07 1823.74 L 347.07 1823.74 z M 352.88 1828.37 L 356.938 1828.37 L 356.949 1827.89 L 356.765 1826.57 L 356.257 1825.58 L 355.451 1824.98 L 354.378 1824.76 L 353.329 1824.99 L 352.523 1825.63 L 352.004 1826.68 L 351.819 1828.07 L 351.992 1829.48 L 352.511 1830.52 L 353.306 1831.17 L 354.344 1831.39 L 355.243 1831.24 L 355.981 1830.84 L 356.523 1830.22 L 356.834 1829.39 L 355.831 1829.39 L 355.623 1829.85 L 355.324 1830.2 L 354.471 1830.47 L 353.814 1830.35 L 353.318 1829.94 L 352.995 1829.29 L 352.88 1828.4 L 352.88 1828.37 L 352.88 1828.37 z M 352.88 1827.51 L 353.007 1826.72 L 353.318 1826.13 L 353.791 1825.77 L 354.413 1825.64 L 355.024 1825.77 L 355.497 1826.13 L 355.785 1826.72 L 355.889 1827.51 L 352.88 1827.51 L 352.88 1827.51 z M 369.698 1826.84 L 370.505 1826.18 L 370.713 1825.73 L 370.782 1825.17 L 370.632 1824.31 L 370.182 1823.69 L 369.456 1823.3 L 368.442 1823.17 L 365.595 1823.17 L 365.595 1831.17 L 368.603 1831.17 L 369.675 1831.01 L 370.471 1830.53 L 370.966 1829.78 L 371.139 1828.77 L 371.036 1828.09 L 370.759 1827.52 L 370.309 1827.11 L 369.698 1826.84 L 369.698 1826.84 z M 368.223 1826.49 L 366.655 1826.49 L 366.655 1824.12 L 368.315 1824.12 L 368.938 1824.19 L 369.376 1824.4 L 369.641 1824.76 L 369.733 1825.29 L 369.629 1825.82 L 369.353 1826.19 L 368.88 1826.42 L 368.223 1826.49 L 368.223 1826.49 z M 368.476 1830.21 L 366.655 1830.21 L 366.655 1827.45 L 368.373 1827.45 L 369.099 1827.54 L 369.618 1827.78 L 369.929 1828.19 L 370.033 1828.79 L 369.929 1829.43 L 369.641 1829.86 L 369.157 1830.13 L 368.476 1830.21 L 368.476 1830.21 z M 376.488 1830.36 L 376.488 1830.39 L 376.546 1830.79 L 376.719 1831.06 L 377.445 1831.28 L 378.01 1831.19 L 378.01 1830.41 L 377.768 1830.44 L 377.445 1830.29 L 377.387 1829.83 L 377.387 1826.62 L 377.249 1825.81 L 376.845 1825.23 L 376.142 1824.88 L 375.151 1824.76 L 374.182 1824.9 L 373.468 1825.29 L 373.018 1825.9 L 372.868 1826.71 L 372.868 1826.77 L 373.779 1826.77 L 373.86 1826.29 L 374.113 1825.94 L 374.528 1825.74 L 375.116 1825.66 L 375.681 1825.71 L 376.085 1825.89 L 376.327 1826.19 L 376.407 1826.6 L 376.361 1827.09 L 376.177 1827.33 L 375.716 1827.44 L 374.851 1827.54 L 373.86 1827.74 L 373.157 1828.11 L 372.742 1828.69 L 372.615 1829.54 L 372.73 1830.3 L 373.087 1830.87 L 373.664 1831.22 L 374.459 1831.35 L 375.531 1831.11 L 376.488 1830.36 L 376.488 1830.36 z M 376.373 1829 L 376.234 1829.6 L 375.866 1830.06 L 375.312 1830.36 L 374.632 1830.46 L 374.194 1830.41 L 373.883 1830.22 L 373.687 1829.9 L 373.629 1829.45 L 373.675 1829.05 L 373.86 1828.76 L 374.598 1828.43 L 375.531 1828.3 L 376.373 1828.02 L 376.373 1829 L 376.373 1829 z M 382.782 1827.56 L 381.802 1827.33 L 381.076 1827.06 L 380.834 1826.52 L 380.903 1826.14 L 381.145 1825.86 L 381.537 1825.69 L 382.102 1825.62 L 382.644 1825.69 L 383.07 1825.9 L 383.347 1826.21 L 383.462 1826.62 L 384.453 1826.62 L 384.453 1826.6 L 384.28 1825.85 L 383.808 1825.26 L 383.07 1824.9 L 382.102 1824.76 L 381.122 1824.9 L 380.407 1825.28 L 379.958 1825.84 L 379.819 1826.56 L 379.923 1827.25 L 380.246 1827.73 L 380.776 1828.08 L 381.548 1828.32 L 382.678 1828.6 L 383.37 1828.88 L 383.554 1829.11 L 383.623 1829.46 L 383.52 1829.89 L 383.243 1830.21 L 382.793 1830.42 L 382.194 1830.49 L 381.56 1830.42 L 381.099 1830.18 L 380.788 1829.78 L 380.661 1829.24 L 379.681 1829.24 L 379.842 1830.16 L 380.315 1830.83 L 381.064 1831.24 L 382.102 1831.39 L 383.185 1831.24 L 383.981 1830.83 L 384.465 1830.19 L 384.638 1829.35 L 384.511 1828.62 L 384.154 1828.12 L 383.566 1827.8 L 382.782 1827.56 L 382.782 1827.56 z" stroke="none" fill-rule="evenodd" fill="rgb(0, 0, 0)"/></g><g stroke="rgb(0, 0, 0)" stroke-width="0.13" stroke-linecap="butt" stroke-linejoin="miter" fill="none"><path d="M 268.765 1858.81 L 273.906 1858.81 L 273.906 1857.84 L 269.825 1857.84 L 269.825 1850.81 L 268.765 1850.81 L 268.765 1858.81 L 268.765 1858.81 z M 276.546 1856.01 L 280.603 1856.01 L 280.615 1855.54 L 280.43 1854.21 L 279.923 1853.22 L 279.116 1852.62 L 278.044 1852.4 L 276.995 1852.63 L 276.188 1853.28 L 275.669 1854.32 L 275.485 1855.71 L 275.658 1857.13 L 276.177 1858.16 L 276.972 1858.81 L 278.01 1859.03 L 278.909 1858.88 L 279.646 1858.49 L 280.188 1857.86 L 280.499 1857.03 L 279.497 1857.03 L 279.289 1857.49 L 278.989 1857.84 L 278.136 1858.12 L 277.479 1857.99 L 276.984 1857.59 L 276.661 1856.93 L 276.546 1856.04 L 276.546 1856.01 L 276.546 1856.01 z M 276.546 1855.15 L 276.672 1854.36 L 276.984 1853.77 L 277.456 1853.41 L 278.079 1853.29 L 278.69 1853.41 L 279.162 1853.77 L 279.45 1854.36 L 279.554 1855.15 L 276.546 1855.15 L 276.546 1855.15 z M 284.004 1853.69 L 284.004 1858.81 L 285.018 1858.81 L 285.018 1853.69 L 287.324 1853.69 L 287.324 1852.83 L 285.018 1852.83 L 285.018 1852.45 L 285.099 1851.98 L 285.364 1851.67 L 285.814 1851.49 L 286.459 1851.42 L 287.324 1851.47 L 287.324 1850.59 L 286.229 1850.53 L 285.237 1850.64 L 284.546 1850.95 L 284.131 1851.49 L 284.004 1852.26 L 284.004 1852.83 L 282.148 1852.83 L 282.148 1853.69 L 284.004 1853.69 L 284.004 1853.69 z M 290.897 1853.69 L 290.897 1856.79 L 290.966 1857.79 L 291.289 1858.49 L 291.935 1858.89 L 293.03 1859.03 L 294.229 1858.97 L 294.229 1858.09 L 293.353 1858.16 L 292.557 1858.07 L 292.131 1857.78 L 291.946 1857.3 L 291.912 1856.62 L 291.912 1853.69 L 294.229 1853.69 L 294.229 1852.83 L 291.912 1852.83 L 291.912 1851.02 L 290.897 1851.02 L 290.897 1852.83 L 289.145 1852.83 L 289.145 1853.69 L 290.897 1853.69 L 290.897 1853.69 z M 303.439 1858.81 L 304.511 1858.81 L 304.511 1855.13 L 307.877 1855.13 L 307.877 1854.17 L 304.511 1854.17 L 304.511 1851.78 L 308.649 1851.78 L 308.649 1850.81 L 303.439 1850.81 L 303.439 1858.81 L 303.439 1858.81 z M 310.736 1858.81 L 311.75 1858.81 L 311.75 1855.27 L 311.854 1854.42 L 312.165 1853.81 L 312.672 1853.44 L 313.353 1853.31 L 313.86 1853.39 L 314.24 1853.62 L 314.471 1854.01 L 314.551 1854.54 L 315.577 1854.54 L 315.439 1853.61 L 315.059 1852.94 L 314.425 1852.54 L 313.56 1852.4 L 312.972 1852.49 L 312.465 1852.72 L 312.015 1853.11 L 311.658 1853.64 L 311.658 1852.62 L 310.736 1852.62 L 310.736 1858.81 L 310.736 1858.81 z M 316.995 1855.72 L 317.18 1857.13 L 317.71 1858.16 L 318.551 1858.81 L 319.681 1859.03 L 320.799 1858.81 L 321.641 1858.17 L 322.171 1857.14 L 322.367 1855.72 L 322.171 1854.31 L 321.641 1853.26 L 320.799 1852.63 L 319.681 1852.4 L 318.551 1852.63 L 317.71 1853.28 L 317.18 1854.31 L 316.995 1855.72 L 316.995 1855.72 z M 318.033 1855.71 L 318.136 1854.67 L 318.459 1853.92 L 318.978 1853.46 L 319.681 1853.3 L 320.373 1853.46 L 320.891 1853.91 L 321.214 1854.67 L 321.329 1855.71 L 321.214 1856.76 L 320.891 1857.52 L 320.373 1857.98 L 319.681 1858.13 L 318.978 1857.98 L 318.459 1857.52 L 318.136 1856.76 L 318.033 1855.71 L 318.033 1855.71 z M 324.234 1858.81 L 325.249 1858.81 L 325.249 1855.24 L 325.353 1854.42 L 325.687 1853.82 L 326.206 1853.45 L 326.897 1853.31 L 327.451 1853.43 L 327.796 1853.74 L 327.969 1854.26 L 328.027 1854.95 L 328.027 1858.81 L 329.041 1858.81 L 329.041 1854.74 L 328.995 1853.92 L 328.788 1853.24 L 328.108 1852.62 L 327.047 1852.4 L 326.459 1852.48 L 325.963 1852.7 L 325.537 1853.07 L 325.203 1853.56 L 325.203 1852.62 L 324.234 1852.62 L 324.234 1858.81 L 324.234 1858.81 z M 332.534 1853.69 L 332.534 1856.79 L 332.603 1857.79 L 332.926 1858.49 L 333.572 1858.89 L 334.667 1859.03 L 335.865 1858.97 L 335.865 1858.09 L 334.989 1858.16 L 334.194 1858.07 L 333.768 1857.78 L 333.583 1857.3 L 333.548 1856.62 L 333.548 1853.69 L 335.865 1853.69 L 335.865 1852.83 L 333.548 1852.83 L 333.548 1851.02 L 332.534 1851.02 L 332.534 1852.83 L 330.782 1852.83 L 330.782 1853.69 L 332.534 1853.69 L 332.534 1853.69 z M 345.099 1858.81 L 350.24 1858.81 L 350.24 1857.84 L 346.159 1857.84 L 346.159 1850.81 L 345.099 1850.81 L 345.099 1858.81 L 345.099 1858.81 z M 351.693 1855.72 L 351.877 1857.13 L 352.407 1858.16 L 353.249 1858.81 L 354.378 1859.03 L 355.497 1858.81 L 356.338 1858.17 L 356.868 1857.14 L 357.064 1855.72 L 356.868 1854.31 L 356.338 1853.26 L 355.497 1852.63 L 354.378 1852.4 L 353.249 1852.63 L 352.407 1853.28 L 351.877 1854.31 L 351.693 1855.72 L 351.693 1855.72 z M 352.73 1855.71 L 352.834 1854.67 L 353.157 1853.92 L 353.675 1853.46 L 354.378 1853.3 L 355.07 1853.46 L 355.589 1853.91 L 355.912 1854.67 L 356.027 1855.71 L 355.912 1856.76 L 355.589 1857.52 L 355.07 1857.98 L 354.378 1858.13 L 353.675 1857.98 L 353.157 1857.52 L 352.834 1856.76 L 352.73 1855.71 L 352.73 1855.71 z M 360.396 1858.81 L 361.318 1853.55 L 362.24 1858.81 L 363.208 1858.81 L 364.73 1852.62 L 363.75 1852.62 L 362.724 1857.88 L 361.814 1852.62 L 360.811 1852.62 L 359.9 1857.88 L 358.874 1852.62 L 357.906 1852.62 L 359.427 1858.81 L 360.396 1858.81 L 360.396 1858.81 z M 366.759 1856.01 L 370.816 1856.01 L 370.828 1855.54 L 370.644 1854.21 L 370.136 1853.22 L 369.329 1852.62 L 368.257 1852.4 L 367.208 1852.63 L 366.402 1853.28 L 365.883 1854.32 L 365.698 1855.71 L 365.871 1857.13 L 366.39 1858.16 L 367.185 1858.81 L 368.223 1859.03 L 369.122 1858.88 L 369.86 1858.49 L 370.402 1857.86 L 370.713 1857.03 L 369.71 1857.03 L 369.502 1857.49 L 369.203 1857.84 L 368.35 1858.12 L 367.693 1857.99 L 367.197 1857.59 L 366.874 1856.93 L 366.759 1856.04 L 366.759 1856.01 L 366.759 1856.01 z M 366.759 1855.15 L 366.886 1854.36 L 367.197 1853.77 L 367.67 1853.41 L 368.292 1853.29 L 368.903 1853.41 L 369.376 1853.77 L 369.664 1854.36 L 369.768 1855.15 L 366.759 1855.15 L 366.759 1855.15 z M 373.191 1858.81 L 374.206 1858.81 L 374.206 1855.27 L 374.309 1854.42 L 374.621 1853.81 L 375.128 1853.44 L 375.808 1853.31 L 376.315 1853.39 L 376.695 1853.62 L 376.926 1854.01 L 377.007 1854.54 L 378.033 1854.54 L 377.894 1853.61 L 377.514 1852.94 L 376.88 1852.54 L 376.015 1852.4 L 375.427 1852.49 L 374.92 1852.72 L 374.471 1853.11 L 374.113 1853.64 L 374.113 1852.62 L 373.191 1852.62 L 373.191 1858.81 L 373.191 1858.81 z M 385.572 1858.81 L 386.632 1858.81 L 387.474 1856.46 L 390.667 1856.46 L 391.508 1858.81 L 392.592 1858.81 L 389.664 1850.8 L 388.488 1850.8 L 385.572 1858.81 L 385.572 1858.81 z M 387.842 1855.48 L 389.076 1851.95 L 390.309 1855.48 L 387.842 1855.48 L 387.842 1855.48 z M 394.621 1856.17 L 397.41 1856.17 L 397.41 1855.26 L 394.621 1855.26 L 394.621 1856.17 L 394.621 1856.17 z M 399.451 1858.81 L 400.511 1858.81 L 401.353 1856.46 L 404.546 1856.46 L 405.387 1858.81 L 406.471 1858.81 L 403.543 1850.8 L 402.367 1850.8 L 399.451 1858.81 L 399.451 1858.81 z M 401.721 1855.48 L 402.955 1851.95 L 404.188 1855.48 L 401.721 1855.48 L 401.721 1855.48 z M 407.889 1858.81 L 408.903 1858.81 L 408.903 1855.27 L 409.007 1854.42 L 409.318 1853.81 L 409.825 1853.44 L 410.505 1853.31 L 411.012 1853.39 L 411.393 1853.62 L 411.623 1854.01 L 411.704 1854.54 L 412.73 1854.54 L 412.592 1853.61 L 412.211 1852.94 L 411.577 1852.54 L 410.713 1852.4 L 410.125 1852.49 L 409.618 1852.72 L 409.168 1853.11 L 408.811 1853.64 L 408.811 1852.62 L 407.889 1852.62 L 407.889 1858.81 L 407.889 1858.81 z M 414.044 1858.81 L 414.978 1858.81 L 414.978 1854.67 L 415.036 1854.05 L 415.208 1853.6 L 415.474 1853.33 L 415.819 1853.23 L 416.096 1853.32 L 416.28 1853.55 L 416.373 1853.94 L 416.407 1854.46 L 416.407 1858.81 L 417.283 1858.81 L 417.283 1854.67 L 417.341 1854.06 L 417.514 1853.61 L 417.791 1853.33 L 418.136 1853.23 L 418.413 1853.32 L 418.598 1853.55 L 418.713 1854.46 L 418.713 1858.81 L 419.646 1858.81 L 419.646 1854.53 L 419.589 1853.64 L 419.404 1852.96 L 419.036 1852.55 L 418.436 1852.4 L 417.733 1852.63 L 417.191 1853.3 L 416.765 1852.64 L 416.05 1852.4 L 415.393 1852.63 L 414.943 1853.28 L 414.943 1852.62 L 414.044 1852.62 L 414.044 1858.81 L 414.044 1858.81 z" stroke="none" fill-rule="evenodd" fill="rgb(0, 0, 0)"/></g><g stroke="rgb(0, 0, 0)" stroke-width="0.13" stroke-linecap="butt" stroke-linejoin="miter" fill="none"><path d="M 302.546 1366.84 L 303.353 1366.17 L 303.56 1365.73 L 303.629 1365.17 L 303.479 1364.31 L 303.03 1363.68 L 302.303 1363.3 L 301.289 1363.17 L 298.442 1363.17 L 298.442 1371.17 L 301.45 1371.17 L 302.523 1371 L 303.318 1370.53 L 303.814 1369.78 L 303.987 1368.77 L 303.883 1368.09 L 303.606 1367.52 L 303.157 1367.11 L 302.546 1366.84 L 302.546 1366.84 z M 301.07 1366.49 L 299.502 1366.49 L 299.502 1364.12 L 301.162 1364.12 L 301.785 1364.19 L 302.223 1364.4 L 302.488 1364.76 L 302.58 1365.29 L 302.476 1365.82 L 302.2 1366.19 L 301.727 1366.42 L 301.07 1366.49 L 301.07 1366.49 z M 301.324 1370.21 L 299.502 1370.21 L 299.502 1367.45 L 301.22 1367.45 L 301.946 1367.54 L 302.465 1367.78 L 302.776 1368.19 L 302.88 1368.79 L 302.776 1369.43 L 302.488 1369.86 L 302.004 1370.13 L 301.324 1370.21 L 301.324 1370.21 z M 308.759 1370.31 L 308.759 1365.18 L 306.154 1365.18 L 306.154 1366.05 L 307.744 1366.05 L 307.744 1370.31 L 305.669 1370.31 L 305.669 1371.17 L 310.857 1371.17 L 310.857 1370.31 L 308.759 1370.31 L 308.759 1370.31 z M 308.793 1362.89 L 307.721 1362.89 L 307.721 1364.04 L 308.793 1364.04 L 308.793 1362.89 L 308.793 1362.89 z M 313.485 1368.37 L 317.543 1368.37 L 317.554 1367.89 L 317.37 1366.57 L 316.863 1365.58 L 316.056 1364.98 L 314.984 1364.76 L 313.935 1364.99 L 313.128 1365.63 L 312.609 1366.68 L 312.425 1368.07 L 312.597 1369.48 L 313.116 1370.52 L 313.912 1371.17 L 314.949 1371.39 L 315.848 1371.24 L 316.586 1370.84 L 317.128 1370.22 L 317.439 1369.39 L 316.436 1369.39 L 316.229 1369.85 L 315.929 1370.2 L 315.076 1370.47 L 314.419 1370.35 L 313.923 1369.94 L 313.6 1369.29 L 313.485 1368.4 L 313.485 1368.37 L 313.485 1368.37 z M 313.485 1367.51 L 313.612 1366.72 L 313.923 1366.13 L 314.396 1365.77 L 315.018 1365.64 L 315.629 1365.77 L 316.102 1366.13 L 316.39 1366.72 L 316.494 1367.51 L 313.485 1367.51 L 313.485 1367.51 z M 321.554 1363.74 L 321.554 1370.31 L 319.468 1370.31 L 319.468 1371.17 L 324.644 1371.17 L 324.644 1370.31 L 322.569 1370.31 L 322.569 1362.89 L 319.963 1362.89 L 319.963 1363.74 L 321.554 1363.74 L 321.554 1363.74 z M 327.364 1368.37 L 331.422 1368.37 L 331.433 1367.89 L 331.249 1366.57 L 330.742 1365.58 L 329.935 1364.98 L 328.863 1364.76 L 327.814 1364.99 L 327.007 1365.63 L 326.488 1366.68 L 326.304 1368.07 L 326.476 1369.48 L 326.995 1370.52 L 327.791 1371.17 L 328.828 1371.39 L 329.727 1371.24 L 330.465 1370.84 L 331.007 1370.22 L 331.318 1369.39 L 330.315 1369.39 L 330.108 1369.85 L 329.808 1370.2 L 328.955 1370.47 L 328.298 1370.35 L 327.802 1369.94 L 327.479 1369.29 L 327.364 1368.4 L 327.364 1368.37 L 327.364 1368.37 z M 327.364 1367.51 L 327.491 1366.72 L 327.802 1366.13 L 328.275 1365.77 L 328.897 1365.64 L 329.508 1365.77 L 329.981 1366.13 L 330.269 1366.72 L 330.373 1367.51 L 327.364 1367.51 L 327.364 1367.51 z M 334.776 1366.05 L 334.776 1369.15 L 334.845 1370.15 L 335.168 1370.84 L 335.814 1371.25 L 336.909 1371.39 L 338.108 1371.33 L 338.108 1370.45 L 337.231 1370.52 L 336.436 1370.43 L 336.01 1370.14 L 335.825 1369.66 L 335.791 1368.98 L 335.791 1366.05 L 338.108 1366.05 L 338.108 1365.18 L 335.791 1365.18 L 335.791 1363.37 L 334.776 1363.37 L 334.776 1365.18 L 333.024 1365.18 L 333.024 1366.05 L 334.776 1366.05 L 334.776 1366.05 z M 341.716 1366.05 L 341.716 1369.15 L 341.785 1370.15 L 342.108 1370.84 L 342.753 1371.25 L 343.848 1371.39 L 345.047 1371.33 L 345.047 1370.45 L 344.171 1370.52 L 343.376 1370.43 L 342.949 1370.14 L 342.765 1369.66 L 342.73 1368.98 L 342.73 1366.05 L 345.047 1366.05 L 345.047 1365.18 L 342.73 1365.18 L 342.73 1363.37 L 341.716 1363.37 L 341.716 1365.18 L 339.963 1365.18 L 339.963 1366.05 L 341.716 1366.05 L 341.716 1366.05 z M 348.182 1368.37 L 352.24 1368.37 L 352.252 1367.89 L 352.067 1366.57 L 351.56 1365.58 L 350.753 1364.98 L 349.681 1364.76 L 348.632 1364.99 L 347.825 1365.63 L 347.306 1366.68 L 347.122 1368.07 L 347.295 1369.48 L 347.814 1370.52 L 348.609 1371.17 L 349.646 1371.39 L 350.546 1371.24 L 351.283 1370.84 L 351.825 1370.22 L 352.136 1369.39 L 351.133 1369.39 L 350.926 1369.85 L 350.626 1370.2 L 349.773 1370.47 L 349.116 1370.35 L 348.621 1369.94 L 348.298 1369.29 L 348.182 1368.4 L 348.182 1368.37 L 348.182 1368.37 z M 348.182 1367.51 L 348.309 1366.72 L 348.621 1366.13 L 349.093 1365.77 L 349.716 1365.64 L 350.327 1365.77 L 350.799 1366.13 L 351.087 1366.72 L 351.191 1367.51 L 348.182 1367.51 L 348.182 1367.51 z M 361.128 1371.17 L 362.188 1371.17 L 362.188 1367.79 L 363.364 1367.79 L 364.551 1367.73 L 365.497 1367.33 L 366.108 1366.54 L 366.315 1365.47 L 366.154 1364.48 L 365.693 1363.75 L 364.932 1363.32 L 363.894 1363.17 L 361.128 1363.17 L 361.128 1371.17 L 361.128 1371.17 z M 363.606 1364.15 L 364.298 1364.22 L 364.805 1364.43 L 365.105 1364.84 L 365.208 1365.47 L 365.093 1366.14 L 364.782 1366.54 L 364.252 1366.75 L 363.525 1366.81 L 362.188 1366.81 L 362.188 1364.15 L 363.606 1364.15 L 363.606 1364.15 z M 372.886 1364.98 L 371.871 1364.98 L 371.871 1368.55 L 371.756 1369.38 L 371.422 1369.98 L 370.903 1370.35 L 370.223 1370.46 L 369.681 1370.37 L 369.335 1370.09 L 369.139 1369.62 L 369.093 1368.95 L 369.093 1364.98 L 368.079 1364.98 L 368.079 1369.05 L 368.113 1369.86 L 368.332 1370.54 L 369.001 1371.17 L 370.073 1371.39 L 370.649 1371.3 L 371.145 1371.1 L 371.572 1370.74 L 371.917 1370.22 L 371.917 1371.17 L 372.886 1371.17 L 372.886 1364.98 L 372.886 1364.98 z M 378.085 1367.56 L 377.105 1367.33 L 376.378 1367.06 L 376.136 1366.52 L 376.206 1366.14 L 376.448 1365.86 L 376.84 1365.69 L 377.404 1365.62 L 377.946 1365.69 L 378.373 1365.9 L 378.649 1366.21 L 378.765 1366.62 L 379.756 1366.62 L 379.756 1366.6 L 379.583 1365.85 L 379.11 1365.26 L 378.373 1364.9 L 377.404 1364.76 L 376.425 1364.9 L 375.71 1365.28 L 375.26 1365.84 L 375.122 1366.56 L 375.226 1367.25 L 375.548 1367.73 L 376.079 1368.08 L 376.851 1368.32 L 377.981 1368.6 L 378.672 1368.88 L 378.857 1369.11 L 378.926 1369.46 L 378.822 1369.89 L 378.546 1370.21 L 378.096 1370.42 L 377.497 1370.49 L 376.863 1370.42 L 376.402 1370.17 L 376.09 1369.78 L 375.963 1369.24 L 374.984 1369.24 L 375.145 1370.16 L 375.618 1370.83 L 376.367 1371.24 L 377.404 1371.39 L 378.488 1371.24 L 379.283 1370.83 L 379.768 1370.19 L 379.94 1369.34 L 379.814 1368.62 L 379.456 1368.12 L 378.868 1367.8 L 378.085 1367.56 L 378.085 1367.56 z M 381.992 1371.17 L 383.007 1371.17 L 383.007 1367.59 L 383.11 1366.77 L 383.445 1366.17 L 383.963 1365.81 L 384.655 1365.67 L 385.208 1365.78 L 385.554 1366.09 L 385.727 1366.61 L 385.785 1367.3 L 385.785 1371.17 L 386.799 1371.17 L 386.799 1367.1 L 386.753 1366.28 L 386.546 1365.6 L 385.865 1364.98 L 384.805 1364.76 L 384.229 1364.84 L 383.733 1365.06 L 383.318 1365.4 L 383.007 1365.88 L 383.007 1362.89 L 381.992 1362.89 L 381.992 1371.17 L 381.992 1371.17 z M 389.923 1368.53 L 392.713 1368.53 L 392.713 1367.62 L 389.923 1367.62 L 389.923 1368.53 L 389.923 1368.53 z M 395.687 1371.17 L 396.759 1371.17 L 396.759 1367.79 L 397.854 1367.79 L 398.661 1367.82 L 399.168 1367.98 L 399.445 1368.37 L 399.56 1369.05 L 399.618 1370.08 L 399.687 1370.76 L 399.825 1371.17 L 401.036 1371.17 L 401.036 1370.95 L 400.77 1370.62 L 400.678 1370.02 L 400.597 1368.73 L 400.402 1367.78 L 400.136 1367.48 L 399.721 1367.26 L 400.182 1366.97 L 400.505 1366.57 L 400.713 1366.06 L 400.782 1365.45 L 400.621 1364.48 L 400.159 1363.75 L 399.399 1363.32 L 398.361 1363.17 L 395.687 1363.17 L 395.687 1371.17 L 395.687 1371.17 z M 398.061 1364.15 L 398.765 1364.22 L 399.26 1364.43 L 399.572 1364.84 L 399.675 1365.47 L 399.56 1366.14 L 399.249 1366.54 L 398.719 1366.75 L 397.992 1366.81 L 396.759 1366.81 L 396.759 1364.15 L 398.061 1364.15 L 398.061 1364.15 z M 402.511 1368.08 L 402.695 1369.48 L 403.226 1370.52 L 404.067 1371.17 L 405.197 1371.39 L 406.315 1371.17 L 407.157 1370.53 L 407.687 1369.49 L 407.883 1368.08 L 407.687 1366.67 L 407.157 1365.62 L 406.315 1364.99 L 405.197 1364.76 L 404.067 1364.99 L 403.226 1365.63 L 402.695 1366.67 L 402.511 1368.08 L 402.511 1368.08 z M 403.548 1368.07 L 403.652 1367.03 L 403.975 1366.28 L 404.494 1365.82 L 405.197 1365.66 L 405.889 1365.82 L 406.407 1366.27 L 406.73 1367.03 L 406.845 1368.07 L 406.73 1369.11 L 406.407 1369.88 L 405.889 1370.34 L 405.197 1370.49 L 404.494 1370.34 L 403.975 1369.88 L 403.652 1369.11 L 403.548 1368.07 L 403.548 1368.07 z M 413.554 1370.21 L 413.554 1371.17 L 414.569 1371.17 L 414.569 1362.89 L 413.566 1362.89 L 413.566 1365.92 L 412.793 1365.05 L 412.321 1364.84 L 411.779 1364.76 L 410.799 1364.99 L 410.038 1365.63 L 409.543 1366.67 L 409.37 1368.07 L 409.543 1369.46 L 410.038 1370.51 L 410.799 1371.17 L 411.779 1371.39 L 412.321 1371.3 L 412.805 1371.1 L 413.554 1370.21 L 413.554 1370.21 z M 411.952 1365.67 L 412.621 1365.83 L 413.128 1366.28 L 413.427 1367.03 L 413.543 1368.07 L 413.427 1369.11 L 413.128 1369.86 L 412.621 1370.32 L 411.952 1370.47 L 411.318 1370.32 L 410.834 1369.86 L 410.511 1369.1 L 410.407 1368.07 L 410.511 1367.04 L 410.834 1366.29 L 411.318 1365.83 L 411.952 1365.67 L 411.952 1365.67 z" stroke="none" fill-rule="evenodd" fill="rgb(0, 0, 0)"/></g><g stroke="rgb(0, 0, 0)" stroke-width="0.13" stroke-linecap="butt" stroke-linejoin="miter" fill="none"><path d="M 452.546 1686.84 L 453.353 1686.17 L 453.56 1685.73 L 453.629 1685.17 L 453.479 1684.31 L 453.03 1683.68 L 452.303 1683.3 L 451.289 1683.17 L 448.442 1683.17 L 448.442 1691.17 L 451.45 1691.17 L 452.523 1691 L 453.318 1690.53 L 453.814 1689.78 L 453.987 1688.77 L 453.883 1688.09 L 453.606 1687.52 L 453.157 1687.11 L 452.546 1686.84 L 452.546 1686.84 z M 451.07 1686.49 L 449.502 1686.49 L 449.502 1684.12 L 451.162 1684.12 L 451.785 1684.19 L 452.223 1684.4 L 452.488 1684.76 L 452.58 1685.29 L 452.476 1685.82 L 452.2 1686.19 L 451.727 1686.42 L 451.07 1686.49 L 451.07 1686.49 z M 451.324 1690.21 L 449.502 1690.21 L 449.502 1687.45 L 451.22 1687.45 L 451.946 1687.54 L 452.465 1687.78 L 452.776 1688.19 L 452.88 1688.79 L 452.776 1689.43 L 452.488 1689.86 L 452.004 1690.13 L 451.324 1690.21 L 451.324 1690.21 z M 458.759 1690.31 L 458.759 1685.18 L 456.154 1685.18 L 456.154 1686.05 L 457.744 1686.05 L 457.744 1690.31 L 455.669 1690.31 L 455.669 1691.17 L 460.857 1691.17 L 460.857 1690.31 L 458.759 1690.31 L 458.759 1690.31 z M 458.793 1682.89 L 457.721 1682.89 L 457.721 1684.04 L 458.793 1684.04 L 458.793 1682.89 L 458.793 1682.89 z M 463.485 1688.37 L 467.543 1688.37 L 467.554 1687.89 L 467.37 1686.57 L 466.863 1685.58 L 466.056 1684.98 L 464.984 1684.76 L 463.935 1684.99 L 463.128 1685.63 L 462.609 1686.68 L 462.425 1688.07 L 462.597 1689.48 L 463.116 1690.52 L 463.912 1691.17 L 464.949 1691.39 L 465.848 1691.24 L 466.586 1690.84 L 467.128 1690.22 L 467.439 1689.39 L 466.436 1689.39 L 466.229 1689.85 L 465.929 1690.2 L 465.076 1690.47 L 464.419 1690.35 L 463.923 1689.94 L 463.6 1689.29 L 463.485 1688.4 L 463.485 1688.37 L 463.485 1688.37 z M 463.485 1687.51 L 463.612 1686.72 L 463.923 1686.13 L 464.396 1685.77 L 465.018 1685.64 L 465.629 1685.77 L 466.102 1686.13 L 466.39 1686.72 L 466.494 1687.51 L 463.485 1687.51 L 463.485 1687.51 z M 471.554 1683.74 L 471.554 1690.31 L 469.468 1690.31 L 469.468 1691.17 L 474.644 1691.17 L 474.644 1690.31 L 472.569 1690.31 L 472.569 1682.89 L 469.963 1682.89 L 469.963 1683.74 L 471.554 1683.74 L 471.554 1683.74 z M 477.364 1688.37 L 481.422 1688.37 L 481.433 1687.89 L 481.249 1686.57 L 480.742 1685.58 L 479.935 1684.98 L 478.863 1684.76 L 477.814 1684.99 L 477.007 1685.63 L 476.488 1686.68 L 476.304 1688.07 L 476.476 1689.48 L 476.995 1690.52 L 477.791 1691.17 L 478.828 1691.39 L 479.727 1691.24 L 480.465 1690.84 L 481.007 1690.22 L 481.318 1689.39 L 480.315 1689.39 L 480.108 1689.85 L 479.808 1690.2 L 478.955 1690.47 L 478.298 1690.35 L 477.802 1689.94 L 477.479 1689.29 L 477.364 1688.4 L 477.364 1688.37 L 477.364 1688.37 z M 477.364 1687.51 L 477.491 1686.72 L 477.802 1686.13 L 478.275 1685.77 L 478.897 1685.64 L 479.508 1685.77 L 479.981 1686.13 L 480.269 1686.72 L 480.373 1687.51 L 477.364 1687.51 L 477.364 1687.51 z M 484.776 1686.05 L 484.776 1689.15 L 484.845 1690.15 L 485.168 1690.84 L 485.814 1691.25 L 486.909 1691.39 L 488.108 1691.33 L 488.108 1690.45 L 487.231 1690.52 L 486.436 1690.43 L 486.01 1690.14 L 485.825 1689.66 L 485.791 1688.98 L 485.791 1686.05 L 488.108 1686.05 L 488.108 1685.18 L 485.791 1685.18 L 485.791 1683.37 L 484.776 1683.37 L 484.776 1685.18 L 483.024 1685.18 L 483.024 1686.05 L 484.776 1686.05 L 484.776 1686.05 z M 491.716 1686.05 L 491.716 1689.15 L 491.785 1690.15 L 492.108 1690.84 L 492.753 1691.25 L 493.848 1691.39 L 495.047 1691.33 L 495.047 1690.45 L 494.171 1690.52 L 493.376 1690.43 L 492.949 1690.14 L 492.765 1689.66 L 492.73 1688.98 L 492.73 1686.05 L 495.047 1686.05 L 495.047 1685.18 L 492.73 1685.18 L 492.73 1683.37 L 491.716 1683.37 L 491.716 1685.18 L 489.963 1685.18 L 489.963 1686.05 L 491.716 1686.05 L 491.716 1686.05 z M 498.182 1688.37 L 502.24 1688.37 L 502.252 1687.89 L 502.067 1686.57 L 501.56 1685.58 L 500.753 1684.98 L 499.681 1684.76 L 498.632 1684.99 L 497.825 1685.63 L 497.306 1686.68 L 497.122 1688.07 L 497.295 1689.48 L 497.814 1690.52 L 498.609 1691.17 L 499.646 1691.39 L 500.546 1691.24 L 501.283 1690.84 L 501.825 1690.22 L 502.136 1689.39 L 501.133 1689.39 L 500.926 1689.85 L 500.626 1690.2 L 499.773 1690.47 L 499.116 1690.35 L 498.621 1689.94 L 498.298 1689.29 L 498.182 1688.4 L 498.182 1688.37 L 498.182 1688.37 z M 498.182 1687.51 L 498.309 1686.72 L 498.621 1686.13 L 499.093 1685.77 L 499.716 1685.64 L 500.327 1685.77 L 500.799 1686.13 L 501.087 1686.72 L 501.191 1687.51 L 498.182 1687.51 L 498.182 1687.51 z M 511.739 1688.53 L 510.69 1688.53 L 510.92 1689.75 L 511.497 1690.65 L 512.384 1691.19 L 513.583 1691.39 L 514.77 1691.2 L 515.658 1690.69 L 516.223 1689.9 L 516.43 1688.85 L 516.257 1687.9 L 515.773 1687.29 L 514.989 1686.89 L 513.94 1686.59 L 513.041 1686.37 L 512.453 1686.12 L 512.119 1685.75 L 512.015 1685.17 L 512.119 1684.65 L 512.419 1684.26 L 512.88 1684 L 513.514 1683.9 L 514.159 1684.02 L 514.667 1684.33 L 515.001 1684.85 L 515.162 1685.55 L 516.211 1685.55 L 516.211 1685.53 L 516.027 1684.45 L 515.485 1683.64 L 514.632 1683.13 L 513.479 1682.96 L 512.442 1683.13 L 511.635 1683.62 L 511.116 1684.37 L 510.932 1685.33 L 511.082 1686.2 L 511.52 1686.79 L 512.211 1687.18 L 513.157 1687.48 L 514.09 1687.74 L 514.793 1688 L 515.22 1688.37 L 515.37 1688.96 L 515.232 1689.58 L 514.874 1690.04 L 514.332 1690.32 L 513.629 1690.42 L 512.845 1690.29 L 512.246 1689.92 L 511.865 1689.32 L 511.739 1688.53 L 511.739 1688.53 z M 519.474 1686.05 L 519.474 1689.15 L 519.543 1690.15 L 519.865 1690.84 L 520.511 1691.25 L 521.606 1691.39 L 522.805 1691.33 L 522.805 1690.45 L 521.929 1690.52 L 521.133 1690.43 L 520.707 1690.14 L 520.523 1689.66 L 520.488 1688.98 L 520.488 1686.05 L 522.805 1686.05 L 522.805 1685.18 L 520.488 1685.18 L 520.488 1683.37 L 519.474 1683.37 L 519.474 1685.18 L 517.721 1685.18 L 517.721 1686.05 L 519.474 1686.05 L 519.474 1686.05 z M 525.94 1688.37 L 529.998 1688.37 L 530.01 1687.89 L 529.825 1686.57 L 529.318 1685.58 L 528.511 1684.98 L 527.439 1684.76 L 526.39 1684.99 L 525.583 1685.63 L 525.064 1686.68 L 524.88 1688.07 L 525.053 1689.48 L 525.571 1690.52 L 526.367 1691.17 L 527.404 1691.39 L 528.303 1691.24 L 529.041 1690.84 L 529.583 1690.22 L 529.894 1689.39 L 528.891 1689.39 L 528.684 1689.85 L 528.384 1690.2 L 527.531 1690.47 L 526.874 1690.35 L 526.378 1689.94 L 526.056 1689.29 L 525.94 1688.4 L 525.94 1688.37 L 525.94 1688.37 z M 525.94 1687.51 L 526.067 1686.72 L 526.378 1686.13 L 526.851 1685.77 L 527.474 1685.64 L 528.084 1685.77 L 528.557 1686.13 L 528.845 1686.72 L 528.949 1687.51 L 525.94 1687.51 L 525.94 1687.51 z M 532.88 1688.37 L 536.937 1688.37 L 536.949 1687.89 L 536.765 1686.57 L 536.257 1685.58 L 535.45 1684.98 L 534.378 1684.76 L 533.329 1684.99 L 532.522 1685.63 L 532.004 1686.68 L 531.819 1688.07 L 531.992 1689.48 L 532.511 1690.52 L 533.306 1691.17 L 534.344 1691.39 L 535.243 1691.24 L 535.981 1690.84 L 536.522 1690.22 L 536.834 1689.39 L 535.831 1689.39 L 535.623 1689.85 L 535.324 1690.2 L 534.471 1690.47 L 533.814 1690.35 L 533.318 1689.94 L 532.995 1689.29 L 532.88 1688.4 L 532.88 1688.37 L 532.88 1688.37 z M 532.88 1687.51 L 533.007 1686.72 L 533.318 1686.13 L 533.79 1685.77 L 534.413 1685.64 L 535.024 1685.77 L 535.497 1686.13 L 535.785 1686.72 L 535.888 1687.51 L 532.88 1687.51 L 532.88 1687.51 z M 539.312 1691.17 L 540.326 1691.17 L 540.326 1687.63 L 540.43 1686.77 L 540.741 1686.16 L 541.249 1685.79 L 541.929 1685.67 L 542.436 1685.75 L 542.816 1685.98 L 543.047 1686.37 L 543.128 1686.9 L 544.154 1686.9 L 544.015 1685.97 L 543.635 1685.3 L 543.001 1684.9 L 542.136 1684.76 L 541.548 1684.85 L 541.041 1685.08 L 540.592 1685.47 L 540.234 1686 L 540.234 1684.98 L 539.312 1684.98 L 539.312 1691.17 L 539.312 1691.17 z M 548.972 1690.31 L 548.972 1685.18 L 546.367 1685.18 L 546.367 1686.05 L 547.958 1686.05 L 547.958 1690.31 L 545.883 1690.31 L 545.883 1691.17 L 551.07 1691.17 L 551.07 1690.31 L 548.972 1690.31 L 548.972 1690.31 z M 549.007 1682.89 L 547.935 1682.89 L 547.935 1684.04 L 549.007 1684.04 L 549.007 1682.89 L 549.007 1682.89 z M 552.811 1691.17 L 553.825 1691.17 L 553.825 1687.59 L 553.929 1686.77 L 554.263 1686.17 L 554.782 1685.81 L 555.473 1685.67 L 556.027 1685.78 L 556.372 1686.09 L 556.545 1686.61 L 556.603 1687.3 L 556.603 1691.17 L 557.617 1691.17 L 557.617 1687.1 L 557.571 1686.28 L 557.364 1685.6 L 556.684 1684.98 L 555.623 1684.76 L 555.035 1684.84 L 554.54 1685.06 L 554.113 1685.43 L 553.779 1685.92 L 553.779 1684.98 L 552.811 1684.98 L 552.811 1691.17 L 552.811 1691.17 z M 564.568 1690.89 L 564.568 1684.98 L 563.6 1684.98 L 563.6 1685.98 L 562.805 1685.07 L 562.321 1684.84 L 561.779 1684.76 L 560.799 1684.99 L 560.038 1685.63 L 559.543 1686.67 L 559.37 1688.07 L 559.543 1689.47 L 560.038 1690.51 L 560.799 1691.17 L 561.779 1691.39 L 562.332 1691.3 L 562.793 1691.1 L 563.6 1690.22 L 563.6 1691.1 L 563.508 1691.79 L 563.254 1692.28 L 562.77 1692.57 L 562.044 1692.68 L 561.41 1692.61 L 560.96 1692.43 L 560.695 1692.13 L 560.615 1691.73 L 559.635 1691.73 L 559.635 1691.78 L 559.785 1692.51 L 560.246 1693.07 L 560.983 1693.43 L 561.986 1693.55 L 563.185 1693.38 L 563.981 1692.9 L 564.43 1692.05 L 564.568 1690.89 L 564.568 1690.89 z M 560.419 1688.07 L 560.522 1687.04 L 560.834 1686.28 L 561.318 1685.83 L 561.963 1685.67 L 562.643 1685.83 L 563.151 1686.28 L 563.462 1687.04 L 563.577 1688.07 L 563.462 1689.11 L 563.151 1689.86 L 562.643 1690.32 L 561.963 1690.47 L 561.318 1690.32 L 560.834 1689.86 L 560.522 1689.1 L 560.419 1688.07 L 560.419 1688.07 z M 573.675 1691.17 L 578.816 1691.17 L 578.816 1690.2 L 574.736 1690.2 L 574.736 1683.17 L 573.675 1683.17 L 573.675 1691.17 L 573.675 1691.17 z M 583.669 1690.31 L 583.669 1685.18 L 581.064 1685.18 L 581.064 1686.05 L 582.655 1686.05 L 582.655 1690.31 L 580.58 1690.31 L 580.58 1691.17 L 585.767 1691.17 L 585.767 1690.31 L 583.669 1690.31 L 583.669 1690.31 z M 583.704 1682.89 L 582.632 1682.89 L 582.632 1684.04 L 583.704 1684.04 L 583.704 1682.89 L 583.704 1682.89 z M 587.508 1691.17 L 588.522 1691.17 L 588.522 1687.59 L 588.626 1686.77 L 588.96 1686.17 L 589.479 1685.81 L 590.171 1685.67 L 590.724 1685.78 L 591.07 1686.09 L 591.243 1686.61 L 591.3 1687.3 L 591.3 1691.17 L 592.315 1691.17 L 592.315 1687.1 L 592.269 1686.28 L 592.061 1685.6 L 591.381 1684.98 L 590.32 1684.76 L 589.733 1684.84 L 589.237 1685.06 L 588.81 1685.43 L 588.476 1685.92 L 588.476 1684.98 L 587.508 1684.98 L 587.508 1691.17 L 587.508 1691.17 z M 594.586 1691.17 L 595.6 1691.17 L 595.6 1688.99 L 596.661 1687.96 L 598.482 1691.17 L 599.623 1691.17 L 597.352 1687.26 L 599.681 1684.98 L 598.401 1684.98 L 595.6 1687.77 L 595.6 1682.89 L 594.586 1682.89 L 594.586 1691.17 L 594.586 1691.17 z" stroke="none" fill-rule="evenodd" fill="rgb(0, 0, 0)"/></g><g stroke="rgb(0, 0, 0)" stroke-width="0.13" stroke-linecap="butt" stroke-linejoin="miter" fill="none"><path d="M 333.459 1400.27 L 333.913 1400.27 L 333.913 1399.4 L 334.412 1399.4 L 334.412 1399 L 333.913 1399 L 333.913 1396.84 L 333.454 1396.84 L 331.921 1398.96 L 331.921 1399.4 L 333.459 1399.4 L 333.459 1400.27 L 333.459 1400.27 z M 332.345 1399 L 333.459 1397.43 L 333.459 1399 L 332.345 1399 L 332.345 1399 z M 336.217 1400.27 L 336.726 1400.27 L 336.893 1399.44 L 337.185 1398.66 L 337.599 1397.94 L 338.138 1397.26 L 338.138 1396.84 L 335.738 1396.84 L 335.738 1397.3 L 337.654 1397.3 L 337.099 1397.98 L 336.681 1398.69 L 336.388 1399.45 L 336.217 1400.27 L 336.217 1400.27 z M 339.438 1398.56 L 339.514 1399.35 L 339.751 1399.92 L 340.129 1400.26 L 340.654 1400.37 L 341.173 1400.26 L 341.551 1399.92 L 341.783 1399.35 L 341.864 1398.56 L 341.783 1397.77 L 341.688 1397.46 L 341.551 1397.2 L 341.173 1396.86 L 340.654 1396.74 L 340.129 1396.86 L 339.751 1397.21 L 339.514 1397.77 L 339.438 1398.56 L 339.438 1398.56 z M 339.923 1398.56 L 339.963 1397.95 L 340.089 1397.51 L 340.316 1397.25 L 340.654 1397.16 L 340.987 1397.25 L 341.214 1397.51 L 341.34 1397.95 L 341.38 1398.56 L 341.34 1399.17 L 341.214 1399.61 L 340.987 1399.87 L 340.654 1399.96 L 340.316 1399.87 L 340.089 1399.61 L 339.963 1399.17 L 339.923 1398.56 L 339.923 1398.56 z" stroke="none" fill-rule="evenodd" fill="rgb(0, 0, 0)"/><path d="M 103.85 1401.75 L 101.918 1402.27 L 103.85 1402.79"/><path d="M 569.986 1402.79 L 571.918 1402.27 L 569.986 1401.75"/><path d="M 101.918 1402.27 L 571.918 1402.27"/></g></svg>