<?xml version="1.0" encoding="utf-8" ?><!DOCTYPE svg PUBLIC "-//W3C//DTD SVG 1.1//EN" "http://www.w3.org/Graphics/SVG/1.1/DTD/svg11.dtd" 
[ <!ATTLIST svg 
  xmlns:dsy CDATA #FIXED "http://www.3ds.com/print"  
    dsy:text-version CDATA #IMPLIED > 

  <!ATTLIST text 
  xmlns:dsy CDATA #FIXED "http://www.3ds.com/print" 
    dsy:text-version CDATA #IMPLIED > 
]><svg xmlns="http://www.w3.org/2000/svg" xmlns:dsy="http://www.3ds.com/print" dsy:text-version="18000" width="297" height="210" viewBox="0 0 297 210" version="1.1"><g stroke="rgb(0, 0, 0)" stroke-width="0.35" stroke-linecap="butt" stroke-linejoin="miter" fill="none"><path d="M 125.683 111.579 L 125.598 111.579"/><circle cx="140.402" cy="122.579" r="6"/><path d="M 149.098 133.579 L 160.402 133.579"/><path d="M 160.402 133.579 A 11 11 0 0 0 160.402 111.579"/><path d="M 150.098 111.579 L 160.402 111.579"/><path d="M 150.098 102.579 L 150.098 111.579"/><path d="M 125.598 102.579 L 150.098 102.579"/><path d="M 125.598 110.871 L 125.598 102.579"/><path d="M 125.598 110.871 A 3 3 0 0 0 125.915 112.213"/><path d="M 130.282 120.946 L 125.915 112.213"/><path d="M 130.598 122.287 A 3 3 0 0 0 130.282 120.946"/><path d="M 130.598 130.579 L 130.598 122.287"/><path d="M 130.598 130.579 A 3 3 0 0 0 133.598 133.579"/><path d="M 149.098 133.579 L 133.598 133.579"/><circle cx="160.402" cy="122.579" r="3"/><path d="M 205.298 169.992 L 205.214 169.992"/><circle cx="220.017" cy="180.992" r="6"/><path d="M 228.714 191.992 L 240.017 191.992"/><path d="M 240.017 191.992 A 11 11 0 0 0 240.017 169.992"/><path d="M 229.714 169.992 L 240.017 169.992"/><path d="M 229.714 160.992 L 229.714 169.992"/><path d="M 205.214 160.992 L 229.714 160.992"/><path d="M 205.214 169.284 L 205.214 160.992"/><path d="M 205.214 169.284 A 3 3 0 0 0 205.53 170.625"/><path d="M 209.897 179.359 L 205.53 170.625"/><path d="M 210.214 180.7 A 3 3 0 0 0 209.897 179.359"/><path d="M 210.214 188.992 L 210.214 180.7"/><path d="M 210.214 188.992 A 3 3 0 0 0 213.214 191.992"/><path d="M 228.714 191.992 L 213.214 191.992"/><circle cx="240.017" cy="180.992" r="3"/></g></svg>