<?xml version="1.0" encoding="utf-8" ?><!DOCTYPE svg PUBLIC "-//W3C//DTD SVG 1.1//EN" "http://www.w3.org/Graphics/SVG/1.1/DTD/svg11.dtd" 
[ <!ATTLIST svg 
  xmlns:dsy CDATA #FIXED "http://www.3ds.com/print"  
    dsy:text-version CDATA #IMPLIED > 

  <!ATTLIST text 
  xmlns:dsy CDATA #FIXED "http://www.3ds.com/print" 
    dsy:text-version CDATA #IMPLIED > 
]><svg xmlns="http://www.w3.org/2000/svg" xmlns:dsy="http://www.3ds.com/print" dsy:text-version="18000" width="420" height="297" viewBox="0 0 420 297" version="1.1"><g stroke="rgb(0, 0, 0)" stroke-width="0.35" stroke-linecap="butt" stroke-linejoin="miter" fill="none"><circle cx="108.17" cy="190.913" r="73.5458"/><circle cx="108.17" cy="190.913" r="100"/><circle cx="184.218" cy="135.661" r="1.55"/><circle cx="137.218" cy="101.514" r="1.55"/><circle cx="32.1228" cy="246.165" r="1.55"/><circle cx="14.1704" cy="190.913" r="1.55"/><circle cx="32.1228" cy="135.661" r="1.55"/><circle cx="79.1228" cy="101.514" r="1.55"/><circle cx="184.218" cy="246.165" r="1.55"/><circle cx="202.17" cy="190.913" r="1.55"/><circle cx="137.218" cy="280.313" r="1.55"/><circle cx="79.1228" cy="280.313" r="1.55"/></g><g stroke="rgb(0, 0, 0)" stroke-width="0.13" stroke-linecap="butt" stroke-linejoin="miter" fill="none"><circle cx="108.17" cy="190.913" r="12.1025"/><circle cx="108.17" cy="190.913" r="12.0074"/></g><g stroke="rgb(0, 0, 0)" stroke-width="0.35" stroke-linecap="butt" stroke-linejoin="miter" fill="none"><path d="M 352.151 218.9 A 22.25 22.25 0 0 0 365.239 190.285"/><path d="M 352.151 218.9 L 309.042 234.95"/><path d="M 365.239 190.285 L 349.189 147.176"/><path d="M 280.427 221.862 A 22.25 22.25 0 0 0 309.042 234.95"/><path d="M 349.189 147.176 A 22.25 22.25 0 0 0 320.574 134.088"/><path d="M 277.465 150.138 L 320.574 134.088"/><path d="M 277.465 150.138 A 22.25 22.25 0 0 0 264.377 178.753"/><path d="M 264.377 178.753 L 280.427 221.862"/><path d="M 291.43 121.73 L 294.821 120.489 L 298.186 119.306 L 301.33 118.248 L 304.447 117.25 L 308.679 115.99 L 312.846 114.873 L 314.902 114.374 L 316.939 113.919 L 319.954 113.322 L 322.917 112.837 L 325.825 112.475 L 328.671 112.246 L 331.453 112.159 L 332.852 112.173 L 334.231 112.228 L 335.526 112.32 L 336.803 112.452 L 338.73 112.734 L 340.612 113.115 L 342.448 113.598 L 344.237 114.183 L 346.092 114.923 L 347.892 115.783 L 349.638 116.762 L 351.329 117.859 L 352.968 119.073 L 354.294 120.171 L 355.584 121.346 L 356.84 122.596 L 357.761 123.581 L 358.664 124.605 L 360.417 126.766 L 362.105 129.069 L 363.733 131.506 L 365.304 134.065 L 366.825 136.736 L 367.812 138.574 L 368.779 140.456 L 370.659 144.339 L 372.473 148.365 L 373.757 151.375 L 375.013 154.446 L 376.318 157.765 L 377.597 161.141"/><path d="M 291.43 121.73 L 288.054 123.009 L 284.735 124.314 L 281.664 125.57 L 278.654 126.854 L 274.628 128.668 L 270.745 130.548 L 268.863 131.515 L 267.025 132.502 L 264.353 134.022 L 261.795 135.594 L 259.358 137.222 L 257.054 138.91 L 254.893 140.663 L 253.844 141.589 L 252.837 142.533 L 251.918 143.449 L 251.038 144.384 L 249.765 145.858 L 248.59 147.377 L 247.516 148.942 L 246.546 150.555 L 245.627 152.328 L 244.827 154.156 L 244.147 156.038 L 243.585 157.975 L 243.139 159.964 L 242.854 161.662 L 242.647 163.395 L 242.513 165.162 L 242.461 166.509 L 242.448 167.874 L 242.534 170.656 L 242.764 173.502 L 243.126 176.41 L 243.61 179.373 L 244.207 182.388 L 244.663 184.425 L 245.162 186.481 L 246.279 190.648 L 247.539 194.88 L 248.536 197.997 L 249.595 201.141 L 250.778 204.506 L 252.019 207.897"/><path d="M 338.185 247.308 L 334.795 248.549 L 331.43 249.732 L 328.286 250.791 L 325.169 251.788 L 320.937 253.048 L 316.77 254.165 L 314.714 254.664 L 312.677 255.12 L 309.662 255.717 L 306.699 256.201 L 303.791 256.563 L 300.944 256.793 L 298.163 256.879 L 296.764 256.865 L 295.384 256.81 L 294.09 256.718 L 292.813 256.586 L 290.886 256.304 L 289.003 255.923 L 287.168 255.441 L 285.379 254.855 L 283.524 254.115 L 281.724 253.255 L 279.978 252.276 L 278.286 251.179 L 276.648 249.965 L 275.322 248.867 L 274.032 247.692 L 272.775 246.442 L 271.855 245.458 L 270.952 244.434 L 269.199 242.272 L 267.51 239.969 L 265.883 237.532 L 264.311 234.974 L 262.791 232.302 L 261.804 230.464 L 260.837 228.582 L 258.957 224.699 L 257.142 220.673 L 255.859 217.663 L 254.603 214.592 L 253.298 211.273 L 252.019 207.897"/><path d="M 338.185 247.308 L 341.562 246.029 L 344.881 244.724 L 347.952 243.468 L 350.962 242.185 L 354.988 240.37 L 358.871 238.49 L 360.753 237.523 L 362.591 236.536 L 365.262 235.016 L 367.821 233.444 L 370.257 231.816 L 372.561 230.128 L 374.722 228.375 L 375.771 227.45 L 376.779 226.505 L 377.698 225.589 L 378.578 224.654 L 379.851 223.18 L 381.026 221.661 L 382.099 220.096 L 383.069 218.483 L 383.989 216.71 L 384.789 214.882 L 385.469 213 L 386.031 211.063 L 386.477 209.074 L 386.761 207.376 L 386.969 205.643 L 387.102 203.876 L 387.155 202.529 L 387.168 201.164 L 387.081 198.383 L 386.852 195.536 L 386.49 192.628 L 386.005 189.665 L 385.408 186.65 L 384.953 184.613 L 384.454 182.557 L 383.337 178.39 L 382.077 174.158 L 381.079 171.041 L 380.021 167.897 L 378.837 164.532 L 377.597 161.141"/><circle cx="277.522" cy="137.511" r="2.04999"/><circle cx="317.343" cy="244.466" r="2.04999"/><circle cx="278.857" cy="238.672" r="2.04999"/><circle cx="258.579" cy="205.454" r="2.04999"/><circle cx="252.196" cy="167.062" r="2.04999"/><circle cx="312.273" cy="124.573" r="2.04999"/><circle cx="352.094" cy="231.527" r="2.04999"/><circle cx="377.42" cy="201.976" r="2.04999"/><circle cx="371.037" cy="163.584" r="2.04999"/><circle cx="350.758" cy="130.366" r="2.04999"/></g><g stroke="rgb(0, 0, 0)" stroke-width="0.13" stroke-linecap="butt" stroke-linejoin="miter" fill="none"><path d="M 213.229 260.814 L 215.21 262.178 L 215.456 261.821 L 213.89 260.743 L 214.112 260.608 L 214.373 260.549 L 215.037 260.571 L 215.368 260.615 L 215.765 260.625 L 216.103 260.552 L 216.384 260.384 L 216.617 260.135 L 216.787 259.737 L 216.781 259.328 L 216.602 258.948 L 216.258 258.62 L 215.811 258.416 L 215.373 258.402 L 214.963 258.579 L 214.614 258.945 L 214.574 259.003 L 214.952 259.263 L 214.975 259.23 L 215.207 258.973 L 215.462 258.843 L 215.732 258.833 L 216 258.95 L 216.212 259.158 L 216.319 259.384 L 216.324 259.627 L 216.226 259.859 L 216.065 260.03 L 215.875 260.137 L 215.644 260.187 L 215.376 260.186 L 215.039 260.15 L 214.455 260.127 L 213.979 260.204 L 213.58 260.419 L 213.238 260.802 L 213.229 260.814 L 213.229 260.814 z M 217.288 261.533 L 216.901 262.228 L 216.776 262.828 L 216.893 263.325 L 217.263 263.714 L 217.753 263.917 L 218.259 263.849 L 218.771 263.515 L 219.286 262.909 L 219.666 262.215 L 219.764 261.903 L 219.798 261.614 L 219.681 261.117 L 219.319 260.727 L 218.821 260.525 L 218.312 260.597 L 217.797 260.928 L 217.288 261.533 L 217.288 261.533 z M 217.687 261.808 L 218.066 261.328 L 218.419 261.038 L 218.752 260.955 L 219.081 261.072 L 219.304 261.335 L 219.345 261.676 L 219.2 262.109 L 218.887 262.634 L 218.505 263.118 L 218.153 263.408 L 217.82 263.491 L 217.497 263.373 L 217.267 263.111 L 217.226 262.77 L 217.371 262.337 L 217.687 261.808 L 217.687 261.808 z M 220.365 263.652 L 219.979 264.347 L 219.854 264.946 L 219.971 265.443 L 220.34 265.832 L 220.831 266.035 L 221.337 265.967 L 221.848 265.634 L 222.363 265.027 L 222.743 264.333 L 222.842 264.022 L 222.875 263.733 L 222.758 263.236 L 222.396 262.845 L 221.898 262.644 L 221.389 262.716 L 220.874 263.047 L 220.365 263.652 L 220.365 263.652 z M 220.764 263.926 L 221.143 263.446 L 221.496 263.157 L 221.829 263.073 L 222.159 263.19 L 222.381 263.454 L 222.422 263.794 L 222.278 264.227 L 221.965 264.753 L 221.583 265.237 L 221.23 265.527 L 220.897 265.61 L 220.574 265.492 L 220.345 265.229 L 220.304 264.889 L 220.449 264.456 L 220.764 263.926 L 220.764 263.926 z" stroke="none" fill-rule="evenodd" fill="rgb(0, 0, 0)"/></g><g stroke="rgb(0, 0, 0)" stroke-width="0.13" stroke-linecap="butt" stroke-linejoin="miter" fill="none"><path d="M 210.823 259.158 L 213.385 256.672"/><path d="M 213.161 258.643 L 213.227 258.547 M 213.227 258.547 L 213.311 258.321 M 213.311 258.321 L 213.363 258.144 M 213.363 258.144 L 213.381 258.015 M 213.381 258.015 L 213.384 257.805 M 213.384 257.805 L 213.339 257.561 M 213.339 257.561 L 213.261 257.366 M 213.261 257.366 L 213.198 257.252 M 213.198 257.252 L 213.087 257.104 M 213.087 257.104 L 212.928 256.924 M 212.928 256.924 L 212.832 256.858 M 212.832 256.858 L 212.735 256.792 M 212.735 256.792 L 212.51 256.707 M 212.51 256.707 L 212.333 256.656 M 212.333 256.656 L 212.204 256.638 M 212.204 256.638 L 211.994 256.635 M 211.994 256.635 L 211.75 256.68 M 211.75 256.68 L 211.555 256.758 M 211.555 256.758 L 211.441 256.821 M 211.441 256.821 L 211.293 256.932 M 211.293 256.932 L 211.113 257.091 M 211.113 257.091 L 211.047 257.187 M 211.047 257.187 L 210.981 257.283 M 210.981 257.283 L 210.896 257.509 M 210.896 257.509 L 210.845 257.686 M 210.845 257.686 L 210.827 257.815 M 210.827 257.815 L 210.824 258.025 M 210.824 258.025 L 210.869 258.269 M 210.869 258.269 L 210.947 258.464 M 210.947 258.464 L 211.01 258.578 M 211.01 258.578 L 211.121 258.725 M 211.121 258.725 L 211.28 258.906 M 211.28 258.906 L 211.376 258.972 M 211.376 258.972 L 211.472 259.038 M 211.472 259.038 L 211.697 259.122 M 211.697 259.122 L 211.875 259.174 M 211.875 259.174 L 212.004 259.192 M 212.004 259.192 L 212.214 259.195 M 212.214 259.195 L 212.458 259.15 M 212.458 259.15 L 212.653 259.072 M 212.653 259.072 L 212.767 259.009 M 212.767 259.009 L 212.914 258.898 M 212.914 258.898 L 213.095 258.739 M 213.095 258.739 L 213.161 258.643"/><path d="M 27.688 134.876 L 25.8033 134.207 L 27.1009 135.728"/><path d="M 188.653 246.951 L 190.538 247.62 L 189.24 246.098"/><path d="M 25.8033 134.207 L 220.513 268.257"/></g><g stroke="rgb(0, 0, 0)" stroke-width="0.13" stroke-linecap="butt" stroke-linejoin="miter" fill="none"><path d="M 304.258 281.97 L 303.381 284.95 L 302.478 281.97 L 301.999 281.97 L 303.128 285.475 L 303.633 285.475 L 304.737 281.97 L 304.258 281.97 L 304.258 281.97 z M 307.461 282.767 L 307.017 282.767 L 307.017 284.33 L 306.966 284.693 L 306.82 284.955 L 306.593 285.117 L 306.296 285.167 L 306.059 285.127 L 305.907 285.006 L 305.822 284.799 L 305.801 284.507 L 305.801 282.767 L 305.358 282.767 L 305.358 284.547 L 305.373 284.905 L 305.469 285.203 L 305.761 285.475 L 306.23 285.571 L 306.482 285.535 L 306.699 285.445 L 306.886 285.288 L 307.037 285.061 L 307.037 285.475 L 307.461 285.475 L 307.461 282.767 L 307.461 282.767 z M 308.797 284.249 L 310.572 284.249 L 310.577 284.043 L 310.497 283.463 L 310.275 283.029 L 309.922 282.767 L 309.453 282.671 L 308.994 282.772 L 308.641 283.054 L 308.414 283.513 L 308.333 284.118 L 308.409 284.739 L 308.636 285.193 L 308.984 285.475 L 309.438 285.571 L 309.831 285.505 L 310.154 285.334 L 310.391 285.061 L 310.527 284.698 L 310.088 284.698 L 309.997 284.9 L 309.866 285.051 L 309.493 285.172 L 309.206 285.117 L 308.989 284.94 L 308.847 284.653 L 308.797 284.265 L 308.797 284.249 L 308.797 284.249 z M 308.797 283.876 L 308.853 283.528 L 308.989 283.271 L 309.195 283.115 L 309.468 283.059 L 309.735 283.115 L 309.942 283.271 L 310.068 283.528 L 310.113 283.876 L 308.797 283.876 L 308.797 283.876 z M 316.145 285.056 L 316.145 285.475 L 316.589 285.475 L 316.589 281.854 L 316.15 281.854 L 316.15 283.18 L 315.812 282.797 L 315.605 282.706 L 315.368 282.671 L 314.94 282.772 L 314.607 283.054 L 314.39 283.508 L 314.314 284.118 L 314.39 284.729 L 314.607 285.187 L 314.94 285.475 L 315.368 285.571 L 315.605 285.535 L 315.817 285.445 L 316.145 285.056 L 316.145 285.056 z M 315.444 283.069 L 315.737 283.14 L 315.958 283.337 L 316.09 283.664 L 316.14 284.118 L 316.09 284.577 L 315.958 284.905 L 315.737 285.107 L 315.444 285.172 L 315.167 285.107 L 314.955 284.905 L 314.814 284.572 L 314.768 284.118 L 314.814 283.669 L 314.955 283.342 L 315.167 283.14 L 315.444 283.069 L 315.444 283.069 z M 317.905 284.249 L 319.68 284.249 L 319.685 284.043 L 319.605 283.463 L 319.383 283.029 L 319.03 282.767 L 318.561 282.671 L 318.102 282.772 L 317.749 283.054 L 317.522 283.513 L 317.441 284.118 L 317.517 284.739 L 317.744 285.193 L 318.092 285.475 L 318.546 285.571 L 318.939 285.505 L 319.262 285.334 L 319.499 285.061 L 319.635 284.698 L 319.196 284.698 L 319.105 284.9 L 318.974 285.051 L 318.601 285.172 L 318.314 285.117 L 318.097 284.94 L 317.956 284.653 L 317.905 284.265 L 317.905 284.249 L 317.905 284.249 z M 317.905 283.876 L 317.961 283.528 L 318.097 283.271 L 318.304 283.115 L 318.576 283.059 L 318.843 283.115 L 319.05 283.271 L 319.176 283.528 L 319.221 283.876 L 317.905 283.876 L 317.905 283.876 z M 324.204 283.236 L 324.204 285.475 L 324.648 285.475 L 324.648 283.236 L 325.657 283.236 L 325.657 282.857 L 324.648 282.857 L 324.648 282.691 L 324.683 282.489 L 324.799 282.353 L 324.996 282.272 L 325.278 282.242 L 325.657 282.262 L 325.657 281.879 L 325.178 281.854 L 324.744 281.899 L 324.441 282.035 L 324.26 282.272 L 324.204 282.61 L 324.204 282.857 L 323.392 282.857 L 323.392 283.236 L 324.204 283.236 L 324.204 283.236 z M 328.234 285.122 L 328.234 285.137 L 328.259 285.309 L 328.335 285.43 L 328.652 285.525 L 328.899 285.485 L 328.899 285.142 L 328.794 285.157 L 328.652 285.092 L 328.627 284.89 L 328.627 283.488 L 328.567 283.13 L 328.39 282.878 L 328.082 282.726 L 327.649 282.671 L 327.225 282.731 L 326.912 282.903 L 326.716 283.17 L 326.65 283.523 L 326.65 283.553 L 327.049 283.553 L 327.084 283.342 L 327.195 283.19 L 327.376 283.1 L 327.634 283.064 L 327.881 283.089 L 328.057 283.165 L 328.163 283.296 L 328.198 283.478 L 328.178 283.69 L 328.098 283.796 L 327.896 283.846 L 327.518 283.886 L 327.084 283.977 L 326.776 284.138 L 326.595 284.391 L 326.539 284.764 L 326.59 285.097 L 326.746 285.344 L 326.998 285.5 L 327.346 285.556 L 327.815 285.45 L 328.234 285.122 L 328.234 285.122 z M 328.183 284.527 L 328.123 284.789 L 327.961 284.991 L 327.719 285.122 L 327.422 285.167 L 327.23 285.142 L 327.094 285.061 L 327.008 284.92 L 326.983 284.723 L 327.003 284.547 L 327.084 284.421 L 327.407 284.28 L 327.815 284.219 L 328.183 284.098 L 328.183 284.527 L 328.183 284.527 z M 331.386 283.664 L 331.825 283.664 L 331.734 283.261 L 331.517 282.943 L 331.179 282.747 L 330.74 282.671 L 330.256 282.772 L 329.888 283.054 L 329.656 283.513 L 329.575 284.128 L 329.651 284.739 L 329.878 285.193 L 330.236 285.475 L 330.725 285.571 L 331.159 285.495 L 331.497 285.283 L 331.729 284.95 L 331.83 284.507 L 331.406 284.507 L 331.33 284.789 L 331.189 285.001 L 330.987 285.132 L 330.74 285.172 L 330.433 285.107 L 330.211 284.905 L 330.075 284.577 L 330.029 284.113 L 330.075 283.659 L 330.216 283.332 L 330.443 283.13 L 330.74 283.059 L 331.003 283.105 L 331.199 283.221 L 331.33 283.412 L 331.386 283.664 L 331.386 283.664 z M 333.085 284.249 L 334.861 284.249 L 334.866 284.043 L 334.785 283.463 L 334.563 283.029 L 334.21 282.767 L 333.741 282.671 L 333.282 282.772 L 332.929 283.054 L 332.702 283.513 L 332.621 284.118 L 332.697 284.739 L 332.924 285.193 L 333.272 285.475 L 333.726 285.571 L 334.119 285.505 L 334.442 285.334 L 334.679 285.061 L 334.815 284.698 L 334.376 284.698 L 334.286 284.9 L 334.155 285.051 L 333.781 285.172 L 333.494 285.117 L 333.277 284.94 L 333.136 284.653 L 333.085 284.265 L 333.085 284.249 L 333.085 284.249 z M 333.085 283.876 L 333.141 283.528 L 333.277 283.271 L 333.484 283.115 L 333.756 283.059 L 334.023 283.115 L 334.23 283.271 L 334.356 283.528 L 334.402 283.876 L 333.085 283.876 L 333.085 283.876 z" stroke="none" fill-rule="evenodd" fill="rgb(0, 0, 0)"/></g><g stroke="rgb(0, 0, 0)" stroke-width="0.13" stroke-linecap="butt" stroke-linejoin="miter" fill="none"><path d="M 302.322 291.522 L 304.541 291.522 L 304.541 291.098 L 302.785 291.098 L 302.785 289.913 L 304.349 289.913 L 304.349 289.494 L 302.785 289.494 L 302.785 288.445 L 304.5 288.445 L 304.5 288.022 L 302.322 288.022 L 302.322 291.522 L 302.322 291.522 z M 307.097 289.711 L 307.536 289.711 L 307.445 289.308 L 307.229 288.99 L 306.891 288.793 L 306.452 288.718 L 305.968 288.819 L 305.6 289.101 L 305.368 289.56 L 305.287 290.175 L 305.363 290.785 L 305.59 291.239 L 305.948 291.522 L 306.437 291.618 L 306.871 291.542 L 307.208 291.33 L 307.44 290.997 L 307.541 290.553 L 307.118 290.553 L 307.042 290.836 L 306.901 291.048 L 306.699 291.179 L 306.452 291.219 L 306.144 291.154 L 305.922 290.952 L 305.786 290.624 L 305.741 290.16 L 305.786 289.706 L 305.927 289.378 L 306.154 289.177 L 306.452 289.106 L 306.714 289.151 L 306.911 289.267 L 307.042 289.459 L 307.097 289.711 L 307.097 289.711 z M 308.409 291.522 L 308.853 291.522 L 308.853 289.958 L 308.898 289.6 L 309.044 289.338 L 309.271 289.177 L 309.574 289.116 L 309.816 289.167 L 309.967 289.303 L 310.043 289.53 L 310.068 289.832 L 310.068 291.522 L 310.512 291.522 L 310.512 289.742 L 310.492 289.383 L 310.401 289.086 L 310.103 288.814 L 309.639 288.718 L 309.387 288.753 L 309.17 288.849 L 308.989 289 L 308.853 289.207 L 308.853 287.901 L 308.409 287.901 L 308.409 291.522 L 308.409 291.522 z M 311.833 290.296 L 313.608 290.296 L 313.613 290.089 L 313.533 289.51 L 313.311 289.076 L 312.958 288.814 L 312.489 288.718 L 312.03 288.819 L 311.677 289.101 L 311.45 289.56 L 311.369 290.165 L 311.445 290.785 L 311.672 291.239 L 312.02 291.522 L 312.474 291.618 L 312.867 291.552 L 313.19 291.381 L 313.427 291.108 L 313.563 290.745 L 313.124 290.745 L 313.033 290.947 L 312.902 291.098 L 312.529 291.219 L 312.242 291.164 L 312.025 290.987 L 311.884 290.7 L 311.833 290.311 L 311.833 290.296 L 311.833 290.296 z M 311.833 289.923 L 311.889 289.575 L 312.025 289.318 L 312.232 289.162 L 312.504 289.106 L 312.771 289.162 L 312.978 289.318 L 313.104 289.575 L 313.149 289.923 L 311.833 289.923 L 311.833 289.923 z M 315.363 288.274 L 315.363 291.149 L 314.451 291.149 L 314.451 291.522 L 316.715 291.522 L 316.715 291.149 L 315.807 291.149 L 315.807 287.901 L 314.667 287.901 L 314.667 288.274 L 315.363 288.274 L 315.363 288.274 z M 318.399 288.274 L 318.399 291.149 L 317.487 291.149 L 317.487 291.522 L 319.751 291.522 L 319.751 291.149 L 318.843 291.149 L 318.843 287.901 L 317.703 287.901 L 317.703 288.274 L 318.399 288.274 L 318.399 288.274 z M 320.941 290.296 L 322.716 290.296 L 322.721 290.089 L 322.641 289.51 L 322.419 289.076 L 322.066 288.814 L 321.597 288.718 L 321.138 288.819 L 320.785 289.101 L 320.558 289.56 L 320.477 290.165 L 320.553 290.785 L 320.78 291.239 L 321.128 291.522 L 321.582 291.618 L 321.975 291.552 L 322.298 291.381 L 322.535 291.108 L 322.671 290.745 L 322.232 290.745 L 322.142 290.947 L 322.01 291.098 L 321.637 291.219 L 321.35 291.164 L 321.133 290.987 L 320.992 290.7 L 320.941 290.311 L 320.941 290.296 L 320.941 290.296 z M 320.941 289.923 L 320.997 289.575 L 321.133 289.318 L 321.34 289.162 L 321.612 289.106 L 321.879 289.162 L 322.086 289.318 L 322.212 289.575 L 322.258 289.923 L 320.941 289.923 L 320.941 289.923 z M 327.321 291.522 L 328.017 291.522 L 328.017 290.77 L 327.321 290.77 L 327.321 291.522 L 327.321 291.522 z M 327.321 289.565 L 328.017 289.565 L 328.017 288.814 L 327.321 288.814 L 327.321 289.565 L 327.321 289.565 z" stroke="none" fill-rule="evenodd" fill="rgb(0, 0, 0)"/></g><g stroke="rgb(0, 0, 0)" stroke-width="0.13" stroke-linecap="butt" stroke-linejoin="miter" fill="none"><path d="M 336.686 291.522 L 337.145 291.522 L 337.145 287.997 L 336.802 287.997 L 336.711 288.304 L 336.53 288.511 L 336.252 288.632 L 335.869 288.672 L 335.869 289.03 L 336.686 289.03 L 336.686 291.522 L 336.686 291.522 z M 339.465 291.522 L 340.161 291.522 L 340.161 290.77 L 339.465 290.77 L 339.465 291.522 L 339.465 291.522 z M 339.465 289.565 L 340.161 289.565 L 340.161 288.814 L 339.465 288.814 L 339.465 289.565 L 339.465 289.565 z M 342.758 291.522 L 343.217 291.522 L 343.217 287.997 L 342.874 287.997 L 342.783 288.304 L 342.602 288.511 L 342.324 288.632 L 341.941 288.672 L 341.941 289.03 L 342.758 289.03 L 342.758 291.522 L 342.758 291.522 z" stroke="none" fill-rule="evenodd" fill="rgb(0, 0, 0)"/></g></svg>