<?xml version="1.0" encoding="utf-8"?>
<!-- Generator: Adobe Illustrator 22.1.0, SVG Export Plug-In . SVG Version: 6.00 Build 0)  -->
<svg version="1.1" id="Calque_1" dsy:text-version="18000" xmlns:dsy="http://www.3ds.com/print"
	 xmlns="http://www.w3.org/2000/svg" xmlns:xlink="http://www.w3.org/1999/xlink" x="0px" y="0px" viewBox="0 0 1189 841"
	 style="enable-background:new 0 0 1189 841;" xml:space="preserve">
<style type="text/css">
	.st0{fill:none;stroke:#FF0000;stroke-width:2.834646e-02;}
</style>
<path class="st0" d="M345,471.8c5.1,5.8,14,6.4,19.8,1.3c3-2.6,4.7-6.5,4.7-10.5"/>
<path class="st0" d="M370.5,138.6l-1,324"/>
<path class="st0" d="M344.1,148.3l26.4-9.7"/>
<path class="st0" d="M342.4,143.6l1.7,4.7"/>
<path class="st0" d="M370.5,133.3l-28.2,10.4"/>
<path class="st0" d="M370.8,31.1l-0.3,102.2"/>
<path class="st0" d="M370.8,31.1c0-6.6-5.3-12-12-12c-1.4,0-2.8,0.2-4.2,0.7"/>
<path class="st0" d="M293.4,42.3l61.3-22.6"/>
<path class="st0" d="M300.3,61.1l-6.9-18.8"/>
<path class="st0" d="M294.7,63.1l5.5-2"/>
<path class="st0" d="M287.8,44.4l6.9,18.8"/>
<path class="st0" d="M125,104.3l162.9-60"/>
<path class="st0" d="M131.9,123.1l-6.9-18.8"/>
<path class="st0" d="M126.3,125.1l5.5-2"/>
<path class="st0" d="M119.4,106.4l6.9,18.8"/>
<path class="st0" d="M119.4,106.4l-56.3,20.7"/>
<path class="st0" d="M63.1,127.1c-6.2,2.3-9.4,9.2-7.1,15.4c0.5,1.4,1.3,2.7,2.3,3.8"/>
<path class="st0" d="M345,471.8L58.3,146.3"/>
<circle class="st0" cx="72.3" cy="136.5" r="3.2"/>
<circle class="st0" cx="353.8" cy="32.9" r="3.2"/>
<circle class="st0" cx="352.5" cy="454.6" r="3.2"/>
<circle class="st0" cx="301.4" cy="318.6" r="6"/>
<circle class="st0" cx="269.7" cy="234.3" r="3.2"/>
<path class="st0" d="M205.6,151.4l1.7,4.7"/>
<path class="st0" d="M205.6,151.4l18.8-6.9"/>
<path class="st0" d="M226.1,149.1l-1.7-4.7"/>
<path class="st0" d="M226.1,149.1l-18.8,6.9"/>
<path class="st0" d="M220.9,135.1l1.7,4.7"/>
<path class="st0" d="M203.9,146.7l18.8-6.9"/>
<path class="st0" d="M203.9,146.7l-1.7-4.7"/>
<path class="st0" d="M220.9,135.1l-18.8,6.9"/>
<path class="st0" d="M360.8,33.7l1.2-9.9"/>
<path class="st0" d="M362,23.8l1,0.1"/>
<path class="st0" d="M363,23.9l-1.2,9.9"/>
<path class="st0" d="M361.8,33.8l-1-0.1"/>
<path class="st0" d="M346.9,33.7l-1,0.1"/>
<path class="st0" d="M345.9,33.8l-1-8.9"/>
<path class="st0" d="M344.8,24.9l1-0.1"/>
<path class="st0" d="M346.9,33.7l-1-8.9"/>
<path class="st0" d="M67.1,142.6l0.7-0.8"/>
<path class="st0" d="M59.5,136.1l7.6,6.5"/>
<path class="st0" d="M60.1,135.3l-0.7,0.8"/>
<path class="st0" d="M67.7,141.8l-7.6-6.5"/>
<path class="st0" d="M78.1,132.7l-5-7.5"/>
<path class="st0" d="M74,124.6l-0.8,0.6"/>
<path class="st0" d="M79,132.1l-5-7.5"/>
<path class="st0" d="M78.1,132.7l0.8-0.6"/>
<path class="st0" d="M249.1,124.7l3.5,9.4"/>
<path class="st0" d="M243.2,137.5c0.9,2.6,3.8,3.9,6.4,3c2.6-0.9,3.9-3.8,3-6.4c0,0,0,0,0-0.1"/>
<path class="st0" d="M243.2,137.5l-3.5-9.4"/>
<path class="st0" d="M249.1,124.7c-1-2.6-3.8-3.9-6.4-3s-3.9,3.8-3,6.4l0,0"/>
<path class="st0" d="M673,469.9c5.1,5.8,14,6.4,19.8,1.3c3-2.6,4.7-6.5,4.7-10.5"/>
<path class="st0" d="M698.5,136.7l-1,324"/>
<path class="st0" d="M672.1,146.4l26.4-9.7"/>
<path class="st0" d="M670.3,141.7l1.7,4.7"/>
<path class="st0" d="M698.5,131.4l-28.2,10.4"/>
<path class="st0" d="M698.8,29.1l-0.3,102.2"/>
<path class="st0" d="M698.8,29.1c0-6.6-5.3-12-12-12c-1.4,0-2.8,0.2-4.2,0.7"/>
<path class="st0" d="M621.3,40.4l61.3-22.6"/>
<path class="st0" d="M628.3,59.2l-6.9-18.8"/>
<path class="st0" d="M622.7,61.2l5.5-2"/>
<path class="st0" d="M615.8,42.5l6.9,18.8"/>
<path class="st0" d="M452.9,102.4l162.9-60"/>
<path class="st0" d="M459.8,121.2l-6.9-18.8"/>
<path class="st0" d="M454.3,123.2l5.5-2"/>
<path class="st0" d="M447.4,104.5l6.9,18.8"/>
<path class="st0" d="M447.4,104.5l-56.3,20.7"/>
<path class="st0" d="M391.1,125.2c-6.2,2.3-9.4,9.2-7.1,15.4c0.5,1.4,1.3,2.7,2.3,3.8"/>
<path class="st0" d="M673,469.9L386.2,144.4"/>
<circle class="st0" cx="400.3" cy="134.6" r="3.2"/>
<circle class="st0" cx="681.8" cy="30.9" r="3.2"/>
<circle class="st0" cx="680.5" cy="452.7" r="3.2"/>
<circle class="st0" cx="629.4" cy="316.7" r="6"/>
<circle class="st0" cx="597.7" cy="232.4" r="3.2"/>
<path class="st0" d="M533.6,149.4l1.7,4.7"/>
<path class="st0" d="M533.6,149.4l18.8-6.9"/>
<path class="st0" d="M554.1,147.2l-1.7-4.7"/>
<path class="st0" d="M554.1,147.2l-18.8,6.9"/>
<path class="st0" d="M548.9,133.1l1.7,4.7"/>
<path class="st0" d="M531.9,144.7l18.8-6.9"/>
<path class="st0" d="M531.9,144.7l-1.7-4.7"/>
<path class="st0" d="M548.9,133.1l-18.8,6.9"/>
<path class="st0" d="M530.6,112.2c-0.3-0.8-1.1-1.2-1.9-0.9c-0.8,0.3-1.2,1.1-0.9,1.9c0,0,0,0,0,0"/>
<path class="st0" d="M535.4,125.3l-4.8-13.1"/>
<path class="st0" d="M532.6,126.4c0.3,0.8,1.1,1.2,1.9,0.9c0.8-0.3,1.2-1.1,0.9-1.9"/>
<path class="st0" d="M527.7,113.2l4.8,13.1"/>
<path class="st0" d="M688.7,31.9l1.4-9.9"/>
<path class="st0" d="M690.1,22l1,0.1"/>
<path class="st0" d="M691.1,22.2l-1.4,9.9"/>
<path class="st0" d="M689.7,32.1l-1-0.1"/>
<path class="st0" d="M673.9,32l1-0.1"/>
<path class="st0" d="M672.6,23.1l1.2,8.9"/>
<path class="st0" d="M673.6,23l-1,0.1"/>
<path class="st0" d="M674.9,31.9l-1.2-8.9"/>
<path class="st0" d="M395.7,139.9l-0.7,0.8"/>
<path class="st0" d="M395.1,140.7l-9.1-7.8"/>
<path class="st0" d="M385.9,132.8l0.7-0.8"/>
<path class="st0" d="M395.7,139.9l-9.1-7.8"/>
<path class="st0" d="M406.1,130.7l-4.4-6.7"/>
<path class="st0" d="M401.7,124.1l0.8-0.6"/>
<path class="st0" d="M402.5,123.5l4.4,6.7"/>
<path class="st0" d="M406.9,130.2l-0.8,0.5"/>
<path class="st0" d="M760.6,77.4l-4.6,0.5"/>
<path class="st0" d="M760.6,77.4c0.1,0,0.2-0.1,0.2-0.2"/>
<path class="st0" d="M760.6,75.5l0.2,1.6"/>
<path class="st0" d="M760.6,75.5c0-0.1-0.1-0.2-0.2-0.2"/>
<path class="st0" d="M755.8,75.9l4.6-0.5"/>
<path class="st0" d="M756,77.8c-0.1,0-0.2,0.1-0.2,0.2"/>
<path class="st0" d="M755.8,78.1l0.2,0"/>
<path class="st0" d="M756,78l0-0.2"/>
<path class="st0" d="M760.6,77.6L756,78"/>
<path class="st0" d="M760.6,77.6l0-0.2"/>
<path class="st0" d="M760.6,77.6c0.2,0,0.4-0.2,0.4-0.4c0,0,0,0,0,0"/>
<path class="st0" d="M761,77.1l-0.2,0"/>
<path class="st0" d="M760.8,75.5l0.2,1.6"/>
<path class="st0" d="M760.8,75.5l-0.2,0"/>
<path class="st0" d="M760.8,75.5c0-0.2-0.2-0.4-0.4-0.4c0,0,0,0,0,0"/>
<path class="st0" d="M760.4,75.2l0,0.2"/>
<path class="st0" d="M755.8,75.7l4.6-0.5"/>
<path class="st0" d="M755.8,75.7l0,0.2"/>
<path class="st0" d="M755.6,75.7l0.2,0"/>
<path class="st0" d="M755.6,75.7c0,0.1,0.1,0.2,0.2,0.2c0,0,0,0,0,0"/>
<path class="st0" d="M755.6,75.7l-4.1-37.4"/>
<path class="st0" d="M751.5,38.3l0.2,0"/>
<path class="st0" d="M755.8,75.7l-4.1-37.4"/>
<path class="st0" d="M751.7,38.1c-0.1,0-0.2,0.1-0.2,0.2"/>
<path class="st0" d="M751.7,38.3l0-0.2"/>
<path class="st0" d="M770.8,36l-19.1,2.1"/>
<path class="st0" d="M771,36.2c0-0.1-0.1-0.2-0.2-0.2"/>
<path class="st0" d="M771,36.2l-19.3,2.1"/>
<path class="st0" d="M771,36.2L771,36.2"/>
<path class="st0" d="M771,36.2c0.8,6.9,7,11.8,13.9,10.9c6.8-0.8,11.6-6.9,11-13.6"/>
<path class="st0" d="M796.1,33.3c-0.1,0-0.2,0.1-0.2,0.2c0,0,0,0,0,0"/>
<path class="st0" d="M758,97.6l0.2,0"/>
<path class="st0" d="M758.1,97.5L756,78"/>
<path class="st0" d="M758,97.6l-2.1-19.5"/>
<path class="st0" d="M772.7,96.2l-14.5,1.6"/>
<path class="st0" d="M772.7,96.2c0.1,0,0.2-0.1,0.2-0.2c0,0,0,0,0,0"/>
<path class="st0" d="M796.1,33.3l14.5-1.6"/>
<path class="st0" d="M810.6,31.7l0,0.2"/>
<path class="st0" d="M795.9,33.5l14.7-1.6"/>
<path class="st0" d="M810.8,31.9l6.4,59.3"/>
<path class="st0" d="M817,91.3c0.1,0,0.2-0.1,0.2-0.2c0,0,0,0,0,0"/>
<path class="st0" d="M817,91.3L793,94"/>
<path class="st0" d="M792.7,93.8c0,0.1,0.1,0.2,0.2,0.2"/>
<path class="st0" d="M792.7,93.8l-2.1-19.5"/>
<path class="st0" d="M790.6,74.3c0-0.1-0.1-0.2-0.2-0.2"/>
<path class="st0" d="M784.8,74.7l5.6-0.6"/>
<path class="st0" d="M784.8,74.7c-0.1,0-0.2,0.1-0.2,0.2"/>
<path class="st0" d="M784.7,74.9l2.1,19.5"/>
<path class="st0" d="M786.6,94.6c0.1,0,0.2-0.1,0.2-0.2"/>
<path class="st0" d="M786.6,94.6l-7.6,0.8"/>
<path class="st0" d="M778.8,95.3c0,0.1,0.1,0.2,0.2,0.2"/>
<path class="st0" d="M778.8,95.3l-2.1-19.5"/>
<path class="st0" d="M776.7,75.8c0-0.1-0.1-0.2-0.2-0.2c0,0,0,0,0,0"/>
<path class="st0" d="M772.7,96l-14.5,1.6"/>
<path class="st0" d="M770.6,76.5l2.1,19.5"/>
<path class="st0" d="M770.9,76c-0.2,0-0.4,0.2-0.4,0.4"/>
<path class="st0" d="M770.9,76l5.6-0.6"/>
<path class="st0" d="M776.9,75.8c0-0.2-0.2-0.4-0.4-0.4c0,0,0,0,0,0"/>
<path class="st0" d="M779,95.3l-2.1-19.5"/>
<path class="st0" d="M786.6,94.5l-7.6,0.8"/>
<path class="st0" d="M784.5,75l2.1,19.5"/>
<path class="st0" d="M784.8,74.5c-0.2,0-0.4,0.2-0.4,0.4c0,0,0,0,0,0"/>
<path class="st0" d="M784.8,74.5l5.6-0.6"/>
<path class="st0" d="M790.8,74.3c0-0.2-0.2-0.4-0.4-0.4c0,0,0,0,0,0"/>
<path class="st0" d="M792.9,93.8l-2.1-19.5"/>
<path class="st0" d="M817,91.1l-24.1,2.6"/>
<path class="st0" d="M810.6,31.9l6.4,59.3"/>
<path class="st0" d="M770.8,76.5l2.1,19.5"/>
<path class="st0" d="M770.9,76.2l5.6-0.6"/>
<path class="st0" d="M770.9,76.2c-0.1,0-0.2,0.1-0.2,0.2"/>
<path class="st0" d="M758,97.6c0,0.1,0.1,0.2,0.2,0.2"/>
<path class="st0" d="M758.2,97.7l0-0.2"/>
<path class="st0" d="M772.7,96.2l0-0.2"/>
<path class="st0" d="M772.9,95.9l-0.2,0"/>
<path class="st0" d="M770.8,76.5l-0.2,0"/>
<path class="st0" d="M770.9,76.2l0-0.2"/>
<path class="st0" d="M776.5,75.6l0-0.2"/>
<path class="st0" d="M776.7,75.8l0.2,0"/>
<path class="st0" d="M778.8,95.3l0.2,0"/>
<path class="st0" d="M779,95.5l0-0.2"/>
<path class="st0" d="M786.6,94.6l0-0.2"/>
<path class="st0" d="M786.8,94.4l-0.2,0"/>
<path class="st0" d="M784.7,74.9l-0.2,0"/>
<path class="st0" d="M784.8,74.7l0-0.2"/>
<path class="st0" d="M790.4,74.1l0-0.2"/>
<path class="st0" d="M790.6,74.3l0.2,0"/>
<path class="st0" d="M792.7,93.8l0.2,0"/>
<path class="st0" d="M793,94l0-0.2"/>
<path class="st0" d="M817,91.3l0-0.2"/>
<path class="st0" d="M817.2,91.1l-0.2,0"/>
<path class="st0" d="M810.8,31.9l-0.2,0"/>
<path class="st0" d="M810.8,31.9c0-0.1-0.1-0.2-0.2-0.2c0,0,0,0,0,0"/>
<path class="st0" d="M758.2,133.5c-0.1,0-0.2,0.1-0.2,0.2"/>
<path class="st0" d="M758.1,133.8l0.2,0"/>
<path class="st0" d="M758.3,133.7l0-0.2"/>
<path class="st0" d="M777.4,131.5l-19.2,2.1"/>
<path class="st0" d="M777.6,131.6c0-0.1-0.1-0.2-0.2-0.2"/>
<path class="st0" d="M777.6,131.6l-19.4,2.1"/>
<path class="st0" d="M777.6,131.6L777.6,131.6"/>
<path class="st0" d="M777.6,131.6c1,6.8,7.4,11.5,14.2,10.5c6.4-1,11.1-6.7,10.6-13.2"/>
<path class="st0" d="M802.6,128.7c-0.1,0-0.2,0.1-0.2,0.2c0,0,0,0,0,0"/>
<path class="st0" d="M762.1,171.1l0.2,0"/>
<path class="st0" d="M762.3,171.1l-4.1-37.4"/>
<path class="st0" d="M762.1,171.1l-4.1-37.4"/>
<path class="st0" d="M766.9,170.8l-4.6,0.5"/>
<path class="st0" d="M767.1,171c0-0.1-0.1-0.2-0.2-0.2c0,0,0,0,0,0"/>
<path class="st0" d="M762.6,173.3l4.6-0.5"/>
<path class="st0" d="M767.3,172.6l-0.2-1.6"/>
<path class="st0" d="M767.1,172.8c0.1,0,0.2-0.1,0.2-0.2"/>
<path class="st0" d="M762.1,171.1c0,0.1,0.1,0.2,0.2,0.2"/>
<path class="st0" d="M762.3,171.3l0-0.2"/>
<path class="st0" d="M766.9,170.8l0-0.2"/>
<path class="st0" d="M766.9,170.6l-4.6,0.5"/>
<path class="st0" d="M767.1,171l0.2,0"/>
<path class="st0" d="M767.3,171c0-0.2-0.2-0.4-0.4-0.4c0,0,0,0,0,0"/>
<path class="st0" d="M767.3,172.6l0.2,0"/>
<path class="st0" d="M767.5,172.6l-0.2-1.6"/>
<path class="st0" d="M767.1,172.8l0,0.2"/>
<path class="st0" d="M767.2,173c0.2,0,0.4-0.2,0.4-0.4c0,0,0,0,0,0"/>
<path class="st0" d="M762.6,173.3l0,0.2"/>
<path class="st0" d="M762.6,173.5l4.6-0.5"/>
<path class="st0" d="M762.6,173.3c-0.1,0-0.2,0.1-0.2,0.2"/>
<path class="st0" d="M762.4,173.5l0.2,0"/>
<path class="st0" d="M802.6,128.7l14.5-1.6"/>
<path class="st0" d="M817.2,127.1l0,0.2"/>
<path class="st0" d="M802.5,128.9l14.7-1.6"/>
<path class="st0" d="M791.4,170.2c-0.1,0-0.2,0.1-0.2,0.2c0,0,0,0,0,0"/>
<path class="st0" d="M797,169.6l-5.6,0.6"/>
<path class="st0" d="M797.2,169.7c0-0.1-0.1-0.2-0.2-0.2"/>
<path class="st0" d="M797.2,169.7l2.1,19.5"/>
<path class="st0" d="M799.3,189.2c0,0.1,0.1,0.2,0.2,0.2"/>
<path class="st0" d="M823.8,186.6l-6.4-59.3"/>
<path class="st0" d="M799.5,189.4l24.1-2.6"/>
<path class="st0" d="M823.6,186.8c0.1,0,0.2-0.1,0.2-0.2"/>
<path class="st0" d="M817.4,127.3c0-0.1-0.1-0.2-0.2-0.2"/>
<path class="st0" d="M817.2,127.3l0.2,0"/>
<path class="st0" d="M823.6,186.6l-6.4-59.3"/>
<path class="st0" d="M823.6,186.6l0.2,0"/>
<path class="st0" d="M823.6,186.6l0,0.2"/>
<path class="st0" d="M799.5,189.2l24.1-2.6"/>
<path class="st0" d="M799.5,189.2l0,0.2"/>
<path class="st0" d="M799.5,189.2l-0.2,0"/>
<path class="st0" d="M797.4,169.7l2.1,19.5"/>
<path class="st0" d="M797.4,169.7l-0.2,0"/>
<path class="st0" d="M797.4,169.7c0-0.2-0.2-0.4-0.4-0.4c0,0,0,0,0,0"/>
<path class="st0" d="M796.9,169.4l0,0.2"/>
<path class="st0" d="M796.9,169.4l-5.6,0.6"/>
<path class="st0" d="M791.4,170l0,0.2"/>
<path class="st0" d="M791.4,170c-0.2,0-0.4,0.2-0.4,0.4"/>
<path class="st0" d="M791,170.4l0.2,0"/>
<path class="st0" d="M783.3,171.3c0-0.1-0.1-0.2-0.2-0.2"/>
<path class="st0" d="M785.4,190.7l-2.1-19.5"/>
<path class="st0" d="M785.4,190.7c0,0.1,0.1,0.2,0.2,0.2"/>
<path class="st0" d="M764.5,193l0.2,0"/>
<path class="st0" d="M764.7,193l-2.1-19.5"/>
<path class="st0" d="M764.5,193l-2.1-19.5"/>
<path class="st0" d="M764.7,193.2l14.5-1.6"/>
<path class="st0" d="M779.2,191.6c0.1,0,0.2-0.1,0.2-0.2"/>
<path class="st0" d="M783,171.1l-5.6,0.6"/>
<path class="st0" d="M779.4,191.4l-2.1-19.5"/>
<path class="st0" d="M777.5,171.7c-0.1,0-0.2,0.1-0.2,0.2"/>
<path class="st0" d="M785.6,190.9l7.6-0.8"/>
<path class="st0" d="M793.3,189.9l-2.1-19.5"/>
<path class="st0" d="M764.7,193l14.5-1.6"/>
<path class="st0" d="M779.2,191.4l-2.1-19.5"/>
<path class="st0" d="M777.5,171.5c-0.2,0-0.4,0.2-0.4,0.4c0,0,0,0,0,0"/>
<path class="st0" d="M783,170.9l-5.6,0.6"/>
<path class="st0" d="M783.5,171.2c0-0.2-0.2-0.4-0.4-0.4c0,0,0,0,0,0"/>
<path class="st0" d="M785.6,190.7l-2.1-19.5"/>
<path class="st0" d="M785.6,190.7l7.6-0.8"/>
<path class="st0" d="M793.1,189.9l-2.1-19.5"/>
<path class="st0" d="M793.1,189.9l0.2,0"/>
<path class="st0" d="M783.5,171.2l-0.2,0"/>
<path class="st0" d="M785.6,190.7l-0.2,0"/>
<path class="st0" d="M783,170.9l0,0.2"/>
<path class="st0" d="M777.5,171.5l0,0.2"/>
<path class="st0" d="M777.1,171.9l0.2,0"/>
<path class="st0" d="M779.2,191.4l0.2,0"/>
<path class="st0" d="M779.2,191.4l0,0.2"/>
<path class="st0" d="M764.7,193l0,0.2"/>
<path class="st0" d="M764.5,193c0,0.1,0.1,0.2,0.2,0.2c0,0,0,0,0,0"/>
<path class="st0" d="M793.1,190.1c0.1,0,0.2-0.1,0.2-0.2"/>
<path class="st0" d="M793.1,189.9l0,0.2"/>
<path class="st0" d="M785.6,190.7l0,0.2"/>
<path d="M203,209.5h0.5v-1.6h1.5v-0.4h-1.5v-1h1.8V206H203V209.5L203,209.5z M206.2,209.5h0.4v-1.5l0-0.4l0.1-0.3l0.2-0.2l0.3-0.1
	l0.2,0l0.2,0.1l0.1,0.2l0,0.2h0.4l-0.1-0.4l-0.2-0.3l-0.3-0.2l-0.4-0.1l-0.3,0l-0.2,0.1l-0.2,0.2l-0.2,0.2v-0.4h-0.4V209.5
	L206.2,209.5z M209,208.1l0.1,0.6l0.2,0.5l0.4,0.3l0.5,0.1l0.5-0.1l0.4-0.3l0.2-0.5l0.1-0.6l-0.1-0.6l-0.2-0.5l-0.4-0.3l-0.5-0.1
	l-0.5,0.1l-0.4,0.3l-0.2,0.5L209,208.1L209,208.1z M209.4,208.1l0-0.5l0.1-0.3l0.2-0.2l0.3-0.1l0.3,0.1l0.2,0.2l0.1,0.3l0.1,0.5
	l-0.1,0.5l-0.1,0.3l-0.2,0.2l-0.3,0.1l-0.3-0.1l-0.2-0.2l-0.1-0.3L209.4,208.1L209.4,208.1z M212.1,209.5h0.4v-1.6l0-0.4l0.1-0.3
	l0.2-0.2l0.3-0.1l0.2,0.1l0.2,0.1l0.1,0.2l0,0.3v1.7h0.4v-1.8l0-0.4l-0.1-0.3l-0.3-0.3l-0.5-0.1l-0.3,0l-0.2,0.1l-0.2,0.2l-0.1,0.2
	v-0.4h-0.4V209.5L212.1,209.5z M215.8,207.2v1.4l0,0.4l0.1,0.3l0.3,0.2l0.5,0.1l0.5,0v-0.4l-0.4,0l-0.3,0l-0.2-0.1l-0.1-0.2l0-0.3
	v-1.3h1v-0.4h-1v-0.8h-0.4v0.8H215v0.4H215.8L215.8,207.2z M221.1,209.5h0.5V208h0.5l0.4,0l0.2,0.1l0.1,0.2l0.1,0.3l0,0.5l0,0.3
	l0.1,0.2h0.5v-0.1l-0.1-0.1l0-0.3l0-0.6l-0.1-0.4l-0.1-0.1l-0.2-0.1l0.2-0.1l0.1-0.2l0.1-0.2l0-0.3l-0.1-0.4l-0.2-0.3l-0.3-0.2
	l-0.5-0.1h-1.2V209.5L221.1,209.5z M222.2,206.4l0.3,0l0.2,0.1l0.1,0.2l0,0.3l-0.1,0.3l-0.1,0.2l-0.2,0.1l-0.3,0h-0.5v-1.2H222.2
	L222.2,206.4z M225.6,209.1v-2.2h-1.1v0.4h0.7v1.9h-0.9v0.4h2.3v-0.4H225.6L225.6,209.1z M225.6,205.9h-0.5v0.5h0.5V205.9
	L225.6,205.9z M229.4,209.4v-2.6H229v0.4l-0.3-0.4l-0.2-0.1l-0.2,0l-0.4,0.1l-0.3,0.3l-0.2,0.5l-0.1,0.6l0.1,0.6l0.2,0.5l0.3,0.3
	l0.4,0.1l0.2,0l0.2-0.1l0.4-0.4v0.4l0,0.3l-0.1,0.2l-0.2,0.1l-0.3,0l-0.3,0l-0.2-0.1l-0.1-0.1l0-0.2h-0.4v0l0.1,0.3l0.2,0.2l0.3,0.2
	l0.4,0.1l0.5-0.1l0.3-0.2l0.2-0.4L229.4,209.4L229.4,209.4z M227.6,208.1l0-0.4l0.1-0.3l0.2-0.2l0.3-0.1l0.3,0.1l0.2,0.2l0.1,0.3
	l0.1,0.4l-0.1,0.5l-0.1,0.3l-0.2,0.2l-0.3,0.1l-0.3-0.1l-0.2-0.2l-0.1-0.3L227.6,208.1L227.6,208.1z M230.3,209.5h0.4v-1.6l0-0.4
	l0.1-0.3l0.2-0.2l0.3-0.1l0.2,0.1l0.2,0.1l0.1,0.2l0,0.3v1.7h0.4v-1.8l0-0.4l-0.1-0.3l-0.3-0.3l-0.5-0.1l-0.3,0l-0.2,0.1l-0.2,0.2
	l-0.1,0.2v-1.3h-0.4V209.5L230.3,209.5z M234,207.2v1.4l0,0.4l0.1,0.3l0.3,0.2l0.5,0.1l0.5,0v-0.4l-0.4,0l-0.3,0l-0.2-0.1l-0.1-0.2
	l0-0.3v-1.3h1v-0.4h-1v-0.8H234v0.8h-0.8v0.4H234L234,207.2z M239.5,209.5h2.3v-0.4h-1.8V206h-0.5V209.5L239.5,209.5z M242.3,208.1
	l0.1,0.6l0.2,0.5l0.4,0.3l0.5,0.1l0.5-0.1l0.4-0.3l0.2-0.5l0.1-0.6l-0.1-0.6l-0.2-0.5l-0.4-0.3l-0.5-0.1l-0.5,0.1l-0.4,0.3l-0.2,0.5
	L242.3,208.1L242.3,208.1z M242.8,208.1l0-0.5l0.1-0.3l0.2-0.2l0.3-0.1l0.3,0.1l0.2,0.2l0.1,0.3l0.1,0.5l-0.1,0.5l-0.1,0.3l-0.2,0.2
	l-0.3,0.1l-0.3-0.1l-0.2-0.2l-0.1-0.3L242.8,208.1L242.8,208.1z M246.2,209.5l0.4-2.3l0.4,2.3h0.4l0.7-2.7h-0.4l-0.4,2.3l-0.4-2.3
	h-0.4l-0.4,2.3l-0.4-2.3h-0.4l0.7,2.7H246.2L246.2,209.5z M248.9,208.3h1.8l0-0.2l-0.1-0.6l-0.2-0.4l-0.4-0.3l-0.5-0.1l-0.5,0.1
	l-0.4,0.3l-0.2,0.5l-0.1,0.6l0.1,0.6l0.2,0.5l0.3,0.3l0.5,0.1l0.4-0.1l0.3-0.2l0.2-0.3l0.1-0.4h-0.4l-0.1,0.2l-0.1,0.2l-0.4,0.1
	l-0.3-0.1l-0.2-0.2l-0.1-0.3L248.9,208.3L248.9,208.3L248.9,208.3z M248.9,207.9l0.1-0.3l0.1-0.3l0.2-0.2l0.3-0.1l0.3,0.1l0.2,0.2
	l0.1,0.3l0,0.3H248.9L248.9,207.9z M251.8,209.5h0.4v-1.5l0-0.4l0.1-0.3l0.2-0.2l0.3-0.1l0.2,0l0.2,0.1l0.1,0.2l0,0.2h0.4l-0.1-0.4
	l-0.2-0.3l-0.3-0.2l-0.4-0.1l-0.3,0l-0.2,0.1l-0.2,0.2l-0.2,0.2v-0.4h-0.4V209.5L251.8,209.5z M257.2,209.5h0.5l0.4-1h1.4l0.4,1h0.5
	L259,206h-0.5L257.2,209.5L257.2,209.5z M258.2,208l0.5-1.5l0.5,1.5H258.2L258.2,208z M261.1,208.3h1.2v-0.4h-1.2V208.3L261.1,208.3
	z M263.2,209.5h0.5l0.4-1h1.4l0.4,1h0.5L265,206h-0.5L263.2,209.5L263.2,209.5z M264.2,208l0.5-1.5l0.5,1.5H264.2L264.2,208z
	 M266.9,209.5h0.4v-1.5l0-0.4l0.1-0.3l0.2-0.2l0.3-0.1l0.2,0l0.2,0.1l0.1,0.2l0,0.2h0.4l-0.1-0.4l-0.2-0.3l-0.3-0.2l-0.4-0.1l-0.3,0
	l-0.2,0.1l-0.2,0.2l-0.2,0.2v-0.4h-0.4V209.5L266.9,209.5z M269.6,209.5h0.4v-1.8l0-0.3l0.1-0.2l0.1-0.1l0.2,0l0.1,0l0.1,0.1l0,0.2
	l0,0.2v1.9h0.4v-1.8l0-0.3l0.1-0.2l0.1-0.1l0.2,0l0.1,0l0.1,0.1l0.1,0.4v1.9h0.4v-1.9l0-0.4l-0.1-0.3l-0.2-0.2l-0.3-0.1l-0.3,0.1
	l-0.2,0.3l-0.2-0.3l-0.3-0.1l-0.3,0.1l-0.2,0.3v-0.3h-0.4V209.5L269.6,209.5z M276.3,208.3h1.2v-0.4h-1.2V208.3L276.3,208.3z
	 M281.9,209.5h0.5V208h0.5l0.5,0l0.4-0.2l0.3-0.3l0.1-0.5l-0.1-0.4l-0.2-0.3l-0.3-0.2l-0.5-0.1h-1.2V209.5L281.9,209.5z M283,206.4
	l0.3,0l0.2,0.1l0.1,0.2l0,0.3l-0.1,0.3l-0.1,0.2l-0.2,0.1l-0.3,0h-0.6v-1.2H283L283,206.4z M285.9,206.2v2.9H285v0.4h2.3v-0.4h-0.9
	v-3.2h-1.1v0.4H285.9L285.9,206.2z M289.6,209.1L289.6,209.1l0,0.2l0.1,0.1l0.3,0.1l0.2,0v-0.3l-0.1,0l-0.1-0.1l0-0.2v-1.4l-0.1-0.4
	l-0.2-0.3l-0.3-0.2l-0.4-0.1l-0.4,0.1l-0.3,0.2l-0.2,0.3l-0.1,0.4v0h0.4l0-0.2l0.1-0.2l0.2-0.1l0.3,0l0.2,0l0.2,0.1l0.1,0.1l0,0.2
	l0,0.2l-0.1,0.1l-0.2,0.1l-0.4,0l-0.4,0.1l-0.3,0.2l-0.2,0.3l-0.1,0.4l0.1,0.3l0.2,0.2l0.3,0.2l0.3,0.1l0.5-0.1L289.6,209.1
	L289.6,209.1z M289.6,208.5l-0.1,0.3l-0.2,0.2l-0.2,0.1l-0.3,0l-0.2,0l-0.1-0.1l-0.1-0.1l0-0.2l0-0.2l0.1-0.1l0.3-0.1l0.4-0.1
	l0.4-0.1V208.5L289.6,208.5z M292.7,207.2l-0.2-0.2l-0.2-0.2l-0.2-0.1l-0.2,0l-0.4,0.1l-0.3,0.3l-0.2,0.5l-0.1,0.6l0.1,0.6l0.2,0.5
	l0.3,0.3l0.4,0.1l0.2,0l0.2-0.1l0.2-0.2l0.2-0.2v1.5h0.4v-3.8h-0.4V207.2L292.7,207.2z M291.3,208.1l0-0.4l0.1-0.3l0.2-0.2l0.3-0.1
	l0.3,0.1l0.2,0.2l0.1,0.3l0.1,0.5l-0.1,0.5l-0.1,0.3l-0.2,0.2l-0.3,0.1l-0.3-0.1l-0.2-0.2l-0.1-0.3L291.3,208.1L291.3,208.1z
	 M296.2,206.8h-0.4v1.6l-0.1,0.4l-0.1,0.3l-0.2,0.2l-0.3,0.1l-0.2,0l-0.2-0.1l-0.1-0.2l0-0.3v-1.7h-0.4v1.8l0,0.4l0.1,0.3l0.3,0.3
	l0.5,0.1l0.3,0l0.2-0.1l0.2-0.2l0.2-0.2v0.4h0.4V206.8L296.2,206.8z M297.5,208.3h1.8l0-0.2l-0.1-0.6L299,207l-0.4-0.3l-0.5-0.1
	l-0.5,0.1l-0.4,0.3l-0.2,0.5l-0.1,0.6l0.1,0.6l0.2,0.5l0.3,0.3l0.5,0.1l0.4-0.1l0.3-0.2l0.2-0.3l0.1-0.4h-0.4l-0.1,0.2l-0.1,0.2
	l-0.4,0.1l-0.3-0.1l-0.2-0.2l-0.1-0.3L297.5,208.3L297.5,208.3L297.5,208.3z M297.5,207.9l0.1-0.3l0.1-0.3l0.2-0.2l0.3-0.1l0.3,0.1
	l0.2,0.2l0.1,0.3l0,0.3H297.5L297.5,207.9z M304.9,209.1v0.4h0.4v-3.6h-0.4v1.3l-0.3-0.4l-0.2-0.1l-0.2,0l-0.4,0.1l-0.3,0.3
	l-0.2,0.5l-0.1,0.6l0.1,0.6l0.2,0.5l0.3,0.3l0.4,0.1l0.2,0l0.2-0.1L304.9,209.1L304.9,209.1z M304.2,207.1l0.3,0.1l0.2,0.2l0.1,0.3
	l0.1,0.5l-0.1,0.5l-0.1,0.3l-0.2,0.2l-0.3,0.1l-0.3-0.1l-0.2-0.2l-0.1-0.3l0-0.5l0-0.4l0.1-0.3l0.2-0.2L304.2,207.1L304.2,207.1z
	 M308.3,206.8h-0.4v1.6l-0.1,0.4l-0.1,0.3l-0.2,0.2l-0.3,0.1l-0.2,0l-0.2-0.1l-0.1-0.2l0-0.3v-1.7h-0.4v1.8l0,0.4l0.1,0.3l0.3,0.3
	l0.5,0.1l0.3,0l0.2-0.1l0.2-0.2l0.2-0.2v0.4h0.4V206.8L308.3,206.8z M312.2,209.5h0.5v-1.6h1.4v1.6h0.5V206h-0.5v1.4h-1.4V206h-0.5
	V209.5L312.2,209.5z M317,209.1L317,209.1l0,0.2l0.1,0.1l0.3,0.1l0.2,0v-0.3l-0.1,0l-0.1-0.1l0-0.2v-1.4l-0.1-0.4l-0.2-0.3l-0.3-0.2
	l-0.4-0.1l-0.4,0.1l-0.3,0.2l-0.2,0.3l-0.1,0.4v0h0.4l0-0.2l0.1-0.2l0.2-0.1l0.3,0l0.2,0l0.2,0.1l0.1,0.1l0,0.2l0,0.2l-0.1,0.1
	l-0.2,0.1l-0.4,0l-0.4,0.1l-0.3,0.2l-0.2,0.3l-0.1,0.4l0.1,0.3l0.2,0.2l0.3,0.2l0.3,0.1l0.5-0.1L317,209.1L317,209.1z M316.9,208.5
	l-0.1,0.3l-0.2,0.2l-0.2,0.1l-0.3,0l-0.2,0l-0.1-0.1l-0.1-0.1l0-0.2l0-0.2l0.1-0.1l0.3-0.1l0.4-0.1l0.4-0.1V208.5L316.9,208.5z
	 M320.5,206.8H320v1.6l-0.1,0.4l-0.1,0.3l-0.2,0.2l-0.3,0.1l-0.2,0l-0.2-0.1l-0.1-0.2l0-0.3v-1.7h-0.4v1.8l0,0.4l0.1,0.3l0.3,0.3
	l0.5,0.1l0.3,0l0.2-0.1l0.2-0.2l0.2-0.2v0.4h0.4V206.8L320.5,206.8z M322,207.2v1.4l0,0.4l0.1,0.3l0.3,0.2l0.5,0.1l0.5,0v-0.4
	l-0.4,0l-0.3,0l-0.2-0.1l-0.1-0.2l0-0.3v-1.3h1v-0.4h-1v-0.8H322v0.8h-0.8v0.4H322L322,207.2z"/>
<path d="M511,187.6h0.5V186h1.5v-0.4h-1.5v-1h1.8v-0.4H511V187.6L511,187.6z M514.2,187.6h0.4V186l0-0.4l0.1-0.3l0.2-0.2l0.3-0.1
	l0.2,0l0.2,0.1l0.1,0.2l0,0.2h0.4l-0.1-0.4l-0.2-0.3l-0.3-0.2l-0.4-0.1l-0.3,0l-0.2,0.1l-0.2,0.2l-0.2,0.2v-0.4h-0.4V187.6
	L514.2,187.6z M516.9,186.2l0.1,0.6l0.2,0.5l0.4,0.3l0.5,0.1l0.5-0.1l0.4-0.3l0.2-0.5l0.1-0.6l-0.1-0.6l-0.2-0.5l-0.4-0.3l-0.5-0.1
	l-0.5,0.1l-0.4,0.3l-0.2,0.5L516.9,186.2L516.9,186.2z M517.4,186.2l0-0.5l0.1-0.3l0.2-0.2l0.3-0.1l0.3,0.1l0.2,0.2l0.1,0.3l0,0.5
	l0,0.5l-0.1,0.3l-0.2,0.2l-0.3,0.1l-0.3-0.1l-0.2-0.2l-0.1-0.3L517.4,186.2L517.4,186.2z M520.1,187.6h0.4V186l0-0.4l0.1-0.3
	l0.2-0.2l0.3-0.1l0.2,0.1l0.2,0.1l0.1,0.2l0,0.3v1.7h0.4v-1.8l0-0.4l-0.1-0.3l-0.3-0.3l-0.5-0.1l-0.3,0l-0.2,0.1l-0.2,0.2l-0.1,0.2
	v-0.4h-0.4V187.6L520.1,187.6z M523.7,185.3v1.4l0,0.4l0.1,0.3l0.3,0.2l0.5,0.1l0.5,0v-0.4l-0.4,0l-0.3,0l-0.2-0.1l-0.1-0.2l0-0.3
	v-1.3h1v-0.4h-1v-0.8h-0.4v0.8H523v0.4H523.7L523.7,185.3z M529.1,187.6h0.5v-1.5h0.5l0.4,0l0.2,0.1l0.1,0.2l0.1,0.3l0,0.5l0,0.3
	l0.1,0.2h0.5v-0.1l-0.1-0.1l0-0.3l0-0.6l-0.1-0.4l-0.1-0.1l-0.2-0.1l0.2-0.1l0.1-0.2l0.1-0.2l0-0.3l-0.1-0.4l-0.2-0.3l-0.3-0.2
	l-0.5-0.1h-1.2V187.6L529.1,187.6z M530.2,184.5l0.3,0l0.2,0.1l0.1,0.2l0,0.3l0,0.3l-0.1,0.2l-0.2,0.1l-0.3,0h-0.5v-1.2H530.2
	L530.2,184.5z M533.6,187.2v-2.2h-1.1v0.4h0.7v1.9h-0.9v0.4h2.3v-0.4H533.6L533.6,187.2z M533.6,183.9h-0.5v0.5h0.5V183.9
	L533.6,183.9z M537.4,187.4v-2.6H537v0.4l-0.3-0.4l-0.2-0.1l-0.2,0l-0.4,0.1l-0.3,0.3l-0.2,0.5l-0.1,0.6l0.1,0.6l0.2,0.5l0.3,0.3
	l0.4,0.1l0.2,0l0.2-0.1l0.4-0.4v0.4l0,0.3l-0.1,0.2l-0.2,0.1l-0.3,0l-0.3,0l-0.2-0.1l-0.1-0.1l0-0.2h-0.4v0l0.1,0.3l0.2,0.2l0.3,0.2
	l0.4,0.1l0.5-0.1l0.3-0.2l0.2-0.4L537.4,187.4L537.4,187.4z M535.6,186.2l0-0.4l0.1-0.3l0.2-0.2l0.3-0.1l0.3,0.1l0.2,0.2l0.1,0.3
	l0,0.4l0,0.5l-0.1,0.3l-0.2,0.2l-0.3,0.1l-0.3-0.1l-0.2-0.2l-0.1-0.3L535.6,186.2L535.6,186.2z M538.3,187.6h0.4V186l0-0.4l0.1-0.3
	l0.2-0.2l0.3-0.1l0.2,0.1l0.2,0.1l0.1,0.2l0,0.3v1.7h0.4v-1.8l0-0.4l-0.1-0.3l-0.3-0.3l-0.5-0.1l-0.3,0l-0.2,0.1l-0.2,0.2l-0.1,0.2
	v-1.3h-0.4V187.6L538.3,187.6z M541.9,185.3v1.4l0,0.4l0.1,0.3l0.3,0.2l0.5,0.1l0.5,0v-0.4l-0.4,0l-0.3,0l-0.2-0.1l-0.1-0.2l0-0.3
	v-1.3h1v-0.4h-1v-0.8h-0.4v0.8h-0.8v0.4H541.9L541.9,185.3z M547.4,187.6h2.2v-0.4h-1.8v-3.1h-0.5V187.6L547.4,187.6z M550.3,186.2
	l0.1,0.6l0.2,0.5l0.4,0.3l0.5,0.1l0.5-0.1l0.4-0.3l0.2-0.5l0.1-0.6l-0.1-0.6l-0.2-0.5l-0.4-0.3l-0.5-0.1l-0.5,0.1l-0.4,0.3l-0.2,0.5
	L550.3,186.2L550.3,186.2z M550.8,186.2l0-0.5l0.1-0.3l0.2-0.2l0.3-0.1l0.3,0.1l0.2,0.2l0.1,0.3l0,0.5l0,0.5L552,187l-0.2,0.2
	l-0.3,0.1l-0.3-0.1L551,187l-0.1-0.3L550.8,186.2L550.8,186.2z M554.1,187.6l0.4-2.3l0.4,2.3h0.4l0.7-2.7h-0.4l-0.4,2.3l-0.4-2.3
	h-0.4l-0.4,2.3l-0.4-2.3H553l0.7,2.7H554.1L554.1,187.6z M556.9,186.3h1.8l0-0.2l-0.1-0.6l-0.2-0.4l-0.4-0.3l-0.5-0.1l-0.5,0.1
	l-0.4,0.3l-0.2,0.5l-0.1,0.6l0.1,0.6l0.2,0.5l0.3,0.3l0.5,0.1l0.4-0.1l0.3-0.2l0.2-0.3l0.1-0.4h-0.4l-0.1,0.2l-0.1,0.2l-0.4,0.1
	l-0.3-0.1l-0.2-0.2l-0.1-0.3L556.9,186.3L556.9,186.3L556.9,186.3z M556.9,186l0.1-0.3l0.1-0.3l0.2-0.2l0.3-0.1l0.3,0.1l0.2,0.2
	l0.1,0.3l0,0.3H556.9L556.9,186z M559.7,187.6h0.4V186l0-0.4l0.1-0.3l0.2-0.2l0.3-0.1l0.2,0l0.2,0.1l0.1,0.2l0,0.2h0.4l-0.1-0.4
	l-0.2-0.3l-0.3-0.2l-0.4-0.1l-0.3,0l-0.2,0.1l-0.2,0.2l-0.2,0.2v-0.4h-0.4V187.6L559.7,187.6z M565.1,187.6h0.5l0.4-1h1.4l0.4,1h0.5
	l-1.3-3.5h-0.5L565.1,187.6L565.1,187.6z M566.1,186.1l0.5-1.5l0.5,1.5H566.1L566.1,186.1z M569.1,186.4h1.2V186h-1.2V186.4
	L569.1,186.4z M571.2,187.6h0.5l0.4-1h1.4l0.4,1h0.5l-1.3-3.5h-0.5L571.2,187.6L571.2,187.6z M572.2,186.1l0.5-1.5l0.5,1.5H572.2
	L572.2,186.1z M574.9,187.6h0.4V186l0-0.4l0.1-0.3l0.2-0.2l0.3-0.1l0.2,0l0.2,0.1l0.1,0.2l0,0.2h0.4l-0.1-0.4l-0.2-0.3l-0.3-0.2
	l-0.4-0.1l-0.3,0l-0.2,0.1l-0.2,0.2l-0.2,0.2v-0.4h-0.4V187.6L574.9,187.6z M577.6,187.6h0.4v-1.8l0-0.3l0.1-0.2l0.1-0.1l0.2,0
	l0.1,0l0.1,0.1l0,0.2l0,0.2v1.9h0.4v-1.8l0-0.3l0.1-0.2l0.1-0.1l0.2,0l0.1,0l0.1,0.1l0,0.4v1.9h0.4v-1.9l0-0.4L580,185l-0.2-0.2
	l-0.3-0.1l-0.3,0.1l-0.2,0.3l-0.2-0.3l-0.3-0.1l-0.3,0.1l-0.2,0.3v-0.3h-0.4V187.6L577.6,187.6z M584.3,186.4h1.2V186h-1.2V186.4
	L584.3,186.4z M589.9,187.6h0.5v-1.5h0.5l0.5,0l0.4-0.2l0.3-0.3l0.1-0.5l-0.1-0.4l-0.2-0.3l-0.3-0.2l-0.5-0.1h-1.2V187.6
	L589.9,187.6z M591,184.5l0.3,0l0.2,0.1l0.1,0.2l0,0.3l0,0.3l-0.1,0.2l-0.2,0.1l-0.3,0h-0.6v-1.2H591L591,184.5z M593.8,184.3v2.9
	h-0.9v0.4h2.3v-0.4h-0.9v-3.2h-1.1v0.4H593.8L593.8,184.3z M597.6,187.2L597.6,187.2l0,0.2l0.1,0.1l0.3,0.1l0.2,0v-0.3l-0.1,0
	l-0.1-0.1l0-0.2v-1.4l-0.1-0.4l-0.2-0.3l-0.3-0.2l-0.4-0.1l-0.4,0.1l-0.3,0.2l-0.2,0.3l-0.1,0.4v0h0.4l0-0.2l0.1-0.2l0.2-0.1l0.3,0
	l0.2,0l0.2,0.1l0.1,0.1l0,0.2l0,0.2l-0.1,0.1l-0.2,0.1l-0.4,0l-0.4,0.1l-0.3,0.2l-0.2,0.3l-0.1,0.4l0.1,0.3l0.2,0.2l0.3,0.2l0.3,0.1
	l0.5-0.1L597.6,187.2L597.6,187.2z M597.6,186.6l-0.1,0.3l-0.2,0.2l-0.2,0.1l-0.3,0l-0.2,0l-0.1-0.1l-0.1-0.1l0-0.2l0-0.2l0.1-0.1
	l0.3-0.1l0.4-0.1l0.4-0.1V186.6L597.6,186.6z M600.7,185.3l-0.2-0.2l-0.2-0.2l-0.2-0.1l-0.2,0l-0.4,0.1l-0.3,0.3l-0.2,0.5l-0.1,0.6
	l0.1,0.6l0.2,0.5l0.3,0.3l0.4,0.1l0.2,0l0.2-0.1l0.2-0.2l0.2-0.2v1.5h0.4v-3.8h-0.4V185.3L600.7,185.3z M599.3,186.2l0-0.4l0.1-0.3
	l0.2-0.2l0.3-0.1l0.3,0.1l0.2,0.2l0.1,0.3l0,0.5l0,0.5l-0.1,0.3l-0.2,0.2l-0.3,0.1l-0.3-0.1l-0.2-0.2l-0.1-0.3L599.3,186.2
	L599.3,186.2z M604.2,184.9h-0.4v1.6l0,0.4l-0.1,0.3l-0.2,0.2l-0.3,0.1l-0.2,0l-0.2-0.1l-0.1-0.2l0-0.3v-1.7h-0.4v1.8l0,0.4l0.1,0.3
	l0.3,0.3l0.5,0.1l0.3,0l0.2-0.1l0.2-0.2l0.2-0.2v0.4h0.4V184.9L604.2,184.9z M605.5,186.3h1.8l0-0.2l-0.1-0.6l-0.2-0.4l-0.4-0.3
	l-0.5-0.1l-0.5,0.1l-0.4,0.3l-0.2,0.5l-0.1,0.6l0.1,0.6l0.2,0.5l0.3,0.3l0.5,0.1l0.4-0.1l0.3-0.2l0.2-0.3l0.1-0.4h-0.4l-0.1,0.2
	l-0.1,0.2l-0.4,0.1l-0.3-0.1l-0.2-0.2l-0.1-0.3L605.5,186.3L605.5,186.3L605.5,186.3z M605.5,186l0.1-0.3l0.1-0.3l0.2-0.2l0.3-0.1
	l0.3,0.1l0.2,0.2l0.1,0.3l0,0.3H605.5L605.5,186z M612.8,187.1v0.4h0.4v-3.6h-0.4v1.3l-0.3-0.4l-0.2-0.1l-0.2,0l-0.4,0.1l-0.3,0.3
	l-0.2,0.5l-0.1,0.6l0.1,0.6l0.2,0.5l0.3,0.3l0.4,0.1l0.2,0l0.2-0.1L612.8,187.1L612.8,187.1z M612.1,185.2l0.3,0.1l0.2,0.2l0.1,0.3
	l0.1,0.5l-0.1,0.5l-0.1,0.3l-0.2,0.2l-0.3,0.1l-0.3-0.1l-0.2-0.2l-0.1-0.3l0-0.5l0-0.4l0.1-0.3l0.2-0.2L612.1,185.2L612.1,185.2z
	 M616.3,184.9h-0.4v1.6l-0.1,0.4l-0.1,0.3l-0.2,0.2l-0.3,0.1l-0.2,0l-0.2-0.1l-0.1-0.2l0-0.3v-1.7h-0.4v1.8l0,0.4l0.1,0.3l0.3,0.3
	l0.5,0.1l0.3,0l0.2-0.1l0.2-0.2l0.2-0.2v0.4h0.4V184.9L616.3,184.9z M620.7,187.1l0.3,0.4l0.4,0.1l0.4-0.1l0.3-0.3l0.2-0.5l0.1-0.6
	l-0.1-0.6l-0.2-0.5l-0.3-0.3l-0.4-0.1l-0.4,0.1l-0.2,0.2l-0.2,0.2v-1.3h-0.4v3.6h0.4V187.1L620.7,187.1z M622.1,186.2l-0.1,0.5
	l-0.1,0.3l-0.2,0.2l-0.3,0.1l-0.3-0.1l-0.2-0.2l-0.1-0.3l0-0.5l0-0.5l0.1-0.3l0.2-0.2l0.3-0.1l0.3,0.1l0.2,0.2l0.1,0.3L622.1,186.2
	L622.1,186.2z M624.9,187.2L624.9,187.2l0,0.2l0.1,0.1l0.3,0.1l0.2,0v-0.3l-0.1,0l-0.1-0.1l0-0.2v-1.4l-0.1-0.4l-0.2-0.3l-0.3-0.2
	l-0.4-0.1l-0.4,0.1l-0.3,0.2l-0.2,0.3l-0.1,0.4v0h0.4l0-0.2l0.1-0.2l0.2-0.1l0.3,0l0.2,0l0.2,0.1l0.1,0.1l0,0.2l0,0.2l-0.1,0.1
	l-0.2,0.1l-0.4,0l-0.4,0.1l-0.3,0.2l-0.2,0.3l-0.1,0.4l0.1,0.3l0.2,0.2l0.3,0.2l0.3,0.1l0.5-0.1L624.9,187.2L624.9,187.2z
	 M624.9,186.6l-0.1,0.3l-0.2,0.2l-0.2,0.1l-0.3,0l-0.2,0l-0.1-0.1l-0.1-0.1l0-0.2l0-0.2l0.1-0.1l0.3-0.1l0.4-0.1l0.4-0.1V186.6
	L624.9,186.6z M627.7,186l-0.4-0.1l-0.3-0.1l-0.1-0.2l0-0.2l0.1-0.1l0.2-0.1l0.2,0l0.2,0l0.2,0.1l0.1,0.1l0,0.2h0.4v0l-0.1-0.3
	l-0.2-0.3l-0.3-0.2l-0.4-0.1l-0.4,0.1l-0.3,0.2l-0.2,0.2l-0.1,0.3l0,0.3l0.1,0.2l0.2,0.2l0.3,0.1l0.5,0.1l0.3,0.1l0.1,0.1l0,0.2
	l0,0.2l-0.1,0.1l-0.2,0.1l-0.3,0l-0.3,0l-0.2-0.1l-0.1-0.2l-0.1-0.2h-0.4l0.1,0.4l0.2,0.3l0.3,0.2l0.5,0.1l0.5-0.1l0.3-0.2l0.2-0.3
	l0.1-0.4l-0.1-0.3l-0.2-0.2l-0.3-0.1L627.7,186L627.7,186z"/>
<path d="M759.6,66h0.3v-1.1h0.3l0.3,0l0.2,0.1l0.1,0.1l0,0.2l0,0.3l0,0.2l0,0.1h0.4v-0.1l-0.1-0.1l0-0.2l0-0.4l-0.1-0.3l-0.1-0.1
	l-0.1-0.1l0.1-0.1l0.1-0.1l0.1-0.2l0-0.2l0-0.3l-0.1-0.2l-0.2-0.1l-0.3,0h-0.8V66L759.6,66z M760.4,63.8l0.2,0l0.2,0.1l0.1,0.1
	l0,0.2l0,0.2l-0.1,0.1l-0.2,0.1l-0.2,0H760v-0.8H760.4L760.4,63.8z M762.8,65.7v-1.6H762v0.3h0.5v1.3h-0.6V66h1.6v-0.3H762.8
	L762.8,65.7z M762.9,63.4h-0.3v0.4h0.3V63.4L762.9,63.4z M765.5,65.9v-1.8h-0.3v0.3l-0.2-0.3l-0.2-0.1l-0.2,0l-0.3,0.1l-0.2,0.2
	l-0.2,0.3l-0.1,0.4l0.1,0.4l0.2,0.3l0.2,0.2l0.3,0.1l0.2,0L765,66l0.3-0.3V66l0,0.2l-0.1,0.2l-0.2,0.1l-0.2,0l-0.2,0l-0.1-0.1
	l-0.1-0.1l0-0.1H764v0l0,0.2l0.1,0.2l0.2,0.1l0.3,0l0.4-0.1l0.2-0.2l0.1-0.3L765.5,65.9L765.5,65.9z M764.3,65l0-0.3l0.1-0.2
	l0.2-0.1l0.2-0.1l0.2,0.1l0.2,0.1l0.1,0.2l0,0.3l0,0.3l-0.1,0.2l-0.2,0.1l-0.2,0l-0.2,0l-0.2-0.1l-0.1-0.2L764.3,65L764.3,65z
	 M766.2,66h0.3v-1.1l0-0.3l0.1-0.2l0.2-0.1l0.2,0l0.2,0l0.1,0.1l0.1,0.2l0,0.2V66h0.3v-1.3l0-0.3l-0.1-0.2l-0.2-0.2l-0.3-0.1l-0.2,0
	l-0.2,0.1l-0.1,0.1l-0.1,0.1v-0.9h-0.3V66L766.2,66z M768.8,64.4v1l0,0.3l0.1,0.2l0.2,0.1l0.3,0l0.4,0v-0.3l-0.3,0l-0.2,0l-0.1-0.1
	l-0.1-0.2l0-0.2v-0.9h0.7v-0.3h-0.7v-0.6h-0.3v0.6h-0.5v0.3H768.8L768.8,64.4z M772.7,66h0.3v-1.1h1.1v-0.3h-1.1v-0.7h1.3v-0.3h-1.6
	V66L772.7,66z M775,66h0.3v-1.1l0-0.3l0.1-0.2l0.2-0.1l0.2,0l0.2,0l0.1,0.1l0.1,0.1l0,0.2h0.3l0-0.3l-0.1-0.2l-0.2-0.1l-0.3,0
	l-0.2,0l-0.2,0.1l-0.1,0.1l-0.1,0.2v-0.3H775V66L775,66z M777,65l0.1,0.4l0.2,0.3l0.3,0.2l0.4,0.1l0.3-0.1l0.3-0.2l0.2-0.3l0.1-0.4
	l-0.1-0.4l-0.2-0.3l-0.3-0.2l-0.3-0.1l-0.4,0.1l-0.3,0.2l-0.2,0.3L777,65L777,65z M777.3,65l0-0.3l0.1-0.2l0.2-0.1l0.2-0.1l0.2,0.1
	l0.2,0.1l0.1,0.2l0,0.3l0,0.3l-0.1,0.2l-0.2,0.1l-0.2,0l-0.2,0l-0.2-0.1l-0.1-0.2L777.3,65L777.3,65z M779.2,66h0.3v-1.1l0-0.3
	l0.1-0.2l0.2-0.1l0.2,0l0.2,0l0.1,0.1l0.1,0.2l0,0.2V66h0.3v-1.3l0-0.3l-0.1-0.2l-0.2-0.2l-0.3-0.1l-0.2,0l-0.2,0.1l-0.1,0.1
	l-0.1,0.2v-0.3h-0.3V66L779.2,66z M781.8,64.4v1l0,0.3l0.1,0.2l0.2,0.1l0.3,0l0.4,0v-0.3l-0.3,0l-0.2,0l-0.1-0.1l-0.1-0.2l0-0.2
	v-0.9h0.7v-0.3h-0.7v-0.6h-0.3v0.6h-0.5v0.3H781.8L781.8,64.4z M785.7,66h1.6v-0.3h-1.3v-2.2h-0.3V66L785.7,66z M787.8,65l0.1,0.4
	l0.2,0.3l0.3,0.2l0.4,0.1L789,66l0.3-0.2l0.2-0.3l0.1-0.4l-0.1-0.4l-0.2-0.3l-0.3-0.2l-0.3-0.1l-0.4,0.1l-0.3,0.2l-0.2,0.3L787.8,65
	L787.8,65z M788.1,65l0-0.3l0.1-0.2l0.2-0.1l0.2-0.1l0.2,0.1l0.2,0.1l0.1,0.2l0,0.3l0,0.3l-0.1,0.2l-0.2,0.1l-0.2,0l-0.2,0l-0.2-0.1
	l-0.1-0.2L788.1,65L788.1,65z M790.5,66l0.3-1.6l0.3,1.6h0.3l0.5-1.9h-0.3l-0.3,1.6l-0.3-1.6h-0.3l-0.3,1.6l-0.3-1.6h-0.3l0.5,1.9
	H790.5L790.5,66z M792.5,65.1h1.3l0-0.1l-0.1-0.4l-0.2-0.3l-0.3-0.2L793,64l-0.3,0.1l-0.3,0.2l-0.2,0.3l-0.1,0.4l0.1,0.4l0.2,0.3
	l0.2,0.2l0.3,0.1l0.3,0l0.2-0.1l0.2-0.2l0.1-0.3h-0.3l-0.1,0.1l-0.1,0.1l-0.3,0.1l-0.2,0l-0.2-0.1l-0.1-0.2L792.5,65.1L792.5,65.1
	L792.5,65.1z M792.5,64.9l0-0.2l0.1-0.2l0.1-0.1l0.2,0l0.2,0l0.1,0.1l0.1,0.2l0,0.2H792.5L792.5,64.9z M794.5,66h0.3v-1.1l0-0.3
	l0.1-0.2l0.2-0.1l0.2,0l0.2,0l0.1,0.1l0.1,0.1l0,0.2h0.3l0-0.3l-0.1-0.2l-0.2-0.1l-0.3,0l-0.2,0l-0.2,0.1l-0.1,0.1l-0.1,0.2v-0.3
	h-0.3V66L794.5,66z M798.4,66h0.3l0.3-0.7h1l0.3,0.7h0.3l-0.9-2.5h-0.4L798.4,66L798.4,66z M799.1,65l0.4-1.1l0.4,1.1H799.1
	L799.1,65z M801.2,65.2h0.9v-0.3h-0.9V65.2L801.2,65.2z M802.7,66h0.3l0.3-0.7h1l0.3,0.7h0.3l-0.9-2.5h-0.4L802.7,66L802.7,66z
	 M803.4,65l0.4-1.1l0.4,1.1H803.4L803.4,65z M805.4,66h0.3v-1.1l0-0.3l0.1-0.2l0.2-0.1l0.2,0l0.2,0l0.1,0.1l0.1,0.1l0,0.2h0.3l0-0.3
	l-0.1-0.2l-0.2-0.1l-0.3,0l-0.2,0l-0.2,0.1l-0.1,0.1l-0.1,0.2v-0.3h-0.3V66L805.4,66z M807.3,66h0.3v-1.3l0-0.2l0.1-0.1l0.1-0.1
	l0.1,0l0.1,0l0.1,0.1l0,0.1l0,0.2V66h0.3v-1.3l0-0.2l0.1-0.1l0.1-0.1l0.1,0l0.1,0l0.1,0.1l0,0.3V66h0.3v-1.3l0-0.3l-0.1-0.2
	l-0.1-0.1l-0.2,0l-0.2,0.1l-0.2,0.2l-0.1-0.2l-0.2-0.1l-0.2,0.1l-0.1,0.2v-0.2h-0.3V66L807.3,66z"/>
<path d="M774.9,70.3h1.6V70h-1.3v-0.8h1.1v-0.3h-1.1v-0.7h1.2v-0.3h-1.6V70.3L774.9,70.3z M776.7,70.9v0.3h2.2v-0.3H776.7
	L776.7,70.9z M778.9,70.3h0.3l0.3-0.7h1l0.3,0.7h0.3l-0.9-2.5h-0.4L778.9,70.3L778.9,70.3z M779.6,69.3l0.4-1.1l0.4,1.1H779.6
	L779.6,69.3z M781.5,70.3h0.3v-1.1l0-0.3l0.1-0.2l0.2-0.1l0.2,0l0.2,0l0.1,0.1l0.1,0.1l0,0.2h0.3l0-0.3l-0.1-0.2l-0.2-0.1l-0.3,0
	l-0.2,0l-0.2,0.1l-0.1,0.1l-0.1,0.2v-0.3h-0.3V70.3L781.5,70.3z M783.7,70.3h0.3v-1.1l0-0.3l0.1-0.2l0.2-0.1l0.2,0l0.2,0l0.1,0.1
	l0.1,0.1l0,0.2h0.3l0-0.3l-0.1-0.2l-0.2-0.1l-0.3,0l-0.2,0l-0.2,0.1l-0.1,0.1l-0.1,0.2v-0.3h-0.3V70.3L783.7,70.3z M786.7,70.1v-1.6
	h-0.8v0.3h0.5v1.3h-0.6v0.3h1.6v-0.3H786.7L786.7,70.1z M786.7,67.7h-0.3v0.4h0.3V67.7L786.7,67.7z M788.9,68.1l-0.4-0.6h-0.4
	l0.5,0.6H788.9L788.9,68.1z M788.2,69.4h1.3l0-0.1l-0.1-0.4l-0.2-0.3l-0.3-0.2l-0.3-0.1l-0.3,0.1l-0.3,0.2l-0.2,0.3l-0.1,0.4
	l0.1,0.4l0.2,0.3l0.2,0.2l0.3,0.1l0.3,0l0.2-0.1l0.2-0.2l0.1-0.3h-0.3l-0.1,0.1l-0.1,0.1l-0.3,0.1l-0.2,0l-0.2-0.1l-0.1-0.2
	L788.2,69.4L788.2,69.4L788.2,69.4z M788.2,69.2l0-0.2l0.1-0.2l0.1-0.1l0.2,0l0.2,0l0.1,0.1l0.1,0.2l0,0.2H788.2L788.2,69.2z
	 M790.2,70.3h0.3v-1.1l0-0.3l0.1-0.2l0.2-0.1l0.2,0l0.2,0l0.1,0.1l0.1,0.1l0,0.2h0.3l0-0.3l-0.1-0.2l-0.2-0.1l-0.3,0l-0.2,0
	l-0.2,0.1l-0.1,0.1l-0.1,0.2v-0.3h-0.3V70.3L790.2,70.3z M792.5,69.4h1.3l0-0.1l-0.1-0.4l-0.2-0.3l-0.3-0.2l-0.3-0.1l-0.3,0.1
	l-0.3,0.2l-0.2,0.3l-0.1,0.4l0.1,0.4l0.2,0.3l0.2,0.2l0.3,0.1l0.3,0l0.2-0.1l0.2-0.2l0.1-0.3h-0.3l-0.1,0.1l-0.1,0.1l-0.3,0.1
	l-0.2,0l-0.2-0.1l-0.1-0.2L792.5,69.4L792.5,69.4L792.5,69.4z M792.5,69.2l0-0.2l0.1-0.2l0.1-0.1l0.2,0l0.2,0l0.1,0.1l0.1,0.2l0,0.2
	H792.5L792.5,69.2z"/>
<path d="M766.3,155.9h0.3v-1.1h0.3l0.3,0l0.2,0.1l0.1,0.1l0,0.2l0,0.3l0,0.2l0,0.1h0.4v-0.1l-0.1-0.1l0-0.2l0-0.4l-0.1-0.3l-0.1-0.1
	l-0.1-0.1l0.1-0.1l0.1-0.1l0.1-0.2l0-0.2l-0.1-0.3l-0.1-0.2l-0.2-0.1l-0.3,0h-0.8V155.9L766.3,155.9z M767.1,153.7l0.2,0l0.2,0.1
	l0.1,0.1l0,0.2l0,0.2l-0.1,0.1l-0.2,0.1l-0.2,0h-0.4v-0.8H767.1L767.1,153.7z M769.5,155.6V154h-0.8v0.3h0.5v1.3h-0.6v0.3h1.6v-0.3
	H769.5L769.5,155.6z M769.5,153.3h-0.3v0.4h0.3V153.3L769.5,153.3z M772.2,155.8V154h-0.3v0.3l-0.2-0.3l-0.2-0.1l-0.2,0l-0.3,0.1
	l-0.2,0.2l-0.2,0.3l-0.1,0.4l0.1,0.4l0.2,0.3l0.2,0.2l0.3,0.1l0.2,0l0.1-0.1l0.3-0.3v0.3l0,0.2l-0.1,0.2l-0.2,0.1l-0.2,0l-0.2,0
	l-0.1-0.1l-0.1-0.1l0-0.1h-0.3v0l0,0.2l0.1,0.2l0.2,0.1l0.3,0l0.4-0.1l0.2-0.2l0.1-0.3L772.2,155.8L772.2,155.8z M770.9,154.9l0-0.3
	l0.1-0.2l0.2-0.1l0.2-0.1l0.2,0.1l0.2,0.1l0.1,0.2l0,0.3l0,0.3l-0.1,0.2l-0.2,0.1l-0.2,0l-0.2,0l-0.2-0.1l-0.1-0.2L770.9,154.9
	L770.9,154.9z M772.9,155.9h0.3v-1.1l0-0.3l0.1-0.2l0.2-0.1l0.2,0l0.2,0l0.1,0.1l0.1,0.2l0,0.2v1.2h0.3v-1.3l0-0.3l-0.1-0.2
	l-0.2-0.2l-0.3-0.1l-0.2,0l-0.2,0.1l-0.1,0.1l-0.1,0.1v-0.9h-0.3V155.9L772.9,155.9z M775.5,154.3v1l0,0.3l0.1,0.2l0.2,0.1l0.3,0
	l0.4,0v-0.3l-0.3,0l-0.2,0l-0.1-0.1l-0.1-0.2l0-0.2v-0.9h0.7V154h-0.7v-0.6h-0.3v0.6H775v0.3H775.5L775.5,154.3z M779.4,155.9h0.3
	v-1.1h1.1v-0.3h-1.1v-0.7h1.3v-0.3h-1.6V155.9L779.4,155.9z M781.7,155.9h0.3v-1.1l0-0.3l0.1-0.2l0.2-0.1l0.2,0l0.2,0l0.1,0.1
	l0.1,0.1l0,0.2h0.3l0-0.3l-0.1-0.2l-0.2-0.1l-0.3,0l-0.2,0l-0.2,0.1l-0.1,0.1l-0.1,0.2V154h-0.3V155.9L781.7,155.9z M783.7,154.9
	l0.1,0.4l0.2,0.3l0.3,0.2l0.4,0.1l0.3-0.1l0.3-0.2l0.2-0.3l0.1-0.4l-0.1-0.4l-0.2-0.3l-0.3-0.2l-0.3-0.1l-0.4,0.1l-0.3,0.2l-0.2,0.3
	L783.7,154.9L783.7,154.9z M784,154.9l0-0.3l0.1-0.2l0.2-0.1l0.2-0.1l0.2,0.1l0.2,0.1l0.1,0.2l0,0.3l0,0.3l-0.1,0.2l-0.2,0.1l-0.2,0
	l-0.2,0l-0.2-0.1l-0.1-0.2L784,154.9L784,154.9z M785.9,155.9h0.3v-1.1l0-0.3l0.1-0.2l0.2-0.1l0.2,0l0.2,0l0.1,0.1l0.1,0.2l0,0.2
	v1.2h0.3v-1.3l0-0.3l-0.1-0.2l-0.2-0.2l-0.3-0.1l-0.2,0l-0.2,0.1l-0.1,0.1l-0.1,0.2V154h-0.3V155.9L785.9,155.9z M788.5,154.3v1
	l0,0.3l0.1,0.2l0.2,0.1l0.3,0l0.4,0v-0.3l-0.3,0l-0.2,0l-0.1-0.1l-0.1-0.2l0-0.2v-0.9h0.7V154h-0.7v-0.6h-0.3v0.6H788v0.3H788.5
	L788.5,154.3z M792.4,155.9h1.6v-0.3h-1.3v-2.2h-0.3V155.9L792.4,155.9z M794.5,154.9l0.1,0.4l0.2,0.3l0.3,0.2l0.4,0.1l0.3-0.1
	l0.3-0.2l0.2-0.3l0.1-0.4l-0.1-0.4l-0.2-0.3l-0.3-0.2l-0.3-0.1L795,154l-0.3,0.2l-0.2,0.3L794.5,154.9L794.5,154.9z M794.8,154.9
	l0-0.3l0.1-0.2l0.2-0.1l0.2-0.1l0.2,0.1l0.2,0.1l0.1,0.2l0,0.3l0,0.3l-0.1,0.2l-0.2,0.1l-0.2,0l-0.2,0l-0.2-0.1l-0.1-0.2
	L794.8,154.9L794.8,154.9z M797.2,155.9l0.3-1.6l0.3,1.6h0.3l0.5-1.9h-0.3l-0.3,1.6l-0.3-1.6h-0.3l-0.3,1.6l-0.3-1.6h-0.3l0.5,1.9
	H797.2L797.2,155.9z M799.2,155h1.3v-0.1l-0.1-0.4l-0.2-0.3L800,154l-0.3-0.1l-0.3,0.1l-0.3,0.2l-0.2,0.3l-0.1,0.4l0.1,0.4l0.2,0.3
	l0.3,0.2l0.3,0.1l0.3,0l0.2-0.1l0.2-0.2l0.1-0.3h-0.3l-0.1,0.1l-0.1,0.1l-0.3,0.1l-0.2,0l-0.1-0.1l-0.1-0.2L799.2,155L799.2,155
	L799.2,155z M799.2,154.8l0-0.2l0.1-0.2l0.1-0.1l0.2,0l0.2,0l0.2,0.1l0.1,0.2l0,0.2H799.2L799.2,154.8z M801.2,155.9h0.3v-1.1l0-0.3
	l0.1-0.2l0.1-0.1l0.2,0l0.2,0l0.1,0.1l0.1,0.1l0,0.2h0.3l0-0.3l-0.1-0.2l-0.2-0.1l-0.3,0l-0.2,0l-0.2,0.1l-0.1,0.1l-0.1,0.2V154
	h-0.3V155.9L801.2,155.9z M805.1,155.9h0.3l0.3-0.7h1l0.3,0.7h0.3l-0.9-2.5H806L805.1,155.9L805.1,155.9z M805.8,154.9l0.4-1.1
	l0.4,1.1H805.8L805.8,154.9z M807.9,155.1h0.9v-0.3h-0.9V155.1L807.9,155.1z M809.4,155.9h0.3l0.3-0.7h1l0.3,0.7h0.3l-0.9-2.5h-0.4
	L809.4,155.9L809.4,155.9z M810.1,154.9l0.4-1.1l0.4,1.1H810.1L810.1,154.9z M812.1,155.9h0.3v-1.1l0-0.3l0.1-0.2l0.2-0.1l0.2,0
	l0.2,0l0.1,0.1l0.1,0.1l0,0.2h0.3l0-0.3l-0.1-0.2l-0.2-0.1l-0.3,0l-0.2,0l-0.2,0.1l-0.1,0.1l-0.1,0.2V154h-0.3V155.9L812.1,155.9z
	 M814,155.9h0.3v-1.3l0-0.2l0-0.1l0.1-0.1l0.1,0l0.1,0l0.1,0.1l0,0.1l0,0.2v1.4h0.3v-1.3l0-0.2l0-0.1l0.1-0.1l0.1,0l0.1,0l0.1,0.1
	l0,0.3v1.4h0.3v-1.3l0-0.3l-0.1-0.2l-0.1-0.1l-0.2,0l-0.2,0.1l-0.2,0.2l-0.1-0.2l-0.2-0.1l-0.2,0.1l-0.1,0.2V154H814V155.9
	L814,155.9z"/>
<path d="M783.7,160.2h1.6v-0.3h-1.3v-0.8h1.1v-0.3h-1.1V158h1.2v-0.3h-1.6V160.2L783.7,160.2z M785.6,160.8v0.3h2.2v-0.3H785.6
	L785.6,160.8z M787.7,160.2h0.3l0.3-0.7h1l0.3,0.7h0.3l-0.9-2.5h-0.4L787.7,160.2L787.7,160.2z M788.4,159.2l0.4-1.1l0.4,1.1H788.4
	L788.4,159.2z M790.8,160.2h0.3l0.7-1.9h-0.3l-0.5,1.6l-0.6-1.6h-0.3L790.8,160.2L790.8,160.2z M793.6,160L793.6,160l0,0.1l0.1,0.1
	l0.2,0.1l0.2,0V160l-0.1,0l-0.1,0l0-0.1v-1l0-0.3l-0.1-0.2l-0.2-0.1l-0.3,0l-0.3,0l-0.2,0.1l-0.1,0.2l0,0.3v0h0.3l0-0.2l0.1-0.1
	l0.1-0.1l0.2,0l0.2,0l0.1,0.1l0.1,0.1l0,0.1l0,0.2l-0.1,0.1l-0.1,0l-0.3,0l-0.3,0.1l-0.2,0.1l-0.1,0.2l0,0.3l0,0.2l0.1,0.2l0.2,0.1
	l0.2,0l0.3-0.1L793.6,160L793.6,160z M793.5,159.5l0,0.2l-0.1,0.1l-0.2,0.1l-0.2,0l-0.1,0l-0.1-0.1l-0.1-0.1l0-0.1l0-0.1l0.1-0.1
	l0.2-0.1l0.3,0l0.3-0.1V159.5L793.5,159.5z M794.6,160.2h0.3v-1.1l0-0.3l0.1-0.2l0.2-0.1l0.2,0l0.2,0l0.1,0.1l0.1,0.2l0,0.2v1.2h0.3
	v-1.3l0-0.3l-0.1-0.2l-0.2-0.2l-0.3-0.1l-0.2,0l-0.2,0.1l-0.1,0.1l-0.1,0.2v-0.3h-0.3V160.2L794.6,160.2z M797.2,158.6v1l0,0.3
	l0.1,0.2l0.2,0.1l0.4,0l0.4,0V160l-0.3,0l-0.3,0l-0.1-0.1l0-0.2l0-0.2v-0.9h0.7v-0.3h-0.7v-0.6h-0.3v0.6h-0.5v0.3H797.2L797.2,158.6
	z"/>
</svg>
