<?xml version="1.0" encoding="utf-8" ?><!DOCTYPE svg PUBLIC "-//W3C//DTD SVG 1.1//EN" "http://www.w3.org/Graphics/SVG/1.1/DTD/svg11.dtd" 
[ <!ATTLIST svg 
  xmlns:dsy CDATA #FIXED "http://www.3ds.com/print"  
    dsy:text-version CDATA #IMPLIED > 

  <!ATTLIST text 
  xmlns:dsy CDATA #FIXED "http://www.3ds.com/print" 
    dsy:text-version CDATA #IMPLIED > 
]><svg xmlns="http://www.w3.org/2000/svg" xmlns:dsy="http://www.3ds.com/print" dsy:text-version="18000" width="1189" height="841" viewBox="0 0 1189 841" version="1.1"><g stroke="rgb(0, 0, 0)" stroke-width="0.35" stroke-linecap="butt" stroke-linejoin="miter" fill="none"><path d="M 345.008 471.792 A 14 14 0 0 0 369.513 462.58"/><path d="M 370.495 138.617 L 369.513 462.58"/><path d="M 344.086 148.339 L 370.495 138.617"/><path d="M 342.359 143.646 L 344.086 148.339"/><path d="M 370.512 133.283 L 342.359 143.646"/><path d="M 370.822 31.0618 L 370.512 133.283"/><path d="M 370.822 31.0618 A 12 12 0 0 0 354.676 19.7642"/><path d="M 293.365 42.3346 L 354.676 19.7642"/><path d="M 300.274 61.1033 L 293.365 42.3346"/><path d="M 294.737 63.1415 L 300.274 61.1033"/><path d="M 287.828 44.3728 L 294.737 63.1415"/><path d="M 124.951 104.332 L 287.828 44.3728"/><path d="M 131.861 123.1 L 124.951 104.332"/><path d="M 126.324 125.139 L 131.861 123.1"/><path d="M 119.415 106.37 L 126.324 125.139"/><path d="M 119.415 106.37 L 63.1087 127.098"/><path d="M 63.1087 127.098 A 12 12 0 0 0 58.25 146.291"/><path d="M 345.008 471.792 L 58.25 146.291"/><circle cx="72.286" cy="136.507" r="3.20001"/><circle cx="353.816" cy="32.868" r="3.20001"/><circle cx="352.537" cy="454.622" r="3.20001"/><circle cx="301.391" cy="318.569" r="6"/><circle cx="269.72" cy="234.323" r="3.20001"/><path d="M 205.626 151.357 L 207.353 156.049"/><path d="M 205.626 151.357 L 224.394 144.448"/><path d="M 226.122 149.14 L 224.394 144.448"/><path d="M 226.122 149.14 L 207.353 156.049"/><path d="M 220.94 135.064 L 222.667 139.756"/><path d="M 203.898 146.665 L 222.667 139.756"/><path d="M 203.898 146.665 L 202.171 141.973"/><path d="M 220.94 135.064 L 202.171 141.973"/><path d="M 360.764 33.718 L 361.978 23.792"/><path d="M 361.978 23.792 L 362.971 23.9133"/><path d="M 362.971 23.9133 L 361.757 33.8394"/><path d="M 361.757 33.8394 L 360.764 33.718"/><path d="M 346.863 33.6758 L 345.869 33.7912"/><path d="M 345.869 33.7912 L 344.831 24.8513"/><path d="M 344.831 24.8513 L 345.824 24.736"/><path d="M 346.863 33.6758 L 345.824 24.736"/><path d="M 67.0776 142.579 L 67.7286 141.82"/><path d="M 59.4872 136.068 L 67.0776 142.579"/><path d="M 60.1383 135.309 L 59.4872 136.068"/><path d="M 67.7286 141.82 L 60.1383 135.309"/><path d="M 78.1313 132.655 L 73.1797 125.14"/><path d="M 74.0147 124.59 L 73.1797 125.14"/><path d="M 78.9663 132.105 L 74.0147 124.59"/><path d="M 78.1313 132.655 L 78.9663 132.105"/><path d="M 249.093 124.7 L 252.547 134.084"/><path d="M 243.163 137.539 A 5 5 0 1 0 252.547 134.084"/><path d="M 243.163 137.539 L 239.708 128.154"/><path d="M 249.093 124.7 A 5 5 0 1 0 239.708 128.154"/><path d="M 766.141 469.874 A 14 14 0 0 0 790.646 460.662"/><path d="M 791.628 136.698 L 790.646 460.662"/><path d="M 765.219 146.42 L 791.628 136.698"/><path d="M 763.491 141.728 L 765.219 146.42"/><path d="M 791.644 131.364 L 763.491 141.728"/><path d="M 791.955 29.1434 L 791.644 131.364"/><path d="M 791.954 29.1434 A 12 12 0 0 0 775.809 17.8459"/><path d="M 714.497 40.4163 L 775.809 17.8459"/><path d="M 721.407 59.1849 L 714.497 40.4163"/><path d="M 715.87 61.2231 L 721.407 59.1849"/><path d="M 708.961 42.4545 L 715.87 61.2231"/><path d="M 546.084 102.414 L 708.961 42.4545"/><path d="M 552.994 121.182 L 546.084 102.414"/><path d="M 547.457 123.22 L 552.994 121.182"/><path d="M 540.548 104.452 L 547.457 123.22"/><path d="M 540.548 104.452 L 484.242 125.179"/><path d="M 484.242 125.18 A 12 12 0 0 0 479.383 144.373"/><path d="M 766.141 469.874 L 479.383 144.373"/><circle cx="493.419" cy="134.588" r="3.20001"/><circle cx="774.949" cy="30.9498" r="3.20001"/><circle cx="773.67" cy="452.703" r="3.20001"/><circle cx="722.524" cy="316.651" r="6"/><circle cx="690.853" cy="232.405" r="3.20001"/><path d="M 626.759 149.439 L 628.486 154.131"/><path d="M 626.759 149.439 L 645.527 142.53"/><path d="M 647.255 147.222 L 645.527 142.53"/><path d="M 647.255 147.222 L 628.486 154.131"/><path d="M 642.073 133.145 L 643.8 137.838"/><path d="M 625.031 144.747 L 643.8 137.838"/><path d="M 625.031 144.747 L 623.304 140.055"/><path d="M 642.073 133.145 L 623.304 140.055"/><path d="M 623.706 112.201 A 1.5 1.5 0 1 0 620.891 113.237"/><path d="M 628.543 125.339 L 623.706 112.201"/><path d="M 625.727 126.375 A 1.5 1.5 0 1 0 628.543 125.339"/><path d="M 620.891 113.237 L 625.727 126.375"/><path d="M 781.877 31.945 L 783.299 22.0466"/><path d="M 783.299 22.0466 L 784.289 22.1887"/><path d="M 784.289 22.1887 L 782.867 32.0872"/><path d="M 782.867 32.0872 L 781.877 31.945"/><path d="M 767.023 32.0391 L 768.014 31.903"/><path d="M 765.798 23.1229 L 767.023 32.0391"/><path d="M 766.788 22.9868 L 765.798 23.1229"/><path d="M 768.014 31.903 L 766.788 22.9868"/><path d="M 488.862 139.901 L 488.211 140.66"/><path d="M 488.211 140.66 L 479.102 132.848"/><path d="M 479.102 132.848 L 479.753 132.089"/><path d="M 488.862 139.901 L 479.753 132.089"/><path d="M 499.264 130.736 L 494.863 124.056"/><path d="M 494.863 124.056 L 495.698 123.506"/><path d="M 495.698 123.506 L 500.099 130.186"/><path d="M 500.099 130.186 L 499.264 130.736"/><path d="M 853.743 77.3531 L 849.169 77.849"/><path d="M 853.743 77.3531 A 0.199951 0.199951 0 0 0 853.92 77.1328"/><path d="M 853.747 75.5421 L 853.92 77.1327"/><path d="M 853.747 75.5421 A 0.199951 0.199951 0 0 0 853.527 75.3648"/><path d="M 848.954 75.8607 L 853.527 75.3647"/><path d="M 849.169 77.8491 A 0.199951 0.199951 0 0 0 848.992 78.0694"/></g><g stroke="rgb(0, 0, 0)" stroke-width="0.13" stroke-linecap="butt" stroke-linejoin="miter" fill="none"><path d="M 848.992 78.0694 L 849.191 78.0479"/><path d="M 849.191 78.0479 L 849.169 77.849"/><path d="M 853.764 77.5519 L 849.191 78.0479"/><path d="M 853.764 77.5519 L 853.743 77.3531"/><path d="M 853.764 77.552 A 0.400024 0.400024 0 0 0 854.119 77.1111"/><path d="M 854.119 77.1111 L 853.92 77.1327"/><path d="M 853.946 75.5205 L 854.119 77.1111"/><path d="M 853.946 75.5205 L 853.747 75.5421"/><path d="M 853.946 75.5204 A 0.400024 0.400024 0 0 0 853.505 75.1659"/><path d="M 853.505 75.166 L 853.527 75.3647"/><path d="M 848.932 75.6618 L 853.505 75.166"/><path d="M 848.932 75.6618 L 848.954 75.8607"/><path d="M 848.733 75.6833 L 848.932 75.6618"/></g><g stroke="rgb(0, 0, 0)" stroke-width="0.35" stroke-linecap="butt" stroke-linejoin="miter" fill="none"><path d="M 848.733 75.6833 A 0.199951 0.199951 0 0 0 848.954 75.8606"/><path d="M 848.733 75.6833 L 844.68 38.3025"/></g><g stroke="rgb(0, 0, 0)" stroke-width="0.13" stroke-linecap="butt" stroke-linejoin="miter" fill="none"><path d="M 844.68 38.3025 L 844.879 38.2809"/><path d="M 848.932 75.6618 L 844.879 38.2809"/></g><g stroke="rgb(0, 0, 0)" stroke-width="0.35" stroke-linecap="butt" stroke-linejoin="miter" fill="none"><path d="M 844.857 38.0821 A 0.199951 0.199951 0 0 0 844.68 38.3024"/></g><g stroke="rgb(0, 0, 0)" stroke-width="0.13" stroke-linecap="butt" stroke-linejoin="miter" fill="none"><path d="M 844.879 38.2809 L 844.857 38.0821"/></g><g stroke="rgb(0, 0, 0)" stroke-width="0.35" stroke-linecap="butt" stroke-linejoin="miter" fill="none"><path d="M 863.966 36.0101 L 844.857 38.0821"/><path d="M 864.187 36.186 A 0.199951 0.199951 0 0 0 863.966 36.0101"/></g><g stroke="rgb(0, 0, 0)" stroke-width="0.13" stroke-linecap="butt" stroke-linejoin="miter" fill="none"><path d="M 864.187 36.1874 L 844.879 38.2809"/></g><g stroke="rgb(0, 0, 0)" stroke-width="0.35" stroke-linecap="butt" stroke-linejoin="miter" fill="none"><path d="M 864.187 36.1874 L 864.187 36.186"/><path d="M 864.187 36.1874 A 12.5 12.5 0 0 0 889.04 33.4924"/><path d="M 889.218 33.2721 A 0.199951 0.199951 0 0 0 889.04 33.4924"/></g><g stroke="rgb(0, 0, 0)" stroke-width="0.13" stroke-linecap="butt" stroke-linejoin="miter" fill="none"><path d="M 851.105 97.5552 L 851.304 97.5336"/><path d="M 851.304 97.5336 L 849.191 78.0479"/></g><g stroke="rgb(0, 0, 0)" stroke-width="0.35" stroke-linecap="butt" stroke-linejoin="miter" fill="none"><path d="M 851.105 97.5552 L 848.992 78.0694"/><path d="M 865.84 96.1586 L 851.325 97.7324"/><path d="M 865.84 96.1585 A 0.199951 0.199951 0 0 0 866.018 95.9382"/><path d="M 889.218 33.2721 L 903.732 31.6982"/></g><g stroke="rgb(0, 0, 0)" stroke-width="0.13" stroke-linecap="butt" stroke-linejoin="miter" fill="none"><path d="M 903.732 31.6982 L 903.754 31.8971"/><path d="M 889.04 33.4925 L 903.754 31.8971"/></g><g stroke="rgb(0, 0, 0)" stroke-width="0.35" stroke-linecap="butt" stroke-linejoin="miter" fill="none"><path d="M 903.953 31.8755 L 910.378 91.1282"/><path d="M 910.2 91.3486 A 0.199951 0.199951 0 0 0 910.378 91.1282"/><path d="M 910.2 91.3486 L 886.121 93.9595"/><path d="M 885.901 93.7822 A 0.199951 0.199951 0 0 0 886.121 93.9594"/><path d="M 885.901 93.7822 L 883.788 74.2964"/><path d="M 883.788 74.2964 A 0.199951 0.199951 0 0 0 883.568 74.1192"/><path d="M 878 74.7228 L 883.568 74.1191"/><path d="M 878 74.7228 A 0.199951 0.199951 0 0 0 877.823 74.9432"/><path d="M 877.823 74.9432 L 879.936 94.429"/><path d="M 879.759 94.6494 A 0.199951 0.199951 0 0 0 879.936 94.429"/><path d="M 879.759 94.6494 L 872.203 95.4687"/><path d="M 871.983 95.2914 A 0.199951 0.199951 0 0 0 872.203 95.4686"/><path d="M 871.983 95.2914 L 869.87 75.8056"/><path d="M 869.87 75.8056 A 0.199951 0.199951 0 0 0 869.649 75.6284"/></g><g stroke="rgb(0, 0, 0)" stroke-width="0.13" stroke-linecap="butt" stroke-linejoin="miter" fill="none"><path d="M 865.819 95.9597 L 851.304 97.5336"/><path d="M 863.706 76.4739 L 865.819 95.9597"/><path d="M 864.06 76.0331 A 0.400024 0.400024 0 0 0 863.706 76.474"/><path d="M 864.06 76.0332 L 869.628 75.4295"/><path d="M 870.069 75.784 A 0.400024 0.400024 0 0 0 869.628 75.4294"/><path d="M 872.181 95.2698 L 870.069 75.7841"/><path d="M 879.737 94.4506 L 872.181 95.2698"/><path d="M 877.624 74.9648 L 879.737 94.4506"/><path d="M 877.979 74.5239 A 0.400024 0.400024 0 0 0 877.624 74.9648"/><path d="M 877.979 74.524 L 883.546 73.9203"/><path d="M 883.987 74.2748 A 0.400024 0.400024 0 0 0 883.546 73.9203"/><path d="M 886.1 93.7606 L 883.987 74.2748"/><path d="M 910.179 91.1498 L 886.1 93.7606"/><path d="M 903.754 31.8971 L 910.179 91.1498"/></g><g stroke="rgb(0, 0, 0)" stroke-width="0.35" stroke-linecap="butt" stroke-linejoin="miter" fill="none"><path d="M 863.905 76.4524 L 866.018 95.9382"/><path d="M 864.082 76.232 L 869.649 75.6284"/><path d="M 864.082 76.2321 A 0.199951 0.199951 0 0 0 863.905 76.4524"/><path d="M 851.105 97.5552 A 0.199951 0.199951 0 0 0 851.325 97.7324"/></g><g stroke="rgb(0, 0, 0)" stroke-width="0.13" stroke-linecap="butt" stroke-linejoin="miter" fill="none"><path d="M 851.325 97.7324 L 851.304 97.5336"/><path d="M 865.84 96.1586 L 865.819 95.9597"/><path d="M 866.018 95.9382 L 865.819 95.9597"/><path d="M 863.905 76.4524 L 863.706 76.4739"/><path d="M 864.082 76.232 L 864.06 76.0332"/><path d="M 869.649 75.6284 L 869.628 75.4295"/><path d="M 869.87 75.8056 L 870.069 75.7841"/><path d="M 871.983 95.2914 L 872.181 95.2698"/><path d="M 872.203 95.4687 L 872.181 95.2698"/><path d="M 879.759 94.6494 L 879.737 94.4506"/><path d="M 879.936 94.429 L 879.737 94.4506"/><path d="M 877.823 74.9432 L 877.624 74.9648"/><path d="M 878 74.7228 L 877.979 74.524"/><path d="M 883.568 74.1191 L 883.546 73.9203"/><path d="M 883.788 74.2964 L 883.987 74.2748"/><path d="M 885.901 93.7822 L 886.1 93.7606"/><path d="M 886.121 93.9595 L 886.1 93.7606"/><path d="M 910.2 91.3486 L 910.179 91.1498"/><path d="M 910.378 91.1282 L 910.179 91.1498"/><path d="M 903.953 31.8755 L 903.754 31.8971"/></g><g stroke="rgb(0, 0, 0)" stroke-width="0.35" stroke-linecap="butt" stroke-linejoin="miter" fill="none"><path d="M 903.953 31.8755 A 0.199951 0.199951 0 0 0 903.732 31.6983"/><path d="M 960.97 38.0773 A 0.199951 0.199951 0 0 0 960.793 38.2977"/></g><g stroke="rgb(0, 0, 0)" stroke-width="0.13" stroke-linecap="butt" stroke-linejoin="miter" fill="none"><path d="M 960.792 38.2977 L 960.991 38.2761"/><path d="M 960.991 38.2761 L 960.97 38.0773"/></g><g stroke="rgb(0, 0, 0)" stroke-width="0.35" stroke-linecap="butt" stroke-linejoin="miter" fill="none"><path d="M 980.135 35.9991 L 960.97 38.0773"/><path d="M 980.355 36.1682 A 0.199951 0.199951 0 0 0 980.135 35.9992"/></g><g stroke="rgb(0, 0, 0)" stroke-width="0.13" stroke-linecap="butt" stroke-linejoin="miter" fill="none"><path d="M 980.356 36.1765 L 960.991 38.2761"/></g><g stroke="rgb(0, 0, 0)" stroke-width="0.35" stroke-linecap="butt" stroke-linejoin="miter" fill="none"><path d="M 980.355 36.1682 L 980.356 36.1765"/><path d="M 980.356 36.1765 A 12.5 12.5 0 0 0 1005.19 33.4839"/><path d="M 1005.37 33.2635 A 0.199951 0.199951 0 0 0 1005.19 33.4838"/></g><g stroke="rgb(0, 0, 0)" stroke-width="0.13" stroke-linecap="butt" stroke-linejoin="miter" fill="none"><path d="M 964.846 75.6786 L 965.045 75.657"/><path d="M 965.045 75.657 L 960.991 38.2761"/></g><g stroke="rgb(0, 0, 0)" stroke-width="0.35" stroke-linecap="butt" stroke-linejoin="miter" fill="none"><path d="M 964.846 75.6786 L 960.792 38.2977"/><path d="M 969.639 75.36 L 965.066 75.8559"/><path d="M 969.86 75.5373 A 0.199951 0.199951 0 0 0 969.639 75.36"/><path d="M 965.282 77.8442 L 969.855 77.3483"/><path d="M 970.032 77.1279 L 969.86 75.5373"/><path d="M 969.855 77.3483 A 0.199951 0.199951 0 0 0 970.032 77.128"/><path d="M 964.846 75.6786 A 0.199951 0.199951 0 0 0 965.066 75.8558"/></g><g stroke="rgb(0, 0, 0)" stroke-width="0.13" stroke-linecap="butt" stroke-linejoin="miter" fill="none"><path d="M 965.066 75.8559 L 965.045 75.657"/><path d="M 969.639 75.36 L 969.618 75.1612"/><path d="M 969.618 75.1612 L 965.045 75.657"/><path d="M 969.86 75.5373 L 970.058 75.5157"/><path d="M 970.059 75.5157 A 0.400024 0.400024 0 0 0 969.618 75.1611"/><path d="M 970.032 77.1279 L 970.231 77.1064"/><path d="M 970.231 77.1064 L 970.058 75.5157"/><path d="M 969.855 77.3483 L 969.876 77.5472"/><path d="M 969.876 77.5472 A 0.400024 0.400024 0 0 0 970.231 77.1064"/><path d="M 965.282 77.8442 L 965.303 78.0431"/><path d="M 965.303 78.0431 L 969.876 77.5472"/></g><g stroke="rgb(0, 0, 0)" stroke-width="0.35" stroke-linecap="butt" stroke-linejoin="miter" fill="none"><path d="M 965.282 77.8443 A 0.199951 0.199951 0 0 0 965.105 78.0646"/></g><g stroke="rgb(0, 0, 0)" stroke-width="0.13" stroke-linecap="butt" stroke-linejoin="miter" fill="none"><path d="M 965.104 78.0646 L 965.303 78.0431"/></g><g stroke="rgb(0, 0, 0)" stroke-width="0.35" stroke-linecap="butt" stroke-linejoin="miter" fill="none"><path d="M 1005.37 33.2634 L 1019.89 31.6888"/></g><g stroke="rgb(0, 0, 0)" stroke-width="0.13" stroke-linecap="butt" stroke-linejoin="miter" fill="none"><path d="M 1019.89 31.6888 L 1019.91 31.8877"/><path d="M 1005.19 33.4838 L 1019.91 31.8877"/></g><g stroke="rgb(0, 0, 0)" stroke-width="0.35" stroke-linecap="butt" stroke-linejoin="miter" fill="none"><path d="M 994.113 74.7181 A 0.199951 0.199951 0 0 0 993.935 74.9384"/><path d="M 999.68 74.1144 L 994.113 74.7181"/><path d="M 999.9 74.2917 A 0.199951 0.199951 0 0 0 999.68 74.1144"/><path d="M 999.901 74.2917 L 1002.01 93.7775"/><path d="M 1002.01 93.7774 A 0.199951 0.199951 0 0 0 1002.23 93.9547"/><path d="M 1026.53 91.1188 L 1020.11 31.8661"/><path d="M 1002.23 93.9547 L 1026.36 91.3392"/><path d="M 1026.36 91.3392 A 0.199951 0.199951 0 0 0 1026.53 91.1188"/><path d="M 1020.11 31.8661 A 0.199951 0.199951 0 0 0 1019.89 31.6889"/></g><g stroke="rgb(0, 0, 0)" stroke-width="0.13" stroke-linecap="butt" stroke-linejoin="miter" fill="none"><path d="M 1019.91 31.8877 L 1020.11 31.8661"/><path d="M 1026.33 91.1404 L 1019.91 31.8877"/><path d="M 1026.33 91.1404 L 1026.53 91.1188"/><path d="M 1026.33 91.1404 L 1026.36 91.3392"/><path d="M 1002.21 93.7559 L 1026.33 91.1404"/><path d="M 1002.21 93.7559 L 1002.23 93.9547"/><path d="M 1002.21 93.7559 L 1002.01 93.7775"/><path d="M 1000.1 74.2701 L 1002.21 93.7559"/><path d="M 1000.1 74.2701 L 999.901 74.2917"/><path d="M 1000.1 74.2701 A 0.400024 0.400024 0 0 0 999.659 73.9155"/><path d="M 999.659 73.9155 L 999.68 74.1144"/><path d="M 999.659 73.9155 L 994.091 74.5192"/><path d="M 994.091 74.5192 L 994.113 74.7181"/><path d="M 994.091 74.5192 A 0.400024 0.400024 0 0 0 993.737 74.96"/><path d="M 993.737 74.96 L 993.935 74.9385"/></g><g stroke="rgb(0, 0, 0)" stroke-width="0.35" stroke-linecap="butt" stroke-linejoin="miter" fill="none"><path d="M 985.982 75.8008 A 0.199951 0.199951 0 0 0 985.762 75.6236"/><path d="M 988.095 95.2866 L 985.982 75.8008"/><path d="M 988.095 95.2866 A 0.199951 0.199951 0 0 0 988.315 95.4639"/></g><g stroke="rgb(0, 0, 0)" stroke-width="0.13" stroke-linecap="butt" stroke-linejoin="miter" fill="none"><path d="M 967.217 97.5504 L 967.416 97.5289"/><path d="M 967.416 97.5289 L 965.303 78.0431"/></g><g stroke="rgb(0, 0, 0)" stroke-width="0.35" stroke-linecap="butt" stroke-linejoin="miter" fill="none"><path d="M 967.217 97.5504 L 965.104 78.0646"/><path d="M 967.438 97.7277 L 981.953 96.1538"/><path d="M 981.953 96.1537 A 0.199951 0.199951 0 0 0 982.13 95.9334"/><path d="M 985.762 75.6236 L 980.194 76.2272"/><path d="M 982.13 95.9334 L 980.017 76.4476"/><path d="M 980.194 76.2273 A 0.199951 0.199951 0 0 0 980.017 76.4476"/><path d="M 988.315 95.4639 L 995.871 94.6447"/><path d="M 996.048 94.4243 L 993.935 74.9385"/></g><g stroke="rgb(0, 0, 0)" stroke-width="0.13" stroke-linecap="butt" stroke-linejoin="miter" fill="none"><path d="M 967.416 97.5289 L 981.931 95.955"/><path d="M 981.931 95.955 L 979.818 76.4692"/><path d="M 980.173 76.0284 A 0.400024 0.400024 0 0 0 979.818 76.4692"/><path d="M 985.74 75.4247 L 980.173 76.0284"/><path d="M 986.181 75.7792 A 0.400024 0.400024 0 0 0 985.74 75.4247"/><path d="M 988.294 95.2651 L 986.181 75.7793"/><path d="M 988.294 95.2651 L 995.849 94.4458"/><path d="M 995.849 94.4458 L 993.737 74.96"/><path d="M 995.849 94.4458 L 996.048 94.4243"/><path d="M 986.181 75.7793 L 985.982 75.8008"/><path d="M 988.294 95.2651 L 988.095 95.2866"/><path d="M 985.74 75.4247 L 985.762 75.6236"/><path d="M 980.173 76.0284 L 980.194 76.2272"/><path d="M 979.818 76.4692 L 980.017 76.4476"/><path d="M 981.931 95.955 L 982.13 95.9334"/><path d="M 981.931 95.955 L 981.953 96.1538"/><path d="M 967.416 97.5289 L 967.438 97.7277"/></g><g stroke="rgb(0, 0, 0)" stroke-width="0.35" stroke-linecap="butt" stroke-linejoin="miter" fill="none"><path d="M 967.217 97.5504 A 0.199951 0.199951 0 0 0 967.438 97.7277"/><path d="M 995.871 94.6446 A 0.199951 0.199951 0 0 0 996.048 94.4243"/></g><g stroke="rgb(0, 0, 0)" stroke-width="0.13" stroke-linecap="butt" stroke-linejoin="miter" fill="none"><path d="M 995.849 94.4458 L 995.871 94.6447"/><path d="M 988.294 95.2651 L 988.315 95.4639"/></g><g stroke="rgb(0, 0, 0)" stroke-width="0.13" stroke-linecap="butt" stroke-linejoin="miter" fill="none"><path d="M 203.021 209.478 L 203.49 209.478 L 203.49 207.869 L 204.963 207.869 L 204.963 207.451 L 203.49 207.451 L 203.49 206.402 L 205.301 206.402 L 205.301 205.978 L 203.021 205.978 L 203.021 209.478 L 203.021 209.478 z M 206.213 209.478 L 206.657 209.478 L 206.657 207.93 L 206.703 207.557 L 206.839 207.289 L 207.061 207.128 L 207.358 207.073 L 207.58 207.108 L 207.746 207.209 L 207.847 207.38 L 207.883 207.612 L 208.331 207.612 L 208.271 207.204 L 208.105 206.911 L 207.827 206.735 L 207.449 206.674 L 207.192 206.714 L 206.97 206.815 L 206.773 206.987 L 206.617 207.219 L 206.617 206.77 L 206.213 206.77 L 206.213 209.478 L 206.213 209.478 z M 208.952 208.127 L 209.033 208.742 L 209.264 209.196 L 209.633 209.478 L 210.127 209.574 L 210.616 209.478 L 210.984 209.201 L 211.216 208.747 L 211.302 208.127 L 211.216 207.511 L 210.984 207.052 L 210.616 206.775 L 210.127 206.674 L 209.633 206.775 L 209.264 207.057 L 209.033 207.511 L 208.952 208.127 L 208.952 208.127 z M 209.406 208.122 L 209.451 207.668 L 209.592 207.34 L 209.819 207.138 L 210.127 207.068 L 210.429 207.138 L 210.656 207.335 L 210.798 207.668 L 210.848 208.122 L 210.798 208.58 L 210.656 208.913 L 210.429 209.115 L 210.127 209.181 L 209.819 209.115 L 209.592 208.913 L 209.451 208.58 L 209.406 208.122 L 209.406 208.122 z M 212.119 209.478 L 212.563 209.478 L 212.563 207.915 L 212.608 207.557 L 212.754 207.294 L 212.981 207.133 L 213.284 207.073 L 213.526 207.123 L 213.677 207.259 L 213.753 207.486 L 213.778 207.789 L 213.778 209.478 L 214.222 209.478 L 214.222 207.698 L 214.202 207.34 L 214.111 207.042 L 213.813 206.77 L 213.35 206.674 L 213.092 206.709 L 212.875 206.805 L 212.689 206.967 L 212.543 207.183 L 212.543 206.77 L 212.119 206.77 L 212.119 209.478 L 212.119 209.478 z M 215.75 207.239 L 215.75 208.596 L 215.78 209.034 L 215.922 209.337 L 216.204 209.513 L 216.683 209.574 L 217.208 209.549 L 217.208 209.165 L 216.824 209.196 L 216.476 209.155 L 216.29 209.029 L 216.209 208.818 L 216.194 208.52 L 216.194 207.239 L 217.208 207.239 L 217.208 206.861 L 216.194 206.861 L 216.194 206.069 L 215.75 206.069 L 215.75 206.861 L 214.984 206.861 L 214.984 207.239 L 215.75 207.239 L 215.75 207.239 z M 221.146 209.478 L 221.615 209.478 L 221.615 208 L 222.094 208 L 222.447 208.016 L 222.669 208.086 L 222.79 208.253 L 222.841 208.55 L 222.866 209.004 L 222.896 209.302 L 222.957 209.478 L 223.486 209.478 L 223.486 209.382 L 223.37 209.241 L 223.33 208.979 L 223.295 208.414 L 223.209 207.995 L 223.093 207.864 L 222.911 207.768 L 223.113 207.642 L 223.254 207.466 L 223.345 207.244 L 223.375 206.977 L 223.305 206.553 L 223.103 206.235 L 222.77 206.044 L 222.316 205.978 L 221.146 205.978 L 221.146 209.478 L 221.146 209.478 z M 222.185 206.407 L 222.493 206.437 L 222.71 206.533 L 222.846 206.709 L 222.891 206.987 L 222.841 207.279 L 222.705 207.456 L 222.473 207.547 L 222.155 207.572 L 221.615 207.572 L 221.615 206.407 L 222.185 206.407 L 222.185 206.407 z M 225.62 209.105 L 225.62 206.861 L 224.48 206.861 L 224.48 207.239 L 225.176 207.239 L 225.176 209.105 L 224.268 209.105 L 224.268 209.478 L 226.538 209.478 L 226.538 209.105 L 225.62 209.105 L 225.62 209.105 z M 225.635 205.857 L 225.166 205.857 L 225.166 206.361 L 225.635 206.361 L 225.635 205.857 L 225.635 205.857 z M 229.407 209.357 L 229.407 206.77 L 228.984 206.77 L 228.984 207.209 L 228.636 206.81 L 228.424 206.709 L 228.187 206.674 L 227.758 206.775 L 227.425 207.057 L 227.208 207.511 L 227.133 208.122 L 227.208 208.737 L 227.425 209.191 L 227.758 209.478 L 228.187 209.574 L 228.429 209.539 L 228.631 209.448 L 228.984 209.065 L 228.984 209.448 L 228.943 209.75 L 228.832 209.967 L 228.62 210.093 L 228.303 210.139 L 228.025 210.109 L 227.829 210.033 L 227.713 209.902 L 227.677 209.725 L 227.249 209.725 L 227.249 209.745 L 227.314 210.068 L 227.516 210.31 L 227.839 210.467 L 228.277 210.522 L 228.802 210.446 L 229.15 210.235 L 229.347 209.866 L 229.407 209.357 L 229.407 209.357 z M 227.592 208.122 L 227.637 207.673 L 227.773 207.34 L 227.985 207.143 L 228.267 207.073 L 228.565 207.143 L 228.787 207.34 L 228.923 207.673 L 228.973 208.122 L 228.923 208.58 L 228.787 208.908 L 228.565 209.11 L 228.267 209.176 L 227.985 209.11 L 227.773 208.908 L 227.637 208.575 L 227.592 208.122 L 227.592 208.122 z M 230.335 209.478 L 230.779 209.478 L 230.779 207.915 L 230.824 207.557 L 230.971 207.294 L 231.198 207.133 L 231.5 207.073 L 231.742 207.123 L 231.893 207.259 L 231.969 207.486 L 231.994 207.789 L 231.994 209.478 L 232.438 209.478 L 232.438 207.698 L 232.418 207.34 L 232.327 207.042 L 232.03 206.77 L 231.566 206.674 L 231.314 206.709 L 231.097 206.805 L 230.915 206.957 L 230.779 207.163 L 230.779 205.857 L 230.335 205.857 L 230.335 209.478 L 230.335 209.478 z M 233.966 207.239 L 233.966 208.596 L 233.997 209.034 L 234.138 209.337 L 234.42 209.513 L 234.899 209.574 L 235.424 209.549 L 235.424 209.165 L 235.04 209.196 L 234.692 209.155 L 234.506 209.029 L 234.425 208.818 L 234.41 208.52 L 234.41 207.239 L 235.424 207.239 L 235.424 206.861 L 234.41 206.861 L 234.41 206.069 L 233.966 206.069 L 233.966 206.861 L 233.2 206.861 L 233.2 207.239 L 233.966 207.239 L 233.966 207.239 z M 239.463 209.478 L 241.713 209.478 L 241.713 209.055 L 239.927 209.055 L 239.927 205.978 L 239.463 205.978 L 239.463 209.478 L 239.463 209.478 z M 242.348 208.127 L 242.429 208.742 L 242.661 209.196 L 243.029 209.478 L 243.523 209.574 L 244.012 209.478 L 244.381 209.201 L 244.613 208.747 L 244.698 208.127 L 244.613 207.511 L 244.381 207.052 L 244.012 206.775 L 243.523 206.674 L 243.029 206.775 L 242.661 207.057 L 242.429 207.511 L 242.348 208.127 L 242.348 208.127 z M 242.802 208.122 L 242.847 207.668 L 242.989 207.34 L 243.216 207.138 L 243.523 207.068 L 243.826 207.138 L 244.053 207.335 L 244.194 207.668 L 244.244 208.122 L 244.194 208.58 L 244.053 208.913 L 243.826 209.115 L 243.523 209.181 L 243.216 209.115 L 242.989 208.913 L 242.847 208.58 L 242.802 208.122 L 242.802 208.122 z M 246.156 209.478 L 246.559 207.178 L 246.963 209.478 L 247.386 209.478 L 248.052 206.77 L 247.623 206.77 L 247.174 209.07 L 246.776 206.77 L 246.337 206.77 L 245.939 209.07 L 245.49 206.77 L 245.066 206.77 L 245.732 209.478 L 246.156 209.478 L 246.156 209.478 z M 248.94 208.253 L 250.715 208.253 L 250.72 208.046 L 250.639 207.466 L 250.417 207.032 L 250.064 206.77 L 249.595 206.674 L 249.136 206.775 L 248.783 207.057 L 248.556 207.516 L 248.476 208.122 L 248.551 208.742 L 248.778 209.196 L 249.126 209.478 L 249.58 209.574 L 249.973 209.508 L 250.296 209.337 L 250.533 209.065 L 250.669 208.701 L 250.231 208.701 L 250.14 208.903 L 250.009 209.055 L 249.636 209.176 L 249.348 209.12 L 249.131 208.944 L 248.99 208.656 L 248.94 208.268 L 248.94 208.253 L 248.94 208.253 z M 248.94 207.879 L 248.995 207.531 L 249.131 207.274 L 249.338 207.118 L 249.61 207.062 L 249.878 207.118 L 250.084 207.274 L 250.21 207.531 L 250.256 207.879 L 248.94 207.879 L 248.94 207.879 z M 251.754 209.478 L 252.198 209.478 L 252.198 207.93 L 252.243 207.557 L 252.379 207.289 L 252.601 207.128 L 252.899 207.073 L 253.12 207.108 L 253.287 207.209 L 253.388 207.38 L 253.423 207.612 L 253.872 207.612 L 253.811 207.204 L 253.645 206.911 L 253.368 206.735 L 252.989 206.674 L 252.732 206.714 L 252.51 206.815 L 252.314 206.987 L 252.157 207.219 L 252.157 206.77 L 251.754 206.77 L 251.754 209.478 L 251.754 209.478 z M 257.17 209.478 L 257.634 209.478 L 258.002 208.449 L 259.399 208.449 L 259.767 209.478 L 260.241 209.478 L 258.96 205.973 L 258.446 205.973 L 257.17 209.478 L 257.17 209.478 z M 258.164 208.021 L 258.703 206.477 L 259.243 208.021 L 258.164 208.021 L 258.164 208.021 z M 261.129 208.323 L 262.35 208.323 L 262.35 207.925 L 261.129 207.925 L 261.129 208.323 L 261.129 208.323 z M 263.242 209.478 L 263.706 209.478 L 264.074 208.449 L 265.471 208.449 L 265.839 209.478 L 266.313 209.478 L 265.033 205.973 L 264.518 205.973 L 263.242 209.478 L 263.242 209.478 z M 264.236 208.021 L 264.775 206.477 L 265.315 208.021 L 264.236 208.021 L 264.236 208.021 z M 266.934 209.478 L 267.378 209.478 L 267.378 207.93 L 267.423 207.557 L 267.559 207.289 L 267.781 207.128 L 268.079 207.073 L 268.301 207.108 L 268.467 207.209 L 268.568 207.38 L 268.603 207.612 L 269.052 207.612 L 268.991 207.204 L 268.825 206.911 L 268.548 206.735 L 268.169 206.674 L 267.912 206.714 L 267.69 206.815 L 267.494 206.987 L 267.337 207.219 L 267.337 206.77 L 266.934 206.77 L 266.934 209.478 L 266.934 209.478 z M 269.627 209.478 L 270.035 209.478 L 270.035 207.668 L 270.061 207.395 L 270.136 207.199 L 270.252 207.083 L 270.404 207.037 L 270.525 207.078 L 270.605 207.178 L 270.646 207.35 L 270.661 207.577 L 270.661 209.478 L 271.044 209.478 L 271.044 207.668 L 271.069 207.4 L 271.145 207.204 L 271.266 207.083 L 271.417 207.037 L 271.538 207.078 L 271.619 207.178 L 271.669 207.577 L 271.669 209.478 L 272.078 209.478 L 272.078 207.607 L 272.053 207.219 L 271.972 206.921 L 271.811 206.74 L 271.548 206.674 L 271.241 206.775 L 271.004 207.068 L 270.817 206.78 L 270.504 206.674 L 270.217 206.775 L 270.02 207.057 L 270.02 206.77 L 269.627 206.77 L 269.627 209.478 L 269.627 209.478 z M 276.309 208.323 L 277.53 208.323 L 277.53 207.925 L 276.309 207.925 L 276.309 208.323 L 276.309 208.323 z M 281.927 209.478 L 282.391 209.478 L 282.391 208 L 282.906 208 L 283.425 207.975 L 283.839 207.799 L 284.106 207.456 L 284.197 206.987 L 284.126 206.553 L 283.924 206.235 L 283.592 206.044 L 283.138 205.978 L 281.927 205.978 L 281.927 209.478 L 281.927 209.478 z M 283.012 206.407 L 283.314 206.437 L 283.536 206.533 L 283.667 206.709 L 283.713 206.987 L 283.662 207.279 L 283.526 207.456 L 283.294 207.547 L 282.976 207.572 L 282.391 207.572 L 282.391 206.407 L 283.012 206.407 L 283.012 206.407 z M 285.866 206.23 L 285.866 209.105 L 284.953 209.105 L 284.953 209.478 L 287.218 209.478 L 287.218 209.105 L 286.31 209.105 L 286.31 205.857 L 285.17 205.857 L 285.17 206.23 L 285.866 206.23 L 285.866 206.23 z M 289.628 209.125 L 289.628 209.14 L 289.653 209.312 L 289.729 209.433 L 290.047 209.529 L 290.294 209.488 L 290.294 209.145 L 290.188 209.16 L 290.047 209.095 L 290.022 208.893 L 290.022 207.491 L 289.961 207.133 L 289.785 206.881 L 289.477 206.73 L 289.043 206.674 L 288.62 206.735 L 288.307 206.906 L 288.11 207.173 L 288.045 207.526 L 288.045 207.557 L 288.443 207.557 L 288.478 207.345 L 288.589 207.194 L 288.771 207.103 L 289.028 207.068 L 289.275 207.093 L 289.452 207.168 L 289.558 207.299 L 289.593 207.481 L 289.573 207.693 L 289.492 207.799 L 289.29 207.849 L 288.912 207.89 L 288.478 207.98 L 288.171 208.142 L 287.989 208.394 L 287.934 208.767 L 287.984 209.1 L 288.14 209.347 L 288.393 209.503 L 288.741 209.559 L 289.21 209.453 L 289.628 209.125 L 289.628 209.125 z M 289.578 208.53 L 289.517 208.792 L 289.356 208.994 L 289.114 209.125 L 288.816 209.171 L 288.625 209.145 L 288.488 209.065 L 288.403 208.923 L 288.378 208.727 L 288.398 208.55 L 288.478 208.424 L 288.801 208.283 L 289.21 208.222 L 289.578 208.101 L 289.578 208.53 L 289.578 208.53 z M 292.72 207.189 L 292.563 206.962 L 292.387 206.8 L 292.18 206.709 L 291.943 206.674 L 291.514 206.775 L 291.182 207.057 L 290.965 207.511 L 290.889 208.122 L 290.965 208.737 L 291.182 209.191 L 291.514 209.478 L 291.943 209.574 L 292.18 209.544 L 292.382 209.458 L 292.558 209.302 L 292.72 209.065 L 292.72 210.527 L 293.164 210.527 L 293.164 206.77 L 292.72 206.77 L 292.72 207.189 L 292.72 207.189 z M 291.343 208.122 L 291.388 207.673 L 291.53 207.345 L 291.741 207.143 L 292.019 207.073 L 292.311 207.143 L 292.533 207.34 L 292.664 207.668 L 292.715 208.122 L 292.664 208.58 L 292.533 208.908 L 292.311 209.11 L 292.019 209.176 L 291.741 209.11 L 291.53 208.908 L 291.388 208.575 L 291.343 208.122 L 291.343 208.122 z M 296.179 206.77 L 295.736 206.77 L 295.736 208.333 L 295.685 208.696 L 295.539 208.959 L 295.312 209.12 L 295.014 209.171 L 294.777 209.13 L 294.626 209.009 L 294.54 208.802 L 294.52 208.51 L 294.52 206.77 L 294.076 206.77 L 294.076 208.55 L 294.091 208.908 L 294.187 209.206 L 294.48 209.478 L 294.949 209.574 L 295.201 209.539 L 295.418 209.448 L 295.604 209.292 L 295.756 209.065 L 295.756 209.478 L 296.179 209.478 L 296.179 206.77 L 296.179 206.77 z M 297.516 208.253 L 299.291 208.253 L 299.296 208.046 L 299.215 207.466 L 298.993 207.032 L 298.64 206.77 L 298.171 206.674 L 297.712 206.775 L 297.359 207.057 L 297.133 207.516 L 297.052 208.122 L 297.127 208.742 L 297.354 209.196 L 297.702 209.478 L 298.156 209.574 L 298.55 209.508 L 298.872 209.337 L 299.109 209.065 L 299.246 208.701 L 298.807 208.701 L 298.716 208.903 L 298.585 209.055 L 298.212 209.176 L 297.924 209.12 L 297.707 208.944 L 297.566 208.656 L 297.516 208.268 L 297.516 208.253 L 297.516 208.253 z M 297.516 207.879 L 297.571 207.531 L 297.707 207.274 L 297.914 207.118 L 298.187 207.062 L 298.454 207.118 L 298.661 207.274 L 298.787 207.531 L 298.832 207.879 L 297.516 207.879 L 297.516 207.879 z M 304.864 209.06 L 304.864 209.478 L 305.308 209.478 L 305.308 205.857 L 304.869 205.857 L 304.869 207.183 L 304.531 206.8 L 304.324 206.709 L 304.087 206.674 L 303.658 206.775 L 303.326 207.057 L 303.109 207.511 L 303.033 208.122 L 303.109 208.732 L 303.326 209.191 L 303.658 209.478 L 304.087 209.574 L 304.324 209.539 L 304.536 209.448 L 304.864 209.06 L 304.864 209.06 z M 304.163 207.073 L 304.455 207.143 L 304.677 207.34 L 304.808 207.668 L 304.859 208.122 L 304.808 208.58 L 304.677 208.908 L 304.455 209.11 L 304.163 209.176 L 303.885 209.11 L 303.674 208.908 L 303.532 208.575 L 303.487 208.122 L 303.532 207.673 L 303.674 207.345 L 303.885 207.143 L 304.163 207.073 L 304.163 207.073 z M 308.323 206.77 L 307.88 206.77 L 307.88 208.333 L 307.829 208.696 L 307.683 208.959 L 307.456 209.12 L 307.158 209.171 L 306.921 209.13 L 306.77 209.009 L 306.684 208.802 L 306.664 208.51 L 306.664 206.77 L 306.22 206.77 L 306.22 208.55 L 306.236 208.908 L 306.331 209.206 L 306.624 209.478 L 307.093 209.574 L 307.345 209.539 L 307.562 209.448 L 307.748 209.292 L 307.9 209.065 L 307.9 209.478 L 308.323 209.478 L 308.323 206.77 L 308.323 206.77 z M 312.181 209.478 L 312.65 209.478 L 312.65 207.834 L 314.052 207.834 L 314.052 209.478 L 314.516 209.478 L 314.516 205.978 L 314.052 205.978 L 314.052 207.405 L 312.65 207.405 L 312.65 205.978 L 312.181 205.978 L 312.181 209.478 L 312.181 209.478 z M 316.952 209.125 L 316.952 209.14 L 316.978 209.312 L 317.053 209.433 L 317.371 209.529 L 317.618 209.488 L 317.618 209.145 L 317.512 209.16 L 317.371 209.095 L 317.346 208.893 L 317.346 207.491 L 317.285 207.133 L 317.109 206.881 L 316.801 206.73 L 316.367 206.674 L 315.944 206.735 L 315.631 206.906 L 315.434 207.173 L 315.369 207.526 L 315.369 207.557 L 315.767 207.557 L 315.802 207.345 L 315.913 207.194 L 316.095 207.103 L 316.352 207.068 L 316.599 207.093 L 316.776 207.168 L 316.882 207.299 L 316.917 207.481 L 316.897 207.693 L 316.816 207.799 L 316.614 207.849 L 316.236 207.89 L 315.802 207.98 L 315.495 208.142 L 315.313 208.394 L 315.258 208.767 L 315.308 209.1 L 315.465 209.347 L 315.717 209.503 L 316.065 209.559 L 316.534 209.453 L 316.952 209.125 L 316.952 209.125 z M 316.902 208.53 L 316.841 208.792 L 316.68 208.994 L 316.438 209.125 L 316.14 209.171 L 315.949 209.145 L 315.813 209.065 L 315.727 208.923 L 315.702 208.727 L 315.722 208.55 L 315.802 208.424 L 316.125 208.283 L 316.534 208.222 L 316.902 208.101 L 316.902 208.53 L 316.902 208.53 z M 320.467 206.77 L 320.024 206.77 L 320.024 208.333 L 319.973 208.696 L 319.827 208.959 L 319.6 209.12 L 319.302 209.171 L 319.065 209.13 L 318.914 209.009 L 318.828 208.802 L 318.808 208.51 L 318.808 206.77 L 318.364 206.77 L 318.364 208.55 L 318.38 208.908 L 318.475 209.206 L 318.768 209.478 L 319.237 209.574 L 319.489 209.539 L 319.706 209.448 L 319.893 209.292 L 320.044 209.065 L 320.044 209.478 L 320.467 209.478 L 320.467 206.77 L 320.467 206.77 z M 322.011 207.239 L 322.011 208.596 L 322.041 209.034 L 322.182 209.337 L 322.465 209.513 L 322.944 209.574 L 323.468 209.549 L 323.468 209.165 L 323.085 209.196 L 322.737 209.155 L 322.55 209.029 L 322.47 208.818 L 322.454 208.52 L 322.454 207.239 L 323.468 207.239 L 323.468 206.861 L 322.454 206.861 L 322.454 206.069 L 322.011 206.069 L 322.011 206.861 L 321.244 206.861 L 321.244 207.239 L 322.011 207.239 L 322.011 207.239 z" stroke="none" fill-rule="evenodd" fill="rgb(0, 0, 0)"/></g><g stroke="rgb(0, 0, 0)" stroke-width="0.13" stroke-linecap="butt" stroke-linejoin="miter" fill="none"><path d="M 604.154 187.56 L 604.623 187.56 L 604.623 185.951 L 606.096 185.951 L 606.096 185.532 L 604.623 185.532 L 604.623 184.483 L 606.433 184.483 L 606.433 184.06 L 604.154 184.06 L 604.154 187.56 L 604.154 187.56 z M 607.346 187.56 L 607.79 187.56 L 607.79 186.012 L 607.835 185.638 L 607.972 185.371 L 608.193 185.21 L 608.491 185.154 L 608.713 185.19 L 608.879 185.29 L 608.98 185.462 L 609.016 185.694 L 609.464 185.694 L 609.404 185.285 L 609.237 184.993 L 608.96 184.816 L 608.582 184.756 L 608.325 184.796 L 608.103 184.897 L 607.906 185.068 L 607.75 185.3 L 607.75 184.852 L 607.346 184.852 L 607.346 187.56 L 607.346 187.56 z M 610.085 186.208 L 610.165 186.823 L 610.397 187.277 L 610.766 187.56 L 611.26 187.656 L 611.749 187.56 L 612.117 187.282 L 612.349 186.829 L 612.435 186.208 L 612.349 185.593 L 612.117 185.134 L 611.749 184.857 L 611.26 184.756 L 610.766 184.857 L 610.397 185.139 L 610.165 185.593 L 610.085 186.208 L 610.085 186.208 z M 610.539 186.203 L 610.584 185.749 L 610.725 185.422 L 610.952 185.22 L 611.26 185.149 L 611.562 185.22 L 611.789 185.416 L 611.931 185.749 L 611.981 186.203 L 611.931 186.662 L 611.789 186.995 L 611.562 187.197 L 611.26 187.262 L 610.952 187.197 L 610.725 186.995 L 610.584 186.662 L 610.539 186.203 L 610.539 186.203 z M 613.252 187.56 L 613.696 187.56 L 613.696 185.996 L 613.741 185.638 L 613.887 185.376 L 614.114 185.215 L 614.417 185.154 L 614.659 185.205 L 614.81 185.341 L 614.886 185.568 L 614.911 185.87 L 614.911 187.56 L 615.355 187.56 L 615.355 185.78 L 615.335 185.422 L 615.244 185.124 L 614.946 184.852 L 614.482 184.756 L 614.225 184.791 L 614.008 184.887 L 613.822 185.048 L 613.675 185.265 L 613.675 184.852 L 613.252 184.852 L 613.252 187.56 L 613.252 187.56 z M 616.883 185.321 L 616.883 186.677 L 616.913 187.116 L 617.054 187.419 L 617.337 187.595 L 617.816 187.656 L 618.34 187.63 L 618.34 187.247 L 617.957 187.277 L 617.609 187.237 L 617.423 187.111 L 617.342 186.899 L 617.327 186.602 L 617.327 185.321 L 618.34 185.321 L 618.34 184.942 L 617.327 184.942 L 617.327 184.151 L 616.883 184.151 L 616.883 184.942 L 616.116 184.942 L 616.116 185.321 L 616.883 185.321 L 616.883 185.321 z M 622.279 187.56 L 622.748 187.56 L 622.748 186.082 L 623.227 186.082 L 623.58 186.097 L 623.802 186.168 L 623.923 186.334 L 623.974 186.632 L 623.999 187.086 L 624.029 187.383 L 624.09 187.56 L 624.619 187.56 L 624.619 187.464 L 624.503 187.323 L 624.463 187.061 L 624.428 186.496 L 624.342 186.077 L 624.226 185.946 L 624.044 185.85 L 624.246 185.724 L 624.387 185.548 L 624.478 185.326 L 624.508 185.058 L 624.438 184.635 L 624.236 184.317 L 623.903 184.125 L 623.449 184.06 L 622.279 184.06 L 622.279 187.56 L 622.279 187.56 z M 623.318 184.489 L 623.626 184.519 L 623.843 184.615 L 623.979 184.791 L 624.024 185.068 L 623.974 185.361 L 623.838 185.537 L 623.606 185.628 L 623.288 185.654 L 622.748 185.654 L 622.748 184.489 L 623.318 184.489 L 623.318 184.489 z M 626.753 187.187 L 626.753 184.942 L 625.613 184.942 L 625.613 185.321 L 626.309 185.321 L 626.309 187.187 L 625.401 187.187 L 625.401 187.56 L 627.67 187.56 L 627.67 187.187 L 626.753 187.187 L 626.753 187.187 z M 626.768 183.939 L 626.299 183.939 L 626.299 184.443 L 626.768 184.443 L 626.768 183.939 L 626.768 183.939 z M 630.54 187.439 L 630.54 184.852 L 630.116 184.852 L 630.116 185.29 L 629.768 184.892 L 629.557 184.791 L 629.32 184.756 L 628.891 184.857 L 628.558 185.139 L 628.341 185.593 L 628.265 186.203 L 628.341 186.818 L 628.558 187.272 L 628.891 187.56 L 629.32 187.656 L 629.562 187.62 L 629.763 187.53 L 630.116 187.146 L 630.116 187.53 L 630.076 187.832 L 629.965 188.049 L 629.753 188.175 L 629.435 188.22 L 629.158 188.19 L 628.961 188.115 L 628.845 187.983 L 628.81 187.807 L 628.381 187.807 L 628.381 187.827 L 628.447 188.15 L 628.649 188.392 L 628.971 188.548 L 629.41 188.604 L 629.935 188.528 L 630.283 188.316 L 630.479 187.948 L 630.54 187.439 L 630.54 187.439 z M 628.724 186.203 L 628.77 185.754 L 628.906 185.422 L 629.118 185.225 L 629.4 185.154 L 629.698 185.225 L 629.92 185.422 L 630.056 185.754 L 630.106 186.203 L 630.056 186.662 L 629.92 186.99 L 629.698 187.192 L 629.4 187.257 L 629.118 187.192 L 628.906 186.99 L 628.77 186.657 L 628.724 186.203 L 628.724 186.203 z M 631.468 187.56 L 631.912 187.56 L 631.912 185.996 L 631.957 185.638 L 632.103 185.376 L 632.33 185.215 L 632.633 185.154 L 632.875 185.205 L 633.026 185.341 L 633.102 185.568 L 633.127 185.87 L 633.127 187.56 L 633.571 187.56 L 633.571 185.78 L 633.551 185.422 L 633.46 185.124 L 633.162 184.852 L 632.698 184.756 L 632.446 184.791 L 632.229 184.887 L 632.048 185.038 L 631.912 185.245 L 631.912 183.939 L 631.468 183.939 L 631.468 187.56 L 631.468 187.56 z M 635.099 185.321 L 635.099 186.677 L 635.129 187.116 L 635.27 187.419 L 635.553 187.595 L 636.032 187.656 L 636.557 187.63 L 636.557 187.247 L 636.173 187.277 L 635.825 187.237 L 635.639 187.111 L 635.558 186.899 L 635.543 186.602 L 635.543 185.321 L 636.557 185.321 L 636.557 184.942 L 635.543 184.942 L 635.543 184.151 L 635.099 184.151 L 635.099 184.942 L 634.332 184.942 L 634.332 185.321 L 635.099 185.321 L 635.099 185.321 z M 640.596 187.56 L 642.845 187.56 L 642.845 187.136 L 641.06 187.136 L 641.06 184.06 L 640.596 184.06 L 640.596 187.56 L 640.596 187.56 z M 643.481 186.208 L 643.562 186.823 L 643.794 187.277 L 644.162 187.56 L 644.656 187.656 L 645.145 187.56 L 645.513 187.282 L 645.745 186.829 L 645.831 186.208 L 645.745 185.593 L 645.513 185.134 L 645.145 184.857 L 644.656 184.756 L 644.162 184.857 L 643.794 185.139 L 643.562 185.593 L 643.481 186.208 L 643.481 186.208 z M 643.935 186.203 L 643.98 185.749 L 644.121 185.422 L 644.348 185.22 L 644.656 185.149 L 644.958 185.22 L 645.185 185.416 L 645.327 185.749 L 645.377 186.203 L 645.327 186.662 L 645.185 186.995 L 644.958 187.197 L 644.656 187.262 L 644.348 187.197 L 644.121 186.995 L 643.98 186.662 L 643.935 186.203 L 643.935 186.203 z M 647.288 187.56 L 647.692 185.26 L 648.095 187.56 L 648.519 187.56 L 649.185 184.852 L 648.756 184.852 L 648.307 187.151 L 647.909 184.852 L 647.47 184.852 L 647.072 187.151 L 646.623 184.852 L 646.199 184.852 L 646.865 187.56 L 647.288 187.56 L 647.288 187.56 z M 650.072 186.334 L 651.847 186.334 L 651.853 186.128 L 651.772 185.548 L 651.55 185.114 L 651.197 184.852 L 650.728 184.756 L 650.269 184.857 L 649.916 185.139 L 649.689 185.598 L 649.608 186.203 L 649.684 186.823 L 649.911 187.277 L 650.259 187.56 L 650.713 187.656 L 651.106 187.59 L 651.429 187.419 L 651.666 187.146 L 651.802 186.783 L 651.363 186.783 L 651.273 186.985 L 651.141 187.136 L 650.768 187.257 L 650.481 187.202 L 650.264 187.025 L 650.123 186.738 L 650.072 186.349 L 650.072 186.334 L 650.072 186.334 z M 650.072 185.961 L 650.128 185.613 L 650.264 185.356 L 650.471 185.2 L 650.743 185.144 L 651.01 185.2 L 651.217 185.356 L 651.343 185.613 L 651.389 185.961 L 650.072 185.961 L 650.072 185.961 z M 652.886 187.56 L 653.33 187.56 L 653.33 186.012 L 653.376 185.638 L 653.512 185.371 L 653.734 185.21 L 654.031 185.154 L 654.253 185.19 L 654.42 185.29 L 654.52 185.462 L 654.556 185.694 L 655.005 185.694 L 654.944 185.285 L 654.778 184.993 L 654.5 184.816 L 654.122 184.756 L 653.865 184.796 L 653.643 184.897 L 653.446 185.068 L 653.29 185.3 L 653.29 184.852 L 652.886 184.852 L 652.886 187.56 L 652.886 187.56 z M 658.303 187.56 L 658.767 187.56 L 659.135 186.531 L 660.532 186.531 L 660.9 187.56 L 661.374 187.56 L 660.093 184.055 L 659.579 184.055 L 658.303 187.56 L 658.303 187.56 z M 659.296 186.102 L 659.836 184.559 L 660.376 186.102 L 659.296 186.102 L 659.296 186.102 z M 662.262 186.405 L 663.482 186.405 L 663.482 186.007 L 662.262 186.007 L 662.262 186.405 L 662.262 186.405 z M 664.375 187.56 L 664.839 187.56 L 665.207 186.531 L 666.604 186.531 L 666.972 187.56 L 667.446 187.56 L 666.165 184.055 L 665.651 184.055 L 664.375 187.56 L 664.375 187.56 z M 665.368 186.102 L 665.908 184.559 L 666.448 186.102 L 665.368 186.102 L 665.368 186.102 z M 668.066 187.56 L 668.51 187.56 L 668.51 186.012 L 668.556 185.638 L 668.692 185.371 L 668.914 185.21 L 669.211 185.154 L 669.433 185.19 L 669.6 185.29 L 669.7 185.462 L 669.736 185.694 L 670.185 185.694 L 670.124 185.285 L 669.958 184.993 L 669.68 184.816 L 669.302 184.756 L 669.045 184.796 L 668.823 184.897 L 668.626 185.068 L 668.47 185.3 L 668.47 184.852 L 668.066 184.852 L 668.066 187.56 L 668.066 187.56 z M 670.76 187.56 L 671.168 187.56 L 671.168 185.749 L 671.193 185.477 L 671.269 185.28 L 671.385 185.164 L 671.536 185.119 L 671.657 185.159 L 671.738 185.26 L 671.778 185.432 L 671.793 185.659 L 671.793 187.56 L 672.177 187.56 L 672.177 185.749 L 672.202 185.482 L 672.278 185.285 L 672.399 185.164 L 672.55 185.119 L 672.671 185.159 L 672.752 185.26 L 672.802 185.659 L 672.802 187.56 L 673.211 187.56 L 673.211 185.689 L 673.185 185.3 L 673.105 185.003 L 672.943 184.821 L 672.681 184.756 L 672.373 184.857 L 672.136 185.149 L 671.95 184.862 L 671.637 184.756 L 671.35 184.857 L 671.153 185.139 L 671.153 184.852 L 670.76 184.852 L 670.76 187.56 L 670.76 187.56 z M 677.442 186.405 L 678.662 186.405 L 678.662 186.007 L 677.442 186.007 L 677.442 186.405 L 677.442 186.405 z M 683.06 187.56 L 683.524 187.56 L 683.524 186.082 L 684.038 186.082 L 684.558 186.057 L 684.971 185.88 L 685.239 185.537 L 685.329 185.068 L 685.259 184.635 L 685.057 184.317 L 684.724 184.125 L 684.27 184.06 L 683.06 184.06 L 683.06 187.56 L 683.06 187.56 z M 684.144 184.489 L 684.447 184.519 L 684.669 184.615 L 684.8 184.791 L 684.845 185.068 L 684.795 185.361 L 684.659 185.537 L 684.427 185.628 L 684.109 185.654 L 683.524 185.654 L 683.524 184.489 L 684.144 184.489 L 684.144 184.489 z M 686.999 184.312 L 686.999 187.187 L 686.086 187.187 L 686.086 187.56 L 688.35 187.56 L 688.35 187.187 L 687.442 187.187 L 687.442 183.939 L 686.303 183.939 L 686.303 184.312 L 686.999 184.312 L 686.999 184.312 z M 690.761 187.207 L 690.761 187.222 L 690.786 187.393 L 690.862 187.514 L 691.179 187.61 L 691.427 187.57 L 691.427 187.227 L 691.321 187.242 L 691.179 187.177 L 691.154 186.975 L 691.154 185.573 L 691.094 185.215 L 690.917 184.963 L 690.61 184.811 L 690.176 184.756 L 689.752 184.816 L 689.44 184.988 L 689.243 185.255 L 689.177 185.608 L 689.177 185.638 L 689.576 185.638 L 689.611 185.427 L 689.722 185.275 L 689.904 185.184 L 690.161 185.149 L 690.408 185.174 L 690.584 185.25 L 690.69 185.381 L 690.726 185.563 L 690.705 185.775 L 690.625 185.88 L 690.423 185.931 L 690.045 185.971 L 689.611 186.062 L 689.303 186.223 L 689.122 186.476 L 689.066 186.849 L 689.117 187.182 L 689.273 187.429 L 689.525 187.585 L 689.873 187.641 L 690.342 187.535 L 690.761 187.207 L 690.761 187.207 z M 690.71 186.612 L 690.65 186.874 L 690.489 187.076 L 690.246 187.207 L 689.949 187.252 L 689.757 187.227 L 689.621 187.146 L 689.535 187.005 L 689.51 186.808 L 689.53 186.632 L 689.611 186.506 L 689.934 186.365 L 690.342 186.304 L 690.71 186.183 L 690.71 186.612 L 690.71 186.612 z M 693.852 185.27 L 693.696 185.043 L 693.52 184.882 L 693.313 184.791 L 693.076 184.756 L 692.647 184.857 L 692.314 185.139 L 692.097 185.593 L 692.022 186.203 L 692.097 186.818 L 692.314 187.272 L 692.647 187.56 L 693.076 187.656 L 693.313 187.625 L 693.514 187.54 L 693.691 187.383 L 693.852 187.146 L 693.852 188.609 L 694.296 188.609 L 694.296 184.852 L 693.852 184.852 L 693.852 185.27 L 693.852 185.27 z M 692.476 186.203 L 692.521 185.754 L 692.662 185.427 L 692.874 185.225 L 693.151 185.154 L 693.444 185.225 L 693.666 185.422 L 693.797 185.749 L 693.847 186.203 L 693.797 186.662 L 693.666 186.99 L 693.444 187.192 L 693.151 187.257 L 692.874 187.192 L 692.662 186.99 L 692.521 186.657 L 692.476 186.203 L 692.476 186.203 z M 697.312 184.852 L 696.868 184.852 L 696.868 186.415 L 696.818 186.778 L 696.672 187.04 L 696.445 187.202 L 696.147 187.252 L 695.91 187.212 L 695.759 187.091 L 695.673 186.884 L 695.653 186.591 L 695.653 184.852 L 695.209 184.852 L 695.209 186.632 L 695.224 186.99 L 695.32 187.287 L 695.612 187.56 L 696.081 187.656 L 696.334 187.62 L 696.55 187.53 L 696.737 187.373 L 696.888 187.146 L 696.888 187.56 L 697.312 187.56 L 697.312 184.852 L 697.312 184.852 z M 698.648 186.334 L 700.424 186.334 L 700.429 186.128 L 700.348 185.548 L 700.126 185.114 L 699.773 184.852 L 699.304 184.756 L 698.845 184.857 L 698.492 185.139 L 698.265 185.598 L 698.185 186.203 L 698.26 186.823 L 698.487 187.277 L 698.835 187.56 L 699.289 187.656 L 699.682 187.59 L 700.005 187.419 L 700.242 187.146 L 700.378 186.783 L 699.94 186.783 L 699.849 186.985 L 699.718 187.136 L 699.344 187.257 L 699.057 187.202 L 698.84 187.025 L 698.699 186.738 L 698.648 186.349 L 698.648 186.334 L 698.648 186.334 z M 698.648 185.961 L 698.704 185.613 L 698.84 185.356 L 699.047 185.2 L 699.319 185.144 L 699.586 185.2 L 699.793 185.356 L 699.919 185.613 L 699.965 185.961 L 698.648 185.961 L 698.648 185.961 z M 705.996 187.141 L 705.996 187.56 L 706.44 187.56 L 706.44 183.939 L 706.001 183.939 L 706.001 185.265 L 705.664 184.882 L 705.457 184.791 L 705.22 184.756 L 704.791 184.857 L 704.458 185.139 L 704.241 185.593 L 704.166 186.203 L 704.241 186.813 L 704.458 187.272 L 704.791 187.56 L 705.22 187.656 L 705.457 187.62 L 705.669 187.53 L 705.996 187.141 L 705.996 187.141 z M 705.295 185.154 L 705.588 185.225 L 705.81 185.422 L 705.941 185.749 L 705.991 186.203 L 705.941 186.662 L 705.81 186.99 L 705.588 187.192 L 705.295 187.257 L 705.018 187.192 L 704.806 186.99 L 704.665 186.657 L 704.62 186.203 L 704.665 185.754 L 704.806 185.427 L 705.018 185.225 L 705.295 185.154 L 705.295 185.154 z M 709.456 184.852 L 709.012 184.852 L 709.012 186.415 L 708.962 186.778 L 708.816 187.04 L 708.589 187.202 L 708.291 187.252 L 708.054 187.212 L 707.903 187.091 L 707.817 186.884 L 707.797 186.591 L 707.797 184.852 L 707.353 184.852 L 707.353 186.632 L 707.368 186.99 L 707.464 187.287 L 707.756 187.56 L 708.226 187.656 L 708.478 187.62 L 708.695 187.53 L 708.881 187.373 L 709.032 187.146 L 709.032 187.56 L 709.456 187.56 L 709.456 184.852 L 709.456 184.852 z M 713.859 187.141 L 714.187 187.53 L 714.635 187.656 L 715.059 187.56 L 715.397 187.272 L 715.609 186.813 L 715.689 186.203 L 715.609 185.593 L 715.392 185.139 L 715.059 184.857 L 714.635 184.756 L 714.192 184.887 L 714.01 185.048 L 713.859 185.265 L 713.859 183.939 L 713.415 183.939 L 713.415 187.56 L 713.859 187.56 L 713.859 187.141 L 713.859 187.141 z M 715.236 186.203 L 715.185 186.657 L 715.049 186.99 L 714.832 187.192 L 714.56 187.257 L 714.262 187.192 L 714.045 186.99 L 713.909 186.662 L 713.864 186.203 L 713.909 185.749 L 714.045 185.422 L 714.262 185.225 L 714.56 185.154 L 714.832 185.225 L 715.049 185.427 L 715.185 185.754 L 715.236 186.203 L 715.236 186.203 z M 718.085 187.207 L 718.085 187.222 L 718.11 187.393 L 718.186 187.514 L 718.504 187.61 L 718.751 187.57 L 718.751 187.227 L 718.645 187.242 L 718.504 187.177 L 718.478 186.975 L 718.478 185.573 L 718.418 185.215 L 718.241 184.963 L 717.934 184.811 L 717.5 184.756 L 717.076 184.816 L 716.764 184.988 L 716.567 185.255 L 716.501 185.608 L 716.501 185.638 L 716.9 185.638 L 716.935 185.427 L 717.046 185.275 L 717.228 185.184 L 717.485 185.149 L 717.732 185.174 L 717.908 185.25 L 718.014 185.381 L 718.05 185.563 L 718.029 185.775 L 717.949 185.88 L 717.747 185.931 L 717.369 185.971 L 716.935 186.062 L 716.628 186.223 L 716.446 186.476 L 716.39 186.849 L 716.441 187.182 L 716.597 187.429 L 716.849 187.585 L 717.197 187.641 L 717.666 187.535 L 718.085 187.207 L 718.085 187.207 z M 718.035 186.612 L 717.974 186.874 L 717.813 187.076 L 717.571 187.207 L 717.273 187.252 L 717.081 187.227 L 716.945 187.146 L 716.859 187.005 L 716.834 186.808 L 716.854 186.632 L 716.935 186.506 L 717.258 186.365 L 717.666 186.304 L 718.035 186.183 L 718.035 186.612 L 718.035 186.612 z M 720.839 185.981 L 720.41 185.88 L 720.092 185.764 L 719.986 185.527 L 720.017 185.361 L 720.122 185.24 L 720.294 185.164 L 720.541 185.134 L 720.778 185.164 L 720.965 185.255 L 721.086 185.391 L 721.136 185.573 L 721.57 185.573 L 721.57 185.563 L 721.494 185.235 L 721.287 184.978 L 720.965 184.816 L 720.541 184.756 L 720.112 184.816 L 719.8 184.983 L 719.603 185.23 L 719.542 185.543 L 719.588 185.845 L 719.729 186.057 L 719.961 186.208 L 720.299 186.314 L 720.793 186.435 L 721.096 186.561 L 721.176 186.662 L 721.207 186.813 L 721.161 187 L 721.04 187.141 L 720.844 187.232 L 720.581 187.262 L 720.304 187.232 L 720.102 187.126 L 719.966 186.955 L 719.911 186.718 L 719.482 186.718 L 719.553 187.121 L 719.759 187.414 L 720.087 187.59 L 720.541 187.656 L 721.015 187.59 L 721.363 187.414 L 721.575 187.131 L 721.651 186.763 L 721.595 186.445 L 721.439 186.228 L 721.182 186.087 L 720.839 185.981 L 720.839 185.981 z" stroke="none" fill-rule="evenodd" fill="rgb(0, 0, 0)"/></g><g stroke="rgb(0, 0, 0)" stroke-width="0.13" stroke-linecap="butt" stroke-linejoin="miter" fill="none"><path d="M 852.801 66.0007 L 853.136 66.0007 L 853.136 64.9453 L 853.478 64.9453 L 853.731 64.9561 L 853.889 65.0065 L 853.976 65.1254 L 854.012 65.3379 L 854.03 65.6621 L 854.051 65.8746 L 854.094 66.0007 L 854.473 66.0007 L 854.473 65.9323 L 854.39 65.8314 L 854.361 65.6441 L 854.336 65.2406 L 854.275 64.9417 L 854.192 64.848 L 854.062 64.7795 L 854.206 64.6895 L 854.307 64.5634 L 854.372 64.4048 L 854.393 64.2139 L 854.343 63.9113 L 854.199 63.6844 L 853.961 63.5475 L 853.637 63.5007 L 852.801 63.5007 L 852.801 66.0007 L 852.801 66.0007 z M 853.543 63.8069 L 853.763 63.8285 L 853.918 63.8969 L 854.015 64.023 L 854.048 64.2211 L 854.012 64.4301 L 853.914 64.5562 L 853.749 64.621 L 853.522 64.639 L 853.136 64.639 L 853.136 63.8069 L 853.543 63.8069 L 853.543 63.8069 z M 855.997 65.7341 L 855.997 64.1311 L 855.182 64.1311 L 855.182 64.4012 L 855.68 64.4012 L 855.68 65.7341 L 855.031 65.7341 L 855.031 66.0007 L 856.652 66.0007 L 856.652 65.7341 L 855.997 65.7341 L 855.997 65.7341 z M 856.007 63.4142 L 855.672 63.4142 L 855.672 63.7745 L 856.007 63.7745 L 856.007 63.4142 L 856.007 63.4142 z M 858.702 65.9142 L 858.702 64.0662 L 858.399 64.0662 L 858.399 64.3796 L 858.151 64.0951 L 857.999 64.023 L 857.83 63.9978 L 857.524 64.0698 L 857.286 64.2716 L 857.131 64.5958 L 857.077 65.0317 L 857.131 65.4712 L 857.286 65.7954 L 857.524 66.0007 L 857.83 66.0692 L 858.003 66.0439 L 858.147 65.9791 L 858.399 65.7053 L 858.399 65.9791 L 858.37 66.1953 L 858.291 66.3502 L 858.14 66.4402 L 857.913 66.4727 L 857.715 66.451 L 857.574 66.397 L 857.492 66.3033 L 857.466 66.1772 L 857.16 66.1772 L 857.16 66.1917 L 857.207 66.4222 L 857.351 66.5952 L 857.582 66.7068 L 857.895 66.7464 L 858.27 66.6924 L 858.518 66.5411 L 858.659 66.2781 L 858.702 65.9142 L 858.702 65.9142 z M 857.405 65.0317 L 857.437 64.7111 L 857.535 64.4733 L 857.686 64.3328 L 857.888 64.2824 L 858.1 64.3328 L 858.259 64.4733 L 858.356 64.7111 L 858.392 65.0317 L 858.356 65.3595 L 858.259 65.5937 L 858.1 65.7377 L 857.888 65.7846 L 857.686 65.7377 L 857.535 65.5937 L 857.437 65.3559 L 857.405 65.0317 L 857.405 65.0317 z M 859.365 66.0007 L 859.682 66.0007 L 859.682 64.884 L 859.714 64.6282 L 859.819 64.4409 L 859.981 64.3256 L 860.197 64.2824 L 860.37 64.3184 L 860.478 64.4156 L 860.532 64.5778 L 860.55 64.7939 L 860.55 66.0007 L 860.867 66.0007 L 860.867 64.7291 L 860.853 64.4733 L 860.788 64.2608 L 860.575 64.0662 L 860.244 63.9978 L 860.064 64.023 L 859.909 64.0915 L 859.779 64.1995 L 859.682 64.3472 L 859.682 63.4142 L 859.365 63.4142 L 859.365 66.0007 L 859.365 66.0007 z M 861.958 64.4012 L 861.958 65.3703 L 861.98 65.6837 L 862.081 65.8998 L 862.283 66.0259 L 862.625 66.0692 L 863 66.0511 L 863 65.7774 L 862.726 65.799 L 862.477 65.7702 L 862.344 65.6801 L 862.286 65.5288 L 862.276 65.3163 L 862.276 64.4012 L 863 64.4012 L 863 64.1311 L 862.276 64.1311 L 862.276 63.5655 L 861.958 63.5655 L 861.958 64.1311 L 861.411 64.1311 L 861.411 64.4012 L 861.958 64.4012 L 861.958 64.4012 z M 865.878 66.0007 L 866.213 66.0007 L 866.213 64.8516 L 867.265 64.8516 L 867.265 64.5526 L 866.213 64.5526 L 866.213 63.8033 L 867.506 63.8033 L 867.506 63.5007 L 865.878 63.5007 L 865.878 66.0007 L 865.878 66.0007 z M 868.158 66.0007 L 868.475 66.0007 L 868.475 64.8948 L 868.508 64.6282 L 868.605 64.4373 L 868.763 64.322 L 868.976 64.2824 L 869.134 64.3076 L 869.253 64.3796 L 869.325 64.5021 L 869.351 64.6678 L 869.671 64.6678 L 869.628 64.376 L 869.509 64.1671 L 869.311 64.041 L 869.041 63.9978 L 868.857 64.0266 L 868.699 64.0987 L 868.558 64.2211 L 868.446 64.3868 L 868.446 64.0662 L 868.158 64.0662 L 868.158 66.0007 L 868.158 66.0007 z M 870.114 65.0353 L 870.172 65.4748 L 870.338 65.799 L 870.601 66.0007 L 870.954 66.0692 L 871.303 66.0007 L 871.566 65.8026 L 871.732 65.4784 L 871.793 65.0353 L 871.732 64.5958 L 871.566 64.268 L 871.303 64.0698 L 870.954 63.9978 L 870.601 64.0698 L 870.338 64.2716 L 870.172 64.5958 L 870.114 65.0353 L 870.114 65.0353 z M 870.438 65.0317 L 870.471 64.7075 L 870.572 64.4733 L 870.734 64.3292 L 870.954 64.2788 L 871.17 64.3292 L 871.332 64.4697 L 871.433 64.7075 L 871.469 65.0317 L 871.433 65.3595 L 871.332 65.5973 L 871.17 65.7413 L 870.954 65.7882 L 870.734 65.7413 L 870.572 65.5973 L 870.471 65.3595 L 870.438 65.0317 L 870.438 65.0317 z M 872.377 66.0007 L 872.694 66.0007 L 872.694 64.884 L 872.726 64.6282 L 872.831 64.4409 L 872.993 64.3256 L 873.209 64.2824 L 873.382 64.3184 L 873.49 64.4156 L 873.544 64.5778 L 873.562 64.7939 L 873.562 66.0007 L 873.879 66.0007 L 873.879 64.7291 L 873.864 64.4733 L 873.8 64.2608 L 873.587 64.0662 L 873.256 63.9978 L 873.072 64.023 L 872.917 64.0915 L 872.784 64.2067 L 872.679 64.3616 L 872.679 64.0662 L 872.377 64.0662 L 872.377 66.0007 L 872.377 66.0007 z M 874.97 64.4012 L 874.97 65.3703 L 874.992 65.6837 L 875.093 65.8998 L 875.295 66.0259 L 875.637 66.0692 L 876.011 66.0511 L 876.011 65.7774 L 875.738 65.799 L 875.489 65.7702 L 875.356 65.6801 L 875.298 65.5288 L 875.287 65.3163 L 875.287 64.4012 L 876.011 64.4012 L 876.011 64.1311 L 875.287 64.1311 L 875.287 63.5655 L 874.97 63.5655 L 874.97 64.1311 L 874.423 64.1311 L 874.423 64.4012 L 874.97 64.4012 L 874.97 64.4012 z M 878.897 66.0007 L 880.504 66.0007 L 880.504 65.6981 L 879.228 65.6981 L 879.228 63.5007 L 878.897 63.5007 L 878.897 66.0007 L 878.897 66.0007 z M 880.957 65.0353 L 881.015 65.4748 L 881.181 65.799 L 881.444 66.0007 L 881.797 66.0692 L 882.146 66.0007 L 882.409 65.8026 L 882.575 65.4784 L 882.636 65.0353 L 882.575 64.5958 L 882.409 64.268 L 882.146 64.0698 L 881.797 63.9978 L 881.444 64.0698 L 881.181 64.2716 L 881.015 64.5958 L 880.957 65.0353 L 880.957 65.0353 z M 881.282 65.0317 L 881.314 64.7075 L 881.415 64.4733 L 881.577 64.3292 L 881.797 64.2788 L 882.013 64.3292 L 882.175 64.4697 L 882.276 64.7075 L 882.312 65.0317 L 882.276 65.3595 L 882.175 65.5973 L 882.013 65.7413 L 881.797 65.7882 L 881.577 65.7413 L 881.415 65.5973 L 881.314 65.3595 L 881.282 65.0317 L 881.282 65.0317 z M 883.677 66.0007 L 883.966 64.358 L 884.254 66.0007 L 884.556 66.0007 L 885.032 64.0662 L 884.726 64.0662 L 884.405 65.7089 L 884.12 64.0662 L 883.807 64.0662 L 883.522 65.7089 L 883.202 64.0662 L 882.899 64.0662 L 883.375 66.0007 L 883.677 66.0007 L 883.677 66.0007 z M 885.666 65.1254 L 886.934 65.1254 L 886.937 64.9777 L 886.88 64.5634 L 886.721 64.2535 L 886.469 64.0662 L 886.134 63.9978 L 885.806 64.0698 L 885.554 64.2716 L 885.392 64.5994 L 885.334 65.0317 L 885.388 65.4748 L 885.551 65.799 L 885.799 66.0007 L 886.123 66.0692 L 886.404 66.0223 L 886.635 65.8998 L 886.804 65.7053 L 886.901 65.446 L 886.588 65.446 L 886.523 65.5901 L 886.43 65.6981 L 886.163 65.7846 L 885.958 65.7449 L 885.803 65.6189 L 885.702 65.4135 L 885.666 65.1362 L 885.666 65.1254 L 885.666 65.1254 z M 885.666 64.8588 L 885.705 64.6102 L 885.803 64.4265 L 885.95 64.3148 L 886.145 64.2752 L 886.336 64.3148 L 886.484 64.4265 L 886.574 64.6102 L 886.606 64.8588 L 885.666 64.8588 L 885.666 64.8588 z M 887.676 66.0007 L 887.993 66.0007 L 887.993 64.8948 L 888.025 64.6282 L 888.123 64.4373 L 888.281 64.322 L 888.494 64.2824 L 888.652 64.3076 L 888.771 64.3796 L 888.843 64.5021 L 888.868 64.6678 L 889.189 64.6678 L 889.146 64.376 L 889.027 64.1671 L 888.829 64.041 L 888.559 63.9978 L 888.375 64.0266 L 888.216 64.0987 L 888.076 64.2211 L 887.964 64.3868 L 887.964 64.0662 L 887.676 64.0662 L 887.676 66.0007 L 887.676 66.0007 z M 891.545 66.0007 L 891.876 66.0007 L 892.139 65.2659 L 893.137 65.2659 L 893.4 66.0007 L 893.739 66.0007 L 892.824 63.4971 L 892.456 63.4971 L 891.545 66.0007 L 891.545 66.0007 z M 892.255 64.9597 L 892.64 63.8573 L 893.026 64.9597 L 892.255 64.9597 L 892.255 64.9597 z M 894.373 65.1758 L 895.245 65.1758 L 895.245 64.8912 L 894.373 64.8912 L 894.373 65.1758 L 894.373 65.1758 z M 895.882 66.0007 L 896.214 66.0007 L 896.477 65.2659 L 897.474 65.2659 L 897.737 66.0007 L 898.076 66.0007 L 897.161 63.4971 L 896.794 63.4971 L 895.882 66.0007 L 895.882 66.0007 z M 896.592 64.9597 L 896.977 63.8573 L 897.363 64.9597 L 896.592 64.9597 L 896.592 64.9597 z M 898.519 66.0007 L 898.836 66.0007 L 898.836 64.8948 L 898.869 64.6282 L 898.966 64.4373 L 899.124 64.322 L 899.337 64.2824 L 899.495 64.3076 L 899.614 64.3796 L 899.686 64.5021 L 899.712 64.6678 L 900.032 64.6678 L 899.989 64.376 L 899.87 64.1671 L 899.672 64.041 L 899.402 63.9978 L 899.218 64.0266 L 899.06 64.0987 L 898.919 64.2211 L 898.807 64.3868 L 898.807 64.0662 L 898.519 64.0662 L 898.519 66.0007 L 898.519 66.0007 z M 900.443 66.0007 L 900.735 66.0007 L 900.735 64.7075 L 900.753 64.5129 L 900.807 64.3724 L 900.89 64.2896 L 900.998 64.2572 L 901.084 64.286 L 901.142 64.358 L 901.171 64.4805 L 901.181 64.6426 L 901.181 66.0007 L 901.455 66.0007 L 901.455 64.7075 L 901.473 64.5165 L 901.527 64.376 L 901.614 64.2896 L 901.722 64.2572 L 901.808 64.286 L 901.866 64.358 L 901.902 64.6426 L 901.902 66.0007 L 902.194 66.0007 L 902.194 64.6642 L 902.176 64.3868 L 902.118 64.1743 L 902.003 64.0446 L 901.815 63.9978 L 901.596 64.0698 L 901.426 64.2788 L 901.293 64.0734 L 901.07 63.9978 L 900.864 64.0698 L 900.724 64.2716 L 900.724 64.0662 L 900.443 64.0662 L 900.443 66.0007 L 900.443 66.0007 z" stroke="none" fill-rule="evenodd" fill="rgb(0, 0, 0)"/></g><g stroke="rgb(0, 0, 0)" stroke-width="0.13" stroke-linecap="butt" stroke-linejoin="miter" fill="none"><path d="M 868.028 70.3199 L 869.613 70.3199 L 869.613 70.0173 L 868.36 70.0173 L 868.36 69.1708 L 869.476 69.1708 L 869.476 68.8718 L 868.36 68.8718 L 868.36 68.1225 L 869.584 68.1225 L 869.584 67.8199 L 868.028 67.8199 L 868.028 70.3199 L 868.028 70.3199 z M 869.869 70.9178 L 869.869 71.17 L 872.038 71.17 L 872.038 70.9178 L 869.869 70.9178 L 869.869 70.9178 z M 872.027 70.3199 L 872.358 70.3199 L 872.621 69.585 L 873.619 69.585 L 873.882 70.3199 L 874.221 70.3199 L 873.306 67.8163 L 872.938 67.8163 L 872.027 70.3199 L 872.027 70.3199 z M 872.736 69.2788 L 873.122 68.1765 L 873.507 69.2788 L 872.736 69.2788 L 872.736 69.2788 z M 874.664 70.3199 L 874.981 70.3199 L 874.981 69.214 L 875.013 68.9474 L 875.11 68.7565 L 875.269 68.6412 L 875.481 68.6016 L 875.64 68.6268 L 875.759 68.6989 L 875.831 68.8214 L 875.856 68.9871 L 876.177 68.9871 L 876.133 68.6953 L 876.014 68.4863 L 875.816 68.3602 L 875.546 68.317 L 875.362 68.3458 L 875.204 68.4178 L 875.063 68.5403 L 874.952 68.7061 L 874.952 68.3854 L 874.664 68.3854 L 874.664 70.3199 L 874.664 70.3199 z M 876.832 70.3199 L 877.149 70.3199 L 877.149 69.214 L 877.182 68.9474 L 877.279 68.7565 L 877.437 68.6412 L 877.65 68.6016 L 877.808 68.6268 L 877.927 68.6989 L 877.999 68.8214 L 878.025 68.9871 L 878.345 68.9871 L 878.302 68.6953 L 878.183 68.4863 L 877.985 68.3602 L 877.715 68.317 L 877.531 68.3458 L 877.373 68.4178 L 877.232 68.5403 L 877.12 68.7061 L 877.12 68.3854 L 876.832 68.3854 L 876.832 70.3199 L 876.832 70.3199 z M 879.851 70.0533 L 879.851 68.4503 L 879.037 68.4503 L 879.037 68.7205 L 879.534 68.7205 L 879.534 70.0533 L 878.885 70.0533 L 878.885 70.3199 L 880.507 70.3199 L 880.507 70.0533 L 879.851 70.0533 L 879.851 70.0533 z M 879.862 67.7335 L 879.527 67.7335 L 879.527 68.0937 L 879.862 68.0937 L 879.862 67.7335 L 879.862 67.7335 z M 882.052 68.1225 L 881.692 67.5101 L 881.339 67.5101 L 881.839 68.1225 L 882.052 68.1225 L 882.052 68.1225 z M 881.328 69.4445 L 882.596 69.4445 L 882.599 69.2968 L 882.542 68.8826 L 882.383 68.5728 L 882.131 68.3854 L 881.796 68.317 L 881.468 68.389 L 881.216 68.5908 L 881.054 68.9186 L 880.996 69.3509 L 881.05 69.7939 L 881.213 70.1182 L 881.461 70.3199 L 881.785 70.3883 L 882.066 70.3415 L 882.297 70.219 L 882.466 70.0245 L 882.563 69.7651 L 882.25 69.7651 L 882.185 69.9092 L 882.092 70.0173 L 881.825 70.1038 L 881.62 70.0641 L 881.465 69.938 L 881.364 69.7327 L 881.328 69.4553 L 881.328 69.4445 L 881.328 69.4445 z M 881.328 69.178 L 881.367 68.9294 L 881.465 68.7457 L 881.612 68.634 L 881.807 68.5944 L 881.998 68.634 L 882.146 68.7457 L 882.236 68.9294 L 882.268 69.178 L 881.328 69.178 L 881.328 69.178 z M 883.338 70.3199 L 883.655 70.3199 L 883.655 69.214 L 883.687 68.9474 L 883.785 68.7565 L 883.943 68.6412 L 884.156 68.6016 L 884.314 68.6268 L 884.433 68.6989 L 884.505 68.8214 L 884.53 68.9871 L 884.851 68.9871 L 884.808 68.6953 L 884.689 68.4863 L 884.491 68.3602 L 884.22 68.317 L 884.037 68.3458 L 883.878 68.4178 L 883.738 68.5403 L 883.626 68.7061 L 883.626 68.3854 L 883.338 68.3854 L 883.338 70.3199 L 883.338 70.3199 z M 885.665 69.4445 L 886.933 69.4445 L 886.937 69.2968 L 886.879 68.8826 L 886.72 68.5728 L 886.468 68.3854 L 886.133 68.317 L 885.805 68.389 L 885.553 68.5908 L 885.391 68.9186 L 885.334 69.3509 L 885.388 69.7939 L 885.55 70.1182 L 885.798 70.3199 L 886.122 70.3883 L 886.404 70.3415 L 886.634 70.219 L 886.803 70.0245 L 886.901 69.7651 L 886.587 69.7651 L 886.522 69.9092 L 886.429 70.0173 L 886.162 70.1038 L 885.957 70.0641 L 885.802 69.938 L 885.701 69.7327 L 885.665 69.4553 L 885.665 69.4445 L 885.665 69.4445 z M 885.665 69.178 L 885.705 68.9294 L 885.802 68.7457 L 885.95 68.634 L 886.144 68.5944 L 886.335 68.634 L 886.483 68.7457 L 886.573 68.9294 L 886.605 69.178 L 885.665 69.178 L 885.665 69.178 z" stroke="none" fill-rule="evenodd" fill="rgb(0, 0, 0)"/></g><g stroke="rgb(0, 0, 0)" stroke-width="0.13" stroke-linecap="butt" stroke-linejoin="miter" fill="none"><path d="M 969.066 60.4423 L 969.401 60.4423 L 969.401 59.3868 L 969.743 59.3868 L 969.995 59.3976 L 970.154 59.4481 L 970.24 59.567 L 970.276 59.7795 L 970.294 60.1037 L 970.316 60.3162 L 970.359 60.4423 L 970.737 60.4423 L 970.737 60.3739 L 970.654 60.273 L 970.626 60.0857 L 970.6 59.6823 L 970.539 59.3832 L 970.456 59.2896 L 970.327 59.2211 L 970.471 59.1311 L 970.572 59.005 L 970.636 58.8465 L 970.658 58.6556 L 970.608 58.353 L 970.464 58.126 L 970.226 57.9891 L 969.902 57.9423 L 969.066 57.9423 L 969.066 60.4423 L 969.066 60.4423 z M 969.808 58.2485 L 970.028 58.2701 L 970.183 58.3386 L 970.28 58.4647 L 970.312 58.6628 L 970.276 58.8717 L 970.179 58.9978 L 970.013 59.0626 L 969.786 59.0806 L 969.401 59.0806 L 969.401 58.2485 L 969.808 58.2485 L 969.808 58.2485 z M 972.261 60.1758 L 972.261 58.5728 L 971.447 58.5728 L 971.447 58.8429 L 971.944 58.8429 L 971.944 60.1758 L 971.296 60.1758 L 971.296 60.4423 L 972.917 60.4423 L 972.917 60.1758 L 972.261 60.1758 L 972.261 60.1758 z M 972.272 57.8559 L 971.937 57.8559 L 971.937 58.2161 L 972.272 58.2161 L 972.272 57.8559 L 972.272 57.8559 z M 974.966 60.3559 L 974.966 58.5079 L 974.664 58.5079 L 974.664 58.8213 L 974.415 58.5367 L 974.264 58.4647 L 974.095 58.4395 L 973.788 58.5115 L 973.551 58.7132 L 973.396 59.0374 L 973.342 59.4733 L 973.396 59.9128 L 973.551 60.237 L 973.788 60.4423 L 974.095 60.5107 L 974.268 60.4855 L 974.412 60.4207 L 974.664 60.1469 L 974.664 60.4207 L 974.635 60.6368 L 974.556 60.7917 L 974.404 60.8818 L 974.177 60.9142 L 973.979 60.8926 L 973.839 60.8386 L 973.756 60.7449 L 973.731 60.6188 L 973.425 60.6188 L 973.425 60.6332 L 973.471 60.8638 L 973.616 61.0367 L 973.846 61.1484 L 974.159 61.188 L 974.534 61.134 L 974.783 60.9827 L 974.923 60.7197 L 974.966 60.3559 L 974.966 60.3559 z M 973.67 59.4733 L 973.702 59.1527 L 973.799 58.915 L 973.951 58.7745 L 974.152 58.724 L 974.365 58.7745 L 974.523 58.915 L 974.621 59.1527 L 974.657 59.4733 L 974.621 59.8011 L 974.523 60.0353 L 974.365 60.1794 L 974.152 60.2262 L 973.951 60.1794 L 973.799 60.0353 L 973.702 59.7975 L 973.67 59.4733 L 973.67 59.4733 z M 975.629 60.4423 L 975.946 60.4423 L 975.946 59.3256 L 975.979 59.0698 L 976.083 58.8825 L 976.245 58.7673 L 976.461 58.724 L 976.634 58.7601 L 976.742 58.8573 L 976.796 59.0194 L 976.814 59.2355 L 976.814 60.4423 L 977.131 60.4423 L 977.131 59.1707 L 977.117 58.915 L 977.052 58.7024 L 976.84 58.5079 L 976.508 58.4395 L 976.328 58.4647 L 976.173 58.5331 L 976.043 58.6412 L 975.946 58.7889 L 975.946 57.8559 L 975.629 57.8559 L 975.629 60.4423 L 975.629 60.4423 z M 978.223 58.8429 L 978.223 59.8119 L 978.244 60.1253 L 978.345 60.3414 L 978.547 60.4675 L 978.889 60.5107 L 979.264 60.4927 L 979.264 60.219 L 978.99 60.2406 L 978.742 60.2118 L 978.608 60.1217 L 978.551 59.9704 L 978.54 59.7579 L 978.54 58.8429 L 979.264 58.8429 L 979.264 58.5728 L 978.54 58.5728 L 978.54 58.0071 L 978.223 58.0071 L 978.223 58.5728 L 977.675 58.5728 L 977.675 58.8429 L 978.223 58.8429 L 978.223 58.8429 z M 982.142 60.4423 L 982.477 60.4423 L 982.477 59.2932 L 983.529 59.2932 L 983.529 58.9942 L 982.477 58.9942 L 982.477 58.2449 L 983.77 58.2449 L 983.77 57.9423 L 982.142 57.9423 L 982.142 60.4423 L 982.142 60.4423 z M 984.422 60.4423 L 984.739 60.4423 L 984.739 59.3364 L 984.772 59.0698 L 984.869 58.8789 L 985.028 58.7637 L 985.24 58.724 L 985.399 58.7493 L 985.518 58.8213 L 985.59 58.9438 L 985.615 59.1095 L 985.935 59.1095 L 985.892 58.8177 L 985.773 58.6088 L 985.575 58.4827 L 985.305 58.4395 L 985.121 58.4683 L 984.963 58.5403 L 984.822 58.6628 L 984.711 58.8285 L 984.711 58.5079 L 984.422 58.5079 L 984.422 60.4423 L 984.422 60.4423 z M 986.378 59.4769 L 986.436 59.9164 L 986.602 60.2406 L 986.865 60.4423 L 987.218 60.5107 L 987.567 60.4423 L 987.83 60.2442 L 987.996 59.92 L 988.057 59.4769 L 987.996 59.0374 L 987.83 58.7096 L 987.567 58.5115 L 987.218 58.4395 L 986.865 58.5115 L 986.602 58.7132 L 986.436 59.0374 L 986.378 59.4769 L 986.378 59.4769 z M 986.703 59.4733 L 986.735 59.1491 L 986.836 58.915 L 986.998 58.7709 L 987.218 58.7204 L 987.434 58.7709 L 987.596 58.9113 L 987.697 59.1491 L 987.733 59.4733 L 987.697 59.8011 L 987.596 60.0389 L 987.434 60.183 L 987.218 60.2298 L 986.998 60.183 L 986.836 60.0389 L 986.735 59.8011 L 986.703 59.4733 L 986.703 59.4733 z M 988.641 60.4423 L 988.958 60.4423 L 988.958 59.3256 L 988.99 59.0698 L 989.095 58.8825 L 989.257 58.7673 L 989.473 58.724 L 989.646 58.7601 L 989.754 58.8573 L 989.808 59.0194 L 989.826 59.2355 L 989.826 60.4423 L 990.143 60.4423 L 990.143 59.1707 L 990.128 58.915 L 990.064 58.7024 L 989.851 58.5079 L 989.52 58.4395 L 989.336 58.4647 L 989.181 58.5331 L 989.048 58.6484 L 988.943 58.8033 L 988.943 58.5079 L 988.641 58.5079 L 988.641 60.4423 L 988.641 60.4423 z M 991.234 58.8429 L 991.234 59.8119 L 991.256 60.1253 L 991.357 60.3414 L 991.559 60.4675 L 991.901 60.5107 L 992.275 60.4927 L 992.275 60.219 L 992.002 60.2406 L 991.753 60.2118 L 991.62 60.1217 L 991.562 59.9704 L 991.551 59.7579 L 991.551 58.8429 L 992.275 58.8429 L 992.275 58.5728 L 991.551 58.5728 L 991.551 58.0071 L 991.234 58.0071 L 991.234 58.5728 L 990.687 58.5728 L 990.687 58.8429 L 991.234 58.8429 L 991.234 58.8429 z M 995.161 60.4423 L 996.767 60.4423 L 996.767 60.1397 L 995.492 60.1397 L 995.492 57.9423 L 995.161 57.9423 L 995.161 60.4423 L 995.161 60.4423 z M 997.221 59.4769 L 997.279 59.9164 L 997.445 60.2406 L 997.708 60.4423 L 998.061 60.5107 L 998.41 60.4423 L 998.673 60.2442 L 998.839 59.92 L 998.9 59.4769 L 998.839 59.0374 L 998.673 58.7096 L 998.41 58.5115 L 998.061 58.4395 L 997.708 58.5115 L 997.445 58.7132 L 997.279 59.0374 L 997.221 59.4769 L 997.221 59.4769 z M 997.546 59.4733 L 997.578 59.1491 L 997.679 58.915 L 997.841 58.7709 L 998.061 58.7204 L 998.277 58.7709 L 998.439 58.9113 L 998.54 59.1491 L 998.576 59.4733 L 998.54 59.8011 L 998.439 60.0389 L 998.277 60.183 L 998.061 60.2298 L 997.841 60.183 L 997.679 60.0389 L 997.578 59.8011 L 997.546 59.4733 L 997.546 59.4733 z M 999.941 60.4423 L 1000.23 58.7997 L 1000.52 60.4423 L 1000.82 60.4423 L 1001.3 58.5079 L 1000.99 58.5079 L 1000.67 60.1505 L 1000.38 58.5079 L 1000.07 58.5079 L 999.786 60.1505 L 999.466 58.5079 L 999.163 58.5079 L 999.638 60.4423 L 999.941 60.4423 L 999.941 60.4423 z M 1001.93 59.567 L 1003.2 59.567 L 1003.2 59.4193 L 1003.14 59.005 L 1002.98 58.6952 L 1002.73 58.5079 L 1002.4 58.4395 L 1002.07 58.5115 L 1001.82 58.7132 L 1001.66 59.041 L 1001.6 59.4733 L 1001.65 59.9164 L 1001.81 60.2406 L 1002.06 60.4423 L 1002.39 60.5107 L 1002.67 60.4639 L 1002.9 60.3414 L 1003.07 60.1469 L 1003.17 59.8876 L 1002.85 59.8876 L 1002.79 60.0317 L 1002.69 60.1397 L 1002.43 60.2262 L 1002.22 60.1866 L 1002.07 60.0605 L 1001.97 59.8552 L 1001.93 59.5778 L 1001.93 59.567 L 1001.93 59.567 z M 1001.93 59.3004 L 1001.97 59.0518 L 1002.07 58.8681 L 1002.21 58.7565 L 1002.41 58.7168 L 1002.6 58.7565 L 1002.75 58.8681 L 1002.84 59.0518 L 1002.87 59.3004 L 1001.93 59.3004 L 1001.93 59.3004 z M 1003.94 60.4423 L 1004.26 60.4423 L 1004.26 59.3364 L 1004.29 59.0698 L 1004.39 58.8789 L 1004.54 58.7637 L 1004.76 58.724 L 1004.92 58.7493 L 1005.03 58.8213 L 1005.11 58.9438 L 1005.13 59.1095 L 1005.45 59.1095 L 1005.41 58.8177 L 1005.29 58.6088 L 1005.09 58.4827 L 1004.82 58.4395 L 1004.64 58.4683 L 1004.48 58.5403 L 1004.34 58.6628 L 1004.23 58.8285 L 1004.23 58.5079 L 1003.94 58.5079 L 1003.94 60.4423 L 1003.94 60.4423 z M 1007.81 60.4423 L 1008.14 60.4423 L 1008.4 59.7075 L 1009.4 59.7075 L 1009.66 60.4423 L 1010 60.4423 L 1009.09 57.9387 L 1008.72 57.9387 L 1007.81 60.4423 L 1007.81 60.4423 z M 1008.52 59.4012 L 1008.9 58.299 L 1009.29 59.4012 L 1008.52 59.4012 L 1008.52 59.4012 z M 1010.64 59.6174 L 1011.51 59.6174 L 1011.51 59.3328 L 1010.64 59.3328 L 1010.64 59.6174 L 1010.64 59.6174 z M 1012.15 60.4423 L 1012.48 60.4423 L 1012.74 59.7075 L 1013.74 59.7075 L 1014 60.4423 L 1014.34 60.4423 L 1013.42 57.9387 L 1013.06 57.9387 L 1012.15 60.4423 L 1012.15 60.4423 z M 1012.86 59.4012 L 1013.24 58.299 L 1013.63 59.4012 L 1012.86 59.4012 L 1012.86 59.4012 z M 1014.78 60.4423 L 1015.1 60.4423 L 1015.1 59.3364 L 1015.13 59.0698 L 1015.23 58.8789 L 1015.39 58.7637 L 1015.6 58.724 L 1015.76 58.7493 L 1015.88 58.8213 L 1015.95 58.9438 L 1015.97 59.1095 L 1016.3 59.1095 L 1016.25 58.8177 L 1016.13 58.6088 L 1015.94 58.4827 L 1015.67 58.4395 L 1015.48 58.4683 L 1015.32 58.5403 L 1015.18 58.6628 L 1015.07 58.8285 L 1015.07 58.5079 L 1014.78 58.5079 L 1014.78 60.4423 L 1014.78 60.4423 z M 1016.71 60.4423 L 1017 60.4423 L 1017 59.1491 L 1017.02 58.9546 L 1017.07 58.8141 L 1017.15 58.7312 L 1017.26 58.6988 L 1017.35 58.7276 L 1017.4 58.7997 L 1017.43 58.9222 L 1017.44 59.0842 L 1017.44 60.4423 L 1017.72 60.4423 L 1017.72 59.1491 L 1017.74 58.9582 L 1017.79 58.8177 L 1017.88 58.7312 L 1017.98 58.6988 L 1018.07 58.7276 L 1018.13 58.7997 L 1018.17 59.0842 L 1018.17 60.4423 L 1018.46 60.4423 L 1018.46 59.1059 L 1018.44 58.8285 L 1018.38 58.616 L 1018.27 58.4863 L 1018.08 58.4395 L 1017.86 58.5115 L 1017.69 58.7204 L 1017.56 58.5151 L 1017.33 58.4395 L 1017.13 58.5115 L 1016.99 58.7132 L 1016.99 58.5079 L 1016.71 58.5079 L 1016.71 60.4423 L 1016.71 60.4423 z" stroke="none" fill-rule="evenodd" fill="rgb(0, 0, 0)"/></g><g stroke="rgb(0, 0, 0)" stroke-width="0.13" stroke-linecap="butt" stroke-linejoin="miter" fill="none"><path d="M 986.461 64.7615 L 988.046 64.7615 L 988.046 64.4589 L 986.793 64.4589 L 986.793 63.6123 L 987.909 63.6123 L 987.909 63.3133 L 986.793 63.3133 L 986.793 62.564 L 988.018 62.564 L 988.018 62.2614 L 986.461 62.2614 L 986.461 64.7615 L 986.461 64.7615 z M 988.302 65.3595 L 988.302 65.6116 L 990.471 65.6116 L 990.471 65.3595 L 988.302 65.3595 L 988.302 65.3595 z M 990.46 64.7615 L 990.791 64.7615 L 991.054 64.0266 L 992.052 64.0266 L 992.315 64.7615 L 992.654 64.7615 L 991.739 62.2578 L 991.371 62.2578 L 990.46 64.7615 L 990.46 64.7615 z M 991.17 63.7204 L 991.555 62.618 L 991.941 63.7204 L 991.17 63.7204 L 991.17 63.7204 z M 993.558 64.7615 L 993.893 64.7615 L 994.599 62.827 L 994.271 62.827 L 993.727 64.3868 L 993.173 62.827 L 992.841 62.827 L 993.558 64.7615 L 993.558 64.7615 z M 996.296 64.5093 L 996.296 64.5201 L 996.314 64.6426 L 996.368 64.7291 L 996.595 64.7975 L 996.771 64.7687 L 996.771 64.5237 L 996.696 64.5345 L 996.595 64.4877 L 996.577 64.3436 L 996.577 63.3421 L 996.534 63.0864 L 996.408 62.9063 L 996.188 62.7982 L 995.878 62.7585 L 995.575 62.8018 L 995.352 62.9243 L 995.211 63.1152 L 995.165 63.3674 L 995.165 63.389 L 995.449 63.389 L 995.474 63.2377 L 995.554 63.1296 L 995.683 63.0648 L 995.867 63.0396 L 996.044 63.0576 L 996.17 63.1116 L 996.245 63.2053 L 996.271 63.3349 L 996.256 63.4862 L 996.199 63.5619 L 996.055 63.5979 L 995.784 63.6267 L 995.474 63.6916 L 995.255 63.8068 L 995.125 63.9869 L 995.085 64.2535 L 995.121 64.4913 L 995.233 64.6678 L 995.413 64.7795 L 995.662 64.8191 L 995.997 64.7435 L 996.296 64.5093 L 996.296 64.5093 z M 996.26 64.0842 L 996.217 64.2715 L 996.101 64.4156 L 995.928 64.5093 L 995.716 64.5417 L 995.579 64.5237 L 995.482 64.4661 L 995.42 64.3652 L 995.402 64.2247 L 995.417 64.0986 L 995.474 64.0085 L 995.705 63.9077 L 995.997 63.8645 L 996.26 63.778 L 996.26 64.0842 L 996.26 64.0842 z M 997.315 64.7615 L 997.632 64.7615 L 997.632 63.6447 L 997.665 63.389 L 997.769 63.2017 L 997.931 63.0864 L 998.147 63.0432 L 998.32 63.0792 L 998.428 63.1764 L 998.482 63.3385 L 998.5 63.5547 L 998.5 64.7615 L 998.818 64.7615 L 998.818 63.4898 L 998.803 63.2341 L 998.738 63.0215 L 998.526 62.827 L 998.194 62.7585 L 998.011 62.7838 L 997.856 62.8522 L 997.722 62.9675 L 997.618 63.1224 L 997.618 62.827 L 997.315 62.827 L 997.315 64.7615 L 997.315 64.7615 z M 999.909 63.162 L 999.909 64.131 L 999.931 64.4445 L 1000.03 64.6606 L 1000.23 64.7867 L 1000.58 64.8299 L 1000.95 64.8119 L 1000.95 64.5381 L 1000.68 64.5598 L 1000.43 64.5309 L 1000.29 64.4409 L 1000.24 64.2896 L 1000.23 64.077 L 1000.23 63.162 L 1000.95 63.162 L 1000.95 62.8918 L 1000.23 62.8918 L 1000.23 62.3262 L 999.909 62.3262 L 999.909 62.8918 L 999.361 62.8918 L 999.361 63.162 L 999.909 63.162 L 999.909 63.162 z" stroke="none" fill-rule="evenodd" fill="rgb(0, 0, 0)"/></g></svg>