<?xml version="1.0" encoding="utf-8"?>
<!-- Generator: Adobe Illustrator 22.1.0, SVG Export Plug-In . SVG Version: 6.00 Build 0)  -->
<svg version="1.1" id="Calque_1" dsy:text-version="18000" xmlns:dsy="http://www.3ds.com/print"
	 xmlns="http://www.w3.org/2000/svg" xmlns:xlink="http://www.w3.org/1999/xlink" x="0px" y="0px" viewBox="0 0 1189 841"
	 style="enable-background:new 0 0 1189 841;" xml:space="preserve">
<style type="text/css">
	.st0{fill:none;stroke:#000000;stroke-width:2.834646e-02;}
</style>
<path class="st0" d="M724.1,554.7l-270-150.3"/>
<path class="st0" d="M454.1,404.5l6.9-12.4"/>
<path class="st0" d="M461,392.1l64.4,35.8"/>
<path class="st0" d="M525.4,427.9l41.4-74.3"/>
<path class="st0" d="M566.7,353.6l-64.4-35.8"/>
<path class="st0" d="M502.4,317.8l6.9-12.4"/>
<path class="st0" d="M509.2,305.4l270,150.3"/>
<circle class="st0" cx="655" cy="441.8" r="9.1"/>
<path class="st0" d="M732.3,539.9l-8.3,14.9"/>
<path class="st0" d="M779.2,455.7l-8.3,14.9"/>
<path class="st0" d="M770.9,470.5c-19.2-10.7-43.3-3.8-54,15.4c-10.7,19.2-3.8,43.3,15.4,54"/>
<g>
	<path d="M593.3,467.3l-0.2,0.9l-0.3,0.6l-0.5,0.4l-0.5,0.1l-0.7-0.2l-0.5-0.6l-0.3-0.9l-0.1-1.2l0.1-1.2l0.3-0.9l0.5-0.6l0.7-0.2
		l0.5,0.1l0.4,0.3l0.3,0.5l0.2,0.6h1l-0.3-1l-0.5-0.7l-0.7-0.5l-0.9-0.2l-1.1,0.3l-0.8,0.7l-0.5,1.2l-0.2,1.6l0.2,1.6l0.5,1.2
		l0.8,0.7l1.1,0.2l0.9-0.2l0.8-0.5l0.5-0.9l0.3-1.2H593.3L593.3,467.3z M595.7,469.9h0.9v-3.2l0.1-0.7l0.3-0.5l0.5-0.3l0.6-0.1
		l0.5,0.1l0.3,0.3l0.2,0.5l0.1,0.6v3.4h0.9v-3.6l0-0.7l-0.2-0.6l-0.6-0.5l-0.9-0.2l-0.5,0.1l-0.4,0.2l-0.4,0.3l-0.3,0.4v-2.6h-0.9
		V469.9L595.7,469.9z M605.1,469.2L605.1,469.2l0.1,0.4l0.2,0.2l0.6,0.2l0.5-0.1v-0.7l-0.2,0l-0.3-0.1l-0.1-0.4v-2.8l-0.1-0.7
		l-0.4-0.5l-0.6-0.3l-0.9-0.1l-0.9,0.1l-0.6,0.3l-0.4,0.5l-0.1,0.7v0.1h0.8l0.1-0.4l0.2-0.3l0.4-0.2l0.5-0.1l0.5,0.1l0.4,0.2
		l0.2,0.3l0.1,0.4l0,0.4l-0.2,0.2l-0.4,0.1l-0.8,0.1l-0.9,0.2l-0.6,0.3l-0.4,0.5l-0.1,0.8l0.1,0.7l0.3,0.5l0.5,0.3l0.7,0.1l0.9-0.2
		L605.1,469.2L605.1,469.2z M605,468l-0.1,0.5l-0.3,0.4l-0.5,0.3l-0.6,0.1l-0.4-0.1l-0.3-0.2l-0.2-0.3l-0.1-0.4l0-0.4l0.2-0.3
		l0.7-0.3l0.8-0.1l0.7-0.2V468L605,468z M608.9,465.3v-0.8H608v7.6h0.9v-3l0.3,0.5l0.4,0.3l0.9,0.2l0.9-0.2l0.7-0.6l0.4-0.9l0.2-1.2
		l-0.2-1.2L612,465l-0.7-0.6l-0.9-0.2l-0.5,0.1l-0.4,0.2l-0.4,0.3L608.9,465.3L608.9,465.3z M610.3,469.3l-0.6-0.1l-0.4-0.4
		l-0.3-0.7l-0.1-0.9l0.1-0.9l0.3-0.7l0.4-0.4l0.6-0.1l0.6,0.1l0.4,0.4l0.3,0.7l0.1,0.9l-0.1,0.9l-0.3,0.7l-0.4,0.4L610.3,469.3
		L610.3,469.3z M614.9,467.4h3.6l0-0.4l-0.2-1.2l-0.4-0.9l-0.7-0.5l-1-0.2l-0.9,0.2l-0.7,0.6l-0.5,0.9l-0.2,1.2l0.2,1.3l0.5,0.9
		l0.7,0.6l0.9,0.2l0.8-0.1l0.7-0.3l0.5-0.5l0.3-0.7h-0.9l-0.2,0.4l-0.3,0.3l-0.8,0.2l-0.6-0.1l-0.4-0.4l-0.3-0.6L614.9,467.4
		L614.9,467.4L614.9,467.4z M614.9,466.7l0.1-0.7l0.3-0.5l0.4-0.3l0.5-0.1l0.5,0.1l0.4,0.3l0.3,0.5l0.1,0.7H614.9L614.9,466.7z
		 M630.2,467.3l-0.2,0.9l-0.3,0.6l-0.5,0.4l-0.6,0.1l-0.7-0.2l-0.5-0.6l-0.3-0.9l-0.1-1.2l0.1-1.2l0.3-0.9l0.5-0.6l0.7-0.2l0.5,0.1
		l0.4,0.3l0.3,0.5l0.2,0.6h1l-0.3-1l-0.5-0.7l-0.7-0.5l-0.9-0.2l-1.1,0.3l-0.8,0.7l-0.5,1.2l-0.2,1.6l0.2,1.6l0.5,1.2l0.8,0.7
		l1.1,0.2l0.9-0.2l0.8-0.5l0.5-0.9l0.3-1.2H630.2L630.2,467.3z M633.3,463.7h0.6l0.9-1.1l0.9,1.1h0.6l-1-1.7h-1L633.3,463.7
		L633.3,463.7z M635.9,469.2L635.9,469.2l0.1,0.4l0.2,0.2l0.6,0.2l0.5-0.1v-0.7l-0.2,0l-0.3-0.1l-0.1-0.4v-2.8l-0.1-0.7l-0.4-0.5
		l-0.6-0.3l-0.9-0.1l-0.9,0.1l-0.6,0.3l-0.4,0.5l-0.1,0.7v0.1h0.8l0.1-0.4l0.2-0.3l0.4-0.2l0.5-0.1l0.5,0.1l0.4,0.2l0.2,0.3l0.1,0.4
		l0,0.4l-0.2,0.2l-0.4,0.1l-0.8,0.1l-0.9,0.2l-0.6,0.3l-0.4,0.5l-0.1,0.8l0.1,0.7l0.3,0.5l0.5,0.3l0.7,0.1l0.9-0.2L635.9,469.2
		L635.9,469.2z M635.8,468l-0.1,0.5l-0.3,0.4l-0.5,0.3l-0.6,0.1l-0.4-0.1l-0.3-0.2l-0.2-0.3l-0.1-0.4l0-0.4l0.2-0.3l0.7-0.3l0.8-0.1
		l0.7-0.2V468L635.8,468z M639.6,469.1l0.7,0.8l0.9,0.3l0.9-0.2l0.7-0.6l0.4-0.9l0.2-1.2l-0.2-1.2l-0.4-0.9l-0.7-0.6l-0.9-0.2
		l-0.9,0.3l-0.4,0.3l-0.3,0.4v-2.7h-0.9v7.3h0.9V469.1L639.6,469.1z M642.4,467.2l-0.1,0.9l-0.3,0.7l-0.4,0.4l-0.5,0.1l-0.6-0.1
		l-0.4-0.4l-0.3-0.7l-0.1-0.9l0.1-0.9l0.3-0.7l0.4-0.4l0.6-0.1l0.5,0.1l0.4,0.4l0.3,0.7L642.4,467.2L642.4,467.2z M646.7,463.3v5.8
		h-1.8v0.8h4.6v-0.8h-1.8v-6.6h-2.3v0.8H646.7L646.7,463.3z M651.8,467.4h3.6l0-0.4l-0.2-1.2l-0.5-0.9l-0.7-0.5l-0.9-0.2l-0.9,0.2
		l-0.7,0.6l-0.5,0.9l-0.2,1.2l0.2,1.3l0.5,0.9l0.7,0.6l0.9,0.2l0.8-0.1l0.7-0.3l0.5-0.5l0.3-0.7h-0.9l-0.2,0.4l-0.3,0.3l-0.8,0.2
		l-0.6-0.1l-0.4-0.4l-0.3-0.6L651.8,467.4L651.8,467.4L651.8,467.4z M651.8,466.7l0.1-0.7l0.3-0.5l0.4-0.3l0.6-0.1l0.5,0.1l0.4,0.3
		l0.3,0.5l0.1,0.7H651.8L651.8,466.7z M663.3,469.9h4.5v-0.9h-3.6v-2.4h3.2v-0.8h-3.2v-2.1h3.5v-0.9h-4.4V469.9L663.3,469.9z
		 M669.1,469.9h0.8v-3.7l0.1-0.6l0.2-0.4l0.2-0.2l0.3-0.1l0.2,0.1l0.2,0.2l0.1,0.3l0,0.5v3.8h0.8v-3.7l0.1-0.5l0.2-0.4l0.2-0.2
		l0.3-0.1l0.2,0.1l0.2,0.2l0.1,0.8v3.8h0.8v-3.8l-0.1-0.8l-0.2-0.6l-0.3-0.4l-0.5-0.1l-0.6,0.2l-0.5,0.6l-0.4-0.6l-0.6-0.2l-0.6,0.2
		l-0.4,0.6v-0.6h-0.8V469.9L669.1,469.9z M676.5,469.1l0.7,0.8l0.9,0.3l0.9-0.2l0.7-0.6l0.4-0.9l0.2-1.2l-0.2-1.2l-0.4-0.9l-0.7-0.6
		l-0.9-0.2l-0.9,0.3l-0.4,0.3l-0.3,0.4v-2.7h-0.9v7.3h0.9V469.1L676.5,469.1z M679.3,467.2l-0.1,0.9l-0.3,0.7l-0.4,0.4l-0.6,0.1
		l-0.6-0.1l-0.4-0.4l-0.3-0.7l-0.1-0.9l0.1-0.9l0.3-0.7l0.4-0.4l0.6-0.1l0.6,0.1l0.4,0.4l0.3,0.7L679.3,467.2L679.3,467.2z
		 M682.1,469.9h0.9v-3.1l0.1-0.8l0.3-0.5l0.4-0.3l0.6-0.1l0.4,0.1l0.3,0.2l0.2,0.3l0.1,0.5h0.9l-0.1-0.8l-0.3-0.6l-0.6-0.4l-0.8-0.1
		l-0.5,0.1l-0.5,0.2l-0.4,0.3l-0.3,0.5v-0.9h-0.8V469.9L682.1,469.9z M691.2,469.2L691.2,469.2l0.1,0.4l0.2,0.2l0.6,0.2l0.5-0.1
		v-0.7l-0.2,0l-0.3-0.1l-0.1-0.4v-2.8l-0.1-0.7l-0.4-0.5l-0.6-0.3l-0.9-0.1l-0.9,0.1l-0.6,0.3l-0.4,0.5L688,466v0.1h0.8l0.1-0.4
		l0.2-0.3l0.4-0.2l0.5-0.1l0.5,0.1l0.4,0.2l0.2,0.3l0.1,0.4l0,0.4l-0.2,0.2l-0.4,0.1l-0.8,0.1l-0.9,0.2l-0.6,0.3l-0.4,0.5l-0.1,0.8
		l0.1,0.7l0.3,0.5l0.5,0.3l0.7,0.1l0.9-0.2L691.2,469.2L691.2,469.2z M691.1,468l-0.1,0.5l-0.3,0.4l-0.5,0.3l-0.6,0.1l-0.4-0.1
		l-0.3-0.2l-0.2-0.3l-0.1-0.4l0-0.4l0.2-0.3l0.7-0.3l0.8-0.1l0.7-0.2V468L691.1,468z M697.8,464.4l-1.6,4.5l-1.5-4.5h-1l2.1,5.8
		l-0.2,0.5l-0.3,0.3l-0.5,0.1l-0.8-0.1v0.9l0.9,0.1l0.6-0.1l0.4-0.3l0.3-0.4l0.3-0.6l2.2-6.2H697.8L697.8,464.4z M703.5,469.2
		L703.5,469.2l0.1,0.4l0.2,0.2l0.6,0.2l0.5-0.1v-0.7l-0.2,0l-0.3-0.1l-0.1-0.4v-2.8l-0.1-0.7l-0.4-0.5l-0.6-0.3l-0.9-0.1l-0.9,0.1
		l-0.6,0.3l-0.4,0.5l-0.1,0.7v0.1h0.8l0.1-0.4l0.2-0.3l0.4-0.2l0.5-0.1l0.5,0.1l0.4,0.2l0.2,0.3l0.1,0.4l0,0.4l-0.2,0.2l-0.4,0.1
		l-0.8,0.1l-0.9,0.2l-0.6,0.3l-0.4,0.5l-0.1,0.8l0.1,0.7l0.3,0.5l0.5,0.3l0.7,0.1l0.9-0.2L703.5,469.2L703.5,469.2z M703.4,468
		l-0.1,0.5l-0.3,0.4l-0.5,0.3l-0.6,0.1l-0.4-0.1l-0.3-0.2l-0.2-0.3l-0.1-0.4l0-0.4l0.2-0.3l0.7-0.3l0.8-0.1l0.7-0.2V468L703.4,468z
		 M710.6,469.7v-5.2h-0.9v0.9l-0.7-0.8l-0.4-0.2l-0.5-0.1l-0.9,0.2l-0.7,0.6l-0.4,0.9l-0.2,1.2l0.2,1.2l0.4,0.9l0.7,0.6l0.9,0.2
		l0.5-0.1l0.4-0.2l0.7-0.8v0.8l-0.1,0.6l-0.2,0.4l-0.4,0.3l-0.6,0.1l-0.6-0.1l-0.4-0.2l-0.2-0.3l-0.1-0.4h-0.9v0l0.1,0.7l0.4,0.5
		l0.7,0.3l0.9,0.1l1.1-0.2l0.7-0.4l0.4-0.7L710.6,469.7L710.6,469.7z M707,467.2l0.1-0.9l0.3-0.7l0.4-0.4l0.6-0.1l0.6,0.1l0.4,0.4
		l0.3,0.7l0.1,0.9l-0.1,0.9l-0.3,0.7l-0.4,0.4l-0.6,0.1l-0.6-0.1l-0.4-0.4l-0.3-0.7L707,467.2L707,467.2z M713.3,467.4h3.6l0-0.4
		l-0.2-1.2l-0.4-0.9l-0.7-0.5l-0.9-0.2l-0.9,0.2L713,465l-0.5,0.9l-0.2,1.2l0.2,1.3l0.5,0.9l0.7,0.6l0.9,0.2l0.8-0.1l0.7-0.3
		l0.5-0.5l0.3-0.7h-0.9l-0.2,0.4l-0.3,0.3l-0.8,0.2l-0.6-0.1l-0.4-0.4l-0.3-0.6L713.3,467.4L713.3,467.4L713.3,467.4z M713.3,466.7
		l0.1-0.7l0.3-0.5l0.4-0.3l0.6-0.1l0.5,0.1l0.4,0.3l0.3,0.5l0.1,0.7H713.3L713.3,466.7z"/>
</g>
</svg>
