<?xml version="1.0" encoding="utf-8" ?><!DOCTYPE svg PUBLIC "-//W3C//DTD SVG 1.1//EN" "http://www.w3.org/Graphics/SVG/1.1/DTD/svg11.dtd" 
[ <!ATTLIST svg 
  xmlns:dsy CDATA #FIXED "http://www.3ds.com/print"  
    dsy:text-version CDATA #IMPLIED > 

  <!ATTLIST text 
  xmlns:dsy CDATA #FIXED "http://www.3ds.com/print" 
    dsy:text-version CDATA #IMPLIED > 
]><svg xmlns="http://www.w3.org/2000/svg" xmlns:dsy="http://www.3ds.com/print" dsy:text-version="18000" width="297" height="210" viewBox="0 0 297 210" version="1.1"><g stroke="rgb(0, 0, 0)" stroke-width="0.13" stroke-linecap="butt" stroke-linejoin="miter" fill="none"><path d="M 133.712 89.772 L 147.348 89.772"/><path d="M 133.712 19.772 L 147.348 19.772"/></g><g stroke="rgb(0, 0, 0)" stroke-width="0.35" stroke-linecap="butt" stroke-linejoin="miter" fill="none"><path d="M 59.0963 122.993 L 60.8017 14.006"/><path d="M 60.8017 14.006 L 54.8024 13.9122"/><path d="M 54.8024 13.9122 L 54.3112 45.3083"/><path d="M 54.3112 45.3083 L 26.3146 44.8703"/><path d="M 26.3146 44.8703 L 26.8058 13.4741"/><path d="M 26.8058 13.4741 L 20.8066 13.3802"/><path d="M 20.8066 13.3802 L 19.1012 122.367"/><circle cx="36.7577" cy="81.964" r="3.2"/><path d="M 53.0971 122.899 L 59.0963 122.993"/><path d="M 19.1012 122.367 L 25.1005 122.461"/><path d="M 53.0971 122.899 A 14 14 0 1 0 25.1005 122.461"/><path d="M 128.087 128.572 L 132.559 125.037"/><path d="M 155.997 163.872 L 128.087 128.572"/><path d="M 155.493 130.852 A 14 14 0 1 0 183.493 130.852"/><path d="M 155.493 130.852 L 155.493 100.852"/><path d="M 72.6929 100.852 L 155.493 100.852"/><path d="M 72.6929 100.852 L 72.6929 130.852"/><path d="M 72.6929 130.852 L 15.4929 130.852"/><path d="M 15.4929 195.852 L 15.4929 130.852"/><path d="M 15.4929 195.852 L 195.493 195.852"/><path d="M 195.493 130.852 L 195.493 195.852"/><path d="M 195.493 130.852 L 183.493 130.852"/><path d="M 132.559 125.037 L 160.468 160.337"/><path d="M 160.468 160.337 L 155.997 163.872"/><circle cx="99.3876" cy="64.403" r="7.64999"/><path d="M 81.8616 12.772 L 81.8616 19.772"/><path d="M 81.8616 12.772 L 126.562 12.772"/><path d="M 126.562 19.772 L 126.562 12.772"/><path d="M 126.562 19.772 L 131.712 19.772"/><path d="M 131.712 89.772 L 131.712 19.772"/><path d="M 131.712 89.772 L 76.7116 89.772"/><path d="M 76.7116 19.772 L 76.7116 89.772"/><path d="M 76.7116 19.772 L 81.8616 19.772"/></g><g stroke="rgb(0, 0, 0)" stroke-width="0.13" stroke-linecap="butt" stroke-linejoin="miter" fill="none"><path d="M 143.348 57.341 L 143.348 56.8316 L 142.516 56.6652 L 141.739 56.3727 L 141.018 55.9592 L 140.342 55.4195 L 139.924 55.4195 L 139.924 57.8201 L 140.383 57.8201 L 140.383 55.9037 L 141.064 56.4584 L 141.775 56.877 L 142.531 57.1695 L 143.348 57.341 L 143.348 57.341 z M 141.639 54.1194 L 142.43 54.0437 L 142.995 53.8067 L 143.338 53.4285 L 143.449 52.904 L 143.338 52.3845 L 142.995 52.0063 L 142.43 51.7743 L 141.639 51.6936 L 140.852 51.7743 L 140.539 51.8701 L 140.282 52.0063 L 139.939 52.3845 L 139.823 52.904 L 139.939 53.4285 L 140.287 53.8067 L 140.852 54.0437 L 141.639 54.1194 L 141.639 54.1194 z M 141.639 53.6352 L 141.028 53.5949 L 140.59 53.4688 L 140.332 53.2419 L 140.242 52.904 L 140.332 52.5711 L 140.59 52.3442 L 141.028 52.2181 L 141.639 52.1777 L 142.254 52.2181 L 142.693 52.3442 L 142.95 52.5711 L 143.036 52.904 L 142.95 53.2419 L 142.693 53.4688 L 142.254 53.5949 L 141.639 53.6352 L 141.639 53.6352 z" stroke="none" fill-rule="evenodd" fill="rgb(0, 0, 0)"/><path d="M 145.866 21.7038 L 145.348 19.772 L 144.831 21.7038"/><path d="M 144.831 87.8401 L 145.348 89.772 L 145.866 87.8401"/><path d="M 145.348 89.772 L 145.348 19.772"/></g><g stroke="rgb(0, 0, 0)" stroke-width="0.13" stroke-linecap="butt" stroke-linejoin="miter" fill="none"><path d="M 58.5261 164.794 L 58.4685 165.036 L 58.3734 165.209 L 58.2408 165.316 L 58.0852 165.351 L 57.8979 165.299 L 57.7509 165.143 L 57.6529 164.889 L 57.6212 164.538 L 57.6529 164.189 L 57.748 163.933 L 57.895 163.777 L 58.0852 163.722 L 58.2235 163.751 L 58.3417 163.832 L 58.4339 163.962 L 58.4973 164.14 L 58.7711 164.14 L 58.6846 163.866 L 58.5348 163.659 L 58.3301 163.529 L 58.0852 163.483 L 57.7797 163.555 L 57.5463 163.757 L 57.3964 164.088 L 57.3446 164.538 L 57.3964 164.987 L 57.5463 165.319 L 57.7797 165.523 L 58.0852 165.593 L 58.3532 165.538 L 58.5693 165.385 L 58.7221 165.134 L 58.8028 164.794 L 58.5261 164.794 L 58.5261 164.794 z M 59.7019 163.682 L 59.7019 165.325 L 59.1803 165.325 L 59.1803 165.538 L 60.4742 165.538 L 60.4742 165.325 L 59.9555 165.325 L 59.9555 163.469 L 59.3042 163.469 L 59.3042 163.682 L 59.7019 163.682 L 59.7019 163.682 z M 62.1255 163.99 L 61.8719 163.99 L 61.8719 164.884 L 61.8431 165.091 L 61.7595 165.241 L 61.6299 165.333 L 61.4598 165.362 L 61.3244 165.339 L 61.2379 165.27 L 61.1889 165.152 L 61.1774 164.985 L 61.1774 163.99 L 60.9238 163.99 L 60.9238 165.008 L 60.9324 165.212 L 60.9872 165.382 L 61.1544 165.538 L 61.4224 165.593 L 61.5665 165.572 L 61.6904 165.521 L 61.797 165.431 L 61.8835 165.302 L 61.8835 165.538 L 62.1255 165.538 L 62.1255 163.99 L 62.1255 163.99 z M 63.0074 164.258 L 63.0074 165.034 L 63.0247 165.284 L 63.1054 165.457 L 63.2667 165.558 L 63.5405 165.593 L 63.8402 165.578 L 63.8402 165.359 L 63.6212 165.377 L 63.4224 165.353 L 63.3157 165.281 L 63.2696 165.16 L 63.261 164.99 L 63.261 164.258 L 63.8402 164.258 L 63.8402 164.042 L 63.261 164.042 L 63.261 163.59 L 63.0074 163.59 L 63.0074 164.042 L 62.5693 164.042 L 62.5693 164.258 L 63.0074 164.258 L 63.0074 164.258 z M 65.3878 164.503 L 65.6385 164.503 L 65.5866 164.273 L 65.4627 164.091 L 65.2696 163.979 L 65.0189 163.936 L 64.7422 163.993 L 64.5319 164.155 L 64.3993 164.417 L 64.3532 164.768 L 64.3964 165.117 L 64.5261 165.377 L 64.7307 165.538 L 65.0103 165.593 L 65.2581 165.549 L 65.4512 165.428 L 65.5837 165.238 L 65.6414 164.985 L 65.3993 164.985 L 65.3561 165.146 L 65.2754 165.267 L 65.1601 165.342 L 65.0189 165.365 L 64.8431 165.328 L 64.7163 165.212 L 64.6385 165.025 L 64.6126 164.76 L 64.6385 164.5 L 64.7192 164.313 L 64.8489 164.198 L 65.0189 164.158 L 65.1688 164.183 L 65.2812 164.25 L 65.3561 164.359 L 65.3878 164.503 L 65.3878 164.503 z M 66.1371 165.538 L 66.3907 165.538 L 66.3907 164.645 L 66.4166 164.44 L 66.5002 164.29 L 66.6299 164.198 L 66.8028 164.163 L 66.9411 164.192 L 67.0275 164.27 L 67.0708 164.4 L 67.0852 164.572 L 67.0852 165.538 L 67.3388 165.538 L 67.3388 164.521 L 67.3273 164.316 L 67.2754 164.146 L 67.1054 163.99 L 66.8402 163.936 L 66.6961 163.956 L 66.5722 164.011 L 66.4685 164.097 L 66.3907 164.215 L 66.3907 163.469 L 66.1371 163.469 L 66.1371 165.538 L 66.1371 165.538 z" stroke="none" fill-rule="evenodd" fill="rgb(0, 0, 0)"/></g><g stroke="rgb(0, 0, 0)" stroke-width="0.13" stroke-linecap="butt" stroke-linejoin="miter" fill="none"><path d="M 57.1832 168.993 L 57.4483 168.993 L 57.6587 168.405 L 58.4569 168.405 L 58.6673 168.993 L 58.9382 168.993 L 58.2062 166.99 L 57.9123 166.99 L 57.1832 168.993 L 57.1832 168.993 z M 57.7509 168.16 L 58.0592 167.279 L 58.3676 168.16 L 57.7509 168.16 L 57.7509 168.16 z M 59.382 168.993 L 59.7797 168.391 L 60.1889 168.993 L 60.4944 168.993 L 59.9411 168.195 L 60.4627 167.446 L 60.1688 167.446 L 59.7912 168.008 L 59.4137 167.446 L 59.114 167.446 L 59.627 168.198 L 59.0852 168.993 L 59.382 168.993 L 59.382 168.993 z M 61.1544 168.293 L 62.1688 168.293 L 62.1716 168.175 L 62.1255 167.843 L 61.9987 167.596 L 61.797 167.446 L 61.529 167.391 L 61.2667 167.449 L 61.065 167.61 L 60.9353 167.872 L 60.8892 168.218 L 60.9324 168.572 L 61.0621 168.832 L 61.261 168.993 L 61.5203 169.048 L 61.7451 169.011 L 61.9296 168.913 L 62.065 168.757 L 62.1428 168.549 L 61.8921 168.549 L 61.8402 168.665 L 61.7653 168.751 L 61.552 168.82 L 61.3878 168.789 L 61.2639 168.688 L 61.1832 168.523 L 61.1544 168.302 L 61.1544 168.293 L 61.1544 168.293 z M 61.1544 168.08 L 61.1861 167.881 L 61.2639 167.734 L 61.382 167.645 L 61.5376 167.613 L 61.6904 167.645 L 61.8085 167.734 L 61.8806 167.881 L 61.9065 168.08 L 61.1544 168.08 L 61.1544 168.08 z M 64.9065 167.137 L 64.9065 168.78 L 64.3849 168.78 L 64.3849 168.993 L 65.6788 168.993 L 65.6788 168.78 L 65.1601 168.78 L 65.1601 166.924 L 64.5088 166.924 L 64.5088 167.137 L 64.9065 167.137 L 64.9065 167.137 z M 66.359 168.293 L 67.3734 168.293 L 67.3763 168.175 L 67.3301 167.843 L 67.2033 167.596 L 67.0016 167.446 L 66.7336 167.391 L 66.4714 167.449 L 66.2696 167.61 L 66.1399 167.872 L 66.0938 168.218 L 66.1371 168.572 L 66.2667 168.832 L 66.4656 168.993 L 66.725 169.048 L 66.9497 169.011 L 67.1342 168.913 L 67.2696 168.757 L 67.3474 168.549 L 67.0967 168.549 L 67.0448 168.665 L 66.9699 168.751 L 66.7567 168.82 L 66.5924 168.789 L 66.4685 168.688 L 66.3878 168.523 L 66.359 168.302 L 66.359 168.293 L 66.359 168.293 z M 66.359 168.08 L 66.3907 167.881 L 66.4685 167.734 L 66.5866 167.645 L 66.7422 167.613 L 66.895 167.645 L 67.0131 167.734 L 67.0852 167.881 L 67.1111 168.08 L 66.359 168.08 L 66.359 168.08 z M 68.3359 168.993 L 68.6039 168.993 L 69.1688 167.446 L 68.9065 167.446 L 68.4714 168.694 L 68.0275 167.446 L 67.7624 167.446 L 68.3359 168.993 L 68.3359 168.993 z M 70.382 168.78 L 70.382 167.498 L 69.7307 167.498 L 69.7307 167.714 L 70.1284 167.714 L 70.1284 168.78 L 69.6097 168.78 L 69.6097 168.993 L 70.9065 168.993 L 70.9065 168.78 L 70.382 168.78 L 70.382 168.78 z M 70.3907 166.924 L 70.1227 166.924 L 70.1227 167.212 L 70.3907 167.212 L 70.3907 166.924 L 70.3907 166.924 z M 71.5636 168.293 L 72.578 168.293 L 72.5809 168.175 L 72.5348 167.843 L 72.408 167.596 L 72.2062 167.446 L 71.9382 167.391 L 71.676 167.449 L 71.4742 167.61 L 71.3446 167.872 L 71.2984 168.218 L 71.3417 168.572 L 71.4714 168.832 L 71.6702 168.993 L 71.9296 169.048 L 72.1544 169.011 L 72.3388 168.913 L 72.4742 168.757 L 72.552 168.549 L 72.3013 168.549 L 72.2495 168.665 L 72.1745 168.751 L 71.9613 168.82 L 71.797 168.789 L 71.6731 168.688 L 71.5924 168.523 L 71.5636 168.302 L 71.5636 168.293 L 71.5636 168.293 z M 71.5636 168.08 L 71.5953 167.881 L 71.6731 167.734 L 71.7912 167.645 L 71.9469 167.613 L 72.0996 167.645 L 72.2178 167.734 L 72.2898 167.881 L 72.3157 168.08 L 71.5636 168.08 L 71.5636 168.08 z M 73.1716 168.993 L 73.4252 168.993 L 73.4252 168.108 L 73.4512 167.895 L 73.529 167.743 L 73.6558 167.65 L 73.8258 167.619 L 73.9526 167.639 L 74.0477 167.696 L 74.1054 167.794 L 74.1255 167.927 L 74.382 167.927 L 74.3474 167.694 L 74.2523 167.526 L 74.0938 167.426 L 73.8777 167.391 L 73.7307 167.414 L 73.6039 167.472 L 73.4915 167.57 L 73.4022 167.702 L 73.4022 167.446 L 73.1716 167.446 L 73.1716 168.993 L 73.1716 168.993 z" stroke="none" fill-rule="evenodd" fill="rgb(0, 0, 0)"/></g><g stroke="rgb(0, 0, 0)" stroke-width="0.13" stroke-linecap="butt" stroke-linejoin="miter" fill="none"><path d="M 57.7019 171.14 L 57.7019 170.901 L 57.4483 170.901 L 57.4483 173.048 L 57.7019 173.048 L 57.7019 172.212 L 57.7912 172.348 L 57.8921 172.437 L 58.1457 172.503 L 58.3878 172.449 L 58.578 172.284 L 58.7019 172.025 L 58.748 171.673 L 58.7019 171.325 L 58.578 171.065 L 58.3878 170.904 L 58.1457 170.846 L 58.0074 170.864 L 57.8892 170.918 L 57.7884 171.011 L 57.7019 171.14 L 57.7019 171.14 z M 58.1025 172.276 L 57.9324 172.238 L 57.8085 172.123 L 57.7307 171.936 L 57.7048 171.673 L 57.7307 171.414 L 57.8085 171.227 L 57.9324 171.114 L 58.1025 171.074 L 58.2581 171.114 L 58.382 171.23 L 58.4598 171.417 L 58.4886 171.673 L 58.4598 171.933 L 58.382 172.123 L 58.2581 172.238 L 58.1025 172.276 L 58.1025 172.276 z M 59.9728 172.235 L 59.9728 170.953 L 59.3215 170.953 L 59.3215 171.169 L 59.7192 171.169 L 59.7192 172.235 L 59.2005 172.235 L 59.2005 172.449 L 60.4973 172.449 L 60.4973 172.235 L 59.9728 172.235 L 59.9728 172.235 z M 59.9814 170.379 L 59.7134 170.379 L 59.7134 170.668 L 59.9814 170.668 L 59.9814 170.379 L 59.9814 170.379 z M 61.7336 170.691 L 61.4454 170.201 L 61.163 170.201 L 61.5636 170.691 L 61.7336 170.691 L 61.7336 170.691 z M 61.1544 171.748 L 62.1688 171.748 L 62.1716 171.63 L 62.1255 171.299 L 61.9987 171.051 L 61.797 170.901 L 61.529 170.846 L 61.2667 170.904 L 61.065 171.065 L 60.9353 171.328 L 60.8892 171.673 L 60.9324 172.028 L 61.0621 172.287 L 61.261 172.449 L 61.5203 172.503 L 61.7451 172.466 L 61.9296 172.368 L 62.065 172.212 L 62.1428 172.005 L 61.8921 172.005 L 61.8402 172.12 L 61.7653 172.206 L 61.552 172.276 L 61.3878 172.244 L 61.2639 172.143 L 61.1832 171.979 L 61.1544 171.757 L 61.1544 171.748 L 61.1544 171.748 z M 61.1544 171.535 L 61.1861 171.336 L 61.2639 171.189 L 61.382 171.1 L 61.5376 171.068 L 61.6904 171.1 L 61.8085 171.189 L 61.8806 171.336 L 61.9065 171.535 L 61.1544 171.535 L 61.1544 171.535 z M 63.6529 171.414 L 63.9036 171.414 L 63.8518 171.183 L 63.7278 171.002 L 63.5348 170.889 L 63.284 170.846 L 63.0074 170.904 L 62.797 171.065 L 62.6644 171.328 L 62.6183 171.679 L 62.6616 172.028 L 62.7912 172.287 L 62.9958 172.449 L 63.2754 172.503 L 63.5232 172.46 L 63.7163 172.339 L 63.8489 172.149 L 63.9065 171.895 L 63.6644 171.895 L 63.6212 172.057 L 63.5405 172.178 L 63.4252 172.253 L 63.284 172.276 L 63.1082 172.238 L 62.9814 172.123 L 62.9036 171.936 L 62.8777 171.67 L 62.9036 171.411 L 62.9843 171.224 L 63.114 171.109 L 63.284 171.068 L 63.4339 171.094 L 63.5463 171.16 L 63.6212 171.27 L 63.6529 171.414 L 63.6529 171.414 z M 64.6241 171.748 L 65.6385 171.748 L 65.6414 171.63 L 65.5953 171.299 L 65.4685 171.051 L 65.2667 170.901 L 64.9987 170.846 L 64.7365 170.904 L 64.5348 171.065 L 64.4051 171.328 L 64.359 171.673 L 64.4022 172.028 L 64.5319 172.287 L 64.7307 172.449 L 64.9901 172.503 L 65.2149 172.466 L 65.3993 172.368 L 65.5348 172.212 L 65.6126 172.005 L 65.3618 172.005 L 65.31 172.12 L 65.235 172.206 L 65.0218 172.276 L 64.8575 172.244 L 64.7336 172.143 L 64.6529 171.979 L 64.6241 171.757 L 64.6241 171.748 L 64.6241 171.748 z M 64.6241 171.535 L 64.6558 171.336 L 64.7336 171.189 L 64.8518 171.1 L 65.0074 171.068 L 65.1601 171.1 L 65.2783 171.189 L 65.3503 171.336 L 65.3763 171.535 L 64.6241 171.535 L 64.6241 171.535 z M 68.4166 172.449 L 68.6788 172.449 L 68.6788 170.434 L 68.4829 170.434 L 68.431 170.61 L 68.3273 170.728 L 68.1688 170.797 L 67.9497 170.82 L 67.9497 171.025 L 68.4166 171.025 L 68.4166 172.449 L 68.4166 172.449 z" stroke="none" fill-rule="evenodd" fill="rgb(0, 0, 0)"/></g><g stroke="rgb(0, 0, 0)" stroke-width="0.13" stroke-linecap="butt" stroke-linejoin="miter" fill="none"><path d="M 98.5261 34.7944 L 98.4685 35.0365 L 98.3734 35.2094 L 98.2408 35.316 L 98.0852 35.3506 L 97.8979 35.2987 L 97.7509 35.1431 L 97.6529 34.8895 L 97.6212 34.5379 L 97.6529 34.1892 L 97.748 33.9327 L 97.895 33.7771 L 98.0852 33.7223 L 98.2235 33.7512 L 98.3417 33.8318 L 98.4339 33.9615 L 98.4973 34.1402 L 98.7711 34.1402 L 98.6846 33.8664 L 98.5348 33.6589 L 98.3301 33.5293 L 98.0852 33.4832 L 97.7797 33.5552 L 97.5463 33.7569 L 97.3964 34.0883 L 97.3446 34.5379 L 97.3964 34.9875 L 97.5463 35.3189 L 97.7797 35.5235 L 98.0852 35.5927 L 98.3532 35.5379 L 98.5693 35.3852 L 98.7221 35.1344 L 98.8028 34.7944 L 98.5261 34.7944 L 98.5261 34.7944 z M 99.7019 33.682 L 99.7019 35.3246 L 99.1803 35.3246 L 99.1803 35.5379 L 100.474 35.5379 L 100.474 35.3246 L 99.9555 35.3246 L 99.9555 33.4687 L 99.3042 33.4687 L 99.3042 33.682 L 99.7019 33.682 L 99.7019 33.682 z M 102.126 33.9904 L 101.872 33.9904 L 101.872 34.8837 L 101.843 35.0912 L 101.76 35.2411 L 101.63 35.3333 L 101.46 35.3621 L 101.324 35.3391 L 101.238 35.2699 L 101.189 35.1517 L 101.177 34.9846 L 101.177 33.9904 L 100.924 33.9904 L 100.924 35.0076 L 100.932 35.2122 L 100.987 35.3823 L 101.154 35.5379 L 101.422 35.5927 L 101.566 35.5725 L 101.69 35.5206 L 101.797 35.4313 L 101.883 35.3016 L 101.883 35.5379 L 102.126 35.5379 L 102.126 33.9904 L 102.126 33.9904 z M 103.007 34.2584 L 103.007 35.0336 L 103.025 35.2843 L 103.105 35.4572 L 103.267 35.5581 L 103.541 35.5927 L 103.84 35.5782 L 103.84 35.3592 L 103.621 35.3765 L 103.422 35.3535 L 103.316 35.2814 L 103.27 35.1604 L 103.261 34.9904 L 103.261 34.2584 L 103.84 34.2584 L 103.84 34.0422 L 103.261 34.0422 L 103.261 33.5898 L 103.007 33.5898 L 103.007 34.0422 L 102.569 34.0422 L 102.569 34.2584 L 103.007 34.2584 L 103.007 34.2584 z M 105.388 34.5033 L 105.638 34.5033 L 105.587 34.2728 L 105.463 34.0912 L 105.27 33.9788 L 105.019 33.9356 L 104.742 33.9932 L 104.532 34.1546 L 104.399 34.4169 L 104.353 34.7684 L 104.396 35.1172 L 104.526 35.3765 L 104.731 35.5379 L 105.01 35.5927 L 105.258 35.5494 L 105.451 35.4284 L 105.584 35.2382 L 105.641 34.9846 L 105.399 34.9846 L 105.356 35.146 L 105.275 35.267 L 105.16 35.3419 L 105.019 35.365 L 104.843 35.3275 L 104.716 35.2122 L 104.638 35.0249 L 104.613 34.7598 L 104.638 34.5004 L 104.719 34.3131 L 104.849 34.1978 L 105.019 34.1575 L 105.169 34.1834 L 105.281 34.2497 L 105.356 34.3592 L 105.388 34.5033 L 105.388 34.5033 z M 106.137 35.5379 L 106.391 35.5379 L 106.391 34.6445 L 106.417 34.4399 L 106.5 34.2901 L 106.63 34.1978 L 106.803 34.1633 L 106.941 34.1921 L 107.028 34.2699 L 107.071 34.3996 L 107.085 34.5725 L 107.085 35.5379 L 107.339 35.5379 L 107.339 34.5206 L 107.327 34.316 L 107.275 34.146 L 107.105 33.9904 L 106.84 33.9356 L 106.696 33.9558 L 106.572 34.0105 L 106.468 34.097 L 106.391 34.2151 L 106.391 33.4687 L 106.137 33.4687 L 106.137 35.5379 L 106.137 35.5379 z" stroke="none" fill-rule="evenodd" fill="rgb(0, 0, 0)"/></g><g stroke="rgb(0, 0, 0)" stroke-width="0.13" stroke-linecap="butt" stroke-linejoin="miter" fill="none"><path d="M 97.1832 38.9932 L 97.4483 38.9932 L 97.6587 38.4053 L 98.4569 38.4053 L 98.6673 38.9932 L 98.9382 38.9932 L 98.2062 36.9904 L 97.9123 36.9904 L 97.1832 38.9932 L 97.1832 38.9932 z M 97.7509 38.1604 L 98.0592 37.2785 L 98.3676 38.1604 L 97.7509 38.1604 L 97.7509 38.1604 z M 99.382 38.9932 L 99.7797 38.3909 L 100.189 38.9932 L 100.494 38.9932 L 99.9411 38.195 L 100.463 37.4457 L 100.169 37.4457 L 99.7912 38.0076 L 99.4137 37.4457 L 99.114 37.4457 L 99.627 38.1978 L 99.0852 38.9932 L 99.382 38.9932 L 99.382 38.9932 z M 101.154 38.293 L 102.169 38.293 L 102.172 38.1748 L 102.126 37.8434 L 101.999 37.5956 L 101.797 37.4457 L 101.529 37.3909 L 101.267 37.4486 L 101.065 37.61 L 100.935 37.8722 L 100.889 38.218 L 100.932 38.5725 L 101.062 38.8319 L 101.261 38.9932 L 101.52 39.048 L 101.745 39.0105 L 101.93 38.9126 L 102.065 38.7569 L 102.143 38.5494 L 101.892 38.5494 L 101.84 38.6647 L 101.765 38.7512 L 101.552 38.8203 L 101.388 38.7886 L 101.264 38.6878 L 101.183 38.5235 L 101.154 38.3016 L 101.154 38.293 L 101.154 38.293 z M 101.154 38.0797 L 101.186 37.8808 L 101.264 37.7339 L 101.382 37.6445 L 101.538 37.6128 L 101.69 37.6445 L 101.809 37.7339 L 101.881 37.8808 L 101.907 38.0797 L 101.154 38.0797 L 101.154 38.0797 z M 104.907 37.1373 L 104.907 38.78 L 104.385 38.78 L 104.385 38.9932 L 105.679 38.9932 L 105.679 38.78 L 105.16 38.78 L 105.16 36.9241 L 104.509 36.9241 L 104.509 37.1373 L 104.907 37.1373 L 104.907 37.1373 z M 106.359 38.293 L 107.373 38.293 L 107.376 38.1748 L 107.33 37.8434 L 107.203 37.5956 L 107.002 37.4457 L 106.734 37.3909 L 106.471 37.4486 L 106.27 37.61 L 106.14 37.8722 L 106.094 38.218 L 106.137 38.5725 L 106.267 38.8319 L 106.466 38.9932 L 106.725 39.048 L 106.95 39.0105 L 107.134 38.9126 L 107.27 38.7569 L 107.347 38.5494 L 107.097 38.5494 L 107.045 38.6647 L 106.97 38.7512 L 106.757 38.8203 L 106.592 38.7886 L 106.468 38.6878 L 106.388 38.5235 L 106.359 38.3016 L 106.359 38.293 L 106.359 38.293 z M 106.359 38.0797 L 106.391 37.8808 L 106.468 37.7339 L 106.587 37.6445 L 106.742 37.6128 L 106.895 37.6445 L 107.013 37.7339 L 107.085 37.8808 L 107.111 38.0797 L 106.359 38.0797 L 106.359 38.0797 z M 108.336 38.9932 L 108.604 38.9932 L 109.169 37.4457 L 108.907 37.4457 L 108.471 38.6935 L 108.028 37.4457 L 107.762 37.4457 L 108.336 38.9932 L 108.336 38.9932 z M 110.382 38.78 L 110.382 37.4976 L 109.731 37.4976 L 109.731 37.7137 L 110.128 37.7137 L 110.128 38.78 L 109.61 38.78 L 109.61 38.9932 L 110.907 38.9932 L 110.907 38.78 L 110.382 38.78 L 110.382 38.78 z M 110.391 36.9241 L 110.123 36.9241 L 110.123 37.2123 L 110.391 37.2123 L 110.391 36.9241 L 110.391 36.9241 z M 111.564 38.293 L 112.578 38.293 L 112.581 38.1748 L 112.535 37.8434 L 112.408 37.5956 L 112.206 37.4457 L 111.938 37.3909 L 111.676 37.4486 L 111.474 37.61 L 111.345 37.8722 L 111.298 38.218 L 111.342 38.5725 L 111.471 38.8319 L 111.67 38.9932 L 111.93 39.048 L 112.154 39.0105 L 112.339 38.9126 L 112.474 38.7569 L 112.552 38.5494 L 112.301 38.5494 L 112.249 38.6647 L 112.175 38.7512 L 111.961 38.8203 L 111.797 38.7886 L 111.673 38.6878 L 111.592 38.5235 L 111.564 38.3016 L 111.564 38.293 L 111.564 38.293 z M 111.564 38.0797 L 111.595 37.8808 L 111.673 37.7339 L 111.791 37.6445 L 111.947 37.6128 L 112.1 37.6445 L 112.218 37.7339 L 112.29 37.8808 L 112.316 38.0797 L 111.564 38.0797 L 111.564 38.0797 z M 113.172 38.9932 L 113.425 38.9932 L 113.425 38.1085 L 113.451 37.8953 L 113.529 37.7425 L 113.656 37.6503 L 113.826 37.6186 L 113.953 37.6388 L 114.048 37.6964 L 114.105 37.7944 L 114.126 37.927 L 114.382 37.927 L 114.347 37.6935 L 114.252 37.5264 L 114.094 37.4255 L 113.878 37.3909 L 113.731 37.414 L 113.604 37.4716 L 113.492 37.5696 L 113.402 37.7022 L 113.402 37.4457 L 113.172 37.4457 L 113.172 38.9932 L 113.172 38.9932 z" stroke="none" fill-rule="evenodd" fill="rgb(0, 0, 0)"/></g><g stroke="rgb(0, 0, 0)" stroke-width="0.13" stroke-linecap="butt" stroke-linejoin="miter" fill="none"><path d="M 97.7019 41.1402 L 97.7019 40.901 L 97.4483 40.901 L 97.4483 43.048 L 97.7019 43.048 L 97.7019 42.2122 L 97.7912 42.3477 L 97.8921 42.437 L 98.1457 42.5033 L 98.3878 42.4486 L 98.578 42.2843 L 98.7019 42.0249 L 98.748 41.6733 L 98.7019 41.3246 L 98.578 41.0653 L 98.3878 40.9039 L 98.1457 40.8463 L 98.0074 40.8636 L 97.8892 40.9183 L 97.7884 41.0105 L 97.7019 41.1402 L 97.7019 41.1402 z M 98.1025 42.2757 L 97.9324 42.2382 L 97.8085 42.1229 L 97.7307 41.9356 L 97.7048 41.6733 L 97.7307 41.414 L 97.8085 41.2267 L 97.9324 41.1143 L 98.1025 41.0739 L 98.2581 41.1143 L 98.382 41.2295 L 98.4598 41.4169 L 98.4886 41.6733 L 98.4598 41.9327 L 98.382 42.1229 L 98.2581 42.2382 L 98.1025 42.2757 L 98.1025 42.2757 z M 99.9728 42.2353 L 99.9728 40.9529 L 99.3215 40.9529 L 99.3215 41.169 L 99.7192 41.169 L 99.7192 42.2353 L 99.2005 42.2353 L 99.2005 42.4486 L 100.497 42.4486 L 100.497 42.2353 L 99.9728 42.2353 L 99.9728 42.2353 z M 99.9814 40.3794 L 99.7134 40.3794 L 99.7134 40.6676 L 99.9814 40.6676 L 99.9814 40.3794 L 99.9814 40.3794 z M 101.734 40.6906 L 101.445 40.2007 L 101.163 40.2007 L 101.564 40.6906 L 101.734 40.6906 L 101.734 40.6906 z M 101.154 41.7483 L 102.169 41.7483 L 102.172 41.6301 L 102.126 41.2987 L 101.999 41.0509 L 101.797 40.901 L 101.529 40.8463 L 101.267 40.9039 L 101.065 41.0653 L 100.935 41.3275 L 100.889 41.6733 L 100.932 42.0278 L 101.062 42.2872 L 101.261 42.4486 L 101.52 42.5033 L 101.745 42.4659 L 101.93 42.3679 L 102.065 42.2122 L 102.143 42.0048 L 101.892 42.0048 L 101.84 42.12 L 101.765 42.2065 L 101.552 42.2757 L 101.388 42.244 L 101.264 42.1431 L 101.183 41.9788 L 101.154 41.7569 L 101.154 41.7483 L 101.154 41.7483 z M 101.154 41.535 L 101.186 41.3362 L 101.264 41.1892 L 101.382 41.0999 L 101.538 41.0682 L 101.69 41.0999 L 101.809 41.1892 L 101.881 41.3362 L 101.907 41.535 L 101.154 41.535 L 101.154 41.535 z M 103.653 41.414 L 103.904 41.414 L 103.852 41.1834 L 103.728 41.0019 L 103.535 40.8895 L 103.284 40.8463 L 103.007 40.9039 L 102.797 41.0653 L 102.664 41.3275 L 102.618 41.6791 L 102.662 42.0278 L 102.791 42.2872 L 102.996 42.4486 L 103.275 42.5033 L 103.523 42.4601 L 103.716 42.3391 L 103.849 42.1488 L 103.907 41.8952 L 103.664 41.8952 L 103.621 42.0566 L 103.541 42.1777 L 103.425 42.2526 L 103.284 42.2757 L 103.108 42.2382 L 102.981 42.1229 L 102.904 41.9356 L 102.878 41.6705 L 102.904 41.4111 L 102.984 41.2238 L 103.114 41.1085 L 103.284 41.0682 L 103.434 41.0941 L 103.546 41.1604 L 103.621 41.2699 L 103.653 41.414 L 103.653 41.414 z M 104.624 41.7483 L 105.638 41.7483 L 105.641 41.6301 L 105.595 41.2987 L 105.468 41.0509 L 105.267 40.901 L 104.999 40.8463 L 104.736 40.9039 L 104.535 41.0653 L 104.405 41.3275 L 104.359 41.6733 L 104.402 42.0278 L 104.532 42.2872 L 104.731 42.4486 L 104.99 42.5033 L 105.215 42.4659 L 105.399 42.3679 L 105.535 42.2122 L 105.613 42.0048 L 105.362 42.0048 L 105.31 42.12 L 105.235 42.2065 L 105.022 42.2757 L 104.858 42.244 L 104.734 42.1431 L 104.653 41.9788 L 104.624 41.7569 L 104.624 41.7483 L 104.624 41.7483 z M 104.624 41.535 L 104.656 41.3362 L 104.734 41.1892 L 104.852 41.0999 L 105.007 41.0682 L 105.16 41.0999 L 105.278 41.1892 L 105.35 41.3362 L 105.376 41.535 L 104.624 41.535 L 104.624 41.535 z M 107.765 42.4486 L 109.14 42.4486 L 109.14 42.2007 L 108.053 42.2007 L 108.114 42.0653 L 108.218 41.9529 L 108.538 41.7483 L 108.708 41.6618 L 108.898 41.5379 L 109.033 41.3938 L 109.111 41.2238 L 109.14 41.0307 L 109.091 40.7886 L 108.956 40.5984 L 108.748 40.4774 L 108.48 40.4342 L 108.203 40.4831 L 107.993 40.6186 L 107.858 40.8347 L 107.811 41.12 L 107.811 41.1604 L 108.074 41.1604 L 108.074 41.1373 L 108.1 40.9414 L 108.177 40.7973 L 108.301 40.705 L 108.466 40.6733 L 108.633 40.7022 L 108.757 40.7742 L 108.837 40.8866 L 108.866 41.0278 L 108.846 41.1604 L 108.791 41.2728 L 108.699 41.3708 L 108.572 41.4572 L 108.402 41.5494 L 108.12 41.7281 L 107.921 41.9183 L 107.803 42.1488 L 107.765 42.4399 L 107.765 42.4486 L 107.765 42.4486 z" stroke="none" fill-rule="evenodd" fill="rgb(0, 0, 0)"/></g><g stroke="rgb(0, 0, 0)" stroke-width="0.13" stroke-linecap="butt" stroke-linejoin="miter" fill="none"><path d="M 28.5261 64.7944 L 28.4685 65.0365 L 28.3734 65.2094 L 28.2408 65.316 L 28.0852 65.3506 L 27.8979 65.2987 L 27.7509 65.1431 L 27.6529 64.8895 L 27.6212 64.5379 L 27.6529 64.1892 L 27.748 63.9327 L 27.895 63.7771 L 28.0852 63.7223 L 28.2235 63.7512 L 28.3417 63.8318 L 28.4339 63.9615 L 28.4973 64.1402 L 28.7711 64.1402 L 28.6846 63.8664 L 28.5348 63.6589 L 28.3301 63.5293 L 28.0852 63.4832 L 27.7797 63.5552 L 27.5463 63.7569 L 27.3964 64.0883 L 27.3446 64.5379 L 27.3964 64.9875 L 27.5463 65.3189 L 27.7797 65.5235 L 28.0852 65.5927 L 28.3532 65.5379 L 28.5693 65.3852 L 28.7221 65.1344 L 28.8028 64.7944 L 28.5261 64.7944 L 28.5261 64.7944 z M 29.7019 63.682 L 29.7019 65.3246 L 29.1803 65.3246 L 29.1803 65.5379 L 30.4742 65.5379 L 30.4742 65.3246 L 29.9555 65.3246 L 29.9555 63.4687 L 29.3042 63.4687 L 29.3042 63.682 L 29.7019 63.682 L 29.7019 63.682 z M 32.1255 63.9904 L 31.8719 63.9904 L 31.8719 64.8837 L 31.8431 65.0912 L 31.7595 65.2411 L 31.6299 65.3333 L 31.4598 65.3621 L 31.3244 65.3391 L 31.2379 65.2699 L 31.1889 65.1517 L 31.1774 64.9846 L 31.1774 63.9904 L 30.9238 63.9904 L 30.9238 65.0076 L 30.9324 65.2122 L 30.9872 65.3823 L 31.1543 65.5379 L 31.4224 65.5927 L 31.5665 65.5725 L 31.6904 65.5206 L 31.797 65.4313 L 31.8835 65.3016 L 31.8835 65.5379 L 32.1255 65.5379 L 32.1255 63.9904 L 32.1255 63.9904 z M 33.0074 64.2584 L 33.0074 65.0336 L 33.0247 65.2843 L 33.1054 65.4572 L 33.2667 65.5581 L 33.5405 65.5927 L 33.8402 65.5782 L 33.8402 65.3592 L 33.6212 65.3765 L 33.4224 65.3535 L 33.3157 65.2814 L 33.2696 65.1604 L 33.261 64.9904 L 33.261 64.2584 L 33.8402 64.2584 L 33.8402 64.0422 L 33.261 64.0422 L 33.261 63.5898 L 33.0074 63.5898 L 33.0074 64.0422 L 32.5693 64.0422 L 32.5693 64.2584 L 33.0074 64.2584 L 33.0074 64.2584 z M 35.3878 64.5033 L 35.6385 64.5033 L 35.5866 64.2728 L 35.4627 64.0912 L 35.2696 63.9788 L 35.0189 63.9356 L 34.7422 63.9932 L 34.5319 64.1546 L 34.3993 64.4169 L 34.3532 64.7684 L 34.3964 65.1172 L 34.5261 65.3765 L 34.7307 65.5379 L 35.0103 65.5927 L 35.2581 65.5494 L 35.4512 65.4284 L 35.5837 65.2382 L 35.6414 64.9846 L 35.3993 64.9846 L 35.3561 65.146 L 35.2754 65.267 L 35.1601 65.3419 L 35.0189 65.365 L 34.8431 65.3275 L 34.7163 65.2122 L 34.6385 65.0249 L 34.6126 64.7598 L 34.6385 64.5004 L 34.7192 64.3131 L 34.8489 64.1978 L 35.0189 64.1575 L 35.1688 64.1834 L 35.2812 64.2497 L 35.3561 64.3592 L 35.3878 64.5033 L 35.3878 64.5033 z M 36.1371 65.5379 L 36.3907 65.5379 L 36.3907 64.6445 L 36.4166 64.4399 L 36.5002 64.2901 L 36.6299 64.1978 L 36.8028 64.1633 L 36.9411 64.1921 L 37.0275 64.2699 L 37.0708 64.3996 L 37.0852 64.5725 L 37.0852 65.5379 L 37.3388 65.5379 L 37.3388 64.5206 L 37.3273 64.316 L 37.2754 64.146 L 37.1054 63.9904 L 36.8402 63.9356 L 36.6961 63.9558 L 36.5722 64.0105 L 36.4685 64.097 L 36.3907 64.2151 L 36.3907 63.4687 L 36.1371 63.4687 L 36.1371 65.5379 L 36.1371 65.5379 z" stroke="none" fill-rule="evenodd" fill="rgb(0, 0, 0)"/></g><g stroke="rgb(0, 0, 0)" stroke-width="0.13" stroke-linecap="butt" stroke-linejoin="miter" fill="none"><path d="M 28.5261 68.2497 L 28.4685 68.4918 L 28.3734 68.6647 L 28.2408 68.7713 L 28.0852 68.8059 L 27.8979 68.754 L 27.7509 68.5984 L 27.6529 68.3448 L 27.6212 67.9932 L 27.6529 67.6445 L 27.748 67.388 L 27.895 67.2324 L 28.0852 67.1777 L 28.2235 67.2065 L 28.3417 67.2872 L 28.4339 67.4169 L 28.4973 67.5956 L 28.7711 67.5956 L 28.6846 67.3218 L 28.5348 67.1143 L 28.3301 66.9846 L 28.0852 66.9385 L 27.7797 67.0105 L 27.5463 67.2123 L 27.3964 67.5437 L 27.3446 67.9932 L 27.3964 68.4428 L 27.5463 68.7742 L 27.7797 68.9788 L 28.0852 69.048 L 28.3532 68.9932 L 28.5693 68.8405 L 28.7221 68.5898 L 28.8028 68.2497 L 28.5261 68.2497 L 28.5261 68.2497 z M 29.1976 68.9932 L 29.4512 68.9932 L 29.4512 68.0999 L 29.4771 67.8953 L 29.5607 67.7454 L 29.6904 67.6532 L 29.8633 67.6186 L 30.0016 67.6474 L 30.0881 67.7252 L 30.1313 67.8549 L 30.1457 68.0278 L 30.1457 68.9932 L 30.3993 68.9932 L 30.3993 67.976 L 30.3878 67.7713 L 30.3359 67.6013 L 30.1659 67.4457 L 29.9007 67.3909 L 29.7567 67.4111 L 29.6327 67.4659 L 29.529 67.5523 L 29.4512 67.6705 L 29.4512 66.9241 L 29.1976 66.9241 L 29.1976 68.9932 L 29.1976 68.9932 z M 31.8518 68.7915 L 31.8518 68.8002 L 31.8662 68.8981 L 31.9094 68.9673 L 32.0909 69.0221 L 32.2322 68.999 L 32.2322 68.803 L 32.1716 68.8117 L 32.0909 68.7742 L 32.0765 68.659 L 32.0765 67.8578 L 32.042 67.6532 L 31.9411 67.5091 L 31.7653 67.4226 L 31.5175 67.3909 L 31.2754 67.4255 L 31.0967 67.5235 L 30.9843 67.6762 L 30.9469 67.878 L 30.9469 67.8953 L 31.1745 67.8953 L 31.1947 67.7742 L 31.2581 67.6878 L 31.3618 67.6359 L 31.5088 67.6157 L 31.65 67.6301 L 31.7509 67.6734 L 31.8114 67.7483 L 31.8316 67.852 L 31.8201 67.9731 L 31.7739 68.0336 L 31.6587 68.0624 L 31.4425 68.0855 L 31.1947 68.1373 L 31.0189 68.2296 L 30.9152 68.3736 L 30.8835 68.5869 L 30.9123 68.7771 L 31.0016 68.9183 L 31.1457 69.0076 L 31.3445 69.0394 L 31.6126 68.9788 L 31.8518 68.7915 L 31.8518 68.7915 z M 31.8229 68.4514 L 31.7884 68.6013 L 31.6961 68.7166 L 31.5578 68.7915 L 31.3878 68.8174 L 31.2783 68.803 L 31.2005 68.7569 L 31.1515 68.6762 L 31.1371 68.5638 L 31.1486 68.463 L 31.1947 68.3909 L 31.3791 68.3102 L 31.6126 68.2757 L 31.8229 68.2065 L 31.8229 68.4514 L 31.8229 68.4514 z M 32.9065 67.6849 L 32.9065 67.4457 L 32.6529 67.4457 L 32.6529 69.5927 L 32.9065 69.5927 L 32.9065 68.7569 L 32.9958 68.8924 L 33.0967 68.9817 L 33.3503 69.048 L 33.5924 68.9932 L 33.7826 68.829 L 33.9065 68.5696 L 33.9526 68.218 L 33.9065 67.8693 L 33.7826 67.61 L 33.5924 67.4486 L 33.3503 67.3909 L 33.212 67.4082 L 33.0938 67.463 L 32.993 67.5552 L 32.9065 67.6849 L 32.9065 67.6849 z M 33.3071 68.8203 L 33.1371 68.7829 L 33.0131 68.6676 L 32.9353 68.4803 L 32.9094 68.218 L 32.9353 67.9587 L 33.0131 67.7713 L 33.1371 67.659 L 33.3071 67.6186 L 33.4627 67.659 L 33.5866 67.7742 L 33.6644 67.9615 L 33.6933 68.218 L 33.6644 68.4774 L 33.5866 68.6676 L 33.4627 68.7829 L 33.3071 68.8203 L 33.3071 68.8203 z M 34.6241 68.293 L 35.6385 68.293 L 35.6414 68.1748 L 35.5953 67.8434 L 35.4685 67.5956 L 35.2667 67.4457 L 34.9987 67.3909 L 34.7365 67.4486 L 34.5348 67.61 L 34.4051 67.8722 L 34.359 68.218 L 34.4022 68.5725 L 34.5319 68.8319 L 34.7307 68.9932 L 34.9901 69.048 L 35.2149 69.0105 L 35.3993 68.9126 L 35.5348 68.7569 L 35.6126 68.5494 L 35.3618 68.5494 L 35.31 68.6647 L 35.235 68.7512 L 35.0218 68.8203 L 34.8575 68.7886 L 34.7336 68.6878 L 34.6529 68.5235 L 34.6241 68.3016 L 34.6241 68.293 L 34.6241 68.293 z M 34.6241 68.0797 L 34.6558 67.8808 L 34.7336 67.7339 L 34.8518 67.6445 L 35.0074 67.6128 L 35.1601 67.6445 L 35.2783 67.7339 L 35.3503 67.8808 L 35.3763 68.0797 L 34.6241 68.0797 L 34.6241 68.0797 z M 37.967 68.9932 L 38.2206 68.9932 L 38.2206 68.1085 L 38.2466 67.8953 L 38.3244 67.7425 L 38.4512 67.6503 L 38.6212 67.6186 L 38.748 67.6388 L 38.8431 67.6964 L 38.9007 67.7944 L 38.9209 67.927 L 39.1774 67.927 L 39.1428 67.6935 L 39.0477 67.5264 L 38.8892 67.4255 L 38.6731 67.3909 L 38.5261 67.414 L 38.3993 67.4716 L 38.2869 67.5696 L 38.1976 67.7022 L 38.1976 67.4457 L 37.967 67.4457 L 37.967 68.9932 L 37.967 68.9932 z M 40.0045 67.2353 L 40.1745 67.2353 L 40.5751 66.7454 L 40.2927 66.7454 L 40.0045 67.2353 L 40.0045 67.2353 z M 39.8287 68.293 L 40.8431 68.293 L 40.846 68.1748 L 40.7999 67.8434 L 40.6731 67.5956 L 40.4714 67.4457 L 40.2033 67.3909 L 39.9411 67.4486 L 39.7394 67.61 L 39.6097 67.8722 L 39.5636 68.218 L 39.6068 68.5725 L 39.7365 68.8319 L 39.9353 68.9932 L 40.1947 69.048 L 40.4195 69.0105 L 40.6039 68.9126 L 40.7394 68.7569 L 40.8172 68.5494 L 40.5665 68.5494 L 40.5146 68.6647 L 40.4397 68.7512 L 40.2264 68.8203 L 40.0621 68.7886 L 39.9382 68.6878 L 39.8575 68.5235 L 39.8287 68.3016 L 39.8287 68.293 L 39.8287 68.293 z M 39.8287 68.0797 L 39.8604 67.8808 L 39.9382 67.7339 L 40.0564 67.6445 L 40.212 67.6128 L 40.3647 67.6445 L 40.4829 67.7339 L 40.5549 67.8808 L 40.5809 68.0797 L 39.8287 68.0797 L 39.8287 68.0797 z M 41.6817 67.7137 L 41.6817 68.4889 L 41.699 68.7396 L 41.7797 68.9126 L 41.9411 69.0134 L 42.2149 69.048 L 42.5146 69.0336 L 42.5146 68.8146 L 42.2956 68.8319 L 42.0967 68.8088 L 41.9901 68.7368 L 41.944 68.6157 L 41.9353 68.4457 L 41.9353 67.7137 L 42.5146 67.7137 L 42.5146 67.4976 L 41.9353 67.4976 L 41.9353 67.0451 L 41.6817 67.0451 L 41.6817 67.4976 L 41.2437 67.4976 L 41.2437 67.7137 L 41.6817 67.7137 L 41.6817 67.7137 z M 43.2984 68.293 L 44.3129 68.293 L 44.3157 68.1748 L 44.2696 67.8434 L 44.1428 67.5956 L 43.9411 67.4457 L 43.6731 67.3909 L 43.4108 67.4486 L 43.2091 67.61 L 43.0794 67.8722 L 43.0333 68.218 L 43.0765 68.5725 L 43.2062 68.8319 L 43.4051 68.9932 L 43.6644 69.048 L 43.8892 69.0105 L 44.0737 68.9126 L 44.2091 68.7569 L 44.2869 68.5494 L 44.0362 68.5494 L 43.9843 68.6647 L 43.9094 68.7512 L 43.6961 68.8203 L 43.5319 68.7886 L 43.408 68.6878 L 43.3273 68.5235 L 43.2984 68.3016 L 43.2984 68.293 L 43.2984 68.293 z M 43.2984 68.0797 L 43.3301 67.8808 L 43.408 67.7339 L 43.5261 67.6445 L 43.6817 67.6128 L 43.8345 67.6445 L 43.9526 67.7339 L 44.0247 67.8808 L 44.0506 68.0797 L 43.2984 68.0797 L 43.2984 68.0797 z M 44.8114 68.9932 L 45.065 68.9932 L 45.065 68.0999 L 45.091 67.8953 L 45.1745 67.7454 L 45.3042 67.6532 L 45.4771 67.6186 L 45.6154 67.6474 L 45.7019 67.7252 L 45.7451 67.8549 L 45.7595 68.0278 L 45.7595 68.9932 L 46.0131 68.9932 L 46.0131 67.976 L 46.0016 67.7713 L 45.9497 67.6013 L 45.7797 67.4457 L 45.5146 67.3909 L 45.3676 67.4111 L 45.2437 67.4659 L 45.1371 67.5581 L 45.0535 67.682 L 45.0535 67.4457 L 44.8114 67.4457 L 44.8114 68.9932 L 44.8114 68.9932 z M 46.8863 67.7137 L 46.8863 68.4889 L 46.9036 68.7396 L 46.9843 68.9126 L 47.1457 69.0134 L 47.4195 69.048 L 47.7192 69.0336 L 47.7192 68.8146 L 47.5002 68.8319 L 47.3013 68.8088 L 47.1947 68.7368 L 47.1486 68.6157 L 47.1399 68.4457 L 47.1399 67.7137 L 47.7192 67.7137 L 47.7192 67.4976 L 47.1399 67.4976 L 47.1399 67.0451 L 46.8863 67.0451 L 46.8863 67.4976 L 46.4483 67.4976 L 46.4483 67.7137 L 46.8863 67.7137 L 46.8863 67.7137 z M 49.0564 68.78 L 49.0564 67.4976 L 48.4051 67.4976 L 48.4051 67.7137 L 48.8028 67.7137 L 48.8028 68.78 L 48.284 68.78 L 48.284 68.9932 L 49.5809 68.9932 L 49.5809 68.78 L 49.0564 68.78 L 49.0564 68.78 z M 49.065 66.9241 L 48.797 66.9241 L 48.797 67.2123 L 49.065 67.2123 L 49.065 66.9241 L 49.065 66.9241 z M 49.9411 68.2209 L 49.9872 68.5725 L 50.1198 68.8319 L 50.3301 68.9932 L 50.6126 69.048 L 50.8921 68.9932 L 51.1025 68.8347 L 51.235 68.5754 L 51.284 68.2209 L 51.235 67.8693 L 51.1025 67.6071 L 50.8921 67.4486 L 50.6126 67.3909 L 50.3301 67.4486 L 50.1198 67.61 L 49.9872 67.8693 L 49.9411 68.2209 L 49.9411 68.2209 z M 50.2005 68.218 L 50.2264 67.9587 L 50.3071 67.7713 L 50.4368 67.6561 L 50.6126 67.6157 L 50.7855 67.6561 L 50.9152 67.7685 L 50.9959 67.9587 L 51.0247 68.218 L 50.9959 68.4803 L 50.9152 68.6705 L 50.7855 68.7858 L 50.6126 68.8232 L 50.4368 68.7858 L 50.3071 68.6705 L 50.2264 68.4803 L 50.2005 68.218 L 50.2005 68.218 z M 51.7509 68.9932 L 52.0045 68.9932 L 52.0045 68.0999 L 52.0304 67.8953 L 52.114 67.7454 L 52.2437 67.6532 L 52.4166 67.6186 L 52.5549 67.6474 L 52.6414 67.7252 L 52.6846 67.8549 L 52.699 68.0278 L 52.699 68.9932 L 52.9526 68.9932 L 52.9526 67.976 L 52.9411 67.7713 L 52.8892 67.6013 L 52.7192 67.4457 L 52.4541 67.3909 L 52.3071 67.4111 L 52.1832 67.4659 L 52.0765 67.5581 L 51.993 67.682 L 51.993 67.4457 L 51.7509 67.4457 L 51.7509 68.9932 L 51.7509 68.9932 z" stroke="none" fill-rule="evenodd" fill="rgb(0, 0, 0)"/></g></svg>