<?xml version="1.0" encoding="utf-8"?>
<!-- Generator: Adobe Illustrator 22.1.0, SVG Export Plug-In . SVG Version: 6.00 Build 0)  -->
<svg version="1.1" id="Calque_1" dsy:text-version="18000" xmlns:dsy="http://www.3ds.com/print"
	 xmlns="http://www.w3.org/2000/svg" xmlns:xlink="http://www.w3.org/1999/xlink" x="0px" y="0px" viewBox="0 0 1189 841"
	 style="enable-background:new 0 0 1189 841;" xml:space="preserve">
<style type="text/css">
	.st0{fill:none;stroke:#FF0000;stroke-width:2.834646e-02;}
</style>
<path class="st0" d="M252.3,61l10.5,17"/>
<path class="st0" d="M257.8,81.1l5-3.1"/>
<path class="st0" d="M247.3,64.1l10.5,17"/>
<path class="st0" d="M170.8,111.5l76.5-47.3"/>
<path class="st0" d="M170.8,111.5l-99.1,13.3"/>
<path class="st0" d="M71.6,124.7l2.7,19.8"/>
<path class="st0" d="M74.3,144.6l-5.8,0.8"/>
<path class="st0" d="M68.5,145.3l-2.7-19.8"/>
<path class="st0" d="M120.6,210l-14.7,13.5"/>
<path class="st0" d="M127.3,217.3l-6.8-7.4"/>
<path class="st0" d="M112.6,230.9l14.7-13.5"/>
<circle class="st0" cx="284.2" cy="58.4" r="3.2"/>
<circle class="st0" cx="49.5" cy="144.5" r="3.2"/>
<circle class="st0" cx="271" cy="385.4" r="3.2"/>
<circle class="st0" cx="264.4" cy="351" r="6"/>
<path class="st0" d="M176.5,146L178,166"/>
<path class="st0" d="M172,166.4l6-0.5"/>
<path class="st0" d="M170.5,146.5l1.6,19.9"/>
<path class="st0" d="M176.5,146l-6,0.5"/>
<path class="st0" d="M44.1,150.3l0.7-0.7"/>
<path class="st0" d="M31.6,138.7l12.5,11.6"/>
<path class="st0" d="M32.3,138l-0.7,0.7"/>
<path class="st0" d="M44.8,149.6L32.3,138"/>
<path class="st0" d="M50.3,132.3l0.9-0.5"/>
<path class="st0" d="M51.2,131.7l5.2,8.6"/>
<path class="st0" d="M56.4,140.3l-0.9,0.5"/>
<path class="st0" d="M55.5,140.8l-5.2-8.6"/>
<path class="st0" d="M290.9,59.7l2.9-15.8"/>
<path class="st0" d="M293.8,43.9l1,0.2"/>
<path class="st0" d="M294.8,44.1l-2.9,15.8"/>
<path class="st0" d="M291.9,59.9l-1-0.2"/>
<path class="st0" d="M275.1,49.3l1,10"/>
<path class="st0" d="M276.1,49.2l-1,0.1"/>
<path class="st0" d="M277.1,59.1l-1-10"/>
<path class="st0" d="M276.1,59.2l1-0.1"/>
<path class="st0" d="M273.6,406l-161-175.2"/>
<path class="st0" d="M273.6,406c1.9,2,5,2.2,7.1,0.3c1-0.9,1.6-2.2,1.6-3.5"/>
<path class="st0" d="M30.7,130.2l35.1-4.7"/>
<path class="st0" d="M27.7,138.6l78.1,85"/>
<path class="st0" d="M30.7,130.2c-2.7,0.4-4.7,2.9-4.3,5.6c0.1,1,0.6,2,1.3,2.7"/>
<path class="st0" d="M289.2,38.2L252.3,61"/>
<path class="st0" d="M282.3,402.8l14.6-360.2"/>
<path class="st0" d="M296.9,42.7c0.1-2.8-2-5.1-4.8-5.2c-1,0-2,0.2-2.8,0.7"/>
<path class="st0" d="M638.9,51l10.5,17"/>
<path class="st0" d="M644.4,71.1l5-3.1"/>
<path class="st0" d="M633.8,54.1l10.5,17"/>
<path class="st0" d="M557.3,101.4l76.5-47.3"/>
<path class="st0" d="M557.3,101.4l-99.1,13.3"/>
<path class="st0" d="M458.2,114.7l2.7,19.8"/>
<path class="st0" d="M460.8,134.5l-5.8,0.8"/>
<path class="st0" d="M455,135.3l-2.7-19.8"/>
<path class="st0" d="M507.1,199.9l-14.7,13.5"/>
<path class="st0" d="M513.8,207.3l-6.8-7.4"/>
<path class="st0" d="M499.1,220.8l14.7-13.5"/>
<circle class="st0" cx="670.7" cy="48.4" r="3.2"/>
<circle class="st0" cx="436" cy="134.4" r="3.2"/>
<circle class="st0" cx="657.5" cy="375.4" r="3.2"/>
<circle class="st0" cx="650.9" cy="341" r="6"/>
<path class="st0" d="M563,136l1.6,19.9"/>
<path class="st0" d="M558.6,156.4l6-0.5"/>
<path class="st0" d="M557,136.4l1.6,19.9"/>
<path class="st0" d="M563,136l-6,0.5"/>
<path class="st0" d="M430.6,140.3l0.7-0.7"/>
<path class="st0" d="M418.1,128.7l12.5,11.6"/>
<path class="st0" d="M418.8,128l-0.7,0.7"/>
<path class="st0" d="M431.2,139.6L418.8,128"/>
<path class="st0" d="M442,130.8l-5.2-8.6"/>
<path class="st0" d="M436.8,122.2l0.9-0.5"/>
<path class="st0" d="M437.7,121.7l5.2,8.6"/>
<path class="st0" d="M442.9,130.3l-0.9,0.5"/>
<path class="st0" d="M677.8,49.3l2.1-15.9"/>
<path class="st0" d="M679.9,33.4l1,0.1"/>
<path class="st0" d="M680.9,33.5l-2.1,15.9"/>
<path class="st0" d="M678.8,49.4l-1-0.1"/>
<path class="st0" d="M661.5,39.7l1.5,9.9"/>
<path class="st0" d="M662.5,39.5l-1,0.1"/>
<path class="st0" d="M664,49.4l-1.5-9.9"/>
<path class="st0" d="M663,49.6l1-0.1"/>
<path class="st0" d="M417.3,120.2l35-4.7"/>
<path class="st0" d="M414.3,128.5l78.1,85"/>
<path class="st0" d="M417.3,120.2c-2.7,0.4-4.7,2.9-4.3,5.6c0.1,1,0.6,2,1.3,2.7"/>
<path class="st0" d="M675.8,28.2L638.9,51"/>
<path class="st0" d="M683.4,32.6c0.1-2.8-2-5.1-4.8-5.2c-1,0-2,0.2-2.8,0.7"/>
<path class="st0" d="M660.1,396l-161-175.1"/>
<path class="st0" d="M668.8,392.8l14.6-360.2"/>
<path class="st0" d="M660.1,396c1.9,2,5,2.2,7.1,0.3c1-0.9,1.6-2.2,1.6-3.5"/>
<path class="st0" d="M771.2,76l6-0.4"/>
<path class="st0" d="M772.4,95.9l-1.2-20"/>
<path class="st0" d="M764.4,96.4l8-0.5"/>
<path class="st0" d="M763.2,76.4l1.2,20"/>
<path class="st0" d="M757.2,76.8l6-0.4"/>
<path class="st0" d="M735.4,43c-0.1,0-0.2,0.1-0.2,0.2"/>
<path class="st0" d="M736.4,62.8l-1.1-19.6"/>
<path class="st0" d="M736.4,62.8c0,0.1,0.1,0.2,0.2,0.2"/>
<path class="st0" d="M736.9,68c-0.1,0-0.2,0.1-0.2,0.2c0,0,0,0,0,0"/>
<path class="st0" d="M736.9,68l9.6-0.6"/>
<path class="st0" d="M746.5,67.4c0.1,0,0.2-0.1,0.2-0.2"/>
<path class="st0" d="M738.4,97.7l-1.7-29.5"/>
<path class="st0" d="M738.4,97.7c0,0.1,0.1,0.2,0.2,0.2c0,0,0,0,0,0"/>
<path class="st0" d="M735.4,43l7.1-0.4"/>
<path class="st0" d="M742.7,42.8c0-0.1-0.1-0.2-0.2-0.2"/>
<path class="st0" d="M742.7,42.8c0.5,6.9,6.5,12,13.4,11.5c6.7-0.5,11.8-6.3,11.6-13"/>
<path class="st0" d="M767.9,41.1c-0.1,0-0.2,0.1-0.2,0.2"/>
<path class="st0" d="M746.2,62.4l-9.6,0.6"/>
<path class="st0" d="M746.7,67.2l-0.3-4.6"/>
<path class="st0" d="M746.4,62.6c0-0.1-0.1-0.2-0.2-0.2"/>
<path class="st0" d="M757.2,76.8l1.2,19.8"/>
<path class="st0" d="M758.2,96.8l-19.6,1.1"/>
<path class="st0" d="M758.2,96.8c0.1,0,0.2-0.1,0.2-0.2c0,0,0,0,0,0"/>
<path class="st0" d="M784.9,40.1l-17.1,1"/>
<path class="st0" d="M785.2,40.3c0-0.1-0.1-0.2-0.2-0.2c0,0,0,0,0,0"/>
<path class="st0" d="M788.3,94.8l-3.2-54.5"/>
<path class="st0" d="M788.2,95c0.1,0,0.2-0.1,0.2-0.2c0,0,0,0,0,0"/>
<path class="st0" d="M777.2,75.6l1.2,19.8"/>
<path class="st0" d="M778.6,95.6l9.6-0.6"/>
<path class="st0" d="M778.4,95.4c0,0.1,0.1,0.2,0.2,0.2"/>
<path class="st0" d="M863.2,72.1l6-0.3"/>
<path class="st0" d="M864.2,92.5l-1-20.4"/>
<path class="st0" d="M856.2,92.5h8"/>
<path class="st0" d="M855.2,72.5l1,20"/>
<path class="st0" d="M849.2,72.8l6-0.3"/>
<path class="st0" d="M850.2,56.4h13.1"/>
<path class="st0" d="M863.3,56.4c1.1,0,2-0.9,2-2s-0.9-2-2-2"/>
<path class="st0" d="M863.3,52.4h-13.1"/>
<path class="st0" d="M850.2,52.4c-1.1,0-2,0.9-2,2s0.9,2,2,2"/>
<path class="st0" d="M835.4,37.4c-0.1,0-0.2,0.1-0.2,0.2c0,0,0,0,0,0"/>
<path class="st0" d="M835.2,60.6v-23"/>
<path class="st0" d="M835.2,60.6c0,0.1,0.1,0.2,0.2,0.2c0,0,0,0,0,0"/>
<path class="st0" d="M835.4,62.8c-0.1,0-0.2,0.1-0.2,0.2c0,0,0,0,0,0"/>
<path class="st0" d="M835.4,62.8h4.6"/>
<path class="st0" d="M840,62.8c0.1,0,0.2-0.1,0.2-0.2c0,0,0,0,0,0"/>
<path class="st0" d="M840,60.8h-4.6"/>
<path class="st0" d="M840.2,62.6V61"/>
<path class="st0" d="M840.2,61c0-0.1-0.1-0.2-0.2-0.2"/>
<path class="st0" d="M835.2,92.6V63"/>
<path class="st0" d="M835.2,92.6c0,0.1,0.1,0.2,0.2,0.2c0,0,0,0,0,0"/>
<path class="st0" d="M849.2,72.8l1,19.8"/>
<path class="st0" d="M850,92.8h-14.6"/>
<path class="st0" d="M850,92.8c0.1,0,0.2-0.1,0.2-0.2c0,0,0,0,0,0"/>
<path class="st0" d="M835.4,37.4h6.7"/>
<path class="st0" d="M842.4,37.5c0-0.1-0.1-0.2-0.2-0.2"/>
<path class="st0" d="M842.4,37.5c0,6.9,5.6,12.5,12.5,12.5s12.5-5.6,12.5-12.5"/>
<path class="st0" d="M867.6,37.4c-0.1,0-0.2,0.1-0.2,0.2"/>
<path class="st0" d="M867.6,37.4h9.7"/>
<path class="st0" d="M877.5,37.5c0-0.1-0.1-0.2-0.2-0.2"/>
<path class="st0" d="M880.2,91.1l-2.7-53.5"/>
<path class="st0" d="M880,91.3c0.1,0,0.2-0.1,0.2-0.2"/>
<path class="st0" d="M869.2,71.8l1,19.8"/>
<path class="st0" d="M870.4,91.8l9.6-0.5"/>
<path class="st0" d="M870.2,91.6c0,0.1,0.1,0.2,0.2,0.2c0,0,0,0,0,0"/>
<path d="M136,204.6h0.5v-1.5h0.5l0.4,0l0.2,0.1l0.1,0.2l0.1,0.3l0,0.5l0,0.3l0.1,0.2h0.5v-0.1l-0.1-0.1l0-0.3l0-0.6l-0.1-0.4
	L138,203l-0.2-0.1l0.2-0.1l0.1-0.2l0.1-0.2l0-0.3l-0.1-0.4l-0.2-0.3l-0.3-0.2l-0.5-0.1H136V204.6L136,204.6z M137.1,201.5l0.3,0
	l0.2,0.1l0.1,0.2l0,0.3l-0.1,0.3l-0.1,0.2l-0.2,0.1l-0.3,0h-0.5v-1.2H137.1L137.1,201.5z M140.5,204.2V202h-1.1v0.4h0.7v1.9h-0.9
	v0.4h2.3v-0.4H140.5L140.5,204.2z M140.5,201h-0.5v0.5h0.5V201L140.5,201z M144.3,204.5v-2.6h-0.4v0.4l-0.3-0.4l-0.2-0.1l-0.2,0
	l-0.4,0.1l-0.3,0.3l-0.2,0.5l-0.1,0.6l0.1,0.6l0.2,0.5l0.3,0.3l0.4,0.1l0.2,0l0.2-0.1l0.4-0.4v0.4l0,0.3l-0.1,0.2l-0.2,0.1l-0.3,0
	l-0.3,0l-0.2-0.1l-0.1-0.1l0-0.2h-0.4v0l0.1,0.3l0.2,0.2l0.3,0.2l0.4,0.1l0.5-0.1l0.3-0.2l0.2-0.4L144.3,204.5L144.3,204.5z
	 M142.5,203.2l0-0.4l0.1-0.3l0.2-0.2l0.3-0.1l0.3,0.1l0.2,0.2l0.1,0.3l0.1,0.4l-0.1,0.5l-0.1,0.3l-0.2,0.2l-0.3,0.1l-0.3-0.1
	l-0.2-0.2l-0.1-0.3L142.5,203.2L142.5,203.2z M145.2,204.6h0.4V203l0-0.4l0.1-0.3l0.2-0.2l0.3-0.1l0.2,0.1l0.2,0.1l0.1,0.2l0,0.3
	v1.7h0.4v-1.8l0-0.4l-0.1-0.3l-0.3-0.3l-0.5-0.1l-0.3,0l-0.2,0.1l-0.2,0.2l-0.1,0.2V201h-0.4V204.6L145.2,204.6z M148.9,202.3v1.4
	l0,0.4l0.1,0.3l0.3,0.2l0.5,0.1l0.5,0v-0.4l-0.4,0l-0.3,0l-0.2-0.1l-0.1-0.2l0-0.3v-1.3h1V202h-1v-0.8h-0.4v0.8h-0.8v0.4H148.9
	L148.9,202.3z M150.8,205.4v0.4h3v-0.4H150.8L150.8,205.4z M154.3,204.6h0.5V203h1.5v-0.4h-1.5v-1h1.8v-0.4h-2.3V204.6L154.3,204.6z
	 M157.5,204.6h0.4V203l0-0.4l0.1-0.3l0.2-0.2l0.3-0.1l0.2,0l0.2,0.1l0.1,0.2l0,0.2h0.4l-0.1-0.4l-0.2-0.3l-0.3-0.2l-0.4-0.1l-0.3,0
	l-0.2,0.1l-0.2,0.2l-0.2,0.2v-0.4h-0.4V204.6L157.5,204.6z M160.3,203.2l0.1,0.6l0.2,0.5l0.4,0.3l0.5,0.1l0.5-0.1l0.4-0.3l0.2-0.5
	l0.1-0.6l-0.1-0.6l-0.2-0.5l-0.4-0.3l-0.5-0.1l-0.5,0.1l-0.4,0.3l-0.2,0.5L160.3,203.2L160.3,203.2z M160.7,203.2l0-0.5l0.1-0.3
	l0.2-0.2l0.3-0.1l0.3,0.1l0.2,0.2l0.1,0.3l0.1,0.5l-0.1,0.5L162,204l-0.2,0.2l-0.3,0.1l-0.3-0.1l-0.2-0.2l-0.1-0.3L160.7,203.2
	L160.7,203.2z M163.4,204.6h0.4V203l0-0.4l0.1-0.3l0.2-0.2l0.3-0.1l0.2,0.1l0.2,0.1l0.1,0.2l0,0.3v1.7h0.4v-1.8l0-0.4l-0.1-0.3
	l-0.3-0.3l-0.5-0.1l-0.3,0l-0.2,0.1l-0.2,0.2l-0.1,0.2v-0.4h-0.4V204.6L163.4,204.6z M167.1,202.3v1.4l0,0.4l0.1,0.3l0.3,0.2
	l0.5,0.1l0.5,0v-0.4l-0.4,0l-0.3,0l-0.2-0.1l-0.1-0.2l0-0.3v-1.3h1V202h-1v-0.8h-0.4v0.8h-0.8v0.4H167.1L167.1,202.3z M169,205.4
	v0.4h3v-0.4H169L169,205.4z M172.4,203.3l0.1,0.6l0.2,0.4l0.4,0.3l0.5,0.1l0.5-0.1l0.4-0.3l0.2-0.4l0.1-0.6v-2.2h-0.5v2.2l0,0.4
	l-0.1,0.3l-0.2,0.2l-0.3,0.1l-0.3-0.1L173,204l-0.1-0.3l0-0.4v-2.2h-0.5V203.3L172.4,203.3z M176,202.3v-0.4h-0.4v3.8h0.4v-1.5
	l0.2,0.2l0.2,0.2l0.4,0.1l0.4-0.1l0.3-0.3l0.2-0.5l0.1-0.6l-0.1-0.6l-0.2-0.5l-0.3-0.3l-0.4-0.1l-0.2,0l-0.2,0.1l-0.2,0.2L176,202.3
	L176,202.3z M176.7,204.3l-0.3-0.1l-0.2-0.2l-0.1-0.3l0-0.5l0-0.5l0.1-0.3l0.2-0.2l0.3-0.1l0.3,0.1l0.2,0.2l0.1,0.3l0.1,0.4
	l-0.1,0.5l-0.1,0.3l-0.2,0.2L176.7,204.3L176.7,204.3z M179,202.3v-0.4h-0.4v3.8h0.4v-1.5l0.2,0.2l0.2,0.2l0.4,0.1l0.4-0.1l0.3-0.3
	l0.2-0.5l0.1-0.6l-0.1-0.6l-0.2-0.5l-0.3-0.3l-0.4-0.1l-0.2,0l-0.2,0.1l-0.2,0.2L179,202.3L179,202.3z M179.7,204.3l-0.3-0.1
	l-0.2-0.2l-0.1-0.3l0-0.5l0-0.5l0.1-0.3l0.2-0.2l0.3-0.1l0.3,0.1l0.2,0.2l0.1,0.3l0.1,0.4l-0.1,0.5l-0.1,0.3l-0.2,0.2L179.7,204.3
	L179.7,204.3z M182,203.4h1.8l0-0.2l-0.1-0.6l-0.2-0.4l-0.4-0.3l-0.5-0.1l-0.5,0.1l-0.4,0.3l-0.2,0.5l-0.1,0.6l0.1,0.6l0.2,0.5
	l0.3,0.3l0.5,0.1l0.4-0.1l0.3-0.2l0.2-0.3l0.1-0.4h-0.4l-0.1,0.2l-0.1,0.2l-0.4,0.1l-0.3-0.1l-0.2-0.2l-0.1-0.3L182,203.4L182,203.4
	L182,203.4z M182,203l0.1-0.3l0.1-0.3l0.2-0.2l0.3-0.1l0.3,0.1l0.2,0.2l0.1,0.3l0,0.3H182L182,203z M184.9,204.6h0.4V203l0-0.4
	l0.1-0.3l0.2-0.2l0.3-0.1l0.2,0l0.2,0.1l0.1,0.2l0,0.2h0.4l-0.1-0.4l-0.2-0.3l-0.3-0.2l-0.4-0.1l-0.3,0l-0.2,0.1l-0.2,0.2l-0.2,0.2
	v-0.4h-0.4V204.6L184.9,204.6z M190.3,204.6h0.5l0.4-1h1.4l0.4,1h0.5l-1.3-3.5h-0.5L190.3,204.6L190.3,204.6z M191.3,203.1l0.5-1.5
	l0.5,1.5H191.3L191.3,203.1z M194.2,203.4h1.2V203h-1.2V203.4L194.2,203.4z M196.4,204.6h0.5l0.4-1h1.4l0.4,1h0.5l-1.3-3.5h-0.5
	L196.4,204.6L196.4,204.6z M197.3,203.1l0.5-1.5l0.5,1.5H197.3L197.3,203.1z M200,204.6h0.4V203l0-0.4l0.1-0.3l0.2-0.2l0.3-0.1
	l0.2,0l0.2,0.1l0.1,0.2l0,0.2h0.4l-0.1-0.4l-0.2-0.3l-0.3-0.2l-0.4-0.1l-0.3,0l-0.2,0.1l-0.2,0.2l-0.2,0.2v-0.4H200V204.6L200,204.6
	z M202.7,204.6h0.4v-1.8l0-0.3l0.1-0.2l0.1-0.1l0.2,0l0.1,0l0.1,0.1l0,0.2l0,0.2v1.9h0.4v-1.8l0-0.3l0.1-0.2l0.1-0.1l0.2,0l0.1,0
	l0.1,0.1l0.1,0.4v1.9h0.4v-1.9l0-0.4l-0.1-0.3l-0.2-0.2l-0.3-0.1l-0.3,0.1l-0.2,0.3l-0.2-0.3l-0.3-0.1l-0.3,0.1l-0.2,0.3v-0.3h-0.4
	V204.6L202.7,204.6z M209.4,203.4h1.2V203h-1.2V203.4L209.4,203.4z M215,204.6h0.5v-1.5h0.5l0.5,0l0.4-0.2l0.3-0.3l0.1-0.5l-0.1-0.4
	l-0.2-0.3l-0.3-0.2l-0.5-0.1H215V204.6L215,204.6z M216.1,201.5l0.3,0l0.2,0.1l0.1,0.2l0,0.3l-0.1,0.3l-0.1,0.2l-0.2,0.1l-0.3,0
	h-0.6v-1.2H216.1L216.1,201.5z M219,201.3v2.9h-0.9v0.4h2.3v-0.4h-0.9V201h-1.1v0.4H219L219,201.3z M222.7,204.2L222.7,204.2l0,0.2
	l0.1,0.1l0.3,0.1l0.2,0v-0.3l-0.1,0l-0.1-0.1l0-0.2v-1.4l-0.1-0.4l-0.2-0.3l-0.3-0.2l-0.4-0.1l-0.4,0.1l-0.3,0.2l-0.2,0.3l-0.1,0.4
	v0h0.4l0-0.2l0.1-0.2l0.2-0.1l0.3,0l0.2,0l0.2,0.1l0.1,0.1l0,0.2l0,0.2l-0.1,0.1l-0.2,0.1l-0.4,0l-0.4,0.1l-0.3,0.2l-0.2,0.3
	l-0.1,0.4l0.1,0.3l0.2,0.2l0.3,0.2l0.3,0.1l0.5-0.1L222.7,204.2L222.7,204.2z M222.7,203.6l-0.1,0.3l-0.2,0.2l-0.2,0.1l-0.3,0
	l-0.2,0l-0.1-0.1l-0.1-0.1l0-0.2l0-0.2l0.1-0.1l0.3-0.1l0.4-0.1l0.4-0.1V203.6L222.7,203.6z M225.8,202.3l-0.2-0.2l-0.2-0.2
	l-0.2-0.1l-0.2,0l-0.4,0.1l-0.3,0.3l-0.2,0.5l-0.1,0.6l0.1,0.6l0.2,0.5l0.3,0.3l0.4,0.1l0.2,0l0.2-0.1l0.2-0.2l0.2-0.2v1.5h0.4v-3.8
	h-0.4V202.3L225.8,202.3z M224.5,203.2l0-0.4l0.1-0.3l0.2-0.2l0.3-0.1l0.3,0.1l0.2,0.2l0.1,0.3l0.1,0.5l-0.1,0.5l-0.1,0.3l-0.2,0.2
	l-0.3,0.1l-0.3-0.1l-0.2-0.2l-0.1-0.3L224.5,203.2L224.5,203.2z M229.3,201.9h-0.4v1.6l0,0.4l-0.1,0.3l-0.2,0.2l-0.3,0.1l-0.2,0
	l-0.2-0.1l-0.1-0.2l0-0.3v-1.7h-0.4v1.8l0,0.4l0.1,0.3l0.3,0.3l0.5,0.1l0.3,0l0.2-0.1l0.2-0.2l0.2-0.2v0.4h0.4V201.9L229.3,201.9z
	 M230.6,203.4h1.8l0-0.2l-0.1-0.6l-0.2-0.4l-0.4-0.3l-0.5-0.1l-0.5,0.1l-0.4,0.3l-0.2,0.5l-0.1,0.6l0.1,0.6l0.2,0.5l0.3,0.3l0.5,0.1
	l0.4-0.1l0.3-0.2l0.2-0.3l0.1-0.4h-0.4l-0.1,0.2l-0.1,0.2l-0.4,0.1l-0.3-0.1l-0.2-0.2l-0.1-0.3L230.6,203.4L230.6,203.4L230.6,203.4
	z M230.6,203l0.1-0.3l0.1-0.3l0.2-0.2l0.3-0.1l0.3,0.1l0.2,0.2l0.1,0.3l0,0.3H230.6L230.6,203z M238,204.2v0.4h0.4V201H238v1.3
	l-0.3-0.4l-0.2-0.1l-0.2,0l-0.4,0.1l-0.3,0.3l-0.2,0.5l-0.1,0.6l0.1,0.6l0.2,0.5l0.3,0.3l0.4,0.1l0.2,0l0.2-0.1L238,204.2L238,204.2
	z M237.3,202.2l0.3,0.1l0.2,0.2l0.1,0.3l0,0.5l0,0.5l-0.1,0.3l-0.2,0.2l-0.3,0.1l-0.3-0.1l-0.2-0.2l-0.1-0.3l0-0.5l0-0.4l0.1-0.3
	l0.2-0.2L237.3,202.2L237.3,202.2z M241.4,201.9H241v1.6l-0.1,0.4l-0.1,0.3l-0.2,0.2l-0.3,0.1l-0.2,0l-0.2-0.1l-0.1-0.2l0-0.3v-1.7
	h-0.4v1.8l0,0.4l0.1,0.3l0.3,0.3l0.5,0.1l0.3,0l0.2-0.1l0.2-0.2l0.2-0.2v0.4h0.4V201.9L241.4,201.9z M245.4,204.6h0.4V203l0-0.4
	l0.1-0.3l0.2-0.2l0.3-0.1l0.2,0.1l0.2,0.1l0.1,0.2l0,0.3v1.7h0.4v-1.8l0-0.4l-0.1-0.3l-0.3-0.3l-0.5-0.1l-0.3,0l-0.2,0.1l-0.2,0.2
	l-0.1,0.2V201h-0.4V204.6L245.4,204.6z M250.1,204.2L250.1,204.2l0,0.2l0.1,0.1l0.3,0.1l0.2,0v-0.3l-0.1,0l-0.1-0.1l0-0.2v-1.4
	l-0.1-0.4l-0.2-0.3l-0.3-0.2l-0.4-0.1l-0.4,0.1l-0.3,0.2l-0.2,0.3l-0.1,0.4v0h0.4l0-0.2l0.1-0.2l0.2-0.1l0.3,0l0.2,0l0.2,0.1
	l0.1,0.1l0,0.2l0,0.2l-0.1,0.1l-0.2,0.1l-0.4,0l-0.4,0.1l-0.3,0.2l-0.2,0.3l-0.1,0.4l0.1,0.3l0.2,0.2l0.3,0.2l0.3,0.1l0.5-0.1
	L250.1,204.2L250.1,204.2z M250,203.6l-0.1,0.3l-0.2,0.2l-0.2,0.1l-0.3,0l-0.2,0l-0.1-0.1l-0.1-0.1l0-0.2l0-0.2l0.1-0.1l0.3-0.1
	l0.4-0.1l0.4-0.1V203.6L250,203.6z M253.6,201.9h-0.4v1.6l-0.1,0.4l-0.1,0.3l-0.2,0.2l-0.3,0.1l-0.2,0l-0.2-0.1l-0.1-0.2l0-0.3v-1.7
	h-0.4v1.8l0,0.4l0.1,0.3l0.3,0.3l0.5,0.1l0.3,0l0.2-0.1l0.2-0.2l0.2-0.2v0.4h0.4V201.9L253.6,201.9z M255.1,202.3v1.4l0,0.4l0.1,0.3
	l0.3,0.2l0.5,0.1l0.5,0v-0.4l-0.4,0l-0.3,0l-0.2-0.1l-0.1-0.2l0-0.3v-1.3h1V202h-1v-0.8h-0.4v0.8h-0.8v0.4H255.1L255.1,202.3z"/>
<path d="M522.6,194.5h0.5v-1.5h0.5l0.4,0l0.2,0.1l0.1,0.2l0.1,0.3l0,0.5l0,0.3l0.1,0.2h0.5v-0.1l-0.1-0.1l0-0.3l0-0.6l-0.1-0.4
	l-0.1-0.1l-0.2-0.1l0.2-0.1l0.1-0.2l0.1-0.2l0-0.3l-0.1-0.4l-0.2-0.3l-0.3-0.2l-0.5-0.1h-1.2V194.5L522.6,194.5z M523.6,191.5l0.3,0
	l0.2,0.1l0.1,0.2l0,0.3l0,0.3l-0.1,0.2l-0.2,0.1l-0.3,0H523v-1.2H523.6L523.6,191.5z M527,194.2v-2.2h-1.1v0.4h0.7v1.9h-0.9v0.4h2.3
	v-0.4H527L527,194.2z M527.1,190.9h-0.5v0.5h0.5V190.9L527.1,190.9z M530.8,194.4v-2.6h-0.4v0.4l-0.3-0.4l-0.2-0.1l-0.2,0l-0.4,0.1
	l-0.3,0.3l-0.2,0.5l-0.1,0.6l0.1,0.6l0.2,0.5l0.3,0.3l0.4,0.1l0.2,0l0.2-0.1l0.4-0.4v0.4l0,0.3l-0.1,0.2l-0.2,0.1l-0.3,0l-0.3,0
	l-0.2-0.1l-0.1-0.1l0-0.2h-0.4v0l0.1,0.3l0.2,0.2l0.3,0.2l0.4,0.1l0.5-0.1l0.3-0.2l0.2-0.4L530.8,194.4L530.8,194.4z M529,193.2
	l0-0.4l0.1-0.3l0.2-0.2l0.3-0.1l0.3,0.1l0.2,0.2l0.1,0.3l0,0.4l0,0.5l-0.1,0.3l-0.2,0.2l-0.3,0.1l-0.3-0.1l-0.2-0.2l-0.1-0.3
	L529,193.2L529,193.2z M531.8,194.5h0.4V193l0-0.4l0.1-0.3l0.2-0.2l0.3-0.1l0.2,0.1l0.2,0.1l0.1,0.2l0,0.3v1.7h0.4v-1.8l0-0.4
	l-0.1-0.3l-0.3-0.3l-0.5-0.1l-0.3,0l-0.2,0.1l-0.2,0.2l-0.1,0.2v-1.3h-0.4V194.5L531.8,194.5z M535.4,192.3v1.4l0,0.4l0.1,0.3
	l0.3,0.2l0.5,0.1l0.5,0v-0.4l-0.4,0l-0.3,0l-0.2-0.1l-0.1-0.2l0-0.3v-1.3h1v-0.4h-1v-0.8h-0.4v0.8h-0.8v0.4H535.4L535.4,192.3z
	 M537.4,195.4v0.4h3v-0.4H537.4L537.4,195.4z M540.9,194.5h0.5v-1.6h1.5v-0.4h-1.5v-1h1.8V191h-2.3V194.5L540.9,194.5z M544.1,194.5
	h0.4V193l0-0.4l0.1-0.3l0.2-0.2l0.3-0.1l0.2,0l0.2,0.1l0.1,0.2l0,0.2h0.4l-0.1-0.4L546,192l-0.3-0.2l-0.4-0.1l-0.3,0l-0.2,0.1
	l-0.2,0.2l-0.2,0.2v-0.4h-0.4V194.5L544.1,194.5z M546.8,193.2l0.1,0.6l0.2,0.5l0.4,0.3l0.5,0.1l0.5-0.1l0.4-0.3l0.2-0.5l0.1-0.6
	l-0.1-0.6l-0.2-0.5l-0.4-0.3l-0.5-0.1l-0.5,0.1l-0.4,0.3l-0.2,0.5L546.8,193.2L546.8,193.2z M547.3,193.2l0-0.5l0.1-0.3l0.2-0.2
	l0.3-0.1l0.3,0.1l0.2,0.2l0.1,0.3l0,0.5l0,0.5l-0.1,0.3l-0.2,0.2l-0.3,0.1l-0.3-0.1l-0.2-0.2l-0.1-0.3L547.3,193.2L547.3,193.2z
	 M550,194.5h0.4V193l0-0.4l0.1-0.3l0.2-0.2l0.3-0.1l0.2,0.1l0.2,0.1l0.1,0.2l0,0.3v1.7h0.4v-1.8l0-0.4l-0.1-0.3l-0.3-0.3l-0.5-0.1
	l-0.3,0l-0.2,0.1l-0.2,0.2l-0.1,0.2v-0.4H550V194.5L550,194.5z M553.6,192.3v1.4l0,0.4l0.1,0.3l0.3,0.2l0.5,0.1l0.5,0v-0.4l-0.4,0
	l-0.3,0l-0.2-0.1l-0.1-0.2l0-0.3v-1.3h1v-0.4h-1v-0.8h-0.4v0.8h-0.8v0.4H553.6L553.6,192.3z M555.6,195.4v0.4h3v-0.4H555.6
	L555.6,195.4z M558.9,193.2l0.1,0.6l0.2,0.4l0.4,0.3l0.5,0.1l0.5-0.1l0.4-0.3l0.2-0.4l0.1-0.6V191h-0.5v2.2l0,0.4l-0.1,0.3l-0.2,0.2
	l-0.3,0.1l-0.3-0.1l-0.2-0.2l-0.1-0.3l0-0.4V191h-0.5V193.2L558.9,193.2z M562.5,192.3v-0.4h-0.4v3.8h0.4v-1.5l0.2,0.2l0.2,0.2
	l0.4,0.1l0.4-0.1l0.3-0.3l0.2-0.5l0.1-0.6l-0.1-0.6l-0.2-0.5l-0.3-0.3l-0.4-0.1l-0.2,0l-0.2,0.1l-0.2,0.2L562.5,192.3L562.5,192.3z
	 M563.2,194.2l-0.3-0.1l-0.2-0.2l-0.1-0.3l0-0.5l0-0.5l0.1-0.3l0.2-0.2l0.3-0.1l0.3,0.1l0.2,0.2l0.1,0.3l0,0.4l0,0.5l-0.1,0.3
	l-0.2,0.2L563.2,194.2L563.2,194.2z M565.6,192.3v-0.4h-0.4v3.8h0.4v-1.5l0.2,0.2l0.2,0.2l0.4,0.1l0.4-0.1l0.3-0.3l0.2-0.5l0.1-0.6
	l-0.1-0.6l-0.2-0.5l-0.3-0.3l-0.4-0.1l-0.2,0l-0.2,0.1l-0.2,0.2L565.6,192.3L565.6,192.3z M566.3,194.2l-0.3-0.1l-0.2-0.2l-0.1-0.3
	l0-0.5l0-0.5l0.1-0.3l0.2-0.2l0.3-0.1l0.3,0.1l0.2,0.2l0.1,0.3l0,0.4l0,0.5l-0.1,0.3l-0.2,0.2L566.3,194.2L566.3,194.2z
	 M568.6,193.3h1.8l0-0.2l-0.1-0.6l-0.2-0.4l-0.4-0.3l-0.5-0.1l-0.5,0.1l-0.4,0.3l-0.2,0.5l-0.1,0.6l0.1,0.6l0.2,0.5l0.3,0.3l0.5,0.1
	l0.4-0.1l0.3-0.2l0.2-0.3l0.1-0.4h-0.4l-0.1,0.2l-0.1,0.2l-0.4,0.1l-0.3-0.1l-0.2-0.2l-0.1-0.3L568.6,193.3L568.6,193.3L568.6,193.3
	z M568.6,192.9l0.1-0.3l0.1-0.3l0.2-0.2l0.3-0.1l0.3,0.1l0.2,0.2l0.1,0.3l0,0.3H568.6L568.6,192.9z M571.4,194.5h0.4V193l0-0.4
	l0.1-0.3l0.2-0.2l0.3-0.1l0.2,0l0.2,0.1l0.1,0.2l0,0.2h0.4l-0.1-0.4l-0.2-0.3l-0.3-0.2l-0.4-0.1l-0.3,0l-0.2,0.1l-0.2,0.2l-0.2,0.2
	v-0.4h-0.4V194.5L571.4,194.5z M576.8,194.5h0.5l0.4-1h1.4l0.4,1h0.5l-1.3-3.5h-0.5L576.8,194.5L576.8,194.5z M577.8,193.1l0.5-1.5
	l0.5,1.5H577.8L577.8,193.1z M580.8,193.4h1.2V193h-1.2V193.4L580.8,193.4z M582.9,194.5h0.5l0.4-1h1.4l0.4,1h0.5l-1.3-3.5h-0.5
	L582.9,194.5L582.9,194.5z M583.9,193.1l0.5-1.5l0.5,1.5H583.9L583.9,193.1z M586.6,194.5h0.4V193l0-0.4l0.1-0.3l0.2-0.2l0.3-0.1
	l0.2,0l0.2,0.1l0.1,0.2l0,0.2h0.4l-0.1-0.4l-0.2-0.3l-0.3-0.2l-0.4-0.1l-0.3,0l-0.2,0.1l-0.2,0.2l-0.2,0.2v-0.4h-0.4V194.5
	L586.6,194.5z M589.3,194.5h0.4v-1.8l0-0.3l0.1-0.2l0.1-0.1l0.2,0l0.1,0l0.1,0.1l0,0.2l0,0.2v1.9h0.4v-1.8l0-0.3l0.1-0.2l0.1-0.1
	l0.2,0l0.1,0l0.1,0.1l0,0.4v1.9h0.4v-1.9l0-0.4l-0.1-0.3l-0.2-0.2l-0.3-0.1l-0.3,0.1l-0.2,0.3l-0.2-0.3l-0.3-0.1l-0.3,0.1l-0.2,0.3
	v-0.3h-0.4V194.5L589.3,194.5z M595.9,193.4h1.2V193h-1.2V193.4L595.9,193.4z M601.6,194.5h0.5v-1.5h0.5l0.5,0l0.4-0.2l0.3-0.3
	l0.1-0.5l-0.1-0.4l-0.2-0.3l-0.3-0.2l-0.5-0.1h-1.2V194.5L601.6,194.5z M602.6,191.5l0.3,0l0.2,0.1l0.1,0.2l0,0.3l-0.1,0.3l-0.1,0.2
	l-0.2,0.1l-0.3,0H602v-1.2H602.6L602.6,191.5z M605.5,191.3v2.9h-0.9v0.4h2.3v-0.4h-0.9v-3.2h-1.1v0.4H605.5L605.5,191.3z
	 M609.3,194.2L609.3,194.2l0,0.2l0.1,0.1l0.3,0.1l0.2,0v-0.3l-0.1,0l-0.1-0.1l0-0.2v-1.4l-0.1-0.4l-0.2-0.3l-0.3-0.2l-0.4-0.1
	l-0.4,0.1l-0.3,0.2l-0.2,0.3l-0.1,0.4v0h0.4l0-0.2l0.1-0.2l0.2-0.1l0.3,0l0.2,0l0.2,0.1l0.1,0.1l0,0.2l0,0.2l-0.1,0.1l-0.2,0.1
	l-0.4,0l-0.4,0.1l-0.3,0.2l-0.2,0.3l-0.1,0.4l0.1,0.3l0.2,0.2l0.3,0.2l0.3,0.1l0.5-0.1L609.3,194.2L609.3,194.2z M609.2,193.6
	l-0.1,0.3l-0.2,0.2l-0.2,0.1l-0.3,0l-0.2,0l-0.1-0.1L608,194l0-0.2l0-0.2l0.1-0.1l0.3-0.1l0.4-0.1l0.4-0.1V193.6L609.2,193.6z
	 M612.4,192.3l-0.2-0.2l-0.2-0.2l-0.2-0.1l-0.2,0l-0.4,0.1l-0.3,0.3l-0.2,0.5l-0.1,0.6l0.1,0.6l0.2,0.5l0.3,0.3l0.4,0.1l0.2,0
	l0.2-0.1l0.2-0.2l0.2-0.2v1.5h0.4v-3.8h-0.4V192.3L612.4,192.3z M611,193.2l0-0.4l0.1-0.3l0.2-0.2l0.3-0.1l0.3,0.1l0.2,0.2l0.1,0.3
	l0,0.5l0,0.5l-0.1,0.3l-0.2,0.2l-0.3,0.1l-0.3-0.1l-0.2-0.2l-0.1-0.3L611,193.2L611,193.2z M615.8,191.8h-0.4v1.6l0,0.4l-0.1,0.3
	l-0.2,0.2l-0.3,0.1l-0.2,0l-0.2-0.1l-0.1-0.2l0-0.3v-1.7h-0.4v1.8l0,0.4l0.1,0.3l0.3,0.3l0.5,0.1l0.3,0l0.2-0.1l0.2-0.2l0.2-0.2v0.4
	h0.4V191.8L615.8,191.8z M617.2,193.3h1.8l0-0.2l-0.1-0.6l-0.2-0.4l-0.4-0.3l-0.5-0.1l-0.5,0.1l-0.4,0.3l-0.2,0.5l-0.1,0.6l0.1,0.6
	l0.2,0.5l0.3,0.3l0.5,0.1l0.4-0.1l0.3-0.2l0.2-0.3l0.1-0.4h-0.4l-0.1,0.2l-0.1,0.2l-0.4,0.1l-0.3-0.1l-0.2-0.2l-0.1-0.3L617.2,193.3
	L617.2,193.3L617.2,193.3z M617.2,192.9l0.1-0.3l0.1-0.3l0.2-0.2l0.3-0.1l0.3,0.1l0.2,0.2l0.1,0.3l0,0.3H617.2L617.2,192.9z
	 M624.5,194.1v0.4h0.4v-3.6h-0.4v1.3l-0.3-0.4l-0.2-0.1l-0.2,0l-0.4,0.1l-0.3,0.3l-0.2,0.5l-0.1,0.6l0.1,0.6l0.2,0.5l0.3,0.3
	l0.4,0.1l0.2,0l0.2-0.1L624.5,194.1L624.5,194.1z M623.8,192.1l0.3,0.1l0.2,0.2l0.1,0.3l0.1,0.5l-0.1,0.5l-0.1,0.3l-0.2,0.2
	l-0.3,0.1l-0.3-0.1l-0.2-0.2l-0.1-0.3l0-0.5l0-0.4l0.1-0.3l0.2-0.2L623.8,192.1L623.8,192.1z M628,191.8h-0.4v1.6l0,0.4l-0.1,0.3
	l-0.2,0.2l-0.3,0.1l-0.2,0l-0.2-0.1l-0.1-0.2l0-0.3v-1.7h-0.4v1.8l0,0.4l0.1,0.3l0.3,0.3l0.5,0.1l0.3,0l0.2-0.1l0.2-0.2l0.2-0.2v0.4
	h0.4V191.8L628,191.8z M633.6,192.7l0.4-0.3l0.1-0.2l0-0.2l-0.1-0.4l-0.2-0.3l-0.3-0.2l-0.4-0.1h-1.2v3.5h1.3l0.5-0.1l0.3-0.2
	l0.2-0.3l0.1-0.4l0-0.3l-0.1-0.2l-0.2-0.2L633.6,192.7L633.6,192.7z M633,192.5h-0.7v-1h0.7l0.3,0l0.2,0.1l0.1,0.2l0,0.2l0,0.2
	l-0.1,0.2l-0.2,0.1L633,192.5L633,192.5z M633.1,194.1h-0.8v-1.2h0.8l0.3,0l0.2,0.1l0.1,0.2l0,0.3l0,0.3l-0.1,0.2l-0.2,0.1
	L633.1,194.1L633.1,194.1z M636.6,194.2L636.6,194.2l0,0.2l0.1,0.1l0.3,0.1l0.2,0v-0.3l-0.1,0l-0.1-0.1l0-0.2v-1.4l-0.1-0.4
	l-0.2-0.3l-0.3-0.2l-0.4-0.1l-0.4,0.1l-0.3,0.2l-0.2,0.3l-0.1,0.4v0h0.4l0-0.2l0.1-0.2l0.2-0.1l0.3,0l0.2,0l0.2,0.1l0.1,0.1l0,0.2
	l0,0.2l-0.1,0.1l-0.2,0.1l-0.4,0l-0.4,0.1l-0.3,0.2l-0.2,0.3l-0.1,0.4l0,0.3l0.2,0.2l0.3,0.2l0.3,0.1l0.5-0.1L636.6,194.2
	L636.6,194.2z M636.5,193.6l-0.1,0.3l-0.2,0.2l-0.2,0.1l-0.3,0l-0.2,0l-0.1-0.1l-0.1-0.1l0-0.2l0-0.2l0.1-0.1l0.3-0.1l0.4-0.1
	l0.4-0.1V193.6L636.5,193.6z M639.3,193l-0.4-0.1l-0.3-0.1l-0.1-0.2l0-0.2l0.1-0.1l0.2-0.1l0.2,0l0.2,0l0.2,0.1l0.1,0.1l0,0.2h0.4v0
	l-0.1-0.3l-0.2-0.3l-0.3-0.2l-0.4-0.1l-0.4,0.1l-0.3,0.2l-0.2,0.2l-0.1,0.3l0,0.3l0.1,0.2l0.2,0.2l0.3,0.1l0.5,0.1l0.3,0.1l0.1,0.1
	l0,0.2l0,0.2l-0.1,0.1l-0.2,0.1l-0.3,0l-0.3,0l-0.2-0.1l-0.1-0.2l-0.1-0.2H638l0.1,0.4l0.2,0.3l0.3,0.2l0.5,0.1l0.5-0.1l0.3-0.2
	l0.2-0.3l0.1-0.4l-0.1-0.3l-0.2-0.2l-0.3-0.1L639.3,193L639.3,193z"/>
<path d="M744.5,71.2h0.3v-0.8h0.3l0.2,0l0.1,0l0.1,0.1l0,0.2l0,0.3l0,0.2l0,0.1h0.3v-0.1l-0.1-0.1l0-0.1l0-0.3l0-0.2l-0.1-0.1
	l-0.1-0.1l0.1-0.1l0.1-0.1l0.1-0.1l0-0.2l0-0.2l-0.1-0.2l-0.2-0.1l-0.3,0h-0.7V71.2L744.5,71.2z M745,69.5l0.2,0l0.1,0.1l0.1,0.1
	l0,0.2l0,0.2l-0.1,0.1l-0.1,0.1l-0.2,0h-0.3v-0.7H745L745,69.5z M747,71v-1.3h-0.7v0.2h0.4V71h-0.5v0.2h1.3V71H747L747,71z
	 M747,69.2h-0.3v0.3h0.3V69.2L747,69.2z M749.2,71.2v-1.5h-0.2v0.3l-0.2-0.2l-0.1-0.1l-0.1,0l-0.2,0.1l-0.2,0.2l-0.1,0.3l0,0.3
	l0,0.4l0.1,0.3l0.2,0.2l0.2,0.1l0.1,0l0.1-0.1l0.2-0.2v0.2l0,0.2l-0.1,0.1l-0.1,0.1l-0.2,0l-0.2,0l-0.1,0l-0.1-0.1l0-0.1h-0.2v0
	l0,0.2l0.1,0.1l0.2,0.1l0.3,0l0.3,0l0.2-0.1l0.1-0.2L749.2,71.2L749.2,71.2z M748.1,70.4l0-0.3l0.1-0.2l0.1-0.1l0.2,0l0.2,0l0.1,0.1
	l0.1,0.2l0,0.3l0,0.3l-0.1,0.2l-0.1,0.1l-0.2,0l-0.2,0l-0.1-0.1l-0.1-0.2L748.1,70.4L748.1,70.4z M749.7,71.2h0.3v-0.9l0-0.2
	l0.1-0.1l0.1-0.1l0.2,0l0.1,0l0.1,0.1l0,0.1l0,0.2v1h0.3v-1l0-0.2l-0.1-0.2l-0.2-0.2l-0.3-0.1l-0.1,0l-0.1,0.1l-0.1,0.1l-0.1,0.1
	v-0.7h-0.3V71.2L749.7,71.2z M751.8,69.9v0.8l0,0.3l0.1,0.2l0.2,0.1l0.3,0l0.3,0V71l-0.2,0l-0.2,0l-0.1-0.1l0-0.1l0-0.2v-0.7h0.6
	v-0.2H752v-0.5h-0.3v0.5h-0.4v0.2H751.8L751.8,69.9z M752.9,71.7v0.2h1.7v-0.2H752.9L752.9,71.7z M754.9,71.2h0.3v-0.9h0.8v-0.2
	h-0.8v-0.6h1v-0.2h-1.3V71.2L754.9,71.2z M756.7,71.2h0.3v-0.9l0-0.2l0.1-0.2l0.1-0.1l0.2,0l0.1,0l0.1,0.1l0.1,0.1l0,0.1h0.3l0-0.2
	l-0.1-0.2l-0.2-0.1l-0.2,0l-0.1,0l-0.1,0.1l-0.1,0.1l-0.1,0.1v-0.3h-0.2V71.2L756.7,71.2z M758.3,70.5l0,0.4l0.1,0.3l0.2,0.2
	l0.3,0.1l0.3-0.1l0.2-0.2l0.1-0.3l0-0.4l0-0.4l-0.1-0.3l-0.2-0.2l-0.3-0.1l-0.3,0.1l-0.2,0.2l-0.1,0.3L758.3,70.5L758.3,70.5z
	 M758.6,70.4l0-0.3l0.1-0.2l0.1-0.1l0.2,0l0.2,0l0.1,0.1l0.1,0.2l0,0.3l0,0.3l-0.1,0.2l-0.1,0.1l-0.2,0l-0.2,0l-0.1-0.1l-0.1-0.2
	L758.6,70.4L758.6,70.4z M760.1,71.2h0.3v-0.9l0-0.2l0.1-0.1l0.1-0.1l0.2,0l0.1,0L761,70l0,0.1l0,0.2v1h0.3v-1l0-0.2l-0.1-0.2
	l-0.2-0.2l-0.3-0.1l-0.1,0l-0.1,0.1l-0.1,0.1l-0.1,0.1v-0.2h-0.2V71.2L760.1,71.2z M762.2,69.9v0.8l0,0.3l0.1,0.2l0.2,0.1l0.3,0
	l0.3,0V71l-0.2,0l-0.2,0l-0.1-0.1l0-0.1l0-0.2v-0.7h0.6v-0.2h-0.6v-0.5h-0.3v0.5h-0.4v0.2H762.2L762.2,69.9z M763.3,71.7v0.2h1.7
	v-0.2H763.3L763.3,71.7z M765.2,70.5l0,0.4l0.1,0.3l0.2,0.1l0.3,0.1l0.3-0.1l0.2-0.1l0.1-0.3l0-0.4v-1.2h-0.3v1.3l0,0.2l-0.1,0.2
	l-0.1,0.1l-0.2,0l-0.2,0l-0.1-0.1l-0.1-0.2l0-0.2v-1.3h-0.3V70.5L765.2,70.5z M767.3,69.9v-0.2H767v2.1h0.3V71l0.1,0.1l0.1,0.1
	l0.3,0.1l0.2-0.1l0.2-0.2l0.1-0.3l0-0.4l0-0.3l-0.1-0.3l-0.2-0.2l-0.2-0.1l-0.1,0l-0.1,0.1l-0.1,0.1L767.3,69.9L767.3,69.9z
	 M767.7,71.1l-0.2,0l-0.1-0.1l-0.1-0.2l0-0.3l0-0.3l0.1-0.2l0.1-0.1l0.2,0l0.2,0L768,70l0.1,0.2l0,0.3l0,0.3l-0.1,0.2l-0.1,0.1
	L767.7,71.1L767.7,71.1z M769,69.9v-0.2h-0.3v2.1h0.3V71l0.1,0.1l0.1,0.1l0.3,0.1l0.2-0.1l0.2-0.2l0.1-0.3l0-0.4l0-0.3l-0.1-0.3
	l-0.2-0.2l-0.2-0.1l-0.1,0l-0.1,0.1l-0.1,0.1L769,69.9L769,69.9z M769.4,71.1l-0.2,0l-0.1-0.1l-0.1-0.2l0-0.3l0-0.3l0.1-0.2l0.1-0.1
	l0.2,0l0.2,0l0.1,0.1l0.1,0.2l0,0.3l0,0.3l-0.1,0.2l-0.1,0.1L769.4,71.1L769.4,71.1z M770.7,70.5h1l0-0.1l0-0.3l-0.1-0.2l-0.2-0.1
	l-0.3-0.1l-0.3,0.1l-0.2,0.2l-0.1,0.3l0,0.3l0,0.4l0.1,0.3l0.2,0.2l0.3,0.1l0.2,0l0.2-0.1l0.1-0.2l0.1-0.2h-0.3l-0.1,0.1l-0.1,0.1
	l-0.2,0.1l-0.2,0l-0.1-0.1l-0.1-0.2L770.7,70.5L770.7,70.5L770.7,70.5z M770.7,70.3l0-0.2l0.1-0.1l0.1-0.1l0.2,0l0.2,0l0.1,0.1
	l0.1,0.1l0,0.2H770.7L770.7,70.3z M772.4,71.2h0.3v-0.9l0-0.2l0.1-0.2l0.1-0.1l0.2,0l0.1,0l0.1,0.1l0.1,0.1l0,0.1h0.3l0-0.2
	l-0.1-0.2l-0.2-0.1l-0.2,0l-0.1,0l-0.1,0.1l-0.1,0.1l-0.1,0.1v-0.3h-0.2V71.2L772.4,71.2z M775.5,71.2h0.3l0.2-0.6h0.8l0.2,0.6h0.3
	l-0.7-2h-0.3L775.5,71.2L775.5,71.2z M776,70.4l0.3-0.9l0.3,0.9H776L776,70.4z M777.7,70.6h0.7v-0.2h-0.7V70.6L777.7,70.6z
	 M778.9,71.2h0.3l0.2-0.6h0.8l0.2,0.6h0.3l-0.7-2h-0.3L778.9,71.2L778.9,71.2z M779.5,70.4l0.3-0.9l0.3,0.9H779.5L779.5,70.4z
	 M781,71.2h0.3v-0.9l0-0.2l0.1-0.2l0.1-0.1l0.2,0l0.1,0l0.1,0.1L782,70l0,0.1h0.3l0-0.2l-0.1-0.2l-0.2-0.1l-0.2,0l-0.1,0l-0.1,0.1
	l-0.1,0.1l-0.1,0.1v-0.3H781V71.2L781,71.2z M782.6,71.2h0.2v-1l0-0.2l0-0.1l0.1-0.1l0.1,0l0.1,0l0,0.1l0,0.1l0,0.1v1.1h0.2v-1
	l0-0.2l0-0.1l0.1-0.1l0.1,0l0.1,0l0,0.1l0,0.2v1.1h0.2v-1.1l0-0.2l0-0.2l-0.1-0.1l-0.1,0l-0.2,0.1l-0.1,0.2l-0.1-0.2l-0.2-0.1
	l-0.2,0.1l-0.1,0.2v-0.2h-0.2V71.2L782.6,71.2z"/>
<path d="M758.4,74.7h1.3v-0.2h-1v-0.7h0.9v-0.2h-0.9v-0.6h1v-0.2h-1.2V74.7L758.4,74.7z M759.8,75.2v0.2h1.7v-0.2H759.8L759.8,75.2z
	 M761.6,74.7h0.3l0.2-0.6h0.8l0.2,0.6h0.3l-0.7-2h-0.3L761.6,74.7L761.6,74.7z M762.1,73.8l0.3-0.9l0.3,0.9H762.1L762.1,73.8z
	 M764,74.7h0.3l0.6-1.5h-0.3l-0.4,1.2l-0.4-1.2h-0.3L764,74.7L764,74.7z M766.2,74.5L766.2,74.5l0,0.1l0,0.1l0.2,0.1l0.1,0v-0.2
	l-0.1,0l-0.1,0l0-0.1v-0.8l0-0.2l-0.1-0.1l-0.2-0.1l-0.2,0l-0.2,0l-0.2,0.1l-0.1,0.2l0,0.2v0h0.2l0-0.1l0.1-0.1l0.1-0.1l0.1,0l0.1,0
	l0.1,0l0.1,0.1l0,0.1l0,0.1l0,0.1l-0.1,0l-0.2,0l-0.2,0.1l-0.2,0.1l-0.1,0.1l0,0.2l0,0.2l0.1,0.1l0.1,0.1l0.2,0l0.3-0.1L766.2,74.5
	L766.2,74.5z M766.2,74.1l0,0.1l-0.1,0.1l-0.1,0.1l-0.2,0l-0.1,0l-0.1,0l0-0.1l0-0.1l0-0.1l0-0.1l0.2-0.1l0.2,0l0.2-0.1V74.1
	L766.2,74.1z M767.1,74.7h0.3v-0.9l0-0.2l0.1-0.1l0.1-0.1l0.2,0l0.1,0l0.1,0.1l0,0.1l0,0.2v1h0.3v-1l0-0.2l-0.1-0.2l-0.2-0.2
	l-0.3-0.1l-0.1,0l-0.1,0.1l-0.1,0.1l-0.1,0.1v-0.2h-0.2V74.7L767.1,74.7z M769.1,73.4v0.8l0,0.3l0.1,0.2l0.2,0.1l0.3,0l0.3,0v-0.2
	l-0.2,0l-0.2,0l-0.1-0.1l0-0.1l0-0.2v-0.7h0.6v-0.2h-0.6v-0.5h-0.3v0.5h-0.4v0.2H769.1L769.1,73.4z"/>
<path d="M841.2,63.5h0.2v-0.8h0.2l0.2,0l0.1,0l0.1,0.1l0,0.2l0,0.2l0,0.2l0,0.1h0.3v0l-0.1-0.1l0-0.1l0-0.3l0-0.2l-0.1-0.1l-0.1,0
	l0.1-0.1l0.1-0.1l0-0.1l0-0.1l0-0.2l-0.1-0.2l-0.2-0.1l-0.2,0h-0.6V63.5L841.2,63.5z M841.7,61.9l0.2,0l0.1,0l0.1,0.1l0,0.1l0,0.2
	l-0.1,0.1l-0.1,0l-0.2,0h-0.3v-0.6H841.7L841.7,61.9z M843.5,63.3v-1.2h-0.6v0.2h0.4v1h-0.5v0.2h1.2v-0.2H843.5L843.5,63.3z
	 M843.5,61.6h-0.2v0.3h0.2V61.6L843.5,61.6z M845.5,63.4v-1.3h-0.2v0.2l-0.2-0.2l-0.1-0.1l-0.1,0l-0.2,0.1l-0.2,0.1l-0.1,0.2l0,0.3
	l0,0.3l0.1,0.2l0.2,0.1l0.2,0l0.1,0l0.1,0l0.2-0.2v0.2l0,0.2l-0.1,0.1l-0.1,0.1l-0.2,0l-0.1,0l-0.1,0l-0.1-0.1l0-0.1h-0.2v0l0,0.2
	l0.1,0.1l0.2,0.1l0.2,0l0.3,0l0.2-0.1l0.1-0.2L845.5,63.4L845.5,63.4z M844.5,62.8l0-0.2l0.1-0.2l0.1-0.1l0.1,0l0.2,0l0.1,0.1
	l0.1,0.2l0,0.2l0,0.2l-0.1,0.2l-0.1,0.1l-0.2,0l-0.1,0l-0.1-0.1l-0.1-0.2L844.5,62.8L844.5,62.8z M845.9,63.5h0.2v-0.8l0-0.2
	l0.1-0.1l0.1-0.1l0.2,0l0.1,0l0.1,0.1l0,0.1l0,0.2v0.9h0.2v-0.9l0-0.2l0-0.2l-0.2-0.1l-0.2,0l-0.1,0l-0.1,0l-0.1,0.1l-0.1,0.1v-0.7
	h-0.2V63.5L845.9,63.5z M847.8,62.3V63l0,0.2l0.1,0.2l0.1,0.1l0.2,0l0.3,0v-0.2l-0.2,0l-0.2,0l-0.1-0.1l0-0.1l0-0.2v-0.7h0.5v-0.2
	H848v-0.4h-0.2v0.4h-0.4v0.2H847.8L847.8,62.3z M848.8,63.9v0.2h1.6v-0.2H848.8L848.8,63.9z M850.6,63.5h0.2v-0.8h0.8v-0.2h-0.8
	v-0.5h0.9v-0.2h-1.2V63.5L850.6,63.5z M852.3,63.5h0.2v-0.8l0-0.2l0.1-0.1l0.1-0.1l0.2,0l0.1,0l0.1,0.1l0.1,0.1l0,0.1h0.2l0-0.2
	l-0.1-0.2l-0.1-0.1l-0.2,0l-0.1,0l-0.1,0.1l-0.1,0.1l-0.1,0.1v-0.2h-0.2V63.5L852.3,63.5z M853.7,62.8l0,0.3l0.1,0.2l0.2,0.1l0.3,0
	l0.3,0l0.2-0.1l0.1-0.2l0-0.3l0-0.3l-0.1-0.2l-0.2-0.1l-0.3-0.1l-0.3,0.1l-0.2,0.1l-0.1,0.2L853.7,62.8L853.7,62.8z M853.9,62.8
	l0-0.2l0.1-0.2l0.1-0.1l0.2,0l0.2,0l0.1,0.1l0.1,0.2l0,0.2l0,0.2l-0.1,0.2l-0.1,0.1l-0.2,0l-0.2,0l-0.1-0.1l-0.1-0.2L853.9,62.8
	L853.9,62.8z M855.3,63.5h0.2v-0.8l0-0.2l0.1-0.1l0.1-0.1l0.2,0l0.1,0l0.1,0.1l0,0.1l0,0.2v0.9h0.2v-0.9l0-0.2l0-0.2l-0.2-0.1
	l-0.2,0l-0.1,0l-0.1,0l-0.1,0.1l-0.1,0.1v-0.2h-0.2V63.5L855.3,63.5z M857.2,62.3V63l0,0.2l0.1,0.2l0.1,0.1l0.2,0l0.3,0v-0.2l-0.2,0
	l-0.2,0l-0.1-0.1l0-0.1l0-0.2v-0.7h0.5v-0.2h-0.5v-0.4h-0.2v0.4h-0.4v0.2H857.2L857.2,62.3z M858.2,63.9v0.2h1.6v-0.2H858.2
	L858.2,63.9z M859.9,62.8l0,0.3l0.1,0.2l0.2,0.1l0.3,0l0.3,0l0.2-0.1l0.1-0.2l0-0.3v-1.1h-0.2v1.1l0,0.2l-0.1,0.2l-0.1,0.1l-0.2,0
	l-0.2,0l-0.1-0.1l-0.1-0.2l0-0.2v-1.1h-0.2V62.8L859.9,62.8z M861.8,62.3v-0.2h-0.2V64h0.2v-0.8l0.1,0.1l0.1,0.1l0.2,0.1l0.2,0
	l0.2-0.1l0.1-0.2l0-0.3l0-0.3l-0.1-0.2l-0.2-0.1l-0.2-0.1l-0.1,0l-0.1,0l-0.1,0.1L861.8,62.3L861.8,62.3z M862.1,63.3l-0.2,0
	l-0.1-0.1l-0.1-0.2l0-0.2l0-0.2l0.1-0.2l0.1-0.1l0.2,0l0.1,0l0.1,0.1l0.1,0.2l0,0.2l0,0.2l-0.1,0.2l-0.1,0.1L862.1,63.3L862.1,63.3z
	 M863.3,62.3v-0.2h-0.2V64h0.2v-0.8l0.1,0.1l0.1,0.1l0.2,0.1l0.2,0l0.2-0.1l0.1-0.2l0-0.3l0-0.3l-0.1-0.2l-0.2-0.1l-0.2-0.1l-0.1,0
	l-0.1,0l-0.1,0.1L863.3,62.3L863.3,62.3z M863.7,63.3l-0.2,0l-0.1-0.1l-0.1-0.2l0-0.2l0-0.2l0.1-0.2l0.1-0.1l0.2,0l0.1,0l0.1,0.1
	l0.1,0.2l0,0.2l0,0.2l-0.1,0.2l-0.1,0.1L863.7,63.3L863.7,63.3z M864.9,62.9h0.9l0-0.1l0-0.3l-0.1-0.2l-0.2-0.1l-0.2,0l-0.2,0.1
	l-0.2,0.1l-0.1,0.2l0,0.3l0,0.3l0.1,0.2l0.2,0.1l0.2,0l0.2,0l0.2-0.1l0.1-0.1l0.1-0.2h-0.2l0,0.1l-0.1,0.1l-0.2,0.1l-0.1,0l-0.1-0.1
	l-0.1-0.1L864.9,62.9L864.9,62.9L864.9,62.9z M864.9,62.7l0-0.2l0.1-0.1l0.1-0.1l0.1,0l0.1,0l0.1,0.1l0.1,0.1l0,0.2H864.9
	L864.9,62.7z M866.3,63.5h0.2v-0.8l0-0.2l0.1-0.1l0.1-0.1l0.2,0l0.1,0l0.1,0.1l0.1,0.1l0,0.1h0.2l0-0.2l-0.1-0.2l-0.1-0.1l-0.2,0
	l-0.1,0l-0.1,0.1l-0.1,0.1l-0.1,0.1v-0.2h-0.2V63.5L866.3,63.5z M869.1,63.5h0.2l0.2-0.5h0.7l0.2,0.5h0.2l-0.7-1.8h-0.3L869.1,63.5
	L869.1,63.5z M869.6,62.8l0.3-0.8l0.3,0.8H869.6L869.6,62.8z M871.1,62.9h0.6v-0.2h-0.6V62.9L871.1,62.9z M872.2,63.5h0.2l0.2-0.5
	h0.7l0.2,0.5h0.2l-0.7-1.8h-0.3L872.2,63.5L872.2,63.5z M872.7,62.8L873,62l0.3,0.8H872.7L872.7,62.8z M874.1,63.5h0.2v-0.8l0-0.2
	l0.1-0.1l0.1-0.1l0.2,0l0.1,0l0.1,0.1l0.1,0.1l0,0.1h0.2l0-0.2l-0.1-0.2l-0.1-0.1l-0.2,0l-0.1,0l-0.1,0.1l-0.1,0.1l-0.1,0.1v-0.2
	h-0.2V63.5L874.1,63.5z M875.5,63.5h0.2v-0.9l0-0.1l0-0.1l0.1-0.1l0.1,0l0.1,0l0,0.1l0,0.1l0,0.1v1h0.2v-0.9l0-0.1l0-0.1l0.1-0.1
	l0.1,0l0.1,0l0,0.1l0,0.2v1h0.2v-1l0-0.2l0-0.2l-0.1-0.1l-0.1,0l-0.2,0.1l-0.1,0.2l-0.1-0.1l-0.2-0.1l-0.1,0.1l-0.1,0.1v-0.1h-0.2
	V63.5L875.5,63.5z"/>
<path d="M852.2,66.6h1.1v-0.2h-0.9v-0.6h0.8v-0.2h-0.8V65h0.9v-0.2h-1.1V66.6L852.2,66.6z M853.5,67v0.2h1.6V67H853.5L853.5,67z
	 M855.1,66.6h0.2l0.2-0.5h0.7l0.2,0.5h0.2l-0.7-1.8h-0.3L855.1,66.6L855.1,66.6z M855.6,65.9l0.3-0.8l0.3,0.8H855.6L855.6,65.9z
	 M857,66.6h0.2v-0.8l0-0.2l0.1-0.1l0.1-0.1l0.2,0l0.1,0l0.1,0.1l0.1,0.1l0,0.1h0.2l0-0.2l-0.1-0.2l-0.1-0.1l-0.2,0l-0.1,0l-0.1,0.1
	l-0.1,0.1l-0.1,0.1v-0.2H857V66.6L857,66.6z M858.5,66.6h0.2v-0.8l0-0.2l0.1-0.1l0.1-0.1l0.2,0l0.1,0l0.1,0.1l0.1,0.1l0,0.1h0.2
	l0-0.2l-0.1-0.2l-0.1-0.1l-0.2,0l-0.1,0l-0.1,0.1l-0.1,0.1l-0.1,0.1v-0.2h-0.2V66.6L858.5,66.6z M860.7,66.4v-1.2h-0.6v0.2h0.4v1
	H860v0.2h1.2v-0.2H860.7L860.7,66.4z M860.7,64.7h-0.2V65h0.2V64.7L860.7,64.7z M862.3,65l-0.3-0.4h-0.3l0.4,0.4H862.3L862.3,65z
	 M861.8,66h0.9l0-0.1l0-0.3l-0.1-0.2l-0.2-0.1l-0.2,0l-0.2,0.1l-0.2,0.1l-0.1,0.2l0,0.3l0,0.3l0.1,0.2l0.2,0.1l0.2,0l0.2,0l0.2-0.1
	l0.1-0.1l0.1-0.2h-0.2l0,0.1l-0.1,0.1l-0.2,0.1l-0.1,0l-0.1-0.1l-0.1-0.1L861.8,66L861.8,66L861.8,66z M861.8,65.8l0-0.2l0.1-0.1
	l0.1-0.1l0.1,0l0.1,0l0.1,0.1l0.1,0.1l0,0.2H861.8L861.8,65.8z M863.2,66.6h0.2v-0.8l0-0.2l0.1-0.1l0.1-0.1l0.2,0l0.1,0l0.1,0.1
	l0.1,0.1l0,0.1h0.2l0-0.2l-0.1-0.2l-0.1-0.1l-0.2,0l-0.1,0l-0.1,0.1l-0.1,0.1l-0.1,0.1v-0.2h-0.2V66.6L863.2,66.6z M864.9,66h0.9
	l0-0.1l0-0.3l-0.1-0.2l-0.2-0.1l-0.2,0l-0.2,0.1l-0.2,0.1l-0.1,0.2l0,0.3l0,0.3l0.1,0.2l0.2,0.1l0.2,0l0.2,0l0.2-0.1l0.1-0.1
	l0.1-0.2h-0.2l0,0.1l-0.1,0.1l-0.2,0.1l-0.1,0l-0.1-0.1l-0.1-0.1L864.9,66L864.9,66L864.9,66z M864.9,65.8l0-0.2l0.1-0.1l0.1-0.1
	l0.1,0l0.1,0l0.1,0.1l0.1,0.1l0,0.2H864.9L864.9,65.8z"/>
</svg>
