<?xml version="1.0" encoding="utf-8" ?><!DOCTYPE svg PUBLIC "-//W3C//DTD SVG 1.1//EN" "http://www.w3.org/Graphics/SVG/1.1/DTD/svg11.dtd" 
[ <!ATTLIST svg 
  xmlns:dsy CDATA #FIXED "http://www.3ds.com/print"  
    dsy:text-version CDATA #IMPLIED > 

  <!ATTLIST text 
  xmlns:dsy CDATA #FIXED "http://www.3ds.com/print" 
    dsy:text-version CDATA #IMPLIED > 
]><svg xmlns="http://www.w3.org/2000/svg" xmlns:dsy="http://www.3ds.com/print" dsy:text-version="18000" width="1189" height="841" viewBox="0 0 1189 841" version="1.1"><g stroke="rgb(0, 0, 0)" stroke-width="0.35" stroke-linecap="butt" stroke-linejoin="miter" fill="none"><path d="M 252.324 61.0339 L 262.844 78.0434"/><path d="M 257.827 81.1469 L 262.844 78.0434"/><path d="M 247.306 64.1375 L 257.827 81.1469"/><path d="M 170.764 111.479 L 247.306 64.1375"/><path d="M 170.764 111.479 L 71.6467 124.739"/><path d="M 71.6467 124.739 L 74.2987 144.562"/><path d="M 74.2987 144.562 L 68.4508 145.345"/><path d="M 68.4508 145.345 L 65.7988 125.521"/><path d="M 120.551 209.976 L 105.826 223.511"/><path d="M 127.318 217.339 L 120.551 209.976"/><path d="M 112.594 230.873 L 127.318 217.339"/><circle cx="284.219" cy="58.4294" r="3.2"/><circle cx="49.4867" cy="144.458" r="3.2"/><circle cx="270.965" cy="385.404" r="3.2"/><circle cx="264.352" cy="351.034" r="5.99998"/><path d="M 176.465 146.012 L 178.019 165.951"/><path d="M 172.037 166.418 L 178.019 165.951"/><path d="M 170.483 146.478 L 172.037 166.418"/><path d="M 176.465 146.012 L 170.483 146.478"/><path d="M 44.0705 150.299 L 44.7507 149.566"/><path d="M 31.6085 138.736 L 44.0705 150.299"/><path d="M 32.2887 138.003 L 31.6085 138.736"/><path d="M 44.7507 149.566 L 32.2887 138.003"/><path d="M 50.3311 132.255 L 51.187 131.738"/><path d="M 51.187 131.738 L 56.3588 140.297"/><path d="M 56.3588 140.297 L 55.5029 140.814"/><path d="M 55.5029 140.814 L 50.3311 132.255"/><path d="M 290.946 59.6771 L 293.823 43.8755"/><path d="M 293.823 43.8755 L 294.807 44.0546"/><path d="M 294.807 44.0546 L 291.93 59.8563"/><path d="M 291.93 59.8563 L 290.946 59.6771"/><path d="M 275.109 49.2637 L 276.098 59.2146"/><path d="M 276.104 49.1647 L 275.109 49.2637"/><path d="M 277.093 59.1157 L 276.104 49.1647"/><path d="M 276.098 59.2146 L 277.093 59.1157"/><path d="M 273.591 406.023 L 112.594 230.873"/><path d="M 273.591 406.023 A 4.99998 4.99998 0 0 0 282.268 402.841"/><path d="M 30.7479 130.211 L 65.7988 125.521"/><path d="M 27.7298 138.55 L 105.826 223.511"/><path d="M 30.7479 130.211 A 4.99998 4.99998 0 0 0 27.7298 138.55"/><path d="M 289.242 38.2001 L 252.324 61.0339"/><path d="M 282.268 402.841 L 296.868 42.6549"/><path d="M 296.868 42.655 A 4.99998 4.99998 0 0 0 289.242 38.2001"/><path d="M 638.852 50.9919 L 649.372 68.0013"/><path d="M 644.354 71.1049 L 649.372 68.0013"/><path d="M 633.834 54.0954 L 644.354 71.1049"/><path d="M 557.291 101.437 L 633.834 54.0954"/><path d="M 557.291 101.437 L 458.174 114.697"/><path d="M 458.174 114.697 L 460.826 134.52"/><path d="M 460.826 134.52 L 454.978 135.303"/><path d="M 454.978 135.303 L 452.326 115.479"/><path d="M 507.078 199.934 L 492.354 213.469"/><path d="M 513.846 207.297 L 507.078 199.934"/><path d="M 499.121 220.831 L 513.846 207.297"/><circle cx="670.746" cy="48.3875" r="3.20001"/><circle cx="436.014" cy="134.416" r="3.20001"/><circle cx="657.493" cy="375.362" r="3.20001"/><circle cx="650.88" cy="340.992" r="6"/><path d="M 562.992 135.97 L 564.546 155.909"/><path d="M 558.565 156.376 L 564.546 155.909"/><path d="M 557.01 136.436 L 558.565 156.376"/><path d="M 562.992 135.97 L 557.01 136.436"/><path d="M 430.568 140.285 L 431.248 139.552"/><path d="M 418.106 128.723 L 430.568 140.285"/><path d="M 418.786 127.99 L 418.106 128.723"/><path d="M 431.248 139.552 L 418.786 127.99"/><path d="M 442 130.8 L 436.828 122.241"/><path d="M 436.828 122.241 L 437.684 121.724"/><path d="M 437.684 121.724 L 442.856 130.283"/><path d="M 442.856 130.283 L 442 130.8"/><path d="M 677.846 49.3099 L 679.948 33.3865"/><path d="M 679.948 33.3865 L 680.939 33.5175"/><path d="M 680.939 33.5175 L 678.837 49.4408"/><path d="M 678.837 49.4408 L 677.846 49.3099"/><path d="M 661.519 39.683 L 662.993 49.5737"/><path d="M 662.508 39.5355 L 661.519 39.683"/><path d="M 663.982 49.4262 L 662.508 39.5355"/><path d="M 662.993 49.5737 L 663.982 49.4262"/><path d="M 417.276 120.168 L 452.326 115.479"/><path d="M 414.257 128.508 L 492.354 213.469"/><path d="M 417.276 120.168 A 5 5 0 0 0 414.257 128.508"/><path d="M 675.77 28.158 L 638.852 50.9919"/><path d="M 683.396 32.6129 A 5 5 0 0 0 675.77 28.158"/><path d="M 660.119 395.98 L 499.121 220.831"/><path d="M 668.796 392.799 L 683.396 32.6129"/><path d="M 660.119 395.98 A 5 5 0 0 0 668.796 392.799"/><path d="M 771.219 75.9633 L 777.208 75.6129"/><path d="M 772.387 95.9291 L 771.219 75.9633"/><path d="M 764.401 96.3964 L 772.387 95.9291"/><path d="M 763.232 76.4305 L 764.401 96.3964"/><path d="M 757.243 76.781 L 763.232 76.4305"/><path d="M 735.432 42.9974 A 0.199951 0.199951 0 0 0 735.244 43.2086"/><path d="M 736.389 62.7751 L 735.244 43.2086"/><path d="M 736.389 62.7751 A 0.199951 0.199951 0 0 0 736.6 62.9631"/><path d="M 736.892 67.9547 A 0.199951 0.199951 0 0 0 736.704 68.1659"/><path d="M 736.892 67.9546 L 746.476 67.3939"/><path d="M 746.476 67.3938 A 0.199951 0.199951 0 0 0 746.664 67.1826"/><path d="M 738.433 97.7154 L 736.704 68.166"/><path d="M 738.433 97.7154 A 0.199951 0.199951 0 0 0 738.645 97.9033"/><path d="M 735.432 42.9973 L 742.531 42.5819"/><path d="M 742.742 42.7668 A 0.199951 0.199951 0 0 0 742.531 42.582"/><path d="M 742.742 42.7667 A 12.5 12.5 0 0 0 767.696 41.3067"/><path d="M 767.884 41.0986 A 0.199951 0.199951 0 0 0 767.696 41.3067"/><path d="M 746.184 62.4024 L 736.6 62.9631"/><path d="M 746.664 67.1825 L 746.395 62.5904"/><path d="M 746.395 62.5904 A 0.199951 0.199951 0 0 0 746.184 62.4025"/><path d="M 757.243 76.781 L 758.399 96.5472"/><path d="M 758.211 96.7585 L 738.645 97.9034"/><path d="M 758.211 96.7585 A 0.199951 0.199951 0 0 0 758.399 96.5472"/><path d="M 784.947 40.1002 L 767.884 41.0985"/><path d="M 785.159 40.2881 A 0.199951 0.199951 0 0 0 784.947 40.1002"/><path d="M 788.348 94.7949 L 785.159 40.2881"/><path d="M 788.16 95.0062 A 0.199951 0.199951 0 0 0 788.348 94.795"/><path d="M 777.208 75.6129 L 778.365 95.379"/><path d="M 778.576 95.567 L 788.16 95.0063"/><path d="M 778.365 95.379 A 0.199951 0.199951 0 0 0 778.576 95.567"/><path d="M 863.226 72.1057 L 869.218 71.8049"/><path d="M 864.249 92.4817 L 863.226 72.1057"/><path d="M 856.238 92.4817 L 864.249 92.4817"/><path d="M 855.236 72.5068 L 856.238 92.4817"/><path d="M 849.243 72.8077 L 855.236 72.5068"/><path d="M 850.246 56.3503 L 863.336 56.3503"/><path d="M 863.336 56.3503 A 2 2 0 0 0 863.336 52.3503"/><path d="M 863.336 52.3503 L 850.246 52.3503"/><path d="M 850.246 52.3503 A 2 2 0 0 0 850.246 56.3503"/><path d="M 835.446 37.3503 A 0.199951 0.199951 0 0 0 835.246 37.5503"/><path d="M 835.246 60.5825 L 835.246 37.5503"/><path d="M 835.246 60.5825 A 0.199951 0.199951 0 0 0 835.446 60.7825"/><path d="M 835.446 62.7826 A 0.199951 0.199951 0 0 0 835.246 62.9825"/><path d="M 835.446 62.7825 L 840.046 62.7825"/><path d="M 840.046 62.7825 A 0.199951 0.199951 0 0 0 840.246 62.5825"/><path d="M 840.046 60.7825 L 835.446 60.7825"/><path d="M 840.246 62.5825 L 840.246 60.9825"/><path d="M 840.246 60.9825 A 0.199951 0.199951 0 0 0 840.046 60.7826"/><path d="M 835.246 92.5825 L 835.246 62.9825"/><path d="M 835.246 92.5825 A 0.199951 0.199951 0 0 0 835.446 92.7825"/><path d="M 849.243 72.8077 L 850.236 92.5725"/><path d="M 850.036 92.7825 L 835.446 92.7825"/><path d="M 850.036 92.7825 A 0.199951 0.199951 0 0 0 850.236 92.5725"/><path d="M 835.446 37.3503 L 842.179 37.3503"/><path d="M 842.379 37.5492 A 0.199951 0.199951 0 0 0 842.179 37.3503"/><path d="M 842.379 37.5492 A 12.5 12.5 0 0 0 867.379 37.5492"/><path d="M 867.579 37.3503 A 0.199951 0.199951 0 0 0 867.379 37.5492"/><path d="M 867.579 37.3503 L 877.311 37.3503"/><path d="M 877.51 37.5403 A 0.199951 0.199951 0 0 0 877.311 37.3503"/><path d="M 880.198 91.0786 L 877.51 37.5403"/><path d="M 880.009 91.2883 A 0.199951 0.199951 0 0 0 880.198 91.0786"/><path d="M 869.218 71.8049 L 870.211 91.58"/><path d="M 870.421 91.7697 L 880.009 91.2883"/><path d="M 870.211 91.58 A 0.199951 0.199951 0 0 0 870.421 91.7697"/></g><g stroke="rgb(0, 0, 0)" stroke-width="0.13" stroke-linecap="butt" stroke-linejoin="miter" fill="none"><path d="M 136.039 204.587 L 136.508 204.587 L 136.508 203.109 L 136.987 203.109 L 137.34 203.124 L 137.562 203.195 L 137.683 203.361 L 137.733 203.659 L 137.758 204.113 L 137.789 204.41 L 137.849 204.587 L 138.379 204.587 L 138.379 204.491 L 138.263 204.35 L 138.222 204.088 L 138.187 203.523 L 138.101 203.104 L 137.985 202.973 L 137.804 202.877 L 138.005 202.751 L 138.147 202.575 L 138.237 202.353 L 138.268 202.085 L 138.197 201.662 L 137.995 201.344 L 137.663 201.152 L 137.209 201.087 L 136.039 201.087 L 136.039 204.587 L 136.039 204.587 z M 137.078 201.515 L 137.385 201.546 L 137.602 201.642 L 137.738 201.818 L 137.784 202.095 L 137.733 202.388 L 137.597 202.564 L 137.365 202.655 L 137.047 202.68 L 136.508 202.68 L 136.508 201.515 L 137.078 201.515 L 137.078 201.515 z M 140.512 204.214 L 140.512 201.969 L 139.372 201.969 L 139.372 202.348 L 140.068 202.348 L 140.068 204.214 L 139.16 204.214 L 139.16 204.587 L 141.43 204.587 L 141.43 204.214 L 140.512 204.214 L 140.512 204.214 z M 140.527 200.966 L 140.058 200.966 L 140.058 201.47 L 140.527 201.47 L 140.527 200.966 L 140.527 200.966 z M 144.299 204.466 L 144.299 201.879 L 143.876 201.879 L 143.876 202.317 L 143.528 201.919 L 143.316 201.818 L 143.079 201.783 L 142.65 201.884 L 142.317 202.166 L 142.101 202.62 L 142.025 203.23 L 142.101 203.845 L 142.317 204.299 L 142.65 204.587 L 143.079 204.683 L 143.321 204.647 L 143.523 204.557 L 143.876 204.173 L 143.876 204.557 L 143.835 204.859 L 143.725 205.076 L 143.513 205.202 L 143.195 205.247 L 142.918 205.217 L 142.721 205.142 L 142.605 205.01 L 142.57 204.834 L 142.141 204.834 L 142.141 204.854 L 142.207 205.177 L 142.408 205.419 L 142.731 205.575 L 143.17 205.631 L 143.694 205.555 L 144.042 205.343 L 144.239 204.975 L 144.299 204.466 L 144.299 204.466 z M 142.484 203.23 L 142.529 202.781 L 142.665 202.448 L 142.877 202.252 L 143.16 202.181 L 143.457 202.252 L 143.679 202.448 L 143.815 202.781 L 143.866 203.23 L 143.815 203.689 L 143.679 204.017 L 143.457 204.219 L 143.16 204.284 L 142.877 204.219 L 142.665 204.017 L 142.529 203.684 L 142.484 203.23 L 142.484 203.23 z M 145.227 204.587 L 145.671 204.587 L 145.671 203.023 L 145.717 202.665 L 145.863 202.403 L 146.09 202.242 L 146.392 202.181 L 146.634 202.232 L 146.786 202.368 L 146.861 202.595 L 146.887 202.897 L 146.887 204.587 L 147.33 204.587 L 147.33 202.807 L 147.31 202.448 L 147.219 202.151 L 146.922 201.879 L 146.458 201.783 L 146.206 201.818 L 145.989 201.914 L 145.807 202.065 L 145.671 202.272 L 145.671 200.966 L 145.227 200.966 L 145.227 204.587 L 145.227 204.587 z M 148.859 202.348 L 148.859 203.704 L 148.889 204.143 L 149.03 204.446 L 149.312 204.622 L 149.792 204.683 L 150.316 204.657 L 150.316 204.274 L 149.933 204.304 L 149.585 204.264 L 149.398 204.138 L 149.317 203.926 L 149.302 203.629 L 149.302 202.348 L 150.316 202.348 L 150.316 201.969 L 149.302 201.969 L 149.302 201.178 L 148.859 201.178 L 148.859 201.969 L 148.092 201.969 L 148.092 202.348 L 148.859 202.348 L 148.859 202.348 z M 150.825 205.424 L 150.825 205.777 L 153.861 205.777 L 153.861 205.424 L 150.825 205.424 L 150.825 205.424 z M 154.346 204.587 L 154.815 204.587 L 154.815 202.978 L 156.287 202.978 L 156.287 202.559 L 154.815 202.559 L 154.815 201.51 L 156.625 201.51 L 156.625 201.087 L 154.346 201.087 L 154.346 204.587 L 154.346 204.587 z M 157.538 204.587 L 157.982 204.587 L 157.982 203.039 L 158.027 202.665 L 158.163 202.398 L 158.385 202.237 L 158.683 202.181 L 158.905 202.216 L 159.071 202.317 L 159.172 202.489 L 159.207 202.721 L 159.656 202.721 L 159.596 202.312 L 159.429 202.02 L 159.152 201.843 L 158.774 201.783 L 158.516 201.823 L 158.294 201.924 L 158.098 202.095 L 157.941 202.327 L 157.941 201.879 L 157.538 201.879 L 157.538 204.587 L 157.538 204.587 z M 160.276 203.235 L 160.357 203.85 L 160.589 204.304 L 160.957 204.587 L 161.451 204.683 L 161.941 204.587 L 162.309 204.309 L 162.541 203.856 L 162.627 203.235 L 162.541 202.62 L 162.309 202.161 L 161.941 201.884 L 161.451 201.783 L 160.957 201.884 L 160.589 202.166 L 160.357 202.62 L 160.276 203.235 L 160.276 203.235 z M 160.73 203.23 L 160.776 202.776 L 160.917 202.448 L 161.144 202.247 L 161.451 202.176 L 161.754 202.247 L 161.981 202.443 L 162.122 202.776 L 162.173 203.23 L 162.122 203.689 L 161.981 204.022 L 161.754 204.224 L 161.451 204.289 L 161.144 204.224 L 160.917 204.022 L 160.776 203.689 L 160.73 203.23 L 160.73 203.23 z M 163.444 204.587 L 163.887 204.587 L 163.887 203.023 L 163.933 202.665 L 164.079 202.403 L 164.306 202.242 L 164.609 202.181 L 164.851 202.232 L 165.002 202.368 L 165.078 202.595 L 165.103 202.897 L 165.103 204.587 L 165.547 204.587 L 165.547 202.807 L 165.526 202.448 L 165.436 202.151 L 165.138 201.879 L 164.674 201.783 L 164.417 201.818 L 164.2 201.914 L 164.013 202.075 L 163.867 202.292 L 163.867 201.879 L 163.444 201.879 L 163.444 204.587 L 163.444 204.587 z M 167.075 202.348 L 167.075 203.704 L 167.105 204.143 L 167.246 204.446 L 167.529 204.622 L 168.008 204.683 L 168.532 204.657 L 168.532 204.274 L 168.149 204.304 L 167.801 204.264 L 167.614 204.138 L 167.534 203.926 L 167.518 203.629 L 167.518 202.348 L 168.532 202.348 L 168.532 201.969 L 167.518 201.969 L 167.518 201.178 L 167.075 201.178 L 167.075 201.969 L 166.308 201.969 L 166.308 202.348 L 167.075 202.348 L 167.075 202.348 z M 169.042 205.424 L 169.042 205.777 L 172.078 205.777 L 172.078 205.424 L 169.042 205.424 L 169.042 205.424 z M 172.39 203.255 L 172.461 203.886 L 172.683 204.335 L 173.056 204.592 L 173.596 204.683 L 174.13 204.592 L 174.503 204.335 L 174.725 203.891 L 174.801 203.255 L 174.801 201.087 L 174.332 201.087 L 174.332 203.281 L 174.287 203.709 L 174.15 204.017 L 173.918 204.198 L 173.596 204.259 L 173.263 204.198 L 173.031 204.017 L 172.895 203.714 L 172.854 203.281 L 172.854 201.087 L 172.39 201.087 L 172.39 203.255 L 172.39 203.255 z M 176.006 202.297 L 176.006 201.879 L 175.562 201.879 L 175.562 205.636 L 176.006 205.636 L 176.006 204.173 L 176.163 204.41 L 176.339 204.567 L 176.783 204.683 L 177.207 204.587 L 177.539 204.299 L 177.756 203.845 L 177.837 203.23 L 177.756 202.62 L 177.539 202.166 L 177.207 201.884 L 176.783 201.783 L 176.541 201.813 L 176.334 201.909 L 176.158 202.07 L 176.006 202.297 L 176.006 202.297 z M 176.707 204.284 L 176.41 204.219 L 176.193 204.017 L 176.057 203.689 L 176.011 203.23 L 176.057 202.776 L 176.193 202.448 L 176.41 202.252 L 176.707 202.181 L 176.98 202.252 L 177.196 202.453 L 177.333 202.781 L 177.383 203.23 L 177.333 203.684 L 177.196 204.017 L 176.98 204.219 L 176.707 204.284 L 176.707 204.284 z M 179.042 202.297 L 179.042 201.879 L 178.598 201.879 L 178.598 205.636 L 179.042 205.636 L 179.042 204.173 L 179.199 204.41 L 179.375 204.567 L 179.819 204.683 L 180.243 204.587 L 180.575 204.299 L 180.792 203.845 L 180.873 203.23 L 180.792 202.62 L 180.575 202.166 L 180.243 201.884 L 179.819 201.783 L 179.577 201.813 L 179.37 201.909 L 179.194 202.07 L 179.042 202.297 L 179.042 202.297 z M 179.743 204.284 L 179.446 204.219 L 179.229 204.017 L 179.093 203.689 L 179.047 203.23 L 179.093 202.776 L 179.229 202.448 L 179.446 202.252 L 179.743 202.181 L 180.016 202.252 L 180.232 202.453 L 180.369 202.781 L 180.419 203.23 L 180.369 203.684 L 180.232 204.017 L 180.016 204.219 L 179.743 204.284 L 179.743 204.284 z M 182.048 203.361 L 183.823 203.361 L 183.828 203.155 L 183.748 202.575 L 183.526 202.141 L 183.173 201.879 L 182.704 201.783 L 182.245 201.884 L 181.892 202.166 L 181.665 202.625 L 181.584 203.23 L 181.66 203.85 L 181.887 204.304 L 182.235 204.587 L 182.689 204.683 L 183.082 204.617 L 183.405 204.446 L 183.642 204.173 L 183.778 203.81 L 183.339 203.81 L 183.248 204.012 L 183.117 204.163 L 182.744 204.284 L 182.457 204.229 L 182.24 204.052 L 182.098 203.765 L 182.048 203.376 L 182.048 203.361 L 182.048 203.361 z M 182.048 202.988 L 182.104 202.64 L 182.24 202.383 L 182.446 202.227 L 182.719 202.171 L 182.986 202.227 L 183.193 202.383 L 183.319 202.64 L 183.364 202.988 L 182.048 202.988 L 182.048 202.988 z M 184.862 204.587 L 185.306 204.587 L 185.306 203.039 L 185.351 202.665 L 185.488 202.398 L 185.709 202.237 L 186.007 202.181 L 186.229 202.216 L 186.395 202.317 L 186.496 202.489 L 186.531 202.721 L 186.98 202.721 L 186.92 202.312 L 186.753 202.02 L 186.476 201.843 L 186.098 201.783 L 185.841 201.823 L 185.619 201.924 L 185.422 202.095 L 185.266 202.327 L 185.266 201.879 L 184.862 201.879 L 184.862 204.587 L 184.862 204.587 z M 190.279 204.587 L 190.743 204.587 L 191.111 203.558 L 192.508 203.558 L 192.876 204.587 L 193.35 204.587 L 192.069 201.082 L 191.555 201.082 L 190.279 204.587 L 190.279 204.587 z M 191.272 203.129 L 191.812 201.586 L 192.351 203.129 L 191.272 203.129 L 191.272 203.129 z M 194.238 203.432 L 195.458 203.432 L 195.458 203.034 L 194.238 203.034 L 194.238 203.432 L 194.238 203.432 z M 196.351 204.587 L 196.815 204.587 L 197.183 203.558 L 198.58 203.558 L 198.948 204.587 L 199.422 204.587 L 198.141 201.082 L 197.627 201.082 L 196.351 204.587 L 196.351 204.587 z M 197.344 203.129 L 197.884 201.586 L 198.423 203.129 L 197.344 203.129 L 197.344 203.129 z M 200.042 204.587 L 200.486 204.587 L 200.486 203.039 L 200.531 202.665 L 200.668 202.398 L 200.89 202.237 L 201.187 202.181 L 201.409 202.216 L 201.575 202.317 L 201.676 202.489 L 201.712 202.721 L 202.16 202.721 L 202.1 202.312 L 201.934 202.02 L 201.656 201.843 L 201.278 201.783 L 201.021 201.823 L 200.799 201.924 L 200.602 202.095 L 200.446 202.327 L 200.446 201.879 L 200.042 201.879 L 200.042 204.587 L 200.042 204.587 z M 202.735 204.587 L 203.144 204.587 L 203.144 202.776 L 203.169 202.504 L 203.245 202.307 L 203.361 202.191 L 203.512 202.146 L 203.633 202.186 L 203.714 202.287 L 203.754 202.459 L 203.769 202.685 L 203.769 204.587 L 204.153 204.587 L 204.153 202.776 L 204.178 202.509 L 204.253 202.312 L 204.374 202.191 L 204.526 202.146 L 204.647 202.186 L 204.727 202.287 L 204.778 202.685 L 204.778 204.587 L 205.186 204.587 L 205.186 202.716 L 205.161 202.327 L 205.08 202.03 L 204.919 201.848 L 204.657 201.783 L 204.349 201.884 L 204.112 202.176 L 203.926 201.889 L 203.613 201.783 L 203.325 201.884 L 203.129 202.166 L 203.129 201.879 L 202.735 201.879 L 202.735 204.587 L 202.735 204.587 z M 209.418 203.432 L 210.638 203.432 L 210.638 203.034 L 209.418 203.034 L 209.418 203.432 L 209.418 203.432 z M 215.036 204.587 L 215.5 204.587 L 215.5 203.109 L 216.014 203.109 L 216.534 203.084 L 216.947 202.907 L 217.215 202.564 L 217.305 202.095 L 217.235 201.662 L 217.033 201.344 L 216.7 201.152 L 216.246 201.087 L 215.036 201.087 L 215.036 204.587 L 215.036 204.587 z M 216.12 201.515 L 216.423 201.546 L 216.645 201.642 L 216.776 201.818 L 216.821 202.095 L 216.771 202.388 L 216.635 202.564 L 216.403 202.655 L 216.085 202.68 L 215.5 202.68 L 215.5 201.515 L 216.12 201.515 L 216.12 201.515 z M 218.975 201.339 L 218.975 204.214 L 218.062 204.214 L 218.062 204.587 L 220.326 204.587 L 220.326 204.214 L 219.418 204.214 L 219.418 200.966 L 218.279 200.966 L 218.279 201.339 L 218.975 201.339 L 218.975 201.339 z M 222.737 204.234 L 222.737 204.249 L 222.762 204.42 L 222.838 204.541 L 223.155 204.637 L 223.403 204.597 L 223.403 204.254 L 223.297 204.269 L 223.155 204.203 L 223.13 204.002 L 223.13 202.6 L 223.07 202.242 L 222.893 201.99 L 222.586 201.838 L 222.152 201.783 L 221.728 201.843 L 221.416 202.015 L 221.219 202.282 L 221.153 202.635 L 221.153 202.665 L 221.552 202.665 L 221.587 202.453 L 221.698 202.302 L 221.88 202.211 L 222.137 202.176 L 222.384 202.201 L 222.56 202.277 L 222.666 202.408 L 222.702 202.59 L 222.681 202.802 L 222.601 202.907 L 222.399 202.958 L 222.021 202.998 L 221.587 203.089 L 221.279 203.25 L 221.098 203.503 L 221.042 203.876 L 221.093 204.209 L 221.249 204.456 L 221.501 204.612 L 221.849 204.667 L 222.318 204.562 L 222.737 204.234 L 222.737 204.234 z M 222.686 203.639 L 222.626 203.901 L 222.465 204.103 L 222.222 204.234 L 221.925 204.279 L 221.733 204.254 L 221.597 204.173 L 221.511 204.032 L 221.486 203.835 L 221.506 203.659 L 221.587 203.533 L 221.91 203.392 L 222.318 203.331 L 222.686 203.21 L 222.686 203.639 L 222.686 203.639 z M 225.828 202.297 L 225.672 202.07 L 225.495 201.909 L 225.289 201.818 L 225.052 201.783 L 224.623 201.884 L 224.29 202.166 L 224.073 202.62 L 223.998 203.23 L 224.073 203.845 L 224.29 204.299 L 224.623 204.587 L 225.052 204.683 L 225.289 204.652 L 225.49 204.567 L 225.667 204.41 L 225.828 204.173 L 225.828 205.636 L 226.272 205.636 L 226.272 201.879 L 225.828 201.879 L 225.828 202.297 L 225.828 202.297 z M 224.452 203.23 L 224.497 202.781 L 224.638 202.453 L 224.85 202.252 L 225.127 202.181 L 225.42 202.252 L 225.642 202.448 L 225.773 202.776 L 225.823 203.23 L 225.773 203.689 L 225.642 204.017 L 225.42 204.219 L 225.127 204.284 L 224.85 204.219 L 224.638 204.017 L 224.497 203.684 L 224.452 203.23 L 224.452 203.23 z M 229.288 201.879 L 228.844 201.879 L 228.844 203.442 L 228.794 203.805 L 228.648 204.067 L 228.421 204.229 L 228.123 204.279 L 227.886 204.239 L 227.735 204.118 L 227.649 203.911 L 227.629 203.618 L 227.629 201.879 L 227.185 201.879 L 227.185 203.659 L 227.2 204.017 L 227.296 204.314 L 227.588 204.587 L 228.057 204.683 L 228.31 204.647 L 228.526 204.557 L 228.713 204.4 L 228.864 204.173 L 228.864 204.587 L 229.288 204.587 L 229.288 201.879 L 229.288 201.879 z M 230.624 203.361 L 232.4 203.361 L 232.405 203.155 L 232.324 202.575 L 232.102 202.141 L 231.749 201.879 L 231.28 201.783 L 230.821 201.884 L 230.468 202.166 L 230.241 202.625 L 230.16 203.23 L 230.236 203.85 L 230.463 204.304 L 230.811 204.587 L 231.265 204.683 L 231.658 204.617 L 231.981 204.446 L 232.218 204.173 L 232.354 203.81 L 231.916 203.81 L 231.825 204.012 L 231.694 204.163 L 231.32 204.284 L 231.033 204.229 L 230.816 204.052 L 230.675 203.765 L 230.624 203.376 L 230.624 203.361 L 230.624 203.361 z M 230.624 202.988 L 230.68 202.64 L 230.816 202.383 L 231.023 202.227 L 231.295 202.171 L 231.563 202.227 L 231.769 202.383 L 231.895 202.64 L 231.941 202.988 L 230.624 202.988 L 230.624 202.988 z M 237.972 204.168 L 237.972 204.587 L 238.416 204.587 L 238.416 200.966 L 237.977 200.966 L 237.977 202.292 L 237.64 201.909 L 237.433 201.818 L 237.196 201.783 L 236.767 201.884 L 236.434 202.166 L 236.217 202.62 L 236.142 203.23 L 236.217 203.84 L 236.434 204.299 L 236.767 204.587 L 237.196 204.683 L 237.433 204.647 L 237.645 204.557 L 237.972 204.168 L 237.972 204.168 z M 237.271 202.181 L 237.564 202.252 L 237.786 202.448 L 237.917 202.776 L 237.967 203.23 L 237.917 203.689 L 237.786 204.017 L 237.564 204.219 L 237.271 204.284 L 236.994 204.219 L 236.782 204.017 L 236.641 203.684 L 236.596 203.23 L 236.641 202.781 L 236.782 202.453 L 236.994 202.252 L 237.271 202.181 L 237.271 202.181 z M 241.432 201.879 L 240.988 201.879 L 240.988 203.442 L 240.938 203.805 L 240.792 204.067 L 240.565 204.229 L 240.267 204.279 L 240.03 204.239 L 239.879 204.118 L 239.793 203.911 L 239.773 203.618 L 239.773 201.879 L 239.329 201.879 L 239.329 203.659 L 239.344 204.017 L 239.44 204.314 L 239.733 204.587 L 240.202 204.683 L 240.454 204.647 L 240.671 204.557 L 240.857 204.4 L 241.008 204.173 L 241.008 204.587 L 241.432 204.587 L 241.432 201.879 L 241.432 201.879 z M 245.416 204.587 L 245.86 204.587 L 245.86 203.023 L 245.905 202.665 L 246.052 202.403 L 246.279 202.242 L 246.581 202.181 L 246.823 202.232 L 246.975 202.368 L 247.05 202.595 L 247.075 202.897 L 247.075 204.587 L 247.519 204.587 L 247.519 202.807 L 247.499 202.448 L 247.408 202.151 L 247.111 201.879 L 246.647 201.783 L 246.395 201.818 L 246.178 201.914 L 245.996 202.065 L 245.86 202.272 L 245.86 200.966 L 245.416 200.966 L 245.416 204.587 L 245.416 204.587 z M 250.061 204.234 L 250.061 204.249 L 250.086 204.42 L 250.162 204.541 L 250.48 204.637 L 250.727 204.597 L 250.727 204.254 L 250.621 204.269 L 250.48 204.203 L 250.454 204.002 L 250.454 202.6 L 250.394 202.242 L 250.217 201.99 L 249.91 201.838 L 249.476 201.783 L 249.052 201.843 L 248.74 202.015 L 248.543 202.282 L 248.478 202.635 L 248.478 202.665 L 248.876 202.665 L 248.911 202.453 L 249.022 202.302 L 249.204 202.211 L 249.461 202.176 L 249.708 202.201 L 249.885 202.277 L 249.99 202.408 L 250.026 202.59 L 250.006 202.802 L 249.925 202.907 L 249.723 202.958 L 249.345 202.998 L 248.911 203.089 L 248.604 203.25 L 248.422 203.503 L 248.367 203.876 L 248.417 204.209 L 248.573 204.456 L 248.825 204.612 L 249.173 204.667 L 249.642 204.562 L 250.061 204.234 L 250.061 204.234 z M 250.011 203.639 L 249.95 203.901 L 249.789 204.103 L 249.547 204.234 L 249.249 204.279 L 249.057 204.254 L 248.921 204.173 L 248.836 204.032 L 248.81 203.835 L 248.831 203.659 L 248.911 203.533 L 249.234 203.392 L 249.642 203.331 L 250.011 203.21 L 250.011 203.639 L 250.011 203.639 z M 253.576 201.879 L 253.132 201.879 L 253.132 203.442 L 253.082 203.805 L 252.936 204.067 L 252.709 204.229 L 252.411 204.279 L 252.174 204.239 L 252.023 204.118 L 251.937 203.911 L 251.917 203.618 L 251.917 201.879 L 251.473 201.879 L 251.473 203.659 L 251.488 204.017 L 251.584 204.314 L 251.877 204.587 L 252.346 204.683 L 252.598 204.647 L 252.815 204.557 L 253.001 204.4 L 253.153 204.173 L 253.153 204.587 L 253.576 204.587 L 253.576 201.879 L 253.576 201.879 z M 255.119 202.348 L 255.119 203.704 L 255.15 204.143 L 255.291 204.446 L 255.573 204.622 L 256.052 204.683 L 256.577 204.657 L 256.577 204.274 L 256.194 204.304 L 255.846 204.264 L 255.659 204.138 L 255.578 203.926 L 255.563 203.629 L 255.563 202.348 L 256.577 202.348 L 256.577 201.969 L 255.563 201.969 L 255.563 201.178 L 255.119 201.178 L 255.119 201.969 L 254.353 201.969 L 254.353 202.348 L 255.119 202.348 L 255.119 202.348 z" stroke="none" fill-rule="evenodd" fill="rgb(0, 0, 0)"/></g><g stroke="rgb(0, 0, 0)" stroke-width="0.13" stroke-linecap="butt" stroke-linejoin="miter" fill="none"><path d="M 522.566 194.545 L 523.035 194.545 L 523.035 193.067 L 523.514 193.067 L 523.867 193.082 L 524.089 193.153 L 524.21 193.319 L 524.261 193.617 L 524.286 194.071 L 524.316 194.368 L 524.377 194.545 L 524.906 194.545 L 524.906 194.449 L 524.79 194.308 L 524.75 194.045 L 524.715 193.481 L 524.629 193.062 L 524.513 192.931 L 524.331 192.835 L 524.533 192.709 L 524.674 192.532 L 524.765 192.311 L 524.795 192.043 L 524.725 191.62 L 524.523 191.302 L 524.19 191.11 L 523.736 191.045 L 522.566 191.045 L 522.566 194.545 L 522.566 194.545 z M 523.605 191.473 L 523.913 191.504 L 524.13 191.599 L 524.266 191.776 L 524.311 192.053 L 524.261 192.346 L 524.125 192.522 L 523.893 192.613 L 523.575 192.638 L 523.035 192.638 L 523.035 191.473 L 523.605 191.473 L 523.605 191.473 z M 527.04 194.172 L 527.04 191.927 L 525.9 191.927 L 525.9 192.306 L 526.596 192.306 L 526.596 194.172 L 525.688 194.172 L 525.688 194.545 L 527.957 194.545 L 527.957 194.172 L 527.04 194.172 L 527.04 194.172 z M 527.055 190.924 L 526.586 190.924 L 526.586 191.428 L 527.055 191.428 L 527.055 190.924 L 527.055 190.924 z M 530.827 194.424 L 530.827 191.837 L 530.403 191.837 L 530.403 192.275 L 530.055 191.877 L 529.844 191.776 L 529.607 191.741 L 529.178 191.842 L 528.845 192.124 L 528.628 192.578 L 528.552 193.188 L 528.628 193.803 L 528.845 194.257 L 529.178 194.545 L 529.607 194.641 L 529.849 194.605 L 530.05 194.514 L 530.403 194.131 L 530.403 194.514 L 530.363 194.817 L 530.252 195.034 L 530.04 195.16 L 529.723 195.205 L 529.445 195.175 L 529.248 195.099 L 529.133 194.968 L 529.097 194.792 L 528.669 194.792 L 528.669 194.812 L 528.734 195.135 L 528.936 195.377 L 529.259 195.533 L 529.697 195.589 L 530.222 195.513 L 530.57 195.301 L 530.766 194.933 L 530.827 194.424 L 530.827 194.424 z M 529.011 193.188 L 529.057 192.739 L 529.193 192.406 L 529.405 192.21 L 529.687 192.139 L 529.985 192.21 L 530.207 192.406 L 530.343 192.739 L 530.393 193.188 L 530.343 193.647 L 530.207 193.975 L 529.985 194.177 L 529.687 194.242 L 529.405 194.177 L 529.193 193.975 L 529.057 193.642 L 529.011 193.188 L 529.011 193.188 z M 531.755 194.545 L 532.199 194.545 L 532.199 192.981 L 532.244 192.623 L 532.39 192.361 L 532.617 192.2 L 532.92 192.139 L 533.162 192.19 L 533.313 192.326 L 533.389 192.553 L 533.414 192.855 L 533.414 194.545 L 533.858 194.545 L 533.858 192.764 L 533.838 192.406 L 533.747 192.109 L 533.449 191.837 L 532.985 191.741 L 532.733 191.776 L 532.516 191.872 L 532.335 192.023 L 532.199 192.23 L 532.199 190.924 L 531.755 190.924 L 531.755 194.545 L 531.755 194.545 z M 535.386 192.306 L 535.386 193.662 L 535.416 194.101 L 535.557 194.404 L 535.84 194.58 L 536.319 194.641 L 536.844 194.615 L 536.844 194.232 L 536.46 194.262 L 536.112 194.222 L 535.926 194.096 L 535.845 193.884 L 535.83 193.587 L 535.83 192.306 L 536.844 192.306 L 536.844 191.927 L 535.83 191.927 L 535.83 191.135 L 535.386 191.135 L 535.386 191.927 L 534.62 191.927 L 534.62 192.306 L 535.386 192.306 L 535.386 192.306 z M 537.353 195.382 L 537.353 195.735 L 540.389 195.735 L 540.389 195.382 L 537.353 195.382 L 537.353 195.382 z M 540.873 194.545 L 541.342 194.545 L 541.342 192.936 L 542.815 192.936 L 542.815 192.517 L 541.342 192.517 L 541.342 191.468 L 543.153 191.468 L 543.153 191.045 L 540.873 191.045 L 540.873 194.545 L 540.873 194.545 z M 544.065 194.545 L 544.509 194.545 L 544.509 192.996 L 544.555 192.623 L 544.691 192.356 L 544.913 192.195 L 545.21 192.139 L 545.432 192.174 L 545.599 192.275 L 545.699 192.447 L 545.735 192.679 L 546.184 192.679 L 546.123 192.27 L 545.957 191.978 L 545.679 191.801 L 545.301 191.741 L 545.044 191.781 L 544.822 191.882 L 544.625 192.053 L 544.469 192.285 L 544.469 191.837 L 544.065 191.837 L 544.065 194.545 L 544.065 194.545 z M 546.804 193.193 L 546.885 193.808 L 547.117 194.262 L 547.485 194.545 L 547.979 194.641 L 548.468 194.545 L 548.836 194.267 L 549.068 193.813 L 549.154 193.193 L 549.068 192.578 L 548.836 192.119 L 548.468 191.842 L 547.979 191.741 L 547.485 191.842 L 547.117 192.124 L 546.885 192.578 L 546.804 193.193 L 546.804 193.193 z M 547.258 193.188 L 547.303 192.734 L 547.444 192.406 L 547.671 192.205 L 547.979 192.134 L 548.282 192.205 L 548.508 192.401 L 548.65 192.734 L 548.7 193.188 L 548.65 193.647 L 548.508 193.98 L 548.282 194.182 L 547.979 194.247 L 547.671 194.182 L 547.444 193.98 L 547.303 193.647 L 547.258 193.188 L 547.258 193.188 z M 549.971 194.545 L 550.415 194.545 L 550.415 192.981 L 550.46 192.623 L 550.606 192.361 L 550.833 192.2 L 551.136 192.139 L 551.378 192.19 L 551.529 192.326 L 551.605 192.553 L 551.63 192.855 L 551.63 194.545 L 552.074 194.545 L 552.074 192.764 L 552.054 192.406 L 551.963 192.109 L 551.666 191.837 L 551.202 191.741 L 550.944 191.776 L 550.727 191.872 L 550.541 192.033 L 550.395 192.25 L 550.395 191.837 L 549.971 191.837 L 549.971 194.545 L 549.971 194.545 z M 553.602 192.306 L 553.602 193.662 L 553.632 194.101 L 553.774 194.404 L 554.056 194.58 L 554.535 194.641 L 555.06 194.615 L 555.06 194.232 L 554.676 194.262 L 554.328 194.222 L 554.142 194.096 L 554.061 193.884 L 554.046 193.587 L 554.046 192.306 L 555.06 192.306 L 555.06 191.927 L 554.046 191.927 L 554.046 191.135 L 553.602 191.135 L 553.602 191.927 L 552.836 191.927 L 552.836 192.306 L 553.602 192.306 L 553.602 192.306 z M 555.569 195.382 L 555.569 195.735 L 558.605 195.735 L 558.605 195.382 L 555.569 195.382 L 555.569 195.382 z M 558.918 193.213 L 558.988 193.844 L 559.21 194.293 L 559.583 194.55 L 560.123 194.641 L 560.658 194.55 L 561.031 194.293 L 561.253 193.849 L 561.328 193.213 L 561.328 191.045 L 560.859 191.045 L 560.859 193.239 L 560.814 193.667 L 560.678 193.975 L 560.446 194.156 L 560.123 194.217 L 559.79 194.156 L 559.558 193.975 L 559.422 193.672 L 559.382 193.239 L 559.382 191.045 L 558.918 191.045 L 558.918 193.213 L 558.918 193.213 z M 562.534 192.255 L 562.534 191.837 L 562.09 191.837 L 562.09 195.594 L 562.534 195.594 L 562.534 194.131 L 562.69 194.368 L 562.867 194.525 L 563.31 194.641 L 563.734 194.545 L 564.067 194.257 L 564.284 193.803 L 564.364 193.188 L 564.284 192.578 L 564.067 192.124 L 563.734 191.842 L 563.31 191.741 L 563.068 191.771 L 562.861 191.867 L 562.685 192.028 L 562.534 192.255 L 562.534 192.255 z M 563.235 194.242 L 562.937 194.177 L 562.72 193.975 L 562.584 193.647 L 562.539 193.188 L 562.584 192.734 L 562.72 192.406 L 562.937 192.21 L 563.235 192.139 L 563.507 192.21 L 563.724 192.411 L 563.86 192.739 L 563.91 193.188 L 563.86 193.642 L 563.724 193.975 L 563.507 194.177 L 563.235 194.242 L 563.235 194.242 z M 565.57 192.255 L 565.57 191.837 L 565.126 191.837 L 565.126 195.594 L 565.57 195.594 L 565.57 194.131 L 565.726 194.368 L 565.903 194.525 L 566.346 194.641 L 566.77 194.545 L 567.103 194.257 L 567.32 193.803 L 567.4 193.188 L 567.32 192.578 L 567.103 192.124 L 566.77 191.842 L 566.346 191.741 L 566.104 191.771 L 565.897 191.867 L 565.721 192.028 L 565.57 192.255 L 565.57 192.255 z M 566.271 194.242 L 565.973 194.177 L 565.756 193.975 L 565.62 193.647 L 565.575 193.188 L 565.62 192.734 L 565.756 192.406 L 565.973 192.21 L 566.271 192.139 L 566.543 192.21 L 566.76 192.411 L 566.896 192.739 L 566.946 193.188 L 566.896 193.642 L 566.76 193.975 L 566.543 194.177 L 566.271 194.242 L 566.271 194.242 z M 568.575 193.319 L 570.351 193.319 L 570.356 193.112 L 570.275 192.532 L 570.053 192.099 L 569.7 191.837 L 569.231 191.741 L 568.772 191.842 L 568.419 192.124 L 568.192 192.583 L 568.111 193.188 L 568.187 193.808 L 568.414 194.262 L 568.762 194.545 L 569.216 194.641 L 569.609 194.575 L 569.932 194.404 L 570.169 194.131 L 570.305 193.768 L 569.866 193.768 L 569.776 193.97 L 569.645 194.121 L 569.271 194.242 L 568.984 194.187 L 568.767 194.01 L 568.626 193.723 L 568.575 193.334 L 568.575 193.319 L 568.575 193.319 z M 568.575 192.946 L 568.631 192.598 L 568.767 192.341 L 568.974 192.185 L 569.246 192.129 L 569.513 192.185 L 569.72 192.341 L 569.846 192.598 L 569.892 192.946 L 568.575 192.946 L 568.575 192.946 z M 571.39 194.545 L 571.833 194.545 L 571.833 192.996 L 571.879 192.623 L 572.015 192.356 L 572.237 192.195 L 572.534 192.139 L 572.756 192.174 L 572.923 192.275 L 573.023 192.447 L 573.059 192.679 L 573.508 192.679 L 573.447 192.27 L 573.281 191.978 L 573.003 191.801 L 572.625 191.741 L 572.368 191.781 L 572.146 191.882 L 571.949 192.053 L 571.793 192.285 L 571.793 191.837 L 571.39 191.837 L 571.39 194.545 L 571.39 194.545 z M 576.806 194.545 L 577.27 194.545 L 577.638 193.516 L 579.035 193.516 L 579.403 194.545 L 579.877 194.545 L 578.596 191.04 L 578.082 191.04 L 576.806 194.545 L 576.806 194.545 z M 577.799 193.087 L 578.339 191.544 L 578.879 193.087 L 577.799 193.087 L 577.799 193.087 z M 580.765 193.39 L 581.985 193.39 L 581.985 192.991 L 580.765 192.991 L 580.765 193.39 L 580.765 193.39 z M 582.878 194.545 L 583.342 194.545 L 583.71 193.516 L 585.107 193.516 L 585.475 194.545 L 585.949 194.545 L 584.668 191.04 L 584.154 191.04 L 582.878 194.545 L 582.878 194.545 z M 583.871 193.087 L 584.411 191.544 L 584.951 193.087 L 583.871 193.087 L 583.871 193.087 z M 586.57 194.545 L 587.013 194.545 L 587.013 192.996 L 587.059 192.623 L 587.195 192.356 L 587.417 192.195 L 587.714 192.139 L 587.936 192.174 L 588.103 192.275 L 588.204 192.447 L 588.239 192.679 L 588.688 192.679 L 588.627 192.27 L 588.461 191.978 L 588.183 191.801 L 587.805 191.741 L 587.548 191.781 L 587.326 191.882 L 587.129 192.053 L 586.973 192.285 L 586.973 191.837 L 586.57 191.837 L 586.57 194.545 L 586.57 194.545 z M 589.263 194.545 L 589.671 194.545 L 589.671 192.734 L 589.696 192.462 L 589.772 192.265 L 589.888 192.149 L 590.039 192.104 L 590.16 192.144 L 590.241 192.245 L 590.281 192.417 L 590.297 192.643 L 590.297 194.545 L 590.68 194.545 L 590.68 192.734 L 590.705 192.467 L 590.781 192.27 L 590.902 192.149 L 591.053 192.104 L 591.174 192.144 L 591.255 192.245 L 591.305 192.643 L 591.305 194.545 L 591.714 194.545 L 591.714 192.674 L 591.688 192.285 L 591.608 191.988 L 591.446 191.806 L 591.184 191.741 L 590.876 191.842 L 590.639 192.134 L 590.453 191.847 L 590.14 191.741 L 589.853 191.842 L 589.656 192.124 L 589.656 191.837 L 589.263 191.837 L 589.263 194.545 L 589.263 194.545 z M 595.945 193.39 L 597.165 193.39 L 597.165 192.991 L 595.945 192.991 L 595.945 193.39 L 595.945 193.39 z M 601.563 194.545 L 602.027 194.545 L 602.027 193.067 L 602.541 193.067 L 603.061 193.042 L 603.474 192.865 L 603.742 192.522 L 603.832 192.053 L 603.762 191.62 L 603.56 191.302 L 603.227 191.11 L 602.773 191.045 L 601.563 191.045 L 601.563 194.545 L 601.563 194.545 z M 602.647 191.473 L 602.95 191.504 L 603.172 191.599 L 603.303 191.776 L 603.348 192.053 L 603.298 192.346 L 603.162 192.522 L 602.93 192.613 L 602.612 192.638 L 602.027 192.638 L 602.027 191.473 L 602.647 191.473 L 602.647 191.473 z M 605.502 191.297 L 605.502 194.172 L 604.589 194.172 L 604.589 194.545 L 606.853 194.545 L 606.853 194.172 L 605.946 194.172 L 605.946 190.924 L 604.806 190.924 L 604.806 191.297 L 605.502 191.297 L 605.502 191.297 z M 609.264 194.192 L 609.264 194.207 L 609.289 194.378 L 609.365 194.499 L 609.683 194.595 L 609.93 194.555 L 609.93 194.212 L 609.824 194.227 L 609.683 194.161 L 609.657 193.96 L 609.657 192.558 L 609.597 192.2 L 609.42 191.948 L 609.113 191.796 L 608.679 191.741 L 608.255 191.801 L 607.943 191.973 L 607.746 192.24 L 607.68 192.593 L 607.68 192.623 L 608.079 192.623 L 608.114 192.411 L 608.225 192.26 L 608.407 192.169 L 608.664 192.134 L 608.911 192.159 L 609.087 192.235 L 609.193 192.366 L 609.229 192.548 L 609.208 192.759 L 609.128 192.865 L 608.926 192.916 L 608.548 192.956 L 608.114 193.047 L 607.807 193.208 L 607.625 193.46 L 607.569 193.834 L 607.62 194.167 L 607.776 194.414 L 608.028 194.57 L 608.376 194.625 L 608.845 194.52 L 609.264 194.192 L 609.264 194.192 z M 609.214 193.597 L 609.153 193.859 L 608.992 194.061 L 608.75 194.192 L 608.452 194.237 L 608.26 194.212 L 608.124 194.131 L 608.039 193.99 L 608.013 193.793 L 608.033 193.617 L 608.114 193.491 L 608.437 193.349 L 608.845 193.289 L 609.214 193.168 L 609.214 193.597 L 609.214 193.597 z M 612.355 192.255 L 612.199 192.028 L 612.023 191.867 L 611.816 191.776 L 611.579 191.741 L 611.15 191.842 L 610.817 192.124 L 610.6 192.578 L 610.525 193.188 L 610.6 193.803 L 610.817 194.257 L 611.15 194.545 L 611.579 194.641 L 611.816 194.61 L 612.018 194.525 L 612.194 194.368 L 612.355 194.131 L 612.355 195.594 L 612.799 195.594 L 612.799 191.837 L 612.355 191.837 L 612.355 192.255 L 612.355 192.255 z M 610.979 193.188 L 611.024 192.739 L 611.165 192.411 L 611.377 192.21 L 611.654 192.139 L 611.947 192.21 L 612.169 192.406 L 612.3 192.734 L 612.35 193.188 L 612.3 193.647 L 612.169 193.975 L 611.947 194.177 L 611.654 194.242 L 611.377 194.177 L 611.165 193.975 L 611.024 193.642 L 610.979 193.188 L 610.979 193.188 z M 615.815 191.837 L 615.371 191.837 L 615.371 193.4 L 615.321 193.763 L 615.175 194.025 L 614.948 194.187 L 614.65 194.237 L 614.413 194.197 L 614.262 194.076 L 614.176 193.869 L 614.156 193.576 L 614.156 191.837 L 613.712 191.837 L 613.712 193.617 L 613.727 193.975 L 613.823 194.272 L 614.116 194.545 L 614.585 194.641 L 614.837 194.605 L 615.054 194.514 L 615.24 194.358 L 615.391 194.131 L 615.391 194.545 L 615.815 194.545 L 615.815 191.837 L 615.815 191.837 z M 617.152 193.319 L 618.927 193.319 L 618.932 193.112 L 618.851 192.532 L 618.629 192.099 L 618.276 191.837 L 617.807 191.741 L 617.348 191.842 L 616.995 192.124 L 616.768 192.583 L 616.688 193.188 L 616.763 193.808 L 616.99 194.262 L 617.338 194.545 L 617.792 194.641 L 618.185 194.575 L 618.508 194.404 L 618.745 194.131 L 618.881 193.768 L 618.443 193.768 L 618.352 193.97 L 618.221 194.121 L 617.848 194.242 L 617.56 194.187 L 617.343 194.01 L 617.202 193.723 L 617.152 193.334 L 617.152 193.319 L 617.152 193.319 z M 617.152 192.946 L 617.207 192.598 L 617.343 192.341 L 617.55 192.185 L 617.822 192.129 L 618.09 192.185 L 618.296 192.341 L 618.422 192.598 L 618.468 192.946 L 617.152 192.946 L 617.152 192.946 z M 624.5 194.126 L 624.5 194.545 L 624.943 194.545 L 624.943 190.924 L 624.505 190.924 L 624.505 192.25 L 624.167 191.867 L 623.96 191.776 L 623.723 191.741 L 623.294 191.842 L 622.961 192.124 L 622.745 192.578 L 622.669 193.188 L 622.745 193.798 L 622.961 194.257 L 623.294 194.545 L 623.723 194.641 L 623.96 194.605 L 624.172 194.514 L 624.5 194.126 L 624.5 194.126 z M 623.799 192.139 L 624.091 192.21 L 624.313 192.406 L 624.444 192.734 L 624.495 193.188 L 624.444 193.647 L 624.313 193.975 L 624.091 194.177 L 623.799 194.242 L 623.521 194.177 L 623.309 193.975 L 623.168 193.642 L 623.123 193.188 L 623.168 192.739 L 623.309 192.411 L 623.521 192.21 L 623.799 192.139 L 623.799 192.139 z M 627.959 191.837 L 627.515 191.837 L 627.515 193.4 L 627.465 193.763 L 627.319 194.025 L 627.092 194.187 L 626.794 194.237 L 626.557 194.197 L 626.406 194.076 L 626.32 193.869 L 626.3 193.576 L 626.3 191.837 L 625.856 191.837 L 625.856 193.617 L 625.871 193.975 L 625.967 194.272 L 626.26 194.545 L 626.729 194.641 L 626.981 194.605 L 627.198 194.514 L 627.384 194.358 L 627.536 194.131 L 627.536 194.545 L 627.959 194.545 L 627.959 191.837 L 627.959 191.837 z M 633.618 192.654 L 633.971 192.361 L 634.061 192.164 L 634.092 191.922 L 634.026 191.544 L 633.829 191.272 L 633.512 191.105 L 633.068 191.045 L 631.822 191.045 L 631.822 194.545 L 633.139 194.545 L 633.608 194.474 L 633.956 194.267 L 634.172 193.94 L 634.248 193.496 L 634.203 193.198 L 634.082 192.951 L 633.885 192.77 L 633.618 192.654 L 633.618 192.654 z M 632.972 192.497 L 632.286 192.497 L 632.286 191.463 L 633.012 191.463 L 633.285 191.494 L 633.476 191.584 L 633.592 191.741 L 633.633 191.973 L 633.587 192.205 L 633.466 192.366 L 633.26 192.467 L 632.972 192.497 L 632.972 192.497 z M 633.083 194.126 L 632.286 194.126 L 632.286 192.921 L 633.038 192.921 L 633.355 192.956 L 633.582 193.062 L 633.719 193.244 L 633.764 193.506 L 633.719 193.783 L 633.592 193.975 L 633.381 194.091 L 633.083 194.126 L 633.083 194.126 z M 636.588 194.192 L 636.588 194.207 L 636.613 194.378 L 636.689 194.499 L 637.007 194.595 L 637.254 194.555 L 637.254 194.212 L 637.148 194.227 L 637.007 194.161 L 636.981 193.96 L 636.981 192.558 L 636.921 192.2 L 636.744 191.948 L 636.437 191.796 L 636.003 191.741 L 635.579 191.801 L 635.267 191.973 L 635.07 192.24 L 635.005 192.593 L 635.005 192.623 L 635.403 192.623 L 635.438 192.411 L 635.549 192.26 L 635.731 192.169 L 635.988 192.134 L 636.235 192.159 L 636.412 192.235 L 636.518 192.366 L 636.553 192.548 L 636.533 192.759 L 636.452 192.865 L 636.25 192.916 L 635.872 192.956 L 635.438 193.047 L 635.131 193.208 L 634.949 193.46 L 634.894 193.834 L 634.944 194.167 L 635.1 194.414 L 635.353 194.57 L 635.701 194.625 L 636.169 194.52 L 636.588 194.192 L 636.588 194.192 z M 636.538 193.597 L 636.477 193.859 L 636.316 194.061 L 636.074 194.192 L 635.776 194.237 L 635.584 194.212 L 635.448 194.131 L 635.363 193.99 L 635.337 193.793 L 635.358 193.617 L 635.438 193.491 L 635.761 193.349 L 636.169 193.289 L 636.538 193.168 L 636.538 193.597 L 636.538 193.597 z M 639.342 192.966 L 638.913 192.865 L 638.595 192.749 L 638.489 192.512 L 638.52 192.346 L 638.626 192.225 L 638.797 192.149 L 639.044 192.119 L 639.281 192.149 L 639.468 192.24 L 639.589 192.376 L 639.639 192.558 L 640.073 192.558 L 640.073 192.548 L 639.997 192.22 L 639.791 191.963 L 639.468 191.801 L 639.044 191.741 L 638.615 191.801 L 638.303 191.968 L 638.106 192.215 L 638.046 192.527 L 638.091 192.83 L 638.232 193.042 L 638.464 193.193 L 638.802 193.299 L 639.296 193.42 L 639.599 193.546 L 639.68 193.647 L 639.71 193.798 L 639.664 193.985 L 639.543 194.126 L 639.347 194.217 L 639.084 194.247 L 638.807 194.217 L 638.605 194.111 L 638.469 193.94 L 638.414 193.703 L 637.985 193.703 L 638.056 194.106 L 638.262 194.398 L 638.59 194.575 L 639.044 194.641 L 639.518 194.575 L 639.866 194.398 L 640.078 194.116 L 640.154 193.748 L 640.098 193.43 L 639.942 193.213 L 639.685 193.072 L 639.342 192.966 L 639.342 192.966 z" stroke="none" fill-rule="evenodd" fill="rgb(0, 0, 0)"/></g><g stroke="rgb(0, 0, 0)" stroke-width="0.13" stroke-linecap="butt" stroke-linejoin="miter" fill="none"><path d="M 744.456 71.2241 L 744.724 71.2241 L 744.724 70.3797 L 744.998 70.3797 L 745.199 70.3883 L 745.326 70.4286 L 745.395 70.5238 L 745.424 70.6938 L 745.439 70.9532 L 745.456 71.1232 L 745.49 71.2241 L 745.793 71.2241 L 745.793 71.1693 L 745.727 71.0886 L 745.704 70.9388 L 745.684 70.616 L 745.635 70.3768 L 745.568 70.3019 L 745.465 70.2471 L 745.58 70.175 L 745.661 70.0742 L 745.712 69.9474 L 745.73 69.7947 L 745.689 69.5526 L 745.574 69.371 L 745.384 69.2615 L 745.125 69.2241 L 744.456 69.2241 L 744.456 71.2241 L 744.456 71.2241 z M 745.05 69.469 L 745.225 69.4863 L 745.349 69.5411 L 745.427 69.6419 L 745.453 69.8004 L 745.424 69.9676 L 745.346 70.0684 L 745.214 70.1203 L 745.032 70.1347 L 744.724 70.1347 L 744.724 69.469 L 745.05 69.469 L 745.05 69.469 z M 747.012 71.0108 L 747.012 69.7284 L 746.361 69.7284 L 746.361 69.9445 L 746.758 69.9445 L 746.758 71.0108 L 746.24 71.0108 L 746.24 71.2241 L 747.537 71.2241 L 747.537 71.0108 L 747.012 71.0108 L 747.012 71.0108 z M 747.021 69.1549 L 746.753 69.1549 L 746.753 69.4431 L 747.021 69.4431 L 747.021 69.1549 L 747.021 69.1549 z M 749.176 71.1549 L 749.176 69.6765 L 748.934 69.6765 L 748.934 69.9272 L 748.735 69.6996 L 748.614 69.6419 L 748.479 69.6218 L 748.234 69.6794 L 748.044 69.8408 L 747.92 70.1002 L 747.877 70.4489 L 747.92 70.8004 L 748.044 71.0598 L 748.234 71.2241 L 748.479 71.2788 L 748.617 71.2587 L 748.733 71.2068 L 748.934 70.9877 L 748.934 71.2068 L 748.911 71.3797 L 748.848 71.5036 L 748.727 71.5756 L 748.545 71.6016 L 748.387 71.5843 L 748.274 71.5411 L 748.208 71.4661 L 748.188 71.3653 L 747.943 71.3653 L 747.943 71.3768 L 747.98 71.5612 L 748.096 71.6996 L 748.28 71.7889 L 748.531 71.8206 L 748.831 71.7773 L 749.029 71.6563 L 749.142 71.446 L 749.176 71.1549 L 749.176 71.1549 z M 748.139 70.4489 L 748.165 70.1924 L 748.243 70.0021 L 748.364 69.8898 L 748.525 69.8494 L 748.695 69.8898 L 748.822 70.0021 L 748.9 70.1924 L 748.929 70.4489 L 748.9 70.7111 L 748.822 70.8984 L 748.695 71.0137 L 748.525 71.0511 L 748.364 71.0137 L 748.243 70.8984 L 748.165 70.7082 L 748.139 70.4489 L 748.139 70.4489 z M 749.707 71.2241 L 749.96 71.2241 L 749.96 70.3307 L 749.986 70.1261 L 750.07 69.9762 L 750.199 69.884 L 750.372 69.8494 L 750.511 69.8782 L 750.597 69.9561 L 750.64 70.0858 L 750.655 70.2587 L 750.655 71.2241 L 750.908 71.2241 L 750.908 70.2068 L 750.897 70.0021 L 750.845 69.8322 L 750.675 69.6765 L 750.41 69.6218 L 750.266 69.6419 L 750.142 69.6967 L 750.038 69.7831 L 749.96 69.9013 L 749.96 69.1549 L 749.707 69.1549 L 749.707 71.2241 L 749.707 71.2241 z M 751.782 69.9445 L 751.782 70.7197 L 751.799 70.9705 L 751.88 71.1434 L 752.041 71.2443 L 752.315 71.2788 L 752.614 71.2644 L 752.614 71.0454 L 752.395 71.0627 L 752.197 71.0396 L 752.09 70.9676 L 752.044 70.8466 L 752.035 70.6765 L 752.035 69.9445 L 752.614 69.9445 L 752.614 69.7284 L 752.035 69.7284 L 752.035 69.2759 L 751.782 69.2759 L 751.782 69.7284 L 751.344 69.7284 L 751.344 69.9445 L 751.782 69.9445 L 751.782 69.9445 z M 752.905 71.7025 L 752.905 71.9042 L 754.64 71.9042 L 754.64 71.7025 L 752.905 71.7025 L 752.905 71.7025 z M 754.917 71.2241 L 755.185 71.2241 L 755.185 70.3047 L 756.026 70.3047 L 756.026 70.0656 L 755.185 70.0656 L 755.185 69.4661 L 756.22 69.4661 L 756.22 69.2241 L 754.917 69.2241 L 754.917 71.2241 L 754.917 71.2241 z M 756.741 71.2241 L 756.995 71.2241 L 756.995 70.3394 L 757.021 70.1261 L 757.099 69.9733 L 757.225 69.8811 L 757.395 69.8494 L 757.522 69.8696 L 757.617 69.9272 L 757.675 70.0252 L 757.695 70.1578 L 757.952 70.1578 L 757.917 69.9244 L 757.822 69.7572 L 757.663 69.6563 L 757.447 69.6218 L 757.3 69.6448 L 757.173 69.7025 L 757.061 69.8004 L 756.972 69.933 L 756.972 69.6765 L 756.741 69.6765 L 756.741 71.2241 L 756.741 71.2241 z M 758.306 70.4517 L 758.352 70.8033 L 758.485 71.0627 L 758.695 71.2241 L 758.977 71.2788 L 759.257 71.2241 L 759.467 71.0656 L 759.6 70.8062 L 759.649 70.4517 L 759.6 70.1002 L 759.467 69.8379 L 759.257 69.6794 L 758.977 69.6218 L 758.695 69.6794 L 758.485 69.8408 L 758.352 70.1002 L 758.306 70.4517 L 758.306 70.4517 z M 758.565 70.4489 L 758.591 70.1895 L 758.672 70.0021 L 758.802 69.8869 L 758.977 69.8466 L 759.15 69.8869 L 759.28 69.9993 L 759.361 70.1895 L 759.39 70.4489 L 759.361 70.7111 L 759.28 70.9013 L 759.15 71.0165 L 758.977 71.054 L 758.802 71.0165 L 758.672 70.9013 L 758.591 70.7111 L 758.565 70.4489 L 758.565 70.4489 z M 760.116 71.2241 L 760.369 71.2241 L 760.369 70.3307 L 760.395 70.1261 L 760.479 69.9762 L 760.609 69.884 L 760.781 69.8494 L 760.92 69.8782 L 761.006 69.9561 L 761.049 70.0858 L 761.064 70.2587 L 761.064 71.2241 L 761.318 71.2241 L 761.318 70.2068 L 761.306 70.0021 L 761.254 69.8322 L 761.084 69.6765 L 760.819 69.6218 L 760.672 69.6419 L 760.548 69.6967 L 760.441 69.7889 L 760.358 69.9128 L 760.358 69.6765 L 760.116 69.6765 L 760.116 71.2241 L 760.116 71.2241 z M 762.191 69.9445 L 762.191 70.7197 L 762.208 70.9705 L 762.289 71.1434 L 762.45 71.2443 L 762.724 71.2788 L 763.024 71.2644 L 763.024 71.0454 L 762.805 71.0627 L 762.606 71.0396 L 762.499 70.9676 L 762.453 70.8466 L 762.444 70.6765 L 762.444 69.9445 L 763.024 69.9445 L 763.024 69.7284 L 762.444 69.7284 L 762.444 69.2759 L 762.191 69.2759 L 762.191 69.7284 L 761.753 69.7284 L 761.753 69.9445 L 762.191 69.9445 L 762.191 69.9445 z M 763.315 71.7025 L 763.315 71.9042 L 765.049 71.9042 L 765.049 71.7025 L 763.315 71.7025 L 763.315 71.7025 z M 765.228 70.4633 L 765.268 70.8235 L 765.395 71.08 L 765.609 71.2269 L 765.917 71.2788 L 766.222 71.2269 L 766.436 71.08 L 766.562 70.8264 L 766.606 70.4633 L 766.606 69.2241 L 766.338 69.2241 L 766.338 70.4777 L 766.312 70.7226 L 766.234 70.8984 L 766.101 71.0021 L 765.917 71.0367 L 765.727 71.0021 L 765.594 70.8984 L 765.516 70.7255 L 765.493 70.4777 L 765.493 69.2241 L 765.228 69.2241 L 765.228 70.4633 L 765.228 70.4633 z M 767.294 69.9157 L 767.294 69.6765 L 767.041 69.6765 L 767.041 71.8235 L 767.294 71.8235 L 767.294 70.9877 L 767.384 71.1232 L 767.485 71.2125 L 767.738 71.2788 L 767.98 71.2241 L 768.171 71.0598 L 768.294 70.8004 L 768.341 70.4489 L 768.294 70.1002 L 768.171 69.8408 L 767.98 69.6794 L 767.738 69.6218 L 767.6 69.639 L 767.482 69.6938 L 767.381 69.786 L 767.294 69.9157 L 767.294 69.9157 z M 767.695 71.0511 L 767.525 71.0137 L 767.401 70.8984 L 767.323 70.7111 L 767.297 70.4489 L 767.323 70.1895 L 767.401 70.0021 L 767.525 69.8898 L 767.695 69.8494 L 767.851 69.8898 L 767.975 70.0051 L 768.052 70.1924 L 768.081 70.4489 L 768.052 70.7082 L 767.975 70.8984 L 767.851 71.0137 L 767.695 71.0511 L 767.695 71.0511 z M 769.029 69.9157 L 769.029 69.6765 L 768.776 69.6765 L 768.776 71.8235 L 769.029 71.8235 L 769.029 70.9877 L 769.119 71.1232 L 769.219 71.2125 L 769.473 71.2788 L 769.715 71.2241 L 769.905 71.0598 L 770.029 70.8004 L 770.075 70.4489 L 770.029 70.1002 L 769.905 69.8408 L 769.715 69.6794 L 769.473 69.6218 L 769.335 69.639 L 769.217 69.6938 L 769.116 69.786 L 769.029 69.9157 L 769.029 69.9157 z M 769.43 71.0511 L 769.26 71.0137 L 769.136 70.8984 L 769.058 70.7111 L 769.032 70.4489 L 769.058 70.1895 L 769.136 70.0021 L 769.26 69.8898 L 769.43 69.8494 L 769.586 69.8898 L 769.709 70.0051 L 769.787 70.1924 L 769.816 70.4489 L 769.787 70.7082 L 769.709 70.8984 L 769.586 71.0137 L 769.43 71.0511 L 769.43 71.0511 z M 770.747 70.5238 L 771.761 70.5238 L 771.764 70.4056 L 771.718 70.0742 L 771.591 69.8264 L 771.39 69.6765 L 771.122 69.6218 L 770.859 69.6794 L 770.658 69.8408 L 770.528 70.103 L 770.482 70.4489 L 770.525 70.8033 L 770.655 71.0627 L 770.854 71.2241 L 771.113 71.2788 L 771.338 71.2413 L 771.522 71.1434 L 771.658 70.9877 L 771.735 70.7803 L 771.485 70.7803 L 771.433 70.8955 L 771.358 70.982 L 771.145 71.0511 L 770.98 71.0195 L 770.856 70.9186 L 770.776 70.7543 L 770.747 70.5324 L 770.747 70.5238 L 770.747 70.5238 z M 770.747 70.3105 L 770.779 70.1117 L 770.856 69.9647 L 770.975 69.8754 L 771.13 69.8437 L 771.283 69.8754 L 771.401 69.9647 L 771.473 70.1117 L 771.499 70.3105 L 770.747 70.3105 L 770.747 70.3105 z M 772.355 71.2241 L 772.609 71.2241 L 772.609 70.3394 L 772.634 70.1261 L 772.712 69.9733 L 772.839 69.8811 L 773.009 69.8494 L 773.136 69.8696 L 773.231 69.9272 L 773.289 70.0252 L 773.309 70.1578 L 773.565 70.1578 L 773.531 69.9244 L 773.436 69.7572 L 773.277 69.6563 L 773.061 69.6218 L 772.914 69.6448 L 772.787 69.7025 L 772.675 69.8004 L 772.586 69.933 L 772.586 69.6765 L 772.355 69.6765 L 772.355 71.2241 L 772.355 71.2241 z M 775.45 71.2241 L 775.715 71.2241 L 775.926 70.6362 L 776.724 70.6362 L 776.934 71.2241 L 777.205 71.2241 L 776.473 69.2212 L 776.179 69.2212 L 775.45 71.2241 L 775.45 71.2241 z M 776.018 70.3912 L 776.326 69.5093 L 776.634 70.3912 L 776.018 70.3912 L 776.018 70.3912 z M 777.712 70.5641 L 778.41 70.5641 L 778.41 70.3364 L 777.712 70.3364 L 777.712 70.5641 L 777.712 70.5641 z M 778.92 71.2241 L 779.185 71.2241 L 779.395 70.6362 L 780.194 70.6362 L 780.404 71.2241 L 780.675 71.2241 L 779.943 69.2212 L 779.649 69.2212 L 778.92 71.2241 L 778.92 71.2241 z M 779.487 70.3912 L 779.796 69.5093 L 780.104 70.3912 L 779.487 70.3912 L 779.487 70.3912 z M 781.029 71.2241 L 781.283 71.2241 L 781.283 70.3394 L 781.309 70.1261 L 781.387 69.9733 L 781.513 69.8811 L 781.683 69.8494 L 781.81 69.8696 L 781.905 69.9272 L 781.963 70.0252 L 781.983 70.1578 L 782.24 70.1578 L 782.205 69.9244 L 782.11 69.7572 L 781.951 69.6563 L 781.735 69.6218 L 781.588 69.6448 L 781.462 69.7025 L 781.349 69.8004 L 781.26 69.933 L 781.26 69.6765 L 781.029 69.6765 L 781.029 71.2241 L 781.029 71.2241 z M 782.568 71.2241 L 782.802 71.2241 L 782.802 70.1895 L 782.816 70.0339 L 782.859 69.9214 L 782.926 69.8552 L 783.012 69.8292 L 783.081 69.8523 L 783.127 69.9099 L 783.15 70.0079 L 783.159 70.1376 L 783.159 71.2241 L 783.378 71.2241 L 783.378 70.1895 L 783.392 70.0367 L 783.436 69.9244 L 783.505 69.8552 L 783.591 69.8292 L 783.66 69.8523 L 783.706 69.9099 L 783.735 70.1376 L 783.735 71.2241 L 783.969 71.2241 L 783.969 70.1549 L 783.954 69.933 L 783.908 69.7629 L 783.816 69.6592 L 783.666 69.6218 L 783.49 69.6794 L 783.355 69.8466 L 783.248 69.6823 L 783.07 69.6218 L 782.905 69.6794 L 782.793 69.8408 L 782.793 69.6765 L 782.568 69.6765 L 782.568 71.2241 L 782.568 71.2241 z" stroke="none" fill-rule="evenodd" fill="rgb(0, 0, 0)"/></g><g stroke="rgb(0, 0, 0)" stroke-width="0.13" stroke-linecap="butt" stroke-linejoin="miter" fill="none"><path d="M 758.372 74.6794 L 759.64 74.6794 L 759.64 74.4373 L 758.638 74.4373 L 758.638 73.7601 L 759.531 73.7601 L 759.531 73.5209 L 758.638 73.5209 L 758.638 72.9214 L 759.617 72.9214 L 759.617 72.6794 L 758.372 72.6794 L 758.372 74.6794 L 758.372 74.6794 z M 759.845 75.1578 L 759.845 75.3595 L 761.58 75.3595 L 761.58 75.1578 L 759.845 75.1578 L 759.845 75.1578 z M 761.571 74.6794 L 761.836 74.6794 L 762.047 74.0915 L 762.845 74.0915 L 763.055 74.6794 L 763.326 74.6794 L 762.594 72.6765 L 762.3 72.6765 L 761.571 74.6794 L 761.571 74.6794 z M 762.139 73.8466 L 762.447 72.9647 L 762.756 73.8466 L 762.139 73.8466 L 762.139 73.8466 z M 764.05 74.6794 L 764.318 74.6794 L 764.882 73.1318 L 764.62 73.1318 L 764.185 74.3797 L 763.741 73.1318 L 763.476 73.1318 L 764.05 74.6794 L 764.05 74.6794 z M 766.24 74.4777 L 766.24 74.4863 L 766.254 74.5843 L 766.297 74.6534 L 766.479 74.7082 L 766.62 74.6851 L 766.62 74.4892 L 766.56 74.4978 L 766.479 74.4604 L 766.465 74.3451 L 766.465 73.5439 L 766.43 73.3394 L 766.329 73.1953 L 766.153 73.1088 L 765.905 73.0771 L 765.663 73.1116 L 765.485 73.2097 L 765.372 73.3624 L 765.335 73.5641 L 765.335 73.5814 L 765.563 73.5814 L 765.583 73.4604 L 765.646 73.3739 L 765.75 73.322 L 765.897 73.3019 L 766.038 73.3163 L 766.139 73.3595 L 766.199 73.4344 L 766.22 73.5381 L 766.208 73.6592 L 766.162 73.7197 L 766.047 73.7485 L 765.831 73.7716 L 765.583 73.8235 L 765.407 73.9157 L 765.303 74.0598 L 765.271 74.2731 L 765.3 74.4633 L 765.39 74.6044 L 765.534 74.6938 L 765.733 74.7255 L 766.001 74.665 L 766.24 74.4777 L 766.24 74.4777 z M 766.211 74.1376 L 766.176 74.2875 L 766.084 74.4027 L 765.946 74.4777 L 765.776 74.5036 L 765.666 74.4892 L 765.588 74.4431 L 765.539 74.3624 L 765.525 74.25 L 765.537 74.1491 L 765.583 74.0771 L 765.767 73.9964 L 766.001 73.9618 L 766.211 73.8926 L 766.211 74.1376 L 766.211 74.1376 z M 767.055 74.6794 L 767.309 74.6794 L 767.309 73.786 L 767.335 73.5814 L 767.418 73.4315 L 767.548 73.3394 L 767.721 73.3047 L 767.859 73.3336 L 767.946 73.4114 L 767.989 73.5411 L 768.003 73.714 L 768.003 74.6794 L 768.257 74.6794 L 768.257 73.6621 L 768.246 73.4575 L 768.194 73.2875 L 768.024 73.1318 L 767.758 73.0771 L 767.612 73.0972 L 767.488 73.152 L 767.381 73.2442 L 767.297 73.3682 L 767.297 73.1318 L 767.055 73.1318 L 767.055 74.6794 L 767.055 74.6794 z M 769.13 73.3998 L 769.13 74.175 L 769.148 74.4258 L 769.228 74.5987 L 769.39 74.6996 L 769.663 74.7341 L 769.963 74.7197 L 769.963 74.5007 L 769.744 74.518 L 769.545 74.4949 L 769.439 74.4229 L 769.392 74.3019 L 769.384 74.1318 L 769.384 73.3998 L 769.963 73.3998 L 769.963 73.1837 L 769.384 73.1837 L 769.384 72.7313 L 769.13 72.7313 L 769.13 73.1837 L 768.692 73.1837 L 768.692 73.3998 L 769.13 73.3998 L 769.13 73.3998 z" stroke="none" fill-rule="evenodd" fill="rgb(0, 0, 0)"/></g><g stroke="rgb(0, 0, 0)" stroke-width="0.13" stroke-linecap="butt" stroke-linejoin="miter" fill="none"><path d="M 841.212 63.5001 L 841.454 63.5001 L 841.454 62.7402 L 841.7 62.7402 L 841.882 62.7479 L 841.996 62.7842 L 842.058 62.8699 L 842.084 63.0229 L 842.097 63.2563 L 842.112 63.4094 L 842.144 63.5001 L 842.416 63.5001 L 842.416 63.4509 L 842.356 63.3782 L 842.336 63.2433 L 842.317 62.9528 L 842.273 62.7375 L 842.214 62.6701 L 842.12 62.6208 L 842.224 62.556 L 842.297 62.4652 L 842.343 62.3511 L 842.359 62.2136 L 842.323 61.9958 L 842.219 61.8323 L 842.048 61.7338 L 841.814 61.7001 L 841.212 61.7001 L 841.212 63.5001 L 841.212 63.5001 z M 841.747 61.9205 L 841.905 61.9361 L 842.016 61.9854 L 842.087 62.0762 L 842.11 62.2188 L 842.084 62.3693 L 842.014 62.46 L 841.895 62.5067 L 841.731 62.5197 L 841.454 62.5197 L 841.454 61.9205 L 841.747 61.9205 L 841.747 61.9205 z M 843.513 63.3082 L 843.513 62.154 L 842.927 62.154 L 842.927 62.3485 L 843.285 62.3485 L 843.285 63.3082 L 842.818 63.3082 L 842.818 63.5001 L 843.985 63.5001 L 843.985 63.3082 L 843.513 63.3082 L 843.513 63.3082 z M 843.521 61.6378 L 843.28 61.6378 L 843.28 61.8972 L 843.521 61.8972 L 843.521 61.6378 L 843.521 61.6378 z M 845.461 63.4379 L 845.461 62.1073 L 845.243 62.1073 L 845.243 62.3329 L 845.064 62.1281 L 844.955 62.0762 L 844.833 62.058 L 844.613 62.1099 L 844.442 62.2551 L 844.33 62.4886 L 844.291 62.8024 L 844.33 63.1188 L 844.442 63.3523 L 844.613 63.5001 L 844.833 63.5494 L 844.958 63.5313 L 845.061 63.4846 L 845.243 63.2874 L 845.243 63.4846 L 845.222 63.6402 L 845.165 63.7517 L 845.056 63.8165 L 844.893 63.8399 L 844.75 63.8243 L 844.649 63.7854 L 844.589 63.718 L 844.571 63.6272 L 844.351 63.6272 L 844.351 63.6376 L 844.385 63.8036 L 844.488 63.9281 L 844.654 64.0085 L 844.88 64.037 L 845.15 63.9981 L 845.329 63.8892 L 845.43 63.6998 L 845.461 63.4379 L 845.461 63.4379 z M 844.527 62.8024 L 844.551 62.5716 L 844.621 62.4004 L 844.729 62.2993 L 844.875 62.2629 L 845.028 62.2993 L 845.142 62.4004 L 845.212 62.5716 L 845.238 62.8024 L 845.212 63.0385 L 845.142 63.207 L 845.028 63.3108 L 844.875 63.3445 L 844.729 63.3108 L 844.621 63.207 L 844.551 63.0358 L 844.527 62.8024 L 844.527 62.8024 z M 845.938 63.5001 L 846.166 63.5001 L 846.166 62.696 L 846.19 62.5119 L 846.265 62.377 L 846.382 62.2941 L 846.537 62.2629 L 846.662 62.2889 L 846.74 62.3589 L 846.779 62.4756 L 846.792 62.6312 L 846.792 63.5001 L 847.02 63.5001 L 847.02 62.5845 L 847.009 62.4004 L 846.963 62.2474 L 846.81 62.1073 L 846.571 62.058 L 846.441 62.0762 L 846.33 62.1254 L 846.236 62.2032 L 846.166 62.3096 L 846.166 61.6378 L 845.938 61.6378 L 845.938 63.5001 L 845.938 63.5001 z M 847.806 62.3485 L 847.806 63.0462 L 847.821 63.2719 L 847.894 63.4275 L 848.039 63.5182 L 848.285 63.5494 L 848.555 63.5364 L 848.555 63.3393 L 848.358 63.3549 L 848.179 63.3341 L 848.083 63.2693 L 848.042 63.1603 L 848.034 63.0073 L 848.034 62.3485 L 848.555 62.3485 L 848.555 62.154 L 848.034 62.154 L 848.034 61.7468 L 847.806 61.7468 L 847.806 62.154 L 847.411 62.154 L 847.411 62.3485 L 847.806 62.3485 L 847.806 62.3485 z M 848.817 63.9307 L 848.817 64.1122 L 850.379 64.1122 L 850.379 63.9307 L 848.817 63.9307 L 848.817 63.9307 z M 850.628 63.5001 L 850.869 63.5001 L 850.869 62.6727 L 851.626 62.6727 L 851.626 62.4575 L 850.869 62.4575 L 850.869 61.918 L 851.8 61.918 L 851.8 61.7001 L 850.628 61.7001 L 850.628 63.5001 L 850.628 63.5001 z M 852.269 63.5001 L 852.498 63.5001 L 852.498 62.7039 L 852.521 62.5119 L 852.591 62.3745 L 852.705 62.2914 L 852.858 62.2629 L 852.972 62.2811 L 853.058 62.3329 L 853.11 62.4211 L 853.128 62.5405 L 853.359 62.5405 L 853.328 62.3304 L 853.242 62.1799 L 853.099 62.0891 L 852.905 62.058 L 852.773 62.0788 L 852.658 62.1306 L 852.557 62.2188 L 852.477 62.3381 L 852.477 62.1073 L 852.269 62.1073 L 852.269 63.5001 L 852.269 63.5001 z M 853.678 62.805 L 853.719 63.1215 L 853.839 63.3549 L 854.028 63.5001 L 854.282 63.5494 L 854.534 63.5001 L 854.723 63.3575 L 854.842 63.124 L 854.886 62.805 L 854.842 62.4886 L 854.723 62.2526 L 854.534 62.1099 L 854.282 62.058 L 854.028 62.1099 L 853.839 62.2551 L 853.719 62.4886 L 853.678 62.805 L 853.678 62.805 z M 853.911 62.8024 L 853.935 62.569 L 854.007 62.4004 L 854.124 62.2966 L 854.282 62.2603 L 854.438 62.2966 L 854.554 62.3978 L 854.627 62.569 L 854.653 62.8024 L 854.627 63.0385 L 854.554 63.2097 L 854.438 63.3134 L 854.282 63.3471 L 854.124 63.3134 L 854.007 63.2097 L 853.935 63.0385 L 853.911 62.8024 L 853.911 62.8024 z M 855.307 63.5001 L 855.535 63.5001 L 855.535 62.696 L 855.558 62.5119 L 855.633 62.377 L 855.75 62.2941 L 855.906 62.2629 L 856.03 62.2889 L 856.108 62.3589 L 856.147 62.4756 L 856.16 62.6312 L 856.16 63.5001 L 856.388 63.5001 L 856.388 62.5845 L 856.378 62.4004 L 856.331 62.2474 L 856.178 62.1073 L 855.939 62.058 L 855.807 62.0762 L 855.696 62.1254 L 855.6 62.2084 L 855.524 62.32 L 855.524 62.1073 L 855.307 62.1073 L 855.307 63.5001 L 855.307 63.5001 z M 857.174 62.3485 L 857.174 63.0462 L 857.19 63.2719 L 857.262 63.4275 L 857.407 63.5182 L 857.654 63.5494 L 857.924 63.5364 L 857.924 63.3393 L 857.727 63.3549 L 857.547 63.3341 L 857.452 63.2693 L 857.41 63.1603 L 857.402 63.0073 L 857.402 62.3485 L 857.924 62.3485 L 857.924 62.154 L 857.402 62.154 L 857.402 61.7468 L 857.174 61.7468 L 857.174 62.154 L 856.78 62.154 L 856.78 62.3485 L 857.174 62.3485 L 857.174 62.3485 z M 858.186 63.9307 L 858.186 64.1122 L 859.747 64.1122 L 859.747 63.9307 L 858.186 63.9307 L 858.186 63.9307 z M 859.908 62.8154 L 859.944 63.1396 L 860.058 63.3704 L 860.25 63.5027 L 860.528 63.5494 L 860.803 63.5027 L 860.995 63.3704 L 861.109 63.1422 L 861.148 62.8154 L 861.148 61.7001 L 860.906 61.7001 L 860.906 62.8284 L 860.883 63.0488 L 860.813 63.207 L 860.694 63.3004 L 860.528 63.3315 L 860.356 63.3004 L 860.237 63.207 L 860.167 63.0514 L 860.146 62.8284 L 860.146 61.7001 L 859.908 61.7001 L 859.908 62.8154 L 859.908 62.8154 z M 861.767 62.3226 L 861.767 62.1073 L 861.539 62.1073 L 861.539 64.0396 L 861.767 64.0396 L 861.767 63.2874 L 861.848 63.4094 L 861.939 63.4897 L 862.167 63.5494 L 862.385 63.5001 L 862.556 63.3523 L 862.667 63.1188 L 862.709 62.8024 L 862.667 62.4886 L 862.556 62.2551 L 862.385 62.1099 L 862.167 62.058 L 862.042 62.0736 L 861.936 62.1229 L 861.845 62.2059 L 861.767 62.3226 L 861.767 62.3226 z M 862.128 63.3445 L 861.975 63.3108 L 861.863 63.207 L 861.793 63.0385 L 861.77 62.8024 L 861.793 62.569 L 861.863 62.4004 L 861.975 62.2993 L 862.128 62.2629 L 862.268 62.2993 L 862.38 62.403 L 862.45 62.5716 L 862.476 62.8024 L 862.45 63.0358 L 862.38 63.207 L 862.268 63.3108 L 862.128 63.3445 L 862.128 63.3445 z M 863.329 62.3226 L 863.329 62.1073 L 863.101 62.1073 L 863.101 64.0396 L 863.329 64.0396 L 863.329 63.2874 L 863.409 63.4094 L 863.5 63.4897 L 863.728 63.5494 L 863.946 63.5001 L 864.117 63.3523 L 864.229 63.1188 L 864.27 62.8024 L 864.229 62.4886 L 864.117 62.2551 L 863.946 62.1099 L 863.728 62.058 L 863.604 62.0736 L 863.497 62.1229 L 863.407 62.2059 L 863.329 62.3226 L 863.329 62.3226 z M 863.689 63.3445 L 863.536 63.3108 L 863.425 63.207 L 863.355 63.0385 L 863.331 62.8024 L 863.355 62.569 L 863.425 62.4004 L 863.536 62.2993 L 863.689 62.2629 L 863.829 62.2993 L 863.941 62.403 L 864.011 62.5716 L 864.037 62.8024 L 864.011 63.0358 L 863.941 63.207 L 863.829 63.3108 L 863.689 63.3445 L 863.689 63.3445 z M 864.875 62.8699 L 865.788 62.8699 L 865.79 62.7635 L 865.749 62.4652 L 865.635 62.2422 L 865.453 62.1073 L 865.212 62.058 L 864.976 62.1099 L 864.794 62.2551 L 864.678 62.4911 L 864.636 62.8024 L 864.675 63.1215 L 864.792 63.3549 L 864.971 63.5001 L 865.204 63.5494 L 865.406 63.5157 L 865.572 63.4275 L 865.694 63.2874 L 865.764 63.1007 L 865.539 63.1007 L 865.492 63.2045 L 865.425 63.2822 L 865.233 63.3445 L 865.085 63.316 L 864.973 63.2252 L 864.901 63.0773 L 864.875 62.8776 L 864.875 62.8699 L 864.875 62.8699 z M 864.875 62.6779 L 864.903 62.499 L 864.973 62.3667 L 865.08 62.2863 L 865.22 62.2578 L 865.357 62.2863 L 865.463 62.3667 L 865.528 62.499 L 865.552 62.6779 L 864.875 62.6779 L 864.875 62.6779 z M 866.322 63.5001 L 866.55 63.5001 L 866.55 62.7039 L 866.574 62.5119 L 866.644 62.3745 L 866.758 62.2914 L 866.911 62.2629 L 867.025 62.2811 L 867.11 62.3329 L 867.162 62.4211 L 867.18 62.5405 L 867.411 62.5405 L 867.38 62.3304 L 867.295 62.1799 L 867.152 62.0891 L 866.957 62.058 L 866.825 62.0788 L 866.711 62.1306 L 866.61 62.2188 L 866.529 62.3381 L 866.529 62.1073 L 866.322 62.1073 L 866.322 63.5001 L 866.322 63.5001 z M 869.108 63.5001 L 869.346 63.5001 L 869.536 62.971 L 870.254 62.971 L 870.443 63.5001 L 870.687 63.5001 L 870.028 61.6975 L 869.764 61.6975 L 869.108 63.5001 L 869.108 63.5001 z M 869.619 62.7505 L 869.896 61.9568 L 870.174 62.7505 L 869.619 62.7505 L 869.619 62.7505 z M 871.144 62.9062 L 871.771 62.9062 L 871.771 62.7012 L 871.144 62.7012 L 871.144 62.9062 L 871.144 62.9062 z M 872.23 63.5001 L 872.469 63.5001 L 872.658 62.971 L 873.377 62.971 L 873.566 63.5001 L 873.81 63.5001 L 873.151 61.6975 L 872.887 61.6975 L 872.23 63.5001 L 872.23 63.5001 z M 872.741 62.7505 L 873.019 61.9568 L 873.296 62.7505 L 872.741 62.7505 L 872.741 62.7505 z M 874.129 63.5001 L 874.357 63.5001 L 874.357 62.7039 L 874.381 62.5119 L 874.451 62.3745 L 874.565 62.2914 L 874.718 62.2629 L 874.832 62.2811 L 874.917 62.3329 L 874.969 62.4211 L 874.987 62.5405 L 875.218 62.5405 L 875.187 62.3304 L 875.102 62.1799 L 874.959 62.0891 L 874.764 62.058 L 874.632 62.0788 L 874.518 62.1306 L 874.417 62.2188 L 874.336 62.3381 L 874.336 62.1073 L 874.129 62.1073 L 874.129 63.5001 L 874.129 63.5001 z M 875.514 63.5001 L 875.724 63.5001 L 875.724 62.569 L 875.737 62.4289 L 875.776 62.3278 L 875.836 62.2681 L 875.913 62.2448 L 875.976 62.2655 L 876.017 62.3174 L 876.038 62.4056 L 876.046 62.5223 L 876.046 63.5001 L 876.243 63.5001 L 876.243 62.569 L 876.256 62.4315 L 876.295 62.3304 L 876.357 62.2681 L 876.435 62.2448 L 876.497 62.2655 L 876.539 62.3174 L 876.564 62.5223 L 876.564 63.5001 L 876.775 63.5001 L 876.775 62.5378 L 876.762 62.3381 L 876.72 62.1851 L 876.637 62.0917 L 876.502 62.058 L 876.344 62.1099 L 876.222 62.2603 L 876.126 62.1125 L 875.965 62.058 L 875.817 62.1099 L 875.716 62.2551 L 875.716 62.1073 L 875.514 62.1073 L 875.514 63.5001 L 875.514 63.5001 z" stroke="none" fill-rule="evenodd" fill="rgb(0, 0, 0)"/></g><g stroke="rgb(0, 0, 0)" stroke-width="0.13" stroke-linecap="butt" stroke-linejoin="miter" fill="none"><path d="M 852.176 66.6099 L 853.317 66.6099 L 853.317 66.392 L 852.414 66.392 L 852.414 65.7825 L 853.219 65.7825 L 853.219 65.5673 L 852.414 65.5673 L 852.414 65.0278 L 853.296 65.0278 L 853.296 64.8099 L 852.176 64.8099 L 852.176 66.6099 L 852.176 66.6099 z M 853.501 67.0405 L 853.501 67.222 L 855.063 67.222 L 855.063 67.0405 L 853.501 67.0405 L 853.501 67.0405 z M 855.055 66.6099 L 855.293 66.6099 L 855.483 66.0808 L 856.201 66.0808 L 856.391 66.6099 L 856.634 66.6099 L 855.976 64.8073 L 855.711 64.8073 L 855.055 66.6099 L 855.055 66.6099 z M 855.566 65.8604 L 855.843 65.0667 L 856.121 65.8604 L 855.566 65.8604 L 855.566 65.8604 z M 856.953 66.6099 L 857.182 66.6099 L 857.182 65.8137 L 857.205 65.6217 L 857.275 65.4843 L 857.389 65.4012 L 857.542 65.3727 L 857.656 65.3909 L 857.742 65.4427 L 857.794 65.5309 L 857.812 65.6503 L 858.043 65.6503 L 858.012 65.4402 L 857.926 65.2897 L 857.783 65.1989 L 857.589 65.1678 L 857.457 65.1886 L 857.342 65.2404 L 857.241 65.3286 L 857.161 65.4479 L 857.161 65.2171 L 856.953 65.2171 L 856.953 66.6099 L 856.953 66.6099 z M 858.515 66.6099 L 858.743 66.6099 L 858.743 65.8137 L 858.766 65.6217 L 858.836 65.4843 L 858.951 65.4012 L 859.104 65.3727 L 859.218 65.3909 L 859.303 65.4427 L 859.355 65.5309 L 859.373 65.6503 L 859.604 65.6503 L 859.573 65.4402 L 859.487 65.2897 L 859.345 65.1989 L 859.15 65.1678 L 859.018 65.1886 L 858.904 65.2404 L 858.803 65.3286 L 858.722 65.4479 L 858.722 65.2171 L 858.515 65.2171 L 858.515 66.6099 L 858.515 66.6099 z M 860.688 66.418 L 860.688 65.2638 L 860.102 65.2638 L 860.102 65.4583 L 860.46 65.4583 L 860.46 66.418 L 859.993 66.418 L 859.993 66.6099 L 861.16 66.6099 L 861.16 66.418 L 860.688 66.418 L 860.688 66.418 z M 860.696 64.7476 L 860.455 64.7476 L 860.455 65.007 L 860.696 65.007 L 860.696 64.7476 L 860.696 64.7476 z M 862.273 65.0278 L 862.014 64.5869 L 861.76 64.5869 L 862.12 65.0278 L 862.273 65.0278 L 862.273 65.0278 z M 861.752 65.9797 L 862.665 65.9797 L 862.667 65.8733 L 862.626 65.575 L 862.512 65.352 L 862.33 65.2171 L 862.089 65.1678 L 861.853 65.2197 L 861.671 65.3649 L 861.555 65.601 L 861.513 65.9122 L 861.552 66.2313 L 861.669 66.4647 L 861.848 66.6099 L 862.081 66.6592 L 862.283 66.6255 L 862.449 66.5373 L 862.571 66.3972 L 862.641 66.2105 L 862.416 66.2105 L 862.369 66.3143 L 862.302 66.392 L 862.11 66.4543 L 861.962 66.4258 L 861.85 66.335 L 861.778 66.1871 L 861.752 65.9874 L 861.752 65.9797 L 861.752 65.9797 z M 861.752 65.7877 L 861.78 65.6088 L 861.85 65.4765 L 861.957 65.3961 L 862.097 65.3676 L 862.234 65.3961 L 862.341 65.4765 L 862.405 65.6088 L 862.429 65.7877 L 861.752 65.7877 L 861.752 65.7877 z M 863.199 66.6099 L 863.427 66.6099 L 863.427 65.8137 L 863.451 65.6217 L 863.521 65.4843 L 863.635 65.4012 L 863.788 65.3727 L 863.902 65.3909 L 863.988 65.4427 L 864.039 65.5309 L 864.058 65.6503 L 864.288 65.6503 L 864.257 65.4402 L 864.172 65.2897 L 864.029 65.1989 L 863.834 65.1678 L 863.702 65.1886 L 863.588 65.2404 L 863.487 65.3286 L 863.407 65.4479 L 863.407 65.2171 L 863.199 65.2171 L 863.199 66.6099 L 863.199 66.6099 z M 864.875 65.9797 L 865.788 65.9797 L 865.79 65.8733 L 865.749 65.575 L 865.635 65.352 L 865.453 65.2171 L 865.212 65.1678 L 864.976 65.2197 L 864.794 65.3649 L 864.677 65.601 L 864.636 65.9122 L 864.675 66.2313 L 864.792 66.4647 L 864.971 66.6099 L 865.204 66.6592 L 865.406 66.6255 L 865.572 66.5373 L 865.694 66.3972 L 865.764 66.2105 L 865.539 66.2105 L 865.492 66.3143 L 865.424 66.392 L 865.232 66.4543 L 865.085 66.4258 L 864.973 66.335 L 864.901 66.1871 L 864.875 65.9874 L 864.875 65.9797 L 864.875 65.9797 z M 864.875 65.7877 L 864.903 65.6088 L 864.973 65.4765 L 865.079 65.3961 L 865.22 65.3676 L 865.357 65.3961 L 865.463 65.4765 L 865.528 65.6088 L 865.552 65.7877 L 864.875 65.7877 L 864.875 65.7877 z" stroke="none" fill-rule="evenodd" fill="rgb(0, 0, 0)"/></g></svg>