<?xml version="1.0" encoding="utf-8" ?><!DOCTYPE svg PUBLIC "-//W3C//DTD SVG 1.1//EN" "http://www.w3.org/Graphics/SVG/1.1/DTD/svg11.dtd" 
[ <!ATTLIST svg 
  xmlns:dsy CDATA #FIXED "http://www.3ds.com/print"  
    dsy:text-version CDATA #IMPLIED > 

  <!ATTLIST text 
  xmlns:dsy CDATA #FIXED "http://www.3ds.com/print" 
    dsy:text-version CDATA #IMPLIED > 
]><svg xmlns="http://www.w3.org/2000/svg" xmlns:dsy="http://www.3ds.com/print" dsy:text-version="18000" width="297" height="210" viewBox="0 0 297 210" version="1.1"><g stroke="rgb(0, 0, 0)" stroke-width="0.13" stroke-linecap="butt" stroke-linejoin="miter" fill="none"><path d="M 68.099 77.1722 L 123.881 77.1722"/><path d="M 61.099 33.1722 L 123.881 33.1722"/></g><g stroke="rgb(0, 0, 0)" stroke-width="0.35" stroke-linecap="butt" stroke-linejoin="miter" fill="none"><path d="M 64.1753 36.9883 A 3.05 3.05 0 0 0 64.6885 37.9882"/><path d="M 68.679 33.5108 A 3.05 3.05 0 0 0 66.3065 33.1744"/><path d="M 44.3149 77.1723 A 3.05 3.05 0 0 0 45.8831 77.1723"/><path d="M 66.099 77.1722 A 10 10 0 0 0 76.099 67.1722"/><path d="M 42.099 77.1722 L 66.099 77.1722"/><path d="M 36.099 71.1722 A 6 6 0 0 0 42.099 77.1722"/><path d="M 36.099 39.1722 L 36.099 71.1722"/><path d="M 42.099 33.1722 A 6 6 0 0 0 36.099 39.1722"/><path d="M 59.099 33.1722 L 42.099 33.1722"/><path d="M 66.099 33.1722 L 59.099 33.1722"/><path d="M 76.099 43.1722 A 10 10 0 0 0 66.099 33.1722"/><path d="M 76.099 43.1722 L 76.099 67.1722"/><circle cx="45.099" cy="72.1722" r="1.6"/><circle cx="63.099" cy="72.1722" r="1.6"/><circle cx="63.099" cy="38.1722" r="1.6"/><circle cx="45.099" cy="38.1722" r="1.6"/><circle cx="56.099" cy="55.1722" r="11"/></g><g stroke="rgb(0, 0, 0)" stroke-width="0.13" stroke-linecap="butt" stroke-linejoin="miter" fill="none"><path d="M 119.881 56.7628 L 119.881 56.3089 L 119.013 56.3089 L 119.013 55.8096 L 118.61 55.8096 L 118.61 56.3089 L 116.457 56.3089 L 116.457 56.7679 L 118.57 58.301 L 119.013 58.301 L 119.013 56.7628 L 119.881 56.7628 L 119.881 56.7628 z M 118.61 57.8774 L 117.042 56.7628 L 118.61 56.7628 L 118.61 57.8774 L 118.61 57.8774 z M 119.881 53.0268 L 119.881 52.5729 L 119.013 52.5729 L 119.013 52.0736 L 118.61 52.0736 L 118.61 52.5729 L 116.457 52.5729 L 116.457 53.0318 L 118.57 54.565 L 119.013 54.565 L 119.013 53.0268 L 119.881 53.0268 L 119.881 53.0268 z M 118.61 54.1414 L 117.042 53.0268 L 118.61 53.0268 L 118.61 54.1414 L 118.61 54.1414 z" stroke="none" fill-rule="evenodd" fill="rgb(0, 0, 0)"/><path d="M 122.399 35.104 L 121.881 33.1722 L 121.363 35.104"/><path d="M 121.363 75.2403 L 121.881 77.1722 L 122.399 75.2403"/><path d="M 121.881 77.1722 L 121.881 33.1722"/></g></svg>