<?xml version="1.0" encoding="utf-8"?>
<!-- Generator: Adobe Illustrator 21.1.0, SVG Export Plug-In . SVG Version: 6.00 Build 0)  -->
<svg version="1.1" id="Layer_1" dsy:text-version="18000" xmlns:dsy="http://www.3ds.com/print"
	 xmlns="http://www.w3.org/2000/svg" xmlns:xlink="http://www.w3.org/1999/xlink" x="0px" y="0px" viewBox="0 0 297 210"
	 style="enable-background:new 0 0 297 210;" xml:space="preserve">
<style type="text/css">
	.st0{fill:none;stroke:#000000;stroke-width:0.35;}
</style>
<g>
	<path class="st0" d="M35.6,198"/>
	<path class="st0" d="M35.6,50.6v124.8"/>
	<path class="st0" d="M35.6,29.4"/>
	<circle class="st0" cx="49.8" cy="113" r="4.5"/>
	<circle class="st0" cx="151.8" cy="161.2" r="4.5"/>
	<circle class="st0" cx="100.8" cy="161.2" r="4.5"/>
	<circle class="st0" cx="49.8" cy="161.2" r="4.5"/>
	<circle class="st0" cx="151.8" cy="64.8" r="4.5"/>
	<circle class="st0" cx="100.8" cy="64.8" r="4.5"/>
	<circle class="st0" cx="49.8" cy="64.8" r="4.5"/>
	<path class="st0" d="M171.7,152.5c0-2.3-1.9-4.3-4.3-4.3"/>
	<path class="st0" d="M167.4,77.6c2.3,0,4.3-1.9,4.3-4.3"/>
	<path class="st0" d="M35.5,175.3h0.1h133.2"/>
	<path class="st0" d="M171.6,172.5v-20"/>
	<path class="st0" d="M168.8,175.3c1.6,0,2.8-1.3,2.8-2.8"/>
	<path class="st0" d="M168.8,50.6l-133.2,0"/>
	<path class="st0" d="M171.6,73.4V53.5"/>
	<path class="st0" d="M171.6,53.5c0-1.6-1.3-2.8-2.8-2.8"/>
	<path class="st0" d="M66,77.6h101.4"/>
	<path class="st0" d="M66,77.7c-1.6,0-2.8,1.3-2.8,2.8"/>
	<path class="st0" d="M63.2,145.4c0,1.6,1.3,2.8,2.8,2.8"/>
	<path class="st0" d="M63.2,145.4V80.5"/>
	<path class="st0" d="M167.4,148.3H65.9"/>
</g>
</svg>
