<?xml version="1.0" encoding="utf-8"?>
<!-- Generator: Adobe Illustrator 22.1.0, SVG Export Plug-In . SVG Version: 6.00 Build 0)  -->
<svg version="1.1" id="Calque_1" dsy:text-version="18000" xmlns:dsy="http://www.3ds.com/print"
	 xmlns="http://www.w3.org/2000/svg" xmlns:xlink="http://www.w3.org/1999/xlink" x="0px" y="0px" viewBox="0 0 1189 841"
	 style="enable-background:new 0 0 1189 841;" xml:space="preserve">
<style type="text/css">
	.st0{fill:none;stroke:#FF0000;stroke-width:2.834646e-02;}
</style>
<g>
	<path class="st0" d="M-774.8-604.9l56.2,11.8"/>
	<path class="st0" d="M-718.6-593.1l-11.8,56.2"/>
	<path class="st0" d="M-730.5-536.9l-224.7-47.3"/>
	<path class="st0" d="M-955.1-584.2l3.9-18.4"/>
	<path class="st0" d="M-951.3-602.7c15.5,3.2,30.7-6.7,33.9-22.3c3.2-15.5-6.7-30.6-22.1-33.9"/>
	<path class="st0" d="M-933.8-685.3l-5.6,26.5"/>
	<path class="st0" d="M-709.2-638l-224.7-47.3"/>
	<path class="st0" d="M-715.1-609.9l5.9-28.1"/>
	<path class="st0" d="M-771.3-621.7l56.2,11.8"/>
	<path class="st0" d="M-774.8-604.9l3.5-16.9"/>
	<path class="st0" d="M-558.4-607.1l-56.8,8.1"/>
	<path class="st0" d="M-615.2-599l-10.1-71"/>
	<path class="st0" d="M-625.3-670.1l227.3-32.4"/>
	<path class="st0" d="M-398-702.4l5.1,36.1"/>
	<path class="st0" d="M-392.9-666.3c-15.7,2.2-26.6,16.8-24.4,32.5c2.2,15.7,16.8,26.6,32.5,24.4"/>
	<path class="st0" d="M-379.4-571.7l-5.4-37.7"/>
	<path class="st0" d="M-379.4-571.7l-227.3,32.4"/>
	<path class="st0" d="M-606.7-539.4l-6.1-42.6"/>
	<path class="st0" d="M-612.8-582l56.8-8.1"/>
	<path class="st0" d="M-555.9-590.1l-2.4-17"/>
	<path class="st0" d="M-65.1-565.5l21.8,53.1"/>
	<path class="st0" d="M-43.3-512.4l-15.9,6.5"/>
	<path class="st0" d="M-59.2-505.8L-81-559"/>
	<path class="st0" d="M-81-559l-527.7,216.6"/>
	<path class="st0" d="M-608.7-342.4l21.8,53.1"/>
	<path class="st0" d="M-586.9-289.3l-15.7,6.4"/>
	<path class="st0" d="M-602.6-282.8l-21.8-53.1"/>
	<circle class="st0" cx="-126" cy="438.2" r="17.2"/>
	<path class="st0" d="M-358.1,268.3l-32.7-79.7"/>
	<path class="st0" d="M-373.8,274.7l15.7-6.4"/>
	<path class="st0" d="M-406.5,195.1l32.7,79.7"/>
	<path class="st0" d="M-390.8,188.7l-15.7,6.4"/>
	<path class="st0" d="M-281.8,454.2l-32.7-79.7"/>
	<path class="st0" d="M-297.5,460.6l15.7-6.4"/>
	<path class="st0" d="M-330.2,380.9l32.7,79.7"/>
	<path class="st0" d="M-314.5,374.5l-15.7,6.4"/>
	<path class="st0" d="M-136.2,84.2l32.7,79.7"/>
	<path class="st0" d="M-103.5,163.8l-15.7,6.4"/>
	<path class="st0" d="M-119.2,170.2l-32.7-79.7"/>
	<path class="st0" d="M-151.8,90.6l15.7-6.4"/>
	<path class="st0" d="M-27.2,349.7L-59.9,270"/>
	<path class="st0" d="M-27.2,349.7l-15.7,6.4"/>
	<path class="st0" d="M-75.6,276.4l32.7,79.7"/>
	<path class="st0" d="M-75.6,276.4l15.7-6.4"/>
	<path class="st0" d="M40.6-6.9L96.4,6.6"/>
	<path class="st0" d="M40.6-6.9L44-20.8"/>
	<path class="st0" d="M99.8-7.3L44-20.8"/>
	<path class="st0" d="M99.8-7.3L96.4,6.6"/>
	<path class="st0" d="M-624.4-335.9l-390,160.1"/>
	<path class="st0" d="M-1014.4-175.9c-2.9,1.2-4.3,4.6-3.1,7.5c0.3,0.8,0.8,1.4,1.4,2"/>
	<path class="st0" d="M-35.6,760.6l-980.6-927"/>
	<path class="st0" d="M-35.6,760.6c2.3,2.2,5.9,2.1,8.1-0.2c0.7-0.7,1.2-1.6,1.4-2.6"/>
	<path class="st0" d="M322.8-724.7L-65.1-565.5"/>
	<path class="st0" d="M330.5-718L-26,757.8"/>
	<path class="st0" d="M330.5-718c0.7-3.1-1.1-6.2-4.2-6.9c-1.2-0.3-2.4-0.2-3.5,0.3"/>
	<path class="st0" d="M847.7-546.5l21.9,153.4"/>
	<path class="st0" d="M790.9-538.4l56.8-8.1"/>
	<path class="st0" d="M788.4-555.5l2.4,17"/>
	<path class="st0" d="M703.2-543.3l85.2-12.1"/>
	<path class="st0" d="M705.6-526.3l-2.4-17"/>
	<path class="st0" d="M592-510.1l113.7-16.2"/>
	<path class="st0" d="M589.5-527.1l2.4,17"/>
	<path class="st0" d="M589.5-527.1L504.3-515"/>
	<path class="st0" d="M506.7-498l-2.4-17"/>
	<path class="st0" d="M506.7-498l-56.8,8.1"/>
	<path class="st0" d="M449.9-489.9l21.9,153.4"/>
	<path class="st0" d="M528.6-344.5l-56.8,8.1"/>
	<path class="st0" d="M528.6-344.5l2.4,17"/>
	<path class="st0" d="M616.3-339.6L531-327.5"/>
	<path class="st0" d="M613.8-356.7l2.4,17"/>
	<path class="st0" d="M727.5-372.9l-113.7,16.2"/>
	<path class="st0" d="M727.5-372.9l2.4,17"/>
	<path class="st0" d="M815.1-367.9l-85.2,12.1"/>
	<path class="st0" d="M812.7-385l2.4,17"/>
	<path class="st0" d="M869.5-393.1l-56.8,8.1"/>
	<path class="st0" d="M616.5-439.5l85.2-12.1"/>
	<path class="st0" d="M704.1-434.9l-2.4-16.8"/>
	<path class="st0" d="M618.9-422.8l85.2-12.1"/>
	<path class="st0" d="M616.5-439.5l2.4,16.8"/>
	<path class="st0" d="M1386.5-546.5l21.9,153.4"/>
	<path class="st0" d="M1329.7-538.4l56.8-8.1"/>
	<path class="st0" d="M1327.3-555.5l2.4,17"/>
	<path class="st0" d="M1242-543.3l85.2-12.1"/>
	<path class="st0" d="M1244.5-526.3l-2.4-17"/>
	<path class="st0" d="M1130.8-510.1l113.7-16.2"/>
	<path class="st0" d="M1128.4-527.1l2.4,17"/>
	<path class="st0" d="M1128.4-527.1l-85.2,12.1"/>
	<path class="st0" d="M1045.6-498l-2.4-17"/>
	<path class="st0" d="M1045.6-498l-56.8,8.1"/>
	<path class="st0" d="M988.8-489.9l21.9,153.4"/>
	<path class="st0" d="M1067.4-344.5l-56.8,8.1"/>
	<path class="st0" d="M1067.4-344.5l2.4,17"/>
	<path class="st0" d="M1155.1-339.6l-85.2,12.1"/>
	<path class="st0" d="M1152.7-356.7l2.4,17"/>
	<path class="st0" d="M1266.3-372.9l-113.7,16.2"/>
	<path class="st0" d="M1266.3-372.9l2.4,17"/>
	<path class="st0" d="M1354-367.9l-85.2,12.1"/>
	<path class="st0" d="M1351.6-385l2.4,17"/>
	<path class="st0" d="M1408.4-393.1l-56.8,8.1"/>
	<path class="st0" d="M1155.4-439.5l85.2-12.1"/>
	<path class="st0" d="M1243-434.9l-2.4-16.8"/>
	<path class="st0" d="M1157.8-422.8l85.2-12.1"/>
	<path class="st0" d="M1155.4-439.5l2.4,16.8"/>
	<path class="st0" d="M928.4-37.7l-7.7-56.9"/>
	<path class="st0" d="M672.7-3.2l255.7-34.5"/>
	<path class="st0" d="M665-60l7.7,56.9"/>
	<path class="st0" d="M648-57.7L665-60"/>
	<path class="st0" d="M636.4-143.1L648-57.7"/>
	<path class="st0" d="M653.5-145.4l-17.1,2.3"/>
	<path class="st0" d="M645.8-202.2l7.7,56.9"/>
	<path class="st0" d="M901.5-236.8l-255.7,34.5"/>
	<path class="st0" d="M909.2-179.9l-7.7-56.9"/>
	<path class="st0" d="M926.3-182.2l-17.1,2.3"/>
	<path class="st0" d="M937.8-96.9l-11.5-85.3"/>
	<path class="st0" d="M920.7-94.5l17.1-2.3"/>
	<path class="st0" d="M1105.7,311.5l-18.6,54.3"/>
	<path class="st0" d="M1087.1,365.8l-16-5.5"/>
	<path class="st0" d="M1071.1,360.3l18.6-54.3"/>
	<path class="st0" d="M1089.7,306L709.1,175.4"/>
	<path class="st0" d="M709.1,175.4l-18.6,54.3"/>
	<path class="st0" d="M690.5,229.7l-16-5.5"/>
	<path class="st0" d="M674.5,224.2l18.6-54.3"/>
	<circle class="st0" cx="1278.3" cy="439" r="9.2"/>
	<circle class="st0" cx="477.2" cy="123.3" r="9.2"/>
	<circle class="st0" cx="688.3" cy="996.7" r="9.2"/>
	<circle class="st0" cx="761.5" cy="749.8" r="17.2"/>
	<path class="st0" d="M1291.1,453.6l56.5-44.3"/>
	<path class="st0" d="M1347.6,409.3l1.8,2.3"/>
	<path class="st0" d="M1349.4,411.6l-56.5,44.3"/>
	<path class="st0" d="M1292.9,455.8l-1.8-2.3"/>
	<path class="st0" d="M1264.8,423.3l-2-2.1"/>
	<path class="st0" d="M1262.8,421.2l30.9-29.9"/>
	<path class="st0" d="M1293.7,391.3l2,2.1"/>
	<path class="st0" d="M1264.8,423.3l30.9-29.9"/>
	<path class="st0" d="M455.8,132l2.7-1.1"/>
	<path class="st0" d="M443.1,100l12.7,32"/>
	<path class="st0" d="M445.8,98.9l-2.7,1.1"/>
	<path class="st0" d="M458.5,131l-12.7-32"/>
	<path class="st0" d="M497.1,121.6l-1.4-14.3"/>
	<path class="st0" d="M498.6,107l-2.9,0.3"/>
	<path class="st0" d="M500,121.3l-1.4-14.3"/>
	<path class="st0" d="M497.1,121.6l2.9-0.3"/>
	<path class="st0" d="M1042,506.7l-32.7,79.7"/>
	<path class="st0" d="M1009.3,586.3l-15.7-6.4"/>
	<path class="st0" d="M993.6,579.9l32.7-79.7"/>
	<path class="st0" d="M1026.3,500.2l15.7,6.4"/>
	<path class="st0" d="M933,772.2l32.7-79.7"/>
	<path class="st0" d="M917.3,765.8l15.7,6.4"/>
	<path class="st0" d="M950,686.1l-32.7,79.7"/>
	<path class="st0" d="M965.7,692.5l-15.7-6.4"/>
	<path class="st0" d="M695.4,581.6l15.7,6.4"/>
	<path class="st0" d="M711.1,588l-32.7,79.7"/>
	<path class="st0" d="M678.4,667.7l-15.7-6.4"/>
	<path class="st0" d="M662.7,661.3l32.7-79.7"/>
	<path class="st0" d="M787.3,402.2l-32.7,79.7"/>
	<path class="st0" d="M754.7,481.8l-15.7-6.4"/>
	<path class="st0" d="M739,475.4l32.7-79.7"/>
	<path class="st0" d="M787.3,402.2l-15.7-6.4"/>
	<path class="st0" d="M539.1,318.2l55.8-13.5"/>
	<path class="st0" d="M535.7,304.3l3.4,13.9"/>
	<path class="st0" d="M591.5,290.8l-55.8,13.5"/>
	<path class="st0" d="M594.9,304.7l-3.4-13.9"/>
	<path class="st0" d="M693.1,169.9L446.4,85.2"/>
	<path class="st0" d="M446.4,85.2c-7.5-2.6-15.7,1.4-18.2,8.9c-0.9,2.6-1,5.4-0.4,8"/>
	<path class="st0" d="M427.8,102.1L658.1,1055"/>
	<path class="st0" d="M658.1,1055c1.9,7.7,9.6,12.4,17.3,10.6c2.4-0.6,4.7-1.8,6.5-3.5"/>
	<path class="st0" d="M1354.7,397.1l-249-85.5"/>
	<path class="st0" d="M681.9,1062l678.1-641"/>
	<path class="st0" d="M1359.9,421.1c5.8-5.4,6-14.5,0.6-20.3c-1.6-1.7-3.6-3-5.8-3.7"/>
	<path class="st0" d="M1933.8,818.4l-18.6,54.3"/>
	<path class="st0" d="M1915.1,872.7l-16-5.5"/>
	<path class="st0" d="M1899.1,867.2l18.6-54.3"/>
	<path class="st0" d="M1917.8,812.9l-380.6-130.7"/>
	<path class="st0" d="M1537.2,682.3l-18.6,54.3"/>
	<path class="st0" d="M1518.6,736.6l-16-5.5"/>
	<path class="st0" d="M1502.5,731.1l18.6-54.3"/>
	<circle class="st0" cx="2106.3" cy="945.9" r="9.2"/>
	<circle class="st0" cx="1305.3" cy="630.2" r="9.2"/>
	<circle class="st0" cx="1516.3" cy="1503.6" r="9.2"/>
	<circle class="st0" cx="1589.5" cy="1256.7" r="17.2"/>
	<path class="st0" d="M2118.4,961.8l46.2-34.1"/>
	<path class="st0" d="M2164.6,927.7l1.7,2.3"/>
	<path class="st0" d="M2166.3,930.1l-46.2,34.1"/>
	<path class="st0" d="M2120.1,964.1l-1.7-2.3"/>
	<path class="st0" d="M2091,932.8l-2.2-1.8"/>
	<path class="st0" d="M2088.7,931l27.4-33.2"/>
	<path class="st0" d="M2116.2,897.8l2.2,1.8"/>
	<path class="st0" d="M2091,932.8l27.5-33.2"/>
	<path class="st0" d="M1283.8,637.6l2.7-1"/>
	<path class="st0" d="M1272.2,605.2l11.5,32.4"/>
	<path class="st0" d="M1274.9,604.2l-2.7,1"/>
	<path class="st0" d="M1286.5,636.7l-11.5-32.4"/>
	<path class="st0" d="M1325.3,627.3l-1.9-14.2"/>
	<path class="st0" d="M1326.3,612.7l-2.8,0.4"/>
	<path class="st0" d="M1328.2,626.9l-1.9-14.2"/>
	<path class="st0" d="M1325.3,627.3l2.8-0.4"/>
	<path class="st0" d="M1423,811.6l-3.4-13.9"/>
	<path class="st0" d="M1367.2,825.1l55.8-13.5"/>
	<path class="st0" d="M1363.8,811.2l3.4,14"/>
	<path class="st0" d="M1419.6,797.7l-55.8,13.5"/>
	<path class="st0" d="M1521.2,676.8l-246.7-84.7"/>
	<path class="st0" d="M1274.5,592.1c-7.5-2.6-15.7,1.4-18.2,8.9c-0.9,2.6-1,5.4-0.4,8"/>
	<path class="st0" d="M1255.9,609l230.2,952.9"/>
	<path class="st0" d="M1486.1,1561.9c1.9,7.7,9.6,12.4,17.3,10.6c2.4-0.6,4.7-1.8,6.5-3.5"/>
	<path class="st0" d="M2182.8,904l-249-85.5"/>
	<path class="st0" d="M1509.9,1568.9L2188,928"/>
	<path class="st0" d="M2188,928c5.8-5.4,6-14.5,0.6-20.3c-1.6-1.7-3.6-3-5.8-3.7"/>
	<path class="st0" d="M1589.6-435.1l8.5,56.8"/>
	<path class="st0" d="M1598.1-378.3l-28.4,4.3"/>
	<path class="st0" d="M1569.7-374.1L1548.4-516"/>
	<path class="st0" d="M1548.4-516l113.5-17"/>
	<path class="st0" d="M1661.9-533l21.3,141.9"/>
	<path class="st0" d="M1683.2-391.1l-28.4,4.3"/>
	<path class="st0" d="M1654.9-386.9l-8.5-56.8"/>
	<path class="st0" d="M1646.3-443.6l-17,2.6"/>
	<path class="st0" d="M1629.3-441.1l8.5,56.8"/>
	<path class="st0" d="M1637.8-384.3l-22.7,3.4"/>
	<path class="st0" d="M1615.1-380.9l-8.5-56.8"/>
	<path class="st0" d="M1606.6-437.7l-17,2.6"/>
	<path class="st0" d="M1791.4-439.2l8.5,56.8"/>
	<path class="st0" d="M1799.9-382.4l-28.4,4.3"/>
	<path class="st0" d="M1771.5-378.1L1750.2-520"/>
	<path class="st0" d="M1750.2-520l113.5-17"/>
	<path class="st0" d="M1863.7-537.1l21.3,141.9"/>
	<path class="st0" d="M1885-395.2l-28.4,4.3"/>
	<path class="st0" d="M1856.7-390.9l-8.5-56.8"/>
	<path class="st0" d="M1848.1-447.7l-17,2.6"/>
	<path class="st0" d="M1831.1-445.1l8.5,56.8"/>
	<path class="st0" d="M1839.6-388.4l-22.7,3.4"/>
	<path class="st0" d="M1816.9-384.9l-8.5-56.8"/>
	<path class="st0" d="M1808.4-441.7l-17,2.6"/>
</g>
<g>
	<path d="M-906.6-601.1h0.9v-2.8h0.9l0.7,0l0.4,0.1l0.2,0.3l0.1,0.6l0,0.9l0.1,0.6l0.1,0.3h1v-0.2l-0.2-0.3l-0.1-0.5l-0.1-1.1
		l-0.2-0.8l-0.2-0.2l-0.3-0.2l0.4-0.2l0.3-0.3l0.2-0.4l0.1-0.5l-0.1-0.8l-0.4-0.6l-0.6-0.4l-0.9-0.1h-2.2V-601.1L-906.6-601.1z
		 M-904.7-606.9l0.6,0.1l0.4,0.2l0.3,0.3l0.1,0.5l-0.1,0.6l-0.3,0.3l-0.4,0.2l-0.6,0h-1v-2.2H-904.7L-904.7-606.9z M-900-603.5h3.3
		l0-0.4l-0.2-1.1l-0.4-0.8l-0.7-0.5l-0.9-0.2l-0.9,0.2l-0.7,0.5l-0.4,0.9l-0.2,1.1l0.1,1.2l0.4,0.9l0.7,0.5l0.9,0.2l0.7-0.1l0.6-0.3
		l0.4-0.5l0.3-0.7h-0.8l-0.2,0.4l-0.2,0.3l-0.7,0.2l-0.5-0.1l-0.4-0.3l-0.3-0.5L-900-603.5L-900-603.5L-900-603.5z M-900-604.2
		l0.1-0.7l0.3-0.5l0.4-0.3l0.5-0.1l0.5,0.1l0.4,0.3l0.2,0.5l0.1,0.7H-900L-900-604.2z M-892-601.8L-892-601.8l0,0.4l0.1,0.2l0.6,0.2
		l0.5-0.1v-0.6l-0.2,0l-0.3-0.1l0-0.4v-2.6l-0.1-0.7l-0.3-0.5l-0.6-0.3l-0.8-0.1l-0.8,0.1l-0.6,0.3l-0.4,0.5l-0.1,0.7v0.1h0.8
		l0.1-0.4l0.2-0.3l0.3-0.2l0.5-0.1l0.5,0l0.3,0.1l0.2,0.2l0.1,0.3l0,0.4l-0.2,0.2l-0.4,0.1l-0.7,0.1l-0.8,0.2l-0.6,0.3l-0.3,0.5
		l-0.1,0.7l0.1,0.6l0.3,0.5l0.5,0.3l0.7,0.1l0.9-0.2L-892-601.8L-892-601.8z M-892.1-602.9l-0.1,0.5l-0.3,0.4l-0.5,0.2l-0.6,0.1
		l-0.4,0l-0.3-0.2l-0.2-0.3l0-0.4l0-0.3l0.2-0.2l0.6-0.3l0.8-0.1l0.7-0.2V-602.9L-892.1-602.9z M-889-601.1h0.8v-2.9l0.1-0.7
		l0.3-0.5l0.4-0.3l0.6-0.1l0.4,0.1l0.3,0.2l0.2,0.3l0.1,0.4h0.8l-0.1-0.8l-0.3-0.6l-0.5-0.3l-0.7-0.1l-0.5,0.1l-0.4,0.2l-0.4,0.3
		l-0.3,0.4v-0.8h-0.8V-601.1L-889-601.1z M-884.5-599.6v0.7h5.7v-0.7H-884.5L-884.5-599.6z M-878-601.1h0.9v-2.8h0.9l0.7,0l0.4,0.1
		l0.2,0.3l0.1,0.6l0,0.9l0.1,0.6l0.1,0.3h1v-0.2l-0.2-0.3l-0.1-0.5l-0.1-1.1l-0.2-0.8l-0.2-0.2l-0.3-0.2l0.4-0.2l0.3-0.3l0.2-0.4
		l0.1-0.5l-0.1-0.8l-0.4-0.6l-0.6-0.4l-0.9-0.1h-2.2V-601.1L-878-601.1z M-876.1-606.9l0.6,0.1l0.4,0.2l0.3,0.3l0.1,0.5l-0.1,0.6
		l-0.3,0.3l-0.4,0.2l-0.6,0h-1v-2.2H-876.1L-876.1-606.9z M-869.6-601.8v-4.2h-2.1v0.7h1.3v3.5h-1.7v0.7h4.3v-0.7H-869.6
		L-869.6-601.8z M-869.5-608h-0.9v1h0.9V-608L-869.5-608z M-862.4-601.4v-4.9h-0.8v0.8l-0.7-0.8l-0.4-0.2l-0.4-0.1l-0.8,0.2
		l-0.6,0.5l-0.4,0.9l-0.1,1.2l0.1,1.2l0.4,0.9l0.6,0.5l0.8,0.2l0.5-0.1l0.4-0.2l0.7-0.7v0.7l-0.1,0.6l-0.2,0.4l-0.4,0.2l-0.6,0.1
		l-0.5-0.1l-0.4-0.1l-0.2-0.2l-0.1-0.3h-0.8v0l0.1,0.6l0.4,0.5l0.6,0.3l0.8,0.1l1-0.1l0.7-0.4l0.4-0.7L-862.4-601.4L-862.4-601.4z
		 M-865.9-603.7l0.1-0.8l0.3-0.6l0.4-0.4l0.5-0.1l0.6,0.1l0.4,0.4l0.3,0.6l0.1,0.8l-0.1,0.9l-0.3,0.6l-0.4,0.4l-0.6,0.1l-0.5-0.1
		l-0.4-0.4l-0.3-0.6L-865.9-603.7L-865.9-603.7z M-860.7-601.1h0.8v-2.9l0.1-0.7l0.3-0.5l0.4-0.3l0.6-0.1l0.5,0.1l0.3,0.3l0.1,0.4
		l0,0.6v3.2h0.8v-3.4l0-0.7l-0.2-0.6l-0.6-0.5l-0.9-0.2l-0.5,0.1l-0.4,0.2l-0.3,0.3l-0.3,0.4v-2.5h-0.8V-601.1L-860.7-601.1z
		 M-853.8-605.4v2.6l0.1,0.8l0.3,0.6l0.5,0.3l0.9,0.1l1,0v-0.7l-0.7,0.1l-0.7-0.1l-0.4-0.2l-0.2-0.4l0-0.6v-2.4h1.9v-0.7h-1.9v-1.5
		h-0.8v1.5h-1.4v0.7H-853.8L-853.8-605.4z M-850.1-599.6v0.7h5.7v-0.7H-850.1L-850.1-599.6z M-843.8-603.7l0.1,1.2l0.4,0.8l0.7,0.5
		l1,0.2l1-0.2l0.7-0.5l0.4-0.8l0.1-1.2v-4.1h-0.9v4.1l-0.1,0.8l-0.3,0.6l-0.4,0.3l-0.6,0.1l-0.6-0.1l-0.4-0.3l-0.3-0.6l-0.1-0.8
		v-4.1h-0.9V-603.7L-843.8-603.7z M-837-605.5v-0.8h-0.8v7.1h0.8v-2.8l0.3,0.4l0.3,0.3l0.8,0.2l0.8-0.2l0.6-0.5l0.4-0.9l0.2-1.2
		l-0.2-1.2l-0.4-0.9l-0.6-0.5l-0.8-0.2l-0.5,0.1l-0.4,0.2l-0.3,0.3L-837-605.5L-837-605.5z M-835.7-601.7l-0.6-0.1l-0.4-0.4
		l-0.3-0.6l-0.1-0.9l0.1-0.9l0.3-0.6l0.4-0.4l0.6-0.1l0.5,0.1l0.4,0.4l0.3,0.6l0.1,0.8l-0.1,0.9l-0.3,0.6l-0.4,0.4L-835.7-601.7
		L-835.7-601.7z M-831.3-605.5v-0.8h-0.8v7.1h0.8v-2.8l0.3,0.4l0.3,0.3l0.8,0.2l0.8-0.2l0.6-0.5l0.4-0.9l0.2-1.2l-0.2-1.2l-0.4-0.9
		l-0.6-0.5l-0.8-0.2l-0.5,0.1l-0.4,0.2l-0.3,0.3L-831.3-605.5L-831.3-605.5z M-829.9-601.7l-0.6-0.1l-0.4-0.4l-0.3-0.6l-0.1-0.9
		l0.1-0.9l0.3-0.6l0.4-0.4l0.6-0.1l0.5,0.1l0.4,0.4l0.3,0.6l0.1,0.8l-0.1,0.9l-0.3,0.6l-0.4,0.4L-829.9-601.7L-829.9-601.7z
		 M-825.6-603.5h3.3l0-0.4l-0.2-1.1l-0.4-0.8l-0.7-0.5l-0.9-0.2l-0.9,0.2l-0.7,0.5l-0.4,0.9l-0.2,1.1l0.1,1.2l0.4,0.9l0.7,0.5
		l0.9,0.2l0.7-0.1l0.6-0.3l0.4-0.5l0.3-0.7h-0.8l-0.2,0.4l-0.2,0.3l-0.7,0.2l-0.5-0.1l-0.4-0.3l-0.3-0.5L-825.6-603.5L-825.6-603.5
		L-825.6-603.5z M-825.6-604.2l0.1-0.7l0.3-0.5l0.4-0.3l0.5-0.1l0.5,0.1l0.4,0.3l0.2,0.5l0.1,0.7H-825.6L-825.6-604.2z
		 M-820.3-601.1h0.8v-2.9l0.1-0.7l0.3-0.5l0.4-0.3l0.6-0.1l0.4,0.1l0.3,0.2l0.2,0.3l0.1,0.4h0.8l-0.1-0.8l-0.3-0.6l-0.5-0.3
		l-0.7-0.1l-0.5,0.1l-0.4,0.2l-0.4,0.3l-0.3,0.4v-0.8h-0.8V-601.1L-820.3-601.1z M-810.1-601.1h0.9l0.7-1.9h2.6l0.7,1.9h0.9
		l-2.4-6.6h-1L-810.1-601.1L-810.1-601.1z M-808.2-603.9l1-2.9l1,2.9H-808.2L-808.2-603.9z M-802.6-603.3h2.3v-0.8h-2.3V-603.3
		L-802.6-603.3z M-798.6-601.1h0.9l0.7-1.9h2.6l0.7,1.9h0.9l-2.4-6.6h-1L-798.6-601.1L-798.6-601.1z M-796.7-603.9l1-2.9l1,2.9
		H-796.7L-796.7-603.9z M-791.7-601.1h0.8v-2.9l0.1-0.7l0.3-0.5l0.4-0.3l0.6-0.1l0.4,0.1l0.3,0.2l0.2,0.3l0.1,0.4h0.8l-0.1-0.8
		l-0.3-0.6l-0.5-0.3l-0.7-0.1l-0.5,0.1l-0.4,0.2l-0.4,0.3l-0.3,0.4v-0.8h-0.8V-601.1L-791.7-601.1z M-786.6-601.1h0.8v-3.4l0-0.5
		l0.1-0.4l0.2-0.2l0.3-0.1l0.2,0.1l0.2,0.2l0.1,0.3l0,0.4v3.6h0.7v-3.4l0-0.5l0.1-0.4l0.2-0.2l0.3-0.1l0.2,0.1l0.2,0.2l0.1,0.8v3.6
		h0.8v-3.5l0-0.7l-0.2-0.6l-0.3-0.3l-0.5-0.1l-0.6,0.2l-0.4,0.6l-0.4-0.5l-0.6-0.2l-0.5,0.2l-0.4,0.5v-0.5h-0.7V-601.1L-786.6-601.1
		z"/>
</g>
<g>
	<path d="M-877.9-589.7h4.2v-0.8h-3.3v-2.2h2.9v-0.8h-2.9v-2h3.2v-0.8h-4.1V-589.7L-877.9-589.7z M-873-588.2v0.7h5.7v-0.7H-873
		L-873-588.2z M-864.9-589.7h0.9v-5.8h2v-0.8h-4.9v0.8h2V-589.7L-864.9-589.7z M-856.7-594.8h-0.8v2.9l-0.1,0.7l-0.3,0.5l-0.4,0.3
		l-0.6,0.1l-0.4-0.1l-0.3-0.2l-0.2-0.4l0-0.6v-3.3h-0.8v3.4l0,0.7l0.2,0.6l0.6,0.5l0.9,0.2l0.5-0.1l0.4-0.2l0.4-0.3l0.3-0.4v0.8h0.8
		V-594.8L-856.7-594.8z M-854.2-590.5l0.6,0.7l0.8,0.2l0.8-0.2l0.6-0.5l0.4-0.9l0.2-1.2l-0.2-1.2l-0.4-0.9l-0.6-0.5l-0.8-0.2
		l-0.8,0.2l-0.3,0.3l-0.3,0.4v-2.5h-0.8v6.8h0.8V-590.5L-854.2-590.5z M-851.6-592.3l-0.1,0.9l-0.3,0.6l-0.4,0.4l-0.5,0.1l-0.6-0.1
		l-0.4-0.4l-0.3-0.6l-0.1-0.9l0.1-0.9l0.3-0.6l0.4-0.4l0.6-0.1l0.5,0.1l0.4,0.4l0.3,0.6L-851.6-592.3L-851.6-592.3z M-848.5-592.1
		h3.3l0-0.4l-0.2-1.1l-0.4-0.8l-0.7-0.5l-0.9-0.2l-0.9,0.2l-0.7,0.5l-0.4,0.9l-0.2,1.1l0.1,1.2l0.4,0.9l0.7,0.5l0.9,0.2l0.7-0.1
		l0.6-0.3l0.4-0.5l0.3-0.7h-0.8l-0.2,0.4l-0.2,0.3l-0.7,0.2l-0.5-0.1l-0.4-0.3l-0.3-0.5L-848.5-592.1L-848.5-592.1L-848.5-592.1z
		 M-848.5-592.8l0.1-0.7l0.3-0.5l0.4-0.3l0.5-0.1l0.5,0.1l0.4,0.3l0.2,0.5l0.1,0.7H-848.5L-848.5-592.8z M-844.4-588.2v0.7h5.7v-0.7
		H-844.4L-844.4-588.2z M-838.7-589.7h0.9l0.7-1.9h2.6l0.7,1.9h0.9l-2.4-6.6h-1L-838.7-589.7L-838.7-589.7z M-836.8-592.5l1-2.9
		l1,2.9H-836.8L-836.8-592.5z M-830.5-589.7h0.9l1.9-5.1h-0.9l-1.4,4.1l-1.5-4.1h-0.9L-830.5-589.7L-830.5-589.7z M-823.3-590.4
		L-823.3-590.4l0,0.4l0.1,0.2l0.6,0.2l0.5-0.1v-0.6l-0.2,0l-0.3-0.1l0-0.4v-2.6l-0.1-0.7l-0.3-0.5l-0.6-0.3l-0.8-0.1l-0.8,0.1
		l-0.6,0.3l-0.4,0.5l-0.1,0.7v0.1h0.8l0.1-0.4l0.2-0.3l0.3-0.2l0.5-0.1l0.5,0l0.3,0.1l0.2,0.2l0.1,0.3l0,0.4l-0.2,0.2l-0.4,0.1
		l-0.7,0.1l-0.8,0.2l-0.6,0.3l-0.3,0.5l-0.1,0.7l0.1,0.6l0.3,0.5l0.5,0.3l0.7,0.1l0.9-0.2L-823.3-590.4L-823.3-590.4z M-823.4-591.5
		l-0.1,0.5l-0.3,0.4l-0.5,0.2l-0.6,0.1l-0.4,0l-0.3-0.2l-0.2-0.3l0-0.4l0-0.3l0.2-0.2l0.6-0.3l0.8-0.1l0.7-0.2V-591.5L-823.4-591.5z
		 M-820.6-589.7h0.8v-2.9l0.1-0.7l0.3-0.5l0.4-0.3l0.6-0.1l0.5,0.1l0.3,0.3l0.1,0.4l0,0.6v3.2h0.8v-3.4l0-0.7l-0.2-0.6l-0.6-0.5
		l-0.9-0.2l-0.5,0.1l-0.4,0.2l-0.4,0.3l-0.3,0.4v-0.8h-0.8V-589.7L-820.6-589.7z M-813.8-594v2.6l0.1,0.8l0.3,0.6l0.5,0.3l0.9,0.1
		l1,0v-0.7l-0.7,0.1l-0.7-0.1l-0.4-0.2l-0.2-0.4l0-0.6v-2.4h1.9v-0.7h-1.9v-1.5h-0.8v1.5h-1.4v0.7H-813.8L-813.8-594z"/>
</g>
<g>
	<path d="M-557.4-628h0.9v-2.8h0.9l0.7,0l0.4,0.1l0.2,0.3l0.1,0.6l0,0.9l0.1,0.6l0.1,0.3h1v-0.2l-0.2-0.3l-0.1-0.5l-0.1-1.1
		l-0.2-0.8l-0.2-0.2l-0.3-0.2l0.4-0.2l0.3-0.3l0.2-0.4l0.1-0.5l-0.1-0.8l-0.4-0.6l-0.6-0.4l-0.9-0.1h-2.2V-628L-557.4-628z
		 M-555.5-633.8l0.6,0.1l0.4,0.2l0.3,0.3l0.1,0.5l-0.1,0.6l-0.3,0.3l-0.4,0.2l-0.6,0h-1v-2.2H-555.5L-555.5-633.8z M-550.8-630.4
		h3.3l0-0.4l-0.2-1.1l-0.4-0.8l-0.7-0.5l-0.9-0.2l-0.9,0.2l-0.7,0.5l-0.4,0.9l-0.2,1.1l0.1,1.2l0.4,0.9l0.7,0.5l0.9,0.2l0.7-0.1
		l0.6-0.3l0.4-0.5l0.3-0.7h-0.8l-0.2,0.4l-0.2,0.3l-0.7,0.2l-0.5-0.1l-0.4-0.3l-0.3-0.5L-550.8-630.4L-550.8-630.4L-550.8-630.4z
		 M-550.8-631.1l0.1-0.7l0.3-0.5l0.4-0.3l0.5-0.1l0.5,0.1l0.4,0.3l0.2,0.5l0.1,0.7H-550.8L-550.8-631.1z M-542.8-628.7L-542.8-628.7
		l0,0.4l0.1,0.2l0.6,0.2l0.5-0.1v-0.6l-0.2,0l-0.3-0.1l0-0.4v-2.6l-0.1-0.7l-0.3-0.5l-0.6-0.3l-0.8-0.1l-0.8,0.1l-0.6,0.3l-0.4,0.5
		l-0.1,0.7v0.1h0.7l0.1-0.4l0.2-0.3l0.3-0.2l0.5-0.1l0.5,0l0.3,0.1l0.2,0.2l0.1,0.3l0,0.4l-0.2,0.2l-0.4,0.1l-0.7,0.1l-0.8,0.2
		l-0.6,0.3l-0.3,0.5l-0.1,0.7l0.1,0.6l0.3,0.5l0.5,0.3l0.7,0.1l0.9-0.2L-542.8-628.7L-542.8-628.7z M-542.9-629.8l-0.1,0.5l-0.3,0.4
		l-0.5,0.2l-0.6,0.1l-0.4,0l-0.3-0.2l-0.2-0.3l0-0.4l0-0.3l0.2-0.2l0.6-0.3l0.8-0.1l0.7-0.2V-629.8L-542.9-629.8z M-539.8-628h0.8
		v-2.9l0.1-0.7l0.3-0.5l0.4-0.3l0.6-0.1l0.4,0.1l0.3,0.2l0.2,0.3l0.1,0.4h0.8l-0.1-0.8l-0.3-0.6l-0.5-0.3l-0.7-0.1l-0.5,0.1
		l-0.4,0.2l-0.4,0.3l-0.3,0.4v-0.8h-0.8V-628L-539.8-628z M-535.3-626.5v0.7h5.7v-0.7H-535.3L-535.3-626.5z M-528.8-628h0.9v-2.8
		h0.9l0.7,0l0.4,0.1l0.2,0.3l0.1,0.6l0,0.9l0.1,0.6l0.1,0.3h1v-0.2l-0.2-0.3l-0.1-0.5l-0.1-1.1l-0.2-0.8l-0.2-0.2l-0.3-0.2l0.4-0.2
		l0.3-0.3l0.2-0.4l0.1-0.5l-0.1-0.8l-0.4-0.6l-0.6-0.4l-0.9-0.1h-2.2V-628L-528.8-628z M-526.8-633.8l0.6,0.1l0.4,0.2l0.3,0.3
		l0.1,0.5l-0.1,0.6l-0.3,0.3l-0.4,0.2l-0.6,0h-1v-2.2H-526.8L-526.8-633.8z M-520.4-628.7v-4.2h-2.1v0.7h1.3v3.5h-1.7v0.7h4.3v-0.7
		H-520.4L-520.4-628.7z M-520.3-634.9h-0.9v1h0.9V-634.9L-520.3-634.9z M-513.2-628.3v-4.9h-0.8v0.8l-0.7-0.8l-0.4-0.2l-0.4-0.1
		l-0.8,0.2l-0.6,0.5l-0.4,0.9l-0.1,1.2l0.1,1.2l0.4,0.9l0.6,0.5l0.8,0.2l0.5-0.1l0.4-0.2l0.7-0.7v0.7l-0.1,0.6l-0.2,0.4l-0.4,0.2
		l-0.6,0.1l-0.5-0.1l-0.4-0.1l-0.2-0.2l-0.1-0.3h-0.8v0l0.1,0.6l0.4,0.5l0.6,0.3l0.8,0.1l1-0.1l0.7-0.4l0.4-0.7L-513.2-628.3
		L-513.2-628.3z M-516.6-630.6l0.1-0.8l0.3-0.6l0.4-0.4l0.5-0.1l0.6,0.1l0.4,0.4l0.3,0.6l0.1,0.8l-0.1,0.9l-0.3,0.6l-0.4,0.4
		l-0.6,0.1l-0.5-0.1l-0.4-0.4l-0.3-0.6L-516.6-630.6L-516.6-630.6z M-511.5-628h0.8v-2.9l0.1-0.7l0.3-0.5l0.4-0.3l0.6-0.1l0.5,0.1
		l0.3,0.3l0.1,0.4l0,0.6v3.2h0.8v-3.4l0-0.7l-0.2-0.6l-0.6-0.5l-0.9-0.2l-0.5,0.1l-0.4,0.2l-0.3,0.3l-0.3,0.4v-2.5h-0.8V-628
		L-511.5-628z M-504.6-632.3v2.6l0.1,0.8l0.3,0.6l0.5,0.3l0.9,0.1l1,0v-0.7l-0.7,0.1l-0.7-0.1l-0.4-0.2l-0.2-0.4l0-0.6v-2.4h1.9
		v-0.7h-1.9v-1.5h-0.8v1.5h-1.4v0.7H-504.6L-504.6-632.3z M-500.9-626.5v0.7h5.7v-0.7H-500.9L-500.9-626.5z M-494.6-630.6l0.1,1.2
		l0.4,0.8l0.7,0.5l1,0.2l1-0.2l0.7-0.5l0.4-0.8l0.1-1.2v-4.1h-0.9v4.1l-0.1,0.8l-0.3,0.6l-0.4,0.3l-0.6,0.1l-0.6-0.1l-0.4-0.3
		l-0.3-0.6l-0.1-0.8v-4.1h-0.9V-630.6L-494.6-630.6z M-487.8-632.4v-0.8h-0.8v7.1h0.8v-2.8l0.3,0.4l0.3,0.3l0.8,0.2l0.8-0.2l0.6-0.5
		l0.4-0.9l0.2-1.2l-0.2-1.2l-0.4-0.9l-0.6-0.5l-0.8-0.2l-0.5,0.1l-0.4,0.2l-0.3,0.3L-487.8-632.4L-487.8-632.4z M-486.5-628.6
		l-0.6-0.1l-0.4-0.4l-0.3-0.6l-0.1-0.9l0.1-0.9l0.3-0.6l0.4-0.4l0.6-0.1l0.5,0.1l0.4,0.4l0.3,0.6l0.1,0.8l-0.1,0.9l-0.3,0.6
		l-0.4,0.4L-486.5-628.6L-486.5-628.6z M-482.1-632.4v-0.8h-0.8v7.1h0.8v-2.8l0.3,0.4l0.3,0.3l0.8,0.2l0.8-0.2l0.6-0.5l0.4-0.9
		l0.2-1.2l-0.2-1.2l-0.4-0.9l-0.6-0.5l-0.8-0.2l-0.5,0.1l-0.4,0.2l-0.3,0.3L-482.1-632.4L-482.1-632.4z M-480.7-628.6l-0.6-0.1
		l-0.4-0.4l-0.3-0.6l-0.1-0.9l0.1-0.9l0.3-0.6l0.4-0.4l0.6-0.1l0.5,0.1l0.4,0.4l0.3,0.6l0.1,0.8l-0.1,0.9l-0.3,0.6l-0.4,0.4
		L-480.7-628.6L-480.7-628.6z M-476.4-630.4h3.3l0-0.4l-0.2-1.1l-0.4-0.8l-0.7-0.5l-0.9-0.2l-0.9,0.2l-0.7,0.5l-0.4,0.9l-0.2,1.1
		l0.1,1.2l0.4,0.9l0.7,0.5l0.9,0.2l0.7-0.1l0.6-0.3l0.4-0.5l0.3-0.7h-0.8l-0.2,0.4l-0.2,0.3l-0.7,0.2l-0.5-0.1l-0.4-0.3l-0.3-0.5
		L-476.4-630.4L-476.4-630.4L-476.4-630.4z M-476.4-631.1l0.1-0.7l0.3-0.5l0.4-0.3l0.5-0.1l0.5,0.1l0.4,0.3l0.2,0.5l0.1,0.7H-476.4
		L-476.4-631.1z M-471.1-628h0.8v-2.9l0.1-0.7l0.3-0.5l0.4-0.3l0.6-0.1l0.4,0.1l0.3,0.2l0.2,0.3l0.1,0.4h0.8l-0.1-0.8l-0.3-0.6
		l-0.5-0.3l-0.7-0.1l-0.5,0.1l-0.4,0.2l-0.4,0.3l-0.3,0.4v-0.8h-0.8V-628L-471.1-628z M-460.9-628h0.9l0.7-1.9h2.6l0.7,1.9h0.9
		l-2.4-6.6h-1L-460.9-628L-460.9-628z M-459-630.8l1-2.9l1,2.9H-459L-459-630.8z M-453.4-630.2h2.3v-0.8h-2.3V-630.2L-453.4-630.2z
		 M-449.4-628h0.9l0.7-1.9h2.6l0.7,1.9h0.9l-2.4-6.6h-1L-449.4-628L-449.4-628z M-447.5-630.8l1-2.9l1,2.9H-447.5L-447.5-630.8z
		 M-442.4-628h0.8v-2.9l0.1-0.7l0.3-0.5l0.4-0.3l0.6-0.1l0.4,0.1l0.3,0.2l0.2,0.3l0.1,0.4h0.8l-0.1-0.8l-0.3-0.6l-0.5-0.3l-0.7-0.1
		l-0.5,0.1l-0.4,0.2l-0.4,0.3l-0.3,0.4v-0.8h-0.8V-628L-442.4-628z M-437.4-628h0.8v-3.4l0-0.5l0.1-0.4l0.2-0.2l0.3-0.1l0.2,0.1
		l0.2,0.2l0.1,0.3l0,0.4v3.6h0.7v-3.4l0-0.5l0.1-0.4l0.2-0.2l0.3-0.1l0.2,0.1l0.2,0.2l0.1,0.8v3.6h0.8v-3.5l0-0.7l-0.2-0.6l-0.3-0.3
		l-0.5-0.1l-0.6,0.2l-0.4,0.6l-0.4-0.5l-0.6-0.2l-0.5,0.2l-0.4,0.5v-0.5h-0.7V-628L-437.4-628z"/>
</g>
<g>
	<path d="M-523-616.6h4.2v-0.8h-3.3v-2.2h3v-0.8h-3v-2h3.2v-0.8h-4.1V-616.6L-523-616.6z M-518.1-615.1v0.7h5.7v-0.7H-518.1
		L-518.1-615.1z M-509.9-616.6h0.9v-5.8h2v-0.8h-4.9v0.8h2V-616.6L-509.9-616.6z M-501.8-621.7h-0.8v2.9l-0.1,0.7l-0.3,0.5l-0.4,0.3
		l-0.6,0.1l-0.4-0.1l-0.3-0.2l-0.2-0.4l0-0.6v-3.3h-0.8v3.4l0,0.7l0.2,0.6l0.6,0.5l0.9,0.2l0.5-0.1l0.4-0.2l0.4-0.3l0.3-0.4v0.8h0.8
		V-621.7L-501.8-621.7z M-499.2-617.4l0.6,0.7l0.8,0.2l0.8-0.2l0.6-0.5l0.4-0.9l0.2-1.2l-0.2-1.2l-0.4-0.9l-0.6-0.5l-0.8-0.2
		l-0.8,0.2l-0.3,0.3l-0.3,0.4v-2.5h-0.8v6.8h0.8V-617.4L-499.2-617.4z M-496.6-619.2l-0.1,0.9l-0.3,0.6l-0.4,0.4l-0.5,0.1l-0.6-0.1
		l-0.4-0.4l-0.3-0.6l-0.1-0.9l0.1-0.9l0.3-0.6l0.4-0.4l0.6-0.1l0.5,0.1l0.4,0.4l0.3,0.6L-496.6-619.2L-496.6-619.2z M-493.6-619h3.3
		l0-0.4l-0.2-1.1l-0.4-0.8l-0.7-0.5l-0.9-0.2l-0.9,0.2l-0.7,0.5l-0.4,0.9l-0.2,1.1l0.1,1.2l0.4,0.9l0.7,0.5l0.9,0.2l0.7-0.1l0.6-0.3
		l0.4-0.5l0.3-0.7h-0.8l-0.2,0.4l-0.2,0.3l-0.7,0.2l-0.5-0.1l-0.4-0.3l-0.3-0.5L-493.6-619L-493.6-619L-493.6-619z M-493.6-619.7
		l0.1-0.7l0.3-0.5l0.4-0.3l0.5-0.1l0.5,0.1l0.4,0.3l0.2,0.5l0.1,0.7H-493.6L-493.6-619.7z M-489.5-615.1v0.7h5.7v-0.7H-489.5
		L-489.5-615.1z M-483.8-616.6h0.9l0.7-1.9h2.6l0.7,1.9h0.9l-2.4-6.6h-1L-483.8-616.6L-483.8-616.6z M-481.9-619.4l1-2.9l1,2.9
		H-481.9L-481.9-619.4z M-476.8-616.6h0.8v-2.9l0.1-0.7l0.3-0.5l0.4-0.3l0.6-0.1l0.4,0.1l0.3,0.2l0.2,0.3l0.1,0.4h0.8l-0.1-0.8
		l-0.3-0.6l-0.5-0.3l-0.7-0.1l-0.5,0.1l-0.4,0.2l-0.4,0.3l-0.3,0.4v-0.8h-0.8V-616.6L-476.8-616.6z M-471.1-616.6h0.8v-2.9l0.1-0.7
		l0.3-0.5l0.4-0.3l0.6-0.1l0.4,0.1l0.3,0.2l0.2,0.3l0.1,0.4h0.8l-0.1-0.8l-0.3-0.6l-0.5-0.3l-0.7-0.1l-0.5,0.1l-0.4,0.2l-0.4,0.3
		l-0.3,0.4v-0.8h-0.8V-616.6L-471.1-616.6z"/>
</g>
<g>
	<path d="M-328.8-142.4h1.9v-6.1h2l1.4,0.1l0.9,0.3l0.5,0.7l0.2,1.2l0.1,1.9l0.1,1.2l0.2,0.7h2.2v-0.4l-0.5-0.6l-0.2-1.1l-0.1-2.3
		l-0.4-1.7l-0.5-0.5l-0.7-0.4l0.8-0.5l0.6-0.7l0.4-0.9l0.1-1.1l-0.3-1.7l-0.8-1.3l-1.4-0.8l-1.9-0.3h-4.8V-142.4L-328.8-142.4z
		 M-324.5-155l1.3,0.1l0.9,0.4l0.6,0.7l0.2,1.1l-0.2,1.2l-0.6,0.7l-1,0.4l-1.3,0.1h-2.2v-4.8H-324.5L-324.5-155z M-314.4-147.4h7.3
		l0-0.8l-0.3-2.4l-0.9-1.8l-1.4-1.1l-1.9-0.4l-1.9,0.4l-1.4,1.2l-0.9,1.9l-0.3,2.5l0.3,2.5l0.9,1.9l1.4,1.2l1.9,0.4l1.6-0.3l1.3-0.7
		l1-1.1l0.6-1.5h-1.8l-0.4,0.8l-0.5,0.6l-1.5,0.5l-1.2-0.2l-0.9-0.7l-0.6-1.2L-314.4-147.4L-314.4-147.4L-314.4-147.4z
		 M-314.4-148.9l0.2-1.4l0.6-1.1l0.8-0.6l1.1-0.2l1.1,0.2l0.8,0.6l0.5,1.1l0.2,1.4H-314.4L-314.4-148.9z M-297-143.8L-297-143.8
		l0.1,0.8l0.3,0.5l1.3,0.4l1-0.2v-1.4l-0.4,0.1l-0.6-0.3l-0.1-0.8v-5.7l-0.2-1.5l-0.7-1l-1.3-0.6l-1.8-0.2l-1.7,0.2l-1.3,0.7
		l-0.8,1.1l-0.3,1.4v0.1h1.6l0.1-0.9l0.5-0.6l0.7-0.4l1.1-0.1l1,0.1l0.7,0.3l0.4,0.5l0.1,0.7l-0.1,0.9l-0.3,0.4l-0.8,0.2l-1.6,0.2
		l-1.8,0.4l-1.3,0.7l-0.7,1l-0.2,1.5l0.2,1.4l0.6,1l1,0.6l1.4,0.2l1.9-0.4L-297-143.8L-297-143.8z M-297.2-146.3l-0.2,1.1l-0.7,0.8
		l-1,0.5l-1.2,0.2l-0.8-0.1l-0.6-0.3l-0.4-0.6l-0.1-0.8l0.1-0.7l0.3-0.5l1.3-0.6l1.7-0.2l1.5-0.5V-146.3L-297.2-146.3z
		 M-290.4-142.4h1.8v-6.3l0.2-1.5l0.6-1.1l0.9-0.7l1.2-0.2l0.9,0.1l0.7,0.4l0.4,0.7l0.1,0.9h1.8l-0.2-1.7l-0.7-1.2l-1.1-0.7
		l-1.5-0.2l-1.1,0.2l-0.9,0.4l-0.8,0.7l-0.6,0.9v-1.8h-1.7V-142.4L-290.4-142.4z M-280.6-138.9v1.4h12.4v-1.4H-280.6L-280.6-138.9z
		 M-266.5-142.4h1.9v-6.1h2l1.4,0.1l0.9,0.3l0.5,0.7l0.2,1.2l0.1,1.9l0.1,1.2l0.2,0.7h2.2v-0.4l-0.5-0.6l-0.2-1.1l-0.1-2.3l-0.4-1.7
		l-0.5-0.5l-0.7-0.4l0.8-0.5l0.6-0.7l0.4-0.9l0.1-1.1l-0.3-1.7l-0.8-1.3l-1.4-0.8l-1.9-0.3h-4.8V-142.4L-266.5-142.4z M-262.3-155
		l1.3,0.1l0.9,0.4l0.6,0.7l0.2,1.1l-0.2,1.2l-0.6,0.7l-1,0.4l-1.3,0.1h-2.2v-4.8H-262.3L-262.3-155z M-248.2-143.9v-9.2h-4.7v1.5
		h2.9v7.7h-3.7v1.5h9.3v-1.5H-248.2L-248.2-143.9z M-248.1-157.2h-1.9v2.1h1.9V-157.2L-248.1-157.2z M-232.7-142.9v-10.6h-1.7v1.8
		l-1.4-1.6l-0.9-0.4l-1-0.1l-1.8,0.4l-1.4,1.2l-0.9,1.9l-0.3,2.5l0.3,2.5l0.9,1.9l1.4,1.2l1.8,0.4l1-0.1l0.8-0.4l1.4-1.6v1.6
		l-0.2,1.2l-0.5,0.9l-0.9,0.5l-1.3,0.2l-1.1-0.1l-0.8-0.3l-0.5-0.5l-0.1-0.7h-1.8v0.1l0.3,1.3l0.8,1l1.3,0.6l1.8,0.2l2.1-0.3
		l1.4-0.9l0.8-1.5L-232.7-142.9L-232.7-142.9z M-240.1-147.9l0.2-1.8l0.6-1.4l0.9-0.8l1.2-0.3l1.2,0.3l0.9,0.8l0.6,1.4l0.2,1.8
		l-0.2,1.9l-0.6,1.3l-0.9,0.8l-1.2,0.3l-1.2-0.3l-0.9-0.8l-0.6-1.4L-240.1-147.9L-240.1-147.9z M-228.9-142.4h1.8v-6.4l0.2-1.5
		l0.6-1.1l0.9-0.7l1.2-0.2l1,0.2l0.6,0.6l0.3,0.9l0.1,1.2v6.9h1.8v-7.3l-0.1-1.5l-0.4-1.2l-1.2-1.1l-1.9-0.4l-1,0.1l-0.9,0.4
		l-0.7,0.6l-0.6,0.8v-5.4h-1.8V-142.4L-228.9-142.4z M-214-151.5v5.6l0.1,1.8l0.6,1.2l1.2,0.7l2,0.2l2.2-0.1v-1.6l-1.6,0.1l-1.4-0.2
		l-0.8-0.5l-0.3-0.9l-0.1-1.2v-5.3h4.2v-1.5h-4.2v-3.2h-1.8v3.2h-3.1v1.5H-214L-214-151.5z M-205.9-138.9v1.4h12.4v-1.4H-205.9
		L-205.9-138.9z M-192.2-147.8l0.3,2.6l0.9,1.8l1.5,1.1l2.2,0.4l2.2-0.4l1.5-1.1l0.9-1.8l0.3-2.6v-8.9h-1.9v9l-0.2,1.8l-0.6,1.3
		l-1,0.7l-1.3,0.2l-1.4-0.2l-1-0.7l-0.6-1.2l-0.2-1.8v-9h-1.9V-147.8L-192.2-147.8z M-177.4-151.8v-1.7h-1.8v15.4h1.8v-6l0.6,1
		l0.7,0.6l1.8,0.5l1.7-0.4l1.4-1.2l0.9-1.9l0.3-2.5l-0.3-2.5l-0.9-1.9l-1.4-1.2l-1.7-0.4l-1,0.1l-0.8,0.4l-0.7,0.7L-177.4-151.8
		L-177.4-151.8z M-174.5-143.6l-1.2-0.3l-0.9-0.8l-0.6-1.3l-0.2-1.9l0.2-1.9l0.6-1.3l0.9-0.8l1.2-0.3l1.1,0.3l0.9,0.8l0.6,1.3
		l0.2,1.8l-0.2,1.9l-0.6,1.4l-0.9,0.8L-174.5-143.6L-174.5-143.6z M-164.9-151.8v-1.7h-1.8v15.4h1.8v-6l0.6,1l0.7,0.6l1.8,0.5
		l1.7-0.4l1.4-1.2l0.9-1.9l0.3-2.5l-0.3-2.5l-0.9-1.9l-1.4-1.2l-1.7-0.4l-1,0.1l-0.8,0.4l-0.7,0.7L-164.9-151.8L-164.9-151.8z
		 M-162-143.6l-1.2-0.3l-0.9-0.8l-0.6-1.3l-0.2-1.9l0.2-1.9l0.6-1.3l0.9-0.8l1.2-0.3l1.1,0.3l0.9,0.8l0.6,1.3l0.2,1.8l-0.2,1.9
		l-0.6,1.4l-0.9,0.8L-162-143.6L-162-143.6z M-152.6-147.4h7.3l0-0.8l-0.3-2.4l-0.9-1.8l-1.4-1.1l-1.9-0.4l-1.9,0.4l-1.4,1.2
		l-0.9,1.9l-0.3,2.5l0.3,2.5l0.9,1.9l1.4,1.2l1.9,0.4l1.6-0.3l1.3-0.7l1-1.1l0.6-1.5h-1.8l-0.4,0.8l-0.5,0.6l-1.5,0.5l-1.2-0.2
		l-0.9-0.7l-0.6-1.2L-152.6-147.4L-152.6-147.4L-152.6-147.4z M-152.6-148.9l0.2-1.4l0.6-1.1l0.8-0.6l1.1-0.2l1.1,0.2l0.8,0.6
		l0.5,1.1l0.2,1.4H-152.6L-152.6-148.9z M-141-142.4h1.8v-6.3l0.2-1.5l0.6-1.1l0.9-0.7l1.2-0.2l0.9,0.1l0.7,0.4l0.4,0.7l0.1,0.9h1.8
		l-0.2-1.7l-0.7-1.2l-1.1-0.7l-1.6-0.2l-1.1,0.2l-0.9,0.4l-0.8,0.7l-0.6,0.9v-1.8h-1.7V-142.4L-141-142.4z M-118.8-142.4h1.9
		l1.5-4.2h5.7l1.5,4.2h1.9l-5.3-14.4h-2.1L-118.8-142.4L-118.8-142.4z M-114.8-148.3l2.2-6.3l2.2,6.3H-114.8L-114.8-148.3z
		 M-102.6-147.1h5v-1.6h-5V-147.1L-102.6-147.1z M-93.9-142.4h1.9l1.5-4.2h5.7l1.5,4.2h1.9l-5.3-14.4h-2.1L-93.9-142.4L-93.9-142.4z
		 M-89.9-148.3l2.2-6.3l2.2,6.3H-89.9L-89.9-148.3z M-78.8-142.4h1.8v-6.3l0.2-1.5l0.6-1.1l0.9-0.7l1.2-0.2l0.9,0.1l0.7,0.4l0.4,0.7
		l0.1,0.9h1.8l-0.2-1.7l-0.7-1.2l-1.1-0.7l-1.6-0.2l-1.1,0.2l-0.9,0.4l-0.8,0.7l-0.6,0.9v-1.8h-1.7V-142.4L-78.8-142.4z
		 M-67.8-142.4h1.7v-7.4l0.1-1.1l0.3-0.8l0.5-0.5l0.6-0.2l0.5,0.2l0.3,0.4l0.2,0.7l0.1,0.9v7.8h1.6v-7.4l0.1-1.1l0.3-0.8l0.5-0.5
		l0.6-0.2l0.5,0.2l0.3,0.4l0.2,1.6v7.8h1.7v-7.7l-0.1-1.6l-0.3-1.2l-0.7-0.7l-1.1-0.3l-1.3,0.4l-1,1.2l-0.8-1.2l-1.3-0.4l-1.2,0.4
		l-0.8,1.2v-1.2h-1.6V-142.4L-67.8-142.4z"/>
</g>
<g>
	<path d="M-260.1-117.6h1.9v-6.1h2.1l2.1-0.1l1.7-0.7l1.1-1.4l0.4-1.9l-0.3-1.8l-0.8-1.3l-1.4-0.8l-1.9-0.3h-5V-117.6L-260.1-117.6z
		 M-255.6-130.2l1.2,0.1l0.9,0.4l0.5,0.7l0.2,1.1l-0.2,1.2l-0.6,0.7l-0.9,0.4l-1.3,0.1h-2.4v-4.8H-255.6L-255.6-130.2z
		 M-243.9-130.9v11.8h-3.7v1.5h9.3v-1.5h-3.7v-13.3h-4.7v1.5H-243.9L-243.9-130.9z M-228.5-119L-228.5-119l0.1,0.8l0.3,0.5l1.3,0.4
		l1-0.2v-1.4l-0.4,0.1l-0.6-0.3l-0.1-0.8v-5.7l-0.2-1.5l-0.7-1l-1.3-0.6l-1.8-0.2l-1.7,0.2l-1.3,0.7l-0.8,1.1l-0.3,1.4v0.1h1.6
		l0.1-0.9l0.5-0.6l0.7-0.4l1.1-0.1l1,0.1l0.7,0.3l0.4,0.5l0.1,0.7l-0.1,0.9l-0.3,0.4l-0.8,0.2l-1.5,0.2l-1.8,0.4l-1.3,0.7l-0.7,1
		l-0.2,1.5l0.2,1.4l0.6,1l1,0.6l1.4,0.2l1.9-0.4L-228.5-119L-228.5-119z M-228.7-121.5l-0.2,1.1l-0.7,0.8l-1,0.5l-1.2,0.2l-0.8-0.1
		l-0.6-0.3l-0.4-0.6l-0.1-0.8l0.1-0.7l0.3-0.5l1.3-0.6l1.7-0.2l1.5-0.5V-121.5L-228.7-121.5z M-215.8-127l-0.6-0.9l-0.7-0.7
		l-0.8-0.4l-1-0.1l-1.8,0.4l-1.4,1.2l-0.9,1.9l-0.3,2.5l0.3,2.5l0.9,1.9l1.4,1.2l1.8,0.4l1-0.1l0.8-0.4l0.7-0.6l0.7-1v6h1.8v-15.4
		h-1.8V-127L-215.8-127z M-221.5-123.1l0.2-1.8l0.6-1.3l0.9-0.8l1.1-0.3l1.2,0.3l0.9,0.8l0.5,1.3l0.2,1.9l-0.2,1.9l-0.5,1.3
		l-0.9,0.8l-1.2,0.3l-1.1-0.3l-0.9-0.8l-0.6-1.4L-221.5-123.1L-221.5-123.1z M-201.6-128.7h-1.8v6.4l-0.2,1.5l-0.6,1.1l-0.9,0.7
		l-1.2,0.2l-1-0.2l-0.6-0.5l-0.4-0.8l-0.1-1.2v-7.1h-1.8v7.3l0.1,1.5l0.4,1.2l1.2,1.1l1.9,0.4l1-0.1l0.9-0.4l0.8-0.6l0.6-0.9v1.7
		h1.7V-128.7L-201.6-128.7z M-196.2-122.6h7.3l0-0.8l-0.3-2.4l-0.9-1.8l-1.4-1.1l-1.9-0.4l-1.9,0.4l-1.4,1.2l-0.9,1.9l-0.3,2.5
		l0.3,2.5l0.9,1.9l1.4,1.2l1.9,0.4l1.6-0.3l1.3-0.7l1-1.1l0.6-1.5h-1.8l-0.4,0.8l-0.5,0.6l-1.5,0.5l-1.2-0.2l-0.9-0.7l-0.6-1.2
		L-196.2-122.6L-196.2-122.6L-196.2-122.6z M-196.2-124.1l0.2-1.4l0.6-1.1l0.8-0.6l1.1-0.2l1.1,0.2l0.8,0.6l0.5,1.1l0.2,1.4H-196.2
		L-196.2-124.1z M-187.2-114.1v1.4h12.4v-1.4H-187.2L-187.2-114.1z M-169.5-117.6h1.9v-12.6h4.3v-1.7h-10.6v1.7h4.4V-117.6
		L-169.5-117.6z M-151.8-128.7h-1.8v6.4l-0.2,1.5l-0.6,1.1l-0.9,0.7l-1.2,0.2l-1-0.2l-0.6-0.5l-0.4-0.8l-0.1-1.2v-7.1h-1.8v7.3
		l0.1,1.5l0.4,1.2l1.2,1.1l1.9,0.4l1-0.1l0.9-0.4l0.8-0.6l0.6-0.9v1.7h1.7V-128.7L-151.8-128.7z M-146.2-119.3l1.3,1.6l1.8,0.5
		l1.7-0.4l1.4-1.2l0.9-1.9l0.3-2.5l-0.3-2.5l-0.9-1.9l-1.4-1.2l-1.7-0.4l-1.8,0.5l-0.7,0.7l-0.6,0.9v-5.4h-1.8v14.8h1.8V-119.3
		L-146.2-119.3z M-140.6-123.1l-0.2,1.9l-0.6,1.4l-0.9,0.8l-1.1,0.3l-1.2-0.3l-0.9-0.8l-0.6-1.3l-0.2-1.9l0.2-1.9l0.6-1.3l0.9-0.8
		l1.2-0.3l1.1,0.3l0.9,0.8l0.6,1.3L-140.6-123.1L-140.6-123.1z M-133.9-122.6h7.3l0-0.8l-0.3-2.4l-0.9-1.8l-1.4-1.1l-1.9-0.4
		l-1.9,0.4l-1.4,1.2l-0.9,1.9l-0.3,2.5l0.3,2.5l0.9,1.9l1.4,1.2l1.9,0.4l1.6-0.3l1.3-0.7l1-1.1l0.6-1.5h-1.8l-0.4,0.8l-0.5,0.6
		l-1.5,0.5l-1.2-0.2l-0.9-0.7l-0.6-1.2L-133.9-122.6L-133.9-122.6L-133.9-122.6z M-133.9-124.1l0.2-1.4l0.6-1.1l0.8-0.6l1.1-0.2
		l1.1,0.2l0.8,0.6l0.5,1.1l0.2,1.4H-133.9L-133.9-124.1z"/>
</g>
<g>
	<path d="M579.1-476h1.2v-3.6h1.2l0.9,0l0.5,0.2l0.3,0.4l0.1,0.7l0.1,1.1l0.1,0.7l0.1,0.4h1.3v-0.2l-0.3-0.3l-0.1-0.6l-0.1-1.4
		l-0.2-1l-0.3-0.3l-0.4-0.2l0.5-0.3l0.3-0.4l0.2-0.5l0.1-0.7l-0.2-1l-0.5-0.8l-0.8-0.5l-1.1-0.2h-2.9V-476L579.1-476z M581.7-483.5
		l0.8,0.1l0.5,0.2l0.3,0.4l0.1,0.7l-0.1,0.7l-0.3,0.4l-0.6,0.2l-0.8,0.1h-1.3v-2.9H581.7L581.7-483.5z M587.7-479h4.4l0-0.5
		l-0.2-1.4l-0.5-1.1l-0.9-0.6l-1.2-0.2l-1.1,0.2l-0.9,0.7l-0.6,1.1l-0.2,1.5l0.2,1.5l0.6,1.1l0.9,0.7l1.1,0.2l1-0.2l0.8-0.4l0.6-0.7
		l0.3-0.9h-1.1l-0.2,0.5l-0.3,0.4l-0.9,0.3l-0.7-0.1l-0.5-0.4l-0.3-0.7L587.7-479L587.7-479L587.7-479z M587.7-479.9l0.1-0.9
		l0.3-0.6l0.5-0.4l0.7-0.1l0.7,0.1l0.5,0.4l0.3,0.6l0.1,0.9H587.7L587.7-479.9z M598.2-476.8L598.2-476.8l0.1,0.5l0.2,0.3l0.8,0.2
		l0.6-0.1v-0.8l-0.3,0l-0.3-0.2l-0.1-0.5v-3.4l-0.1-0.9l-0.4-0.6l-0.8-0.4l-1.1-0.1l-1,0.1l-0.8,0.4l-0.5,0.7l-0.2,0.9v0.1h1
		l0.1-0.5l0.3-0.4l0.4-0.2l0.6-0.1l0.6,0.1l0.4,0.2l0.3,0.3l0.1,0.4l-0.1,0.5l-0.2,0.3l-0.5,0.1l-0.9,0.1l-1.1,0.2l-0.8,0.4
		l-0.4,0.6l-0.1,0.9l0.1,0.8l0.4,0.6l0.6,0.4l0.9,0.1l1.2-0.3L598.2-476.8L598.2-476.8z M598.1-478.3l-0.1,0.6l-0.4,0.5l-0.6,0.3
		l-0.7,0.1l-0.5-0.1l-0.3-0.2l-0.2-0.3l-0.1-0.5l0-0.4l0.2-0.3l0.8-0.3l1-0.1l0.9-0.3V-478.3L598.1-478.3z M602.1-476h1.1v-3.8
		l0.1-0.9l0.3-0.7l0.5-0.4l0.7-0.1l0.5,0.1l0.4,0.2l0.2,0.4l0.1,0.6h1.1l-0.1-1l-0.4-0.7l-0.7-0.4l-0.9-0.1l-0.6,0.1l-0.5,0.2
		l-0.5,0.4l-0.4,0.6v-1.1h-1V-476L602.1-476z M608-473.9v0.9h7.5v-0.9H608L608-473.9z M616.5-476h1.2v-3.6h1.2l0.9,0l0.5,0.2
		l0.3,0.4l0.1,0.7l0.1,1.1l0.1,0.7l0.1,0.4h1.3v-0.2l-0.3-0.3l-0.1-0.6l-0.1-1.4l-0.2-1l-0.3-0.3l-0.4-0.2l0.5-0.3l0.3-0.4l0.2-0.5
		l0.1-0.7l-0.2-1l-0.5-0.8l-0.8-0.5l-1.1-0.2h-2.9V-476L616.5-476z M619-483.5l0.8,0.1l0.5,0.2l0.3,0.4l0.1,0.7l-0.1,0.7l-0.3,0.4
		l-0.6,0.2l-0.8,0.1h-1.3v-2.9H619L619-483.5z M627.5-476.9v-5.5h-2.8v0.9h1.7v4.6h-2.2v0.9h5.6v-0.9H627.5L627.5-476.9z
		 M627.5-484.9h-1.2v1.2h1.2V-484.9L627.5-484.9z M636.8-476.3v-6.4h-1v1.1l-0.9-1l-0.5-0.2l-0.6-0.1l-1.1,0.2l-0.8,0.7l-0.5,1.1
		l-0.2,1.5l0.2,1.5l0.5,1.1l0.8,0.7l1.1,0.2l0.6-0.1l0.5-0.2l0.9-0.9v0.9l-0.1,0.7l-0.3,0.5l-0.5,0.3l-0.8,0.1l-0.7-0.1l-0.5-0.2
		l-0.3-0.3l-0.1-0.4h-1.1v0l0.2,0.8l0.5,0.6l0.8,0.4l1.1,0.1l1.3-0.2l0.9-0.5l0.5-0.9L636.8-476.3L636.8-476.3z M632.3-479.3
		l0.1-1.1l0.3-0.8l0.5-0.5l0.7-0.2l0.7,0.2l0.5,0.5l0.3,0.8l0.1,1.1l-0.1,1.1l-0.3,0.8l-0.5,0.5l-0.7,0.2l-0.7-0.2l-0.5-0.5
		l-0.3-0.8L632.3-479.3L632.3-479.3z M639.1-476h1.1v-3.8l0.1-0.9l0.4-0.6l0.6-0.4l0.7-0.1l0.6,0.1l0.4,0.3l0.2,0.6l0.1,0.7v4.2h1.1
		v-4.4l0-0.9L644-482l-0.7-0.7l-1.1-0.2l-0.6,0.1l-0.5,0.2l-0.4,0.4l-0.3,0.5v-3.2h-1.1V-476L639.1-476z M648-481.5v3.3l0.1,1.1
		l0.3,0.7l0.7,0.4l1.2,0.1l1.3-0.1v-0.9l-0.9,0.1l-0.9-0.1l-0.5-0.3l-0.2-0.5l0-0.7v-3.2h2.5v-0.9h-2.5v-1.9H648v1.9h-1.9v0.9H648
		L648-481.5z M652.8-473.9v0.9h7.5v-0.9H652.8L652.8-473.9z M661.1-479.2l0.2,1.5l0.5,1.1l0.9,0.6l1.3,0.2l1.3-0.2l0.9-0.6l0.5-1.1
		l0.2-1.6v-5.3h-1.2v5.4l-0.1,1.1l-0.3,0.8l-0.6,0.4l-0.8,0.1l-0.8-0.1l-0.6-0.4l-0.3-0.7l-0.1-1.1v-5.4h-1.1V-479.2L661.1-479.2z
		 M670-481.6v-1h-1.1v9.2h1.1v-3.6l0.4,0.6l0.4,0.4l1.1,0.3l1-0.2l0.8-0.7l0.5-1.1l0.2-1.5l-0.2-1.5l-0.5-1.1l-0.8-0.7l-1-0.2
		l-0.6,0.1l-0.5,0.2l-0.4,0.4L670-481.6L670-481.6z M671.7-476.7l-0.7-0.2l-0.5-0.5l-0.3-0.8l-0.1-1.1l0.1-1.1l0.3-0.8l0.5-0.5
		l0.7-0.2l0.7,0.2l0.5,0.5l0.3,0.8l0.1,1.1l-0.1,1.1l-0.3,0.8l-0.5,0.5L671.7-476.7L671.7-476.7z M677.4-481.6v-1h-1.1v9.2h1.1v-3.6
		l0.4,0.6l0.4,0.4l1.1,0.3l1-0.2l0.8-0.7l0.5-1.1l0.2-1.5l-0.2-1.5l-0.5-1.1l-0.8-0.7l-1-0.2l-0.6,0.1l-0.5,0.2l-0.4,0.4
		L677.4-481.6L677.4-481.6z M679.2-476.7l-0.7-0.2l-0.5-0.5l-0.3-0.8l-0.1-1.1l0.1-1.1l0.3-0.8l0.5-0.5l0.7-0.2l0.7,0.2l0.5,0.5
		l0.3,0.8l0.1,1.1l-0.1,1.1l-0.3,0.8l-0.5,0.5L679.2-476.7L679.2-476.7z M684.8-479h4.4l0-0.5l-0.2-1.4l-0.5-1.1l-0.9-0.6l-1.2-0.2
		l-1.1,0.2l-0.9,0.7l-0.6,1.1l-0.2,1.5l0.2,1.5l0.6,1.1l0.9,0.7l1.1,0.2l1-0.2l0.8-0.4l0.6-0.7l0.3-0.9H688l-0.2,0.5l-0.3,0.4
		l-0.9,0.3l-0.7-0.1l-0.5-0.4L685-478L684.8-479L684.8-479L684.8-479z M684.8-479.9l0.1-0.9l0.3-0.6l0.5-0.4l0.7-0.1l0.7,0.1
		l0.5,0.4l0.3,0.6l0.1,0.9H684.8L684.8-479.9z M691.8-476h1.1v-3.8l0.1-0.9l0.3-0.7l0.5-0.4l0.7-0.1l0.5,0.1l0.4,0.2l0.2,0.4
		l0.1,0.6h1.1l-0.1-1l-0.4-0.7l-0.7-0.4l-0.9-0.1l-0.6,0.1l-0.5,0.2l-0.5,0.4l-0.4,0.6v-1.1h-1V-476L691.8-476z M705.1-476h1.1
		l0.9-2.5h3.4l0.9,2.5h1.2l-3.2-8.6h-1.3L705.1-476L705.1-476z M707.5-479.6l1.3-3.8l1.3,3.8H707.5L707.5-479.6z M714.8-478.8h3v-1
		h-3V-478.8L714.8-478.8z M720-476h1.1l0.9-2.5h3.4l0.9,2.5h1.2l-3.2-8.6h-1.3L720-476L720-476z M722.5-479.6l1.3-3.8l1.3,3.8H722.5
		L722.5-479.6z M729.1-476h1.1v-3.8l0.1-0.9l0.3-0.7l0.5-0.4l0.7-0.1l0.5,0.1l0.4,0.2l0.2,0.4l0.1,0.6h1.1l-0.1-1l-0.4-0.7l-0.7-0.4
		l-0.9-0.1l-0.6,0.1l-0.5,0.2l-0.5,0.4l-0.4,0.6v-1.1h-1V-476L729.1-476z M735.7-476h1v-4.5l0.1-0.7l0.2-0.5l0.3-0.3l0.4-0.1
		l0.3,0.1l0.2,0.2l0.1,0.4l0,0.6v4.7h0.9v-4.5l0.1-0.7l0.2-0.5l0.3-0.3l0.4-0.1l0.3,0.1l0.2,0.2l0.1,1v4.7h1v-4.6l-0.1-1l-0.2-0.7
		l-0.4-0.4l-0.6-0.2l-0.8,0.2l-0.6,0.7l-0.5-0.7l-0.8-0.3l-0.7,0.2l-0.5,0.7v-0.7h-1V-476L735.7-476z"/>
</g>
<g>
	<path d="M590-461.1h1v-7.8l1.6,7.8h1.1l1.6-7.8v7.8h1v-8.6h-1.5l-1.6,7.6l-1.6-7.6H590V-461.1L590-461.1z M601.9-462L601.9-462
		l0.1,0.5l0.2,0.3l0.8,0.2l0.6-0.1v-0.8l-0.3,0L603-462l-0.1-0.5v-3.4l-0.1-0.9l-0.4-0.6l-0.8-0.4l-1.1-0.1l-1,0.1l-0.8,0.4
		l-0.5,0.7l-0.2,0.9v0.1h1l0.1-0.5l0.3-0.4l0.4-0.2l0.6-0.1l0.6,0.1l0.4,0.2l0.3,0.3l0.1,0.4l-0.1,0.5l-0.2,0.3l-0.5,0.1l-0.9,0.1
		l-1.1,0.2l-0.8,0.4l-0.4,0.6l-0.1,0.9l0.1,0.8l0.4,0.6l0.6,0.4l0.9,0.1l1.2-0.3L601.9-462L601.9-462z M601.8-463.4l-0.1,0.6
		l-0.4,0.5l-0.6,0.3l-0.7,0.1l-0.5-0.1l-0.3-0.2l-0.2-0.3l-0.1-0.5l0-0.4l0.2-0.3l0.8-0.3l1-0.1l0.9-0.3V-463.4L601.8-463.4z
		 M608.8-462v-5.5H606v0.9h1.7v4.6h-2.2v0.9h5.6v-0.9H608.8L608.8-462z M608.8-470h-1.2v1.2h1.2V-470L608.8-470z M612.9-461.1h1.1
		v-3.8l0.1-0.9l0.4-0.6l0.6-0.4l0.7-0.1l0.6,0.1l0.4,0.3l0.2,0.6l0.1,0.7v4.2h1.1v-4.4l0-0.9l-0.2-0.7l-0.7-0.7L616-468l-0.6,0.1
		l-0.5,0.2l-0.5,0.4l-0.4,0.5v-1h-1V-461.1L612.9-461.1z M621.9-466.6v3.3l0.1,1.1l0.3,0.7l0.7,0.4l1.2,0.1l1.3-0.1v-0.9l-0.9,0.1
		l-0.9-0.1l-0.5-0.3l-0.2-0.5l0-0.7v-3.2h2.5v-0.9h-2.5v-1.9h-1.1v1.9H620v0.9H621.9L621.9-466.6z M631.2-462v-5.5h-2.8v0.9h1.7v4.6
		h-2.2v0.9h5.6v-0.9H631.2L631.2-462z M631.2-470h-1.2v1.2h1.2V-470L631.2-470z M636.3-464.1h4.4l0-0.5l-0.2-1.4l-0.5-1.1l-0.9-0.6
		l-1.2-0.2l-1.1,0.2l-0.9,0.7l-0.6,1.1l-0.2,1.5l0.2,1.5l0.6,1.1l0.9,0.7l1.1,0.2l1-0.2l0.8-0.4l0.6-0.7l0.3-0.9h-1.1l-0.2,0.5
		l-0.3,0.4l-0.9,0.3l-0.7-0.1l-0.5-0.4l-0.4-0.7L636.3-464.1L636.3-464.1L636.3-464.1z M636.3-465l0.1-0.9l0.3-0.6l0.5-0.4l0.7-0.1
		l0.7,0.1l0.5,0.4l0.3,0.6l0.1,0.9H636.3L636.3-465z M642.8-461.1h1.1v-3.8l0.1-0.9l0.4-0.6l0.6-0.4l0.7-0.1l0.6,0.1l0.4,0.3
		l0.2,0.6l0.1,0.7v4.2h1.1v-4.4l0-0.9l-0.2-0.7l-0.7-0.7l-1.1-0.2l-0.6,0.1l-0.5,0.2l-0.5,0.4l-0.4,0.5v-1h-1V-461.1L642.8-461.1z
		 M662.5-469.7l-2.2,7.3l-2.2-7.3h-1.2l2.8,8.6h1.2l2.7-8.6H662.5L662.5-469.7z M666.2-464.1h4.4l0-0.5l-0.2-1.4l-0.5-1.1l-0.9-0.6
		l-1.2-0.2l-1.1,0.2l-0.9,0.7l-0.6,1.1l-0.2,1.5l0.2,1.5l0.6,1.1l0.9,0.7l1.1,0.2l1-0.2l0.8-0.4l0.6-0.7l0.3-0.9h-1.1l-0.2,0.5
		l-0.3,0.4l-0.9,0.3l-0.7-0.1l-0.5-0.4l-0.3-0.7L666.2-464.1L666.2-464.1L666.2-464.1z M666.2-465l0.1-0.9l0.3-0.6l0.5-0.4l0.7-0.1
		l0.7,0.1l0.5,0.4l0.3,0.6l0.1,0.9H666.2L666.2-465z M673.1-461.1h1.1v-3.8l0.1-0.9l0.3-0.7l0.5-0.4l0.7-0.1l0.5,0.1l0.4,0.2
		l0.2,0.4l0.1,0.6h1.1l-0.1-1l-0.4-0.7l-0.7-0.4l-0.9-0.1l-0.6,0.1l-0.5,0.2l-0.5,0.4l-0.4,0.6v-1.1h-1V-461.1L673.1-461.1z
		 M681.6-466.6v3.3l0.1,1.1l0.3,0.7l0.7,0.4l1.2,0.1l1.3-0.1v-0.9l-0.9,0.1l-0.9-0.1l-0.5-0.3l-0.2-0.5l0-0.7v-3.2h2.5v-0.9h-2.5
		v-1.9h-1.1v1.9h-1.9v0.9H681.6L681.6-466.6z M690.9-462v-5.5h-2.8v0.9h1.7v4.6h-2.2v0.9h5.6v-0.9H690.9L690.9-462z M691-470h-1.2
		v1.2h1.2V-470L691-470z M699.3-465.6h1.1l-0.2-1l-0.5-0.8l-0.8-0.5l-1.1-0.2l-1.2,0.2l-0.9,0.7l-0.6,1.1l-0.2,1.5l0.2,1.5l0.6,1.1
		l0.9,0.7l1.2,0.2l1.1-0.2l0.8-0.5l0.6-0.8l0.2-1.1h-1l-0.2,0.7l-0.3,0.5l-0.5,0.3l-0.6,0.1L697-462l-0.5-0.5l-0.3-0.8l-0.1-1.1
		l0.1-1.1l0.3-0.8l0.6-0.5l0.7-0.2l0.6,0.1l0.5,0.3l0.3,0.5L699.3-465.6L699.3-465.6z M706.5-462L706.5-462l0.1,0.5l0.2,0.3l0.8,0.2
		l0.6-0.1v-0.8l-0.3,0l-0.3-0.2l-0.1-0.5v-3.4l-0.1-0.9l-0.4-0.6l-0.8-0.4l-1.1-0.1l-1,0.1l-0.8,0.4l-0.5,0.7l-0.2,0.9v0.1h1
		l0.1-0.5l0.3-0.4l0.4-0.2l0.6-0.1l0.6,0.1l0.4,0.2l0.3,0.3l0.1,0.4l-0.1,0.5l-0.2,0.3l-0.5,0.1l-0.9,0.1l-1.1,0.2l-0.8,0.4
		l-0.4,0.6l-0.1,0.9l0.1,0.8l0.4,0.6l0.6,0.4l0.9,0.1l1.2-0.3L706.5-462L706.5-462z M706.4-463.4l-0.1,0.6l-0.4,0.5l-0.6,0.3
		l-0.7,0.1l-0.5-0.1l-0.3-0.2l-0.2-0.3l-0.1-0.5l0-0.4l0.2-0.3l0.8-0.3l1-0.1l0.9-0.3V-463.4L706.4-463.4z M712.2-469.1v7.1h-2.2
		v0.9h5.6v-0.9h-2.2v-8h-2.8v0.9H712.2L712.2-469.1z M727.3-461.1h1.1v-8.7h-0.8l-0.2,0.8l-0.4,0.5l-0.7,0.3l-0.9,0.1v0.9h2V-461.1
		L727.3-461.1z"/>
</g>
<g>
	<path d="M1118-476h1.2v-3.6h1.2l0.9,0l0.5,0.2l0.3,0.4l0.1,0.7l0.1,1.1l0.1,0.7l0.1,0.4h1.3v-0.2l-0.3-0.3l-0.1-0.6l-0.1-1.4
		l-0.2-1l-0.3-0.3l-0.4-0.2l0.5-0.3l0.3-0.4l0.2-0.5l0.1-0.7l-0.2-1l-0.5-0.8l-0.8-0.5l-1.1-0.2h-2.9V-476L1118-476z M1120.5-483.5
		l0.8,0.1l0.5,0.2l0.3,0.4l0.1,0.7l-0.1,0.7l-0.3,0.4l-0.6,0.2l-0.8,0.1h-1.3v-2.9H1120.5L1120.5-483.5z M1126.6-479h4.4l0-0.5
		l-0.2-1.4l-0.5-1.1l-0.9-0.6l-1.2-0.2l-1.1,0.2l-0.9,0.7l-0.6,1.1l-0.2,1.5l0.2,1.5l0.6,1.1l0.9,0.7l1.1,0.2l1-0.2l0.8-0.4l0.6-0.7
		l0.3-0.9h-1.1l-0.2,0.5l-0.3,0.4l-0.9,0.3l-0.7-0.1l-0.5-0.4l-0.3-0.7L1126.6-479L1126.6-479L1126.6-479z M1126.6-479.9l0.1-0.9
		l0.3-0.6l0.5-0.4l0.7-0.1l0.7,0.1l0.5,0.4l0.3,0.6l0.1,0.9H1126.6L1126.6-479.9z M1137.1-476.8L1137.1-476.8l0.1,0.5l0.2,0.3
		l0.8,0.2l0.6-0.1v-0.8l-0.3,0l-0.3-0.2l-0.1-0.5v-3.4l-0.1-0.9l-0.4-0.6l-0.8-0.4l-1.1-0.1l-1,0.1l-0.8,0.4l-0.5,0.7l-0.2,0.9v0.1
		h1l0.1-0.5l0.3-0.4l0.4-0.2l0.6-0.1l0.6,0.1l0.4,0.2l0.3,0.3l0.1,0.4l0,0.5l-0.2,0.3l-0.5,0.1l-0.9,0.1l-1.1,0.2l-0.8,0.4l-0.4,0.6
		l-0.1,0.9l0.1,0.8l0.4,0.6l0.6,0.4l0.9,0.1l1.2-0.3L1137.1-476.8L1137.1-476.8z M1136.9-478.3l-0.1,0.6l-0.4,0.5l-0.6,0.3l-0.7,0.1
		l-0.5-0.1l-0.3-0.2l-0.2-0.3l-0.1-0.5l0-0.4l0.2-0.3l0.8-0.3l1-0.1l0.9-0.3V-478.3L1136.9-478.3z M1141-476h1.1v-3.8l0.1-0.9
		l0.3-0.7l0.5-0.4l0.7-0.1l0.5,0.1l0.4,0.2l0.2,0.4l0.1,0.6h1.1l-0.1-1l-0.4-0.7l-0.7-0.4l-0.9-0.1l-0.6,0.1l-0.5,0.2l-0.5,0.4
		l-0.4,0.6v-1.1h-1V-476L1141-476z M1146.9-473.9v0.9h7.5v-0.9H1146.9L1146.9-473.9z M1155.3-476h1.2v-3.6h1.2l0.9,0l0.5,0.2
		l0.3,0.4l0.1,0.7l0.1,1.1l0.1,0.7l0.1,0.4h1.3v-0.2l-0.3-0.3l-0.1-0.6l-0.1-1.4l-0.2-1l-0.3-0.3l-0.4-0.2l0.5-0.3l0.3-0.4l0.2-0.5
		l0.1-0.7l-0.2-1l-0.5-0.8l-0.8-0.5l-1.1-0.2h-2.9V-476L1155.3-476z M1157.9-483.5l0.8,0.1l0.5,0.2l0.3,0.4l0.1,0.7l-0.1,0.7
		l-0.3,0.4l-0.6,0.2l-0.8,0.1h-1.3v-2.9H1157.9L1157.9-483.5z M1166.3-476.9v-5.5h-2.8v0.9h1.7v4.6h-2.2v0.9h5.6v-0.9H1166.3
		L1166.3-476.9z M1166.4-484.9h-1.2v1.2h1.2V-484.9L1166.4-484.9z M1175.6-476.3v-6.4h-1v1.1l-0.9-1l-0.5-0.2l-0.6-0.1l-1.1,0.2
		l-0.8,0.7l-0.5,1.1l-0.2,1.5l0.2,1.5l0.5,1.1l0.8,0.7l1.1,0.2l0.6-0.1l0.5-0.2l0.9-0.9v0.9l-0.1,0.7l-0.3,0.5l-0.5,0.3l-0.8,0.1
		l-0.7-0.1l-0.5-0.2l-0.3-0.3l-0.1-0.4h-1.1v0l0.2,0.8l0.5,0.6l0.8,0.4l1.1,0.1l1.3-0.2l0.9-0.5l0.5-0.9L1175.6-476.3L1175.6-476.3z
		 M1171.2-479.3l0.1-1.1l0.3-0.8l0.5-0.5l0.7-0.2l0.7,0.2l0.5,0.5l0.3,0.8l0.1,1.1l-0.1,1.1l-0.3,0.8l-0.5,0.5l-0.7,0.2l-0.7-0.2
		l-0.5-0.5l-0.3-0.8L1171.2-479.3L1171.2-479.3z M1177.9-476h1.1v-3.8l0.1-0.9l0.4-0.6l0.6-0.4l0.7-0.1l0.6,0.1l0.4,0.3l0.2,0.6
		l0.1,0.7v4.2h1.1v-4.4l0-0.9l-0.2-0.7l-0.7-0.7l-1.1-0.2l-0.6,0.1l-0.5,0.2l-0.4,0.4l-0.3,0.5v-3.2h-1.1V-476L1177.9-476z
		 M1186.8-481.5v3.3l0.1,1.1l0.3,0.7l0.7,0.4l1.2,0.1l1.3-0.1v-0.9l-0.9,0.1l-0.9-0.1l-0.5-0.3l-0.2-0.5l0-0.7v-3.2h2.5v-0.9h-2.5
		v-1.9h-1.1v1.9h-1.9v0.9H1186.8L1186.8-481.5z M1191.7-473.9v0.9h7.5v-0.9H1191.7L1191.7-473.9z M1199.9-479.2l0.2,1.5l0.5,1.1
		l0.9,0.6l1.3,0.2l1.3-0.2l0.9-0.6l0.5-1.1l0.2-1.6v-5.3h-1.2v5.4l-0.1,1.1l-0.3,0.8l-0.6,0.4l-0.8,0.1l-0.8-0.1l-0.6-0.4l-0.3-0.7
		l-0.1-1.1v-5.4h-1.1V-479.2L1199.9-479.2z M1208.8-481.6v-1h-1.1v9.2h1.1v-3.6l0.4,0.6l0.4,0.4l1.1,0.3l1-0.2l0.8-0.7l0.5-1.1
		l0.2-1.5l-0.2-1.5l-0.5-1.1l-0.8-0.7l-1-0.2l-0.6,0.1l-0.5,0.2l-0.4,0.4L1208.8-481.6L1208.8-481.6z M1210.5-476.7l-0.7-0.2
		l-0.5-0.5l-0.3-0.8l-0.1-1.1l0.1-1.1l0.3-0.8l0.5-0.5l0.7-0.2l0.7,0.2l0.5,0.5l0.3,0.8l0.1,1.1l-0.1,1.1l-0.3,0.8l-0.5,0.5
		L1210.5-476.7L1210.5-476.7z M1216.3-481.6v-1h-1.1v9.2h1.1v-3.6l0.4,0.6l0.4,0.4l1.1,0.3l1-0.2l0.8-0.7l0.5-1.1l0.2-1.5l-0.2-1.5
		l-0.5-1.1l-0.8-0.7l-1-0.2l-0.6,0.1l-0.5,0.2l-0.4,0.4L1216.3-481.6L1216.3-481.6z M1218-476.7l-0.7-0.2l-0.5-0.5l-0.3-0.8
		l-0.1-1.1l0.1-1.1l0.3-0.8l0.5-0.5l0.7-0.2l0.7,0.2l0.5,0.5l0.3,0.8l0.1,1.1l-0.1,1.1l-0.3,0.8l-0.5,0.5L1218-476.7L1218-476.7z
		 M1223.7-479h4.4l0-0.5l-0.2-1.4l-0.5-1.1l-0.9-0.6l-1.2-0.2l-1.1,0.2l-0.9,0.7l-0.6,1.1l-0.2,1.5l0.2,1.5l0.6,1.1l0.9,0.7l1.1,0.2
		l1-0.2l0.8-0.4l0.6-0.7l0.3-0.9h-1.1l-0.2,0.5l-0.3,0.4l-0.9,0.3l-0.7-0.1l-0.5-0.4l-0.3-0.7L1223.7-479L1223.7-479L1223.7-479z
		 M1223.7-479.9l0.1-0.9l0.3-0.6l0.5-0.4l0.7-0.1l0.7,0.1l0.5,0.4l0.3,0.6l0.1,0.9H1223.7L1223.7-479.9z M1230.6-476h1.1v-3.8
		l0.1-0.9l0.3-0.7l0.5-0.4l0.7-0.1l0.5,0.1l0.4,0.2l0.2,0.4l0.1,0.6h1.1l-0.1-1l-0.4-0.7l-0.7-0.4l-0.9-0.1l-0.6,0.1l-0.5,0.2
		l-0.5,0.4l-0.4,0.6v-1.1h-1V-476L1230.6-476z M1243.9-476h1.1l0.9-2.5h3.4l0.9,2.5h1.2l-3.2-8.6h-1.3L1243.9-476L1243.9-476z
		 M1246.4-479.6l1.3-3.8l1.3,3.8H1246.4L1246.4-479.6z M1253.7-478.8h3v-1h-3V-478.8L1253.7-478.8z M1258.9-476h1.1l0.9-2.5h3.4
		l0.9,2.5h1.2l-3.2-8.6h-1.3L1258.9-476L1258.9-476z M1261.3-479.6l1.3-3.8l1.3,3.8H1261.3L1261.3-479.6z M1267.9-476h1.1v-3.8
		l0.1-0.9l0.3-0.7l0.5-0.4l0.7-0.1l0.5,0.1l0.4,0.2l0.2,0.4l0.1,0.6h1.1l-0.1-1l-0.4-0.7l-0.7-0.4l-0.9-0.1l-0.6,0.1l-0.5,0.2
		l-0.5,0.4l-0.4,0.6v-1.1h-1V-476L1267.9-476z M1274.6-476h1v-4.5l0.1-0.7l0.2-0.5l0.3-0.3l0.4-0.1l0.3,0.1l0.2,0.2l0.1,0.4l0,0.6
		v4.7h0.9v-4.5l0.1-0.7l0.2-0.5l0.3-0.3l0.4-0.1l0.3,0.1l0.2,0.2l0.1,1v4.7h1v-4.6l-0.1-1l-0.2-0.7l-0.4-0.4l-0.6-0.2l-0.8,0.2
		l-0.6,0.7l-0.5-0.7l-0.8-0.3l-0.7,0.2l-0.5,0.7v-0.7h-1V-476L1274.6-476z"/>
</g>
<g>
	<path d="M1128.8-461.1h1v-7.8l1.6,7.8h1.1l1.6-7.8v7.8h1v-8.6h-1.5l-1.6,7.6l-1.6-7.6h-1.5V-461.1L1128.8-461.1z M1140.8-462
		L1140.8-462l0.1,0.5l0.2,0.3l0.8,0.2l0.6-0.1v-0.8l-0.3,0l-0.4-0.2l-0.1-0.5v-3.4l-0.1-0.9l-0.4-0.6l-0.8-0.4l-1.1-0.1l-1,0.1
		l-0.8,0.4l-0.5,0.7l-0.2,0.9v0.1h1l0.1-0.5l0.3-0.4l0.4-0.2l0.6-0.1l0.6,0.1l0.4,0.2l0.3,0.3l0.1,0.4l0,0.5l-0.2,0.3l-0.5,0.1
		l-0.9,0.1l-1.1,0.2l-0.8,0.4l-0.4,0.6l-0.1,0.9l0.1,0.8l0.4,0.6l0.6,0.4l0.9,0.1l1.2-0.3L1140.8-462L1140.8-462z M1140.7-463.4
		l-0.1,0.6l-0.4,0.5l-0.6,0.3l-0.7,0.1l-0.5-0.1l-0.3-0.2l-0.2-0.3l-0.1-0.5l0-0.4l0.2-0.3l0.8-0.3l1-0.1l0.9-0.3V-463.4
		L1140.7-463.4z M1147.6-462v-5.5h-2.8v0.9h1.7v4.6h-2.2v0.9h5.6v-0.9H1147.6L1147.6-462z M1147.7-470h-1.2v1.2h1.2V-470L1147.7-470
		z M1151.8-461.1h1.1v-3.8l0.1-0.9l0.4-0.6l0.6-0.4l0.7-0.1l0.6,0.1l0.4,0.3l0.2,0.6l0.1,0.7v4.2h1.1v-4.4l0-0.9l-0.2-0.7l-0.7-0.7
		l-1.1-0.2l-0.6,0.1l-0.5,0.2l-0.5,0.4l-0.4,0.5v-1h-1V-461.1L1151.8-461.1z M1160.7-466.6v3.3l0.1,1.1l0.3,0.7l0.7,0.4l1.2,0.1
		l1.3-0.1v-0.9l-0.9,0.1l-0.9-0.1l-0.5-0.3l-0.2-0.5l0-0.7v-3.2h2.5v-0.9h-2.5v-1.9h-1.1v1.9h-1.9v0.9H1160.7L1160.7-466.6z
		 M1170-462v-5.5h-2.8v0.9h1.7v4.6h-2.2v0.9h5.6v-0.9H1170L1170-462z M1170.1-470h-1.2v1.2h1.2V-470L1170.1-470z M1175.1-464.1h4.4
		l0-0.5l-0.2-1.4l-0.5-1.1l-0.9-0.6l-1.2-0.2l-1.1,0.2l-0.9,0.7l-0.6,1.1l-0.2,1.5l0.2,1.5l0.6,1.1l0.9,0.7l1.1,0.2l1-0.2l0.8-0.4
		l0.6-0.7l0.3-0.9h-1.1l-0.2,0.5l-0.3,0.4l-0.9,0.3l-0.7-0.1l-0.5-0.4l-0.3-0.7L1175.1-464.1L1175.1-464.1L1175.1-464.1z
		 M1175.1-465l0.1-0.9l0.3-0.6l0.5-0.4l0.7-0.1l0.7,0.1l0.5,0.4l0.3,0.6l0.1,0.9H1175.1L1175.1-465z M1181.6-461.1h1.1v-3.8l0.1-0.9
		l0.4-0.6l0.6-0.4l0.7-0.1l0.6,0.1l0.4,0.3l0.2,0.6l0.1,0.7v4.2h1.1v-4.4l0-0.9l-0.2-0.7l-0.7-0.7l-1.1-0.2l-0.6,0.1l-0.5,0.2
		l-0.5,0.4l-0.4,0.5v-1h-1V-461.1L1181.6-461.1z M1201.3-469.7l-2.2,7.3l-2.2-7.3h-1.2l2.8,8.6h1.2l2.7-8.6H1201.3L1201.3-469.7z
		 M1205-464.1h4.4l0-0.5l-0.2-1.4l-0.5-1.1l-0.9-0.6l-1.2-0.2l-1.1,0.2l-0.9,0.7l-0.6,1.1l-0.2,1.5l0.2,1.5l0.6,1.1l0.9,0.7l1.1,0.2
		l1-0.2l0.8-0.4l0.6-0.7l0.3-0.9h-1.1l-0.2,0.5l-0.3,0.4l-0.9,0.3l-0.7-0.1l-0.5-0.4l-0.3-0.7L1205-464.1L1205-464.1L1205-464.1z
		 M1205-465l0.1-0.9l0.3-0.6l0.5-0.4l0.7-0.1l0.7,0.1l0.5,0.4l0.3,0.6l0.1,0.9H1205L1205-465z M1211.9-461.1h1.1v-3.8l0.1-0.9
		l0.3-0.7l0.5-0.4l0.7-0.1l0.5,0.1l0.4,0.2l0.2,0.4l0.1,0.6h1.1l-0.1-1l-0.4-0.7l-0.7-0.4l-0.9-0.1l-0.6,0.1l-0.5,0.2l-0.5,0.4
		l-0.4,0.6v-1.1h-1V-461.1L1211.9-461.1z M1220.5-466.6v3.3l0.1,1.1l0.3,0.7l0.7,0.4l1.2,0.1l1.3-0.1v-0.9l-0.9,0.1l-0.9-0.1
		l-0.5-0.3l-0.2-0.5l0-0.7v-3.2h2.5v-0.9h-2.5v-1.9h-1.1v1.9h-1.9v0.9H1220.5L1220.5-466.6z M1229.8-462v-5.5h-2.8v0.9h1.7v4.6h-2.2
		v0.9h5.6v-0.9H1229.8L1229.8-462z M1229.8-470h-1.2v1.2h1.2V-470L1229.8-470z M1238.2-465.6h1.1l-0.2-1l-0.5-0.8l-0.8-0.5l-1.1-0.2
		l-1.2,0.2l-0.9,0.7l-0.6,1.1l-0.2,1.5l0.2,1.5l0.6,1.1l0.9,0.7l1.2,0.2l1.1-0.2l0.8-0.5l0.6-0.8l0.2-1.1h-1l-0.2,0.7l-0.3,0.5
		l-0.5,0.3l-0.6,0.1l-0.8-0.2l-0.5-0.5l-0.3-0.8l-0.1-1.1l0.1-1.1l0.3-0.8l0.6-0.5l0.7-0.2l0.6,0.1l0.5,0.3l0.3,0.5L1238.2-465.6
		L1238.2-465.6z M1245.4-462L1245.4-462l0.1,0.5l0.2,0.3l0.8,0.2l0.6-0.1v-0.8l-0.3,0l-0.3-0.2l-0.1-0.5v-3.4l-0.1-0.9l-0.4-0.6
		l-0.8-0.4l-1.1-0.1l-1,0.1l-0.8,0.4l-0.5,0.7l-0.2,0.9v0.1h1l0.1-0.5l0.3-0.4l0.4-0.2l0.6-0.1l0.6,0.1l0.4,0.2l0.3,0.3l0.1,0.4
		l-0.1,0.5l-0.2,0.3l-0.5,0.1l-0.9,0.1l-1.1,0.2l-0.8,0.4l-0.4,0.6l-0.1,0.9l0.1,0.8l0.4,0.6l0.6,0.4l0.9,0.1l1.2-0.3L1245.4-462
		L1245.4-462z M1245.2-463.4l-0.1,0.6l-0.4,0.5l-0.6,0.3l-0.7,0.1l-0.5-0.1l-0.3-0.2l-0.2-0.3l-0.1-0.5l0-0.4l0.2-0.3l0.8-0.3l1-0.1
		l0.9-0.3V-463.4L1245.2-463.4z M1251-469.1v7.1h-2.2v0.9h5.6v-0.9h-2.2v-8h-2.8v0.9H1251L1251-469.1z M1263.3-461.1h5.9v-1.1h-4.7
		l0.3-0.6l0.4-0.5l1.4-0.9l0.7-0.4l0.8-0.5l0.6-0.6l0.3-0.7l0.1-0.8l-0.2-1l-0.6-0.8l-0.9-0.5l-1.2-0.2l-1.2,0.2l-0.9,0.6l-0.6,0.9
		l-0.2,1.2v0.2h1.1v-0.1l0.1-0.8l0.3-0.6l0.5-0.4l0.7-0.1l0.7,0.1l0.5,0.3l0.3,0.5l0.1,0.6l-0.1,0.6l-0.2,0.5l-0.4,0.4l-0.5,0.4
		l-0.7,0.4l-1.2,0.8l-0.9,0.8l-0.5,1L1263.3-461.1L1263.3-461.1L1263.3-461.1z"/>
</g>
<g>
	<path d="M713.8-128.4h1.2v-3.6h1.2l0.9,0l0.5,0.2l0.3,0.4l0.1,0.7l0.1,1.1l0.1,0.7l0.1,0.4h1.3v-0.2l-0.3-0.3l-0.1-0.6l-0.1-1.4
		l-0.2-1l-0.3-0.3l-0.4-0.2l0.5-0.3l0.3-0.4l0.2-0.5l0.1-0.7l-0.2-1l-0.5-0.8l-0.8-0.5l-1.1-0.2h-2.9V-128.4L713.8-128.4z
		 M716.4-136l0.8,0.1l0.5,0.2l0.3,0.4l0.1,0.7l-0.1,0.7l-0.3,0.4l-0.6,0.2l-0.8,0.1H715v-2.9H716.4L716.4-136z M722.4-131.4h4.4
		l0-0.5l-0.2-1.4l-0.5-1.1l-0.9-0.6l-1.2-0.2l-1.1,0.2l-0.9,0.7l-0.6,1.1l-0.2,1.5l0.2,1.5l0.6,1.1l0.9,0.7l1.1,0.2l1-0.2l0.8-0.4
		l0.6-0.7l0.3-0.9h-1.1l-0.2,0.5l-0.3,0.4l-0.9,0.3l-0.7-0.1l-0.5-0.4l-0.3-0.7L722.4-131.4L722.4-131.4L722.4-131.4z M722.4-132.4
		l0.1-0.9l0.3-0.6l0.5-0.4l0.7-0.1l0.7,0.1l0.5,0.4l0.3,0.6l0.1,0.9H722.4L722.4-132.4z M732.9-129.3L732.9-129.3l0.1,0.5l0.2,0.3
		l0.8,0.2l0.6-0.1v-0.8l-0.3,0l-0.3-0.2l-0.1-0.5v-3.4l-0.1-0.9l-0.4-0.6l-0.8-0.4l-1.1-0.1l-1,0.1l-0.8,0.4l-0.5,0.7l-0.2,0.9v0.1
		h1l0.1-0.5l0.3-0.4l0.4-0.2l0.6-0.1l0.6,0.1l0.4,0.2l0.3,0.3l0.1,0.4l0,0.5l-0.2,0.3l-0.5,0.1l-0.9,0.1l-1.1,0.2l-0.8,0.4l-0.4,0.6
		l-0.1,0.9l0.1,0.8l0.4,0.6l0.6,0.4l0.9,0.1l1.2-0.3L732.9-129.3L732.9-129.3z M732.8-130.8l-0.1,0.6l-0.4,0.5l-0.6,0.3l-0.7,0.1
		l-0.5-0.1l-0.3-0.2l-0.2-0.3l-0.1-0.5l0-0.4l0.2-0.3l0.8-0.3l1-0.1l0.9-0.3V-130.8L732.8-130.8z M736.8-128.4h1.1v-3.8l0.1-0.9
		l0.3-0.7l0.5-0.4l0.7-0.1l0.5,0.1l0.4,0.2l0.2,0.4l0.1,0.6h1.1l-0.1-1l-0.4-0.7l-0.7-0.4l-0.9-0.1l-0.6,0.1l-0.5,0.2l-0.5,0.4
		l-0.4,0.6v-1.1h-1V-128.4L736.8-128.4z M742.7-126.4v0.9h7.5v-0.9H742.7L742.7-126.4z M751.2-128.4h1.2v-3.6h1.2l0.9,0l0.5,0.2
		l0.3,0.4l0.1,0.7l0.1,1.1l0.1,0.7l0.1,0.4h1.3v-0.2l-0.3-0.3l-0.1-0.6l-0.1-1.4l-0.2-1l-0.3-0.3l-0.4-0.2l0.5-0.3l0.3-0.4l0.2-0.5
		l0.1-0.7l-0.2-1l-0.5-0.8l-0.8-0.5L754-137h-2.9V-128.4L751.2-128.4z M753.7-136l0.8,0.1l0.5,0.2l0.3,0.4l0.1,0.7l-0.1,0.7
		l-0.3,0.4l-0.6,0.2l-0.8,0.1h-1.3v-2.9H753.7L753.7-136z M762.2-129.3v-5.5h-2.8v0.9h1.7v4.6h-2.2v0.9h5.6v-0.9H762.2L762.2-129.3z
		 M762.2-137.3H761v1.2h1.2V-137.3L762.2-137.3z M771.5-128.7v-6.4h-1v1.1l-0.9-1l-0.5-0.2l-0.6-0.1l-1.1,0.2l-0.8,0.7l-0.5,1.1
		l-0.2,1.5l0.2,1.5l0.5,1.1l0.8,0.7l1.1,0.2l0.6-0.1l0.5-0.2l0.9-0.9v0.9l-0.1,0.7l-0.3,0.5l-0.5,0.3l-0.8,0.1l-0.7-0.1l-0.5-0.2
		l-0.3-0.3l-0.1-0.4h-1.1v0.1l0.2,0.8l0.5,0.6l0.8,0.4l1.1,0.1l1.3-0.2l0.9-0.5l0.5-0.9L771.5-128.7L771.5-128.7z M767-131.8
		l0.1-1.1l0.3-0.8l0.5-0.5l0.7-0.2l0.7,0.2l0.5,0.5l0.3,0.8l0.1,1.1l-0.1,1.1l-0.3,0.8l-0.5,0.5l-0.7,0.2l-0.7-0.2l-0.5-0.5
		l-0.3-0.8L767-131.8L767-131.8z M773.8-128.4h1.1v-3.8l0.1-0.9l0.4-0.6l0.6-0.4l0.7-0.1l0.6,0.1l0.4,0.3l0.2,0.6l0.1,0.7v4.2h1.1
		v-4.4l0-0.9l-0.2-0.7l-0.7-0.7l-1.1-0.2l-0.6,0.1l-0.5,0.2l-0.4,0.4l-0.3,0.5v-3.2h-1.1V-128.4L773.8-128.4z M782.7-133.9v3.3
		l0.1,1.1l0.3,0.7l0.7,0.4l1.2,0.1l1.3-0.1v-0.9l-0.9,0.1l-0.9-0.1l-0.5-0.3l-0.2-0.5l0-0.7v-3.2h2.5v-0.9h-2.5v-1.9h-1.1v1.9h-1.9
		v0.9H782.7L782.7-133.9z M787.5-126.4v0.9h7.5v-0.9H787.5L787.5-126.4z M795.8-131.7l0.2,1.6l0.5,1.1l0.9,0.6l1.3,0.2l1.3-0.2
		l0.9-0.6l0.5-1.1l0.2-1.6v-5.3h-1.2v5.4l-0.1,1.1l-0.3,0.8l-0.6,0.4l-0.8,0.1l-0.8-0.1l-0.6-0.4l-0.3-0.7l-0.1-1.1v-5.4h-1.1
		V-131.7L795.8-131.7z M804.7-134.1v-1h-1.1v9.2h1.1v-3.6l0.4,0.6l0.4,0.4l1.1,0.3l1-0.2l0.8-0.7l0.5-1.1l0.2-1.5l-0.2-1.5l-0.5-1.1
		l-0.8-0.7l-1-0.2l-0.6,0.1l-0.5,0.2l-0.4,0.4L804.7-134.1L804.7-134.1z M806.4-129.2l-0.7-0.2l-0.5-0.5l-0.3-0.8l-0.1-1.1l0.1-1.1
		l0.3-0.8l0.5-0.5l0.7-0.2l0.7,0.2l0.5,0.5l0.3,0.8l0.1,1.1l-0.1,1.1l-0.3,0.8l-0.5,0.5L806.4-129.2L806.4-129.2z M812.1-134.1v-1
		H811v9.2h1.1v-3.6l0.4,0.6l0.4,0.4l1.1,0.3l1-0.2l0.8-0.7l0.5-1.1l0.2-1.5l-0.2-1.5l-0.5-1.1l-0.8-0.7l-1-0.2l-0.6,0.1l-0.5,0.2
		l-0.4,0.4L812.1-134.1L812.1-134.1z M813.9-129.2l-0.7-0.2l-0.5-0.5l-0.3-0.8l-0.1-1.1l0.1-1.1l0.3-0.8l0.5-0.5l0.7-0.2l0.7,0.2
		l0.5,0.5l0.3,0.8l0.1,1.1l-0.1,1.1l-0.3,0.8l-0.5,0.5L813.9-129.2L813.9-129.2z M819.5-131.4h4.4l0-0.5l-0.2-1.4l-0.5-1.1l-0.9-0.6
		l-1.2-0.2l-1.1,0.2l-0.9,0.7l-0.6,1.1l-0.2,1.5l0.2,1.5l0.6,1.1l0.9,0.7l1.1,0.2l1-0.2l0.8-0.4l0.6-0.7l0.3-0.9h-1.1l-0.2,0.5
		l-0.3,0.4l-0.9,0.3l-0.7-0.1l-0.5-0.4l-0.3-0.7L819.5-131.4L819.5-131.4L819.5-131.4z M819.5-132.4l0.1-0.9l0.3-0.6l0.5-0.4
		l0.7-0.1l0.7,0.1l0.5,0.4l0.3,0.6l0.1,0.9H819.5L819.5-132.4z M826.5-128.4h1.1v-3.8l0.1-0.9l0.3-0.7l0.5-0.4l0.7-0.1l0.5,0.1
		l0.4,0.2l0.2,0.4l0.1,0.6h1.1l-0.1-1l-0.4-0.7l-0.7-0.4l-0.9-0.1l-0.6,0.1l-0.5,0.2l-0.5,0.4l-0.4,0.6v-1.1h-1V-128.4L826.5-128.4z
		 M839.8-128.4h1.1l0.9-2.5h3.4l0.9,2.5h1.2l-3.2-8.6h-1.3L839.8-128.4L839.8-128.4z M842.2-132l1.3-3.8l1.3,3.8H842.2L842.2-132z
		 M849.5-131.3h3v-1h-3V-131.3L849.5-131.3z M854.7-128.4h1.1l0.9-2.5h3.4l0.9,2.5h1.2l-3.2-8.6h-1.3L854.7-128.4L854.7-128.4z
		 M857.2-132l1.3-3.8l1.3,3.8H857.2L857.2-132z M863.8-128.4h1.1v-3.8l0.1-0.9l0.3-0.7l0.5-0.4l0.7-0.1l0.5,0.1l0.4,0.2l0.2,0.4
		l0.1,0.6h1.1l-0.1-1l-0.4-0.7l-0.7-0.4l-0.9-0.1l-0.6,0.1l-0.5,0.2l-0.5,0.4l-0.4,0.6v-1.1h-1V-128.4L863.8-128.4z M870.4-128.4h1
		v-4.5l0.1-0.7l0.2-0.5l0.3-0.3l0.4-0.1l0.3,0.1l0.2,0.2l0.1,0.4l0,0.6v4.7h0.9v-4.5l0.1-0.7l0.2-0.5l0.3-0.3l0.4-0.1l0.3,0.1
		l0.2,0.2l0.1,1v4.7h1v-4.6l-0.1-1l-0.2-0.7l-0.4-0.4l-0.6-0.2l-0.8,0.2l-0.6,0.7l-0.5-0.7l-0.8-0.3l-0.7,0.2l-0.5,0.7v-0.7h-1
		V-128.4L870.4-128.4z"/>
</g>
<g>
	<path d="M694.8-113.5h1v-7.8l1.6,7.8h1.1l1.6-7.8v7.8h1v-8.6h-1.5l-1.6,7.6l-1.6-7.6h-1.5V-113.5L694.8-113.5z M706.8-114.4
		L706.8-114.4l0.1,0.5l0.2,0.3l0.8,0.2l0.6-0.1v-0.8l-0.3,0l-0.4-0.2l-0.1-0.5v-3.4l-0.1-0.9l-0.4-0.6l-0.8-0.4l-1.1-0.1l-1,0.1
		l-0.8,0.4l-0.5,0.7l-0.2,0.9v0.1h1l0.1-0.5l0.3-0.4l0.4-0.2l0.6-0.1l0.6,0.1l0.4,0.2l0.3,0.3l0.1,0.4l0,0.5l-0.2,0.3l-0.5,0.1
		l-0.9,0.1l-1.1,0.2l-0.8,0.4l-0.4,0.6l-0.1,0.9l0.1,0.8l0.4,0.6l0.6,0.4l0.9,0.1l1.2-0.3L706.8-114.4L706.8-114.4z M706.6-115.9
		l-0.1,0.6l-0.4,0.5l-0.6,0.3l-0.7,0.1l-0.5-0.1l-0.3-0.2l-0.2-0.3l-0.1-0.5l0-0.4l0.2-0.3l0.8-0.3l1-0.1l0.9-0.3V-115.9
		L706.6-115.9z M713.6-114.5v-5.5h-2.8v0.9h1.7v4.6h-2.2v0.9h5.6v-0.9H713.6L713.6-114.5z M713.7-122.5h-1.2v1.2h1.2V-122.5
		L713.7-122.5z M717.7-113.5h1.1v-3.8l0.1-0.9l0.4-0.6l0.6-0.4l0.7-0.1l0.6,0.1l0.4,0.3l0.2,0.6l0.1,0.7v4.2h1.1v-4.4l0-0.9
		l-0.2-0.7l-0.7-0.7l-1.1-0.2l-0.6,0.1l-0.5,0.2l-0.5,0.4l-0.4,0.5v-1h-1V-113.5L717.7-113.5z M726.7-119.1v3.3l0.1,1.1l0.3,0.7
		l0.7,0.4l1.2,0.1l1.3-0.1v-0.9l-0.9,0.1l-0.9-0.1l-0.5-0.3l-0.2-0.5l0-0.7v-3.2h2.5v-0.9h-2.5v-1.9h-1.1v1.9h-1.9v0.9H726.7
		L726.7-119.1z M736-114.5v-5.5h-2.8v0.9h1.7v4.6h-2.2v0.9h5.6v-0.9H736L736-114.5z M736.1-122.5h-1.2v1.2h1.2V-122.5L736.1-122.5z
		 M741.1-116.6h4.4l0-0.5l-0.2-1.4l-0.5-1.1l-0.9-0.6l-1.2-0.2l-1.1,0.2l-0.9,0.7l-0.6,1.1l-0.2,1.5l0.2,1.5l0.6,1.1l0.9,0.7
		l1.1,0.2l1-0.2l0.8-0.4l0.6-0.7l0.3-0.9h-1.1l-0.2,0.5l-0.3,0.4l-0.9,0.3l-0.7-0.1l-0.5-0.4l-0.3-0.7L741.1-116.6L741.1-116.6
		L741.1-116.6z M741.1-117.5l0.1-0.9l0.3-0.6l0.5-0.4l0.7-0.1l0.7,0.1l0.5,0.4l0.3,0.6l0.1,0.9H741.1L741.1-117.5z M747.6-113.5h1.1
		v-3.8l0.1-0.9l0.4-0.6l0.6-0.4l0.7-0.1l0.6,0.1l0.4,0.3l0.2,0.6l0.1,0.7v4.2h1.1v-4.4l0-0.9l-0.2-0.7l-0.7-0.7l-1.1-0.2l-0.6,0.1
		l-0.5,0.2l-0.5,0.4l-0.4,0.5v-1h-1V-113.5L747.6-113.5z M762-113.5h1v-7.8l1.6,7.8h1.1l1.6-7.8v7.8h1v-8.6h-1.5l-1.6,7.6l-1.6-7.6
		H762V-113.5L762-113.5z M774-114.4L774-114.4l0.1,0.5l0.2,0.3l0.8,0.2l0.6-0.1v-0.8l-0.3,0l-0.3-0.2L775-115v-3.4l-0.1-0.9
		l-0.4-0.6l-0.8-0.4l-1.1-0.1l-1,0.1l-0.8,0.4l-0.5,0.7l-0.2,0.9v0.1h1l0.1-0.5l0.3-0.4l0.4-0.2l0.6-0.1l0.6,0.1l0.4,0.2l0.3,0.3
		l0.1,0.4l0,0.5l-0.2,0.3l-0.5,0.1l-0.9,0.1l-1.1,0.2l-0.8,0.4l-0.4,0.6l-0.1,0.9l0.1,0.8l0.4,0.6l0.6,0.4l0.9,0.1l1.2-0.3
		L774-114.4L774-114.4z M773.9-115.9l-0.1,0.6l-0.4,0.5l-0.6,0.3l-0.7,0.1l-0.5-0.1l-0.3-0.2l-0.2-0.3l-0.1-0.5l0.1-0.4l0.2-0.3
		l0.8-0.3l1-0.1l0.9-0.3V-115.9L773.9-115.9z M780.8-114.5v-5.5H778v0.9h1.7v4.6h-2.2v0.9h5.6v-0.9H780.8L780.8-114.5z M780.9-122.5
		h-1.2v1.2h1.2V-122.5L780.9-122.5z M785-113.5h1.1v-3.8l0.1-0.9l0.4-0.6l0.6-0.4l0.7-0.1l0.6,0.1l0.4,0.3l0.2,0.6l0.1,0.7v4.2h1.1
		v-4.4l-0.1-0.9l-0.2-0.7l-0.7-0.7l-1.1-0.2l-0.6,0.1l-0.5,0.2l-0.5,0.4l-0.4,0.5v-1h-1V-113.5L785-113.5z M793.9-119.1v3.3l0.1,1.1
		l0.3,0.7l0.7,0.4l1.2,0.1l1.3-0.1v-0.9l-0.9,0.1l-0.9-0.1l-0.5-0.3l-0.2-0.5l0-0.7v-3.2h2.5v-0.9H795v-1.9h-1.1v1.9H792v0.9H793.9
		L793.9-119.1z M803.2-114.5v-5.5h-2.8v0.9h1.7v4.6h-2.2v0.9h5.6v-0.9H803.2L803.2-114.5z M803.3-122.5h-1.2v1.2h1.2V-122.5
		L803.3-122.5z M808.3-116.6h4.4l0-0.5l-0.2-1.4l-0.5-1.1l-0.9-0.6l-1.2-0.2l-1.1,0.2l-0.9,0.7l-0.6,1.1l-0.2,1.5l0.2,1.5l0.6,1.1
		l0.9,0.7l1.1,0.2l1-0.2l0.8-0.4l0.6-0.7l0.3-0.9h-1.1l-0.2,0.5l-0.3,0.4l-0.9,0.3l-0.7-0.1l-0.5-0.4l-0.3-0.7L808.3-116.6
		L808.3-116.6L808.3-116.6z M808.3-117.5l0.1-0.9l0.3-0.6l0.5-0.4l0.7-0.1l0.7,0.1l0.5,0.4l0.3,0.6l0.1,0.9H808.3L808.3-117.5z
		 M814.8-113.5h1.1v-3.8l0.1-0.9l0.4-0.6l0.6-0.4l0.7-0.1l0.6,0.1l0.4,0.3l0.2,0.6l0.1,0.7v4.2h1.1v-4.4l-0.1-0.9l-0.2-0.7l-0.7-0.7
		l-1.1-0.2l-0.6,0.1l-0.5,0.2l-0.5,0.4l-0.4,0.5v-1h-1V-113.5L814.8-113.5z M834.5-122.2l-2.2,7.3l-2.2-7.3h-1.2l2.8,8.6h1.2
		l2.7-8.6H834.5L834.5-122.2z M838.2-116.6h4.4l0-0.5l-0.2-1.4l-0.5-1.1l-0.9-0.6l-1.2-0.2l-1.1,0.2l-0.9,0.7l-0.6,1.1l-0.2,1.5
		l0.2,1.5l0.6,1.1l0.9,0.7l1.1,0.2l1-0.2l0.8-0.4l0.6-0.7l0.3-0.9h-1.1l-0.2,0.5l-0.3,0.4l-0.9,0.3l-0.7-0.1l-0.5-0.4l-0.3-0.7
		L838.2-116.6L838.2-116.6L838.2-116.6z M838.2-117.5l0.1-0.9l0.3-0.6l0.5-0.4l0.7-0.1l0.7,0.1l0.5,0.4l0.3,0.6l0.1,0.9H838.2
		L838.2-117.5z M845.1-113.5h1.1v-3.8l0.1-0.9l0.3-0.7l0.5-0.4l0.7-0.1l0.5,0.1l0.4,0.2l0.2,0.4l0.1,0.6h1.1l-0.1-1l-0.4-0.7
		l-0.7-0.4l-0.9-0.1l-0.6,0.1l-0.5,0.2l-0.5,0.4l-0.4,0.6v-1.1h-1V-113.5L845.1-113.5z M853.6-119.1v3.3l0.1,1.1l0.3,0.7l0.7,0.4
		l1.2,0.1l1.3-0.1v-0.9l-0.9,0.1l-0.9-0.1l-0.5-0.3l-0.2-0.5l0-0.7v-3.2h2.5v-0.9h-2.5v-1.9h-1.1v1.9h-1.9v0.9H853.6L853.6-119.1z
		 M863-114.5v-5.5h-2.8v0.9h1.7v4.6h-2.2v0.9h5.6v-0.9H863L863-114.5z M863-122.5h-1.2v1.2h1.2V-122.5L863-122.5z M871.4-118h1.1
		l-0.2-1l-0.5-0.8l-0.8-0.5l-1.1-0.2l-1.2,0.2l-0.9,0.7l-0.6,1.1l-0.2,1.5l0.2,1.5l0.6,1.1l0.9,0.7l1.2,0.2l1.1-0.2l0.8-0.5l0.6-0.8
		l0.2-1.1h-1l-0.2,0.7l-0.3,0.5l-0.5,0.3l-0.6,0.1l-0.8-0.2l-0.5-0.5l-0.3-0.8l-0.1-1.1l0.1-1.1l0.3-0.8l0.6-0.5l0.7-0.2l0.6,0.1
		l0.5,0.3l0.3,0.5L871.4-118L871.4-118z M878.5-114.4L878.5-114.4l0.1,0.5l0.2,0.3l0.8,0.2l0.6-0.1v-0.8l-0.3,0l-0.3-0.2l-0.1-0.5
		v-3.4l-0.1-0.9l-0.4-0.6l-0.8-0.4l-1.1-0.1l-1,0.1l-0.8,0.4l-0.5,0.7l-0.2,0.9v0.1h1l0.1-0.5l0.3-0.4l0.4-0.2l0.6-0.1l0.6,0.1
		l0.4,0.2l0.3,0.3l0.1,0.4l0,0.5l-0.2,0.3l-0.5,0.1l-0.9,0.1l-1.1,0.2l-0.8,0.4l-0.4,0.6l-0.1,0.9l0.1,0.8l0.4,0.6l0.6,0.4l0.9,0.1
		l1.2-0.3L878.5-114.4L878.5-114.4z M878.4-115.9l-0.1,0.6l-0.4,0.5l-0.6,0.3l-0.7,0.1l-0.5-0.1l-0.3-0.2l-0.2-0.3l-0.1-0.5l0.1-0.4
		l0.2-0.3l0.8-0.3l1-0.1l0.9-0.3V-115.9L878.4-115.9z M884.2-121.5v7.1H882v0.9h5.6v-0.9h-2.2v-8h-2.8v0.9H884.2L884.2-121.5z"/>
</g>
<g>
	<path d="M852.7,398.8h1.9v-6.1h2l1.4,0.1l0.9,0.3l0.5,0.7l0.2,1.2l0.1,1.9l0.1,1.2l0.2,0.7h2.2v-0.4l-0.5-0.6l-0.2-1.1l-0.1-2.3
		l-0.4-1.7l-0.5-0.5l-0.7-0.4l0.8-0.5l0.6-0.7l0.4-0.9l0.1-1.1l-0.3-1.7l-0.8-1.3l-1.4-0.8l-1.9-0.3h-4.8V398.8L852.7,398.8z
		 M857,386.2l1.3,0.1l0.9,0.4l0.6,0.7l0.2,1.1l-0.2,1.2l-0.6,0.7l-0.9,0.4l-1.3,0.1h-2.2v-4.8H857L857,386.2z M867.1,393.8h7.3
		l0-0.8l-0.3-2.4l-0.9-1.8l-1.4-1.1l-1.9-0.4l-1.9,0.4l-1.4,1.2l-0.9,1.9l-0.3,2.5l0.3,2.5l0.9,1.9l1.4,1.2l1.9,0.4l1.6-0.3l1.3-0.7
		l1-1.1l0.6-1.5h-1.8l-0.4,0.8l-0.5,0.6l-1.5,0.5l-1.2-0.2l-0.9-0.7l-0.6-1.2L867.1,393.8L867.1,393.8L867.1,393.8z M867.1,392.3
		l0.2-1.4l0.6-1.1l0.8-0.6l1.1-0.2l1.1,0.2l0.8,0.6l0.5,1.1l0.2,1.4H867.1L867.1,392.3z M884.5,397.4L884.5,397.4l0.1,0.8l0.3,0.5
		l1.3,0.4l1-0.2v-1.4l-0.4,0.1l-0.6-0.3l-0.1-0.8v-5.7l-0.2-1.5l-0.7-1l-1.3-0.6l-1.8-0.2l-1.7,0.2l-1.3,0.7l-0.8,1.1l-0.3,1.4v0.1
		h1.6l0.1-0.9l0.5-0.6l0.7-0.4l1.1-0.1l1,0.1l0.7,0.3l0.4,0.5l0.1,0.7l-0.1,0.9l-0.3,0.4l-0.8,0.2l-1.5,0.2l-1.8,0.4l-1.3,0.7
		l-0.7,1l-0.2,1.5l0.2,1.4l0.6,1l1,0.6l1.4,0.2l1.9-0.4L884.5,397.4L884.5,397.4z M884.3,394.9l-0.2,1.1l-0.7,0.8l-1,0.5l-1.2,0.2
		l-0.8-0.1l-0.6-0.3l-0.4-0.6l-0.1-0.8l0.1-0.7l0.3-0.5l1.3-0.6l1.7-0.2l1.5-0.5V394.9L884.3,394.9z M891.1,398.8h1.8v-6.3l0.2-1.5
		l0.6-1.1l0.9-0.7l1.2-0.2l0.9,0.1l0.7,0.4l0.4,0.7l0.1,0.9h1.8l-0.2-1.7l-0.7-1.2l-1.1-0.7l-1.5-0.2l-1.1,0.2l-0.9,0.4l-0.8,0.7
		l-0.6,1v-1.8h-1.7V398.8L891.1,398.8z M900.9,402.3v1.4h12.4v-1.4H900.9L900.9,402.3z M914.9,398.8h1.9v-6.1h2l1.4,0.1l0.9,0.3
		l0.5,0.7l0.2,1.2l0.1,1.9l0.1,1.2l0.2,0.7h2.2v-0.4l-0.5-0.6l-0.2-1.1l-0.1-2.3l-0.4-1.7l-0.5-0.5l-0.7-0.4l0.8-0.5l0.6-0.7
		l0.4-0.9l0.1-1.1l-0.3-1.7l-0.8-1.3l-1.4-0.8l-1.9-0.3h-4.8V398.8L914.9,398.8z M919.2,386.2l1.3,0.1l0.9,0.4l0.6,0.7l0.2,1.1
		l-0.2,1.2l-0.6,0.7l-0.9,0.4l-1.3,0.1h-2.2v-4.8H919.2L919.2,386.2z M933.3,397.3v-9.2h-4.7v1.5h2.9v7.7h-3.7v1.5h9.3v-1.5H933.3
		L933.3,397.3z M933.3,384h-1.9v2.1h1.9V384L933.3,384z M948.8,398.3v-10.6h-1.7v1.8l-1.4-1.6l-0.9-0.4l-1-0.1l-1.8,0.4l-1.4,1.2
		l-0.9,1.9l-0.3,2.5l0.3,2.5l0.9,1.9l1.4,1.2l1.8,0.4l1-0.1l0.8-0.4l1.4-1.6v1.6l-0.2,1.2l-0.5,0.9l-0.9,0.5l-1.3,0.2l-1.1-0.1
		l-0.8-0.3l-0.5-0.5l-0.1-0.7H940v0.1l0.3,1.3l0.8,1l1.3,0.6l1.8,0.2l2.1-0.3l1.4-0.9l0.8-1.5L948.8,398.3L948.8,398.3z
		 M941.4,393.3l0.2-1.8l0.6-1.4l0.9-0.8l1.2-0.3l1.2,0.3l0.9,0.8l0.6,1.4l0.2,1.8l-0.2,1.9l-0.6,1.3l-0.9,0.8l-1.2,0.3l-1.2-0.3
		l-0.9-0.8l-0.6-1.4L941.4,393.3L941.4,393.3z M952.6,398.8h1.8v-6.4l0.2-1.5l0.6-1.1l0.9-0.7l1.2-0.2l1,0.2l0.6,0.6l0.3,0.9
		l0.1,1.2v6.9h1.8v-7.3l-0.1-1.5l-0.4-1.2l-1.2-1.1l-1.9-0.4l-1,0.1l-0.9,0.4l-0.7,0.6l-0.6,0.8V384h-1.8V398.8L952.6,398.8z
		 M967.5,389.7v5.6l0.1,1.8l0.6,1.2l1.2,0.7l2,0.2l2.1-0.1v-1.6l-1.6,0.1l-1.4-0.2l-0.8-0.5l-0.3-0.9l-0.1-1.2v-5.3h4.2v-1.5h-4.2
		v-3.2h-1.8v3.2h-3.1v1.5H967.5L967.5,389.7z M975.6,402.3v1.4H988v-1.4H975.6L975.6,402.3z M989.3,393.4l0.3,2.6l0.9,1.8l1.5,1.1
		l2.2,0.4l2.2-0.4l1.5-1.1l0.9-1.8l0.3-2.6v-8.9h-1.9v9l-0.2,1.8l-0.6,1.3l-0.9,0.7l-1.3,0.2l-1.4-0.2l-0.9-0.7l-0.6-1.2l-0.2-1.8
		v-9h-1.9V393.4L989.3,393.4z M1004.1,389.4v-1.7h-1.8v15.4h1.8v-6l0.6,1l0.7,0.6l1.8,0.5l1.7-0.4l1.4-1.2l0.9-1.9l0.3-2.5l-0.3-2.5
		l-0.9-1.9l-1.4-1.2l-1.7-0.4l-1,0.1l-0.8,0.4l-0.7,0.7L1004.1,389.4L1004.1,389.4z M1007,397.6l-1.2-0.3l-0.9-0.8l-0.6-1.3
		l-0.2-1.9l0.2-1.9l0.6-1.3l0.9-0.8l1.2-0.3l1.1,0.3l0.9,0.8l0.6,1.3l0.2,1.8l-0.2,1.9l-0.6,1.4l-0.9,0.8L1007,397.6L1007,397.6z
		 M1016.6,389.4v-1.7h-1.8v15.4h1.8v-6l0.6,1l0.7,0.6l1.8,0.5l1.7-0.4l1.4-1.2l0.9-1.9l0.3-2.5l-0.3-2.5l-0.9-1.9l-1.4-1.2l-1.7-0.4
		l-1,0.1l-0.8,0.4l-0.7,0.7L1016.6,389.4L1016.6,389.4z M1019.4,397.6l-1.2-0.3l-0.9-0.8l-0.6-1.3l-0.2-1.9l0.2-1.9l0.6-1.3l0.9-0.8
		l1.2-0.3l1.1,0.3l0.9,0.8l0.6,1.3l0.2,1.8l-0.2,1.9l-0.6,1.4l-0.9,0.8L1019.4,397.6L1019.4,397.6z M1028.9,393.8h7.3l0-0.8
		l-0.3-2.4l-0.9-1.8l-1.4-1.1l-1.9-0.4l-1.9,0.4l-1.4,1.2l-0.9,1.9l-0.3,2.5l0.3,2.5l0.9,1.9l1.4,1.2l1.9,0.4l1.6-0.3l1.3-0.7l1-1.1
		l0.6-1.5h-1.8l-0.4,0.8l-0.5,0.6l-1.5,0.5l-1.2-0.2l-0.9-0.7l-0.6-1.2L1028.9,393.8L1028.9,393.8L1028.9,393.8z M1028.9,392.3
		l0.2-1.4l0.6-1.1l0.8-0.6l1.1-0.2l1.1,0.2l0.8,0.6l0.5,1.1l0.2,1.4H1028.9L1028.9,392.3z M1040.4,398.8h1.8v-6.3l0.2-1.5l0.6-1.1
		l0.9-0.7l1.2-0.2l0.9,0.1l0.7,0.4l0.4,0.7l0.1,0.9h1.8l-0.2-1.7l-0.7-1.2l-1.1-0.7l-1.5-0.2l-1.1,0.2l-0.9,0.4l-0.8,0.7l-0.6,1
		v-1.8h-1.7V398.8L1040.4,398.8z M1062.6,398.8h1.9l1.5-4.2h5.7l1.5,4.2h1.9l-5.3-14.4h-2.1L1062.6,398.8L1062.6,398.8z
		 M1066.7,392.9l2.2-6.3l2.2,6.3H1066.7L1066.7,392.9z M1078.9,394.1h5v-1.6h-5V394.1L1078.9,394.1z M1087.5,398.8h1.9l1.5-4.2h5.7
		l1.5,4.2h1.9l-5.3-14.4h-2.1L1087.5,398.8L1087.5,398.8z M1091.6,392.9l2.2-6.3l2.2,6.3H1091.6L1091.6,392.9z M1102.7,398.8h1.8
		v-6.3l0.2-1.5l0.6-1.1l0.9-0.7l1.2-0.2l0.9,0.1l0.7,0.4l0.4,0.7l0.1,0.9h1.8l-0.2-1.7l-0.7-1.2l-1.1-0.7l-1.6-0.2l-1.1,0.2
		l-0.9,0.4l-0.8,0.7l-0.6,1v-1.8h-1.7V398.8L1102.7,398.8z M1113.7,398.8h1.7v-7.4l0.1-1.1l0.3-0.8l0.5-0.5l0.6-0.2l0.5,0.2l0.3,0.4
		l0.2,0.7l0.1,0.9v7.8h1.6v-7.4l0.1-1.1l0.3-0.8l0.5-0.5l0.6-0.2l0.5,0.2l0.3,0.4l0.2,1.6v7.8h1.7v-7.7l-0.1-1.6l-0.3-1.2l-0.7-0.7
		l-1.1-0.3l-1.3,0.4l-1,1.2l-0.8-1.2l-1.3-0.4l-1.2,0.4l-0.8,1.2v-1.2h-1.6V398.8L1113.7,398.8z"/>
</g>
<g>
	<path d="M927.6,423.6h1.9v-6.1h2.1l2.1-0.1l1.7-0.7l1.1-1.4l0.4-1.9l-0.3-1.8l-0.8-1.3l-1.4-0.8l-1.9-0.3h-5V423.6L927.6,423.6z
		 M932.1,411l1.2,0.1l0.9,0.4l0.5,0.7l0.2,1.1l-0.2,1.2l-0.6,0.7l-0.9,0.4l-1.3,0.1h-2.4V411H932.1L932.1,411z M943.8,410.3v11.8
		H940v1.5h9.3v-1.5h-3.7v-13.3h-4.7v1.5H943.8L943.8,410.3z M959.2,422.2L959.2,422.2l0.1,0.8l0.3,0.5l1.3,0.4l1-0.2v-1.4l-0.4,0.1
		l-0.6-0.3l-0.1-0.8v-5.7l-0.2-1.5l-0.7-1l-1.3-0.6l-1.8-0.2l-1.7,0.2l-1.3,0.7l-0.8,1.1l-0.3,1.4v0.1h1.6l0.1-0.9l0.5-0.6l0.7-0.4
		l1.1-0.1l1,0.1l0.7,0.3l0.4,0.5l0.1,0.7l-0.1,0.9l-0.3,0.4l-0.8,0.2l-1.5,0.2l-1.8,0.4l-1.3,0.7l-0.7,1l-0.2,1.5l0.2,1.4l0.6,1
		l1,0.6l1.4,0.2l1.9-0.4L959.2,422.2L959.2,422.2z M959,419.7l-0.2,1.1l-0.7,0.8l-1,0.5l-1.2,0.2l-0.8-0.1l-0.6-0.3l-0.4-0.6
		l-0.1-0.8l0.1-0.7l0.3-0.5l1.3-0.6l1.7-0.2l1.5-0.5V419.7L959,419.7z M971.9,414.2l-0.6-0.9l-0.7-0.7l-0.8-0.4l-1-0.1l-1.8,0.4
		l-1.4,1.2l-0.9,1.9l-0.3,2.5l0.3,2.5l0.9,1.9l1.4,1.2l1.8,0.4l1-0.1l0.8-0.4l0.7-0.6l0.7-1v6h1.8v-15.4h-1.8V414.2L971.9,414.2z
		 M966.2,418.1l0.2-1.8l0.6-1.3l0.9-0.8l1.1-0.3l1.2,0.3l0.9,0.8l0.5,1.3l0.2,1.9l-0.2,1.9l-0.5,1.3l-0.9,0.8l-1.2,0.3l-1.1-0.3
		l-0.9-0.8l-0.6-1.4L966.2,418.1L966.2,418.1z M986.1,412.5h-1.8v6.4l-0.2,1.5l-0.6,1.1l-0.9,0.7l-1.2,0.2l-1-0.2l-0.6-0.5l-0.4-0.8
		l-0.1-1.2v-7.1h-1.8v7.3l0.1,1.5l0.4,1.2l1.2,1.1l1.9,0.4l1-0.1l0.9-0.4l0.8-0.6l0.6-0.9v1.7h1.7V412.5L986.1,412.5z M991.5,418.6
		h7.3l0-0.8l-0.3-2.4l-0.9-1.8l-1.4-1.1l-1.9-0.4l-1.9,0.4l-1.4,1.2l-0.9,1.9l-0.3,2.5l0.3,2.5l0.9,1.9l1.4,1.2l1.9,0.4l1.6-0.3
		l1.3-0.7l1-1.1l0.6-1.5h-1.8l-0.4,0.8l-0.5,0.6l-1.5,0.5l-1.2-0.2l-0.9-0.7l-0.6-1.2L991.5,418.6L991.5,418.6L991.5,418.6z
		 M991.5,417.1l0.2-1.4l0.6-1.1l0.8-0.6l1.1-0.2l1.1,0.2l0.8,0.6l0.5,1.1l0.2,1.4H991.5L991.5,417.1z M1000.5,427.1v1.4h12.4v-1.4
		H1000.5L1000.5,427.1z M1021.7,415.9l1.4-1.2l0.4-0.8l0.1-1l-0.3-1.6l-0.8-1.1l-1.3-0.7l-1.8-0.2h-5.1v14.3h5.4l1.9-0.3l1.4-0.8
		l0.9-1.3l0.3-1.8l-0.2-1.2l-0.5-1l-0.8-0.7L1021.7,415.9L1021.7,415.9z M1019.1,415.2h-2.8V411h3l1.1,0.1l0.8,0.4l0.5,0.6l0.2,1
		l-0.2,0.9l-0.5,0.7l-0.8,0.4L1019.1,415.2L1019.1,415.2z M1019.5,421.9h-3.3V417h3.1l1.3,0.1l0.9,0.4l0.6,0.7l0.2,1.1l-0.2,1.1
		l-0.5,0.8l-0.9,0.5L1019.5,421.9L1019.5,421.9z M1033.9,422.2L1033.9,422.2l0.1,0.8l0.3,0.5l1.3,0.4l1-0.2v-1.4l-0.4,0.1l-0.6-0.3
		l-0.1-0.8v-5.7l-0.2-1.5l-0.7-1l-1.3-0.6l-1.8-0.2l-1.7,0.2l-1.3,0.7l-0.8,1.1l-0.3,1.4v0.1h1.6l0.1-0.9l0.5-0.6l0.7-0.4l1.1-0.1
		l1,0.1l0.7,0.3l0.4,0.5l0.1,0.7l-0.1,0.9l-0.3,0.4l-0.8,0.2l-1.5,0.2l-1.8,0.4l-1.3,0.7l-0.7,1l-0.2,1.5l0.2,1.4l0.6,1l1,0.6
		l1.4,0.2l1.9-0.4L1033.9,422.2L1033.9,422.2z M1033.7,419.7l-0.2,1.1l-0.7,0.8l-1,0.5l-1.2,0.2l-0.8-0.1l-0.6-0.3l-0.4-0.6
		l-0.1-0.8l0.1-0.7l0.3-0.5l1.3-0.6l1.7-0.2l1.5-0.5V419.7L1033.7,419.7z M1045.2,417.2l-1.8-0.4l-1.3-0.5l-0.4-1l0.1-0.7l0.4-0.5
		l0.7-0.3l1-0.1l1,0.1l0.8,0.4l0.5,0.6l0.2,0.7h1.8v0l-0.3-1.3l-0.8-1.1l-1.3-0.7l-1.7-0.2l-1.8,0.2l-1.3,0.7l-0.8,1l-0.2,1.3
		l0.2,1.2l0.6,0.9l0.9,0.6l1.4,0.4l2,0.5l1.2,0.5l0.3,0.4l0.1,0.6l-0.2,0.8l-0.5,0.6l-0.8,0.4l-1.1,0.1l-1.1-0.1l-0.8-0.4l-0.6-0.7
		l-0.2-1h-1.8l0.3,1.7l0.8,1.2l1.3,0.7l1.9,0.3l1.9-0.3l1.4-0.7l0.9-1.2l0.3-1.5l-0.2-1.3l-0.6-0.9l-1.1-0.6L1045.2,417.2
		L1045.2,417.2z"/>
</g>
<g>
	<path d="M1566,991.8h1.9v-6.1h2l1.4,0.1l0.9,0.3l0.5,0.7l0.2,1.2l0.1,1.9l0.1,1.2l0.2,0.7h2.2v-0.4l-0.5-0.6l-0.2-1.1l-0.1-2.3
		l-0.4-1.7l-0.5-0.5l-0.7-0.4l0.8-0.5l0.6-0.7l0.4-0.9l0.1-1.1l-0.3-1.7l-0.8-1.3l-1.4-0.8l-1.9-0.3h-4.8V991.8L1566,991.8z
		 M1570.2,979.2l1.3,0.1l0.9,0.4l0.6,0.7l0.2,1.1l-0.2,1.2l-0.6,0.7l-0.9,0.4l-1.3,0.1h-2.2v-4.8H1570.2L1570.2,979.2z
		 M1580.3,986.8h7.3l0-0.8l-0.3-2.4l-0.9-1.8l-1.4-1.1l-1.9-0.4l-1.9,0.4l-1.4,1.2l-0.9,1.9l-0.3,2.5l0.3,2.5l0.9,1.9l1.4,1.2
		l1.9,0.4l1.6-0.3l1.3-0.7l1-1.1l0.6-1.5h-1.8l-0.4,0.8l-0.5,0.6l-1.5,0.5l-1.2-0.2l-0.9-0.7l-0.6-1.2L1580.3,986.8L1580.3,986.8
		L1580.3,986.8z M1580.3,985.3l0.2-1.4l0.6-1.1l0.8-0.6l1.1-0.2l1.1,0.2l0.8,0.6l0.5,1.1l0.2,1.4H1580.3L1580.3,985.3z
		 M1597.8,990.4L1597.8,990.4l0.1,0.8l0.3,0.5l1.3,0.4l1-0.2v-1.4l-0.4,0.1l-0.6-0.3l-0.1-0.8v-5.7l-0.2-1.5l-0.7-1l-1.3-0.6
		l-1.8-0.2l-1.7,0.2l-1.3,0.7l-0.8,1.1l-0.3,1.4v0.1h1.6l0.1-0.9l0.5-0.6l0.7-0.4l1.1-0.1l1,0.1l0.7,0.3l0.4,0.5l0.1,0.7l-0.1,0.9
		l-0.3,0.4l-0.8,0.2l-1.5,0.2l-1.8,0.4l-1.3,0.7l-0.7,1l-0.2,1.5l0.2,1.4l0.6,1l1,0.6l1.4,0.2l1.9-0.4L1597.8,990.4L1597.8,990.4z
		 M1597.6,987.9l-0.2,1.1l-0.7,0.8l-1,0.5l-1.2,0.2l-0.8-0.1l-0.6-0.3l-0.4-0.6l-0.1-0.8l0.1-0.7l0.3-0.5l1.3-0.6l1.7-0.2l1.5-0.5
		V987.9L1597.6,987.9z M1604.3,991.8h1.8v-6.3l0.2-1.5l0.6-1.1l0.9-0.7l1.2-0.2l0.9,0.1l0.7,0.4l0.4,0.7l0.1,1h1.8l-0.2-1.7
		l-0.7-1.2l-1.1-0.7l-1.5-0.2l-1.1,0.2l-0.9,0.4l-0.8,0.7l-0.6,1v-1.8h-1.7V991.8L1604.3,991.8z M1614.1,995.3v1.4h12.4v-1.4H1614.1
		L1614.1,995.3z M1628.2,991.8h1.9v-6.1h2l1.4,0.1l0.9,0.3l0.5,0.7l0.2,1.2l0.1,1.9l0.1,1.2l0.2,0.7h2.2v-0.4l-0.5-0.6l-0.2-1.1
		l-0.1-2.3l-0.4-1.7l-0.5-0.5l-0.7-0.4l0.8-0.5l0.6-0.7l0.4-0.9l0.1-1.1l-0.3-1.7l-0.8-1.3l-1.4-0.8l-1.9-0.3h-4.8V991.8
		L1628.2,991.8z M1632.5,979.2l1.3,0.1l0.9,0.4l0.6,0.7l0.2,1.1l-0.2,1.2l-0.6,0.7l-1,0.4l-1.3,0.1h-2.2v-4.8H1632.5L1632.5,979.2z
		 M1646.5,990.3v-9.2h-4.7v1.5h2.9v7.7h-3.7v1.5h9.3v-1.5H1646.5L1646.5,990.3z M1646.6,977h-1.9v2.1h1.9V977L1646.6,977z
		 M1662.1,991.3v-10.6h-1.7v1.8l-1.4-1.6l-0.9-0.4l-1-0.1l-1.8,0.4l-1.4,1.2l-0.9,1.9l-0.3,2.5l0.3,2.5l0.9,1.9l1.4,1.2l1.8,0.4
		l1-0.1l0.8-0.4l1.4-1.6v1.6l-0.2,1.2l-0.5,0.9l-0.9,0.5l-1.3,0.2l-1.1-0.1l-0.8-0.3l-0.5-0.5l-0.1-0.7h-1.8v0.1l0.3,1.3l0.8,1
		l1.3,0.6l1.8,0.2l2.1-0.3l1.4-0.9l0.8-1.5L1662.1,991.3L1662.1,991.3z M1654.6,986.3l0.2-1.8l0.6-1.4l0.9-0.8l1.2-0.3l1.2,0.3
		l0.9,0.8l0.6,1.4l0.2,1.8l-0.2,1.9l-0.6,1.3l-0.9,0.8l-1.2,0.3l-1.2-0.3l-0.9-0.8l-0.6-1.4L1654.6,986.3L1654.6,986.3z
		 M1665.9,991.8h1.8v-6.4l0.2-1.5l0.6-1.1l0.9-0.7l1.2-0.2l1,0.2l0.6,0.6l0.3,0.9l0.1,1.2v6.9h1.8v-7.3l-0.1-1.5l-0.4-1.2l-1.2-1.1
		l-1.9-0.4l-1,0.1l-0.9,0.4l-0.7,0.6l-0.6,0.8V977h-1.8V991.8L1665.9,991.8z M1680.8,982.7v5.6l0.1,1.8l0.6,1.2l1.2,0.7l2,0.2
		l2.1-0.1v-1.6l-1.6,0.1l-1.4-0.2l-0.8-0.5l-0.3-0.9l-0.1-1.2v-5.3h4.2v-1.5h-4.2v-3.2h-1.8v3.2h-3.1v1.5H1680.8L1680.8,982.7z
		 M1688.8,995.3v1.4h12.4v-1.4H1688.8L1688.8,995.3z M1702.6,986.4l0.3,2.6l0.9,1.8l1.5,1.1l2.2,0.4l2.2-0.4l1.5-1.1l0.9-1.8
		l0.3-2.6v-8.9h-1.9v9l-0.2,1.8l-0.6,1.3l-1,0.7l-1.3,0.2l-1.4-0.2l-1-0.7l-0.6-1.2l-0.2-1.8v-9h-1.9V986.4L1702.6,986.4z
		 M1717.4,982.4v-1.7h-1.8v15.4h1.8v-6l0.6,1l0.7,0.6l1.8,0.5l1.7-0.4l1.4-1.2l0.9-1.9l0.3-2.5l-0.3-2.5l-0.9-1.9l-1.4-1.2l-1.7-0.4
		l-1,0.1l-0.8,0.4l-0.7,0.7L1717.4,982.4L1717.4,982.4z M1720.3,990.6l-1.2-0.3l-0.9-0.8l-0.6-1.3l-0.2-1.9l0.2-1.9l0.6-1.3l0.9-0.8
		l1.2-0.3l1.1,0.3l0.9,0.8l0.6,1.3l0.2,1.8l-0.2,1.9l-0.6,1.4l-0.9,0.8L1720.3,990.6L1720.3,990.6z M1729.8,982.4v-1.7h-1.8v15.4
		h1.8v-6l0.6,1l0.7,0.6l1.8,0.5l1.7-0.4l1.4-1.2l0.9-1.9l0.3-2.5l-0.3-2.5l-0.9-1.9l-1.4-1.2l-1.7-0.4l-1,0.1l-0.8,0.4l-0.7,0.7
		L1729.8,982.4L1729.8,982.4z M1732.7,990.6l-1.2-0.3l-0.9-0.8l-0.6-1.3l-0.2-1.9l0.2-1.9l0.6-1.3l0.9-0.8l1.2-0.3l1.1,0.3l0.9,0.8
		l0.6,1.3l0.2,1.8l-0.2,1.9l-0.6,1.4l-0.9,0.8L1732.7,990.6L1732.7,990.6z M1742.2,986.8h7.3l0-0.8l-0.3-2.4l-0.9-1.8l-1.4-1.1
		l-1.9-0.4l-1.9,0.4l-1.4,1.2l-0.9,1.9l-0.3,2.5l0.3,2.5l0.9,1.9l1.4,1.2l1.9,0.4l1.6-0.3l1.3-0.7l1-1.1l0.6-1.5h-1.8l-0.4,0.8
		l-0.5,0.6l-1.5,0.5l-1.2-0.2l-0.9-0.7l-0.6-1.2L1742.2,986.8L1742.2,986.8L1742.2,986.8z M1742.2,985.3l0.2-1.4l0.6-1.1l0.8-0.6
		l1.1-0.2l1.1,0.2l0.8,0.6l0.5,1.1l0.2,1.4H1742.2L1742.2,985.3z M1753.7,991.8h1.8v-6.3l0.2-1.5l0.6-1.1l0.9-0.7l1.2-0.2l0.9,0.1
		l0.7,0.4l0.4,0.7l0.1,1h1.8l-0.2-1.7l-0.7-1.2l-1.1-0.7l-1.6-0.2l-1.1,0.2l-0.9,0.4l-0.8,0.7l-0.6,1v-1.8h-1.7V991.8L1753.7,991.8z
		 M1775.9,991.8h1.9l1.5-4.2h5.7l1.5,4.2h2l-5.3-14.4h-2.1L1775.9,991.8L1775.9,991.8z M1780,985.9l2.2-6.3l2.2,6.3H1780L1780,985.9
		z M1792.1,987.1h5v-1.6h-5V987.1L1792.1,987.1z M1800.8,991.8h1.9l1.5-4.2h5.7l1.5,4.2h2l-5.3-14.4h-2.1L1800.8,991.8L1800.8,991.8
		z M1804.9,985.9l2.2-6.3l2.2,6.3H1804.9L1804.9,985.9z M1815.9,991.8h1.8v-6.3l0.2-1.5l0.6-1.1l0.9-0.7l1.2-0.2l0.9,0.1l0.7,0.4
		l0.4,0.7l0.1,1h1.8l-0.3-1.7l-0.7-1.2l-1.1-0.7l-1.5-0.2l-1.1,0.2l-0.9,0.4l-0.8,0.7l-0.6,1v-1.8h-1.7V991.8L1815.9,991.8z
		 M1827,991.8h1.7v-7.4l0.1-1.1l0.3-0.8l0.5-0.5l0.6-0.2l0.5,0.2l0.3,0.4l0.1,0.7l0.1,0.9v7.8h1.5v-7.4l0.1-1.1l0.3-0.8l0.5-0.5
		l0.6-0.2l0.5,0.2l0.3,0.4l0.2,1.6v7.8h1.7v-7.7l-0.1-1.6l-0.3-1.2l-0.7-0.7l-1.1-0.3l-1.3,0.4l-0.9,1.2l-0.8-1.2l-1.3-0.4l-1.2,0.4
		l-0.8,1.2v-1.2h-1.6V991.8L1827,991.8z"/>
</g>
<g>
	<path d="M1640.9,1016.6h1.9v-6.1h2.1l2.1-0.1l1.7-0.7l1.1-1.4l0.4-1.9l-0.3-1.8l-0.8-1.3l-1.4-0.8l-1.9-0.3h-5V1016.6
		L1640.9,1016.6z M1645.3,1004l1.2,0.1l0.9,0.4l0.5,0.7l0.2,1.1l-0.2,1.2l-0.6,0.7l-0.9,0.4l-1.3,0.1h-2.4v-4.8H1645.3L1645.3,1004z
		 M1657,1003.3v11.8h-3.7v1.5h9.3v-1.5h-3.7v-13.3h-4.7v1.5H1657L1657,1003.3z M1672.5,1015.2L1672.5,1015.2l0.1,0.8l0.3,0.5
		l1.3,0.4l1-0.2v-1.4l-0.4,0.1l-0.6-0.3l-0.1-0.8v-5.7l-0.2-1.5l-0.7-1l-1.3-0.6l-1.8-0.2l-1.7,0.2l-1.3,0.7l-0.8,1.1l-0.3,1.4v0.1
		h1.6l0.1-0.9l0.5-0.6l0.7-0.4l1.1-0.1l1,0.1l0.7,0.3l0.4,0.5l0.1,0.7l-0.1,0.9l-0.3,0.4l-0.8,0.2l-1.5,0.2l-1.8,0.4l-1.3,0.7
		l-0.7,1l-0.2,1.5l0.2,1.4l0.6,1l1,0.6l1.4,0.2l1.9-0.4L1672.5,1015.2L1672.5,1015.2z M1672.3,1012.7l-0.2,1.1l-0.7,0.8l-1,0.5
		l-1.2,0.2l-0.8-0.1l-0.6-0.3l-0.4-0.6l-0.1-0.8l0.1-0.7l0.3-0.5l1.3-0.6l1.7-0.2l1.5-0.5V1012.7L1672.3,1012.7z M1685.1,1007.2
		l-0.6-0.9l-0.7-0.7l-0.8-0.4l-1-0.1l-1.8,0.4l-1.4,1.2l-0.9,1.9l-0.3,2.5l0.3,2.5l0.9,1.9l1.4,1.2l1.8,0.4l1-0.1l0.8-0.3l0.7-0.6
		l0.7-1v6h1.8v-15.4h-1.8V1007.2L1685.1,1007.2z M1679.5,1011.1l0.2-1.8l0.6-1.3l0.9-0.8l1.1-0.3l1.2,0.3l0.9,0.8l0.5,1.3l0.2,1.9
		l-0.2,1.9l-0.5,1.3l-0.9,0.8l-1.2,0.3l-1.1-0.3l-0.9-0.8l-0.6-1.4L1679.5,1011.1L1679.5,1011.1z M1699.3,1005.5h-1.8v6.4l-0.2,1.5
		l-0.6,1.1l-0.9,0.7l-1.2,0.2l-1-0.2l-0.6-0.5l-0.4-0.8l-0.1-1.2v-7.1h-1.8v7.3l0.1,1.5l0.4,1.2l1.2,1.1l1.9,0.4l1-0.1l0.9-0.4
		l0.8-0.6l0.6-0.9v1.7h1.7V1005.5L1699.3,1005.5z M1704.8,1011.6h7.3l0-0.8l-0.3-2.4l-0.9-1.8l-1.4-1.1l-1.9-0.4l-1.9,0.4l-1.4,1.2
		l-0.9,1.9l-0.3,2.5l0.3,2.5l0.9,1.9l1.4,1.2l1.9,0.4l1.6-0.3l1.3-0.7l1-1.1l0.6-1.5h-1.8l-0.4,0.8l-0.5,0.6l-1.5,0.5l-1.2-0.2
		l-0.9-0.7l-0.6-1.2L1704.8,1011.6L1704.8,1011.6L1704.8,1011.6z M1704.8,1010.1l0.2-1.4l0.6-1.1l0.8-0.6l1.1-0.2l1.1,0.2l0.8,0.6
		l0.5,1.1l0.2,1.4H1704.8L1704.8,1010.1z M1713.7,1020.1v1.4h12.5v-1.4H1713.7L1713.7,1020.1z M1735,1008.9l1.4-1.2l0.4-0.8l0.1-1
		l-0.3-1.5l-0.8-1.1l-1.3-0.7l-1.8-0.2h-5.1v14.3h5.4l1.9-0.3l1.4-0.8l0.9-1.3l0.3-1.8l-0.2-1.2l-0.5-1l-0.8-0.7L1735,1008.9
		L1735,1008.9z M1732.3,1008.2h-2.8v-4.2h3l1.1,0.1l0.8,0.4l0.5,0.6l0.2,0.9l-0.2,1l-0.5,0.7l-0.8,0.4L1732.3,1008.2L1732.3,1008.2z
		 M1732.8,1014.9h-3.3v-4.9h3.1l1.3,0.1l0.9,0.4l0.6,0.7l0.2,1.1l-0.2,1.1l-0.5,0.8l-0.9,0.5L1732.8,1014.9L1732.8,1014.9z
		 M1747.2,1015.2L1747.2,1015.2l0.1,0.8l0.3,0.5l1.3,0.4l1-0.2v-1.4l-0.4,0.1l-0.6-0.3l-0.1-0.8v-5.7l-0.2-1.5l-0.7-1l-1.3-0.6
		l-1.8-0.2l-1.7,0.2l-1.3,0.7l-0.8,1.1l-0.3,1.4v0.1h1.6l0.1-0.9l0.5-0.6l0.7-0.4l1.1-0.1l1,0.1l0.7,0.3l0.4,0.5l0.1,0.7l-0.1,0.9
		l-0.3,0.4l-0.8,0.2l-1.6,0.2l-1.8,0.4l-1.3,0.7l-0.7,1l-0.2,1.5l0.2,1.4l0.6,1l1,0.6l1.4,0.2l1.9-0.4L1747.2,1015.2L1747.2,1015.2z
		 M1747,1012.7l-0.2,1.1l-0.7,0.8l-1,0.5l-1.2,0.2l-0.8-0.1l-0.6-0.3l-0.4-0.6l-0.1-0.8l0.1-0.7l0.3-0.5l1.3-0.6l1.7-0.2l1.5-0.5
		V1012.7L1747,1012.7z M1758.5,1010.2l-1.8-0.4l-1.3-0.5l-0.4-1l0.1-0.7l0.4-0.5l0.7-0.3l1-0.1l1,0.1l0.8,0.4l0.5,0.6l0.2,0.7h1.8v0
		l-0.3-1.3l-0.8-1.1l-1.3-0.7l-1.7-0.2l-1.8,0.2l-1.3,0.7l-0.8,1l-0.2,1.3l0.2,1.2l0.6,0.9l0.9,0.6l1.4,0.4l2,0.5l1.2,0.5l0.3,0.4
		l0.1,0.6l-0.2,0.8l-0.5,0.6l-0.8,0.4l-1.1,0.1l-1.1-0.1l-0.8-0.4l-0.6-0.7l-0.2-1h-1.8l0.3,1.7l0.8,1.2l1.3,0.7l1.9,0.3l1.9-0.3
		l1.4-0.7l0.9-1.2l0.3-1.5l-0.2-1.3l-0.6-0.9l-1.1-0.6L1758.5,1010.2L1758.5,1010.2z"/>
</g>
<g>
	<path d="M1573.5-471h0.6v-1.8h0.6l0.4,0l0.3,0.1l0.1,0.2l0.1,0.4l0,0.6l0,0.4l0.1,0.2h0.7v-0.1l-0.1-0.2l0-0.3l0-0.7l-0.1-0.5
		l-0.1-0.2l-0.2-0.1l0.2-0.2l0.2-0.2l0.1-0.3l0-0.3l-0.1-0.5l-0.2-0.4l-0.4-0.2l-0.6-0.1h-1.4V-471L1573.5-471z M1574.8-474.7l0.4,0
		l0.3,0.1l0.2,0.2l0.1,0.3l-0.1,0.4l-0.2,0.2l-0.3,0.1l-0.4,0h-0.7v-1.4H1574.8L1574.8-474.7z M1577.8-472.5h2.2l0-0.3l-0.1-0.7
		l-0.3-0.5l-0.4-0.3l-0.6-0.1l-0.6,0.1l-0.4,0.3l-0.3,0.6l-0.1,0.7l0.1,0.8l0.3,0.6l0.4,0.3l0.6,0.1l0.5-0.1l0.4-0.2l0.3-0.3
		l0.2-0.4h-0.5l-0.1,0.2l-0.2,0.2l-0.5,0.1l-0.4-0.1l-0.3-0.2l-0.2-0.4L1577.8-472.5L1577.8-472.5L1577.8-472.5z M1577.8-472.9
		l0.1-0.4l0.2-0.3l0.3-0.2l0.3-0.1l0.3,0.1l0.3,0.2l0.2,0.3l0.1,0.4H1577.8L1577.8-472.9z M1583-471.4L1583-471.4l0,0.2l0.1,0.1
		l0.4,0.1l0.3,0v-0.4l-0.1,0l-0.2-0.1l0-0.2v-1.7l-0.1-0.4l-0.2-0.3l-0.4-0.2l-0.5-0.1l-0.5,0.1l-0.4,0.2l-0.2,0.3l-0.1,0.4v0h0.5
		l0-0.3l0.1-0.2l0.2-0.1l0.3,0l0.3,0l0.2,0.1l0.1,0.2l0,0.2l0,0.3l-0.1,0.1l-0.2,0.1l-0.5,0l-0.5,0.1l-0.4,0.2l-0.2,0.3l-0.1,0.5
		l0.1,0.4l0.2,0.3l0.3,0.2l0.4,0.1l0.6-0.1L1583-471.4L1583-471.4z M1583-472.1l-0.1,0.3l-0.2,0.2l-0.3,0.2l-0.4,0.1l-0.2,0
		l-0.2-0.1l-0.1-0.2l0-0.2l0-0.2l0.1-0.2l0.4-0.2l0.5-0.1l0.5-0.1V-472.1L1583-472.1z M1585-471h0.5v-1.9l0.1-0.5l0.2-0.3l0.3-0.2
		l0.4-0.1l0.3,0l0.2,0.1l0.1,0.2l0,0.3h0.6l-0.1-0.5l-0.2-0.4l-0.3-0.2l-0.5-0.1l-0.3,0l-0.3,0.1l-0.2,0.2l-0.2,0.3v-0.6h-0.5V-471
		L1585-471z M1588-469.9v0.4h3.7v-0.4H1588L1588-469.9z M1592.2-471h0.6v-1.8h0.6l0.4,0l0.3,0.1l0.1,0.2l0.1,0.4l0,0.6l0,0.4
		l0.1,0.2h0.7v-0.1l-0.1-0.2l0-0.3l0-0.7l-0.1-0.5l-0.1-0.2l-0.2-0.1l0.2-0.2l0.2-0.2l0.1-0.3l0-0.3l-0.1-0.5l-0.2-0.4l-0.4-0.2
		l-0.6-0.1h-1.4V-471L1592.2-471z M1593.4-474.7l0.4,0l0.3,0.1l0.2,0.2l0.1,0.3l-0.1,0.4l-0.2,0.2l-0.3,0.1l-0.4,0h-0.7v-1.4H1593.4
		L1593.4-474.7z M1597.7-471.4v-2.8h-1.4v0.5h0.9v2.3h-1.1v0.5h2.8v-0.5H1597.7L1597.7-471.4z M1597.7-475.4h-0.6v0.6h0.6V-475.4
		L1597.7-475.4z M1602.3-471.1v-3.2h-0.5v0.5l-0.4-0.5l-0.3-0.1l-0.3,0l-0.5,0.1l-0.4,0.3l-0.3,0.6l-0.1,0.7l0.1,0.8l0.3,0.6
		l0.4,0.4l0.5,0.1l0.3,0l0.2-0.1l0.4-0.5v0.5l0,0.4l-0.1,0.3l-0.3,0.2l-0.4,0.1l-0.3,0l-0.2-0.1l-0.1-0.2l0-0.2h-0.5v0l0.1,0.4
		l0.2,0.3l0.4,0.2l0.5,0.1l0.6-0.1l0.4-0.3l0.2-0.5L1602.3-471.1L1602.3-471.1z M1600.1-472.6l0.1-0.6l0.2-0.4l0.3-0.2l0.3-0.1
		l0.4,0.1l0.3,0.2l0.2,0.4l0.1,0.6l-0.1,0.6l-0.2,0.4l-0.3,0.2l-0.4,0.1l-0.3-0.1l-0.3-0.2l-0.2-0.4L1600.1-472.6L1600.1-472.6z
		 M1603.5-471h0.5v-1.9l0.1-0.4l0.2-0.3l0.3-0.2l0.4-0.1l0.3,0.1l0.2,0.2l0.1,0.3l0,0.4v2.1h0.5v-2.2l0-0.4l-0.1-0.4l-0.4-0.3
		l-0.6-0.1l-0.3,0l-0.3,0.1l-0.2,0.2l-0.2,0.3v-1.6h-0.5V-471L1603.5-471z M1607.9-473.7v1.7l0,0.5l0.2,0.4l0.3,0.2l0.6,0.1l0.6,0
		v-0.5l-0.5,0l-0.4,0l-0.2-0.2l-0.1-0.3l0-0.4v-1.6h1.2v-0.5h-1.2v-1h-0.5v1h-0.9v0.5H1607.9L1607.9-473.7z M1610.4-469.9v0.4h3.7
		v-0.4H1610.4L1610.4-469.9z M1614.5-472.6l0.1,0.8l0.3,0.6l0.5,0.3l0.7,0.1l0.7-0.1l0.5-0.3l0.3-0.5l0.1-0.8v-2.7h-0.6v2.7
		l-0.1,0.5l-0.2,0.4l-0.3,0.2l-0.4,0.1l-0.4-0.1l-0.3-0.2l-0.2-0.4l-0.1-0.5v-2.7h-0.6V-472.6L1614.5-472.6z M1618.9-473.8v-0.5
		h-0.5v4.6h0.5v-1.8l0.2,0.3l0.2,0.2l0.5,0.1l0.5-0.1l0.4-0.4l0.3-0.6l0.1-0.8l-0.1-0.7l-0.3-0.6l-0.4-0.3l-0.5-0.1l-0.3,0l-0.3,0.1
		l-0.2,0.2L1618.9-473.8L1618.9-473.8z M1619.8-471.3l-0.4-0.1l-0.3-0.2l-0.2-0.4l-0.1-0.6l0.1-0.6l0.2-0.4l0.3-0.2l0.4-0.1l0.3,0.1
		l0.3,0.2l0.2,0.4l0.1,0.6l-0.1,0.6l-0.2,0.4l-0.3,0.2L1619.8-471.3L1619.8-471.3z M1622.7-473.8v-0.5h-0.5v4.6h0.5v-1.8l0.2,0.3
		l0.2,0.2l0.5,0.1l0.5-0.1l0.4-0.4l0.3-0.6l0.1-0.8l-0.1-0.7l-0.3-0.6l-0.4-0.3l-0.5-0.1l-0.3,0l-0.3,0.1l-0.2,0.2L1622.7-473.8
		L1622.7-473.8z M1623.5-471.3l-0.4-0.1l-0.3-0.2l-0.2-0.4l-0.1-0.6l0.1-0.6l0.2-0.4l0.3-0.2l0.4-0.1l0.3,0.1l0.3,0.2l0.2,0.4
		l0.1,0.6l-0.1,0.6l-0.2,0.4l-0.3,0.2L1623.5-471.3L1623.5-471.3z M1626.4-472.5h2.2l0-0.3l-0.1-0.7l-0.3-0.5l-0.4-0.3l-0.6-0.1
		l-0.6,0.1l-0.4,0.3l-0.3,0.6l-0.1,0.7l0.1,0.8l0.3,0.6l0.4,0.3l0.6,0.1l0.5-0.1l0.4-0.2l0.3-0.3l0.2-0.4h-0.5l-0.1,0.2l-0.2,0.2
		l-0.5,0.1l-0.4-0.1l-0.3-0.2l-0.2-0.4L1626.4-472.5L1626.4-472.5L1626.4-472.5z M1626.4-472.9l0.1-0.4l0.2-0.3l0.3-0.2l0.3-0.1
		l0.3,0.1l0.3,0.2l0.2,0.3l0.1,0.4H1626.4L1626.4-472.9z M1629.8-471h0.5v-1.9l0.1-0.5l0.2-0.3l0.3-0.2l0.4-0.1l0.3,0l0.2,0.1
		l0.1,0.2l0,0.3h0.6l-0.1-0.5l-0.2-0.4l-0.3-0.2l-0.5-0.1l-0.3,0l-0.3,0.1l-0.2,0.2l-0.2,0.3v-0.6h-0.5V-471L1629.8-471z
		 M1636.5-471h0.6l0.5-1.3h1.7l0.5,1.3h0.6l-1.6-4.3h-0.6L1636.5-471L1636.5-471z M1637.7-472.8l0.7-1.9l0.7,1.9H1637.7
		L1637.7-472.8z M1641.3-472.4h1.5v-0.5h-1.5V-472.4L1641.3-472.4z M1643.9-471h0.6l0.5-1.3h1.7l0.5,1.3h0.6l-1.6-4.3h-0.6
		L1643.9-471L1643.9-471z M1645.2-472.8l0.7-1.9l0.7,1.9H1645.2L1645.2-472.8z M1648.5-471h0.5v-1.9l0.1-0.5l0.2-0.3l0.3-0.2
		l0.4-0.1l0.3,0l0.2,0.1l0.1,0.2l0,0.3h0.6l-0.1-0.5l-0.2-0.4l-0.3-0.2l-0.5-0.1l-0.3,0l-0.3,0.1l-0.2,0.2l-0.2,0.3v-0.6h-0.5V-471
		L1648.5-471z M1651.8-471h0.5v-2.2l0-0.3l0.1-0.2l0.1-0.1l0.2-0.1l0.1,0l0.1,0.1l0.1,0.2l0,0.3v2.3h0.5v-2.2l0-0.3l0.1-0.2l0.1-0.1
		l0.2-0.1l0.1,0l0.1,0.1l0.1,0.5v2.3h0.5v-2.3l0-0.5l-0.1-0.4l-0.2-0.2l-0.3-0.1l-0.4,0.1l-0.3,0.4l-0.2-0.4l-0.4-0.1l-0.4,0.1
		l-0.2,0.3v-0.4h-0.5V-471L1651.8-471z"/>
</g>
<g>
	<path d="M1601.6-463.5h2.7v-0.5h-2.2v-1.5h1.9v-0.5h-1.9v-1.3h2.1v-0.5h-2.7V-463.5L1601.6-463.5z M1604.8-462.5v0.4h3.7v-0.4
		H1604.8L1604.8-462.5z M1608.5-463.5h0.6l0.5-1.3h1.7l0.5,1.3h0.6l-1.6-4.3h-0.6L1608.5-463.5L1608.5-463.5z M1609.7-465.3l0.7-1.9
		l0.7,1.9H1609.7L1609.7-465.3z M1613.8-463.5h0.6l1.2-3.3h-0.6l-0.9,2.7l-1-2.7h-0.6L1613.8-463.5L1613.8-463.5z M1618.5-464
		L1618.5-464l0,0.2l0.1,0.1l0.4,0.1l0.3,0v-0.4l-0.1,0l-0.2-0.1l0-0.2v-1.7l-0.1-0.4l-0.2-0.3l-0.4-0.2l-0.5-0.1l-0.5,0.1l-0.4,0.2
		l-0.2,0.3l-0.1,0.4v0h0.5l0-0.3l0.1-0.2l0.2-0.1l0.3,0l0.3,0l0.2,0.1l0.1,0.2l0,0.2l0,0.3l-0.1,0.1l-0.2,0.1l-0.5,0l-0.5,0.1
		l-0.4,0.2l-0.2,0.3l-0.1,0.5l0.1,0.4l0.2,0.3l0.3,0.2l0.4,0.1l0.6-0.1L1618.5-464L1618.5-464z M1618.5-464.7l-0.1,0.3l-0.2,0.2
		l-0.3,0.2l-0.4,0.1l-0.2,0l-0.2-0.1l-0.1-0.2l0-0.2l0-0.2l0.1-0.2l0.4-0.2l0.5-0.1l0.5-0.1V-464.7L1618.5-464.7z M1620.3-463.5h0.5
		v-1.9l0.1-0.4l0.2-0.3l0.3-0.2l0.4-0.1l0.3,0.1l0.2,0.2l0.1,0.3l0,0.4v2.1h0.5v-2.2l0-0.4l-0.1-0.4l-0.4-0.3l-0.6-0.1l-0.3,0
		l-0.3,0.1l-0.2,0.2l-0.2,0.3v-0.5h-0.5V-463.5L1620.3-463.5z M1624.7-466.3v1.7l0,0.5l0.2,0.4l0.3,0.2l0.6,0.1l0.6,0v-0.5l-0.5,0
		l-0.4,0l-0.2-0.2l-0.1-0.3l0-0.4v-1.6h1.2v-0.5h-1.2v-1h-0.5v1h-0.9v0.5H1624.7L1624.7-466.3z"/>
</g>
<g>
	<path d="M1774.9-482.9h0.6v-1.8h0.6l0.4,0l0.3,0.1l0.1,0.2l0.1,0.4l0,0.6l0.1,0.4l0.1,0.2h0.7v-0.1l-0.1-0.2l-0.1-0.3l0-0.7
		l-0.1-0.5l-0.1-0.2l-0.2-0.1l0.3-0.2l0.2-0.2l0.1-0.3l0-0.3l-0.1-0.5l-0.2-0.4l-0.4-0.2l-0.5-0.1h-1.4V-482.9L1774.9-482.9z
		 M1776.1-486.7l0.4,0l0.3,0.1l0.1,0.2l0.1,0.3l-0.1,0.4l-0.2,0.2l-0.3,0.1l-0.4,0h-0.7v-1.4H1776.1L1776.1-486.7z M1779.2-484.4
		h2.2v-0.3l-0.1-0.7l-0.3-0.5l-0.4-0.3l-0.6-0.1l-0.6,0.1l-0.4,0.3l-0.3,0.6l-0.1,0.7l0.1,0.8l0.3,0.6l0.4,0.3l0.5,0.1l0.5-0.1
		l0.4-0.2l0.3-0.3l0.2-0.4h-0.5l-0.1,0.2l-0.1,0.2l-0.5,0.1l-0.4-0.1l-0.3-0.2l-0.2-0.4L1779.2-484.4L1779.2-484.4L1779.2-484.4z
		 M1779.2-484.9l0.1-0.4l0.2-0.3l0.3-0.2l0.3-0.1l0.3,0.1l0.3,0.2l0.1,0.3l0.1,0.4H1779.2L1779.2-484.9z M1784.4-483.3L1784.4-483.3
		l0,0.2l0.1,0.1l0.4,0.1l0.3,0v-0.4l-0.1,0l-0.2-0.1l0-0.2v-1.7l-0.1-0.4l-0.2-0.3l-0.4-0.2l-0.5-0.1l-0.5,0.1l-0.4,0.2l-0.3,0.3
		l-0.1,0.4v0h0.5l0.1-0.3l0.1-0.2l0.2-0.1l0.3,0l0.3,0l0.2,0.1l0.1,0.2l0.1,0.2l0,0.3l-0.1,0.1l-0.2,0.1l-0.5,0.1l-0.5,0.1l-0.4,0.2
		l-0.2,0.3l-0.1,0.5l0.1,0.4l0.2,0.3l0.3,0.2l0.4,0.1l0.6-0.1L1784.4-483.3L1784.4-483.3z M1784.4-484.1l-0.1,0.3l-0.2,0.2l-0.3,0.2
		l-0.4,0.1l-0.2,0l-0.2-0.1l-0.1-0.2l0-0.2l0-0.2l0.1-0.2l0.4-0.2l0.5-0.1l0.5-0.1V-484.1L1784.4-484.1z M1786.4-482.9h0.5v-1.9
		l0.1-0.5l0.1-0.3l0.3-0.2l0.4-0.1l0.3,0l0.2,0.1l0.1,0.2l0,0.3h0.5l-0.1-0.5l-0.2-0.4l-0.3-0.2l-0.5-0.1l-0.3,0l-0.3,0.1l-0.2,0.2
		l-0.2,0.3v-0.6h-0.5V-482.9L1786.4-482.9z M1789.3-481.9v0.4h3.7v-0.4H1789.3L1789.3-481.9z M1793.5-482.9h0.6v-1.8h0.6l0.4,0
		l0.3,0.1l0.2,0.2l0.1,0.4l0,0.6l0,0.4l0.1,0.2h0.6v-0.1l-0.1-0.2l-0.1-0.3l-0.1-0.7l-0.1-0.5l-0.1-0.2l-0.2-0.1l0.2-0.2l0.2-0.2
		l0.1-0.3l0.1-0.3l-0.1-0.5l-0.3-0.4l-0.4-0.2l-0.6-0.1h-1.4V-482.9L1793.5-482.9z M1794.8-486.7l0.4,0l0.3,0.1l0.2,0.2l0.1,0.3
		l-0.1,0.4l-0.2,0.2l-0.3,0.1l-0.4,0h-0.7v-1.4H1794.8L1794.8-486.7z M1799-483.4v-2.8h-1.4v0.5h0.9v2.3h-1.1v0.5h2.8v-0.5H1799
		L1799-483.4z M1799.1-487.4h-0.6v0.6h0.6V-487.4L1799.1-487.4z M1803.7-483.1v-3.2h-0.5v0.5l-0.4-0.5l-0.3-0.1l-0.3,0l-0.5,0.1
		l-0.4,0.3l-0.3,0.6l-0.1,0.7l0.1,0.8l0.3,0.6l0.4,0.4l0.5,0.1l0.3,0l0.3-0.1l0.4-0.5v0.5l-0.1,0.4l-0.1,0.3l-0.3,0.2l-0.4,0.1
		l-0.3,0l-0.2-0.1l-0.1-0.2l-0.1-0.2h-0.5v0l0.1,0.4l0.2,0.3l0.4,0.2l0.5,0.1l0.6-0.1l0.4-0.3l0.3-0.5L1803.7-483.1L1803.7-483.1z
		 M1801.5-484.6l0.1-0.6l0.2-0.4l0.3-0.2l0.3-0.1l0.4,0.1l0.3,0.2l0.1,0.4l0.1,0.6l-0.1,0.6l-0.1,0.4l-0.3,0.2l-0.4,0.1l-0.3-0.1
		l-0.3-0.2l-0.2-0.4L1801.5-484.6L1801.5-484.6z M1804.8-482.9h0.5v-1.9l0.1-0.4l0.2-0.3l0.3-0.2l0.4-0.1l0.3,0.1l0.2,0.2l0.1,0.3
		l0,0.4v2.1h0.5v-2.2l0-0.4l-0.1-0.4l-0.3-0.3l-0.6-0.1l-0.3,0l-0.3,0.1l-0.2,0.2l-0.2,0.3v-1.6h-0.5V-482.9L1804.8-482.9z
		 M1809.3-485.7v1.7l0,0.5l0.2,0.4l0.3,0.2l0.6,0.1l0.6,0v-0.5l-0.5,0l-0.4,0l-0.2-0.2l-0.1-0.3v-0.4v-1.6h1.2v-0.5h-1.2v-1h-0.5v1
		h-0.9v0.5H1809.3L1809.3-485.7z M1811.7-481.9v0.4h3.7v-0.4H1811.7L1811.7-481.9z M1815.8-484.6l0.1,0.8l0.3,0.6l0.5,0.3l0.7,0.1
		l0.7-0.1l0.5-0.3l0.3-0.5l0.1-0.8v-2.7h-0.6v2.7l-0.1,0.5l-0.2,0.4l-0.3,0.2l-0.4,0.1l-0.4-0.1l-0.3-0.2l-0.2-0.4l-0.1-0.5v-2.7
		h-0.6V-484.6L1815.8-484.6z M1820.3-485.7v-0.5h-0.5v4.6h0.5v-1.8l0.2,0.3l0.2,0.2l0.5,0.1l0.5-0.1l0.4-0.4l0.3-0.6l0.1-0.8
		l-0.1-0.7l-0.3-0.6l-0.4-0.3l-0.5-0.1l-0.3,0l-0.3,0.1l-0.2,0.2L1820.3-485.7L1820.3-485.7z M1821.1-483.3l-0.3-0.1l-0.3-0.2
		l-0.1-0.4l-0.1-0.6l0.1-0.6l0.1-0.4l0.3-0.2l0.3-0.1l0.3,0.1l0.3,0.2l0.2,0.4l0.1,0.6l-0.1,0.6l-0.2,0.4l-0.3,0.2L1821.1-483.3
		L1821.1-483.3z M1824-485.7v-0.5h-0.5v4.6h0.5v-1.8l0.2,0.3l0.2,0.2l0.5,0.1l0.5-0.1l0.4-0.4l0.3-0.6l0.1-0.8l-0.1-0.7l-0.3-0.6
		l-0.4-0.3l-0.5-0.1l-0.3,0l-0.2,0.1l-0.2,0.2L1824-485.7L1824-485.7z M1824.9-483.3l-0.4-0.1l-0.3-0.2l-0.1-0.4l-0.1-0.6l0.1-0.6
		l0.1-0.4l0.3-0.2l0.4-0.1l0.3,0.1l0.3,0.2l0.2,0.4l0.1,0.6l-0.1,0.6l-0.2,0.4l-0.3,0.2L1824.9-483.3L1824.9-483.3z M1827.7-484.4
		h2.2l0-0.3l-0.1-0.7l-0.3-0.5l-0.5-0.3l-0.6-0.1l-0.5,0.1l-0.4,0.3l-0.3,0.6l-0.1,0.7l0.1,0.8l0.3,0.6l0.4,0.3l0.6,0.1l0.5-0.1
		l0.4-0.2l0.3-0.3l0.1-0.4h-0.5l-0.1,0.2l-0.2,0.2l-0.5,0.1l-0.3-0.1l-0.3-0.2l-0.2-0.4L1827.7-484.4L1827.7-484.4L1827.7-484.4z
		 M1827.7-484.9l0.1-0.4l0.1-0.3l0.3-0.2l0.3-0.1l0.3,0.1l0.3,0.2l0.2,0.3l0.1,0.4H1827.7L1827.7-484.9z M1831.2-482.9h0.5v-1.9
		l0.1-0.5l0.2-0.3l0.3-0.2l0.4-0.1l0.3,0l0.2,0.1l0.1,0.2l0,0.3h0.6l-0.1-0.5l-0.2-0.4l-0.3-0.2l-0.5-0.1l-0.3,0l-0.3,0.1l-0.2,0.2
		l-0.2,0.3v-0.6h-0.5V-482.9L1831.2-482.9z M1837.9-482.9h0.6l0.5-1.3h1.7l0.4,1.3h0.6l-1.6-4.3h-0.6L1837.9-482.9L1837.9-482.9z
		 M1839.1-484.7l0.7-1.9l0.7,1.9H1839.1L1839.1-484.7z M1842.7-484.3h1.5v-0.5h-1.5V-484.3L1842.7-484.3z M1845.3-482.9h0.6l0.5-1.3
		h1.7l0.5,1.3h0.6l-1.6-4.3h-0.6L1845.3-482.9L1845.3-482.9z M1846.5-484.7l0.7-1.9l0.7,1.9H1846.5L1846.5-484.7z M1849.8-482.9h0.5
		v-1.9l0.1-0.5l0.2-0.3l0.3-0.2l0.4-0.1l0.3,0l0.2,0.1l0.1,0.2l0.1,0.3h0.5l-0.1-0.5l-0.2-0.4l-0.3-0.2l-0.5-0.1l-0.3,0l-0.3,0.1
		l-0.3,0.2l-0.2,0.3v-0.6h-0.5V-482.9L1849.8-482.9z M1853.2-482.9h0.5v-2.2l0-0.3l0.1-0.2l0.1-0.1l0.2-0.1l0.1,0.1l0.1,0.1l0.1,0.2
		v0.3v2.3h0.5v-2.2l0-0.3l0.1-0.2l0.1-0.1l0.2-0.1l0.1,0.1l0.1,0.1l0.1,0.5v2.3h0.5v-2.3l0-0.5l-0.1-0.4l-0.2-0.2l-0.3-0.1l-0.4,0.1
		l-0.3,0.4l-0.2-0.4l-0.4-0.1l-0.3,0.1l-0.2,0.3v-0.4h-0.5V-482.9L1853.2-482.9z"/>
</g>
<g>
	<path d="M1806.7-475.5h2.8v-0.5h-2.2v-1.5h1.9v-0.5h-1.9v-1.3h2.1v-0.5h-2.7V-475.5L1806.7-475.5z M1809.9-474.4v0.4h3.7v-0.4
		H1809.9L1809.9-474.4z M1813.6-475.5h0.6l0.5-1.3h1.7l0.5,1.3h0.6l-1.6-4.3h-0.6L1813.6-475.5L1813.6-475.5z M1814.8-477.3l0.7-1.9
		l0.7,1.9H1814.8L1814.8-477.3z M1818.1-475.5h0.5v-1.9l0.1-0.5l0.1-0.3l0.3-0.2l0.4-0.1l0.3,0l0.2,0.1l0.1,0.2l0,0.3h0.5l-0.1-0.5
		l-0.2-0.4l-0.3-0.2l-0.5-0.1l-0.3,0.1l-0.3,0.1l-0.2,0.2l-0.2,0.3v-0.6h-0.5V-475.5L1818.1-475.5z M1821.9-475.5h0.5v-1.9l0.1-0.5
		l0.1-0.3l0.3-0.2l0.4-0.1l0.3,0l0.2,0.1l0.1,0.2l0,0.3h0.5l-0.1-0.5l-0.2-0.4l-0.3-0.2l-0.5-0.1l-0.3,0.1l-0.3,0.1l-0.2,0.2
		l-0.2,0.3v-0.6h-0.5V-475.5L1821.9-475.5z"/>
</g>
</svg>
