<?xml version="1.0" encoding="utf-8" ?><!DOCTYPE svg PUBLIC "-//W3C//DTD SVG 1.1//EN" "http://www.w3.org/Graphics/SVG/1.1/DTD/svg11.dtd" 
[ <!ATTLIST svg 
  xmlns:dsy CDATA #FIXED "http://www.3ds.com/print"  
    dsy:text-version CDATA #IMPLIED > 

  <!ATTLIST text 
  xmlns:dsy CDATA #FIXED "http://www.3ds.com/print" 
    dsy:text-version CDATA #IMPLIED > 
]><svg xmlns="http://www.w3.org/2000/svg" xmlns:dsy="http://www.3ds.com/print" dsy:text-version="18000" width="297" height="210" viewBox="0 0 297 210" version="1.1"><g stroke="rgb(0, 0, 0)" stroke-width="0.35" stroke-linecap="butt" stroke-linejoin="miter" fill="none"><path d="M 146.205 86.2586 A 7 7 0 0 0 132.387 87.7208"/><circle cx="139.386" cy="87.8411" r="3.2"/><path d="M 131.784 122.777 L 148.701 126.12"/><path d="M 148.701 126.12 L 146.205 86.2586"/><path d="M 131.784 122.777 L 132.387 87.7208"/><path d="M 210.983 85.7876 A 6.99998 6.99998 0 0 0 197.165 84.3254"/><circle cx="203.984" cy="85.9079" r="3.2"/><path d="M 211.614 122.528 L 194.561 125.897"/><path d="M 194.561 125.897 L 197.165 84.3254"/><path d="M 211.614 122.528 L 210.983 85.7876"/></g><g stroke="rgb(0, 0, 0)" stroke-width="0.13" stroke-linecap="butt" stroke-linejoin="miter" fill="none"><path d="M 124.657 169.507 L 125.32 169.507 L 125.846 168.037 L 127.841 168.037 L 128.367 169.507 L 129.044 169.507 L 127.214 164.5 L 126.48 164.5 L 124.657 169.507 L 124.657 169.507 z M 126.076 167.425 L 126.847 165.22 L 127.618 167.425 L 126.076 167.425 L 126.076 167.425 z M 130.312 167.857 L 132.056 167.857 L 132.056 167.288 L 130.312 167.288 L 130.312 167.857 L 130.312 167.857 z M 133.331 169.507 L 133.994 169.507 L 134.52 168.037 L 136.516 168.037 L 137.042 169.507 L 137.719 169.507 L 135.889 164.5 L 135.154 164.5 L 133.331 169.507 L 133.331 169.507 z M 134.75 167.425 L 135.521 165.22 L 136.292 167.425 L 134.75 167.425 L 134.75 167.425 z M 138.605 169.507 L 139.239 169.507 L 139.239 167.295 L 139.304 166.762 L 139.498 166.38 L 139.815 166.15 L 140.24 166.07 L 140.557 166.121 L 140.795 166.265 L 140.939 166.51 L 140.99 166.841 L 141.631 166.841 L 141.544 166.258 L 141.307 165.84 L 140.91 165.588 L 140.37 165.501 L 140.003 165.559 L 139.686 165.703 L 139.405 165.948 L 139.181 166.279 L 139.181 165.638 L 138.605 165.638 L 138.605 169.507 L 138.605 169.507 z M 142.452 169.507 L 143.036 169.507 L 143.036 166.921 L 143.072 166.532 L 143.18 166.251 L 143.346 166.085 L 143.562 166.02 L 143.735 166.078 L 143.85 166.222 L 143.908 166.467 L 143.929 166.791 L 143.929 169.507 L 144.477 169.507 L 144.477 166.921 L 144.513 166.539 L 144.621 166.258 L 144.794 166.085 L 145.01 166.02 L 145.183 166.078 L 145.298 166.222 L 145.37 166.791 L 145.37 169.507 L 145.954 169.507 L 145.954 166.834 L 145.918 166.279 L 145.802 165.854 L 145.572 165.595 L 145.197 165.501 L 144.758 165.645 L 144.419 166.063 L 144.152 165.653 L 143.706 165.501 L 143.295 165.645 L 143.014 166.049 L 143.014 165.638 L 142.452 165.638 L 142.452 169.507 L 142.452 169.507 z M 151.263 169.507 L 151.933 169.507 L 151.933 167.396 L 152.618 167.396 L 153.122 167.418 L 153.439 167.519 L 153.612 167.756 L 153.684 168.181 L 153.72 168.83 L 153.763 169.255 L 153.85 169.507 L 154.606 169.507 L 154.606 169.37 L 154.441 169.168 L 154.383 168.794 L 154.333 167.987 L 154.21 167.389 L 154.044 167.202 L 153.785 167.065 L 154.073 166.885 L 154.275 166.632 L 154.405 166.315 L 154.448 165.934 L 154.347 165.328 L 154.059 164.874 L 153.583 164.601 L 152.935 164.507 L 151.263 164.507 L 151.263 169.507 L 151.263 169.507 z M 152.748 165.119 L 153.187 165.163 L 153.497 165.3 L 153.691 165.552 L 153.756 165.948 L 153.684 166.366 L 153.49 166.618 L 153.158 166.748 L 152.704 166.784 L 151.933 166.784 L 151.933 165.119 L 152.748 165.119 L 152.748 165.119 z M 156.271 167.756 L 158.807 167.756 L 158.814 167.461 L 158.699 166.632 L 158.382 166.013 L 157.877 165.638 L 157.207 165.501 L 156.552 165.645 L 156.047 166.049 L 155.723 166.704 L 155.608 167.569 L 155.716 168.455 L 156.04 169.104 L 156.537 169.507 L 157.186 169.644 L 157.748 169.55 L 158.209 169.305 L 158.547 168.916 L 158.742 168.398 L 158.115 168.398 L 157.985 168.686 L 157.798 168.902 L 157.265 169.075 L 156.854 168.995 L 156.544 168.743 L 156.343 168.333 L 156.271 167.778 L 156.271 167.756 L 156.271 167.756 z M 156.271 167.223 L 156.35 166.726 L 156.544 166.359 L 156.84 166.135 L 157.229 166.056 L 157.611 166.135 L 157.906 166.359 L 158.086 166.726 L 158.151 167.223 L 156.271 167.223 L 156.271 167.223 z M 162.351 169.003 L 162.351 169.024 L 162.387 169.269 L 162.495 169.442 L 162.949 169.579 L 163.302 169.521 L 163.302 169.032 L 163.151 169.053 L 162.949 168.959 L 162.913 168.671 L 162.913 166.668 L 162.827 166.157 L 162.575 165.797 L 162.135 165.58 L 161.516 165.501 L 160.91 165.588 L 160.464 165.833 L 160.183 166.215 L 160.089 166.719 L 160.089 166.762 L 160.658 166.762 L 160.709 166.459 L 160.867 166.243 L 161.127 166.114 L 161.494 166.063 L 161.847 166.099 L 162.099 166.207 L 162.251 166.395 L 162.301 166.654 L 162.272 166.957 L 162.157 167.108 L 161.869 167.18 L 161.328 167.238 L 160.709 167.367 L 160.269 167.598 L 160.01 167.958 L 159.931 168.491 L 160.003 168.967 L 160.226 169.32 L 160.586 169.543 L 161.083 169.622 L 161.753 169.471 L 162.351 169.003 L 162.351 169.003 z M 162.279 168.153 L 162.193 168.527 L 161.962 168.815 L 161.617 169.003 L 161.191 169.068 L 160.918 169.032 L 160.723 168.916 L 160.601 168.715 L 160.565 168.434 L 160.593 168.181 L 160.709 168.001 L 161.17 167.8 L 161.753 167.713 L 162.279 167.54 L 162.279 168.153 L 162.279 168.153 z M 164.628 169.507 L 165.262 169.507 L 165.262 167.295 L 165.327 166.762 L 165.521 166.38 L 165.838 166.15 L 166.264 166.07 L 166.581 166.121 L 166.818 166.265 L 166.962 166.51 L 167.013 166.841 L 167.654 166.841 L 167.568 166.258 L 167.33 165.84 L 166.934 165.588 L 166.393 165.501 L 166.026 165.559 L 165.709 165.703 L 165.428 165.948 L 165.204 166.279 L 165.204 165.638 L 164.628 165.638 L 164.628 169.507 L 164.628 169.507 z M 173.093 169.507 L 176.307 169.507 L 176.307 168.902 L 173.756 168.902 L 173.756 164.507 L 173.093 164.507 L 173.093 169.507 L 173.093 169.507 z M 177.215 167.576 L 177.33 168.455 L 177.661 169.104 L 178.187 169.507 L 178.893 169.644 L 179.592 169.507 L 180.118 169.111 L 180.449 168.462 L 180.572 167.576 L 180.449 166.697 L 180.118 166.042 L 179.592 165.645 L 178.893 165.501 L 178.187 165.645 L 177.661 166.049 L 177.33 166.697 L 177.215 167.576 L 177.215 167.576 z M 177.863 167.569 L 177.928 166.921 L 178.13 166.452 L 178.454 166.164 L 178.893 166.063 L 179.326 166.164 L 179.65 166.445 L 179.851 166.921 L 179.923 167.569 L 179.851 168.225 L 179.65 168.7 L 179.326 168.988 L 178.893 169.082 L 178.454 168.988 L 178.13 168.7 L 177.928 168.225 L 177.863 167.569 L 177.863 167.569 z M 182.654 169.507 L 183.23 166.222 L 183.807 169.507 L 184.412 169.507 L 185.363 165.638 L 184.751 165.638 L 184.109 168.923 L 183.54 165.638 L 182.913 165.638 L 182.344 168.923 L 181.703 165.638 L 181.098 165.638 L 182.049 169.507 L 182.654 169.507 L 182.654 169.507 z M 186.631 167.756 L 189.167 167.756 L 189.174 167.461 L 189.059 166.632 L 188.742 166.013 L 188.238 165.638 L 187.568 165.501 L 186.912 165.645 L 186.408 166.049 L 186.083 166.704 L 185.968 167.569 L 186.076 168.455 L 186.4 169.104 L 186.898 169.507 L 187.546 169.644 L 188.108 169.55 L 188.569 169.305 L 188.908 168.916 L 189.102 168.398 L 188.475 168.398 L 188.346 168.686 L 188.158 168.902 L 187.625 169.075 L 187.215 168.995 L 186.905 168.743 L 186.703 168.333 L 186.631 167.778 L 186.631 167.756 L 186.631 167.756 z M 186.631 167.223 L 186.71 166.726 L 186.905 166.359 L 187.2 166.135 L 187.589 166.056 L 187.971 166.135 L 188.266 166.359 L 188.447 166.726 L 188.511 167.223 L 186.631 167.223 L 186.631 167.223 z M 190.651 169.507 L 191.285 169.507 L 191.285 167.295 L 191.35 166.762 L 191.545 166.38 L 191.862 166.15 L 192.287 166.07 L 192.604 166.121 L 192.841 166.265 L 192.985 166.51 L 193.036 166.841 L 193.677 166.841 L 193.591 166.258 L 193.353 165.84 L 192.957 165.588 L 192.416 165.501 L 192.049 165.559 L 191.732 165.703 L 191.451 165.948 L 191.228 166.279 L 191.228 165.638 L 190.651 165.638 L 190.651 169.507 L 190.651 169.507 z M 199.707 167.857 L 201.451 167.857 L 201.451 167.288 L 199.707 167.288 L 199.707 167.857 L 199.707 167.857 z M 203.31 169.507 L 203.98 169.507 L 203.98 167.396 L 204.664 167.396 L 205.169 167.418 L 205.486 167.519 L 205.658 167.756 L 205.73 168.181 L 205.766 168.83 L 205.81 169.255 L 205.896 169.507 L 206.653 169.507 L 206.653 169.37 L 206.487 169.168 L 206.429 168.794 L 206.379 167.987 L 206.256 167.389 L 206.091 167.202 L 205.831 167.065 L 206.12 166.885 L 206.321 166.632 L 206.451 166.315 L 206.494 165.934 L 206.393 165.328 L 206.105 164.874 L 205.63 164.601 L 204.981 164.507 L 203.31 164.507 L 203.31 169.507 L 203.31 169.507 z M 204.794 165.119 L 205.233 165.163 L 205.543 165.3 L 205.738 165.552 L 205.803 165.948 L 205.73 166.366 L 205.536 166.618 L 205.205 166.748 L 204.751 166.784 L 203.98 166.784 L 203.98 165.119 L 204.794 165.119 L 204.794 165.119 z M 207.532 167.605 L 207.632 168.506 L 207.95 169.147 L 208.483 169.514 L 209.254 169.644 L 210.017 169.514 L 210.55 169.147 L 210.867 168.513 L 210.975 167.605 L 210.975 164.507 L 210.305 164.507 L 210.305 167.641 L 210.241 168.253 L 210.046 168.693 L 209.715 168.952 L 209.254 169.039 L 208.778 168.952 L 208.447 168.693 L 208.252 168.261 L 208.194 167.641 L 208.194 164.507 L 207.532 164.507 L 207.532 167.605 L 207.532 167.605 z M 217.035 168.909 L 217.503 169.464 L 218.144 169.644 L 218.749 169.507 L 219.232 169.096 L 219.535 168.441 L 219.65 167.569 L 219.535 166.697 L 219.225 166.049 L 218.749 165.645 L 218.144 165.501 L 217.51 165.689 L 217.251 165.919 L 217.035 166.229 L 217.035 164.334 L 216.401 164.334 L 216.401 169.507 L 217.035 169.507 L 217.035 168.909 L 217.035 168.909 z M 219.001 167.569 L 218.929 168.217 L 218.735 168.693 L 218.425 168.981 L 218.036 169.075 L 217.611 168.981 L 217.301 168.693 L 217.107 168.225 L 217.042 167.569 L 217.107 166.921 L 217.301 166.452 L 217.611 166.171 L 218.036 166.07 L 218.425 166.171 L 218.735 166.459 L 218.929 166.928 L 219.001 167.569 L 219.001 167.569 z M 221.012 169.507 L 221.646 169.507 L 221.646 167.295 L 221.71 166.762 L 221.905 166.38 L 222.222 166.15 L 222.647 166.07 L 222.964 166.121 L 223.202 166.265 L 223.346 166.51 L 223.396 166.841 L 224.037 166.841 L 223.951 166.258 L 223.713 165.84 L 223.317 165.588 L 222.777 165.501 L 222.409 165.559 L 222.092 165.703 L 221.811 165.948 L 221.588 166.279 L 221.588 165.638 L 221.012 165.638 L 221.012 169.507 L 221.012 169.507 z M 227.409 169.003 L 227.409 169.024 L 227.445 169.269 L 227.553 169.442 L 228.007 169.579 L 228.36 169.521 L 228.36 169.032 L 228.209 169.053 L 228.007 168.959 L 227.971 168.671 L 227.971 166.668 L 227.885 166.157 L 227.633 165.797 L 227.193 165.58 L 226.573 165.501 L 225.968 165.588 L 225.522 165.833 L 225.241 166.215 L 225.147 166.719 L 225.147 166.762 L 225.716 166.762 L 225.767 166.459 L 225.925 166.243 L 226.184 166.114 L 226.552 166.063 L 226.905 166.099 L 227.157 166.207 L 227.308 166.395 L 227.359 166.654 L 227.33 166.957 L 227.215 167.108 L 226.926 167.18 L 226.386 167.238 L 225.767 167.367 L 225.327 167.598 L 225.068 167.958 L 224.988 168.491 L 225.061 168.967 L 225.284 169.32 L 225.644 169.543 L 226.141 169.622 L 226.811 169.471 L 227.409 169.003 L 227.409 169.003 z M 227.337 168.153 L 227.251 168.527 L 227.02 168.815 L 226.674 169.003 L 226.249 169.068 L 225.975 169.032 L 225.781 168.916 L 225.658 168.715 L 225.622 168.434 L 225.651 168.181 L 225.767 168.001 L 226.228 167.8 L 226.811 167.713 L 227.337 167.54 L 227.337 168.153 L 227.337 168.153 z M 231.912 166.921 L 232.539 166.921 L 232.409 166.344 L 232.099 165.89 L 231.617 165.609 L 230.99 165.501 L 230.298 165.645 L 229.772 166.049 L 229.441 166.704 L 229.326 167.583 L 229.434 168.455 L 229.758 169.104 L 230.269 169.507 L 230.968 169.644 L 231.588 169.536 L 232.071 169.233 L 232.402 168.758 L 232.546 168.124 L 231.941 168.124 L 231.833 168.527 L 231.631 168.83 L 231.343 169.017 L 230.99 169.075 L 230.55 168.981 L 230.233 168.693 L 230.039 168.225 L 229.974 167.562 L 230.039 166.913 L 230.241 166.445 L 230.565 166.157 L 230.99 166.056 L 231.365 166.121 L 231.646 166.287 L 231.833 166.56 L 231.912 166.921 L 231.912 166.921 z M 233.872 169.507 L 234.506 169.507 L 234.506 168.145 L 235.169 167.504 L 236.307 169.507 L 237.02 169.507 L 235.601 167.065 L 237.056 165.638 L 236.257 165.638 L 234.506 167.382 L 234.506 164.334 L 233.872 164.334 L 233.872 169.507 L 233.872 169.507 z M 238.677 167.756 L 241.213 167.756 L 241.22 167.461 L 241.105 166.632 L 240.788 166.013 L 240.284 165.638 L 239.614 165.501 L 238.958 165.645 L 238.454 166.049 L 238.13 166.704 L 238.014 167.569 L 238.122 168.455 L 238.447 169.104 L 238.944 169.507 L 239.592 169.644 L 240.154 169.55 L 240.615 169.305 L 240.954 168.916 L 241.148 168.398 L 240.522 168.398 L 240.392 168.686 L 240.205 168.902 L 239.671 169.075 L 239.261 168.995 L 238.951 168.743 L 238.749 168.333 L 238.677 167.778 L 238.677 167.756 L 238.677 167.756 z M 238.677 167.223 L 238.757 166.726 L 238.951 166.359 L 239.246 166.135 L 239.635 166.056 L 240.017 166.135 L 240.313 166.359 L 240.493 166.726 L 240.558 167.223 L 238.677 167.223 L 238.677 167.223 z M 243.31 166.308 L 243.31 168.246 L 243.353 168.873 L 243.555 169.305 L 243.958 169.557 L 244.643 169.644 L 245.392 169.608 L 245.392 169.06 L 244.844 169.104 L 244.347 169.046 L 244.081 168.866 L 243.965 168.563 L 243.944 168.138 L 243.944 166.308 L 245.392 166.308 L 245.392 165.768 L 243.944 165.768 L 243.944 164.637 L 243.31 164.637 L 243.31 165.768 L 242.215 165.768 L 242.215 166.308 L 243.31 166.308 L 243.31 166.308 z" stroke="none" fill-rule="evenodd" fill="rgb(0, 0, 0)"/></g><g stroke="rgb(0, 0, 0)" stroke-width="0.13" stroke-linecap="butt" stroke-linejoin="miter" fill="none"><path d="M 126.84 173.145 L 125.175 173.145 L 125.175 178.145 L 126.84 178.145 L 127.625 177.987 L 128.209 177.504 L 128.569 176.719 L 128.699 175.645 L 128.583 174.55 L 128.439 174.118 L 128.237 173.772 L 127.654 173.304 L 127.272 173.189 L 126.84 173.145 L 126.84 173.145 z M 126.789 173.743 L 127.337 173.851 L 127.712 174.183 L 127.935 174.774 L 128.007 175.645 L 127.928 176.488 L 127.704 177.079 L 127.322 177.432 L 126.789 177.547 L 125.846 177.547 L 125.846 173.743 L 126.789 173.743 L 126.789 173.743 z M 129.578 178.145 L 130.248 178.145 L 130.248 176.034 L 130.932 176.034 L 131.436 176.056 L 131.753 176.157 L 131.926 176.395 L 131.998 176.82 L 132.034 177.468 L 132.078 177.893 L 132.164 178.145 L 132.92 178.145 L 132.92 178.008 L 132.755 177.807 L 132.697 177.432 L 132.647 176.625 L 132.524 176.027 L 132.358 175.84 L 132.099 175.703 L 132.387 175.523 L 132.589 175.271 L 132.719 174.954 L 132.762 174.572 L 132.661 173.967 L 132.373 173.513 L 131.897 173.239 L 131.249 173.145 L 129.578 173.145 L 129.578 178.145 L 129.578 178.145 z M 131.062 173.758 L 131.501 173.801 L 131.811 173.938 L 132.005 174.19 L 132.07 174.586 L 131.998 175.004 L 131.804 175.256 L 131.472 175.386 L 131.018 175.422 L 130.248 175.422 L 130.248 173.758 L 131.062 173.758 L 131.062 173.758 z M 133.67 175.645 L 133.799 176.769 L 134.174 177.598 L 134.758 178.109 L 135.521 178.282 L 136.278 178.109 L 136.869 177.598 L 137.236 176.769 L 137.373 175.645 L 137.236 174.529 L 137.078 174.075 L 136.869 173.7 L 136.278 173.189 L 135.918 173.059 L 135.521 173.008 L 134.75 173.189 L 134.167 173.693 L 133.799 174.521 L 133.67 175.645 L 133.67 175.645 z M 134.361 175.645 L 134.441 174.774 L 134.678 174.132 L 135.046 173.743 L 135.521 173.606 L 135.99 173.743 L 136.357 174.14 L 136.595 174.781 L 136.681 175.645 L 136.595 176.517 L 136.357 177.158 L 135.99 177.547 L 135.521 177.677 L 135.046 177.547 L 134.678 177.158 L 134.441 176.524 L 134.361 175.645 L 134.361 175.645 z M 139.527 177.54 L 138.605 177.54 L 138.605 178.145 L 141.112 178.145 L 141.112 177.54 L 140.19 177.54 L 140.19 173.751 L 141.112 173.751 L 141.112 173.145 L 138.605 173.145 L 138.605 173.751 L 139.527 173.751 L 139.527 177.54 L 139.527 177.54 z M 143.864 178.145 L 144.527 178.145 L 144.527 173.751 L 146.04 173.751 L 146.04 173.145 L 142.344 173.145 L 142.344 173.751 L 143.864 173.751 L 143.864 178.145 L 143.864 178.145 z M 147.02 178.145 L 150.19 178.145 L 150.19 177.54 L 147.683 177.54 L 147.683 175.847 L 149.916 175.847 L 149.916 175.249 L 147.683 175.249 L 147.683 173.751 L 150.132 173.751 L 150.132 173.145 L 147.02 173.145 L 147.02 178.145 L 147.02 178.145 z" stroke="none" fill-rule="evenodd" fill="rgb(0, 0, 0)"/></g><g stroke="rgb(0, 0, 0)" stroke-width="0.13" stroke-linecap="butt" stroke-linejoin="miter" fill="none"><path d="M 134.044 109.847 L 134.513 109.847 L 134.513 108.37 L 134.992 108.37 L 135.345 108.385 L 135.567 108.455 L 135.688 108.622 L 135.738 108.919 L 135.763 109.373 L 135.794 109.671 L 135.854 109.847 L 136.384 109.847 L 136.384 109.752 L 136.268 109.61 L 136.227 109.348 L 136.192 108.783 L 136.106 108.365 L 135.99 108.234 L 135.809 108.138 L 136.01 108.012 L 136.152 107.835 L 136.242 107.613 L 136.273 107.346 L 136.202 106.922 L 136 106.605 L 135.667 106.413 L 135.214 106.347 L 134.044 106.347 L 134.044 109.847 L 134.044 109.847 z M 135.082 106.776 L 135.39 106.806 L 135.607 106.902 L 135.743 107.079 L 135.789 107.356 L 135.738 107.649 L 135.602 107.825 L 135.37 107.916 L 135.052 107.941 L 134.513 107.941 L 134.513 106.776 L 135.082 106.776 L 135.082 106.776 z M 137.08 109.847 L 137.549 109.847 L 137.549 108.37 L 138.028 108.37 L 138.381 108.385 L 138.603 108.455 L 138.724 108.622 L 138.774 108.919 L 138.799 109.373 L 138.83 109.671 L 138.89 109.847 L 139.42 109.847 L 139.42 109.752 L 139.304 109.61 L 139.263 109.348 L 139.228 108.783 L 139.142 108.365 L 139.026 108.234 L 138.845 108.138 L 139.046 108.012 L 139.188 107.835 L 139.278 107.613 L 139.309 107.346 L 139.238 106.922 L 139.036 106.605 L 138.704 106.413 L 138.25 106.347 L 137.08 106.347 L 137.08 109.847 L 137.08 109.847 z M 138.118 106.776 L 138.426 106.806 L 138.643 106.902 L 138.779 107.079 L 138.825 107.356 L 138.774 107.649 L 138.638 107.825 L 138.406 107.916 L 138.088 107.941 L 137.549 107.941 L 137.549 106.776 L 138.118 106.776 L 138.118 106.776 z M 140.216 109.847 L 142.466 109.847 L 142.466 109.424 L 140.68 109.424 L 140.68 106.347 L 140.216 106.347 L 140.216 109.847 L 140.216 109.847 z M 143.666 108.692 L 144.887 108.692 L 144.887 108.294 L 143.666 108.294 L 143.666 108.692 L 143.666 108.692 z" stroke="none" fill-rule="evenodd" fill="rgb(0, 0, 0)"/></g><g stroke="rgb(0, 0, 0)" stroke-width="0.13" stroke-linecap="butt" stroke-linejoin="miter" fill="none"><path d="M 134.044 115.894 L 134.513 115.894 L 134.513 114.417 L 134.992 114.417 L 135.345 114.432 L 135.567 114.502 L 135.688 114.669 L 135.738 114.966 L 135.763 115.42 L 135.794 115.718 L 135.854 115.894 L 136.384 115.894 L 136.384 115.798 L 136.268 115.657 L 136.227 115.395 L 136.192 114.83 L 136.106 114.411 L 135.99 114.28 L 135.809 114.185 L 136.01 114.058 L 136.152 113.882 L 136.242 113.66 L 136.273 113.393 L 136.202 112.969 L 136 112.651 L 135.667 112.46 L 135.214 112.394 L 134.044 112.394 L 134.044 115.894 L 134.044 115.894 z M 135.082 112.823 L 135.39 112.853 L 135.607 112.949 L 135.743 113.125 L 135.789 113.403 L 135.738 113.695 L 135.602 113.872 L 135.37 113.963 L 135.052 113.988 L 134.513 113.988 L 134.513 112.823 L 135.082 112.823 L 135.082 112.823 z M 137.18 115.894 L 139.43 115.894 L 139.43 115.471 L 137.644 115.471 L 137.644 112.394 L 137.18 112.394 L 137.18 115.894 L 137.18 115.894 z M 140.035 114.563 L 140.106 115.193 L 140.327 115.642 L 140.701 115.899 L 141.24 115.99 L 141.775 115.899 L 142.148 115.642 L 142.37 115.198 L 142.446 114.563 L 142.446 112.394 L 141.977 112.394 L 141.977 114.588 L 141.931 115.017 L 141.795 115.324 L 141.563 115.506 L 141.24 115.566 L 140.907 115.506 L 140.675 115.324 L 140.539 115.022 L 140.499 114.588 L 140.499 112.394 L 140.035 112.394 L 140.035 114.563 L 140.035 114.563 z" stroke="none" fill-rule="evenodd" fill="rgb(0, 0, 0)"/></g><g stroke="rgb(0, 0, 0)" stroke-width="0.13" stroke-linecap="butt" stroke-linejoin="miter" fill="none"><path d="M 197.807 107.655 L 198.276 107.655 L 198.276 106.177 L 198.755 106.177 L 199.108 106.193 L 199.33 106.263 L 199.451 106.43 L 199.502 106.727 L 199.527 107.181 L 199.557 107.479 L 199.618 107.655 L 200.147 107.655 L 200.147 107.559 L 200.031 107.418 L 199.991 107.156 L 199.955 106.591 L 199.87 106.172 L 199.754 106.041 L 199.572 105.945 L 199.774 105.819 L 199.915 105.643 L 200.006 105.421 L 200.036 105.154 L 199.966 104.73 L 199.764 104.412 L 199.431 104.221 L 198.977 104.155 L 197.807 104.155 L 197.807 107.655 L 197.807 107.655 z M 198.846 104.584 L 199.154 104.614 L 199.37 104.71 L 199.507 104.886 L 199.552 105.164 L 199.502 105.456 L 199.365 105.633 L 199.133 105.724 L 198.816 105.749 L 198.276 105.749 L 198.276 104.584 L 198.846 104.584 L 198.846 104.584 z M 200.843 107.655 L 201.312 107.655 L 201.312 106.177 L 201.791 106.177 L 202.144 106.193 L 202.366 106.263 L 202.487 106.43 L 202.538 106.727 L 202.563 107.181 L 202.593 107.479 L 202.654 107.655 L 203.183 107.655 L 203.183 107.559 L 203.067 107.418 L 203.027 107.156 L 202.991 106.591 L 202.906 106.172 L 202.79 106.041 L 202.608 105.945 L 202.81 105.819 L 202.951 105.643 L 203.042 105.421 L 203.072 105.154 L 203.002 104.73 L 202.8 104.412 L 202.467 104.221 L 202.013 104.155 L 200.843 104.155 L 200.843 107.655 L 200.843 107.655 z M 201.882 104.584 L 202.19 104.614 L 202.406 104.71 L 202.543 104.886 L 202.588 105.164 L 202.538 105.456 L 202.401 105.633 L 202.169 105.724 L 201.852 105.749 L 201.312 105.749 L 201.312 104.584 L 201.882 104.584 L 201.882 104.584 z M 203.98 107.655 L 206.229 107.655 L 206.229 107.232 L 204.444 107.232 L 204.444 104.155 L 203.98 104.155 L 203.98 107.655 L 203.98 107.655 z M 207.43 106.5 L 208.65 106.5 L 208.65 106.102 L 207.43 106.102 L 207.43 106.5 L 207.43 106.5 z" stroke="none" fill-rule="evenodd" fill="rgb(0, 0, 0)"/></g><g stroke="rgb(0, 0, 0)" stroke-width="0.13" stroke-linecap="butt" stroke-linejoin="miter" fill="none"><path d="M 197.807 113.702 L 198.276 113.702 L 198.276 112.224 L 198.755 112.224 L 199.108 112.239 L 199.33 112.31 L 199.451 112.476 L 199.502 112.774 L 199.527 113.228 L 199.557 113.525 L 199.618 113.702 L 200.147 113.702 L 200.147 113.606 L 200.031 113.465 L 199.991 113.203 L 199.955 112.638 L 199.87 112.219 L 199.754 112.088 L 199.572 111.992 L 199.774 111.866 L 199.915 111.69 L 200.006 111.468 L 200.036 111.201 L 199.966 110.777 L 199.764 110.459 L 199.431 110.268 L 198.977 110.202 L 197.807 110.202 L 197.807 113.702 L 197.807 113.702 z M 198.846 110.631 L 199.154 110.661 L 199.37 110.757 L 199.507 110.933 L 199.552 111.211 L 199.502 111.503 L 199.365 111.68 L 199.133 111.77 L 198.816 111.796 L 198.276 111.796 L 198.276 110.631 L 198.846 110.631 L 198.846 110.631 z M 200.944 113.702 L 203.193 113.702 L 203.193 113.278 L 201.408 113.278 L 201.408 110.202 L 200.944 110.202 L 200.944 113.702 L 200.944 113.702 z M 204.999 110.202 L 203.834 110.202 L 203.834 113.702 L 204.999 113.702 L 205.548 113.591 L 205.957 113.253 L 206.209 112.703 L 206.3 111.952 L 206.219 111.185 L 206.118 110.883 L 205.977 110.641 L 205.569 110.313 L 205.301 110.232 L 204.999 110.202 L 204.999 110.202 z M 204.963 110.621 L 205.347 110.696 L 205.609 110.928 L 205.765 111.342 L 205.816 111.952 L 205.76 112.542 L 205.604 112.956 L 205.337 113.203 L 204.963 113.283 L 204.303 113.283 L 204.303 110.621 L 204.963 110.621 L 204.963 110.621 z" stroke="none" fill-rule="evenodd" fill="rgb(0, 0, 0)"/></g></svg>