<?xml version="1.0" encoding="utf-8" ?><!DOCTYPE svg PUBLIC "-//W3C//DTD SVG 1.1//EN" "http://www.w3.org/Graphics/SVG/1.1/DTD/svg11.dtd" 
[ <!ATTLIST svg 
  xmlns:dsy CDATA #FIXED "http://www.3ds.com/print"  
    dsy:text-version CDATA #IMPLIED > 

  <!ATTLIST text 
  xmlns:dsy CDATA #FIXED "http://www.3ds.com/print" 
    dsy:text-version CDATA #IMPLIED > 
]><svg xmlns="http://www.w3.org/2000/svg" xmlns:dsy="http://www.3ds.com/print" dsy:text-version="18000" width="297" height="210" viewBox="0 0 297 210" version="1.1"><g stroke="rgb(0, 0, 0)" stroke-width="0.35" stroke-linecap="butt" stroke-linejoin="miter" fill="none"><path d="M 146.751 85.3607 A 7 7 0 0 0 134.116 79.6558"/><path d="M 134.116 79.6558 L 113.627 112.067"/><circle cx="140.033" cy="83.3962" r="3.2"/><path d="M 128.123 104.172 A 14.1723 9.99998 -38.2542 0 0 123.035 116.315"/><path d="M 129.443 103.035 A 20.018 20.018 0 0 0 128.123 104.172"/><path d="M 142.625 99.4717 A 14.1726 10.0002 -38.255 0 0 129.443 103.035"/><path d="M 146.751 85.3607 L 142.625 99.4717"/><path d="M 113.627 112.067 L 123.035 116.315"/><path d="M 199.245 78.8165 A 7 7 0 0 0 186.609 84.5214"/><path d="M 199.245 78.8165 L 219.734 111.228"/><circle cx="193.328" cy="82.5569" r="3.2"/><path d="M 213.363 114.104 A 14.1732 10.0009 -321.749 0 0 208.392 105.82"/><path d="M 207.071 104.683 A 14.1723 9.99998 -321.746 0 0 191.729 102.029"/><path d="M 208.392 105.82 A 20.0181 20.0181 0 0 0 207.071 104.683"/><path d="M 186.609 84.5214 L 191.729 102.029"/><path d="M 219.734 111.228 L 213.363 114.104"/></g><g stroke="rgb(0, 0, 0)" stroke-width="0.13" stroke-linecap="butt" stroke-linejoin="miter" fill="none"><path d="M 139.978 166.938 L 140.641 166.938 L 141.167 165.468 L 143.163 165.468 L 143.689 166.938 L 144.366 166.938 L 142.536 161.931 L 141.801 161.931 L 139.978 166.938 L 139.978 166.938 z M 141.398 164.856 L 142.169 162.651 L 142.939 164.856 L 141.398 164.856 L 141.398 164.856 z M 145.634 165.288 L 147.378 165.288 L 147.378 164.719 L 145.634 164.719 L 145.634 165.288 L 145.634 165.288 z M 148.653 166.938 L 149.316 166.938 L 149.841 165.468 L 151.837 165.468 L 152.363 166.938 L 153.04 166.938 L 151.21 161.931 L 150.475 161.931 L 148.653 166.938 L 148.653 166.938 z M 150.072 164.856 L 150.843 162.651 L 151.614 164.856 L 150.072 164.856 L 150.072 164.856 z M 153.927 166.938 L 154.561 166.938 L 154.561 164.726 L 154.625 164.193 L 154.82 163.811 L 155.137 163.581 L 155.562 163.501 L 155.879 163.552 L 156.117 163.696 L 156.261 163.941 L 156.311 164.272 L 156.952 164.272 L 156.866 163.689 L 156.628 163.271 L 156.232 163.019 L 155.692 162.932 L 155.324 162.99 L 155.007 163.134 L 154.726 163.379 L 154.503 163.71 L 154.503 163.069 L 153.927 163.069 L 153.927 166.938 L 153.927 166.938 z M 157.774 166.938 L 158.357 166.938 L 158.357 164.352 L 158.393 163.963 L 158.501 163.682 L 158.667 163.516 L 158.883 163.451 L 159.056 163.509 L 159.171 163.653 L 159.229 163.898 L 159.251 164.222 L 159.251 166.938 L 159.798 166.938 L 159.798 164.352 L 159.834 163.97 L 159.942 163.689 L 160.115 163.516 L 160.331 163.451 L 160.504 163.509 L 160.62 163.653 L 160.692 164.222 L 160.692 166.938 L 161.275 166.938 L 161.275 164.265 L 161.239 163.71 L 161.124 163.285 L 160.893 163.026 L 160.519 162.932 L 160.079 163.076 L 159.741 163.494 L 159.474 163.084 L 159.027 162.932 L 158.617 163.076 L 158.336 163.48 L 158.336 163.069 L 157.774 163.069 L 157.774 166.938 L 157.774 166.938 z M 166.585 166.938 L 167.255 166.938 L 167.255 164.827 L 167.939 164.827 L 168.444 164.849 L 168.761 164.95 L 168.934 165.187 L 169.006 165.612 L 169.042 166.261 L 169.085 166.686 L 169.171 166.938 L 169.928 166.938 L 169.928 166.801 L 169.762 166.599 L 169.705 166.225 L 169.654 165.418 L 169.532 164.82 L 169.366 164.633 L 169.107 164.496 L 169.395 164.316 L 169.597 164.063 L 169.726 163.746 L 169.769 163.365 L 169.669 162.759 L 169.38 162.305 L 168.905 162.032 L 168.256 161.938 L 166.585 161.938 L 166.585 166.938 L 166.585 166.938 z M 168.069 162.55 L 168.509 162.594 L 168.818 162.731 L 169.013 162.983 L 169.078 163.379 L 169.006 163.797 L 168.811 164.049 L 168.48 164.179 L 168.026 164.215 L 167.255 164.215 L 167.255 162.55 L 168.069 162.55 L 168.069 162.55 z M 171.592 165.187 L 174.128 165.187 L 174.135 164.892 L 174.02 164.063 L 173.703 163.444 L 173.199 163.069 L 172.529 162.932 L 171.873 163.076 L 171.369 163.48 L 171.045 164.135 L 170.929 165 L 171.037 165.886 L 171.362 166.535 L 171.859 166.938 L 172.507 167.075 L 173.069 166.981 L 173.53 166.736 L 173.869 166.347 L 174.063 165.829 L 173.437 165.829 L 173.307 166.117 L 173.12 166.333 L 172.586 166.506 L 172.176 166.427 L 171.866 166.174 L 171.664 165.764 L 171.592 165.209 L 171.592 165.187 L 171.592 165.187 z M 171.592 164.654 L 171.671 164.157 L 171.866 163.79 L 172.161 163.566 L 172.55 163.487 L 172.932 163.566 L 173.228 163.79 L 173.408 164.157 L 173.473 164.654 L 171.592 164.654 L 171.592 164.654 z M 177.673 166.434 L 177.673 166.455 L 177.709 166.7 L 177.817 166.873 L 178.271 167.01 L 178.624 166.952 L 178.624 166.463 L 178.473 166.484 L 178.271 166.39 L 178.235 166.102 L 178.235 164.099 L 178.148 163.588 L 177.896 163.228 L 177.457 163.012 L 176.837 162.932 L 176.232 163.019 L 175.785 163.264 L 175.504 163.646 L 175.411 164.15 L 175.411 164.193 L 175.98 164.193 L 176.03 163.89 L 176.189 163.674 L 176.448 163.545 L 176.816 163.494 L 177.169 163.53 L 177.421 163.638 L 177.572 163.826 L 177.622 164.085 L 177.594 164.388 L 177.478 164.539 L 177.19 164.611 L 176.65 164.669 L 176.03 164.798 L 175.591 165.029 L 175.331 165.389 L 175.252 165.922 L 175.324 166.398 L 175.548 166.751 L 175.908 166.974 L 176.405 167.053 L 177.075 166.902 L 177.673 166.434 L 177.673 166.434 z M 177.601 165.584 L 177.514 165.958 L 177.284 166.246 L 176.938 166.434 L 176.513 166.499 L 176.239 166.463 L 176.045 166.347 L 175.922 166.146 L 175.886 165.865 L 175.915 165.612 L 176.03 165.432 L 176.491 165.231 L 177.075 165.144 L 177.601 164.971 L 177.601 165.584 L 177.601 165.584 z M 179.95 166.938 L 180.584 166.938 L 180.584 164.726 L 180.648 164.193 L 180.843 163.811 L 181.16 163.581 L 181.585 163.501 L 181.902 163.552 L 182.14 163.696 L 182.284 163.941 L 182.334 164.272 L 182.975 164.272 L 182.889 163.689 L 182.651 163.271 L 182.255 163.019 L 181.715 162.932 L 181.347 162.99 L 181.03 163.134 L 180.749 163.379 L 180.526 163.71 L 180.526 163.069 L 179.95 163.069 L 179.95 166.938 L 179.95 166.938 z M 188.415 166.938 L 191.628 166.938 L 191.628 166.333 L 189.078 166.333 L 189.078 161.938 L 188.415 161.938 L 188.415 166.938 L 188.415 166.938 z M 192.536 165.007 L 192.651 165.886 L 192.983 166.535 L 193.509 166.938 L 194.215 167.075 L 194.914 166.938 L 195.439 166.542 L 195.771 165.893 L 195.893 165.007 L 195.771 164.128 L 195.439 163.473 L 194.914 163.076 L 194.215 162.932 L 193.509 163.076 L 192.983 163.48 L 192.651 164.128 L 192.536 165.007 L 192.536 165.007 z M 193.184 165 L 193.249 164.352 L 193.451 163.883 L 193.775 163.595 L 194.215 163.494 L 194.647 163.595 L 194.971 163.876 L 195.173 164.352 L 195.245 165 L 195.173 165.656 L 194.971 166.131 L 194.647 166.419 L 194.215 166.513 L 193.775 166.419 L 193.451 166.131 L 193.249 165.656 L 193.184 165 L 193.184 165 z M 197.975 166.938 L 198.552 163.653 L 199.128 166.938 L 199.733 166.938 L 200.684 163.069 L 200.072 163.069 L 199.431 166.354 L 198.862 163.069 L 198.235 163.069 L 197.666 166.354 L 197.024 163.069 L 196.419 163.069 L 197.37 166.938 L 197.975 166.938 L 197.975 166.938 z M 201.952 165.187 L 204.488 165.187 L 204.496 164.892 L 204.38 164.063 L 204.063 163.444 L 203.559 163.069 L 202.889 162.932 L 202.233 163.076 L 201.729 163.48 L 201.405 164.135 L 201.29 165 L 201.398 165.886 L 201.722 166.535 L 202.219 166.938 L 202.867 167.075 L 203.429 166.981 L 203.89 166.736 L 204.229 166.347 L 204.424 165.829 L 203.797 165.829 L 203.667 166.117 L 203.48 166.333 L 202.947 166.506 L 202.536 166.427 L 202.226 166.174 L 202.024 165.764 L 201.952 165.209 L 201.952 165.187 L 201.952 165.187 z M 201.952 164.654 L 202.032 164.157 L 202.226 163.79 L 202.522 163.566 L 202.911 163.487 L 203.292 163.566 L 203.588 163.79 L 203.768 164.157 L 203.833 164.654 L 201.952 164.654 L 201.952 164.654 z M 205.973 166.938 L 206.607 166.938 L 206.607 164.726 L 206.671 164.193 L 206.866 163.811 L 207.183 163.581 L 207.608 163.501 L 207.925 163.552 L 208.163 163.696 L 208.307 163.941 L 208.357 164.272 L 208.999 164.272 L 208.912 163.689 L 208.674 163.271 L 208.278 163.019 L 207.738 162.932 L 207.37 162.99 L 207.053 163.134 L 206.772 163.379 L 206.549 163.71 L 206.549 163.069 L 205.973 163.069 L 205.973 166.938 L 205.973 166.938 z M 215.029 165.288 L 216.772 165.288 L 216.772 164.719 L 215.029 164.719 L 215.029 165.288 L 215.029 165.288 z" stroke="none" fill-rule="evenodd" fill="rgb(0, 0, 0)"/></g><g stroke="rgb(0, 0, 0)" stroke-width="0.13" stroke-linecap="butt" stroke-linejoin="miter" fill="none"><path d="M 140.562 175.576 L 141.232 175.576 L 141.232 173.465 L 141.916 173.465 L 142.421 173.487 L 142.738 173.588 L 142.911 173.826 L 142.983 174.251 L 143.019 174.899 L 143.062 175.324 L 143.148 175.576 L 143.905 175.576 L 143.905 175.439 L 143.739 175.238 L 143.682 174.863 L 143.631 174.056 L 143.509 173.458 L 143.343 173.271 L 143.084 173.134 L 143.372 172.954 L 143.573 172.702 L 143.703 172.385 L 143.746 172.003 L 143.646 171.398 L 143.357 170.944 L 142.882 170.67 L 142.233 170.576 L 140.562 170.576 L 140.562 175.576 L 140.562 175.576 z M 142.046 171.189 L 142.486 171.232 L 142.795 171.369 L 142.99 171.621 L 143.055 172.017 L 142.983 172.435 L 142.788 172.687 L 142.457 172.817 L 142.003 172.853 L 141.232 172.853 L 141.232 171.189 L 142.046 171.189 L 142.046 171.189 z M 144.784 173.674 L 144.885 174.575 L 145.202 175.216 L 145.735 175.584 L 146.506 175.713 L 147.269 175.584 L 147.803 175.216 L 148.12 174.582 L 148.228 173.674 L 148.228 170.576 L 147.558 170.576 L 147.558 173.71 L 147.493 174.323 L 147.298 174.762 L 146.967 175.022 L 146.506 175.108 L 146.03 175.022 L 145.699 174.762 L 145.504 174.33 L 145.447 173.71 L 145.447 170.576 L 144.784 170.576 L 144.784 173.674 L 144.784 173.674 z M 154.287 174.978 L 154.755 175.533 L 155.396 175.713 L 156.001 175.576 L 156.484 175.166 L 156.787 174.51 L 156.902 173.638 L 156.787 172.767 L 156.477 172.118 L 156.001 171.715 L 155.396 171.571 L 154.762 171.758 L 154.503 171.988 L 154.287 172.298 L 154.287 170.403 L 153.653 170.403 L 153.653 175.576 L 154.287 175.576 L 154.287 174.978 L 154.287 174.978 z M 156.254 173.638 L 156.182 174.287 L 155.987 174.762 L 155.677 175.05 L 155.288 175.144 L 154.863 175.05 L 154.553 174.762 L 154.359 174.294 L 154.294 173.638 L 154.359 172.99 L 154.553 172.522 L 154.863 172.241 L 155.288 172.14 L 155.677 172.241 L 155.987 172.529 L 156.182 172.997 L 156.254 173.638 L 156.254 173.638 z M 158.264 175.576 L 158.898 175.576 L 158.898 173.365 L 158.963 172.831 L 159.157 172.45 L 159.474 172.219 L 159.899 172.14 L 160.216 172.19 L 160.454 172.334 L 160.598 172.579 L 160.648 172.911 L 161.29 172.911 L 161.203 172.327 L 160.965 171.909 L 160.569 171.657 L 160.029 171.571 L 159.661 171.628 L 159.344 171.772 L 159.063 172.017 L 158.84 172.349 L 158.84 171.707 L 158.264 171.707 L 158.264 175.576 L 158.264 175.576 z M 164.661 175.072 L 164.661 175.094 L 164.697 175.339 L 164.805 175.512 L 165.259 175.648 L 165.612 175.591 L 165.612 175.101 L 165.461 175.122 L 165.259 175.029 L 165.223 174.741 L 165.223 172.738 L 165.137 172.226 L 164.885 171.866 L 164.445 171.65 L 163.826 171.571 L 163.22 171.657 L 162.774 171.902 L 162.493 172.284 L 162.399 172.788 L 162.399 172.831 L 162.968 172.831 L 163.019 172.529 L 163.177 172.313 L 163.437 172.183 L 163.804 172.133 L 164.157 172.169 L 164.409 172.277 L 164.561 172.464 L 164.611 172.723 L 164.582 173.026 L 164.467 173.177 L 164.179 173.249 L 163.638 173.307 L 163.019 173.437 L 162.579 173.667 L 162.32 174.027 L 162.241 174.561 L 162.313 175.036 L 162.536 175.389 L 162.896 175.612 L 163.393 175.692 L 164.063 175.54 L 164.661 175.072 L 164.661 175.072 z M 164.589 174.222 L 164.503 174.597 L 164.272 174.885 L 163.926 175.072 L 163.501 175.137 L 163.228 175.101 L 163.033 174.986 L 162.911 174.784 L 162.875 174.503 L 162.903 174.251 L 163.019 174.071 L 163.48 173.869 L 164.063 173.782 L 164.589 173.61 L 164.589 174.222 L 164.589 174.222 z M 169.164 172.99 L 169.791 172.99 L 169.661 172.414 L 169.352 171.96 L 168.869 171.679 L 168.242 171.571 L 167.55 171.715 L 167.024 172.118 L 166.693 172.774 L 166.578 173.653 L 166.686 174.524 L 167.01 175.173 L 167.522 175.576 L 168.22 175.713 L 168.84 175.605 L 169.323 175.303 L 169.654 174.827 L 169.798 174.193 L 169.193 174.193 L 169.085 174.597 L 168.883 174.899 L 168.595 175.086 L 168.242 175.144 L 167.803 175.05 L 167.486 174.762 L 167.291 174.294 L 167.226 173.631 L 167.291 172.983 L 167.493 172.514 L 167.817 172.226 L 168.242 172.125 L 168.617 172.19 L 168.898 172.356 L 169.085 172.63 L 169.164 172.99 L 169.164 172.99 z M 171.124 175.576 L 171.758 175.576 L 171.758 174.215 L 172.421 173.573 L 173.559 175.576 L 174.272 175.576 L 172.853 173.134 L 174.308 171.707 L 173.509 171.707 L 171.758 173.451 L 171.758 170.403 L 171.124 170.403 L 171.124 175.576 L 171.124 175.576 z M 175.929 173.826 L 178.465 173.826 L 178.473 173.53 L 178.357 172.702 L 178.04 172.082 L 177.536 171.707 L 176.866 171.571 L 176.21 171.715 L 175.706 172.118 L 175.382 172.774 L 175.267 173.638 L 175.375 174.524 L 175.699 175.173 L 176.196 175.576 L 176.844 175.713 L 177.406 175.62 L 177.867 175.375 L 178.206 174.986 L 178.401 174.467 L 177.774 174.467 L 177.644 174.755 L 177.457 174.971 L 176.924 175.144 L 176.513 175.065 L 176.203 174.813 L 176.001 174.402 L 175.929 173.847 L 175.929 173.826 L 175.929 173.826 z M 175.929 173.293 L 176.009 172.795 L 176.203 172.428 L 176.499 172.205 L 176.888 172.125 L 177.269 172.205 L 177.565 172.428 L 177.745 172.795 L 177.81 173.293 L 175.929 173.293 L 175.929 173.293 z M 180.562 172.378 L 180.562 174.316 L 180.605 174.942 L 180.807 175.375 L 181.21 175.627 L 181.895 175.713 L 182.644 175.677 L 182.644 175.13 L 182.097 175.173 L 181.599 175.115 L 181.333 174.935 L 181.218 174.633 L 181.196 174.207 L 181.196 172.378 L 182.644 172.378 L 182.644 171.837 L 181.196 171.837 L 181.196 170.706 L 180.562 170.706 L 180.562 171.837 L 179.467 171.837 L 179.467 172.378 L 180.562 172.378 L 180.562 172.378 z M 189.87 170.576 L 188.206 170.576 L 188.206 175.576 L 189.87 175.576 L 190.656 175.418 L 191.239 174.935 L 191.599 174.15 L 191.729 173.076 L 191.614 171.981 L 191.47 171.549 L 191.268 171.203 L 190.684 170.735 L 190.303 170.62 L 189.87 170.576 L 189.87 170.576 z M 189.82 171.174 L 190.367 171.282 L 190.742 171.614 L 190.965 172.205 L 191.037 173.076 L 190.958 173.919 L 190.735 174.51 L 190.353 174.863 L 189.82 174.978 L 188.876 174.978 L 188.876 171.174 L 189.82 171.174 L 189.82 171.174 z M 192.608 175.576 L 193.278 175.576 L 193.278 173.465 L 193.963 173.465 L 194.467 173.487 L 194.784 173.588 L 194.957 173.826 L 195.029 174.251 L 195.065 174.899 L 195.108 175.324 L 195.195 175.576 L 195.951 175.576 L 195.951 175.439 L 195.785 175.238 L 195.728 174.863 L 195.677 174.056 L 195.555 173.458 L 195.389 173.271 L 195.13 173.134 L 195.418 172.954 L 195.62 172.702 L 195.749 172.385 L 195.792 172.003 L 195.692 171.398 L 195.403 170.944 L 194.928 170.67 L 194.28 170.576 L 192.608 170.576 L 192.608 175.576 L 192.608 175.576 z M 194.092 171.189 L 194.532 171.232 L 194.841 171.369 L 195.036 171.621 L 195.101 172.017 L 195.029 172.435 L 194.834 172.687 L 194.503 172.817 L 194.049 172.853 L 193.278 172.853 L 193.278 171.189 L 194.092 171.189 L 194.092 171.189 z M 196.7 173.076 L 196.83 174.2 L 197.205 175.029 L 197.788 175.54 L 198.552 175.713 L 199.308 175.54 L 199.899 175.029 L 200.267 174.2 L 200.403 173.076 L 200.267 171.96 L 200.108 171.506 L 199.899 171.131 L 199.308 170.62 L 198.948 170.49 L 198.552 170.439 L 197.781 170.62 L 197.197 171.124 L 196.83 171.952 L 196.7 173.076 L 196.7 173.076 z M 197.392 173.076 L 197.471 172.205 L 197.709 171.563 L 198.076 171.174 L 198.552 171.037 L 199.02 171.174 L 199.388 171.571 L 199.625 172.212 L 199.712 173.076 L 199.625 173.948 L 199.388 174.589 L 199.02 174.978 L 198.552 175.108 L 198.076 174.978 L 197.709 174.589 L 197.471 173.955 L 197.392 173.076 L 197.392 173.076 z M 202.558 174.971 L 201.635 174.971 L 201.635 175.576 L 204.143 175.576 L 204.143 174.971 L 203.22 174.971 L 203.22 171.182 L 204.143 171.182 L 204.143 170.576 L 201.635 170.576 L 201.635 171.182 L 202.558 171.182 L 202.558 174.971 L 202.558 174.971 z M 206.895 175.576 L 207.558 175.576 L 207.558 171.182 L 209.071 171.182 L 209.071 170.576 L 205.375 170.576 L 205.375 171.182 L 206.895 171.182 L 206.895 175.576 L 206.895 175.576 z M 210.05 175.576 L 213.22 175.576 L 213.22 174.971 L 210.713 174.971 L 210.713 173.278 L 212.947 173.278 L 212.947 172.68 L 210.713 172.68 L 210.713 171.182 L 213.163 171.182 L 213.163 170.576 L 210.05 170.576 L 210.05 175.576 L 210.05 175.576 z" stroke="none" fill-rule="evenodd" fill="rgb(0, 0, 0)"/></g><g stroke="rgb(0, 0, 0)" stroke-width="0.13" stroke-linecap="butt" stroke-linejoin="miter" fill="none"><path d="M 130.558 91.327 L 131.027 91.327 L 131.027 89.8493 L 131.506 89.8493 L 131.859 89.8645 L 132.081 89.9351 L 132.202 90.1015 L 132.253 90.399 L 132.278 90.8529 L 132.308 91.1505 L 132.369 91.327 L 132.898 91.327 L 132.898 91.2312 L 132.782 91.09 L 132.742 90.8277 L 132.707 90.2629 L 132.621 89.8443 L 132.505 89.7132 L 132.323 89.6173 L 132.525 89.4913 L 132.666 89.3147 L 132.757 89.0928 L 132.787 88.8255 L 132.717 88.4019 L 132.515 88.0842 L 132.182 87.8925 L 131.728 87.827 L 130.558 87.827 L 130.558 91.327 L 130.558 91.327 z M 131.597 88.2557 L 131.905 88.2859 L 132.122 88.3817 L 132.258 88.5583 L 132.303 88.8356 L 132.253 89.1281 L 132.116 89.3047 L 131.884 89.3954 L 131.567 89.4206 L 131.027 89.4206 L 131.027 88.2557 L 131.597 88.2557 L 131.597 88.2557 z M 133.594 91.327 L 134.063 91.327 L 134.063 89.8493 L 134.542 89.8493 L 134.895 89.8645 L 135.117 89.9351 L 135.238 90.1015 L 135.289 90.399 L 135.314 90.8529 L 135.344 91.1505 L 135.405 91.327 L 135.934 91.327 L 135.934 91.2312 L 135.818 91.09 L 135.778 90.8277 L 135.743 90.2629 L 135.657 89.8443 L 135.541 89.7132 L 135.359 89.6173 L 135.561 89.4913 L 135.702 89.3147 L 135.793 89.0928 L 135.823 88.8255 L 135.753 88.4019 L 135.551 88.0842 L 135.218 87.8925 L 134.764 87.827 L 133.594 87.827 L 133.594 91.327 L 133.594 91.327 z M 134.633 88.2557 L 134.941 88.2859 L 135.158 88.3817 L 135.294 88.5583 L 135.339 88.8356 L 135.289 89.1281 L 135.152 89.3047 L 134.921 89.3954 L 134.603 89.4206 L 134.063 89.4206 L 134.063 88.2557 L 134.633 88.2557 L 134.633 88.2557 z M 136.731 91.327 L 138.98 91.327 L 138.98 90.9034 L 137.195 90.9034 L 137.195 87.827 L 136.731 87.827 L 136.731 91.327 L 136.731 91.327 z M 140.181 90.1721 L 141.401 90.1721 L 141.401 89.7737 L 140.181 89.7737 L 140.181 90.1721 L 140.181 90.1721 z" stroke="none" fill-rule="evenodd" fill="rgb(0, 0, 0)"/></g><g stroke="rgb(0, 0, 0)" stroke-width="0.13" stroke-linecap="butt" stroke-linejoin="miter" fill="none"><path d="M 130.558 97.3738 L 131.027 97.3738 L 131.027 95.8961 L 131.506 95.8961 L 131.859 95.9113 L 132.081 95.9819 L 132.202 96.1483 L 132.253 96.4459 L 132.278 96.8998 L 132.308 97.1973 L 132.369 97.3738 L 132.898 97.3738 L 132.898 97.278 L 132.782 97.1368 L 132.742 96.8745 L 132.707 96.3097 L 132.621 95.8911 L 132.505 95.76 L 132.323 95.6642 L 132.525 95.5381 L 132.666 95.3616 L 132.757 95.1397 L 132.787 94.8724 L 132.717 94.4487 L 132.515 94.131 L 132.182 93.9394 L 131.728 93.8738 L 130.558 93.8738 L 130.558 97.3738 L 130.558 97.3738 z M 131.597 94.3025 L 131.905 94.3327 L 132.122 94.4286 L 132.258 94.6051 L 132.303 94.8825 L 132.253 95.175 L 132.116 95.3515 L 131.884 95.4423 L 131.567 95.4675 L 131.027 95.4675 L 131.027 94.3025 L 131.597 94.3025 L 131.597 94.3025 z M 133.513 96.0424 L 133.584 96.6728 L 133.806 97.1217 L 134.179 97.3789 L 134.719 97.4696 L 135.253 97.3789 L 135.627 97.1217 L 135.848 96.6778 L 135.924 96.0424 L 135.924 93.8738 L 135.455 93.8738 L 135.455 96.0676 L 135.41 96.4963 L 135.274 96.8039 L 135.042 96.9855 L 134.719 97.046 L 134.386 96.9855 L 134.154 96.8039 L 134.018 96.5013 L 133.977 96.0676 L 133.977 93.8738 L 133.513 93.8738 L 133.513 96.0424 L 133.513 96.0424 z M 136.549 96.0424 L 136.62 96.6728 L 136.842 97.1217 L 137.215 97.3789 L 137.755 97.4696 L 138.289 97.3789 L 138.663 97.1217 L 138.884 96.6778 L 138.96 96.0424 L 138.96 93.8738 L 138.491 93.8738 L 138.491 96.0676 L 138.446 96.4963 L 138.31 96.8039 L 138.078 96.9855 L 137.755 97.046 L 137.422 96.9855 L 137.19 96.8039 L 137.054 96.5013 L 137.013 96.0676 L 137.013 93.8738 L 136.549 93.8738 L 136.549 96.0424 L 136.549 96.0424 z" stroke="none" fill-rule="evenodd" fill="rgb(0, 0, 0)"/></g><g stroke="rgb(0, 0, 0)" stroke-width="0.13" stroke-linecap="butt" stroke-linejoin="miter" fill="none"><path d="M 191.776 91.9324 L 192.245 91.9324 L 192.245 90.4548 L 192.724 90.4548 L 193.077 90.4699 L 193.299 90.5405 L 193.42 90.7069 L 193.47 91.0045 L 193.495 91.4584 L 193.526 91.7559 L 193.586 91.9324 L 194.116 91.9324 L 194.116 91.8366 L 194 91.6954 L 193.959 91.4331 L 193.924 90.8683 L 193.838 90.4497 L 193.722 90.3186 L 193.541 90.2228 L 193.743 90.0967 L 193.884 89.9202 L 193.975 89.6983 L 194.005 89.431 L 193.934 89.0073 L 193.732 88.6896 L 193.4 88.498 L 192.946 88.4324 L 191.776 88.4324 L 191.776 91.9324 L 191.776 91.9324 z M 192.815 88.8611 L 193.122 88.8913 L 193.339 88.9872 L 193.475 89.1637 L 193.521 89.4411 L 193.47 89.7336 L 193.334 89.9101 L 193.102 90.0009 L 192.784 90.0261 L 192.245 90.0261 L 192.245 88.8611 L 192.815 88.8611 L 192.815 88.8611 z M 194.812 91.9324 L 195.281 91.9324 L 195.281 90.4548 L 195.76 90.4548 L 196.113 90.4699 L 196.335 90.5405 L 196.456 90.7069 L 196.506 91.0045 L 196.531 91.4584 L 196.562 91.7559 L 196.622 91.9324 L 197.152 91.9324 L 197.152 91.8366 L 197.036 91.6954 L 196.995 91.4331 L 196.96 90.8683 L 196.874 90.4497 L 196.758 90.3186 L 196.577 90.2228 L 196.779 90.0967 L 196.92 89.9202 L 197.011 89.6983 L 197.041 89.431 L 196.97 89.0073 L 196.769 88.6896 L 196.436 88.498 L 195.982 88.4324 L 194.812 88.4324 L 194.812 91.9324 L 194.812 91.9324 z M 195.851 88.8611 L 196.158 88.8913 L 196.375 88.9872 L 196.511 89.1637 L 196.557 89.4411 L 196.506 89.7336 L 196.37 89.9101 L 196.138 90.0009 L 195.82 90.0261 L 195.281 90.0261 L 195.281 88.8611 L 195.851 88.8611 L 195.851 88.8611 z M 197.949 91.9324 L 200.198 91.9324 L 200.198 91.5088 L 198.413 91.5088 L 198.413 88.4324 L 197.949 88.4324 L 197.949 91.9324 L 197.949 91.9324 z M 201.398 90.7775 L 202.619 90.7775 L 202.619 90.3791 L 201.398 90.3791 L 201.398 90.7775 L 201.398 90.7775 z" stroke="none" fill-rule="evenodd" fill="rgb(0, 0, 0)"/></g><g stroke="rgb(0, 0, 0)" stroke-width="0.13" stroke-linecap="butt" stroke-linejoin="miter" fill="none"><path d="M 191.776 97.9792 L 192.245 97.9792 L 192.245 96.5016 L 192.724 96.5016 L 193.077 96.5167 L 193.299 96.5873 L 193.42 96.7537 L 193.47 97.0513 L 193.495 97.5052 L 193.526 97.8027 L 193.586 97.9792 L 194.116 97.9792 L 194.116 97.8834 L 194 97.7422 L 193.959 97.48 L 193.924 96.9151 L 193.838 96.4965 L 193.722 96.3654 L 193.541 96.2696 L 193.743 96.1435 L 193.884 95.967 L 193.975 95.7451 L 194.005 95.4778 L 193.934 95.0542 L 193.732 94.7365 L 193.4 94.5448 L 192.946 94.4792 L 191.776 94.4792 L 191.776 97.9792 L 191.776 97.9792 z M 192.815 94.9079 L 193.122 94.9382 L 193.339 95.034 L 193.475 95.2105 L 193.521 95.4879 L 193.47 95.7804 L 193.334 95.9569 L 193.102 96.0477 L 192.784 96.0729 L 192.245 96.0729 L 192.245 94.9079 L 192.815 94.9079 L 192.815 94.9079 z M 194.731 96.6478 L 194.802 97.2782 L 195.024 97.7271 L 195.397 97.9843 L 195.936 98.0751 L 196.471 97.9843 L 196.844 97.7271 L 197.066 97.2833 L 197.142 96.6478 L 197.142 94.4792 L 196.673 94.4792 L 196.673 96.673 L 196.627 97.1017 L 196.491 97.4094 L 196.259 97.5909 L 195.936 97.6514 L 195.604 97.5909 L 195.372 97.4094 L 195.235 97.1068 L 195.195 96.673 L 195.195 94.4792 L 194.731 94.4792 L 194.731 96.6478 L 194.731 96.6478 z M 198.967 94.4792 L 197.802 94.4792 L 197.802 97.9792 L 198.967 97.9792 L 199.517 97.8683 L 199.926 97.5304 L 200.178 96.9807 L 200.269 96.2292 L 200.188 95.4627 L 200.087 95.1601 L 199.946 94.918 L 199.537 94.5902 L 199.27 94.5095 L 198.967 94.4792 L 198.967 94.4792 z M 198.932 94.8978 L 199.315 94.9735 L 199.578 95.2055 L 199.734 95.619 L 199.784 96.2292 L 199.729 96.8193 L 199.573 97.2328 L 199.305 97.48 L 198.932 97.5607 L 198.271 97.5607 L 198.271 94.8978 L 198.932 94.8978 L 198.932 94.8978 z" stroke="none" fill-rule="evenodd" fill="rgb(0, 0, 0)"/></g></svg>