<?xml version="1.0" encoding="utf-8" ?><!DOCTYPE svg PUBLIC "-//W3C//DTD SVG 1.1//EN" "http://www.w3.org/Graphics/SVG/1.1/DTD/svg11.dtd" 
[ <!ATTLIST svg 
  xmlns:dsy CDATA #FIXED "http://www.3ds.com/print"  
    dsy:text-version CDATA #IMPLIED > 

  <!ATTLIST text 
  xmlns:dsy CDATA #FIXED "http://www.3ds.com/print" 
    dsy:text-version CDATA #IMPLIED > 
]><svg xmlns="http://www.w3.org/2000/svg" xmlns:dsy="http://www.3ds.com/print" dsy:text-version="18000" width="297" height="210" viewBox="0 0 297 210" version="1.1"><g stroke="rgb(0, 0, 0)" stroke-width="0.35" stroke-linecap="butt" stroke-linejoin="miter" fill="none"><path d="M 152.949 95.4096 A 7 7 0 0 0 139.094 95.8979"/><circle cx="146.056" cy="96.6274" r="3.2"/><path d="M 146.068 109.852 A 15.0595 9.99998 -349.426 0 0 137.622 109.953"/><path d="M 156.433 115.126 A 15.0595 10 -349.426 0 0 146.068 109.852"/><path d="M 152.949 95.4096 L 156.433 115.126"/><path d="M 139.094 95.8979 L 137.622 109.953"/><path d="M 204.691 98.7838 A 7 7 0 0 0 190.836 98.2955"/><circle cx="197.73" cy="99.5133" r="3.2"/><path d="M 206.46 115.667 A 15.0598 10.0003 -10.5749 0 0 193.29 113.564"/><path d="M 193.29 113.564 A 15.0593 9.99973 -10.5741 0 0 187.825 115.341"/><path d="M 190.836 98.2955 L 187.825 115.341"/><path d="M 204.691 98.7838 L 206.46 115.667"/><path d="M 9.99999 200 L 287 200"/><path d="M 287 200 L 287 10"/><path d="M 287 10 L 9.99999 10"/><path d="M 9.99999 10 L 9.99999 200"/><path d="M 148.5 10 L 148.5 0"/><path d="M 9.99999 105 L -5.94366e-006 105"/><path d="M 287 105 L 297 105"/><path d="M 222.7 200 L 222.7 207.5"/><path d="M 74.3 200 L 74.3 207.5"/><path d="M 222.7 10 L 222.7 2.5"/><path d="M 74.3 10 L 74.3 2.5"/><path d="M 9.99999 52.5 L 2.49999 52.5"/><path d="M 287 52.5 L 294.5 52.5"/><path d="M 9.99999 157.5 L 2.49999 157.5"/><path d="M 287 157.5 L 294.5 157.5"/><path d="M 198.5 200 L 198.5 205"/><path d="M 188.5 200 L 188.5 202.5"/><path d="M 178.5 200 L 178.5 202.5"/><path d="M 168.5 200 L 168.5 202.5"/><path d="M 287 140 L 287 200"/></g><g stroke="rgb(0, 0, 0)" stroke-width="0.13" stroke-linecap="butt" stroke-linejoin="miter" stroke-dasharray="7, 1, 1, 1" fill="none"><path d="M 150.216 96.6274 L 141.896 96.6274"/><path d="M 146.056 92.4674 L 146.056 100.787"/><path d="M 201.89 99.5133 L 193.57 99.5133"/><path d="M 197.73 95.3533 L 197.73 103.673"/></g><g stroke="rgb(0, 0, 0)" stroke-width="0.13" stroke-linecap="butt" stroke-linejoin="miter" fill="none"><path d="M 258.267 206.833 L 258.731 206.833 L 259.099 205.804 L 260.496 205.804 L 260.864 206.833 L 261.338 206.833 L 260.057 203.328 L 259.543 203.328 L 258.267 206.833 L 258.267 206.833 z M 259.26 205.376 L 259.8 203.832 L 260.34 205.376 L 259.26 205.376 L 259.26 205.376 z" stroke="none" fill-rule="evenodd" fill="rgb(0, 0, 0)"/></g><g stroke="rgb(0, 0, 0)" stroke-width="0.13" stroke-linecap="butt" stroke-linejoin="miter" fill="none"><path d="M 37.1949 203.333 L 36.03 203.333 L 36.03 206.833 L 37.1949 206.833 L 37.7447 206.722 L 38.1532 206.384 L 38.4053 205.835 L 38.4961 205.083 L 38.4154 204.317 L 38.3145 204.014 L 38.1733 203.772 L 37.7648 203.444 L 37.4975 203.363 L 37.1949 203.333 L 37.1949 203.333 z M 37.1596 203.752 L 37.5429 203.827 L 37.8052 204.059 L 37.9615 204.473 L 38.012 205.083 L 37.9565 205.673 L 37.8001 206.087 L 37.5328 206.334 L 37.1596 206.415 L 36.499 206.415 L 36.499 203.752 L 37.1596 203.752 L 37.1596 203.752 z" stroke="none" fill-rule="evenodd" fill="rgb(0, 0, 0)"/></g><g stroke="rgb(0, 0, 0)" stroke-width="0.13" stroke-linecap="butt" stroke-linejoin="miter" fill="none"><path d="M 185.542 4.36958 L 185.249 4.01657 L 185.053 3.92578 L 184.811 3.89552 L 184.432 3.96109 L 184.16 4.15778 L 183.994 4.47549 L 183.933 4.9193 L 183.933 6.16498 L 187.433 6.16498 L 187.433 4.84869 L 187.363 4.37968 L 187.156 4.03169 L 186.828 3.81483 L 186.384 3.73918 L 186.087 3.78458 L 185.84 3.90561 L 185.658 4.10229 L 185.542 4.36958 L 185.542 4.36958 z M 185.386 5.01512 L 185.386 5.701 L 184.352 5.701 L 184.352 4.97478 L 184.382 4.70244 L 184.473 4.5108 L 184.629 4.39481 L 184.861 4.35446 L 185.093 4.39986 L 185.255 4.52089 L 185.355 4.72766 L 185.386 5.01512 L 185.386 5.01512 z M 187.015 4.90417 L 187.015 5.701 L 185.809 5.701 L 185.809 4.94955 L 185.845 4.63184 L 185.951 4.40489 L 186.132 4.26872 L 186.394 4.22334 L 186.672 4.26872 L 186.863 4.39481 L 186.979 4.60663 L 187.015 4.90417 L 187.015 4.90417 z" stroke="none" fill-rule="evenodd" fill="rgb(0, 0, 0)"/></g><g stroke="rgb(0, 0, 0)" stroke-width="0.13" stroke-linecap="butt" stroke-linejoin="miter" fill="none"><path d="M 111.932 4.183 L 112.356 4.28386 L 112.658 4.45029 L 112.845 4.68227 L 112.905 4.95461 L 112.815 5.28241 L 112.542 5.53961 L 112.098 5.71109 L 111.483 5.76657 L 110.873 5.71109 L 110.424 5.54466 L 110.152 5.28746 L 110.056 4.95461 L 110.106 4.71252 L 110.248 4.50575 L 110.475 4.34438 L 110.787 4.23343 L 110.787 3.75432 L 110.308 3.90561 L 109.945 4.16786 L 109.718 4.52592 L 109.637 4.95461 L 109.763 5.48918 L 110.116 5.89769 L 110.696 6.15994 L 111.483 6.25072 L 112.27 6.15994 L 112.85 5.89769 L 113.208 5.48918 L 113.329 4.95461 L 113.233 4.48558 L 112.966 4.10735 L 112.527 3.84006 L 111.932 3.69884 L 111.932 4.183 L 111.932 4.183 z" stroke="none" fill-rule="evenodd" fill="rgb(0, 0, 0)"/></g><g stroke="rgb(0, 0, 0)" stroke-width="0.13" stroke-linecap="butt" stroke-linejoin="miter" fill="none"><path d="M 261.633 6.53314 L 261.633 6.06915 L 260.604 5.701 L 260.604 4.30403 L 261.633 3.93587 L 261.633 3.46181 L 258.128 4.74278 L 258.128 5.2572 L 261.633 6.53314 L 261.633 6.53314 z M 260.176 5.53961 L 258.632 5 L 260.176 4.46037 L 260.176 5.53961 L 260.176 5.53961 z" stroke="none" fill-rule="evenodd" fill="rgb(0, 0, 0)"/></g><g stroke="rgb(0, 0, 0)" stroke-width="0.13" stroke-linecap="butt" stroke-linejoin="miter" fill="none"><path d="M 35.5332 5.00504 L 35.5332 6.17003 L 39.0332 6.17003 L 39.0332 5.00504 L 38.9223 4.45532 L 38.5844 4.04683 L 38.0346 3.79466 L 37.2832 3.70389 L 36.5166 3.78458 L 36.214 3.88544 L 35.972 4.02666 L 35.6442 4.43515 L 35.5635 4.70244 L 35.5332 5.00504 L 35.5332 5.00504 z M 35.9518 5.04034 L 36.0274 4.65706 L 36.2594 4.39481 L 36.673 4.23846 L 37.2832 4.18803 L 37.8733 4.24352 L 38.2868 4.39986 L 38.5339 4.66714 L 38.6146 5.04034 L 38.6146 5.701 L 35.9518 5.701 L 35.9518 5.04034 L 35.9518 5.04034 z" stroke="none" fill-rule="evenodd" fill="rgb(0, 0, 0)"/></g><g stroke="rgb(0, 0, 0)" stroke-width="0.13" stroke-linecap="butt" stroke-linejoin="miter" fill="none"><path d="M 290.729 79.4838 L 290.729 79.5191 L 290.81 80.0032 L 291.047 80.3663 L 291.42 80.5983 L 291.914 80.6841 L 292.439 80.5983 L 292.832 80.3764 L 293.084 80.0234 L 293.175 79.5695 L 293.135 79.272 L 293.024 79.0299 L 292.842 78.8433 L 292.6 78.7071 L 292.928 78.4348 L 293.044 78.0011 L 292.968 77.6077 L 292.751 77.3102 L 292.398 77.1236 L 291.914 77.058 L 291.46 77.1387 L 291.112 77.3606 L 290.885 77.7136 L 290.81 78.1826 L 290.81 78.2179 L 291.259 78.2179 L 291.299 77.8952 L 291.43 77.6632 L 291.642 77.522 L 291.939 77.4715 L 292.202 77.5119 L 292.393 77.6178 L 292.509 77.7892 L 292.555 78.0212 L 292.509 78.2684 L 292.388 78.4348 L 292.177 78.5356 L 291.889 78.5659 L 291.692 78.5609 L 291.692 78.9593 L 291.939 78.9492 L 292.257 78.9946 L 292.494 79.1156 L 292.635 79.3123 L 292.686 79.5695 L 292.63 79.862 L 292.484 80.0789 L 292.252 80.215 L 291.945 80.2604 L 291.627 80.21 L 291.395 80.0587 L 291.249 79.8166 L 291.193 79.4838 L 290.729 79.4838 L 290.729 79.4838 z" stroke="none" fill-rule="evenodd" fill="rgb(0, 0, 0)"/></g><g stroke="rgb(0, 0, 0)" stroke-width="0.13" stroke-linecap="butt" stroke-linejoin="miter" fill="none"><path d="M 5.73378 80.0209 L 5.76909 80.0209 L 6.25324 79.9402 L 6.61635 79.7032 L 6.84834 79.33 L 6.93407 78.8357 L 6.84834 78.3112 L 6.62644 77.9179 L 6.27341 77.6657 L 5.81952 77.5749 L 5.52197 77.6153 L 5.27989 77.7262 L 5.09329 77.9078 L 4.95713 78.1499 L 4.68479 77.822 L 4.25108 77.706 L 3.8577 77.7817 L 3.56015 77.9986 L 3.37355 78.3516 L 3.30799 78.8357 L 3.38868 79.2896 L 3.61059 79.6376 L 3.96361 79.8645 L 4.43263 79.9402 L 4.46793 79.9402 L 4.46793 79.4913 L 4.14517 79.451 L 3.91318 79.3199 L 3.77197 79.1081 L 3.72154 78.8105 L 3.76188 78.5483 L 3.86779 78.3566 L 4.03926 78.2406 L 4.27125 78.1952 L 4.51837 78.2406 L 4.68479 78.3617 L 4.78566 78.5735 L 4.81592 78.8609 L 4.81087 79.0576 L 5.20929 79.0576 L 5.1992 78.8105 L 5.24459 78.4928 L 5.36563 78.2558 L 5.56231 78.1145 L 5.81952 78.0641 L 6.11203 78.1196 L 6.32889 78.2658 L 6.46505 78.4978 L 6.51044 78.8055 L 6.46001 79.1232 L 6.30871 79.3552 L 6.06664 79.5014 L 5.73378 79.5569 L 5.73378 80.0209 L 5.73378 80.0209 z" stroke="none" fill-rule="evenodd" fill="rgb(0, 0, 0)"/></g><g stroke="rgb(0, 0, 0)" stroke-width="0.13" stroke-linecap="butt" stroke-linejoin="miter" fill="none"><path d="M 290.769 133.083 L 293.175 133.083 L 293.175 132.65 L 291.274 132.65 L 291.38 132.412 L 291.561 132.216 L 292.121 131.858 L 292.419 131.706 L 292.751 131.49 L 292.988 131.237 L 293.125 130.94 L 293.175 130.602 L 293.089 130.178 L 292.852 129.845 L 292.489 129.634 L 292.02 129.558 L 291.536 129.644 L 291.168 129.881 L 290.931 130.259 L 290.85 130.758 L 290.85 130.829 L 291.309 130.829 L 291.309 130.789 L 291.354 130.446 L 291.491 130.193 L 291.707 130.032 L 291.995 129.977 L 292.287 130.027 L 292.504 130.153 L 292.646 130.35 L 292.696 130.597 L 292.661 130.829 L 292.565 131.026 L 292.403 131.197 L 292.182 131.348 L 291.884 131.51 L 291.39 131.822 L 291.042 132.155 L 290.835 132.559 L 290.769 133.068 L 290.769 133.083 L 290.769 133.083 z" stroke="none" fill-rule="evenodd" fill="rgb(0, 0, 0)"/></g><g stroke="rgb(0, 0, 0)" stroke-width="0.13" stroke-linecap="butt" stroke-linejoin="miter" fill="none"><path d="M 6.83321 132.481 L 6.83321 130.075 L 6.39949 130.075 L 6.39949 131.976 L 6.16246 131.87 L 5.96577 131.689 L 5.6077 131.129 L 5.45641 130.831 L 5.23955 130.499 L 4.98738 130.262 L 4.68983 130.125 L 4.35194 130.075 L 3.92831 130.161 L 3.59545 130.398 L 3.38364 130.761 L 3.30799 131.23 L 3.39372 131.714 L 3.63075 132.082 L 4.009 132.319 L 4.50828 132.4 L 4.57888 132.4 L 4.57888 131.941 L 4.53854 131.941 L 4.1956 131.896 L 3.94343 131.759 L 3.78205 131.543 L 3.72658 131.255 L 3.77701 130.963 L 3.90309 130.746 L 4.09978 130.604 L 4.34689 130.554 L 4.57888 130.589 L 4.77557 130.685 L 4.94704 130.847 L 5.09834 131.068 L 5.25972 131.366 L 5.5724 131.86 L 5.90525 132.208 L 6.30871 132.415 L 6.81808 132.481 L 6.83321 132.481 L 6.83321 132.481 z" stroke="none" fill-rule="evenodd" fill="rgb(0, 0, 0)"/></g><g stroke="rgb(0, 0, 0)" stroke-width="0.13" stroke-linecap="butt" stroke-linejoin="miter" fill="none"><path d="M 292.277 28.0832 L 292.731 28.0832 L 292.731 27.2158 L 293.231 27.2158 L 293.231 26.8123 L 292.731 26.8123 L 292.731 24.6588 L 292.272 24.6588 L 290.739 26.772 L 290.739 27.2158 L 292.277 27.2158 L 292.277 28.0832 L 292.277 28.0832 z M 291.163 26.8123 L 292.277 25.2439 L 292.277 26.8123 L 291.163 26.8123 L 291.163 26.8123 z" stroke="none" fill-rule="evenodd" fill="rgb(0, 0, 0)"/></g><g stroke="rgb(0, 0, 0)" stroke-width="0.13" stroke-linecap="butt" stroke-linejoin="miter" fill="none"><path d="M 6.83321 25.9726 L 6.83321 25.5187 L 5.96577 25.5187 L 5.96577 25.0194 L 5.56231 25.0194 L 5.56231 25.5187 L 3.40886 25.5187 L 3.40886 25.9777 L 5.52197 27.5108 L 5.96577 27.5108 L 5.96577 25.9726 L 6.83321 25.9726 L 6.83321 25.9726 z M 5.56231 27.0872 L 3.99387 25.9726 L 5.56231 25.9726 L 5.56231 27.0872 L 5.56231 27.0872 z" stroke="none" fill-rule="evenodd" fill="rgb(0, 0, 0)"/></g><g stroke="rgb(0, 0, 0)" stroke-width="0.13" stroke-linecap="butt" stroke-linejoin="miter" fill="none"><path d="M 291.909 185.583 L 292.368 185.583 L 292.368 182.058 L 292.025 182.058 L 291.934 182.366 L 291.753 182.572 L 291.476 182.693 L 291.092 182.734 L 291.092 183.092 L 291.909 183.092 L 291.909 185.583 L 291.909 185.583 z" stroke="none" fill-rule="evenodd" fill="rgb(0, 0, 0)"/></g><g stroke="rgb(0, 0, 0)" stroke-width="0.13" stroke-linecap="butt" stroke-linejoin="miter" fill="none"><path d="M 6.83321 183.841 L 6.83321 183.382 L 3.30799 183.382 L 3.30799 183.725 L 3.61562 183.816 L 3.8224 183.997 L 3.94343 184.275 L 3.98378 184.658 L 4.34185 184.658 L 4.34185 183.841 L 6.83321 183.841 L 6.83321 183.841 z" stroke="none" fill-rule="evenodd" fill="rgb(0, 0, 0)"/></g><g stroke="rgb(0, 0, 0)" stroke-width="0.13" stroke-linecap="butt" stroke-linejoin="miter" fill="none"><path d="M 164.081 169.969 L 163.249 169.969 L 163.249 172.469 L 164.081 172.469 L 164.473 172.39 L 164.765 172.148 L 164.945 171.756 L 165.01 171.219 L 164.952 170.671 L 164.88 170.455 L 164.78 170.282 L 164.488 170.048 L 164.297 169.991 L 164.081 169.969 L 164.081 169.969 z M 164.055 170.268 L 164.329 170.322 L 164.517 170.488 L 164.628 170.783 L 164.664 171.219 L 164.625 171.64 L 164.513 171.936 L 164.322 172.112 L 164.055 172.17 L 163.584 172.17 L 163.584 170.268 L 164.055 170.268 L 164.055 170.268 z M 166.004 170.272 L 166.217 170.272 L 166.718 169.659 L 166.365 169.659 L 166.004 170.272 L 166.004 170.272 z M 165.785 171.594 L 167.053 171.594 L 167.056 171.446 L 166.999 171.032 L 166.84 170.722 L 166.588 170.535 L 166.253 170.466 L 165.925 170.538 L 165.673 170.74 L 165.511 171.068 L 165.453 171.5 L 165.507 171.943 L 165.669 172.267 L 165.918 172.469 L 166.242 172.537 L 166.523 172.491 L 166.754 172.368 L 166.923 172.174 L 167.02 171.914 L 166.707 171.914 L 166.642 172.058 L 166.548 172.166 L 166.282 172.253 L 166.076 172.213 L 165.921 172.087 L 165.821 171.882 L 165.785 171.604 L 165.785 171.594 L 165.785 171.594 z M 165.785 171.327 L 165.824 171.079 L 165.921 170.895 L 166.069 170.783 L 166.264 170.744 L 166.455 170.783 L 166.602 170.895 L 166.692 171.079 L 166.725 171.327 L 165.785 171.327 L 165.785 171.327 z M 168.623 171.341 L 168.317 171.269 L 168.09 171.187 L 168.014 171.017 L 168.036 170.898 L 168.112 170.812 L 168.234 170.758 L 168.411 170.736 L 168.58 170.758 L 168.713 170.823 L 168.8 170.92 L 168.836 171.05 L 169.146 171.05 L 169.146 171.043 L 169.092 170.808 L 168.944 170.625 L 168.713 170.509 L 168.411 170.466 L 168.104 170.509 L 167.881 170.628 L 167.741 170.805 L 167.697 171.028 L 167.73 171.244 L 167.831 171.396 L 167.996 171.504 L 168.238 171.579 L 168.591 171.666 L 168.807 171.756 L 168.865 171.828 L 168.886 171.936 L 168.854 172.069 L 168.767 172.17 L 168.627 172.235 L 168.439 172.256 L 168.241 172.235 L 168.097 172.159 L 168 172.037 L 167.96 171.867 L 167.654 171.867 L 167.705 172.156 L 167.852 172.365 L 168.086 172.491 L 168.411 172.537 L 168.749 172.491 L 168.998 172.365 L 169.149 172.163 L 169.203 171.9 L 169.164 171.673 L 169.052 171.518 L 168.868 171.417 L 168.623 171.341 L 168.623 171.341 z M 170.813 172.202 L 170.813 170.599 L 169.999 170.599 L 169.999 170.87 L 170.496 170.87 L 170.496 172.202 L 169.848 172.202 L 169.848 172.469 L 171.469 172.469 L 171.469 172.202 L 170.813 172.202 L 170.813 172.202 z M 170.824 169.883 L 170.489 169.883 L 170.489 170.243 L 170.824 170.243 L 170.824 169.883 L 170.824 169.883 z M 173.519 172.383 L 173.519 170.535 L 173.216 170.535 L 173.216 170.848 L 172.968 170.563 L 172.816 170.491 L 172.647 170.466 L 172.341 170.538 L 172.103 170.74 L 171.948 171.064 L 171.894 171.5 L 171.948 171.939 L 172.103 172.264 L 172.341 172.469 L 172.647 172.537 L 172.82 172.512 L 172.964 172.447 L 173.216 172.174 L 173.216 172.447 L 173.187 172.664 L 173.108 172.818 L 172.957 172.909 L 172.73 172.941 L 172.532 172.919 L 172.391 172.865 L 172.308 172.772 L 172.283 172.646 L 171.977 172.646 L 171.977 172.66 L 172.024 172.89 L 172.168 173.063 L 172.398 173.175 L 172.712 173.215 L 173.086 173.161 L 173.335 173.009 L 173.476 172.746 L 173.519 172.383 L 173.519 172.383 z M 172.222 171.5 L 172.254 171.179 L 172.352 170.942 L 172.503 170.801 L 172.705 170.751 L 172.917 170.801 L 173.076 170.942 L 173.173 171.179 L 173.209 171.5 L 173.173 171.828 L 173.076 172.062 L 172.917 172.206 L 172.705 172.253 L 172.503 172.206 L 172.352 172.062 L 172.254 171.824 L 172.222 171.5 L 172.222 171.5 z M 174.182 172.469 L 174.499 172.469 L 174.499 171.352 L 174.531 171.097 L 174.635 170.909 L 174.798 170.794 L 175.014 170.751 L 175.187 170.787 L 175.295 170.884 L 175.349 171.046 L 175.367 171.262 L 175.367 172.469 L 175.684 172.469 L 175.684 171.197 L 175.669 170.942 L 175.605 170.729 L 175.392 170.535 L 175.061 170.466 L 174.877 170.491 L 174.722 170.56 L 174.589 170.675 L 174.484 170.83 L 174.484 170.535 L 174.182 170.535 L 174.182 172.469 L 174.182 172.469 z M 177.499 172.217 L 177.499 172.228 L 177.517 172.35 L 177.571 172.437 L 177.798 172.505 L 177.975 172.476 L 177.975 172.231 L 177.899 172.242 L 177.798 172.195 L 177.78 172.051 L 177.78 171.05 L 177.737 170.794 L 177.611 170.614 L 177.391 170.506 L 177.081 170.466 L 176.779 170.509 L 176.556 170.632 L 176.415 170.823 L 176.368 171.075 L 176.368 171.097 L 176.653 171.097 L 176.678 170.945 L 176.757 170.837 L 176.887 170.772 L 177.071 170.747 L 177.247 170.765 L 177.373 170.819 L 177.449 170.913 L 177.474 171.043 L 177.46 171.194 L 177.402 171.269 L 177.258 171.305 L 176.988 171.334 L 176.678 171.399 L 176.458 171.514 L 176.329 171.695 L 176.289 171.961 L 176.325 172.199 L 176.437 172.375 L 176.617 172.487 L 176.865 172.527 L 177.2 172.451 L 177.499 172.217 L 177.499 172.217 z M 177.463 171.792 L 177.42 171.979 L 177.305 172.123 L 177.132 172.217 L 176.919 172.249 L 176.782 172.231 L 176.685 172.174 L 176.624 172.073 L 176.606 171.932 L 176.62 171.806 L 176.678 171.716 L 176.909 171.615 L 177.2 171.572 L 177.463 171.486 L 177.463 171.792 L 177.463 171.792 z M 178.944 170.87 L 178.944 171.839 L 178.965 172.152 L 179.066 172.368 L 179.268 172.494 L 179.61 172.537 L 179.985 172.519 L 179.985 172.246 L 179.711 172.267 L 179.463 172.238 L 179.329 172.148 L 179.272 171.997 L 179.261 171.785 L 179.261 170.87 L 179.985 170.87 L 179.985 170.599 L 179.261 170.599 L 179.261 170.034 L 178.944 170.034 L 178.944 170.599 L 178.396 170.599 L 178.396 170.87 L 178.944 170.87 L 178.944 170.87 z M 181.656 172.202 L 181.656 170.599 L 180.842 170.599 L 180.842 170.87 L 181.339 170.87 L 181.339 172.202 L 180.691 172.202 L 180.691 172.469 L 182.312 172.469 L 182.312 172.202 L 181.656 172.202 L 181.656 172.202 z M 181.667 169.883 L 181.332 169.883 L 181.332 170.243 L 181.667 170.243 L 181.667 169.883 L 181.667 169.883 z M 182.762 171.504 L 182.82 171.943 L 182.986 172.267 L 183.249 172.469 L 183.602 172.537 L 183.951 172.469 L 184.214 172.271 L 184.38 171.947 L 184.441 171.504 L 184.38 171.064 L 184.214 170.736 L 183.951 170.538 L 183.602 170.466 L 183.249 170.538 L 182.986 170.74 L 182.82 171.064 L 182.762 171.504 L 182.762 171.504 z M 183.087 171.5 L 183.119 171.176 L 183.22 170.942 L 183.382 170.798 L 183.602 170.747 L 183.818 170.798 L 183.98 170.938 L 184.081 171.176 L 184.117 171.5 L 184.081 171.828 L 183.98 172.066 L 183.818 172.21 L 183.602 172.256 L 183.382 172.21 L 183.22 172.066 L 183.119 171.828 L 183.087 171.5 L 183.087 171.5 z M 185.025 172.469 L 185.342 172.469 L 185.342 171.352 L 185.374 171.097 L 185.478 170.909 L 185.641 170.794 L 185.857 170.751 L 186.03 170.787 L 186.138 170.884 L 186.192 171.046 L 186.21 171.262 L 186.21 172.469 L 186.527 172.469 L 186.527 171.197 L 186.512 170.942 L 186.447 170.729 L 186.235 170.535 L 185.904 170.466 L 185.72 170.491 L 185.565 170.56 L 185.432 170.675 L 185.327 170.83 L 185.327 170.535 L 185.025 170.535 L 185.025 172.469 L 185.025 172.469 z" stroke="none" fill-rule="evenodd" fill="rgb(0, 0, 0)"/></g><g stroke="rgb(0, 0, 0)" stroke-width="0.13" stroke-linecap="butt" stroke-linejoin="miter" fill="none"><path d="M 188.281 186.47 L 188.878 186.47 L 188.878 182.514 L 190.239 182.514 L 190.239 181.97 L 186.913 181.97 L 186.913 182.514 L 188.281 182.514 L 188.281 186.47 L 188.281 186.47 z M 192.885 185.99 L 192.885 183.104 L 191.419 183.104 L 191.419 183.591 L 192.314 183.591 L 192.314 185.99 L 191.147 185.99 L 191.147 186.47 L 194.065 186.47 L 194.065 185.99 L 192.885 185.99 L 192.885 185.99 z M 192.904 181.814 L 192.301 181.814 L 192.301 182.463 L 192.904 182.463 L 192.904 181.814 L 192.904 181.814 z M 195.543 184.894 L 197.826 184.894 L 197.832 184.628 L 197.728 183.883 L 197.443 183.325 L 196.989 182.988 L 196.386 182.865 L 195.796 182.994 L 195.342 183.357 L 195.05 183.947 L 194.947 184.726 L 195.044 185.523 L 195.336 186.107 L 195.783 186.47 L 196.367 186.593 L 196.872 186.509 L 197.287 186.288 L 197.592 185.938 L 197.767 185.471 L 197.203 185.471 L 197.086 185.731 L 196.918 185.925 L 196.438 186.081 L 196.068 186.009 L 195.79 185.782 L 195.608 185.413 L 195.543 184.914 L 195.543 184.894 L 195.543 184.894 z M 195.543 184.414 L 195.615 183.967 L 195.79 183.636 L 196.055 183.435 L 196.406 183.364 L 196.749 183.435 L 197.015 183.636 L 197.177 183.967 L 197.236 184.414 L 195.543 184.414 L 195.543 184.414 z M 199.505 184.985 L 201.074 184.985 L 201.074 184.473 L 199.505 184.473 L 199.505 184.985 L 199.505 184.985 z M 202.747 186.47 L 203.35 186.47 L 203.35 184.57 L 203.966 184.57 L 204.42 184.589 L 204.705 184.68 L 204.861 184.894 L 204.926 185.277 L 204.958 185.86 L 204.997 186.243 L 205.075 186.47 L 205.756 186.47 L 205.756 186.347 L 205.607 186.165 L 205.555 185.828 L 205.509 185.102 L 205.399 184.563 L 205.25 184.395 L 205.017 184.272 L 205.276 184.11 L 205.457 183.883 L 205.574 183.597 L 205.613 183.254 L 205.522 182.709 L 205.263 182.3 L 204.835 182.054 L 204.251 181.97 L 202.747 181.97 L 202.747 186.47 L 202.747 186.47 z M 204.083 182.521 L 204.478 182.56 L 204.757 182.683 L 204.932 182.91 L 204.991 183.267 L 204.926 183.643 L 204.751 183.87 L 204.452 183.986 L 204.044 184.019 L 203.35 184.019 L 203.35 182.521 L 204.083 182.521 L 204.083 182.521 z M 206.586 184.732 L 206.689 185.523 L 206.988 186.107 L 207.461 186.47 L 208.097 186.593 L 208.725 186.47 L 209.199 186.113 L 209.497 185.53 L 209.607 184.732 L 209.497 183.941 L 209.199 183.351 L 208.725 182.994 L 208.097 182.865 L 207.461 182.994 L 206.988 183.357 L 206.689 183.941 L 206.586 184.732 L 206.586 184.732 z M 207.169 184.726 L 207.228 184.142 L 207.409 183.72 L 207.701 183.461 L 208.097 183.37 L 208.486 183.461 L 208.777 183.714 L 208.959 184.142 L 209.024 184.726 L 208.959 185.316 L 208.777 185.744 L 208.486 186.003 L 208.097 186.087 L 207.701 186.003 L 207.409 185.744 L 207.228 185.316 L 207.169 184.726 L 207.169 184.726 z M 212.798 185.932 L 212.798 186.47 L 213.368 186.47 L 213.368 181.814 L 212.804 181.814 L 212.804 183.519 L 212.37 183.027 L 212.104 182.91 L 211.799 182.865 L 211.248 182.994 L 210.82 183.357 L 210.541 183.941 L 210.444 184.726 L 210.541 185.51 L 210.82 186.1 L 211.248 186.47 L 211.799 186.593 L 212.104 186.548 L 212.376 186.431 L 212.798 185.932 L 212.798 185.932 z M 211.896 183.377 L 212.272 183.468 L 212.558 183.72 L 212.726 184.142 L 212.791 184.726 L 212.726 185.316 L 212.558 185.737 L 212.272 185.996 L 211.896 186.081 L 211.54 185.996 L 211.267 185.737 L 211.086 185.309 L 211.027 184.726 L 211.086 184.148 L 211.267 183.727 L 211.54 183.468 L 211.896 183.377 L 211.896 183.377 z M 218.361 186.47 L 218.964 186.47 L 218.964 184.57 L 219.58 184.57 L 220.034 184.589 L 220.319 184.68 L 220.475 184.894 L 220.54 185.277 L 220.572 185.86 L 220.611 186.243 L 220.689 186.47 L 221.37 186.47 L 221.37 186.347 L 221.22 186.165 L 221.169 185.828 L 221.123 185.102 L 221.013 184.563 L 220.864 184.395 L 220.63 184.272 L 220.89 184.11 L 221.071 183.883 L 221.188 183.597 L 221.227 183.254 L 221.136 182.709 L 220.877 182.3 L 220.449 182.054 L 219.865 181.97 L 218.361 181.97 L 218.361 186.47 L 218.361 186.47 z M 219.697 182.521 L 220.092 182.56 L 220.371 182.683 L 220.546 182.91 L 220.604 183.267 L 220.54 183.643 L 220.365 183.87 L 220.066 183.986 L 219.658 184.019 L 218.964 184.019 L 218.964 182.521 L 219.697 182.521 L 219.697 182.521 z M 224.112 185.99 L 224.112 183.104 L 222.647 183.104 L 222.647 183.591 L 223.542 183.591 L 223.542 185.99 L 222.375 185.99 L 222.375 186.47 L 225.292 186.47 L 225.292 185.99 L 224.112 185.99 L 224.112 185.99 z M 224.132 181.814 L 223.529 181.814 L 223.529 182.463 L 224.132 182.463 L 224.132 181.814 L 224.132 181.814 z M 228.982 186.314 L 228.982 182.988 L 228.437 182.988 L 228.437 183.552 L 227.99 183.04 L 227.718 182.91 L 227.413 182.865 L 226.862 182.994 L 226.434 183.357 L 226.155 183.941 L 226.058 184.726 L 226.155 185.517 L 226.434 186.1 L 226.862 186.47 L 227.413 186.593 L 227.724 186.548 L 227.983 186.431 L 228.437 185.938 L 228.437 186.431 L 228.385 186.82 L 228.243 187.099 L 227.97 187.261 L 227.562 187.319 L 227.205 187.28 L 226.952 187.183 L 226.803 187.014 L 226.758 186.787 L 226.207 186.787 L 226.207 186.813 L 226.291 187.228 L 226.55 187.54 L 226.965 187.741 L 227.53 187.812 L 228.204 187.715 L 228.651 187.442 L 228.904 186.969 L 228.982 186.314 L 228.982 186.314 z M 226.648 184.726 L 226.706 184.148 L 226.881 183.72 L 227.153 183.468 L 227.517 183.377 L 227.899 183.468 L 228.184 183.72 L 228.359 184.148 L 228.424 184.726 L 228.359 185.316 L 228.184 185.737 L 227.899 185.996 L 227.517 186.081 L 227.153 185.996 L 226.881 185.737 L 226.706 185.309 L 226.648 184.726 L 226.648 184.726 z M 230.175 186.47 L 230.746 186.47 L 230.746 184.46 L 230.804 183.999 L 230.992 183.662 L 231.284 183.455 L 231.673 183.377 L 231.984 183.442 L 232.179 183.617 L 232.276 183.909 L 232.308 184.298 L 232.308 186.47 L 232.879 186.47 L 232.879 184.181 L 232.853 183.72 L 232.736 183.338 L 232.354 182.988 L 231.757 182.865 L 231.433 182.91 L 231.154 183.033 L 230.921 183.228 L 230.746 183.494 L 230.746 181.814 L 230.175 181.814 L 230.175 186.47 L 230.175 186.47 z M 234.844 183.591 L 234.844 185.335 L 234.883 185.899 L 235.064 186.288 L 235.427 186.515 L 236.043 186.593 L 236.718 186.561 L 236.718 186.068 L 236.225 186.107 L 235.777 186.055 L 235.537 185.893 L 235.434 185.62 L 235.414 185.238 L 235.414 183.591 L 236.718 183.591 L 236.718 183.104 L 235.414 183.104 L 235.414 182.086 L 234.844 182.086 L 234.844 183.104 L 233.858 183.104 L 233.858 183.591 L 234.844 183.591 L 234.844 183.591 z" stroke="none" fill-rule="evenodd" fill="rgb(0, 0, 0)"/></g><g stroke="rgb(0, 0, 0)" stroke-width="0.13" stroke-linecap="butt" stroke-linejoin="miter" fill="none"><path d="M 141.975 106.096 L 142.306 106.096 L 142.306 103.899 L 143.063 103.899 L 143.063 103.596 L 141.215 103.596 L 141.215 103.899 L 141.975 103.899 L 141.975 106.096 L 141.975 106.096 z M 143.506 106.096 L 143.841 106.096 L 143.841 105.041 L 144.183 105.041 L 144.435 105.052 L 144.594 105.102 L 144.68 105.221 L 144.716 105.434 L 144.734 105.758 L 144.756 105.97 L 144.799 106.096 L 145.177 106.096 L 145.177 106.028 L 145.094 105.927 L 145.066 105.74 L 145.04 105.336 L 144.979 105.037 L 144.896 104.944 L 144.767 104.875 L 144.911 104.785 L 145.011 104.659 L 145.076 104.501 L 145.098 104.31 L 145.048 104.007 L 144.903 103.78 L 144.666 103.643 L 144.341 103.596 L 143.506 103.596 L 143.506 106.096 L 143.506 106.096 z M 144.248 103.903 L 144.468 103.924 L 144.622 103.993 L 144.72 104.119 L 144.752 104.317 L 144.716 104.526 L 144.619 104.652 L 144.453 104.717 L 144.226 104.735 L 143.841 104.735 L 143.841 103.903 L 144.248 103.903 L 144.248 103.903 z M 146.042 105.271 L 146.914 105.271 L 146.914 104.987 L 146.042 104.987 L 146.042 105.271 L 146.042 105.271 z M 147.785 105.145 L 147.836 105.596 L 147.994 105.916 L 148.261 106.1 L 148.646 106.165 L 149.028 106.1 L 149.295 105.916 L 149.453 105.599 L 149.507 105.145 L 149.507 103.596 L 149.172 103.596 L 149.172 105.163 L 149.14 105.47 L 149.042 105.689 L 148.877 105.819 L 148.646 105.862 L 148.408 105.819 L 148.243 105.689 L 148.146 105.473 L 148.117 105.163 L 148.117 103.596 L 147.785 103.596 L 147.785 105.145 L 147.785 105.145 z M 150.055 106.096 L 150.386 106.096 L 150.386 105.041 L 150.754 105.041 L 151.125 105.023 L 151.42 104.897 L 151.611 104.652 L 151.676 104.317 L 151.625 104.007 L 151.481 103.78 L 151.243 103.643 L 150.919 103.596 L 150.055 103.596 L 150.055 106.096 L 150.055 106.096 z M 150.829 103.903 L 151.045 103.924 L 151.204 103.993 L 151.298 104.119 L 151.33 104.317 L 151.294 104.526 L 151.197 104.652 L 151.031 104.717 L 150.804 104.735 L 150.386 104.735 L 150.386 103.903 L 150.829 103.903 L 150.829 103.903 z" stroke="none" fill-rule="evenodd" fill="rgb(0, 0, 0)"/></g><g stroke="rgb(0, 0, 0)" stroke-width="0.13" stroke-linecap="butt" stroke-linejoin="miter" fill="none"><path d="M 194.648 106.982 L 194.98 106.982 L 194.98 104.785 L 195.736 104.785 L 195.736 104.482 L 193.888 104.482 L 193.888 104.785 L 194.648 104.785 L 194.648 106.982 L 194.648 106.982 z M 196.179 106.982 L 196.514 106.982 L 196.514 105.927 L 196.856 105.927 L 197.109 105.938 L 197.267 105.988 L 197.354 106.107 L 197.39 106.319 L 197.408 106.644 L 197.429 106.856 L 197.472 106.982 L 197.851 106.982 L 197.851 106.914 L 197.768 106.813 L 197.739 106.626 L 197.714 106.222 L 197.652 105.923 L 197.57 105.83 L 197.44 105.761 L 197.584 105.671 L 197.685 105.545 L 197.75 105.386 L 197.771 105.196 L 197.721 104.893 L 197.577 104.666 L 197.339 104.529 L 197.015 104.482 L 196.179 104.482 L 196.179 106.982 L 196.179 106.982 z M 196.921 104.788 L 197.141 104.81 L 197.296 104.879 L 197.393 105.005 L 197.426 105.203 L 197.39 105.412 L 197.292 105.538 L 197.127 105.603 L 196.9 105.621 L 196.514 105.621 L 196.514 104.788 L 196.921 104.788 L 196.921 104.788 z M 198.715 106.157 L 199.587 106.157 L 199.587 105.873 L 198.715 105.873 L 198.715 106.157 L 198.715 106.157 z" stroke="none" fill-rule="evenodd" fill="rgb(0, 0, 0)"/></g><g stroke="rgb(0, 0, 0)" stroke-width="0.13" stroke-linecap="butt" stroke-linejoin="miter" fill="none"><path d="M 194.81 108.801 L 193.978 108.801 L 193.978 111.301 L 194.81 111.301 L 195.203 111.222 L 195.495 110.981 L 195.675 110.588 L 195.74 110.051 L 195.682 109.504 L 195.61 109.288 L 195.509 109.115 L 195.217 108.881 L 195.026 108.823 L 194.81 108.801 L 194.81 108.801 z M 194.785 109.1 L 195.059 109.154 L 195.246 109.32 L 195.358 109.616 L 195.394 110.051 L 195.354 110.473 L 195.243 110.768 L 195.052 110.945 L 194.785 111.002 L 194.313 111.002 L 194.313 109.1 L 194.785 109.1 L 194.785 109.1 z M 196.143 110.336 L 196.201 110.776 L 196.366 111.1 L 196.629 111.301 L 196.982 111.37 L 197.332 111.301 L 197.595 111.103 L 197.761 110.779 L 197.822 110.336 L 197.761 109.897 L 197.595 109.569 L 197.332 109.371 L 196.982 109.299 L 196.629 109.371 L 196.366 109.572 L 196.201 109.897 L 196.143 110.336 L 196.143 110.336 z M 196.467 110.332 L 196.5 110.008 L 196.601 109.774 L 196.763 109.63 L 196.982 109.58 L 197.199 109.63 L 197.361 109.77 L 197.462 110.008 L 197.498 110.332 L 197.462 110.66 L 197.361 110.898 L 197.199 111.042 L 196.982 111.089 L 196.763 111.042 L 196.601 110.898 L 196.5 110.66 L 196.467 110.332 L 196.467 110.332 z M 198.863 111.301 L 199.151 109.659 L 199.439 111.301 L 199.742 111.301 L 200.217 109.367 L 199.911 109.367 L 199.591 111.01 L 199.306 109.367 L 198.993 109.367 L 198.708 111.01 L 198.387 109.367 L 198.085 109.367 L 198.56 111.301 L 198.863 111.301 L 198.863 111.301 z M 200.574 111.301 L 200.891 111.301 L 200.891 110.185 L 200.923 109.929 L 201.028 109.742 L 201.19 109.626 L 201.406 109.583 L 201.579 109.619 L 201.687 109.716 L 201.741 109.879 L 201.759 110.095 L 201.759 111.301 L 202.076 111.301 L 202.076 110.03 L 202.062 109.774 L 201.997 109.562 L 201.784 109.367 L 201.453 109.299 L 201.269 109.324 L 201.114 109.392 L 200.981 109.508 L 200.877 109.662 L 200.877 109.367 L 200.574 109.367 L 200.574 111.301 L 200.574 111.301 z" stroke="none" fill-rule="evenodd" fill="rgb(0, 0, 0)"/></g></svg>