<?xml version="1.0" encoding="utf-8" ?><!DOCTYPE svg PUBLIC "-//W3C//DTD SVG 1.1//EN" "http://www.w3.org/Graphics/SVG/1.1/DTD/svg11.dtd" 
[ <!ATTLIST svg 
  xmlns:dsy CDATA #FIXED "http://www.3ds.com/print"  
    dsy:text-version CDATA #IMPLIED > 

  <!ATTLIST text 
  xmlns:dsy CDATA #FIXED "http://www.3ds.com/print" 
    dsy:text-version CDATA #IMPLIED > 
]><svg xmlns="http://www.w3.org/2000/svg" xmlns:dsy="http://www.3ds.com/print" dsy:text-version="18000" width="297" height="210" viewBox="0 0 297 210" version="1.1"><g stroke="rgb(0, 0, 0)" stroke-width="0.35" stroke-linecap="butt" stroke-linejoin="miter" fill="none"><path d="M 151.613 81.4188 A 7 7 0 0 0 137.832 83.2025"/><path d="M 151.613 81.4188 L 162.331 123.24"/><circle cx="144.832" cy="83.1567" r="3.2"/><path d="M 150.448 122.505 A 13.7639 10.0006 -344.941 0 0 138.098 123.915"/><path d="M 150.448 122.505 L 150.745 122.587"/><path d="M 154.693 124.228 A 18.4646 18.4646 0 0 0 150.745 122.588"/><path d="M 162.331 123.24 L 154.693 124.229"/><path d="M 137.832 83.2025 L 138.098 123.915"/></g><g stroke="rgb(0, 0, 0)" stroke-width="0.13" stroke-linecap="butt" stroke-linejoin="miter" stroke-dasharray="4, 1.5" fill="none"><path d="M 154.1 123.488 A 18.8686 18.8686 0 0 0 152.248 123.088"/><path d="M 154.1 123.488 L 154.398 123.57"/><path d="M 155.905 124.072 A 18.8492 18.8492 0 0 0 154.398 123.57"/><path d="M 154.1 123.488 L 150.448 122.505"/></g><g stroke="rgb(0, 0, 0)" stroke-width="0.35" stroke-linecap="butt" stroke-linejoin="miter" fill="none"><path d="M 239.207 75.6667 A 7 7 0 0 0 225.426 73.883"/><path d="M 225.426 73.883 L 214.708 115.704"/><circle cx="232.207" cy="75.6208" r="3.2"/></g><g stroke="rgb(0, 0, 0)" stroke-width="0.13" stroke-linecap="butt" stroke-linejoin="miter" stroke-dasharray="4, 1.5" fill="none"><path d="M 226.591 114.969 L 226.294 115.052"/></g><g stroke="rgb(0, 0, 0)" stroke-width="0.35" stroke-linecap="butt" stroke-linejoin="miter" fill="none"><path d="M 224.791 115.552 A 18.1853 18.1853 0 0 0 222.346 116.693"/></g><g stroke="rgb(0, 0, 0)" stroke-width="0.13" stroke-linecap="butt" stroke-linejoin="miter" stroke-dasharray="4, 1.5" fill="none"><path d="M 226.294 115.052 A 18.8495 18.8495 0 0 0 224.791 115.552"/></g><g stroke="rgb(0, 0, 0)" stroke-width="0.35" stroke-linecap="butt" stroke-linejoin="miter" fill="none"><path d="M 236.774 118.56 A 13.7635 9.99997 -15.0577 0 0 222.939 115.952"/><path d="M 222.939 115.952 L 222.641 116.034"/><path d="M 222.641 116.034 A 18.8492 18.8492 0 0 0 221.134 116.536"/><path d="M 214.708 115.704 L 221.134 116.536"/><path d="M 239.207 75.6667 L 238.925 118.839"/><path d="M 236.774 118.56 L 238.925 118.839"/><path d="M 221.134 116.536 L 222.346 116.693"/></g><g stroke="rgb(0, 0, 0)" stroke-width="0.13" stroke-linecap="butt" stroke-linejoin="miter" stroke-dasharray="4, 1.5" fill="none"><path d="M 222.939 115.952 L 226.591 114.969"/></g><g stroke="rgb(0, 0, 0)" stroke-width="0.35" stroke-linecap="butt" stroke-linejoin="miter" fill="none"><path d="M 9.99999 200 L 287 200"/><path d="M 287 200 L 287 10"/><path d="M 287 10 L 9.99999 10"/><path d="M 9.99999 10 L 9.99999 200"/><path d="M 148.5 10 L 148.5 0"/><path d="M 9.99999 105 L -5.94366e-006 105"/><path d="M 287 105 L 297 105"/><path d="M 222.7 200 L 222.7 207.5"/><path d="M 74.3 200 L 74.3 207.5"/><path d="M 222.7 10 L 222.7 2.5"/><path d="M 74.3 10 L 74.3 2.5"/><path d="M 9.99999 52.5 L 2.49999 52.5"/><path d="M 287 52.5 L 294.5 52.5"/><path d="M 9.99999 157.5 L 2.49999 157.5"/><path d="M 287 157.5 L 294.5 157.5"/><path d="M 198.5 200 L 198.5 205"/><path d="M 188.5 200 L 188.5 202.5"/><path d="M 178.5 200 L 178.5 202.5"/><path d="M 168.5 200 L 168.5 202.5"/><path d="M 287 140 L 287 200"/></g><g stroke="rgb(0, 0, 0)" stroke-width="0.13" stroke-linecap="butt" stroke-linejoin="miter" stroke-dasharray="7, 1, 1, 1" fill="none"><path d="M 148.992 83.1567 L 140.672 83.1567"/><path d="M 144.832 78.9966 L 144.832 87.3167"/><path d="M 236.367 75.6208 L 228.047 75.6208"/><path d="M 232.207 71.4608 L 232.207 79.7809"/></g><g stroke="rgb(0, 0, 0)" stroke-width="0.13" stroke-linecap="butt" stroke-linejoin="miter" fill="none"><path d="M 258.267 206.833 L 258.731 206.833 L 259.099 205.804 L 260.496 205.804 L 260.864 206.833 L 261.338 206.833 L 260.057 203.328 L 259.543 203.328 L 258.267 206.833 L 258.267 206.833 z M 259.26 205.376 L 259.8 203.832 L 260.34 205.376 L 259.26 205.376 L 259.26 205.376 z" stroke="none" fill-rule="evenodd" fill="rgb(0, 0, 0)"/></g><g stroke="rgb(0, 0, 0)" stroke-width="0.13" stroke-linecap="butt" stroke-linejoin="miter" fill="none"><path d="M 37.1949 203.333 L 36.03 203.333 L 36.03 206.833 L 37.1949 206.833 L 37.7447 206.722 L 38.1532 206.384 L 38.4053 205.835 L 38.4961 205.083 L 38.4154 204.317 L 38.3145 204.014 L 38.1733 203.772 L 37.7648 203.444 L 37.4975 203.363 L 37.1949 203.333 L 37.1949 203.333 z M 37.1596 203.752 L 37.5429 203.827 L 37.8052 204.059 L 37.9615 204.473 L 38.012 205.083 L 37.9565 205.673 L 37.8001 206.087 L 37.5328 206.334 L 37.1596 206.415 L 36.499 206.415 L 36.499 203.752 L 37.1596 203.752 L 37.1596 203.752 z" stroke="none" fill-rule="evenodd" fill="rgb(0, 0, 0)"/></g><g stroke="rgb(0, 0, 0)" stroke-width="0.13" stroke-linecap="butt" stroke-linejoin="miter" fill="none"><path d="M 185.542 4.36958 L 185.249 4.01657 L 185.053 3.92578 L 184.811 3.89552 L 184.432 3.96109 L 184.16 4.15778 L 183.994 4.47549 L 183.933 4.9193 L 183.933 6.16498 L 187.433 6.16498 L 187.433 4.84869 L 187.363 4.37968 L 187.156 4.03169 L 186.828 3.81483 L 186.384 3.73918 L 186.087 3.78458 L 185.84 3.90561 L 185.658 4.10229 L 185.542 4.36958 L 185.542 4.36958 z M 185.386 5.01512 L 185.386 5.701 L 184.352 5.701 L 184.352 4.97478 L 184.382 4.70244 L 184.473 4.5108 L 184.629 4.39481 L 184.861 4.35446 L 185.093 4.39986 L 185.255 4.52089 L 185.355 4.72766 L 185.386 5.01512 L 185.386 5.01512 z M 187.015 4.90417 L 187.015 5.701 L 185.809 5.701 L 185.809 4.94955 L 185.845 4.63184 L 185.951 4.40489 L 186.132 4.26872 L 186.394 4.22334 L 186.672 4.26872 L 186.863 4.39481 L 186.979 4.60663 L 187.015 4.90417 L 187.015 4.90417 z" stroke="none" fill-rule="evenodd" fill="rgb(0, 0, 0)"/></g><g stroke="rgb(0, 0, 0)" stroke-width="0.13" stroke-linecap="butt" stroke-linejoin="miter" fill="none"><path d="M 111.932 4.183 L 112.356 4.28386 L 112.658 4.45029 L 112.845 4.68227 L 112.905 4.95461 L 112.815 5.28241 L 112.542 5.53961 L 112.098 5.71109 L 111.483 5.76657 L 110.873 5.71109 L 110.424 5.54466 L 110.152 5.28746 L 110.056 4.95461 L 110.106 4.71252 L 110.248 4.50575 L 110.475 4.34438 L 110.787 4.23343 L 110.787 3.75432 L 110.308 3.90561 L 109.945 4.16786 L 109.718 4.52592 L 109.637 4.95461 L 109.763 5.48918 L 110.116 5.89769 L 110.696 6.15994 L 111.483 6.25072 L 112.27 6.15994 L 112.85 5.89769 L 113.208 5.48918 L 113.329 4.95461 L 113.233 4.48558 L 112.966 4.10735 L 112.527 3.84006 L 111.932 3.69884 L 111.932 4.183 L 111.932 4.183 z" stroke="none" fill-rule="evenodd" fill="rgb(0, 0, 0)"/></g><g stroke="rgb(0, 0, 0)" stroke-width="0.13" stroke-linecap="butt" stroke-linejoin="miter" fill="none"><path d="M 261.633 6.53314 L 261.633 6.06915 L 260.604 5.701 L 260.604 4.30403 L 261.633 3.93587 L 261.633 3.46181 L 258.128 4.74278 L 258.128 5.2572 L 261.633 6.53314 L 261.633 6.53314 z M 260.176 5.53961 L 258.632 5 L 260.176 4.46037 L 260.176 5.53961 L 260.176 5.53961 z" stroke="none" fill-rule="evenodd" fill="rgb(0, 0, 0)"/></g><g stroke="rgb(0, 0, 0)" stroke-width="0.13" stroke-linecap="butt" stroke-linejoin="miter" fill="none"><path d="M 35.5332 5.00504 L 35.5332 6.17003 L 39.0332 6.17003 L 39.0332 5.00504 L 38.9223 4.45532 L 38.5844 4.04683 L 38.0346 3.79466 L 37.2832 3.70389 L 36.5166 3.78458 L 36.214 3.88544 L 35.972 4.02666 L 35.6442 4.43515 L 35.5635 4.70244 L 35.5332 5.00504 L 35.5332 5.00504 z M 35.9518 5.04034 L 36.0274 4.65706 L 36.2594 4.39481 L 36.673 4.23846 L 37.2832 4.18803 L 37.8733 4.24352 L 38.2868 4.39986 L 38.5339 4.66714 L 38.6146 5.04034 L 38.6146 5.701 L 35.9518 5.701 L 35.9518 5.04034 L 35.9518 5.04034 z" stroke="none" fill-rule="evenodd" fill="rgb(0, 0, 0)"/></g><g stroke="rgb(0, 0, 0)" stroke-width="0.13" stroke-linecap="butt" stroke-linejoin="miter" fill="none"><path d="M 290.729 79.4838 L 290.729 79.5191 L 290.81 80.0032 L 291.047 80.3663 L 291.42 80.5983 L 291.914 80.6841 L 292.439 80.5983 L 292.832 80.3764 L 293.084 80.0234 L 293.175 79.5695 L 293.135 79.272 L 293.024 79.0299 L 292.842 78.8433 L 292.6 78.7071 L 292.928 78.4348 L 293.044 78.0011 L 292.968 77.6077 L 292.751 77.3102 L 292.398 77.1236 L 291.914 77.058 L 291.46 77.1387 L 291.112 77.3606 L 290.885 77.7136 L 290.81 78.1826 L 290.81 78.2179 L 291.259 78.2179 L 291.299 77.8952 L 291.43 77.6632 L 291.642 77.522 L 291.939 77.4715 L 292.202 77.5119 L 292.393 77.6178 L 292.509 77.7892 L 292.555 78.0212 L 292.509 78.2684 L 292.388 78.4348 L 292.177 78.5356 L 291.889 78.5659 L 291.692 78.5609 L 291.692 78.9593 L 291.939 78.9492 L 292.257 78.9946 L 292.494 79.1156 L 292.635 79.3123 L 292.686 79.5695 L 292.63 79.862 L 292.484 80.0789 L 292.252 80.215 L 291.945 80.2604 L 291.627 80.21 L 291.395 80.0587 L 291.249 79.8166 L 291.193 79.4838 L 290.729 79.4838 L 290.729 79.4838 z" stroke="none" fill-rule="evenodd" fill="rgb(0, 0, 0)"/></g><g stroke="rgb(0, 0, 0)" stroke-width="0.13" stroke-linecap="butt" stroke-linejoin="miter" fill="none"><path d="M 5.73378 80.0209 L 5.76909 80.0209 L 6.25324 79.9402 L 6.61635 79.7032 L 6.84834 79.33 L 6.93407 78.8357 L 6.84834 78.3112 L 6.62644 77.9179 L 6.27341 77.6657 L 5.81952 77.5749 L 5.52197 77.6153 L 5.27989 77.7262 L 5.09329 77.9078 L 4.95713 78.1499 L 4.68479 77.822 L 4.25108 77.706 L 3.8577 77.7817 L 3.56015 77.9986 L 3.37355 78.3516 L 3.30799 78.8357 L 3.38868 79.2896 L 3.61059 79.6376 L 3.96361 79.8645 L 4.43263 79.9402 L 4.46793 79.9402 L 4.46793 79.4913 L 4.14517 79.451 L 3.91318 79.3199 L 3.77197 79.1081 L 3.72154 78.8105 L 3.76188 78.5483 L 3.86779 78.3566 L 4.03926 78.2406 L 4.27125 78.1952 L 4.51837 78.2406 L 4.68479 78.3617 L 4.78566 78.5735 L 4.81592 78.8609 L 4.81087 79.0576 L 5.20929 79.0576 L 5.1992 78.8105 L 5.24459 78.4928 L 5.36563 78.2558 L 5.56231 78.1145 L 5.81952 78.0641 L 6.11203 78.1196 L 6.32889 78.2658 L 6.46505 78.4978 L 6.51044 78.8055 L 6.46001 79.1232 L 6.30871 79.3552 L 6.06664 79.5014 L 5.73378 79.5569 L 5.73378 80.0209 L 5.73378 80.0209 z" stroke="none" fill-rule="evenodd" fill="rgb(0, 0, 0)"/></g><g stroke="rgb(0, 0, 0)" stroke-width="0.13" stroke-linecap="butt" stroke-linejoin="miter" fill="none"><path d="M 290.769 133.083 L 293.175 133.083 L 293.175 132.65 L 291.274 132.65 L 291.38 132.412 L 291.561 132.216 L 292.121 131.858 L 292.419 131.706 L 292.751 131.49 L 292.988 131.237 L 293.125 130.94 L 293.175 130.602 L 293.089 130.178 L 292.852 129.845 L 292.489 129.634 L 292.02 129.558 L 291.536 129.644 L 291.168 129.881 L 290.931 130.259 L 290.85 130.758 L 290.85 130.829 L 291.309 130.829 L 291.309 130.789 L 291.354 130.446 L 291.491 130.193 L 291.707 130.032 L 291.995 129.977 L 292.287 130.027 L 292.504 130.153 L 292.646 130.35 L 292.696 130.597 L 292.661 130.829 L 292.565 131.026 L 292.403 131.197 L 292.182 131.348 L 291.884 131.51 L 291.39 131.822 L 291.042 132.155 L 290.835 132.559 L 290.769 133.068 L 290.769 133.083 L 290.769 133.083 z" stroke="none" fill-rule="evenodd" fill="rgb(0, 0, 0)"/></g><g stroke="rgb(0, 0, 0)" stroke-width="0.13" stroke-linecap="butt" stroke-linejoin="miter" fill="none"><path d="M 6.83321 132.481 L 6.83321 130.075 L 6.39949 130.075 L 6.39949 131.976 L 6.16246 131.87 L 5.96577 131.689 L 5.6077 131.129 L 5.45641 130.831 L 5.23955 130.499 L 4.98738 130.262 L 4.68983 130.125 L 4.35194 130.075 L 3.92831 130.161 L 3.59545 130.398 L 3.38364 130.761 L 3.30799 131.23 L 3.39372 131.714 L 3.63075 132.082 L 4.009 132.319 L 4.50828 132.4 L 4.57888 132.4 L 4.57888 131.941 L 4.53854 131.941 L 4.1956 131.896 L 3.94343 131.759 L 3.78205 131.543 L 3.72658 131.255 L 3.77701 130.963 L 3.90309 130.746 L 4.09978 130.604 L 4.34689 130.554 L 4.57888 130.589 L 4.77557 130.685 L 4.94704 130.847 L 5.09834 131.068 L 5.25972 131.366 L 5.5724 131.86 L 5.90525 132.208 L 6.30871 132.415 L 6.81808 132.481 L 6.83321 132.481 L 6.83321 132.481 z" stroke="none" fill-rule="evenodd" fill="rgb(0, 0, 0)"/></g><g stroke="rgb(0, 0, 0)" stroke-width="0.13" stroke-linecap="butt" stroke-linejoin="miter" fill="none"><path d="M 292.277 28.0832 L 292.731 28.0832 L 292.731 27.2158 L 293.231 27.2158 L 293.231 26.8123 L 292.731 26.8123 L 292.731 24.6588 L 292.272 24.6588 L 290.739 26.772 L 290.739 27.2158 L 292.277 27.2158 L 292.277 28.0832 L 292.277 28.0832 z M 291.163 26.8123 L 292.277 25.2439 L 292.277 26.8123 L 291.163 26.8123 L 291.163 26.8123 z" stroke="none" fill-rule="evenodd" fill="rgb(0, 0, 0)"/></g><g stroke="rgb(0, 0, 0)" stroke-width="0.13" stroke-linecap="butt" stroke-linejoin="miter" fill="none"><path d="M 6.83321 25.9726 L 6.83321 25.5187 L 5.96577 25.5187 L 5.96577 25.0194 L 5.56231 25.0194 L 5.56231 25.5187 L 3.40886 25.5187 L 3.40886 25.9777 L 5.52197 27.5108 L 5.96577 27.5108 L 5.96577 25.9726 L 6.83321 25.9726 L 6.83321 25.9726 z M 5.56231 27.0872 L 3.99387 25.9726 L 5.56231 25.9726 L 5.56231 27.0872 L 5.56231 27.0872 z" stroke="none" fill-rule="evenodd" fill="rgb(0, 0, 0)"/></g><g stroke="rgb(0, 0, 0)" stroke-width="0.13" stroke-linecap="butt" stroke-linejoin="miter" fill="none"><path d="M 291.909 185.583 L 292.368 185.583 L 292.368 182.058 L 292.025 182.058 L 291.934 182.366 L 291.753 182.572 L 291.476 182.693 L 291.092 182.734 L 291.092 183.092 L 291.909 183.092 L 291.909 185.583 L 291.909 185.583 z" stroke="none" fill-rule="evenodd" fill="rgb(0, 0, 0)"/></g><g stroke="rgb(0, 0, 0)" stroke-width="0.13" stroke-linecap="butt" stroke-linejoin="miter" fill="none"><path d="M 6.83321 183.841 L 6.83321 183.382 L 3.30799 183.382 L 3.30799 183.725 L 3.61562 183.816 L 3.8224 183.997 L 3.94343 184.275 L 3.98378 184.658 L 4.34185 184.658 L 4.34185 183.841 L 6.83321 183.841 L 6.83321 183.841 z" stroke="none" fill-rule="evenodd" fill="rgb(0, 0, 0)"/></g><g stroke="rgb(0, 0, 0)" stroke-width="0.13" stroke-linecap="butt" stroke-linejoin="miter" fill="none"><path d="M 164.081 169.969 L 163.249 169.969 L 163.249 172.469 L 164.081 172.469 L 164.473 172.39 L 164.765 172.148 L 164.945 171.756 L 165.01 171.219 L 164.952 170.671 L 164.88 170.455 L 164.78 170.282 L 164.488 170.048 L 164.297 169.991 L 164.081 169.969 L 164.081 169.969 z M 164.055 170.268 L 164.329 170.322 L 164.517 170.488 L 164.628 170.783 L 164.664 171.219 L 164.625 171.64 L 164.513 171.936 L 164.322 172.112 L 164.055 172.17 L 163.584 172.17 L 163.584 170.268 L 164.055 170.268 L 164.055 170.268 z M 166.004 170.272 L 166.217 170.272 L 166.718 169.659 L 166.365 169.659 L 166.004 170.272 L 166.004 170.272 z M 165.785 171.594 L 167.053 171.594 L 167.056 171.446 L 166.999 171.032 L 166.84 170.722 L 166.588 170.535 L 166.253 170.466 L 165.925 170.538 L 165.673 170.74 L 165.511 171.068 L 165.453 171.5 L 165.507 171.943 L 165.669 172.267 L 165.918 172.469 L 166.242 172.537 L 166.523 172.491 L 166.754 172.368 L 166.923 172.174 L 167.02 171.914 L 166.707 171.914 L 166.642 172.058 L 166.548 172.166 L 166.282 172.253 L 166.076 172.213 L 165.921 172.087 L 165.821 171.882 L 165.785 171.604 L 165.785 171.594 L 165.785 171.594 z M 165.785 171.327 L 165.824 171.079 L 165.921 170.895 L 166.069 170.783 L 166.264 170.744 L 166.455 170.783 L 166.602 170.895 L 166.692 171.079 L 166.725 171.327 L 165.785 171.327 L 165.785 171.327 z M 168.623 171.341 L 168.317 171.269 L 168.09 171.187 L 168.014 171.017 L 168.036 170.898 L 168.112 170.812 L 168.234 170.758 L 168.411 170.736 L 168.58 170.758 L 168.713 170.823 L 168.8 170.92 L 168.836 171.05 L 169.146 171.05 L 169.146 171.043 L 169.092 170.808 L 168.944 170.625 L 168.713 170.509 L 168.411 170.466 L 168.104 170.509 L 167.881 170.628 L 167.741 170.805 L 167.697 171.028 L 167.73 171.244 L 167.831 171.396 L 167.996 171.504 L 168.238 171.579 L 168.591 171.666 L 168.807 171.756 L 168.865 171.828 L 168.886 171.936 L 168.854 172.069 L 168.767 172.17 L 168.627 172.235 L 168.439 172.256 L 168.241 172.235 L 168.097 172.159 L 168 172.037 L 167.96 171.867 L 167.654 171.867 L 167.705 172.156 L 167.852 172.365 L 168.086 172.491 L 168.411 172.537 L 168.749 172.491 L 168.998 172.365 L 169.149 172.163 L 169.203 171.9 L 169.164 171.673 L 169.052 171.518 L 168.868 171.417 L 168.623 171.341 L 168.623 171.341 z M 170.813 172.202 L 170.813 170.599 L 169.999 170.599 L 169.999 170.87 L 170.496 170.87 L 170.496 172.202 L 169.848 172.202 L 169.848 172.469 L 171.469 172.469 L 171.469 172.202 L 170.813 172.202 L 170.813 172.202 z M 170.824 169.883 L 170.489 169.883 L 170.489 170.243 L 170.824 170.243 L 170.824 169.883 L 170.824 169.883 z M 173.519 172.383 L 173.519 170.535 L 173.216 170.535 L 173.216 170.848 L 172.968 170.563 L 172.816 170.491 L 172.647 170.466 L 172.341 170.538 L 172.103 170.74 L 171.948 171.064 L 171.894 171.5 L 171.948 171.939 L 172.103 172.264 L 172.341 172.469 L 172.647 172.537 L 172.82 172.512 L 172.964 172.447 L 173.216 172.174 L 173.216 172.447 L 173.187 172.664 L 173.108 172.818 L 172.957 172.909 L 172.73 172.941 L 172.532 172.919 L 172.391 172.865 L 172.308 172.772 L 172.283 172.646 L 171.977 172.646 L 171.977 172.66 L 172.024 172.89 L 172.168 173.063 L 172.398 173.175 L 172.712 173.215 L 173.086 173.161 L 173.335 173.009 L 173.476 172.746 L 173.519 172.383 L 173.519 172.383 z M 172.222 171.5 L 172.254 171.179 L 172.352 170.942 L 172.503 170.801 L 172.705 170.751 L 172.917 170.801 L 173.076 170.942 L 173.173 171.179 L 173.209 171.5 L 173.173 171.828 L 173.076 172.062 L 172.917 172.206 L 172.705 172.253 L 172.503 172.206 L 172.352 172.062 L 172.254 171.824 L 172.222 171.5 L 172.222 171.5 z M 174.182 172.469 L 174.499 172.469 L 174.499 171.352 L 174.531 171.097 L 174.635 170.909 L 174.798 170.794 L 175.014 170.751 L 175.187 170.787 L 175.295 170.884 L 175.349 171.046 L 175.367 171.262 L 175.367 172.469 L 175.684 172.469 L 175.684 171.197 L 175.669 170.942 L 175.605 170.729 L 175.392 170.535 L 175.061 170.466 L 174.877 170.491 L 174.722 170.56 L 174.589 170.675 L 174.484 170.83 L 174.484 170.535 L 174.182 170.535 L 174.182 172.469 L 174.182 172.469 z M 177.499 172.217 L 177.499 172.228 L 177.517 172.35 L 177.571 172.437 L 177.798 172.505 L 177.975 172.476 L 177.975 172.231 L 177.899 172.242 L 177.798 172.195 L 177.78 172.051 L 177.78 171.05 L 177.737 170.794 L 177.611 170.614 L 177.391 170.506 L 177.081 170.466 L 176.779 170.509 L 176.556 170.632 L 176.415 170.823 L 176.368 171.075 L 176.368 171.097 L 176.653 171.097 L 176.678 170.945 L 176.757 170.837 L 176.887 170.772 L 177.071 170.747 L 177.247 170.765 L 177.373 170.819 L 177.449 170.913 L 177.474 171.043 L 177.46 171.194 L 177.402 171.269 L 177.258 171.305 L 176.988 171.334 L 176.678 171.399 L 176.458 171.514 L 176.329 171.695 L 176.289 171.961 L 176.325 172.199 L 176.437 172.375 L 176.617 172.487 L 176.865 172.527 L 177.2 172.451 L 177.499 172.217 L 177.499 172.217 z M 177.463 171.792 L 177.42 171.979 L 177.305 172.123 L 177.132 172.217 L 176.919 172.249 L 176.782 172.231 L 176.685 172.174 L 176.624 172.073 L 176.606 171.932 L 176.62 171.806 L 176.678 171.716 L 176.909 171.615 L 177.2 171.572 L 177.463 171.486 L 177.463 171.792 L 177.463 171.792 z M 178.944 170.87 L 178.944 171.839 L 178.965 172.152 L 179.066 172.368 L 179.268 172.494 L 179.61 172.537 L 179.985 172.519 L 179.985 172.246 L 179.711 172.267 L 179.463 172.238 L 179.329 172.148 L 179.272 171.997 L 179.261 171.785 L 179.261 170.87 L 179.985 170.87 L 179.985 170.599 L 179.261 170.599 L 179.261 170.034 L 178.944 170.034 L 178.944 170.599 L 178.396 170.599 L 178.396 170.87 L 178.944 170.87 L 178.944 170.87 z M 181.656 172.202 L 181.656 170.599 L 180.842 170.599 L 180.842 170.87 L 181.339 170.87 L 181.339 172.202 L 180.691 172.202 L 180.691 172.469 L 182.312 172.469 L 182.312 172.202 L 181.656 172.202 L 181.656 172.202 z M 181.667 169.883 L 181.332 169.883 L 181.332 170.243 L 181.667 170.243 L 181.667 169.883 L 181.667 169.883 z M 182.762 171.504 L 182.82 171.943 L 182.986 172.267 L 183.249 172.469 L 183.602 172.537 L 183.951 172.469 L 184.214 172.271 L 184.38 171.947 L 184.441 171.504 L 184.38 171.064 L 184.214 170.736 L 183.951 170.538 L 183.602 170.466 L 183.249 170.538 L 182.986 170.74 L 182.82 171.064 L 182.762 171.504 L 182.762 171.504 z M 183.087 171.5 L 183.119 171.176 L 183.22 170.942 L 183.382 170.798 L 183.602 170.747 L 183.818 170.798 L 183.98 170.938 L 184.081 171.176 L 184.117 171.5 L 184.081 171.828 L 183.98 172.066 L 183.818 172.21 L 183.602 172.256 L 183.382 172.21 L 183.22 172.066 L 183.119 171.828 L 183.087 171.5 L 183.087 171.5 z M 185.025 172.469 L 185.342 172.469 L 185.342 171.352 L 185.374 171.097 L 185.478 170.909 L 185.641 170.794 L 185.857 170.751 L 186.03 170.787 L 186.138 170.884 L 186.192 171.046 L 186.21 171.262 L 186.21 172.469 L 186.527 172.469 L 186.527 171.197 L 186.512 170.942 L 186.447 170.729 L 186.235 170.535 L 185.904 170.466 L 185.72 170.491 L 185.565 170.56 L 185.432 170.675 L 185.327 170.83 L 185.327 170.535 L 185.025 170.535 L 185.025 172.469 L 185.025 172.469 z" stroke="none" fill-rule="evenodd" fill="rgb(0, 0, 0)"/></g><g stroke="rgb(0, 0, 0)" stroke-width="0.13" stroke-linecap="butt" stroke-linejoin="miter" fill="none"><path d="M 148.099 186.47 L 148.702 186.47 L 148.702 184.57 L 149.318 184.57 L 149.772 184.589 L 150.057 184.68 L 150.213 184.894 L 150.277 185.277 L 150.31 185.86 L 150.349 186.243 L 150.427 186.47 L 151.107 186.47 L 151.107 186.347 L 150.958 186.165 L 150.906 185.828 L 150.861 185.102 L 150.751 184.563 L 150.602 184.395 L 150.368 184.272 L 150.628 184.11 L 150.809 183.883 L 150.926 183.597 L 150.965 183.254 L 150.874 182.709 L 150.615 182.3 L 150.187 182.054 L 149.603 181.97 L 148.099 181.97 L 148.099 186.47 L 148.099 186.47 z M 149.434 182.521 L 149.83 182.56 L 150.109 182.683 L 150.284 182.91 L 150.342 183.267 L 150.277 183.643 L 150.102 183.87 L 149.804 183.986 L 149.396 184.019 L 148.702 184.019 L 148.702 182.521 L 149.434 182.521 L 149.434 182.521 z M 152.605 184.894 L 154.888 184.894 L 154.894 184.628 L 154.79 183.883 L 154.505 183.325 L 154.051 182.988 L 153.448 182.865 L 152.858 182.994 L 152.404 183.357 L 152.112 183.947 L 152.009 184.726 L 152.106 185.523 L 152.398 186.107 L 152.845 186.47 L 153.429 186.593 L 153.934 186.509 L 154.349 186.288 L 154.654 185.938 L 154.829 185.471 L 154.265 185.471 L 154.148 185.731 L 153.98 185.925 L 153.5 186.081 L 153.13 186.009 L 152.852 185.782 L 152.67 185.413 L 152.605 184.914 L 152.605 184.894 L 152.605 184.894 z M 152.605 184.414 L 152.677 183.967 L 152.852 183.636 L 153.117 183.435 L 153.468 183.364 L 153.811 183.435 L 154.077 183.636 L 154.239 183.967 L 154.298 184.414 L 152.605 184.414 L 152.605 184.414 z M 158.078 186.016 L 158.078 186.035 L 158.11 186.256 L 158.207 186.411 L 158.616 186.535 L 158.934 186.483 L 158.934 186.042 L 158.798 186.061 L 158.616 185.977 L 158.584 185.718 L 158.584 183.915 L 158.506 183.455 L 158.279 183.13 L 157.883 182.936 L 157.326 182.865 L 156.781 182.942 L 156.379 183.163 L 156.126 183.506 L 156.042 183.96 L 156.042 183.999 L 156.554 183.999 L 156.599 183.727 L 156.742 183.532 L 156.976 183.416 L 157.306 183.37 L 157.624 183.403 L 157.851 183.5 L 157.987 183.669 L 158.032 183.902 L 158.006 184.174 L 157.903 184.311 L 157.643 184.375 L 157.157 184.427 L 156.599 184.544 L 156.204 184.751 L 155.97 185.076 L 155.899 185.555 L 155.964 185.983 L 156.165 186.301 L 156.489 186.502 L 156.937 186.573 L 157.54 186.437 L 158.078 186.016 L 158.078 186.016 z M 158.013 185.251 L 157.935 185.588 L 157.728 185.847 L 157.416 186.016 L 157.034 186.074 L 156.787 186.042 L 156.612 185.938 L 156.502 185.756 L 156.47 185.504 L 156.496 185.277 L 156.599 185.115 L 157.014 184.933 L 157.54 184.855 L 158.013 184.7 L 158.013 185.251 L 158.013 185.251 z M 160.127 186.47 L 160.697 186.47 L 160.697 184.479 L 160.756 183.999 L 160.931 183.656 L 161.216 183.448 L 161.599 183.377 L 161.884 183.422 L 162.098 183.552 L 162.228 183.772 L 162.273 184.071 L 162.85 184.071 L 162.772 183.545 L 162.558 183.169 L 162.202 182.942 L 161.715 182.865 L 161.385 182.916 L 161.099 183.046 L 160.847 183.267 L 160.646 183.565 L 160.646 182.988 L 160.127 182.988 L 160.127 186.47 L 160.127 186.47 z M 167.616 186.47 L 168.219 186.47 L 168.219 184.57 L 168.835 184.57 L 169.289 184.589 L 169.574 184.68 L 169.73 184.894 L 169.795 185.277 L 169.827 185.86 L 169.866 186.243 L 169.944 186.47 L 170.625 186.47 L 170.625 186.347 L 170.475 186.165 L 170.424 185.828 L 170.378 185.102 L 170.268 184.563 L 170.119 184.395 L 169.885 184.272 L 170.145 184.11 L 170.326 183.883 L 170.443 183.597 L 170.482 183.254 L 170.391 182.709 L 170.132 182.3 L 169.704 182.054 L 169.12 181.97 L 167.616 181.97 L 167.616 186.47 L 167.616 186.47 z M 168.952 182.521 L 169.347 182.56 L 169.626 182.683 L 169.801 182.91 L 169.86 183.267 L 169.795 183.643 L 169.62 183.87 L 169.321 183.986 L 168.913 184.019 L 168.219 184.019 L 168.219 182.521 L 168.952 182.521 L 168.952 182.521 z M 173.367 185.99 L 173.367 183.104 L 171.902 183.104 L 171.902 183.591 L 172.797 183.591 L 172.797 185.99 L 171.63 185.99 L 171.63 186.47 L 174.548 186.47 L 174.548 185.99 L 173.367 185.99 L 173.367 185.99 z M 173.387 181.814 L 172.784 181.814 L 172.784 182.463 L 173.387 182.463 L 173.387 181.814 L 173.387 181.814 z M 178.237 186.314 L 178.237 182.988 L 177.692 182.988 L 177.692 183.552 L 177.245 183.04 L 176.973 182.91 L 176.668 182.865 L 176.117 182.994 L 175.689 183.357 L 175.41 183.941 L 175.313 184.726 L 175.41 185.517 L 175.689 186.1 L 176.117 186.47 L 176.668 186.593 L 176.979 186.548 L 177.238 186.431 L 177.692 185.938 L 177.692 186.431 L 177.64 186.82 L 177.498 187.099 L 177.225 187.261 L 176.817 187.319 L 176.46 187.28 L 176.207 187.183 L 176.058 187.014 L 176.013 186.787 L 175.462 186.787 L 175.462 186.813 L 175.546 187.228 L 175.805 187.54 L 176.22 187.741 L 176.785 187.812 L 177.459 187.715 L 177.906 187.442 L 178.159 186.969 L 178.237 186.314 L 178.237 186.314 z M 175.903 184.726 L 175.961 184.148 L 176.136 183.72 L 176.408 183.468 L 176.772 183.377 L 177.154 183.468 L 177.439 183.72 L 177.615 184.148 L 177.679 184.726 L 177.615 185.316 L 177.439 185.737 L 177.154 185.996 L 176.772 186.081 L 176.408 185.996 L 176.136 185.737 L 175.961 185.309 L 175.903 184.726 L 175.903 184.726 z M 179.43 186.47 L 180.001 186.47 L 180.001 184.46 L 180.059 183.999 L 180.247 183.662 L 180.539 183.455 L 180.928 183.377 L 181.239 183.442 L 181.434 183.617 L 181.531 183.909 L 181.563 184.298 L 181.563 186.47 L 182.134 186.47 L 182.134 184.181 L 182.108 183.72 L 181.991 183.338 L 181.609 182.988 L 181.012 182.865 L 180.688 182.91 L 180.409 183.033 L 180.176 183.228 L 180.001 183.494 L 180.001 181.814 L 179.43 181.814 L 179.43 186.47 L 179.43 186.47 z M 184.099 183.591 L 184.099 185.335 L 184.138 185.899 L 184.319 186.288 L 184.682 186.515 L 185.298 186.593 L 185.973 186.561 L 185.973 186.068 L 185.48 186.107 L 185.032 186.055 L 184.792 185.893 L 184.689 185.62 L 184.669 185.238 L 184.669 183.591 L 185.973 183.591 L 185.973 183.104 L 184.669 183.104 L 184.669 182.086 L 184.099 182.086 L 184.099 183.104 L 183.113 183.104 L 183.113 183.591 L 184.099 183.591 L 184.099 183.591 z M 190.933 184.758 L 191.024 185.568 L 191.309 186.146 L 191.789 186.476 L 192.483 186.593 L 193.17 186.476 L 193.65 186.146 L 193.935 185.575 L 194.032 184.758 L 194.032 181.97 L 193.429 181.97 L 193.429 184.79 L 193.371 185.341 L 193.196 185.737 L 192.898 185.97 L 192.483 186.048 L 192.055 185.97 L 191.756 185.737 L 191.581 185.348 L 191.53 184.79 L 191.53 181.97 L 190.933 181.97 L 190.933 184.758 L 190.933 184.758 z M 195.582 183.526 L 195.582 182.988 L 195.012 182.988 L 195.012 187.818 L 195.582 187.818 L 195.582 185.938 L 195.783 186.243 L 196.01 186.444 L 196.581 186.593 L 197.125 186.47 L 197.553 186.1 L 197.832 185.517 L 197.936 184.726 L 197.832 183.941 L 197.553 183.357 L 197.125 182.994 L 196.581 182.865 L 196.269 182.903 L 196.004 183.027 L 195.777 183.234 L 195.582 183.526 L 195.582 183.526 z M 196.483 186.081 L 196.101 185.996 L 195.822 185.737 L 195.647 185.316 L 195.589 184.726 L 195.647 184.142 L 195.822 183.72 L 196.101 183.468 L 196.483 183.377 L 196.834 183.468 L 197.112 183.727 L 197.287 184.148 L 197.352 184.726 L 197.287 185.309 L 197.112 185.737 L 196.834 185.996 L 196.483 186.081 L 196.483 186.081 z M 199.486 183.526 L 199.486 182.988 L 198.915 182.988 L 198.915 187.818 L 199.486 187.818 L 199.486 185.938 L 199.687 186.243 L 199.914 186.444 L 200.484 186.593 L 201.029 186.47 L 201.457 186.1 L 201.736 185.517 L 201.839 184.726 L 201.736 183.941 L 201.457 183.357 L 201.029 182.994 L 200.484 182.865 L 200.173 182.903 L 199.907 183.027 L 199.68 183.234 L 199.486 183.526 L 199.486 183.526 z M 200.387 186.081 L 200.004 185.996 L 199.725 185.737 L 199.55 185.316 L 199.492 184.726 L 199.55 184.142 L 199.725 183.72 L 200.004 183.468 L 200.387 183.377 L 200.737 183.468 L 201.016 183.727 L 201.191 184.148 L 201.256 184.726 L 201.191 185.309 L 201.016 185.737 L 200.737 185.996 L 200.387 186.081 L 200.387 186.081 z M 203.35 184.894 L 205.633 184.894 L 205.639 184.628 L 205.535 183.883 L 205.25 183.325 L 204.796 182.988 L 204.193 182.865 L 203.603 182.994 L 203.149 183.357 L 202.857 183.947 L 202.754 184.726 L 202.851 185.523 L 203.143 186.107 L 203.59 186.47 L 204.174 186.593 L 204.679 186.509 L 205.094 186.288 L 205.399 185.938 L 205.574 185.471 L 205.01 185.471 L 204.893 185.731 L 204.725 185.925 L 204.245 186.081 L 203.875 186.009 L 203.597 185.782 L 203.415 185.413 L 203.35 184.914 L 203.35 184.894 L 203.35 184.894 z M 203.35 184.414 L 203.421 183.967 L 203.597 183.636 L 203.862 183.435 L 204.213 183.364 L 204.556 183.435 L 204.822 183.636 L 204.984 183.967 L 205.042 184.414 L 203.35 184.414 L 203.35 184.414 z M 206.968 186.47 L 207.539 186.47 L 207.539 184.479 L 207.597 183.999 L 207.772 183.656 L 208.058 183.448 L 208.44 183.377 L 208.725 183.422 L 208.939 183.552 L 209.069 183.772 L 209.115 184.071 L 209.692 184.071 L 209.614 183.545 L 209.4 183.169 L 209.043 182.942 L 208.557 182.865 L 208.226 182.916 L 207.941 183.046 L 207.688 183.267 L 207.487 183.565 L 207.487 182.988 L 206.968 182.988 L 206.968 186.47 L 206.968 186.47 z M 213.932 186.47 L 214.529 186.47 L 215.002 185.147 L 216.798 185.147 L 217.272 186.47 L 217.881 186.47 L 216.234 181.963 L 215.573 181.963 L 213.932 186.47 L 213.932 186.47 z M 215.21 184.596 L 215.903 182.612 L 216.597 184.596 L 215.21 184.596 L 215.21 184.596 z M 219.022 184.985 L 220.591 184.985 L 220.591 184.473 L 219.022 184.473 L 219.022 184.985 L 219.022 184.985 z M 221.739 186.47 L 222.336 186.47 L 222.809 185.147 L 224.605 185.147 L 225.079 186.47 L 225.688 186.47 L 224.041 181.963 L 223.38 181.963 L 221.739 186.47 L 221.739 186.47 z M 223.017 184.596 L 223.71 182.612 L 224.404 184.596 L 223.017 184.596 L 223.017 184.596 z M 226.486 186.47 L 227.056 186.47 L 227.056 184.479 L 227.115 183.999 L 227.29 183.656 L 227.575 183.448 L 227.957 183.377 L 228.243 183.422 L 228.457 183.552 L 228.586 183.772 L 228.632 184.071 L 229.209 184.071 L 229.131 183.545 L 228.917 183.169 L 228.561 182.942 L 228.074 182.865 L 227.743 182.916 L 227.458 183.046 L 227.205 183.267 L 227.004 183.565 L 227.004 182.988 L 226.486 182.988 L 226.486 186.47 L 226.486 186.47 z M 229.948 186.47 L 230.473 186.47 L 230.473 184.142 L 230.506 183.792 L 230.603 183.539 L 230.752 183.39 L 230.947 183.331 L 231.102 183.383 L 231.206 183.513 L 231.258 183.733 L 231.277 184.025 L 231.277 186.47 L 231.77 186.47 L 231.77 184.142 L 231.803 183.798 L 231.9 183.545 L 232.055 183.39 L 232.25 183.331 L 232.406 183.383 L 232.509 183.513 L 232.574 184.025 L 232.574 186.47 L 233.099 186.47 L 233.099 184.064 L 233.067 183.565 L 232.963 183.182 L 232.756 182.949 L 232.419 182.865 L 232.023 182.994 L 231.718 183.37 L 231.478 183.001 L 231.076 182.865 L 230.707 182.994 L 230.454 183.357 L 230.454 182.988 L 229.948 182.988 L 229.948 186.47 L 229.948 186.47 z M 237.878 186.47 L 238.481 186.47 L 238.481 184.57 L 239.097 184.57 L 239.551 184.589 L 239.836 184.68 L 239.992 184.894 L 240.057 185.277 L 240.089 185.86 L 240.128 186.243 L 240.206 186.47 L 240.887 186.47 L 240.887 186.347 L 240.738 186.165 L 240.686 185.828 L 240.64 185.102 L 240.53 184.563 L 240.381 184.395 L 240.148 184.272 L 240.407 184.11 L 240.589 183.883 L 240.705 183.597 L 240.744 183.254 L 240.653 182.709 L 240.394 182.3 L 239.966 182.054 L 239.383 181.97 L 237.878 181.97 L 237.878 186.47 L 237.878 186.47 z M 239.214 182.521 L 239.609 182.56 L 239.888 182.683 L 240.063 182.91 L 240.122 183.267 L 240.057 183.643 L 239.882 183.87 L 239.584 183.986 L 239.175 184.019 L 238.481 184.019 L 238.481 182.521 L 239.214 182.521 L 239.214 182.521 z M 242.385 184.894 L 244.667 184.894 L 244.674 184.628 L 244.57 183.883 L 244.285 183.325 L 243.831 182.988 L 243.228 182.865 L 242.638 182.994 L 242.184 183.357 L 241.892 183.947 L 241.788 184.726 L 241.885 185.523 L 242.177 186.107 L 242.625 186.47 L 243.208 186.593 L 243.714 186.509 L 244.129 186.288 L 244.434 185.938 L 244.609 185.471 L 244.045 185.471 L 243.928 185.731 L 243.759 185.925 L 243.28 186.081 L 242.91 186.009 L 242.631 185.782 L 242.45 185.413 L 242.385 184.914 L 242.385 184.894 L 242.385 184.894 z M 242.385 184.414 L 242.456 183.967 L 242.631 183.636 L 242.897 183.435 L 243.247 183.364 L 243.591 183.435 L 243.857 183.636 L 244.019 183.967 L 244.077 184.414 L 242.385 184.414 L 242.385 184.414 z M 247.857 186.016 L 247.857 186.035 L 247.89 186.256 L 247.987 186.411 L 248.396 186.535 L 248.713 186.483 L 248.713 186.042 L 248.577 186.061 L 248.396 185.977 L 248.363 185.718 L 248.363 183.915 L 248.285 183.455 L 248.058 183.13 L 247.663 182.936 L 247.105 182.865 L 246.561 182.942 L 246.158 183.163 L 245.906 183.506 L 245.821 183.96 L 245.821 183.999 L 246.334 183.999 L 246.379 183.727 L 246.522 183.532 L 246.755 183.416 L 247.086 183.37 L 247.403 183.403 L 247.63 183.5 L 247.767 183.669 L 247.812 183.902 L 247.786 184.174 L 247.682 184.311 L 247.423 184.375 L 246.937 184.427 L 246.379 184.544 L 245.983 184.751 L 245.75 185.076 L 245.679 185.555 L 245.743 185.983 L 245.945 186.301 L 246.269 186.502 L 246.716 186.573 L 247.319 186.437 L 247.857 186.016 L 247.857 186.016 z M 247.792 185.251 L 247.715 185.588 L 247.507 185.847 L 247.196 186.016 L 246.813 186.074 L 246.567 186.042 L 246.392 185.938 L 246.282 185.756 L 246.249 185.504 L 246.275 185.277 L 246.379 185.115 L 246.794 184.933 L 247.319 184.855 L 247.792 184.7 L 247.792 185.251 L 247.792 185.251 z M 249.906 186.47 L 250.477 186.47 L 250.477 184.479 L 250.535 183.999 L 250.71 183.656 L 250.996 183.448 L 251.378 183.377 L 251.664 183.422 L 251.878 183.552 L 252.007 183.772 L 252.053 184.071 L 252.63 184.071 L 252.552 183.545 L 252.338 183.169 L 251.981 182.942 L 251.495 182.865 L 251.164 182.916 L 250.879 183.046 L 250.626 183.267 L 250.425 183.565 L 250.425 182.988 L 249.906 182.988 L 249.906 186.47 L 249.906 186.47 z M 257.292 184.758 L 257.383 185.568 L 257.668 186.146 L 258.148 186.476 L 258.841 186.593 L 259.529 186.476 L 260.009 186.146 L 260.294 185.575 L 260.391 184.758 L 260.391 181.97 L 259.788 181.97 L 259.788 184.79 L 259.73 185.341 L 259.555 185.737 L 259.256 185.97 L 258.841 186.048 L 258.414 185.97 L 258.115 185.737 L 257.94 185.348 L 257.888 184.79 L 257.888 181.97 L 257.292 181.97 L 257.292 184.758 L 257.292 184.758 z M 261.941 183.526 L 261.941 182.988 L 261.37 182.988 L 261.37 187.818 L 261.941 187.818 L 261.941 185.938 L 262.142 186.243 L 262.369 186.444 L 262.939 186.593 L 263.484 186.47 L 263.912 186.1 L 264.191 185.517 L 264.295 184.726 L 264.191 183.941 L 263.912 183.357 L 263.484 182.994 L 262.939 182.865 L 262.628 182.903 L 262.362 183.027 L 262.135 183.234 L 261.941 183.526 L 261.941 183.526 z M 262.842 186.081 L 262.46 185.996 L 262.181 185.737 L 262.006 185.316 L 261.947 184.726 L 262.006 184.142 L 262.181 183.72 L 262.46 183.468 L 262.842 183.377 L 263.192 183.468 L 263.471 183.727 L 263.646 184.148 L 263.711 184.726 L 263.646 185.309 L 263.471 185.737 L 263.192 185.996 L 262.842 186.081 L 262.842 186.081 z M 265.844 183.526 L 265.844 182.988 L 265.274 182.988 L 265.274 187.818 L 265.844 187.818 L 265.844 185.938 L 266.045 186.243 L 266.272 186.444 L 266.843 186.593 L 267.388 186.47 L 267.815 186.1 L 268.094 185.517 L 268.198 184.726 L 268.094 183.941 L 267.815 183.357 L 267.388 182.994 L 266.843 182.865 L 266.532 182.903 L 266.266 183.027 L 266.039 183.234 L 265.844 183.526 L 265.844 183.526 z M 266.746 186.081 L 266.363 185.996 L 266.084 185.737 L 265.909 185.316 L 265.851 184.726 L 265.909 184.142 L 266.084 183.72 L 266.363 183.468 L 266.746 183.377 L 267.096 183.468 L 267.375 183.727 L 267.55 184.148 L 267.615 184.726 L 267.55 185.309 L 267.375 185.737 L 267.096 185.996 L 266.746 186.081 L 266.746 186.081 z M 269.709 184.894 L 271.991 184.894 L 271.998 184.628 L 271.894 183.883 L 271.609 183.325 L 271.155 182.988 L 270.552 182.865 L 269.962 182.994 L 269.508 183.357 L 269.216 183.947 L 269.112 184.726 L 269.21 185.523 L 269.501 186.107 L 269.949 186.47 L 270.532 186.593 L 271.038 186.509 L 271.453 186.288 L 271.758 185.938 L 271.933 185.471 L 271.369 185.471 L 271.252 185.731 L 271.083 185.925 L 270.604 186.081 L 270.234 186.009 L 269.955 185.782 L 269.774 185.413 L 269.709 184.914 L 269.709 184.894 L 269.709 184.894 z M 269.709 184.414 L 269.78 183.967 L 269.955 183.636 L 270.221 183.435 L 270.571 183.364 L 270.915 183.435 L 271.181 183.636 L 271.343 183.967 L 271.401 184.414 L 269.709 184.414 L 269.709 184.414 z M 273.327 186.47 L 273.898 186.47 L 273.898 184.479 L 273.956 183.999 L 274.131 183.656 L 274.416 183.448 L 274.799 183.377 L 275.084 183.422 L 275.298 183.552 L 275.428 183.772 L 275.473 184.071 L 276.05 184.071 L 275.973 183.545 L 275.759 183.169 L 275.402 182.942 L 274.916 182.865 L 274.585 182.916 L 274.3 183.046 L 274.047 183.267 L 273.846 183.565 L 273.846 182.988 L 273.327 182.988 L 273.327 186.47 L 273.327 186.47 z" stroke="none" fill-rule="evenodd" fill="rgb(0, 0, 0)"/></g><g stroke="rgb(0, 0, 0)" stroke-width="0.13" stroke-linecap="butt" stroke-linejoin="miter" fill="none"><path d="M 142.225 107.013 L 142.694 107.013 L 142.694 105.536 L 143.173 105.536 L 143.526 105.551 L 143.748 105.621 L 143.869 105.788 L 143.92 106.085 L 143.945 106.539 L 143.975 106.837 L 144.036 107.013 L 144.565 107.013 L 144.565 106.917 L 144.449 106.776 L 144.409 106.514 L 144.374 105.949 L 144.288 105.531 L 144.172 105.399 L 143.99 105.304 L 144.192 105.178 L 144.333 105.001 L 144.424 104.779 L 144.454 104.512 L 144.384 104.088 L 144.182 103.77 L 143.849 103.579 L 143.395 103.513 L 142.225 103.513 L 142.225 107.013 L 142.225 107.013 z M 143.264 103.942 L 143.572 103.972 L 143.789 104.068 L 143.925 104.245 L 143.97 104.522 L 143.92 104.814 L 143.784 104.991 L 143.552 105.082 L 143.234 105.107 L 142.694 105.107 L 142.694 103.942 L 143.264 103.942 L 143.264 103.942 z M 145.261 107.013 L 145.73 107.013 L 145.73 105.536 L 146.209 105.536 L 146.563 105.551 L 146.784 105.621 L 146.905 105.788 L 146.956 106.085 L 146.981 106.539 L 147.011 106.837 L 147.072 107.013 L 147.601 107.013 L 147.601 106.917 L 147.485 106.776 L 147.445 106.514 L 147.41 105.949 L 147.324 105.531 L 147.208 105.399 L 147.026 105.304 L 147.228 105.178 L 147.369 105.001 L 147.46 104.779 L 147.49 104.512 L 147.42 104.088 L 147.218 103.77 L 146.885 103.579 L 146.431 103.513 L 145.261 103.513 L 145.261 107.013 L 145.261 107.013 z M 146.3 103.942 L 146.608 103.972 L 146.825 104.068 L 146.961 104.245 L 147.006 104.522 L 146.956 104.814 L 146.82 104.991 L 146.588 105.082 L 146.27 105.107 L 145.73 105.107 L 145.73 103.942 L 146.3 103.942 L 146.3 103.942 z M 148.217 105.682 L 148.287 106.312 L 148.509 106.761 L 148.882 107.018 L 149.422 107.109 L 149.957 107.018 L 150.33 106.761 L 150.552 106.317 L 150.627 105.682 L 150.627 103.513 L 150.158 103.513 L 150.158 105.707 L 150.113 106.136 L 149.977 106.443 L 149.745 106.625 L 149.422 106.685 L 149.089 106.625 L 148.857 106.443 L 148.721 106.141 L 148.681 105.707 L 148.681 103.513 L 148.217 103.513 L 148.217 105.682 L 148.217 105.682 z M 151.848 105.858 L 153.068 105.858 L 153.068 105.46 L 151.848 105.46 L 151.848 105.858 L 151.848 105.858 z" stroke="none" fill-rule="evenodd" fill="rgb(0, 0, 0)"/></g><g stroke="rgb(0, 0, 0)" stroke-width="0.13" stroke-linecap="butt" stroke-linejoin="miter" fill="none"><path d="M 142.225 113.06 L 142.694 113.06 L 142.694 111.582 L 143.173 111.582 L 143.526 111.598 L 143.748 111.668 L 143.869 111.835 L 143.92 112.132 L 143.945 112.586 L 143.975 112.884 L 144.036 113.06 L 144.565 113.06 L 144.565 112.964 L 144.449 112.823 L 144.409 112.561 L 144.374 111.996 L 144.288 111.577 L 144.172 111.446 L 143.99 111.35 L 144.192 111.224 L 144.333 111.048 L 144.424 110.826 L 144.454 110.559 L 144.384 110.135 L 144.182 109.817 L 143.849 109.626 L 143.395 109.56 L 142.225 109.56 L 142.225 113.06 L 142.225 113.06 z M 143.264 109.989 L 143.572 110.019 L 143.789 110.115 L 143.925 110.291 L 143.97 110.569 L 143.92 110.861 L 143.784 111.038 L 143.552 111.129 L 143.234 111.154 L 142.694 111.154 L 142.694 109.989 L 143.264 109.989 L 143.264 109.989 z M 145.181 111.729 L 145.251 112.359 L 145.473 112.808 L 145.846 113.065 L 146.386 113.156 L 146.921 113.065 L 147.294 112.808 L 147.516 112.364 L 147.591 111.729 L 147.591 109.56 L 147.122 109.56 L 147.122 111.754 L 147.077 112.183 L 146.941 112.49 L 146.709 112.672 L 146.386 112.732 L 146.053 112.672 L 145.821 112.49 L 145.685 112.188 L 145.645 111.754 L 145.645 109.56 L 145.181 109.56 L 145.181 111.729 L 145.181 111.729 z M 148.217 111.729 L 148.287 112.359 L 148.509 112.808 L 148.882 113.065 L 149.422 113.156 L 149.957 113.065 L 150.33 112.808 L 150.552 112.364 L 150.627 111.729 L 150.627 109.56 L 150.158 109.56 L 150.158 111.754 L 150.113 112.183 L 149.977 112.49 L 149.745 112.672 L 149.422 112.732 L 149.089 112.672 L 148.857 112.49 L 148.721 112.188 L 148.681 111.754 L 148.681 109.56 L 148.217 109.56 L 148.217 111.729 L 148.217 111.729 z" stroke="none" fill-rule="evenodd" fill="rgb(0, 0, 0)"/></g><g stroke="rgb(0, 0, 0)" stroke-width="0.13" stroke-linecap="butt" stroke-linejoin="miter" fill="none"><path d="M 224.601 103.477 L 225.07 103.477 L 225.07 102 L 225.549 102 L 225.902 102.015 L 226.124 102.086 L 226.245 102.252 L 226.295 102.55 L 226.32 103.003 L 226.351 103.301 L 226.411 103.477 L 226.941 103.477 L 226.941 103.382 L 226.825 103.24 L 226.784 102.978 L 226.749 102.413 L 226.663 101.995 L 226.547 101.864 L 226.366 101.768 L 226.567 101.642 L 226.709 101.465 L 226.799 101.243 L 226.83 100.976 L 226.759 100.552 L 226.557 100.235 L 226.224 100.043 L 225.771 99.9775 L 224.601 99.9775 L 224.601 103.477 L 224.601 103.477 z M 225.639 100.406 L 225.947 100.436 L 226.164 100.532 L 226.3 100.709 L 226.346 100.986 L 226.295 101.279 L 226.159 101.455 L 225.927 101.546 L 225.609 101.571 L 225.07 101.571 L 225.07 100.406 L 225.639 100.406 L 225.639 100.406 z M 227.637 103.477 L 228.106 103.477 L 228.106 102 L 228.585 102 L 228.938 102.015 L 229.16 102.086 L 229.281 102.252 L 229.331 102.55 L 229.356 103.003 L 229.387 103.301 L 229.447 103.477 L 229.977 103.477 L 229.977 103.382 L 229.861 103.24 L 229.82 102.978 L 229.785 102.413 L 229.699 101.995 L 229.583 101.864 L 229.402 101.768 L 229.603 101.642 L 229.745 101.465 L 229.835 101.243 L 229.866 100.976 L 229.795 100.552 L 229.593 100.235 L 229.261 100.043 L 228.807 99.9775 L 227.637 99.9775 L 227.637 103.477 L 227.637 103.477 z M 228.676 100.406 L 228.983 100.436 L 229.2 100.532 L 229.336 100.709 L 229.382 100.986 L 229.331 101.279 L 229.195 101.455 L 228.963 101.546 L 228.645 101.571 L 228.106 101.571 L 228.106 100.406 L 228.676 100.406 L 228.676 100.406 z M 230.592 102.146 L 230.663 102.776 L 230.884 103.225 L 231.258 103.483 L 231.797 103.573 L 232.332 103.483 L 232.705 103.225 L 232.927 102.782 L 233.003 102.146 L 233.003 99.9775 L 232.534 99.9775 L 232.534 102.171 L 232.488 102.6 L 232.352 102.908 L 232.12 103.089 L 231.797 103.15 L 231.464 103.089 L 231.232 102.908 L 231.096 102.605 L 231.056 102.171 L 231.056 99.9775 L 230.592 99.9775 L 230.592 102.146 L 230.592 102.146 z M 234.223 102.323 L 235.444 102.323 L 235.444 101.924 L 234.223 101.924 L 234.223 102.323 L 234.223 102.323 z" stroke="none" fill-rule="evenodd" fill="rgb(0, 0, 0)"/></g><g stroke="rgb(0, 0, 0)" stroke-width="0.13" stroke-linecap="butt" stroke-linejoin="miter" fill="none"><path d="M 224.601 109.524 L 225.07 109.524 L 225.07 108.047 L 225.549 108.047 L 225.902 108.062 L 226.124 108.132 L 226.245 108.299 L 226.295 108.596 L 226.32 109.05 L 226.351 109.348 L 226.411 109.524 L 226.941 109.524 L 226.941 109.428 L 226.825 109.287 L 226.784 109.025 L 226.749 108.46 L 226.663 108.042 L 226.547 107.91 L 226.366 107.815 L 226.567 107.689 L 226.709 107.512 L 226.799 107.29 L 226.83 107.023 L 226.759 106.599 L 226.557 106.282 L 226.224 106.09 L 225.771 106.024 L 224.601 106.024 L 224.601 109.524 L 224.601 109.524 z M 225.639 106.453 L 225.947 106.483 L 226.164 106.579 L 226.3 106.756 L 226.346 107.033 L 226.295 107.325 L 226.159 107.502 L 225.927 107.593 L 225.609 107.618 L 225.07 107.618 L 225.07 106.453 L 225.639 106.453 L 225.639 106.453 z M 227.556 108.193 L 227.627 108.823 L 227.848 109.272 L 228.222 109.529 L 228.761 109.62 L 229.296 109.529 L 229.669 109.272 L 229.891 108.828 L 229.967 108.193 L 229.967 106.024 L 229.498 106.024 L 229.498 108.218 L 229.452 108.647 L 229.316 108.954 L 229.084 109.136 L 228.761 109.197 L 228.428 109.136 L 228.196 108.954 L 228.06 108.652 L 228.02 108.218 L 228.02 106.024 L 227.556 106.024 L 227.556 108.193 L 227.556 108.193 z M 231.792 106.024 L 230.627 106.024 L 230.627 109.524 L 231.792 109.524 L 232.342 109.413 L 232.75 109.075 L 233.003 108.526 L 233.093 107.774 L 233.013 107.008 L 232.912 106.705 L 232.771 106.463 L 232.362 106.135 L 232.095 106.055 L 231.792 106.024 L 231.792 106.024 z M 231.757 106.443 L 232.14 106.519 L 232.402 106.751 L 232.559 107.164 L 232.609 107.774 L 232.554 108.364 L 232.397 108.778 L 232.13 109.025 L 231.757 109.106 L 231.096 109.106 L 231.096 106.443 L 231.757 106.443 L 231.757 106.443 z" stroke="none" fill-rule="evenodd" fill="rgb(0, 0, 0)"/></g></svg>