<?xml version="1.0" encoding="utf-8" ?><!DOCTYPE svg PUBLIC "-//W3C//DTD SVG 1.1//EN" "http://www.w3.org/Graphics/SVG/1.1/DTD/svg11.dtd" 
[ <!ATTLIST svg 
  xmlns:dsy CDATA #FIXED "http://www.3ds.com/print"  
    dsy:text-version CDATA #IMPLIED > 

  <!ATTLIST text 
  xmlns:dsy CDATA #FIXED "http://www.3ds.com/print" 
    dsy:text-version CDATA #IMPLIED > 
]><svg xmlns="http://www.w3.org/2000/svg" xmlns:dsy="http://www.3ds.com/print" dsy:text-version="18000" width="1189" height="841" viewBox="0 0 1189 841" version="1.1"><g stroke="rgb(0, 0, 0)" stroke-width="0.13" stroke-linecap="butt" stroke-linejoin="miter" fill="none"><path d="M 723.214 540.5 L 756.239 540.5"/><path d="M 723.214 300.5 L 756.239 300.5"/></g><g stroke="rgb(0, 0, 0)" stroke-width="0.35" stroke-linecap="butt" stroke-linejoin="miter" fill="none"><circle cx="491.214" cy="315.5" r="2.15002"/><circle cx="491.214" cy="525.5" r="2.15002"/><circle cx="701.214" cy="525.5" r="2.15002"/><circle cx="701.214" cy="315.5" r="2.15002"/><path d="M 476.214 295.5 A 5 5 0 0 0 471.214 300.5"/><path d="M 471.214 540.5 L 471.214 300.5"/><path d="M 471.214 540.5 A 5 5 0 0 0 476.214 545.5"/><path d="M 716.214 545.5 L 476.214 545.5"/><path d="M 716.214 545.5 A 5 5 0 0 0 721.214 540.5"/><path d="M 476.214 295.5 L 716.214 295.5"/><path d="M 721.214 300.5 L 721.214 540.5"/><path d="M 721.214 300.5 A 5 5 0 0 0 716.214 295.5"/><path d="M 493.364 315.5 A 2.15002 2.15002 0 1 0 489.064 315.5"/><path d="M 489.064 315.5 A 2.15002 2.15002 0 1 0 493.364 315.5"/></g><g stroke="rgb(0, 0, 0)" stroke-width="0.13" stroke-linecap="butt" stroke-linejoin="miter" fill="none"><path d="M 752.239 425.467 L 752.239 423.061 L 751.805 423.061 L 751.805 424.962 L 751.568 424.856 L 751.372 424.675 L 751.014 424.115 L 750.862 423.817 L 750.645 423.485 L 750.393 423.248 L 750.096 423.111 L 749.758 423.061 L 749.334 423.147 L 749.001 423.384 L 748.789 423.747 L 748.714 424.216 L 748.8 424.7 L 749.037 425.068 L 749.415 425.305 L 749.914 425.386 L 749.985 425.386 L 749.985 424.927 L 749.944 424.927 L 749.602 424.882 L 749.349 424.745 L 749.188 424.529 L 749.132 424.241 L 749.183 423.949 L 749.309 423.732 L 749.506 423.59 L 749.753 423.54 L 749.985 423.575 L 750.181 423.671 L 750.353 423.833 L 750.504 424.054 L 750.666 424.352 L 750.978 424.846 L 751.311 425.194 L 751.715 425.401 L 752.224 425.467 L 752.239 425.467 L 752.239 425.467 z M 752.239 420.223 L 752.239 419.769 L 751.372 419.769 L 751.372 419.269 L 750.968 419.269 L 750.968 419.769 L 748.815 419.769 L 748.815 420.228 L 750.928 421.761 L 751.372 421.761 L 751.372 420.223 L 752.239 420.223 L 752.239 420.223 z M 750.968 421.337 L 749.4 420.223 L 750.968 420.223 L 750.968 421.337 L 750.968 421.337 z M 750.529 417.979 L 751.321 417.904 L 751.886 417.667 L 752.229 417.288 L 752.34 416.764 L 752.229 416.245 L 751.886 415.866 L 751.321 415.634 L 750.529 415.554 L 749.743 415.634 L 749.43 415.73 L 749.173 415.866 L 748.83 416.245 L 748.714 416.764 L 748.83 417.288 L 749.178 417.667 L 749.743 417.904 L 750.529 417.979 L 750.529 417.979 z M 750.529 417.495 L 749.919 417.455 L 749.48 417.329 L 749.223 417.102 L 749.132 416.764 L 749.223 416.431 L 749.48 416.204 L 749.919 416.078 L 750.529 416.038 L 751.145 416.078 L 751.583 416.204 L 751.841 416.431 L 751.926 416.764 L 751.841 417.102 L 751.583 417.329 L 751.145 417.455 L 750.529 417.495 L 750.529 417.495 z" stroke="none" fill-rule="evenodd" fill="rgb(0, 0, 0)"/><path d="M 754.757 302.432 L 754.239 300.5 L 753.721 302.432"/><path d="M 753.721 538.568 L 754.239 540.5 L 754.757 538.568"/><path d="M 754.239 540.5 L 754.239 300.5"/></g></svg>