<?xml version="1.0" encoding="utf-8" ?><!DOCTYPE svg PUBLIC "-//W3C//DTD SVG 1.1//EN" "http://www.w3.org/Graphics/SVG/1.1/DTD/svg11.dtd" 
[ <!ATTLIST svg 
  xmlns:dsy CDATA #FIXED "http://www.3ds.com/print"  
    dsy:text-version CDATA #IMPLIED > 

  <!ATTLIST text 
  xmlns:dsy CDATA #FIXED "http://www.3ds.com/print" 
    dsy:text-version CDATA #IMPLIED > 
]><svg xmlns="http://www.w3.org/2000/svg" xmlns:dsy="http://www.3ds.com/print" dsy:text-version="18000" width="297" height="210" viewBox="0 0 297 210" version="1.1"><g stroke="rgb(0, 0, 0)" stroke-width="0.13" stroke-linecap="butt" stroke-linejoin="miter" fill="none"><path d="M 115.073 136.546 L 126.762 136.546"/><path d="M 115.073 36.5462 L 126.762 36.5462"/><path d="M 28.0727 34.5462 L 28.0727 28.0895"/><path d="M 113.073 34.5462 L 113.073 28.0895"/><path d="M 245.404 134.559 L 258.161 134.559"/><path d="M 245.404 28.5586 L 258.161 28.5586"/><path d="M 152.404 26.5586 L 152.404 15.8652"/><path d="M 243.404 26.5586 L 243.404 15.8652"/></g><g stroke="rgb(0, 0, 0)" stroke-width="0.35" stroke-linecap="butt" stroke-linejoin="miter" fill="none"><path d="M 28.0727 36.5462 L 28.0727 136.546"/><path d="M 113.073 136.546 L 28.0727 136.546"/><path d="M 113.073 136.546 L 113.073 36.5462"/><path d="M 28.0727 36.5462 L 113.073 36.5462"/><path d="M 95.5727 120.546 L 95.5727 126.546"/><path d="M 103.573 120.546 L 95.5727 120.546"/><path d="M 103.573 126.546 L 95.5727 126.546"/><path d="M 103.573 126.546 L 103.573 120.546"/><path d="M 57.5727 120.546 L 57.5727 126.546"/><path d="M 65.5727 120.546 L 57.5727 120.546"/><path d="M 65.5727 126.546 L 57.5727 126.546"/><path d="M 65.5727 126.546 L 65.5727 120.546"/><path d="M 98.0727 63.5462 L 98.0727 69.5462"/><path d="M 98.0727 63.5462 L 106.073 63.5462"/><path d="M 106.073 69.5462 L 98.0727 69.5462"/><path d="M 106.073 69.5462 L 106.073 63.5462"/><path d="M 63.0727 69.5462 L 63.0727 63.5462"/><path d="M 63.0727 69.5462 L 55.0727 69.5462"/><path d="M 55.0727 63.5462 L 55.0727 69.5462"/><path d="M 55.0727 63.5462 L 63.0727 63.5462"/><path d="M 152.404 28.5586 L 152.404 134.559"/><path d="M 243.404 134.559 L 152.404 134.559"/><path d="M 243.404 134.559 L 243.404 28.5586"/><path d="M 152.404 28.5586 L 243.404 28.5586"/></g><g stroke="rgb(0, 0, 0)" stroke-width="0.13" stroke-linecap="butt" stroke-linejoin="miter" fill="none"><path d="M 122.762 90.3731 L 122.762 89.9141 L 119.237 89.9141 L 119.237 90.2571 L 119.545 90.3478 L 119.751 90.5294 L 119.872 90.8068 L 119.913 91.1901 L 120.271 91.1901 L 120.271 90.3731 L 122.762 90.3731 L 122.762 90.3731 z M 121.052 87.7617 L 121.844 87.686 L 122.409 87.449 L 122.752 87.0707 L 122.863 86.5462 L 122.752 86.0268 L 122.409 85.6486 L 121.844 85.4166 L 121.052 85.3359 L 120.266 85.4166 L 119.953 85.5124 L 119.696 85.6486 L 119.353 86.0268 L 119.237 86.5462 L 119.353 87.0707 L 119.701 87.449 L 120.266 87.686 L 121.052 87.7617 L 121.052 87.7617 z M 121.052 87.2775 L 120.442 87.2372 L 120.004 87.1111 L 119.746 86.8841 L 119.656 86.5462 L 119.746 86.2134 L 120.004 85.9865 L 120.442 85.8604 L 121.052 85.82 L 121.668 85.8604 L 122.107 85.9865 L 122.364 86.2134 L 122.449 86.5462 L 122.364 86.8841 L 122.107 87.1111 L 121.668 87.2372 L 121.052 87.2775 L 121.052 87.2775 z M 121.052 84.0256 L 121.844 83.95 L 122.409 83.713 L 122.752 83.3347 L 122.863 82.8102 L 122.752 82.2908 L 122.409 81.9125 L 121.844 81.6805 L 121.052 81.5999 L 120.266 81.6805 L 119.953 81.7764 L 119.696 81.9125 L 119.353 82.2908 L 119.237 82.8102 L 119.353 83.3347 L 119.701 83.713 L 120.266 83.95 L 121.052 84.0256 L 121.052 84.0256 z M 121.052 83.5415 L 120.442 83.5012 L 120.004 83.3751 L 119.746 83.1481 L 119.656 82.8102 L 119.746 82.4774 L 120.004 82.2504 L 120.442 82.1244 L 121.052 82.084 L 121.668 82.1244 L 122.107 82.2504 L 122.364 82.4774 L 122.449 82.8102 L 122.364 83.1481 L 122.107 83.3751 L 121.668 83.5012 L 121.052 83.5415 L 121.052 83.5415 z" stroke="none" fill-rule="evenodd" fill="rgb(0, 0, 0)"/><path d="M 124.245 134.614 L 124.762 136.546 L 125.28 134.614"/><path d="M 125.28 38.4781 L 124.762 36.5462 L 124.245 38.4781"/><path d="M 124.762 136.546 L 124.762 36.5462"/></g><g stroke="rgb(0, 0, 0)" stroke-width="0.13" stroke-linecap="butt" stroke-linejoin="miter" fill="none"><path d="M 68.0794 26.2033 L 67.8222 26.3445 L 67.6456 26.5412 L 67.5347 26.7883 L 67.4994 27.0859 L 67.5801 27.5347 L 67.8121 27.8827 L 68.1903 28.1046 L 68.7047 28.1904 L 69.2141 28.1046 L 69.5923 27.8827 L 69.8243 27.5347 L 69.91 27.0859 L 69.8697 26.7883 L 69.7638 26.5412 L 69.5822 26.3445 L 69.3301 26.2033 L 69.5318 26.0823 L 69.673 25.9159 L 69.7588 25.7141 L 69.789 25.467 L 69.7083 25.1089 L 69.4965 24.8215 L 69.1536 24.6349 L 68.7047 24.5643 L 68.2508 24.6349 L 67.9079 24.8215 L 67.691 25.1089 L 67.6154 25.467 L 67.6406 25.7141 L 67.7263 25.9159 L 68.0794 26.2033 L 68.0794 26.2033 z M 67.9835 27.0758 L 68.0289 26.8085 L 68.1752 26.6068 L 68.4021 26.4757 L 68.7047 26.4303 L 69.0023 26.4757 L 69.2292 26.6068 L 69.3755 26.8085 L 69.4259 27.0758 L 69.3755 27.3633 L 69.2292 27.5801 L 69.0023 27.7213 L 68.7047 27.7667 L 68.4021 27.7213 L 68.1752 27.5801 L 68.0289 27.3633 L 67.9835 27.0758 L 67.9835 27.0758 z M 68.0945 25.5074 L 68.1348 25.2855 L 68.2559 25.114 L 68.4475 25.0081 L 68.7047 24.9677 L 68.9569 25.0081 L 69.1485 25.114 L 69.2696 25.2855 L 69.3149 25.5074 L 69.2696 25.7343 L 69.1485 25.9108 L 68.9569 26.0268 L 68.7047 26.0621 L 68.4475 26.0218 L 68.2559 25.9108 L 68.1348 25.7343 L 68.0945 25.5074 L 68.0945 25.5074 z M 71.19 27.1767 L 71.301 27.5902 L 71.5481 27.913 L 71.9112 28.1147 L 72.3752 28.1904 L 72.8845 28.0996 L 73.283 27.8525 L 73.5351 27.4591 L 73.6309 26.9548 L 73.5452 26.4857 L 73.3031 26.1176 L 72.9249 25.8806 L 72.4357 25.7948 L 72.0575 25.8553 L 71.7649 26.0218 L 71.9062 25.0787 L 73.4393 25.0787 L 73.4393 24.6651 L 71.5683 24.6651 L 71.2909 26.521 L 71.6943 26.521 L 71.9868 26.284 L 72.36 26.1983 L 72.6828 26.2538 L 72.9299 26.4151 L 73.0863 26.6623 L 73.1417 26.98 L 73.0863 27.2977 L 72.9249 27.5448 L 72.6778 27.7012 L 72.36 27.7566 L 72.0928 27.7213 L 71.886 27.6053 L 71.7347 27.4238 L 71.659 27.1767 L 71.19 27.1767 L 71.19 27.1767 z" stroke="none" fill-rule="evenodd" fill="rgb(0, 0, 0)"/><path d="M 111.141 30.6071 L 113.073 30.0895 L 111.141 29.5719"/><path d="M 30.0046 29.5719 L 28.0727 30.0895 L 30.0046 30.6071"/><path d="M 28.0727 30.0895 L 113.073 30.0895"/></g><g stroke="rgb(0, 0, 0)" stroke-width="0.13" stroke-linecap="butt" stroke-linejoin="miter" fill="none"><path d="M 81.2939 147.248 L 80.835 147.248 L 80.9358 147.783 L 81.188 148.176 L 81.5763 148.413 L 82.1008 148.499 L 82.6203 148.418 L 83.0086 148.196 L 83.2557 147.848 L 83.3465 147.389 L 83.2709 146.976 L 83.059 146.708 L 82.7161 146.532 L 82.2572 146.401 L 81.8638 146.305 L 81.6066 146.194 L 81.4603 146.033 L 81.4149 145.78 L 81.4603 145.553 L 81.5915 145.382 L 81.7932 145.266 L 82.0706 145.226 L 82.353 145.276 L 82.5749 145.412 L 82.7211 145.639 L 82.7917 145.947 L 83.2507 145.947 L 83.2507 145.937 L 83.17 145.463 L 82.933 145.11 L 82.5598 144.888 L 82.0554 144.812 L 81.6015 144.888 L 81.2485 145.1 L 81.0216 145.427 L 80.9409 145.851 L 81.0064 146.229 L 81.1981 146.486 L 81.5007 146.658 L 81.9142 146.789 L 82.3227 146.905 L 82.6304 147.016 L 82.817 147.177 L 82.8825 147.44 L 82.822 147.707 L 82.6657 147.909 L 82.4286 148.035 L 82.121 148.075 L 81.7781 148.02 L 81.5158 147.858 L 81.3494 147.596 L 81.2939 147.248 L 81.2939 147.248 z M 83.9517 147.051 L 84.0324 147.667 L 84.2644 148.12 L 84.6325 148.403 L 85.1268 148.499 L 85.616 148.403 L 85.9841 148.126 L 86.2161 147.672 L 86.3018 147.051 L 86.2161 146.436 L 85.9841 145.977 L 85.616 145.7 L 85.1268 145.599 L 84.6325 145.7 L 84.2644 145.982 L 84.0324 146.436 L 83.9517 147.051 L 83.9517 147.051 z M 84.4056 147.046 L 84.451 146.592 L 84.5922 146.265 L 84.8191 146.063 L 85.1268 145.992 L 85.4294 146.063 L 85.6563 146.26 L 85.7975 146.592 L 85.8479 147.046 L 85.7975 147.505 L 85.6563 147.838 L 85.4294 148.04 L 85.1268 148.105 L 84.8191 148.04 L 84.5922 147.838 L 84.451 147.505 L 84.4056 147.046 L 84.4056 147.046 z M 88.8436 146.592 L 89.2824 146.592 L 89.1916 146.189 L 88.9748 145.871 L 88.6369 145.674 L 88.1981 145.599 L 87.7139 145.7 L 87.3458 145.982 L 87.1138 146.441 L 87.0331 147.056 L 87.1088 147.667 L 87.3357 148.12 L 87.6938 148.403 L 88.183 148.499 L 88.6167 148.423 L 88.9546 148.211 L 89.1866 147.878 L 89.2874 147.435 L 88.8638 147.435 L 88.7882 147.717 L 88.6469 147.929 L 88.4452 148.06 L 88.1981 148.1 L 87.8905 148.035 L 87.6686 147.833 L 87.5324 147.505 L 87.487 147.041 L 87.5324 146.587 L 87.6736 146.26 L 87.9005 146.058 L 88.1981 145.987 L 88.4603 146.033 L 88.657 146.149 L 88.7882 146.34 L 88.8436 146.592 L 88.8436 146.592 z M 91.0374 145.155 L 91.0374 148.03 L 90.1246 148.03 L 90.1246 148.403 L 92.389 148.403 L 92.389 148.03 L 91.4812 148.03 L 91.4812 144.782 L 90.3415 144.782 L 90.3415 145.155 L 91.0374 145.155 L 91.0374 145.155 z M 93.5792 147.177 L 95.3544 147.177 L 95.3595 146.971 L 95.2788 146.391 L 95.0569 145.957 L 94.7039 145.695 L 94.2348 145.599 L 93.7759 145.7 L 93.4229 145.982 L 93.1959 146.441 L 93.1152 147.046 L 93.1909 147.667 L 93.4178 148.12 L 93.7658 148.403 L 94.2197 148.499 L 94.6131 148.433 L 94.9359 148.262 L 95.1729 147.989 L 95.3091 147.626 L 94.8703 147.626 L 94.7795 147.828 L 94.6484 147.979 L 94.2752 148.1 L 93.9877 148.045 L 93.7709 147.868 L 93.6297 147.581 L 93.5792 147.193 L 93.5792 147.177 L 93.5792 147.177 z M 93.5792 146.804 L 93.6347 146.456 L 93.7709 146.199 L 93.9776 146.043 L 94.25 145.987 L 94.5173 146.043 L 94.724 146.199 L 94.8501 146.456 L 94.8955 146.804 L 93.5792 146.804 L 93.5792 146.804 z" stroke="none" fill-rule="evenodd" fill="rgb(0, 0, 0)"/></g><g stroke="rgb(0, 0, 0)" stroke-width="0.13" stroke-linecap="butt" stroke-linejoin="miter" fill="none"><path d="M 82.9683 150.945 L 82.0907 153.925 L 81.188 150.945 L 80.7089 150.945 L 81.8386 154.45 L 82.3429 154.45 L 83.4474 150.945 L 82.9683 150.945 L 82.9683 150.945 z M 86.1707 151.741 L 85.7269 151.741 L 85.7269 153.305 L 85.6765 153.668 L 85.5302 153.93 L 85.3033 154.092 L 85.0057 154.142 L 84.7687 154.102 L 84.6174 153.981 L 84.5317 153.774 L 84.5115 153.481 L 84.5115 151.741 L 84.0677 151.741 L 84.0677 153.522 L 84.0828 153.88 L 84.1786 154.177 L 84.4711 154.45 L 84.9402 154.546 L 85.1923 154.51 L 85.4092 154.419 L 85.5958 154.263 L 85.7471 154.036 L 85.7471 154.45 L 86.1707 154.45 L 86.1707 151.741 L 86.1707 151.741 z M 87.5072 153.224 L 89.2824 153.224 L 89.2874 153.017 L 89.2067 152.437 L 88.9848 152.004 L 88.6318 151.741 L 88.1628 151.646 L 87.7039 151.747 L 87.3508 152.029 L 87.1239 152.488 L 87.0432 153.093 L 87.1188 153.713 L 87.3458 154.167 L 87.6938 154.45 L 88.1477 154.546 L 88.541 154.48 L 88.8638 154.309 L 89.1008 154.036 L 89.237 153.673 L 88.7982 153.673 L 88.7075 153.875 L 88.5763 154.026 L 88.2031 154.147 L 87.9157 154.092 L 87.6988 153.915 L 87.5576 153.628 L 87.5072 153.239 L 87.5072 153.224 L 87.5072 153.224 z M 87.5072 152.851 L 87.5627 152.503 L 87.6988 152.246 L 87.9056 152.089 L 88.1779 152.034 L 88.4452 152.089 L 88.652 152.246 L 88.7781 152.503 L 88.8235 152.851 L 87.5072 152.851 L 87.5072 152.851 z M 94.8552 154.031 L 94.8552 154.45 L 95.299 154.45 L 95.299 150.829 L 94.8602 150.829 L 94.8602 152.155 L 94.5223 151.772 L 94.3155 151.681 L 94.0785 151.646 L 93.6498 151.747 L 93.317 152.029 L 93.1001 152.483 L 93.0245 153.093 L 93.1001 153.703 L 93.317 154.162 L 93.6498 154.45 L 94.0785 154.546 L 94.3155 154.51 L 94.5274 154.419 L 94.8552 154.031 L 94.8552 154.031 z M 94.1542 152.044 L 94.4467 152.115 L 94.6686 152.311 L 94.7997 152.639 L 94.8501 153.093 L 94.7997 153.552 L 94.6686 153.88 L 94.4467 154.082 L 94.1542 154.147 L 93.8768 154.082 L 93.665 153.88 L 93.5238 153.547 L 93.4784 153.093 L 93.5238 152.644 L 93.665 152.316 L 93.8768 152.115 L 94.1542 152.044 L 94.1542 152.044 z M 96.6152 153.224 L 98.3905 153.224 L 98.3955 153.017 L 98.3148 152.437 L 98.0929 152.004 L 97.7399 151.741 L 97.2709 151.646 L 96.8119 151.747 L 96.4589 152.029 L 96.232 152.488 L 96.1513 153.093 L 96.2269 153.713 L 96.4539 154.167 L 96.8018 154.45 L 97.2557 154.546 L 97.6491 154.48 L 97.9719 154.309 L 98.2089 154.036 L 98.3451 153.673 L 97.9063 153.673 L 97.8155 153.875 L 97.6844 154.026 L 97.3112 154.147 L 97.0238 154.092 L 96.8069 153.915 L 96.6657 153.628 L 96.6152 153.239 L 96.6152 153.224 L 96.6152 153.224 z M 96.6152 152.851 L 96.6707 152.503 L 96.8069 152.246 L 97.0137 152.089 L 97.286 152.034 L 97.5533 152.089 L 97.7601 152.246 L 97.8861 152.503 L 97.9315 152.851 L 96.6152 152.851 L 96.6152 152.851 z M 102.914 152.211 L 102.914 154.45 L 103.358 154.45 L 103.358 152.211 L 104.367 152.211 L 104.367 151.832 L 103.358 151.832 L 103.358 151.666 L 103.393 151.464 L 103.509 151.328 L 103.706 151.247 L 103.988 151.217 L 104.367 151.237 L 104.367 150.854 L 103.888 150.829 L 103.454 150.874 L 103.151 151.01 L 102.97 151.247 L 102.914 151.585 L 102.914 151.832 L 102.102 151.832 L 102.102 152.211 L 102.914 152.211 L 102.914 152.211 z M 106.944 154.097 L 106.944 154.112 L 106.969 154.283 L 107.045 154.404 L 107.362 154.5 L 107.609 154.46 L 107.609 154.117 L 107.504 154.132 L 107.362 154.066 L 107.337 153.865 L 107.337 152.463 L 107.277 152.105 L 107.1 151.852 L 106.792 151.701 L 106.359 151.646 L 105.935 151.706 L 105.622 151.878 L 105.426 152.145 L 105.36 152.498 L 105.36 152.528 L 105.759 152.528 L 105.794 152.316 L 105.905 152.165 L 106.086 152.074 L 106.344 152.039 L 106.591 152.064 L 106.767 152.14 L 106.873 152.271 L 106.908 152.453 L 106.888 152.664 L 106.808 152.77 L 106.606 152.821 L 106.228 152.861 L 105.794 152.952 L 105.486 153.113 L 105.305 153.365 L 105.249 153.739 L 105.3 154.071 L 105.456 154.319 L 105.708 154.475 L 106.056 154.53 L 106.525 154.424 L 106.944 154.097 L 106.944 154.097 z M 106.893 153.502 L 106.833 153.764 L 106.671 153.966 L 106.429 154.097 L 106.132 154.142 L 105.94 154.117 L 105.804 154.036 L 105.718 153.895 L 105.693 153.698 L 105.713 153.522 L 105.794 153.396 L 106.117 153.254 L 106.525 153.194 L 106.893 153.073 L 106.893 153.502 L 106.893 153.502 z M 110.096 152.639 L 110.535 152.639 L 110.444 152.236 L 110.227 151.918 L 109.889 151.721 L 109.45 151.646 L 108.966 151.747 L 108.598 152.029 L 108.366 152.488 L 108.285 153.103 L 108.361 153.713 L 108.588 154.167 L 108.946 154.45 L 109.435 154.546 L 109.869 154.47 L 110.207 154.258 L 110.439 153.925 L 110.54 153.481 L 110.116 153.481 L 110.04 153.764 L 109.899 153.976 L 109.697 154.107 L 109.45 154.147 L 109.143 154.082 L 108.921 153.88 L 108.785 153.552 L 108.739 153.088 L 108.785 152.634 L 108.926 152.306 L 109.153 152.105 L 109.45 152.034 L 109.713 152.079 L 109.909 152.195 L 110.04 152.387 L 110.096 152.639 L 110.096 152.639 z M 111.795 153.224 L 113.571 153.224 L 113.576 153.017 L 113.495 152.437 L 113.273 152.004 L 112.92 151.741 L 112.451 151.646 L 111.992 151.747 L 111.639 152.029 L 111.412 152.488 L 111.331 153.093 L 111.407 153.713 L 111.634 154.167 L 111.982 154.45 L 112.436 154.546 L 112.829 154.48 L 113.152 154.309 L 113.389 154.036 L 113.525 153.673 L 113.086 153.673 L 112.996 153.875 L 112.865 154.026 L 112.491 154.147 L 112.204 154.092 L 111.987 153.915 L 111.846 153.628 L 111.795 153.239 L 111.795 153.224 L 111.795 153.224 z M 111.795 152.851 L 111.851 152.503 L 111.987 152.246 L 112.194 152.089 L 112.466 152.034 L 112.733 152.089 L 112.94 152.246 L 113.066 152.503 L 113.112 152.851 L 111.795 152.851 L 111.795 152.851 z" stroke="none" fill-rule="evenodd" fill="rgb(0, 0, 0)"/></g><g stroke="rgb(0, 0, 0)" stroke-width="0.13" stroke-linecap="butt" stroke-linejoin="miter" fill="none"><path d="M 81.0317 160.497 L 83.2507 160.497 L 83.2507 160.073 L 81.4956 160.073 L 81.4956 158.888 L 83.059 158.888 L 83.059 158.469 L 81.4956 158.469 L 81.4956 157.42 L 83.2103 157.42 L 83.2103 156.997 L 81.0317 156.997 L 81.0317 160.497 L 81.0317 160.497 z M 85.8076 158.686 L 86.2464 158.686 L 86.1556 158.283 L 85.9387 157.965 L 85.6008 157.768 L 85.1621 157.693 L 84.6779 157.793 L 84.3098 158.076 L 84.0778 158.535 L 83.9971 159.15 L 84.0727 159.76 L 84.2997 160.214 L 84.6577 160.497 L 85.1469 160.592 L 85.5807 160.517 L 85.9186 160.305 L 86.1505 159.972 L 86.2514 159.528 L 85.8278 159.528 L 85.7521 159.811 L 85.6109 160.022 L 85.4092 160.154 L 85.1621 160.194 L 84.8544 160.128 L 84.6325 159.927 L 84.4964 159.599 L 84.451 159.135 L 84.4964 158.681 L 84.6376 158.353 L 84.8645 158.151 L 85.1621 158.081 L 85.4243 158.126 L 85.621 158.242 L 85.7521 158.434 L 85.8076 158.686 L 85.8076 158.686 z M 87.1188 160.497 L 87.5627 160.497 L 87.5627 158.933 L 87.608 158.575 L 87.7543 158.313 L 87.9812 158.151 L 88.2838 158.091 L 88.5259 158.141 L 88.6772 158.278 L 88.7529 158.504 L 88.7781 158.807 L 88.7781 160.497 L 89.2219 160.497 L 89.2219 158.716 L 89.2017 158.358 L 89.1109 158.061 L 88.8134 157.788 L 88.3494 157.693 L 88.0972 157.728 L 87.8804 157.824 L 87.6988 157.975 L 87.5627 158.182 L 87.5627 156.875 L 87.1188 156.875 L 87.1188 160.497 L 87.1188 160.497 z M 90.5432 159.271 L 92.3184 159.271 L 92.3235 159.064 L 92.2428 158.484 L 92.0209 158.051 L 91.6678 157.788 L 91.1988 157.693 L 90.7399 157.793 L 90.3869 158.076 L 90.1599 158.535 L 90.0792 159.14 L 90.1549 159.76 L 90.3818 160.214 L 90.7298 160.497 L 91.1837 160.592 L 91.5771 160.527 L 91.8998 160.355 L 92.1369 160.083 L 92.273 159.72 L 91.8343 159.72 L 91.7435 159.922 L 91.6124 160.073 L 91.2392 160.194 L 90.9517 160.138 L 90.7348 159.962 L 90.5936 159.674 L 90.5432 159.286 L 90.5432 159.271 L 90.5432 159.271 z M 90.5432 158.898 L 90.5987 158.55 L 90.7348 158.293 L 90.9416 158.136 L 91.214 158.081 L 91.4812 158.136 L 91.688 158.293 L 91.8141 158.55 L 91.8595 158.898 L 90.5432 158.898 L 90.5432 158.898 z M 94.0735 157.249 L 94.0735 160.123 L 93.1606 160.123 L 93.1606 160.497 L 95.425 160.497 L 95.425 160.123 L 94.5173 160.123 L 94.5173 156.875 L 93.3775 156.875 L 93.3775 157.249 L 94.0735 157.249 L 94.0735 157.249 z M 97.1095 157.249 L 97.1095 160.123 L 96.1967 160.123 L 96.1967 160.497 L 98.4611 160.497 L 98.4611 160.123 L 97.5533 160.123 L 97.5533 156.875 L 96.4135 156.875 L 96.4135 157.249 L 97.1095 157.249 L 97.1095 157.249 z M 99.6513 159.271 L 101.426 159.271 L 101.432 159.064 L 101.351 158.484 L 101.129 158.051 L 100.776 157.788 L 100.307 157.693 L 99.848 157.793 L 99.4949 158.076 L 99.268 158.535 L 99.1873 159.14 L 99.2629 159.76 L 99.4899 160.214 L 99.8379 160.497 L 100.292 160.592 L 100.685 160.527 L 101.008 160.355 L 101.245 160.083 L 101.381 159.72 L 100.942 159.72 L 100.852 159.922 L 100.72 160.073 L 100.347 160.194 L 100.06 160.138 L 99.8429 159.962 L 99.7017 159.674 L 99.6513 159.286 L 99.6513 159.271 L 99.6513 159.271 z M 99.6513 158.898 L 99.7068 158.55 L 99.8429 158.293 L 100.05 158.136 L 100.322 158.081 L 100.589 158.136 L 100.796 158.293 L 100.922 158.55 L 100.968 158.898 L 99.6513 158.898 L 99.6513 158.898 z M 106.031 160.497 L 106.727 160.497 L 106.727 159.745 L 106.031 159.745 L 106.031 160.497 L 106.031 160.497 z M 106.031 158.54 L 106.727 158.54 L 106.727 157.788 L 106.031 157.788 L 106.031 158.54 L 106.031 158.54 z" stroke="none" fill-rule="evenodd" fill="rgb(0, 0, 0)"/></g><g stroke="rgb(0, 0, 0)" stroke-width="0.13" stroke-linecap="butt" stroke-linejoin="miter" fill="none"><path d="M 115.396 160.497 L 115.855 160.497 L 115.855 156.971 L 115.512 156.971 L 115.421 157.279 L 115.24 157.486 L 114.962 157.607 L 114.579 157.647 L 114.579 158.005 L 115.396 158.005 L 115.396 160.497 L 115.396 160.497 z M 118.175 160.497 L 118.871 160.497 L 118.871 159.745 L 118.175 159.745 L 118.175 160.497 L 118.175 160.497 z M 118.175 158.54 L 118.871 158.54 L 118.871 157.788 L 118.175 157.788 L 118.175 158.54 L 118.175 158.54 z M 121.468 160.497 L 121.927 160.497 L 121.927 156.971 L 121.584 156.971 L 121.493 157.279 L 121.312 157.486 L 121.035 157.607 L 120.651 157.647 L 120.651 158.005 L 121.468 158.005 L 121.468 160.497 L 121.468 160.497 z" stroke="none" fill-rule="evenodd" fill="rgb(0, 0, 0)"/></g><g stroke="rgb(0, 0, 0)" stroke-width="0.13" stroke-linecap="butt" stroke-linejoin="miter" fill="none"><path d="M 254.161 85.3854 L 254.161 84.9265 L 250.636 84.9265 L 250.636 85.2694 L 250.944 85.3602 L 251.15 85.5417 L 251.271 85.8191 L 251.312 86.2024 L 251.67 86.2024 L 251.67 85.3854 L 254.161 85.3854 L 254.161 85.3854 z M 252.452 82.774 L 253.243 82.6984 L 253.808 82.4613 L 254.151 82.0831 L 254.262 81.5586 L 254.151 81.0392 L 253.808 80.6609 L 253.243 80.4289 L 252.452 80.3482 L 251.665 80.4289 L 251.352 80.5247 L 251.095 80.6609 L 250.752 81.0392 L 250.636 81.5586 L 250.752 82.0831 L 251.1 82.4613 L 251.665 82.6984 L 252.452 82.774 L 252.452 82.774 z M 252.452 82.2899 L 251.841 82.2495 L 251.403 82.1235 L 251.145 81.8965 L 251.055 81.5586 L 251.145 81.2258 L 251.403 80.9988 L 251.841 80.8727 L 252.452 80.8324 L 253.067 80.8727 L 253.506 80.9988 L 253.763 81.2258 L 253.849 81.5586 L 253.763 81.8965 L 253.506 82.1235 L 253.067 82.2495 L 252.452 82.2899 L 252.452 82.2899 z M 251.604 76.6122 L 251.196 76.708 L 250.893 76.9299 L 250.702 77.2729 L 250.636 77.7167 L 250.671 78.0142 L 250.767 78.2714 L 250.923 78.4984 L 251.145 78.69 L 251.423 78.8413 L 251.761 78.9523 L 252.159 79.0229 L 252.608 79.0431 L 253.324 78.9624 L 253.843 78.7152 L 254.156 78.3168 L 254.262 77.7722 L 254.171 77.283 L 253.934 76.9098 L 253.561 76.6677 L 253.087 76.582 L 252.608 76.6677 L 252.24 76.8997 L 252.008 77.2578 L 251.927 77.7016 L 252.028 78.1807 L 252.315 78.5387 L 251.761 78.4631 L 251.362 78.3017 L 251.125 78.0546 L 251.044 77.7116 L 251.085 77.4595 L 251.191 77.2678 L 251.367 77.1418 L 251.604 77.0762 L 251.604 76.6122 L 251.604 76.6122 z M 253.092 77.0712 L 253.41 77.1266 L 253.652 77.2678 L 253.813 77.4948 L 253.864 77.7772 L 253.813 78.0748 L 253.657 78.3017 L 253.415 78.448 L 253.097 78.4933 L 252.784 78.4429 L 252.547 78.3017 L 252.396 78.0697 L 252.341 77.757 L 252.396 77.4847 L 252.542 77.2678 L 252.779 77.1266 L 253.092 77.0712 L 253.092 77.0712 z" stroke="none" fill-rule="evenodd" fill="rgb(0, 0, 0)"/><path d="M 255.644 132.627 L 256.161 134.559 L 256.679 132.627"/><path d="M 256.679 30.4905 L 256.161 28.5586 L 255.644 30.4905"/><path d="M 256.161 134.559 L 256.161 28.5586"/></g><g stroke="rgb(0, 0, 0)" stroke-width="0.13" stroke-linecap="butt" stroke-linejoin="miter" fill="none"><path d="M 194.826 14.9978 L 194.902 15.3962 L 195.119 15.7039 L 195.461 15.8955 L 195.915 15.9661 L 196.213 15.9308 L 196.48 15.84 L 196.707 15.6837 L 196.899 15.4618 L 197.05 15.1844 L 197.161 14.8415 L 197.227 14.4481 L 197.252 13.9942 L 197.166 13.2831 L 196.919 12.7637 L 196.526 12.451 L 195.986 12.34 L 195.492 12.4308 L 195.119 12.6729 L 194.876 13.0461 L 194.796 13.5151 L 194.876 13.9993 L 195.113 14.3674 L 195.466 14.5994 L 195.915 14.675 L 196.389 14.5792 L 196.747 14.2867 L 196.667 14.8465 L 196.505 15.2449 L 196.258 15.482 L 195.92 15.5576 L 195.658 15.5223 L 195.466 15.4114 L 195.34 15.2348 L 195.29 14.9978 L 194.826 14.9978 L 194.826 14.9978 z M 195.285 13.5101 L 195.335 13.1974 L 195.477 12.9503 L 195.698 12.7939 L 195.986 12.7384 L 196.284 12.7939 L 196.51 12.9503 L 196.652 13.1923 L 196.707 13.505 L 196.652 13.8227 L 196.51 14.0598 L 196.278 14.206 L 195.971 14.2565 L 195.693 14.206 L 195.477 14.0598 L 195.335 13.8278 L 195.285 13.5101 L 195.285 13.5101 z M 199.682 15.8652 L 200.141 15.8652 L 200.141 12.34 L 199.798 12.34 L 199.707 12.6477 L 199.525 12.8544 L 199.248 12.9755 L 198.865 13.0158 L 198.865 13.3739 L 199.682 13.3739 L 199.682 15.8652 L 199.682 15.8652 z" stroke="none" fill-rule="evenodd" fill="rgb(0, 0, 0)"/><path d="M 241.473 18.3829 L 243.404 17.8652 L 241.473 17.3476"/><path d="M 154.336 17.3476 L 152.404 17.8652 L 154.336 18.3829"/><path d="M 152.404 17.8652 L 243.404 17.8652"/></g><g stroke="rgb(0, 0, 0)" stroke-width="0.13" stroke-linecap="butt" stroke-linejoin="miter" fill="none"><path d="M 208.626 145.26 L 208.167 145.26 L 208.268 145.795 L 208.52 146.188 L 208.908 146.425 L 209.432 146.511 L 209.952 146.43 L 210.34 146.208 L 210.587 145.86 L 210.678 145.402 L 210.603 144.988 L 210.391 144.721 L 210.048 144.544 L 209.589 144.413 L 209.195 144.317 L 208.938 144.206 L 208.792 144.045 L 208.747 143.793 L 208.792 143.566 L 208.923 143.394 L 209.125 143.278 L 209.402 143.238 L 209.685 143.288 L 209.907 143.425 L 210.053 143.652 L 210.123 143.959 L 210.582 143.959 L 210.582 143.949 L 210.502 143.475 L 210.265 143.122 L 209.891 142.9 L 209.387 142.824 L 208.933 142.9 L 208.58 143.112 L 208.353 143.44 L 208.273 143.863 L 208.338 144.242 L 208.53 144.499 L 208.832 144.67 L 209.246 144.801 L 209.654 144.917 L 209.962 145.028 L 210.149 145.19 L 210.214 145.452 L 210.154 145.719 L 209.997 145.921 L 209.76 146.047 L 209.453 146.087 L 209.11 146.032 L 208.847 145.871 L 208.681 145.608 L 208.626 145.26 L 208.626 145.26 z M 211.283 145.064 L 211.364 145.679 L 211.596 146.133 L 211.964 146.415 L 212.458 146.511 L 212.948 146.415 L 213.316 146.138 L 213.548 145.684 L 213.633 145.064 L 213.548 144.448 L 213.316 143.989 L 212.948 143.712 L 212.458 143.611 L 211.964 143.712 L 211.596 143.994 L 211.364 144.448 L 211.283 145.064 L 211.283 145.064 z M 211.737 145.059 L 211.783 144.605 L 211.924 144.277 L 212.151 144.075 L 212.458 144.005 L 212.761 144.075 L 212.988 144.272 L 213.129 144.605 L 213.18 145.059 L 213.129 145.518 L 212.988 145.85 L 212.761 146.052 L 212.458 146.118 L 212.151 146.052 L 211.924 145.85 L 211.783 145.518 L 211.737 145.059 L 211.737 145.059 z M 216.538 143.707 L 216.095 143.707 L 216.095 145.27 L 216.044 145.634 L 215.898 145.896 L 215.671 146.057 L 215.373 146.108 L 215.136 146.067 L 214.985 145.946 L 214.899 145.739 L 214.879 145.447 L 214.879 143.707 L 214.435 143.707 L 214.435 145.487 L 214.451 145.845 L 214.546 146.143 L 214.839 146.415 L 215.308 146.511 L 215.56 146.476 L 215.777 146.385 L 215.963 146.229 L 216.115 146.002 L 216.115 146.415 L 216.538 146.415 L 216.538 143.707 L 216.538 143.707 z M 218.813 144.837 L 218.384 144.736 L 218.066 144.62 L 217.961 144.383 L 217.991 144.216 L 218.097 144.095 L 218.268 144.02 L 218.515 143.989 L 218.752 144.02 L 218.939 144.11 L 219.06 144.247 L 219.11 144.428 L 219.544 144.428 L 219.544 144.418 L 219.469 144.09 L 219.262 143.833 L 218.939 143.672 L 218.515 143.611 L 218.087 143.672 L 217.774 143.838 L 217.577 144.085 L 217.517 144.398 L 217.562 144.701 L 217.703 144.912 L 217.935 145.064 L 218.273 145.17 L 218.768 145.291 L 219.07 145.417 L 219.151 145.518 L 219.181 145.669 L 219.136 145.855 L 219.015 145.997 L 218.818 146.087 L 218.556 146.118 L 218.278 146.087 L 218.077 145.982 L 217.94 145.81 L 217.885 145.573 L 217.456 145.573 L 217.527 145.976 L 217.734 146.269 L 218.061 146.445 L 218.515 146.511 L 218.989 146.445 L 219.337 146.269 L 219.549 145.987 L 219.625 145.618 L 219.569 145.301 L 219.413 145.084 L 219.156 144.943 L 218.813 144.837 L 218.813 144.837 z M 220.956 145.26 L 222.177 145.26 L 222.177 144.862 L 220.956 144.862 L 220.956 145.26 L 220.956 145.26 z M 224.885 144.837 L 224.456 144.736 L 224.139 144.62 L 224.033 144.383 L 224.063 144.216 L 224.169 144.095 L 224.34 144.02 L 224.587 143.989 L 224.824 144.02 L 225.011 144.11 L 225.132 144.247 L 225.182 144.428 L 225.616 144.428 L 225.616 144.418 L 225.541 144.09 L 225.334 143.833 L 225.011 143.672 L 224.587 143.611 L 224.159 143.672 L 223.846 143.838 L 223.649 144.085 L 223.589 144.398 L 223.634 144.701 L 223.775 144.912 L 224.007 145.064 L 224.345 145.17 L 224.84 145.291 L 225.142 145.417 L 225.223 145.518 L 225.253 145.669 L 225.208 145.855 L 225.087 145.997 L 224.89 146.087 L 224.628 146.118 L 224.35 146.087 L 224.149 145.982 L 224.012 145.81 L 223.957 145.573 L 223.528 145.573 L 223.599 145.976 L 223.806 146.269 L 224.134 146.445 L 224.587 146.511 L 225.061 146.445 L 225.409 146.269 L 225.621 145.987 L 225.697 145.618 L 225.641 145.301 L 225.485 145.084 L 225.228 144.943 L 224.885 144.837 L 224.885 144.837 z M 226.463 145.064 L 226.544 145.679 L 226.776 146.133 L 227.144 146.415 L 227.639 146.511 L 228.128 146.415 L 228.496 146.138 L 228.728 145.684 L 228.814 145.064 L 228.728 144.448 L 228.496 143.989 L 228.128 143.712 L 227.639 143.611 L 227.144 143.712 L 226.776 143.994 L 226.544 144.448 L 226.463 145.064 L 226.463 145.064 z M 226.917 145.059 L 226.963 144.605 L 227.104 144.277 L 227.331 144.075 L 227.639 144.005 L 227.941 144.075 L 228.168 144.272 L 228.309 144.605 L 228.36 145.059 L 228.309 145.518 L 228.168 145.85 L 227.941 146.052 L 227.639 146.118 L 227.331 146.052 L 227.104 145.85 L 226.963 145.518 L 226.917 145.059 L 226.917 145.059 z M 231.355 144.605 L 231.794 144.605 L 231.703 144.201 L 231.487 143.884 L 231.149 143.687 L 230.71 143.611 L 230.226 143.712 L 229.858 143.994 L 229.626 144.453 L 229.545 145.069 L 229.621 145.679 L 229.847 146.133 L 230.206 146.415 L 230.695 146.511 L 231.128 146.435 L 231.466 146.224 L 231.698 145.891 L 231.799 145.447 L 231.376 145.447 L 231.3 145.729 L 231.159 145.941 L 230.957 146.072 L 230.71 146.113 L 230.402 146.047 L 230.18 145.845 L 230.044 145.518 L 229.999 145.054 L 230.044 144.6 L 230.185 144.272 L 230.412 144.07 L 230.71 144 L 230.972 144.045 L 231.169 144.161 L 231.3 144.353 L 231.355 144.605 L 231.355 144.605 z M 233.549 143.167 L 233.549 146.042 L 232.636 146.042 L 232.636 146.415 L 234.901 146.415 L 234.901 146.042 L 233.993 146.042 L 233.993 142.794 L 232.853 142.794 L 232.853 143.167 L 233.549 143.167 L 233.549 143.167 z M 236.091 145.19 L 237.866 145.19 L 237.871 144.983 L 237.791 144.403 L 237.569 143.969 L 237.216 143.707 L 236.747 143.611 L 236.288 143.712 L 235.935 143.994 L 235.708 144.453 L 235.627 145.059 L 235.703 145.679 L 235.93 146.133 L 236.278 146.415 L 236.732 146.511 L 237.125 146.445 L 237.448 146.274 L 237.685 146.002 L 237.821 145.639 L 237.382 145.639 L 237.291 145.84 L 237.16 145.992 L 236.787 146.113 L 236.5 146.057 L 236.283 145.881 L 236.141 145.593 L 236.091 145.205 L 236.091 145.19 L 236.091 145.19 z M 236.091 144.817 L 236.146 144.469 L 236.283 144.211 L 236.489 144.055 L 236.762 144 L 237.029 144.055 L 237.236 144.211 L 237.362 144.469 L 237.407 144.817 L 236.091 144.817 L 236.091 144.817 z" stroke="none" fill-rule="evenodd" fill="rgb(0, 0, 0)"/></g><g stroke="rgb(0, 0, 0)" stroke-width="0.13" stroke-linecap="butt" stroke-linejoin="miter" fill="none"><path d="M 210.3 148.957 L 209.422 151.938 L 208.52 148.957 L 208.041 148.957 L 209.17 152.462 L 209.675 152.462 L 210.779 148.957 L 210.3 148.957 L 210.3 148.957 z M 213.502 149.754 L 213.059 149.754 L 213.059 151.317 L 213.008 151.68 L 212.862 151.943 L 212.635 152.104 L 212.337 152.154 L 212.1 152.114 L 211.949 151.993 L 211.863 151.786 L 211.843 151.494 L 211.843 149.754 L 211.399 149.754 L 211.399 151.534 L 211.414 151.892 L 211.51 152.19 L 211.803 152.462 L 212.272 152.558 L 212.524 152.523 L 212.741 152.432 L 212.927 152.275 L 213.079 152.049 L 213.079 152.462 L 213.502 152.462 L 213.502 149.754 L 213.502 149.754 z M 214.839 151.237 L 216.614 151.237 L 216.619 151.03 L 216.538 150.45 L 216.316 150.016 L 215.963 149.754 L 215.494 149.658 L 215.036 149.759 L 214.682 150.041 L 214.456 150.5 L 214.375 151.105 L 214.451 151.726 L 214.677 152.18 L 215.025 152.462 L 215.479 152.558 L 215.873 152.492 L 216.195 152.321 L 216.432 152.049 L 216.569 151.685 L 216.13 151.685 L 216.039 151.887 L 215.908 152.038 L 215.535 152.159 L 215.247 152.104 L 215.03 151.927 L 214.889 151.64 L 214.839 151.252 L 214.839 151.237 L 214.839 151.237 z M 214.839 150.863 L 214.894 150.515 L 215.03 150.258 L 215.237 150.102 L 215.51 150.046 L 215.777 150.102 L 215.984 150.258 L 216.11 150.515 L 216.155 150.863 L 214.839 150.863 L 214.839 150.863 z M 222.187 152.043 L 222.187 152.462 L 222.631 152.462 L 222.631 148.841 L 222.192 148.841 L 222.192 150.167 L 221.854 149.784 L 221.647 149.693 L 221.41 149.658 L 220.981 149.759 L 220.649 150.041 L 220.432 150.495 L 220.356 151.105 L 220.432 151.716 L 220.649 152.175 L 220.981 152.462 L 221.41 152.558 L 221.647 152.523 L 221.859 152.432 L 222.187 152.043 L 222.187 152.043 z M 221.486 150.056 L 221.778 150.127 L 222 150.324 L 222.131 150.652 L 222.182 151.105 L 222.131 151.564 L 222 151.892 L 221.778 152.094 L 221.486 152.159 L 221.208 152.094 L 220.997 151.892 L 220.855 151.559 L 220.81 151.105 L 220.855 150.657 L 220.997 150.329 L 221.208 150.127 L 221.486 150.056 L 221.486 150.056 z M 223.947 151.237 L 225.722 151.237 L 225.727 151.03 L 225.646 150.45 L 225.425 150.016 L 225.072 149.754 L 224.603 149.658 L 224.144 149.759 L 223.791 150.041 L 223.564 150.5 L 223.483 151.105 L 223.559 151.726 L 223.786 152.18 L 224.134 152.462 L 224.587 152.558 L 224.981 152.492 L 225.304 152.321 L 225.541 152.049 L 225.677 151.685 L 225.238 151.685 L 225.147 151.887 L 225.016 152.038 L 224.643 152.159 L 224.355 152.104 L 224.139 151.927 L 223.997 151.64 L 223.947 151.252 L 223.947 151.237 L 223.947 151.237 z M 223.947 150.863 L 224.002 150.515 L 224.139 150.258 L 224.345 150.102 L 224.618 150.046 L 224.885 150.102 L 225.092 150.258 L 225.218 150.515 L 225.263 150.863 L 223.947 150.863 L 223.947 150.863 z M 230.246 150.223 L 230.246 152.462 L 230.69 152.462 L 230.69 150.223 L 231.698 150.223 L 231.698 149.845 L 230.69 149.845 L 230.69 149.678 L 230.725 149.476 L 230.841 149.34 L 231.038 149.26 L 231.32 149.229 L 231.698 149.25 L 231.698 148.866 L 231.219 148.841 L 230.786 148.886 L 230.483 149.023 L 230.301 149.26 L 230.246 149.598 L 230.246 149.845 L 229.434 149.845 L 229.434 150.223 L 230.246 150.223 L 230.246 150.223 z M 234.275 152.109 L 234.275 152.124 L 234.301 152.296 L 234.376 152.417 L 234.694 152.513 L 234.941 152.472 L 234.941 152.129 L 234.835 152.144 L 234.694 152.079 L 234.669 151.877 L 234.669 150.475 L 234.608 150.117 L 234.432 149.865 L 234.124 149.714 L 233.69 149.658 L 233.267 149.719 L 232.954 149.89 L 232.757 150.157 L 232.692 150.51 L 232.692 150.541 L 233.09 150.541 L 233.126 150.329 L 233.237 150.177 L 233.418 150.087 L 233.675 150.051 L 233.922 150.077 L 234.099 150.152 L 234.205 150.283 L 234.24 150.465 L 234.22 150.677 L 234.139 150.783 L 233.938 150.833 L 233.559 150.873 L 233.126 150.964 L 232.818 151.126 L 232.636 151.378 L 232.581 151.751 L 232.631 152.084 L 232.788 152.331 L 233.04 152.487 L 233.388 152.543 L 233.857 152.437 L 234.275 152.109 L 234.275 152.109 z M 234.225 151.514 L 234.165 151.776 L 234.003 151.978 L 233.761 152.109 L 233.463 152.154 L 233.272 152.129 L 233.136 152.049 L 233.05 151.907 L 233.025 151.711 L 233.045 151.534 L 233.126 151.408 L 233.448 151.267 L 233.857 151.206 L 234.225 151.085 L 234.225 151.514 L 234.225 151.514 z M 237.427 150.652 L 237.866 150.652 L 237.775 150.248 L 237.559 149.93 L 237.221 149.734 L 236.782 149.658 L 236.298 149.759 L 235.93 150.041 L 235.698 150.5 L 235.617 151.116 L 235.693 151.726 L 235.92 152.18 L 236.278 152.462 L 236.767 152.558 L 237.201 152.482 L 237.538 152.27 L 237.77 151.938 L 237.871 151.494 L 237.448 151.494 L 237.372 151.776 L 237.231 151.988 L 237.029 152.119 L 236.782 152.159 L 236.474 152.094 L 236.252 151.892 L 236.116 151.564 L 236.071 151.1 L 236.116 150.647 L 236.257 150.319 L 236.484 150.117 L 236.782 150.046 L 237.044 150.092 L 237.241 150.208 L 237.372 150.399 L 237.427 150.652 L 237.427 150.652 z M 239.127 151.237 L 240.902 151.237 L 240.907 151.03 L 240.827 150.45 L 240.605 150.016 L 240.252 149.754 L 239.783 149.658 L 239.324 149.759 L 238.971 150.041 L 238.744 150.5 L 238.663 151.105 L 238.739 151.726 L 238.966 152.18 L 239.314 152.462 L 239.768 152.558 L 240.161 152.492 L 240.484 152.321 L 240.721 152.049 L 240.857 151.685 L 240.418 151.685 L 240.327 151.887 L 240.196 152.038 L 239.823 152.159 L 239.536 152.104 L 239.319 151.927 L 239.177 151.64 L 239.127 151.252 L 239.127 151.237 L 239.127 151.237 z M 239.127 150.863 L 239.183 150.515 L 239.319 150.258 L 239.525 150.102 L 239.798 150.046 L 240.065 150.102 L 240.272 150.258 L 240.398 150.515 L 240.443 150.863 L 239.127 150.863 L 239.127 150.863 z" stroke="none" fill-rule="evenodd" fill="rgb(0, 0, 0)"/></g><g stroke="rgb(0, 0, 0)" stroke-width="0.13" stroke-linecap="butt" stroke-linejoin="miter" fill="none"><path d="M 208.363 158.509 L 210.582 158.509 L 210.582 158.085 L 208.827 158.085 L 208.827 156.9 L 210.391 156.9 L 210.391 156.482 L 208.827 156.482 L 208.827 155.433 L 210.542 155.433 L 210.542 155.009 L 208.363 155.009 L 208.363 158.509 L 208.363 158.509 z M 213.139 156.698 L 213.578 156.698 L 213.487 156.295 L 213.27 155.977 L 212.932 155.781 L 212.494 155.705 L 212.01 155.806 L 211.641 156.088 L 211.409 156.547 L 211.329 157.162 L 211.404 157.773 L 211.631 158.226 L 211.989 158.509 L 212.479 158.605 L 212.912 158.529 L 213.25 158.317 L 213.482 157.984 L 213.583 157.541 L 213.159 157.541 L 213.084 157.823 L 212.943 158.035 L 212.741 158.166 L 212.494 158.206 L 212.186 158.141 L 211.964 157.939 L 211.828 157.611 L 211.783 157.147 L 211.828 156.693 L 211.969 156.366 L 212.196 156.164 L 212.494 156.093 L 212.756 156.139 L 212.953 156.255 L 213.084 156.446 L 213.139 156.698 L 213.139 156.698 z M 214.451 158.509 L 214.894 158.509 L 214.894 156.945 L 214.94 156.587 L 215.086 156.325 L 215.313 156.164 L 215.615 156.103 L 215.858 156.154 L 216.009 156.29 L 216.085 156.517 L 216.11 156.819 L 216.11 158.509 L 216.554 158.509 L 216.554 156.729 L 216.533 156.371 L 216.443 156.073 L 216.145 155.801 L 215.681 155.705 L 215.429 155.74 L 215.212 155.836 L 215.03 155.987 L 214.894 156.194 L 214.894 154.888 L 214.451 154.888 L 214.451 158.509 L 214.451 158.509 z M 217.875 157.283 L 219.65 157.283 L 219.655 157.077 L 219.574 156.497 L 219.353 156.063 L 218.999 155.801 L 218.53 155.705 L 218.072 155.806 L 217.719 156.088 L 217.492 156.547 L 217.411 157.152 L 217.487 157.773 L 217.713 158.226 L 218.061 158.509 L 218.515 158.605 L 218.909 158.539 L 219.231 158.368 L 219.469 158.095 L 219.605 157.732 L 219.166 157.732 L 219.075 157.934 L 218.944 158.085 L 218.571 158.206 L 218.283 158.151 L 218.066 157.974 L 217.925 157.687 L 217.875 157.299 L 217.875 157.283 L 217.875 157.283 z M 217.875 156.91 L 217.93 156.562 L 218.066 156.305 L 218.273 156.149 L 218.546 156.093 L 218.813 156.149 L 219.02 156.305 L 219.146 156.562 L 219.191 156.91 L 217.875 156.91 L 217.875 156.91 z M 221.405 155.261 L 221.405 158.136 L 220.492 158.136 L 220.492 158.509 L 222.757 158.509 L 222.757 158.136 L 221.849 158.136 L 221.849 154.888 L 220.709 154.888 L 220.709 155.261 L 221.405 155.261 L 221.405 155.261 z M 224.441 155.261 L 224.441 158.136 L 223.528 158.136 L 223.528 158.509 L 225.793 158.509 L 225.793 158.136 L 224.885 158.136 L 224.885 154.888 L 223.745 154.888 L 223.745 155.261 L 224.441 155.261 L 224.441 155.261 z M 226.983 157.283 L 228.758 157.283 L 228.763 157.077 L 228.683 156.497 L 228.461 156.063 L 228.108 155.801 L 227.639 155.705 L 227.18 155.806 L 226.827 156.088 L 226.6 156.547 L 226.519 157.152 L 226.595 157.773 L 226.822 158.226 L 227.17 158.509 L 227.623 158.605 L 228.017 158.539 L 228.34 158.368 L 228.577 158.095 L 228.713 157.732 L 228.274 157.732 L 228.183 157.934 L 228.052 158.085 L 227.679 158.206 L 227.391 158.151 L 227.175 157.974 L 227.033 157.687 L 226.983 157.299 L 226.983 157.283 L 226.983 157.283 z M 226.983 156.91 L 227.038 156.562 L 227.175 156.305 L 227.381 156.149 L 227.654 156.093 L 227.921 156.149 L 228.128 156.305 L 228.254 156.562 L 228.299 156.91 L 226.983 156.91 L 226.983 156.91 z M 233.363 158.509 L 234.059 158.509 L 234.059 157.757 L 233.363 157.757 L 233.363 158.509 L 233.363 158.509 z M 233.363 156.552 L 234.059 156.552 L 234.059 155.801 L 233.363 155.801 L 233.363 156.552 L 233.363 156.552 z" stroke="none" fill-rule="evenodd" fill="rgb(0, 0, 0)"/></g><g stroke="rgb(0, 0, 0)" stroke-width="0.13" stroke-linecap="butt" stroke-linejoin="miter" fill="none"><path d="M 242.728 158.509 L 243.187 158.509 L 243.187 154.984 L 242.844 154.984 L 242.753 155.291 L 242.572 155.498 L 242.294 155.619 L 241.911 155.659 L 241.911 156.018 L 242.728 156.018 L 242.728 158.509 L 242.728 158.509 z M 245.507 158.509 L 246.203 158.509 L 246.203 157.757 L 245.507 157.757 L 245.507 158.509 L 245.507 158.509 z M 245.507 156.552 L 246.203 156.552 L 246.203 155.801 L 245.507 155.801 L 245.507 156.552 L 245.507 156.552 z M 248.8 158.509 L 249.259 158.509 L 249.259 154.984 L 248.916 154.984 L 248.825 155.291 L 248.644 155.498 L 248.366 155.619 L 247.983 155.659 L 247.983 156.018 L 248.8 156.018 L 248.8 158.509 L 248.8 158.509 z" stroke="none" fill-rule="evenodd" fill="rgb(0, 0, 0)"/></g></svg>