<?xml version="1.0" encoding="utf-8" ?><!DOCTYPE svg PUBLIC "-//W3C//DTD SVG 1.1//EN" "http://www.w3.org/Graphics/SVG/1.1/DTD/svg11.dtd" 
[ <!ATTLIST svg 
  xmlns:dsy CDATA #FIXED "http://www.3ds.com/print"  
    dsy:text-version CDATA #IMPLIED > 

  <!ATTLIST text 
  xmlns:dsy CDATA #FIXED "http://www.3ds.com/print" 
    dsy:text-version CDATA #IMPLIED > 
]><svg xmlns="http://www.w3.org/2000/svg" xmlns:dsy="http://www.3ds.com/print" dsy:text-version="18000" width="297" height="210" viewBox="0 0 297 210" version="1.1"><g stroke="rgb(0, 0, 0)" stroke-width="0.13" stroke-linecap="butt" stroke-linejoin="miter" fill="none"><path d="M 284.776 157.112 L 294.032 157.112"/><path d="M 284.776 51.1124 L 294.032 51.1124"/><path d="M 191.776 49.1124 L 191.776 42.781"/><path d="M 282.776 49.1124 L 282.776 42.781"/><path d="M 87.276 56.4382 L 87.276 46.2886"/><path d="M 172.276 56.4382 L 172.276 46.2886"/><path d="M 174.276 118.438 L 184.37 118.438"/><path d="M 174.276 58.4382 L 184.37 58.4382"/><path d="M 70.3173 149.741 L 79.9086 149.741"/><path d="M 70.3173 43.7412 L 79.9086 43.7412"/><path d="M 8.31726 41.7412 L 8.31726 28.9626"/><path d="M 68.3173 41.7412 L 68.3173 28.9626"/></g><g stroke="rgb(0, 0, 0)" stroke-width="0.35" stroke-linecap="butt" stroke-linejoin="miter" fill="none"><path d="M 191.776 51.1124 L 191.776 157.112"/><path d="M 282.776 157.112 L 191.776 157.112"/><path d="M 282.776 157.112 L 282.776 51.1124"/><path d="M 191.776 51.1124 L 282.776 51.1124"/><path d="M 87.276 58.4382 L 87.276 118.438"/><path d="M 172.276 118.438 L 87.276 118.438"/><path d="M 172.276 118.438 L 172.276 58.4382"/><path d="M 87.276 58.4382 L 172.276 58.4382"/><path d="M 8.31726 43.7412 L 8.31726 149.741"/><path d="M 68.3173 149.741 L 8.31726 149.741"/><path d="M 68.3173 149.741 L 68.3173 43.7412"/><path d="M 8.31726 43.7412 L 68.3173 43.7412"/></g><g stroke="rgb(0, 0, 0)" stroke-width="0.13" stroke-linecap="butt" stroke-linejoin="miter" fill="none"><path d="M 217.928 168.327 L 218.387 168.327 L 218.387 164.802 L 218.044 164.802 L 217.953 165.11 L 217.772 165.317 L 217.495 165.438 L 217.111 165.478 L 217.111 165.836 L 217.928 165.836 L 217.928 168.327 L 217.928 168.327 z M 223.37 168.327 L 224.066 167.273 L 224.782 168.327 L 225.317 168.327 L 224.348 166.931 L 225.261 165.619 L 224.747 165.619 L 224.086 166.603 L 223.425 165.619 L 222.901 165.619 L 223.799 166.936 L 222.85 168.327 L 223.37 168.327 L 223.37 168.327 z M 231.041 164.822 L 230.163 167.803 L 229.26 164.822 L 228.781 164.822 L 229.911 168.327 L 230.415 168.327 L 231.52 164.822 L 231.041 164.822 L 231.041 164.822 z M 233.512 167.954 L 233.512 165.71 L 232.372 165.71 L 232.372 166.088 L 233.068 166.088 L 233.068 167.954 L 232.16 167.954 L 232.16 168.327 L 234.43 168.327 L 234.43 167.954 L 233.512 167.954 L 233.512 167.954 z M 233.527 164.706 L 233.058 164.706 L 233.058 165.211 L 233.527 165.211 L 233.527 164.706 L 233.527 164.706 z M 235.786 166.088 L 235.786 167.445 L 235.817 167.884 L 235.958 168.186 L 236.24 168.363 L 236.719 168.423 L 237.244 168.398 L 237.244 168.015 L 236.86 168.045 L 236.512 168.005 L 236.326 167.879 L 236.245 167.667 L 236.23 167.369 L 236.23 166.088 L 237.244 166.088 L 237.244 165.71 L 236.23 165.71 L 236.23 164.918 L 235.786 164.918 L 235.786 165.71 L 235.02 165.71 L 235.02 166.088 L 235.786 166.088 L 235.786 166.088 z M 238.394 168.327 L 238.837 168.327 L 238.837 166.779 L 238.883 166.406 L 239.019 166.139 L 239.241 165.977 L 239.538 165.922 L 239.76 165.957 L 239.927 166.058 L 240.028 166.23 L 240.063 166.462 L 240.512 166.462 L 240.451 166.053 L 240.285 165.76 L 240.007 165.584 L 239.629 165.523 L 239.372 165.564 L 239.15 165.665 L 238.953 165.836 L 238.797 166.068 L 238.797 165.619 L 238.394 165.619 L 238.394 168.327 L 238.394 168.327 z M 241.652 167.102 L 243.427 167.102 L 243.432 166.895 L 243.351 166.315 L 243.129 165.882 L 242.776 165.619 L 242.307 165.523 L 241.848 165.624 L 241.495 165.907 L 241.268 166.366 L 241.188 166.971 L 241.263 167.591 L 241.49 168.045 L 241.838 168.327 L 242.292 168.423 L 242.685 168.358 L 243.008 168.186 L 243.245 167.914 L 243.381 167.551 L 242.943 167.551 L 242.852 167.753 L 242.721 167.904 L 242.347 168.025 L 242.06 167.969 L 241.843 167.793 L 241.702 167.505 L 241.652 167.117 L 241.652 167.102 L 241.652 167.102 z M 241.652 166.729 L 241.707 166.381 L 241.843 166.124 L 242.05 165.967 L 242.322 165.912 L 242.59 165.967 L 242.796 166.124 L 242.922 166.381 L 242.968 166.729 L 241.652 166.729 L 241.652 166.729 z M 247.108 167.228 L 247.108 167.263 L 247.189 167.748 L 247.426 168.111 L 247.799 168.343 L 248.293 168.428 L 248.818 168.343 L 249.211 168.121 L 249.463 167.768 L 249.554 167.314 L 249.514 167.016 L 249.403 166.774 L 249.221 166.588 L 248.979 166.451 L 249.307 166.179 L 249.423 165.745 L 249.347 165.352 L 249.131 165.054 L 248.778 164.868 L 248.293 164.802 L 247.84 164.883 L 247.492 165.105 L 247.265 165.458 L 247.189 165.927 L 247.189 165.962 L 247.638 165.962 L 247.678 165.639 L 247.809 165.407 L 248.021 165.266 L 248.319 165.216 L 248.581 165.256 L 248.773 165.362 L 248.889 165.534 L 248.934 165.766 L 248.889 166.013 L 248.768 166.179 L 248.556 166.28 L 248.268 166.31 L 248.072 166.305 L 248.072 166.704 L 248.319 166.693 L 248.636 166.739 L 248.873 166.86 L 249.015 167.057 L 249.065 167.314 L 249.01 167.606 L 248.863 167.823 L 248.631 167.959 L 248.324 168.005 L 248.006 167.954 L 247.774 167.803 L 247.628 167.561 L 247.572 167.228 L 247.108 167.228 L 247.108 167.228 z" stroke="none" fill-rule="evenodd" fill="rgb(0, 0, 0)"/></g><g stroke="rgb(0, 0, 0)" stroke-width="0.13" stroke-linecap="butt" stroke-linejoin="miter" fill="none"><path d="M 218.897 170.869 L 218.019 173.85 L 217.116 170.869 L 216.637 170.869 L 217.767 174.374 L 218.271 174.374 L 219.376 170.869 L 218.897 170.869 L 218.897 170.869 z M 222.099 171.666 L 221.655 171.666 L 221.655 173.23 L 221.605 173.593 L 221.459 173.855 L 221.232 174.016 L 220.934 174.067 L 220.697 174.026 L 220.546 173.905 L 220.46 173.699 L 220.44 173.406 L 220.44 171.666 L 219.996 171.666 L 219.996 173.446 L 220.011 173.804 L 220.107 174.102 L 220.399 174.374 L 220.868 174.47 L 221.121 174.435 L 221.337 174.344 L 221.524 174.188 L 221.675 173.961 L 221.675 174.374 L 222.099 174.374 L 222.099 171.666 L 222.099 171.666 z M 223.435 173.149 L 225.211 173.149 L 225.216 172.942 L 225.135 172.362 L 224.913 171.928 L 224.56 171.666 L 224.091 171.57 L 223.632 171.671 L 223.279 171.954 L 223.052 172.413 L 222.971 173.018 L 223.047 173.638 L 223.274 174.092 L 223.622 174.374 L 224.076 174.47 L 224.469 174.405 L 224.792 174.233 L 225.029 173.961 L 225.165 173.598 L 224.727 173.598 L 224.636 173.799 L 224.505 173.951 L 224.131 174.072 L 223.844 174.016 L 223.627 173.84 L 223.486 173.552 L 223.435 173.164 L 223.435 173.149 L 223.435 173.149 z M 223.435 172.776 L 223.491 172.428 L 223.627 172.17 L 223.834 172.014 L 224.106 171.959 L 224.374 172.014 L 224.58 172.17 L 224.706 172.428 L 224.752 172.776 L 223.435 172.776 L 223.435 172.776 z M 230.783 173.956 L 230.783 174.374 L 231.227 174.374 L 231.227 170.753 L 230.788 170.753 L 230.788 172.08 L 230.451 171.696 L 230.244 171.606 L 230.007 171.57 L 229.578 171.671 L 229.245 171.954 L 229.028 172.407 L 228.953 173.018 L 229.028 173.628 L 229.245 174.087 L 229.578 174.374 L 230.007 174.47 L 230.244 174.435 L 230.456 174.344 L 230.783 173.956 L 230.783 173.956 z M 230.082 171.969 L 230.375 172.039 L 230.597 172.236 L 230.728 172.564 L 230.778 173.018 L 230.728 173.477 L 230.597 173.804 L 230.375 174.006 L 230.082 174.072 L 229.805 174.006 L 229.593 173.804 L 229.452 173.472 L 229.407 173.018 L 229.452 172.569 L 229.593 172.241 L 229.805 172.039 L 230.082 171.969 L 230.082 171.969 z M 232.544 173.149 L 234.319 173.149 L 234.324 172.942 L 234.243 172.362 L 234.021 171.928 L 233.668 171.666 L 233.199 171.57 L 232.74 171.671 L 232.387 171.954 L 232.16 172.413 L 232.08 173.018 L 232.155 173.638 L 232.382 174.092 L 232.73 174.374 L 233.184 174.47 L 233.577 174.405 L 233.9 174.233 L 234.137 173.961 L 234.273 173.598 L 233.835 173.598 L 233.744 173.799 L 233.613 173.951 L 233.239 174.072 L 232.952 174.016 L 232.735 173.84 L 232.594 173.552 L 232.544 173.164 L 232.544 173.149 L 232.544 173.149 z M 232.544 172.776 L 232.599 172.428 L 232.735 172.17 L 232.942 172.014 L 233.214 171.959 L 233.482 172.014 L 233.688 172.17 L 233.814 172.428 L 233.86 172.776 L 232.544 172.776 L 232.544 172.776 z M 238.842 172.135 L 238.842 174.374 L 239.286 174.374 L 239.286 172.135 L 240.295 172.135 L 240.295 171.757 L 239.286 171.757 L 239.286 171.59 L 239.322 171.389 L 239.438 171.253 L 239.634 171.172 L 239.917 171.142 L 240.295 171.162 L 240.295 170.779 L 239.816 170.753 L 239.382 170.799 L 239.079 170.935 L 238.898 171.172 L 238.842 171.51 L 238.842 171.757 L 238.031 171.757 L 238.031 172.135 L 238.842 172.135 L 238.842 172.135 z M 242.872 174.021 L 242.872 174.036 L 242.897 174.208 L 242.973 174.329 L 243.291 174.425 L 243.538 174.384 L 243.538 174.041 L 243.432 174.057 L 243.291 173.991 L 243.265 173.789 L 243.265 172.387 L 243.205 172.029 L 243.028 171.777 L 242.721 171.626 L 242.287 171.57 L 241.863 171.631 L 241.551 171.802 L 241.354 172.07 L 241.288 172.423 L 241.288 172.453 L 241.687 172.453 L 241.722 172.241 L 241.833 172.09 L 242.015 171.999 L 242.272 171.964 L 242.519 171.989 L 242.695 172.065 L 242.801 172.196 L 242.837 172.377 L 242.817 172.589 L 242.736 172.695 L 242.534 172.745 L 242.156 172.786 L 241.722 172.876 L 241.414 173.038 L 241.233 173.29 L 241.177 173.663 L 241.228 173.996 L 241.384 174.243 L 241.636 174.4 L 241.984 174.455 L 242.453 174.349 L 242.872 174.021 L 242.872 174.021 z M 242.822 173.426 L 242.761 173.688 L 242.6 173.89 L 242.358 174.021 L 242.06 174.067 L 241.868 174.041 L 241.732 173.961 L 241.646 173.82 L 241.621 173.623 L 241.641 173.446 L 241.722 173.32 L 242.045 173.179 L 242.453 173.119 L 242.822 172.998 L 242.822 173.426 L 242.822 173.426 z M 246.024 172.564 L 246.463 172.564 L 246.372 172.16 L 246.155 171.843 L 245.817 171.646 L 245.378 171.57 L 244.894 171.671 L 244.526 171.954 L 244.294 172.413 L 244.213 173.028 L 244.289 173.638 L 244.516 174.092 L 244.874 174.374 L 245.363 174.47 L 245.797 174.394 L 246.135 174.183 L 246.367 173.85 L 246.468 173.406 L 246.044 173.406 L 245.969 173.688 L 245.827 173.9 L 245.626 174.031 L 245.378 174.072 L 245.071 174.006 L 244.849 173.804 L 244.713 173.477 L 244.667 173.013 L 244.713 172.559 L 244.854 172.231 L 245.081 172.029 L 245.378 171.959 L 245.641 172.004 L 245.837 172.12 L 245.969 172.312 L 246.024 172.564 L 246.024 172.564 z M 247.724 173.149 L 249.499 173.149 L 249.504 172.942 L 249.423 172.362 L 249.201 171.928 L 248.848 171.666 L 248.379 171.57 L 247.92 171.671 L 247.567 171.954 L 247.34 172.413 L 247.26 173.018 L 247.335 173.638 L 247.562 174.092 L 247.91 174.374 L 248.364 174.47 L 248.757 174.405 L 249.08 174.233 L 249.317 173.961 L 249.453 173.598 L 249.015 173.598 L 248.924 173.799 L 248.793 173.951 L 248.42 174.072 L 248.132 174.016 L 247.915 173.84 L 247.774 173.552 L 247.724 173.164 L 247.724 173.149 L 247.724 173.149 z M 247.724 172.776 L 247.779 172.428 L 247.915 172.17 L 248.122 172.014 L 248.394 171.959 L 248.662 172.014 L 248.868 172.17 L 248.994 172.428 L 249.04 172.776 L 247.724 172.776 L 247.724 172.776 z" stroke="none" fill-rule="evenodd" fill="rgb(0, 0, 0)"/></g><g stroke="rgb(0, 0, 0)" stroke-width="0.13" stroke-linecap="butt" stroke-linejoin="miter" fill="none"><path d="M 216.96 180.421 L 219.179 180.421 L 219.179 179.998 L 217.424 179.998 L 217.424 178.812 L 218.987 178.812 L 218.987 178.394 L 217.424 178.394 L 217.424 177.345 L 219.139 177.345 L 219.139 176.921 L 216.96 176.921 L 216.96 180.421 L 216.96 180.421 z M 221.736 178.611 L 222.175 178.611 L 222.084 178.207 L 221.867 177.889 L 221.529 177.693 L 221.09 177.617 L 220.606 177.718 L 220.238 178 L 220.006 178.459 L 219.925 179.075 L 220.001 179.685 L 220.228 180.139 L 220.586 180.421 L 221.075 180.517 L 221.509 180.441 L 221.847 180.23 L 222.079 179.897 L 222.18 179.453 L 221.756 179.453 L 221.68 179.735 L 221.539 179.947 L 221.337 180.078 L 221.09 180.119 L 220.783 180.053 L 220.561 179.851 L 220.425 179.523 L 220.379 179.059 L 220.425 178.606 L 220.566 178.278 L 220.793 178.076 L 221.09 178.005 L 221.353 178.051 L 221.549 178.167 L 221.68 178.358 L 221.736 178.611 L 221.736 178.611 z M 223.047 180.421 L 223.491 180.421 L 223.491 178.858 L 223.536 178.5 L 223.683 178.237 L 223.91 178.076 L 224.212 178.016 L 224.454 178.066 L 224.605 178.202 L 224.681 178.429 L 224.706 178.732 L 224.706 180.421 L 225.15 180.421 L 225.15 178.641 L 225.13 178.283 L 225.039 177.985 L 224.742 177.713 L 224.278 177.617 L 224.026 177.652 L 223.809 177.748 L 223.627 177.9 L 223.491 178.106 L 223.491 176.8 L 223.047 176.8 L 223.047 180.421 L 223.047 180.421 z M 226.471 179.196 L 228.247 179.196 L 228.252 178.989 L 228.171 178.409 L 227.949 177.975 L 227.596 177.713 L 227.127 177.617 L 226.668 177.718 L 226.315 178 L 226.088 178.459 L 226.007 179.065 L 226.083 179.685 L 226.31 180.139 L 226.658 180.421 L 227.112 180.517 L 227.505 180.451 L 227.828 180.28 L 228.065 180.008 L 228.201 179.644 L 227.763 179.644 L 227.672 179.846 L 227.541 179.998 L 227.167 180.119 L 226.88 180.063 L 226.663 179.887 L 226.522 179.599 L 226.471 179.211 L 226.471 179.196 L 226.471 179.196 z M 226.471 178.822 L 226.527 178.474 L 226.663 178.217 L 226.87 178.061 L 227.142 178.005 L 227.41 178.061 L 227.616 178.217 L 227.742 178.474 L 227.788 178.822 L 226.471 178.822 L 226.471 178.822 z M 230.002 177.173 L 230.002 180.048 L 229.089 180.048 L 229.089 180.421 L 231.353 180.421 L 231.353 180.048 L 230.446 180.048 L 230.446 176.8 L 229.306 176.8 L 229.306 177.173 L 230.002 177.173 L 230.002 177.173 z M 233.038 177.173 L 233.038 180.048 L 232.125 180.048 L 232.125 180.421 L 234.389 180.421 L 234.389 180.048 L 233.482 180.048 L 233.482 176.8 L 232.342 176.8 L 232.342 177.173 L 233.038 177.173 L 233.038 177.173 z M 235.58 179.196 L 237.355 179.196 L 237.36 178.989 L 237.279 178.409 L 237.057 177.975 L 236.704 177.713 L 236.235 177.617 L 235.776 177.718 L 235.423 178 L 235.196 178.459 L 235.116 179.065 L 235.191 179.685 L 235.418 180.139 L 235.766 180.421 L 236.22 180.517 L 236.613 180.451 L 236.936 180.28 L 237.173 180.008 L 237.309 179.644 L 236.871 179.644 L 236.78 179.846 L 236.649 179.998 L 236.275 180.119 L 235.988 180.063 L 235.771 179.887 L 235.63 179.599 L 235.58 179.211 L 235.58 179.196 L 235.58 179.196 z M 235.58 178.822 L 235.635 178.474 L 235.771 178.217 L 235.978 178.061 L 236.25 178.005 L 236.518 178.061 L 236.724 178.217 L 236.85 178.474 L 236.896 178.822 L 235.58 178.822 L 235.58 178.822 z M 241.959 180.421 L 242.655 180.421 L 242.655 179.67 L 241.959 179.67 L 241.959 180.421 L 241.959 180.421 z M 241.959 178.464 L 242.655 178.464 L 242.655 177.713 L 241.959 177.713 L 241.959 178.464 L 241.959 178.464 z" stroke="none" fill-rule="evenodd" fill="rgb(0, 0, 0)"/></g><g stroke="rgb(0, 0, 0)" stroke-width="0.13" stroke-linecap="butt" stroke-linejoin="miter" fill="none"><path d="M 251.325 180.421 L 251.783 180.421 L 251.783 176.896 L 251.441 176.896 L 251.35 177.204 L 251.168 177.41 L 250.891 177.531 L 250.508 177.572 L 250.508 177.93 L 251.325 177.93 L 251.325 180.421 L 251.325 180.421 z M 254.103 180.421 L 254.799 180.421 L 254.799 179.67 L 254.103 179.67 L 254.103 180.421 L 254.103 180.421 z M 254.103 178.464 L 254.799 178.464 L 254.799 177.713 L 254.103 177.713 L 254.103 178.464 L 254.103 178.464 z M 257.397 180.421 L 257.855 180.421 L 257.855 176.896 L 257.513 176.896 L 257.422 177.204 L 257.24 177.41 L 256.963 177.531 L 256.58 177.572 L 256.58 177.93 L 257.397 177.93 L 257.397 180.421 L 257.397 180.421 z" stroke="none" fill-rule="evenodd" fill="rgb(0, 0, 0)"/></g><g stroke="rgb(0, 0, 0)" stroke-width="0.13" stroke-linecap="butt" stroke-linejoin="miter" fill="none"><path d="M 290.032 107.939 L 290.032 107.48 L 286.507 107.48 L 286.507 107.823 L 286.815 107.914 L 287.022 108.096 L 287.143 108.373 L 287.183 108.756 L 287.541 108.756 L 287.541 107.939 L 290.032 107.939 L 290.032 107.939 z M 288.323 105.328 L 289.114 105.252 L 289.679 105.015 L 290.022 104.637 L 290.133 104.112 L 290.022 103.593 L 289.679 103.215 L 289.114 102.983 L 288.323 102.902 L 287.536 102.983 L 287.223 103.079 L 286.966 103.215 L 286.623 103.593 L 286.507 104.112 L 286.623 104.637 L 286.971 105.015 L 287.536 105.252 L 288.323 105.328 L 288.323 105.328 z M 288.323 104.844 L 287.712 104.803 L 287.274 104.677 L 287.017 104.45 L 286.926 104.112 L 287.017 103.78 L 287.274 103.553 L 287.712 103.427 L 288.323 103.386 L 288.938 103.427 L 289.377 103.553 L 289.634 103.78 L 289.72 104.112 L 289.634 104.45 L 289.377 104.677 L 288.938 104.803 L 288.323 104.844 L 288.323 104.844 z M 287.475 99.166 L 287.067 99.2618 L 286.764 99.4837 L 286.573 99.8267 L 286.507 100.27 L 286.542 100.568 L 286.638 100.825 L 286.795 101.052 L 287.017 101.244 L 287.294 101.395 L 287.632 101.506 L 288.03 101.577 L 288.479 101.597 L 289.195 101.516 L 289.715 101.269 L 290.027 100.871 L 290.133 100.326 L 290.042 99.8368 L 289.805 99.4636 L 289.432 99.2215 L 288.958 99.1358 L 288.479 99.2215 L 288.111 99.4535 L 287.879 99.8116 L 287.798 100.255 L 287.899 100.734 L 288.187 101.093 L 287.632 101.017 L 287.233 100.855 L 286.996 100.608 L 286.916 100.265 L 286.956 100.013 L 287.062 99.8216 L 287.238 99.6956 L 287.475 99.63 L 287.475 99.166 L 287.475 99.166 z M 288.963 99.625 L 289.281 99.6804 L 289.523 99.8216 L 289.684 100.049 L 289.735 100.331 L 289.684 100.629 L 289.528 100.855 L 289.286 101.002 L 288.968 101.047 L 288.656 100.997 L 288.419 100.855 L 288.267 100.624 L 288.212 100.311 L 288.267 100.038 L 288.413 99.8216 L 288.651 99.6804 L 288.963 99.625 L 288.963 99.625 z" stroke="none" fill-rule="evenodd" fill="rgb(0, 0, 0)"/><path d="M 291.515 155.181 L 292.032 157.112 L 292.55 155.181"/><path d="M 292.55 53.0443 L 292.032 51.1124 L 291.515 53.0443"/><path d="M 292.032 157.112 L 292.032 51.1124"/></g><g stroke="rgb(0, 0, 0)" stroke-width="0.13" stroke-linecap="butt" stroke-linejoin="miter" fill="none"><path d="M 234.198 41.9136 L 234.273 42.312 L 234.49 42.6196 L 234.833 42.8113 L 235.287 42.8819 L 235.584 42.8466 L 235.852 42.7558 L 236.079 42.5995 L 236.27 42.3775 L 236.422 42.1002 L 236.533 41.7572 L 236.598 41.3639 L 236.623 40.91 L 236.538 40.1989 L 236.291 39.6794 L 235.897 39.3667 L 235.358 39.2558 L 234.863 39.3466 L 234.49 39.5887 L 234.248 39.9619 L 234.167 40.4309 L 234.248 40.915 L 234.485 41.2832 L 234.838 41.5152 L 235.287 41.5908 L 235.761 41.495 L 236.119 41.2025 L 236.038 41.7623 L 235.877 42.1607 L 235.63 42.3977 L 235.292 42.4734 L 235.03 42.4381 L 234.838 42.3271 L 234.712 42.1506 L 234.662 41.9136 L 234.198 41.9136 L 234.198 41.9136 z M 234.657 40.4258 L 234.707 40.1131 L 234.848 39.866 L 235.07 39.7097 L 235.358 39.6542 L 235.655 39.7097 L 235.882 39.866 L 236.023 40.1081 L 236.079 40.4208 L 236.023 40.7385 L 235.882 40.9755 L 235.65 41.1218 L 235.342 41.1722 L 235.065 41.1218 L 234.848 40.9755 L 234.707 40.7435 L 234.657 40.4258 L 234.657 40.4258 z M 239.053 42.781 L 239.512 42.781 L 239.512 39.2558 L 239.169 39.2558 L 239.078 39.5634 L 238.897 39.7702 L 238.619 39.8913 L 238.236 39.9316 L 238.236 40.2897 L 239.053 40.2897 L 239.053 42.781 L 239.053 42.781 z" stroke="none" fill-rule="evenodd" fill="rgb(0, 0, 0)"/><path d="M 280.844 45.2986 L 282.776 44.781 L 280.844 44.2634"/><path d="M 193.708 44.2634 L 191.776 44.781 L 193.708 45.2986"/><path d="M 191.776 44.781 L 282.776 44.781"/></g><g stroke="rgb(0, 0, 0)" stroke-width="0.13" stroke-linecap="butt" stroke-linejoin="miter" fill="none"><path d="M 109.325 129.568 L 111.731 129.568 L 111.731 129.134 L 109.83 129.134 L 109.936 128.897 L 110.117 128.7 L 110.677 128.342 L 110.975 128.191 L 111.307 127.974 L 111.544 127.722 L 111.681 127.424 L 111.731 127.086 L 111.645 126.663 L 111.408 126.33 L 111.045 126.118 L 110.576 126.042 L 110.092 126.128 L 109.724 126.365 L 109.487 126.743 L 109.406 127.243 L 109.406 127.313 L 109.865 127.313 L 109.865 127.273 L 109.91 126.93 L 110.047 126.678 L 110.263 126.516 L 110.551 126.461 L 110.843 126.511 L 111.06 126.637 L 111.201 126.834 L 111.252 127.081 L 111.217 127.313 L 111.121 127.51 L 110.959 127.681 L 110.737 127.833 L 110.44 127.994 L 109.946 128.307 L 109.598 128.64 L 109.391 129.043 L 109.325 129.552 L 109.325 129.568 L 109.325 129.568 z M 115.907 129.568 L 116.603 128.514 L 117.319 129.568 L 117.853 129.568 L 116.885 128.171 L 117.798 126.859 L 117.284 126.859 L 116.623 127.843 L 115.962 126.859 L 115.438 126.859 L 116.335 128.176 L 115.387 129.568 L 115.907 129.568 L 115.907 129.568 z M 123.578 126.063 L 122.7 129.043 L 121.797 126.063 L 121.318 126.063 L 122.448 129.568 L 122.952 129.568 L 124.057 126.063 L 123.578 126.063 L 123.578 126.063 z M 126.049 129.194 L 126.049 126.95 L 124.909 126.95 L 124.909 127.328 L 125.605 127.328 L 125.605 129.194 L 124.697 129.194 L 124.697 129.568 L 126.967 129.568 L 126.967 129.194 L 126.049 129.194 L 126.049 129.194 z M 126.064 125.947 L 125.595 125.947 L 125.595 126.451 L 126.064 126.451 L 126.064 125.947 L 126.064 125.947 z M 128.323 127.328 L 128.323 128.685 L 128.353 129.124 L 128.495 129.426 L 128.777 129.603 L 129.256 129.663 L 129.781 129.638 L 129.781 129.255 L 129.397 129.285 L 129.049 129.245 L 128.863 129.119 L 128.782 128.907 L 128.767 128.609 L 128.767 127.328 L 129.781 127.328 L 129.781 126.95 L 128.767 126.95 L 128.767 126.158 L 128.323 126.158 L 128.323 126.95 L 127.557 126.95 L 127.557 127.328 L 128.323 127.328 L 128.323 127.328 z M 130.931 129.568 L 131.374 129.568 L 131.374 128.019 L 131.42 127.646 L 131.556 127.379 L 131.778 127.217 L 132.075 127.162 L 132.297 127.197 L 132.464 127.298 L 132.565 127.47 L 132.6 127.702 L 133.049 127.702 L 132.988 127.293 L 132.822 127.001 L 132.544 126.824 L 132.166 126.764 L 131.909 126.804 L 131.687 126.905 L 131.49 127.076 L 131.334 127.308 L 131.334 126.859 L 130.931 126.859 L 130.931 129.568 L 130.931 129.568 z M 134.188 128.342 L 135.964 128.342 L 135.969 128.135 L 135.888 127.555 L 135.666 127.122 L 135.313 126.859 L 134.844 126.764 L 134.385 126.864 L 134.032 127.147 L 133.805 127.606 L 133.724 128.211 L 133.8 128.831 L 134.027 129.285 L 134.375 129.568 L 134.829 129.663 L 135.222 129.598 L 135.545 129.426 L 135.782 129.154 L 135.918 128.791 L 135.48 128.791 L 135.389 128.993 L 135.258 129.144 L 134.884 129.265 L 134.597 129.209 L 134.38 129.033 L 134.239 128.746 L 134.188 128.357 L 134.188 128.342 L 134.188 128.342 z M 134.188 127.969 L 134.244 127.621 L 134.38 127.364 L 134.587 127.207 L 134.859 127.152 L 135.126 127.207 L 135.333 127.364 L 135.459 127.621 L 135.505 127.969 L 134.188 127.969 L 134.188 127.969 z M 139.686 129.568 L 142.091 129.568 L 142.091 129.134 L 140.19 129.134 L 140.296 128.897 L 140.477 128.7 L 141.037 128.342 L 141.335 128.191 L 141.668 127.974 L 141.905 127.722 L 142.041 127.424 L 142.091 127.086 L 142.005 126.663 L 141.768 126.33 L 141.405 126.118 L 140.936 126.042 L 140.452 126.128 L 140.084 126.365 L 139.847 126.743 L 139.766 127.243 L 139.766 127.313 L 140.225 127.313 L 140.225 127.273 L 140.271 126.93 L 140.407 126.678 L 140.624 126.516 L 140.911 126.461 L 141.204 126.511 L 141.42 126.637 L 141.562 126.834 L 141.612 127.081 L 141.577 127.313 L 141.481 127.51 L 141.32 127.681 L 141.098 127.833 L 140.8 127.994 L 140.306 128.307 L 139.958 128.64 L 139.751 129.043 L 139.686 129.552 L 139.686 129.568 L 139.686 129.568 z" stroke="none" fill-rule="evenodd" fill="rgb(0, 0, 0)"/></g><g stroke="rgb(0, 0, 0)" stroke-width="0.13" stroke-linecap="butt" stroke-linejoin="miter" fill="none"><path d="M 111.433 132.109 L 110.556 135.09 L 109.653 132.109 L 109.174 132.109 L 110.304 135.614 L 110.808 135.614 L 111.913 132.109 L 111.433 132.109 L 111.433 132.109 z M 114.636 132.906 L 114.192 132.906 L 114.192 134.47 L 114.142 134.833 L 113.995 135.095 L 113.768 135.256 L 113.471 135.307 L 113.234 135.266 L 113.083 135.145 L 112.997 134.939 L 112.977 134.646 L 112.977 132.906 L 112.533 132.906 L 112.533 134.686 L 112.548 135.044 L 112.644 135.342 L 112.936 135.614 L 113.405 135.71 L 113.658 135.675 L 113.874 135.584 L 114.061 135.428 L 114.212 135.201 L 114.212 135.614 L 114.636 135.614 L 114.636 132.906 L 114.636 132.906 z M 115.972 134.389 L 117.748 134.389 L 117.753 134.182 L 117.672 133.602 L 117.45 133.168 L 117.097 132.906 L 116.628 132.81 L 116.169 132.911 L 115.816 133.194 L 115.589 133.653 L 115.508 134.258 L 115.584 134.878 L 115.811 135.332 L 116.159 135.614 L 116.613 135.71 L 117.006 135.645 L 117.329 135.473 L 117.566 135.201 L 117.702 134.838 L 117.263 134.838 L 117.173 135.039 L 117.042 135.191 L 116.668 135.312 L 116.381 135.256 L 116.164 135.08 L 116.023 134.792 L 115.972 134.404 L 115.972 134.389 L 115.972 134.389 z M 115.972 134.016 L 116.028 133.668 L 116.164 133.41 L 116.371 133.254 L 116.643 133.199 L 116.91 133.254 L 117.117 133.41 L 117.243 133.668 L 117.289 134.016 L 115.972 134.016 L 115.972 134.016 z M 123.32 135.196 L 123.32 135.614 L 123.764 135.614 L 123.764 131.993 L 123.325 131.993 L 123.325 133.32 L 122.987 132.936 L 122.781 132.846 L 122.544 132.81 L 122.115 132.911 L 121.782 133.194 L 121.565 133.648 L 121.49 134.258 L 121.565 134.868 L 121.782 135.327 L 122.115 135.614 L 122.544 135.71 L 122.781 135.675 L 122.993 135.584 L 123.32 135.196 L 123.32 135.196 z M 122.619 133.209 L 122.912 133.279 L 123.134 133.476 L 123.265 133.804 L 123.315 134.258 L 123.265 134.717 L 123.134 135.044 L 122.912 135.246 L 122.619 135.312 L 122.342 135.246 L 122.13 135.044 L 121.989 134.712 L 121.944 134.258 L 121.989 133.809 L 122.13 133.481 L 122.342 133.279 L 122.619 133.209 L 122.619 133.209 z M 125.08 134.389 L 126.856 134.389 L 126.861 134.182 L 126.78 133.602 L 126.558 133.168 L 126.205 132.906 L 125.736 132.81 L 125.277 132.911 L 124.924 133.194 L 124.697 133.653 L 124.616 134.258 L 124.692 134.878 L 124.919 135.332 L 125.267 135.614 L 125.721 135.71 L 126.114 135.645 L 126.437 135.473 L 126.674 135.201 L 126.81 134.838 L 126.371 134.838 L 126.281 135.039 L 126.15 135.191 L 125.776 135.312 L 125.489 135.256 L 125.272 135.08 L 125.131 134.792 L 125.08 134.404 L 125.08 134.389 L 125.08 134.389 z M 125.08 134.016 L 125.136 133.668 L 125.272 133.41 L 125.479 133.254 L 125.751 133.199 L 126.018 133.254 L 126.225 133.41 L 126.351 133.668 L 126.397 134.016 L 125.08 134.016 L 125.08 134.016 z M 131.379 133.375 L 131.379 135.614 L 131.823 135.614 L 131.823 133.375 L 132.832 133.375 L 132.832 132.997 L 131.823 132.997 L 131.823 132.831 L 131.858 132.629 L 131.974 132.493 L 132.171 132.412 L 132.454 132.382 L 132.832 132.402 L 132.832 132.019 L 132.353 131.993 L 131.919 132.039 L 131.616 132.175 L 131.435 132.412 L 131.379 132.75 L 131.379 132.997 L 130.567 132.997 L 130.567 133.375 L 131.379 133.375 L 131.379 133.375 z M 135.409 135.261 L 135.409 135.276 L 135.434 135.448 L 135.51 135.569 L 135.827 135.665 L 136.075 135.624 L 136.075 135.282 L 135.969 135.297 L 135.827 135.231 L 135.802 135.029 L 135.802 133.627 L 135.742 133.269 L 135.565 133.017 L 135.258 132.866 L 134.824 132.81 L 134.4 132.871 L 134.088 133.042 L 133.891 133.31 L 133.825 133.663 L 133.825 133.693 L 134.224 133.693 L 134.259 133.481 L 134.37 133.33 L 134.552 133.239 L 134.809 133.204 L 135.056 133.229 L 135.232 133.305 L 135.338 133.436 L 135.374 133.617 L 135.353 133.829 L 135.273 133.935 L 135.071 133.985 L 134.693 134.026 L 134.259 134.117 L 133.951 134.278 L 133.77 134.53 L 133.714 134.903 L 133.765 135.236 L 133.921 135.483 L 134.173 135.64 L 134.521 135.695 L 134.99 135.589 L 135.409 135.261 L 135.409 135.261 z M 135.358 134.666 L 135.298 134.929 L 135.137 135.13 L 134.895 135.261 L 134.597 135.307 L 134.405 135.282 L 134.269 135.201 L 134.183 135.06 L 134.158 134.863 L 134.178 134.686 L 134.259 134.56 L 134.582 134.419 L 134.99 134.359 L 135.358 134.238 L 135.358 134.666 L 135.358 134.666 z M 138.561 133.804 L 139 133.804 L 138.909 133.4 L 138.692 133.083 L 138.354 132.886 L 137.915 132.81 L 137.431 132.911 L 137.063 133.194 L 136.831 133.653 L 136.75 134.268 L 136.826 134.878 L 137.053 135.332 L 137.411 135.614 L 137.9 135.71 L 138.334 135.635 L 138.672 135.423 L 138.904 135.09 L 139.005 134.646 L 138.581 134.646 L 138.505 134.929 L 138.364 135.14 L 138.163 135.271 L 137.915 135.312 L 137.608 135.246 L 137.386 135.044 L 137.25 134.717 L 137.204 134.253 L 137.25 133.799 L 137.391 133.471 L 137.618 133.269 L 137.915 133.199 L 138.178 133.244 L 138.374 133.36 L 138.505 133.552 L 138.561 133.804 L 138.561 133.804 z M 140.261 134.389 L 142.036 134.389 L 142.041 134.182 L 141.96 133.602 L 141.738 133.168 L 141.385 132.906 L 140.916 132.81 L 140.457 132.911 L 140.104 133.194 L 139.877 133.653 L 139.797 134.258 L 139.872 134.878 L 140.099 135.332 L 140.447 135.614 L 140.901 135.71 L 141.294 135.645 L 141.617 135.473 L 141.854 135.201 L 141.99 134.838 L 141.552 134.838 L 141.461 135.039 L 141.33 135.191 L 140.956 135.312 L 140.669 135.256 L 140.452 135.08 L 140.311 134.792 L 140.261 134.404 L 140.261 134.389 L 140.261 134.389 z M 140.261 134.016 L 140.316 133.668 L 140.452 133.41 L 140.659 133.254 L 140.931 133.199 L 141.199 133.254 L 141.405 133.41 L 141.531 133.668 L 141.577 134.016 L 140.261 134.016 L 140.261 134.016 z" stroke="none" fill-rule="evenodd" fill="rgb(0, 0, 0)"/></g><g stroke="rgb(0, 0, 0)" stroke-width="0.13" stroke-linecap="butt" stroke-linejoin="miter" fill="none"><path d="M 109.497 141.661 L 111.716 141.661 L 111.716 141.238 L 109.961 141.238 L 109.961 140.052 L 111.524 140.052 L 111.524 139.634 L 109.961 139.634 L 109.961 138.585 L 111.676 138.585 L 111.676 138.161 L 109.497 138.161 L 109.497 141.661 L 109.497 141.661 z M 114.273 139.851 L 114.712 139.851 L 114.621 139.447 L 114.404 139.13 L 114.066 138.933 L 113.627 138.857 L 113.143 138.958 L 112.775 139.24 L 112.543 139.699 L 112.462 140.315 L 112.538 140.925 L 112.765 141.379 L 113.123 141.661 L 113.612 141.757 L 114.046 141.681 L 114.384 141.47 L 114.616 141.137 L 114.717 140.693 L 114.293 140.693 L 114.217 140.975 L 114.076 141.187 L 113.874 141.318 L 113.627 141.359 L 113.32 141.293 L 113.098 141.091 L 112.962 140.764 L 112.916 140.3 L 112.962 139.846 L 113.103 139.518 L 113.33 139.316 L 113.627 139.245 L 113.889 139.291 L 114.086 139.407 L 114.217 139.599 L 114.273 139.851 L 114.273 139.851 z M 115.584 141.661 L 116.028 141.661 L 116.028 140.098 L 116.073 139.74 L 116.219 139.477 L 116.446 139.316 L 116.749 139.256 L 116.991 139.306 L 117.142 139.442 L 117.218 139.669 L 117.243 139.972 L 117.243 141.661 L 117.687 141.661 L 117.687 139.881 L 117.667 139.523 L 117.576 139.225 L 117.279 138.953 L 116.815 138.857 L 116.562 138.892 L 116.346 138.988 L 116.164 139.14 L 116.028 139.346 L 116.028 138.04 L 115.584 138.04 L 115.584 141.661 L 115.584 141.661 z M 119.008 140.436 L 120.784 140.436 L 120.789 140.229 L 120.708 139.649 L 120.486 139.215 L 120.133 138.953 L 119.664 138.857 L 119.205 138.958 L 118.852 139.24 L 118.625 139.699 L 118.544 140.305 L 118.62 140.925 L 118.847 141.379 L 119.195 141.661 L 119.649 141.757 L 120.042 141.691 L 120.365 141.52 L 120.602 141.248 L 120.738 140.885 L 120.299 140.885 L 120.209 141.086 L 120.078 141.238 L 119.704 141.359 L 119.417 141.303 L 119.2 141.127 L 119.059 140.839 L 119.008 140.451 L 119.008 140.436 L 119.008 140.436 z M 119.008 140.063 L 119.064 139.715 L 119.2 139.457 L 119.407 139.301 L 119.679 139.245 L 119.946 139.301 L 120.153 139.457 L 120.279 139.715 L 120.325 140.063 L 119.008 140.063 L 119.008 140.063 z M 122.539 138.413 L 122.539 141.288 L 121.626 141.288 L 121.626 141.661 L 123.89 141.661 L 123.89 141.288 L 122.982 141.288 L 122.982 138.04 L 121.843 138.04 L 121.843 138.413 L 122.539 138.413 L 122.539 138.413 z M 125.575 138.413 L 125.575 141.288 L 124.662 141.288 L 124.662 141.661 L 126.926 141.661 L 126.926 141.288 L 126.018 141.288 L 126.018 138.04 L 124.879 138.04 L 124.879 138.413 L 125.575 138.413 L 125.575 138.413 z M 128.116 140.436 L 129.892 140.436 L 129.897 140.229 L 129.816 139.649 L 129.594 139.215 L 129.241 138.953 L 128.772 138.857 L 128.313 138.958 L 127.96 139.24 L 127.733 139.699 L 127.652 140.305 L 127.728 140.925 L 127.955 141.379 L 128.303 141.661 L 128.757 141.757 L 129.15 141.691 L 129.473 141.52 L 129.71 141.248 L 129.846 140.885 L 129.407 140.885 L 129.317 141.086 L 129.186 141.238 L 128.812 141.359 L 128.525 141.303 L 128.308 141.127 L 128.167 140.839 L 128.116 140.451 L 128.116 140.436 L 128.116 140.436 z M 128.116 140.063 L 128.172 139.715 L 128.308 139.457 L 128.515 139.301 L 128.787 139.245 L 129.054 139.301 L 129.261 139.457 L 129.387 139.715 L 129.433 140.063 L 128.116 140.063 L 128.116 140.063 z M 134.496 141.661 L 135.192 141.661 L 135.192 140.91 L 134.496 140.91 L 134.496 141.661 L 134.496 141.661 z M 134.496 139.704 L 135.192 139.704 L 135.192 138.953 L 134.496 138.953 L 134.496 139.704 L 134.496 139.704 z" stroke="none" fill-rule="evenodd" fill="rgb(0, 0, 0)"/></g><g stroke="rgb(0, 0, 0)" stroke-width="0.13" stroke-linecap="butt" stroke-linejoin="miter" fill="none"><path d="M 143.861 141.661 L 144.32 141.661 L 144.32 138.136 L 143.977 138.136 L 143.887 138.444 L 143.705 138.65 L 143.428 138.771 L 143.044 138.812 L 143.044 139.17 L 143.861 139.17 L 143.861 141.661 L 143.861 141.661 z M 146.64 141.661 L 147.336 141.661 L 147.336 140.91 L 146.64 140.91 L 146.64 141.661 L 146.64 141.661 z M 146.64 139.704 L 147.336 139.704 L 147.336 138.953 L 146.64 138.953 L 146.64 139.704 L 146.64 139.704 z M 149.933 141.661 L 150.392 141.661 L 150.392 138.136 L 150.049 138.136 L 149.959 138.444 L 149.777 138.65 L 149.5 138.771 L 149.116 138.812 L 149.116 139.17 L 149.933 139.17 L 149.933 141.661 L 149.933 141.661 z" stroke="none" fill-rule="evenodd" fill="rgb(0, 0, 0)"/></g><g stroke="rgb(0, 0, 0)" stroke-width="0.13" stroke-linecap="butt" stroke-linejoin="miter" fill="none"><path d="M 127.283 44.4025 L 127.025 44.5437 L 126.849 44.7404 L 126.738 44.9875 L 126.703 45.285 L 126.783 45.7339 L 127.015 46.0818 L 127.394 46.3038 L 127.908 46.3895 L 128.417 46.3038 L 128.796 46.0818 L 129.028 45.7339 L 129.113 45.285 L 129.073 44.9875 L 128.967 44.7404 L 128.786 44.5437 L 128.533 44.4025 L 128.735 44.2814 L 128.876 44.115 L 128.962 43.9133 L 128.992 43.6661 L 128.912 43.3081 L 128.7 43.0206 L 128.357 42.834 L 127.908 42.7634 L 127.454 42.834 L 127.111 43.0206 L 126.894 43.3081 L 126.819 43.6661 L 126.844 43.9133 L 126.93 44.115 L 127.283 44.4025 L 127.283 44.4025 z M 127.187 45.2749 L 127.232 45.0076 L 127.378 44.8059 L 127.605 44.6748 L 127.908 44.6294 L 128.206 44.6748 L 128.433 44.8059 L 128.579 45.0076 L 128.629 45.2749 L 128.579 45.5624 L 128.433 45.7793 L 128.206 45.9205 L 127.908 45.9659 L 127.605 45.9205 L 127.378 45.7793 L 127.232 45.5624 L 127.187 45.2749 L 127.187 45.2749 z M 127.298 43.7065 L 127.338 43.4846 L 127.459 43.3131 L 127.651 43.2072 L 127.908 43.1669 L 128.16 43.2072 L 128.352 43.3131 L 128.473 43.4846 L 128.518 43.7065 L 128.473 43.9334 L 128.352 44.1099 L 128.16 44.2259 L 127.908 44.2612 L 127.651 44.2209 L 127.459 44.1099 L 127.338 43.9334 L 127.298 43.7065 L 127.298 43.7065 z M 130.393 45.3758 L 130.504 45.7893 L 130.751 46.1121 L 131.115 46.3138 L 131.578 46.3895 L 132.088 46.2987 L 132.486 46.0516 L 132.738 45.6582 L 132.834 45.1539 L 132.749 44.6849 L 132.506 44.3167 L 132.128 44.0797 L 131.639 43.994 L 131.261 44.0545 L 130.968 44.2209 L 131.109 43.2778 L 132.643 43.2778 L 132.643 42.8643 L 130.772 42.8643 L 130.494 44.7202 L 130.898 44.7202 L 131.19 44.4831 L 131.563 44.3974 L 131.886 44.4529 L 132.133 44.6143 L 132.29 44.8614 L 132.345 45.1791 L 132.29 45.4968 L 132.128 45.744 L 131.881 45.9003 L 131.563 45.9558 L 131.296 45.9205 L 131.089 45.8045 L 130.938 45.6229 L 130.862 45.3758 L 130.393 45.3758 L 130.393 45.3758 z" stroke="none" fill-rule="evenodd" fill="rgb(0, 0, 0)"/><path d="M 170.344 48.8063 L 172.276 48.2886 L 170.344 47.771"/><path d="M 89.2079 47.771 L 87.276 48.2886 L 89.2079 48.8063"/><path d="M 87.276 48.2886 L 172.276 48.2886"/></g><g stroke="rgb(0, 0, 0)" stroke-width="0.13" stroke-linecap="butt" stroke-linejoin="miter" fill="none"><path d="M 177.813 89.0958 L 177.405 89.1916 L 177.102 89.4135 L 176.911 89.7565 L 176.845 90.2003 L 176.88 90.4978 L 176.976 90.755 L 177.133 90.982 L 177.354 91.1736 L 177.632 91.3249 L 177.97 91.4359 L 178.368 91.5065 L 178.817 91.5266 L 179.533 91.4459 L 180.053 91.1988 L 180.365 90.8004 L 180.471 90.2557 L 180.38 89.7665 L 180.143 89.3933 L 179.77 89.1513 L 179.296 89.0655 L 178.817 89.1513 L 178.449 89.3833 L 178.217 89.7413 L 178.136 90.1851 L 178.237 90.6642 L 178.525 91.0223 L 177.97 90.9467 L 177.571 90.7853 L 177.334 90.5382 L 177.254 90.1952 L 177.294 89.9431 L 177.4 89.7514 L 177.576 89.6253 L 177.813 89.5598 L 177.813 89.0958 L 177.813 89.0958 z M 179.301 89.5547 L 179.619 89.6102 L 179.861 89.7514 L 180.022 89.9784 L 180.073 90.2608 L 180.022 90.5583 L 179.866 90.7853 L 179.624 90.9315 L 179.306 90.9769 L 178.994 90.9265 L 178.757 90.7853 L 178.605 90.5533 L 178.55 90.2406 L 178.605 89.9683 L 178.751 89.7514 L 178.988 89.6102 L 179.301 89.5547 L 179.301 89.5547 z M 178.661 87.7856 L 179.452 87.7099 L 180.017 87.4729 L 180.36 87.0946 L 180.471 86.5701 L 180.36 86.0507 L 180.017 85.6725 L 179.452 85.4405 L 178.661 85.3598 L 177.874 85.4405 L 177.561 85.5363 L 177.304 85.6725 L 176.961 86.0507 L 176.845 86.5701 L 176.961 87.0946 L 177.309 87.4729 L 177.874 87.7099 L 178.661 87.7856 L 178.661 87.7856 z M 178.661 87.3014 L 178.05 87.2611 L 177.612 87.135 L 177.354 86.908 L 177.264 86.5701 L 177.354 86.2373 L 177.612 86.0103 L 178.05 85.8843 L 178.661 85.8439 L 179.276 85.8843 L 179.715 86.0103 L 179.972 86.2373 L 180.058 86.5701 L 179.972 86.908 L 179.715 87.135 L 179.276 87.2611 L 178.661 87.3014 L 178.661 87.3014 z" stroke="none" fill-rule="evenodd" fill="rgb(0, 0, 0)"/><path d="M 181.853 116.506 L 182.37 118.438 L 182.888 116.506"/><path d="M 182.888 60.37 L 182.37 58.4382 L 181.853 60.37"/><path d="M 182.37 118.438 L 182.37 58.4382"/></g><g stroke="rgb(0, 0, 0)" stroke-width="0.13" stroke-linecap="butt" stroke-linejoin="miter" fill="none"><path d="M 23.2436 169.638 L 25.6492 169.638 L 25.6492 169.204 L 23.7479 169.204 L 23.8538 168.967 L 24.0354 168.77 L 24.5952 168.412 L 24.8927 168.261 L 25.2256 168.044 L 25.4626 167.792 L 25.5988 167.494 L 25.6492 167.156 L 25.5635 166.733 L 25.3265 166.4 L 24.9633 166.188 L 24.4943 166.112 L 24.0102 166.198 L 23.642 166.435 L 23.405 166.813 L 23.3243 167.313 L 23.3243 167.383 L 23.7832 167.383 L 23.7832 167.343 L 23.8286 167 L 23.9648 166.748 L 24.1816 166.587 L 24.4691 166.531 L 24.7616 166.581 L 24.9785 166.708 L 25.1197 166.904 L 25.1701 167.151 L 25.1348 167.383 L 25.039 167.58 L 24.8776 167.752 L 24.6557 167.903 L 24.3582 168.064 L 23.8639 168.377 L 23.5159 168.71 L 23.3092 169.113 L 23.2436 169.623 L 23.2436 169.638 L 23.2436 169.638 z M 29.825 169.638 L 30.521 168.584 L 31.2371 169.638 L 31.7717 169.638 L 30.8034 168.241 L 31.7162 166.929 L 31.2018 166.929 L 30.5412 167.913 L 29.8805 166.929 L 29.356 166.929 L 30.2537 168.246 L 29.3056 169.638 L 29.825 169.638 L 29.825 169.638 z M 37.4958 166.133 L 36.6182 169.113 L 35.7155 166.133 L 35.2364 166.133 L 36.3661 169.638 L 36.8704 169.638 L 37.9749 166.133 L 37.4958 166.133 L 37.4958 166.133 z M 39.9669 169.264 L 39.9669 167.02 L 38.8272 167.02 L 38.8272 167.399 L 39.5231 167.399 L 39.5231 169.264 L 38.6154 169.264 L 38.6154 169.638 L 40.8848 169.638 L 40.8848 169.264 L 39.9669 169.264 L 39.9669 169.264 z M 39.9821 166.017 L 39.5131 166.017 L 39.5131 166.521 L 39.9821 166.521 L 39.9821 166.017 L 39.9821 166.017 z M 42.2414 167.399 L 42.2414 168.755 L 42.2717 169.194 L 42.4129 169.496 L 42.6953 169.673 L 43.1744 169.734 L 43.6989 169.708 L 43.6989 169.325 L 43.3157 169.355 L 42.9677 169.315 L 42.7811 169.189 L 42.7004 168.977 L 42.6852 168.679 L 42.6852 167.399 L 43.6989 167.399 L 43.6989 167.02 L 42.6852 167.02 L 42.6852 166.228 L 42.2414 166.228 L 42.2414 167.02 L 41.4749 167.02 L 41.4749 167.399 L 42.2414 167.399 L 42.2414 167.399 z M 44.8488 169.638 L 45.2926 169.638 L 45.2926 168.089 L 45.338 167.716 L 45.4742 167.449 L 45.6961 167.288 L 45.9936 167.232 L 46.2155 167.267 L 46.3819 167.368 L 46.4828 167.54 L 46.5181 167.772 L 46.9669 167.772 L 46.9064 167.363 L 46.74 167.071 L 46.4626 166.894 L 46.0844 166.834 L 45.8272 166.874 L 45.6053 166.975 L 45.4086 167.146 L 45.2523 167.378 L 45.2523 166.929 L 44.8488 166.929 L 44.8488 169.638 L 44.8488 169.638 z M 48.1067 168.412 L 49.8819 168.412 L 49.887 168.205 L 49.8063 167.625 L 49.5844 167.192 L 49.2314 166.929 L 48.7623 166.834 L 48.3034 166.935 L 47.9504 167.217 L 47.7234 167.676 L 47.6427 168.281 L 47.7184 168.901 L 47.9453 169.355 L 48.2933 169.638 L 48.7472 169.734 L 49.1406 169.668 L 49.4633 169.496 L 49.7004 169.224 L 49.8365 168.861 L 49.3978 168.861 L 49.307 169.063 L 49.1759 169.214 L 48.8027 169.335 L 48.5152 169.28 L 48.2984 169.103 L 48.1571 168.816 L 48.1067 168.427 L 48.1067 168.412 L 48.1067 168.412 z M 48.1067 168.039 L 48.1622 167.691 L 48.2984 167.434 L 48.5051 167.277 L 48.7775 167.222 L 49.0448 167.277 L 49.2515 167.434 L 49.3776 167.691 L 49.423 168.039 L 48.1067 168.039 L 48.1067 168.039 z M 54.7436 169.638 L 55.2025 169.638 L 55.2025 166.112 L 54.8596 166.112 L 54.7688 166.42 L 54.5873 166.627 L 54.3099 166.748 L 53.9266 166.788 L 53.9266 167.146 L 54.7436 167.146 L 54.7436 169.638 L 54.7436 169.638 z" stroke="none" fill-rule="evenodd" fill="rgb(0, 0, 0)"/></g><g stroke="rgb(0, 0, 0)" stroke-width="0.13" stroke-linecap="butt" stroke-linejoin="miter" fill="none"><path d="M 25.3517 172.179 L 24.4742 175.16 L 23.5714 172.179 L 23.0923 172.179 L 24.222 175.685 L 24.7263 175.685 L 25.8308 172.179 L 25.3517 172.179 L 25.3517 172.179 z M 28.5541 172.976 L 28.1103 172.976 L 28.1103 174.54 L 28.0599 174.903 L 27.9136 175.165 L 27.6867 175.326 L 27.3891 175.377 L 27.1521 175.337 L 27.0008 175.216 L 26.9151 175.009 L 26.8949 174.716 L 26.8949 172.976 L 26.4511 172.976 L 26.4511 174.757 L 26.4662 175.115 L 26.562 175.412 L 26.8546 175.685 L 27.3236 175.78 L 27.5757 175.745 L 27.7926 175.654 L 27.9792 175.498 L 28.1305 175.271 L 28.1305 175.685 L 28.5541 175.685 L 28.5541 172.976 L 28.5541 172.976 z M 29.8906 174.459 L 31.6658 174.459 L 31.6708 174.252 L 31.5901 173.672 L 31.3682 173.239 L 31.0152 172.976 L 30.5462 172.88 L 30.0873 172.981 L 29.7342 173.264 L 29.5073 173.723 L 29.4266 174.328 L 29.5023 174.948 L 29.7292 175.402 L 30.0772 175.685 L 30.5311 175.78 L 30.9244 175.715 L 31.2472 175.543 L 31.4842 175.271 L 31.6204 174.908 L 31.1816 174.908 L 31.0909 175.11 L 30.9597 175.261 L 30.5865 175.382 L 30.2991 175.326 L 30.0822 175.15 L 29.941 174.862 L 29.8906 174.474 L 29.8906 174.459 L 29.8906 174.459 z M 29.8906 174.086 L 29.9461 173.738 L 30.0822 173.481 L 30.289 173.324 L 30.5613 173.269 L 30.8286 173.324 L 31.0354 173.481 L 31.1615 173.738 L 31.2069 174.086 L 29.8906 174.086 L 29.8906 174.086 z M 37.2386 175.266 L 37.2386 175.685 L 37.6824 175.685 L 37.6824 172.063 L 37.2436 172.063 L 37.2436 173.39 L 36.9057 173.007 L 36.6989 172.916 L 36.4619 172.88 L 36.0332 172.981 L 35.7004 173.264 L 35.4835 173.718 L 35.4079 174.328 L 35.4835 174.938 L 35.7004 175.397 L 36.0332 175.685 L 36.4619 175.78 L 36.6989 175.745 L 36.9108 175.654 L 37.2386 175.266 L 37.2386 175.266 z M 36.5376 173.279 L 36.8301 173.35 L 37.052 173.546 L 37.1831 173.874 L 37.2335 174.328 L 37.1831 174.787 L 37.052 175.115 L 36.8301 175.316 L 36.5376 175.382 L 36.2602 175.316 L 36.0484 175.115 L 35.9072 174.782 L 35.8618 174.328 L 35.9072 173.879 L 36.0484 173.551 L 36.2602 173.35 L 36.5376 173.279 L 36.5376 173.279 z M 38.9986 174.459 L 40.7739 174.459 L 40.7789 174.252 L 40.6982 173.672 L 40.4763 173.239 L 40.1233 172.976 L 39.6543 172.88 L 39.1953 172.981 L 38.8423 173.264 L 38.6154 173.723 L 38.5347 174.328 L 38.6103 174.948 L 38.8373 175.402 L 39.1852 175.685 L 39.6391 175.78 L 40.0325 175.715 L 40.3553 175.543 L 40.5923 175.271 L 40.7285 174.908 L 40.2897 174.908 L 40.1989 175.11 L 40.0678 175.261 L 39.6946 175.382 L 39.4072 175.326 L 39.1903 175.15 L 39.0491 174.862 L 38.9986 174.474 L 38.9986 174.459 L 38.9986 174.459 z M 38.9986 174.086 L 39.0541 173.738 L 39.1903 173.481 L 39.3971 173.324 L 39.6694 173.269 L 39.9367 173.324 L 40.1435 173.481 L 40.2695 173.738 L 40.3149 174.086 L 38.9986 174.086 L 38.9986 174.086 z M 45.2976 173.445 L 45.2976 175.685 L 45.7414 175.685 L 45.7414 173.445 L 46.7501 173.445 L 46.7501 173.067 L 45.7414 173.067 L 45.7414 172.901 L 45.7767 172.699 L 45.8927 172.563 L 46.0894 172.482 L 46.3718 172.452 L 46.7501 172.472 L 46.7501 172.089 L 46.271 172.063 L 45.8373 172.109 L 45.5347 172.245 L 45.3531 172.482 L 45.2976 172.82 L 45.2976 173.067 L 44.4857 173.067 L 44.4857 173.445 L 45.2976 173.445 L 45.2976 173.445 z M 49.3272 175.331 L 49.3272 175.347 L 49.3524 175.518 L 49.428 175.639 L 49.7458 175.735 L 49.9929 175.695 L 49.9929 175.352 L 49.887 175.367 L 49.7458 175.301 L 49.7206 175.1 L 49.7206 173.697 L 49.66 173.339 L 49.4835 173.087 L 49.1759 172.936 L 48.7422 172.88 L 48.3185 172.941 L 48.0059 173.112 L 47.8092 173.38 L 47.7436 173.733 L 47.7436 173.763 L 48.142 173.763 L 48.1773 173.551 L 48.2883 173.4 L 48.4698 173.309 L 48.727 173.274 L 48.9742 173.299 L 49.1507 173.375 L 49.2566 173.506 L 49.2919 173.687 L 49.2717 173.899 L 49.191 174.005 L 48.9893 174.056 L 48.611 174.096 L 48.1773 174.187 L 47.8697 174.348 L 47.6881 174.6 L 47.6327 174.973 L 47.6831 175.306 L 47.8394 175.553 L 48.0916 175.71 L 48.4396 175.765 L 48.9086 175.659 L 49.3272 175.331 L 49.3272 175.331 z M 49.2767 174.736 L 49.2162 174.999 L 49.0548 175.2 L 48.8128 175.331 L 48.5152 175.377 L 48.3236 175.352 L 48.1874 175.271 L 48.1017 175.13 L 48.0765 174.933 L 48.0966 174.757 L 48.1773 174.63 L 48.5001 174.489 L 48.9086 174.429 L 49.2767 174.308 L 49.2767 174.736 L 49.2767 174.736 z M 52.4792 173.874 L 52.918 173.874 L 52.8272 173.471 L 52.6103 173.153 L 52.2724 172.956 L 51.8337 172.88 L 51.3495 172.981 L 50.9814 173.264 L 50.7494 173.723 L 50.6687 174.338 L 50.7443 174.948 L 50.9713 175.402 L 51.3293 175.685 L 51.8185 175.78 L 52.2522 175.705 L 52.5901 175.493 L 52.8221 175.16 L 52.923 174.716 L 52.4994 174.716 L 52.4237 174.999 L 52.2825 175.21 L 52.0808 175.342 L 51.8337 175.382 L 51.526 175.316 L 51.3041 175.115 L 51.168 174.787 L 51.1226 174.323 L 51.168 173.869 L 51.3092 173.541 L 51.5361 173.339 L 51.8337 173.269 L 52.0959 173.314 L 52.2926 173.43 L 52.4237 173.622 L 52.4792 173.874 L 52.4792 173.874 z M 54.1788 174.459 L 55.954 174.459 L 55.959 174.252 L 55.8783 173.672 L 55.6564 173.239 L 55.3034 172.976 L 54.8344 172.88 L 54.3754 172.981 L 54.0224 173.264 L 53.7955 173.723 L 53.7148 174.328 L 53.7904 174.948 L 54.0174 175.402 L 54.3654 175.685 L 54.8193 175.78 L 55.2126 175.715 L 55.5354 175.543 L 55.7724 175.271 L 55.9086 174.908 L 55.4698 174.908 L 55.379 175.11 L 55.2479 175.261 L 54.8747 175.382 L 54.5873 175.326 L 54.3704 175.15 L 54.2292 174.862 L 54.1788 174.474 L 54.1788 174.459 L 54.1788 174.459 z M 54.1788 174.086 L 54.2342 173.738 L 54.3704 173.481 L 54.5772 173.324 L 54.8495 173.269 L 55.1168 173.324 L 55.3236 173.481 L 55.4497 173.738 L 55.495 174.086 L 54.1788 174.086 L 54.1788 174.086 z" stroke="none" fill-rule="evenodd" fill="rgb(0, 0, 0)"/></g><g stroke="rgb(0, 0, 0)" stroke-width="0.13" stroke-linecap="butt" stroke-linejoin="miter" fill="none"><path d="M 23.4151 181.731 L 25.6341 181.731 L 25.6341 181.308 L 23.8791 181.308 L 23.8791 180.123 L 25.4425 180.123 L 25.4425 179.704 L 23.8791 179.704 L 23.8791 178.655 L 25.5938 178.655 L 25.5938 178.231 L 23.4151 178.231 L 23.4151 181.731 L 23.4151 181.731 z M 28.191 179.921 L 28.6298 179.921 L 28.539 179.517 L 28.3221 179.2 L 27.9842 179.003 L 27.5455 178.927 L 27.0613 179.028 L 26.6932 179.311 L 26.4612 179.77 L 26.3805 180.385 L 26.4561 180.995 L 26.6831 181.449 L 27.0412 181.731 L 27.5303 181.827 L 27.9641 181.752 L 28.302 181.54 L 28.534 181.207 L 28.6348 180.763 L 28.2112 180.763 L 28.1355 181.045 L 27.9943 181.257 L 27.7926 181.388 L 27.5455 181.429 L 27.2378 181.363 L 27.0159 181.161 L 26.8798 180.834 L 26.8344 180.37 L 26.8798 179.916 L 27.021 179.588 L 27.2479 179.386 L 27.5455 179.316 L 27.8077 179.361 L 28.0044 179.477 L 28.1355 179.669 L 28.191 179.921 L 28.191 179.921 z M 29.5023 181.731 L 29.9461 181.731 L 29.9461 180.168 L 29.9914 179.81 L 30.1377 179.548 L 30.3646 179.386 L 30.6672 179.326 L 30.9093 179.376 L 31.0606 179.512 L 31.1363 179.739 L 31.1615 180.042 L 31.1615 181.731 L 31.6053 181.731 L 31.6053 179.951 L 31.5851 179.593 L 31.4943 179.295 L 31.1968 179.023 L 30.7328 178.927 L 30.4806 178.963 L 30.2638 179.058 L 30.0822 179.21 L 29.9461 179.417 L 29.9461 178.11 L 29.5023 178.11 L 29.5023 181.731 L 29.5023 181.731 z M 32.9266 180.506 L 34.7018 180.506 L 34.7069 180.299 L 34.6262 179.719 L 34.4043 179.285 L 34.0512 179.023 L 33.5822 178.927 L 33.1233 179.028 L 32.7703 179.311 L 32.5433 179.77 L 32.4626 180.375 L 32.5383 180.995 L 32.7652 181.449 L 33.1132 181.731 L 33.5671 181.827 L 33.9605 181.762 L 34.2832 181.59 L 34.5203 181.318 L 34.6564 180.955 L 34.2177 180.955 L 34.1269 181.156 L 33.9958 181.308 L 33.6226 181.429 L 33.3351 181.373 L 33.1182 181.197 L 32.977 180.909 L 32.9266 180.521 L 32.9266 180.506 L 32.9266 180.506 z M 32.9266 180.133 L 32.9821 179.785 L 33.1182 179.527 L 33.325 179.371 L 33.5974 179.316 L 33.8646 179.371 L 34.0714 179.527 L 34.1975 179.785 L 34.2429 180.133 L 32.9266 180.133 L 32.9266 180.133 z M 36.4569 178.484 L 36.4569 181.358 L 35.544 181.358 L 35.544 181.731 L 37.8084 181.731 L 37.8084 181.358 L 36.9007 181.358 L 36.9007 178.11 L 35.7609 178.11 L 35.7609 178.484 L 36.4569 178.484 L 36.4569 178.484 z M 39.4929 178.484 L 39.4929 181.358 L 38.5801 181.358 L 38.5801 181.731 L 40.8445 181.731 L 40.8445 181.358 L 39.9367 181.358 L 39.9367 178.11 L 38.7969 178.11 L 38.7969 178.484 L 39.4929 178.484 L 39.4929 178.484 z M 42.0347 180.506 L 43.8099 180.506 L 43.8149 180.299 L 43.7342 179.719 L 43.5123 179.285 L 43.1593 179.023 L 42.6903 178.927 L 42.2314 179.028 L 41.8783 179.311 L 41.6514 179.77 L 41.5707 180.375 L 41.6463 180.995 L 41.8733 181.449 L 42.2213 181.731 L 42.6752 181.827 L 43.0685 181.762 L 43.3913 181.59 L 43.6283 181.318 L 43.7645 180.955 L 43.3257 180.955 L 43.235 181.156 L 43.1038 181.308 L 42.7306 181.429 L 42.4432 181.373 L 42.2263 181.197 L 42.0851 180.909 L 42.0347 180.521 L 42.0347 180.506 L 42.0347 180.506 z M 42.0347 180.133 L 42.0901 179.785 L 42.2263 179.527 L 42.4331 179.371 L 42.7054 179.316 L 42.9727 179.371 L 43.1795 179.527 L 43.3056 179.785 L 43.351 180.133 L 42.0347 180.133 L 42.0347 180.133 z M 48.4144 181.731 L 49.1103 181.731 L 49.1103 180.98 L 48.4144 180.98 L 48.4144 181.731 L 48.4144 181.731 z M 48.4144 179.775 L 49.1103 179.775 L 49.1103 179.023 L 48.4144 179.023 L 48.4144 179.775 L 48.4144 179.775 z" stroke="none" fill-rule="evenodd" fill="rgb(0, 0, 0)"/></g><g stroke="rgb(0, 0, 0)" stroke-width="0.13" stroke-linecap="butt" stroke-linejoin="miter" fill="none"><path d="M 57.7796 181.731 L 58.2386 181.731 L 58.2386 178.206 L 57.8956 178.206 L 57.8048 178.514 L 57.6233 178.721 L 57.3459 178.842 L 56.9626 178.882 L 56.9626 179.24 L 57.7796 179.24 L 57.7796 181.731 L 57.7796 181.731 z M 60.5584 181.731 L 61.2544 181.731 L 61.2544 180.98 L 60.5584 180.98 L 60.5584 181.731 L 60.5584 181.731 z M 60.5584 179.775 L 61.2544 179.775 L 61.2544 179.023 L 60.5584 179.023 L 60.5584 179.775 L 60.5584 179.775 z M 63.8517 181.731 L 64.3106 181.731 L 64.3106 178.206 L 63.9677 178.206 L 63.8769 178.514 L 63.6953 178.721 L 63.418 178.842 L 63.0347 178.882 L 63.0347 179.24 L 63.8517 179.24 L 63.8517 181.731 L 63.8517 181.731 z" stroke="none" fill-rule="evenodd" fill="rgb(0, 0, 0)"/></g><g stroke="rgb(0, 0, 0)" stroke-width="0.13" stroke-linecap="butt" stroke-linejoin="miter" fill="none"><path d="M 75.9086 100.568 L 75.9086 100.109 L 72.3834 100.109 L 72.3834 100.452 L 72.691 100.543 L 72.8978 100.724 L 73.0188 101.002 L 73.0591 101.385 L 73.4172 101.385 L 73.4172 100.568 L 75.9086 100.568 L 75.9086 100.568 z M 74.1989 97.9566 L 74.9907 97.881 L 75.5555 97.644 L 75.8985 97.2657 L 76.0094 96.7412 L 75.8985 96.2218 L 75.5555 95.8435 L 74.9907 95.6115 L 74.1989 95.5309 L 73.4122 95.6115 L 73.0995 95.7074 L 72.8423 95.8435 L 72.4994 96.2218 L 72.3834 96.7412 L 72.4994 97.2657 L 72.8473 97.644 L 73.4122 97.881 L 74.1989 97.9566 L 74.1989 97.9566 z M 74.1989 97.4725 L 73.5887 97.4322 L 73.1499 97.3061 L 72.8927 97.0791 L 72.8019 96.7412 L 72.8927 96.4084 L 73.1499 96.1814 L 73.5887 96.0554 L 74.1989 96.015 L 74.8142 96.0554 L 75.253 96.1814 L 75.5102 96.4084 L 75.5959 96.7412 L 75.5102 97.0791 L 75.253 97.3061 L 74.8142 97.4322 L 74.1989 97.4725 L 74.1989 97.4725 z M 73.3517 91.7948 L 72.9432 91.8907 L 72.6406 92.1126 L 72.4489 92.4555 L 72.3834 92.8993 L 72.4187 93.1969 L 72.5145 93.4541 L 72.6708 93.681 L 72.8927 93.8727 L 73.1701 94.0239 L 73.508 94.1349 L 73.9064 94.2055 L 74.3553 94.2257 L 75.0714 94.145 L 75.5908 93.8979 L 75.9035 93.4995 L 76.0094 92.9548 L 75.9187 92.4656 L 75.6816 92.0924 L 75.3084 91.8503 L 74.8344 91.7646 L 74.3553 91.8503 L 73.9871 92.0823 L 73.7551 92.4404 L 73.6744 92.8842 L 73.7753 93.3633 L 74.0628 93.7214 L 73.508 93.6457 L 73.1096 93.4843 L 72.8725 93.2372 L 72.7919 92.8943 L 72.8322 92.6421 L 72.9381 92.4505 L 73.1146 92.3244 L 73.3517 92.2588 L 73.3517 91.7948 L 73.3517 91.7948 z M 74.8394 92.2538 L 75.1571 92.3092 L 75.3992 92.4505 L 75.5606 92.6774 L 75.611 92.9598 L 75.5606 93.2574 L 75.4042 93.4843 L 75.1622 93.6306 L 74.8445 93.676 L 74.5318 93.6255 L 74.2947 93.4843 L 74.1434 93.2523 L 74.088 92.9397 L 74.1434 92.6673 L 74.2897 92.4505 L 74.5267 92.3092 L 74.8394 92.2538 L 74.8394 92.2538 z" stroke="none" fill-rule="evenodd" fill="rgb(0, 0, 0)"/><path d="M 77.3909 147.809 L 77.9086 149.741 L 78.4262 147.809"/><path d="M 78.4262 45.6731 L 77.9086 43.7412 L 77.3909 45.6731"/><path d="M 77.9086 149.741 L 77.9086 43.7412"/></g><g stroke="rgb(0, 0, 0)" stroke-width="0.13" stroke-linecap="butt" stroke-linejoin="miter" fill="none"><path d="M 37.6596 26.4057 L 37.5638 25.9972 L 37.3419 25.6946 L 36.999 25.503 L 36.5552 25.4374 L 36.2576 25.4727 L 36.0004 25.5685 L 35.7735 25.7249 L 35.5818 25.9468 L 35.4305 26.2241 L 35.3196 26.562 L 35.249 26.9604 L 35.2288 27.4093 L 35.3095 28.1254 L 35.5566 28.6449 L 35.955 28.9576 L 36.4997 29.0635 L 36.9889 28.9727 L 37.3621 28.7357 L 37.6042 28.3625 L 37.6899 27.8884 L 37.6042 27.4093 L 37.3722 27.0412 L 37.0141 26.8092 L 36.5703 26.7285 L 36.0912 26.8293 L 35.7331 27.1168 L 35.8088 26.562 L 35.9701 26.1636 L 36.2173 25.9266 L 36.5602 25.8459 L 36.8124 25.8862 L 37.004 25.9922 L 37.1301 26.1687 L 37.1957 26.4057 L 37.6596 26.4057 L 37.6596 26.4057 z M 37.2007 27.8934 L 37.1452 28.2112 L 37.004 28.4532 L 36.7771 28.6146 L 36.4946 28.6651 L 36.1971 28.6146 L 35.9701 28.4583 L 35.8239 28.2162 L 35.7785 27.8985 L 35.8289 27.5858 L 35.9701 27.3488 L 36.2021 27.1975 L 36.5148 27.142 L 36.7872 27.1975 L 37.004 27.3437 L 37.1452 27.5808 L 37.2007 27.8934 L 37.2007 27.8934 z M 38.9699 27.253 L 39.0455 28.0448 L 39.2825 28.6096 L 39.6608 28.9525 L 40.1853 29.0635 L 40.7047 28.9525 L 41.083 28.6096 L 41.315 28.0448 L 41.3957 27.253 L 41.315 26.4662 L 41.2191 26.1535 L 41.083 25.8963 L 40.7047 25.5534 L 40.1853 25.4374 L 39.6608 25.5534 L 39.2825 25.9014 L 39.0455 26.4662 L 38.9699 27.253 L 38.9699 27.253 z M 39.454 27.253 L 39.4944 26.6427 L 39.6204 26.204 L 39.8474 25.9468 L 40.1853 25.856 L 40.5181 25.9468 L 40.7451 26.204 L 40.8712 26.6427 L 40.9115 27.253 L 40.8712 27.8682 L 40.7451 28.307 L 40.5181 28.5642 L 40.1853 28.6499 L 39.8474 28.5642 L 39.6204 28.307 L 39.4944 27.8682 L 39.454 27.253 L 39.454 27.253 z" stroke="none" fill-rule="evenodd" fill="rgb(0, 0, 0)"/><path d="M 66.3854 31.4803 L 68.3173 30.9626 L 66.3854 30.445"/><path d="M 10.2491 30.445 L 8.31726 30.9626 L 10.2491 31.4803"/><path d="M 8.31726 30.9626 L 68.3173 30.9626"/></g></svg>