<?xml version="1.0" encoding="utf-8" ?><!DOCTYPE svg PUBLIC "-//W3C//DTD SVG 1.1//EN" "http://www.w3.org/Graphics/SVG/1.1/DTD/svg11.dtd" 
[ <!ATTLIST svg 
  xmlns:dsy CDATA #FIXED "http://www.3ds.com/print"  
    dsy:text-version CDATA #IMPLIED > 

  <!ATTLIST text 
  xmlns:dsy CDATA #FIXED "http://www.3ds.com/print" 
    dsy:text-version CDATA #IMPLIED > 
]><svg xmlns="http://www.w3.org/2000/svg" xmlns:dsy="http://www.3ds.com/print" dsy:text-version="18000" width="1189" height="841" viewBox="0 0 1189 841" version="1.1"><g stroke="rgb(0, 0, 0)" stroke-width="0.13" stroke-linecap="butt" stroke-linejoin="miter" fill="none"><path d="M 783.083 128.471 L 783.083 84.4371"/></g><g stroke="rgb(0, 0, 0)" stroke-width="0.35" stroke-linecap="butt" stroke-linejoin="miter" fill="none"><circle cx="716.894" cy="282.242" r="4.20001"/><circle cx="416.894" cy="282.242" r="4.20001"/><circle cx="596.894" cy="538.416" r="4.20001"/><path d="M 1189.01 130.471 L 783.082 130.471"/><circle cx="845.523" cy="213.786" r="4.20001"/><circle cx="1145.52" cy="213.786" r="4.20001"/><circle cx="1025.52" cy="581.798" r="4.20001"/></g><g stroke="rgb(0, 0, 0)" stroke-width="0.13" stroke-linecap="butt" stroke-linejoin="miter" fill="none"><path d="M 552.591 213.843 L 553.652 213.843 L 553.652 206.811 L 556.073 206.811 L 556.073 205.843 L 550.159 205.843 L 550.159 206.811 L 552.591 206.811 L 552.591 213.843 L 552.591 213.843 z M 558.055 213.843 L 559.07 213.843 L 559.07 210.304 L 559.173 209.451 L 559.485 208.84 L 559.992 208.471 L 560.672 208.344 L 561.179 208.425 L 561.56 208.655 L 561.79 209.047 L 561.871 209.577 L 562.897 209.577 L 562.758 208.644 L 562.378 207.975 L 561.744 207.572 L 560.879 207.433 L 560.292 207.526 L 559.784 207.756 L 559.335 208.148 L 558.977 208.678 L 558.977 207.652 L 558.055 207.652 L 558.055 213.843 L 558.055 213.843 z M 567.715 212.99 L 567.715 207.86 L 565.11 207.86 L 565.11 208.724 L 566.701 208.724 L 566.701 212.99 L 564.626 212.99 L 564.626 213.843 L 569.813 213.843 L 569.813 212.99 L 567.715 212.99 L 567.715 212.99 z M 567.75 205.566 L 566.678 205.566 L 566.678 206.719 L 567.75 206.719 L 567.75 205.566 L 567.75 205.566 z M 575.231 213.036 L 575.231 213.07 L 575.289 213.462 L 575.462 213.739 L 576.188 213.958 L 576.753 213.866 L 576.753 213.082 L 576.511 213.116 L 576.188 212.966 L 576.13 212.505 L 576.13 209.301 L 575.992 208.482 L 575.588 207.906 L 574.885 207.56 L 573.894 207.433 L 572.926 207.572 L 572.211 207.964 L 571.761 208.575 L 571.612 209.381 L 571.612 209.451 L 572.522 209.451 L 572.603 208.966 L 572.856 208.621 L 573.271 208.413 L 573.859 208.332 L 574.424 208.39 L 574.828 208.563 L 575.07 208.863 L 575.15 209.278 L 575.104 209.762 L 574.92 210.004 L 574.459 210.119 L 573.594 210.211 L 572.603 210.419 L 571.9 210.788 L 571.485 211.364 L 571.358 212.217 L 571.473 212.978 L 571.831 213.543 L 572.407 213.9 L 573.202 214.027 L 574.274 213.785 L 575.231 213.036 L 575.231 213.036 z M 575.116 211.675 L 574.977 212.275 L 574.609 212.736 L 574.055 213.036 L 573.375 213.139 L 572.937 213.082 L 572.626 212.897 L 572.43 212.575 L 572.372 212.125 L 572.418 211.721 L 572.603 211.433 L 573.341 211.111 L 574.274 210.972 L 575.116 210.696 L 575.116 211.675 L 575.116 211.675 z M 578.493 213.843 L 579.508 213.843 L 579.508 210.269 L 579.612 209.451 L 579.946 208.851 L 580.465 208.482 L 581.156 208.344 L 581.71 208.459 L 582.055 208.77 L 582.228 209.289 L 582.286 209.981 L 582.286 213.843 L 583.3 213.843 L 583.3 209.773 L 583.254 208.955 L 583.047 208.275 L 582.367 207.652 L 581.306 207.433 L 580.718 207.514 L 580.222 207.733 L 579.796 208.102 L 579.462 208.598 L 579.462 207.652 L 578.493 207.652 L 578.493 213.843 L 578.493 213.843 z M 590.251 213.566 L 590.251 207.652 L 589.283 207.652 L 589.283 208.655 L 588.488 207.745 L 588.003 207.514 L 587.462 207.433 L 586.482 207.664 L 585.721 208.309 L 585.225 209.347 L 585.052 210.742 L 585.225 212.148 L 585.721 213.185 L 586.482 213.843 L 587.462 214.062 L 588.015 213.981 L 588.476 213.773 L 589.283 212.897 L 589.283 213.773 L 589.191 214.465 L 588.937 214.961 L 588.453 215.249 L 587.727 215.353 L 587.093 215.283 L 586.643 215.111 L 586.378 214.811 L 586.297 214.407 L 585.318 214.407 L 585.318 214.453 L 585.467 215.191 L 585.929 215.745 L 586.666 216.102 L 587.669 216.229 L 588.868 216.056 L 589.663 215.572 L 590.113 214.73 L 590.251 213.566 L 590.251 213.566 z M 586.101 210.742 L 586.205 209.716 L 586.516 208.955 L 587.001 208.505 L 587.646 208.344 L 588.326 208.505 L 588.833 208.955 L 589.145 209.716 L 589.26 210.742 L 589.145 211.791 L 588.833 212.54 L 588.326 213.001 L 587.646 213.151 L 587.001 213.001 L 586.516 212.54 L 586.205 211.779 L 586.101 210.742 L 586.101 210.742 z M 594.39 206.419 L 594.39 212.99 L 592.303 212.99 L 592.303 213.843 L 597.479 213.843 L 597.479 212.99 L 595.404 212.99 L 595.404 205.566 L 592.799 205.566 L 592.799 206.419 L 594.39 206.419 L 594.39 206.419 z M 600.2 211.041 L 604.257 211.041 L 604.269 210.569 L 604.084 209.243 L 603.577 208.252 L 602.77 207.652 L 601.698 207.433 L 600.649 207.664 L 599.842 208.309 L 599.323 209.358 L 599.139 210.742 L 599.312 212.16 L 599.831 213.197 L 600.626 213.843 L 601.664 214.062 L 602.563 213.912 L 603.3 213.52 L 603.842 212.897 L 604.153 212.067 L 603.151 212.067 L 602.943 212.528 L 602.643 212.874 L 601.79 213.151 L 601.133 213.024 L 600.638 212.621 L 600.315 211.964 L 600.2 211.076 L 600.2 211.041 L 600.2 211.041 z M 600.2 210.188 L 600.326 209.393 L 600.638 208.805 L 601.11 208.448 L 601.733 208.321 L 602.344 208.448 L 602.816 208.805 L 603.104 209.393 L 603.208 210.188 L 600.2 210.188 L 600.2 210.188 z M 612.903 213.843 L 613.975 213.843 L 613.975 210.085 L 617.179 210.085 L 617.179 213.843 L 618.24 213.843 L 618.24 205.843 L 617.179 205.843 L 617.179 209.105 L 613.975 209.105 L 613.975 205.843 L 612.903 205.843 L 612.903 213.843 L 612.903 213.843 z M 623.808 213.036 L 623.808 213.07 L 623.865 213.462 L 624.038 213.739 L 624.764 213.958 L 625.329 213.866 L 625.329 213.082 L 625.087 213.116 L 624.764 212.966 L 624.707 212.505 L 624.707 209.301 L 624.568 208.482 L 624.165 207.906 L 623.462 207.56 L 622.471 207.433 L 621.502 207.572 L 620.788 207.964 L 620.338 208.575 L 620.188 209.381 L 620.188 209.451 L 621.099 209.451 L 621.179 208.966 L 621.433 208.621 L 621.848 208.413 L 622.436 208.332 L 623.001 208.39 L 623.404 208.563 L 623.646 208.863 L 623.727 209.278 L 623.681 209.762 L 623.496 210.004 L 623.035 210.119 L 622.171 210.211 L 621.179 210.419 L 620.476 210.788 L 620.061 211.364 L 619.935 212.217 L 620.05 212.978 L 620.407 213.543 L 620.983 213.9 L 621.779 214.027 L 622.851 213.785 L 623.808 213.036 L 623.808 213.036 z M 623.692 211.675 L 623.554 212.275 L 623.185 212.736 L 622.632 213.036 L 621.952 213.139 L 621.514 213.082 L 621.203 212.897 L 621.007 212.575 L 620.949 212.125 L 620.995 211.721 L 621.179 211.433 L 621.917 211.111 L 622.851 210.972 L 623.692 210.696 L 623.692 211.675 L 623.692 211.675 z M 631.842 207.652 L 630.828 207.652 L 630.828 211.226 L 630.713 212.056 L 630.378 212.655 L 629.86 213.024 L 629.18 213.139 L 628.638 213.047 L 628.292 212.771 L 628.096 212.298 L 628.05 211.629 L 628.05 207.652 L 627.035 207.652 L 627.035 211.721 L 627.07 212.54 L 627.289 213.22 L 627.958 213.843 L 629.03 214.062 L 629.606 213.981 L 630.102 213.773 L 630.528 213.416 L 630.874 212.897 L 630.874 213.843 L 631.842 213.843 L 631.842 207.652 L 631.842 207.652 z M 635.37 208.724 L 635.37 211.825 L 635.439 212.828 L 635.762 213.52 L 636.407 213.923 L 637.502 214.062 L 638.701 214.004 L 638.701 213.128 L 637.825 213.197 L 637.03 213.105 L 636.603 212.817 L 636.419 212.332 L 636.384 211.652 L 636.384 208.724 L 638.701 208.724 L 638.701 207.86 L 636.384 207.86 L 636.384 206.05 L 635.37 206.05 L 635.37 207.86 L 633.618 207.86 L 633.618 208.724 L 635.37 208.724 L 635.37 208.724 z" stroke="none" fill-rule="evenodd" fill="rgb(0, 0, 0)"/></g><g stroke="rgb(0, 0, 0)" stroke-width="0.13" stroke-linecap="butt" stroke-linejoin="miter" fill="none"><path d="M 523.023 241.485 L 528.165 241.485 L 528.165 240.517 L 524.084 240.517 L 524.084 233.485 L 523.023 233.485 L 523.023 241.485 L 523.023 241.485 z M 530.805 238.684 L 534.862 238.684 L 534.874 238.211 L 534.689 236.886 L 534.182 235.894 L 533.375 235.295 L 532.303 235.076 L 531.254 235.306 L 530.447 235.952 L 529.928 237.001 L 529.744 238.384 L 529.917 239.802 L 530.436 240.84 L 531.231 241.485 L 532.268 241.704 L 533.168 241.554 L 533.905 241.162 L 534.447 240.54 L 534.758 239.71 L 533.755 239.71 L 533.548 240.171 L 533.248 240.517 L 532.395 240.794 L 531.738 240.667 L 531.243 240.263 L 530.92 239.606 L 530.805 238.719 L 530.805 238.684 L 530.805 238.684 z M 530.805 237.831 L 530.931 237.036 L 531.243 236.448 L 531.715 236.09 L 532.338 235.964 L 532.949 236.09 L 533.421 236.448 L 533.709 237.036 L 533.813 237.831 L 530.805 237.831 L 530.805 237.831 z M 538.263 236.367 L 538.263 241.485 L 539.277 241.485 L 539.277 236.367 L 541.583 236.367 L 541.583 235.502 L 539.277 235.502 L 539.277 235.122 L 539.358 234.661 L 539.623 234.35 L 540.073 234.165 L 540.718 234.096 L 541.583 234.142 L 541.583 233.266 L 540.488 233.208 L 539.496 233.312 L 538.805 233.623 L 538.39 234.165 L 538.263 234.938 L 538.263 235.502 L 536.407 235.502 L 536.407 236.367 L 538.263 236.367 L 538.263 236.367 z M 545.156 236.367 L 545.156 239.468 L 545.225 240.471 L 545.548 241.162 L 546.194 241.566 L 547.289 241.704 L 548.488 241.647 L 548.488 240.77 L 547.612 240.84 L 546.816 240.747 L 546.39 240.459 L 546.205 239.975 L 546.171 239.295 L 546.171 236.367 L 548.488 236.367 L 548.488 235.502 L 546.171 235.502 L 546.171 233.693 L 545.156 233.693 L 545.156 235.502 L 543.404 235.502 L 543.404 236.367 L 545.156 236.367 L 545.156 236.367 z M 557.49 241.485 L 558.563 241.485 L 558.563 238.108 L 559.658 238.108 L 560.465 238.142 L 560.972 238.304 L 561.248 238.684 L 561.364 239.364 L 561.421 240.402 L 561.491 241.082 L 561.629 241.485 L 562.839 241.485 L 562.839 241.266 L 562.574 240.943 L 562.482 240.344 L 562.401 239.053 L 562.205 238.096 L 561.94 237.796 L 561.525 237.577 L 561.986 237.289 L 562.309 236.886 L 562.516 236.379 L 562.586 235.768 L 562.424 234.799 L 561.963 234.073 L 561.202 233.635 L 560.165 233.485 L 557.49 233.485 L 557.49 241.485 L 557.49 241.485 z M 559.865 234.465 L 560.568 234.534 L 561.064 234.753 L 561.375 235.157 L 561.479 235.791 L 561.364 236.459 L 561.052 236.863 L 560.522 237.07 L 559.796 237.128 L 558.563 237.128 L 558.563 234.465 L 559.865 234.465 L 559.865 234.465 z M 565.502 238.684 L 569.56 238.684 L 569.571 238.211 L 569.387 236.886 L 568.88 235.894 L 568.073 235.295 L 567.001 235.076 L 565.952 235.306 L 565.145 235.952 L 564.626 237.001 L 564.442 238.384 L 564.614 239.802 L 565.133 240.84 L 565.929 241.485 L 566.966 241.704 L 567.865 241.554 L 568.603 241.162 L 569.145 240.54 L 569.456 239.71 L 568.453 239.71 L 568.246 240.171 L 567.946 240.517 L 567.093 240.794 L 566.436 240.667 L 565.94 240.263 L 565.617 239.606 L 565.502 238.719 L 565.502 238.684 L 565.502 238.684 z M 565.502 237.831 L 565.629 237.036 L 565.94 236.448 L 566.413 236.09 L 567.035 235.964 L 567.646 236.09 L 568.119 236.448 L 568.407 237.036 L 568.511 237.831 L 565.502 237.831 L 565.502 237.831 z M 575.231 240.678 L 575.231 240.713 L 575.289 241.105 L 575.462 241.381 L 576.188 241.6 L 576.753 241.508 L 576.753 240.724 L 576.511 240.759 L 576.188 240.609 L 576.13 240.148 L 576.13 236.943 L 575.992 236.125 L 575.589 235.549 L 574.885 235.203 L 573.894 235.076 L 572.926 235.214 L 572.211 235.606 L 571.761 236.217 L 571.612 237.024 L 571.612 237.093 L 572.522 237.093 L 572.603 236.609 L 572.857 236.263 L 573.272 236.056 L 573.859 235.975 L 574.424 236.033 L 574.828 236.206 L 575.07 236.505 L 575.151 236.92 L 575.104 237.404 L 574.92 237.647 L 574.459 237.762 L 573.594 237.854 L 572.603 238.062 L 571.9 238.43 L 571.485 239.007 L 571.358 239.86 L 571.473 240.621 L 571.831 241.185 L 572.407 241.543 L 573.202 241.67 L 574.274 241.428 L 575.231 240.678 L 575.231 240.678 z M 575.116 239.318 L 574.978 239.917 L 574.609 240.379 L 574.055 240.678 L 573.375 240.782 L 572.937 240.724 L 572.626 240.54 L 572.43 240.217 L 572.372 239.768 L 572.419 239.364 L 572.603 239.076 L 573.341 238.753 L 574.274 238.615 L 575.116 238.338 L 575.116 239.318 L 575.116 239.318 z M 578.874 241.485 L 579.888 241.485 L 579.888 237.946 L 579.992 237.093 L 580.303 236.482 L 580.81 236.113 L 581.491 235.987 L 581.998 236.067 L 582.378 236.298 L 582.609 236.69 L 582.689 237.22 L 583.715 237.22 L 583.577 236.286 L 583.197 235.618 L 582.563 235.214 L 581.698 235.076 L 581.11 235.168 L 580.603 235.399 L 580.153 235.791 L 579.796 236.321 L 579.796 235.295 L 578.874 235.295 L 578.874 241.485 L 578.874 241.485 z M 592.004 238.442 L 592.165 239.883 L 592.672 240.909 L 593.525 241.497 L 594.759 241.704 L 595.981 241.497 L 596.834 240.909 L 597.341 239.894 L 597.514 238.442 L 597.514 233.485 L 596.442 233.485 L 596.442 238.5 L 596.338 239.479 L 596.027 240.183 L 595.496 240.598 L 594.759 240.736 L 593.998 240.598 L 593.468 240.183 L 593.156 239.491 L 593.064 238.5 L 593.064 233.485 L 592.004 233.485 L 592.004 238.442 L 592.004 238.442 z M 600.269 236.252 L 600.269 235.295 L 599.254 235.295 L 599.254 243.883 L 600.269 243.883 L 600.269 240.54 L 600.626 241.082 L 601.03 241.439 L 602.044 241.704 L 603.012 241.485 L 603.773 240.828 L 604.269 239.791 L 604.453 238.384 L 604.269 236.99 L 603.773 235.952 L 603.012 235.306 L 602.044 235.076 L 601.491 235.145 L 601.018 235.364 L 600.615 235.733 L 600.269 236.252 L 600.269 236.252 z M 601.871 240.794 L 601.191 240.644 L 600.695 240.183 L 600.384 239.433 L 600.28 238.384 L 600.384 237.347 L 600.695 236.598 L 601.191 236.148 L 601.871 235.987 L 602.494 236.148 L 602.989 236.609 L 603.301 237.358 L 603.416 238.384 L 603.301 239.422 L 602.989 240.183 L 602.494 240.644 L 601.871 240.794 L 601.871 240.794 z M 607.208 236.252 L 607.208 235.295 L 606.194 235.295 L 606.194 243.883 L 607.208 243.883 L 607.208 240.54 L 607.566 241.082 L 607.969 241.439 L 608.984 241.704 L 609.952 241.485 L 610.713 240.828 L 611.208 239.791 L 611.393 238.384 L 611.208 236.99 L 610.713 235.952 L 609.952 235.306 L 608.984 235.076 L 608.43 235.145 L 607.958 235.364 L 607.554 235.733 L 607.208 236.252 L 607.208 236.252 z M 608.811 240.794 L 608.13 240.644 L 607.635 240.183 L 607.324 239.433 L 607.22 238.384 L 607.324 237.347 L 607.635 236.598 L 608.13 236.148 L 608.811 235.987 L 609.433 236.148 L 609.929 236.609 L 610.24 237.358 L 610.355 238.384 L 610.24 239.422 L 609.929 240.183 L 609.433 240.644 L 608.811 240.794 L 608.811 240.794 z M 614.079 238.684 L 618.136 238.684 L 618.148 238.211 L 617.963 236.886 L 617.456 235.894 L 616.649 235.295 L 615.577 235.076 L 614.528 235.306 L 613.721 235.952 L 613.203 237.001 L 613.018 238.384 L 613.191 239.802 L 613.71 240.84 L 614.505 241.485 L 615.543 241.704 L 616.442 241.554 L 617.18 241.162 L 617.721 240.54 L 618.033 239.71 L 617.03 239.71 L 616.822 240.171 L 616.522 240.517 L 615.669 240.794 L 615.012 240.667 L 614.517 240.263 L 614.194 239.606 L 614.079 238.719 L 614.079 238.684 L 614.079 238.684 z M 614.079 237.831 L 614.205 237.036 L 614.517 236.448 L 614.989 236.09 L 615.612 235.964 L 616.223 236.09 L 616.695 236.448 L 616.984 237.036 L 617.087 237.831 L 614.079 237.831 L 614.079 237.831 z M 620.511 241.485 L 621.525 241.485 L 621.525 237.946 L 621.629 237.093 L 621.94 236.482 L 622.448 236.113 L 623.128 235.987 L 623.635 236.067 L 624.015 236.298 L 624.246 236.69 L 624.327 237.22 L 625.352 237.22 L 625.214 236.286 L 624.834 235.618 L 624.2 235.214 L 623.335 235.076 L 622.747 235.168 L 622.24 235.399 L 621.791 235.791 L 621.433 236.321 L 621.433 235.295 L 620.511 235.295 L 620.511 241.485 L 620.511 241.485 z M 632.891 241.485 L 633.952 241.485 L 634.793 239.134 L 637.987 239.134 L 638.828 241.485 L 639.912 241.485 L 636.984 233.474 L 635.808 233.474 L 632.891 241.485 L 632.891 241.485 z M 635.162 238.154 L 636.396 234.626 L 637.629 238.154 L 635.162 238.154 L 635.162 238.154 z M 641.94 238.845 L 644.73 238.845 L 644.73 237.935 L 641.94 237.935 L 641.94 238.845 L 641.94 238.845 z M 646.77 241.485 L 647.831 241.485 L 648.672 239.134 L 651.866 239.134 L 652.707 241.485 L 653.791 241.485 L 650.863 233.474 L 649.687 233.474 L 646.77 241.485 L 646.77 241.485 z M 649.041 238.154 L 650.275 234.626 L 651.508 238.154 L 649.041 238.154 L 649.041 238.154 z M 655.209 241.485 L 656.223 241.485 L 656.223 237.946 L 656.327 237.093 L 656.638 236.482 L 657.145 236.113 L 657.825 235.987 L 658.332 236.067 L 658.713 236.298 L 658.943 236.69 L 659.024 237.22 L 660.05 237.22 L 659.912 236.286 L 659.531 235.618 L 658.897 235.214 L 658.033 235.076 L 657.445 235.168 L 656.938 235.399 L 656.488 235.791 L 656.131 236.321 L 656.131 235.295 L 655.209 235.295 L 655.209 241.485 L 655.209 241.485 z M 661.364 241.485 L 662.298 241.485 L 662.298 237.347 L 662.356 236.724 L 662.528 236.275 L 662.794 236.01 L 663.139 235.906 L 663.416 235.998 L 663.601 236.229 L 663.693 236.621 L 663.727 237.139 L 663.727 241.485 L 664.603 241.485 L 664.603 237.347 L 664.661 236.736 L 664.834 236.286 L 665.111 236.01 L 665.456 235.906 L 665.733 235.998 L 665.918 236.229 L 666.033 237.139 L 666.033 241.485 L 666.966 241.485 L 666.966 237.208 L 666.909 236.321 L 666.724 235.641 L 666.356 235.226 L 665.756 235.076 L 665.053 235.306 L 664.511 235.975 L 664.085 235.318 L 663.37 235.076 L 662.713 235.306 L 662.263 235.952 L 662.263 235.295 L 661.364 235.295 L 661.364 241.485 L 661.364 241.485 z" stroke="none" fill-rule="evenodd" fill="rgb(0, 0, 0)"/></g><g stroke="rgb(0, 0, 0)" stroke-width="0.13" stroke-linecap="butt" stroke-linejoin="miter" fill="none"><path d="M 954.833 163.843 L 955.894 163.843 L 955.894 156.811 L 958.315 156.811 L 958.315 155.842 L 952.401 155.842 L 952.401 156.811 L 954.833 156.811 L 954.833 163.843 L 954.833 163.843 z M 960.297 163.843 L 961.312 163.843 L 961.312 160.304 L 961.415 159.451 L 961.727 158.84 L 962.234 158.471 L 962.914 158.344 L 963.421 158.425 L 963.802 158.655 L 964.032 159.047 L 964.113 159.577 L 965.139 159.577 L 965 158.644 L 964.62 157.975 L 963.986 157.572 L 963.121 157.433 L 962.534 157.526 L 962.026 157.756 L 961.577 158.148 L 961.219 158.678 L 961.219 157.652 L 960.297 157.652 L 960.297 163.843 L 960.297 163.843 z M 969.957 162.99 L 969.957 157.86 L 967.352 157.86 L 967.352 158.724 L 968.943 158.724 L 968.943 162.99 L 966.868 162.99 L 966.868 163.843 L 972.055 163.843 L 972.055 162.99 L 969.957 162.99 L 969.957 162.99 z M 969.992 155.566 L 968.92 155.566 L 968.92 156.719 L 969.992 156.719 L 969.992 155.566 L 969.992 155.566 z M 977.473 163.036 L 977.473 163.07 L 977.531 163.462 L 977.704 163.739 L 978.43 163.958 L 978.995 163.866 L 978.995 163.082 L 978.753 163.116 L 978.43 162.966 L 978.372 162.505 L 978.372 159.301 L 978.234 158.482 L 977.83 157.906 L 977.127 157.56 L 976.136 157.433 L 975.168 157.572 L 974.453 157.964 L 974.003 158.574 L 973.854 159.381 L 973.854 159.451 L 974.764 159.451 L 974.845 158.966 L 975.098 158.621 L 975.513 158.413 L 976.101 158.332 L 976.666 158.39 L 977.07 158.563 L 977.312 158.863 L 977.392 159.278 L 977.346 159.762 L 977.162 160.004 L 976.701 160.119 L 975.836 160.211 L 974.845 160.419 L 974.142 160.788 L 973.727 161.364 L 973.6 162.217 L 973.715 162.978 L 974.073 163.543 L 974.649 163.9 L 975.444 164.027 L 976.516 163.785 L 977.473 163.036 L 977.473 163.036 z M 977.358 161.675 L 977.219 162.275 L 976.851 162.736 L 976.297 163.036 L 975.617 163.139 L 975.179 163.082 L 974.868 162.897 L 974.672 162.575 L 974.614 162.125 L 974.66 161.721 L 974.845 161.433 L 975.583 161.111 L 976.516 160.972 L 977.358 160.696 L 977.358 161.675 L 977.358 161.675 z M 980.735 163.843 L 981.75 163.843 L 981.75 160.269 L 981.854 159.451 L 982.188 158.851 L 982.707 158.482 L 983.398 158.344 L 983.952 158.459 L 984.297 158.77 L 984.47 159.289 L 984.528 159.981 L 984.528 163.843 L 985.542 163.843 L 985.542 159.773 L 985.496 158.955 L 985.289 158.275 L 984.609 157.652 L 983.548 157.433 L 982.96 157.514 L 982.464 157.733 L 982.038 158.102 L 981.704 158.598 L 981.704 157.652 L 980.735 157.652 L 980.735 163.843 L 980.735 163.843 z M 992.493 163.566 L 992.493 157.652 L 991.525 157.652 L 991.525 158.655 L 990.73 157.745 L 990.245 157.514 L 989.704 157.433 L 988.724 157.664 L 987.963 158.309 L 987.467 159.347 L 987.294 160.742 L 987.467 162.148 L 987.963 163.185 L 988.724 163.843 L 989.704 164.062 L 990.257 163.981 L 990.718 163.773 L 991.525 162.897 L 991.525 163.773 L 991.433 164.465 L 991.179 164.961 L 990.695 165.249 L 989.969 165.353 L 989.335 165.283 L 988.885 165.111 L 988.62 164.811 L 988.539 164.407 L 987.56 164.407 L 987.56 164.453 L 987.709 165.191 L 988.171 165.745 L 988.908 166.102 L 989.911 166.229 L 991.11 166.056 L 991.905 165.572 L 992.355 164.73 L 992.493 163.566 L 992.493 163.566 z M 988.344 160.742 L 988.447 159.716 L 988.758 158.955 L 989.243 158.505 L 989.888 158.344 L 990.568 158.505 L 991.076 158.955 L 991.387 159.716 L 991.502 160.742 L 991.387 161.791 L 991.076 162.54 L 990.568 163.001 L 989.888 163.151 L 989.243 163.001 L 988.758 162.54 L 988.447 161.779 L 988.344 160.742 L 988.344 160.742 z M 996.632 156.419 L 996.632 162.99 L 994.545 162.99 L 994.545 163.843 L 999.721 163.843 L 999.721 162.99 L 997.646 162.99 L 997.646 155.566 L 995.041 155.566 L 995.041 156.419 L 996.632 156.419 L 996.632 156.419 z M 1002.44 161.041 L 1006.5 161.041 L 1006.51 160.569 L 1006.33 159.243 L 1005.82 158.252 L 1005.01 157.652 L 1003.94 157.433 L 1002.89 157.664 L 1002.08 158.309 L 1001.57 159.358 L 1001.38 160.742 L 1001.55 162.16 L 1002.07 163.197 L 1002.87 163.843 L 1003.91 164.062 L 1004.8 163.912 L 1005.54 163.52 L 1006.08 162.897 L 1006.4 162.067 L 1005.39 162.067 L 1005.19 162.528 L 1004.89 162.874 L 1004.03 163.151 L 1003.38 163.024 L 1002.88 162.621 L 1002.56 161.964 L 1002.44 161.076 L 1002.44 161.041 L 1002.44 161.041 z M 1002.44 160.188 L 1002.57 159.393 L 1002.88 158.805 L 1003.35 158.448 L 1003.97 158.321 L 1004.59 158.448 L 1005.06 158.805 L 1005.35 159.393 L 1005.45 160.188 L 1002.44 160.188 L 1002.44 160.188 z M 1019.26 159.52 L 1020.07 158.851 L 1020.27 158.402 L 1020.34 157.848 L 1020.19 156.984 L 1019.74 156.361 L 1019.02 155.981 L 1018 155.842 L 1015.16 155.842 L 1015.16 163.843 L 1018.16 163.843 L 1019.24 163.681 L 1020.03 163.208 L 1020.53 162.459 L 1020.7 161.445 L 1020.6 160.765 L 1020.32 160.2 L 1019.87 159.785 L 1019.26 159.52 L 1019.26 159.52 z M 1017.78 159.162 L 1016.22 159.162 L 1016.22 156.799 L 1017.88 156.799 L 1018.5 156.868 L 1018.94 157.076 L 1019.2 157.433 L 1019.29 157.964 L 1019.19 158.494 L 1018.91 158.863 L 1018.44 159.093 L 1017.78 159.162 L 1017.78 159.162 z M 1018.04 162.886 L 1016.22 162.886 L 1016.22 160.131 L 1017.93 160.131 L 1018.66 160.211 L 1019.18 160.453 L 1019.49 160.868 L 1019.59 161.468 L 1019.49 162.102 L 1019.2 162.54 L 1018.72 162.805 L 1018.04 162.886 L 1018.04 162.886 z M 1026.05 163.036 L 1026.05 163.07 L 1026.11 163.462 L 1026.28 163.739 L 1027.01 163.958 L 1027.57 163.866 L 1027.57 163.082 L 1027.33 163.116 L 1027.01 162.966 L 1026.95 162.505 L 1026.95 159.301 L 1026.81 158.482 L 1026.41 157.906 L 1025.7 157.56 L 1024.71 157.433 L 1023.74 157.572 L 1023.03 157.964 L 1022.58 158.574 L 1022.43 159.381 L 1022.43 159.451 L 1023.34 159.451 L 1023.42 158.966 L 1023.68 158.621 L 1024.09 158.413 L 1024.68 158.332 L 1025.24 158.39 L 1025.65 158.563 L 1025.89 158.863 L 1025.97 159.278 L 1025.92 159.762 L 1025.74 160.004 L 1025.28 160.119 L 1024.41 160.211 L 1023.42 160.419 L 1022.72 160.788 L 1022.3 161.364 L 1022.18 162.217 L 1022.29 162.978 L 1022.65 163.543 L 1023.23 163.9 L 1024.02 164.027 L 1025.09 163.785 L 1026.05 163.036 L 1026.05 163.036 z M 1025.93 161.675 L 1025.8 162.275 L 1025.43 162.736 L 1024.87 163.036 L 1024.19 163.139 L 1023.76 163.082 L 1023.44 162.897 L 1023.25 162.575 L 1023.19 162.125 L 1023.24 161.721 L 1023.42 161.433 L 1024.16 161.111 L 1025.09 160.972 L 1025.93 160.696 L 1025.93 161.675 L 1025.93 161.675 z M 1032.34 160.234 L 1031.36 160.004 L 1030.64 159.739 L 1030.4 159.197 L 1030.46 158.817 L 1030.71 158.54 L 1031.1 158.367 L 1031.66 158.298 L 1032.21 158.367 L 1032.63 158.574 L 1032.91 158.886 L 1033.02 159.301 L 1034.02 159.301 L 1034.02 159.278 L 1033.84 158.528 L 1033.37 157.94 L 1032.63 157.572 L 1031.66 157.433 L 1030.68 157.572 L 1029.97 157.952 L 1029.52 158.517 L 1029.38 159.232 L 1029.48 159.923 L 1029.81 160.407 L 1030.34 160.753 L 1031.11 160.995 L 1032.24 161.272 L 1032.93 161.56 L 1033.12 161.791 L 1033.19 162.136 L 1033.08 162.563 L 1032.8 162.886 L 1032.36 163.093 L 1031.76 163.162 L 1031.12 163.093 L 1030.66 162.851 L 1030.35 162.459 L 1030.22 161.917 L 1029.24 161.917 L 1029.4 162.84 L 1029.88 163.508 L 1030.63 163.912 L 1031.66 164.062 L 1032.75 163.912 L 1033.54 163.508 L 1034.03 162.863 L 1034.2 162.021 L 1034.07 161.295 L 1033.72 160.799 L 1033.13 160.477 L 1032.34 160.234 L 1032.34 160.234 z" stroke="none" fill-rule="evenodd" fill="rgb(0, 0, 0)"/></g><g stroke="rgb(0, 0, 0)" stroke-width="0.13" stroke-linecap="butt" stroke-linejoin="miter" fill="none"><path d="M 953.023 191.485 L 958.165 191.485 L 958.165 190.517 L 954.084 190.517 L 954.084 183.485 L 953.023 183.485 L 953.023 191.485 L 953.023 191.485 z M 960.804 188.684 L 964.862 188.684 L 964.874 188.211 L 964.689 186.886 L 964.182 185.894 L 963.375 185.295 L 962.303 185.076 L 961.254 185.306 L 960.447 185.952 L 959.928 187.001 L 959.744 188.384 L 959.917 189.802 L 960.436 190.84 L 961.231 191.485 L 962.268 191.704 L 963.168 191.554 L 963.905 191.162 L 964.447 190.54 L 964.758 189.71 L 963.755 189.71 L 963.548 190.171 L 963.248 190.517 L 962.395 190.794 L 961.738 190.667 L 961.242 190.263 L 960.92 189.606 L 960.804 188.719 L 960.804 188.684 L 960.804 188.684 z M 960.804 187.831 L 960.931 187.036 L 961.242 186.448 L 961.715 186.09 L 962.338 185.964 L 962.949 186.09 L 963.421 186.448 L 963.709 187.036 L 963.813 187.831 L 960.804 187.831 L 960.804 187.831 z M 968.263 186.367 L 968.263 191.485 L 969.277 191.485 L 969.277 186.367 L 971.583 186.367 L 971.583 185.502 L 969.277 185.502 L 969.277 185.122 L 969.358 184.661 L 969.623 184.35 L 970.073 184.165 L 970.718 184.096 L 971.583 184.142 L 971.583 183.266 L 970.487 183.208 L 969.496 183.312 L 968.805 183.623 L 968.39 184.165 L 968.263 184.938 L 968.263 185.502 L 966.407 185.502 L 966.407 186.367 L 968.263 186.367 L 968.263 186.367 z M 975.156 186.367 L 975.156 189.468 L 975.225 190.471 L 975.548 191.162 L 976.194 191.566 L 977.289 191.704 L 978.488 191.647 L 978.488 190.77 L 977.611 190.84 L 976.816 190.747 L 976.39 190.459 L 976.205 189.975 L 976.171 189.295 L 976.171 186.367 L 978.488 186.367 L 978.488 185.502 L 976.171 185.502 L 976.171 183.693 L 975.156 183.693 L 975.156 185.502 L 973.404 185.502 L 973.404 186.367 L 975.156 186.367 L 975.156 186.367 z M 987.49 191.485 L 988.563 191.485 L 988.563 188.108 L 989.658 188.108 L 990.465 188.142 L 990.972 188.304 L 991.248 188.684 L 991.364 189.364 L 991.421 190.402 L 991.49 191.082 L 991.629 191.485 L 992.839 191.485 L 992.839 191.266 L 992.574 190.943 L 992.482 190.344 L 992.401 189.053 L 992.205 188.096 L 991.94 187.796 L 991.525 187.577 L 991.986 187.289 L 992.309 186.886 L 992.516 186.378 L 992.586 185.768 L 992.424 184.799 L 991.963 184.073 L 991.202 183.635 L 990.165 183.485 L 987.49 183.485 L 987.49 191.485 L 987.49 191.485 z M 989.865 184.465 L 990.568 184.534 L 991.064 184.753 L 991.375 185.157 L 991.479 185.791 L 991.364 186.459 L 991.052 186.863 L 990.522 187.07 L 989.796 187.128 L 988.563 187.128 L 988.563 184.465 L 989.865 184.465 L 989.865 184.465 z M 995.502 188.684 L 999.56 188.684 L 999.571 188.211 L 999.387 186.886 L 998.88 185.894 L 998.073 185.295 L 997.001 185.076 L 995.952 185.306 L 995.145 185.952 L 994.626 187.001 L 994.441 188.384 L 994.614 189.802 L 995.133 190.84 L 995.929 191.485 L 996.966 191.704 L 997.865 191.554 L 998.603 191.162 L 999.145 190.54 L 999.456 189.71 L 998.453 189.71 L 998.246 190.171 L 997.946 190.517 L 997.093 190.794 L 996.436 190.667 L 995.94 190.263 L 995.617 189.606 L 995.502 188.719 L 995.502 188.684 L 995.502 188.684 z M 995.502 187.831 L 995.629 187.036 L 995.94 186.448 L 996.413 186.09 L 997.035 185.964 L 997.646 186.09 L 998.119 186.448 L 998.407 187.036 L 998.511 187.831 L 995.502 187.831 L 995.502 187.831 z M 1005.23 190.678 L 1005.23 190.713 L 1005.29 191.105 L 1005.46 191.381 L 1006.19 191.6 L 1006.75 191.508 L 1006.75 190.724 L 1006.51 190.759 L 1006.19 190.609 L 1006.13 190.148 L 1006.13 186.943 L 1005.99 186.125 L 1005.59 185.549 L 1004.89 185.203 L 1003.89 185.076 L 1002.93 185.214 L 1002.21 185.606 L 1001.76 186.217 L 1001.61 187.024 L 1001.61 187.093 L 1002.52 187.093 L 1002.6 186.609 L 1002.86 186.263 L 1003.27 186.056 L 1003.86 185.975 L 1004.42 186.033 L 1004.83 186.206 L 1005.07 186.505 L 1005.15 186.92 L 1005.1 187.404 L 1004.92 187.647 L 1004.46 187.762 L 1003.59 187.854 L 1002.6 188.062 L 1001.9 188.43 L 1001.48 189.007 L 1001.36 189.86 L 1001.47 190.621 L 1001.83 191.185 L 1002.41 191.543 L 1003.2 191.67 L 1004.27 191.428 L 1005.23 190.678 L 1005.23 190.678 z M 1005.12 189.318 L 1004.98 189.917 L 1004.61 190.379 L 1004.06 190.678 L 1003.38 190.782 L 1002.94 190.724 L 1002.63 190.54 L 1002.43 190.217 L 1002.37 189.768 L 1002.42 189.364 L 1002.6 189.076 L 1003.34 188.753 L 1004.27 188.615 L 1005.12 188.338 L 1005.12 189.318 L 1005.12 189.318 z M 1008.87 191.485 L 1009.89 191.485 L 1009.89 187.946 L 1009.99 187.093 L 1010.3 186.482 L 1010.81 186.113 L 1011.49 185.987 L 1012 186.067 L 1012.38 186.298 L 1012.61 186.69 L 1012.69 187.22 L 1013.72 187.22 L 1013.58 186.286 L 1013.2 185.618 L 1012.56 185.214 L 1011.7 185.076 L 1011.11 185.168 L 1010.6 185.399 L 1010.15 185.791 L 1009.8 186.321 L 1009.8 185.295 L 1008.87 185.295 L 1008.87 191.485 L 1008.87 191.485 z M 1022.42 191.485 L 1027.56 191.485 L 1027.56 190.517 L 1023.48 190.517 L 1023.48 183.485 L 1022.42 183.485 L 1022.42 191.485 L 1022.42 191.485 z M 1029.01 188.396 L 1029.2 189.802 L 1029.73 190.84 L 1030.57 191.485 L 1031.7 191.704 L 1032.82 191.485 L 1033.66 190.851 L 1034.19 189.814 L 1034.38 188.396 L 1034.19 186.989 L 1033.66 185.94 L 1032.82 185.306 L 1031.7 185.076 L 1030.57 185.306 L 1029.73 185.952 L 1029.2 186.989 L 1029.01 188.396 L 1029.01 188.396 z M 1030.05 188.384 L 1030.15 187.347 L 1030.48 186.598 L 1030.99 186.136 L 1031.7 185.975 L 1032.39 186.136 L 1032.91 186.586 L 1033.23 187.347 L 1033.35 188.384 L 1033.23 189.433 L 1032.91 190.194 L 1032.39 190.655 L 1031.7 190.805 L 1030.99 190.655 L 1030.48 190.194 L 1030.15 189.433 L 1030.05 188.384 L 1030.05 188.384 z M 1037.72 191.485 L 1038.64 186.229 L 1039.56 191.485 L 1040.53 191.485 L 1042.05 185.295 L 1041.07 185.295 L 1040.04 190.551 L 1039.13 185.295 L 1038.13 185.295 L 1037.22 190.551 L 1036.19 185.295 L 1035.23 185.295 L 1036.75 191.485 L 1037.72 191.485 L 1037.72 191.485 z M 1044.08 188.684 L 1048.14 188.684 L 1048.15 188.211 L 1047.96 186.886 L 1047.46 185.894 L 1046.65 185.295 L 1045.58 185.076 L 1044.53 185.306 L 1043.72 185.952 L 1043.2 187.001 L 1043.02 188.384 L 1043.19 189.802 L 1043.71 190.84 L 1044.51 191.485 L 1045.54 191.704 L 1046.44 191.554 L 1047.18 191.162 L 1047.72 190.54 L 1048.03 189.71 L 1047.03 189.71 L 1046.82 190.171 L 1046.52 190.517 L 1045.67 190.794 L 1045.01 190.667 L 1044.52 190.263 L 1044.19 189.606 L 1044.08 188.719 L 1044.08 188.684 L 1044.08 188.684 z M 1044.08 187.831 L 1044.21 187.036 L 1044.52 186.448 L 1044.99 186.09 L 1045.61 185.964 L 1046.22 186.09 L 1046.7 186.448 L 1046.98 187.036 L 1047.09 187.831 L 1044.08 187.831 L 1044.08 187.831 z M 1050.51 191.485 L 1051.53 191.485 L 1051.53 187.946 L 1051.63 187.093 L 1051.94 186.482 L 1052.45 186.113 L 1053.13 185.987 L 1053.64 186.067 L 1054.02 186.298 L 1054.25 186.69 L 1054.33 187.22 L 1055.35 187.22 L 1055.21 186.286 L 1054.83 185.618 L 1054.2 185.214 L 1053.34 185.076 L 1052.75 185.168 L 1052.24 185.399 L 1051.79 185.791 L 1051.43 186.321 L 1051.43 185.295 L 1050.51 185.295 L 1050.51 191.485 L 1050.51 191.485 z M 1062.89 191.485 L 1063.95 191.485 L 1064.79 189.134 L 1067.99 189.134 L 1068.83 191.485 L 1069.91 191.485 L 1066.98 183.474 L 1065.81 183.474 L 1062.89 191.485 L 1062.89 191.485 z M 1065.16 188.154 L 1066.4 184.626 L 1067.63 188.154 L 1065.16 188.154 L 1065.16 188.154 z M 1071.94 188.845 L 1074.73 188.845 L 1074.73 187.935 L 1071.94 187.935 L 1071.94 188.845 L 1071.94 188.845 z M 1076.77 191.485 L 1077.83 191.485 L 1078.67 189.134 L 1081.87 189.134 L 1082.71 191.485 L 1083.79 191.485 L 1080.86 183.474 L 1079.69 183.474 L 1076.77 191.485 L 1076.77 191.485 z M 1079.04 188.154 L 1080.28 184.626 L 1081.51 188.154 L 1079.04 188.154 L 1079.04 188.154 z M 1085.21 191.485 L 1086.22 191.485 L 1086.22 187.946 L 1086.33 187.093 L 1086.64 186.482 L 1087.15 186.113 L 1087.83 185.987 L 1088.33 186.067 L 1088.71 186.298 L 1088.94 186.69 L 1089.02 187.22 L 1090.05 187.22 L 1089.91 186.286 L 1089.53 185.618 L 1088.9 185.214 L 1088.03 185.076 L 1087.45 185.168 L 1086.94 185.399 L 1086.49 185.791 L 1086.13 186.321 L 1086.13 185.295 L 1085.21 185.295 L 1085.21 191.485 L 1085.21 191.485 z M 1091.36 191.485 L 1092.3 191.485 L 1092.3 187.347 L 1092.36 186.724 L 1092.53 186.275 L 1092.79 186.01 L 1093.14 185.906 L 1093.42 185.998 L 1093.6 186.229 L 1093.69 186.621 L 1093.73 187.139 L 1093.73 191.485 L 1094.6 191.485 L 1094.6 187.347 L 1094.66 186.736 L 1094.83 186.286 L 1095.11 186.01 L 1095.46 185.906 L 1095.73 185.998 L 1095.92 186.229 L 1096.03 187.139 L 1096.03 191.485 L 1096.97 191.485 L 1096.97 187.208 L 1096.91 186.321 L 1096.72 185.641 L 1096.36 185.226 L 1095.76 185.076 L 1095.05 185.306 L 1094.51 185.975 L 1094.09 185.318 L 1093.37 185.076 L 1092.71 185.306 L 1092.26 185.952 L 1092.26 185.295 L 1091.36 185.295 L 1091.36 191.485 L 1091.36 191.485 z" stroke="none" fill-rule="evenodd" fill="rgb(0, 0, 0)"/></g><g stroke="rgb(0, 0, 0)" stroke-width="0.13" stroke-linecap="butt" stroke-linejoin="miter" fill="none"><path d="M 411.234 36.9636 L 410.83 38.6581 L 410.165 39.8685 L 409.237 40.6149 L 408.147 40.857 L 406.836 40.4938 L 405.807 39.4045 L 405.121 37.6293 L 404.9 35.1682 L 405.121 32.7273 L 405.787 30.9319 L 406.816 29.8426 L 408.147 29.4593 L 409.116 29.661 L 409.943 30.2258 L 410.588 31.1336 L 411.032 32.3843 L 412.949 32.3843 L 412.343 30.468 L 411.294 29.0155 L 409.862 28.1077 L 408.147 27.7849 L 406.009 28.2892 L 404.375 29.7014 L 403.326 32.0212 L 402.963 35.1682 L 403.326 38.3152 L 404.375 40.6351 L 406.009 42.0673 L 408.147 42.5515 L 410.023 42.1682 L 411.536 41.0991 L 412.606 39.344 L 413.17 36.9636 L 411.234 36.9636 L 411.234 36.9636 z M 415.41 36.7619 L 415.732 39.223 L 416.66 41.0385 L 418.133 42.1682 L 420.11 42.5515 L 422.067 42.1682 L 423.539 41.0587 L 424.467 39.2432 L 424.81 36.7619 L 424.467 34.3008 L 423.539 32.465 L 422.067 31.3555 L 420.11 30.9521 L 418.133 31.3555 L 416.66 32.4852 L 415.732 34.3008 L 415.41 36.7619 L 415.41 36.7619 z M 417.225 36.7417 L 417.407 34.9261 L 417.972 33.6149 L 418.879 32.808 L 420.11 32.5256 L 421.32 32.808 L 422.228 33.5947 L 422.793 34.9261 L 422.995 36.7417 L 422.793 38.5775 L 422.228 39.9089 L 421.32 40.7158 L 420.11 40.978 L 418.879 40.7158 L 417.972 39.9089 L 417.407 38.5775 L 417.225 36.7417 L 417.225 36.7417 z M 431.609 29.1769 L 431.609 40.6754 L 427.957 40.6754 L 427.957 42.1682 L 437.015 42.1682 L 437.015 40.6754 L 433.384 40.6754 L 433.384 27.6841 L 428.825 27.6841 L 428.825 29.1769 L 431.609 29.1769 L 431.609 29.1769 z M 443.753 29.1769 L 443.753 40.6754 L 440.101 40.6754 L 440.101 42.1682 L 449.159 42.1682 L 449.159 40.6754 L 445.528 40.6754 L 445.528 27.6841 L 440.969 27.6841 L 440.969 29.1769 L 443.753 29.1769 L 443.753 29.1769 z M 458.802 40.7561 L 458.802 40.8167 L 458.902 41.5025 L 459.205 41.9866 L 460.476 42.3699 L 461.464 42.2086 L 461.464 40.8368 L 461.041 40.8973 L 460.476 40.6351 L 460.375 39.8282 L 460.375 34.2201 L 460.133 32.7878 L 459.427 31.7792 L 458.196 31.174 L 456.462 30.9521 L 454.767 31.1942 L 453.516 31.88 L 452.73 32.9492 L 452.467 34.3613 L 452.467 34.4824 L 454.061 34.4824 L 454.202 33.6351 L 454.646 33.0299 L 455.372 32.6667 L 456.401 32.5256 L 457.39 32.6264 L 458.096 32.929 L 458.519 33.4535 L 458.66 34.1797 L 458.58 35.027 L 458.257 35.4506 L 457.45 35.6523 L 455.937 35.8137 L 454.202 36.1769 L 452.972 36.8224 L 452.245 37.8311 L 452.024 39.3239 L 452.225 40.6553 L 452.851 41.6437 L 453.859 42.2691 L 455.251 42.491 L 457.127 42.0673 L 458.802 40.7561 L 458.802 40.7561 z M 458.6 38.3757 L 458.358 39.4247 L 457.712 40.2316 L 456.744 40.7561 L 455.554 40.9377 L 454.787 40.8368 L 454.243 40.514 L 453.9 39.9492 L 453.799 39.1625 L 453.879 38.4564 L 454.202 37.9521 L 455.493 37.3872 L 457.127 37.1451 L 458.6 36.661 L 458.6 38.3757 L 458.6 38.3757 z M 472.943 41.6841 L 472.943 31.3354 L 471.248 31.3354 L 471.248 33.0904 L 469.856 31.4968 L 469.009 31.0933 L 468.061 30.9521 L 466.346 31.3555 L 465.015 32.4852 L 464.147 34.3008 L 463.845 36.7417 L 464.147 39.2028 L 465.015 41.0184 L 466.346 42.1682 L 468.061 42.5515 L 469.029 42.4103 L 469.836 42.0472 L 471.248 40.514 L 471.248 42.0472 L 471.087 43.2576 L 470.643 44.125 L 469.796 44.6293 L 468.525 44.8109 L 467.415 44.6898 L 466.629 44.3872 L 466.165 43.8627 L 466.024 43.1567 L 464.309 43.1567 L 464.309 43.2374 L 464.571 44.5284 L 465.378 45.4968 L 466.669 46.1221 L 468.424 46.344 L 470.522 46.0414 L 471.914 45.1942 L 472.701 43.7215 L 472.943 41.6841 L 472.943 41.6841 z M 465.681 36.7417 L 465.862 34.9463 L 466.407 33.6149 L 467.254 32.8282 L 468.384 32.5457 L 469.574 32.8282 L 470.462 33.6149 L 471.006 34.9463 L 471.208 36.7417 L 471.006 38.5775 L 470.462 39.8887 L 469.574 40.6956 L 468.384 40.9578 L 467.254 40.6956 L 466.407 39.8887 L 465.862 38.5573 L 465.681 36.7417 L 465.681 36.7417 z M 478.208 37.2662 L 485.309 37.2662 L 485.329 36.4391 L 485.006 34.1192 L 484.119 32.3843 L 482.707 31.3354 L 480.83 30.9521 L 478.995 31.3555 L 477.583 32.4852 L 476.675 34.3209 L 476.352 36.7417 L 476.655 39.223 L 477.562 41.0385 L 478.954 42.1682 L 480.77 42.5515 L 482.343 42.2892 L 483.634 41.6034 L 484.583 40.514 L 485.127 39.0616 L 483.372 39.0616 L 483.009 39.8685 L 482.485 40.4737 L 480.992 40.9578 L 479.842 40.736 L 478.975 40.0299 L 478.41 38.88 L 478.208 37.3267 L 478.208 37.2662 L 478.208 37.2662 z M 478.208 35.7734 L 478.43 34.3815 L 478.975 33.3527 L 479.802 32.7273 L 480.891 32.5054 L 481.96 32.7273 L 482.787 33.3527 L 483.292 34.3815 L 483.473 35.7734 L 478.208 35.7734 L 478.208 35.7734 z M 504.191 42.1682 L 506.047 42.1682 L 506.047 29.8627 L 510.283 29.8627 L 510.283 28.1682 L 499.934 28.1682 L 499.934 29.8627 L 504.191 29.8627 L 504.191 42.1682 L 504.191 42.1682 z M 521.439 31.3354 L 519.663 31.3354 L 519.663 37.589 L 519.462 39.0414 L 518.877 40.0904 L 517.969 40.736 L 516.779 40.9377 L 515.831 40.7763 L 515.225 40.2921 L 514.882 39.465 L 514.802 38.295 L 514.802 31.3354 L 513.026 31.3354 L 513.026 38.4564 L 513.087 39.8887 L 513.47 41.0789 L 514.64 42.1682 L 516.516 42.5515 L 517.525 42.4103 L 518.392 42.0472 L 519.139 41.4218 L 519.744 40.514 L 519.744 42.1682 L 521.439 42.1682 L 521.439 31.3354 L 521.439 31.3354 z M 526.905 40.4938 L 528.217 42.0472 L 530.012 42.5515 L 531.707 42.1682 L 533.058 41.0184 L 533.905 39.1826 L 534.228 36.7417 L 533.905 34.3008 L 533.038 32.4852 L 531.707 31.3555 L 530.012 30.9521 L 528.237 31.4766 L 527.511 32.1221 L 526.905 32.9896 L 526.905 27.6841 L 525.13 27.6841 L 525.13 42.1682 L 526.905 42.1682 L 526.905 40.4938 L 526.905 40.4938 z M 532.413 36.7417 L 532.211 38.5573 L 531.666 39.8887 L 530.799 40.6956 L 529.709 40.9578 L 528.519 40.6956 L 527.652 39.8887 L 527.107 38.5775 L 526.926 36.7417 L 527.107 34.9261 L 527.652 33.6149 L 528.519 32.8282 L 529.709 32.5457 L 530.799 32.8282 L 531.666 33.6351 L 532.211 34.9463 L 532.413 36.7417 L 532.413 36.7417 z M 538.929 37.2662 L 546.029 37.2662 L 546.05 36.4391 L 545.727 34.1192 L 544.839 32.3843 L 543.427 31.3354 L 541.551 30.9521 L 539.715 31.3555 L 538.303 32.4852 L 537.395 34.3209 L 537.073 36.7417 L 537.375 39.223 L 538.283 41.0385 L 539.675 42.1682 L 541.49 42.5515 L 543.064 42.2892 L 544.355 41.6034 L 545.303 40.514 L 545.848 39.0616 L 544.093 39.0616 L 543.73 39.8685 L 543.205 40.4737 L 541.712 40.9578 L 540.563 40.736 L 539.695 40.0299 L 539.13 38.88 L 538.929 37.3267 L 538.929 37.2662 L 538.929 37.2662 z M 538.929 35.7734 L 539.15 34.3815 L 539.695 33.3527 L 540.522 32.7273 L 541.612 32.5054 L 542.681 32.7273 L 543.508 33.3527 L 544.012 34.3815 L 544.194 35.7734 L 538.929 35.7734 L 538.929 35.7734 z M 554.825 35.8541 L 553.11 35.4506 L 551.839 34.9866 L 551.416 34.0385 L 551.537 33.3728 L 551.96 32.8887 L 552.646 32.5861 L 553.635 32.465 L 554.583 32.5861 L 555.329 32.9492 L 555.813 33.4938 L 556.015 34.2201 L 557.75 34.2201 L 557.75 34.1797 L 557.447 32.8685 L 556.62 31.8397 L 555.329 31.1942 L 553.635 30.9521 L 551.92 31.1942 L 550.669 31.8599 L 549.882 32.8483 L 549.64 34.0991 L 549.822 35.3094 L 550.387 36.1567 L 551.315 36.7619 L 552.666 37.1855 L 554.643 37.6697 L 555.854 38.174 L 556.176 38.5775 L 556.297 39.1826 L 556.116 39.929 L 555.632 40.4938 L 554.845 40.857 L 553.796 40.978 L 552.686 40.857 L 551.88 40.4333 L 551.335 39.7474 L 551.113 38.7993 L 549.398 38.7993 L 549.681 40.4131 L 550.508 41.5832 L 551.819 42.2892 L 553.635 42.5515 L 555.531 42.2892 L 556.923 41.5832 L 557.77 40.4535 L 558.073 38.9809 L 557.851 37.71 L 557.225 36.8426 L 556.197 36.2777 L 554.825 35.8541 L 554.825 35.8541 z M 581.251 36.9636 L 580.848 38.6581 L 580.182 39.8685 L 579.254 40.6149 L 578.165 40.857 L 576.854 40.4938 L 575.825 39.4045 L 575.139 37.6293 L 574.917 35.1682 L 575.139 32.7273 L 575.805 30.9319 L 576.833 29.8426 L 578.165 29.4593 L 579.133 29.661 L 579.96 30.2258 L 580.606 31.1336 L 581.05 32.3843 L 582.966 32.3843 L 582.361 30.468 L 581.312 29.0155 L 579.88 28.1077 L 578.165 27.7849 L 576.027 28.2892 L 574.393 29.7014 L 573.344 32.0212 L 572.98 35.1682 L 573.344 38.3152 L 574.393 40.6351 L 576.027 42.0673 L 578.165 42.5515 L 580.041 42.1682 L 581.554 41.0991 L 582.623 39.344 L 583.188 36.9636 L 581.251 36.9636 L 581.251 36.9636 z M 592.387 40.7561 L 592.387 40.8167 L 592.488 41.5025 L 592.79 41.9866 L 594.061 42.3699 L 595.05 42.2086 L 595.05 40.8368 L 594.626 40.8973 L 594.061 40.6351 L 593.96 39.8282 L 593.96 34.2201 L 593.718 32.7878 L 593.012 31.7792 L 591.782 31.174 L 590.047 30.9521 L 588.352 31.1942 L 587.101 31.88 L 586.315 32.9492 L 586.052 34.3613 L 586.052 34.4824 L 587.646 34.4824 L 587.787 33.6351 L 588.231 33.0299 L 588.957 32.6667 L 589.986 32.5256 L 590.975 32.6264 L 591.681 32.929 L 592.104 33.4535 L 592.246 34.1797 L 592.165 35.027 L 591.842 35.4506 L 591.035 35.6523 L 589.522 35.8137 L 587.787 36.1769 L 586.557 36.8224 L 585.831 37.8311 L 585.609 39.3239 L 585.81 40.6553 L 586.436 41.6437 L 587.444 42.2691 L 588.836 42.491 L 590.712 42.0673 L 592.387 40.7561 L 592.387 40.7561 z M 592.185 38.3757 L 591.943 39.4247 L 591.297 40.2316 L 590.329 40.7561 L 589.139 40.9377 L 588.372 40.8368 L 587.828 40.514 L 587.485 39.9492 L 587.384 39.1625 L 587.465 38.4564 L 587.787 37.9521 L 589.078 37.3872 L 590.712 37.1451 L 592.185 36.661 L 592.185 38.3757 L 592.185 38.3757 z M 598.761 42.1682 L 600.537 42.1682 L 600.537 35.9752 L 600.718 34.4824 L 601.263 33.4131 L 602.15 32.7676 L 603.341 32.5457 L 604.228 32.687 L 604.894 33.0904 L 605.297 33.7763 L 605.439 34.7042 L 607.234 34.7042 L 606.992 33.0703 L 606.326 31.9002 L 605.217 31.1942 L 603.704 30.9521 L 602.675 31.1135 L 601.787 31.5169 L 601.001 32.2028 L 600.375 33.1307 L 600.375 31.3354 L 598.761 31.3354 L 598.761 42.1682 L 598.761 42.1682 z M 611.914 40.4938 L 613.225 42.0472 L 615.021 42.5515 L 616.715 42.1682 L 618.067 41.0184 L 618.914 39.1826 L 619.237 36.7417 L 618.914 34.3008 L 618.047 32.4852 L 616.715 31.3555 L 615.021 30.9521 L 613.246 31.4766 L 612.519 32.1221 L 611.914 32.9896 L 611.914 27.6841 L 610.139 27.6841 L 610.139 42.1682 L 611.914 42.1682 L 611.914 40.4938 L 611.914 40.4938 z M 617.421 36.7417 L 617.22 38.5573 L 616.675 39.8887 L 615.808 40.6956 L 614.718 40.9578 L 613.528 40.6956 L 612.661 39.8887 L 612.116 38.5775 L 611.934 36.7417 L 612.116 34.9261 L 612.661 33.6149 L 613.528 32.8282 L 614.718 32.5457 L 615.808 32.8282 L 616.675 33.6351 L 617.22 34.9463 L 617.421 36.7417 L 617.421 36.7417 z M 621.859 36.7619 L 622.182 39.223 L 623.11 41.0385 L 624.583 42.1682 L 626.56 42.5515 L 628.516 42.1682 L 629.989 41.0587 L 630.917 39.2432 L 631.26 36.7619 L 630.917 34.3008 L 629.989 32.465 L 628.516 31.3555 L 626.56 30.9521 L 624.583 31.3555 L 623.11 32.4852 L 622.182 34.3008 L 621.859 36.7619 L 621.859 36.7619 z M 623.675 36.7417 L 623.857 34.9261 L 624.421 33.6149 L 625.329 32.808 L 626.56 32.5256 L 627.77 32.808 L 628.678 33.5947 L 629.243 34.9261 L 629.444 36.7417 L 629.243 38.5775 L 628.678 39.9089 L 627.77 40.7158 L 626.56 40.978 L 625.329 40.7158 L 624.421 39.9089 L 623.857 38.5775 L 623.675 36.7417 L 623.675 36.7417 z M 634.528 42.1682 L 636.303 42.1682 L 636.303 35.9146 L 636.485 34.4824 L 637.07 33.4333 L 637.978 32.7878 L 639.188 32.5457 L 640.156 32.7474 L 640.761 33.2921 L 641.064 34.1999 L 641.165 35.4103 L 641.165 42.1682 L 642.94 42.1682 L 642.94 35.0472 L 642.859 33.6149 L 642.496 32.4247 L 641.306 31.3354 L 639.45 30.9521 L 638.421 31.0933 L 637.554 31.4766 L 636.808 32.1221 L 636.223 32.9896 L 636.223 31.3354 L 634.528 31.3354 L 634.528 42.1682 L 634.528 42.1682 z M 648.225 37.2662 L 655.326 37.2662 L 655.346 36.4391 L 655.024 34.1192 L 654.136 32.3843 L 652.724 31.3354 L 650.848 30.9521 L 649.012 31.3555 L 647.6 32.4852 L 646.692 34.3209 L 646.37 36.7417 L 646.672 39.223 L 647.58 41.0385 L 648.972 42.1682 L 650.787 42.5515 L 652.361 42.2892 L 653.652 41.6034 L 654.6 40.514 L 655.145 39.0616 L 653.39 39.0616 L 653.027 39.8685 L 652.502 40.4737 L 651.009 40.9578 L 649.859 40.736 L 648.992 40.0299 L 648.427 38.88 L 648.225 37.3267 L 648.225 37.2662 L 648.225 37.2662 z M 648.225 35.7734 L 648.447 34.3815 L 648.992 33.3527 L 649.819 32.7273 L 650.908 32.5054 L 651.978 32.7273 L 652.805 33.3527 L 653.309 34.3815 L 653.491 35.7734 L 648.225 35.7734 L 648.225 35.7734 z M 672.695 37.5486 L 677.577 37.5486 L 677.577 35.955 L 672.695 35.955 L 672.695 37.5486 L 672.695 37.5486 z M 694.926 42.1682 L 696.802 42.1682 L 696.802 36.2576 L 698.718 36.2576 L 700.13 36.3181 L 701.018 36.6005 L 701.502 37.2662 L 701.704 38.4564 L 701.805 40.272 L 701.926 41.4622 L 702.168 42.1682 L 704.286 42.1682 L 704.286 41.7849 L 703.822 41.2201 L 703.661 40.1711 L 703.519 37.9117 L 703.177 36.2374 L 702.713 35.7129 L 701.986 35.3296 L 702.793 34.8253 L 703.358 34.1192 L 703.721 33.2316 L 703.842 32.1625 L 703.56 30.468 L 702.753 29.197 L 701.421 28.4305 L 699.606 28.1682 L 694.926 28.1682 L 694.926 42.1682 L 694.926 42.1682 z M 699.081 29.8829 L 700.312 30.004 L 701.179 30.3872 L 701.724 31.0933 L 701.906 32.2028 L 701.704 33.3728 L 701.159 34.0789 L 700.231 34.442 L 698.96 34.5428 L 696.802 34.5428 L 696.802 29.8829 L 699.081 29.8829 L 699.081 29.8829 z M 706.868 36.7619 L 707.191 39.223 L 708.119 41.0385 L 709.591 42.1682 L 711.568 42.5515 L 713.525 42.1682 L 714.998 41.0587 L 715.926 39.2432 L 716.269 36.7619 L 715.926 34.3008 L 714.998 32.465 L 713.525 31.3555 L 711.568 30.9521 L 709.591 31.3555 L 708.119 32.4852 L 707.191 34.3008 L 706.868 36.7619 L 706.868 36.7619 z M 708.684 36.7417 L 708.865 34.9261 L 709.43 33.6149 L 710.338 32.808 L 711.568 32.5256 L 712.779 32.808 L 713.687 33.5947 L 714.251 34.9261 L 714.453 36.7417 L 714.251 38.5775 L 713.687 39.9089 L 712.779 40.7158 L 711.568 40.978 L 710.338 40.7158 L 709.43 39.9089 L 708.865 38.5775 L 708.684 36.7417 L 708.684 36.7417 z M 727.888 31.3354 L 726.113 31.3354 L 726.113 37.589 L 725.911 39.0414 L 725.326 40.0904 L 724.419 40.736 L 723.228 40.9377 L 722.28 40.7763 L 721.675 40.2921 L 721.332 39.465 L 721.251 38.295 L 721.251 31.3354 L 719.476 31.3354 L 719.476 38.4564 L 719.537 39.8887 L 719.92 41.0789 L 721.09 42.1682 L 722.966 42.5515 L 723.975 42.4103 L 724.842 42.0472 L 725.589 41.4218 L 726.194 40.514 L 726.194 42.1682 L 727.888 42.1682 L 727.888 31.3354 L 727.888 31.3354 z M 733.234 37.2662 L 740.335 37.2662 L 740.355 36.4391 L 740.032 34.1192 L 739.145 32.3843 L 737.733 31.3354 L 735.857 30.9521 L 734.021 31.3555 L 732.609 32.4852 L 731.701 34.3209 L 731.378 36.7417 L 731.681 39.223 L 732.589 41.0385 L 733.981 42.1682 L 735.796 42.5515 L 737.37 42.2892 L 738.661 41.6034 L 739.609 40.514 L 740.154 39.0616 L 738.398 39.0616 L 738.035 39.8685 L 737.511 40.4737 L 736.018 40.9578 L 734.868 40.736 L 734.001 40.0299 L 733.436 38.88 L 733.234 37.3267 L 733.234 37.2662 L 733.234 37.2662 z M 733.234 35.7734 L 733.456 34.3815 L 734.001 33.3527 L 734.828 32.7273 L 735.917 32.5054 L 736.986 32.7273 L 737.813 33.3527 L 738.318 34.3815 L 738.499 35.7734 L 733.234 35.7734 L 733.234 35.7734 z M 754.012 42.1682 L 755.868 42.1682 L 757.341 38.0529 L 762.929 38.0529 L 764.401 42.1682 L 766.298 42.1682 L 761.174 28.1481 L 759.116 28.1481 L 754.012 42.1682 L 754.012 42.1682 z M 757.986 36.3383 L 760.145 30.1653 L 762.303 36.3383 L 757.986 36.3383 L 757.986 36.3383 z M 768.779 42.1682 L 770.554 42.1682 L 770.554 35.9752 L 770.736 34.4824 L 771.28 33.4131 L 772.168 32.7676 L 773.358 32.5457 L 774.246 32.687 L 774.911 33.0904 L 775.315 33.7763 L 775.456 34.7042 L 777.252 34.7042 L 777.009 33.0703 L 776.344 31.9002 L 775.234 31.1942 L 773.721 30.9521 L 772.692 31.1135 L 771.805 31.5169 L 771.018 32.2028 L 770.393 33.1307 L 770.393 31.3354 L 768.779 31.3354 L 768.779 42.1682 L 768.779 42.1682 z M 780.923 42.1682 L 782.698 42.1682 L 782.698 35.9752 L 782.88 34.4824 L 783.424 33.4131 L 784.312 32.7676 L 785.502 32.5457 L 786.39 32.687 L 787.056 33.0904 L 787.459 33.7763 L 787.6 34.7042 L 789.396 34.7042 L 789.154 33.0703 L 788.488 31.9002 L 787.378 31.1942 L 785.865 30.9521 L 784.837 31.1135 L 783.949 31.5169 L 783.162 32.2028 L 782.537 33.1307 L 782.537 31.3354 L 780.923 31.3354 L 780.923 42.1682 L 780.923 42.1682 z M 797.828 40.6754 L 797.828 31.6985 L 793.269 31.6985 L 793.269 33.2114 L 796.053 33.2114 L 796.053 40.6754 L 792.422 40.6754 L 792.422 42.1682 L 801.499 42.1682 L 801.499 40.6754 L 797.828 40.6754 L 797.828 40.6754 z M 797.888 27.6841 L 796.012 27.6841 L 796.012 29.7014 L 797.888 29.7014 L 797.888 27.6841 L 797.888 27.6841 z M 810.154 29.8627 L 808.136 26.4333 L 806.159 26.4333 L 808.963 29.8627 L 810.154 29.8627 L 810.154 29.8627 z M 806.099 37.2662 L 813.2 37.2662 L 813.22 36.4391 L 812.897 34.1192 L 812.009 32.3843 L 810.597 31.3354 L 808.721 30.9521 L 806.886 31.3555 L 805.473 32.4852 L 804.566 34.3209 L 804.243 36.7417 L 804.545 39.223 L 805.453 41.0385 L 806.845 42.1682 L 808.661 42.5515 L 810.234 42.2892 L 811.525 41.6034 L 812.473 40.514 L 813.018 39.0616 L 811.263 39.0616 L 810.9 39.8685 L 810.375 40.4737 L 808.883 40.9578 L 807.733 40.736 L 806.865 40.0299 L 806.301 38.88 L 806.099 37.3267 L 806.099 37.2662 L 806.099 37.2662 z M 806.099 35.7734 L 806.321 34.3815 L 806.865 33.3527 L 807.692 32.7273 L 808.782 32.5054 L 809.851 32.7273 L 810.678 33.3527 L 811.182 34.3815 L 811.364 35.7734 L 806.099 35.7734 L 806.099 35.7734 z M 817.355 42.1682 L 819.13 42.1682 L 819.13 35.9752 L 819.312 34.4824 L 819.857 33.4131 L 820.744 32.7676 L 821.935 32.5457 L 822.822 32.687 L 823.488 33.0904 L 823.891 33.7763 L 824.033 34.7042 L 825.828 34.7042 L 825.586 33.0703 L 824.92 31.9002 L 823.811 31.1942 L 822.298 30.9521 L 821.269 31.1135 L 820.381 31.5169 L 819.594 32.2028 L 818.969 33.1307 L 818.969 31.3354 L 817.355 31.3354 L 817.355 42.1682 L 817.355 42.1682 z M 830.387 37.2662 L 837.488 37.2662 L 837.508 36.4391 L 837.185 34.1192 L 836.298 32.3843 L 834.886 31.3354 L 833.009 30.9521 L 831.174 31.3555 L 829.762 32.4852 L 828.854 34.3209 L 828.531 36.7417 L 828.834 39.223 L 829.741 41.0385 L 831.133 42.1682 L 832.949 42.5515 L 834.522 42.2892 L 835.814 41.6034 L 836.762 40.514 L 837.306 39.0616 L 835.551 39.0616 L 835.188 39.8685 L 834.664 40.4737 L 833.171 40.9578 L 832.021 40.736 L 831.154 40.0299 L 830.589 38.88 L 830.387 37.3267 L 830.387 37.2662 L 830.387 37.2662 z M 830.387 35.7734 L 830.609 34.3815 L 831.154 33.3527 L 831.981 32.7273 L 833.07 32.5054 L 834.139 32.7273 L 834.966 33.3527 L 835.471 34.3815 L 835.652 35.7734 L 830.387 35.7734 L 830.387 35.7734 z M 860.989 40.2921 L 861.332 42.1682 L 862.341 42.1682 L 862.341 34.6034 L 857.237 34.6034 L 857.237 36.3181 L 860.384 36.3181 L 860.384 36.4391 L 860.142 38.295 L 859.497 39.6667 L 858.508 40.5342 L 857.278 40.8167 L 855.906 40.4535 L 854.837 39.3642 L 854.151 37.5688 L 853.909 35.1077 L 854.131 32.6667 L 854.816 30.8714 L 855.906 29.782 L 857.378 29.3987 L 858.387 29.6005 L 859.214 30.1653 L 859.819 31.1135 L 860.162 32.3843 L 862.159 32.3843 L 861.635 30.4478 L 860.646 28.9953 L 859.254 28.1077 L 857.499 27.7849 L 855.2 28.2892 L 853.465 29.7619 L 852.355 32.0818 L 851.972 35.1682 L 852.355 38.2748 L 853.465 40.5947 L 855.099 42.0673 L 857.156 42.5515 L 858.306 42.3901 L 859.335 41.9866 L 860.223 41.2806 L 860.989 40.2921 L 860.989 40.2921 z M 871.701 40.7561 L 871.701 40.8167 L 871.802 41.5025 L 872.105 41.9866 L 873.375 42.3699 L 874.364 42.2086 L 874.364 40.8368 L 873.94 40.8973 L 873.375 40.6351 L 873.275 39.8282 L 873.275 34.2201 L 873.033 32.7878 L 872.327 31.7792 L 871.096 31.174 L 869.361 30.9521 L 867.667 31.1942 L 866.416 31.88 L 865.629 32.9492 L 865.367 34.3613 L 865.367 34.4824 L 866.961 34.4824 L 867.102 33.6351 L 867.546 33.0299 L 868.272 32.6667 L 869.301 32.5256 L 870.289 32.6264 L 870.995 32.929 L 871.419 33.4535 L 871.56 34.1797 L 871.479 35.027 L 871.156 35.4506 L 870.35 35.6523 L 868.837 35.8137 L 867.102 36.1769 L 865.871 36.8224 L 865.145 37.8311 L 864.923 39.3239 L 865.125 40.6553 L 865.75 41.6437 L 866.759 42.2691 L 868.151 42.491 L 870.027 42.0673 L 871.701 40.7561 L 871.701 40.7561 z M 871.499 38.3757 L 871.257 39.4247 L 870.612 40.2316 L 869.644 40.7561 L 868.453 40.9377 L 867.687 40.8368 L 867.142 40.514 L 866.799 39.9492 L 866.698 39.1625 L 866.779 38.4564 L 867.102 37.9521 L 868.393 37.3872 L 870.027 37.1451 L 871.499 36.661 L 871.499 38.3757 L 871.499 38.3757 z M 885.762 31.3354 L 883.986 31.3354 L 883.986 37.589 L 883.785 39.0414 L 883.2 40.0904 L 882.292 40.736 L 881.102 40.9377 L 880.154 40.7763 L 879.548 40.2921 L 879.206 39.465 L 879.125 38.295 L 879.125 31.3354 L 877.35 31.3354 L 877.35 38.4564 L 877.41 39.8887 L 877.793 41.0789 L 878.963 42.1682 L 880.839 42.5515 L 881.848 42.4103 L 882.716 42.0472 L 883.462 41.4218 L 884.067 40.514 L 884.067 42.1682 L 885.762 42.1682 L 885.762 31.3354 L 885.762 31.3354 z M 896.453 34.9261 L 898.208 34.9261 L 897.845 33.3123 L 896.978 32.0414 L 895.626 31.2547 L 893.871 30.9521 L 891.935 31.3555 L 890.462 32.4852 L 889.534 34.3209 L 889.211 36.782 L 889.514 39.223 L 890.422 41.0385 L 891.854 42.1682 L 893.811 42.5515 L 895.546 42.2489 L 896.897 41.4017 L 897.825 40.0703 L 898.229 38.295 L 896.534 38.295 L 896.231 39.4247 L 895.667 40.272 L 894.86 40.7964 L 893.871 40.9578 L 892.641 40.6956 L 891.753 39.8887 L 891.208 38.5775 L 891.027 36.7216 L 891.208 34.9059 L 891.773 33.5947 L 892.681 32.7878 L 893.871 32.5054 L 894.92 32.687 L 895.707 33.1509 L 896.231 33.9175 L 896.453 34.9261 L 896.453 34.9261 z M 901.698 42.1682 L 903.474 42.1682 L 903.474 35.9146 L 903.655 34.4824 L 904.24 33.4333 L 905.148 32.7878 L 906.358 32.5457 L 907.327 32.7474 L 907.932 33.2921 L 908.234 34.1999 L 908.335 35.4103 L 908.335 42.1682 L 910.11 42.1682 L 910.11 35.0472 L 910.03 33.6149 L 909.667 32.4247 L 908.476 31.3354 L 906.62 30.9521 L 905.612 31.0933 L 904.744 31.4766 L 904.018 32.0818 L 903.474 32.9089 L 903.474 27.6841 L 901.698 27.6841 L 901.698 42.1682 L 901.698 42.1682 z M 915.396 37.2662 L 922.497 37.2662 L 922.517 36.4391 L 922.194 34.1192 L 921.306 32.3843 L 919.894 31.3354 L 918.018 30.9521 L 916.182 31.3555 L 914.77 32.4852 L 913.863 34.3209 L 913.54 36.7417 L 913.842 39.223 L 914.75 41.0385 L 916.142 42.1682 L 917.958 42.5515 L 919.531 42.2892 L 920.822 41.6034 L 921.77 40.514 L 922.315 39.0616 L 920.56 39.0616 L 920.197 39.8685 L 919.672 40.4737 L 918.18 40.9578 L 917.03 40.736 L 916.162 40.0299 L 915.597 38.88 L 915.396 37.3267 L 915.396 37.2662 L 915.396 37.2662 z M 915.396 35.7734 L 915.618 34.3815 L 916.162 33.3527 L 916.989 32.7273 L 918.079 32.5054 L 919.148 32.7273 L 919.975 33.3527 L 920.479 34.3815 L 920.661 35.7734 L 915.396 35.7734 L 915.396 35.7734 z" stroke="none" fill-rule="evenodd" fill="rgb(0, 0, 0)"/></g><g stroke="rgb(0, 0, 0)" stroke-width="0.13" stroke-linecap="butt" stroke-linejoin="miter" fill="none"><path d="M 990.5 84.4371 L 990.954 84.4371 L 990.954 83.5696 L 991.453 83.5696 L 991.453 83.1662 L 990.954 83.1662 L 990.954 81.0128 L 990.495 81.0128 L 988.962 83.1259 L 988.962 83.5696 L 990.5 83.5696 L 990.5 84.4371 L 990.5 84.4371 z M 989.386 83.1662 L 990.5 81.5977 L 990.5 83.1662 L 989.386 83.1662 L 989.386 83.1662 z M 992.688 83.3376 L 992.688 83.3729 L 992.769 83.8571 L 993.006 84.2202 L 993.379 84.4522 L 993.873 84.538 L 994.398 84.4522 L 994.791 84.2303 L 995.043 83.8773 L 995.134 83.4234 L 995.094 83.1259 L 994.983 82.8838 L 994.801 82.6971 L 994.559 82.561 L 994.887 82.2886 L 995.003 81.8549 L 994.927 81.4615 L 994.71 81.164 L 994.357 80.9774 L 993.873 80.9119 L 993.419 80.9926 L 993.071 81.2145 L 992.844 81.5675 L 992.769 82.0365 L 992.769 82.0718 L 993.218 82.0718 L 993.258 81.749 L 993.389 81.517 L 993.601 81.3759 L 993.898 81.3254 L 994.161 81.3658 L 994.352 81.4717 L 994.468 81.6431 L 994.514 81.8751 L 994.468 82.1223 L 994.347 82.2886 L 994.135 82.3895 L 993.848 82.4198 L 993.651 82.4147 L 993.651 82.8132 L 993.898 82.8031 L 994.216 82.8484 L 994.453 82.9695 L 994.594 83.1662 L 994.645 83.4234 L 994.589 83.7159 L 994.443 83.9327 L 994.211 84.0689 L 993.904 84.1143 L 993.586 84.0639 L 993.354 83.9126 L 993.208 83.6705 L 993.152 83.3376 L 992.688 83.3376 L 992.688 83.3376 z M 996.464 84.4371 L 998.87 84.4371 L 998.87 84.0034 L 996.969 84.0034 L 997.075 83.7663 L 997.256 83.5696 L 997.816 83.2115 L 998.114 83.0603 L 998.446 82.8434 L 998.683 82.5912 L 998.82 82.2937 L 998.87 81.9558 L 998.784 81.5322 L 998.547 81.1993 L 998.184 80.9875 L 997.715 80.9119 L 997.231 80.9976 L 996.863 81.2346 L 996.626 81.6129 L 996.545 82.1121 L 996.545 82.1827 L 997.004 82.1827 L 997.004 82.1424 L 997.049 81.7995 L 997.186 81.5473 L 997.403 81.3859 L 997.69 81.3304 L 997.982 81.3809 L 998.199 81.507 L 998.341 81.7037 L 998.391 81.9507 L 998.356 82.1827 L 998.26 82.3795 L 998.098 82.5509 L 997.877 82.7022 L 997.579 82.8636 L 997.085 83.1763 L 996.737 83.5091 L 996.53 83.9126 L 996.464 84.4219 L 996.464 84.4371 L 996.464 84.4371 z M 1001.08 84.4371 L 1001.78 84.4371 L 1001.78 83.6856 L 1001.08 83.6856 L 1001.08 84.4371 L 1001.08 84.4371 z M 1003.96 83.5696 L 1004.03 83.9681 L 1004.25 84.2757 L 1004.59 84.4673 L 1005.05 84.538 L 1005.34 84.5026 L 1005.61 84.4119 L 1005.84 84.2555 L 1006.03 84.0336 L 1006.18 83.7562 L 1006.29 83.4133 L 1006.36 83.02 L 1006.38 82.566 L 1006.3 81.8549 L 1006.05 81.3355 L 1005.66 81.0228 L 1005.12 80.9119 L 1004.62 81.0026 L 1004.25 81.2447 L 1004.01 81.6179 L 1003.93 82.0869 L 1004.01 82.5711 L 1004.24 82.9392 L 1004.6 83.1712 L 1005.05 83.2469 L 1005.52 83.1511 L 1005.88 82.8585 L 1005.8 83.4183 L 1005.64 83.8168 L 1005.39 84.0538 L 1005.05 84.1295 L 1004.79 84.0941 L 1004.6 83.9832 L 1004.47 83.8066 L 1004.42 83.5696 L 1003.96 83.5696 L 1003.96 83.5696 z M 1004.42 82.0819 L 1004.47 81.7692 L 1004.61 81.5221 L 1004.83 81.3658 L 1005.12 81.3103 L 1005.41 81.3658 L 1005.64 81.5221 L 1005.78 81.7642 L 1005.84 82.0768 L 1005.78 82.3946 L 1005.64 82.6316 L 1005.41 82.7778 L 1005.1 82.8283 L 1004.82 82.7778 L 1004.61 82.6316 L 1004.47 82.3996 L 1004.42 82.0819 L 1004.42 82.0819 z M 1010.11 81.8802 L 1010.02 81.4717 L 1009.8 81.1691 L 1009.45 80.9774 L 1009.01 80.9119 L 1008.71 80.9471 L 1008.45 81.043 L 1008.23 81.1993 L 1008.04 81.4212 L 1007.88 81.6986 L 1007.77 82.0365 L 1007.7 82.4349 L 1007.68 82.8838 L 1007.76 83.5999 L 1008.01 84.1193 L 1008.41 84.432 L 1008.95 84.538 L 1009.44 84.4471 L 1009.82 84.2101 L 1010.06 83.8369 L 1010.14 83.3629 L 1010.06 82.8838 L 1009.83 82.5156 L 1009.47 82.2836 L 1009.02 82.2029 L 1008.54 82.3038 L 1008.19 82.5912 L 1008.26 82.0365 L 1008.42 81.6381 L 1008.67 81.4011 L 1009.01 81.3204 L 1009.27 81.3607 L 1009.46 81.4666 L 1009.58 81.6431 L 1009.65 81.8802 L 1010.11 81.8802 L 1010.11 81.8802 z M 1009.65 83.3679 L 1009.6 83.6856 L 1009.46 83.9277 L 1009.23 84.0891 L 1008.95 84.1395 L 1008.65 84.0891 L 1008.42 83.9327 L 1008.28 83.6907 L 1008.23 83.3729 L 1008.28 83.0603 L 1008.42 82.8232 L 1008.66 82.6719 L 1008.97 82.6165 L 1009.24 82.6719 L 1009.46 82.8182 L 1009.6 83.0552 L 1009.65 83.3679 L 1009.65 83.3679 z" stroke="none" fill-rule="evenodd" fill="rgb(0, 0, 0)"/><path d="M 785.014 85.9194 L 783.083 86.4371 L 785.014 86.9547"/><path d="M 783.082 86.4375 L 1189.01 86.4375"/></g></svg>