<?xml version="1.0" encoding="utf-8" ?><!DOCTYPE svg PUBLIC "-//W3C//DTD SVG 1.1//EN" "http://www.w3.org/Graphics/SVG/1.1/DTD/svg11.dtd" 
[ <!ATTLIST svg 
  xmlns:dsy CDATA #FIXED "http://www.3ds.com/print"  
    dsy:text-version CDATA #IMPLIED > 

  <!ATTLIST text 
  xmlns:dsy CDATA #FIXED "http://www.3ds.com/print" 
    dsy:text-version CDATA #IMPLIED > 
]><svg xmlns="http://www.w3.org/2000/svg" xmlns:dsy="http://www.3ds.com/print" dsy:text-version="18000" width="297" height="210" viewBox="0 0 297 210" version="1.1"><g stroke="rgb(0, 0, 0)" stroke-width="0.13" stroke-linecap="butt" stroke-linejoin="miter" fill="none"><path d="M 57.1114 57.8473 L 22.7638 57.8473"/><path d="M 57.1114 45.8473 L 22.7638 45.8473"/><path d="M 129.277 69.4019 L 114.077 69.4019"/><path d="M 129.277 41.4019 L 114.077 41.4019"/></g><g stroke="rgb(0, 0, 0)" stroke-width="0.35" stroke-linecap="butt" stroke-linejoin="miter" fill="none"><path d="M 74.1114 57.8473 A 6 6 0 0 0 74.1114 45.8473"/><path d="M 74.1114 45.8473 L 59.1114 45.8473"/><path d="M 59.1114 45.8473 L 59.1114 57.8473"/><path d="M 59.1114 57.8473 L 74.1114 57.8473"/><circle cx="74.1114" cy="51.8473" r="2.1"/><path d="M 145.782 61.0149 L 138.391 43.9706"/><path d="M 138.391 43.9706 A 4.26585 4.26585 0 0 0 134.477 41.4019"/><path d="M 134.477 41.4019 L 131.277 41.4019"/><path d="M 131.277 41.4019 L 131.277 69.4019"/><path d="M 131.277 69.4019 L 140.277 69.4019"/><path d="M 140.277 69.4019 A 6 6 0 0 0 145.782 61.0149"/><circle cx="137.277" cy="63.4019" r="2.10001"/></g><g stroke="rgb(0, 0, 0)" stroke-width="0.13" stroke-linecap="butt" stroke-linejoin="miter" fill="none"><path d="M 22.7638 53.8061 L 22.7638 53.3471 L 19.2386 53.3471 L 19.2386 53.6901 L 19.5463 53.7809 L 19.753 53.9624 L 19.8741 54.2398 L 19.9144 54.6231 L 20.2725 54.6231 L 20.2725 53.8061 L 22.7638 53.8061 L 22.7638 53.8061 z M 22.7638 51.2098 L 22.7638 48.8042 L 22.3301 48.8042 L 22.3301 50.7055 L 22.0931 50.5996 L 21.8964 50.418 L 21.5383 49.8582 L 21.387 49.5607 L 21.1702 49.2278 L 20.918 48.9908 L 20.6205 48.8546 L 20.2826 48.8042 L 19.8589 48.8899 L 19.5261 49.127 L 19.3143 49.4901 L 19.2386 49.9591 L 19.3244 50.4433 L 19.5614 50.8114 L 19.9396 51.0484 L 20.4389 51.1291 L 20.5095 51.1291 L 20.5095 50.6702 L 20.4692 50.6702 L 20.1262 50.6248 L 19.8741 50.4886 L 19.7127 50.2718 L 19.6572 49.9843 L 19.7076 49.6918 L 19.8337 49.4749 L 20.0304 49.3337 L 20.2775 49.2833 L 20.5095 49.3186 L 20.7062 49.4144 L 20.8777 49.5758 L 21.029 49.7977 L 21.1903 50.0953 L 21.503 50.5895 L 21.8359 50.9375 L 22.2393 51.1443 L 22.7487 51.2098 L 22.7638 51.2098 L 22.7638 51.2098 z" stroke="none" fill-rule="evenodd" fill="rgb(0, 0, 0)"/><path d="M 24.2462 43.9154 L 24.7638 45.8473 L 25.2815 43.9154"/><path d="M 25.2815 59.7791 L 24.7638 57.8473 L 24.2462 59.7791"/><path d="M 24.7638 62.8473 L 24.7638 40.8473"/></g><g stroke="rgb(0, 0, 0)" stroke-width="0.13" stroke-linecap="butt" stroke-linejoin="miter" fill="none"><path d="M 141.173 77.7535 L 140.295 80.734 L 139.392 77.7535 L 138.913 77.7535 L 140.043 81.2585 L 140.547 81.2585 L 141.652 77.7535 L 141.173 77.7535 L 141.173 77.7535 z M 144.375 78.5503 L 143.931 78.5503 L 143.931 80.1137 L 143.881 80.4768 L 143.735 80.739 L 143.508 80.9004 L 143.21 80.9509 L 142.973 80.9105 L 142.822 80.7895 L 142.736 80.5827 L 142.716 80.2902 L 142.716 78.5503 L 142.272 78.5503 L 142.272 80.3306 L 142.287 80.6886 L 142.383 80.9862 L 142.676 81.2585 L 143.145 81.3543 L 143.397 81.319 L 143.614 81.2282 L 143.8 81.0719 L 143.951 80.845 L 143.951 81.2585 L 144.375 81.2585 L 144.375 78.5503 L 144.375 78.5503 z M 145.712 80.033 L 147.487 80.033 L 147.492 79.8262 L 147.411 79.2462 L 147.189 78.8125 L 146.836 78.5503 L 146.367 78.4545 L 145.908 78.5553 L 145.555 78.8378 L 145.328 79.2967 L 145.248 79.9019 L 145.323 80.5222 L 145.55 80.9761 L 145.898 81.2585 L 146.352 81.3543 L 146.745 81.2888 L 147.068 81.1173 L 147.305 80.845 L 147.441 80.4818 L 147.003 80.4818 L 146.912 80.6836 L 146.781 80.8349 L 146.408 80.9559 L 146.12 80.9004 L 145.903 80.7239 L 145.762 80.4364 L 145.712 80.0481 L 145.712 80.033 L 145.712 80.033 z M 145.712 79.6598 L 145.767 79.3118 L 145.903 79.0546 L 146.11 78.8983 L 146.382 78.8428 L 146.65 78.8983 L 146.856 79.0546 L 146.982 79.3118 L 147.028 79.6598 L 145.712 79.6598 L 145.712 79.6598 z M 153.06 80.8399 L 153.06 81.2585 L 153.503 81.2585 L 153.503 77.6375 L 153.065 77.6375 L 153.065 78.9638 L 152.727 78.5806 L 152.52 78.4898 L 152.283 78.4545 L 151.854 78.5553 L 151.521 78.8378 L 151.305 79.2916 L 151.229 79.9019 L 151.305 80.5121 L 151.521 80.971 L 151.854 81.2585 L 152.283 81.3543 L 152.52 81.319 L 152.732 81.2282 L 153.06 80.8399 L 153.06 80.8399 z M 152.359 78.8529 L 152.651 78.9235 L 152.873 79.1202 L 153.004 79.448 L 153.055 79.9019 L 153.004 80.3608 L 152.873 80.6886 L 152.651 80.8904 L 152.359 80.9559 L 152.081 80.8904 L 151.869 80.6886 L 151.728 80.3558 L 151.683 79.9019 L 151.728 79.453 L 151.869 79.1252 L 152.081 78.9235 L 152.359 78.8529 L 152.359 78.8529 z M 154.82 80.033 L 156.595 80.033 L 156.6 79.8262 L 156.519 79.2462 L 156.297 78.8125 L 155.944 78.5503 L 155.475 78.4545 L 155.016 78.5553 L 154.663 78.8378 L 154.436 79.2967 L 154.356 79.9019 L 154.431 80.5222 L 154.658 80.9761 L 155.006 81.2585 L 155.46 81.3543 L 155.854 81.2888 L 156.176 81.1173 L 156.413 80.845 L 156.549 80.4818 L 156.111 80.4818 L 156.02 80.6836 L 155.889 80.8349 L 155.516 80.9559 L 155.228 80.9004 L 155.011 80.7239 L 154.87 80.4364 L 154.82 80.0481 L 154.82 80.033 L 154.82 80.033 z M 154.82 79.6598 L 154.875 79.3118 L 155.011 79.0546 L 155.218 78.8983 L 155.49 78.8428 L 155.758 78.8983 L 155.964 79.0546 L 156.091 79.3118 L 156.136 79.6598 L 154.82 79.6598 L 154.82 79.6598 z M 161.119 79.0193 L 161.119 81.2585 L 161.562 81.2585 L 161.562 79.0193 L 162.571 79.0193 L 162.571 78.6411 L 161.562 78.6411 L 161.562 78.4746 L 161.598 78.2729 L 161.714 78.1367 L 161.91 78.056 L 162.193 78.0258 L 162.571 78.046 L 162.571 77.6627 L 162.092 77.6375 L 161.658 77.6828 L 161.356 77.819 L 161.174 78.056 L 161.119 78.394 L 161.119 78.6411 L 160.307 78.6411 L 160.307 79.0193 L 161.119 79.0193 L 161.119 79.0193 z M 165.148 80.9055 L 165.148 80.9206 L 165.173 81.0921 L 165.249 81.2131 L 165.567 81.3089 L 165.814 81.2686 L 165.814 80.9256 L 165.708 80.9408 L 165.567 80.8752 L 165.542 80.6735 L 165.542 79.2715 L 165.481 78.9134 L 165.305 78.6612 L 164.997 78.5099 L 164.563 78.4545 L 164.14 78.515 L 163.827 78.6864 L 163.63 78.9538 L 163.565 79.3068 L 163.565 79.337 L 163.963 79.337 L 163.998 79.1252 L 164.109 78.9739 L 164.291 78.8831 L 164.548 78.8478 L 164.795 78.873 L 164.972 78.9487 L 165.078 79.0798 L 165.113 79.2614 L 165.093 79.4732 L 165.012 79.5791 L 164.81 79.6295 L 164.432 79.6699 L 163.998 79.7607 L 163.691 79.922 L 163.509 80.1742 L 163.454 80.5474 L 163.504 80.8803 L 163.66 81.1274 L 163.913 81.2837 L 164.261 81.3392 L 164.73 81.2333 L 165.148 80.9055 L 165.148 80.9055 z M 165.098 80.3104 L 165.037 80.5726 L 164.876 80.7744 L 164.634 80.9055 L 164.336 80.9509 L 164.145 80.9256 L 164.008 80.845 L 163.923 80.7038 L 163.897 80.5071 L 163.918 80.3306 L 163.998 80.2045 L 164.321 80.0632 L 164.73 80.0027 L 165.098 79.8817 L 165.098 80.3104 L 165.098 80.3104 z M 168.3 79.448 L 168.739 79.448 L 168.648 79.0445 L 168.431 78.7268 L 168.093 78.5301 L 167.655 78.4545 L 167.171 78.5553 L 166.802 78.8378 L 166.57 79.2967 L 166.49 79.912 L 166.565 80.5222 L 166.792 80.9761 L 167.15 81.2585 L 167.64 81.3543 L 168.073 81.2787 L 168.411 81.0669 L 168.643 80.734 L 168.744 80.2902 L 168.32 80.2902 L 168.245 80.5726 L 168.104 80.7844 L 167.902 80.9156 L 167.655 80.9559 L 167.347 80.8904 L 167.125 80.6886 L 166.989 80.3608 L 166.944 79.8968 L 166.989 79.4429 L 167.13 79.1151 L 167.357 78.9134 L 167.655 78.8428 L 167.917 78.8882 L 168.114 79.0042 L 168.245 79.1958 L 168.3 79.448 L 168.3 79.448 z M 170 80.033 L 171.775 80.033 L 171.78 79.8262 L 171.699 79.2462 L 171.477 78.8125 L 171.124 78.5503 L 170.655 78.4545 L 170.196 78.5553 L 169.843 78.8378 L 169.617 79.2967 L 169.536 79.9019 L 169.611 80.5222 L 169.838 80.9761 L 170.186 81.2585 L 170.64 81.3543 L 171.034 81.2888 L 171.356 81.1173 L 171.593 80.845 L 171.73 80.4818 L 171.291 80.4818 L 171.2 80.6836 L 171.069 80.8349 L 170.696 80.9559 L 170.408 80.9004 L 170.191 80.7239 L 170.05 80.4364 L 170 80.0481 L 170 80.033 L 170 80.033 z M 170 79.6598 L 170.055 79.3118 L 170.191 79.0546 L 170.398 78.8983 L 170.671 78.8428 L 170.938 78.8983 L 171.145 79.0546 L 171.271 79.3118 L 171.316 79.6598 L 170 79.6598 L 170 79.6598 z" stroke="none" fill-rule="evenodd" fill="rgb(0, 0, 0)"/></g><g stroke="rgb(0, 0, 0)" stroke-width="0.13" stroke-linecap="butt" stroke-linejoin="miter" fill="none"><path d="M 139.236 87.3053 L 141.455 87.3053 L 141.455 86.8817 L 139.7 86.8817 L 139.7 85.6965 L 141.263 85.6965 L 141.263 85.278 L 139.7 85.278 L 139.7 84.229 L 141.415 84.229 L 141.415 83.8053 L 139.236 83.8053 L 139.236 87.3053 L 139.236 87.3053 z M 144.012 85.4948 L 144.451 85.4948 L 144.36 85.0914 L 144.143 84.7736 L 143.805 84.577 L 143.366 84.5013 L 142.882 84.6022 L 142.514 84.8846 L 142.282 85.3435 L 142.201 85.9588 L 142.277 86.569 L 142.504 87.0229 L 142.862 87.3053 L 143.351 87.4012 L 143.785 87.3255 L 144.123 87.1137 L 144.355 86.7808 L 144.456 86.337 L 144.032 86.337 L 143.957 86.6195 L 143.815 86.8313 L 143.614 86.9624 L 143.366 87.0027 L 143.059 86.9372 L 142.837 86.7355 L 142.701 86.4076 L 142.655 85.9437 L 142.701 85.4898 L 142.842 85.162 L 143.069 84.9602 L 143.366 84.8896 L 143.629 84.935 L 143.825 85.051 L 143.957 85.2427 L 144.012 85.4948 L 144.012 85.4948 z M 145.323 87.3053 L 145.767 87.3053 L 145.767 85.7419 L 145.812 85.3839 L 145.959 85.1216 L 146.186 84.9602 L 146.488 84.8997 L 146.73 84.9501 L 146.882 85.0863 L 146.957 85.3133 L 146.982 85.6159 L 146.982 87.3053 L 147.426 87.3053 L 147.426 85.5251 L 147.406 85.167 L 147.315 84.8695 L 147.018 84.5971 L 146.554 84.5013 L 146.302 84.5366 L 146.085 84.6324 L 145.903 84.7837 L 145.767 84.9905 L 145.767 83.6843 L 145.323 83.6843 L 145.323 87.3053 L 145.323 87.3053 z M 148.748 86.0798 L 150.523 86.0798 L 150.528 85.8731 L 150.447 85.2931 L 150.225 84.8594 L 149.872 84.5971 L 149.403 84.5013 L 148.944 84.6022 L 148.591 84.8846 L 148.364 85.3435 L 148.284 85.9487 L 148.359 86.569 L 148.586 87.0229 L 148.934 87.3053 L 149.388 87.4012 L 149.781 87.3356 L 150.104 87.1641 L 150.341 86.8918 L 150.477 86.5287 L 150.039 86.5287 L 149.948 86.7304 L 149.817 86.8817 L 149.444 87.0027 L 149.156 86.9473 L 148.939 86.7708 L 148.798 86.4833 L 148.748 86.095 L 148.748 86.0798 L 148.748 86.0798 z M 148.748 85.7066 L 148.803 85.3587 L 148.939 85.1014 L 149.146 84.9451 L 149.418 84.8896 L 149.686 84.9451 L 149.892 85.1014 L 150.018 85.3587 L 150.064 85.7066 L 148.748 85.7066 L 148.748 85.7066 z M 152.278 84.0575 L 152.278 86.9321 L 151.365 86.9321 L 151.365 87.3053 L 153.629 87.3053 L 153.629 86.9321 L 152.722 86.9321 L 152.722 83.6843 L 151.582 83.6843 L 151.582 84.0575 L 152.278 84.0575 L 152.278 84.0575 z M 155.314 84.0575 L 155.314 86.9321 L 154.401 86.9321 L 154.401 87.3053 L 156.665 87.3053 L 156.665 86.9321 L 155.758 86.9321 L 155.758 83.6843 L 154.618 83.6843 L 154.618 84.0575 L 155.314 84.0575 L 155.314 84.0575 z M 157.856 86.0798 L 159.631 86.0798 L 159.636 85.8731 L 159.555 85.2931 L 159.333 84.8594 L 158.98 84.5971 L 158.511 84.5013 L 158.052 84.6022 L 157.699 84.8846 L 157.472 85.3435 L 157.392 85.9487 L 157.467 86.569 L 157.694 87.0229 L 158.042 87.3053 L 158.496 87.4012 L 158.89 87.3356 L 159.212 87.1641 L 159.449 86.8918 L 159.586 86.5287 L 159.147 86.5287 L 159.056 86.7304 L 158.925 86.8817 L 158.552 87.0027 L 158.264 86.9473 L 158.047 86.7708 L 157.906 86.4833 L 157.856 86.095 L 157.856 86.0798 L 157.856 86.0798 z M 157.856 85.7066 L 157.911 85.3587 L 158.047 85.1014 L 158.254 84.9451 L 158.526 84.8896 L 158.794 84.9451 L 159 85.1014 L 159.127 85.3587 L 159.172 85.7066 L 157.856 85.7066 L 157.856 85.7066 z M 164.235 87.3053 L 164.931 87.3053 L 164.931 86.5539 L 164.235 86.5539 L 164.235 87.3053 L 164.235 87.3053 z M 164.235 85.3486 L 164.931 85.3486 L 164.931 84.5971 L 164.235 84.5971 L 164.235 85.3486 L 164.235 85.3486 z" stroke="none" fill-rule="evenodd" fill="rgb(0, 0, 0)"/></g><g stroke="rgb(0, 0, 0)" stroke-width="0.13" stroke-linecap="butt" stroke-linejoin="miter" fill="none"><path d="M 173.601 87.3053 L 174.06 87.3053 L 174.06 83.7801 L 173.717 83.7801 L 173.626 84.0878 L 173.444 84.2945 L 173.167 84.4156 L 172.784 84.4559 L 172.784 84.814 L 173.601 84.814 L 173.601 87.3053 L 173.601 87.3053 z M 176.379 87.3053 L 177.075 87.3053 L 177.075 86.5539 L 176.379 86.5539 L 176.379 87.3053 L 176.379 87.3053 z M 176.379 85.3486 L 177.075 85.3486 L 177.075 84.5971 L 176.379 84.5971 L 176.379 85.3486 L 176.379 85.3486 z M 179.673 87.3053 L 180.132 87.3053 L 180.132 83.7801 L 179.789 83.7801 L 179.698 84.0878 L 179.516 84.2945 L 179.239 84.4156 L 178.856 84.4559 L 178.856 84.814 L 179.673 84.814 L 179.673 87.3053 L 179.673 87.3053 z" stroke="none" fill-rule="evenodd" fill="rgb(0, 0, 0)"/></g><g stroke="rgb(0, 0, 0)" stroke-width="0.13" stroke-linecap="butt" stroke-linejoin="miter" fill="none"><path d="M 114.077 58.5004 L 114.077 56.0948 L 113.643 56.0948 L 113.643 57.9961 L 113.406 57.8902 L 113.209 57.7086 L 112.851 57.1488 L 112.7 56.8513 L 112.483 56.5184 L 112.231 56.2814 L 111.933 56.1452 L 111.596 56.0948 L 111.172 56.1805 L 110.839 56.4176 L 110.627 56.7807 L 110.552 57.2497 L 110.637 57.7339 L 110.874 58.102 L 111.253 58.339 L 111.752 58.4197 L 111.822 58.4197 L 111.822 57.9608 L 111.782 57.9608 L 111.439 57.9154 L 111.187 57.7792 L 111.026 57.5624 L 110.97 57.2749 L 111.021 56.9824 L 111.147 56.7655 L 111.343 56.6243 L 111.59 56.5739 L 111.822 56.6092 L 112.019 56.705 L 112.191 56.8664 L 112.342 57.0883 L 112.503 57.3859 L 112.816 57.8801 L 113.149 58.2281 L 113.552 58.4349 L 114.062 58.5004 L 114.077 58.5004 L 114.077 58.5004 z M 112.191 54.1592 L 112.332 54.4164 L 112.529 54.5929 L 112.776 54.7039 L 113.073 54.7392 L 113.522 54.6585 L 113.87 54.4265 L 114.092 54.0483 L 114.178 53.5339 L 114.092 53.0245 L 113.87 52.6462 L 113.522 52.4143 L 113.073 52.3285 L 112.776 52.3689 L 112.529 52.4748 L 112.332 52.6563 L 112.191 52.9085 L 112.07 52.7068 L 111.903 52.5656 L 111.701 52.4798 L 111.454 52.4496 L 111.096 52.5303 L 110.809 52.7421 L 110.622 53.085 L 110.552 53.5339 L 110.622 53.9877 L 110.809 54.3307 L 111.096 54.5475 L 111.454 54.6232 L 111.701 54.598 L 111.903 54.5122 L 112.191 54.1592 L 112.191 54.1592 z M 113.063 54.255 L 112.796 54.2096 L 112.594 54.0634 L 112.463 53.8364 L 112.418 53.5339 L 112.463 53.2363 L 112.594 53.0094 L 112.796 52.8631 L 113.063 52.8127 L 113.351 52.8631 L 113.567 53.0094 L 113.709 53.2363 L 113.754 53.5339 L 113.709 53.8364 L 113.567 54.0634 L 113.351 54.2096 L 113.063 54.255 L 113.063 54.255 z M 111.495 54.1441 L 111.273 54.1037 L 111.101 53.9827 L 110.995 53.7911 L 110.955 53.5339 L 110.995 53.2817 L 111.101 53.09 L 111.273 52.969 L 111.495 52.9236 L 111.722 52.969 L 111.898 53.09 L 112.014 53.2817 L 112.049 53.5339 L 112.009 53.7911 L 111.898 53.9827 L 111.722 54.1037 L 111.495 54.1441 L 111.495 54.1441 z" stroke="none" fill-rule="evenodd" fill="rgb(0, 0, 0)"/><path d="M 115.559 67.47 L 116.077 69.4019 L 116.594 67.47"/><path d="M 116.594 43.3337 L 116.077 41.4019 L 115.559 43.3337"/><path d="M 116.077 69.4019 L 116.077 41.4019"/></g></svg>