solid CATIA STL
  facet normal  -0.000000e+000  0.000000e+000  1.000000e+000
    outer loop
      vertex -1.534162e+000  2.808264e+000  3.500000e+000
      vertex -2.982514e+000  2.665448e+000  3.500000e+000
      vertex -1.954583e+000  2.533694e+000  3.500000e+000
    endloop
  endfacet
  facet normal  0.000000e+000  -0.000000e+000  1.000000e+000
    outer loop
      vertex  1.805687e+000  2.641873e+000  3.500000e+000
      vertex  2.196736e+000  2.326876e+000  3.500000e+000
      vertex  3.216508e+000  2.377831e+000  3.500000e+000
    endloop
  endfacet
  facet normal  0.000000e+000  -0.000000e+000  1.000000e+000
    outer loop
      vertex  9.202284e-002 -3.198677e+000  3.500000e+000
      vertex  6.314378e-001 -3.949846e+000  3.500000e+000
      vertex  1.163394e+000 -3.827076e+000  3.500000e+000
    endloop
  endfacet
  facet normal  0.000000e+000  -0.000000e+000  1.000000e+000
    outer loop
      vertex  9.202284e-002 -3.198677e+000  3.500000e+000
      vertex  1.163394e+000 -3.827076e+000  3.500000e+000
      vertex  1.673678e+000 -3.633015e+000  3.500000e+000
    endloop
  endfacet
  facet normal  0.000000e+000  -0.000000e+000  1.000000e+000
    outer loop
      vertex  9.202284e-002 -3.198677e+000  3.500000e+000
      vertex  1.673678e+000 -3.633015e+000  3.500000e+000
      vertex  2.152785e+000 -3.371278e+000  3.500000e+000
    endloop
  endfacet
  facet normal  0.000000e+000  0.000000e+000  9.999999e-001
    outer loop
      vertex  9.202284e-002 -3.198677e+000  3.500000e+000
      vertex  2.152785e+000 -3.371278e+000  3.500000e+000
      vertex  5.912731e-001 -3.144900e+000  3.500000e+000
    endloop
  endfacet
  facet normal  -0.000000e+000  -0.000000e+000  1.000000e+000
    outer loop
      vertex  4.094934e-001  3.173691e+000  3.500000e+000
      vertex  9.009265e-001  3.070559e+000  3.500000e+000
      vertex  2.862768e+000  2.793664e+000  3.500000e+000
    endloop
  endfacet
  facet normal  0.000000e+000  0.000000e+000  1.000000e+000
    outer loop
      vertex  4.094934e-001  3.173691e+000  3.500000e+000
      vertex  2.862768e+000  2.793664e+000  3.500000e+000
      vertex  2.455700e+000  3.157458e+000  3.500000e+000
    endloop
  endfacet
  facet normal  0.000000e+000  0.000000e+000  1.000000e+000
    outer loop
      vertex  4.094934e-001  3.173691e+000  3.500000e+000
      vertex  2.455700e+000  3.157458e+000  3.500000e+000
      vertex  2.002887e+000  3.462433e+000  3.500000e+000
    endloop
  endfacet
  facet normal  0.000000e+000  0.000000e+000  1.000000e+000
    outer loop
      vertex  4.094934e-001  3.173691e+000  3.500000e+000
      vertex  2.002887e+000  3.462433e+000  3.500000e+000
      vertex  1.512764e+000  3.702910e+000  3.500000e+000
    endloop
  endfacet
  facet normal  0.000000e+000  0.000000e+000  1.000000e+000
    outer loop
      vertex  4.094934e-001  3.173691e+000  3.500000e+000
      vertex  1.512764e+000  3.702910e+000  3.500000e+000
      vertex  9.944612e-001  3.874409e+000  3.500000e+000
    endloop
  endfacet
  facet normal  0.000000e+000  0.000000e+000  1.000000e+000
    outer loop
      vertex  4.094934e-001  3.173691e+000  3.500000e+000
      vertex  9.944612e-001  3.874409e+000  3.500000e+000
      vertex  4.576335e-001  3.973735e+000  3.500000e+000
    endloop
  endfacet
  facet normal  0.000000e+000  0.000000e+000  1.000000e+000
    outer loop
      vertex  4.094934e-001  3.173691e+000  3.500000e+000
      vertex  4.576335e-001  3.973735e+000  3.500000e+000
      vertex -8.771918e-002  3.999038e+000  3.500000e+000
    endloop
  endfacet
  facet normal  0.000000e+000  0.000000e+000  1.000000e+000
    outer loop
      vertex  4.094934e-001  3.173691e+000  3.500000e+000
      vertex -8.771918e-002  3.999038e+000  3.500000e+000
      vertex -9.202284e-002  3.198677e+000  3.500000e+000
    endloop
  endfacet
  facet normal  0.000000e+000  0.000000e+000  1.000000e+000
    outer loop
      vertex -9.202284e-002  3.198677e+000  3.500000e+000
      vertex -8.771918e-002  3.999038e+000  3.500000e+000
      vertex -6.314378e-001  3.949846e+000  3.500000e+000
    endloop
  endfacet
  facet normal  0.000000e+000  0.000000e+000  1.000000e+000
    outer loop
      vertex -9.202284e-002  3.198677e+000  3.500000e+000
      vertex -6.314378e-001  3.949846e+000  3.500000e+000
      vertex -1.163394e+000  3.827076e+000  3.500000e+000
    endloop
  endfacet
  facet normal  0.000000e+000  0.000000e+000  1.000000e+000
    outer loop
      vertex -9.202284e-002  3.198677e+000  3.500000e+000
      vertex -1.163394e+000  3.827076e+000  3.500000e+000
      vertex -1.673678e+000  3.633015e+000  3.500000e+000
    endloop
  endfacet
  facet normal  0.000000e+000  0.000000e+000  1.000000e+000
    outer loop
      vertex -9.202284e-002  3.198677e+000  3.500000e+000
      vertex -1.673678e+000  3.633015e+000  3.500000e+000
      vertex -2.152785e+000  3.371278e+000  3.500000e+000
    endloop
  endfacet
  facet normal  0.000000e+000  0.000000e+000  1.000000e+000
    outer loop
      vertex -9.202284e-002  3.198677e+000  3.500000e+000
      vertex -2.152785e+000  3.371278e+000  3.500000e+000
      vertex -2.591789e+000  3.046741e+000  3.500000e+000
    endloop
  endfacet
  facet normal  0.000000e+000  0.000000e+000  1.000000e+000
    outer loop
      vertex -9.202284e-002  3.198677e+000  3.500000e+000
      vertex -2.591789e+000  3.046741e+000  3.500000e+000
      vertex -5.912731e-001  3.144900e+000  3.500000e+000
    endloop
  endfacet
  facet normal  0.000000e+000  0.000000e+000  1.000000e+000
    outer loop
      vertex  6.314378e-001 -3.949846e+000  3.500000e+000
      vertex  9.202284e-002 -3.198677e+000  3.500000e+000
      vertex  8.771918e-002 -3.999038e+000  3.500000e+000
    endloop
  endfacet
  facet normal  0.000000e+000  -0.000000e+000  1.000000e+000
    outer loop
      vertex  8.771918e-002 -3.999038e+000  3.500000e+000
      vertex  9.202284e-002 -3.198677e+000  3.500000e+000
      vertex -4.094934e-001 -3.173691e+000  3.500000e+000
    endloop
  endfacet
  facet normal  0.000000e+000  0.000000e+000  1.000000e+000
    outer loop
      vertex  8.771918e-002 -3.999038e+000  3.500000e+000
      vertex -4.094934e-001 -3.173691e+000  3.500000e+000
      vertex -4.576335e-001 -3.973735e+000  3.500000e+000
    endloop
  endfacet
  facet normal  0.000000e+000  -0.000000e+000  1.000000e+000
    outer loop
      vertex -4.576335e-001 -3.973735e+000  3.500000e+000
      vertex -4.094934e-001 -3.173691e+000  3.500000e+000
      vertex -2.002887e+000 -3.462433e+000  3.500000e+000
    endloop
  endfacet
  facet normal  0.000000e+000  0.000000e+000  1.000000e+000
    outer loop
      vertex -4.576335e-001 -3.973735e+000  3.500000e+000
      vertex -2.002887e+000 -3.462433e+000  3.500000e+000
      vertex -9.944612e-001 -3.874409e+000  3.500000e+000
    endloop
  endfacet
  facet normal  0.000000e+000  0.000000e+000  9.999999e-001
    outer loop
      vertex -9.944612e-001 -3.874409e+000  3.500000e+000
      vertex -2.002887e+000 -3.462433e+000  3.500000e+000
      vertex -1.512764e+000 -3.702910e+000  3.500000e+000
    endloop
  endfacet
  facet normal  0.000000e+000  0.000000e+000  1.000000e+000
    outer loop
      vertex -2.982514e+000  2.665448e+000  3.500000e+000
      vertex -1.534162e+000  2.808264e+000  3.500000e+000
      vertex -2.591789e+000  3.046741e+000  3.500000e+000
    endloop
  endfacet
  facet normal  0.000000e+000  0.000000e+000  1.000000e+000
    outer loop
      vertex -2.591789e+000  3.046741e+000  3.500000e+000
      vertex -1.534162e+000  2.808264e+000  3.500000e+000
      vertex -1.075964e+000  3.013685e+000  3.500000e+000
    endloop
  endfacet
  facet normal  0.000000e+000  -0.000000e+000  1.000000e+000
    outer loop
      vertex -2.591789e+000  3.046741e+000  3.500000e+000
      vertex -1.075964e+000  3.013685e+000  3.500000e+000
      vertex -5.912731e-001  3.144900e+000  3.500000e+000
    endloop
  endfacet
  facet normal  0.000000e+000  0.000000e+000  1.000000e+000
    outer loop
      vertex -1.954583e+000  2.533694e+000  3.500000e+000
      vertex -2.982514e+000  2.665448e+000  3.500000e+000
      vertex -2.326876e+000  2.196736e+000  3.500000e+000
    endloop
  endfacet
  facet normal  0.000000e+000  0.000000e+000  1.000000e+000
    outer loop
      vertex -2.326876e+000  2.196736e+000  3.500000e+000
      vertex -2.982514e+000  2.665448e+000  3.500000e+000
      vertex -3.317680e+000  2.234503e+000  3.500000e+000
    endloop
  endfacet
  facet normal  0.000000e+000  0.000000e+000  1.000000e+000
    outer loop
      vertex -2.326876e+000  2.196736e+000  3.500000e+000
      vertex -3.317680e+000  2.234503e+000  3.500000e+000
      vertex -2.641873e+000  1.805687e+000  3.500000e+000
    endloop
  endfacet
  facet normal  0.000000e+000  0.000000e+000  1.000000e+000
    outer loop
      vertex -2.641873e+000  1.805687e+000  3.500000e+000
      vertex -3.317680e+000  2.234503e+000  3.500000e+000
      vertex -3.591043e+000  1.761933e+000  3.500000e+000
    endloop
  endfacet
  facet normal  -0.000000e+000  0.000000e+000  1.000000e+000
    outer loop
      vertex -2.641873e+000  1.805687e+000  3.500000e+000
      vertex -3.591043e+000  1.761933e+000  3.500000e+000
      vertex -2.891819e+000  1.370176e+000  3.500000e+000
    endloop
  endfacet
  facet normal  0.000000e+000  0.000000e+000  9.999999e-001
    outer loop
      vertex -2.891819e+000  1.370176e+000  3.500000e+000
      vertex -3.591043e+000  1.761933e+000  3.500000e+000
      vertex -3.797513e+000  1.256542e+000  3.500000e+000
    endloop
  endfacet
  facet normal  -0.000000e+000  0.000000e+000  1.000000e+000
    outer loop
      vertex -2.891819e+000  1.370176e+000  3.500000e+000
      vertex -3.797513e+000  1.256542e+000  3.500000e+000
      vertex -3.070559e+000  9.009265e-001  3.500000e+000
    endloop
  endfacet
  facet normal  0.000000e+000  0.000000e+000  1.000000e+000
    outer loop
      vertex -3.070559e+000  9.009265e-001  3.500000e+000
      vertex -3.797513e+000  1.256542e+000  3.500000e+000
      vertex -3.933242e+000  7.277439e-001  3.500000e+000
    endloop
  endfacet
  facet normal  -0.000000e+000  0.000000e+000  1.000000e+000
    outer loop
      vertex -3.070559e+000  9.009265e-001  3.500000e+000
      vertex -3.933242e+000  7.277439e-001  3.500000e+000
      vertex -3.173691e+000  4.094934e-001  3.500000e+000
    endloop
  endfacet
  facet normal  0.000000e+000  0.000000e+000  1.000000e+000
    outer loop
      vertex -3.173691e+000  4.094934e-001  3.500000e+000
      vertex -3.933242e+000  7.277439e-001  3.500000e+000
      vertex -3.995702e+000  1.853893e-001  3.500000e+000
    endloop
  endfacet
  facet normal  -0.000000e+000  0.000000e+000  9.999999e-001
    outer loop
      vertex -3.173691e+000  4.094934e-001  3.500000e+000
      vertex -3.995702e+000  1.853893e-001  3.500000e+000
      vertex -3.198677e+000 -9.202284e-002  3.500000e+000
    endloop
  endfacet
  facet normal  0.000000e+000  0.000000e+000  1.000000e+000
    outer loop
      vertex -3.198677e+000 -9.202284e-002  3.500000e+000
      vertex -3.995702e+000  1.853893e-001  3.500000e+000
      vertex -3.983729e+000 -3.604187e-001  3.500000e+000
    endloop
  endfacet
  facet normal  -0.000000e+000  0.000000e+000  1.000000e+000
    outer loop
      vertex -3.198677e+000 -9.202284e-002  3.500000e+000
      vertex -3.983729e+000 -3.604187e-001  3.500000e+000
      vertex -3.144900e+000 -5.912731e-001  3.500000e+000
    endloop
  endfacet
  facet normal  0.000000e+000  0.000000e+000  1.000000e+000
    outer loop
      vertex -3.144900e+000 -5.912731e-001  3.500000e+000
      vertex -3.983729e+000 -3.604187e-001  3.500000e+000
      vertex -3.013685e+000 -1.075964e+000  3.500000e+000
    endloop
  endfacet
  facet normal  0.000000e+000  0.000000e+000  1.000000e+000
    outer loop
      vertex -3.013685e+000 -1.075964e+000  3.500000e+000
      vertex -3.983729e+000 -3.604187e-001  3.500000e+000
      vertex -3.897547e+000 -8.995128e-001  3.500000e+000
    endloop
  endfacet
  facet normal  0.000000e+000  0.000000e+000  1.000000e+000
    outer loop
      vertex -3.013685e+000 -1.075964e+000  3.500000e+000
      vertex -3.897547e+000 -8.995128e-001  3.500000e+000
      vertex -2.808264e+000 -1.534162e+000  3.500000e+000
    endloop
  endfacet
  facet normal  0.000000e+000  0.000000e+000  1.000000e+000
    outer loop
      vertex -2.808264e+000 -1.534162e+000  3.500000e+000
      vertex -3.897547e+000 -8.995128e-001  3.500000e+000
      vertex -3.738762e+000 -1.421851e+000  3.500000e+000
    endloop
  endfacet
  facet normal  0.000000e+000  0.000000e+000  1.000000e+000
    outer loop
      vertex -2.808264e+000 -1.534162e+000  3.500000e+000
      vertex -3.738762e+000 -1.421851e+000  3.500000e+000
      vertex -2.533694e+000 -1.954583e+000  3.500000e+000
    endloop
  endfacet
  facet normal  0.000000e+000  0.000000e+000  1.000000e+000
    outer loop
      vertex -2.533694e+000 -1.954583e+000  3.500000e+000
      vertex -3.738762e+000 -1.421851e+000  3.500000e+000
      vertex -3.510330e+000 -1.917702e+000  3.500000e+000
    endloop
  endfacet
  facet normal  0.000000e+000  0.000000e+000  1.000000e+000
    outer loop
      vertex -2.533694e+000 -1.954583e+000  3.500000e+000
      vertex -3.510330e+000 -1.917702e+000  3.500000e+000
      vertex -2.196736e+000 -2.326876e+000  3.500000e+000
    endloop
  endfacet
  facet normal  0.000000e+000  0.000000e+000  1.000000e+000
    outer loop
      vertex -2.196736e+000 -2.326876e+000  3.500000e+000
      vertex -3.510330e+000 -1.917702e+000  3.500000e+000
      vertex -3.216508e+000 -2.377831e+000  3.500000e+000
    endloop
  endfacet
  facet normal  -0.000000e+000  0.000000e+000  1.000000e+000
    outer loop
      vertex -2.196736e+000 -2.326876e+000  3.500000e+000
      vertex -3.216508e+000 -2.377831e+000  3.500000e+000
      vertex -1.805687e+000 -2.641873e+000  3.500000e+000
    endloop
  endfacet
  facet normal  0.000000e+000  0.000000e+000  1.000000e+000
    outer loop
      vertex -1.805687e+000 -2.641873e+000  3.500000e+000
      vertex -3.216508e+000 -2.377831e+000  3.500000e+000
      vertex -2.862768e+000 -2.793664e+000  3.500000e+000
    endloop
  endfacet
  facet normal  -0.000000e+000  0.000000e+000  1.000000e+000
    outer loop
      vertex -1.805687e+000 -2.641873e+000  3.500000e+000
      vertex -2.862768e+000 -2.793664e+000  3.500000e+000
      vertex -1.370176e+000 -2.891819e+000  3.500000e+000
    endloop
  endfacet
  facet normal  0.000000e+000  0.000000e+000  1.000000e+000
    outer loop
      vertex -2.002887e+000 -3.462433e+000  3.500000e+000
      vertex -4.094934e-001 -3.173691e+000  3.500000e+000
      vertex -2.455700e+000 -3.157458e+000  3.500000e+000
    endloop
  endfacet
  facet normal  -0.000000e+000  0.000000e+000  1.000000e+000
    outer loop
      vertex -2.455700e+000 -3.157458e+000  3.500000e+000
      vertex -4.094934e-001 -3.173691e+000  3.500000e+000
      vertex -9.009265e-001 -3.070559e+000  3.500000e+000
    endloop
  endfacet
  facet normal  0.000000e+000  0.000000e+000  1.000000e+000
    outer loop
      vertex -2.455700e+000 -3.157458e+000  3.500000e+000
      vertex -9.009265e-001 -3.070559e+000  3.500000e+000
      vertex -2.862768e+000 -2.793664e+000  3.500000e+000
    endloop
  endfacet
  facet normal  0.000000e+000  0.000000e+000  1.000000e+000
    outer loop
      vertex -2.862768e+000 -2.793664e+000  3.500000e+000
      vertex -9.009265e-001 -3.070559e+000  3.500000e+000
      vertex -1.370176e+000 -2.891819e+000  3.500000e+000
    endloop
  endfacet
  facet normal  0.000000e+000  0.000000e+000  1.000000e+000
    outer loop
      vertex  1.805687e+000  2.641873e+000  3.500000e+000
      vertex  3.216508e+000  2.377831e+000  3.500000e+000
      vertex  1.370176e+000  2.891819e+000  3.500000e+000
    endloop
  endfacet
  facet normal  0.000000e+000  0.000000e+000  1.000000e+000
    outer loop
      vertex  1.370176e+000  2.891819e+000  3.500000e+000
      vertex  3.216508e+000  2.377831e+000  3.500000e+000
      vertex  2.862768e+000  2.793664e+000  3.500000e+000
    endloop
  endfacet
  facet normal  0.000000e+000  0.000000e+000  1.000000e+000
    outer loop
      vertex  1.370176e+000  2.891819e+000  3.500000e+000
      vertex  2.862768e+000  2.793664e+000  3.500000e+000
      vertex  9.009265e-001  3.070559e+000  3.500000e+000
    endloop
  endfacet
  facet normal  -0.000000e+000  0.000000e+000  1.000000e+000
    outer loop
      vertex  3.216508e+000  2.377831e+000  3.500000e+000
      vertex  2.196736e+000  2.326876e+000  3.500000e+000
      vertex  3.510330e+000  1.917702e+000  3.500000e+000
    endloop
  endfacet
  facet normal  0.000000e+000  0.000000e+000  1.000000e+000
    outer loop
      vertex  3.510330e+000  1.917702e+000  3.500000e+000
      vertex  2.196736e+000  2.326876e+000  3.500000e+000
      vertex  2.533694e+000  1.954583e+000  3.500000e+000
    endloop
  endfacet
  facet normal  0.000000e+000  0.000000e+000  1.000000e+000
    outer loop
      vertex  3.510330e+000  1.917702e+000  3.500000e+000
      vertex  2.533694e+000  1.954583e+000  3.500000e+000
      vertex  3.738762e+000  1.421851e+000  3.500000e+000
    endloop
  endfacet
  facet normal  0.000000e+000  0.000000e+000  1.000000e+000
    outer loop
      vertex  3.738762e+000  1.421851e+000  3.500000e+000
      vertex  2.533694e+000  1.954583e+000  3.500000e+000
      vertex  2.808264e+000  1.534162e+000  3.500000e+000
    endloop
  endfacet
  facet normal  0.000000e+000  0.000000e+000  1.000000e+000
    outer loop
      vertex  3.738762e+000  1.421851e+000  3.500000e+000
      vertex  2.808264e+000  1.534162e+000  3.500000e+000
      vertex  3.897547e+000  8.995128e-001  3.500000e+000
    endloop
  endfacet
  facet normal  0.000000e+000  0.000000e+000  1.000000e+000
    outer loop
      vertex  3.897547e+000  8.995128e-001  3.500000e+000
      vertex  2.808264e+000  1.534162e+000  3.500000e+000
      vertex  3.013685e+000  1.075964e+000  3.500000e+000
    endloop
  endfacet
  facet normal  0.000000e+000  0.000000e+000  1.000000e+000
    outer loop
      vertex  3.897547e+000  8.995128e-001  3.500000e+000
      vertex  3.013685e+000  1.075964e+000  3.500000e+000
      vertex  3.983729e+000  3.604187e-001  3.500000e+000
    endloop
  endfacet
  facet normal  0.000000e+000  0.000000e+000  1.000000e+000
    outer loop
      vertex  3.983729e+000  3.604187e-001  3.500000e+000
      vertex  3.013685e+000  1.075964e+000  3.500000e+000
      vertex  3.144900e+000  5.912731e-001  3.500000e+000
    endloop
  endfacet
  facet normal  0.000000e+000  0.000000e+000  9.999999e-001
    outer loop
      vertex  3.983729e+000  3.604187e-001  3.500000e+000
      vertex  3.144900e+000  5.912731e-001  3.500000e+000
      vertex  3.995702e+000 -1.853893e-001  3.500000e+000
    endloop
  endfacet
  facet normal  0.000000e+000  0.000000e+000  9.999999e-001
    outer loop
      vertex  3.995702e+000 -1.853893e-001  3.500000e+000
      vertex  3.144900e+000  5.912731e-001  3.500000e+000
      vertex  3.198677e+000  9.202284e-002  3.500000e+000
    endloop
  endfacet
  facet normal  0.000000e+000  0.000000e+000  1.000000e+000
    outer loop
      vertex  3.995702e+000 -1.853893e-001  3.500000e+000
      vertex  3.198677e+000  9.202284e-002  3.500000e+000
      vertex  3.173691e+000 -4.094934e-001  3.500000e+000
    endloop
  endfacet
  facet normal  -0.000000e+000  0.000000e+000  1.000000e+000
    outer loop
      vertex  3.995702e+000 -1.853893e-001  3.500000e+000
      vertex  3.173691e+000 -4.094934e-001  3.500000e+000
      vertex  3.933242e+000 -7.277439e-001  3.500000e+000
    endloop
  endfacet
  facet normal  0.000000e+000  0.000000e+000  1.000000e+000
    outer loop
      vertex  3.933242e+000 -7.277439e-001  3.500000e+000
      vertex  3.173691e+000 -4.094934e-001  3.500000e+000
      vertex  3.070559e+000 -9.009265e-001  3.500000e+000
    endloop
  endfacet
  facet normal  -0.000000e+000  0.000000e+000  1.000000e+000
    outer loop
      vertex  3.933242e+000 -7.277439e-001  3.500000e+000
      vertex  3.070559e+000 -9.009265e-001  3.500000e+000
      vertex  3.797513e+000 -1.256542e+000  3.500000e+000
    endloop
  endfacet
  facet normal  0.000000e+000  0.000000e+000  1.000000e+000
    outer loop
      vertex  3.797513e+000 -1.256542e+000  3.500000e+000
      vertex  3.070559e+000 -9.009265e-001  3.500000e+000
      vertex  2.891819e+000 -1.370176e+000  3.500000e+000
    endloop
  endfacet
  facet normal  -0.000000e+000  0.000000e+000  9.999999e-001
    outer loop
      vertex  3.797513e+000 -1.256542e+000  3.500000e+000
      vertex  2.891819e+000 -1.370176e+000  3.500000e+000
      vertex  3.591043e+000 -1.761933e+000  3.500000e+000
    endloop
  endfacet
  facet normal  0.000000e+000  0.000000e+000  1.000000e+000
    outer loop
      vertex  3.591043e+000 -1.761933e+000  3.500000e+000
      vertex  2.891819e+000 -1.370176e+000  3.500000e+000
      vertex  2.641873e+000 -1.805687e+000  3.500000e+000
    endloop
  endfacet
  facet normal  -0.000000e+000  0.000000e+000  1.000000e+000
    outer loop
      vertex  3.591043e+000 -1.761933e+000  3.500000e+000
      vertex  2.641873e+000 -1.805687e+000  3.500000e+000
      vertex  3.317680e+000 -2.234503e+000  3.500000e+000
    endloop
  endfacet
  facet normal  0.000000e+000  0.000000e+000  1.000000e+000
    outer loop
      vertex  3.317680e+000 -2.234503e+000  3.500000e+000
      vertex  2.641873e+000 -1.805687e+000  3.500000e+000
      vertex  2.326876e+000 -2.196736e+000  3.500000e+000
    endloop
  endfacet
  facet normal  0.000000e+000  0.000000e+000  1.000000e+000
    outer loop
      vertex  3.317680e+000 -2.234503e+000  3.500000e+000
      vertex  2.326876e+000 -2.196736e+000  3.500000e+000
      vertex  2.982514e+000 -2.665448e+000  3.500000e+000
    endloop
  endfacet
  facet normal  0.000000e+000  0.000000e+000  1.000000e+000
    outer loop
      vertex  2.982514e+000 -2.665448e+000  3.500000e+000
      vertex  2.326876e+000 -2.196736e+000  3.500000e+000
      vertex  1.954583e+000 -2.533694e+000  3.500000e+000
    endloop
  endfacet
  facet normal  0.000000e+000  0.000000e+000  1.000000e+000
    outer loop
      vertex  2.982514e+000 -2.665448e+000  3.500000e+000
      vertex  1.954583e+000 -2.533694e+000  3.500000e+000
      vertex  2.591789e+000 -3.046741e+000  3.500000e+000
    endloop
  endfacet
  facet normal  0.000000e+000  0.000000e+000  1.000000e+000
    outer loop
      vertex  2.591789e+000 -3.046741e+000  3.500000e+000
      vertex  1.954583e+000 -2.533694e+000  3.500000e+000
      vertex  1.534162e+000 -2.808264e+000  3.500000e+000
    endloop
  endfacet
  facet normal  0.000000e+000  0.000000e+000  1.000000e+000
    outer loop
      vertex  2.591789e+000 -3.046741e+000  3.500000e+000
      vertex  1.534162e+000 -2.808264e+000  3.500000e+000
      vertex  1.075964e+000 -3.013685e+000  3.500000e+000
    endloop
  endfacet
  facet normal  0.000000e+000  0.000000e+000  1.000000e+000
    outer loop
      vertex  5.912731e-001 -3.144900e+000  3.500000e+000
      vertex  2.152785e+000 -3.371278e+000  3.500000e+000
      vertex  1.075964e+000 -3.013685e+000  3.500000e+000
    endloop
  endfacet
  facet normal  0.000000e+000  0.000000e+000  1.000000e+000
    outer loop
      vertex  1.075964e+000 -3.013685e+000  3.500000e+000
      vertex  2.152785e+000 -3.371278e+000  3.500000e+000
      vertex  2.591789e+000 -3.046741e+000  3.500000e+000
    endloop
  endfacet
  facet normal  4.576983e-016  5.682029e-016 -1.000000e+000
    outer loop
      vertex  2.196736e+000  2.326876e+000 -1.110223e-015
      vertex  1.805687e+000  2.641873e+000 -1.110223e-015
      vertex  4.475671e+000  2.445070e+000  0.000000e+000
    endloop
  endfacet
  facet normal  0.000000e+000  0.000000e+000 -9.999999e-001
    outer loop
      vertex -3.760473e+000 -3.445119e+000  0.000000e+000
      vertex -5.302176e-001 -5.072363e+000  0.000000e+000
      vertex -1.137758e+000 -4.971469e+000  0.000000e+000
    endloop
  endfacet
  facet normal  0.000000e+000  0.000000e+000 -1.000000e+000
    outer loop
      vertex -3.760473e+000 -3.445119e+000  0.000000e+000
      vertex -1.137758e+000 -4.971469e+000  0.000000e+000
      vertex -1.728706e+000 -4.798080e+000  0.000000e+000
    endloop
  endfacet
  facet normal  0.000000e+000  0.000000e+000 -1.000000e+000
    outer loop
      vertex -3.760473e+000 -3.445119e+000  0.000000e+000
      vertex -1.728706e+000 -4.798080e+000  0.000000e+000
      vertex -2.294447e+000 -4.554724e+000  0.000000e+000
    endloop
  endfacet
  facet normal  0.000000e+000  0.000000e+000 -1.000000e+000
    outer loop
      vertex -3.760473e+000 -3.445119e+000  0.000000e+000
      vertex -2.294447e+000 -4.554724e+000  0.000000e+000
      vertex -2.826729e+000 -4.244950e+000  0.000000e+000
    endloop
  endfacet
  facet normal  0.000000e+000  0.000000e+000 -1.000000e+000
    outer loop
      vertex -3.760473e+000 -3.445119e+000  0.000000e+000
      vertex -2.826729e+000 -4.244950e+000  0.000000e+000
      vertex -3.317791e+000 -3.873275e+000  0.000000e+000
    endloop
  endfacet
  facet normal  2.271747e-016 -2.109045e-015 -1.000000e+000
    outer loop
      vertex  9.202284e-002 -3.198677e+000 -1.110223e-015
      vertex  5.912731e-001 -3.144900e+000 -1.110223e-015
      vertex  3.873275e+000 -3.317791e+000  0.000000e+000
    endloop
  endfacet
  facet normal  2.849313e-016 -2.755822e-016 -1.000000e+000
    outer loop
      vertex  9.202284e-002 -3.198677e+000 -1.110223e-015
      vertex  3.873275e+000 -3.317791e+000  0.000000e+000
      vertex  3.445119e+000 -3.760473e+000  0.000000e+000
    endloop
  endfacet
  facet normal  2.743966e-016 -3.384588e-016 -1.000000e+000
    outer loop
      vertex  9.202284e-002 -3.198677e+000 -1.110223e-015
      vertex  3.445119e+000 -3.760473e+000  0.000000e+000
      vertex  2.966725e+000 -4.148318e+000  0.000000e+000
    endloop
  endfacet
  facet normal  2.530131e-016 -4.031898e-016 -1.000000e+000
    outer loop
      vertex  9.202284e-002 -3.198677e+000 -1.110223e-015
      vertex  2.966725e+000 -4.148318e+000  0.000000e+000
      vertex  2.445070e+000 -4.475671e+000  0.000000e+000
    endloop
  endfacet
  facet normal  2.190446e-016 -4.657817e-016 -1.000000e+000
    outer loop
      vertex  9.202284e-002 -3.198677e+000 -1.110223e-015
      vertex  2.445070e+000 -4.475671e+000  0.000000e+000
      vertex  1.887760e+000 -4.737759e+000  0.000000e+000
    endloop
  endfacet
  facet normal  1.718740e-016 -5.208184e-016 -9.999999e-001
    outer loop
      vertex  9.202284e-002 -3.198677e+000 -1.110223e-015
      vertex  1.887760e+000 -4.737759e+000  0.000000e+000
      vertex  1.302923e+000 -4.930760e+000  0.000000e+000
    endloop
  endfacet
  facet normal  1.127404e-016 -5.621587e-016 -1.000000e+000
    outer loop
      vertex  9.202284e-002 -3.198677e+000 -1.110223e-015
      vertex  1.302923e+000 -4.930760e+000  0.000000e+000
      vertex  6.990855e-001 -5.051859e+000  0.000000e+000
    endloop
  endfacet
  facet normal  2.909651e-017  5.840324e-016 -9.999999e-001
    outer loop
      vertex  4.094934e-001  3.173691e+000 -1.110223e-015
      vertex -9.202284e-002  3.198677e+000 -1.110223e-015
      vertex -8.505413e-002  5.099291e+000  0.000000e+000
    endloop
  endfacet
  facet normal  2.552008e-017  5.831138e-016 -1.000000e+000
    outer loop
      vertex  4.094934e-001  3.173691e+000 -1.110223e-015
      vertex -8.505413e-002  5.099291e+000  0.000000e+000
      vertex  5.302176e-001  5.072363e+000  0.000000e+000
    endloop
  endfacet
  facet normal  9.609235e-017  5.786266e-016 -1.000000e+000
    outer loop
      vertex  4.094934e-001  3.173691e+000 -1.110223e-015
      vertex  5.302176e-001  5.072363e+000  0.000000e+000
      vertex  1.137758e+000  4.971469e+000  0.000000e+000
    endloop
  endfacet
  facet normal  1.619463e-016  5.519497e-016 -1.000000e+000
    outer loop
      vertex  4.094934e-001  3.173691e+000 -1.110223e-015
      vertex  1.137758e+000  4.971469e+000  0.000000e+000
      vertex  1.728706e+000  4.798080e+000  0.000000e+000
    endloop
  endfacet
  facet normal  2.178830e-016  5.065219e-016 -1.000000e+000
    outer loop
      vertex  4.094934e-001  3.173691e+000 -1.110223e-015
      vertex  1.728706e+000  4.798080e+000  0.000000e+000
      vertex  2.294447e+000  4.554724e+000  0.000000e+000
    endloop
  endfacet
  facet normal  2.607398e-016  4.480273e-016 -1.000000e+000
    outer loop
      vertex  4.094934e-001  3.173691e+000 -1.110223e-015
      vertex  2.294447e+000  4.554724e+000  0.000000e+000
      vertex  2.826729e+000  4.244950e+000  0.000000e+000
    endloop
  endfacet
  facet normal  2.896790e-016  3.827278e-016 -1.000000e+000
    outer loop
      vertex  4.094934e-001  3.173691e+000 -1.110223e-015
      vertex  2.826729e+000  4.244950e+000  0.000000e+000
      vertex  3.317791e+000  3.873275e+000  0.000000e+000
    endloop
  endfacet
  facet normal  3.057105e-016  3.160818e-016 -1.000000e+000
    outer loop
      vertex  4.094934e-001  3.173691e+000 -1.110223e-015
      vertex  3.317791e+000  3.873275e+000  0.000000e+000
      vertex  3.760473e+000  3.445119e+000  0.000000e+000
    endloop
  endfacet
  facet normal  3.108970e-016  2.520516e-016 -1.000000e+000
    outer loop
      vertex  4.094934e-001  3.173691e+000 -1.110223e-015
      vertex  3.760473e+000  3.445119e+000  0.000000e+000
      vertex  4.148318e+000  2.966725e+000  0.000000e+000
    endloop
  endfacet
  facet normal  4.033336e-016  1.921916e-015 -1.000000e+000
    outer loop
      vertex  4.094934e-001  3.173691e+000 -1.110223e-015
      vertex  4.148318e+000  2.966725e+000  0.000000e+000
      vertex  9.009265e-001  3.070559e+000 -1.110223e-015
    endloop
  endfacet
  facet normal -2.271747e-016  2.109045e-015 -1.000000e+000
    outer loop
      vertex -9.202284e-002  3.198677e+000 -1.110223e-015
      vertex -5.912731e-001  3.144900e+000 -1.110223e-015
      vertex -3.873275e+000  3.317791e+000  0.000000e+000
    endloop
  endfacet
  facet normal -2.849313e-016  2.755822e-016 -1.000000e+000
    outer loop
      vertex -9.202284e-002  3.198677e+000 -1.110223e-015
      vertex -3.873275e+000  3.317791e+000  0.000000e+000
      vertex -3.445119e+000  3.760473e+000  0.000000e+000
    endloop
  endfacet
  facet normal -2.743966e-016  3.384588e-016 -1.000000e+000
    outer loop
      vertex -9.202284e-002  3.198677e+000 -1.110223e-015
      vertex -3.445119e+000  3.760473e+000  0.000000e+000
      vertex -2.966725e+000  4.148318e+000  0.000000e+000
    endloop
  endfacet
  facet normal -2.530131e-016  4.031898e-016 -1.000000e+000
    outer loop
      vertex -9.202284e-002  3.198677e+000 -1.110223e-015
      vertex -2.966725e+000  4.148318e+000  0.000000e+000
      vertex -2.445070e+000  4.475671e+000  0.000000e+000
    endloop
  endfacet
  facet normal -2.190446e-016  4.657817e-016 -1.000000e+000
    outer loop
      vertex -9.202284e-002  3.198677e+000 -1.110223e-015
      vertex -2.445070e+000  4.475671e+000  0.000000e+000
      vertex -1.887760e+000  4.737759e+000  0.000000e+000
    endloop
  endfacet
  facet normal -1.718740e-016  5.208184e-016 -9.999999e-001
    outer loop
      vertex -9.202284e-002  3.198677e+000 -1.110223e-015
      vertex -1.887760e+000  4.737759e+000  0.000000e+000
      vertex -1.302923e+000  4.930760e+000  0.000000e+000
    endloop
  endfacet
  facet normal -1.127404e-016  5.621587e-016 -1.000000e+000
    outer loop
      vertex -9.202284e-002  3.198677e+000 -1.110223e-015
      vertex -1.302923e+000  4.930760e+000  0.000000e+000
      vertex -6.990855e-001  5.051859e+000  0.000000e+000
    endloop
  endfacet
  facet normal -4.513564e-017  5.843046e-016 -1.000000e+000
    outer loop
      vertex -9.202284e-002  3.198677e+000 -1.110223e-015
      vertex -6.990855e-001  5.051859e+000  0.000000e+000
      vertex -8.505413e-002  5.099291e+000  0.000000e+000
    endloop
  endfacet
  facet normal  4.513564e-017 -5.843046e-016 -1.000000e+000
    outer loop
      vertex  6.990855e-001 -5.051859e+000  0.000000e+000
      vertex  8.505413e-002 -5.099291e+000  0.000000e+000
      vertex  9.202284e-002 -3.198677e+000 -1.110223e-015
    endloop
  endfacet
  facet normal -2.909651e-017 -5.840324e-016 -9.999999e-001
    outer loop
      vertex  9.202284e-002 -3.198677e+000 -1.110223e-015
      vertex  8.505413e-002 -5.099291e+000  0.000000e+000
      vertex -4.094934e-001 -3.173691e+000 -1.110223e-015
    endloop
  endfacet
  facet normal -2.552008e-017 -5.831138e-016 -1.000000e+000
    outer loop
      vertex  8.505413e-002 -5.099291e+000  0.000000e+000
      vertex -5.302176e-001 -5.072363e+000  0.000000e+000
      vertex -4.094934e-001 -3.173691e+000 -1.110223e-015
    endloop
  endfacet
  facet normal -2.854196e-016 -5.665885e-016 -1.000000e+000
    outer loop
      vertex -4.094934e-001 -3.173691e+000 -1.110223e-015
      vertex -5.302176e-001 -5.072363e+000  0.000000e+000
      vertex -3.760473e+000 -3.445119e+000  0.000000e+000
    endloop
  endfacet
  facet normal -4.034277e-016  8.998556e-016 -1.000000e+000
    outer loop
      vertex -1.534162e+000  2.808264e+000 -1.110223e-015
      vertex -4.244950e+000  2.826729e+000  0.000000e+000
      vertex -1.075964e+000  3.013685e+000 -1.110223e-015
    endloop
  endfacet
  facet normal -3.667149e-016  2.775591e-016 -1.000000e+000
    outer loop
      vertex -1.075964e+000  3.013685e+000 -1.110223e-015
      vertex -4.244950e+000  2.826729e+000  0.000000e+000
      vertex -3.873275e+000  3.317791e+000  0.000000e+000
    endloop
  endfacet
  facet normal -2.831738e-016  1.046011e-015 -1.000000e+000
    outer loop
      vertex -1.075964e+000  3.013685e+000 -1.110223e-015
      vertex -3.873275e+000  3.317791e+000  0.000000e+000
      vertex -5.912731e-001  3.144900e+000 -1.110223e-015
    endloop
  endfacet
  facet normal -4.753062e-016  5.251488e-016 -1.000000e+000
    outer loop
      vertex -2.326876e+000  2.196736e+000 -1.110223e-015
      vertex -4.554724e+000  2.294447e+000  0.000000e+000
      vertex -1.954583e+000  2.533694e+000 -1.110223e-015
    endloop
  endfacet
  facet normal -4.511440e-016  2.625537e-016 -1.000000e+000
    outer loop
      vertex -1.954583e+000  2.533694e+000 -1.110223e-015
      vertex -4.554724e+000  2.294447e+000  0.000000e+000
      vertex -4.244950e+000  2.826729e+000  0.000000e+000
    endloop
  endfacet
  facet normal -4.053296e-016  6.206399e-016 -9.999999e-001
    outer loop
      vertex -1.954583e+000  2.533694e+000 -1.110223e-015
      vertex -4.244950e+000  2.826729e+000  0.000000e+000
      vertex -1.534162e+000  2.808264e+000 -1.110223e-015
    endloop
  endfacet
  facet normal -5.770367e-016  1.210970e-016 -1.000000e+000
    outer loop
      vertex -3.173691e+000  4.094934e-001 -1.110223e-015
      vertex -5.072363e+000  5.302176e-001  0.000000e+000
      vertex -3.070559e+000  9.009265e-001 -1.110223e-015
    endloop
  endfacet
  facet normal -5.722088e-016  9.502654e-017 -1.000000e+000
    outer loop
      vertex -3.070559e+000  9.009265e-001 -1.110223e-015
      vertex -5.072363e+000  5.302176e-001  0.000000e+000
      vertex -4.971469e+000  1.137758e+000  0.000000e+000
    endloop
  endfacet
  facet normal -5.575870e-016  2.123878e-016 -1.000000e+000
    outer loop
      vertex -3.070559e+000  9.009265e-001 -1.110223e-015
      vertex -4.971469e+000  1.137758e+000  0.000000e+000
      vertex -2.891819e+000  1.370176e+000 -1.110223e-015
    endloop
  endfacet
  facet normal -5.519497e-016  1.619463e-016 -1.000000e+000
    outer loop
      vertex -2.891819e+000  1.370176e+000 -1.110223e-015
      vertex -4.971469e+000  1.137758e+000  0.000000e+000
      vertex -4.798080e+000  1.728706e+000  0.000000e+000
    endloop
  endfacet
  facet normal -5.256671e-016  3.016877e-016 -1.000000e+000
    outer loop
      vertex -2.891819e+000  1.370176e+000 -1.110223e-015
      vertex -4.798080e+000  1.728706e+000  0.000000e+000
      vertex -2.641873e+000  1.805687e+000 -1.110223e-015
    endloop
  endfacet
  facet normal -5.229271e-016  2.249398e-016 -1.000000e+000
    outer loop
      vertex -2.641873e+000  1.805687e+000 -1.110223e-015
      vertex -4.798080e+000  1.728706e+000  0.000000e+000
      vertex -4.554724e+000  2.294447e+000  0.000000e+000
    endloop
  endfacet
  facet normal -4.813336e-016  3.877233e-016 -1.000000e+000
    outer loop
      vertex -2.641873e+000  1.805687e+000 -1.110223e-015
      vertex -4.554724e+000  2.294447e+000  0.000000e+000
      vertex -2.326876e+000  2.196736e+000 -1.110223e-015
    endloop
  endfacet
  facet normal -4.975554e-016  2.032026e-016 -1.000000e+000
    outer loop
      vertex -2.533694e+000 -1.954583e+000 -1.110223e-015
      vertex -4.737759e+000 -1.887760e+000  0.000000e+000
      vertex -2.808264e+000 -1.534162e+000 -8.881784e-016
    endloop
  endfacet
  facet normal -4.340655e-016 -1.432449e-016 -1.000000e+000
    outer loop
      vertex -2.808264e+000 -1.534162e+000 -8.881784e-016
      vertex -4.737759e+000 -1.887760e+000  0.000000e+000
      vertex -4.930760e+000 -1.302923e+000  0.000000e+000
    endloop
  endfacet
  facet normal -4.954553e-016 -7.067296e-016 -9.999999e-001
    outer loop
      vertex -2.808264e+000 -1.534162e+000 -8.881784e-016
      vertex -4.930760e+000 -1.302923e+000  0.000000e+000
      vertex -3.013685e+000 -1.075964e+000 -1.110223e-015
    endloop
  endfacet
  facet normal -5.656926e-016 -1.134491e-016 -1.000000e+000
    outer loop
      vertex -3.013685e+000 -1.075964e+000 -1.110223e-015
      vertex -4.930760e+000 -1.302923e+000  0.000000e+000
      vertex -5.051859e+000 -6.990855e-001  0.000000e+000
    endloop
  endfacet
  facet normal -5.734192e-016 -1.552349e-016 -1.000000e+000
    outer loop
      vertex -3.013685e+000 -1.075964e+000 -1.110223e-015
      vertex -5.051859e+000 -6.990855e-001  0.000000e+000
      vertex -3.144900e+000 -5.912731e-001 -1.110223e-015
    endloop
  endfacet
  facet normal -5.796641e-016 -4.477718e-017 -1.000000e+000
    outer loop
      vertex -3.144900e+000 -5.912731e-001 -1.110223e-015
      vertex -5.051859e+000 -6.990855e-001  0.000000e+000
      vertex -5.099291e+000 -8.505413e-002  0.000000e+000
    endloop
  endfacet
  facet normal -5.843698e-016 -6.294511e-017 -1.000000e+000
    outer loop
      vertex -3.144900e+000 -5.912731e-001 -1.110223e-015
      vertex -5.099291e+000 -8.505413e-002  0.000000e+000
      vertex -3.198677e+000 -9.202284e-002 -1.110223e-015
    endloop
  endfacet
  facet normal -5.840453e-016  2.556084e-017 -1.000000e+000
    outer loop
      vertex -3.198677e+000 -9.202284e-002 -1.110223e-015
      vertex -5.099291e+000 -8.505413e-002  0.000000e+000
      vertex -5.072363e+000  5.302176e-001  0.000000e+000
    endloop
  endfacet
  facet normal -5.828901e-016  2.903960e-017 -1.000000e+000
    outer loop
      vertex -3.198677e+000 -9.202284e-002 -1.110223e-015
      vertex -5.072363e+000  5.302176e-001  0.000000e+000
      vertex -3.173691e+000  4.094934e-001 -1.110223e-015
    endloop
  endfacet
  facet normal -3.816957e-016 -6.650749e-016 -1.000000e+000
    outer loop
      vertex -1.370176e+000 -2.891819e+000 -1.110223e-015
      vertex -4.148318e+000 -2.966725e+000  0.000000e+000
      vertex -1.805687e+000 -2.641873e+000 -1.110223e-015
    endloop
  endfacet
  facet normal -4.359825e-016 -2.735915e-016 -1.000000e+000
    outer loop
      vertex -1.805687e+000 -2.641873e+000 -1.110223e-015
      vertex -4.148318e+000 -2.966725e+000  0.000000e+000
      vertex -4.475671e+000 -2.445070e+000  0.000000e+000
    endloop
  endfacet
  facet normal -4.576983e-016 -5.682027e-016 -1.000000e+000
    outer loop
      vertex -1.805687e+000 -2.641873e+000 -1.110223e-015
      vertex -4.475671e+000 -2.445070e+000  0.000000e+000
      vertex -2.196736e+000 -2.326876e+000 -1.110223e-015
    endloop
  endfacet
  facet normal -4.755682e-016 -2.236469e-016 -1.000000e+000
    outer loop
      vertex -2.196736e+000 -2.326876e+000 -1.110223e-015
      vertex -4.475671e+000 -2.445070e+000  0.000000e+000
      vertex -4.737759e+000 -1.887760e+000  0.000000e+000
    endloop
  endfacet
  facet normal -5.179282e-016 -4.687710e-016 -9.999999e-001
    outer loop
      vertex -2.196736e+000 -2.326876e+000 -1.110223e-015
      vertex -4.737759e+000 -1.887760e+000  0.000000e+000
      vertex -2.533694e+000 -1.954583e+000 -1.110223e-015
    endloop
  endfacet
  facet normal -2.390479e-016 -1.139081e-015 -1.000000e+000
    outer loop
      vertex -4.094934e-001 -3.173691e+000 -1.110223e-015
      vertex -3.760473e+000 -3.445119e+000  0.000000e+000
      vertex -9.009265e-001 -3.070559e+000 -1.110223e-015
    endloop
  endfacet
  facet normal -3.509798e-016 -2.845475e-016 -1.000000e+000
    outer loop
      vertex -9.009265e-001 -3.070559e+000 -1.110223e-015
      vertex -3.760473e+000 -3.445119e+000  0.000000e+000
      vertex -4.148318e+000 -2.966725e+000  0.000000e+000
    endloop
  endfacet
  facet normal -3.732099e-016 -9.797971e-016 -1.000000e+000
    outer loop
      vertex -9.009265e-001 -3.070559e+000 -1.110223e-015
      vertex -4.148318e+000 -2.966725e+000  0.000000e+000
      vertex -1.370176e+000 -2.891819e+000 -1.110223e-015
    endloop
  endfacet
  facet normal  3.732099e-016  9.797971e-016 -1.000000e+000
    outer loop
      vertex  9.009265e-001  3.070559e+000 -1.110223e-015
      vertex  4.148318e+000  2.966725e+000  0.000000e+000
      vertex  1.370176e+000  2.891819e+000 -1.110223e-015
    endloop
  endfacet
  facet normal  3.929788e-016  2.466054e-016 -1.000000e+000
    outer loop
      vertex  1.370176e+000  2.891819e+000 -1.110223e-015
      vertex  4.148318e+000  2.966725e+000  0.000000e+000
      vertex  4.475671e+000  2.445070e+000  0.000000e+000
    endloop
  endfacet
  facet normal  4.770904e-016  8.312926e-016 -1.000000e+000
    outer loop
      vertex  1.370176e+000  2.891819e+000 -1.110223e-015
      vertex  4.475671e+000  2.445070e+000  0.000000e+000
      vertex  1.805687e+000  2.641873e+000 -1.110223e-015
    endloop
  endfacet
  facet normal  4.954553e-016  7.067296e-016 -9.999999e-001
    outer loop
      vertex  3.013685e+000  1.075964e+000 -1.110223e-015
      vertex  2.808264e+000  1.534162e+000 -8.881784e-016
      vertex  4.930760e+000  1.302923e+000  0.000000e+000
    endloop
  endfacet
  facet normal  3.885665e-016 -2.743815e-016 -1.000000e+000
    outer loop
      vertex  4.930760e+000  1.302923e+000  0.000000e+000
      vertex  2.808264e+000  1.534162e+000 -8.881784e-016
      vertex  2.533694e+000  1.954583e+000 -1.110223e-015
    endloop
  endfacet
  facet normal  5.088068e-016  1.679100e-016 -1.000000e+000
    outer loop
      vertex  4.930760e+000  1.302923e+000  0.000000e+000
      vertex  2.533694e+000  1.954583e+000 -1.110223e-015
      vertex  4.737759e+000  1.887760e+000  0.000000e+000
    endloop
  endfacet
  facet normal  5.179282e-016  4.687710e-016 -9.999999e-001
    outer loop
      vertex  4.737759e+000  1.887760e+000  0.000000e+000
      vertex  2.533694e+000  1.954583e+000 -1.110223e-015
      vertex  2.196736e+000  2.326876e+000 -1.110223e-015
    endloop
  endfacet
  facet normal  4.755682e-016  2.236469e-016 -1.000000e+000
    outer loop
      vertex  4.737759e+000  1.887760e+000  0.000000e+000
      vertex  2.196736e+000  2.326876e+000 -1.110223e-015
      vertex  4.475671e+000  2.445070e+000  0.000000e+000
    endloop
  endfacet
  facet normal  5.575870e-016 -2.123878e-016 -1.000000e+000
    outer loop
      vertex  2.891819e+000 -1.370176e+000 -1.110223e-015
      vertex  3.070559e+000 -9.009265e-001 -1.110223e-015
      vertex  4.971469e+000 -1.137758e+000  0.000000e+000
    endloop
  endfacet
  facet normal  5.691665e-016 -1.194454e-016 -1.000000e+000
    outer loop
      vertex  4.971469e+000 -1.137758e+000  0.000000e+000
      vertex  3.070559e+000 -9.009265e-001 -1.110223e-015
      vertex  3.173691e+000 -4.094934e-001 -1.110223e-015
    endloop
  endfacet
  facet normal  5.786266e-016 -9.609235e-017 -1.000000e+000
    outer loop
      vertex  4.971469e+000 -1.137758e+000  0.000000e+000
      vertex  3.173691e+000 -4.094934e-001 -1.110223e-015
      vertex  5.072363e+000 -5.302176e-001  0.000000e+000
    endloop
  endfacet
  facet normal  5.828901e-016 -2.903960e-017 -1.000000e+000
    outer loop
      vertex  5.072363e+000 -5.302176e-001  0.000000e+000
      vertex  3.173691e+000 -4.094934e-001 -1.110223e-015
      vertex  3.198677e+000  9.202284e-002 -1.110223e-015
    endloop
  endfacet
  facet normal  5.840453e-016 -2.556084e-017 -1.000000e+000
    outer loop
      vertex  5.072363e+000 -5.302176e-001  0.000000e+000
      vertex  3.198677e+000  9.202284e-002 -1.110223e-015
      vertex  5.099291e+000  8.505413e-002  0.000000e+000
    endloop
  endfacet
  facet normal  5.843698e-016  6.294511e-017 -1.000000e+000
    outer loop
      vertex  5.099291e+000  8.505413e-002  0.000000e+000
      vertex  3.198677e+000  9.202284e-002 -1.110223e-015
      vertex  3.144900e+000  5.912731e-001 -1.110223e-015
    endloop
  endfacet
  facet normal  5.796641e-016  4.477718e-017 -1.000000e+000
    outer loop
      vertex  5.099291e+000  8.505413e-002  0.000000e+000
      vertex  3.144900e+000  5.912731e-001 -1.110223e-015
      vertex  5.051859e+000  6.990855e-001  0.000000e+000
    endloop
  endfacet
  facet normal  5.734192e-016  1.552349e-016 -1.000000e+000
    outer loop
      vertex  5.051859e+000  6.990855e-001  0.000000e+000
      vertex  3.144900e+000  5.912731e-001 -1.110223e-015
      vertex  3.013685e+000  1.075964e+000 -1.110223e-015
    endloop
  endfacet
  facet normal  5.656926e-016  1.134491e-016 -1.000000e+000
    outer loop
      vertex  5.051859e+000  6.990855e-001  0.000000e+000
      vertex  3.013685e+000  1.075964e+000 -1.110223e-015
      vertex  4.930760e+000  1.302923e+000  0.000000e+000
    endloop
  endfacet
  facet normal  4.053297e-016 -6.206397e-016 -1.000000e+000
    outer loop
      vertex  1.534162e+000 -2.808264e+000 -1.110223e-015
      vertex  1.954583e+000 -2.533694e+000 -1.110223e-015
      vertex  4.244950e+000 -2.826729e+000  0.000000e+000
    endloop
  endfacet
  facet normal  4.247005e-016 -4.692364e-016 -9.999999e-001
    outer loop
      vertex  4.244950e+000 -2.826729e+000  0.000000e+000
      vertex  1.954583e+000 -2.533694e+000 -1.110223e-015
      vertex  2.326876e+000 -2.196736e+000 -1.110223e-015
    endloop
  endfacet
  facet normal  4.859353e-016 -2.828013e-016 -9.999999e-001
    outer loop
      vertex  4.244950e+000 -2.826729e+000  0.000000e+000
      vertex  2.326876e+000 -2.196736e+000 -1.110223e-015
      vertex  4.554724e+000 -2.294447e+000  0.000000e+000
    endloop
  endfacet
  facet normal  4.813336e-016 -3.877233e-016 -1.000000e+000
    outer loop
      vertex  4.554724e+000 -2.294447e+000  0.000000e+000
      vertex  2.326876e+000 -2.196736e+000 -1.110223e-015
      vertex  2.641873e+000 -1.805687e+000 -1.110223e-015
    endloop
  endfacet
  facet normal  5.229271e-016 -2.249398e-016 -1.000000e+000
    outer loop
      vertex  4.554724e+000 -2.294447e+000  0.000000e+000
      vertex  2.641873e+000 -1.805687e+000 -1.110223e-015
      vertex  4.798080e+000 -1.728706e+000  0.000000e+000
    endloop
  endfacet
  facet normal  5.256671e-016 -3.016877e-016 -1.000000e+000
    outer loop
      vertex  4.798080e+000 -1.728706e+000  0.000000e+000
      vertex  2.641873e+000 -1.805687e+000 -1.110223e-015
      vertex  2.891819e+000 -1.370176e+000 -1.110223e-015
    endloop
  endfacet
  facet normal  5.519497e-016 -1.619463e-016 -1.000000e+000
    outer loop
      vertex  4.798080e+000 -1.728706e+000  0.000000e+000
      vertex  2.891819e+000 -1.370176e+000 -1.110223e-015
      vertex  4.971469e+000 -1.137758e+000  0.000000e+000
    endloop
  endfacet
  facet normal  2.831738e-016 -1.046010e-015 -1.000000e+000
    outer loop
      vertex  5.912731e-001 -3.144900e+000 -1.110223e-015
      vertex  1.075964e+000 -3.013685e+000 -1.110223e-015
      vertex  3.873275e+000 -3.317791e+000  0.000000e+000
    endloop
  endfacet
  facet normal  3.194311e-016 -7.124989e-016 -9.999999e-001
    outer loop
      vertex  3.873275e+000 -3.317791e+000  0.000000e+000
      vertex  1.075964e+000 -3.013685e+000 -1.110223e-015
      vertex  1.534162e+000 -2.808264e+000 -1.110223e-015
    endloop
  endfacet
  facet normal  4.074565e-016 -3.083956e-016 -1.000000e+000
    outer loop
      vertex  3.873275e+000 -3.317791e+000  0.000000e+000
      vertex  1.534162e+000 -2.808264e+000 -1.110223e-015
      vertex  4.244950e+000 -2.826729e+000  0.000000e+000
    endloop
  endfacet
  facet normal -8.663062e-001 -3.990949e-001  3.003942e-001
    outer loop
      vertex -3.510330e+000 -1.917702e+000  3.500000e+000
      vertex -3.738762e+000 -1.421851e+000  3.500000e+000
      vertex -4.737759e+000 -1.887760e+000  0.000000e+000
    endloop
  endfacet
  facet normal -8.634376e-001 -4.060515e-001  2.993287e-001
    outer loop
      vertex -3.510330e+000 -1.917702e+000  3.500000e+000
      vertex -4.737759e+000 -1.887760e+000  0.000000e+000
      vertex -4.475671e+000 -2.445070e+000  0.000000e+000
    endloop
  endfacet
  facet normal  8.081978e-001  5.071672e-001  2.993287e-001
    outer loop
      vertex  3.510330e+000  1.917702e+000  3.500000e+000
      vertex  4.475671e+000  2.445070e+000  0.000000e+000
      vertex  4.148318e+000  2.966725e+000  0.000000e+000
    endloop
  endfacet
  facet normal  8.038940e-001  5.133398e-001  3.003942e-001
    outer loop
      vertex  3.510330e+000  1.917702e+000  3.500000e+000
      vertex  4.148318e+000  2.966725e+000  0.000000e+000
      vertex  3.216508e+000  2.377831e+000  3.500000e+000
    endloop
  endfacet
  facet normal -9.063307e-001 -2.990959e-001  2.985067e-001
    outer loop
      vertex -3.738762e+000 -1.421851e+000  3.500000e+000
      vertex -4.930760e+000 -1.302923e+000  0.000000e+000
      vertex -4.737759e+000 -1.887760e+000  0.000000e+000
    endloop
  endfacet
  facet normal -9.359511e-001 -1.877041e-001  2.979308e-001
    outer loop
      vertex -3.897547e+000 -8.995128e-001  3.500000e+000
      vertex -5.051859e+000 -6.990855e-001  0.000000e+000
      vertex -4.930760e+000 -1.302923e+000  0.000000e+000
    endloop
  endfacet
  facet normal -9.123126e-001 -2.773340e-001  3.012834e-001
    outer loop
      vertex -3.897547e+000 -8.995128e-001  3.500000e+000
      vertex -4.930760e+000 -1.302923e+000  0.000000e+000
      vertex -3.738762e+000 -1.421851e+000  3.500000e+000
    endloop
  endfacet
  facet normal -9.518545e-001 -7.352769e-002  2.976016e-001
    outer loop
      vertex -3.983729e+000 -3.604187e-001  3.500000e+000
      vertex -5.099291e+000 -8.505413e-002  0.000000e+000
      vertex -5.051859e+000 -6.990855e-001  0.000000e+000
    endloop
  endfacet
  facet normal -9.413992e-001 -1.504957e-001  3.018584e-001
    outer loop
      vertex -3.983729e+000 -3.604187e-001  3.500000e+000
      vertex -5.051859e+000 -6.990855e-001  0.000000e+000
      vertex -3.897547e+000 -8.995128e-001  3.500000e+000
    endloop
  endfacet
  facet normal -9.538028e-001  4.174334e-002  2.975192e-001
    outer loop
      vertex -3.995702e+000  1.853893e-001  3.500000e+000
      vertex -5.072363e+000  5.302176e-001  0.000000e+000
      vertex -5.099291e+000 -8.505413e-002  0.000000e+000
    endloop
  endfacet
  facet normal -9.530407e-001 -2.090517e-002  3.021198e-001
    outer loop
      vertex -3.995702e+000  1.853893e-001  3.500000e+000
      vertex -5.099291e+000 -8.505413e-002  0.000000e+000
      vertex -3.983729e+000 -3.604187e-001  3.500000e+000
    endloop
  endfacet
  facet normal -9.417663e-001  1.563988e-001  2.976839e-001
    outer loop
      vertex -3.933242e+000  7.277439e-001  3.500000e+000
      vertex -4.971469e+000  1.137758e+000  0.000000e+000
      vertex -5.072363e+000  5.302176e-001  0.000000e+000
    endloop
  endfacet
  facet normal -9.470271e-001  1.090638e-001  3.020675e-001
    outer loop
      vertex -3.933242e+000  7.277439e-001  3.500000e+000
      vertex -5.072363e+000  5.302176e-001  0.000000e+000
      vertex -3.995702e+000  1.853893e-001  3.500000e+000
    endloop
  endfacet
  facet normal -9.159248e-001  2.687394e-001  2.980955e-001
    outer loop
      vertex -3.797513e+000  1.256542e+000  3.500000e+000
      vertex -4.798080e+000  1.728706e+000  0.000000e+000
      vertex -4.971469e+000  1.137758e+000  0.000000e+000
    endloop
  endfacet
  facet normal -9.234676e-001  2.370307e-001  3.017016e-001
    outer loop
      vertex -3.797513e+000  1.256542e+000  3.500000e+000
      vertex -4.971469e+000  1.137758e+000  0.000000e+000
      vertex -3.933242e+000  7.277439e-001  3.500000e+000
    endloop
  endfacet
  facet normal -8.766646e-001  3.771018e-001  2.987534e-001
    outer loop
      vertex -3.591043e+000  1.761933e+000  3.500000e+000
      vertex -4.554724e+000  2.294447e+000  0.000000e+000
      vertex -4.798080e+000  1.728706e+000  0.000000e+000
    endloop
  endfacet
  facet normal -8.827898e-001  3.606494e-001  3.010220e-001
    outer loop
      vertex -3.591043e+000  1.761933e+000  3.500000e+000
      vertex -4.798080e+000  1.728706e+000  0.000000e+000
      vertex -3.797513e+000  1.256542e+000  3.500000e+000
    endloop
  endfacet
  facet normal -7.608756e-001  5.758913e-001  2.990274e-001
    outer loop
      vertex -3.317680e+000  2.234503e+000  3.500000e+000
      vertex -3.873275e+000  3.317791e+000  0.000000e+000
      vertex -4.244950e+000  2.826729e+000  0.000000e+000
    endloop
  endfacet
  facet normal -8.258393e-001  4.777169e-001  2.996266e-001
    outer loop
      vertex -3.317680e+000  2.234503e+000  3.500000e+000
      vertex -4.244950e+000  2.826729e+000  0.000000e+000
      vertex -3.591043e+000  1.761933e+000  3.500000e+000
    endloop
  endfacet
  facet normal -8.244767e-001  4.798234e-001  3.000129e-001
    outer loop
      vertex -3.591043e+000  1.761933e+000  3.500000e+000
      vertex -4.244950e+000  2.826729e+000  0.000000e+000
      vertex -4.554724e+000  2.294447e+000  0.000000e+000
    endloop
  endfacet
  facet normal -6.860784e-001  6.635669e-001  2.982873e-001
    outer loop
      vertex -2.982514e+000  2.665448e+000  3.500000e+000
      vertex -3.445119e+000  3.760473e+000  0.000000e+000
      vertex -3.873275e+000  3.317791e+000  0.000000e+000
    endloop
  endfacet
  facet normal -7.528254e-001  5.855067e-001  3.007255e-001
    outer loop
      vertex -2.982514e+000  2.665448e+000  3.500000e+000
      vertex -3.873275e+000  3.317791e+000  0.000000e+000
      vertex -3.317680e+000  2.234503e+000  3.500000e+000
    endloop
  endfacet
  facet normal -6.011891e-001  7.415460e-001  2.977936e-001
    outer loop
      vertex -2.591789e+000  3.046741e+000  3.500000e+000
      vertex -2.966725e+000  4.148318e+000  0.000000e+000
      vertex -3.445119e+000  3.760473e+000  0.000000e+000
    endloop
  endfacet
  facet normal -6.659139e-001  6.823858e-001  3.015099e-001
    outer loop
      vertex -2.591789e+000  3.046741e+000  3.500000e+000
      vertex -3.445119e+000  3.760473e+000  0.000000e+000
      vertex -2.982514e+000  2.665448e+000  3.500000e+000
    endloop
  endfacet
  facet normal -5.074634e-001  8.086698e-001  2.975467e-001
    outer loop
      vertex -2.152785e+000  3.371278e+000  3.500000e+000
      vertex -2.445070e+000  4.475671e+000  0.000000e+000
      vertex -2.966725e+000  4.148318e+000  0.000000e+000
    endloop
  endfacet
  facet normal -5.667049e-001  7.665855e-001  3.019803e-001
    outer loop
      vertex -2.152785e+000  3.371278e+000  3.500000e+000
      vertex -2.966725e+000  4.148318e+000  0.000000e+000
      vertex -2.591789e+000  3.046741e+000  3.500000e+000
    endloop
  endfacet
  facet normal -4.062886e-001  8.639418e-001  2.975467e-001
    outer loop
      vertex -1.673678e+000  3.633015e+000  3.500000e+000
      vertex -1.887760e+000  4.737759e+000  0.000000e+000
      vertex -2.445070e+000  4.475671e+000  0.000000e+000
    endloop
  endfacet
  facet normal -4.570191e-001  8.365684e-001  3.021372e-001
    outer loop
      vertex -1.673678e+000  3.633015e+000  3.500000e+000
      vertex -2.445070e+000  4.475671e+000  0.000000e+000
      vertex -2.152785e+000  3.371278e+000  3.500000e+000
    endloop
  endfacet
  facet normal -2.991657e-001  9.065422e-001  2.977937e-001
    outer loop
      vertex -1.163394e+000  3.827076e+000  3.500000e+000
      vertex -1.302923e+000  4.930760e+000  0.000000e+000
      vertex -1.887760e+000  4.737759e+000  0.000000e+000
    endloop
  endfacet
  facet normal -3.388676e-001  8.910537e-001  3.019804e-001
    outer loop
      vertex -1.163394e+000  3.827076e+000  3.500000e+000
      vertex -1.887760e+000  4.737759e+000  0.000000e+000
      vertex -1.673678e+000  3.633015e+000  3.500000e+000
    endloop
  endfacet
  facet normal -1.876822e-001  9.358419e-001  2.982874e-001
    outer loop
      vertex -6.314378e-001  3.949846e+000  3.500000e+000
      vertex -6.990855e-001  5.051859e+000  0.000000e+000
      vertex -1.302923e+000  4.930760e+000  0.000000e+000
    endloop
  endfacet
  facet normal -2.144130e-001  9.290419e-001  3.015100e-001
    outer loop
      vertex -6.314378e-001  3.949846e+000  3.500000e+000
      vertex -1.302923e+000  4.930760e+000  0.000000e+000
      vertex -1.163394e+000  3.827076e+000  3.500000e+000
    endloop
  endfacet
  facet normal -7.349336e-002  9.514102e-001  2.990274e-001
    outer loop
      vertex -8.771918e-002  3.999038e+000  3.500000e+000
      vertex -8.505413e-002  5.099291e+000  0.000000e+000
      vertex -6.990855e-001  5.051859e+000  0.000000e+000
    endloop
  endfacet
  facet normal -8.593386e-002  9.498314e-001  3.007255e-001
    outer loop
      vertex -8.771918e-002  3.999038e+000  3.500000e+000
      vertex -6.990855e-001  5.051859e+000  0.000000e+000
      vertex -6.314378e-001  3.949846e+000  3.500000e+000
    endloop
  endfacet
  facet normal  1.563441e-001  9.414367e-001  2.987534e-001
    outer loop
      vertex  4.576335e-001  3.973735e+000  3.500000e+000
      vertex  1.137758e+000  4.971469e+000  0.000000e+000
      vertex  5.302176e-001  5.072363e+000  0.000000e+000
    endloop
  endfacet
  facet normal  4.421181e-002  9.529053e-001  3.000279e-001
    outer loop
      vertex  4.576335e-001  3.973735e+000  3.500000e+000
      vertex  5.302176e-001  5.072363e+000  0.000000e+000
      vertex -8.771918e-002  3.999038e+000  3.500000e+000
    endloop
  endfacet
  facet normal  4.171410e-002  9.531345e-001  2.996572e-001
    outer loop
      vertex -8.771918e-002  3.999038e+000  3.500000e+000
      vertex  5.302176e-001  5.072363e+000  0.000000e+000
      vertex -8.505413e-002  5.099291e+000  0.000000e+000
    endloop
  endfacet
  facet normal  2.687394e-001  9.159248e-001  2.980954e-001
    outer loop
      vertex  9.944612e-001  3.874409e+000  3.500000e+000
      vertex  1.728706e+000  4.798080e+000  0.000000e+000
      vertex  1.137758e+000  4.971469e+000  0.000000e+000
    endloop
  endfacet
  facet normal  1.734975e-001  9.377017e-001  3.010220e-001
    outer loop
      vertex  9.944612e-001  3.874409e+000  3.500000e+000
      vertex  1.137758e+000  4.971469e+000  0.000000e+000
      vertex  4.576335e-001  3.973735e+000  3.500000e+000
    endloop
  endfacet
  facet normal  3.772338e-001  8.769714e-001  2.976839e-001
    outer loop
      vertex  1.512764e+000  3.702910e+000  3.500000e+000
      vertex  2.294447e+000  4.554724e+000  0.000000e+000
      vertex  1.728706e+000  4.798080e+000  0.000000e+000
    endloop
  endfacet
  facet normal  2.994973e-001  9.051394e-001  3.017017e-001
    outer loop
      vertex  1.512764e+000  3.702910e+000  3.500000e+000
      vertex  1.728706e+000  4.798080e+000  0.000000e+000
      vertex  9.944612e-001  3.874409e+000  3.500000e+000
    endloop
  endfacet
  facet normal  4.802160e-001  8.251514e-001  2.975192e-001
    outer loop
      vertex  2.002887e+000  3.462433e+000  3.500000e+000
      vertex  2.826729e+000  4.244950e+000  0.000000e+000
      vertex  2.294447e+000  4.554724e+000  0.000000e+000
    endloop
  endfacet
  facet normal  4.199070e-001  8.558232e-001  3.020675e-001
    outer loop
      vertex  2.002887e+000  3.462433e+000  3.500000e+000
      vertex  2.294447e+000  4.554724e+000  0.000000e+000
      vertex  1.512764e+000  3.702910e+000  3.500000e+000
    endloop
  endfacet
  facet normal  5.761603e-001  7.612310e-001  2.976016e-001
    outer loop
      vertex  2.455700e+000  3.157458e+000  3.500000e+000
      vertex  3.317791e+000  3.873275e+000  0.000000e+000
      vertex  2.826729e+000  4.244950e+000  0.000000e+000
    endloop
  endfacet
  facet normal  5.325209e-001  7.906613e-001  3.021197e-001
    outer loop
      vertex  2.455700e+000  3.157458e+000  3.500000e+000
      vertex  2.826729e+000  4.244950e+000  0.000000e+000
      vertex  2.002887e+000  3.462433e+000  3.500000e+000
    endloop
  endfacet
  facet normal  6.636443e-001  6.861584e-001  2.979308e-001
    outer loop
      vertex  2.862768e+000  2.793664e+000  3.500000e+000
      vertex  3.760473e+000  3.445119e+000  0.000000e+000
      vertex  3.317791e+000  3.873275e+000  0.000000e+000
    endloop
  endfacet
  facet normal  6.352780e-001  7.108468e-001  3.018584e-001
    outer loop
      vertex  2.862768e+000  2.793664e+000  3.500000e+000
      vertex  3.317791e+000  3.873275e+000  0.000000e+000
      vertex  2.455700e+000  3.157458e+000  3.500000e+000
    endloop
  endfacet
  facet normal  7.413731e-001  6.010488e-001  2.985067e-001
    outer loop
      vertex  3.216508e+000  2.377831e+000  3.500000e+000
      vertex  4.148318e+000  2.966725e+000  0.000000e+000
      vertex  3.760473e+000  3.445119e+000  0.000000e+000
    endloop
  endfacet
  facet normal  7.262933e-001  6.178402e-001  3.012834e-001
    outer loop
      vertex  3.216508e+000  2.377831e+000  3.500000e+000
      vertex  3.760473e+000  3.445119e+000  0.000000e+000
      vertex  2.862768e+000  2.793664e+000  3.500000e+000
    endloop
  endfacet
  facet normal  5.468020e-001 -8.372619e-001  0.000000e+000
    outer loop
      vertex -1.534162e+000  2.808264e+000 -1.110223e-015
      vertex -1.954583e+000  2.533694e+000  3.500000e+000
      vertex -1.954583e+000  2.533694e+000 -1.110223e-015
    endloop
  endfacet
  facet normal  6.710465e-001 -7.414152e-001  0.000000e+000
    outer loop
      vertex -1.954583e+000  2.533694e+000 -1.110223e-015
      vertex -1.954583e+000  2.533694e+000  3.500000e+000
      vertex -2.326876e+000  2.196736e+000  3.500000e+000
    endloop
  endfacet
  facet normal  6.710465e-001 -7.414152e-001  0.000000e+000
    outer loop
      vertex -1.954583e+000  2.533694e+000 -1.110223e-015
      vertex -2.326876e+000  2.196736e+000  3.500000e+000
      vertex -2.326876e+000  2.196736e+000 -1.110223e-015
    endloop
  endfacet
  facet normal  7.787678e-001 -6.273122e-001  0.000000e+000
    outer loop
      vertex -2.326876e+000  2.196736e+000 -1.110223e-015
      vertex -2.326876e+000  2.196736e+000  3.500000e+000
      vertex -2.641873e+000  1.805687e+000  3.500000e+000
    endloop
  endfacet
  facet normal  7.787678e-001 -6.273122e-001  0.000000e+000
    outer loop
      vertex -2.326876e+000  2.196736e+000 -1.110223e-015
      vertex -2.641873e+000  1.805687e+000  3.500000e+000
      vertex -2.641873e+000  1.805687e+000 -1.110223e-015
    endloop
  endfacet
  facet normal  8.673130e-001 -4.977632e-001  0.000000e+000
    outer loop
      vertex -2.641873e+000  1.805687e+000 -1.110223e-015
      vertex -2.641873e+000  1.805687e+000  3.500000e+000
      vertex -2.891819e+000  1.370176e+000  3.500000e+000
    endloop
  endfacet
  facet normal  8.673130e-001 -4.977632e-001  0.000000e+000
    outer loop
      vertex -2.641873e+000  1.805687e+000 -1.110223e-015
      vertex -2.891819e+000  1.370176e+000  3.500000e+000
      vertex -2.891819e+000  1.370176e+000 -1.110223e-015
    endloop
  endfacet
  facet normal  9.345024e-001 -3.559569e-001  0.000000e+000
    outer loop
      vertex -2.891819e+000  1.370176e+000 -1.110223e-015
      vertex -2.891819e+000  1.370176e+000  3.500000e+000
      vertex -3.070559e+000  9.009265e-001  3.500000e+000
    endloop
  endfacet
  facet normal  9.345024e-001 -3.559569e-001  0.000000e+000
    outer loop
      vertex -2.891819e+000  1.370176e+000 -1.110223e-015
      vertex -3.070559e+000  9.009265e-001  3.500000e+000
      vertex -3.070559e+000  9.009265e-001 -1.110223e-015
    endloop
  endfacet
  facet normal  9.786810e-001 -2.053862e-001  0.000000e+000
    outer loop
      vertex -3.070559e+000  9.009265e-001 -1.110223e-015
      vertex -3.070559e+000  9.009265e-001  3.500000e+000
      vertex -3.173691e+000  4.094934e-001  3.500000e+000
    endloop
  endfacet
  facet normal  9.786810e-001 -2.053862e-001  0.000000e+000
    outer loop
      vertex -3.070559e+000  9.009265e-001 -1.110223e-015
      vertex -3.173691e+000  4.094934e-001  3.500000e+000
      vertex -3.173691e+000  4.094934e-001 -1.110223e-015
    endloop
  endfacet
  facet normal  9.987613e-001 -4.975832e-002  0.000000e+000
    outer loop
      vertex -3.173691e+000  4.094934e-001 -1.110223e-015
      vertex -3.173691e+000  4.094934e-001  3.500000e+000
      vertex -3.198677e+000 -9.202284e-002  3.500000e+000
    endloop
  endfacet
  facet normal  9.987613e-001 -4.975832e-002  0.000000e+000
    outer loop
      vertex -3.173691e+000  4.094934e-001 -1.110223e-015
      vertex -3.198677e+000 -9.202284e-002  3.500000e+000
      vertex -3.198677e+000 -9.202284e-002 -1.110223e-015
    endloop
  endfacet
  facet normal  9.942488e-001  1.070950e-001  -0.000000e+000
    outer loop
      vertex -3.198677e+000 -9.202284e-002 -1.110223e-015
      vertex -3.198677e+000 -9.202284e-002  3.500000e+000
      vertex -3.144900e+000 -5.912731e-001  3.500000e+000
    endloop
  endfacet
  facet normal  9.942488e-001  1.070950e-001  0.000000e+000
    outer loop
      vertex -3.198677e+000 -9.202284e-002 -1.110223e-015
      vertex -3.144900e+000 -5.912731e-001  3.500000e+000
      vertex -3.144900e+000 -5.912731e-001 -1.110223e-015
    endloop
  endfacet
  facet normal  9.652545e-001  2.613117e-001  -0.000000e+000
    outer loop
      vertex -3.144900e+000 -5.912731e-001 -1.110223e-015
      vertex -3.144900e+000 -5.912731e-001  3.500000e+000
      vertex -3.013685e+000 -1.075964e+000  3.500000e+000
    endloop
  endfacet
  facet normal  9.652545e-001  2.613117e-001  0.000000e+000
    outer loop
      vertex -3.144900e+000 -5.912731e-001 -1.110223e-015
      vertex -3.013685e+000 -1.075964e+000  3.500000e+000
      vertex -3.013685e+000 -1.075964e+000 -1.110223e-015
    endloop
  endfacet
  facet normal  9.124927e-001  4.090931e-001  -0.000000e+000
    outer loop
      vertex -3.013685e+000 -1.075964e+000 -1.110223e-015
      vertex -3.013685e+000 -1.075964e+000  3.500000e+000
      vertex -2.808264e+000 -1.534162e+000  3.500000e+000
    endloop
  endfacet
  facet normal  9.124927e-001  4.090931e-001  0.000000e+000
    outer loop
      vertex -3.013685e+000 -1.075964e+000 -1.110223e-015
      vertex -2.808264e+000 -1.534162e+000  3.500000e+000
      vertex -2.808264e+000 -1.534162e+000 -8.881784e-016
    endloop
  endfacet
  facet normal  5.468020e-001 -8.372619e-001  0.000000e+000
    outer loop
      vertex -1.954583e+000  2.533694e+000  3.500000e+000
      vertex -1.534162e+000  2.808264e+000 -1.110223e-015
      vertex -1.534162e+000  2.808264e+000  3.500000e+000
    endloop
  endfacet
  facet normal  4.090931e-001 -9.124927e-001  0.000000e+000
    outer loop
      vertex -1.534162e+000  2.808264e+000  3.500000e+000
      vertex -1.534162e+000  2.808264e+000 -1.110223e-015
      vertex -1.075964e+000  3.013685e+000 -1.110223e-015
    endloop
  endfacet
  facet normal  4.090931e-001 -9.124927e-001  0.000000e+000
    outer loop
      vertex -1.534162e+000  2.808264e+000  3.500000e+000
      vertex -1.075964e+000  3.013685e+000 -1.110223e-015
      vertex -1.075964e+000  3.013685e+000  3.500000e+000
    endloop
  endfacet
  facet normal  2.613117e-001 -9.652545e-001  0.000000e+000
    outer loop
      vertex -1.075964e+000  3.013685e+000  3.500000e+000
      vertex -1.075964e+000  3.013685e+000 -1.110223e-015
      vertex -5.912731e-001  3.144900e+000 -1.110223e-015
    endloop
  endfacet
  facet normal  2.613117e-001 -9.652545e-001  0.000000e+000
    outer loop
      vertex -1.075964e+000  3.013685e+000  3.500000e+000
      vertex -5.912731e-001  3.144900e+000 -1.110223e-015
      vertex -5.912731e-001  3.144900e+000  3.500000e+000
    endloop
  endfacet
  facet normal  1.070950e-001 -9.942488e-001  0.000000e+000
    outer loop
      vertex -5.912731e-001  3.144900e+000  3.500000e+000
      vertex -5.912731e-001  3.144900e+000 -1.110223e-015
      vertex -9.202284e-002  3.198677e+000 -1.110223e-015
    endloop
  endfacet
  facet normal  1.070950e-001 -9.942488e-001  0.000000e+000
    outer loop
      vertex -5.912731e-001  3.144900e+000  3.500000e+000
      vertex -9.202284e-002  3.198677e+000 -1.110223e-015
      vertex -9.202284e-002  3.198677e+000  3.500000e+000
    endloop
  endfacet
  facet normal -4.975832e-002 -9.987613e-001  -0.000000e+000
    outer loop
      vertex -9.202284e-002  3.198677e+000  3.500000e+000
      vertex -9.202284e-002  3.198677e+000 -1.110223e-015
      vertex  4.094934e-001  3.173691e+000 -1.110223e-015
    endloop
  endfacet
  facet normal -4.975832e-002 -9.987613e-001  0.000000e+000
    outer loop
      vertex -9.202284e-002  3.198677e+000  3.500000e+000
      vertex  4.094934e-001  3.173691e+000 -1.110223e-015
      vertex  4.094934e-001  3.173691e+000  3.500000e+000
    endloop
  endfacet
  facet normal -2.053862e-001 -9.786810e-001  -0.000000e+000
    outer loop
      vertex  4.094934e-001  3.173691e+000  3.500000e+000
      vertex  4.094934e-001  3.173691e+000 -1.110223e-015
      vertex  9.009265e-001  3.070559e+000 -1.110223e-015
    endloop
  endfacet
  facet normal -2.053862e-001 -9.786810e-001  0.000000e+000
    outer loop
      vertex  4.094934e-001  3.173691e+000  3.500000e+000
      vertex  9.009265e-001  3.070559e+000 -1.110223e-015
      vertex  9.009265e-001  3.070559e+000  3.500000e+000
    endloop
  endfacet
  facet normal -3.559569e-001 -9.345024e-001  -0.000000e+000
    outer loop
      vertex  9.009265e-001  3.070559e+000  3.500000e+000
      vertex  9.009265e-001  3.070559e+000 -1.110223e-015
      vertex  1.370176e+000  2.891819e+000 -1.110223e-015
    endloop
  endfacet
  facet normal -3.559569e-001 -9.345024e-001  0.000000e+000
    outer loop
      vertex  9.009265e-001  3.070559e+000  3.500000e+000
      vertex  1.370176e+000  2.891819e+000 -1.110223e-015
      vertex  1.370176e+000  2.891819e+000  3.500000e+000
    endloop
  endfacet
  facet normal -4.977632e-001 -8.673130e-001  -0.000000e+000
    outer loop
      vertex  1.370176e+000  2.891819e+000  3.500000e+000
      vertex  1.370176e+000  2.891819e+000 -1.110223e-015
      vertex  1.805687e+000  2.641873e+000 -1.110223e-015
    endloop
  endfacet
  facet normal -4.977632e-001 -8.673130e-001  0.000000e+000
    outer loop
      vertex  1.370176e+000  2.891819e+000  3.500000e+000
      vertex  1.805687e+000  2.641873e+000 -1.110223e-015
      vertex  1.805687e+000  2.641873e+000  3.500000e+000
    endloop
  endfacet
  facet normal -6.273122e-001 -7.787678e-001  -0.000000e+000
    outer loop
      vertex  1.805687e+000  2.641873e+000  3.500000e+000
      vertex  1.805687e+000  2.641873e+000 -1.110223e-015
      vertex  2.196736e+000  2.326876e+000 -1.110223e-015
    endloop
  endfacet
  facet normal -6.273122e-001 -7.787678e-001  0.000000e+000
    outer loop
      vertex  1.805687e+000  2.641873e+000  3.500000e+000
      vertex  2.196736e+000  2.326876e+000 -1.110223e-015
      vertex  2.196736e+000  2.326876e+000  3.500000e+000
    endloop
  endfacet
  facet normal -7.414152e-001 -6.710465e-001  -0.000000e+000
    outer loop
      vertex  2.196736e+000  2.326876e+000  3.500000e+000
      vertex  2.196736e+000  2.326876e+000 -1.110223e-015
      vertex  2.533694e+000  1.954583e+000 -1.110223e-015
    endloop
  endfacet
  facet normal -7.414152e-001 -6.710465e-001  0.000000e+000
    outer loop
      vertex  2.196736e+000  2.326876e+000  3.500000e+000
      vertex  2.533694e+000  1.954583e+000 -1.110223e-015
      vertex  2.533694e+000  1.954583e+000  3.500000e+000
    endloop
  endfacet
  facet normal -8.372619e-001 -5.468020e-001  -0.000000e+000
    outer loop
      vertex  2.533694e+000  1.954583e+000  3.500000e+000
      vertex  2.533694e+000  1.954583e+000 -1.110223e-015
      vertex  2.808264e+000  1.534162e+000 -8.881784e-016
    endloop
  endfacet
  facet normal -8.372619e-001 -5.468020e-001  0.000000e+000
    outer loop
      vertex  2.533694e+000  1.954583e+000  3.500000e+000
      vertex  2.808264e+000  1.534162e+000 -8.881784e-016
      vertex  2.808264e+000  1.534162e+000  3.500000e+000
    endloop
  endfacet
  facet normal  8.663062e-001  3.990949e-001  3.003942e-001
    outer loop
      vertex  3.510330e+000  1.917702e+000  3.500000e+000
      vertex  3.738762e+000  1.421851e+000  3.500000e+000
      vertex  4.737759e+000  1.887760e+000  0.000000e+000
    endloop
  endfacet
  facet normal  8.634376e-001  4.060515e-001  2.993287e-001
    outer loop
      vertex  3.510330e+000  1.917702e+000  3.500000e+000
      vertex  4.737759e+000  1.887760e+000  0.000000e+000
      vertex  4.475671e+000  2.445070e+000  0.000000e+000
    endloop
  endfacet
  facet normal -8.081978e-001 -5.071672e-001  2.993287e-001
    outer loop
      vertex -3.510330e+000 -1.917702e+000  3.500000e+000
      vertex -4.475671e+000 -2.445070e+000  0.000000e+000
      vertex -4.148318e+000 -2.966725e+000  0.000000e+000
    endloop
  endfacet
  facet normal -8.038940e-001 -5.133398e-001  3.003942e-001
    outer loop
      vertex -3.510330e+000 -1.917702e+000  3.500000e+000
      vertex -4.148318e+000 -2.966725e+000  0.000000e+000
      vertex -3.216508e+000 -2.377831e+000  3.500000e+000
    endloop
  endfacet
  facet normal  9.063307e-001  2.990959e-001  2.985067e-001
    outer loop
      vertex  3.738762e+000  1.421851e+000  3.500000e+000
      vertex  4.930760e+000  1.302923e+000  0.000000e+000
      vertex  4.737759e+000  1.887760e+000  0.000000e+000
    endloop
  endfacet
  facet normal  9.359511e-001  1.877041e-001  2.979308e-001
    outer loop
      vertex  3.897547e+000  8.995128e-001  3.500000e+000
      vertex  5.051859e+000  6.990855e-001  0.000000e+000
      vertex  4.930760e+000  1.302923e+000  0.000000e+000
    endloop
  endfacet
  facet normal  9.123126e-001  2.773340e-001  3.012834e-001
    outer loop
      vertex  3.897547e+000  8.995128e-001  3.500000e+000
      vertex  4.930760e+000  1.302923e+000  0.000000e+000
      vertex  3.738762e+000  1.421851e+000  3.500000e+000
    endloop
  endfacet
  facet normal  9.518545e-001  7.352769e-002  2.976016e-001
    outer loop
      vertex  3.983729e+000  3.604187e-001  3.500000e+000
      vertex  5.099291e+000  8.505413e-002  0.000000e+000
      vertex  5.051859e+000  6.990855e-001  0.000000e+000
    endloop
  endfacet
  facet normal  9.413992e-001  1.504957e-001  3.018584e-001
    outer loop
      vertex  3.983729e+000  3.604187e-001  3.500000e+000
      vertex  5.051859e+000  6.990855e-001  0.000000e+000
      vertex  3.897547e+000  8.995128e-001  3.500000e+000
    endloop
  endfacet
  facet normal  9.538028e-001 -4.174334e-002  2.975192e-001
    outer loop
      vertex  3.995702e+000 -1.853893e-001  3.500000e+000
      vertex  5.072363e+000 -5.302176e-001  0.000000e+000
      vertex  5.099291e+000  8.505413e-002  0.000000e+000
    endloop
  endfacet
  facet normal  9.530407e-001  2.090517e-002  3.021198e-001
    outer loop
      vertex  3.995702e+000 -1.853893e-001  3.500000e+000
      vertex  5.099291e+000  8.505413e-002  0.000000e+000
      vertex  3.983729e+000  3.604187e-001  3.500000e+000
    endloop
  endfacet
  facet normal  9.417663e-001 -1.563988e-001  2.976839e-001
    outer loop
      vertex  3.933242e+000 -7.277439e-001  3.500000e+000
      vertex  4.971469e+000 -1.137758e+000  0.000000e+000
      vertex  5.072363e+000 -5.302176e-001  0.000000e+000
    endloop
  endfacet
  facet normal  9.470271e-001 -1.090638e-001  3.020675e-001
    outer loop
      vertex  3.933242e+000 -7.277439e-001  3.500000e+000
      vertex  5.072363e+000 -5.302176e-001  0.000000e+000
      vertex  3.995702e+000 -1.853893e-001  3.500000e+000
    endloop
  endfacet
  facet normal  9.159248e-001 -2.687394e-001  2.980955e-001
    outer loop
      vertex  3.797513e+000 -1.256542e+000  3.500000e+000
      vertex  4.798080e+000 -1.728706e+000  0.000000e+000
      vertex  4.971469e+000 -1.137758e+000  0.000000e+000
    endloop
  endfacet
  facet normal  9.234676e-001 -2.370307e-001  3.017016e-001
    outer loop
      vertex  3.797513e+000 -1.256542e+000  3.500000e+000
      vertex  4.971469e+000 -1.137758e+000  0.000000e+000
      vertex  3.933242e+000 -7.277439e-001  3.500000e+000
    endloop
  endfacet
  facet normal  8.766646e-001 -3.771018e-001  2.987534e-001
    outer loop
      vertex  3.591043e+000 -1.761933e+000  3.500000e+000
      vertex  4.554724e+000 -2.294447e+000  0.000000e+000
      vertex  4.798080e+000 -1.728706e+000  0.000000e+000
    endloop
  endfacet
  facet normal  8.827898e-001 -3.606494e-001  3.010220e-001
    outer loop
      vertex  3.591043e+000 -1.761933e+000  3.500000e+000
      vertex  4.798080e+000 -1.728706e+000  0.000000e+000
      vertex  3.797513e+000 -1.256542e+000  3.500000e+000
    endloop
  endfacet
  facet normal  7.608756e-001 -5.758913e-001  2.990274e-001
    outer loop
      vertex  3.317680e+000 -2.234503e+000  3.500000e+000
      vertex  3.873275e+000 -3.317791e+000  0.000000e+000
      vertex  4.244950e+000 -2.826729e+000  0.000000e+000
    endloop
  endfacet
  facet normal  8.258393e-001 -4.777169e-001  2.996266e-001
    outer loop
      vertex  3.317680e+000 -2.234503e+000  3.500000e+000
      vertex  4.244950e+000 -2.826729e+000  0.000000e+000
      vertex  3.591043e+000 -1.761933e+000  3.500000e+000
    endloop
  endfacet
  facet normal  8.244767e-001 -4.798234e-001  3.000129e-001
    outer loop
      vertex  3.591043e+000 -1.761933e+000  3.500000e+000
      vertex  4.244950e+000 -2.826729e+000  0.000000e+000
      vertex  4.554724e+000 -2.294447e+000  0.000000e+000
    endloop
  endfacet
  facet normal  6.860784e-001 -6.635669e-001  2.982873e-001
    outer loop
      vertex  2.982514e+000 -2.665448e+000  3.500000e+000
      vertex  3.445119e+000 -3.760473e+000  0.000000e+000
      vertex  3.873275e+000 -3.317791e+000  0.000000e+000
    endloop
  endfacet
  facet normal  7.528254e-001 -5.855067e-001  3.007255e-001
    outer loop
      vertex  2.982514e+000 -2.665448e+000  3.500000e+000
      vertex  3.873275e+000 -3.317791e+000  0.000000e+000
      vertex  3.317680e+000 -2.234503e+000  3.500000e+000
    endloop
  endfacet
  facet normal  6.011891e-001 -7.415460e-001  2.977936e-001
    outer loop
      vertex  2.591789e+000 -3.046741e+000  3.500000e+000
      vertex  2.966725e+000 -4.148318e+000  0.000000e+000
      vertex  3.445119e+000 -3.760473e+000  0.000000e+000
    endloop
  endfacet
  facet normal  6.659139e-001 -6.823858e-001  3.015099e-001
    outer loop
      vertex  2.591789e+000 -3.046741e+000  3.500000e+000
      vertex  3.445119e+000 -3.760473e+000  0.000000e+000
      vertex  2.982514e+000 -2.665448e+000  3.500000e+000
    endloop
  endfacet
  facet normal  5.074634e-001 -8.086698e-001  2.975467e-001
    outer loop
      vertex  2.152785e+000 -3.371278e+000  3.500000e+000
      vertex  2.445070e+000 -4.475671e+000  0.000000e+000
      vertex  2.966725e+000 -4.148318e+000  0.000000e+000
    endloop
  endfacet
  facet normal  5.667049e-001 -7.665855e-001  3.019803e-001
    outer loop
      vertex  2.152785e+000 -3.371278e+000  3.500000e+000
      vertex  2.966725e+000 -4.148318e+000  0.000000e+000
      vertex  2.591789e+000 -3.046741e+000  3.500000e+000
    endloop
  endfacet
  facet normal  4.062886e-001 -8.639418e-001  2.975467e-001
    outer loop
      vertex  1.673678e+000 -3.633015e+000  3.500000e+000
      vertex  1.887760e+000 -4.737759e+000  0.000000e+000
      vertex  2.445070e+000 -4.475671e+000  0.000000e+000
    endloop
  endfacet
  facet normal  4.570191e-001 -8.365684e-001  3.021372e-001
    outer loop
      vertex  1.673678e+000 -3.633015e+000  3.500000e+000
      vertex  2.445070e+000 -4.475671e+000  0.000000e+000
      vertex  2.152785e+000 -3.371278e+000  3.500000e+000
    endloop
  endfacet
  facet normal  2.991657e-001 -9.065422e-001  2.977937e-001
    outer loop
      vertex  1.163394e+000 -3.827076e+000  3.500000e+000
      vertex  1.302923e+000 -4.930760e+000  0.000000e+000
      vertex  1.887760e+000 -4.737759e+000  0.000000e+000
    endloop
  endfacet
  facet normal  3.388676e-001 -8.910537e-001  3.019804e-001
    outer loop
      vertex  1.163394e+000 -3.827076e+000  3.500000e+000
      vertex  1.887760e+000 -4.737759e+000  0.000000e+000
      vertex  1.673678e+000 -3.633015e+000  3.500000e+000
    endloop
  endfacet
  facet normal  1.876822e-001 -9.358419e-001  2.982874e-001
    outer loop
      vertex  6.314378e-001 -3.949846e+000  3.500000e+000
      vertex  6.990855e-001 -5.051859e+000  0.000000e+000
      vertex  1.302923e+000 -4.930760e+000  0.000000e+000
    endloop
  endfacet
  facet normal  2.144130e-001 -9.290419e-001  3.015100e-001
    outer loop
      vertex  6.314378e-001 -3.949846e+000  3.500000e+000
      vertex  1.302923e+000 -4.930760e+000  0.000000e+000
      vertex  1.163394e+000 -3.827076e+000  3.500000e+000
    endloop
  endfacet
  facet normal  7.349336e-002 -9.514102e-001  2.990274e-001
    outer loop
      vertex  8.771918e-002 -3.999038e+000  3.500000e+000
      vertex  8.505413e-002 -5.099291e+000  0.000000e+000
      vertex  6.990855e-001 -5.051859e+000  0.000000e+000
    endloop
  endfacet
  facet normal  8.593386e-002 -9.498314e-001  3.007255e-001
    outer loop
      vertex  8.771918e-002 -3.999038e+000  3.500000e+000
      vertex  6.990855e-001 -5.051859e+000  0.000000e+000
      vertex  6.314378e-001 -3.949846e+000  3.500000e+000
    endloop
  endfacet
  facet normal -1.563441e-001 -9.414367e-001  2.987534e-001
    outer loop
      vertex -4.576335e-001 -3.973735e+000  3.500000e+000
      vertex -1.137758e+000 -4.971469e+000  0.000000e+000
      vertex -5.302176e-001 -5.072363e+000  0.000000e+000
    endloop
  endfacet
  facet normal -4.421181e-002 -9.529053e-001  3.000279e-001
    outer loop
      vertex -4.576335e-001 -3.973735e+000  3.500000e+000
      vertex -5.302176e-001 -5.072363e+000  0.000000e+000
      vertex  8.771918e-002 -3.999038e+000  3.500000e+000
    endloop
  endfacet
  facet normal -4.171410e-002 -9.531345e-001  2.996572e-001
    outer loop
      vertex  8.771918e-002 -3.999038e+000  3.500000e+000
      vertex -5.302176e-001 -5.072363e+000  0.000000e+000
      vertex  8.505413e-002 -5.099291e+000  0.000000e+000
    endloop
  endfacet
  facet normal -2.687394e-001 -9.159248e-001  2.980954e-001
    outer loop
      vertex -9.944612e-001 -3.874409e+000  3.500000e+000
      vertex -1.728706e+000 -4.798080e+000  0.000000e+000
      vertex -1.137758e+000 -4.971469e+000  0.000000e+000
    endloop
  endfacet
  facet normal -1.734975e-001 -9.377017e-001  3.010220e-001
    outer loop
      vertex -9.944612e-001 -3.874409e+000  3.500000e+000
      vertex -1.137758e+000 -4.971469e+000  0.000000e+000
      vertex -4.576335e-001 -3.973735e+000  3.500000e+000
    endloop
  endfacet
  facet normal -3.772338e-001 -8.769714e-001  2.976839e-001
    outer loop
      vertex -1.512764e+000 -3.702910e+000  3.500000e+000
      vertex -2.294447e+000 -4.554724e+000  0.000000e+000
      vertex -1.728706e+000 -4.798080e+000  0.000000e+000
    endloop
  endfacet
  facet normal -2.994973e-001 -9.051394e-001  3.017017e-001
    outer loop
      vertex -1.512764e+000 -3.702910e+000  3.500000e+000
      vertex -1.728706e+000 -4.798080e+000  0.000000e+000
      vertex -9.944612e-001 -3.874409e+000  3.500000e+000
    endloop
  endfacet
  facet normal -4.802160e-001 -8.251514e-001  2.975192e-001
    outer loop
      vertex -2.002887e+000 -3.462433e+000  3.500000e+000
      vertex -2.826729e+000 -4.244950e+000  0.000000e+000
      vertex -2.294447e+000 -4.554724e+000  0.000000e+000
    endloop
  endfacet
  facet normal -4.199070e-001 -8.558232e-001  3.020675e-001
    outer loop
      vertex -2.002887e+000 -3.462433e+000  3.500000e+000
      vertex -2.294447e+000 -4.554724e+000  0.000000e+000
      vertex -1.512764e+000 -3.702910e+000  3.500000e+000
    endloop
  endfacet
  facet normal -5.761603e-001 -7.612310e-001  2.976016e-001
    outer loop
      vertex -2.455700e+000 -3.157458e+000  3.500000e+000
      vertex -3.317791e+000 -3.873275e+000  0.000000e+000
      vertex -2.826729e+000 -4.244950e+000  0.000000e+000
    endloop
  endfacet
  facet normal -5.325209e-001 -7.906613e-001  3.021197e-001
    outer loop
      vertex -2.455700e+000 -3.157458e+000  3.500000e+000
      vertex -2.826729e+000 -4.244950e+000  0.000000e+000
      vertex -2.002887e+000 -3.462433e+000  3.500000e+000
    endloop
  endfacet
  facet normal -6.636443e-001 -6.861584e-001  2.979308e-001
    outer loop
      vertex -2.862768e+000 -2.793664e+000  3.500000e+000
      vertex -3.760473e+000 -3.445119e+000  0.000000e+000
      vertex -3.317791e+000 -3.873275e+000  0.000000e+000
    endloop
  endfacet
  facet normal -6.352780e-001 -7.108468e-001  3.018584e-001
    outer loop
      vertex -2.862768e+000 -2.793664e+000  3.500000e+000
      vertex -3.317791e+000 -3.873275e+000  0.000000e+000
      vertex -2.455700e+000 -3.157458e+000  3.500000e+000
    endloop
  endfacet
  facet normal -7.413731e-001 -6.010488e-001  2.985067e-001
    outer loop
      vertex -3.216508e+000 -2.377831e+000  3.500000e+000
      vertex -4.148318e+000 -2.966725e+000  0.000000e+000
      vertex -3.760473e+000 -3.445119e+000  0.000000e+000
    endloop
  endfacet
  facet normal -7.262933e-001 -6.178402e-001  3.012834e-001
    outer loop
      vertex -3.216508e+000 -2.377831e+000  3.500000e+000
      vertex -3.760473e+000 -3.445119e+000  0.000000e+000
      vertex -2.862768e+000 -2.793664e+000  3.500000e+000
    endloop
  endfacet
  facet normal -5.468020e-001  8.372619e-001  0.000000e+000
    outer loop
      vertex  1.534162e+000 -2.808264e+000 -1.110223e-015
      vertex  1.954583e+000 -2.533694e+000  3.500000e+000
      vertex  1.954583e+000 -2.533694e+000 -1.110223e-015
    endloop
  endfacet
  facet normal -6.710465e-001  7.414152e-001  0.000000e+000
    outer loop
      vertex  1.954583e+000 -2.533694e+000 -1.110223e-015
      vertex  1.954583e+000 -2.533694e+000  3.500000e+000
      vertex  2.326876e+000 -2.196736e+000  3.500000e+000
    endloop
  endfacet
  facet normal -6.710465e-001  7.414152e-001  0.000000e+000
    outer loop
      vertex  1.954583e+000 -2.533694e+000 -1.110223e-015
      vertex  2.326876e+000 -2.196736e+000  3.500000e+000
      vertex  2.326876e+000 -2.196736e+000 -1.110223e-015
    endloop
  endfacet
  facet normal -7.787678e-001  6.273122e-001  0.000000e+000
    outer loop
      vertex  2.326876e+000 -2.196736e+000 -1.110223e-015
      vertex  2.326876e+000 -2.196736e+000  3.500000e+000
      vertex  2.641873e+000 -1.805687e+000  3.500000e+000
    endloop
  endfacet
  facet normal -7.787678e-001  6.273122e-001  0.000000e+000
    outer loop
      vertex  2.326876e+000 -2.196736e+000 -1.110223e-015
      vertex  2.641873e+000 -1.805687e+000  3.500000e+000
      vertex  2.641873e+000 -1.805687e+000 -1.110223e-015
    endloop
  endfacet
  facet normal -8.673130e-001  4.977632e-001  0.000000e+000
    outer loop
      vertex  2.641873e+000 -1.805687e+000 -1.110223e-015
      vertex  2.641873e+000 -1.805687e+000  3.500000e+000
      vertex  2.891819e+000 -1.370176e+000  3.500000e+000
    endloop
  endfacet
  facet normal -8.673130e-001  4.977632e-001  0.000000e+000
    outer loop
      vertex  2.641873e+000 -1.805687e+000 -1.110223e-015
      vertex  2.891819e+000 -1.370176e+000  3.500000e+000
      vertex  2.891819e+000 -1.370176e+000 -1.110223e-015
    endloop
  endfacet
  facet normal -9.345024e-001  3.559569e-001  0.000000e+000
    outer loop
      vertex  2.891819e+000 -1.370176e+000 -1.110223e-015
      vertex  2.891819e+000 -1.370176e+000  3.500000e+000
      vertex  3.070559e+000 -9.009265e-001  3.500000e+000
    endloop
  endfacet
  facet normal -9.345024e-001  3.559569e-001  0.000000e+000
    outer loop
      vertex  2.891819e+000 -1.370176e+000 -1.110223e-015
      vertex  3.070559e+000 -9.009265e-001  3.500000e+000
      vertex  3.070559e+000 -9.009265e-001 -1.110223e-015
    endloop
  endfacet
  facet normal -9.786810e-001  2.053862e-001  0.000000e+000
    outer loop
      vertex  3.070559e+000 -9.009265e-001 -1.110223e-015
      vertex  3.070559e+000 -9.009265e-001  3.500000e+000
      vertex  3.173691e+000 -4.094934e-001  3.500000e+000
    endloop
  endfacet
  facet normal -9.786810e-001  2.053862e-001  0.000000e+000
    outer loop
      vertex  3.070559e+000 -9.009265e-001 -1.110223e-015
      vertex  3.173691e+000 -4.094934e-001  3.500000e+000
      vertex  3.173691e+000 -4.094934e-001 -1.110223e-015
    endloop
  endfacet
  facet normal -9.987613e-001  4.975832e-002  0.000000e+000
    outer loop
      vertex  3.173691e+000 -4.094934e-001 -1.110223e-015
      vertex  3.173691e+000 -4.094934e-001  3.500000e+000
      vertex  3.198677e+000  9.202284e-002  3.500000e+000
    endloop
  endfacet
  facet normal -9.987613e-001  4.975832e-002  0.000000e+000
    outer loop
      vertex  3.173691e+000 -4.094934e-001 -1.110223e-015
      vertex  3.198677e+000  9.202284e-002  3.500000e+000
      vertex  3.198677e+000  9.202284e-002 -1.110223e-015
    endloop
  endfacet
  facet normal -9.942488e-001 -1.070950e-001  0.000000e+000
    outer loop
      vertex  3.198677e+000  9.202284e-002 -1.110223e-015
      vertex  3.198677e+000  9.202284e-002  3.500000e+000
      vertex  3.144900e+000  5.912731e-001  3.500000e+000
    endloop
  endfacet
  facet normal -9.942488e-001 -1.070950e-001  -0.000000e+000
    outer loop
      vertex  3.198677e+000  9.202284e-002 -1.110223e-015
      vertex  3.144900e+000  5.912731e-001  3.500000e+000
      vertex  3.144900e+000  5.912731e-001 -1.110223e-015
    endloop
  endfacet
  facet normal -9.652545e-001 -2.613117e-001  0.000000e+000
    outer loop
      vertex  3.144900e+000  5.912731e-001 -1.110223e-015
      vertex  3.144900e+000  5.912731e-001  3.500000e+000
      vertex  3.013685e+000  1.075964e+000  3.500000e+000
    endloop
  endfacet
  facet normal -9.652545e-001 -2.613117e-001  -0.000000e+000
    outer loop
      vertex  3.144900e+000  5.912731e-001 -1.110223e-015
      vertex  3.013685e+000  1.075964e+000  3.500000e+000
      vertex  3.013685e+000  1.075964e+000 -1.110223e-015
    endloop
  endfacet
  facet normal -9.124927e-001 -4.090931e-001  0.000000e+000
    outer loop
      vertex  3.013685e+000  1.075964e+000 -1.110223e-015
      vertex  3.013685e+000  1.075964e+000  3.500000e+000
      vertex  2.808264e+000  1.534162e+000  3.500000e+000
    endloop
  endfacet
  facet normal -9.124927e-001 -4.090931e-001  -0.000000e+000
    outer loop
      vertex  3.013685e+000  1.075964e+000 -1.110223e-015
      vertex  2.808264e+000  1.534162e+000  3.500000e+000
      vertex  2.808264e+000  1.534162e+000 -8.881784e-016
    endloop
  endfacet
  facet normal -5.468020e-001  8.372619e-001  0.000000e+000
    outer loop
      vertex  1.954583e+000 -2.533694e+000  3.500000e+000
      vertex  1.534162e+000 -2.808264e+000 -1.110223e-015
      vertex  1.534162e+000 -2.808264e+000  3.500000e+000
    endloop
  endfacet
  facet normal -4.090931e-001  9.124927e-001  0.000000e+000
    outer loop
      vertex  1.534162e+000 -2.808264e+000  3.500000e+000
      vertex  1.534162e+000 -2.808264e+000 -1.110223e-015
      vertex  1.075964e+000 -3.013685e+000 -1.110223e-015
    endloop
  endfacet
  facet normal -4.090931e-001  9.124927e-001  0.000000e+000
    outer loop
      vertex  1.534162e+000 -2.808264e+000  3.500000e+000
      vertex  1.075964e+000 -3.013685e+000 -1.110223e-015
      vertex  1.075964e+000 -3.013685e+000  3.500000e+000
    endloop
  endfacet
  facet normal -2.613117e-001  9.652545e-001  0.000000e+000
    outer loop
      vertex  1.075964e+000 -3.013685e+000  3.500000e+000
      vertex  1.075964e+000 -3.013685e+000 -1.110223e-015
      vertex  5.912731e-001 -3.144900e+000 -1.110223e-015
    endloop
  endfacet
  facet normal -2.613117e-001  9.652545e-001  0.000000e+000
    outer loop
      vertex  1.075964e+000 -3.013685e+000  3.500000e+000
      vertex  5.912731e-001 -3.144900e+000 -1.110223e-015
      vertex  5.912731e-001 -3.144900e+000  3.500000e+000
    endloop
  endfacet
  facet normal -1.070950e-001  9.942488e-001  0.000000e+000
    outer loop
      vertex  5.912731e-001 -3.144900e+000  3.500000e+000
      vertex  5.912731e-001 -3.144900e+000 -1.110223e-015
      vertex  9.202284e-002 -3.198677e+000 -1.110223e-015
    endloop
  endfacet
  facet normal -1.070950e-001  9.942488e-001  0.000000e+000
    outer loop
      vertex  5.912731e-001 -3.144900e+000  3.500000e+000
      vertex  9.202284e-002 -3.198677e+000 -1.110223e-015
      vertex  9.202284e-002 -3.198677e+000  3.500000e+000
    endloop
  endfacet
  facet normal  4.975832e-002  9.987613e-001  0.000000e+000
    outer loop
      vertex  9.202284e-002 -3.198677e+000  3.500000e+000
      vertex  9.202284e-002 -3.198677e+000 -1.110223e-015
      vertex -4.094934e-001 -3.173691e+000 -1.110223e-015
    endloop
  endfacet
  facet normal  4.975832e-002  9.987613e-001  -0.000000e+000
    outer loop
      vertex  9.202284e-002 -3.198677e+000  3.500000e+000
      vertex -4.094934e-001 -3.173691e+000 -1.110223e-015
      vertex -4.094934e-001 -3.173691e+000  3.500000e+000
    endloop
  endfacet
  facet normal  2.053862e-001  9.786810e-001  0.000000e+000
    outer loop
      vertex -4.094934e-001 -3.173691e+000  3.500000e+000
      vertex -4.094934e-001 -3.173691e+000 -1.110223e-015
      vertex -9.009265e-001 -3.070559e+000 -1.110223e-015
    endloop
  endfacet
  facet normal  2.053862e-001  9.786810e-001  -0.000000e+000
    outer loop
      vertex -4.094934e-001 -3.173691e+000  3.500000e+000
      vertex -9.009265e-001 -3.070559e+000 -1.110223e-015
      vertex -9.009265e-001 -3.070559e+000  3.500000e+000
    endloop
  endfacet
  facet normal  3.559569e-001  9.345024e-001  0.000000e+000
    outer loop
      vertex -9.009265e-001 -3.070559e+000  3.500000e+000
      vertex -9.009265e-001 -3.070559e+000 -1.110223e-015
      vertex -1.370176e+000 -2.891819e+000 -1.110223e-015
    endloop
  endfacet
  facet normal  3.559569e-001  9.345024e-001  -0.000000e+000
    outer loop
      vertex -9.009265e-001 -3.070559e+000  3.500000e+000
      vertex -1.370176e+000 -2.891819e+000 -1.110223e-015
      vertex -1.370176e+000 -2.891819e+000  3.500000e+000
    endloop
  endfacet
  facet normal  4.977632e-001  8.673130e-001  0.000000e+000
    outer loop
      vertex -1.370176e+000 -2.891819e+000  3.500000e+000
      vertex -1.370176e+000 -2.891819e+000 -1.110223e-015
      vertex -1.805687e+000 -2.641873e+000 -1.110223e-015
    endloop
  endfacet
  facet normal  4.977632e-001  8.673130e-001  -0.000000e+000
    outer loop
      vertex -1.370176e+000 -2.891819e+000  3.500000e+000
      vertex -1.805687e+000 -2.641873e+000 -1.110223e-015
      vertex -1.805687e+000 -2.641873e+000  3.500000e+000
    endloop
  endfacet
  facet normal  6.273122e-001  7.787678e-001  0.000000e+000
    outer loop
      vertex -1.805687e+000 -2.641873e+000  3.500000e+000
      vertex -1.805687e+000 -2.641873e+000 -1.110223e-015
      vertex -2.196736e+000 -2.326876e+000 -1.110223e-015
    endloop
  endfacet
  facet normal  6.273122e-001  7.787678e-001  -0.000000e+000
    outer loop
      vertex -1.805687e+000 -2.641873e+000  3.500000e+000
      vertex -2.196736e+000 -2.326876e+000 -1.110223e-015
      vertex -2.196736e+000 -2.326876e+000  3.500000e+000
    endloop
  endfacet
  facet normal  7.414152e-001  6.710465e-001  0.000000e+000
    outer loop
      vertex -2.196736e+000 -2.326876e+000  3.500000e+000
      vertex -2.196736e+000 -2.326876e+000 -1.110223e-015
      vertex -2.533694e+000 -1.954583e+000 -1.110223e-015
    endloop
  endfacet
  facet normal  7.414152e-001  6.710465e-001  -0.000000e+000
    outer loop
      vertex -2.196736e+000 -2.326876e+000  3.500000e+000
      vertex -2.533694e+000 -1.954583e+000 -1.110223e-015
      vertex -2.533694e+000 -1.954583e+000  3.500000e+000
    endloop
  endfacet
  facet normal  8.372619e-001  5.468020e-001  0.000000e+000
    outer loop
      vertex -2.533694e+000 -1.954583e+000  3.500000e+000
      vertex -2.533694e+000 -1.954583e+000 -1.110223e-015
      vertex -2.808264e+000 -1.534162e+000 -8.881784e-016
    endloop
  endfacet
  facet normal  8.372619e-001  5.468020e-001  -0.000000e+000
    outer loop
      vertex -2.533694e+000 -1.954583e+000  3.500000e+000
      vertex -2.808264e+000 -1.534162e+000 -8.881784e-016
      vertex -2.808264e+000 -1.534162e+000  3.500000e+000
    endloop
  endfacet
endsolid CATIA STL
