solid CATIA STL
  facet normal  -0.000000e+000  0.000000e+000  1.000000e+000
    outer loop
      vertex -1.534162e+000  2.808264e+000  5.500000e+000
      vertex -2.982514e+000  2.665448e+000  5.500000e+000
      vertex -1.954583e+000  2.533694e+000  5.500000e+000
    endloop
  endfacet
  facet normal  0.000000e+000  -0.000000e+000  1.000000e+000
    outer loop
      vertex  1.805687e+000  2.641873e+000  5.500000e+000
      vertex  2.196736e+000  2.326876e+000  5.500000e+000
      vertex  3.216508e+000  2.377831e+000  5.500000e+000
    endloop
  endfacet
  facet normal  0.000000e+000  -0.000000e+000  1.000000e+000
    outer loop
      vertex  9.202284e-002 -3.198677e+000  5.500000e+000
      vertex  6.314378e-001 -3.949846e+000  5.500000e+000
      vertex  1.163394e+000 -3.827076e+000  5.500000e+000
    endloop
  endfacet
  facet normal  0.000000e+000  -0.000000e+000  1.000000e+000
    outer loop
      vertex  9.202284e-002 -3.198677e+000  5.500000e+000
      vertex  1.163394e+000 -3.827076e+000  5.500000e+000
      vertex  1.673678e+000 -3.633015e+000  5.500000e+000
    endloop
  endfacet
  facet normal  0.000000e+000  -0.000000e+000  1.000000e+000
    outer loop
      vertex  9.202284e-002 -3.198677e+000  5.500000e+000
      vertex  1.673678e+000 -3.633015e+000  5.500000e+000
      vertex  2.152785e+000 -3.371278e+000  5.500000e+000
    endloop
  endfacet
  facet normal  0.000000e+000  0.000000e+000  9.999999e-001
    outer loop
      vertex  9.202284e-002 -3.198677e+000  5.500000e+000
      vertex  2.152785e+000 -3.371278e+000  5.500000e+000
      vertex  5.912731e-001 -3.144900e+000  5.500000e+000
    endloop
  endfacet
  facet normal  -0.000000e+000  -0.000000e+000  1.000000e+000
    outer loop
      vertex  4.094934e-001  3.173691e+000  5.500000e+000
      vertex  9.009265e-001  3.070559e+000  5.500000e+000
      vertex  2.862768e+000  2.793664e+000  5.500000e+000
    endloop
  endfacet
  facet normal  0.000000e+000  0.000000e+000  1.000000e+000
    outer loop
      vertex  4.094934e-001  3.173691e+000  5.500000e+000
      vertex  2.862768e+000  2.793664e+000  5.500000e+000
      vertex  2.455700e+000  3.157458e+000  5.500000e+000
    endloop
  endfacet
  facet normal  0.000000e+000  0.000000e+000  1.000000e+000
    outer loop
      vertex  4.094934e-001  3.173691e+000  5.500000e+000
      vertex  2.455700e+000  3.157458e+000  5.500000e+000
      vertex  2.002887e+000  3.462433e+000  5.500000e+000
    endloop
  endfacet
  facet normal  0.000000e+000  0.000000e+000  1.000000e+000
    outer loop
      vertex  4.094934e-001  3.173691e+000  5.500000e+000
      vertex  2.002887e+000  3.462433e+000  5.500000e+000
      vertex  1.512764e+000  3.702910e+000  5.500000e+000
    endloop
  endfacet
  facet normal  0.000000e+000  0.000000e+000  1.000000e+000
    outer loop
      vertex  4.094934e-001  3.173691e+000  5.500000e+000
      vertex  1.512764e+000  3.702910e+000  5.500000e+000
      vertex  9.944612e-001  3.874409e+000  5.500000e+000
    endloop
  endfacet
  facet normal  0.000000e+000  0.000000e+000  1.000000e+000
    outer loop
      vertex  4.094934e-001  3.173691e+000  5.500000e+000
      vertex  9.944612e-001  3.874409e+000  5.500000e+000
      vertex  4.576335e-001  3.973735e+000  5.500000e+000
    endloop
  endfacet
  facet normal  0.000000e+000  0.000000e+000  1.000000e+000
    outer loop
      vertex  4.094934e-001  3.173691e+000  5.500000e+000
      vertex  4.576335e-001  3.973735e+000  5.500000e+000
      vertex -8.771918e-002  3.999038e+000  5.500000e+000
    endloop
  endfacet
  facet normal  0.000000e+000  0.000000e+000  1.000000e+000
    outer loop
      vertex  4.094934e-001  3.173691e+000  5.500000e+000
      vertex -8.771918e-002  3.999038e+000  5.500000e+000
      vertex -9.202284e-002  3.198677e+000  5.500000e+000
    endloop
  endfacet
  facet normal  0.000000e+000  0.000000e+000  1.000000e+000
    outer loop
      vertex -9.202284e-002  3.198677e+000  5.500000e+000
      vertex -8.771918e-002  3.999038e+000  5.500000e+000
      vertex -6.314378e-001  3.949846e+000  5.500000e+000
    endloop
  endfacet
  facet normal  0.000000e+000  0.000000e+000  1.000000e+000
    outer loop
      vertex -9.202284e-002  3.198677e+000  5.500000e+000
      vertex -6.314378e-001  3.949846e+000  5.500000e+000
      vertex -1.163394e+000  3.827076e+000  5.500000e+000
    endloop
  endfacet
  facet normal  0.000000e+000  0.000000e+000  1.000000e+000
    outer loop
      vertex -9.202284e-002  3.198677e+000  5.500000e+000
      vertex -1.163394e+000  3.827076e+000  5.500000e+000
      vertex -1.673678e+000  3.633015e+000  5.500000e+000
    endloop
  endfacet
  facet normal  0.000000e+000  0.000000e+000  1.000000e+000
    outer loop
      vertex -9.202284e-002  3.198677e+000  5.500000e+000
      vertex -1.673678e+000  3.633015e+000  5.500000e+000
      vertex -2.152785e+000  3.371278e+000  5.500000e+000
    endloop
  endfacet
  facet normal  0.000000e+000  0.000000e+000  1.000000e+000
    outer loop
      vertex -9.202284e-002  3.198677e+000  5.500000e+000
      vertex -2.152785e+000  3.371278e+000  5.500000e+000
      vertex -2.591789e+000  3.046741e+000  5.500000e+000
    endloop
  endfacet
  facet normal  0.000000e+000  0.000000e+000  1.000000e+000
    outer loop
      vertex -9.202284e-002  3.198677e+000  5.500000e+000
      vertex -2.591789e+000  3.046741e+000  5.500000e+000
      vertex -5.912731e-001  3.144900e+000  5.500000e+000
    endloop
  endfacet
  facet normal  0.000000e+000  0.000000e+000  1.000000e+000
    outer loop
      vertex  6.314378e-001 -3.949846e+000  5.500000e+000
      vertex  9.202284e-002 -3.198677e+000  5.500000e+000
      vertex  8.771918e-002 -3.999038e+000  5.500000e+000
    endloop
  endfacet
  facet normal  0.000000e+000  -0.000000e+000  1.000000e+000
    outer loop
      vertex  8.771918e-002 -3.999038e+000  5.500000e+000
      vertex  9.202284e-002 -3.198677e+000  5.500000e+000
      vertex -4.094934e-001 -3.173691e+000  5.500000e+000
    endloop
  endfacet
  facet normal  0.000000e+000  0.000000e+000  1.000000e+000
    outer loop
      vertex  8.771918e-002 -3.999038e+000  5.500000e+000
      vertex -4.094934e-001 -3.173691e+000  5.500000e+000
      vertex -4.576335e-001 -3.973735e+000  5.500000e+000
    endloop
  endfacet
  facet normal  0.000000e+000  -0.000000e+000  1.000000e+000
    outer loop
      vertex -4.576335e-001 -3.973735e+000  5.500000e+000
      vertex -4.094934e-001 -3.173691e+000  5.500000e+000
      vertex -2.002887e+000 -3.462433e+000  5.500000e+000
    endloop
  endfacet
  facet normal  0.000000e+000  0.000000e+000  1.000000e+000
    outer loop
      vertex -4.576335e-001 -3.973735e+000  5.500000e+000
      vertex -2.002887e+000 -3.462433e+000  5.500000e+000
      vertex -9.944612e-001 -3.874409e+000  5.500000e+000
    endloop
  endfacet
  facet normal  0.000000e+000  0.000000e+000  9.999999e-001
    outer loop
      vertex -9.944612e-001 -3.874409e+000  5.500000e+000
      vertex -2.002887e+000 -3.462433e+000  5.500000e+000
      vertex -1.512764e+000 -3.702910e+000  5.500000e+000
    endloop
  endfacet
  facet normal  0.000000e+000  0.000000e+000  1.000000e+000
    outer loop
      vertex -2.982514e+000  2.665448e+000  5.500000e+000
      vertex -1.534162e+000  2.808264e+000  5.500000e+000
      vertex -2.591789e+000  3.046741e+000  5.500000e+000
    endloop
  endfacet
  facet normal  0.000000e+000  0.000000e+000  1.000000e+000
    outer loop
      vertex -2.591789e+000  3.046741e+000  5.500000e+000
      vertex -1.534162e+000  2.808264e+000  5.500000e+000
      vertex -1.075964e+000  3.013685e+000  5.500000e+000
    endloop
  endfacet
  facet normal  0.000000e+000  -0.000000e+000  1.000000e+000
    outer loop
      vertex -2.591789e+000  3.046741e+000  5.500000e+000
      vertex -1.075964e+000  3.013685e+000  5.500000e+000
      vertex -5.912731e-001  3.144900e+000  5.500000e+000
    endloop
  endfacet
  facet normal  0.000000e+000  0.000000e+000  1.000000e+000
    outer loop
      vertex -1.954583e+000  2.533694e+000  5.500000e+000
      vertex -2.982514e+000  2.665448e+000  5.500000e+000
      vertex -2.326876e+000  2.196736e+000  5.500000e+000
    endloop
  endfacet
  facet normal  0.000000e+000  0.000000e+000  1.000000e+000
    outer loop
      vertex -2.326876e+000  2.196736e+000  5.500000e+000
      vertex -2.982514e+000  2.665448e+000  5.500000e+000
      vertex -3.317680e+000  2.234503e+000  5.500000e+000
    endloop
  endfacet
  facet normal  0.000000e+000  0.000000e+000  1.000000e+000
    outer loop
      vertex -2.326876e+000  2.196736e+000  5.500000e+000
      vertex -3.317680e+000  2.234503e+000  5.500000e+000
      vertex -2.641873e+000  1.805687e+000  5.500000e+000
    endloop
  endfacet
  facet normal  0.000000e+000  0.000000e+000  1.000000e+000
    outer loop
      vertex -2.641873e+000  1.805687e+000  5.500000e+000
      vertex -3.317680e+000  2.234503e+000  5.500000e+000
      vertex -3.591043e+000  1.761933e+000  5.500000e+000
    endloop
  endfacet
  facet normal  -0.000000e+000  0.000000e+000  1.000000e+000
    outer loop
      vertex -2.641873e+000  1.805687e+000  5.500000e+000
      vertex -3.591043e+000  1.761933e+000  5.500000e+000
      vertex -2.891819e+000  1.370176e+000  5.500000e+000
    endloop
  endfacet
  facet normal  0.000000e+000  0.000000e+000  9.999999e-001
    outer loop
      vertex -2.891819e+000  1.370176e+000  5.500000e+000
      vertex -3.591043e+000  1.761933e+000  5.500000e+000
      vertex -3.797513e+000  1.256542e+000  5.500000e+000
    endloop
  endfacet
  facet normal  -0.000000e+000  0.000000e+000  1.000000e+000
    outer loop
      vertex -2.891819e+000  1.370176e+000  5.500000e+000
      vertex -3.797513e+000  1.256542e+000  5.500000e+000
      vertex -3.070559e+000  9.009265e-001  5.500000e+000
    endloop
  endfacet
  facet normal  0.000000e+000  0.000000e+000  1.000000e+000
    outer loop
      vertex -3.070559e+000  9.009265e-001  5.500000e+000
      vertex -3.797513e+000  1.256542e+000  5.500000e+000
      vertex -3.933242e+000  7.277439e-001  5.500000e+000
    endloop
  endfacet
  facet normal  -0.000000e+000  0.000000e+000  1.000000e+000
    outer loop
      vertex -3.070559e+000  9.009265e-001  5.500000e+000
      vertex -3.933242e+000  7.277439e-001  5.500000e+000
      vertex -3.173691e+000  4.094934e-001  5.500000e+000
    endloop
  endfacet
  facet normal  0.000000e+000  0.000000e+000  1.000000e+000
    outer loop
      vertex -3.173691e+000  4.094934e-001  5.500000e+000
      vertex -3.933242e+000  7.277439e-001  5.500000e+000
      vertex -3.995702e+000  1.853893e-001  5.500000e+000
    endloop
  endfacet
  facet normal  -0.000000e+000  0.000000e+000  9.999999e-001
    outer loop
      vertex -3.173691e+000  4.094934e-001  5.500000e+000
      vertex -3.995702e+000  1.853893e-001  5.500000e+000
      vertex -3.198677e+000 -9.202284e-002  5.500000e+000
    endloop
  endfacet
  facet normal  0.000000e+000  0.000000e+000  1.000000e+000
    outer loop
      vertex -3.198677e+000 -9.202284e-002  5.500000e+000
      vertex -3.995702e+000  1.853893e-001  5.500000e+000
      vertex -3.983729e+000 -3.604187e-001  5.500000e+000
    endloop
  endfacet
  facet normal  -0.000000e+000  0.000000e+000  1.000000e+000
    outer loop
      vertex -3.198677e+000 -9.202284e-002  5.500000e+000
      vertex -3.983729e+000 -3.604187e-001  5.500000e+000
      vertex -3.144900e+000 -5.912731e-001  5.500000e+000
    endloop
  endfacet
  facet normal  0.000000e+000  0.000000e+000  1.000000e+000
    outer loop
      vertex -3.144900e+000 -5.912731e-001  5.500000e+000
      vertex -3.983729e+000 -3.604187e-001  5.500000e+000
      vertex -3.013685e+000 -1.075964e+000  5.500000e+000
    endloop
  endfacet
  facet normal  0.000000e+000  0.000000e+000  1.000000e+000
    outer loop
      vertex -3.013685e+000 -1.075964e+000  5.500000e+000
      vertex -3.983729e+000 -3.604187e-001  5.500000e+000
      vertex -3.897547e+000 -8.995128e-001  5.500000e+000
    endloop
  endfacet
  facet normal  0.000000e+000  0.000000e+000  1.000000e+000
    outer loop
      vertex -3.013685e+000 -1.075964e+000  5.500000e+000
      vertex -3.897547e+000 -8.995128e-001  5.500000e+000
      vertex -2.808264e+000 -1.534162e+000  5.500000e+000
    endloop
  endfacet
  facet normal  0.000000e+000  0.000000e+000  1.000000e+000
    outer loop
      vertex -2.808264e+000 -1.534162e+000  5.500000e+000
      vertex -3.897547e+000 -8.995128e-001  5.500000e+000
      vertex -3.738762e+000 -1.421851e+000  5.500000e+000
    endloop
  endfacet
  facet normal  0.000000e+000  0.000000e+000  1.000000e+000
    outer loop
      vertex -2.808264e+000 -1.534162e+000  5.500000e+000
      vertex -3.738762e+000 -1.421851e+000  5.500000e+000
      vertex -2.533694e+000 -1.954583e+000  5.500000e+000
    endloop
  endfacet
  facet normal  0.000000e+000  0.000000e+000  1.000000e+000
    outer loop
      vertex -2.533694e+000 -1.954583e+000  5.500000e+000
      vertex -3.738762e+000 -1.421851e+000  5.500000e+000
      vertex -3.510330e+000 -1.917702e+000  5.500000e+000
    endloop
  endfacet
  facet normal  0.000000e+000  0.000000e+000  1.000000e+000
    outer loop
      vertex -2.533694e+000 -1.954583e+000  5.500000e+000
      vertex -3.510330e+000 -1.917702e+000  5.500000e+000
      vertex -2.196736e+000 -2.326876e+000  5.500000e+000
    endloop
  endfacet
  facet normal  0.000000e+000  0.000000e+000  1.000000e+000
    outer loop
      vertex -2.196736e+000 -2.326876e+000  5.500000e+000
      vertex -3.510330e+000 -1.917702e+000  5.500000e+000
      vertex -3.216508e+000 -2.377831e+000  5.500000e+000
    endloop
  endfacet
  facet normal  -0.000000e+000  0.000000e+000  1.000000e+000
    outer loop
      vertex -2.196736e+000 -2.326876e+000  5.500000e+000
      vertex -3.216508e+000 -2.377831e+000  5.500000e+000
      vertex -1.805687e+000 -2.641873e+000  5.500000e+000
    endloop
  endfacet
  facet normal  0.000000e+000  0.000000e+000  1.000000e+000
    outer loop
      vertex -1.805687e+000 -2.641873e+000  5.500000e+000
      vertex -3.216508e+000 -2.377831e+000  5.500000e+000
      vertex -2.862768e+000 -2.793664e+000  5.500000e+000
    endloop
  endfacet
  facet normal  -0.000000e+000  0.000000e+000  1.000000e+000
    outer loop
      vertex -1.805687e+000 -2.641873e+000  5.500000e+000
      vertex -2.862768e+000 -2.793664e+000  5.500000e+000
      vertex -1.370176e+000 -2.891819e+000  5.500000e+000
    endloop
  endfacet
  facet normal  0.000000e+000  0.000000e+000  1.000000e+000
    outer loop
      vertex -2.002887e+000 -3.462433e+000  5.500000e+000
      vertex -4.094934e-001 -3.173691e+000  5.500000e+000
      vertex -2.455700e+000 -3.157458e+000  5.500000e+000
    endloop
  endfacet
  facet normal  -0.000000e+000  0.000000e+000  1.000000e+000
    outer loop
      vertex -2.455700e+000 -3.157458e+000  5.500000e+000
      vertex -4.094934e-001 -3.173691e+000  5.500000e+000
      vertex -9.009265e-001 -3.070559e+000  5.500000e+000
    endloop
  endfacet
  facet normal  0.000000e+000  0.000000e+000  1.000000e+000
    outer loop
      vertex -2.455700e+000 -3.157458e+000  5.500000e+000
      vertex -9.009265e-001 -3.070559e+000  5.500000e+000
      vertex -2.862768e+000 -2.793664e+000  5.500000e+000
    endloop
  endfacet
  facet normal  0.000000e+000  0.000000e+000  1.000000e+000
    outer loop
      vertex -2.862768e+000 -2.793664e+000  5.500000e+000
      vertex -9.009265e-001 -3.070559e+000  5.500000e+000
      vertex -1.370176e+000 -2.891819e+000  5.500000e+000
    endloop
  endfacet
  facet normal  0.000000e+000  0.000000e+000  1.000000e+000
    outer loop
      vertex  1.805687e+000  2.641873e+000  5.500000e+000
      vertex  3.216508e+000  2.377831e+000  5.500000e+000
      vertex  1.370176e+000  2.891819e+000  5.500000e+000
    endloop
  endfacet
  facet normal  0.000000e+000  0.000000e+000  1.000000e+000
    outer loop
      vertex  1.370176e+000  2.891819e+000  5.500000e+000
      vertex  3.216508e+000  2.377831e+000  5.500000e+000
      vertex  2.862768e+000  2.793664e+000  5.500000e+000
    endloop
  endfacet
  facet normal  0.000000e+000  0.000000e+000  1.000000e+000
    outer loop
      vertex  1.370176e+000  2.891819e+000  5.500000e+000
      vertex  2.862768e+000  2.793664e+000  5.500000e+000
      vertex  9.009265e-001  3.070559e+000  5.500000e+000
    endloop
  endfacet
  facet normal  -0.000000e+000  0.000000e+000  1.000000e+000
    outer loop
      vertex  3.216508e+000  2.377831e+000  5.500000e+000
      vertex  2.196736e+000  2.326876e+000  5.500000e+000
      vertex  3.510330e+000  1.917702e+000  5.500000e+000
    endloop
  endfacet
  facet normal  0.000000e+000  0.000000e+000  1.000000e+000
    outer loop
      vertex  3.510330e+000  1.917702e+000  5.500000e+000
      vertex  2.196736e+000  2.326876e+000  5.500000e+000
      vertex  2.533694e+000  1.954583e+000  5.500000e+000
    endloop
  endfacet
  facet normal  0.000000e+000  0.000000e+000  1.000000e+000
    outer loop
      vertex  3.510330e+000  1.917702e+000  5.500000e+000
      vertex  2.533694e+000  1.954583e+000  5.500000e+000
      vertex  3.738762e+000  1.421851e+000  5.500000e+000
    endloop
  endfacet
  facet normal  0.000000e+000  0.000000e+000  1.000000e+000
    outer loop
      vertex  3.738762e+000  1.421851e+000  5.500000e+000
      vertex  2.533694e+000  1.954583e+000  5.500000e+000
      vertex  2.808264e+000  1.534162e+000  5.500000e+000
    endloop
  endfacet
  facet normal  0.000000e+000  0.000000e+000  1.000000e+000
    outer loop
      vertex  3.738762e+000  1.421851e+000  5.500000e+000
      vertex  2.808264e+000  1.534162e+000  5.500000e+000
      vertex  3.897547e+000  8.995128e-001  5.500000e+000
    endloop
  endfacet
  facet normal  0.000000e+000  0.000000e+000  1.000000e+000
    outer loop
      vertex  3.897547e+000  8.995128e-001  5.500000e+000
      vertex  2.808264e+000  1.534162e+000  5.500000e+000
      vertex  3.013685e+000  1.075964e+000  5.500000e+000
    endloop
  endfacet
  facet normal  0.000000e+000  0.000000e+000  1.000000e+000
    outer loop
      vertex  3.897547e+000  8.995128e-001  5.500000e+000
      vertex  3.013685e+000  1.075964e+000  5.500000e+000
      vertex  3.983729e+000  3.604187e-001  5.500000e+000
    endloop
  endfacet
  facet normal  0.000000e+000  0.000000e+000  1.000000e+000
    outer loop
      vertex  3.983729e+000  3.604187e-001  5.500000e+000
      vertex  3.013685e+000  1.075964e+000  5.500000e+000
      vertex  3.144900e+000  5.912731e-001  5.500000e+000
    endloop
  endfacet
  facet normal  0.000000e+000  0.000000e+000  9.999999e-001
    outer loop
      vertex  3.983729e+000  3.604187e-001  5.500000e+000
      vertex  3.144900e+000  5.912731e-001  5.500000e+000
      vertex  3.995702e+000 -1.853893e-001  5.500000e+000
    endloop
  endfacet
  facet normal  0.000000e+000  0.000000e+000  9.999999e-001
    outer loop
      vertex  3.995702e+000 -1.853893e-001  5.500000e+000
      vertex  3.144900e+000  5.912731e-001  5.500000e+000
      vertex  3.198677e+000  9.202284e-002  5.500000e+000
    endloop
  endfacet
  facet normal  0.000000e+000  0.000000e+000  1.000000e+000
    outer loop
      vertex  3.995702e+000 -1.853893e-001  5.500000e+000
      vertex  3.198677e+000  9.202284e-002  5.500000e+000
      vertex  3.173691e+000 -4.094934e-001  5.500000e+000
    endloop
  endfacet
  facet normal  -0.000000e+000  0.000000e+000  1.000000e+000
    outer loop
      vertex  3.995702e+000 -1.853893e-001  5.500000e+000
      vertex  3.173691e+000 -4.094934e-001  5.500000e+000
      vertex  3.933242e+000 -7.277439e-001  5.500000e+000
    endloop
  endfacet
  facet normal  0.000000e+000  0.000000e+000  1.000000e+000
    outer loop
      vertex  3.933242e+000 -7.277439e-001  5.500000e+000
      vertex  3.173691e+000 -4.094934e-001  5.500000e+000
      vertex  3.070559e+000 -9.009265e-001  5.500000e+000
    endloop
  endfacet
  facet normal  -0.000000e+000  0.000000e+000  1.000000e+000
    outer loop
      vertex  3.933242e+000 -7.277439e-001  5.500000e+000
      vertex  3.070559e+000 -9.009265e-001  5.500000e+000
      vertex  3.797513e+000 -1.256542e+000  5.500000e+000
    endloop
  endfacet
  facet normal  0.000000e+000  0.000000e+000  1.000000e+000
    outer loop
      vertex  3.797513e+000 -1.256542e+000  5.500000e+000
      vertex  3.070559e+000 -9.009265e-001  5.500000e+000
      vertex  2.891819e+000 -1.370176e+000  5.500000e+000
    endloop
  endfacet
  facet normal  -0.000000e+000  0.000000e+000  9.999999e-001
    outer loop
      vertex  3.797513e+000 -1.256542e+000  5.500000e+000
      vertex  2.891819e+000 -1.370176e+000  5.500000e+000
      vertex  3.591043e+000 -1.761933e+000  5.500000e+000
    endloop
  endfacet
  facet normal  0.000000e+000  0.000000e+000  1.000000e+000
    outer loop
      vertex  3.591043e+000 -1.761933e+000  5.500000e+000
      vertex  2.891819e+000 -1.370176e+000  5.500000e+000
      vertex  2.641873e+000 -1.805687e+000  5.500000e+000
    endloop
  endfacet
  facet normal  -0.000000e+000  0.000000e+000  1.000000e+000
    outer loop
      vertex  3.591043e+000 -1.761933e+000  5.500000e+000
      vertex  2.641873e+000 -1.805687e+000  5.500000e+000
      vertex  3.317680e+000 -2.234503e+000  5.500000e+000
    endloop
  endfacet
  facet normal  0.000000e+000  0.000000e+000  1.000000e+000
    outer loop
      vertex  3.317680e+000 -2.234503e+000  5.500000e+000
      vertex  2.641873e+000 -1.805687e+000  5.500000e+000
      vertex  2.326876e+000 -2.196736e+000  5.500000e+000
    endloop
  endfacet
  facet normal  0.000000e+000  0.000000e+000  1.000000e+000
    outer loop
      vertex  3.317680e+000 -2.234503e+000  5.500000e+000
      vertex  2.326876e+000 -2.196736e+000  5.500000e+000
      vertex  2.982514e+000 -2.665448e+000  5.500000e+000
    endloop
  endfacet
  facet normal  0.000000e+000  0.000000e+000  1.000000e+000
    outer loop
      vertex  2.982514e+000 -2.665448e+000  5.500000e+000
      vertex  2.326876e+000 -2.196736e+000  5.500000e+000
      vertex  1.954583e+000 -2.533694e+000  5.500000e+000
    endloop
  endfacet
  facet normal  0.000000e+000  0.000000e+000  1.000000e+000
    outer loop
      vertex  2.982514e+000 -2.665448e+000  5.500000e+000
      vertex  1.954583e+000 -2.533694e+000  5.500000e+000
      vertex  2.591789e+000 -3.046741e+000  5.500000e+000
    endloop
  endfacet
  facet normal  0.000000e+000  0.000000e+000  1.000000e+000
    outer loop
      vertex  2.591789e+000 -3.046741e+000  5.500000e+000
      vertex  1.954583e+000 -2.533694e+000  5.500000e+000
      vertex  1.534162e+000 -2.808264e+000  5.500000e+000
    endloop
  endfacet
  facet normal  0.000000e+000  0.000000e+000  1.000000e+000
    outer loop
      vertex  2.591789e+000 -3.046741e+000  5.500000e+000
      vertex  1.534162e+000 -2.808264e+000  5.500000e+000
      vertex  1.075964e+000 -3.013685e+000  5.500000e+000
    endloop
  endfacet
  facet normal  0.000000e+000  0.000000e+000  1.000000e+000
    outer loop
      vertex  5.912731e-001 -3.144900e+000  5.500000e+000
      vertex  2.152785e+000 -3.371278e+000  5.500000e+000
      vertex  1.075964e+000 -3.013685e+000  5.500000e+000
    endloop
  endfacet
  facet normal  0.000000e+000  0.000000e+000  1.000000e+000
    outer loop
      vertex  1.075964e+000 -3.013685e+000  5.500000e+000
      vertex  2.152785e+000 -3.371278e+000  5.500000e+000
      vertex  2.591789e+000 -3.046741e+000  5.500000e+000
    endloop
  endfacet
  facet normal -2.563110e-015 -3.181936e-015 -1.000000e+000
    outer loop
      vertex  2.196736e+000  2.326876e+000 -8.881784e-016
      vertex  1.805687e+000  2.641873e+000 -8.881784e-016
      vertex  4.475671e+000  2.445070e+000 -7.105427e-015
    endloop
  endfacet
  facet normal  0.000000e+000  0.000000e+000 -9.999999e-001
    outer loop
      vertex -3.760473e+000 -3.445119e+000 -7.105427e-015
      vertex -5.302176e-001 -5.072363e+000 -7.105427e-015
      vertex -1.137758e+000 -4.971469e+000 -7.105427e-015
    endloop
  endfacet
  facet normal  0.000000e+000  0.000000e+000 -1.000000e+000
    outer loop
      vertex -3.760473e+000 -3.445119e+000 -7.105427e-015
      vertex -1.137758e+000 -4.971469e+000 -7.105427e-015
      vertex -1.728706e+000 -4.798080e+000 -7.105427e-015
    endloop
  endfacet
  facet normal  0.000000e+000  0.000000e+000 -1.000000e+000
    outer loop
      vertex -3.760473e+000 -3.445119e+000 -7.105427e-015
      vertex -1.728706e+000 -4.798080e+000 -7.105427e-015
      vertex -2.294447e+000 -4.554724e+000 -7.105427e-015
    endloop
  endfacet
  facet normal  0.000000e+000  0.000000e+000 -1.000000e+000
    outer loop
      vertex -3.760473e+000 -3.445119e+000 -7.105427e-015
      vertex -2.294447e+000 -4.554724e+000 -7.105427e-015
      vertex -2.826729e+000 -4.244950e+000 -7.105427e-015
    endloop
  endfacet
  facet normal  0.000000e+000  0.000000e+000 -1.000000e+000
    outer loop
      vertex -3.760473e+000 -3.445119e+000 -7.105427e-015
      vertex -2.826729e+000 -4.244950e+000 -7.105427e-015
      vertex -3.317791e+000 -3.873275e+000 -7.105427e-015
    endloop
  endfacet
  facet normal -1.272178e-015  1.181065e-014 -1.000000e+000
    outer loop
      vertex  9.202284e-002 -3.198677e+000 -8.881784e-016
      vertex  5.912731e-001 -3.144900e+000 -8.881784e-016
      vertex  3.873275e+000 -3.317791e+000 -7.105427e-015
    endloop
  endfacet
  facet normal -1.595615e-015  1.543260e-015 -1.000000e+000
    outer loop
      vertex  9.202284e-002 -3.198677e+000 -8.881784e-016
      vertex  3.873275e+000 -3.317791e+000 -7.105427e-015
      vertex  3.445119e+000 -3.760473e+000 -7.105427e-015
    endloop
  endfacet
  facet normal -1.536621e-015  1.895369e-015 -1.000000e+000
    outer loop
      vertex  9.202284e-002 -3.198677e+000 -8.881784e-016
      vertex  3.445119e+000 -3.760473e+000 -7.105427e-015
      vertex  2.966725e+000 -4.148318e+000 -7.105427e-015
    endloop
  endfacet
  facet normal -1.416873e-015  2.257863e-015 -1.000000e+000
    outer loop
      vertex  9.202284e-002 -3.198677e+000 -8.881784e-016
      vertex  2.966725e+000 -4.148318e+000 -7.105427e-015
      vertex  2.445070e+000 -4.475671e+000 -7.105427e-015
    endloop
  endfacet
  facet normal -1.226650e-015  2.608377e-015 -1.000000e+000
    outer loop
      vertex  9.202284e-002 -3.198677e+000 -8.881784e-016
      vertex  2.445070e+000 -4.475671e+000 -7.105427e-015
      vertex  1.887760e+000 -4.737759e+000 -7.105427e-015
    endloop
  endfacet
  facet normal -9.624941e-016  2.916583e-015 -9.999999e-001
    outer loop
      vertex  9.202284e-002 -3.198677e+000 -8.881784e-016
      vertex  1.887760e+000 -4.737759e+000 -7.105427e-015
      vertex  1.302923e+000 -4.930760e+000 -7.105427e-015
    endloop
  endfacet
  facet normal -6.313463e-016  3.148089e-015 -1.000000e+000
    outer loop
      vertex  9.202284e-002 -3.198677e+000 -8.881784e-016
      vertex  1.302923e+000 -4.930760e+000 -7.105427e-015
      vertex  6.990855e-001 -5.051859e+000 -7.105427e-015
    endloop
  endfacet
  facet normal -1.629404e-016 -3.270581e-015 -9.999999e-001
    outer loop
      vertex  4.094934e-001  3.173691e+000 -8.881784e-016
      vertex -9.202284e-002  3.198677e+000 -8.881784e-016
      vertex -8.505413e-002  5.099291e+000 -7.105427e-015
    endloop
  endfacet
  facet normal -1.429124e-016 -3.265438e-015 -1.000000e+000
    outer loop
      vertex  4.094934e-001  3.173691e+000 -8.881784e-016
      vertex -8.505413e-002  5.099291e+000 -7.105427e-015
      vertex  5.302176e-001  5.072363e+000 -7.105427e-015
    endloop
  endfacet
  facet normal -5.381172e-016 -3.240309e-015 -1.000000e+000
    outer loop
      vertex  4.094934e-001  3.173691e+000 -8.881784e-016
      vertex  5.302176e-001  5.072363e+000 -7.105427e-015
      vertex  1.137758e+000  4.971469e+000 -7.105427e-015
    endloop
  endfacet
  facet normal -9.068994e-016 -3.090918e-015 -1.000000e+000
    outer loop
      vertex  4.094934e-001  3.173691e+000 -8.881784e-016
      vertex  1.137758e+000  4.971469e+000 -7.105427e-015
      vertex  1.728706e+000  4.798080e+000 -7.105427e-015
    endloop
  endfacet
  facet normal -1.220145e-015 -2.836523e-015 -1.000000e+000
    outer loop
      vertex  4.094934e-001  3.173691e+000 -8.881784e-016
      vertex  1.728706e+000  4.798080e+000 -7.105427e-015
      vertex  2.294447e+000  4.554724e+000 -7.105427e-015
    endloop
  endfacet
  facet normal -1.460143e-015 -2.508953e-015 -1.000000e+000
    outer loop
      vertex  4.094934e-001  3.173691e+000 -8.881784e-016
      vertex  2.294447e+000  4.554724e+000 -7.105427e-015
      vertex  2.826729e+000  4.244950e+000 -7.105427e-015
    endloop
  endfacet
  facet normal -1.622202e-015 -2.143276e-015 -1.000000e+000
    outer loop
      vertex  4.094934e-001  3.173691e+000 -8.881784e-016
      vertex  2.826729e+000  4.244950e+000 -7.105427e-015
      vertex  3.317791e+000  3.873275e+000 -7.105427e-015
    endloop
  endfacet
  facet normal -1.711979e-015 -1.770058e-015 -1.000000e+000
    outer loop
      vertex  4.094934e-001  3.173691e+000 -8.881784e-016
      vertex  3.317791e+000  3.873275e+000 -7.105427e-015
      vertex  3.760473e+000  3.445119e+000 -7.105427e-015
    endloop
  endfacet
  facet normal -1.741023e-015 -1.411489e-015 -1.000000e+000
    outer loop
      vertex  4.094934e-001  3.173691e+000 -8.881784e-016
      vertex  3.760473e+000  3.445119e+000 -7.105427e-015
      vertex  4.148318e+000  2.966725e+000 -7.105427e-015
    endloop
  endfacet
  facet normal -2.258668e-015 -1.076273e-014 -1.000000e+000
    outer loop
      vertex  4.094934e-001  3.173691e+000 -8.881784e-016
      vertex  4.148318e+000  2.966725e+000 -7.105427e-015
      vertex  9.009265e-001  3.070559e+000 -8.881784e-016
    endloop
  endfacet
  facet normal  1.272178e-015 -1.181065e-014 -1.000000e+000
    outer loop
      vertex -9.202284e-002  3.198677e+000 -8.881784e-016
      vertex -5.912731e-001  3.144900e+000 -8.881784e-016
      vertex -3.873275e+000  3.317791e+000 -7.105427e-015
    endloop
  endfacet
  facet normal  1.595615e-015 -1.543260e-015 -1.000000e+000
    outer loop
      vertex -9.202284e-002  3.198677e+000 -8.881784e-016
      vertex -3.873275e+000  3.317791e+000 -7.105427e-015
      vertex -3.445119e+000  3.760473e+000 -7.105427e-015
    endloop
  endfacet
  facet normal  1.536621e-015 -1.895369e-015 -1.000000e+000
    outer loop
      vertex -9.202284e-002  3.198677e+000 -8.881784e-016
      vertex -3.445119e+000  3.760473e+000 -7.105427e-015
      vertex -2.966725e+000  4.148318e+000 -7.105427e-015
    endloop
  endfacet
  facet normal  1.416873e-015 -2.257863e-015 -1.000000e+000
    outer loop
      vertex -9.202284e-002  3.198677e+000 -8.881784e-016
      vertex -2.966725e+000  4.148318e+000 -7.105427e-015
      vertex -2.445070e+000  4.475671e+000 -7.105427e-015
    endloop
  endfacet
  facet normal  1.226650e-015 -2.608377e-015 -1.000000e+000
    outer loop
      vertex -9.202284e-002  3.198677e+000 -8.881784e-016
      vertex -2.445070e+000  4.475671e+000 -7.105427e-015
      vertex -1.887760e+000  4.737759e+000 -7.105427e-015
    endloop
  endfacet
  facet normal  9.624941e-016 -2.916583e-015 -9.999999e-001
    outer loop
      vertex -9.202284e-002  3.198677e+000 -8.881784e-016
      vertex -1.887760e+000  4.737759e+000 -7.105427e-015
      vertex -1.302923e+000  4.930760e+000 -7.105427e-015
    endloop
  endfacet
  facet normal  6.313463e-016 -3.148089e-015 -1.000000e+000
    outer loop
      vertex -9.202284e-002  3.198677e+000 -8.881784e-016
      vertex -1.302923e+000  4.930760e+000 -7.105427e-015
      vertex -6.990855e-001  5.051859e+000 -7.105427e-015
    endloop
  endfacet
  facet normal  2.527596e-016 -3.272106e-015 -1.000000e+000
    outer loop
      vertex -9.202284e-002  3.198677e+000 -8.881784e-016
      vertex -6.990855e-001  5.051859e+000 -7.105427e-015
      vertex -8.505413e-002  5.099291e+000 -7.105427e-015
    endloop
  endfacet
  facet normal -2.527596e-016  3.272106e-015 -1.000000e+000
    outer loop
      vertex  6.990855e-001 -5.051859e+000 -7.105427e-015
      vertex  8.505413e-002 -5.099291e+000 -7.105427e-015
      vertex  9.202284e-002 -3.198677e+000 -8.881784e-016
    endloop
  endfacet
  facet normal  1.629404e-016  3.270581e-015 -9.999999e-001
    outer loop
      vertex  9.202284e-002 -3.198677e+000 -8.881784e-016
      vertex  8.505413e-002 -5.099291e+000 -7.105427e-015
      vertex -4.094934e-001 -3.173691e+000 -8.881784e-016
    endloop
  endfacet
  facet normal  1.429124e-016  3.265438e-015 -1.000000e+000
    outer loop
      vertex  8.505413e-002 -5.099291e+000 -7.105427e-015
      vertex -5.302176e-001 -5.072363e+000 -7.105427e-015
      vertex -4.094934e-001 -3.173691e+000 -8.881784e-016
    endloop
  endfacet
  facet normal  1.598350e-015  3.172896e-015 -1.000000e+000
    outer loop
      vertex -4.094934e-001 -3.173691e+000 -8.881784e-016
      vertex -5.302176e-001 -5.072363e+000 -7.105427e-015
      vertex -3.760473e+000 -3.445119e+000 -7.105427e-015
    endloop
  endfacet
  facet normal  2.259195e-015 -5.039192e-015 -1.000000e+000
    outer loop
      vertex -1.534162e+000  2.808264e+000 -8.881784e-016
      vertex -4.244950e+000  2.826729e+000 -7.105427e-015
      vertex -1.075964e+000  3.013685e+000 -8.881784e-016
    endloop
  endfacet
  facet normal  2.053604e-015 -1.554331e-015 -1.000000e+000
    outer loop
      vertex -1.075964e+000  3.013685e+000 -8.881784e-016
      vertex -4.244950e+000  2.826729e+000 -7.105427e-015
      vertex -3.873275e+000  3.317791e+000 -7.105427e-015
    endloop
  endfacet
  facet normal  1.585773e-015 -5.857660e-015 -1.000000e+000
    outer loop
      vertex -1.075964e+000  3.013685e+000 -8.881784e-016
      vertex -3.873275e+000  3.317791e+000 -7.105427e-015
      vertex -5.912731e-001  3.144900e+000 -8.881784e-016
    endloop
  endfacet
  facet normal  2.661715e-015 -2.940833e-015 -1.000000e+000
    outer loop
      vertex -2.326876e+000  2.196736e+000 -8.881784e-016
      vertex -4.554724e+000  2.294447e+000 -7.105427e-015
      vertex -1.954583e+000  2.533694e+000 -8.881784e-016
    endloop
  endfacet
  facet normal  2.526407e-015 -1.470301e-015 -1.000000e+000
    outer loop
      vertex -1.954583e+000  2.533694e+000 -8.881784e-016
      vertex -4.554724e+000  2.294447e+000 -7.105427e-015
      vertex -4.244950e+000  2.826729e+000 -7.105427e-015
    endloop
  endfacet
  facet normal  2.269846e-015 -3.475583e-015 -9.999999e-001
    outer loop
      vertex -1.954583e+000  2.533694e+000 -8.881784e-016
      vertex -4.244950e+000  2.826729e+000 -7.105427e-015
      vertex -1.534162e+000  2.808264e+000 -8.881784e-016
    endloop
  endfacet
  facet normal  3.231406e-015 -6.781435e-016 -1.000000e+000
    outer loop
      vertex -3.173691e+000  4.094934e-001 -8.881784e-016
      vertex -5.072363e+000  5.302176e-001 -7.105427e-015
      vertex -3.070559e+000  9.009265e-001 -8.881784e-016
    endloop
  endfacet
  facet normal  3.204369e-015 -5.321486e-016 -1.000000e+000
    outer loop
      vertex -3.070559e+000  9.009265e-001 -8.881784e-016
      vertex -5.072363e+000  5.302176e-001 -7.105427e-015
      vertex -4.971469e+000  1.137758e+000 -7.105427e-015
    endloop
  endfacet
  facet normal  3.122487e-015 -1.189372e-015 -1.000000e+000
    outer loop
      vertex -3.070559e+000  9.009265e-001 -8.881784e-016
      vertex -4.971469e+000  1.137758e+000 -7.105427e-015
      vertex -2.891819e+000  1.370176e+000 -8.881784e-016
    endloop
  endfacet
  facet normal  3.090918e-015 -9.068994e-016 -1.000000e+000
    outer loop
      vertex -2.891819e+000  1.370176e+000 -8.881784e-016
      vertex -4.971469e+000  1.137758e+000 -7.105427e-015
      vertex -4.798080e+000  1.728706e+000 -7.105427e-015
    endloop
  endfacet
  facet normal  2.943736e-015 -1.689451e-015 -1.000000e+000
    outer loop
      vertex -2.891819e+000  1.370176e+000 -8.881784e-016
      vertex -4.798080e+000  1.728706e+000 -7.105427e-015
      vertex -2.641873e+000  1.805687e+000 -8.881784e-016
    endloop
  endfacet
  facet normal  2.928392e-015 -1.259663e-015 -1.000000e+000
    outer loop
      vertex -2.641873e+000  1.805687e+000 -8.881784e-016
      vertex -4.798080e+000  1.728706e+000 -7.105427e-015
      vertex -4.554724e+000  2.294447e+000 -7.105427e-015
    endloop
  endfacet
  facet normal  2.695468e-015 -2.171251e-015 -1.000000e+000
    outer loop
      vertex -2.641873e+000  1.805687e+000 -8.881784e-016
      vertex -4.554724e+000  2.294447e+000 -7.105427e-015
      vertex -2.326876e+000  2.196736e+000 -8.881784e-016
    endloop
  endfacet
  facet normal  2.877791e-015  1.879438e-015 -1.000000e+000
    outer loop
      vertex -2.533694e+000 -1.954583e+000 -8.881784e-016
      vertex -4.737759e+000 -1.887760e+000 -7.105427e-015
      vertex -2.808264e+000 -1.534162e+000 -8.881784e-016
    endloop
  endfacet
  facet normal  3.038458e-015  1.002714e-015 -1.000000e+000
    outer loop
      vertex -2.808264e+000 -1.534162e+000 -8.881784e-016
      vertex -4.737759e+000 -1.887760e+000 -7.105427e-015
      vertex -4.930760e+000 -1.302923e+000 -7.105427e-015
    endloop
  endfacet
  facet normal  3.079636e-015  1.380677e-015 -9.999999e-001
    outer loop
      vertex -2.808264e+000 -1.534162e+000 -8.881784e-016
      vertex -4.930760e+000 -1.302923e+000 -7.105427e-015
      vertex -3.013685e+000 -1.075964e+000 -8.881784e-016
    endloop
  endfacet
  facet normal  3.167878e-015  6.353151e-016 -1.000000e+000
    outer loop
      vertex -3.013685e+000 -1.075964e+000 -8.881784e-016
      vertex -4.930760e+000 -1.302923e+000 -7.105427e-015
      vertex -5.051859e+000 -6.990855e-001 -7.105427e-015
    endloop
  endfacet
  facet normal  3.211147e-015  8.693153e-016 -1.000000e+000
    outer loop
      vertex -3.013685e+000 -1.075964e+000 -8.881784e-016
      vertex -5.051859e+000 -6.990855e-001 -7.105427e-015
      vertex -3.144900e+000 -5.912731e-001 -8.881784e-016
    endloop
  endfacet
  facet normal  3.246119e-015  2.507522e-016 -1.000000e+000
    outer loop
      vertex -3.144900e+000 -5.912731e-001 -8.881784e-016
      vertex -5.051859e+000 -6.990855e-001 -7.105427e-015
      vertex -5.099291e+000 -8.505413e-002 -7.105427e-015
    endloop
  endfacet
  facet normal  3.272471e-015  3.524926e-016 -1.000000e+000
    outer loop
      vertex -3.144900e+000 -5.912731e-001 -8.881784e-016
      vertex -5.099291e+000 -8.505413e-002 -7.105427e-015
      vertex -3.198677e+000 -9.202284e-002 -8.881784e-016
    endloop
  endfacet
  facet normal  3.270654e-015 -1.431407e-016 -1.000000e+000
    outer loop
      vertex -3.198677e+000 -9.202284e-002 -8.881784e-016
      vertex -5.099291e+000 -8.505413e-002 -7.105427e-015
      vertex -5.072363e+000  5.302176e-001 -7.105427e-015
    endloop
  endfacet
  facet normal  3.264184e-015 -1.626217e-016 -1.000000e+000
    outer loop
      vertex -3.198677e+000 -9.202284e-002 -8.881784e-016
      vertex -5.072363e+000  5.302176e-001 -7.105427e-015
      vertex -3.173691e+000  4.094934e-001 -8.881784e-016
    endloop
  endfacet
  facet normal  2.137496e-015  3.724419e-015 -1.000000e+000
    outer loop
      vertex -1.370176e+000 -2.891819e+000 -8.881784e-016
      vertex -4.148318e+000 -2.966725e+000 -7.105427e-015
      vertex -1.805687e+000 -2.641873e+000 -8.881784e-016
    endloop
  endfacet
  facet normal  2.441502e-015  1.532113e-015 -1.000000e+000
    outer loop
      vertex -1.805687e+000 -2.641873e+000 -8.881784e-016
      vertex -4.148318e+000 -2.966725e+000 -7.105427e-015
      vertex -4.475671e+000 -2.445070e+000 -7.105427e-015
    endloop
  endfacet
  facet normal  2.563110e-015  3.181935e-015 -1.000000e+000
    outer loop
      vertex -1.805687e+000 -2.641873e+000 -8.881784e-016
      vertex -4.475671e+000 -2.445070e+000 -7.105427e-015
      vertex -2.196736e+000 -2.326876e+000 -8.881784e-016
    endloop
  endfacet
  facet normal  2.663182e-015  1.252423e-015 -1.000000e+000
    outer loop
      vertex -2.196736e+000 -2.326876e+000 -8.881784e-016
      vertex -4.475671e+000 -2.445070e+000 -7.105427e-015
      vertex -4.737759e+000 -1.887760e+000 -7.105427e-015
    endloop
  endfacet
  facet normal  2.900398e-015  2.625117e-015 -9.999999e-001
    outer loop
      vertex -2.196736e+000 -2.326876e+000 -8.881784e-016
      vertex -4.737759e+000 -1.887760e+000 -7.105427e-015
      vertex -2.533694e+000 -1.954583e+000 -8.881784e-016
    endloop
  endfacet
  facet normal  1.338668e-015  6.378854e-015 -1.000000e+000
    outer loop
      vertex -4.094934e-001 -3.173691e+000 -8.881784e-016
      vertex -3.760473e+000 -3.445119e+000 -7.105427e-015
      vertex -9.009265e-001 -3.070559e+000 -8.881784e-016
    endloop
  endfacet
  facet normal  1.965487e-015  1.593466e-015 -1.000000e+000
    outer loop
      vertex -9.009265e-001 -3.070559e+000 -8.881784e-016
      vertex -3.760473e+000 -3.445119e+000 -7.105427e-015
      vertex -4.148318e+000 -2.966725e+000 -7.105427e-015
    endloop
  endfacet
  facet normal  2.089976e-015  5.486864e-015 -1.000000e+000
    outer loop
      vertex -9.009265e-001 -3.070559e+000 -8.881784e-016
      vertex -4.148318e+000 -2.966725e+000 -7.105427e-015
      vertex -1.370176e+000 -2.891819e+000 -8.881784e-016
    endloop
  endfacet
  facet normal -2.089976e-015 -5.486864e-015 -1.000000e+000
    outer loop
      vertex  9.009265e-001  3.070559e+000 -8.881784e-016
      vertex  4.148318e+000  2.966725e+000 -7.105427e-015
      vertex  1.370176e+000  2.891819e+000 -8.881784e-016
    endloop
  endfacet
  facet normal -2.200681e-015 -1.380990e-015 -1.000000e+000
    outer loop
      vertex  1.370176e+000  2.891819e+000 -8.881784e-016
      vertex  4.148318e+000  2.966725e+000 -7.105427e-015
      vertex  4.475671e+000  2.445070e+000 -7.105427e-015
    endloop
  endfacet
  facet normal -2.671706e-015 -4.655239e-015 -1.000000e+000
    outer loop
      vertex  1.370176e+000  2.891819e+000 -8.881784e-016
      vertex  4.475671e+000  2.445070e+000 -7.105427e-015
      vertex  1.805687e+000  2.641873e+000 -8.881784e-016
    endloop
  endfacet
  facet normal -3.079636e-015 -1.380677e-015 -9.999999e-001
    outer loop
      vertex  3.013685e+000  1.075964e+000 -8.881784e-016
      vertex  2.808264e+000  1.534162e+000 -8.881784e-016
      vertex  4.930760e+000  1.302923e+000 -7.105427e-015
    endloop
  endfacet
  facet normal -3.153599e-015 -2.059564e-015 -1.000000e+000
    outer loop
      vertex  4.930760e+000  1.302923e+000 -7.105427e-015
      vertex  2.808264e+000  1.534162e+000 -8.881784e-016
      vertex  2.533694e+000  1.954583e+000 -8.881784e-016
    endloop
  endfacet
  facet normal -2.849318e-015 -9.402961e-016 -1.000000e+000
    outer loop
      vertex  4.930760e+000  1.302923e+000 -7.105427e-015
      vertex  2.533694e+000  1.954583e+000 -8.881784e-016
      vertex  4.737759e+000  1.887760e+000 -7.105427e-015
    endloop
  endfacet
  facet normal -2.900398e-015 -2.625117e-015 -9.999999e-001
    outer loop
      vertex  4.737759e+000  1.887760e+000 -7.105427e-015
      vertex  2.533694e+000  1.954583e+000 -8.881784e-016
      vertex  2.196736e+000  2.326876e+000 -8.881784e-016
    endloop
  endfacet
  facet normal -2.663182e-015 -1.252423e-015 -1.000000e+000
    outer loop
      vertex  4.737759e+000  1.887760e+000 -7.105427e-015
      vertex  2.196736e+000  2.326876e+000 -8.881784e-016
      vertex  4.475671e+000  2.445070e+000 -7.105427e-015
    endloop
  endfacet
  facet normal -3.122487e-015  1.189372e-015 -1.000000e+000
    outer loop
      vertex  2.891819e+000 -1.370176e+000 -8.881784e-016
      vertex  3.070559e+000 -9.009265e-001 -8.881784e-016
      vertex  4.971469e+000 -1.137758e+000 -7.105427e-015
    endloop
  endfacet
  facet normal -3.187332e-015  6.688942e-016 -1.000000e+000
    outer loop
      vertex  4.971469e+000 -1.137758e+000 -7.105427e-015
      vertex  3.070559e+000 -9.009265e-001 -8.881784e-016
      vertex  3.173691e+000 -4.094934e-001 -8.881784e-016
    endloop
  endfacet
  facet normal -3.240309e-015  5.381172e-016 -1.000000e+000
    outer loop
      vertex  4.971469e+000 -1.137758e+000 -7.105427e-015
      vertex  3.173691e+000 -4.094934e-001 -8.881784e-016
      vertex  5.072363e+000 -5.302176e-001 -7.105427e-015
    endloop
  endfacet
  facet normal -3.264184e-015  1.626217e-016 -1.000000e+000
    outer loop
      vertex  5.072363e+000 -5.302176e-001 -7.105427e-015
      vertex  3.173691e+000 -4.094934e-001 -8.881784e-016
      vertex  3.198677e+000  9.202284e-002 -8.881784e-016
    endloop
  endfacet
  facet normal -3.270654e-015  1.431407e-016 -1.000000e+000
    outer loop
      vertex  5.072363e+000 -5.302176e-001 -7.105427e-015
      vertex  3.198677e+000  9.202284e-002 -8.881784e-016
      vertex  5.099291e+000  8.505413e-002 -7.105427e-015
    endloop
  endfacet
  facet normal -3.272471e-015 -3.524926e-016 -1.000000e+000
    outer loop
      vertex  5.099291e+000  8.505413e-002 -7.105427e-015
      vertex  3.198677e+000  9.202284e-002 -8.881784e-016
      vertex  3.144900e+000  5.912731e-001 -8.881784e-016
    endloop
  endfacet
  facet normal -3.246119e-015 -2.507522e-016 -1.000000e+000
    outer loop
      vertex  5.099291e+000  8.505413e-002 -7.105427e-015
      vertex  3.144900e+000  5.912731e-001 -8.881784e-016
      vertex  5.051859e+000  6.990855e-001 -7.105427e-015
    endloop
  endfacet
  facet normal -3.211147e-015 -8.693153e-016 -1.000000e+000
    outer loop
      vertex  5.051859e+000  6.990855e-001 -7.105427e-015
      vertex  3.144900e+000  5.912731e-001 -8.881784e-016
      vertex  3.013685e+000  1.075964e+000 -8.881784e-016
    endloop
  endfacet
  facet normal -3.167878e-015 -6.353151e-016 -1.000000e+000
    outer loop
      vertex  5.051859e+000  6.990855e-001 -7.105427e-015
      vertex  3.013685e+000  1.075964e+000 -8.881784e-016
      vertex  4.930760e+000  1.302923e+000 -7.105427e-015
    endloop
  endfacet
  facet normal -2.269846e-015  3.475583e-015 -1.000000e+000
    outer loop
      vertex  1.534162e+000 -2.808264e+000 -8.881784e-016
      vertex  1.954583e+000 -2.533694e+000 -8.881784e-016
      vertex  4.244950e+000 -2.826729e+000 -7.105427e-015
    endloop
  endfacet
  facet normal -2.378323e-015  2.627724e-015 -9.999999e-001
    outer loop
      vertex  4.244950e+000 -2.826729e+000 -7.105427e-015
      vertex  1.954583e+000 -2.533694e+000 -8.881784e-016
      vertex  2.326876e+000 -2.196736e+000 -8.881784e-016
    endloop
  endfacet
  facet normal -2.721238e-015  1.583687e-015 -9.999999e-001
    outer loop
      vertex  4.244950e+000 -2.826729e+000 -7.105427e-015
      vertex  2.326876e+000 -2.196736e+000 -8.881784e-016
      vertex  4.554724e+000 -2.294447e+000 -7.105427e-015
    endloop
  endfacet
  facet normal -2.695468e-015  2.171251e-015 -1.000000e+000
    outer loop
      vertex  4.554724e+000 -2.294447e+000 -7.105427e-015
      vertex  2.326876e+000 -2.196736e+000 -8.881784e-016
      vertex  2.641873e+000 -1.805687e+000 -8.881784e-016
    endloop
  endfacet
  facet normal -2.928392e-015  1.259663e-015 -1.000000e+000
    outer loop
      vertex  4.554724e+000 -2.294447e+000 -7.105427e-015
      vertex  2.641873e+000 -1.805687e+000 -8.881784e-016
      vertex  4.798080e+000 -1.728706e+000 -7.105427e-015
    endloop
  endfacet
  facet normal -2.943736e-015  1.689451e-015 -1.000000e+000
    outer loop
      vertex  4.798080e+000 -1.728706e+000 -7.105427e-015
      vertex  2.641873e+000 -1.805687e+000 -8.881784e-016
      vertex  2.891819e+000 -1.370176e+000 -8.881784e-016
    endloop
  endfacet
  facet normal -3.090918e-015  9.068994e-016 -1.000000e+000
    outer loop
      vertex  4.798080e+000 -1.728706e+000 -7.105427e-015
      vertex  2.891819e+000 -1.370176e+000 -8.881784e-016
      vertex  4.971469e+000 -1.137758e+000 -7.105427e-015
    endloop
  endfacet
  facet normal -1.585773e-015  5.857658e-015 -1.000000e+000
    outer loop
      vertex  5.912731e-001 -3.144900e+000 -8.881784e-016
      vertex  1.075964e+000 -3.013685e+000 -8.881784e-016
      vertex  3.873275e+000 -3.317791e+000 -7.105427e-015
    endloop
  endfacet
  facet normal -1.788814e-015  3.989994e-015 -9.999999e-001
    outer loop
      vertex  3.873275e+000 -3.317791e+000 -7.105427e-015
      vertex  1.075964e+000 -3.013685e+000 -8.881784e-016
      vertex  1.534162e+000 -2.808264e+000 -8.881784e-016
    endloop
  endfacet
  facet normal -2.281757e-015  1.727015e-015 -1.000000e+000
    outer loop
      vertex  3.873275e+000 -3.317791e+000 -7.105427e-015
      vertex  1.534162e+000 -2.808264e+000 -8.881784e-016
      vertex  4.244950e+000 -2.826729e+000 -7.105427e-015
    endloop
  endfacet
  facet normal -8.905448e-001 -4.102613e-001  1.965085e-001
    outer loop
      vertex -3.510330e+000 -1.917702e+000  5.500000e+000
      vertex -3.738762e+000 -1.421851e+000  5.500000e+000
      vertex -4.737759e+000 -1.887760e+000 -7.105427e-015
    endloop
  endfacet
  facet normal -8.874177e-001 -4.173287e-001  1.957721e-001
    outer loop
      vertex -3.510330e+000 -1.917702e+000  5.500000e+000
      vertex -4.737759e+000 -1.887760e+000 -7.105427e-015
      vertex -4.475671e+000 -2.445070e+000 -7.105427e-015
    endloop
  endfacet
  facet normal  8.306437e-001  5.212527e-001  1.957721e-001
    outer loop
      vertex  3.510330e+000  1.917702e+000  5.500000e+000
      vertex  4.475671e+000  2.445070e+000 -7.105427e-015
      vertex  4.148318e+000  2.966725e+000 -7.105427e-015
    endloop
  endfacet
  facet normal  8.263863e-001  5.277026e-001  1.965085e-001
    outer loop
      vertex  3.510330e+000  1.917702e+000  5.500000e+000
      vertex  4.148318e+000  2.966725e+000 -7.105427e-015
      vertex  3.216508e+000  2.377831e+000  5.500000e+000
    endloop
  endfacet
  facet normal -9.313582e-001 -3.073551e-001  1.952044e-001
    outer loop
      vertex -3.738762e+000 -1.421851e+000  5.500000e+000
      vertex -4.930760e+000 -1.302923e+000 -7.105427e-015
      vertex -4.737759e+000 -1.887760e+000 -7.105427e-015
    endloop
  endfacet
  facet normal -9.616926e-001 -1.928666e-001  1.948067e-001
    outer loop
      vertex -3.897547e+000 -8.995128e-001  5.500000e+000
      vertex -5.051859e+000 -6.990855e-001 -7.105427e-015
      vertex -4.930760e+000 -1.302923e+000 -7.105427e-015
    endloop
  endfacet
  facet normal -9.379961e-001 -2.851416e-001  1.971233e-001
    outer loop
      vertex -3.897547e+000 -8.995128e-001  5.500000e+000
      vertex -4.930760e+000 -1.302923e+000 -7.105427e-015
      vertex -3.738762e+000 -1.421851e+000  5.500000e+000
    endloop
  endfacet
  facet normal -9.779733e-001 -7.554527e-002  1.945795e-001
    outer loop
      vertex -3.983729e+000 -3.604187e-001  5.500000e+000
      vertex -5.099291e+000 -8.505413e-002 -7.105427e-015
      vertex -5.051859e+000 -6.990855e-001 -7.105427e-015
    endloop
  endfacet
  facet normal -9.680073e-001 -1.547493e-001  1.975211e-001
    outer loop
      vertex -3.983729e+000 -3.604187e-001  5.500000e+000
      vertex -5.051859e+000 -6.990855e-001 -7.105427e-015
      vertex -3.897547e+000 -8.995128e-001  5.500000e+000
    endloop
  endfacet
  facet normal -9.799599e-001  4.288811e-002  1.945226e-001
    outer loop
      vertex -3.995702e+000  1.853893e-001  5.500000e+000
      vertex -5.072363e+000  5.302176e-001 -7.105427e-015
      vertex -5.099291e+000 -8.505413e-002 -7.105427e-015
    endloop
  endfacet
  facet normal -9.800264e-001 -2.149711e-002  1.977019e-001
    outer loop
      vertex -3.995702e+000  1.853893e-001  5.500000e+000
      vertex -5.099291e+000 -8.505413e-002 -7.105427e-015
      vertex -3.983729e+000 -3.604187e-001  5.500000e+000
    endloop
  endfacet
  facet normal -9.676231e-001  1.606929e-001  1.946363e-001
    outer loop
      vertex -3.933242e+000  7.277439e-001  5.500000e+000
      vertex -4.971469e+000  1.137758e+000 -7.105427e-015
      vertex -5.072363e+000  5.302176e-001 -7.105427e-015
    endloop
  endfacet
  facet normal -9.738328e-001  1.121509e-001  1.976657e-001
    outer loop
      vertex -3.933242e+000  7.277439e-001  5.500000e+000
      vertex -5.072363e+000  5.302176e-001 -7.105427e-015
      vertex -3.995702e+000  1.853893e-001  5.500000e+000
    endloop
  endfacet
  facet normal -9.411445e-001  2.761391e-001  1.949204e-001
    outer loop
      vertex -3.797513e+000  1.256542e+000  5.500000e+000
      vertex -4.798080e+000  1.728706e+000 -7.105427e-015
      vertex -4.971469e+000  1.137758e+000 -7.105427e-015
    endloop
  endfacet
  facet normal -9.495406e-001  2.437230e-001  1.974126e-001
    outer loop
      vertex -3.797513e+000  1.256542e+000  5.500000e+000
      vertex -4.971469e+000  1.137758e+000 -7.105427e-015
      vertex -3.933242e+000  7.277439e-001  5.500000e+000
    endloop
  endfacet
  facet normal -9.009145e-001  3.875330e-001  1.953747e-001
    outer loop
      vertex -3.591043e+000  1.761933e+000  5.500000e+000
      vertex -4.554724e+000  2.294447e+000 -7.105427e-015
      vertex -4.798080e+000  1.728706e+000 -7.105427e-015
    endloop
  endfacet
  facet normal -9.075972e-001  3.707840e-001  1.969425e-001
    outer loop
      vertex -3.591043e+000  1.761933e+000  5.500000e+000
      vertex -4.798080e+000  1.728706e+000 -7.105427e-015
      vertex -3.797513e+000  1.256542e+000  5.500000e+000
    endloop
  endfacet
  facet normal -7.819629e-001  5.918519e-001  1.955639e-001
    outer loop
      vertex -3.317680e+000  2.234503e+000  5.500000e+000
      vertex -3.873275e+000  3.317791e+000 -7.105427e-015
      vertex -4.244950e+000  2.826729e+000 -7.105427e-015
    endloop
  endfacet
  facet normal -8.488227e-001  4.910119e-001  1.959779e-001
    outer loop
      vertex -3.317680e+000  2.234503e+000  5.500000e+000
      vertex -4.244950e+000  2.826729e+000 -7.105427e-015
      vertex -3.591043e+000  1.761933e+000  5.500000e+000
    endloop
  endfacet
  facet normal -8.474839e-001  4.932129e-001  1.962449e-001
    outer loop
      vertex -3.591043e+000  1.761933e+000  5.500000e+000
      vertex -4.244950e+000  2.826729e+000 -7.105427e-015
      vertex -4.554724e+000  2.294447e+000 -7.105427e-015
    endloop
  endfacet
  facet normal -7.049948e-001  6.818627e-001  1.950529e-001
    outer loop
      vertex -2.982514e+000  2.665448e+000  5.500000e+000
      vertex -3.445119e+000  3.760473e+000 -7.105427e-015
      vertex -3.873275e+000  3.317791e+000 -7.105427e-015
    endloop
  endfacet
  facet normal -7.739372e-001  6.019264e-001  1.967375e-001
    outer loop
      vertex -2.982514e+000  2.665448e+000  5.500000e+000
      vertex -3.873275e+000  3.317791e+000 -7.105427e-015
      vertex -3.317680e+000  2.234503e+000  5.500000e+000
    endloop
  endfacet
  facet normal -6.177079e-001  7.619214e-001  1.947120e-001
    outer loop
      vertex -2.591789e+000  3.046741e+000  5.500000e+000
      vertex -2.966725e+000  4.148318e+000 -7.105427e-015
      vertex -3.445119e+000  3.760473e+000 -7.105427e-015
    endloop
  endfacet
  facet normal -6.846902e-001  7.016267e-001  1.972800e-001
    outer loop
      vertex -2.591789e+000  3.046741e+000  5.500000e+000
      vertex -3.445119e+000  3.760473e+000 -7.105427e-015
      vertex -2.982514e+000  2.665448e+000  5.500000e+000
    endloop
  endfacet
  facet normal -5.213828e-001  8.308511e-001  1.945416e-001
    outer loop
      vertex -2.152785e+000  3.371278e+000  5.500000e+000
      vertex -2.445070e+000  4.475671e+000 -7.105427e-015
      vertex -2.966725e+000  4.148318e+000 -7.105427e-015
    endloop
  endfacet
  facet normal -5.827360e-001  7.882709e-001  1.976054e-001
    outer loop
      vertex -2.152785e+000  3.371278e+000  5.500000e+000
      vertex -2.966725e+000  4.148318e+000 -7.105427e-015
      vertex -2.591789e+000  3.046741e+000  5.500000e+000
    endloop
  endfacet
  facet normal -4.174328e-001  8.876392e-001  1.945416e-001
    outer loop
      vertex -1.673678e+000  3.633015e+000  5.500000e+000
      vertex -1.887760e+000  4.737759e+000 -7.105427e-015
      vertex -2.445070e+000  4.475671e+000 -7.105427e-015
    endloop
  endfacet
  facet normal -4.699613e-001  8.602590e-001  1.977140e-001
    outer loop
      vertex -1.673678e+000  3.633015e+000  5.500000e+000
      vertex -2.445070e+000  4.475671e+000 -7.105427e-015
      vertex -2.152785e+000  3.371278e+000  5.500000e+000
    endloop
  endfacet
  facet normal -3.073858e-001  9.314511e-001  1.947121e-001
    outer loop
      vertex -1.163394e+000  3.827076e+000  5.500000e+000
      vertex -1.302923e+000  4.930760e+000 -7.105427e-015
      vertex -1.887760e+000  4.737759e+000 -7.105427e-015
    endloop
  endfacet
  facet normal -3.484535e-001  9.162599e-001  1.976055e-001
    outer loop
      vertex -1.163394e+000  3.827076e+000  5.500000e+000
      vertex -1.887760e+000  4.737759e+000 -7.105427e-015
      vertex -1.673678e+000  3.633015e+000  5.500000e+000
    endloop
  endfacet
  facet normal -1.928570e-001  9.616448e-001  1.950529e-001
    outer loop
      vertex -6.314378e-001  3.949846e+000  5.500000e+000
      vertex -6.990855e-001  5.051859e+000 -7.105427e-015
      vertex -1.302923e+000  4.930760e+000 -7.105427e-015
    endloop
  endfacet
  facet normal -2.204587e-001  9.552374e-001  1.972800e-001
    outer loop
      vertex -6.314378e-001  3.949846e+000  5.500000e+000
      vertex -1.302923e+000  4.930760e+000 -7.105427e-015
      vertex -1.163394e+000  3.827076e+000  5.500000e+000
    endloop
  endfacet
  facet normal -7.553020e-002  9.777781e-001  1.955640e-001
    outer loop
      vertex -8.771918e-002  3.999038e+000  5.500000e+000
      vertex -8.505413e-002  5.099291e+000 -7.105427e-015
      vertex -6.990855e-001  5.051859e+000 -7.105427e-015
    endloop
  endfacet
  facet normal -8.834373e-002  9.764680e-001  1.967375e-001
    outer loop
      vertex -8.771918e-002  3.999038e+000  5.500000e+000
      vertex -6.990855e-001  5.051859e+000 -7.105427e-015
      vertex -6.314378e-001  3.949846e+000  5.500000e+000
    endloop
  endfacet
  facet normal  1.606688e-001  9.674783e-001  1.953747e-001
    outer loop
      vertex  4.576335e-001  3.973735e+000  5.500000e+000
      vertex  1.137758e+000  4.971469e+000 -7.105427e-015
      vertex  5.302176e-001  5.072363e+000 -7.105427e-015
    endloop
  endfacet
  facet normal  4.544568e-002  9.794990e-001  1.962552e-001
    outer loop
      vertex  4.576335e-001  3.973735e+000  5.500000e+000
      vertex  5.302176e-001  5.072363e+000 -7.105427e-015
      vertex -8.771918e-002  3.999038e+000  5.500000e+000
    endloop
  endfacet
  facet normal  4.287526e-002  9.796664e-001  1.959991e-001
    outer loop
      vertex -8.771918e-002  3.999038e+000  5.500000e+000
      vertex  5.302176e-001  5.072363e+000 -7.105427e-015
      vertex -8.505413e-002  5.099291e+000 -7.105427e-015
    endloop
  endfacet
  facet normal  2.761391e-001  9.411446e-001  1.949204e-001
    outer loop
      vertex  9.944612e-001  3.874409e+000  5.500000e+000
      vertex  1.728706e+000  4.798080e+000 -7.105427e-015
      vertex  1.137758e+000  4.971469e+000 -7.105427e-015
    endloop
  endfacet
  facet normal  1.783730e-001  9.640522e-001  1.969425e-001
    outer loop
      vertex  9.944612e-001  3.874409e+000  5.500000e+000
      vertex  1.137758e+000  4.971469e+000 -7.105427e-015
      vertex  4.576335e-001  3.973735e+000  5.500000e+000
    endloop
  endfacet
  facet normal  3.875910e-001  9.010493e-001  1.946363e-001
    outer loop
      vertex  1.512764e+000  3.702910e+000  5.500000e+000
      vertex  2.294447e+000  4.554724e+000 -7.105427e-015
      vertex  1.728706e+000  4.798080e+000 -7.105427e-015
    endloop
  endfacet
  facet normal  3.079532e-001  9.306950e-001  1.974126e-001
    outer loop
      vertex  1.512764e+000  3.702910e+000  5.500000e+000
      vertex  1.728706e+000  4.798080e+000 -7.105427e-015
      vertex  9.944612e-001  3.874409e+000  5.500000e+000
    endloop
  endfacet
  facet normal  4.933855e-001  8.477805e-001  1.945226e-001
    outer loop
      vertex  2.002887e+000  3.462433e+000  5.500000e+000
      vertex  2.826729e+000  4.244950e+000 -7.105427e-015
      vertex  2.294447e+000  4.554724e+000 -7.105427e-015
    endloop
  endfacet
  facet normal  4.317926e-001  8.800474e-001  1.976657e-001
    outer loop
      vertex  2.002887e+000  3.462433e+000  5.500000e+000
      vertex  2.294447e+000  4.554724e+000 -7.105427e-015
      vertex  1.512764e+000  3.702910e+000  5.500000e+000
    endloop
  endfacet
  facet normal  5.919701e-001  7.821191e-001  1.945795e-001
    outer loop
      vertex  2.455700e+000  3.157458e+000  5.500000e+000
      vertex  3.317791e+000  3.873275e+000 -7.105427e-015
      vertex  2.826729e+000  4.244950e+000 -7.105427e-015
    endloop
  endfacet
  facet normal  5.475994e-001  8.130491e-001  1.977019e-001
    outer loop
      vertex  2.455700e+000  3.157458e+000  5.500000e+000
      vertex  2.826729e+000  4.244950e+000 -7.105427e-015
      vertex  2.002887e+000  3.462433e+000  5.500000e+000
    endloop
  endfacet
  facet normal  6.818967e-001  7.050300e-001  1.948067e-001
    outer loop
      vertex  2.862768e+000  2.793664e+000  5.500000e+000
      vertex  3.760473e+000  3.445119e+000 -7.105427e-015
      vertex  3.317791e+000  3.873275e+000 -7.105427e-015
    endloop
  endfacet
  facet normal  6.532338e-001  7.309384e-001  1.975211e-001
    outer loop
      vertex  2.862768e+000  2.793664e+000  5.500000e+000
      vertex  3.317791e+000  3.873275e+000 -7.105427e-015
      vertex  2.455700e+000  3.157458e+000  5.500000e+000
    endloop
  endfacet
  facet normal  7.618454e-001  6.176462e-001  1.952043e-001
    outer loop
      vertex  3.216508e+000  2.377831e+000  5.500000e+000
      vertex  4.148318e+000  2.966725e+000 -7.105427e-015
      vertex  3.760473e+000  3.445119e+000 -7.105427e-015
    endloop
  endfacet
  facet normal  7.467400e-001  6.352337e-001  1.971233e-001
    outer loop
      vertex  3.216508e+000  2.377831e+000  5.500000e+000
      vertex  3.760473e+000  3.445119e+000 -7.105427e-015
      vertex  2.862768e+000  2.793664e+000  5.500000e+000
    endloop
  endfacet
  facet normal  5.468020e-001 -8.372619e-001  0.000000e+000
    outer loop
      vertex -1.534162e+000  2.808264e+000 -8.881784e-016
      vertex -1.954583e+000  2.533694e+000  5.500000e+000
      vertex -1.954583e+000  2.533694e+000 -8.881784e-016
    endloop
  endfacet
  facet normal  6.710465e-001 -7.414152e-001  0.000000e+000
    outer loop
      vertex -1.954583e+000  2.533694e+000 -8.881784e-016
      vertex -1.954583e+000  2.533694e+000  5.500000e+000
      vertex -2.326876e+000  2.196736e+000  5.500000e+000
    endloop
  endfacet
  facet normal  6.710465e-001 -7.414152e-001  0.000000e+000
    outer loop
      vertex -1.954583e+000  2.533694e+000 -8.881784e-016
      vertex -2.326876e+000  2.196736e+000  5.500000e+000
      vertex -2.326876e+000  2.196736e+000 -8.881784e-016
    endloop
  endfacet
  facet normal  7.787678e-001 -6.273122e-001  0.000000e+000
    outer loop
      vertex -2.326876e+000  2.196736e+000 -8.881784e-016
      vertex -2.326876e+000  2.196736e+000  5.500000e+000
      vertex -2.641873e+000  1.805687e+000  5.500000e+000
    endloop
  endfacet
  facet normal  7.787678e-001 -6.273122e-001  0.000000e+000
    outer loop
      vertex -2.326876e+000  2.196736e+000 -8.881784e-016
      vertex -2.641873e+000  1.805687e+000  5.500000e+000
      vertex -2.641873e+000  1.805687e+000 -8.881784e-016
    endloop
  endfacet
  facet normal  8.673130e-001 -4.977631e-001  0.000000e+000
    outer loop
      vertex -2.641873e+000  1.805687e+000 -8.881784e-016
      vertex -2.641873e+000  1.805687e+000  5.500000e+000
      vertex -2.891819e+000  1.370176e+000  5.500000e+000
    endloop
  endfacet
  facet normal  8.673130e-001 -4.977631e-001  0.000000e+000
    outer loop
      vertex -2.641873e+000  1.805687e+000 -8.881784e-016
      vertex -2.891819e+000  1.370176e+000  5.500000e+000
      vertex -2.891819e+000  1.370176e+000 -8.881784e-016
    endloop
  endfacet
  facet normal  9.345024e-001 -3.559569e-001  0.000000e+000
    outer loop
      vertex -2.891819e+000  1.370176e+000 -8.881784e-016
      vertex -2.891819e+000  1.370176e+000  5.500000e+000
      vertex -3.070559e+000  9.009265e-001  5.500000e+000
    endloop
  endfacet
  facet normal  9.345024e-001 -3.559569e-001  0.000000e+000
    outer loop
      vertex -2.891819e+000  1.370176e+000 -8.881784e-016
      vertex -3.070559e+000  9.009265e-001  5.500000e+000
      vertex -3.070559e+000  9.009265e-001 -8.881784e-016
    endloop
  endfacet
  facet normal  9.786810e-001 -2.053862e-001  0.000000e+000
    outer loop
      vertex -3.070559e+000  9.009265e-001 -8.881784e-016
      vertex -3.070559e+000  9.009265e-001  5.500000e+000
      vertex -3.173691e+000  4.094934e-001  5.500000e+000
    endloop
  endfacet
  facet normal  9.786810e-001 -2.053862e-001  0.000000e+000
    outer loop
      vertex -3.070559e+000  9.009265e-001 -8.881784e-016
      vertex -3.173691e+000  4.094934e-001  5.500000e+000
      vertex -3.173691e+000  4.094934e-001 -8.881784e-016
    endloop
  endfacet
  facet normal  9.987612e-001 -4.975832e-002  0.000000e+000
    outer loop
      vertex -3.173691e+000  4.094934e-001 -8.881784e-016
      vertex -3.173691e+000  4.094934e-001  5.500000e+000
      vertex -3.198677e+000 -9.202284e-002  5.500000e+000
    endloop
  endfacet
  facet normal  9.987612e-001 -4.975832e-002  0.000000e+000
    outer loop
      vertex -3.173691e+000  4.094934e-001 -8.881784e-016
      vertex -3.198677e+000 -9.202284e-002  5.500000e+000
      vertex -3.198677e+000 -9.202284e-002 -8.881784e-016
    endloop
  endfacet
  facet normal  9.942487e-001  1.070950e-001  -0.000000e+000
    outer loop
      vertex -3.198677e+000 -9.202284e-002 -8.881784e-016
      vertex -3.198677e+000 -9.202284e-002  5.500000e+000
      vertex -3.144900e+000 -5.912731e-001  5.500000e+000
    endloop
  endfacet
  facet normal  9.942487e-001  1.070950e-001  0.000000e+000
    outer loop
      vertex -3.198677e+000 -9.202284e-002 -8.881784e-016
      vertex -3.144900e+000 -5.912731e-001  5.500000e+000
      vertex -3.144900e+000 -5.912731e-001 -8.881784e-016
    endloop
  endfacet
  facet normal  9.652544e-001  2.613117e-001  -0.000000e+000
    outer loop
      vertex -3.144900e+000 -5.912731e-001 -8.881784e-016
      vertex -3.144900e+000 -5.912731e-001  5.500000e+000
      vertex -3.013685e+000 -1.075964e+000  5.500000e+000
    endloop
  endfacet
  facet normal  9.652544e-001  2.613117e-001  0.000000e+000
    outer loop
      vertex -3.144900e+000 -5.912731e-001 -8.881784e-016
      vertex -3.013685e+000 -1.075964e+000  5.500000e+000
      vertex -3.013685e+000 -1.075964e+000 -8.881784e-016
    endloop
  endfacet
  facet normal  9.124926e-001  4.090931e-001  -0.000000e+000
    outer loop
      vertex -3.013685e+000 -1.075964e+000 -8.881784e-016
      vertex -3.013685e+000 -1.075964e+000  5.500000e+000
      vertex -2.808264e+000 -1.534162e+000  5.500000e+000
    endloop
  endfacet
  facet normal  9.124926e-001  4.090931e-001  0.000000e+000
    outer loop
      vertex -3.013685e+000 -1.075964e+000 -8.881784e-016
      vertex -2.808264e+000 -1.534162e+000  5.500000e+000
      vertex -2.808264e+000 -1.534162e+000 -8.881784e-016
    endloop
  endfacet
  facet normal  5.468020e-001 -8.372619e-001  0.000000e+000
    outer loop
      vertex -1.954583e+000  2.533694e+000  5.500000e+000
      vertex -1.534162e+000  2.808264e+000 -8.881784e-016
      vertex -1.534162e+000  2.808264e+000  5.500000e+000
    endloop
  endfacet
  facet normal  4.090931e-001 -9.124926e-001  0.000000e+000
    outer loop
      vertex -1.534162e+000  2.808264e+000  5.500000e+000
      vertex -1.534162e+000  2.808264e+000 -8.881784e-016
      vertex -1.075964e+000  3.013685e+000 -8.881784e-016
    endloop
  endfacet
  facet normal  4.090931e-001 -9.124926e-001  0.000000e+000
    outer loop
      vertex -1.534162e+000  2.808264e+000  5.500000e+000
      vertex -1.075964e+000  3.013685e+000 -8.881784e-016
      vertex -1.075964e+000  3.013685e+000  5.500000e+000
    endloop
  endfacet
  facet normal  2.613117e-001 -9.652544e-001  0.000000e+000
    outer loop
      vertex -1.075964e+000  3.013685e+000  5.500000e+000
      vertex -1.075964e+000  3.013685e+000 -8.881784e-016
      vertex -5.912731e-001  3.144900e+000 -8.881784e-016
    endloop
  endfacet
  facet normal  2.613117e-001 -9.652544e-001  0.000000e+000
    outer loop
      vertex -1.075964e+000  3.013685e+000  5.500000e+000
      vertex -5.912731e-001  3.144900e+000 -8.881784e-016
      vertex -5.912731e-001  3.144900e+000  5.500000e+000
    endloop
  endfacet
  facet normal  1.070950e-001 -9.942487e-001  0.000000e+000
    outer loop
      vertex -5.912731e-001  3.144900e+000  5.500000e+000
      vertex -5.912731e-001  3.144900e+000 -8.881784e-016
      vertex -9.202284e-002  3.198677e+000 -8.881784e-016
    endloop
  endfacet
  facet normal  1.070950e-001 -9.942487e-001  0.000000e+000
    outer loop
      vertex -5.912731e-001  3.144900e+000  5.500000e+000
      vertex -9.202284e-002  3.198677e+000 -8.881784e-016
      vertex -9.202284e-002  3.198677e+000  5.500000e+000
    endloop
  endfacet
  facet normal -4.975832e-002 -9.987612e-001  -0.000000e+000
    outer loop
      vertex -9.202284e-002  3.198677e+000  5.500000e+000
      vertex -9.202284e-002  3.198677e+000 -8.881784e-016
      vertex  4.094934e-001  3.173691e+000 -8.881784e-016
    endloop
  endfacet
  facet normal -4.975832e-002 -9.987612e-001  0.000000e+000
    outer loop
      vertex -9.202284e-002  3.198677e+000  5.500000e+000
      vertex  4.094934e-001  3.173691e+000 -8.881784e-016
      vertex  4.094934e-001  3.173691e+000  5.500000e+000
    endloop
  endfacet
  facet normal -2.053862e-001 -9.786810e-001  -0.000000e+000
    outer loop
      vertex  4.094934e-001  3.173691e+000  5.500000e+000
      vertex  4.094934e-001  3.173691e+000 -8.881784e-016
      vertex  9.009265e-001  3.070559e+000 -8.881784e-016
    endloop
  endfacet
  facet normal -2.053862e-001 -9.786810e-001  0.000000e+000
    outer loop
      vertex  4.094934e-001  3.173691e+000  5.500000e+000
      vertex  9.009265e-001  3.070559e+000 -8.881784e-016
      vertex  9.009265e-001  3.070559e+000  5.500000e+000
    endloop
  endfacet
  facet normal -3.559569e-001 -9.345024e-001  -0.000000e+000
    outer loop
      vertex  9.009265e-001  3.070559e+000  5.500000e+000
      vertex  9.009265e-001  3.070559e+000 -8.881784e-016
      vertex  1.370176e+000  2.891819e+000 -8.881784e-016
    endloop
  endfacet
  facet normal -3.559569e-001 -9.345024e-001  0.000000e+000
    outer loop
      vertex  9.009265e-001  3.070559e+000  5.500000e+000
      vertex  1.370176e+000  2.891819e+000 -8.881784e-016
      vertex  1.370176e+000  2.891819e+000  5.500000e+000
    endloop
  endfacet
  facet normal -4.977631e-001 -8.673130e-001  -0.000000e+000
    outer loop
      vertex  1.370176e+000  2.891819e+000  5.500000e+000
      vertex  1.370176e+000  2.891819e+000 -8.881784e-016
      vertex  1.805687e+000  2.641873e+000 -8.881784e-016
    endloop
  endfacet
  facet normal -4.977631e-001 -8.673130e-001  0.000000e+000
    outer loop
      vertex  1.370176e+000  2.891819e+000  5.500000e+000
      vertex  1.805687e+000  2.641873e+000 -8.881784e-016
      vertex  1.805687e+000  2.641873e+000  5.500000e+000
    endloop
  endfacet
  facet normal -6.273122e-001 -7.787678e-001  -0.000000e+000
    outer loop
      vertex  1.805687e+000  2.641873e+000  5.500000e+000
      vertex  1.805687e+000  2.641873e+000 -8.881784e-016
      vertex  2.196736e+000  2.326876e+000 -8.881784e-016
    endloop
  endfacet
  facet normal -6.273122e-001 -7.787678e-001  0.000000e+000
    outer loop
      vertex  1.805687e+000  2.641873e+000  5.500000e+000
      vertex  2.196736e+000  2.326876e+000 -8.881784e-016
      vertex  2.196736e+000  2.326876e+000  5.500000e+000
    endloop
  endfacet
  facet normal -7.414152e-001 -6.710465e-001  -0.000000e+000
    outer loop
      vertex  2.196736e+000  2.326876e+000  5.500000e+000
      vertex  2.196736e+000  2.326876e+000 -8.881784e-016
      vertex  2.533694e+000  1.954583e+000 -8.881784e-016
    endloop
  endfacet
  facet normal -7.414152e-001 -6.710465e-001  0.000000e+000
    outer loop
      vertex  2.196736e+000  2.326876e+000  5.500000e+000
      vertex  2.533694e+000  1.954583e+000 -8.881784e-016
      vertex  2.533694e+000  1.954583e+000  5.500000e+000
    endloop
  endfacet
  facet normal -8.372619e-001 -5.468020e-001  -0.000000e+000
    outer loop
      vertex  2.533694e+000  1.954583e+000  5.500000e+000
      vertex  2.533694e+000  1.954583e+000 -8.881784e-016
      vertex  2.808264e+000  1.534162e+000 -8.881784e-016
    endloop
  endfacet
  facet normal -8.372619e-001 -5.468020e-001  0.000000e+000
    outer loop
      vertex  2.533694e+000  1.954583e+000  5.500000e+000
      vertex  2.808264e+000  1.534162e+000 -8.881784e-016
      vertex  2.808264e+000  1.534162e+000  5.500000e+000
    endloop
  endfacet
  facet normal  8.905448e-001  4.102613e-001  1.965085e-001
    outer loop
      vertex  3.510330e+000  1.917702e+000  5.500000e+000
      vertex  3.738762e+000  1.421851e+000  5.500000e+000
      vertex  4.737759e+000  1.887760e+000 -7.105427e-015
    endloop
  endfacet
  facet normal  8.874177e-001  4.173287e-001  1.957721e-001
    outer loop
      vertex  3.510330e+000  1.917702e+000  5.500000e+000
      vertex  4.737759e+000  1.887760e+000 -7.105427e-015
      vertex  4.475671e+000  2.445070e+000 -7.105427e-015
    endloop
  endfacet
  facet normal -8.306437e-001 -5.212527e-001  1.957721e-001
    outer loop
      vertex -3.510330e+000 -1.917702e+000  5.500000e+000
      vertex -4.475671e+000 -2.445070e+000 -7.105427e-015
      vertex -4.148318e+000 -2.966725e+000 -7.105427e-015
    endloop
  endfacet
  facet normal -8.263863e-001 -5.277026e-001  1.965085e-001
    outer loop
      vertex -3.510330e+000 -1.917702e+000  5.500000e+000
      vertex -4.148318e+000 -2.966725e+000 -7.105427e-015
      vertex -3.216508e+000 -2.377831e+000  5.500000e+000
    endloop
  endfacet
  facet normal  9.313582e-001  3.073551e-001  1.952044e-001
    outer loop
      vertex  3.738762e+000  1.421851e+000  5.500000e+000
      vertex  4.930760e+000  1.302923e+000 -7.105427e-015
      vertex  4.737759e+000  1.887760e+000 -7.105427e-015
    endloop
  endfacet
  facet normal  9.616926e-001  1.928666e-001  1.948067e-001
    outer loop
      vertex  3.897547e+000  8.995128e-001  5.500000e+000
      vertex  5.051859e+000  6.990855e-001 -7.105427e-015
      vertex  4.930760e+000  1.302923e+000 -7.105427e-015
    endloop
  endfacet
  facet normal  9.379961e-001  2.851416e-001  1.971233e-001
    outer loop
      vertex  3.897547e+000  8.995128e-001  5.500000e+000
      vertex  4.930760e+000  1.302923e+000 -7.105427e-015
      vertex  3.738762e+000  1.421851e+000  5.500000e+000
    endloop
  endfacet
  facet normal  9.779733e-001  7.554527e-002  1.945795e-001
    outer loop
      vertex  3.983729e+000  3.604187e-001  5.500000e+000
      vertex  5.099291e+000  8.505413e-002 -7.105427e-015
      vertex  5.051859e+000  6.990855e-001 -7.105427e-015
    endloop
  endfacet
  facet normal  9.680073e-001  1.547493e-001  1.975211e-001
    outer loop
      vertex  3.983729e+000  3.604187e-001  5.500000e+000
      vertex  5.051859e+000  6.990855e-001 -7.105427e-015
      vertex  3.897547e+000  8.995128e-001  5.500000e+000
    endloop
  endfacet
  facet normal  9.799599e-001 -4.288811e-002  1.945226e-001
    outer loop
      vertex  3.995702e+000 -1.853893e-001  5.500000e+000
      vertex  5.072363e+000 -5.302176e-001 -7.105427e-015
      vertex  5.099291e+000  8.505413e-002 -7.105427e-015
    endloop
  endfacet
  facet normal  9.800264e-001  2.149711e-002  1.977019e-001
    outer loop
      vertex  3.995702e+000 -1.853893e-001  5.500000e+000
      vertex  5.099291e+000  8.505413e-002 -7.105427e-015
      vertex  3.983729e+000  3.604187e-001  5.500000e+000
    endloop
  endfacet
  facet normal  9.676231e-001 -1.606929e-001  1.946363e-001
    outer loop
      vertex  3.933242e+000 -7.277439e-001  5.500000e+000
      vertex  4.971469e+000 -1.137758e+000 -7.105427e-015
      vertex  5.072363e+000 -5.302176e-001 -7.105427e-015
    endloop
  endfacet
  facet normal  9.738328e-001 -1.121509e-001  1.976657e-001
    outer loop
      vertex  3.933242e+000 -7.277439e-001  5.500000e+000
      vertex  5.072363e+000 -5.302176e-001 -7.105427e-015
      vertex  3.995702e+000 -1.853893e-001  5.500000e+000
    endloop
  endfacet
  facet normal  9.411445e-001 -2.761391e-001  1.949204e-001
    outer loop
      vertex  3.797513e+000 -1.256542e+000  5.500000e+000
      vertex  4.798080e+000 -1.728706e+000 -7.105427e-015
      vertex  4.971469e+000 -1.137758e+000 -7.105427e-015
    endloop
  endfacet
  facet normal  9.495406e-001 -2.437230e-001  1.974126e-001
    outer loop
      vertex  3.797513e+000 -1.256542e+000  5.500000e+000
      vertex  4.971469e+000 -1.137758e+000 -7.105427e-015
      vertex  3.933242e+000 -7.277439e-001  5.500000e+000
    endloop
  endfacet
  facet normal  9.009145e-001 -3.875330e-001  1.953747e-001
    outer loop
      vertex  3.591043e+000 -1.761933e+000  5.500000e+000
      vertex  4.554724e+000 -2.294447e+000 -7.105427e-015
      vertex  4.798080e+000 -1.728706e+000 -7.105427e-015
    endloop
  endfacet
  facet normal  9.075972e-001 -3.707840e-001  1.969425e-001
    outer loop
      vertex  3.591043e+000 -1.761933e+000  5.500000e+000
      vertex  4.798080e+000 -1.728706e+000 -7.105427e-015
      vertex  3.797513e+000 -1.256542e+000  5.500000e+000
    endloop
  endfacet
  facet normal  7.819629e-001 -5.918519e-001  1.955639e-001
    outer loop
      vertex  3.317680e+000 -2.234503e+000  5.500000e+000
      vertex  3.873275e+000 -3.317791e+000 -7.105427e-015
      vertex  4.244950e+000 -2.826729e+000 -7.105427e-015
    endloop
  endfacet
  facet normal  8.488227e-001 -4.910119e-001  1.959779e-001
    outer loop
      vertex  3.317680e+000 -2.234503e+000  5.500000e+000
      vertex  4.244950e+000 -2.826729e+000 -7.105427e-015
      vertex  3.591043e+000 -1.761933e+000  5.500000e+000
    endloop
  endfacet
  facet normal  8.474839e-001 -4.932129e-001  1.962449e-001
    outer loop
      vertex  3.591043e+000 -1.761933e+000  5.500000e+000
      vertex  4.244950e+000 -2.826729e+000 -7.105427e-015
      vertex  4.554724e+000 -2.294447e+000 -7.105427e-015
    endloop
  endfacet
  facet normal  7.049948e-001 -6.818627e-001  1.950529e-001
    outer loop
      vertex  2.982514e+000 -2.665448e+000  5.500000e+000
      vertex  3.445119e+000 -3.760473e+000 -7.105427e-015
      vertex  3.873275e+000 -3.317791e+000 -7.105427e-015
    endloop
  endfacet
  facet normal  7.739372e-001 -6.019264e-001  1.967375e-001
    outer loop
      vertex  2.982514e+000 -2.665448e+000  5.500000e+000
      vertex  3.873275e+000 -3.317791e+000 -7.105427e-015
      vertex  3.317680e+000 -2.234503e+000  5.500000e+000
    endloop
  endfacet
  facet normal  6.177079e-001 -7.619214e-001  1.947120e-001
    outer loop
      vertex  2.591789e+000 -3.046741e+000  5.500000e+000
      vertex  2.966725e+000 -4.148318e+000 -7.105427e-015
      vertex  3.445119e+000 -3.760473e+000 -7.105427e-015
    endloop
  endfacet
  facet normal  6.846902e-001 -7.016267e-001  1.972800e-001
    outer loop
      vertex  2.591789e+000 -3.046741e+000  5.500000e+000
      vertex  3.445119e+000 -3.760473e+000 -7.105427e-015
      vertex  2.982514e+000 -2.665448e+000  5.500000e+000
    endloop
  endfacet
  facet normal  5.213828e-001 -8.308511e-001  1.945416e-001
    outer loop
      vertex  2.152785e+000 -3.371278e+000  5.500000e+000
      vertex  2.445070e+000 -4.475671e+000 -7.105427e-015
      vertex  2.966725e+000 -4.148318e+000 -7.105427e-015
    endloop
  endfacet
  facet normal  5.827360e-001 -7.882709e-001  1.976054e-001
    outer loop
      vertex  2.152785e+000 -3.371278e+000  5.500000e+000
      vertex  2.966725e+000 -4.148318e+000 -7.105427e-015
      vertex  2.591789e+000 -3.046741e+000  5.500000e+000
    endloop
  endfacet
  facet normal  4.174328e-001 -8.876392e-001  1.945416e-001
    outer loop
      vertex  1.673678e+000 -3.633015e+000  5.500000e+000
      vertex  1.887760e+000 -4.737759e+000 -7.105427e-015
      vertex  2.445070e+000 -4.475671e+000 -7.105427e-015
    endloop
  endfacet
  facet normal  4.699613e-001 -8.602590e-001  1.977140e-001
    outer loop
      vertex  1.673678e+000 -3.633015e+000  5.500000e+000
      vertex  2.445070e+000 -4.475671e+000 -7.105427e-015
      vertex  2.152785e+000 -3.371278e+000  5.500000e+000
    endloop
  endfacet
  facet normal  3.073858e-001 -9.314511e-001  1.947121e-001
    outer loop
      vertex  1.163394e+000 -3.827076e+000  5.500000e+000
      vertex  1.302923e+000 -4.930760e+000 -7.105427e-015
      vertex  1.887760e+000 -4.737759e+000 -7.105427e-015
    endloop
  endfacet
  facet normal  3.484535e-001 -9.162599e-001  1.976055e-001
    outer loop
      vertex  1.163394e+000 -3.827076e+000  5.500000e+000
      vertex  1.887760e+000 -4.737759e+000 -7.105427e-015
      vertex  1.673678e+000 -3.633015e+000  5.500000e+000
    endloop
  endfacet
  facet normal  1.928570e-001 -9.616448e-001  1.950529e-001
    outer loop
      vertex  6.314378e-001 -3.949846e+000  5.500000e+000
      vertex  6.990855e-001 -5.051859e+000 -7.105427e-015
      vertex  1.302923e+000 -4.930760e+000 -7.105427e-015
    endloop
  endfacet
  facet normal  2.204587e-001 -9.552374e-001  1.972800e-001
    outer loop
      vertex  6.314378e-001 -3.949846e+000  5.500000e+000
      vertex  1.302923e+000 -4.930760e+000 -7.105427e-015
      vertex  1.163394e+000 -3.827076e+000  5.500000e+000
    endloop
  endfacet
  facet normal  7.553020e-002 -9.777781e-001  1.955640e-001
    outer loop
      vertex  8.771918e-002 -3.999038e+000  5.500000e+000
      vertex  8.505413e-002 -5.099291e+000 -7.105427e-015
      vertex  6.990855e-001 -5.051859e+000 -7.105427e-015
    endloop
  endfacet
  facet normal  8.834373e-002 -9.764680e-001  1.967375e-001
    outer loop
      vertex  8.771918e-002 -3.999038e+000  5.500000e+000
      vertex  6.990855e-001 -5.051859e+000 -7.105427e-015
      vertex  6.314378e-001 -3.949846e+000  5.500000e+000
    endloop
  endfacet
  facet normal -1.606688e-001 -9.674783e-001  1.953747e-001
    outer loop
      vertex -4.576335e-001 -3.973735e+000  5.500000e+000
      vertex -1.137758e+000 -4.971469e+000 -7.105427e-015
      vertex -5.302176e-001 -5.072363e+000 -7.105427e-015
    endloop
  endfacet
  facet normal -4.544568e-002 -9.794990e-001  1.962552e-001
    outer loop
      vertex -4.576335e-001 -3.973735e+000  5.500000e+000
      vertex -5.302176e-001 -5.072363e+000 -7.105427e-015
      vertex  8.771918e-002 -3.999038e+000  5.500000e+000
    endloop
  endfacet
  facet normal -4.287526e-002 -9.796664e-001  1.959991e-001
    outer loop
      vertex  8.771918e-002 -3.999038e+000  5.500000e+000
      vertex -5.302176e-001 -5.072363e+000 -7.105427e-015
      vertex  8.505413e-002 -5.099291e+000 -7.105427e-015
    endloop
  endfacet
  facet normal -2.761391e-001 -9.411446e-001  1.949204e-001
    outer loop
      vertex -9.944612e-001 -3.874409e+000  5.500000e+000
      vertex -1.728706e+000 -4.798080e+000 -7.105427e-015
      vertex -1.137758e+000 -4.971469e+000 -7.105427e-015
    endloop
  endfacet
  facet normal -1.783730e-001 -9.640522e-001  1.969425e-001
    outer loop
      vertex -9.944612e-001 -3.874409e+000  5.500000e+000
      vertex -1.137758e+000 -4.971469e+000 -7.105427e-015
      vertex -4.576335e-001 -3.973735e+000  5.500000e+000
    endloop
  endfacet
  facet normal -3.875910e-001 -9.010493e-001  1.946363e-001
    outer loop
      vertex -1.512764e+000 -3.702910e+000  5.500000e+000
      vertex -2.294447e+000 -4.554724e+000 -7.105427e-015
      vertex -1.728706e+000 -4.798080e+000 -7.105427e-015
    endloop
  endfacet
  facet normal -3.079532e-001 -9.306950e-001  1.974126e-001
    outer loop
      vertex -1.512764e+000 -3.702910e+000  5.500000e+000
      vertex -1.728706e+000 -4.798080e+000 -7.105427e-015
      vertex -9.944612e-001 -3.874409e+000  5.500000e+000
    endloop
  endfacet
  facet normal -4.933855e-001 -8.477805e-001  1.945226e-001
    outer loop
      vertex -2.002887e+000 -3.462433e+000  5.500000e+000
      vertex -2.826729e+000 -4.244950e+000 -7.105427e-015
      vertex -2.294447e+000 -4.554724e+000 -7.105427e-015
    endloop
  endfacet
  facet normal -4.317926e-001 -8.800474e-001  1.976657e-001
    outer loop
      vertex -2.002887e+000 -3.462433e+000  5.500000e+000
      vertex -2.294447e+000 -4.554724e+000 -7.105427e-015
      vertex -1.512764e+000 -3.702910e+000  5.500000e+000
    endloop
  endfacet
  facet normal -5.919701e-001 -7.821191e-001  1.945795e-001
    outer loop
      vertex -2.455700e+000 -3.157458e+000  5.500000e+000
      vertex -3.317791e+000 -3.873275e+000 -7.105427e-015
      vertex -2.826729e+000 -4.244950e+000 -7.105427e-015
    endloop
  endfacet
  facet normal -5.475994e-001 -8.130491e-001  1.977019e-001
    outer loop
      vertex -2.455700e+000 -3.157458e+000  5.500000e+000
      vertex -2.826729e+000 -4.244950e+000 -7.105427e-015
      vertex -2.002887e+000 -3.462433e+000  5.500000e+000
    endloop
  endfacet
  facet normal -6.818967e-001 -7.050300e-001  1.948067e-001
    outer loop
      vertex -2.862768e+000 -2.793664e+000  5.500000e+000
      vertex -3.760473e+000 -3.445119e+000 -7.105427e-015
      vertex -3.317791e+000 -3.873275e+000 -7.105427e-015
    endloop
  endfacet
  facet normal -6.532338e-001 -7.309384e-001  1.975211e-001
    outer loop
      vertex -2.862768e+000 -2.793664e+000  5.500000e+000
      vertex -3.317791e+000 -3.873275e+000 -7.105427e-015
      vertex -2.455700e+000 -3.157458e+000  5.500000e+000
    endloop
  endfacet
  facet normal -7.618454e-001 -6.176462e-001  1.952043e-001
    outer loop
      vertex -3.216508e+000 -2.377831e+000  5.500000e+000
      vertex -4.148318e+000 -2.966725e+000 -7.105427e-015
      vertex -3.760473e+000 -3.445119e+000 -7.105427e-015
    endloop
  endfacet
  facet normal -7.467400e-001 -6.352337e-001  1.971233e-001
    outer loop
      vertex -3.216508e+000 -2.377831e+000  5.500000e+000
      vertex -3.760473e+000 -3.445119e+000 -7.105427e-015
      vertex -2.862768e+000 -2.793664e+000  5.500000e+000
    endloop
  endfacet
  facet normal -5.468020e-001  8.372619e-001  0.000000e+000
    outer loop
      vertex  1.534162e+000 -2.808264e+000 -8.881784e-016
      vertex  1.954583e+000 -2.533694e+000  5.500000e+000
      vertex  1.954583e+000 -2.533694e+000 -8.881784e-016
    endloop
  endfacet
  facet normal -6.710465e-001  7.414152e-001  0.000000e+000
    outer loop
      vertex  1.954583e+000 -2.533694e+000 -8.881784e-016
      vertex  1.954583e+000 -2.533694e+000  5.500000e+000
      vertex  2.326876e+000 -2.196736e+000  5.500000e+000
    endloop
  endfacet
  facet normal -6.710465e-001  7.414152e-001  0.000000e+000
    outer loop
      vertex  1.954583e+000 -2.533694e+000 -8.881784e-016
      vertex  2.326876e+000 -2.196736e+000  5.500000e+000
      vertex  2.326876e+000 -2.196736e+000 -8.881784e-016
    endloop
  endfacet
  facet normal -7.787678e-001  6.273122e-001  0.000000e+000
    outer loop
      vertex  2.326876e+000 -2.196736e+000 -8.881784e-016
      vertex  2.326876e+000 -2.196736e+000  5.500000e+000
      vertex  2.641873e+000 -1.805687e+000  5.500000e+000
    endloop
  endfacet
  facet normal -7.787678e-001  6.273122e-001  0.000000e+000
    outer loop
      vertex  2.326876e+000 -2.196736e+000 -8.881784e-016
      vertex  2.641873e+000 -1.805687e+000  5.500000e+000
      vertex  2.641873e+000 -1.805687e+000 -8.881784e-016
    endloop
  endfacet
  facet normal -8.673130e-001  4.977631e-001  0.000000e+000
    outer loop
      vertex  2.641873e+000 -1.805687e+000 -8.881784e-016
      vertex  2.641873e+000 -1.805687e+000  5.500000e+000
      vertex  2.891819e+000 -1.370176e+000  5.500000e+000
    endloop
  endfacet
  facet normal -8.673130e-001  4.977631e-001  0.000000e+000
    outer loop
      vertex  2.641873e+000 -1.805687e+000 -8.881784e-016
      vertex  2.891819e+000 -1.370176e+000  5.500000e+000
      vertex  2.891819e+000 -1.370176e+000 -8.881784e-016
    endloop
  endfacet
  facet normal -9.345024e-001  3.559569e-001  0.000000e+000
    outer loop
      vertex  2.891819e+000 -1.370176e+000 -8.881784e-016
      vertex  2.891819e+000 -1.370176e+000  5.500000e+000
      vertex  3.070559e+000 -9.009265e-001  5.500000e+000
    endloop
  endfacet
  facet normal -9.345024e-001  3.559569e-001  0.000000e+000
    outer loop
      vertex  2.891819e+000 -1.370176e+000 -8.881784e-016
      vertex  3.070559e+000 -9.009265e-001  5.500000e+000
      vertex  3.070559e+000 -9.009265e-001 -8.881784e-016
    endloop
  endfacet
  facet normal -9.786810e-001  2.053862e-001  0.000000e+000
    outer loop
      vertex  3.070559e+000 -9.009265e-001 -8.881784e-016
      vertex  3.070559e+000 -9.009265e-001  5.500000e+000
      vertex  3.173691e+000 -4.094934e-001  5.500000e+000
    endloop
  endfacet
  facet normal -9.786810e-001  2.053862e-001  0.000000e+000
    outer loop
      vertex  3.070559e+000 -9.009265e-001 -8.881784e-016
      vertex  3.173691e+000 -4.094934e-001  5.500000e+000
      vertex  3.173691e+000 -4.094934e-001 -8.881784e-016
    endloop
  endfacet
  facet normal -9.987612e-001  4.975832e-002  0.000000e+000
    outer loop
      vertex  3.173691e+000 -4.094934e-001 -8.881784e-016
      vertex  3.173691e+000 -4.094934e-001  5.500000e+000
      vertex  3.198677e+000  9.202284e-002  5.500000e+000
    endloop
  endfacet
  facet normal -9.987612e-001  4.975832e-002  0.000000e+000
    outer loop
      vertex  3.173691e+000 -4.094934e-001 -8.881784e-016
      vertex  3.198677e+000  9.202284e-002  5.500000e+000
      vertex  3.198677e+000  9.202284e-002 -8.881784e-016
    endloop
  endfacet
  facet normal -9.942487e-001 -1.070950e-001  0.000000e+000
    outer loop
      vertex  3.198677e+000  9.202284e-002 -8.881784e-016
      vertex  3.198677e+000  9.202284e-002  5.500000e+000
      vertex  3.144900e+000  5.912731e-001  5.500000e+000
    endloop
  endfacet
  facet normal -9.942487e-001 -1.070950e-001  -0.000000e+000
    outer loop
      vertex  3.198677e+000  9.202284e-002 -8.881784e-016
      vertex  3.144900e+000  5.912731e-001  5.500000e+000
      vertex  3.144900e+000  5.912731e-001 -8.881784e-016
    endloop
  endfacet
  facet normal -9.652544e-001 -2.613117e-001  0.000000e+000
    outer loop
      vertex  3.144900e+000  5.912731e-001 -8.881784e-016
      vertex  3.144900e+000  5.912731e-001  5.500000e+000
      vertex  3.013685e+000  1.075964e+000  5.500000e+000
    endloop
  endfacet
  facet normal -9.652544e-001 -2.613117e-001  -0.000000e+000
    outer loop
      vertex  3.144900e+000  5.912731e-001 -8.881784e-016
      vertex  3.013685e+000  1.075964e+000  5.500000e+000
      vertex  3.013685e+000  1.075964e+000 -8.881784e-016
    endloop
  endfacet
  facet normal -9.124926e-001 -4.090931e-001  0.000000e+000
    outer loop
      vertex  3.013685e+000  1.075964e+000 -8.881784e-016
      vertex  3.013685e+000  1.075964e+000  5.500000e+000
      vertex  2.808264e+000  1.534162e+000  5.500000e+000
    endloop
  endfacet
  facet normal -9.124926e-001 -4.090931e-001  -0.000000e+000
    outer loop
      vertex  3.013685e+000  1.075964e+000 -8.881784e-016
      vertex  2.808264e+000  1.534162e+000  5.500000e+000
      vertex  2.808264e+000  1.534162e+000 -8.881784e-016
    endloop
  endfacet
  facet normal -5.468020e-001  8.372619e-001  0.000000e+000
    outer loop
      vertex  1.954583e+000 -2.533694e+000  5.500000e+000
      vertex  1.534162e+000 -2.808264e+000 -8.881784e-016
      vertex  1.534162e+000 -2.808264e+000  5.500000e+000
    endloop
  endfacet
  facet normal -4.090931e-001  9.124926e-001  0.000000e+000
    outer loop
      vertex  1.534162e+000 -2.808264e+000  5.500000e+000
      vertex  1.534162e+000 -2.808264e+000 -8.881784e-016
      vertex  1.075964e+000 -3.013685e+000 -8.881784e-016
    endloop
  endfacet
  facet normal -4.090931e-001  9.124926e-001  0.000000e+000
    outer loop
      vertex  1.534162e+000 -2.808264e+000  5.500000e+000
      vertex  1.075964e+000 -3.013685e+000 -8.881784e-016
      vertex  1.075964e+000 -3.013685e+000  5.500000e+000
    endloop
  endfacet
  facet normal -2.613117e-001  9.652544e-001  0.000000e+000
    outer loop
      vertex  1.075964e+000 -3.013685e+000  5.500000e+000
      vertex  1.075964e+000 -3.013685e+000 -8.881784e-016
      vertex  5.912731e-001 -3.144900e+000 -8.881784e-016
    endloop
  endfacet
  facet normal -2.613117e-001  9.652544e-001  0.000000e+000
    outer loop
      vertex  1.075964e+000 -3.013685e+000  5.500000e+000
      vertex  5.912731e-001 -3.144900e+000 -8.881784e-016
      vertex  5.912731e-001 -3.144900e+000  5.500000e+000
    endloop
  endfacet
  facet normal -1.070950e-001  9.942487e-001  0.000000e+000
    outer loop
      vertex  5.912731e-001 -3.144900e+000  5.500000e+000
      vertex  5.912731e-001 -3.144900e+000 -8.881784e-016
      vertex  9.202284e-002 -3.198677e+000 -8.881784e-016
    endloop
  endfacet
  facet normal -1.070950e-001  9.942487e-001  0.000000e+000
    outer loop
      vertex  5.912731e-001 -3.144900e+000  5.500000e+000
      vertex  9.202284e-002 -3.198677e+000 -8.881784e-016
      vertex  9.202284e-002 -3.198677e+000  5.500000e+000
    endloop
  endfacet
  facet normal  4.975832e-002  9.987612e-001  0.000000e+000
    outer loop
      vertex  9.202284e-002 -3.198677e+000  5.500000e+000
      vertex  9.202284e-002 -3.198677e+000 -8.881784e-016
      vertex -4.094934e-001 -3.173691e+000 -8.881784e-016
    endloop
  endfacet
  facet normal  4.975832e-002  9.987612e-001  -0.000000e+000
    outer loop
      vertex  9.202284e-002 -3.198677e+000  5.500000e+000
      vertex -4.094934e-001 -3.173691e+000 -8.881784e-016
      vertex -4.094934e-001 -3.173691e+000  5.500000e+000
    endloop
  endfacet
  facet normal  2.053862e-001  9.786810e-001  0.000000e+000
    outer loop
      vertex -4.094934e-001 -3.173691e+000  5.500000e+000
      vertex -4.094934e-001 -3.173691e+000 -8.881784e-016
      vertex -9.009265e-001 -3.070559e+000 -8.881784e-016
    endloop
  endfacet
  facet normal  2.053862e-001  9.786810e-001  -0.000000e+000
    outer loop
      vertex -4.094934e-001 -3.173691e+000  5.500000e+000
      vertex -9.009265e-001 -3.070559e+000 -8.881784e-016
      vertex -9.009265e-001 -3.070559e+000  5.500000e+000
    endloop
  endfacet
  facet normal  3.559569e-001  9.345024e-001  0.000000e+000
    outer loop
      vertex -9.009265e-001 -3.070559e+000  5.500000e+000
      vertex -9.009265e-001 -3.070559e+000 -8.881784e-016
      vertex -1.370176e+000 -2.891819e+000 -8.881784e-016
    endloop
  endfacet
  facet normal  3.559569e-001  9.345024e-001  -0.000000e+000
    outer loop
      vertex -9.009265e-001 -3.070559e+000  5.500000e+000
      vertex -1.370176e+000 -2.891819e+000 -8.881784e-016
      vertex -1.370176e+000 -2.891819e+000  5.500000e+000
    endloop
  endfacet
  facet normal  4.977631e-001  8.673130e-001  0.000000e+000
    outer loop
      vertex -1.370176e+000 -2.891819e+000  5.500000e+000
      vertex -1.370176e+000 -2.891819e+000 -8.881784e-016
      vertex -1.805687e+000 -2.641873e+000 -8.881784e-016
    endloop
  endfacet
  facet normal  4.977631e-001  8.673130e-001  -0.000000e+000
    outer loop
      vertex -1.370176e+000 -2.891819e+000  5.500000e+000
      vertex -1.805687e+000 -2.641873e+000 -8.881784e-016
      vertex -1.805687e+000 -2.641873e+000  5.500000e+000
    endloop
  endfacet
  facet normal  6.273122e-001  7.787678e-001  0.000000e+000
    outer loop
      vertex -1.805687e+000 -2.641873e+000  5.500000e+000
      vertex -1.805687e+000 -2.641873e+000 -8.881784e-016
      vertex -2.196736e+000 -2.326876e+000 -8.881784e-016
    endloop
  endfacet
  facet normal  6.273122e-001  7.787678e-001  -0.000000e+000
    outer loop
      vertex -1.805687e+000 -2.641873e+000  5.500000e+000
      vertex -2.196736e+000 -2.326876e+000 -8.881784e-016
      vertex -2.196736e+000 -2.326876e+000  5.500000e+000
    endloop
  endfacet
  facet normal  7.414152e-001  6.710465e-001  0.000000e+000
    outer loop
      vertex -2.196736e+000 -2.326876e+000  5.500000e+000
      vertex -2.196736e+000 -2.326876e+000 -8.881784e-016
      vertex -2.533694e+000 -1.954583e+000 -8.881784e-016
    endloop
  endfacet
  facet normal  7.414152e-001  6.710465e-001  -0.000000e+000
    outer loop
      vertex -2.196736e+000 -2.326876e+000  5.500000e+000
      vertex -2.533694e+000 -1.954583e+000 -8.881784e-016
      vertex -2.533694e+000 -1.954583e+000  5.500000e+000
    endloop
  endfacet
  facet normal  8.372619e-001  5.468020e-001  0.000000e+000
    outer loop
      vertex -2.533694e+000 -1.954583e+000  5.500000e+000
      vertex -2.533694e+000 -1.954583e+000 -8.881784e-016
      vertex -2.808264e+000 -1.534162e+000 -8.881784e-016
    endloop
  endfacet
  facet normal  8.372619e-001  5.468020e-001  -0.000000e+000
    outer loop
      vertex -2.533694e+000 -1.954583e+000  5.500000e+000
      vertex -2.808264e+000 -1.534162e+000 -8.881784e-016
      vertex -2.808264e+000 -1.534162e+000  5.500000e+000
    endloop
  endfacet
endsolid CATIA STL
