solid CATIA STL
  facet normal  -0.000000e+000  0.000000e+000  1.000000e+000
    outer loop
      vertex -1.534162e+000  2.808264e+000  4.500000e+000
      vertex -2.982514e+000  2.665448e+000  4.500000e+000
      vertex -1.954583e+000  2.533694e+000  4.500000e+000
    endloop
  endfacet
  facet normal  0.000000e+000  -0.000000e+000  1.000000e+000
    outer loop
      vertex  1.805687e+000  2.641873e+000  4.500000e+000
      vertex  2.196736e+000  2.326876e+000  4.500000e+000
      vertex  3.216508e+000  2.377831e+000  4.500000e+000
    endloop
  endfacet
  facet normal  0.000000e+000  -0.000000e+000  1.000000e+000
    outer loop
      vertex  9.202284e-002 -3.198677e+000  4.500000e+000
      vertex  6.314378e-001 -3.949846e+000  4.500000e+000
      vertex  1.163394e+000 -3.827076e+000  4.500000e+000
    endloop
  endfacet
  facet normal  0.000000e+000  -0.000000e+000  1.000000e+000
    outer loop
      vertex  9.202284e-002 -3.198677e+000  4.500000e+000
      vertex  1.163394e+000 -3.827076e+000  4.500000e+000
      vertex  1.673678e+000 -3.633015e+000  4.500000e+000
    endloop
  endfacet
  facet normal  0.000000e+000  -0.000000e+000  1.000000e+000
    outer loop
      vertex  9.202284e-002 -3.198677e+000  4.500000e+000
      vertex  1.673678e+000 -3.633015e+000  4.500000e+000
      vertex  2.152785e+000 -3.371278e+000  4.500000e+000
    endloop
  endfacet
  facet normal  0.000000e+000  0.000000e+000  9.999999e-001
    outer loop
      vertex  9.202284e-002 -3.198677e+000  4.500000e+000
      vertex  2.152785e+000 -3.371278e+000  4.500000e+000
      vertex  5.912731e-001 -3.144900e+000  4.500000e+000
    endloop
  endfacet
  facet normal  -0.000000e+000  -0.000000e+000  1.000000e+000
    outer loop
      vertex  4.094934e-001  3.173691e+000  4.500000e+000
      vertex  9.009265e-001  3.070559e+000  4.500000e+000
      vertex  2.862768e+000  2.793664e+000  4.500000e+000
    endloop
  endfacet
  facet normal  0.000000e+000  0.000000e+000  1.000000e+000
    outer loop
      vertex  4.094934e-001  3.173691e+000  4.500000e+000
      vertex  2.862768e+000  2.793664e+000  4.500000e+000
      vertex  2.455700e+000  3.157458e+000  4.500000e+000
    endloop
  endfacet
  facet normal  0.000000e+000  0.000000e+000  1.000000e+000
    outer loop
      vertex  4.094934e-001  3.173691e+000  4.500000e+000
      vertex  2.455700e+000  3.157458e+000  4.500000e+000
      vertex  2.002887e+000  3.462433e+000  4.500000e+000
    endloop
  endfacet
  facet normal  0.000000e+000  0.000000e+000  1.000000e+000
    outer loop
      vertex  4.094934e-001  3.173691e+000  4.500000e+000
      vertex  2.002887e+000  3.462433e+000  4.500000e+000
      vertex  1.512764e+000  3.702910e+000  4.500000e+000
    endloop
  endfacet
  facet normal  0.000000e+000  0.000000e+000  1.000000e+000
    outer loop
      vertex  4.094934e-001  3.173691e+000  4.500000e+000
      vertex  1.512764e+000  3.702910e+000  4.500000e+000
      vertex  9.944612e-001  3.874409e+000  4.500000e+000
    endloop
  endfacet
  facet normal  0.000000e+000  0.000000e+000  1.000000e+000
    outer loop
      vertex  4.094934e-001  3.173691e+000  4.500000e+000
      vertex  9.944612e-001  3.874409e+000  4.500000e+000
      vertex  4.576335e-001  3.973735e+000  4.500000e+000
    endloop
  endfacet
  facet normal  0.000000e+000  0.000000e+000  1.000000e+000
    outer loop
      vertex  4.094934e-001  3.173691e+000  4.500000e+000
      vertex  4.576335e-001  3.973735e+000  4.500000e+000
      vertex -8.771918e-002  3.999038e+000  4.500000e+000
    endloop
  endfacet
  facet normal  0.000000e+000  0.000000e+000  1.000000e+000
    outer loop
      vertex  4.094934e-001  3.173691e+000  4.500000e+000
      vertex -8.771918e-002  3.999038e+000  4.500000e+000
      vertex -9.202284e-002  3.198677e+000  4.500000e+000
    endloop
  endfacet
  facet normal  0.000000e+000  0.000000e+000  1.000000e+000
    outer loop
      vertex -9.202284e-002  3.198677e+000  4.500000e+000
      vertex -8.771918e-002  3.999038e+000  4.500000e+000
      vertex -6.314378e-001  3.949846e+000  4.500000e+000
    endloop
  endfacet
  facet normal  0.000000e+000  0.000000e+000  1.000000e+000
    outer loop
      vertex -9.202284e-002  3.198677e+000  4.500000e+000
      vertex -6.314378e-001  3.949846e+000  4.500000e+000
      vertex -1.163394e+000  3.827076e+000  4.500000e+000
    endloop
  endfacet
  facet normal  0.000000e+000  0.000000e+000  1.000000e+000
    outer loop
      vertex -9.202284e-002  3.198677e+000  4.500000e+000
      vertex -1.163394e+000  3.827076e+000  4.500000e+000
      vertex -1.673678e+000  3.633015e+000  4.500000e+000
    endloop
  endfacet
  facet normal  0.000000e+000  0.000000e+000  1.000000e+000
    outer loop
      vertex -9.202284e-002  3.198677e+000  4.500000e+000
      vertex -1.673678e+000  3.633015e+000  4.500000e+000
      vertex -2.152785e+000  3.371278e+000  4.500000e+000
    endloop
  endfacet
  facet normal  0.000000e+000  0.000000e+000  1.000000e+000
    outer loop
      vertex -9.202284e-002  3.198677e+000  4.500000e+000
      vertex -2.152785e+000  3.371278e+000  4.500000e+000
      vertex -2.591789e+000  3.046741e+000  4.500000e+000
    endloop
  endfacet
  facet normal  0.000000e+000  0.000000e+000  1.000000e+000
    outer loop
      vertex -9.202284e-002  3.198677e+000  4.500000e+000
      vertex -2.591789e+000  3.046741e+000  4.500000e+000
      vertex -5.912731e-001  3.144900e+000  4.500000e+000
    endloop
  endfacet
  facet normal  0.000000e+000  0.000000e+000  1.000000e+000
    outer loop
      vertex  6.314378e-001 -3.949846e+000  4.500000e+000
      vertex  9.202284e-002 -3.198677e+000  4.500000e+000
      vertex  8.771918e-002 -3.999038e+000  4.500000e+000
    endloop
  endfacet
  facet normal  0.000000e+000  -0.000000e+000  1.000000e+000
    outer loop
      vertex  8.771918e-002 -3.999038e+000  4.500000e+000
      vertex  9.202284e-002 -3.198677e+000  4.500000e+000
      vertex -4.094934e-001 -3.173691e+000  4.500000e+000
    endloop
  endfacet
  facet normal  0.000000e+000  0.000000e+000  1.000000e+000
    outer loop
      vertex  8.771918e-002 -3.999038e+000  4.500000e+000
      vertex -4.094934e-001 -3.173691e+000  4.500000e+000
      vertex -4.576335e-001 -3.973735e+000  4.500000e+000
    endloop
  endfacet
  facet normal  0.000000e+000  -0.000000e+000  1.000000e+000
    outer loop
      vertex -4.576335e-001 -3.973735e+000  4.500000e+000
      vertex -4.094934e-001 -3.173691e+000  4.500000e+000
      vertex -2.002887e+000 -3.462433e+000  4.500000e+000
    endloop
  endfacet
  facet normal  0.000000e+000  0.000000e+000  1.000000e+000
    outer loop
      vertex -4.576335e-001 -3.973735e+000  4.500000e+000
      vertex -2.002887e+000 -3.462433e+000  4.500000e+000
      vertex -9.944612e-001 -3.874409e+000  4.500000e+000
    endloop
  endfacet
  facet normal  0.000000e+000  0.000000e+000  9.999999e-001
    outer loop
      vertex -9.944612e-001 -3.874409e+000  4.500000e+000
      vertex -2.002887e+000 -3.462433e+000  4.500000e+000
      vertex -1.512764e+000 -3.702910e+000  4.500000e+000
    endloop
  endfacet
  facet normal  0.000000e+000  0.000000e+000  1.000000e+000
    outer loop
      vertex -2.982514e+000  2.665448e+000  4.500000e+000
      vertex -1.534162e+000  2.808264e+000  4.500000e+000
      vertex -2.591789e+000  3.046741e+000  4.500000e+000
    endloop
  endfacet
  facet normal  0.000000e+000  0.000000e+000  1.000000e+000
    outer loop
      vertex -2.591789e+000  3.046741e+000  4.500000e+000
      vertex -1.534162e+000  2.808264e+000  4.500000e+000
      vertex -1.075964e+000  3.013685e+000  4.500000e+000
    endloop
  endfacet
  facet normal  0.000000e+000  -0.000000e+000  1.000000e+000
    outer loop
      vertex -2.591789e+000  3.046741e+000  4.500000e+000
      vertex -1.075964e+000  3.013685e+000  4.500000e+000
      vertex -5.912731e-001  3.144900e+000  4.500000e+000
    endloop
  endfacet
  facet normal  0.000000e+000  0.000000e+000  1.000000e+000
    outer loop
      vertex -1.954583e+000  2.533694e+000  4.500000e+000
      vertex -2.982514e+000  2.665448e+000  4.500000e+000
      vertex -2.326876e+000  2.196736e+000  4.500000e+000
    endloop
  endfacet
  facet normal  0.000000e+000  0.000000e+000  1.000000e+000
    outer loop
      vertex -2.326876e+000  2.196736e+000  4.500000e+000
      vertex -2.982514e+000  2.665448e+000  4.500000e+000
      vertex -3.317680e+000  2.234503e+000  4.500000e+000
    endloop
  endfacet
  facet normal  0.000000e+000  0.000000e+000  1.000000e+000
    outer loop
      vertex -2.326876e+000  2.196736e+000  4.500000e+000
      vertex -3.317680e+000  2.234503e+000  4.500000e+000
      vertex -2.641873e+000  1.805687e+000  4.500000e+000
    endloop
  endfacet
  facet normal  0.000000e+000  0.000000e+000  1.000000e+000
    outer loop
      vertex -2.641873e+000  1.805687e+000  4.500000e+000
      vertex -3.317680e+000  2.234503e+000  4.500000e+000
      vertex -3.591043e+000  1.761933e+000  4.500000e+000
    endloop
  endfacet
  facet normal  -0.000000e+000  0.000000e+000  1.000000e+000
    outer loop
      vertex -2.641873e+000  1.805687e+000  4.500000e+000
      vertex -3.591043e+000  1.761933e+000  4.500000e+000
      vertex -2.891819e+000  1.370176e+000  4.500000e+000
    endloop
  endfacet
  facet normal  0.000000e+000  0.000000e+000  9.999999e-001
    outer loop
      vertex -2.891819e+000  1.370176e+000  4.500000e+000
      vertex -3.591043e+000  1.761933e+000  4.500000e+000
      vertex -3.797513e+000  1.256542e+000  4.500000e+000
    endloop
  endfacet
  facet normal  -0.000000e+000  0.000000e+000  1.000000e+000
    outer loop
      vertex -2.891819e+000  1.370176e+000  4.500000e+000
      vertex -3.797513e+000  1.256542e+000  4.500000e+000
      vertex -3.070559e+000  9.009265e-001  4.500000e+000
    endloop
  endfacet
  facet normal  0.000000e+000  0.000000e+000  1.000000e+000
    outer loop
      vertex -3.070559e+000  9.009265e-001  4.500000e+000
      vertex -3.797513e+000  1.256542e+000  4.500000e+000
      vertex -3.933242e+000  7.277439e-001  4.500000e+000
    endloop
  endfacet
  facet normal  -0.000000e+000  0.000000e+000  1.000000e+000
    outer loop
      vertex -3.070559e+000  9.009265e-001  4.500000e+000
      vertex -3.933242e+000  7.277439e-001  4.500000e+000
      vertex -3.173691e+000  4.094934e-001  4.500000e+000
    endloop
  endfacet
  facet normal  0.000000e+000  0.000000e+000  1.000000e+000
    outer loop
      vertex -3.173691e+000  4.094934e-001  4.500000e+000
      vertex -3.933242e+000  7.277439e-001  4.500000e+000
      vertex -3.995702e+000  1.853893e-001  4.500000e+000
    endloop
  endfacet
  facet normal  -0.000000e+000  0.000000e+000  9.999999e-001
    outer loop
      vertex -3.173691e+000  4.094934e-001  4.500000e+000
      vertex -3.995702e+000  1.853893e-001  4.500000e+000
      vertex -3.198677e+000 -9.202284e-002  4.500000e+000
    endloop
  endfacet
  facet normal  0.000000e+000  0.000000e+000  1.000000e+000
    outer loop
      vertex -3.198677e+000 -9.202284e-002  4.500000e+000
      vertex -3.995702e+000  1.853893e-001  4.500000e+000
      vertex -3.983729e+000 -3.604187e-001  4.500000e+000
    endloop
  endfacet
  facet normal  -0.000000e+000  0.000000e+000  1.000000e+000
    outer loop
      vertex -3.198677e+000 -9.202284e-002  4.500000e+000
      vertex -3.983729e+000 -3.604187e-001  4.500000e+000
      vertex -3.144900e+000 -5.912731e-001  4.500000e+000
    endloop
  endfacet
  facet normal  0.000000e+000  0.000000e+000  1.000000e+000
    outer loop
      vertex -3.144900e+000 -5.912731e-001  4.500000e+000
      vertex -3.983729e+000 -3.604187e-001  4.500000e+000
      vertex -3.013685e+000 -1.075964e+000  4.500000e+000
    endloop
  endfacet
  facet normal  0.000000e+000  0.000000e+000  1.000000e+000
    outer loop
      vertex -3.013685e+000 -1.075964e+000  4.500000e+000
      vertex -3.983729e+000 -3.604187e-001  4.500000e+000
      vertex -3.897547e+000 -8.995128e-001  4.500000e+000
    endloop
  endfacet
  facet normal  0.000000e+000  0.000000e+000  1.000000e+000
    outer loop
      vertex -3.013685e+000 -1.075964e+000  4.500000e+000
      vertex -3.897547e+000 -8.995128e-001  4.500000e+000
      vertex -2.808264e+000 -1.534162e+000  4.500000e+000
    endloop
  endfacet
  facet normal  0.000000e+000  0.000000e+000  1.000000e+000
    outer loop
      vertex -2.808264e+000 -1.534162e+000  4.500000e+000
      vertex -3.897547e+000 -8.995128e-001  4.500000e+000
      vertex -3.738762e+000 -1.421851e+000  4.500000e+000
    endloop
  endfacet
  facet normal  0.000000e+000  0.000000e+000  1.000000e+000
    outer loop
      vertex -2.808264e+000 -1.534162e+000  4.500000e+000
      vertex -3.738762e+000 -1.421851e+000  4.500000e+000
      vertex -2.533694e+000 -1.954583e+000  4.500000e+000
    endloop
  endfacet
  facet normal  0.000000e+000  0.000000e+000  1.000000e+000
    outer loop
      vertex -2.533694e+000 -1.954583e+000  4.500000e+000
      vertex -3.738762e+000 -1.421851e+000  4.500000e+000
      vertex -3.510330e+000 -1.917702e+000  4.500000e+000
    endloop
  endfacet
  facet normal  0.000000e+000  0.000000e+000  1.000000e+000
    outer loop
      vertex -2.533694e+000 -1.954583e+000  4.500000e+000
      vertex -3.510330e+000 -1.917702e+000  4.500000e+000
      vertex -2.196736e+000 -2.326876e+000  4.500000e+000
    endloop
  endfacet
  facet normal  0.000000e+000  0.000000e+000  1.000000e+000
    outer loop
      vertex -2.196736e+000 -2.326876e+000  4.500000e+000
      vertex -3.510330e+000 -1.917702e+000  4.500000e+000
      vertex -3.216508e+000 -2.377831e+000  4.500000e+000
    endloop
  endfacet
  facet normal  -0.000000e+000  0.000000e+000  1.000000e+000
    outer loop
      vertex -2.196736e+000 -2.326876e+000  4.500000e+000
      vertex -3.216508e+000 -2.377831e+000  4.500000e+000
      vertex -1.805687e+000 -2.641873e+000  4.500000e+000
    endloop
  endfacet
  facet normal  0.000000e+000  0.000000e+000  1.000000e+000
    outer loop
      vertex -1.805687e+000 -2.641873e+000  4.500000e+000
      vertex -3.216508e+000 -2.377831e+000  4.500000e+000
      vertex -2.862768e+000 -2.793664e+000  4.500000e+000
    endloop
  endfacet
  facet normal  -0.000000e+000  0.000000e+000  1.000000e+000
    outer loop
      vertex -1.805687e+000 -2.641873e+000  4.500000e+000
      vertex -2.862768e+000 -2.793664e+000  4.500000e+000
      vertex -1.370176e+000 -2.891819e+000  4.500000e+000
    endloop
  endfacet
  facet normal  0.000000e+000  0.000000e+000  1.000000e+000
    outer loop
      vertex -2.002887e+000 -3.462433e+000  4.500000e+000
      vertex -4.094934e-001 -3.173691e+000  4.500000e+000
      vertex -2.455700e+000 -3.157458e+000  4.500000e+000
    endloop
  endfacet
  facet normal  -0.000000e+000  0.000000e+000  1.000000e+000
    outer loop
      vertex -2.455700e+000 -3.157458e+000  4.500000e+000
      vertex -4.094934e-001 -3.173691e+000  4.500000e+000
      vertex -9.009265e-001 -3.070559e+000  4.500000e+000
    endloop
  endfacet
  facet normal  0.000000e+000  0.000000e+000  1.000000e+000
    outer loop
      vertex -2.455700e+000 -3.157458e+000  4.500000e+000
      vertex -9.009265e-001 -3.070559e+000  4.500000e+000
      vertex -2.862768e+000 -2.793664e+000  4.500000e+000
    endloop
  endfacet
  facet normal  0.000000e+000  0.000000e+000  1.000000e+000
    outer loop
      vertex -2.862768e+000 -2.793664e+000  4.500000e+000
      vertex -9.009265e-001 -3.070559e+000  4.500000e+000
      vertex -1.370176e+000 -2.891819e+000  4.500000e+000
    endloop
  endfacet
  facet normal  0.000000e+000  0.000000e+000  1.000000e+000
    outer loop
      vertex  1.805687e+000  2.641873e+000  4.500000e+000
      vertex  3.216508e+000  2.377831e+000  4.500000e+000
      vertex  1.370176e+000  2.891819e+000  4.500000e+000
    endloop
  endfacet
  facet normal  0.000000e+000  0.000000e+000  1.000000e+000
    outer loop
      vertex  1.370176e+000  2.891819e+000  4.500000e+000
      vertex  3.216508e+000  2.377831e+000  4.500000e+000
      vertex  2.862768e+000  2.793664e+000  4.500000e+000
    endloop
  endfacet
  facet normal  0.000000e+000  0.000000e+000  1.000000e+000
    outer loop
      vertex  1.370176e+000  2.891819e+000  4.500000e+000
      vertex  2.862768e+000  2.793664e+000  4.500000e+000
      vertex  9.009265e-001  3.070559e+000  4.500000e+000
    endloop
  endfacet
  facet normal  -0.000000e+000  0.000000e+000  1.000000e+000
    outer loop
      vertex  3.216508e+000  2.377831e+000  4.500000e+000
      vertex  2.196736e+000  2.326876e+000  4.500000e+000
      vertex  3.510330e+000  1.917702e+000  4.500000e+000
    endloop
  endfacet
  facet normal  0.000000e+000  0.000000e+000  1.000000e+000
    outer loop
      vertex  3.510330e+000  1.917702e+000  4.500000e+000
      vertex  2.196736e+000  2.326876e+000  4.500000e+000
      vertex  2.533694e+000  1.954583e+000  4.500000e+000
    endloop
  endfacet
  facet normal  0.000000e+000  0.000000e+000  1.000000e+000
    outer loop
      vertex  3.510330e+000  1.917702e+000  4.500000e+000
      vertex  2.533694e+000  1.954583e+000  4.500000e+000
      vertex  3.738762e+000  1.421851e+000  4.500000e+000
    endloop
  endfacet
  facet normal  0.000000e+000  0.000000e+000  1.000000e+000
    outer loop
      vertex  3.738762e+000  1.421851e+000  4.500000e+000
      vertex  2.533694e+000  1.954583e+000  4.500000e+000
      vertex  2.808264e+000  1.534162e+000  4.500000e+000
    endloop
  endfacet
  facet normal  0.000000e+000  0.000000e+000  1.000000e+000
    outer loop
      vertex  3.738762e+000  1.421851e+000  4.500000e+000
      vertex  2.808264e+000  1.534162e+000  4.500000e+000
      vertex  3.897547e+000  8.995128e-001  4.500000e+000
    endloop
  endfacet
  facet normal  0.000000e+000  0.000000e+000  1.000000e+000
    outer loop
      vertex  3.897547e+000  8.995128e-001  4.500000e+000
      vertex  2.808264e+000  1.534162e+000  4.500000e+000
      vertex  3.013685e+000  1.075964e+000  4.500000e+000
    endloop
  endfacet
  facet normal  0.000000e+000  0.000000e+000  1.000000e+000
    outer loop
      vertex  3.897547e+000  8.995128e-001  4.500000e+000
      vertex  3.013685e+000  1.075964e+000  4.500000e+000
      vertex  3.983729e+000  3.604187e-001  4.500000e+000
    endloop
  endfacet
  facet normal  0.000000e+000  0.000000e+000  1.000000e+000
    outer loop
      vertex  3.983729e+000  3.604187e-001  4.500000e+000
      vertex  3.013685e+000  1.075964e+000  4.500000e+000
      vertex  3.144900e+000  5.912731e-001  4.500000e+000
    endloop
  endfacet
  facet normal  0.000000e+000  0.000000e+000  9.999999e-001
    outer loop
      vertex  3.983729e+000  3.604187e-001  4.500000e+000
      vertex  3.144900e+000  5.912731e-001  4.500000e+000
      vertex  3.995702e+000 -1.853893e-001  4.500000e+000
    endloop
  endfacet
  facet normal  0.000000e+000  0.000000e+000  9.999999e-001
    outer loop
      vertex  3.995702e+000 -1.853893e-001  4.500000e+000
      vertex  3.144900e+000  5.912731e-001  4.500000e+000
      vertex  3.198677e+000  9.202284e-002  4.500000e+000
    endloop
  endfacet
  facet normal  0.000000e+000  0.000000e+000  1.000000e+000
    outer loop
      vertex  3.995702e+000 -1.853893e-001  4.500000e+000
      vertex  3.198677e+000  9.202284e-002  4.500000e+000
      vertex  3.173691e+000 -4.094934e-001  4.500000e+000
    endloop
  endfacet
  facet normal  -0.000000e+000  0.000000e+000  1.000000e+000
    outer loop
      vertex  3.995702e+000 -1.853893e-001  4.500000e+000
      vertex  3.173691e+000 -4.094934e-001  4.500000e+000
      vertex  3.933242e+000 -7.277439e-001  4.500000e+000
    endloop
  endfacet
  facet normal  0.000000e+000  0.000000e+000  1.000000e+000
    outer loop
      vertex  3.933242e+000 -7.277439e-001  4.500000e+000
      vertex  3.173691e+000 -4.094934e-001  4.500000e+000
      vertex  3.070559e+000 -9.009265e-001  4.500000e+000
    endloop
  endfacet
  facet normal  -0.000000e+000  0.000000e+000  1.000000e+000
    outer loop
      vertex  3.933242e+000 -7.277439e-001  4.500000e+000
      vertex  3.070559e+000 -9.009265e-001  4.500000e+000
      vertex  3.797513e+000 -1.256542e+000  4.500000e+000
    endloop
  endfacet
  facet normal  0.000000e+000  0.000000e+000  1.000000e+000
    outer loop
      vertex  3.797513e+000 -1.256542e+000  4.500000e+000
      vertex  3.070559e+000 -9.009265e-001  4.500000e+000
      vertex  2.891819e+000 -1.370176e+000  4.500000e+000
    endloop
  endfacet
  facet normal  -0.000000e+000  0.000000e+000  9.999999e-001
    outer loop
      vertex  3.797513e+000 -1.256542e+000  4.500000e+000
      vertex  2.891819e+000 -1.370176e+000  4.500000e+000
      vertex  3.591043e+000 -1.761933e+000  4.500000e+000
    endloop
  endfacet
  facet normal  0.000000e+000  0.000000e+000  1.000000e+000
    outer loop
      vertex  3.591043e+000 -1.761933e+000  4.500000e+000
      vertex  2.891819e+000 -1.370176e+000  4.500000e+000
      vertex  2.641873e+000 -1.805687e+000  4.500000e+000
    endloop
  endfacet
  facet normal  -0.000000e+000  0.000000e+000  1.000000e+000
    outer loop
      vertex  3.591043e+000 -1.761933e+000  4.500000e+000
      vertex  2.641873e+000 -1.805687e+000  4.500000e+000
      vertex  3.317680e+000 -2.234503e+000  4.500000e+000
    endloop
  endfacet
  facet normal  0.000000e+000  0.000000e+000  1.000000e+000
    outer loop
      vertex  3.317680e+000 -2.234503e+000  4.500000e+000
      vertex  2.641873e+000 -1.805687e+000  4.500000e+000
      vertex  2.326876e+000 -2.196736e+000  4.500000e+000
    endloop
  endfacet
  facet normal  0.000000e+000  0.000000e+000  1.000000e+000
    outer loop
      vertex  3.317680e+000 -2.234503e+000  4.500000e+000
      vertex  2.326876e+000 -2.196736e+000  4.500000e+000
      vertex  2.982514e+000 -2.665448e+000  4.500000e+000
    endloop
  endfacet
  facet normal  0.000000e+000  0.000000e+000  1.000000e+000
    outer loop
      vertex  2.982514e+000 -2.665448e+000  4.500000e+000
      vertex  2.326876e+000 -2.196736e+000  4.500000e+000
      vertex  1.954583e+000 -2.533694e+000  4.500000e+000
    endloop
  endfacet
  facet normal  0.000000e+000  0.000000e+000  1.000000e+000
    outer loop
      vertex  2.982514e+000 -2.665448e+000  4.500000e+000
      vertex  1.954583e+000 -2.533694e+000  4.500000e+000
      vertex  2.591789e+000 -3.046741e+000  4.500000e+000
    endloop
  endfacet
  facet normal  0.000000e+000  0.000000e+000  1.000000e+000
    outer loop
      vertex  2.591789e+000 -3.046741e+000  4.500000e+000
      vertex  1.954583e+000 -2.533694e+000  4.500000e+000
      vertex  1.534162e+000 -2.808264e+000  4.500000e+000
    endloop
  endfacet
  facet normal  0.000000e+000  0.000000e+000  1.000000e+000
    outer loop
      vertex  2.591789e+000 -3.046741e+000  4.500000e+000
      vertex  1.534162e+000 -2.808264e+000  4.500000e+000
      vertex  1.075964e+000 -3.013685e+000  4.500000e+000
    endloop
  endfacet
  facet normal  0.000000e+000  0.000000e+000  1.000000e+000
    outer loop
      vertex  5.912731e-001 -3.144900e+000  4.500000e+000
      vertex  2.152785e+000 -3.371278e+000  4.500000e+000
      vertex  1.075964e+000 -3.013685e+000  4.500000e+000
    endloop
  endfacet
  facet normal  0.000000e+000  0.000000e+000  1.000000e+000
    outer loop
      vertex  1.075964e+000 -3.013685e+000  4.500000e+000
      vertex  2.152785e+000 -3.371278e+000  4.500000e+000
      vertex  2.591789e+000 -3.046741e+000  4.500000e+000
    endloop
  endfacet
  facet normal -3.661586e-016 -4.545623e-016 -1.000000e+000
    outer loop
      vertex  2.196736e+000  2.326876e+000 -8.881784e-016
      vertex  1.805687e+000  2.641873e+000 -8.881784e-016
      vertex  4.475671e+000  2.445070e+000 -1.776357e-015
    endloop
  endfacet
  facet normal  0.000000e+000  0.000000e+000 -9.999999e-001
    outer loop
      vertex -3.760473e+000 -3.445119e+000 -1.776357e-015
      vertex -5.302176e-001 -5.072363e+000 -1.776357e-015
      vertex -1.137758e+000 -4.971469e+000 -1.776357e-015
    endloop
  endfacet
  facet normal  0.000000e+000  0.000000e+000 -1.000000e+000
    outer loop
      vertex -3.760473e+000 -3.445119e+000 -1.776357e-015
      vertex -1.137758e+000 -4.971469e+000 -1.776357e-015
      vertex -1.728706e+000 -4.798080e+000 -1.776357e-015
    endloop
  endfacet
  facet normal  0.000000e+000  0.000000e+000 -1.000000e+000
    outer loop
      vertex -3.760473e+000 -3.445119e+000 -1.776357e-015
      vertex -1.728706e+000 -4.798080e+000 -1.776357e-015
      vertex -2.294447e+000 -4.554724e+000 -1.776357e-015
    endloop
  endfacet
  facet normal  0.000000e+000  0.000000e+000 -1.000000e+000
    outer loop
      vertex -3.760473e+000 -3.445119e+000 -1.776357e-015
      vertex -2.294447e+000 -4.554724e+000 -1.776357e-015
      vertex -2.826729e+000 -4.244950e+000 -1.776357e-015
    endloop
  endfacet
  facet normal  0.000000e+000  0.000000e+000 -1.000000e+000
    outer loop
      vertex -3.760473e+000 -3.445119e+000 -1.776357e-015
      vertex -2.826729e+000 -4.244950e+000 -1.776357e-015
      vertex -3.317791e+000 -3.873275e+000 -1.776357e-015
    endloop
  endfacet
  facet normal -1.817398e-016  1.687236e-015 -1.000000e+000
    outer loop
      vertex  9.202284e-002 -3.198677e+000 -8.881784e-016
      vertex  5.912731e-001 -3.144900e+000 -8.881784e-016
      vertex  3.873275e+000 -3.317791e+000 -1.776357e-015
    endloop
  endfacet
  facet normal -2.279450e-016  2.204657e-016 -1.000000e+000
    outer loop
      vertex  9.202284e-002 -3.198677e+000 -8.881784e-016
      vertex  3.873275e+000 -3.317791e+000 -1.776357e-015
      vertex  3.445119e+000 -3.760473e+000 -1.776357e-015
    endloop
  endfacet
  facet normal -2.195173e-016  2.707670e-016 -1.000000e+000
    outer loop
      vertex  9.202284e-002 -3.198677e+000 -8.881784e-016
      vertex  3.445119e+000 -3.760473e+000 -1.776357e-015
      vertex  2.966725e+000 -4.148318e+000 -1.776357e-015
    endloop
  endfacet
  facet normal -2.024105e-016  3.225518e-016 -1.000000e+000
    outer loop
      vertex  9.202284e-002 -3.198677e+000 -8.881784e-016
      vertex  2.966725e+000 -4.148318e+000 -1.776357e-015
      vertex  2.445070e+000 -4.475671e+000 -1.776357e-015
    endloop
  endfacet
  facet normal -1.752357e-016  3.726254e-016 -1.000000e+000
    outer loop
      vertex  9.202284e-002 -3.198677e+000 -8.881784e-016
      vertex  2.445070e+000 -4.475671e+000 -1.776357e-015
      vertex  1.887760e+000 -4.737759e+000 -1.776357e-015
    endloop
  endfacet
  facet normal -1.374992e-016  4.166547e-016 -9.999999e-001
    outer loop
      vertex  9.202284e-002 -3.198677e+000 -8.881784e-016
      vertex  1.887760e+000 -4.737759e+000 -1.776357e-015
      vertex  1.302923e+000 -4.930760e+000 -1.776357e-015
    endloop
  endfacet
  facet normal -9.019233e-017  4.497270e-016 -1.000000e+000
    outer loop
      vertex  9.202284e-002 -3.198677e+000 -8.881784e-016
      vertex  1.302923e+000 -4.930760e+000 -1.776357e-015
      vertex  6.990855e-001 -5.051859e+000 -1.776357e-015
    endloop
  endfacet
  facet normal -2.327721e-017 -4.672259e-016 -9.999999e-001
    outer loop
      vertex  4.094934e-001  3.173691e+000 -8.881784e-016
      vertex -9.202284e-002  3.198677e+000 -8.881784e-016
      vertex -8.505413e-002  5.099291e+000 -1.776357e-015
    endloop
  endfacet
  facet normal -2.041606e-017 -4.664911e-016 -1.000000e+000
    outer loop
      vertex  4.094934e-001  3.173691e+000 -8.881784e-016
      vertex -8.505413e-002  5.099291e+000 -1.776357e-015
      vertex  5.302176e-001  5.072363e+000 -1.776357e-015
    endloop
  endfacet
  facet normal -7.687388e-017 -4.629013e-016 -1.000000e+000
    outer loop
      vertex  4.094934e-001  3.173691e+000 -8.881784e-016
      vertex  5.302176e-001  5.072363e+000 -1.776357e-015
      vertex  1.137758e+000  4.971469e+000 -1.776357e-015
    endloop
  endfacet
  facet normal -1.295571e-016 -4.415598e-016 -1.000000e+000
    outer loop
      vertex  4.094934e-001  3.173691e+000 -8.881784e-016
      vertex  1.137758e+000  4.971469e+000 -1.776357e-015
      vertex  1.728706e+000  4.798080e+000 -1.776357e-015
    endloop
  endfacet
  facet normal -1.743064e-016 -4.052176e-016 -1.000000e+000
    outer loop
      vertex  4.094934e-001  3.173691e+000 -8.881784e-016
      vertex  1.728706e+000  4.798080e+000 -1.776357e-015
      vertex  2.294447e+000  4.554724e+000 -1.776357e-015
    endloop
  endfacet
  facet normal -2.085919e-016 -3.584218e-016 -1.000000e+000
    outer loop
      vertex  4.094934e-001  3.173691e+000 -8.881784e-016
      vertex  2.294447e+000  4.554724e+000 -1.776357e-015
      vertex  2.826729e+000  4.244950e+000 -1.776357e-015
    endloop
  endfacet
  facet normal -2.317432e-016 -3.061823e-016 -1.000000e+000
    outer loop
      vertex  4.094934e-001  3.173691e+000 -8.881784e-016
      vertex  2.826729e+000  4.244950e+000 -1.776357e-015
      vertex  3.317791e+000  3.873275e+000 -1.776357e-015
    endloop
  endfacet
  facet normal -2.445684e-016 -2.528654e-016 -1.000000e+000
    outer loop
      vertex  4.094934e-001  3.173691e+000 -8.881784e-016
      vertex  3.317791e+000  3.873275e+000 -1.776357e-015
      vertex  3.760473e+000  3.445119e+000 -1.776357e-015
    endloop
  endfacet
  facet normal -2.487176e-016 -2.016413e-016 -1.000000e+000
    outer loop
      vertex  4.094934e-001  3.173691e+000 -8.881784e-016
      vertex  3.760473e+000  3.445119e+000 -1.776357e-015
      vertex  4.148318e+000  2.966725e+000 -1.776357e-015
    endloop
  endfacet
  facet normal -3.226669e-016 -1.537533e-015 -1.000000e+000
    outer loop
      vertex  4.094934e-001  3.173691e+000 -8.881784e-016
      vertex  4.148318e+000  2.966725e+000 -1.776357e-015
      vertex  9.009265e-001  3.070559e+000 -8.881784e-016
    endloop
  endfacet
  facet normal  1.817398e-016 -1.687236e-015 -1.000000e+000
    outer loop
      vertex -9.202284e-002  3.198677e+000 -8.881784e-016
      vertex -5.912731e-001  3.144900e+000 -8.881784e-016
      vertex -3.873275e+000  3.317791e+000 -1.776357e-015
    endloop
  endfacet
  facet normal  2.279450e-016 -2.204657e-016 -1.000000e+000
    outer loop
      vertex -9.202284e-002  3.198677e+000 -8.881784e-016
      vertex -3.873275e+000  3.317791e+000 -1.776357e-015
      vertex -3.445119e+000  3.760473e+000 -1.776357e-015
    endloop
  endfacet
  facet normal  2.195173e-016 -2.707670e-016 -1.000000e+000
    outer loop
      vertex -9.202284e-002  3.198677e+000 -8.881784e-016
      vertex -3.445119e+000  3.760473e+000 -1.776357e-015
      vertex -2.966725e+000  4.148318e+000 -1.776357e-015
    endloop
  endfacet
  facet normal  2.024105e-016 -3.225518e-016 -1.000000e+000
    outer loop
      vertex -9.202284e-002  3.198677e+000 -8.881784e-016
      vertex -2.966725e+000  4.148318e+000 -1.776357e-015
      vertex -2.445070e+000  4.475671e+000 -1.776357e-015
    endloop
  endfacet
  facet normal  1.752357e-016 -3.726254e-016 -1.000000e+000
    outer loop
      vertex -9.202284e-002  3.198677e+000 -8.881784e-016
      vertex -2.445070e+000  4.475671e+000 -1.776357e-015
      vertex -1.887760e+000  4.737759e+000 -1.776357e-015
    endloop
  endfacet
  facet normal  1.374992e-016 -4.166547e-016 -9.999999e-001
    outer loop
      vertex -9.202284e-002  3.198677e+000 -8.881784e-016
      vertex -1.887760e+000  4.737759e+000 -1.776357e-015
      vertex -1.302923e+000  4.930760e+000 -1.776357e-015
    endloop
  endfacet
  facet normal  9.019233e-017 -4.497270e-016 -1.000000e+000
    outer loop
      vertex -9.202284e-002  3.198677e+000 -8.881784e-016
      vertex -1.302923e+000  4.930760e+000 -1.776357e-015
      vertex -6.990855e-001  5.051859e+000 -1.776357e-015
    endloop
  endfacet
  facet normal  3.610851e-017 -4.674437e-016 -1.000000e+000
    outer loop
      vertex -9.202284e-002  3.198677e+000 -8.881784e-016
      vertex -6.990855e-001  5.051859e+000 -1.776357e-015
      vertex -8.505413e-002  5.099291e+000 -1.776357e-015
    endloop
  endfacet
  facet normal -3.610851e-017  4.674437e-016 -1.000000e+000
    outer loop
      vertex  6.990855e-001 -5.051859e+000 -1.776357e-015
      vertex  8.505413e-002 -5.099291e+000 -1.776357e-015
      vertex  9.202284e-002 -3.198677e+000 -8.881784e-016
    endloop
  endfacet
  facet normal  2.327721e-017  4.672259e-016 -9.999999e-001
    outer loop
      vertex  9.202284e-002 -3.198677e+000 -8.881784e-016
      vertex  8.505413e-002 -5.099291e+000 -1.776357e-015
      vertex -4.094934e-001 -3.173691e+000 -8.881784e-016
    endloop
  endfacet
  facet normal  2.041606e-017  4.664911e-016 -1.000000e+000
    outer loop
      vertex  8.505413e-002 -5.099291e+000 -1.776357e-015
      vertex -5.302176e-001 -5.072363e+000 -1.776357e-015
      vertex -4.094934e-001 -3.173691e+000 -8.881784e-016
    endloop
  endfacet
  facet normal  2.283357e-016  4.532708e-016 -1.000000e+000
    outer loop
      vertex -4.094934e-001 -3.173691e+000 -8.881784e-016
      vertex -5.302176e-001 -5.072363e+000 -1.776357e-015
      vertex -3.760473e+000 -3.445119e+000 -1.776357e-015
    endloop
  endfacet
  facet normal  3.227422e-016 -7.198845e-016 -1.000000e+000
    outer loop
      vertex -1.534162e+000  2.808264e+000 -8.881784e-016
      vertex -4.244950e+000  2.826729e+000 -1.776357e-015
      vertex -1.075964e+000  3.013685e+000 -8.881784e-016
    endloop
  endfacet
  facet normal  2.933720e-016 -2.220473e-016 -1.000000e+000
    outer loop
      vertex -1.075964e+000  3.013685e+000 -8.881784e-016
      vertex -4.244950e+000  2.826729e+000 -1.776357e-015
      vertex -3.873275e+000  3.317791e+000 -1.776357e-015
    endloop
  endfacet
  facet normal  2.265390e-016 -8.368086e-016 -1.000000e+000
    outer loop
      vertex -1.075964e+000  3.013685e+000 -8.881784e-016
      vertex -3.873275e+000  3.317791e+000 -1.776357e-015
      vertex -5.912731e-001  3.144900e+000 -8.881784e-016
    endloop
  endfacet
  facet normal  3.802450e-016 -4.201191e-016 -1.000000e+000
    outer loop
      vertex -2.326876e+000  2.196736e+000 -8.881784e-016
      vertex -4.554724e+000  2.294447e+000 -1.776357e-015
      vertex -1.954583e+000  2.533694e+000 -8.881784e-016
    endloop
  endfacet
  facet normal  3.609152e-016 -2.100430e-016 -1.000000e+000
    outer loop
      vertex -1.954583e+000  2.533694e+000 -8.881784e-016
      vertex -4.554724e+000  2.294447e+000 -1.776357e-015
      vertex -4.244950e+000  2.826729e+000 -1.776357e-015
    endloop
  endfacet
  facet normal  3.242637e-016 -4.965119e-016 -9.999999e-001
    outer loop
      vertex -1.954583e+000  2.533694e+000 -8.881784e-016
      vertex -4.244950e+000  2.826729e+000 -1.776357e-015
      vertex -1.534162e+000  2.808264e+000 -8.881784e-016
    endloop
  endfacet
  facet normal  4.616294e-016 -9.687764e-017 -1.000000e+000
    outer loop
      vertex -3.173691e+000  4.094934e-001 -8.881784e-016
      vertex -5.072363e+000  5.302176e-001 -1.776357e-015
      vertex -3.070559e+000  9.009265e-001 -8.881784e-016
    endloop
  endfacet
  facet normal  4.577670e-016 -7.602123e-017 -1.000000e+000
    outer loop
      vertex -3.070559e+000  9.009265e-001 -8.881784e-016
      vertex -5.072363e+000  5.302176e-001 -1.776357e-015
      vertex -4.971469e+000  1.137758e+000 -1.776357e-015
    endloop
  endfacet
  facet normal  4.460696e-016 -1.699102e-016 -1.000000e+000
    outer loop
      vertex -3.070559e+000  9.009265e-001 -8.881784e-016
      vertex -4.971469e+000  1.137758e+000 -1.776357e-015
      vertex -2.891819e+000  1.370176e+000 -8.881784e-016
    endloop
  endfacet
  facet normal  4.415598e-016 -1.295571e-016 -1.000000e+000
    outer loop
      vertex -2.891819e+000  1.370176e+000 -8.881784e-016
      vertex -4.971469e+000  1.137758e+000 -1.776357e-015
      vertex -4.798080e+000  1.728706e+000 -1.776357e-015
    endloop
  endfacet
  facet normal  4.205336e-016 -2.413502e-016 -1.000000e+000
    outer loop
      vertex -2.891819e+000  1.370176e+000 -8.881784e-016
      vertex -4.798080e+000  1.728706e+000 -1.776357e-015
      vertex -2.641873e+000  1.805687e+000 -8.881784e-016
    endloop
  endfacet
  facet normal  4.183417e-016 -1.799518e-016 -1.000000e+000
    outer loop
      vertex -2.641873e+000  1.805687e+000 -8.881784e-016
      vertex -4.798080e+000  1.728706e+000 -1.776357e-015
      vertex -4.554724e+000  2.294447e+000 -1.776357e-015
    endloop
  endfacet
  facet normal  3.850669e-016 -3.101787e-016 -1.000000e+000
    outer loop
      vertex -2.641873e+000  1.805687e+000 -8.881784e-016
      vertex -4.554724e+000  2.294447e+000 -1.776357e-015
      vertex -2.326876e+000  2.196736e+000 -8.881784e-016
    endloop
  endfacet
  facet normal  4.111129e-016  2.684911e-016 -1.000000e+000
    outer loop
      vertex -2.533694e+000 -1.954583e+000 -8.881784e-016
      vertex -4.737759e+000 -1.887760e+000 -1.776357e-015
      vertex -2.808264e+000 -1.534162e+000 -8.881784e-016
    endloop
  endfacet
  facet normal  4.340655e-016  1.432449e-016 -1.000000e+000
    outer loop
      vertex -2.808264e+000 -1.534162e+000 -8.881784e-016
      vertex -4.737759e+000 -1.887760e+000 -1.776357e-015
      vertex -4.930760e+000 -1.302923e+000 -1.776357e-015
    endloop
  endfacet
  facet normal  4.399481e-016  1.972396e-016 -9.999999e-001
    outer loop
      vertex -2.808264e+000 -1.534162e+000 -8.881784e-016
      vertex -4.930760e+000 -1.302923e+000 -1.776357e-015
      vertex -3.013685e+000 -1.075964e+000 -8.881784e-016
    endloop
  endfacet
  facet normal  4.525540e-016  9.075930e-017 -1.000000e+000
    outer loop
      vertex -3.013685e+000 -1.075964e+000 -8.881784e-016
      vertex -4.930760e+000 -1.302923e+000 -1.776357e-015
      vertex -5.051859e+000 -6.990855e-001 -1.776357e-015
    endloop
  endfacet
  facet normal  4.587354e-016  1.241879e-016 -1.000000e+000
    outer loop
      vertex -3.013685e+000 -1.075964e+000 -8.881784e-016
      vertex -5.051859e+000 -6.990855e-001 -1.776357e-015
      vertex -3.144900e+000 -5.912731e-001 -8.881784e-016
    endloop
  endfacet
  facet normal  4.637313e-016  3.582174e-017 -1.000000e+000
    outer loop
      vertex -3.144900e+000 -5.912731e-001 -8.881784e-016
      vertex -5.051859e+000 -6.990855e-001 -1.776357e-015
      vertex -5.099291e+000 -8.505413e-002 -1.776357e-015
    endloop
  endfacet
  facet normal  4.674959e-016  5.035609e-017 -1.000000e+000
    outer loop
      vertex -3.144900e+000 -5.912731e-001 -8.881784e-016
      vertex -5.099291e+000 -8.505413e-002 -1.776357e-015
      vertex -3.198677e+000 -9.202284e-002 -8.881784e-016
    endloop
  endfacet
  facet normal  4.672362e-016 -2.044867e-017 -1.000000e+000
    outer loop
      vertex -3.198677e+000 -9.202284e-002 -8.881784e-016
      vertex -5.099291e+000 -8.505413e-002 -1.776357e-015
      vertex -5.072363e+000  5.302176e-001 -1.776357e-015
    endloop
  endfacet
  facet normal  4.663120e-016 -2.323168e-017 -1.000000e+000
    outer loop
      vertex -3.198677e+000 -9.202284e-002 -8.881784e-016
      vertex -5.072363e+000  5.302176e-001 -1.776357e-015
      vertex -3.173691e+000  4.094934e-001 -8.881784e-016
    endloop
  endfacet
  facet normal  3.053566e-016  5.320599e-016 -1.000000e+000
    outer loop
      vertex -1.370176e+000 -2.891819e+000 -8.881784e-016
      vertex -4.148318e+000 -2.966725e+000 -1.776357e-015
      vertex -1.805687e+000 -2.641873e+000 -8.881784e-016
    endloop
  endfacet
  facet normal  3.487860e-016  2.188732e-016 -1.000000e+000
    outer loop
      vertex -1.805687e+000 -2.641873e+000 -8.881784e-016
      vertex -4.148318e+000 -2.966725e+000 -1.776357e-015
      vertex -4.475671e+000 -2.445070e+000 -1.776357e-015
    endloop
  endfacet
  facet normal  3.661586e-016  4.545622e-016 -1.000000e+000
    outer loop
      vertex -1.805687e+000 -2.641873e+000 -8.881784e-016
      vertex -4.475671e+000 -2.445070e+000 -1.776357e-015
      vertex -2.196736e+000 -2.326876e+000 -8.881784e-016
    endloop
  endfacet
  facet normal  3.804545e-016  1.789175e-016 -1.000000e+000
    outer loop
      vertex -2.196736e+000 -2.326876e+000 -8.881784e-016
      vertex -4.475671e+000 -2.445070e+000 -1.776357e-015
      vertex -4.737759e+000 -1.887760e+000 -1.776357e-015
    endloop
  endfacet
  facet normal  4.143426e-016  3.750167e-016 -9.999999e-001
    outer loop
      vertex -2.196736e+000 -2.326876e+000 -8.881784e-016
      vertex -4.737759e+000 -1.887760e+000 -1.776357e-015
      vertex -2.533694e+000 -1.954583e+000 -8.881784e-016
    endloop
  endfacet
  facet normal  1.912383e-016  9.112648e-016 -1.000000e+000
    outer loop
      vertex -4.094934e-001 -3.173691e+000 -8.881784e-016
      vertex -3.760473e+000 -3.445119e+000 -1.776357e-015
      vertex -9.009265e-001 -3.070559e+000 -8.881784e-016
    endloop
  endfacet
  facet normal  2.807838e-016  2.276380e-016 -1.000000e+000
    outer loop
      vertex -9.009265e-001 -3.070559e+000 -8.881784e-016
      vertex -3.760473e+000 -3.445119e+000 -1.776357e-015
      vertex -4.148318e+000 -2.966725e+000 -1.776357e-015
    endloop
  endfacet
  facet normal  2.985680e-016  7.838377e-016 -1.000000e+000
    outer loop
      vertex -9.009265e-001 -3.070559e+000 -8.881784e-016
      vertex -4.148318e+000 -2.966725e+000 -1.776357e-015
      vertex -1.370176e+000 -2.891819e+000 -8.881784e-016
    endloop
  endfacet
  facet normal -2.985680e-016 -7.838377e-016 -1.000000e+000
    outer loop
      vertex  9.009265e-001  3.070559e+000 -8.881784e-016
      vertex  4.148318e+000  2.966725e+000 -1.776357e-015
      vertex  1.370176e+000  2.891819e+000 -8.881784e-016
    endloop
  endfacet
  facet normal -3.143830e-016 -1.972843e-016 -1.000000e+000
    outer loop
      vertex  1.370176e+000  2.891819e+000 -8.881784e-016
      vertex  4.148318e+000  2.966725e+000 -1.776357e-015
      vertex  4.475671e+000  2.445070e+000 -1.776357e-015
    endloop
  endfacet
  facet normal -3.816723e-016 -6.650341e-016 -1.000000e+000
    outer loop
      vertex  1.370176e+000  2.891819e+000 -8.881784e-016
      vertex  4.475671e+000  2.445070e+000 -1.776357e-015
      vertex  1.805687e+000  2.641873e+000 -8.881784e-016
    endloop
  endfacet
  facet normal -4.399481e-016 -1.972396e-016 -9.999999e-001
    outer loop
      vertex  3.013685e+000  1.075964e+000 -8.881784e-016
      vertex  2.808264e+000  1.534162e+000 -8.881784e-016
      vertex  4.930760e+000  1.302923e+000 -1.776357e-015
    endloop
  endfacet
  facet normal -4.505142e-016 -2.942234e-016 -1.000000e+000
    outer loop
      vertex  4.930760e+000  1.302923e+000 -1.776357e-015
      vertex  2.808264e+000  1.534162e+000 -8.881784e-016
      vertex  2.533694e+000  1.954583e+000 -8.881784e-016
    endloop
  endfacet
  facet normal -4.070454e-016 -1.343280e-016 -1.000000e+000
    outer loop
      vertex  4.930760e+000  1.302923e+000 -1.776357e-015
      vertex  2.533694e+000  1.954583e+000 -8.881784e-016
      vertex  4.737759e+000  1.887760e+000 -1.776357e-015
    endloop
  endfacet
  facet normal -4.143426e-016 -3.750167e-016 -9.999999e-001
    outer loop
      vertex  4.737759e+000  1.887760e+000 -1.776357e-015
      vertex  2.533694e+000  1.954583e+000 -8.881784e-016
      vertex  2.196736e+000  2.326876e+000 -8.881784e-016
    endloop
  endfacet
  facet normal -3.804545e-016 -1.789175e-016 -1.000000e+000
    outer loop
      vertex  4.737759e+000  1.887760e+000 -1.776357e-015
      vertex  2.196736e+000  2.326876e+000 -8.881784e-016
      vertex  4.475671e+000  2.445070e+000 -1.776357e-015
    endloop
  endfacet
  facet normal -4.460696e-016  1.699102e-016 -1.000000e+000
    outer loop
      vertex  2.891819e+000 -1.370176e+000 -8.881784e-016
      vertex  3.070559e+000 -9.009265e-001 -8.881784e-016
      vertex  4.971469e+000 -1.137758e+000 -1.776357e-015
    endloop
  endfacet
  facet normal -4.553332e-016  9.555632e-017 -1.000000e+000
    outer loop
      vertex  4.971469e+000 -1.137758e+000 -1.776357e-015
      vertex  3.070559e+000 -9.009265e-001 -8.881784e-016
      vertex  3.173691e+000 -4.094934e-001 -8.881784e-016
    endloop
  endfacet
  facet normal -4.629013e-016  7.687388e-017 -1.000000e+000
    outer loop
      vertex  4.971469e+000 -1.137758e+000 -1.776357e-015
      vertex  3.173691e+000 -4.094934e-001 -8.881784e-016
      vertex  5.072363e+000 -5.302176e-001 -1.776357e-015
    endloop
  endfacet
  facet normal -4.663120e-016  2.323168e-017 -1.000000e+000
    outer loop
      vertex  5.072363e+000 -5.302176e-001 -1.776357e-015
      vertex  3.173691e+000 -4.094934e-001 -8.881784e-016
      vertex  3.198677e+000  9.202284e-002 -8.881784e-016
    endloop
  endfacet
  facet normal -4.672362e-016  2.044867e-017 -1.000000e+000
    outer loop
      vertex  5.072363e+000 -5.302176e-001 -1.776357e-015
      vertex  3.198677e+000  9.202284e-002 -8.881784e-016
      vertex  5.099291e+000  8.505413e-002 -1.776357e-015
    endloop
  endfacet
  facet normal -4.674959e-016 -5.035609e-017 -1.000000e+000
    outer loop
      vertex  5.099291e+000  8.505413e-002 -1.776357e-015
      vertex  3.198677e+000  9.202284e-002 -8.881784e-016
      vertex  3.144900e+000  5.912731e-001 -8.881784e-016
    endloop
  endfacet
  facet normal -4.637313e-016 -3.582174e-017 -1.000000e+000
    outer loop
      vertex  5.099291e+000  8.505413e-002 -1.776357e-015
      vertex  3.144900e+000  5.912731e-001 -8.881784e-016
      vertex  5.051859e+000  6.990855e-001 -1.776357e-015
    endloop
  endfacet
  facet normal -4.587354e-016 -1.241879e-016 -1.000000e+000
    outer loop
      vertex  5.051859e+000  6.990855e-001 -1.776357e-015
      vertex  3.144900e+000  5.912731e-001 -8.881784e-016
      vertex  3.013685e+000  1.075964e+000 -8.881784e-016
    endloop
  endfacet
  facet normal -4.525540e-016 -9.075930e-017 -1.000000e+000
    outer loop
      vertex  5.051859e+000  6.990855e-001 -1.776357e-015
      vertex  3.013685e+000  1.075964e+000 -8.881784e-016
      vertex  4.930760e+000  1.302923e+000 -1.776357e-015
    endloop
  endfacet
  facet normal -3.242637e-016  4.965118e-016 -1.000000e+000
    outer loop
      vertex  1.534162e+000 -2.808264e+000 -8.881784e-016
      vertex  1.954583e+000 -2.533694e+000 -8.881784e-016
      vertex  4.244950e+000 -2.826729e+000 -1.776357e-015
    endloop
  endfacet
  facet normal -3.397605e-016  3.753891e-016 -9.999999e-001
    outer loop
      vertex  4.244950e+000 -2.826729e+000 -1.776357e-015
      vertex  1.954583e+000 -2.533694e+000 -8.881784e-016
      vertex  2.326876e+000 -2.196736e+000 -8.881784e-016
    endloop
  endfacet
  facet normal -3.887483e-016  2.262411e-016 -9.999999e-001
    outer loop
      vertex  4.244950e+000 -2.826729e+000 -1.776357e-015
      vertex  2.326876e+000 -2.196736e+000 -8.881784e-016
      vertex  4.554724e+000 -2.294447e+000 -1.776357e-015
    endloop
  endfacet
  facet normal -3.850669e-016  3.101787e-016 -1.000000e+000
    outer loop
      vertex  4.554724e+000 -2.294447e+000 -1.776357e-015
      vertex  2.326876e+000 -2.196736e+000 -8.881784e-016
      vertex  2.641873e+000 -1.805687e+000 -8.881784e-016
    endloop
  endfacet
  facet normal -4.183417e-016  1.799518e-016 -1.000000e+000
    outer loop
      vertex  4.554724e+000 -2.294447e+000 -1.776357e-015
      vertex  2.641873e+000 -1.805687e+000 -8.881784e-016
      vertex  4.798080e+000 -1.728706e+000 -1.776357e-015
    endloop
  endfacet
  facet normal -4.205336e-016  2.413502e-016 -1.000000e+000
    outer loop
      vertex  4.798080e+000 -1.728706e+000 -1.776357e-015
      vertex  2.641873e+000 -1.805687e+000 -8.881784e-016
      vertex  2.891819e+000 -1.370176e+000 -8.881784e-016
    endloop
  endfacet
  facet normal -4.415598e-016  1.295571e-016 -1.000000e+000
    outer loop
      vertex  4.798080e+000 -1.728706e+000 -1.776357e-015
      vertex  2.891819e+000 -1.370176e+000 -8.881784e-016
      vertex  4.971469e+000 -1.137758e+000 -1.776357e-015
    endloop
  endfacet
  facet normal -2.265391e-016  8.368084e-016 -1.000000e+000
    outer loop
      vertex  5.912731e-001 -3.144900e+000 -8.881784e-016
      vertex  1.075964e+000 -3.013685e+000 -8.881784e-016
      vertex  3.873275e+000 -3.317791e+000 -1.776357e-015
    endloop
  endfacet
  facet normal -2.555448e-016  5.699991e-016 -9.999999e-001
    outer loop
      vertex  3.873275e+000 -3.317791e+000 -1.776357e-015
      vertex  1.075964e+000 -3.013685e+000 -8.881784e-016
      vertex  1.534162e+000 -2.808264e+000 -8.881784e-016
    endloop
  endfacet
  facet normal -3.259652e-016  2.467165e-016 -1.000000e+000
    outer loop
      vertex  3.873275e+000 -3.317791e+000 -1.776357e-015
      vertex  1.534162e+000 -2.808264e+000 -8.881784e-016
      vertex  4.244950e+000 -2.826729e+000 -1.776357e-015
    endloop
  endfacet
  facet normal -8.821733e-001 -4.064046e-001  2.379192e-001
    outer loop
      vertex -3.510330e+000 -1.917702e+000  4.500000e+000
      vertex -3.738762e+000 -1.421851e+000  4.500000e+000
      vertex -4.737759e+000 -1.887760e+000 -1.776357e-015
    endloop
  endfacet
  facet normal -8.791370e-001 -4.134344e-001  2.370443e-001
    outer loop
      vertex -3.510330e+000 -1.917702e+000  4.500000e+000
      vertex -4.737759e+000 -1.887760e+000 -1.776357e-015
      vertex -4.475671e+000 -2.445070e+000 -1.776357e-015
    endloop
  endfacet
  facet normal  8.228928e-001  5.163888e-001  2.370443e-001
    outer loop
      vertex  3.510330e+000  1.917702e+000  4.500000e+000
      vertex  4.475671e+000  2.445070e+000 -1.776357e-015
      vertex  4.148318e+000  2.966725e+000 -1.776357e-015
    endloop
  endfacet
  facet normal  8.186178e-001  5.227419e-001  2.379192e-001
    outer loop
      vertex  3.510330e+000  1.917702e+000  4.500000e+000
      vertex  4.148318e+000  2.966725e+000 -1.776357e-015
      vertex  3.216508e+000  2.377831e+000  4.500000e+000
    endloop
  endfacet
  facet normal -9.227172e-001 -3.045035e-001  2.363696e-001
    outer loop
      vertex -3.738762e+000 -1.421851e+000  4.500000e+000
      vertex -4.930760e+000 -1.302923e+000 -1.776357e-015
      vertex -4.737759e+000 -1.887760e+000 -1.776357e-015
    endloop
  endfacet
  facet normal -9.528061e-001 -1.910844e-001  2.358970e-001
    outer loop
      vertex -3.897547e+000 -8.995128e-001  4.500000e+000
      vertex -5.051859e+000 -6.990855e-001 -1.776357e-015
      vertex -4.930760e+000 -1.302923e+000 -1.776357e-015
    endloop
  endfacet
  facet normal -9.291239e-001 -2.824445e-001  2.386496e-001
    outer loop
      vertex -3.897547e+000 -8.995128e-001  4.500000e+000
      vertex -4.930760e+000 -1.302923e+000 -1.776357e-015
      vertex -3.738762e+000 -1.421851e+000  4.500000e+000
    endloop
  endfacet
  facet normal -9.689570e-001 -7.484880e-002  2.356268e-001
    outer loop
      vertex -3.983729e+000 -3.604187e-001  4.500000e+000
      vertex -5.099291e+000 -8.505413e-002 -1.776357e-015
      vertex -5.051859e+000 -6.990855e-001 -1.776357e-015
    endloop
  endfacet
  facet normal -9.588148e-001 -1.532798e-001  2.391221e-001
    outer loop
      vertex -3.983729e+000 -3.604187e-001  4.500000e+000
      vertex -5.051859e+000 -6.990855e-001 -1.776357e-015
      vertex -3.897547e+000 -8.995128e-001  4.500000e+000
    endloop
  endfacet
  facet normal -9.709306e-001  4.249294e-002  2.355593e-001
    outer loop
      vertex -3.995702e+000  1.853893e-001  4.500000e+000
      vertex -5.072363e+000  5.302176e-001 -1.776357e-015
      vertex -5.099291e+000 -8.505413e-002 -1.776357e-015
    endloop
  endfacet
  facet normal -9.707031e-001 -2.129260e-002  2.393369e-001
    outer loop
      vertex -3.995702e+000  1.853893e-001  4.500000e+000
      vertex -5.099291e+000 -8.505413e-002 -1.776357e-015
      vertex -3.983729e+000 -3.604187e-001  4.500000e+000
    endloop
  endfacet
  facet normal -9.586971e-001  1.592105e-001  2.356943e-001
    outer loop
      vertex -3.933242e+000  7.277439e-001  4.500000e+000
      vertex -4.971469e+000  1.137758e+000 -1.776357e-015
      vertex -5.072363e+000  5.302176e-001 -1.776357e-015
    endloop
  endfacet
  facet normal -9.645718e-001  1.110843e-001  2.392939e-001
    outer loop
      vertex -3.933242e+000  7.277439e-001  4.500000e+000
      vertex -5.072363e+000  5.302176e-001 -1.776357e-015
      vertex -3.995702e+000  1.853893e-001  4.500000e+000
    endloop
  endfacet
  facet normal -9.324379e-001  2.735845e-001  2.360321e-001
    outer loop
      vertex -3.797513e+000  1.256542e+000  4.500000e+000
      vertex -4.798080e+000  1.728706e+000 -1.776357e-015
      vertex -4.971469e+000  1.137758e+000 -1.776357e-015
    endloop
  endfacet
  facet normal -9.405333e-001  2.414111e-001  2.389933e-001
    outer loop
      vertex -3.797513e+000  1.256542e+000  4.500000e+000
      vertex -4.971469e+000  1.137758e+000 -1.776357e-015
      vertex -3.933242e+000  7.277439e-001  4.500000e+000
    endloop
  endfacet
  facet normal -8.925415e-001  3.839313e-001  2.365720e-001
    outer loop
      vertex -3.591043e+000  1.761933e+000  4.500000e+000
      vertex -4.554724e+000  2.294447e+000 -1.776357e-015
      vertex -4.798080e+000  1.728706e+000 -1.776357e-015
    endloop
  endfacet
  facet normal -8.990283e-001  3.672833e-001  2.384349e-001
    outer loop
      vertex -3.591043e+000  1.761933e+000  4.500000e+000
      vertex -4.798080e+000  1.728706e+000 -1.776357e-015
      vertex -3.797513e+000  1.256542e+000  4.500000e+000
    endloop
  endfacet
  facet normal -7.746817e-001  5.863409e-001  2.367969e-001
    outer loop
      vertex -3.317680e+000  2.234503e+000  4.500000e+000
      vertex -3.873275e+000  3.317791e+000 -1.776357e-015
      vertex -4.244950e+000  2.826729e+000 -1.776357e-015
    endloop
  endfacet
  facet normal -8.408858e-001  4.864207e-001  2.372889e-001
    outer loop
      vertex -3.317680e+000  2.234503e+000  4.500000e+000
      vertex -4.244950e+000  2.826729e+000 -1.776357e-015
      vertex -3.591043e+000  1.761933e+000  4.500000e+000
    endloop
  endfacet
  facet normal -8.395382e-001  4.885888e-001  2.376061e-001
    outer loop
      vertex -3.591043e+000  1.761933e+000  4.500000e+000
      vertex -4.244950e+000  2.826729e+000 -1.776357e-015
      vertex -4.554724e+000  2.294447e+000 -1.776357e-015
    endloop
  endfacet
  facet normal -6.984640e-001  6.755461e-001  2.361895e-001
    outer loop
      vertex -2.982514e+000  2.665448e+000  4.500000e+000
      vertex -3.445119e+000  3.760473e+000 -1.776357e-015
      vertex -3.873275e+000  3.317791e+000 -1.776357e-015
    endloop
  endfacet
  facet normal -7.666453e-001  5.962550e-001  2.381913e-001
    outer loop
      vertex -2.982514e+000  2.665448e+000  4.500000e+000
      vertex -3.873275e+000  3.317791e+000 -1.776357e-015
      vertex -3.317680e+000  2.234503e+000  4.500000e+000
    endloop
  endfacet
  facet normal -6.120054e-001  7.548875e-001  2.357844e-001
    outer loop
      vertex -2.591789e+000  3.046741e+000  4.500000e+000
      vertex -2.966725e+000  4.148318e+000 -1.776357e-015
      vertex -3.445119e+000  3.760473e+000 -1.776357e-015
    endloop
  endfacet
  facet normal -6.782039e-001  6.949798e-001  2.388358e-001
    outer loop
      vertex -2.591789e+000  3.046741e+000  4.500000e+000
      vertex -3.445119e+000  3.760473e+000 -1.776357e-015
      vertex -2.982514e+000  2.665448e+000  4.500000e+000
    endloop
  endfacet
  facet normal -5.165778e-001  8.231941e-001  2.355818e-001
    outer loop
      vertex -2.152785e+000  3.371278e+000  4.500000e+000
      vertex -2.445070e+000  4.475671e+000 -1.776357e-015
      vertex -2.966725e+000  4.148318e+000 -1.776357e-015
    endloop
  endfacet
  facet normal -5.771974e-001  7.807789e-001  2.392223e-001
    outer loop
      vertex -2.152785e+000  3.371278e+000  4.500000e+000
      vertex -2.966725e+000  4.148318e+000 -1.776357e-015
      vertex -2.591789e+000  3.046741e+000  4.500000e+000
    endloop
  endfacet
  facet normal -4.135858e-001  8.794590e-001  2.355818e-001
    outer loop
      vertex -1.673678e+000  3.633015e+000  4.500000e+000
      vertex -1.887760e+000  4.737759e+000 -1.776357e-015
      vertex -2.445070e+000  4.475671e+000 -1.776357e-015
    endloop
  endfacet
  facet normal -4.654898e-001  8.520740e-001  2.393512e-001
    outer loop
      vertex -1.673678e+000  3.633015e+000  4.500000e+000
      vertex -2.445070e+000  4.475671e+000 -1.776357e-015
      vertex -2.152785e+000  3.371278e+000  4.500000e+000
    endloop
  endfacet
  facet normal -3.045481e-001  9.228522e-001  2.357844e-001
    outer loop
      vertex -1.163394e+000  3.827076e+000  4.500000e+000
      vertex -1.302923e+000  4.930760e+000 -1.776357e-015
      vertex -1.887760e+000  4.737759e+000 -1.776357e-015
    endloop
  endfacet
  facet normal -3.451417e-001  9.075516e-001  2.392224e-001
    outer loop
      vertex -1.163394e+000  3.827076e+000  4.500000e+000
      vertex -1.887760e+000  4.737759e+000 -1.776357e-015
      vertex -1.673678e+000  3.633015e+000  4.500000e+000
    endloop
  endfacet
  facet normal -1.910704e-001  9.527364e-001  2.361896e-001
    outer loop
      vertex -6.314378e-001  3.949846e+000  4.500000e+000
      vertex -6.990855e-001  5.051859e+000 -1.776357e-015
      vertex -1.302923e+000  4.930760e+000 -1.776357e-015
    endloop
  endfacet
  facet normal -2.183702e-001  9.461881e-001  2.388358e-001
    outer loop
      vertex -6.314378e-001  3.949846e+000  4.500000e+000
      vertex -1.302923e+000  4.930760e+000 -1.776357e-015
      vertex -1.163394e+000  3.827076e+000  4.500000e+000
    endloop
  endfacet
  facet normal -7.482690e-002  9.686734e-001  2.367969e-001
    outer loop
      vertex -8.771918e-002  3.999038e+000  4.500000e+000
      vertex -8.505413e-002  5.099291e+000 -1.776357e-015
      vertex -6.990855e-001  5.051859e+000 -1.776357e-015
    endloop
  endfacet
  facet normal -8.751136e-002  9.672676e-001  2.381914e-001
    outer loop
      vertex -8.771918e-002  3.999038e+000  4.500000e+000
      vertex -6.990855e-001  5.051859e+000 -1.776357e-015
      vertex -6.314378e-001  3.949846e+000  4.500000e+000
    endloop
  endfacet
  facet normal  1.591756e-001  9.584867e-001  2.365720e-001
    outer loop
      vertex  4.576335e-001  3.973735e+000  4.500000e+000
      vertex  1.137758e+000  4.971469e+000 -1.776357e-015
      vertex  5.302176e-001  5.072363e+000 -1.776357e-015
    endloop
  endfacet
  facet normal  4.501955e-002  9.703147e-001  2.376184e-001
    outer loop
      vertex  4.576335e-001  3.973735e+000  4.500000e+000
      vertex  5.302176e-001  5.072363e+000 -1.776357e-015
      vertex -8.771918e-002  3.999038e+000  4.500000e+000
    endloop
  endfacet
  facet normal  4.247427e-002  9.705040e-001  2.373140e-001
    outer loop
      vertex -8.771918e-002  3.999038e+000  4.500000e+000
      vertex  5.302176e-001  5.072363e+000 -1.776357e-015
      vertex -8.505413e-002  5.099291e+000 -1.776357e-015
    endloop
  endfacet
  facet normal  2.735845e-001  9.324379e-001  2.360320e-001
    outer loop
      vertex  9.944612e-001  3.874409e+000  4.500000e+000
      vertex  1.728706e+000  4.798080e+000 -1.776357e-015
      vertex  1.137758e+000  4.971469e+000 -1.776357e-015
    endloop
  endfacet
  facet normal  1.766889e-001  9.549502e-001  2.384348e-001
    outer loop
      vertex  9.944612e-001  3.874409e+000  4.500000e+000
      vertex  1.137758e+000  4.971469e+000 -1.776357e-015
      vertex  4.576335e-001  3.973735e+000  4.500000e+000
    endloop
  endfacet
  facet normal  3.840156e-001  8.927374e-001  2.356943e-001
    outer loop
      vertex  1.512764e+000  3.702910e+000  4.500000e+000
      vertex  2.294447e+000  4.554724e+000 -1.776357e-015
      vertex  1.728706e+000  4.798080e+000 -1.776357e-015
    endloop
  endfacet
  facet normal  3.050320e-001  9.218664e-001  2.389933e-001
    outer loop
      vertex  1.512764e+000  3.702910e+000  4.500000e+000
      vertex  1.728706e+000  4.798080e+000 -1.776357e-015
      vertex  9.944612e-001  3.874409e+000  4.500000e+000
    endloop
  endfacet
  facet normal  4.888394e-001  8.399689e-001  2.355592e-001
    outer loop
      vertex  2.002887e+000  3.462433e+000  4.500000e+000
      vertex  2.826729e+000  4.244950e+000 -1.776357e-015
      vertex  2.294447e+000  4.554724e+000 -1.776357e-015
    endloop
  endfacet
  facet normal  4.276863e-001  8.716782e-001  2.392939e-001
    outer loop
      vertex  2.002887e+000  3.462433e+000  4.500000e+000
      vertex  2.294447e+000  4.554724e+000 -1.776357e-015
      vertex  1.512764e+000  3.702910e+000  4.500000e+000
    endloop
  endfacet
  facet normal  5.865125e-001  7.749084e-001  2.356268e-001
    outer loop
      vertex  2.455700e+000  3.157458e+000  4.500000e+000
      vertex  3.317791e+000  3.873275e+000 -1.776357e-015
      vertex  2.826729e+000  4.244950e+000 -1.776357e-015
    endloop
  endfacet
  facet normal  5.423899e-001  8.053144e-001  2.393369e-001
    outer loop
      vertex  2.455700e+000  3.157458e+000  4.500000e+000
      vertex  2.826729e+000  4.244950e+000 -1.776357e-015
      vertex  2.002887e+000  3.462433e+000  4.500000e+000
    endloop
  endfacet
  facet normal  6.755955e-001  6.985151e-001  2.358969e-001
    outer loop
      vertex  2.862768e+000  2.793664e+000  4.500000e+000
      vertex  3.760473e+000  3.445119e+000 -1.776357e-015
      vertex  3.317791e+000  3.873275e+000 -1.776357e-015
    endloop
  endfacet
  facet normal  6.470305e-001  7.239973e-001  2.391221e-001
    outer loop
      vertex  2.862768e+000  2.793664e+000  4.500000e+000
      vertex  3.317791e+000  3.873275e+000 -1.776357e-015
      vertex  2.455700e+000  3.157458e+000  4.500000e+000
    endloop
  endfacet
  facet normal  7.547771e-001  6.119158e-001  2.363696e-001
    outer loop
      vertex  3.216508e+000  2.377831e+000  4.500000e+000
      vertex  4.148318e+000  2.966725e+000 -1.776357e-015
      vertex  3.760473e+000  3.445119e+000 -1.776357e-015
    endloop
  endfacet
  facet normal  7.396769e-001  6.292254e-001  2.386496e-001
    outer loop
      vertex  3.216508e+000  2.377831e+000  4.500000e+000
      vertex  3.760473e+000  3.445119e+000 -1.776357e-015
      vertex  2.862768e+000  2.793664e+000  4.500000e+000
    endloop
  endfacet
  facet normal  5.468020e-001 -8.372619e-001  0.000000e+000
    outer loop
      vertex -1.534162e+000  2.808264e+000 -8.881784e-016
      vertex -1.954583e+000  2.533694e+000  4.500000e+000
      vertex -1.954583e+000  2.533694e+000 -8.881784e-016
    endloop
  endfacet
  facet normal  6.710466e-001 -7.414153e-001  0.000000e+000
    outer loop
      vertex -1.954583e+000  2.533694e+000 -8.881784e-016
      vertex -1.954583e+000  2.533694e+000  4.500000e+000
      vertex -2.326876e+000  2.196736e+000  4.500000e+000
    endloop
  endfacet
  facet normal  6.710466e-001 -7.414153e-001  0.000000e+000
    outer loop
      vertex -1.954583e+000  2.533694e+000 -8.881784e-016
      vertex -2.326876e+000  2.196736e+000  4.500000e+000
      vertex -2.326876e+000  2.196736e+000 -8.881784e-016
    endloop
  endfacet
  facet normal  7.787678e-001 -6.273123e-001  0.000000e+000
    outer loop
      vertex -2.326876e+000  2.196736e+000 -8.881784e-016
      vertex -2.326876e+000  2.196736e+000  4.500000e+000
      vertex -2.641873e+000  1.805687e+000  4.500000e+000
    endloop
  endfacet
  facet normal  7.787678e-001 -6.273123e-001  0.000000e+000
    outer loop
      vertex -2.326876e+000  2.196736e+000 -8.881784e-016
      vertex -2.641873e+000  1.805687e+000  4.500000e+000
      vertex -2.641873e+000  1.805687e+000 -8.881784e-016
    endloop
  endfacet
  facet normal  8.673130e-001 -4.977631e-001  0.000000e+000
    outer loop
      vertex -2.641873e+000  1.805687e+000 -8.881784e-016
      vertex -2.641873e+000  1.805687e+000  4.500000e+000
      vertex -2.891819e+000  1.370176e+000  4.500000e+000
    endloop
  endfacet
  facet normal  8.673130e-001 -4.977631e-001  0.000000e+000
    outer loop
      vertex -2.641873e+000  1.805687e+000 -8.881784e-016
      vertex -2.891819e+000  1.370176e+000  4.500000e+000
      vertex -2.891819e+000  1.370176e+000 -8.881784e-016
    endloop
  endfacet
  facet normal  9.345024e-001 -3.559569e-001  0.000000e+000
    outer loop
      vertex -2.891819e+000  1.370176e+000 -8.881784e-016
      vertex -2.891819e+000  1.370176e+000  4.500000e+000
      vertex -3.070559e+000  9.009265e-001  4.500000e+000
    endloop
  endfacet
  facet normal  9.345024e-001 -3.559569e-001  0.000000e+000
    outer loop
      vertex -2.891819e+000  1.370176e+000 -8.881784e-016
      vertex -3.070559e+000  9.009265e-001  4.500000e+000
      vertex -3.070559e+000  9.009265e-001 -8.881784e-016
    endloop
  endfacet
  facet normal  9.786810e-001 -2.053862e-001  0.000000e+000
    outer loop
      vertex -3.070559e+000  9.009265e-001 -8.881784e-016
      vertex -3.070559e+000  9.009265e-001  4.500000e+000
      vertex -3.173691e+000  4.094934e-001  4.500000e+000
    endloop
  endfacet
  facet normal  9.786810e-001 -2.053862e-001  0.000000e+000
    outer loop
      vertex -3.070559e+000  9.009265e-001 -8.881784e-016
      vertex -3.173691e+000  4.094934e-001  4.500000e+000
      vertex -3.173691e+000  4.094934e-001 -8.881784e-016
    endloop
  endfacet
  facet normal  9.987613e-001 -4.975832e-002  0.000000e+000
    outer loop
      vertex -3.173691e+000  4.094934e-001 -8.881784e-016
      vertex -3.173691e+000  4.094934e-001  4.500000e+000
      vertex -3.198677e+000 -9.202284e-002  4.500000e+000
    endloop
  endfacet
  facet normal  9.987613e-001 -4.975832e-002  0.000000e+000
    outer loop
      vertex -3.173691e+000  4.094934e-001 -8.881784e-016
      vertex -3.198677e+000 -9.202284e-002  4.500000e+000
      vertex -3.198677e+000 -9.202284e-002 -8.881784e-016
    endloop
  endfacet
  facet normal  9.942488e-001  1.070950e-001  -0.000000e+000
    outer loop
      vertex -3.198677e+000 -9.202284e-002 -8.881784e-016
      vertex -3.198677e+000 -9.202284e-002  4.500000e+000
      vertex -3.144900e+000 -5.912731e-001  4.500000e+000
    endloop
  endfacet
  facet normal  9.942488e-001  1.070950e-001  0.000000e+000
    outer loop
      vertex -3.198677e+000 -9.202284e-002 -8.881784e-016
      vertex -3.144900e+000 -5.912731e-001  4.500000e+000
      vertex -3.144900e+000 -5.912731e-001 -8.881784e-016
    endloop
  endfacet
  facet normal  9.652545e-001  2.613117e-001  -0.000000e+000
    outer loop
      vertex -3.144900e+000 -5.912731e-001 -8.881784e-016
      vertex -3.144900e+000 -5.912731e-001  4.500000e+000
      vertex -3.013685e+000 -1.075964e+000  4.500000e+000
    endloop
  endfacet
  facet normal  9.652545e-001  2.613117e-001  0.000000e+000
    outer loop
      vertex -3.144900e+000 -5.912731e-001 -8.881784e-016
      vertex -3.013685e+000 -1.075964e+000  4.500000e+000
      vertex -3.013685e+000 -1.075964e+000 -8.881784e-016
    endloop
  endfacet
  facet normal  9.124927e-001  4.090930e-001  -0.000000e+000
    outer loop
      vertex -3.013685e+000 -1.075964e+000 -8.881784e-016
      vertex -3.013685e+000 -1.075964e+000  4.500000e+000
      vertex -2.808264e+000 -1.534162e+000  4.500000e+000
    endloop
  endfacet
  facet normal  9.124927e-001  4.090930e-001  0.000000e+000
    outer loop
      vertex -3.013685e+000 -1.075964e+000 -8.881784e-016
      vertex -2.808264e+000 -1.534162e+000  4.500000e+000
      vertex -2.808264e+000 -1.534162e+000 -8.881784e-016
    endloop
  endfacet
  facet normal  5.468020e-001 -8.372619e-001  0.000000e+000
    outer loop
      vertex -1.954583e+000  2.533694e+000  4.500000e+000
      vertex -1.534162e+000  2.808264e+000 -8.881784e-016
      vertex -1.534162e+000  2.808264e+000  4.500000e+000
    endloop
  endfacet
  facet normal  4.090930e-001 -9.124927e-001  0.000000e+000
    outer loop
      vertex -1.534162e+000  2.808264e+000  4.500000e+000
      vertex -1.534162e+000  2.808264e+000 -8.881784e-016
      vertex -1.075964e+000  3.013685e+000 -8.881784e-016
    endloop
  endfacet
  facet normal  4.090930e-001 -9.124927e-001  0.000000e+000
    outer loop
      vertex -1.534162e+000  2.808264e+000  4.500000e+000
      vertex -1.075964e+000  3.013685e+000 -8.881784e-016
      vertex -1.075964e+000  3.013685e+000  4.500000e+000
    endloop
  endfacet
  facet normal  2.613117e-001 -9.652545e-001  0.000000e+000
    outer loop
      vertex -1.075964e+000  3.013685e+000  4.500000e+000
      vertex -1.075964e+000  3.013685e+000 -8.881784e-016
      vertex -5.912731e-001  3.144900e+000 -8.881784e-016
    endloop
  endfacet
  facet normal  2.613117e-001 -9.652545e-001  0.000000e+000
    outer loop
      vertex -1.075964e+000  3.013685e+000  4.500000e+000
      vertex -5.912731e-001  3.144900e+000 -8.881784e-016
      vertex -5.912731e-001  3.144900e+000  4.500000e+000
    endloop
  endfacet
  facet normal  1.070950e-001 -9.942488e-001  0.000000e+000
    outer loop
      vertex -5.912731e-001  3.144900e+000  4.500000e+000
      vertex -5.912731e-001  3.144900e+000 -8.881784e-016
      vertex -9.202284e-002  3.198677e+000 -8.881784e-016
    endloop
  endfacet
  facet normal  1.070950e-001 -9.942488e-001  0.000000e+000
    outer loop
      vertex -5.912731e-001  3.144900e+000  4.500000e+000
      vertex -9.202284e-002  3.198677e+000 -8.881784e-016
      vertex -9.202284e-002  3.198677e+000  4.500000e+000
    endloop
  endfacet
  facet normal -4.975832e-002 -9.987613e-001  -0.000000e+000
    outer loop
      vertex -9.202284e-002  3.198677e+000  4.500000e+000
      vertex -9.202284e-002  3.198677e+000 -8.881784e-016
      vertex  4.094934e-001  3.173691e+000 -8.881784e-016
    endloop
  endfacet
  facet normal -4.975832e-002 -9.987613e-001  0.000000e+000
    outer loop
      vertex -9.202284e-002  3.198677e+000  4.500000e+000
      vertex  4.094934e-001  3.173691e+000 -8.881784e-016
      vertex  4.094934e-001  3.173691e+000  4.500000e+000
    endloop
  endfacet
  facet normal -2.053862e-001 -9.786810e-001  -0.000000e+000
    outer loop
      vertex  4.094934e-001  3.173691e+000  4.500000e+000
      vertex  4.094934e-001  3.173691e+000 -8.881784e-016
      vertex  9.009265e-001  3.070559e+000 -8.881784e-016
    endloop
  endfacet
  facet normal -2.053862e-001 -9.786810e-001  0.000000e+000
    outer loop
      vertex  4.094934e-001  3.173691e+000  4.500000e+000
      vertex  9.009265e-001  3.070559e+000 -8.881784e-016
      vertex  9.009265e-001  3.070559e+000  4.500000e+000
    endloop
  endfacet
  facet normal -3.559569e-001 -9.345024e-001  -0.000000e+000
    outer loop
      vertex  9.009265e-001  3.070559e+000  4.500000e+000
      vertex  9.009265e-001  3.070559e+000 -8.881784e-016
      vertex  1.370176e+000  2.891819e+000 -8.881784e-016
    endloop
  endfacet
  facet normal -3.559569e-001 -9.345024e-001  0.000000e+000
    outer loop
      vertex  9.009265e-001  3.070559e+000  4.500000e+000
      vertex  1.370176e+000  2.891819e+000 -8.881784e-016
      vertex  1.370176e+000  2.891819e+000  4.500000e+000
    endloop
  endfacet
  facet normal -4.977631e-001 -8.673130e-001  -0.000000e+000
    outer loop
      vertex  1.370176e+000  2.891819e+000  4.500000e+000
      vertex  1.370176e+000  2.891819e+000 -8.881784e-016
      vertex  1.805687e+000  2.641873e+000 -8.881784e-016
    endloop
  endfacet
  facet normal -4.977631e-001 -8.673130e-001  0.000000e+000
    outer loop
      vertex  1.370176e+000  2.891819e+000  4.500000e+000
      vertex  1.805687e+000  2.641873e+000 -8.881784e-016
      vertex  1.805687e+000  2.641873e+000  4.500000e+000
    endloop
  endfacet
  facet normal -6.273123e-001 -7.787678e-001  -0.000000e+000
    outer loop
      vertex  1.805687e+000  2.641873e+000  4.500000e+000
      vertex  1.805687e+000  2.641873e+000 -8.881784e-016
      vertex  2.196736e+000  2.326876e+000 -8.881784e-016
    endloop
  endfacet
  facet normal -6.273123e-001 -7.787678e-001  0.000000e+000
    outer loop
      vertex  1.805687e+000  2.641873e+000  4.500000e+000
      vertex  2.196736e+000  2.326876e+000 -8.881784e-016
      vertex  2.196736e+000  2.326876e+000  4.500000e+000
    endloop
  endfacet
  facet normal -7.414153e-001 -6.710466e-001  -0.000000e+000
    outer loop
      vertex  2.196736e+000  2.326876e+000  4.500000e+000
      vertex  2.196736e+000  2.326876e+000 -8.881784e-016
      vertex  2.533694e+000  1.954583e+000 -8.881784e-016
    endloop
  endfacet
  facet normal -7.414153e-001 -6.710466e-001  0.000000e+000
    outer loop
      vertex  2.196736e+000  2.326876e+000  4.500000e+000
      vertex  2.533694e+000  1.954583e+000 -8.881784e-016
      vertex  2.533694e+000  1.954583e+000  4.500000e+000
    endloop
  endfacet
  facet normal -8.372619e-001 -5.468020e-001  -0.000000e+000
    outer loop
      vertex  2.533694e+000  1.954583e+000  4.500000e+000
      vertex  2.533694e+000  1.954583e+000 -8.881784e-016
      vertex  2.808264e+000  1.534162e+000 -8.881784e-016
    endloop
  endfacet
  facet normal -8.372619e-001 -5.468020e-001  0.000000e+000
    outer loop
      vertex  2.533694e+000  1.954583e+000  4.500000e+000
      vertex  2.808264e+000  1.534162e+000 -8.881784e-016
      vertex  2.808264e+000  1.534162e+000  4.500000e+000
    endloop
  endfacet
  facet normal  8.821733e-001  4.064046e-001  2.379192e-001
    outer loop
      vertex  3.510330e+000  1.917702e+000  4.500000e+000
      vertex  3.738762e+000  1.421851e+000  4.500000e+000
      vertex  4.737759e+000  1.887760e+000 -1.776357e-015
    endloop
  endfacet
  facet normal  8.791370e-001  4.134344e-001  2.370443e-001
    outer loop
      vertex  3.510330e+000  1.917702e+000  4.500000e+000
      vertex  4.737759e+000  1.887760e+000 -1.776357e-015
      vertex  4.475671e+000  2.445070e+000 -1.776357e-015
    endloop
  endfacet
  facet normal -8.228928e-001 -5.163888e-001  2.370443e-001
    outer loop
      vertex -3.510330e+000 -1.917702e+000  4.500000e+000
      vertex -4.475671e+000 -2.445070e+000 -1.776357e-015
      vertex -4.148318e+000 -2.966725e+000 -1.776357e-015
    endloop
  endfacet
  facet normal -8.186178e-001 -5.227419e-001  2.379192e-001
    outer loop
      vertex -3.510330e+000 -1.917702e+000  4.500000e+000
      vertex -4.148318e+000 -2.966725e+000 -1.776357e-015
      vertex -3.216508e+000 -2.377831e+000  4.500000e+000
    endloop
  endfacet
  facet normal  9.227172e-001  3.045035e-001  2.363696e-001
    outer loop
      vertex  3.738762e+000  1.421851e+000  4.500000e+000
      vertex  4.930760e+000  1.302923e+000 -1.776357e-015
      vertex  4.737759e+000  1.887760e+000 -1.776357e-015
    endloop
  endfacet
  facet normal  9.528061e-001  1.910844e-001  2.358970e-001
    outer loop
      vertex  3.897547e+000  8.995128e-001  4.500000e+000
      vertex  5.051859e+000  6.990855e-001 -1.776357e-015
      vertex  4.930760e+000  1.302923e+000 -1.776357e-015
    endloop
  endfacet
  facet normal  9.291239e-001  2.824445e-001  2.386496e-001
    outer loop
      vertex  3.897547e+000  8.995128e-001  4.500000e+000
      vertex  4.930760e+000  1.302923e+000 -1.776357e-015
      vertex  3.738762e+000  1.421851e+000  4.500000e+000
    endloop
  endfacet
  facet normal  9.689570e-001  7.484880e-002  2.356268e-001
    outer loop
      vertex  3.983729e+000  3.604187e-001  4.500000e+000
      vertex  5.099291e+000  8.505413e-002 -1.776357e-015
      vertex  5.051859e+000  6.990855e-001 -1.776357e-015
    endloop
  endfacet
  facet normal  9.588148e-001  1.532798e-001  2.391221e-001
    outer loop
      vertex  3.983729e+000  3.604187e-001  4.500000e+000
      vertex  5.051859e+000  6.990855e-001 -1.776357e-015
      vertex  3.897547e+000  8.995128e-001  4.500000e+000
    endloop
  endfacet
  facet normal  9.709306e-001 -4.249294e-002  2.355593e-001
    outer loop
      vertex  3.995702e+000 -1.853893e-001  4.500000e+000
      vertex  5.072363e+000 -5.302176e-001 -1.776357e-015
      vertex  5.099291e+000  8.505413e-002 -1.776357e-015
    endloop
  endfacet
  facet normal  9.707031e-001  2.129260e-002  2.393369e-001
    outer loop
      vertex  3.995702e+000 -1.853893e-001  4.500000e+000
      vertex  5.099291e+000  8.505413e-002 -1.776357e-015
      vertex  3.983729e+000  3.604187e-001  4.500000e+000
    endloop
  endfacet
  facet normal  9.586971e-001 -1.592105e-001  2.356943e-001
    outer loop
      vertex  3.933242e+000 -7.277439e-001  4.500000e+000
      vertex  4.971469e+000 -1.137758e+000 -1.776357e-015
      vertex  5.072363e+000 -5.302176e-001 -1.776357e-015
    endloop
  endfacet
  facet normal  9.645718e-001 -1.110843e-001  2.392939e-001
    outer loop
      vertex  3.933242e+000 -7.277439e-001  4.500000e+000
      vertex  5.072363e+000 -5.302176e-001 -1.776357e-015
      vertex  3.995702e+000 -1.853893e-001  4.500000e+000
    endloop
  endfacet
  facet normal  9.324379e-001 -2.735845e-001  2.360321e-001
    outer loop
      vertex  3.797513e+000 -1.256542e+000  4.500000e+000
      vertex  4.798080e+000 -1.728706e+000 -1.776357e-015
      vertex  4.971469e+000 -1.137758e+000 -1.776357e-015
    endloop
  endfacet
  facet normal  9.405333e-001 -2.414111e-001  2.389933e-001
    outer loop
      vertex  3.797513e+000 -1.256542e+000  4.500000e+000
      vertex  4.971469e+000 -1.137758e+000 -1.776357e-015
      vertex  3.933242e+000 -7.277439e-001  4.500000e+000
    endloop
  endfacet
  facet normal  8.925415e-001 -3.839313e-001  2.365720e-001
    outer loop
      vertex  3.591043e+000 -1.761933e+000  4.500000e+000
      vertex  4.554724e+000 -2.294447e+000 -1.776357e-015
      vertex  4.798080e+000 -1.728706e+000 -1.776357e-015
    endloop
  endfacet
  facet normal  8.990283e-001 -3.672833e-001  2.384349e-001
    outer loop
      vertex  3.591043e+000 -1.761933e+000  4.500000e+000
      vertex  4.798080e+000 -1.728706e+000 -1.776357e-015
      vertex  3.797513e+000 -1.256542e+000  4.500000e+000
    endloop
  endfacet
  facet normal  7.746817e-001 -5.863409e-001  2.367969e-001
    outer loop
      vertex  3.317680e+000 -2.234503e+000  4.500000e+000
      vertex  3.873275e+000 -3.317791e+000 -1.776357e-015
      vertex  4.244950e+000 -2.826729e+000 -1.776357e-015
    endloop
  endfacet
  facet normal  8.408858e-001 -4.864207e-001  2.372889e-001
    outer loop
      vertex  3.317680e+000 -2.234503e+000  4.500000e+000
      vertex  4.244950e+000 -2.826729e+000 -1.776357e-015
      vertex  3.591043e+000 -1.761933e+000  4.500000e+000
    endloop
  endfacet
  facet normal  8.395382e-001 -4.885888e-001  2.376061e-001
    outer loop
      vertex  3.591043e+000 -1.761933e+000  4.500000e+000
      vertex  4.244950e+000 -2.826729e+000 -1.776357e-015
      vertex  4.554724e+000 -2.294447e+000 -1.776357e-015
    endloop
  endfacet
  facet normal  6.984640e-001 -6.755461e-001  2.361895e-001
    outer loop
      vertex  2.982514e+000 -2.665448e+000  4.500000e+000
      vertex  3.445119e+000 -3.760473e+000 -1.776357e-015
      vertex  3.873275e+000 -3.317791e+000 -1.776357e-015
    endloop
  endfacet
  facet normal  7.666453e-001 -5.962550e-001  2.381913e-001
    outer loop
      vertex  2.982514e+000 -2.665448e+000  4.500000e+000
      vertex  3.873275e+000 -3.317791e+000 -1.776357e-015
      vertex  3.317680e+000 -2.234503e+000  4.500000e+000
    endloop
  endfacet
  facet normal  6.120054e-001 -7.548875e-001  2.357844e-001
    outer loop
      vertex  2.591789e+000 -3.046741e+000  4.500000e+000
      vertex  2.966725e+000 -4.148318e+000 -1.776357e-015
      vertex  3.445119e+000 -3.760473e+000 -1.776357e-015
    endloop
  endfacet
  facet normal  6.782039e-001 -6.949798e-001  2.388358e-001
    outer loop
      vertex  2.591789e+000 -3.046741e+000  4.500000e+000
      vertex  3.445119e+000 -3.760473e+000 -1.776357e-015
      vertex  2.982514e+000 -2.665448e+000  4.500000e+000
    endloop
  endfacet
  facet normal  5.165778e-001 -8.231941e-001  2.355818e-001
    outer loop
      vertex  2.152785e+000 -3.371278e+000  4.500000e+000
      vertex  2.445070e+000 -4.475671e+000 -1.776357e-015
      vertex  2.966725e+000 -4.148318e+000 -1.776357e-015
    endloop
  endfacet
  facet normal  5.771974e-001 -7.807789e-001  2.392223e-001
    outer loop
      vertex  2.152785e+000 -3.371278e+000  4.500000e+000
      vertex  2.966725e+000 -4.148318e+000 -1.776357e-015
      vertex  2.591789e+000 -3.046741e+000  4.500000e+000
    endloop
  endfacet
  facet normal  4.135858e-001 -8.794590e-001  2.355818e-001
    outer loop
      vertex  1.673678e+000 -3.633015e+000  4.500000e+000
      vertex  1.887760e+000 -4.737759e+000 -1.776357e-015
      vertex  2.445070e+000 -4.475671e+000 -1.776357e-015
    endloop
  endfacet
  facet normal  4.654898e-001 -8.520740e-001  2.393512e-001
    outer loop
      vertex  1.673678e+000 -3.633015e+000  4.500000e+000
      vertex  2.445070e+000 -4.475671e+000 -1.776357e-015
      vertex  2.152785e+000 -3.371278e+000  4.500000e+000
    endloop
  endfacet
  facet normal  3.045481e-001 -9.228522e-001  2.357844e-001
    outer loop
      vertex  1.163394e+000 -3.827076e+000  4.500000e+000
      vertex  1.302923e+000 -4.930760e+000 -1.776357e-015
      vertex  1.887760e+000 -4.737759e+000 -1.776357e-015
    endloop
  endfacet
  facet normal  3.451417e-001 -9.075516e-001  2.392224e-001
    outer loop
      vertex  1.163394e+000 -3.827076e+000  4.500000e+000
      vertex  1.887760e+000 -4.737759e+000 -1.776357e-015
      vertex  1.673678e+000 -3.633015e+000  4.500000e+000
    endloop
  endfacet
  facet normal  1.910704e-001 -9.527364e-001  2.361896e-001
    outer loop
      vertex  6.314378e-001 -3.949846e+000  4.500000e+000
      vertex  6.990855e-001 -5.051859e+000 -1.776357e-015
      vertex  1.302923e+000 -4.930760e+000 -1.776357e-015
    endloop
  endfacet
  facet normal  2.183702e-001 -9.461881e-001  2.388358e-001
    outer loop
      vertex  6.314378e-001 -3.949846e+000  4.500000e+000
      vertex  1.302923e+000 -4.930760e+000 -1.776357e-015
      vertex  1.163394e+000 -3.827076e+000  4.500000e+000
    endloop
  endfacet
  facet normal  7.482690e-002 -9.686734e-001  2.367969e-001
    outer loop
      vertex  8.771918e-002 -3.999038e+000  4.500000e+000
      vertex  8.505413e-002 -5.099291e+000 -1.776357e-015
      vertex  6.990855e-001 -5.051859e+000 -1.776357e-015
    endloop
  endfacet
  facet normal  8.751136e-002 -9.672676e-001  2.381914e-001
    outer loop
      vertex  8.771918e-002 -3.999038e+000  4.500000e+000
      vertex  6.990855e-001 -5.051859e+000 -1.776357e-015
      vertex  6.314378e-001 -3.949846e+000  4.500000e+000
    endloop
  endfacet
  facet normal -1.591756e-001 -9.584867e-001  2.365720e-001
    outer loop
      vertex -4.576335e-001 -3.973735e+000  4.500000e+000
      vertex -1.137758e+000 -4.971469e+000 -1.776357e-015
      vertex -5.302176e-001 -5.072363e+000 -1.776357e-015
    endloop
  endfacet
  facet normal -4.501955e-002 -9.703147e-001  2.376184e-001
    outer loop
      vertex -4.576335e-001 -3.973735e+000  4.500000e+000
      vertex -5.302176e-001 -5.072363e+000 -1.776357e-015
      vertex  8.771918e-002 -3.999038e+000  4.500000e+000
    endloop
  endfacet
  facet normal -4.247427e-002 -9.705040e-001  2.373140e-001
    outer loop
      vertex  8.771918e-002 -3.999038e+000  4.500000e+000
      vertex -5.302176e-001 -5.072363e+000 -1.776357e-015
      vertex  8.505413e-002 -5.099291e+000 -1.776357e-015
    endloop
  endfacet
  facet normal -2.735845e-001 -9.324379e-001  2.360320e-001
    outer loop
      vertex -9.944612e-001 -3.874409e+000  4.500000e+000
      vertex -1.728706e+000 -4.798080e+000 -1.776357e-015
      vertex -1.137758e+000 -4.971469e+000 -1.776357e-015
    endloop
  endfacet
  facet normal -1.766889e-001 -9.549502e-001  2.384348e-001
    outer loop
      vertex -9.944612e-001 -3.874409e+000  4.500000e+000
      vertex -1.137758e+000 -4.971469e+000 -1.776357e-015
      vertex -4.576335e-001 -3.973735e+000  4.500000e+000
    endloop
  endfacet
  facet normal -3.840156e-001 -8.927374e-001  2.356943e-001
    outer loop
      vertex -1.512764e+000 -3.702910e+000  4.500000e+000
      vertex -2.294447e+000 -4.554724e+000 -1.776357e-015
      vertex -1.728706e+000 -4.798080e+000 -1.776357e-015
    endloop
  endfacet
  facet normal -3.050320e-001 -9.218664e-001  2.389933e-001
    outer loop
      vertex -1.512764e+000 -3.702910e+000  4.500000e+000
      vertex -1.728706e+000 -4.798080e+000 -1.776357e-015
      vertex -9.944612e-001 -3.874409e+000  4.500000e+000
    endloop
  endfacet
  facet normal -4.888394e-001 -8.399689e-001  2.355592e-001
    outer loop
      vertex -2.002887e+000 -3.462433e+000  4.500000e+000
      vertex -2.826729e+000 -4.244950e+000 -1.776357e-015
      vertex -2.294447e+000 -4.554724e+000 -1.776357e-015
    endloop
  endfacet
  facet normal -4.276863e-001 -8.716782e-001  2.392939e-001
    outer loop
      vertex -2.002887e+000 -3.462433e+000  4.500000e+000
      vertex -2.294447e+000 -4.554724e+000 -1.776357e-015
      vertex -1.512764e+000 -3.702910e+000  4.500000e+000
    endloop
  endfacet
  facet normal -5.865125e-001 -7.749084e-001  2.356268e-001
    outer loop
      vertex -2.455700e+000 -3.157458e+000  4.500000e+000
      vertex -3.317791e+000 -3.873275e+000 -1.776357e-015
      vertex -2.826729e+000 -4.244950e+000 -1.776357e-015
    endloop
  endfacet
  facet normal -5.423899e-001 -8.053144e-001  2.393369e-001
    outer loop
      vertex -2.455700e+000 -3.157458e+000  4.500000e+000
      vertex -2.826729e+000 -4.244950e+000 -1.776357e-015
      vertex -2.002887e+000 -3.462433e+000  4.500000e+000
    endloop
  endfacet
  facet normal -6.755955e-001 -6.985151e-001  2.358969e-001
    outer loop
      vertex -2.862768e+000 -2.793664e+000  4.500000e+000
      vertex -3.760473e+000 -3.445119e+000 -1.776357e-015
      vertex -3.317791e+000 -3.873275e+000 -1.776357e-015
    endloop
  endfacet
  facet normal -6.470305e-001 -7.239973e-001  2.391221e-001
    outer loop
      vertex -2.862768e+000 -2.793664e+000  4.500000e+000
      vertex -3.317791e+000 -3.873275e+000 -1.776357e-015
      vertex -2.455700e+000 -3.157458e+000  4.500000e+000
    endloop
  endfacet
  facet normal -7.547771e-001 -6.119158e-001  2.363696e-001
    outer loop
      vertex -3.216508e+000 -2.377831e+000  4.500000e+000
      vertex -4.148318e+000 -2.966725e+000 -1.776357e-015
      vertex -3.760473e+000 -3.445119e+000 -1.776357e-015
    endloop
  endfacet
  facet normal -7.396769e-001 -6.292254e-001  2.386496e-001
    outer loop
      vertex -3.216508e+000 -2.377831e+000  4.500000e+000
      vertex -3.760473e+000 -3.445119e+000 -1.776357e-015
      vertex -2.862768e+000 -2.793664e+000  4.500000e+000
    endloop
  endfacet
  facet normal -5.468020e-001  8.372619e-001  0.000000e+000
    outer loop
      vertex  1.534162e+000 -2.808264e+000 -8.881784e-016
      vertex  1.954583e+000 -2.533694e+000  4.500000e+000
      vertex  1.954583e+000 -2.533694e+000 -8.881784e-016
    endloop
  endfacet
  facet normal -6.710466e-001  7.414153e-001  0.000000e+000
    outer loop
      vertex  1.954583e+000 -2.533694e+000 -8.881784e-016
      vertex  1.954583e+000 -2.533694e+000  4.500000e+000
      vertex  2.326876e+000 -2.196736e+000  4.500000e+000
    endloop
  endfacet
  facet normal -6.710466e-001  7.414153e-001  0.000000e+000
    outer loop
      vertex  1.954583e+000 -2.533694e+000 -8.881784e-016
      vertex  2.326876e+000 -2.196736e+000  4.500000e+000
      vertex  2.326876e+000 -2.196736e+000 -8.881784e-016
    endloop
  endfacet
  facet normal -7.787678e-001  6.273123e-001  0.000000e+000
    outer loop
      vertex  2.326876e+000 -2.196736e+000 -8.881784e-016
      vertex  2.326876e+000 -2.196736e+000  4.500000e+000
      vertex  2.641873e+000 -1.805687e+000  4.500000e+000
    endloop
  endfacet
  facet normal -7.787678e-001  6.273123e-001  0.000000e+000
    outer loop
      vertex  2.326876e+000 -2.196736e+000 -8.881784e-016
      vertex  2.641873e+000 -1.805687e+000  4.500000e+000
      vertex  2.641873e+000 -1.805687e+000 -8.881784e-016
    endloop
  endfacet
  facet normal -8.673130e-001  4.977631e-001  0.000000e+000
    outer loop
      vertex  2.641873e+000 -1.805687e+000 -8.881784e-016
      vertex  2.641873e+000 -1.805687e+000  4.500000e+000
      vertex  2.891819e+000 -1.370176e+000  4.500000e+000
    endloop
  endfacet
  facet normal -8.673130e-001  4.977631e-001  0.000000e+000
    outer loop
      vertex  2.641873e+000 -1.805687e+000 -8.881784e-016
      vertex  2.891819e+000 -1.370176e+000  4.500000e+000
      vertex  2.891819e+000 -1.370176e+000 -8.881784e-016
    endloop
  endfacet
  facet normal -9.345024e-001  3.559569e-001  0.000000e+000
    outer loop
      vertex  2.891819e+000 -1.370176e+000 -8.881784e-016
      vertex  2.891819e+000 -1.370176e+000  4.500000e+000
      vertex  3.070559e+000 -9.009265e-001  4.500000e+000
    endloop
  endfacet
  facet normal -9.345024e-001  3.559569e-001  0.000000e+000
    outer loop
      vertex  2.891819e+000 -1.370176e+000 -8.881784e-016
      vertex  3.070559e+000 -9.009265e-001  4.500000e+000
      vertex  3.070559e+000 -9.009265e-001 -8.881784e-016
    endloop
  endfacet
  facet normal -9.786810e-001  2.053862e-001  0.000000e+000
    outer loop
      vertex  3.070559e+000 -9.009265e-001 -8.881784e-016
      vertex  3.070559e+000 -9.009265e-001  4.500000e+000
      vertex  3.173691e+000 -4.094934e-001  4.500000e+000
    endloop
  endfacet
  facet normal -9.786810e-001  2.053862e-001  0.000000e+000
    outer loop
      vertex  3.070559e+000 -9.009265e-001 -8.881784e-016
      vertex  3.173691e+000 -4.094934e-001  4.500000e+000
      vertex  3.173691e+000 -4.094934e-001 -8.881784e-016
    endloop
  endfacet
  facet normal -9.987613e-001  4.975832e-002  0.000000e+000
    outer loop
      vertex  3.173691e+000 -4.094934e-001 -8.881784e-016
      vertex  3.173691e+000 -4.094934e-001  4.500000e+000
      vertex  3.198677e+000  9.202284e-002  4.500000e+000
    endloop
  endfacet
  facet normal -9.987613e-001  4.975832e-002  0.000000e+000
    outer loop
      vertex  3.173691e+000 -4.094934e-001 -8.881784e-016
      vertex  3.198677e+000  9.202284e-002  4.500000e+000
      vertex  3.198677e+000  9.202284e-002 -8.881784e-016
    endloop
  endfacet
  facet normal -9.942488e-001 -1.070950e-001  0.000000e+000
    outer loop
      vertex  3.198677e+000  9.202284e-002 -8.881784e-016
      vertex  3.198677e+000  9.202284e-002  4.500000e+000
      vertex  3.144900e+000  5.912731e-001  4.500000e+000
    endloop
  endfacet
  facet normal -9.942488e-001 -1.070950e-001  -0.000000e+000
    outer loop
      vertex  3.198677e+000  9.202284e-002 -8.881784e-016
      vertex  3.144900e+000  5.912731e-001  4.500000e+000
      vertex  3.144900e+000  5.912731e-001 -8.881784e-016
    endloop
  endfacet
  facet normal -9.652545e-001 -2.613117e-001  0.000000e+000
    outer loop
      vertex  3.144900e+000  5.912731e-001 -8.881784e-016
      vertex  3.144900e+000  5.912731e-001  4.500000e+000
      vertex  3.013685e+000  1.075964e+000  4.500000e+000
    endloop
  endfacet
  facet normal -9.652545e-001 -2.613117e-001  -0.000000e+000
    outer loop
      vertex  3.144900e+000  5.912731e-001 -8.881784e-016
      vertex  3.013685e+000  1.075964e+000  4.500000e+000
      vertex  3.013685e+000  1.075964e+000 -8.881784e-016
    endloop
  endfacet
  facet normal -9.124927e-001 -4.090930e-001  0.000000e+000
    outer loop
      vertex  3.013685e+000  1.075964e+000 -8.881784e-016
      vertex  3.013685e+000  1.075964e+000  4.500000e+000
      vertex  2.808264e+000  1.534162e+000  4.500000e+000
    endloop
  endfacet
  facet normal -9.124927e-001 -4.090930e-001  -0.000000e+000
    outer loop
      vertex  3.013685e+000  1.075964e+000 -8.881784e-016
      vertex  2.808264e+000  1.534162e+000  4.500000e+000
      vertex  2.808264e+000  1.534162e+000 -8.881784e-016
    endloop
  endfacet
  facet normal -5.468020e-001  8.372619e-001  0.000000e+000
    outer loop
      vertex  1.954583e+000 -2.533694e+000  4.500000e+000
      vertex  1.534162e+000 -2.808264e+000 -8.881784e-016
      vertex  1.534162e+000 -2.808264e+000  4.500000e+000
    endloop
  endfacet
  facet normal -4.090930e-001  9.124927e-001  0.000000e+000
    outer loop
      vertex  1.534162e+000 -2.808264e+000  4.500000e+000
      vertex  1.534162e+000 -2.808264e+000 -8.881784e-016
      vertex  1.075964e+000 -3.013685e+000 -8.881784e-016
    endloop
  endfacet
  facet normal -4.090930e-001  9.124927e-001  0.000000e+000
    outer loop
      vertex  1.534162e+000 -2.808264e+000  4.500000e+000
      vertex  1.075964e+000 -3.013685e+000 -8.881784e-016
      vertex  1.075964e+000 -3.013685e+000  4.500000e+000
    endloop
  endfacet
  facet normal -2.613117e-001  9.652545e-001  0.000000e+000
    outer loop
      vertex  1.075964e+000 -3.013685e+000  4.500000e+000
      vertex  1.075964e+000 -3.013685e+000 -8.881784e-016
      vertex  5.912731e-001 -3.144900e+000 -8.881784e-016
    endloop
  endfacet
  facet normal -2.613117e-001  9.652545e-001  0.000000e+000
    outer loop
      vertex  1.075964e+000 -3.013685e+000  4.500000e+000
      vertex  5.912731e-001 -3.144900e+000 -8.881784e-016
      vertex  5.912731e-001 -3.144900e+000  4.500000e+000
    endloop
  endfacet
  facet normal -1.070950e-001  9.942488e-001  0.000000e+000
    outer loop
      vertex  5.912731e-001 -3.144900e+000  4.500000e+000
      vertex  5.912731e-001 -3.144900e+000 -8.881784e-016
      vertex  9.202284e-002 -3.198677e+000 -8.881784e-016
    endloop
  endfacet
  facet normal -1.070950e-001  9.942488e-001  0.000000e+000
    outer loop
      vertex  5.912731e-001 -3.144900e+000  4.500000e+000
      vertex  9.202284e-002 -3.198677e+000 -8.881784e-016
      vertex  9.202284e-002 -3.198677e+000  4.500000e+000
    endloop
  endfacet
  facet normal  4.975832e-002  9.987613e-001  0.000000e+000
    outer loop
      vertex  9.202284e-002 -3.198677e+000  4.500000e+000
      vertex  9.202284e-002 -3.198677e+000 -8.881784e-016
      vertex -4.094934e-001 -3.173691e+000 -8.881784e-016
    endloop
  endfacet
  facet normal  4.975832e-002  9.987613e-001  -0.000000e+000
    outer loop
      vertex  9.202284e-002 -3.198677e+000  4.500000e+000
      vertex -4.094934e-001 -3.173691e+000 -8.881784e-016
      vertex -4.094934e-001 -3.173691e+000  4.500000e+000
    endloop
  endfacet
  facet normal  2.053862e-001  9.786810e-001  0.000000e+000
    outer loop
      vertex -4.094934e-001 -3.173691e+000  4.500000e+000
      vertex -4.094934e-001 -3.173691e+000 -8.881784e-016
      vertex -9.009265e-001 -3.070559e+000 -8.881784e-016
    endloop
  endfacet
  facet normal  2.053862e-001  9.786810e-001  -0.000000e+000
    outer loop
      vertex -4.094934e-001 -3.173691e+000  4.500000e+000
      vertex -9.009265e-001 -3.070559e+000 -8.881784e-016
      vertex -9.009265e-001 -3.070559e+000  4.500000e+000
    endloop
  endfacet
  facet normal  3.559569e-001  9.345024e-001  0.000000e+000
    outer loop
      vertex -9.009265e-001 -3.070559e+000  4.500000e+000
      vertex -9.009265e-001 -3.070559e+000 -8.881784e-016
      vertex -1.370176e+000 -2.891819e+000 -8.881784e-016
    endloop
  endfacet
  facet normal  3.559569e-001  9.345024e-001  -0.000000e+000
    outer loop
      vertex -9.009265e-001 -3.070559e+000  4.500000e+000
      vertex -1.370176e+000 -2.891819e+000 -8.881784e-016
      vertex -1.370176e+000 -2.891819e+000  4.500000e+000
    endloop
  endfacet
  facet normal  4.977631e-001  8.673130e-001  0.000000e+000
    outer loop
      vertex -1.370176e+000 -2.891819e+000  4.500000e+000
      vertex -1.370176e+000 -2.891819e+000 -8.881784e-016
      vertex -1.805687e+000 -2.641873e+000 -8.881784e-016
    endloop
  endfacet
  facet normal  4.977631e-001  8.673130e-001  -0.000000e+000
    outer loop
      vertex -1.370176e+000 -2.891819e+000  4.500000e+000
      vertex -1.805687e+000 -2.641873e+000 -8.881784e-016
      vertex -1.805687e+000 -2.641873e+000  4.500000e+000
    endloop
  endfacet
  facet normal  6.273123e-001  7.787678e-001  0.000000e+000
    outer loop
      vertex -1.805687e+000 -2.641873e+000  4.500000e+000
      vertex -1.805687e+000 -2.641873e+000 -8.881784e-016
      vertex -2.196736e+000 -2.326876e+000 -8.881784e-016
    endloop
  endfacet
  facet normal  6.273123e-001  7.787678e-001  -0.000000e+000
    outer loop
      vertex -1.805687e+000 -2.641873e+000  4.500000e+000
      vertex -2.196736e+000 -2.326876e+000 -8.881784e-016
      vertex -2.196736e+000 -2.326876e+000  4.500000e+000
    endloop
  endfacet
  facet normal  7.414153e-001  6.710466e-001  0.000000e+000
    outer loop
      vertex -2.196736e+000 -2.326876e+000  4.500000e+000
      vertex -2.196736e+000 -2.326876e+000 -8.881784e-016
      vertex -2.533694e+000 -1.954583e+000 -8.881784e-016
    endloop
  endfacet
  facet normal  7.414153e-001  6.710466e-001  -0.000000e+000
    outer loop
      vertex -2.196736e+000 -2.326876e+000  4.500000e+000
      vertex -2.533694e+000 -1.954583e+000 -8.881784e-016
      vertex -2.533694e+000 -1.954583e+000  4.500000e+000
    endloop
  endfacet
  facet normal  8.372619e-001  5.468020e-001  0.000000e+000
    outer loop
      vertex -2.533694e+000 -1.954583e+000  4.500000e+000
      vertex -2.533694e+000 -1.954583e+000 -8.881784e-016
      vertex -2.808264e+000 -1.534162e+000 -8.881784e-016
    endloop
  endfacet
  facet normal  8.372619e-001  5.468020e-001  -0.000000e+000
    outer loop
      vertex -2.533694e+000 -1.954583e+000  4.500000e+000
      vertex -2.808264e+000 -1.534162e+000 -8.881784e-016
      vertex -2.808264e+000 -1.534162e+000  4.500000e+000
    endloop
  endfacet
endsolid CATIA STL
