solid CATIA STL
  facet normal  -0.000000e+000  0.000000e+000 -1.000000e+000
    outer loop
      vertex  0.000000e+000  1.000000e+001  0.000000e+000
      vertex  1.450000e+001  1.000000e+001  0.000000e+000
      vertex  8.000000e+000  6.500000e+000  0.000000e+000
    endloop
  endfacet
  facet normal  -0.000000e+000  0.000000e+000 -1.000000e+000
    outer loop
      vertex  0.000000e+000  1.000000e+001  0.000000e+000
      vertex  8.000000e+000  6.500000e+000  0.000000e+000
      vertex  6.939340e+000  6.060660e+000  0.000000e+000
    endloop
  endfacet
  facet normal  -0.000000e+000  0.000000e+000 -9.999999e-001
    outer loop
      vertex  0.000000e+000  1.000000e+001  0.000000e+000
      vertex  6.939340e+000  6.060660e+000  0.000000e+000
      vertex  0.000000e+000  2.000000e+000  0.000000e+000
    endloop
  endfacet
  facet normal  0.000000e+000  0.000000e+000 -9.999999e-001
    outer loop
      vertex  1.450000e+001  5.000000e+000  0.000000e+000
      vertex  9.500000e+000  5.000000e+000  0.000000e+000
      vertex  9.060660e+000  6.060660e+000  0.000000e+000
    endloop
  endfacet
  facet normal  0.000000e+000  0.000000e+000 -1.000000e+000
    outer loop
      vertex  1.450000e+001  5.000000e+000  0.000000e+000
      vertex  9.060660e+000  6.060660e+000  0.000000e+000
      vertex  8.000000e+000  6.500000e+000  0.000000e+000
    endloop
  endfacet
  facet normal  0.000000e+000  0.000000e+000 -1.000000e+000
    outer loop
      vertex  1.450000e+001  5.000000e+000  0.000000e+000
      vertex  8.000000e+000  6.500000e+000  0.000000e+000
      vertex  1.450000e+001  1.000000e+001  0.000000e+000
    endloop
  endfacet
  facet normal  0.000000e+000  0.000000e+000 -1.000000e+000
    outer loop
      vertex  2.950000e+001  5.000000e+000  0.000000e+000
      vertex  2.950000e+001  1.000000e+001  0.000000e+000
      vertex  3.600000e+001  6.500000e+000  0.000000e+000
    endloop
  endfacet
  facet normal  0.000000e+000  0.000000e+000 -1.000000e+000
    outer loop
      vertex  2.950000e+001  5.000000e+000  0.000000e+000
      vertex  3.600000e+001  6.500000e+000  0.000000e+000
      vertex  3.493934e+001  6.060660e+000  0.000000e+000
    endloop
  endfacet
  facet normal  0.000000e+000  0.000000e+000 -9.999999e-001
    outer loop
      vertex  2.950000e+001  5.000000e+000  0.000000e+000
      vertex  3.493934e+001  6.060660e+000  0.000000e+000
      vertex  3.450000e+001  5.000000e+000  0.000000e+000
    endloop
  endfacet
  facet normal  -0.000000e+000  -0.000000e+000 -1.000000e+000
    outer loop
      vertex  2.950000e+001  5.000000e+000  0.000000e+000
      vertex  3.450000e+001  5.000000e+000  0.000000e+000
      vertex  3.493934e+001  3.939340e+000  0.000000e+000
    endloop
  endfacet
  facet normal  0.000000e+000  0.000000e+000 -1.000000e+000
    outer loop
      vertex  4.400000e+001  1.000000e+001  0.000000e+000
      vertex  4.400000e+001  2.000000e+000  0.000000e+000
      vertex  3.706066e+001  6.060660e+000  0.000000e+000
    endloop
  endfacet
  facet normal  0.000000e+000  0.000000e+000 -1.000000e+000
    outer loop
      vertex  4.400000e+001  1.000000e+001  0.000000e+000
      vertex  3.706066e+001  6.060660e+000  0.000000e+000
      vertex  3.600000e+001  6.500000e+000  0.000000e+000
    endloop
  endfacet
  facet normal  0.000000e+000  0.000000e+000 -1.000000e+000
    outer loop
      vertex  4.400000e+001  1.000000e+001  0.000000e+000
      vertex  3.600000e+001  6.500000e+000  0.000000e+000
      vertex  2.950000e+001  1.000000e+001  0.000000e+000
    endloop
  endfacet
  facet normal  0.000000e+000  0.000000e+000 -9.999999e-001
    outer loop
      vertex  0.000000e+000  2.000000e+000  0.000000e+000
      vertex  6.939340e+000  6.060660e+000  0.000000e+000
      vertex  6.500000e+000  5.000000e+000  0.000000e+000
    endloop
  endfacet
  facet normal  0.000000e+000  -0.000000e+000 -1.000000e+000
    outer loop
      vertex  0.000000e+000  2.000000e+000  0.000000e+000
      vertex  6.500000e+000  5.000000e+000  0.000000e+000
      vertex  6.939340e+000  3.939340e+000  0.000000e+000
    endloop
  endfacet
  facet normal  0.000000e+000  -0.000000e+000 -1.000000e+000
    outer loop
      vertex  0.000000e+000  2.000000e+000  0.000000e+000
      vertex  6.939340e+000  3.939340e+000  0.000000e+000
      vertex  8.000000e+000  3.500000e+000  0.000000e+000
    endloop
  endfacet
  facet normal  0.000000e+000  0.000000e+000 -1.000000e+000
    outer loop
      vertex  3.493934e+001  3.939340e+000  0.000000e+000
      vertex  3.600000e+001  3.500000e+000  0.000000e+000
      vertex  8.000000e+000  3.500000e+000  0.000000e+000
    endloop
  endfacet
  facet normal  0.000000e+000  0.000000e+000 -1.000000e+000
    outer loop
      vertex  3.493934e+001  3.939340e+000  0.000000e+000
      vertex  8.000000e+000  3.500000e+000  0.000000e+000
      vertex  9.060660e+000  3.939340e+000  0.000000e+000
    endloop
  endfacet
  facet normal  0.000000e+000  0.000000e+000 -1.000000e+000
    outer loop
      vertex  3.493934e+001  3.939340e+000  0.000000e+000
      vertex  9.060660e+000  3.939340e+000  0.000000e+000
      vertex  9.500000e+000  5.000000e+000  0.000000e+000
    endloop
  endfacet
  facet normal  0.000000e+000  0.000000e+000 -1.000000e+000
    outer loop
      vertex  3.493934e+001  3.939340e+000  0.000000e+000
      vertex  9.500000e+000  5.000000e+000  0.000000e+000
      vertex  1.450000e+001  5.000000e+000  0.000000e+000
    endloop
  endfacet
  facet normal  0.000000e+000  0.000000e+000 -1.000000e+000
    outer loop
      vertex  3.493934e+001  3.939340e+000  0.000000e+000
      vertex  1.450000e+001  5.000000e+000  0.000000e+000
      vertex  2.950000e+001  5.000000e+000  0.000000e+000
    endloop
  endfacet
  facet normal  0.000000e+000  0.000000e+000 -1.000000e+000
    outer loop
      vertex  4.400000e+001  2.000000e+000  0.000000e+000
      vertex  3.600000e+001  3.500000e+000  0.000000e+000
      vertex  3.706066e+001  3.939340e+000  0.000000e+000
    endloop
  endfacet
  facet normal  0.000000e+000  0.000000e+000 -1.000000e+000
    outer loop
      vertex  4.400000e+001  2.000000e+000  0.000000e+000
      vertex  3.706066e+001  3.939340e+000  0.000000e+000
      vertex  3.750000e+001  5.000000e+000  0.000000e+000
    endloop
  endfacet
  facet normal  0.000000e+000  0.000000e+000 -1.000000e+000
    outer loop
      vertex  4.400000e+001  2.000000e+000  0.000000e+000
      vertex  3.750000e+001  5.000000e+000  0.000000e+000
      vertex  3.706066e+001  6.060660e+000  0.000000e+000
    endloop
  endfacet
  facet normal  0.000000e+000  0.000000e+000 -1.000000e+000
    outer loop
      vertex  4.200000e+001  0.000000e+000  0.000000e+000
      vertex  4.400000e+001  2.000000e+000  0.000000e+000
      vertex  4.341422e+001  5.857865e-001  0.000000e+000
    endloop
  endfacet
  facet normal  0.000000e+000  0.000000e+000 -1.000000e+000
    outer loop
      vertex  4.400000e+001  2.000000e+000  0.000000e+000
      vertex  4.200000e+001  0.000000e+000  0.000000e+000
      vertex  3.600000e+001  3.500000e+000  0.000000e+000
    endloop
  endfacet
  facet normal  0.000000e+000  -0.000000e+000 -1.000000e+000
    outer loop
      vertex  3.600000e+001  3.500000e+000  0.000000e+000
      vertex  4.200000e+001  0.000000e+000  0.000000e+000
      vertex  2.000000e+000  0.000000e+000  0.000000e+000
    endloop
  endfacet
  facet normal  0.000000e+000  0.000000e+000 -1.000000e+000
    outer loop
      vertex  3.600000e+001  3.500000e+000  0.000000e+000
      vertex  2.000000e+000  0.000000e+000  0.000000e+000
      vertex  8.000000e+000  3.500000e+000  0.000000e+000
    endloop
  endfacet
  facet normal  0.000000e+000  0.000000e+000 -1.000000e+000
    outer loop
      vertex  8.000000e+000  3.500000e+000  0.000000e+000
      vertex  2.000000e+000  0.000000e+000  0.000000e+000
      vertex  5.857865e-001  5.857865e-001  0.000000e+000
    endloop
  endfacet
  facet normal  0.000000e+000  0.000000e+000 -1.000000e+000
    outer loop
      vertex  8.000000e+000  3.500000e+000  0.000000e+000
      vertex  5.857865e-001  5.857865e-001  0.000000e+000
      vertex  0.000000e+000  2.000000e+000  0.000000e+000
    endloop
  endfacet
  facet normal  0.000000e+000 -1.000000e+000  0.000000e+000
    outer loop
      vertex  4.200000e+001  0.000000e+000  3.000000e+000
      vertex  2.000000e+000  0.000000e+000  3.000000e+000
      vertex  4.200000e+001  0.000000e+000  0.000000e+000
    endloop
  endfacet
  facet normal  0.000000e+000 -1.000000e+000  0.000000e+000
    outer loop
      vertex  4.200000e+001  0.000000e+000  0.000000e+000
      vertex  2.000000e+000  0.000000e+000  3.000000e+000
      vertex  2.000000e+000  0.000000e+000  0.000000e+000
    endloop
  endfacet
  facet normal  0.000000e+000  0.000000e+000  9.999999e-001
    outer loop
      vertex  0.000000e+000  1.000000e+001  3.000000e+000
      vertex  0.000000e+000  2.000000e+000  3.000000e+000
      vertex  6.939340e+000  6.060660e+000  3.000000e+000
    endloop
  endfacet
  facet normal  0.000000e+000  -0.000000e+000  1.000000e+000
    outer loop
      vertex  0.000000e+000  1.000000e+001  3.000000e+000
      vertex  6.939340e+000  6.060660e+000  3.000000e+000
      vertex  8.000000e+000  6.500000e+000  3.000000e+000
    endloop
  endfacet
  facet normal  0.000000e+000  -0.000000e+000  1.000000e+000
    outer loop
      vertex  0.000000e+000  1.000000e+001  3.000000e+000
      vertex  8.000000e+000  6.500000e+000  3.000000e+000
      vertex  1.450000e+001  1.000000e+001  3.000000e+000
    endloop
  endfacet
  facet normal  0.000000e+000  0.000000e+000  1.000000e+000
    outer loop
      vertex  1.450000e+001  5.000000e+000  3.000000e+000
      vertex  1.450000e+001  1.000000e+001  3.000000e+000
      vertex  8.000000e+000  6.500000e+000  3.000000e+000
    endloop
  endfacet
  facet normal  0.000000e+000  0.000000e+000  1.000000e+000
    outer loop
      vertex  1.450000e+001  5.000000e+000  3.000000e+000
      vertex  8.000000e+000  6.500000e+000  3.000000e+000
      vertex  9.060660e+000  6.060660e+000  3.000000e+000
    endloop
  endfacet
  facet normal  0.000000e+000  0.000000e+000  9.999999e-001
    outer loop
      vertex  1.450000e+001  5.000000e+000  3.000000e+000
      vertex  9.060660e+000  6.060660e+000  3.000000e+000
      vertex  9.500000e+000  5.000000e+000  3.000000e+000
    endloop
  endfacet
  facet normal  0.000000e+000  0.000000e+000  1.000000e+000
    outer loop
      vertex  2.950000e+001  5.000000e+000  3.000000e+000
      vertex  3.493934e+001  3.939340e+000  3.000000e+000
      vertex  3.450000e+001  5.000000e+000  3.000000e+000
    endloop
  endfacet
  facet normal  0.000000e+000  -0.000000e+000  9.999999e-001
    outer loop
      vertex  2.950000e+001  5.000000e+000  3.000000e+000
      vertex  3.450000e+001  5.000000e+000  3.000000e+000
      vertex  3.493934e+001  6.060660e+000  3.000000e+000
    endloop
  endfacet
  facet normal  0.000000e+000  -0.000000e+000  1.000000e+000
    outer loop
      vertex  2.950000e+001  5.000000e+000  3.000000e+000
      vertex  3.493934e+001  6.060660e+000  3.000000e+000
      vertex  3.600000e+001  6.500000e+000  3.000000e+000
    endloop
  endfacet
  facet normal  0.000000e+000  0.000000e+000  1.000000e+000
    outer loop
      vertex  2.950000e+001  5.000000e+000  3.000000e+000
      vertex  3.600000e+001  6.500000e+000  3.000000e+000
      vertex  2.950000e+001  1.000000e+001  3.000000e+000
    endloop
  endfacet
  facet normal  -0.000000e+000  0.000000e+000  1.000000e+000
    outer loop
      vertex  4.400000e+001  1.000000e+001  3.000000e+000
      vertex  2.950000e+001  1.000000e+001  3.000000e+000
      vertex  3.600000e+001  6.500000e+000  3.000000e+000
    endloop
  endfacet
  facet normal  -0.000000e+000  0.000000e+000  1.000000e+000
    outer loop
      vertex  4.400000e+001  1.000000e+001  3.000000e+000
      vertex  3.600000e+001  6.500000e+000  3.000000e+000
      vertex  3.706066e+001  6.060660e+000  3.000000e+000
    endloop
  endfacet
  facet normal  -0.000000e+000  0.000000e+000  1.000000e+000
    outer loop
      vertex  4.400000e+001  1.000000e+001  3.000000e+000
      vertex  3.706066e+001  6.060660e+000  3.000000e+000
      vertex  4.400000e+001  2.000000e+000  3.000000e+000
    endloop
  endfacet
  facet normal  0.000000e+000  0.000000e+000  1.000000e+000
    outer loop
      vertex  0.000000e+000  2.000000e+000  3.000000e+000
      vertex  8.000000e+000  3.500000e+000  3.000000e+000
      vertex  6.939340e+000  3.939340e+000  3.000000e+000
    endloop
  endfacet
  facet normal  0.000000e+000  0.000000e+000  1.000000e+000
    outer loop
      vertex  0.000000e+000  2.000000e+000  3.000000e+000
      vertex  6.939340e+000  3.939340e+000  3.000000e+000
      vertex  6.500000e+000  5.000000e+000  3.000000e+000
    endloop
  endfacet
  facet normal  0.000000e+000  -0.000000e+000  9.999999e-001
    outer loop
      vertex  0.000000e+000  2.000000e+000  3.000000e+000
      vertex  6.500000e+000  5.000000e+000  3.000000e+000
      vertex  6.939340e+000  6.060660e+000  3.000000e+000
    endloop
  endfacet
  facet normal  0.000000e+000  0.000000e+000  1.000000e+000
    outer loop
      vertex  3.493934e+001  3.939340e+000  3.000000e+000
      vertex  2.950000e+001  5.000000e+000  3.000000e+000
      vertex  1.450000e+001  5.000000e+000  3.000000e+000
    endloop
  endfacet
  facet normal  0.000000e+000  0.000000e+000  1.000000e+000
    outer loop
      vertex  3.493934e+001  3.939340e+000  3.000000e+000
      vertex  1.450000e+001  5.000000e+000  3.000000e+000
      vertex  9.500000e+000  5.000000e+000  3.000000e+000
    endloop
  endfacet
  facet normal  0.000000e+000  0.000000e+000  1.000000e+000
    outer loop
      vertex  3.493934e+001  3.939340e+000  3.000000e+000
      vertex  9.500000e+000  5.000000e+000  3.000000e+000
      vertex  9.060660e+000  3.939340e+000  3.000000e+000
    endloop
  endfacet
  facet normal  -0.000000e+000  0.000000e+000  1.000000e+000
    outer loop
      vertex  3.493934e+001  3.939340e+000  3.000000e+000
      vertex  9.060660e+000  3.939340e+000  3.000000e+000
      vertex  8.000000e+000  3.500000e+000  3.000000e+000
    endloop
  endfacet
  facet normal  0.000000e+000  0.000000e+000  1.000000e+000
    outer loop
      vertex  3.493934e+001  3.939340e+000  3.000000e+000
      vertex  8.000000e+000  3.500000e+000  3.000000e+000
      vertex  3.600000e+001  3.500000e+000  3.000000e+000
    endloop
  endfacet
  facet normal  0.000000e+000  0.000000e+000  1.000000e+000
    outer loop
      vertex  4.400000e+001  2.000000e+000  3.000000e+000
      vertex  3.706066e+001  6.060660e+000  3.000000e+000
      vertex  3.750000e+001  5.000000e+000  3.000000e+000
    endloop
  endfacet
  facet normal  0.000000e+000  0.000000e+000  1.000000e+000
    outer loop
      vertex  4.400000e+001  2.000000e+000  3.000000e+000
      vertex  3.750000e+001  5.000000e+000  3.000000e+000
      vertex  3.706066e+001  3.939340e+000  3.000000e+000
    endloop
  endfacet
  facet normal  0.000000e+000  0.000000e+000  1.000000e+000
    outer loop
      vertex  4.400000e+001  2.000000e+000  3.000000e+000
      vertex  3.706066e+001  3.939340e+000  3.000000e+000
      vertex  3.600000e+001  3.500000e+000  3.000000e+000
    endloop
  endfacet
  facet normal  0.000000e+000  0.000000e+000  1.000000e+000
    outer loop
      vertex  4.341422e+001  5.857865e-001  3.000000e+000
      vertex  4.400000e+001  2.000000e+000  3.000000e+000
      vertex  4.200000e+001  0.000000e+000  3.000000e+000
    endloop
  endfacet
  facet normal  0.000000e+000  -0.000000e+000  1.000000e+000
    outer loop
      vertex  4.200000e+001  0.000000e+000  3.000000e+000
      vertex  4.400000e+001  2.000000e+000  3.000000e+000
      vertex  3.600000e+001  3.500000e+000  3.000000e+000
    endloop
  endfacet
  facet normal  0.000000e+000  0.000000e+000  1.000000e+000
    outer loop
      vertex  4.200000e+001  0.000000e+000  3.000000e+000
      vertex  3.600000e+001  3.500000e+000  3.000000e+000
      vertex  2.000000e+000  0.000000e+000  3.000000e+000
    endloop
  endfacet
  facet normal  0.000000e+000  0.000000e+000  1.000000e+000
    outer loop
      vertex  2.000000e+000  0.000000e+000  3.000000e+000
      vertex  3.600000e+001  3.500000e+000  3.000000e+000
      vertex  8.000000e+000  3.500000e+000  3.000000e+000
    endloop
  endfacet
  facet normal  0.000000e+000  0.000000e+000  1.000000e+000
    outer loop
      vertex  2.000000e+000  0.000000e+000  3.000000e+000
      vertex  8.000000e+000  3.500000e+000  3.000000e+000
      vertex  5.857865e-001  5.857865e-001  3.000000e+000
    endloop
  endfacet
  facet normal  0.000000e+000  -0.000000e+000  1.000000e+000
    outer loop
      vertex  5.857865e-001  5.857865e-001  3.000000e+000
      vertex  8.000000e+000  3.500000e+000  3.000000e+000
      vertex  0.000000e+000  2.000000e+000  3.000000e+000
    endloop
  endfacet
  facet normal -1.000000e+000  -0.000000e+000  0.000000e+000
    outer loop
      vertex  0.000000e+000  2.000000e+000  3.000000e+000
      vertex  0.000000e+000  1.000000e+001  3.000000e+000
      vertex  0.000000e+000  2.000000e+000  0.000000e+000
    endloop
  endfacet
  facet normal -1.000000e+000  0.000000e+000  0.000000e+000
    outer loop
      vertex  0.000000e+000  2.000000e+000  0.000000e+000
      vertex  0.000000e+000  1.000000e+001  3.000000e+000
      vertex  0.000000e+000  1.000000e+001  0.000000e+000
    endloop
  endfacet
  facet normal -3.826834e-001 -9.238794e-001  -0.000000e+000
    outer loop
      vertex  2.000000e+000  0.000000e+000  0.000000e+000
      vertex  2.000000e+000  0.000000e+000  3.000000e+000
      vertex  5.857865e-001  5.857865e-001  0.000000e+000
    endloop
  endfacet
  facet normal -3.826834e-001 -9.238794e-001  0.000000e+000
    outer loop
      vertex  5.857865e-001  5.857865e-001  0.000000e+000
      vertex  2.000000e+000  0.000000e+000  3.000000e+000
      vertex  5.857865e-001  5.857865e-001  3.000000e+000
    endloop
  endfacet
  facet normal -9.238794e-001 -3.826834e-001  -0.000000e+000
    outer loop
      vertex  5.857865e-001  5.857865e-001  0.000000e+000
      vertex  5.857865e-001  5.857865e-001  3.000000e+000
      vertex  0.000000e+000  2.000000e+000  0.000000e+000
    endloop
  endfacet
  facet normal -9.238794e-001 -3.826834e-001  0.000000e+000
    outer loop
      vertex  0.000000e+000  2.000000e+000  0.000000e+000
      vertex  5.857865e-001  5.857865e-001  3.000000e+000
      vertex  0.000000e+000  2.000000e+000  3.000000e+000
    endloop
  endfacet
  facet normal  1.000000e+000  -0.000000e+000  0.000000e+000
    outer loop
      vertex  4.400000e+001  1.000000e+001  3.000000e+000
      vertex  4.400000e+001  2.000000e+000  3.000000e+000
      vertex  4.400000e+001  1.000000e+001  0.000000e+000
    endloop
  endfacet
  facet normal  1.000000e+000  0.000000e+000  0.000000e+000
    outer loop
      vertex  4.400000e+001  1.000000e+001  0.000000e+000
      vertex  4.400000e+001  2.000000e+000  3.000000e+000
      vertex  4.400000e+001  2.000000e+000  0.000000e+000
    endloop
  endfacet
  facet normal  9.238799e-001 -3.826826e-001  0.000000e+000
    outer loop
      vertex  4.400000e+001  2.000000e+000  0.000000e+000
      vertex  4.400000e+001  2.000000e+000  3.000000e+000
      vertex  4.341422e+001  5.857865e-001  0.000000e+000
    endloop
  endfacet
  facet normal  9.238799e-001 -3.826826e-001  0.000000e+000
    outer loop
      vertex  4.341422e+001  5.857865e-001  0.000000e+000
      vertex  4.400000e+001  2.000000e+000  3.000000e+000
      vertex  4.341422e+001  5.857865e-001  3.000000e+000
    endloop
  endfacet
  facet normal  3.826831e-001 -9.238797e-001  0.000000e+000
    outer loop
      vertex  4.341422e+001  5.857865e-001  0.000000e+000
      vertex  4.341422e+001  5.857865e-001  3.000000e+000
      vertex  4.200000e+001  0.000000e+000  0.000000e+000
    endloop
  endfacet
  facet normal  3.826831e-001 -9.238797e-001  0.000000e+000
    outer loop
      vertex  4.200000e+001  0.000000e+000  0.000000e+000
      vertex  4.341422e+001  5.857865e-001  3.000000e+000
      vertex  4.200000e+001  0.000000e+000  3.000000e+000
    endloop
  endfacet
  facet normal  3.826829e-001 -9.238797e-001  0.000000e+000
    outer loop
      vertex  3.600000e+001  6.500000e+000  0.000000e+000
      vertex  3.493934e+001  6.060660e+000  3.000000e+000
      vertex  3.493934e+001  6.060660e+000  0.000000e+000
    endloop
  endfacet
  facet normal  9.238799e-001 -3.826825e-001  0.000000e+000
    outer loop
      vertex  3.493934e+001  6.060660e+000  0.000000e+000
      vertex  3.493934e+001  6.060660e+000  3.000000e+000
      vertex  3.450000e+001  5.000000e+000  3.000000e+000
    endloop
  endfacet
  facet normal  9.238799e-001 -3.826825e-001  0.000000e+000
    outer loop
      vertex  3.493934e+001  6.060660e+000  0.000000e+000
      vertex  3.450000e+001  5.000000e+000  3.000000e+000
      vertex  3.450000e+001  5.000000e+000  0.000000e+000
    endloop
  endfacet
  facet normal  3.826829e-001 -9.238797e-001  0.000000e+000
    outer loop
      vertex  3.493934e+001  6.060660e+000  3.000000e+000
      vertex  3.600000e+001  6.500000e+000  0.000000e+000
      vertex  3.600000e+001  6.500000e+000  3.000000e+000
    endloop
  endfacet
  facet normal -3.826829e-001 -9.238797e-001  -0.000000e+000
    outer loop
      vertex  3.600000e+001  6.500000e+000  3.000000e+000
      vertex  3.600000e+001  6.500000e+000  0.000000e+000
      vertex  3.706066e+001  6.060660e+000  0.000000e+000
    endloop
  endfacet
  facet normal -3.826829e-001 -9.238797e-001  0.000000e+000
    outer loop
      vertex  3.600000e+001  6.500000e+000  3.000000e+000
      vertex  3.706066e+001  6.060660e+000  0.000000e+000
      vertex  3.706066e+001  6.060660e+000  3.000000e+000
    endloop
  endfacet
  facet normal -9.238799e-001 -3.826825e-001  -0.000000e+000
    outer loop
      vertex  3.706066e+001  6.060660e+000  3.000000e+000
      vertex  3.706066e+001  6.060660e+000  0.000000e+000
      vertex  3.750000e+001  5.000000e+000  0.000000e+000
    endloop
  endfacet
  facet normal -9.238799e-001 -3.826825e-001  0.000000e+000
    outer loop
      vertex  3.706066e+001  6.060660e+000  3.000000e+000
      vertex  3.750000e+001  5.000000e+000  0.000000e+000
      vertex  3.750000e+001  5.000000e+000  3.000000e+000
    endloop
  endfacet
  facet normal -3.826831e-001  9.238796e-001  0.000000e+000
    outer loop
      vertex  3.600000e+001  3.500000e+000  0.000000e+000
      vertex  3.706066e+001  3.939340e+000  3.000000e+000
      vertex  3.706066e+001  3.939340e+000  0.000000e+000
    endloop
  endfacet
  facet normal -9.238799e-001  3.826826e-001  0.000000e+000
    outer loop
      vertex  3.706066e+001  3.939340e+000  0.000000e+000
      vertex  3.706066e+001  3.939340e+000  3.000000e+000
      vertex  3.750000e+001  5.000000e+000  3.000000e+000
    endloop
  endfacet
  facet normal -9.238799e-001  3.826826e-001  0.000000e+000
    outer loop
      vertex  3.706066e+001  3.939340e+000  0.000000e+000
      vertex  3.750000e+001  5.000000e+000  3.000000e+000
      vertex  3.750000e+001  5.000000e+000  0.000000e+000
    endloop
  endfacet
  facet normal -3.826831e-001  9.238796e-001  0.000000e+000
    outer loop
      vertex  3.706066e+001  3.939340e+000  3.000000e+000
      vertex  3.600000e+001  3.500000e+000  0.000000e+000
      vertex  3.600000e+001  3.500000e+000  3.000000e+000
    endloop
  endfacet
  facet normal  3.826831e-001  9.238796e-001  0.000000e+000
    outer loop
      vertex  3.600000e+001  3.500000e+000  3.000000e+000
      vertex  3.600000e+001  3.500000e+000  0.000000e+000
      vertex  3.493934e+001  3.939340e+000  0.000000e+000
    endloop
  endfacet
  facet normal  3.826831e-001  9.238796e-001  -0.000000e+000
    outer loop
      vertex  3.600000e+001  3.500000e+000  3.000000e+000
      vertex  3.493934e+001  3.939340e+000  0.000000e+000
      vertex  3.493934e+001  3.939340e+000  3.000000e+000
    endloop
  endfacet
  facet normal  9.238799e-001  3.826826e-001  0.000000e+000
    outer loop
      vertex  3.493934e+001  3.939340e+000  3.000000e+000
      vertex  3.493934e+001  3.939340e+000  0.000000e+000
      vertex  3.450000e+001  5.000000e+000  0.000000e+000
    endloop
  endfacet
  facet normal  9.238799e-001  3.826826e-001  -0.000000e+000
    outer loop
      vertex  3.493934e+001  3.939340e+000  3.000000e+000
      vertex  3.450000e+001  5.000000e+000  0.000000e+000
      vertex  3.450000e+001  5.000000e+000  3.000000e+000
    endloop
  endfacet
  facet normal  3.826832e-001 -9.238796e-001  0.000000e+000
    outer loop
      vertex  8.000000e+000  6.500000e+000  0.000000e+000
      vertex  6.939340e+000  6.060660e+000  3.000000e+000
      vertex  6.939340e+000  6.060660e+000  0.000000e+000
    endloop
  endfacet
  facet normal  9.238796e-001 -3.826832e-001  0.000000e+000
    outer loop
      vertex  6.939340e+000  6.060660e+000  0.000000e+000
      vertex  6.939340e+000  6.060660e+000  3.000000e+000
      vertex  6.500000e+000  5.000000e+000  3.000000e+000
    endloop
  endfacet
  facet normal  9.238796e-001 -3.826832e-001  0.000000e+000
    outer loop
      vertex  6.939340e+000  6.060660e+000  0.000000e+000
      vertex  6.500000e+000  5.000000e+000  3.000000e+000
      vertex  6.500000e+000  5.000000e+000  0.000000e+000
    endloop
  endfacet
  facet normal  3.826832e-001 -9.238796e-001  0.000000e+000
    outer loop
      vertex  6.939340e+000  6.060660e+000  3.000000e+000
      vertex  8.000000e+000  6.500000e+000  0.000000e+000
      vertex  8.000000e+000  6.500000e+000  3.000000e+000
    endloop
  endfacet
  facet normal -3.826832e-001 -9.238796e-001  -0.000000e+000
    outer loop
      vertex  8.000000e+000  6.500000e+000  3.000000e+000
      vertex  8.000000e+000  6.500000e+000  0.000000e+000
      vertex  9.060660e+000  6.060660e+000  0.000000e+000
    endloop
  endfacet
  facet normal -3.826832e-001 -9.238796e-001  0.000000e+000
    outer loop
      vertex  8.000000e+000  6.500000e+000  3.000000e+000
      vertex  9.060660e+000  6.060660e+000  0.000000e+000
      vertex  9.060660e+000  6.060660e+000  3.000000e+000
    endloop
  endfacet
  facet normal -9.238796e-001 -3.826832e-001  -0.000000e+000
    outer loop
      vertex  9.060660e+000  6.060660e+000  3.000000e+000
      vertex  9.060660e+000  6.060660e+000  0.000000e+000
      vertex  9.500000e+000  5.000000e+000  0.000000e+000
    endloop
  endfacet
  facet normal -9.238796e-001 -3.826832e-001  0.000000e+000
    outer loop
      vertex  9.060660e+000  6.060660e+000  3.000000e+000
      vertex  9.500000e+000  5.000000e+000  0.000000e+000
      vertex  9.500000e+000  5.000000e+000  3.000000e+000
    endloop
  endfacet
  facet normal -3.826834e-001  9.238794e-001  0.000000e+000
    outer loop
      vertex  8.000000e+000  3.500000e+000  0.000000e+000
      vertex  9.060660e+000  3.939340e+000  3.000000e+000
      vertex  9.060660e+000  3.939340e+000  0.000000e+000
    endloop
  endfacet
  facet normal -9.238796e-001  3.826833e-001  0.000000e+000
    outer loop
      vertex  9.060660e+000  3.939340e+000  0.000000e+000
      vertex  9.060660e+000  3.939340e+000  3.000000e+000
      vertex  9.500000e+000  5.000000e+000  3.000000e+000
    endloop
  endfacet
  facet normal -9.238796e-001  3.826833e-001  0.000000e+000
    outer loop
      vertex  9.060660e+000  3.939340e+000  0.000000e+000
      vertex  9.500000e+000  5.000000e+000  3.000000e+000
      vertex  9.500000e+000  5.000000e+000  0.000000e+000
    endloop
  endfacet
  facet normal -3.826834e-001  9.238794e-001  0.000000e+000
    outer loop
      vertex  9.060660e+000  3.939340e+000  3.000000e+000
      vertex  8.000000e+000  3.500000e+000  0.000000e+000
      vertex  8.000000e+000  3.500000e+000  3.000000e+000
    endloop
  endfacet
  facet normal  3.826834e-001  9.238794e-001  0.000000e+000
    outer loop
      vertex  8.000000e+000  3.500000e+000  3.000000e+000
      vertex  8.000000e+000  3.500000e+000  0.000000e+000
      vertex  6.939340e+000  3.939340e+000  0.000000e+000
    endloop
  endfacet
  facet normal  3.826834e-001  9.238794e-001  -0.000000e+000
    outer loop
      vertex  8.000000e+000  3.500000e+000  3.000000e+000
      vertex  6.939340e+000  3.939340e+000  0.000000e+000
      vertex  6.939340e+000  3.939340e+000  3.000000e+000
    endloop
  endfacet
  facet normal  9.238796e-001  3.826833e-001  0.000000e+000
    outer loop
      vertex  6.939340e+000  3.939340e+000  3.000000e+000
      vertex  6.939340e+000  3.939340e+000  0.000000e+000
      vertex  6.500000e+000  5.000000e+000  0.000000e+000
    endloop
  endfacet
  facet normal  9.238796e-001  3.826833e-001  -0.000000e+000
    outer loop
      vertex  6.939340e+000  3.939340e+000  3.000000e+000
      vertex  6.500000e+000  5.000000e+000  0.000000e+000
      vertex  6.500000e+000  5.000000e+000  3.000000e+000
    endloop
  endfacet
  facet normal  0.000000e+000  1.000000e+000  0.000000e+000
    outer loop
      vertex  0.000000e+000  1.000000e+001  3.000000e+000
      vertex  1.450000e+001  1.000000e+001  3.000000e+000
      vertex  0.000000e+000  1.000000e+001  0.000000e+000
    endloop
  endfacet
  facet normal  0.000000e+000  1.000000e+000  0.000000e+000
    outer loop
      vertex  0.000000e+000  1.000000e+001  0.000000e+000
      vertex  1.450000e+001  1.000000e+001  3.000000e+000
      vertex  1.450000e+001  1.000000e+001  0.000000e+000
    endloop
  endfacet
  facet normal  1.000000e+000  -0.000000e+000  0.000000e+000
    outer loop
      vertex  1.450000e+001  1.000000e+001  3.000000e+000
      vertex  1.450000e+001  5.000000e+000  3.000000e+000
      vertex  1.450000e+001  1.000000e+001  0.000000e+000
    endloop
  endfacet
  facet normal  1.000000e+000  0.000000e+000  0.000000e+000
    outer loop
      vertex  1.450000e+001  1.000000e+001  0.000000e+000
      vertex  1.450000e+001  5.000000e+000  3.000000e+000
      vertex  1.450000e+001  5.000000e+000  0.000000e+000
    endloop
  endfacet
  facet normal  0.000000e+000  1.000000e+000  0.000000e+000
    outer loop
      vertex  1.450000e+001  5.000000e+000  3.000000e+000
      vertex  2.950000e+001  5.000000e+000  3.000000e+000
      vertex  1.450000e+001  5.000000e+000  0.000000e+000
    endloop
  endfacet
  facet normal  0.000000e+000  1.000000e+000  0.000000e+000
    outer loop
      vertex  1.450000e+001  5.000000e+000  0.000000e+000
      vertex  2.950000e+001  5.000000e+000  3.000000e+000
      vertex  2.950000e+001  5.000000e+000  0.000000e+000
    endloop
  endfacet
  facet normal -1.000000e+000  -0.000000e+000  0.000000e+000
    outer loop
      vertex  2.950000e+001  5.000000e+000  3.000000e+000
      vertex  2.950000e+001  1.000000e+001  3.000000e+000
      vertex  2.950000e+001  5.000000e+000  0.000000e+000
    endloop
  endfacet
  facet normal -1.000000e+000  0.000000e+000  0.000000e+000
    outer loop
      vertex  2.950000e+001  5.000000e+000  0.000000e+000
      vertex  2.950000e+001  1.000000e+001  3.000000e+000
      vertex  2.950000e+001  1.000000e+001  0.000000e+000
    endloop
  endfacet
  facet normal  0.000000e+000  1.000000e+000  0.000000e+000
    outer loop
      vertex  2.950000e+001  1.000000e+001  3.000000e+000
      vertex  4.400000e+001  1.000000e+001  3.000000e+000
      vertex  2.950000e+001  1.000000e+001  0.000000e+000
    endloop
  endfacet
  facet normal  0.000000e+000  1.000000e+000  0.000000e+000
    outer loop
      vertex  2.950000e+001  1.000000e+001  0.000000e+000
      vertex  4.400000e+001  1.000000e+001  3.000000e+000
      vertex  4.400000e+001  1.000000e+001  0.000000e+000
    endloop
  endfacet
endsolid CATIA STL
