solid CATIA STL
  facet normal  0.000000e+000  1.000000e+000  0.000000e+000
    outer loop
      vertex  4.950000e+001  1.700000e+001 -4.500000e+000
      vertex  5.250000e+001  1.700000e+001 -4.500000e+000
      vertex  4.950000e+001  1.700000e+001 -1.400000e+001
    endloop
  endfacet
  facet normal  0.000000e+000  1.000000e+000  0.000000e+000
    outer loop
      vertex  4.950000e+001  1.700000e+001 -1.400000e+001
      vertex  5.250000e+001  1.700000e+001 -4.500000e+000
      vertex  5.250000e+001  1.700000e+001 -1.400000e+001
    endloop
  endfacet
  facet normal  0.000000e+000  3.826837e-001 -9.238794e-001
    outer loop
      vertex  5.250000e+001  1.500000e+001 -1.600000e+001
      vertex  4.950000e+001  1.500000e+001 -1.600000e+001
      vertex  5.250000e+001  1.641421e+001 -1.541421e+001
    endloop
  endfacet
  facet normal  0.000000e+000  3.826837e-001 -9.238794e-001
    outer loop
      vertex  5.250000e+001  1.641421e+001 -1.541421e+001
      vertex  4.950000e+001  1.500000e+001 -1.600000e+001
      vertex  4.950000e+001  1.641421e+001 -1.541421e+001
    endloop
  endfacet
  facet normal  0.000000e+000  9.238794e-001 -3.826837e-001
    outer loop
      vertex  5.250000e+001  1.641421e+001 -1.541421e+001
      vertex  4.950000e+001  1.641421e+001 -1.541421e+001
      vertex  5.250000e+001  1.700000e+001 -1.400000e+001
    endloop
  endfacet
  facet normal  0.000000e+000  9.238794e-001 -3.826837e-001
    outer loop
      vertex  5.250000e+001  1.700000e+001 -1.400000e+001
      vertex  4.950000e+001  1.641421e+001 -1.541421e+001
      vertex  4.950000e+001  1.700000e+001 -1.400000e+001
    endloop
  endfacet
  facet normal  0.000000e+000  0.000000e+000 -1.000000e+000
    outer loop
      vertex  4.950000e+001  9.000000e+000 -1.600000e+001
      vertex  4.950000e+001  1.500000e+001 -1.600000e+001
      vertex  5.250000e+001  9.000000e+000 -1.600000e+001
    endloop
  endfacet
  facet normal  0.000000e+000  0.000000e+000 -1.000000e+000
    outer loop
      vertex  5.250000e+001  9.000000e+000 -1.600000e+001
      vertex  4.950000e+001  1.500000e+001 -1.600000e+001
      vertex  5.250000e+001  1.500000e+001 -1.600000e+001
    endloop
  endfacet
  facet normal  0.000000e+000 -9.238796e-001 -3.826835e-001
    outer loop
      vertex  5.250000e+001  7.000000e+000 -1.400000e+001
      vertex  4.950000e+001  7.000000e+000 -1.400000e+001
      vertex  5.250000e+001  7.585786e+000 -1.541421e+001
    endloop
  endfacet
  facet normal  -0.000000e+000 -9.238796e-001 -3.826835e-001
    outer loop
      vertex  5.250000e+001  7.585786e+000 -1.541421e+001
      vertex  4.950000e+001  7.000000e+000 -1.400000e+001
      vertex  4.950000e+001  7.585786e+000 -1.541421e+001
    endloop
  endfacet
  facet normal  0.000000e+000 -3.826836e-001 -9.238795e-001
    outer loop
      vertex  5.250000e+001  7.585786e+000 -1.541421e+001
      vertex  4.950000e+001  7.585786e+000 -1.541421e+001
      vertex  5.250000e+001  9.000000e+000 -1.600000e+001
    endloop
  endfacet
  facet normal  -0.000000e+000 -3.826836e-001 -9.238795e-001
    outer loop
      vertex  5.250000e+001  9.000000e+000 -1.600000e+001
      vertex  4.950000e+001  7.585786e+000 -1.541421e+001
      vertex  4.950000e+001  9.000000e+000 -1.600000e+001
    endloop
  endfacet
  facet normal  0.000000e+000 -1.000000e+000  0.000000e+000
    outer loop
      vertex  4.950000e+001  7.000000e+000 -4.500000e+000
      vertex  4.950000e+001  7.000000e+000 -1.400000e+001
      vertex  5.250000e+001  7.000000e+000 -4.500000e+000
    endloop
  endfacet
  facet normal  0.000000e+000 -1.000000e+000  -0.000000e+000
    outer loop
      vertex  5.250000e+001  7.000000e+000 -4.500000e+000
      vertex  4.950000e+001  7.000000e+000 -1.400000e+001
      vertex  5.250000e+001  7.000000e+000 -1.400000e+001
    endloop
  endfacet
  facet normal -1.000000e+000  0.000000e+000  0.000000e+000
    outer loop
      vertex  4.950000e+001  7.000000e+000 -1.400000e+001
      vertex  4.950000e+001  7.000000e+000 -4.500000e+000
      vertex  4.950000e+001  1.129289e+001 -1.320711e+001
    endloop
  endfacet
  facet normal -9.999999e-001  0.000000e+000  -0.000000e+000
    outer loop
      vertex  4.950000e+001  7.000000e+000 -1.400000e+001
      vertex  4.950000e+001  1.129289e+001 -1.320711e+001
      vertex  4.950000e+001  1.200000e+001 -1.350000e+001
    endloop
  endfacet
  facet normal -1.000000e+000  0.000000e+000  0.000000e+000
    outer loop
      vertex  4.950000e+001  7.000000e+000 -1.400000e+001
      vertex  4.950000e+001  1.200000e+001 -1.350000e+001
      vertex  4.950000e+001  7.585786e+000 -1.541421e+001
    endloop
  endfacet
  facet normal -1.000000e+000  -0.000000e+000  0.000000e+000
    outer loop
      vertex  4.950000e+001  1.700000e+001 -1.400000e+001
      vertex  4.950000e+001  1.641421e+001 -1.541421e+001
      vertex  4.950000e+001  1.500000e+001 -1.600000e+001
    endloop
  endfacet
  facet normal -1.000000e+000  0.000000e+000  0.000000e+000
    outer loop
      vertex  4.950000e+001  1.700000e+001 -1.400000e+001
      vertex  4.950000e+001  1.500000e+001 -1.600000e+001
      vertex  4.950000e+001  1.200000e+001 -1.350000e+001
    endloop
  endfacet
  facet normal -9.999999e-001  0.000000e+000  0.000000e+000
    outer loop
      vertex  4.950000e+001  1.700000e+001 -1.400000e+001
      vertex  4.950000e+001  1.200000e+001 -1.350000e+001
      vertex  4.950000e+001  1.270711e+001 -1.320711e+001
    endloop
  endfacet
  facet normal -1.000000e+000  0.000000e+000  0.000000e+000
    outer loop
      vertex  4.950000e+001  1.700000e+001 -1.400000e+001
      vertex  4.950000e+001  1.270711e+001 -1.320711e+001
      vertex  4.950000e+001  1.700000e+001 -4.500000e+000
    endloop
  endfacet
  facet normal -1.000000e+000  -0.000000e+000  0.000000e+000
    outer loop
      vertex  4.950000e+001  7.000000e+000 -4.500000e+000
      vertex  4.950000e+001  1.700000e+001 -4.500000e+000
      vertex  4.950000e+001  1.200000e+001 -1.150000e+001
    endloop
  endfacet
  facet normal -1.000000e+000  -0.000000e+000  0.000000e+000
    outer loop
      vertex  4.950000e+001  7.000000e+000 -4.500000e+000
      vertex  4.950000e+001  1.200000e+001 -1.150000e+001
      vertex  4.950000e+001  1.129289e+001 -1.179289e+001
    endloop
  endfacet
  facet normal -1.000000e+000  -0.000000e+000  0.000000e+000
    outer loop
      vertex  4.950000e+001  7.000000e+000 -4.500000e+000
      vertex  4.950000e+001  1.129289e+001 -1.179289e+001
      vertex  4.950000e+001  1.100000e+001 -1.250000e+001
    endloop
  endfacet
  facet normal -1.000000e+000  -0.000000e+000  -0.000000e+000
    outer loop
      vertex  4.950000e+001  7.000000e+000 -4.500000e+000
      vertex  4.950000e+001  1.100000e+001 -1.250000e+001
      vertex  4.950000e+001  1.129289e+001 -1.320711e+001
    endloop
  endfacet
  facet normal -1.000000e+000  0.000000e+000  0.000000e+000
    outer loop
      vertex  4.950000e+001  1.700000e+001 -4.500000e+000
      vertex  4.950000e+001  1.270711e+001 -1.320711e+001
      vertex  4.950000e+001  1.300000e+001 -1.250000e+001
    endloop
  endfacet
  facet normal -1.000000e+000  0.000000e+000  0.000000e+000
    outer loop
      vertex  4.950000e+001  1.700000e+001 -4.500000e+000
      vertex  4.950000e+001  1.300000e+001 -1.250000e+001
      vertex  4.950000e+001  1.270711e+001 -1.179289e+001
    endloop
  endfacet
  facet normal -1.000000e+000  0.000000e+000  0.000000e+000
    outer loop
      vertex  4.950000e+001  1.700000e+001 -4.500000e+000
      vertex  4.950000e+001  1.270711e+001 -1.179289e+001
      vertex  4.950000e+001  1.200000e+001 -1.150000e+001
    endloop
  endfacet
  facet normal -1.000000e+000  0.000000e+000  0.000000e+000
    outer loop
      vertex  4.950000e+001  9.000000e+000 -1.600000e+001
      vertex  4.950000e+001  7.585786e+000 -1.541421e+001
      vertex  4.950000e+001  1.500000e+001 -1.600000e+001
    endloop
  endfacet
  facet normal -1.000000e+000  0.000000e+000  0.000000e+000
    outer loop
      vertex  4.950000e+001  1.500000e+001 -1.600000e+001
      vertex  4.950000e+001  7.585786e+000 -1.541421e+001
      vertex  4.950000e+001  1.200000e+001 -1.350000e+001
    endloop
  endfacet
  facet normal  1.000000e+000  0.000000e+000  -0.000000e+000
    outer loop
      vertex  5.250000e+001  7.000000e+000 -1.400000e+001
      vertex  5.250000e+001  7.585786e+000 -1.541421e+001
      vertex  5.250000e+001  1.200000e+001 -1.350000e+001
    endloop
  endfacet
  facet normal  9.999999e-001  0.000000e+000  0.000000e+000
    outer loop
      vertex  5.250000e+001  7.000000e+000 -1.400000e+001
      vertex  5.250000e+001  1.200000e+001 -1.350000e+001
      vertex  5.250000e+001  1.129289e+001 -1.320711e+001
    endloop
  endfacet
  facet normal  1.000000e+000  0.000000e+000  0.000000e+000
    outer loop
      vertex  5.250000e+001  7.000000e+000 -1.400000e+001
      vertex  5.250000e+001  1.129289e+001 -1.320711e+001
      vertex  5.250000e+001  7.000000e+000 -4.500000e+000
    endloop
  endfacet
  facet normal  1.000000e+000  0.000000e+000  0.000000e+000
    outer loop
      vertex  5.250000e+001  1.700000e+001 -1.400000e+001
      vertex  5.250000e+001  1.700000e+001 -4.500000e+000
      vertex  5.250000e+001  1.270711e+001 -1.320711e+001
    endloop
  endfacet
  facet normal  9.999999e-001  0.000000e+000  0.000000e+000
    outer loop
      vertex  5.250000e+001  1.700000e+001 -1.400000e+001
      vertex  5.250000e+001  1.270711e+001 -1.320711e+001
      vertex  5.250000e+001  1.200000e+001 -1.350000e+001
    endloop
  endfacet
  facet normal  1.000000e+000  0.000000e+000  0.000000e+000
    outer loop
      vertex  5.250000e+001  1.700000e+001 -1.400000e+001
      vertex  5.250000e+001  1.200000e+001 -1.350000e+001
      vertex  5.250000e+001  1.500000e+001 -1.600000e+001
    endloop
  endfacet
  facet normal  1.000000e+000  0.000000e+000  0.000000e+000
    outer loop
      vertex  5.250000e+001  1.700000e+001 -1.400000e+001
      vertex  5.250000e+001  1.500000e+001 -1.600000e+001
      vertex  5.250000e+001  1.641421e+001 -1.541421e+001
    endloop
  endfacet
  facet normal  1.000000e+000  0.000000e+000  0.000000e+000
    outer loop
      vertex  5.250000e+001  7.000000e+000 -4.500000e+000
      vertex  5.250000e+001  1.129289e+001 -1.320711e+001
      vertex  5.250000e+001  1.100000e+001 -1.250000e+001
    endloop
  endfacet
  facet normal  1.000000e+000  0.000000e+000  -0.000000e+000
    outer loop
      vertex  5.250000e+001  7.000000e+000 -4.500000e+000
      vertex  5.250000e+001  1.100000e+001 -1.250000e+001
      vertex  5.250000e+001  1.129289e+001 -1.179289e+001
    endloop
  endfacet
  facet normal  1.000000e+000  0.000000e+000  -0.000000e+000
    outer loop
      vertex  5.250000e+001  7.000000e+000 -4.500000e+000
      vertex  5.250000e+001  1.129289e+001 -1.179289e+001
      vertex  5.250000e+001  1.200000e+001 -1.150000e+001
    endloop
  endfacet
  facet normal  1.000000e+000  0.000000e+000  -0.000000e+000
    outer loop
      vertex  5.250000e+001  7.000000e+000 -4.500000e+000
      vertex  5.250000e+001  1.200000e+001 -1.150000e+001
      vertex  5.250000e+001  1.700000e+001 -4.500000e+000
    endloop
  endfacet
  facet normal  1.000000e+000  -0.000000e+000  0.000000e+000
    outer loop
      vertex  5.250000e+001  1.700000e+001 -4.500000e+000
      vertex  5.250000e+001  1.200000e+001 -1.150000e+001
      vertex  5.250000e+001  1.270711e+001 -1.179289e+001
    endloop
  endfacet
  facet normal  1.000000e+000  -0.000000e+000  0.000000e+000
    outer loop
      vertex  5.250000e+001  1.700000e+001 -4.500000e+000
      vertex  5.250000e+001  1.270711e+001 -1.179289e+001
      vertex  5.250000e+001  1.300000e+001 -1.250000e+001
    endloop
  endfacet
  facet normal  1.000000e+000  -0.000000e+000  0.000000e+000
    outer loop
      vertex  5.250000e+001  1.700000e+001 -4.500000e+000
      vertex  5.250000e+001  1.300000e+001 -1.250000e+001
      vertex  5.250000e+001  1.270711e+001 -1.320711e+001
    endloop
  endfacet
  facet normal  1.000000e+000  0.000000e+000  0.000000e+000
    outer loop
      vertex  5.250000e+001  9.000000e+000 -1.600000e+001
      vertex  5.250000e+001  1.500000e+001 -1.600000e+001
      vertex  5.250000e+001  7.585786e+000 -1.541421e+001
    endloop
  endfacet
  facet normal  1.000000e+000  -0.000000e+000  0.000000e+000
    outer loop
      vertex  5.250000e+001  7.585786e+000 -1.541421e+001
      vertex  5.250000e+001  1.500000e+001 -1.600000e+001
      vertex  5.250000e+001  1.200000e+001 -1.350000e+001
    endloop
  endfacet
  facet normal  0.000000e+000  3.826837e-001 -9.238794e-001
    outer loop
      vertex  5.250000e+001  1.200000e+001 -1.150000e+001
      vertex  5.250000e+001  1.129289e+001 -1.179289e+001
      vertex  4.950000e+001  1.200000e+001 -1.150000e+001
    endloop
  endfacet
  facet normal  0.000000e+000  3.826837e-001 -9.238794e-001
    outer loop
      vertex  4.950000e+001  1.200000e+001 -1.150000e+001
      vertex  5.250000e+001  1.129289e+001 -1.179289e+001
      vertex  4.950000e+001  1.129289e+001 -1.179289e+001
    endloop
  endfacet
  facet normal  0.000000e+000  9.238794e-001 -3.826837e-001
    outer loop
      vertex  5.250000e+001  1.129289e+001 -1.179289e+001
      vertex  5.250000e+001  1.100000e+001 -1.250000e+001
      vertex  4.950000e+001  1.129289e+001 -1.179289e+001
    endloop
  endfacet
  facet normal  0.000000e+000  9.238794e-001 -3.826837e-001
    outer loop
      vertex  4.950000e+001  1.129289e+001 -1.179289e+001
      vertex  5.250000e+001  1.100000e+001 -1.250000e+001
      vertex  4.950000e+001  1.100000e+001 -1.250000e+001
    endloop
  endfacet
  facet normal  0.000000e+000  9.238794e-001  3.826837e-001
    outer loop
      vertex  5.250000e+001  1.100000e+001 -1.250000e+001
      vertex  5.250000e+001  1.129289e+001 -1.320711e+001
      vertex  4.950000e+001  1.100000e+001 -1.250000e+001
    endloop
  endfacet
  facet normal  0.000000e+000  9.238794e-001  3.826837e-001
    outer loop
      vertex  4.950000e+001  1.100000e+001 -1.250000e+001
      vertex  5.250000e+001  1.129289e+001 -1.320711e+001
      vertex  4.950000e+001  1.129289e+001 -1.320711e+001
    endloop
  endfacet
  facet normal  0.000000e+000  3.826837e-001  9.238794e-001
    outer loop
      vertex  5.250000e+001  1.129289e+001 -1.320711e+001
      vertex  5.250000e+001  1.200000e+001 -1.350000e+001
      vertex  4.950000e+001  1.129289e+001 -1.320711e+001
    endloop
  endfacet
  facet normal  0.000000e+000  3.826837e-001  9.238794e-001
    outer loop
      vertex  4.950000e+001  1.129289e+001 -1.320711e+001
      vertex  5.250000e+001  1.200000e+001 -1.350000e+001
      vertex  4.950000e+001  1.200000e+001 -1.350000e+001
    endloop
  endfacet
  facet normal  0.000000e+000 -3.826837e-001  9.238794e-001
    outer loop
      vertex  5.250000e+001  1.200000e+001 -1.350000e+001
      vertex  5.250000e+001  1.270711e+001 -1.320711e+001
      vertex  4.950000e+001  1.200000e+001 -1.350000e+001
    endloop
  endfacet
  facet normal  0.000000e+000 -3.826837e-001  9.238794e-001
    outer loop
      vertex  4.950000e+001  1.200000e+001 -1.350000e+001
      vertex  5.250000e+001  1.270711e+001 -1.320711e+001
      vertex  4.950000e+001  1.270711e+001 -1.320711e+001
    endloop
  endfacet
  facet normal  0.000000e+000 -9.238794e-001  3.826837e-001
    outer loop
      vertex  5.250000e+001  1.270711e+001 -1.320711e+001
      vertex  5.250000e+001  1.300000e+001 -1.250000e+001
      vertex  4.950000e+001  1.270711e+001 -1.320711e+001
    endloop
  endfacet
  facet normal  0.000000e+000 -9.238794e-001  3.826837e-001
    outer loop
      vertex  4.950000e+001  1.270711e+001 -1.320711e+001
      vertex  5.250000e+001  1.300000e+001 -1.250000e+001
      vertex  4.950000e+001  1.300000e+001 -1.250000e+001
    endloop
  endfacet
  facet normal  0.000000e+000 -9.238794e-001 -3.826837e-001
    outer loop
      vertex  5.250000e+001  1.300000e+001 -1.250000e+001
      vertex  5.250000e+001  1.270711e+001 -1.179289e+001
      vertex  4.950000e+001  1.300000e+001 -1.250000e+001
    endloop
  endfacet
  facet normal  0.000000e+000 -9.238794e-001 -3.826837e-001
    outer loop
      vertex  4.950000e+001  1.300000e+001 -1.250000e+001
      vertex  5.250000e+001  1.270711e+001 -1.179289e+001
      vertex  4.950000e+001  1.270711e+001 -1.179289e+001
    endloop
  endfacet
  facet normal  0.000000e+000 -3.826837e-001 -9.238794e-001
    outer loop
      vertex  5.250000e+001  1.270711e+001 -1.179289e+001
      vertex  5.250000e+001  1.200000e+001 -1.150000e+001
      vertex  4.950000e+001  1.270711e+001 -1.179289e+001
    endloop
  endfacet
  facet normal  0.000000e+000 -3.826837e-001 -9.238794e-001
    outer loop
      vertex  4.950000e+001  1.270711e+001 -1.179289e+001
      vertex  5.250000e+001  1.200000e+001 -1.150000e+001
      vertex  4.950000e+001  1.200000e+001 -1.150000e+001
    endloop
  endfacet
  facet normal -9.659258e-001  -0.000000e+000 -2.588193e-001
    outer loop
      vertex  4.889711e+001  7.000000e+000 -2.250000e+000
      vertex  4.950000e+001  1.700000e+001 -4.500000e+000
      vertex  4.950000e+001  7.000000e+000 -4.500000e+000
    endloop
  endfacet
  facet normal -9.659258e-001  0.000000e+000 -2.588193e-001
    outer loop
      vertex  4.950000e+001  1.700000e+001 -4.500000e+000
      vertex  4.889711e+001  7.000000e+000 -2.250000e+000
      vertex  4.889711e+001  1.700000e+001 -2.250000e+000
    endloop
  endfacet
  facet normal -7.071068e-001  -0.000000e+000 -7.071067e-001
    outer loop
      vertex  4.889711e+001  1.700000e+001 -2.250000e+000
      vertex  4.889711e+001  7.000000e+000 -2.250000e+000
      vertex  4.725000e+001  7.000000e+000 -6.028857e-001
    endloop
  endfacet
  facet normal -7.071068e-001  0.000000e+000 -7.071067e-001
    outer loop
      vertex  4.889711e+001  1.700000e+001 -2.250000e+000
      vertex  4.725000e+001  7.000000e+000 -6.028857e-001
      vertex  4.725000e+001  1.700000e+001 -6.028857e-001
    endloop
  endfacet
  facet normal -2.588190e-001  -0.000000e+000 -9.659258e-001
    outer loop
      vertex  4.725000e+001  1.700000e+001 -6.028857e-001
      vertex  4.725000e+001  7.000000e+000 -6.028857e-001
      vertex  4.500000e+001  7.000000e+000  0.000000e+000
    endloop
  endfacet
  facet normal -2.588190e-001  0.000000e+000 -9.659258e-001
    outer loop
      vertex  4.725000e+001  1.700000e+001 -6.028857e-001
      vertex  4.500000e+001  7.000000e+000  0.000000e+000
      vertex  4.500000e+001  1.700000e+001  0.000000e+000
    endloop
  endfacet
  facet normal  -0.000000e+000  1.000000e+000  0.000000e+000
    outer loop
      vertex  4.950000e+001  1.700000e+001 -4.500000e+000
      vertex  4.889711e+001  1.700000e+001 -2.250000e+000
      vertex  5.030330e+001  1.700000e+001  8.033009e-001
    endloop
  endfacet
  facet normal  0.000000e+000  1.000000e+000  0.000000e+000
    outer loop
      vertex  5.030330e+001  1.700000e+001  8.033009e-001
      vertex  4.889711e+001  1.700000e+001 -2.250000e+000
      vertex  4.725000e+001  1.700000e+001 -6.028857e-001
    endloop
  endfacet
  facet normal  0.000000e+000  9.999999e-001  0.000000e+000
    outer loop
      vertex  5.030330e+001  1.700000e+001  8.033009e-001
      vertex  4.725000e+001  1.700000e+001 -6.028857e-001
      vertex  4.787012e+001  1.700000e+001  2.429096e+000
    endloop
  endfacet
  facet normal  0.000000e+000  9.999999e-001  0.000000e+000
    outer loop
      vertex  4.787012e+001  1.700000e+001  2.429096e+000
      vertex  4.725000e+001  1.700000e+001 -6.028857e-001
      vertex  4.500000e+001  1.700000e+001  0.000000e+000
    endloop
  endfacet
  facet normal  0.000000e+000  1.000000e+000  0.000000e+000
    outer loop
      vertex  4.787012e+001  1.700000e+001  2.429096e+000
      vertex  4.500000e+001  1.700000e+001  0.000000e+000
      vertex  4.500000e+001  1.700000e+001  3.000000e+000
    endloop
  endfacet
  facet normal  0.000000e+000  1.000000e+000  0.000000e+000
    outer loop
      vertex  5.250000e+001  1.700000e+001 -4.500000e+000
      vertex  4.950000e+001  1.700000e+001 -4.500000e+000
      vertex  5.192910e+001  1.700000e+001 -1.629874e+000
    endloop
  endfacet
  facet normal  0.000000e+000  9.999999e-001  0.000000e+000
    outer loop
      vertex  5.192910e+001  1.700000e+001 -1.629874e+000
      vertex  4.950000e+001  1.700000e+001 -4.500000e+000
      vertex  5.030330e+001  1.700000e+001  8.033009e-001
    endloop
  endfacet
  facet normal  9.999999e-001  0.000000e+000  0.000000e+000
    outer loop
      vertex  4.500000e+001  1.700000e+001  0.000000e+000
      vertex  4.500000e+001  4.050000e+001  0.000000e+000
      vertex  4.500000e+001  1.700000e+001  3.000000e+000
    endloop
  endfacet
  facet normal  9.999999e-001  -0.000000e+000  0.000000e+000
    outer loop
      vertex  4.500000e+001  1.700000e+001  3.000000e+000
      vertex  4.500000e+001  4.050000e+001  0.000000e+000
      vertex  4.500000e+001  4.050000e+001  3.000000e+000
    endloop
  endfacet
  facet normal  0.000000e+000  0.000000e+000 -1.000000e+000
    outer loop
      vertex  4.106066e+001  4.006066e+001  0.000000e+000
      vertex  4.000000e+001  4.050000e+001  0.000000e+000
      vertex  4.500000e+001  4.050000e+001  0.000000e+000
    endloop
  endfacet
  facet normal  -0.000000e+000  0.000000e+000 -1.000000e+000
    outer loop
      vertex  3.850000e+001  3.900000e+001  0.000000e+000
      vertex  3.893934e+001  3.793934e+001  0.000000e+000
      vertex  3.500000e+001  2.400000e+001  0.000000e+000
    endloop
  endfacet
  facet normal  0.000000e+000  0.000000e+000 -1.000000e+000
    outer loop
      vertex  4.500000e+001  7.000000e+000  0.000000e+000
      vertex  4.500000e+001 -1.800000e+001  0.000000e+000
      vertex  4.106066e+001 -1.393934e+001  0.000000e+000
    endloop
  endfacet
  facet normal  0.000000e+000  0.000000e+000 -1.000000e+000
    outer loop
      vertex  4.500000e+001  7.000000e+000  0.000000e+000
      vertex  4.106066e+001 -1.393934e+001  0.000000e+000
      vertex  4.000000e+001 -1.350000e+001  0.000000e+000
    endloop
  endfacet
  facet normal  0.000000e+000  0.000000e+000 -1.000000e+000
    outer loop
      vertex  4.500000e+001  7.000000e+000  0.000000e+000
      vertex  4.000000e+001 -1.350000e+001  0.000000e+000
      vertex  4.500000e+001  1.700000e+001  0.000000e+000
    endloop
  endfacet
  facet normal  0.000000e+000  0.000000e+000 -1.000000e+000
    outer loop
      vertex  3.500000e+001  0.000000e+000  0.000000e+000
      vertex  7.834249e+000 -3.552714e-015  0.000000e+000
      vertex  6.766619e+000  3.427280e-001  0.000000e+000
    endloop
  endfacet
  facet normal  0.000000e+000  0.000000e+000 -1.000000e+000
    outer loop
      vertex  3.500000e+001  0.000000e+000  0.000000e+000
      vertex  6.766619e+000  3.427280e-001  0.000000e+000
      vertex  6.097960e+000  1.242835e+000  0.000000e+000
    endloop
  endfacet
  facet normal  0.000000e+000  0.000000e+000 -1.000000e+000
    outer loop
      vertex  3.500000e+001  0.000000e+000  0.000000e+000
      vertex  6.097960e+000  1.242835e+000  0.000000e+000
      vertex  6.078150e+000  2.363953e+000  0.000000e+000
    endloop
  endfacet
  facet normal  0.000000e+000  0.000000e+000 -1.000000e+000
    outer loop
      vertex  3.500000e+001  0.000000e+000  0.000000e+000
      vertex  6.078150e+000  2.363953e+000  0.000000e+000
      vertex  6.714592e+000  3.287121e+000  0.000000e+000
    endloop
  endfacet
  facet normal  0.000000e+000  0.000000e+000 -1.000000e+000
    outer loop
      vertex  3.500000e+001  0.000000e+000  0.000000e+000
      vertex  6.714592e+000  3.287121e+000  0.000000e+000
      vertex  9.386238e+000  6.264276e+000  0.000000e+000
    endloop
  endfacet
  facet normal  0.000000e+000  0.000000e+000 -9.999999e-001
    outer loop
      vertex  3.500000e+001  0.000000e+000  0.000000e+000
      vertex  9.386238e+000  6.264276e+000  0.000000e+000
      vertex  1.081664e+001  9.999928e+000  0.000000e+000
    endloop
  endfacet
  facet normal  0.000000e+000  0.000000e+000 -9.999999e-001
    outer loop
      vertex  3.500000e+001  0.000000e+000  0.000000e+000
      vertex  1.081664e+001  9.999928e+000  0.000000e+000
      vertex  1.081664e+001  1.400007e+001  0.000000e+000
    endloop
  endfacet
  facet normal  0.000000e+000  0.000000e+000 -1.000000e+000
    outer loop
      vertex  3.500000e+001  0.000000e+000  0.000000e+000
      vertex  1.081664e+001  1.400007e+001  0.000000e+000
      vertex  9.386238e+000  1.773572e+001  0.000000e+000
    endloop
  endfacet
  facet normal  0.000000e+000  0.000000e+000 -1.000000e+000
    outer loop
      vertex  3.500000e+001  0.000000e+000  0.000000e+000
      vertex  9.386238e+000  1.773572e+001  0.000000e+000
      vertex  6.714592e+000  2.071288e+001  0.000000e+000
    endloop
  endfacet
  facet normal  0.000000e+000  0.000000e+000 -9.999999e-001
    outer loop
      vertex  3.500000e+001  0.000000e+000  0.000000e+000
      vertex  6.714592e+000  2.071288e+001  0.000000e+000
      vertex  6.078150e+000  2.163605e+001  0.000000e+000
    endloop
  endfacet
  facet normal  0.000000e+000  0.000000e+000 -1.000000e+000
    outer loop
      vertex  3.500000e+001  0.000000e+000  0.000000e+000
      vertex  6.078150e+000  2.163605e+001  0.000000e+000
      vertex  6.097960e+000  2.275716e+001  0.000000e+000
    endloop
  endfacet
  facet normal  0.000000e+000  0.000000e+000 -9.999999e-001
    outer loop
      vertex  3.500000e+001  0.000000e+000  0.000000e+000
      vertex  6.097960e+000  2.275716e+001  0.000000e+000
      vertex  6.766619e+000  2.365727e+001  0.000000e+000
    endloop
  endfacet
  facet normal  0.000000e+000  0.000000e+000 -1.000000e+000
    outer loop
      vertex  3.500000e+001  0.000000e+000  0.000000e+000
      vertex  6.766619e+000  2.365727e+001  0.000000e+000
      vertex  7.834249e+000  2.400000e+001  0.000000e+000
    endloop
  endfacet
  facet normal  0.000000e+000  0.000000e+000 -1.000000e+000
    outer loop
      vertex  3.500000e+001  0.000000e+000  0.000000e+000
      vertex  7.834249e+000  2.400000e+001  0.000000e+000
      vertex  3.500000e+001  2.400000e+001  0.000000e+000
    endloop
  endfacet
  facet normal  0.000000e+000  0.000000e+000 -1.000000e+000
    outer loop
      vertex  3.500000e+001  0.000000e+000  0.000000e+000
      vertex  3.500000e+001  2.400000e+001  0.000000e+000
      vertex  4.000000e+001 -1.350000e+001  0.000000e+000
    endloop
  endfacet
  facet normal  -0.000000e+000  0.000000e+000 -1.000000e+000
    outer loop
      vertex  3.500000e+001  0.000000e+000  0.000000e+000
      vertex  4.000000e+001 -1.350000e+001  0.000000e+000
      vertex  3.893934e+001 -1.393934e+001  0.000000e+000
    endloop
  endfacet
  facet normal  -0.000000e+000  0.000000e+000 -1.000000e+000
    outer loop
      vertex  3.500000e+001  0.000000e+000  0.000000e+000
      vertex  3.893934e+001 -1.393934e+001  0.000000e+000
      vertex  3.500000e+001 -1.800000e+001  0.000000e+000
    endloop
  endfacet
  facet normal  -0.000000e+000  0.000000e+000 -1.000000e+000
    outer loop
      vertex  3.500000e+001  4.050000e+001  0.000000e+000
      vertex  4.000000e+001  4.050000e+001  0.000000e+000
      vertex  3.893934e+001  4.006066e+001  0.000000e+000
    endloop
  endfacet
  facet normal  -0.000000e+000  0.000000e+000 -1.000000e+000
    outer loop
      vertex  3.500000e+001  4.050000e+001  0.000000e+000
      vertex  3.893934e+001  4.006066e+001  0.000000e+000
      vertex  3.850000e+001  3.900000e+001  0.000000e+000
    endloop
  endfacet
  facet normal  -0.000000e+000  0.000000e+000 -1.000000e+000
    outer loop
      vertex  3.500000e+001  4.050000e+001  0.000000e+000
      vertex  3.850000e+001  3.900000e+001  0.000000e+000
      vertex  3.500000e+001  2.400000e+001  0.000000e+000
    endloop
  endfacet
  facet normal  0.000000e+000  0.000000e+000 -1.000000e+000
    outer loop
      vertex  3.500000e+001 -1.800000e+001  0.000000e+000
      vertex  3.893934e+001 -1.393934e+001  0.000000e+000
      vertex  3.850000e+001 -1.500000e+001  0.000000e+000
    endloop
  endfacet
  facet normal  0.000000e+000  -0.000000e+000 -1.000000e+000
    outer loop
      vertex  3.500000e+001 -1.800000e+001  0.000000e+000
      vertex  3.850000e+001 -1.500000e+001  0.000000e+000
      vertex  3.893934e+001 -1.606066e+001  0.000000e+000
    endloop
  endfacet
  facet normal  0.000000e+000  -0.000000e+000 -1.000000e+000
    outer loop
      vertex  3.500000e+001 -1.800000e+001  0.000000e+000
      vertex  3.893934e+001 -1.606066e+001  0.000000e+000
      vertex  4.000000e+001 -1.650000e+001  0.000000e+000
    endloop
  endfacet
  facet normal  0.000000e+000  0.000000e+000 -1.000000e+000
    outer loop
      vertex  4.500000e+001 -1.800000e+001  0.000000e+000
      vertex  4.000000e+001 -1.650000e+001  0.000000e+000
      vertex  4.106066e+001 -1.606066e+001  0.000000e+000
    endloop
  endfacet
  facet normal  0.000000e+000  0.000000e+000 -1.000000e+000
    outer loop
      vertex  4.500000e+001 -1.800000e+001  0.000000e+000
      vertex  4.106066e+001 -1.606066e+001  0.000000e+000
      vertex  4.150000e+001 -1.500000e+001  0.000000e+000
    endloop
  endfacet
  facet normal  0.000000e+000  0.000000e+000 -1.000000e+000
    outer loop
      vertex  4.500000e+001 -1.800000e+001  0.000000e+000
      vertex  4.150000e+001 -1.500000e+001  0.000000e+000
      vertex  4.106066e+001 -1.393934e+001  0.000000e+000
    endloop
  endfacet
  facet normal  0.000000e+000  0.000000e+000 -1.000000e+000
    outer loop
      vertex  3.558578e+001 -1.941421e+001  0.000000e+000
      vertex  3.500000e+001 -1.800000e+001  0.000000e+000
      vertex  3.700000e+001 -2.000000e+001  0.000000e+000
    endloop
  endfacet
  facet normal  0.000000e+000  0.000000e+000 -1.000000e+000
    outer loop
      vertex  3.700000e+001 -2.000000e+001  0.000000e+000
      vertex  3.500000e+001 -1.800000e+001  0.000000e+000
      vertex  4.000000e+001 -1.650000e+001  0.000000e+000
    endloop
  endfacet
  facet normal  0.000000e+000  -0.000000e+000 -1.000000e+000
    outer loop
      vertex  3.700000e+001 -2.000000e+001  0.000000e+000
      vertex  4.000000e+001 -1.650000e+001  0.000000e+000
      vertex  4.300000e+001 -2.000000e+001  0.000000e+000
    endloop
  endfacet
  facet normal  0.000000e+000  0.000000e+000 -1.000000e+000
    outer loop
      vertex  4.300000e+001 -2.000000e+001  0.000000e+000
      vertex  4.000000e+001 -1.650000e+001  0.000000e+000
      vertex  4.500000e+001 -1.800000e+001  0.000000e+000
    endloop
  endfacet
  facet normal  0.000000e+000  0.000000e+000 -1.000000e+000
    outer loop
      vertex  4.300000e+001 -2.000000e+001  0.000000e+000
      vertex  4.500000e+001 -1.800000e+001  0.000000e+000
      vertex  4.441422e+001 -1.941421e+001  0.000000e+000
    endloop
  endfacet
  facet normal  0.000000e+000  0.000000e+000 -1.000000e+000
    outer loop
      vertex  4.106066e+001  4.006066e+001  0.000000e+000
      vertex  4.500000e+001  4.050000e+001  0.000000e+000
      vertex  4.150000e+001  3.900000e+001  0.000000e+000
    endloop
  endfacet
  facet normal  0.000000e+000  0.000000e+000 -1.000000e+000
    outer loop
      vertex  4.150000e+001  3.900000e+001  0.000000e+000
      vertex  4.500000e+001  4.050000e+001  0.000000e+000
      vertex  4.500000e+001  1.700000e+001  0.000000e+000
    endloop
  endfacet
  facet normal  0.000000e+000  0.000000e+000 -1.000000e+000
    outer loop
      vertex  4.150000e+001  3.900000e+001  0.000000e+000
      vertex  4.500000e+001  1.700000e+001  0.000000e+000
      vertex  4.106066e+001  3.793934e+001  0.000000e+000
    endloop
  endfacet
  facet normal  0.000000e+000  -0.000000e+000 -9.999999e-001
    outer loop
      vertex  4.106066e+001  3.793934e+001  0.000000e+000
      vertex  4.500000e+001  1.700000e+001  0.000000e+000
      vertex  4.000000e+001 -1.350000e+001  0.000000e+000
    endloop
  endfacet
  facet normal  0.000000e+000  0.000000e+000 -1.000000e+000
    outer loop
      vertex  4.106066e+001  3.793934e+001  0.000000e+000
      vertex  4.000000e+001 -1.350000e+001  0.000000e+000
      vertex  4.000000e+001  3.750000e+001  0.000000e+000
    endloop
  endfacet
  facet normal  0.000000e+000  -0.000000e+000 -1.000000e+000
    outer loop
      vertex  4.000000e+001  3.750000e+001  0.000000e+000
      vertex  4.000000e+001 -1.350000e+001  0.000000e+000
      vertex  3.500000e+001  2.400000e+001  0.000000e+000
    endloop
  endfacet
  facet normal  0.000000e+000  0.000000e+000 -1.000000e+000
    outer loop
      vertex  4.000000e+001  3.750000e+001  0.000000e+000
      vertex  3.500000e+001  2.400000e+001  0.000000e+000
      vertex  3.893934e+001  3.793934e+001  0.000000e+000
    endloop
  endfacet
  facet normal  -0.000000e+000  0.000000e+000  1.000000e+000
    outer loop
      vertex  4.500000e+001  4.050000e+001  3.000000e+000
      vertex  4.000000e+001  4.050000e+001  3.000000e+000
      vertex  4.106066e+001  4.006066e+001  3.000000e+000
    endloop
  endfacet
  facet normal  0.000000e+000  0.000000e+000  1.000000e+000
    outer loop
      vertex  3.500000e+001  2.400000e+001  3.000000e+000
      vertex  3.893934e+001  3.793934e+001  3.000000e+000
      vertex  3.850000e+001  3.900000e+001  3.000000e+000
    endloop
  endfacet
  facet normal  0.000000e+000  0.000000e+000  1.000000e+000
    outer loop
      vertex  4.500000e+001  7.000000e+000  3.000000e+000
      vertex  4.500000e+001  1.700000e+001  3.000000e+000
      vertex  4.000000e+001 -1.350000e+001  3.000000e+000
    endloop
  endfacet
  facet normal  -0.000000e+000  0.000000e+000  1.000000e+000
    outer loop
      vertex  4.500000e+001  7.000000e+000  3.000000e+000
      vertex  4.000000e+001 -1.350000e+001  3.000000e+000
      vertex  4.106066e+001 -1.393934e+001  3.000000e+000
    endloop
  endfacet
  facet normal  -0.000000e+000  0.000000e+000  1.000000e+000
    outer loop
      vertex  4.500000e+001  7.000000e+000  3.000000e+000
      vertex  4.106066e+001 -1.393934e+001  3.000000e+000
      vertex  4.500000e+001 -1.800000e+001  3.000000e+000
    endloop
  endfacet
  facet normal  0.000000e+000  0.000000e+000  1.000000e+000
    outer loop
      vertex  3.500000e+001  0.000000e+000  3.000000e+000
      vertex  3.500000e+001 -1.800000e+001  3.000000e+000
      vertex  3.893934e+001 -1.393934e+001  3.000000e+000
    endloop
  endfacet
  facet normal  0.000000e+000  -0.000000e+000  1.000000e+000
    outer loop
      vertex  3.500000e+001  0.000000e+000  3.000000e+000
      vertex  3.893934e+001 -1.393934e+001  3.000000e+000
      vertex  4.000000e+001 -1.350000e+001  3.000000e+000
    endloop
  endfacet
  facet normal  0.000000e+000  0.000000e+000  1.000000e+000
    outer loop
      vertex  3.500000e+001  0.000000e+000  3.000000e+000
      vertex  4.000000e+001 -1.350000e+001  3.000000e+000
      vertex  3.500000e+001  2.400000e+001  3.000000e+000
    endloop
  endfacet
  facet normal  0.000000e+000  0.000000e+000  1.000000e+000
    outer loop
      vertex  3.500000e+001  0.000000e+000  3.000000e+000
      vertex  3.500000e+001  2.400000e+001  3.000000e+000
      vertex  7.834249e+000  2.400000e+001  3.000000e+000
    endloop
  endfacet
  facet normal  0.000000e+000  0.000000e+000  1.000000e+000
    outer loop
      vertex  3.500000e+001  0.000000e+000  3.000000e+000
      vertex  7.834249e+000  2.400000e+001  3.000000e+000
      vertex  6.766619e+000  2.365727e+001  3.000000e+000
    endloop
  endfacet
  facet normal  0.000000e+000  0.000000e+000  9.999999e-001
    outer loop
      vertex  3.500000e+001  0.000000e+000  3.000000e+000
      vertex  6.766619e+000  2.365727e+001  3.000000e+000
      vertex  6.097960e+000  2.275716e+001  3.000000e+000
    endloop
  endfacet
  facet normal  0.000000e+000  0.000000e+000  1.000000e+000
    outer loop
      vertex  3.500000e+001  0.000000e+000  3.000000e+000
      vertex  6.097960e+000  2.275716e+001  3.000000e+000
      vertex  6.078150e+000  2.163605e+001  3.000000e+000
    endloop
  endfacet
  facet normal  0.000000e+000  0.000000e+000  1.000000e+000
    outer loop
      vertex  3.500000e+001  0.000000e+000  3.000000e+000
      vertex  6.078150e+000  2.163605e+001  3.000000e+000
      vertex  6.714592e+000  2.071288e+001  3.000000e+000
    endloop
  endfacet
  facet normal  0.000000e+000  0.000000e+000  9.999999e-001
    outer loop
      vertex  3.500000e+001  0.000000e+000  3.000000e+000
      vertex  6.714592e+000  2.071288e+001  3.000000e+000
      vertex  9.386238e+000  1.773572e+001  3.000000e+000
    endloop
  endfacet
  facet normal  0.000000e+000  0.000000e+000  1.000000e+000
    outer loop
      vertex  3.500000e+001  0.000000e+000  3.000000e+000
      vertex  9.386238e+000  1.773572e+001  3.000000e+000
      vertex  1.081664e+001  1.400007e+001  3.000000e+000
    endloop
  endfacet
  facet normal  0.000000e+000  0.000000e+000  9.999999e-001
    outer loop
      vertex  3.500000e+001  0.000000e+000  3.000000e+000
      vertex  1.081664e+001  1.400007e+001  3.000000e+000
      vertex  1.081664e+001  9.999928e+000  3.000000e+000
    endloop
  endfacet
  facet normal  0.000000e+000  0.000000e+000  9.999999e-001
    outer loop
      vertex  3.500000e+001  0.000000e+000  3.000000e+000
      vertex  1.081664e+001  9.999928e+000  3.000000e+000
      vertex  9.386238e+000  6.264276e+000  3.000000e+000
    endloop
  endfacet
  facet normal  0.000000e+000  0.000000e+000  1.000000e+000
    outer loop
      vertex  3.500000e+001  0.000000e+000  3.000000e+000
      vertex  9.386238e+000  6.264276e+000  3.000000e+000
      vertex  6.714592e+000  3.287121e+000  3.000000e+000
    endloop
  endfacet
  facet normal  0.000000e+000  0.000000e+000  1.000000e+000
    outer loop
      vertex  3.500000e+001  0.000000e+000  3.000000e+000
      vertex  6.714592e+000  3.287121e+000  3.000000e+000
      vertex  6.078150e+000  2.363953e+000  3.000000e+000
    endloop
  endfacet
  facet normal  0.000000e+000  0.000000e+000  1.000000e+000
    outer loop
      vertex  3.500000e+001  0.000000e+000  3.000000e+000
      vertex  6.078150e+000  2.363953e+000  3.000000e+000
      vertex  6.097960e+000  1.242835e+000  3.000000e+000
    endloop
  endfacet
  facet normal  0.000000e+000  0.000000e+000  1.000000e+000
    outer loop
      vertex  3.500000e+001  0.000000e+000  3.000000e+000
      vertex  6.097960e+000  1.242835e+000  3.000000e+000
      vertex  6.766619e+000  3.427280e-001  3.000000e+000
    endloop
  endfacet
  facet normal  0.000000e+000  0.000000e+000  1.000000e+000
    outer loop
      vertex  3.500000e+001  0.000000e+000  3.000000e+000
      vertex  6.766619e+000  3.427280e-001  3.000000e+000
      vertex  7.834249e+000 -3.552714e-015  3.000000e+000
    endloop
  endfacet
  facet normal  0.000000e+000  0.000000e+000  1.000000e+000
    outer loop
      vertex  3.500000e+001  4.050000e+001  3.000000e+000
      vertex  3.500000e+001  2.400000e+001  3.000000e+000
      vertex  3.850000e+001  3.900000e+001  3.000000e+000
    endloop
  endfacet
  facet normal  0.000000e+000  -0.000000e+000  1.000000e+000
    outer loop
      vertex  3.500000e+001  4.050000e+001  3.000000e+000
      vertex  3.850000e+001  3.900000e+001  3.000000e+000
      vertex  3.893934e+001  4.006066e+001  3.000000e+000
    endloop
  endfacet
  facet normal  0.000000e+000  -0.000000e+000  1.000000e+000
    outer loop
      vertex  3.500000e+001  4.050000e+001  3.000000e+000
      vertex  3.893934e+001  4.006066e+001  3.000000e+000
      vertex  4.000000e+001  4.050000e+001  3.000000e+000
    endloop
  endfacet
  facet normal  0.000000e+000  0.000000e+000  1.000000e+000
    outer loop
      vertex  3.500000e+001 -1.800000e+001  3.000000e+000
      vertex  4.000000e+001 -1.650000e+001  3.000000e+000
      vertex  3.893934e+001 -1.606066e+001  3.000000e+000
    endloop
  endfacet
  facet normal  0.000000e+000  0.000000e+000  1.000000e+000
    outer loop
      vertex  3.500000e+001 -1.800000e+001  3.000000e+000
      vertex  3.893934e+001 -1.606066e+001  3.000000e+000
      vertex  3.850000e+001 -1.500000e+001  3.000000e+000
    endloop
  endfacet
  facet normal  0.000000e+000  -0.000000e+000  1.000000e+000
    outer loop
      vertex  3.500000e+001 -1.800000e+001  3.000000e+000
      vertex  3.850000e+001 -1.500000e+001  3.000000e+000
      vertex  3.893934e+001 -1.393934e+001  3.000000e+000
    endloop
  endfacet
  facet normal  0.000000e+000  0.000000e+000  1.000000e+000
    outer loop
      vertex  4.500000e+001 -1.800000e+001  3.000000e+000
      vertex  4.106066e+001 -1.393934e+001  3.000000e+000
      vertex  4.150000e+001 -1.500000e+001  3.000000e+000
    endloop
  endfacet
  facet normal  0.000000e+000  0.000000e+000  1.000000e+000
    outer loop
      vertex  4.500000e+001 -1.800000e+001  3.000000e+000
      vertex  4.150000e+001 -1.500000e+001  3.000000e+000
      vertex  4.106066e+001 -1.606066e+001  3.000000e+000
    endloop
  endfacet
  facet normal  0.000000e+000  0.000000e+000  1.000000e+000
    outer loop
      vertex  4.500000e+001 -1.800000e+001  3.000000e+000
      vertex  4.106066e+001 -1.606066e+001  3.000000e+000
      vertex  4.000000e+001 -1.650000e+001  3.000000e+000
    endloop
  endfacet
  facet normal  0.000000e+000  0.000000e+000  1.000000e+000
    outer loop
      vertex  4.441422e+001 -1.941421e+001  3.000000e+000
      vertex  4.500000e+001 -1.800000e+001  3.000000e+000
      vertex  4.300000e+001 -2.000000e+001  3.000000e+000
    endloop
  endfacet
  facet normal  0.000000e+000  -0.000000e+000  1.000000e+000
    outer loop
      vertex  4.300000e+001 -2.000000e+001  3.000000e+000
      vertex  4.500000e+001 -1.800000e+001  3.000000e+000
      vertex  4.000000e+001 -1.650000e+001  3.000000e+000
    endloop
  endfacet
  facet normal  0.000000e+000  0.000000e+000  1.000000e+000
    outer loop
      vertex  4.300000e+001 -2.000000e+001  3.000000e+000
      vertex  4.000000e+001 -1.650000e+001  3.000000e+000
      vertex  3.700000e+001 -2.000000e+001  3.000000e+000
    endloop
  endfacet
  facet normal  0.000000e+000  -0.000000e+000  1.000000e+000
    outer loop
      vertex  3.700000e+001 -2.000000e+001  3.000000e+000
      vertex  4.000000e+001 -1.650000e+001  3.000000e+000
      vertex  3.500000e+001 -1.800000e+001  3.000000e+000
    endloop
  endfacet
  facet normal  0.000000e+000  0.000000e+000  1.000000e+000
    outer loop
      vertex  3.700000e+001 -2.000000e+001  3.000000e+000
      vertex  3.500000e+001 -1.800000e+001  3.000000e+000
      vertex  3.558578e+001 -1.941421e+001  3.000000e+000
    endloop
  endfacet
  facet normal  0.000000e+000  0.000000e+000  1.000000e+000
    outer loop
      vertex  3.893934e+001  3.793934e+001  3.000000e+000
      vertex  3.500000e+001  2.400000e+001  3.000000e+000
      vertex  4.000000e+001  3.750000e+001  3.000000e+000
    endloop
  endfacet
  facet normal  0.000000e+000  0.000000e+000  1.000000e+000
    outer loop
      vertex  4.000000e+001  3.750000e+001  3.000000e+000
      vertex  3.500000e+001  2.400000e+001  3.000000e+000
      vertex  4.000000e+001 -1.350000e+001  3.000000e+000
    endloop
  endfacet
  facet normal  0.000000e+000  0.000000e+000  1.000000e+000
    outer loop
      vertex  4.000000e+001  3.750000e+001  3.000000e+000
      vertex  4.000000e+001 -1.350000e+001  3.000000e+000
      vertex  4.106066e+001  3.793934e+001  3.000000e+000
    endloop
  endfacet
  facet normal  0.000000e+000  0.000000e+000  9.999999e-001
    outer loop
      vertex  4.106066e+001  3.793934e+001  3.000000e+000
      vertex  4.000000e+001 -1.350000e+001  3.000000e+000
      vertex  4.500000e+001  1.700000e+001  3.000000e+000
    endloop
  endfacet
  facet normal  0.000000e+000  0.000000e+000  1.000000e+000
    outer loop
      vertex  4.106066e+001  3.793934e+001  3.000000e+000
      vertex  4.500000e+001  1.700000e+001  3.000000e+000
      vertex  4.150000e+001  3.900000e+001  3.000000e+000
    endloop
  endfacet
  facet normal  -0.000000e+000  0.000000e+000  1.000000e+000
    outer loop
      vertex  4.150000e+001  3.900000e+001  3.000000e+000
      vertex  4.500000e+001  1.700000e+001  3.000000e+000
      vertex  4.500000e+001  4.050000e+001  3.000000e+000
    endloop
  endfacet
  facet normal  0.000000e+000  0.000000e+000  1.000000e+000
    outer loop
      vertex  4.150000e+001  3.900000e+001  3.000000e+000
      vertex  4.500000e+001  4.050000e+001  3.000000e+000
      vertex  4.106066e+001  4.006066e+001  3.000000e+000
    endloop
  endfacet
  facet normal  9.807853e-001  0.000000e+000  1.950904e-001
    outer loop
      vertex  5.250000e+001  7.000000e+000 -4.500000e+000
      vertex  5.250000e+001  1.700000e+001 -4.500000e+000
      vertex  5.192910e+001  7.000000e+000 -1.629874e+000
    endloop
  endfacet
  facet normal  9.807853e-001  -0.000000e+000  1.950904e-001
    outer loop
      vertex  5.192910e+001  7.000000e+000 -1.629874e+000
      vertex  5.250000e+001  1.700000e+001 -4.500000e+000
      vertex  5.192910e+001  1.700000e+001 -1.629874e+000
    endloop
  endfacet
  facet normal  8.314699e-001  0.000000e+000  5.555697e-001
    outer loop
      vertex  5.192910e+001  7.000000e+000 -1.629874e+000
      vertex  5.192910e+001  1.700000e+001 -1.629874e+000
      vertex  5.030330e+001  7.000000e+000  8.033009e-001
    endloop
  endfacet
  facet normal  8.314699e-001  -0.000000e+000  5.555697e-001
    outer loop
      vertex  5.030330e+001  7.000000e+000  8.033009e-001
      vertex  5.192910e+001  1.700000e+001 -1.629874e+000
      vertex  5.030330e+001  1.700000e+001  8.033009e-001
    endloop
  endfacet
  facet normal  5.555698e-001  0.000000e+000  8.314700e-001
    outer loop
      vertex  5.030330e+001  7.000000e+000  8.033009e-001
      vertex  5.030330e+001  1.700000e+001  8.033009e-001
      vertex  4.787012e+001  7.000000e+000  2.429096e+000
    endloop
  endfacet
  facet normal  5.555698e-001  -0.000000e+000  8.314700e-001
    outer loop
      vertex  4.787012e+001  7.000000e+000  2.429096e+000
      vertex  5.030330e+001  1.700000e+001  8.033009e-001
      vertex  4.787012e+001  1.700000e+001  2.429096e+000
    endloop
  endfacet
  facet normal  1.950904e-001  0.000000e+000  9.807852e-001
    outer loop
      vertex  4.787012e+001  7.000000e+000  2.429096e+000
      vertex  4.787012e+001  1.700000e+001  2.429096e+000
      vertex  4.500000e+001  7.000000e+000  3.000000e+000
    endloop
  endfacet
  facet normal  1.950904e-001  -0.000000e+000  9.807852e-001
    outer loop
      vertex  4.500000e+001  7.000000e+000  3.000000e+000
      vertex  4.787012e+001  1.700000e+001  2.429096e+000
      vertex  4.500000e+001  1.700000e+001  3.000000e+000
    endloop
  endfacet
  facet normal  0.000000e+000 -1.000000e+000  0.000000e+000
    outer loop
      vertex  4.500000e+001  7.000000e+000  3.000000e+000
      vertex  4.500000e+001  7.000000e+000  0.000000e+000
      vertex  4.787012e+001  7.000000e+000  2.429096e+000
    endloop
  endfacet
  facet normal  0.000000e+000 -9.999999e-001  0.000000e+000
    outer loop
      vertex  4.787012e+001  7.000000e+000  2.429096e+000
      vertex  4.500000e+001  7.000000e+000  0.000000e+000
      vertex  4.725000e+001  7.000000e+000 -6.028857e-001
    endloop
  endfacet
  facet normal  0.000000e+000 -9.999999e-001  0.000000e+000
    outer loop
      vertex  4.787012e+001  7.000000e+000  2.429096e+000
      vertex  4.725000e+001  7.000000e+000 -6.028857e-001
      vertex  5.030330e+001  7.000000e+000  8.033009e-001
    endloop
  endfacet
  facet normal  0.000000e+000 -1.000000e+000  0.000000e+000
    outer loop
      vertex  5.030330e+001  7.000000e+000  8.033009e-001
      vertex  4.725000e+001  7.000000e+000 -6.028857e-001
      vertex  4.889711e+001  7.000000e+000 -2.250000e+000
    endloop
  endfacet
  facet normal  0.000000e+000 -1.000000e+000  0.000000e+000
    outer loop
      vertex  5.030330e+001  7.000000e+000  8.033009e-001
      vertex  4.889711e+001  7.000000e+000 -2.250000e+000
      vertex  4.950000e+001  7.000000e+000 -4.500000e+000
    endloop
  endfacet
  facet normal  0.000000e+000 -1.000000e+000  -0.000000e+000
    outer loop
      vertex  5.250000e+001  7.000000e+000 -4.500000e+000
      vertex  5.192910e+001  7.000000e+000 -1.629874e+000
      vertex  4.950000e+001  7.000000e+000 -4.500000e+000
    endloop
  endfacet
  facet normal  0.000000e+000 -9.999999e-001  0.000000e+000
    outer loop
      vertex  4.950000e+001  7.000000e+000 -4.500000e+000
      vertex  5.192910e+001  7.000000e+000 -1.629874e+000
      vertex  5.030330e+001  7.000000e+000  8.033009e-001
    endloop
  endfacet
  facet normal  1.000000e+000  0.000000e+000  0.000000e+000
    outer loop
      vertex  4.500000e+001 -1.800000e+001  0.000000e+000
      vertex  4.500000e+001  7.000000e+000  0.000000e+000
      vertex  4.500000e+001 -1.800000e+001  3.000000e+000
    endloop
  endfacet
  facet normal  1.000000e+000  -0.000000e+000  0.000000e+000
    outer loop
      vertex  4.500000e+001 -1.800000e+001  3.000000e+000
      vertex  4.500000e+001  7.000000e+000  0.000000e+000
      vertex  4.500000e+001  7.000000e+000  3.000000e+000
    endloop
  endfacet
  facet normal  0.000000e+000 -9.999999e-001  0.000000e+000
    outer loop
      vertex  6.650000e+001  4.500000e+001 -4.500000e+000
      vertex  4.500000e+001  4.500000e+001 -4.500000e+000
      vertex  6.243934e+001  4.500000e+001 -7.439340e+000
    endloop
  endfacet
  facet normal  0.000000e+000 -1.000000e+000  0.000000e+000
    outer loop
      vertex  6.650000e+001  4.500000e+001 -4.500000e+000
      vertex  6.243934e+001  4.500000e+001 -7.439340e+000
      vertex  6.350000e+001  4.500000e+001 -7.000000e+000
    endloop
  endfacet
  facet normal  0.000000e+000 -1.000000e+000  0.000000e+000
    outer loop
      vertex  6.650000e+001  4.500000e+001 -4.500000e+000
      vertex  6.350000e+001  4.500000e+001 -7.000000e+000
      vertex  6.456066e+001  4.500000e+001 -7.439340e+000
    endloop
  endfacet
  facet normal  0.000000e+000 -1.000000e+000  0.000000e+000
    outer loop
      vertex  6.650000e+001  4.500000e+001 -4.500000e+000
      vertex  6.456066e+001  4.500000e+001 -7.439340e+000
      vertex  6.500000e+001  4.500000e+001 -8.500000e+000
    endloop
  endfacet
  facet normal  0.000000e+000 -1.000000e+000  -0.000000e+000
    outer loop
      vertex  6.650000e+001  4.500000e+001 -1.250000e+001
      vertex  6.500000e+001  4.500000e+001 -8.500000e+000
      vertex  6.456066e+001  4.500000e+001 -9.560660e+000
    endloop
  endfacet
  facet normal  0.000000e+000 -1.000000e+000  -0.000000e+000
    outer loop
      vertex  6.650000e+001  4.500000e+001 -1.250000e+001
      vertex  6.456066e+001  4.500000e+001 -9.560660e+000
      vertex  6.350000e+001  4.500000e+001 -1.000000e+001
    endloop
  endfacet
  facet normal  -0.000000e+000 -1.000000e+000  -0.000000e+000
    outer loop
      vertex  6.650000e+001  4.500000e+001 -1.250000e+001
      vertex  6.350000e+001  4.500000e+001 -1.000000e+001
      vertex  6.243934e+001  4.500000e+001 -9.560660e+000
    endloop
  endfacet
  facet normal  0.000000e+000 -1.000000e+000  -0.000000e+000
    outer loop
      vertex  6.650000e+001  4.500000e+001 -1.250000e+001
      vertex  6.243934e+001  4.500000e+001 -9.560660e+000
      vertex  3.700000e+001  4.500000e+001 -1.250000e+001
    endloop
  endfacet
  facet normal  0.000000e+000 -1.000000e+000  0.000000e+000
    outer loop
      vertex  3.500000e+001  4.500000e+001 -1.050000e+001
      vertex  3.558578e+001  4.500000e+001 -1.191421e+001
      vertex  3.500000e+001  4.500000e+001 -4.500000e+000
    endloop
  endfacet
  facet normal  0.000000e+000 -1.000000e+000  0.000000e+000
    outer loop
      vertex  3.500000e+001  4.500000e+001 -4.500000e+000
      vertex  3.558578e+001  4.500000e+001 -1.191421e+001
      vertex  6.200000e+001  4.500000e+001 -8.500000e+000
    endloop
  endfacet
  facet normal  0.000000e+000 -1.000000e+000  0.000000e+000
    outer loop
      vertex  3.500000e+001  4.500000e+001 -4.500000e+000
      vertex  6.200000e+001  4.500000e+001 -8.500000e+000
      vertex  4.500000e+001  4.500000e+001 -4.500000e+000
    endloop
  endfacet
  facet normal  0.000000e+000 -1.000000e+000  0.000000e+000
    outer loop
      vertex  4.500000e+001  4.500000e+001 -4.500000e+000
      vertex  6.200000e+001  4.500000e+001 -8.500000e+000
      vertex  6.243934e+001  4.500000e+001 -7.439340e+000
    endloop
  endfacet
  facet normal  -0.000000e+000 -1.000000e+000  0.000000e+000
    outer loop
      vertex  6.650000e+001  4.500000e+001 -1.250000e+001
      vertex  6.791422e+001  4.500000e+001 -1.191421e+001
      vertex  6.500000e+001  4.500000e+001 -8.500000e+000
    endloop
  endfacet
  facet normal  0.000000e+000 -1.000000e+000  0.000000e+000
    outer loop
      vertex  6.500000e+001  4.500000e+001 -8.500000e+000
      vertex  6.791422e+001  4.500000e+001 -1.191421e+001
      vertex  6.850000e+001  4.500000e+001 -1.050000e+001
    endloop
  endfacet
  facet normal  0.000000e+000 -1.000000e+000  0.000000e+000
    outer loop
      vertex  6.500000e+001  4.500000e+001 -8.500000e+000
      vertex  6.850000e+001  4.500000e+001 -1.050000e+001
      vertex  6.650000e+001  4.500000e+001 -4.500000e+000
    endloop
  endfacet
  facet normal  0.000000e+000 -1.000000e+000  0.000000e+000
    outer loop
      vertex  6.650000e+001  4.500000e+001 -4.500000e+000
      vertex  6.850000e+001  4.500000e+001 -1.050000e+001
      vertex  6.850000e+001  4.500000e+001 -6.500000e+000
    endloop
  endfacet
  facet normal  0.000000e+000 -1.000000e+000  0.000000e+000
    outer loop
      vertex  6.650000e+001  4.500000e+001 -4.500000e+000
      vertex  6.850000e+001  4.500000e+001 -6.500000e+000
      vertex  6.791422e+001  4.500000e+001 -5.085786e+000
    endloop
  endfacet
  facet normal  0.000000e+000 -1.000000e+000  0.000000e+000
    outer loop
      vertex  3.700000e+001  4.500000e+001 -1.250000e+001
      vertex  6.243934e+001  4.500000e+001 -9.560660e+000
      vertex  3.558578e+001  4.500000e+001 -1.191421e+001
    endloop
  endfacet
  facet normal  0.000000e+000 -9.999999e-001  0.000000e+000
    outer loop
      vertex  3.558578e+001  4.500000e+001 -1.191421e+001
      vertex  6.243934e+001  4.500000e+001 -9.560660e+000
      vertex  6.200000e+001  4.500000e+001 -8.500000e+000
    endloop
  endfacet
  facet normal -9.238799e-001  0.000000e+000  3.826825e-001
    outer loop
      vertex  6.500000e+001  4.800000e+001 -8.500000e+000
      vertex  6.456066e+001  4.800000e+001 -9.560660e+000
      vertex  6.500000e+001  4.500000e+001 -8.500000e+000
    endloop
  endfacet
  facet normal -9.238799e-001  0.000000e+000  3.826825e-001
    outer loop
      vertex  6.500000e+001  4.500000e+001 -8.500000e+000
      vertex  6.456066e+001  4.800000e+001 -9.560660e+000
      vertex  6.456066e+001  4.500000e+001 -9.560660e+000
    endloop
  endfacet
  facet normal -3.826829e-001  0.000000e+000  9.238797e-001
    outer loop
      vertex  6.456066e+001  4.800000e+001 -9.560660e+000
      vertex  6.350000e+001  4.800000e+001 -1.000000e+001
      vertex  6.456066e+001  4.500000e+001 -9.560660e+000
    endloop
  endfacet
  facet normal -3.826829e-001  0.000000e+000  9.238797e-001
    outer loop
      vertex  6.456066e+001  4.500000e+001 -9.560660e+000
      vertex  6.350000e+001  4.800000e+001 -1.000000e+001
      vertex  6.350000e+001  4.500000e+001 -1.000000e+001
    endloop
  endfacet
  facet normal -3.826829e-001  0.000000e+000 -9.238797e-001
    outer loop
      vertex  6.350000e+001  4.800000e+001 -7.000000e+000
      vertex  6.456066e+001  4.800000e+001 -7.439340e+000
      vertex  6.350000e+001  4.500000e+001 -7.000000e+000
    endloop
  endfacet
  facet normal -3.826829e-001  0.000000e+000 -9.238797e-001
    outer loop
      vertex  6.350000e+001  4.500000e+001 -7.000000e+000
      vertex  6.456066e+001  4.800000e+001 -7.439340e+000
      vertex  6.456066e+001  4.500000e+001 -7.439340e+000
    endloop
  endfacet
  facet normal -9.238799e-001  0.000000e+000 -3.826825e-001
    outer loop
      vertex  6.456066e+001  4.800000e+001 -7.439340e+000
      vertex  6.500000e+001  4.800000e+001 -8.500000e+000
      vertex  6.456066e+001  4.500000e+001 -7.439340e+000
    endloop
  endfacet
  facet normal -9.238799e-001  0.000000e+000 -3.826825e-001
    outer loop
      vertex  6.456066e+001  4.500000e+001 -7.439340e+000
      vertex  6.500000e+001  4.800000e+001 -8.500000e+000
      vertex  6.500000e+001  4.500000e+001 -8.500000e+000
    endloop
  endfacet
  facet normal  9.238799e-001  0.000000e+000 -3.826825e-001
    outer loop
      vertex  6.200000e+001  4.800000e+001 -8.500000e+000
      vertex  6.243934e+001  4.800000e+001 -7.439340e+000
      vertex  6.200000e+001  4.500000e+001 -8.500000e+000
    endloop
  endfacet
  facet normal  9.238799e-001  0.000000e+000 -3.826825e-001
    outer loop
      vertex  6.200000e+001  4.500000e+001 -8.500000e+000
      vertex  6.243934e+001  4.800000e+001 -7.439340e+000
      vertex  6.243934e+001  4.500000e+001 -7.439340e+000
    endloop
  endfacet
  facet normal  3.826829e-001  0.000000e+000 -9.238797e-001
    outer loop
      vertex  6.243934e+001  4.800000e+001 -7.439340e+000
      vertex  6.350000e+001  4.800000e+001 -7.000000e+000
      vertex  6.243934e+001  4.500000e+001 -7.439340e+000
    endloop
  endfacet
  facet normal  3.826829e-001  0.000000e+000 -9.238797e-001
    outer loop
      vertex  6.243934e+001  4.500000e+001 -7.439340e+000
      vertex  6.350000e+001  4.800000e+001 -7.000000e+000
      vertex  6.350000e+001  4.500000e+001 -7.000000e+000
    endloop
  endfacet
  facet normal  3.826829e-001  0.000000e+000  9.238797e-001
    outer loop
      vertex  6.350000e+001  4.800000e+001 -1.000000e+001
      vertex  6.243934e+001  4.800000e+001 -9.560660e+000
      vertex  6.350000e+001  4.500000e+001 -1.000000e+001
    endloop
  endfacet
  facet normal  3.826829e-001  0.000000e+000  9.238797e-001
    outer loop
      vertex  6.350000e+001  4.500000e+001 -1.000000e+001
      vertex  6.243934e+001  4.800000e+001 -9.560660e+000
      vertex  6.243934e+001  4.500000e+001 -9.560660e+000
    endloop
  endfacet
  facet normal  9.238799e-001  0.000000e+000  3.826825e-001
    outer loop
      vertex  6.243934e+001  4.800000e+001 -9.560660e+000
      vertex  6.200000e+001  4.800000e+001 -8.500000e+000
      vertex  6.243934e+001  4.500000e+001 -9.560660e+000
    endloop
  endfacet
  facet normal  9.238799e-001  0.000000e+000  3.826825e-001
    outer loop
      vertex  6.243934e+001  4.500000e+001 -9.560660e+000
      vertex  6.200000e+001  4.800000e+001 -8.500000e+000
      vertex  6.200000e+001  4.500000e+001 -8.500000e+000
    endloop
  endfacet
  facet normal  0.000000e+000  1.000000e+000  -0.000000e+000
    outer loop
      vertex  6.850000e+001  4.800000e+001 -1.050000e+001
      vertex  6.791422e+001  4.800000e+001 -1.191421e+001
      vertex  6.350000e+001  4.800000e+001 -1.000000e+001
    endloop
  endfacet
  facet normal  -0.000000e+000  1.000000e+000  0.000000e+000
    outer loop
      vertex  6.850000e+001  4.800000e+001 -1.050000e+001
      vertex  6.350000e+001  4.800000e+001 -1.000000e+001
      vertex  6.456066e+001  4.800000e+001 -9.560660e+000
    endloop
  endfacet
  facet normal  -0.000000e+000  1.000000e+000  0.000000e+000
    outer loop
      vertex  6.850000e+001  4.800000e+001 -1.050000e+001
      vertex  6.456066e+001  4.800000e+001 -9.560660e+000
      vertex  6.850000e+001  4.800000e+001 -6.500000e+000
    endloop
  endfacet
  facet normal  0.000000e+000  1.000000e+000  0.000000e+000
    outer loop
      vertex  6.850000e+001  4.800000e+001 -6.500000e+000
      vertex  6.456066e+001  4.800000e+001 -9.560660e+000
      vertex  6.500000e+001  4.800000e+001 -8.500000e+000
    endloop
  endfacet
  facet normal  0.000000e+000  1.000000e+000  -0.000000e+000
    outer loop
      vertex  6.850000e+001  4.800000e+001 -6.500000e+000
      vertex  6.500000e+001  4.800000e+001 -8.500000e+000
      vertex  6.456066e+001  4.800000e+001 -7.439340e+000
    endloop
  endfacet
  facet normal  0.000000e+000  1.000000e+000  -0.000000e+000
    outer loop
      vertex  6.850000e+001  4.800000e+001 -6.500000e+000
      vertex  6.456066e+001  4.800000e+001 -7.439340e+000
      vertex  6.350000e+001  4.800000e+001 -7.000000e+000
    endloop
  endfacet
  facet normal  0.000000e+000  1.000000e+000  -0.000000e+000
    outer loop
      vertex  6.850000e+001  4.800000e+001 -6.500000e+000
      vertex  6.350000e+001  4.800000e+001 -7.000000e+000
      vertex  4.500000e+001  4.800000e+001 -4.500000e+000
    endloop
  endfacet
  facet normal  -0.000000e+000  1.000000e+000  0.000000e+000
    outer loop
      vertex  6.850000e+001  4.800000e+001 -6.500000e+000
      vertex  4.500000e+001  4.800000e+001 -4.500000e+000
      vertex  6.650000e+001  4.800000e+001 -4.500000e+000
    endloop
  endfacet
  facet normal  0.000000e+000  1.000000e+000  0.000000e+000
    outer loop
      vertex  6.850000e+001  4.800000e+001 -6.500000e+000
      vertex  6.650000e+001  4.800000e+001 -4.500000e+000
      vertex  6.791422e+001  4.800000e+001 -5.085786e+000
    endloop
  endfacet
  facet normal  0.000000e+000  1.000000e+000  0.000000e+000
    outer loop
      vertex  3.500000e+001  4.800000e+001 -4.500000e+000
      vertex  4.500000e+001  4.800000e+001 -4.500000e+000
      vertex  6.350000e+001  4.800000e+001 -7.000000e+000
    endloop
  endfacet
  facet normal  0.000000e+000  9.999999e-001  0.000000e+000
    outer loop
      vertex  3.500000e+001  4.800000e+001 -4.500000e+000
      vertex  6.350000e+001  4.800000e+001 -7.000000e+000
      vertex  6.243934e+001  4.800000e+001 -7.439340e+000
    endloop
  endfacet
  facet normal  0.000000e+000  1.000000e+000  0.000000e+000
    outer loop
      vertex  3.500000e+001  4.800000e+001 -4.500000e+000
      vertex  6.243934e+001  4.800000e+001 -7.439340e+000
      vertex  6.200000e+001  4.800000e+001 -8.500000e+000
    endloop
  endfacet
  facet normal  0.000000e+000  1.000000e+000  0.000000e+000
    outer loop
      vertex  3.500000e+001  4.800000e+001 -4.500000e+000
      vertex  6.200000e+001  4.800000e+001 -8.500000e+000
      vertex  6.243934e+001  4.800000e+001 -9.560660e+000
    endloop
  endfacet
  facet normal  0.000000e+000  1.000000e+000  0.000000e+000
    outer loop
      vertex  3.500000e+001  4.800000e+001 -4.500000e+000
      vertex  6.243934e+001  4.800000e+001 -9.560660e+000
      vertex  6.350000e+001  4.800000e+001 -1.000000e+001
    endloop
  endfacet
  facet normal  0.000000e+000  1.000000e+000  0.000000e+000
    outer loop
      vertex  3.500000e+001  4.800000e+001 -4.500000e+000
      vertex  6.350000e+001  4.800000e+001 -1.000000e+001
      vertex  3.500000e+001  4.800000e+001 -1.050000e+001
    endloop
  endfacet
  facet normal  0.000000e+000  1.000000e+000  0.000000e+000
    outer loop
      vertex  3.500000e+001  4.800000e+001 -1.050000e+001
      vertex  6.350000e+001  4.800000e+001 -1.000000e+001
      vertex  3.558578e+001  4.800000e+001 -1.191421e+001
    endloop
  endfacet
  facet normal  -0.000000e+000  1.000000e+000  0.000000e+000
    outer loop
      vertex  3.558578e+001  4.800000e+001 -1.191421e+001
      vertex  6.350000e+001  4.800000e+001 -1.000000e+001
      vertex  3.700000e+001  4.800000e+001 -1.250000e+001
    endloop
  endfacet
  facet normal  0.000000e+000  1.000000e+000  0.000000e+000
    outer loop
      vertex  6.350000e+001  4.800000e+001 -1.000000e+001
      vertex  6.791422e+001  4.800000e+001 -1.191421e+001
      vertex  3.700000e+001  4.800000e+001 -1.250000e+001
    endloop
  endfacet
  facet normal  0.000000e+000  1.000000e+000  0.000000e+000
    outer loop
      vertex  3.700000e+001  4.800000e+001 -1.250000e+001
      vertex  6.791422e+001  4.800000e+001 -1.191421e+001
      vertex  6.650000e+001  4.800000e+001 -1.250000e+001
    endloop
  endfacet
  facet normal -3.826833e-001  0.000000e+000 -9.238796e-001
    outer loop
      vertex  3.700000e+001  4.800000e+001 -1.250000e+001
      vertex  3.700000e+001  4.500000e+001 -1.250000e+001
      vertex  3.558578e+001  4.800000e+001 -1.191421e+001
    endloop
  endfacet
  facet normal -3.826833e-001  -0.000000e+000 -9.238796e-001
    outer loop
      vertex  3.558578e+001  4.800000e+001 -1.191421e+001
      vertex  3.700000e+001  4.500000e+001 -1.250000e+001
      vertex  3.558578e+001  4.500000e+001 -1.191421e+001
    endloop
  endfacet
  facet normal -9.238798e-001  0.000000e+000 -3.826827e-001
    outer loop
      vertex  3.558578e+001  4.800000e+001 -1.191421e+001
      vertex  3.558578e+001  4.500000e+001 -1.191421e+001
      vertex  3.500000e+001  4.800000e+001 -1.050000e+001
    endloop
  endfacet
  facet normal -9.238798e-001  -0.000000e+000 -3.826827e-001
    outer loop
      vertex  3.500000e+001  4.800000e+001 -1.050000e+001
      vertex  3.558578e+001  4.500000e+001 -1.191421e+001
      vertex  3.500000e+001  4.500000e+001 -1.050000e+001
    endloop
  endfacet
  facet normal  0.000000e+000  0.000000e+000 -1.000000e+000
    outer loop
      vertex  3.700000e+001  4.500000e+001 -1.250000e+001
      vertex  3.700000e+001  4.800000e+001 -1.250000e+001
      vertex  6.650000e+001  4.500000e+001 -1.250000e+001
    endloop
  endfacet
  facet normal  0.000000e+000  0.000000e+000 -1.000000e+000
    outer loop
      vertex  6.650000e+001  4.500000e+001 -1.250000e+001
      vertex  3.700000e+001  4.800000e+001 -1.250000e+001
      vertex  6.650000e+001  4.800000e+001 -1.250000e+001
    endloop
  endfacet
  facet normal  9.238798e-001  0.000000e+000 -3.826827e-001
    outer loop
      vertex  6.850000e+001  4.800000e+001 -1.050000e+001
      vertex  6.850000e+001  4.500000e+001 -1.050000e+001
      vertex  6.791422e+001  4.800000e+001 -1.191421e+001
    endloop
  endfacet
  facet normal  9.238798e-001  0.000000e+000 -3.826827e-001
    outer loop
      vertex  6.791422e+001  4.800000e+001 -1.191421e+001
      vertex  6.850000e+001  4.500000e+001 -1.050000e+001
      vertex  6.791422e+001  4.500000e+001 -1.191421e+001
    endloop
  endfacet
  facet normal  3.826833e-001  0.000000e+000 -9.238796e-001
    outer loop
      vertex  6.791422e+001  4.800000e+001 -1.191421e+001
      vertex  6.791422e+001  4.500000e+001 -1.191421e+001
      vertex  6.650000e+001  4.800000e+001 -1.250000e+001
    endloop
  endfacet
  facet normal  3.826833e-001  0.000000e+000 -9.238796e-001
    outer loop
      vertex  6.650000e+001  4.800000e+001 -1.250000e+001
      vertex  6.791422e+001  4.500000e+001 -1.191421e+001
      vertex  6.650000e+001  4.500000e+001 -1.250000e+001
    endloop
  endfacet
  facet normal  1.000000e+000  0.000000e+000  0.000000e+000
    outer loop
      vertex  6.850000e+001  4.500000e+001 -6.500000e+000
      vertex  6.850000e+001  4.500000e+001 -1.050000e+001
      vertex  6.850000e+001  4.800000e+001 -6.500000e+000
    endloop
  endfacet
  facet normal  1.000000e+000  0.000000e+000  0.000000e+000
    outer loop
      vertex  6.850000e+001  4.800000e+001 -6.500000e+000
      vertex  6.850000e+001  4.500000e+001 -1.050000e+001
      vertex  6.850000e+001  4.800000e+001 -1.050000e+001
    endloop
  endfacet
  facet normal  3.826830e-001  -0.000000e+000  9.238797e-001
    outer loop
      vertex  6.650000e+001  4.800000e+001 -4.500000e+000
      vertex  6.650000e+001  4.500000e+001 -4.500000e+000
      vertex  6.791422e+001  4.800000e+001 -5.085786e+000
    endloop
  endfacet
  facet normal  3.826830e-001  0.000000e+000  9.238797e-001
    outer loop
      vertex  6.791422e+001  4.800000e+001 -5.085786e+000
      vertex  6.650000e+001  4.500000e+001 -4.500000e+000
      vertex  6.791422e+001  4.500000e+001 -5.085786e+000
    endloop
  endfacet
  facet normal  9.238799e-001  -0.000000e+000  3.826826e-001
    outer loop
      vertex  6.791422e+001  4.800000e+001 -5.085786e+000
      vertex  6.791422e+001  4.500000e+001 -5.085786e+000
      vertex  6.850000e+001  4.800000e+001 -6.500000e+000
    endloop
  endfacet
  facet normal  9.238799e-001  0.000000e+000  3.826826e-001
    outer loop
      vertex  6.850000e+001  4.800000e+001 -6.500000e+000
      vertex  6.791422e+001  4.500000e+001 -5.085786e+000
      vertex  6.850000e+001  4.500000e+001 -6.500000e+000
    endloop
  endfacet
  facet normal  0.000000e+000  0.000000e+000  1.000000e+000
    outer loop
      vertex  4.500000e+001  4.800000e+001 -4.500000e+000
      vertex  4.500000e+001  4.500000e+001 -4.500000e+000
      vertex  6.650000e+001  4.800000e+001 -4.500000e+000
    endloop
  endfacet
  facet normal  0.000000e+000  0.000000e+000  1.000000e+000
    outer loop
      vertex  6.650000e+001  4.800000e+001 -4.500000e+000
      vertex  4.500000e+001  4.500000e+001 -4.500000e+000
      vertex  6.650000e+001  4.500000e+001 -4.500000e+000
    endloop
  endfacet
  facet normal -1.000000e+000  -0.000000e+000  0.000000e+000
    outer loop
      vertex  3.500000e+001  4.500000e+001 -4.500000e+000
      vertex  3.500000e+001  4.800000e+001 -4.500000e+000
      vertex  3.500000e+001  4.500000e+001 -1.050000e+001
    endloop
  endfacet
  facet normal -1.000000e+000  0.000000e+000  0.000000e+000
    outer loop
      vertex  3.500000e+001  4.500000e+001 -1.050000e+001
      vertex  3.500000e+001  4.800000e+001 -4.500000e+000
      vertex  3.500000e+001  4.800000e+001 -1.050000e+001
    endloop
  endfacet
  facet normal  -0.000000e+000 -2.588190e-001 -9.659258e-001
    outer loop
      vertex  4.500000e+001  4.275000e+001 -6.028857e-001
      vertex  4.500000e+001  4.050000e+001  0.000000e+000
      vertex  4.000000e+001  4.050000e+001  0.000000e+000
    endloop
  endfacet
  facet normal  0.000000e+000 -9.659258e-001 -2.588193e-001
    outer loop
      vertex  4.500000e+001  4.439711e+001 -2.250000e+000
      vertex  3.500000e+001  4.500000e+001 -4.500000e+000
      vertex  4.500000e+001  4.500000e+001 -4.500000e+000
    endloop
  endfacet
  facet normal  -0.000000e+000 -9.659258e-001 -2.588193e-001
    outer loop
      vertex  3.500000e+001  4.500000e+001 -4.500000e+000
      vertex  4.500000e+001  4.439711e+001 -2.250000e+000
      vertex  3.500000e+001  4.439711e+001 -2.250000e+000
    endloop
  endfacet
  facet normal  0.000000e+000 -7.071068e-001 -7.071067e-001
    outer loop
      vertex  3.500000e+001  4.439711e+001 -2.250000e+000
      vertex  4.500000e+001  4.439711e+001 -2.250000e+000
      vertex  4.500000e+001  4.275000e+001 -6.028857e-001
    endloop
  endfacet
  facet normal  -0.000000e+000 -7.071068e-001 -7.071067e-001
    outer loop
      vertex  3.500000e+001  4.439711e+001 -2.250000e+000
      vertex  4.500000e+001  4.275000e+001 -6.028857e-001
      vertex  3.500000e+001  4.275000e+001 -6.028857e-001
    endloop
  endfacet
  facet normal  0.000000e+000 -2.588190e-001 -9.659258e-001
    outer loop
      vertex  3.500000e+001  4.275000e+001 -6.028857e-001
      vertex  4.500000e+001  4.275000e+001 -6.028857e-001
      vertex  4.000000e+001  4.050000e+001  0.000000e+000
    endloop
  endfacet
  facet normal  -0.000000e+000 -2.588190e-001 -9.659258e-001
    outer loop
      vertex  3.500000e+001  4.275000e+001 -6.028857e-001
      vertex  4.000000e+001  4.050000e+001  0.000000e+000
      vertex  3.500000e+001  4.050000e+001  0.000000e+000
    endloop
  endfacet
  facet normal  0.000000e+000  1.950904e-001  9.807852e-001
    outer loop
      vertex  4.000000e+001  4.050000e+001  3.000000e+000
      vertex  4.500000e+001  4.050000e+001  3.000000e+000
      vertex  4.500000e+001  4.337012e+001  2.429096e+000
    endloop
  endfacet
  facet normal  -0.000000e+000  9.807853e-001  1.950904e-001
    outer loop
      vertex  4.500000e+001  4.800000e+001 -4.500000e+000
      vertex  3.500000e+001  4.800000e+001 -4.500000e+000
      vertex  4.500000e+001  4.742910e+001 -1.629874e+000
    endloop
  endfacet
  facet normal  0.000000e+000  9.807853e-001  1.950904e-001
    outer loop
      vertex  4.500000e+001  4.742910e+001 -1.629874e+000
      vertex  3.500000e+001  4.800000e+001 -4.500000e+000
      vertex  3.500000e+001  4.742910e+001 -1.629874e+000
    endloop
  endfacet
  facet normal  -0.000000e+000  8.314699e-001  5.555697e-001
    outer loop
      vertex  4.500000e+001  4.742910e+001 -1.629874e+000
      vertex  3.500000e+001  4.742910e+001 -1.629874e+000
      vertex  4.500000e+001  4.580330e+001  8.033009e-001
    endloop
  endfacet
  facet normal  0.000000e+000  8.314699e-001  5.555697e-001
    outer loop
      vertex  4.500000e+001  4.580330e+001  8.033009e-001
      vertex  3.500000e+001  4.742910e+001 -1.629874e+000
      vertex  3.500000e+001  4.580330e+001  8.033009e-001
    endloop
  endfacet
  facet normal  -0.000000e+000  5.555698e-001  8.314700e-001
    outer loop
      vertex  4.500000e+001  4.580330e+001  8.033009e-001
      vertex  3.500000e+001  4.580330e+001  8.033009e-001
      vertex  4.500000e+001  4.337012e+001  2.429096e+000
    endloop
  endfacet
  facet normal  0.000000e+000  5.555698e-001  8.314700e-001
    outer loop
      vertex  4.500000e+001  4.337012e+001  2.429096e+000
      vertex  3.500000e+001  4.580330e+001  8.033009e-001
      vertex  3.500000e+001  4.337012e+001  2.429096e+000
    endloop
  endfacet
  facet normal  -0.000000e+000  1.950904e-001  9.807852e-001
    outer loop
      vertex  4.500000e+001  4.337012e+001  2.429096e+000
      vertex  3.500000e+001  4.337012e+001  2.429096e+000
      vertex  4.000000e+001  4.050000e+001  3.000000e+000
    endloop
  endfacet
  facet normal  0.000000e+000  1.950904e-001  9.807852e-001
    outer loop
      vertex  4.000000e+001  4.050000e+001  3.000000e+000
      vertex  3.500000e+001  4.337012e+001  2.429096e+000
      vertex  3.500000e+001  4.050000e+001  3.000000e+000
    endloop
  endfacet
  facet normal  1.000000e+000  0.000000e+000  -0.000000e+000
    outer loop
      vertex  4.500000e+001  4.050000e+001  0.000000e+000
      vertex  4.500000e+001  4.275000e+001 -6.028857e-001
      vertex  4.500000e+001  4.580330e+001  8.033009e-001
    endloop
  endfacet
  facet normal  1.000000e+000  0.000000e+000  0.000000e+000
    outer loop
      vertex  4.500000e+001  4.580330e+001  8.033009e-001
      vertex  4.500000e+001  4.275000e+001 -6.028857e-001
      vertex  4.500000e+001  4.439711e+001 -2.250000e+000
    endloop
  endfacet
  facet normal  1.000000e+000  0.000000e+000  0.000000e+000
    outer loop
      vertex  4.500000e+001  4.580330e+001  8.033009e-001
      vertex  4.500000e+001  4.439711e+001 -2.250000e+000
      vertex  4.500000e+001  4.742910e+001 -1.629874e+000
    endloop
  endfacet
  facet normal  1.000000e+000  0.000000e+000  0.000000e+000
    outer loop
      vertex  4.500000e+001  4.742910e+001 -1.629874e+000
      vertex  4.500000e+001  4.439711e+001 -2.250000e+000
      vertex  4.500000e+001  4.500000e+001 -4.500000e+000
    endloop
  endfacet
  facet normal  1.000000e+000  0.000000e+000  0.000000e+000
    outer loop
      vertex  4.500000e+001  4.742910e+001 -1.629874e+000
      vertex  4.500000e+001  4.500000e+001 -4.500000e+000
      vertex  4.500000e+001  4.800000e+001 -4.500000e+000
    endloop
  endfacet
  facet normal  1.000000e+000  0.000000e+000  0.000000e+000
    outer loop
      vertex  4.500000e+001  4.050000e+001  3.000000e+000
      vertex  4.500000e+001  4.050000e+001  0.000000e+000
      vertex  4.500000e+001  4.337012e+001  2.429096e+000
    endloop
  endfacet
  facet normal  1.000000e+000  0.000000e+000  0.000000e+000
    outer loop
      vertex  4.500000e+001  4.337012e+001  2.429096e+000
      vertex  4.500000e+001  4.050000e+001  0.000000e+000
      vertex  4.500000e+001  4.580330e+001  8.033009e-001
    endloop
  endfacet
  facet normal  3.826822e-001 -9.238800e-001  0.000000e+000
    outer loop
      vertex  4.000000e+001  4.050000e+001  0.000000e+000
      vertex  3.893934e+001  4.006066e+001  3.000000e+000
      vertex  3.893934e+001  4.006066e+001  0.000000e+000
    endloop
  endfacet
  facet normal  9.238800e-001 -3.826822e-001  0.000000e+000
    outer loop
      vertex  3.893934e+001  4.006066e+001  0.000000e+000
      vertex  3.893934e+001  4.006066e+001  3.000000e+000
      vertex  3.850000e+001  3.900000e+001  3.000000e+000
    endloop
  endfacet
  facet normal  9.238800e-001 -3.826822e-001  0.000000e+000
    outer loop
      vertex  3.893934e+001  4.006066e+001  0.000000e+000
      vertex  3.850000e+001  3.900000e+001  3.000000e+000
      vertex  3.850000e+001  3.900000e+001  0.000000e+000
    endloop
  endfacet
  facet normal  3.826822e-001 -9.238800e-001  0.000000e+000
    outer loop
      vertex  3.893934e+001  4.006066e+001  3.000000e+000
      vertex  4.000000e+001  4.050000e+001  0.000000e+000
      vertex  4.000000e+001  4.050000e+001  3.000000e+000
    endloop
  endfacet
  facet normal -3.826822e-001 -9.238800e-001  -0.000000e+000
    outer loop
      vertex  4.000000e+001  4.050000e+001  3.000000e+000
      vertex  4.000000e+001  4.050000e+001  0.000000e+000
      vertex  4.106066e+001  4.006066e+001  0.000000e+000
    endloop
  endfacet
  facet normal -3.826822e-001 -9.238800e-001  0.000000e+000
    outer loop
      vertex  4.000000e+001  4.050000e+001  3.000000e+000
      vertex  4.106066e+001  4.006066e+001  0.000000e+000
      vertex  4.106066e+001  4.006066e+001  3.000000e+000
    endloop
  endfacet
  facet normal -9.238800e-001 -3.826822e-001  -0.000000e+000
    outer loop
      vertex  4.106066e+001  4.006066e+001  3.000000e+000
      vertex  4.106066e+001  4.006066e+001  0.000000e+000
      vertex  4.150000e+001  3.900000e+001  0.000000e+000
    endloop
  endfacet
  facet normal -9.238800e-001 -3.826822e-001  0.000000e+000
    outer loop
      vertex  4.106066e+001  4.006066e+001  3.000000e+000
      vertex  4.150000e+001  3.900000e+001  0.000000e+000
      vertex  4.150000e+001  3.900000e+001  3.000000e+000
    endloop
  endfacet
  facet normal -1.000000e+000  0.000000e+000  0.000000e+000
    outer loop
      vertex  3.500000e+001  4.050000e+001  0.000000e+000
      vertex  3.500000e+001  2.400000e+001  0.000000e+000
      vertex  3.500000e+001  4.050000e+001  3.000000e+000
    endloop
  endfacet
  facet normal -1.000000e+000  -0.000000e+000  0.000000e+000
    outer loop
      vertex  3.500000e+001  4.050000e+001  3.000000e+000
      vertex  3.500000e+001  2.400000e+001  0.000000e+000
      vertex  3.500000e+001  2.400000e+001  3.000000e+000
    endloop
  endfacet
  facet normal -1.000000e+000  0.000000e+000  0.000000e+000
    outer loop
      vertex  3.500000e+001  4.500000e+001 -4.500000e+000
      vertex  3.500000e+001  4.439711e+001 -2.250000e+000
      vertex  3.500000e+001  4.580330e+001  8.033009e-001
    endloop
  endfacet
  facet normal -1.000000e+000  0.000000e+000  0.000000e+000
    outer loop
      vertex  3.500000e+001  4.580330e+001  8.033009e-001
      vertex  3.500000e+001  4.439711e+001 -2.250000e+000
      vertex  3.500000e+001  4.275000e+001 -6.028857e-001
    endloop
  endfacet
  facet normal -9.999999e-001  0.000000e+000  0.000000e+000
    outer loop
      vertex  3.500000e+001  4.580330e+001  8.033009e-001
      vertex  3.500000e+001  4.275000e+001 -6.028857e-001
      vertex  3.500000e+001  4.337012e+001  2.429096e+000
    endloop
  endfacet
  facet normal -9.999999e-001  0.000000e+000  0.000000e+000
    outer loop
      vertex  3.500000e+001  4.337012e+001  2.429096e+000
      vertex  3.500000e+001  4.275000e+001 -6.028857e-001
      vertex  3.500000e+001  4.050000e+001  0.000000e+000
    endloop
  endfacet
  facet normal -1.000000e+000  0.000000e+000  0.000000e+000
    outer loop
      vertex  3.500000e+001  4.337012e+001  2.429096e+000
      vertex  3.500000e+001  4.050000e+001  0.000000e+000
      vertex  3.500000e+001  4.050000e+001  3.000000e+000
    endloop
  endfacet
  facet normal -1.000000e+000  0.000000e+000  0.000000e+000
    outer loop
      vertex  3.500000e+001  4.800000e+001 -4.500000e+000
      vertex  3.500000e+001  4.500000e+001 -4.500000e+000
      vertex  3.500000e+001  4.742910e+001 -1.629874e+000
    endloop
  endfacet
  facet normal -9.999999e-001  -0.000000e+000  0.000000e+000
    outer loop
      vertex  3.500000e+001  4.742910e+001 -1.629874e+000
      vertex  3.500000e+001  4.500000e+001 -4.500000e+000
      vertex  3.500000e+001  4.580330e+001  8.033009e-001
    endloop
  endfacet
  facet normal  9.238798e-001 -3.826827e-001  0.000000e+000
    outer loop
      vertex  4.500000e+001 -1.800000e+001  0.000000e+000
      vertex  4.500000e+001 -1.800000e+001  3.000000e+000
      vertex  4.441422e+001 -1.941421e+001  0.000000e+000
    endloop
  endfacet
  facet normal  9.238798e-001 -3.826827e-001  0.000000e+000
    outer loop
      vertex  4.441422e+001 -1.941421e+001  0.000000e+000
      vertex  4.500000e+001 -1.800000e+001  3.000000e+000
      vertex  4.441422e+001 -1.941421e+001  3.000000e+000
    endloop
  endfacet
  facet normal  3.826833e-001 -9.238796e-001  0.000000e+000
    outer loop
      vertex  4.441422e+001 -1.941421e+001  0.000000e+000
      vertex  4.441422e+001 -1.941421e+001  3.000000e+000
      vertex  4.300000e+001 -2.000000e+001  0.000000e+000
    endloop
  endfacet
  facet normal  3.826833e-001 -9.238796e-001  0.000000e+000
    outer loop
      vertex  4.300000e+001 -2.000000e+001  0.000000e+000
      vertex  4.441422e+001 -1.941421e+001  3.000000e+000
      vertex  4.300000e+001 -2.000000e+001  3.000000e+000
    endloop
  endfacet
  facet normal  0.000000e+000 -1.000000e+000  0.000000e+000
    outer loop
      vertex  3.700000e+001 -2.000000e+001  0.000000e+000
      vertex  4.300000e+001 -2.000000e+001  0.000000e+000
      vertex  3.700000e+001 -2.000000e+001  3.000000e+000
    endloop
  endfacet
  facet normal  0.000000e+000 -1.000000e+000  0.000000e+000
    outer loop
      vertex  3.700000e+001 -2.000000e+001  3.000000e+000
      vertex  4.300000e+001 -2.000000e+001  0.000000e+000
      vertex  4.300000e+001 -2.000000e+001  3.000000e+000
    endloop
  endfacet
  facet normal -8.233071e-001 -5.675960e-001  -0.000000e+000
    outer loop
      vertex  6.714592e+000  2.071288e+001  0.000000e+000
      vertex  6.714592e+000  2.071288e+001  3.000000e+000
      vertex  6.078150e+000  2.163605e+001  0.000000e+000
    endloop
  endfacet
  facet normal -8.233071e-001 -5.675960e-001  0.000000e+000
    outer loop
      vertex  6.078150e+000  2.163605e+001  0.000000e+000
      vertex  6.714592e+000  2.071288e+001  3.000000e+000
      vertex  6.078150e+000  2.163605e+001  3.000000e+000
    endloop
  endfacet
  facet normal -9.998440e-001  1.766688e-002  0.000000e+000
    outer loop
      vertex  6.078150e+000  2.163605e+001  0.000000e+000
      vertex  6.078150e+000  2.163605e+001  3.000000e+000
      vertex  6.097960e+000  2.275716e+001  0.000000e+000
    endloop
  endfacet
  facet normal -9.998440e-001  1.766688e-002  0.000000e+000
    outer loop
      vertex  6.097960e+000  2.275716e+001  0.000000e+000
      vertex  6.078150e+000  2.163605e+001  3.000000e+000
      vertex  6.097960e+000  2.275716e+001  3.000000e+000
    endloop
  endfacet
  facet normal -8.027409e-001  5.963279e-001  0.000000e+000
    outer loop
      vertex  6.097960e+000  2.275716e+001  0.000000e+000
      vertex  6.097960e+000  2.275716e+001  3.000000e+000
      vertex  6.766619e+000  2.365727e+001  0.000000e+000
    endloop
  endfacet
  facet normal -8.027409e-001  5.963279e-001  0.000000e+000
    outer loop
      vertex  6.766619e+000  2.365727e+001  0.000000e+000
      vertex  6.097960e+000  2.275716e+001  3.000000e+000
      vertex  6.766619e+000  2.365727e+001  3.000000e+000
    endloop
  endfacet
  facet normal -3.056541e-001  9.521425e-001  0.000000e+000
    outer loop
      vertex  6.766619e+000  2.365727e+001  0.000000e+000
      vertex  6.766619e+000  2.365727e+001  3.000000e+000
      vertex  7.834249e+000  2.400000e+001  0.000000e+000
    endloop
  endfacet
  facet normal -3.056541e-001  9.521425e-001  0.000000e+000
    outer loop
      vertex  7.834249e+000  2.400000e+001  0.000000e+000
      vertex  6.766619e+000  2.365727e+001  3.000000e+000
      vertex  7.834249e+000  2.400000e+001  3.000000e+000
    endloop
  endfacet
  facet normal  0.000000e+000  1.000000e+000  0.000000e+000
    outer loop
      vertex  3.500000e+001  2.400000e+001  0.000000e+000
      vertex  7.834249e+000  2.400000e+001  0.000000e+000
      vertex  3.500000e+001  2.400000e+001  3.000000e+000
    endloop
  endfacet
  facet normal  0.000000e+000  1.000000e+000  0.000000e+000
    outer loop
      vertex  3.500000e+001  2.400000e+001  3.000000e+000
      vertex  7.834249e+000  2.400000e+001  0.000000e+000
      vertex  7.834249e+000  2.400000e+001  3.000000e+000
    endloop
  endfacet
  facet normal -3.826833e-001 -9.238796e-001  -0.000000e+000
    outer loop
      vertex  3.700000e+001 -2.000000e+001  0.000000e+000
      vertex  3.700000e+001 -2.000000e+001  3.000000e+000
      vertex  3.558578e+001 -1.941421e+001  0.000000e+000
    endloop
  endfacet
  facet normal -3.826833e-001 -9.238796e-001  0.000000e+000
    outer loop
      vertex  3.558578e+001 -1.941421e+001  0.000000e+000
      vertex  3.700000e+001 -2.000000e+001  3.000000e+000
      vertex  3.558578e+001 -1.941421e+001  3.000000e+000
    endloop
  endfacet
  facet normal -9.238798e-001 -3.826827e-001  -0.000000e+000
    outer loop
      vertex  3.558578e+001 -1.941421e+001  0.000000e+000
      vertex  3.558578e+001 -1.941421e+001  3.000000e+000
      vertex  3.500000e+001 -1.800000e+001  0.000000e+000
    endloop
  endfacet
  facet normal -9.238798e-001 -3.826827e-001  0.000000e+000
    outer loop
      vertex  3.500000e+001 -1.800000e+001  0.000000e+000
      vertex  3.558578e+001 -1.941421e+001  3.000000e+000
      vertex  3.500000e+001 -1.800000e+001  3.000000e+000
    endloop
  endfacet
  facet normal -1.000000e+000  0.000000e+000  0.000000e+000
    outer loop
      vertex  3.500000e+001  0.000000e+000  0.000000e+000
      vertex  3.500000e+001 -1.800000e+001  0.000000e+000
      vertex  3.500000e+001  0.000000e+000  3.000000e+000
    endloop
  endfacet
  facet normal -1.000000e+000  -0.000000e+000  0.000000e+000
    outer loop
      vertex  3.500000e+001  0.000000e+000  3.000000e+000
      vertex  3.500000e+001 -1.800000e+001  0.000000e+000
      vertex  3.500000e+001 -1.800000e+001  3.000000e+000
    endloop
  endfacet
  facet normal  1.307791e-016 -1.000000e+000  0.000000e+000
    outer loop
      vertex  7.834249e+000 -3.552714e-015  0.000000e+000
      vertex  3.500000e+001  0.000000e+000  0.000000e+000
      vertex  7.834249e+000 -3.552714e-015  3.000000e+000
    endloop
  endfacet
  facet normal  1.307791e-016 -1.000000e+000  0.000000e+000
    outer loop
      vertex  7.834249e+000 -3.552714e-015  3.000000e+000
      vertex  3.500000e+001  0.000000e+000  0.000000e+000
      vertex  3.500000e+001  0.000000e+000  3.000000e+000
    endloop
  endfacet
  facet normal -3.056544e-001 -9.521425e-001  -0.000000e+000
    outer loop
      vertex  7.834249e+000 -3.552714e-015  0.000000e+000
      vertex  7.834249e+000 -3.552714e-015  3.000000e+000
      vertex  6.766619e+000  3.427280e-001  0.000000e+000
    endloop
  endfacet
  facet normal -3.056544e-001 -9.521425e-001  0.000000e+000
    outer loop
      vertex  6.766619e+000  3.427280e-001  0.000000e+000
      vertex  7.834249e+000 -3.552714e-015  3.000000e+000
      vertex  6.766619e+000  3.427280e-001  3.000000e+000
    endloop
  endfacet
  facet normal -8.027406e-001 -5.963284e-001  -0.000000e+000
    outer loop
      vertex  6.766619e+000  3.427280e-001  0.000000e+000
      vertex  6.766619e+000  3.427280e-001  3.000000e+000
      vertex  6.097960e+000  1.242835e+000  0.000000e+000
    endloop
  endfacet
  facet normal -8.027406e-001 -5.963284e-001  0.000000e+000
    outer loop
      vertex  6.097960e+000  1.242835e+000  0.000000e+000
      vertex  6.766619e+000  3.427280e-001  3.000000e+000
      vertex  6.097960e+000  1.242835e+000  3.000000e+000
    endloop
  endfacet
  facet normal -9.998440e-001 -1.766686e-002  -0.000000e+000
    outer loop
      vertex  6.097960e+000  1.242835e+000  0.000000e+000
      vertex  6.097960e+000  1.242835e+000  3.000000e+000
      vertex  6.078150e+000  2.363953e+000  0.000000e+000
    endloop
  endfacet
  facet normal -9.998440e-001 -1.766686e-002  0.000000e+000
    outer loop
      vertex  6.078150e+000  2.363953e+000  0.000000e+000
      vertex  6.097960e+000  1.242835e+000  3.000000e+000
      vertex  6.078150e+000  2.363953e+000  3.000000e+000
    endloop
  endfacet
  facet normal -8.233071e-001  5.675960e-001  0.000000e+000
    outer loop
      vertex  6.078150e+000  2.363953e+000  0.000000e+000
      vertex  6.078150e+000  2.363953e+000  3.000000e+000
      vertex  6.714592e+000  3.287121e+000  0.000000e+000
    endloop
  endfacet
  facet normal -8.233071e-001  5.675960e-001  0.000000e+000
    outer loop
      vertex  6.714592e+000  3.287121e+000  0.000000e+000
      vertex  6.078150e+000  2.363953e+000  3.000000e+000
      vertex  6.714592e+000  3.287121e+000  3.000000e+000
    endloop
  endfacet
  facet normal -9.338796e-001 -3.575879e-001  -0.000000e+000
    outer loop
      vertex  1.081664e+001  1.400007e+001  0.000000e+000
      vertex  9.386238e+000  1.773572e+001  3.000000e+000
      vertex  9.386238e+000  1.773572e+001  0.000000e+000
    endloop
  endfacet
  facet normal -7.442621e-001 -6.678876e-001  0.000000e+000
    outer loop
      vertex  9.386238e+000  1.773572e+001  0.000000e+000
      vertex  9.386238e+000  1.773572e+001  3.000000e+000
      vertex  6.714592e+000  2.071288e+001  3.000000e+000
    endloop
  endfacet
  facet normal -7.442621e-001 -6.678876e-001  -0.000000e+000
    outer loop
      vertex  9.386238e+000  1.773572e+001  0.000000e+000
      vertex  6.714592e+000  2.071288e+001  3.000000e+000
      vertex  6.714592e+000  2.071288e+001  0.000000e+000
    endloop
  endfacet
  facet normal -9.338796e-001 -3.575879e-001  0.000000e+000
    outer loop
      vertex  9.386238e+000  1.773572e+001  3.000000e+000
      vertex  1.081664e+001  1.400007e+001  0.000000e+000
      vertex  1.081664e+001  1.400007e+001  3.000000e+000
    endloop
  endfacet
  facet normal -1.000000e+000  0.000000e+000  -0.000000e+000
    outer loop
      vertex  1.081664e+001  1.400007e+001  3.000000e+000
      vertex  1.081664e+001  1.400007e+001  0.000000e+000
      vertex  1.081664e+001  9.999928e+000  0.000000e+000
    endloop
  endfacet
  facet normal -1.000000e+000  0.000000e+000  0.000000e+000
    outer loop
      vertex  1.081664e+001  1.400007e+001  3.000000e+000
      vertex  1.081664e+001  9.999928e+000  0.000000e+000
      vertex  1.081664e+001  9.999928e+000  3.000000e+000
    endloop
  endfacet
  facet normal -9.338796e-001  3.575878e-001  0.000000e+000
    outer loop
      vertex  1.081664e+001  9.999928e+000  3.000000e+000
      vertex  1.081664e+001  9.999928e+000  0.000000e+000
      vertex  9.386238e+000  6.264276e+000  0.000000e+000
    endloop
  endfacet
  facet normal -9.338796e-001  3.575878e-001  0.000000e+000
    outer loop
      vertex  1.081664e+001  9.999928e+000  3.000000e+000
      vertex  9.386238e+000  6.264276e+000  0.000000e+000
      vertex  9.386238e+000  6.264276e+000  3.000000e+000
    endloop
  endfacet
  facet normal -7.442621e-001  6.678877e-001  0.000000e+000
    outer loop
      vertex  9.386238e+000  6.264276e+000  3.000000e+000
      vertex  9.386238e+000  6.264276e+000  0.000000e+000
      vertex  6.714592e+000  3.287121e+000  0.000000e+000
    endloop
  endfacet
  facet normal -7.442621e-001  6.678877e-001  0.000000e+000
    outer loop
      vertex  9.386238e+000  6.264276e+000  3.000000e+000
      vertex  6.714592e+000  3.287121e+000  0.000000e+000
      vertex  6.714592e+000  3.287121e+000  3.000000e+000
    endloop
  endfacet
  facet normal -3.826822e-001  9.238800e-001  0.000000e+000
    outer loop
      vertex  4.000000e+001  3.750000e+001  0.000000e+000
      vertex  4.106066e+001  3.793934e+001  3.000000e+000
      vertex  4.106066e+001  3.793934e+001  0.000000e+000
    endloop
  endfacet
  facet normal -9.238800e-001  3.826822e-001  0.000000e+000
    outer loop
      vertex  4.106066e+001  3.793934e+001  0.000000e+000
      vertex  4.106066e+001  3.793934e+001  3.000000e+000
      vertex  4.150000e+001  3.900000e+001  3.000000e+000
    endloop
  endfacet
  facet normal -9.238800e-001  3.826822e-001  0.000000e+000
    outer loop
      vertex  4.106066e+001  3.793934e+001  0.000000e+000
      vertex  4.150000e+001  3.900000e+001  3.000000e+000
      vertex  4.150000e+001  3.900000e+001  0.000000e+000
    endloop
  endfacet
  facet normal -3.826822e-001  9.238800e-001  0.000000e+000
    outer loop
      vertex  4.106066e+001  3.793934e+001  3.000000e+000
      vertex  4.000000e+001  3.750000e+001  0.000000e+000
      vertex  4.000000e+001  3.750000e+001  3.000000e+000
    endloop
  endfacet
  facet normal  3.826822e-001  9.238800e-001  0.000000e+000
    outer loop
      vertex  4.000000e+001  3.750000e+001  3.000000e+000
      vertex  4.000000e+001  3.750000e+001  0.000000e+000
      vertex  3.893934e+001  3.793934e+001  0.000000e+000
    endloop
  endfacet
  facet normal  3.826822e-001  9.238800e-001  -0.000000e+000
    outer loop
      vertex  4.000000e+001  3.750000e+001  3.000000e+000
      vertex  3.893934e+001  3.793934e+001  0.000000e+000
      vertex  3.893934e+001  3.793934e+001  3.000000e+000
    endloop
  endfacet
  facet normal  9.238800e-001  3.826822e-001  0.000000e+000
    outer loop
      vertex  3.893934e+001  3.793934e+001  3.000000e+000
      vertex  3.893934e+001  3.793934e+001  0.000000e+000
      vertex  3.850000e+001  3.900000e+001  0.000000e+000
    endloop
  endfacet
  facet normal  9.238800e-001  3.826822e-001  -0.000000e+000
    outer loop
      vertex  3.893934e+001  3.793934e+001  3.000000e+000
      vertex  3.850000e+001  3.900000e+001  0.000000e+000
      vertex  3.850000e+001  3.900000e+001  3.000000e+000
    endloop
  endfacet
  facet normal -3.826836e-001  9.238794e-001  0.000000e+000
    outer loop
      vertex  4.000000e+001 -1.650000e+001  0.000000e+000
      vertex  4.106066e+001 -1.606066e+001  3.000000e+000
      vertex  4.106066e+001 -1.606066e+001  0.000000e+000
    endloop
  endfacet
  facet normal -9.238797e-001  3.826828e-001  0.000000e+000
    outer loop
      vertex  4.106066e+001 -1.606066e+001  0.000000e+000
      vertex  4.106066e+001 -1.606066e+001  3.000000e+000
      vertex  4.150000e+001 -1.500000e+001  3.000000e+000
    endloop
  endfacet
  facet normal -9.238797e-001  3.826828e-001  0.000000e+000
    outer loop
      vertex  4.106066e+001 -1.606066e+001  0.000000e+000
      vertex  4.150000e+001 -1.500000e+001  3.000000e+000
      vertex  4.150000e+001 -1.500000e+001  0.000000e+000
    endloop
  endfacet
  facet normal -3.826836e-001  9.238794e-001  0.000000e+000
    outer loop
      vertex  4.106066e+001 -1.606066e+001  3.000000e+000
      vertex  4.000000e+001 -1.650000e+001  0.000000e+000
      vertex  4.000000e+001 -1.650000e+001  3.000000e+000
    endloop
  endfacet
  facet normal  3.826836e-001  9.238794e-001  0.000000e+000
    outer loop
      vertex  4.000000e+001 -1.650000e+001  3.000000e+000
      vertex  4.000000e+001 -1.650000e+001  0.000000e+000
      vertex  3.893934e+001 -1.606066e+001  0.000000e+000
    endloop
  endfacet
  facet normal  3.826836e-001  9.238794e-001  -0.000000e+000
    outer loop
      vertex  4.000000e+001 -1.650000e+001  3.000000e+000
      vertex  3.893934e+001 -1.606066e+001  0.000000e+000
      vertex  3.893934e+001 -1.606066e+001  3.000000e+000
    endloop
  endfacet
  facet normal  9.238797e-001  3.826828e-001  0.000000e+000
    outer loop
      vertex  3.893934e+001 -1.606066e+001  3.000000e+000
      vertex  3.893934e+001 -1.606066e+001  0.000000e+000
      vertex  3.850000e+001 -1.500000e+001  0.000000e+000
    endloop
  endfacet
  facet normal  9.238797e-001  3.826828e-001  -0.000000e+000
    outer loop
      vertex  3.893934e+001 -1.606066e+001  3.000000e+000
      vertex  3.850000e+001 -1.500000e+001  0.000000e+000
      vertex  3.850000e+001 -1.500000e+001  3.000000e+000
    endloop
  endfacet
  facet normal  3.826829e-001 -9.238797e-001  0.000000e+000
    outer loop
      vertex  4.000000e+001 -1.350000e+001  0.000000e+000
      vertex  3.893934e+001 -1.393934e+001  3.000000e+000
      vertex  3.893934e+001 -1.393934e+001  0.000000e+000
    endloop
  endfacet
  facet normal  9.238799e-001 -3.826825e-001  0.000000e+000
    outer loop
      vertex  3.893934e+001 -1.393934e+001  0.000000e+000
      vertex  3.893934e+001 -1.393934e+001  3.000000e+000
      vertex  3.850000e+001 -1.500000e+001  3.000000e+000
    endloop
  endfacet
  facet normal  9.238799e-001 -3.826825e-001  0.000000e+000
    outer loop
      vertex  3.893934e+001 -1.393934e+001  0.000000e+000
      vertex  3.850000e+001 -1.500000e+001  3.000000e+000
      vertex  3.850000e+001 -1.500000e+001  0.000000e+000
    endloop
  endfacet
  facet normal  3.826829e-001 -9.238797e-001  0.000000e+000
    outer loop
      vertex  3.893934e+001 -1.393934e+001  3.000000e+000
      vertex  4.000000e+001 -1.350000e+001  0.000000e+000
      vertex  4.000000e+001 -1.350000e+001  3.000000e+000
    endloop
  endfacet
  facet normal -3.826829e-001 -9.238797e-001  -0.000000e+000
    outer loop
      vertex  4.000000e+001 -1.350000e+001  3.000000e+000
      vertex  4.000000e+001 -1.350000e+001  0.000000e+000
      vertex  4.106066e+001 -1.393934e+001  0.000000e+000
    endloop
  endfacet
  facet normal -3.826829e-001 -9.238797e-001  0.000000e+000
    outer loop
      vertex  4.000000e+001 -1.350000e+001  3.000000e+000
      vertex  4.106066e+001 -1.393934e+001  0.000000e+000
      vertex  4.106066e+001 -1.393934e+001  3.000000e+000
    endloop
  endfacet
  facet normal -9.238799e-001 -3.826825e-001  -0.000000e+000
    outer loop
      vertex  4.106066e+001 -1.393934e+001  3.000000e+000
      vertex  4.106066e+001 -1.393934e+001  0.000000e+000
      vertex  4.150000e+001 -1.500000e+001  0.000000e+000
    endloop
  endfacet
  facet normal -9.238799e-001 -3.826825e-001  0.000000e+000
    outer loop
      vertex  4.106066e+001 -1.393934e+001  3.000000e+000
      vertex  4.150000e+001 -1.500000e+001  0.000000e+000
      vertex  4.150000e+001 -1.500000e+001  3.000000e+000
    endloop
  endfacet
endsolid CATIA STL
