<?xml version='1.0' encoding='UTF-8' ?>
<!DOCTYPE svg PUBLIC "-//W3C//DTD SVG 1.1//EN" "http://www.w3.org/Graphics/SVG/1.1/DTD/svg11.dtd" [ 
 <!ATTLIST svg 
                                               xmlns:dsy CDATA #FIXED "http://www.3ds.com/print"  
                                               dsy:text-version CDATA #IMPLIED > 

                                               <!ATTLIST text 
                                               xmlns:dsy CDATA #FIXED "http://www.3ds.com/print" 
                                               dsy:text-version CDATA #IMPLIED > 
                                                ]>
<svg style = "background : rgb(255,255,255)" width = "594mm" xmlns = "http://www.w3.org/2000/svg" height = "420mm" version = "1.1" viewBox = "0 0 594 420" xmlns:dsy = "http://www.3ds.com/print" xmlns:xlink = "http://www.w3.org/1999/xlink" dsy:text-version = "21000"><g fill = "none" stroke = "rgb(0, 0, 0)" stroke-width = "0.13" stroke-linecap = "butt" stroke-linejoin = "miter"><path d = "M 157.004 404.301 L 23.7634 404.301"/><path d = "M 135.994 14.6995 L 23.7634 14.6995"/></g><g fill = "none" stroke = "rgb(0, 0, 0)" stroke-width = "0.35" stroke-linecap = "butt" stroke-linejoin = "miter"><path d = "M 179.347 362.293 L 179.347 357.293"/><path d = "M 179.347 362.293 L 174.347 362.293"/><path d = "M 160.725 357.293 L 165.036 357.293"/><path d = "M 165.036 362.293 L 165.036 357.293"/><path d = "M 170.036 362.293 L 165.036 362.293"/><path d = "M 170.036 362.293 L 170.036 357.293"/><path d = "M 170.036 357.293 L 174.347 357.293"/><path d = "M 174.347 362.293 L 174.347 357.293"/><path d = "M 155.725 362.293 L 155.725 357.293"/><path d = "M 160.725 362.293 L 155.725 362.293"/><path d = "M 160.725 362.293 L 160.725 357.293"/><path d = "M 179.347 346.293 L 179.347 341.293"/><path d = "M 179.347 341.293 L 174.347 341.293"/><path d = "M 155.725 346.293 L 155.725 341.293"/><path d = "M 160.725 341.293 L 155.725 341.293"/><path d = "M 160.725 346.293 L 160.725 341.293"/><path d = "M 160.725 346.293 L 165.036 346.293"/><path d = "M 165.036 346.293 L 165.036 341.293"/><path d = "M 170.036 341.293 L 165.036 341.293"/><path d = "M 170.036 346.293 L 170.036 341.293"/><path d = "M 170.036 346.293 L 174.347 346.293"/><path d = "M 174.347 346.293 L 174.347 341.293"/><path d = "M 148.913 357.293 L 148.913 346.293"/><path d = "M 188.286 357.293 L 188.286 346.293"/><path d = "M 179.347 357.293 L 188.286 357.293"/><path d = "M 179.347 346.293 L 188.286 346.293"/><path d = "M 148.913 346.293 L 155.725 346.293"/><path d = "M 148.913 357.293 L 155.725 357.293"/><path d = "M 229.473 236.289 L 257.22 176.784"/><path d = "M 224.473 224.47 L 224.473 229.47"/><path d = "M 224.473 215.151 L 224.473 220.151"/><path d = "M 224.473 205.831 L 224.473 210.831"/><path d = "M 224.473 196.512 L 224.473 201.512"/><path d = "M 137.97272 114.289 A 76 76 0 0 0 170.72516 176.78419"/><path d = "M 224.473 229.47 L 219.473 229.47"/><path d = "M 219.473 224.47 L 219.473 229.47"/><path d = "M 219.473 224.47 L 224.473 224.47"/><path d = "M 224.473 220.151 L 219.473 220.151"/><path d = "M 219.473 215.151 L 219.473 220.151"/><path d = "M 219.473 215.151 L 224.473 215.151"/><path d = "M 224.473 210.831 L 219.473 210.831"/><path d = "M 219.473 205.831 L 219.473 210.831"/><path d = "M 219.473 205.831 L 224.473 205.831"/><path d = "M 224.473 201.512 L 219.473 201.512"/><path d = "M 219.473 196.512 L 219.473 201.512"/><path d = "M 219.473 196.512 L 224.473 196.512"/><path d = "M 257.22028 176.78419 A 76 76 0 0 0 289.97272 114.289"/><path d = "M 289.973 14.289 L 289.973 114.289"/><path d = "M 249.973 14.289 L 289.973 14.289"/><path d = "M 249.973 114.289 L 249.973 14.289"/><path d = "M 177.97272 114.289 A 36 36 0 1 0 249.97272 114.289"/><path d = "M 177.973 14.289 L 177.973 114.289"/><path d = "M 137.973 14.289 L 177.973 14.289"/><path d = "M 137.973 114.289 L 137.973 14.289"/><path d = "M 208.473 201.512 L 203.473 201.512"/><path d = "M 203.473 196.512 L 203.473 201.512"/><path d = "M 203.473 196.512 L 208.473 196.512"/><path d = "M 208.473 196.512 L 208.473 201.512"/><path d = "M 208.473 224.47 L 208.473 229.47"/><path d = "M 208.473 229.47 L 203.473 229.47"/><path d = "M 203.473 224.47 L 203.473 229.47"/><path d = "M 203.473 224.47 L 208.473 224.47"/><path d = "M 208.473 220.151 L 203.473 220.151"/><path d = "M 203.473 215.151 L 203.473 220.151"/><path d = "M 203.473 215.151 L 208.473 215.151"/><path d = "M 208.473 215.151 L 208.473 220.151"/><path d = "M 208.473 205.831 L 208.473 210.831"/><path d = "M 208.473 210.831 L 203.473 210.831"/><path d = "M 203.473 205.831 L 203.473 210.831"/><path d = "M 203.473 205.831 L 208.473 205.831"/><path d = "M 229.473 236.289 L 198.473 236.289"/><path d = "M 198.473 236.289 L 170.725 176.784"/><path d = "M 109.023 312.96 L 109.023 307.96"/><path d = "M 114.023 312.96 L 109.023 312.96"/><path d = "M 135.479 307.96 L 151.936 307.96"/><path d = "M 135.479 312.96 L 135.479 307.96"/><path d = "M 135.479 312.96 L 130.479 312.96"/><path d = "M 130.479 312.96 L 130.479 307.96"/><path d = "M 114.023 307.96 L 130.479 307.96"/><path d = "M 114.023 312.96 L 114.023 307.96"/><path d = "M 242.762 312.96 L 242.762 307.96"/><path d = "M 242.762 312.96 L 237.762 312.96"/><path d = "M 237.762 312.96 L 237.762 307.96"/><path d = "M 221.306 307.96 L 237.762 307.96"/><path d = "M 221.306 312.96 L 221.306 307.96"/><path d = "M 221.306 312.96 L 216.306 312.96"/><path d = "M 216.306 312.96 L 216.306 307.96"/><path d = "M 199.849 307.96 L 216.306 307.96"/><path d = "M 199.849 312.96 L 199.849 307.96"/><path d = "M 199.849 312.96 L 194.849 312.96"/><path d = "M 194.849 312.96 L 194.849 307.96"/><path d = "M 178.392 307.96 L 194.849 307.96"/><path d = "M 178.392 312.96 L 178.392 307.96"/><path d = "M 178.392 312.96 L 173.392 312.96"/><path d = "M 173.392 312.96 L 173.392 307.96"/><path d = "M 156.936 307.96 L 173.392 307.96"/><path d = "M 156.936 312.96 L 156.936 307.96"/><path d = "M 156.936 312.96 L 151.936 312.96"/><path d = "M 151.936 312.96 L 151.936 307.96"/><path d = "M 109.023 296.96 L 109.023 291.96"/><path d = "M 114.023 291.96 L 109.023 291.96"/><path d = "M 114.023 296.96 L 114.023 291.96"/><path d = "M 242.762 296.96 L 242.762 291.96"/><path d = "M 242.762 291.96 L 237.762 291.96"/><path d = "M 237.762 296.96 L 237.762 291.96"/><path d = "M 221.306 296.96 L 237.762 296.96"/><path d = "M 221.306 296.96 L 221.306 291.96"/><path d = "M 221.306 291.96 L 216.306 291.96"/><path d = "M 216.306 296.96 L 216.306 291.96"/><path d = "M 199.849 296.96 L 216.306 296.96"/><path d = "M 199.849 296.96 L 199.849 291.96"/><path d = "M 199.849 291.96 L 194.849 291.96"/><path d = "M 194.849 296.96 L 194.849 291.96"/><path d = "M 178.392 296.96 L 194.849 296.96"/><path d = "M 178.392 296.96 L 178.392 291.96"/><path d = "M 178.392 291.96 L 173.392 291.96"/><path d = "M 173.392 296.96 L 173.392 291.96"/><path d = "M 156.936 296.96 L 173.392 296.96"/><path d = "M 156.936 296.96 L 156.936 291.96"/><path d = "M 156.936 291.96 L 151.936 291.96"/><path d = "M 151.936 296.96 L 151.936 291.96"/><path d = "M 135.479 296.96 L 151.936 296.96"/><path d = "M 135.479 296.96 L 135.479 291.96"/><path d = "M 135.479 291.96 L 130.479 291.96"/><path d = "M 130.479 296.96 L 130.479 291.96"/><path d = "M 114.023 296.96 L 130.479 296.96"/><path d = "M 242.762 307.96 L 261.719 307.96"/><path d = "M 261.719 307.96 L 261.719 296.96"/><path d = "M 242.762 296.96 L 261.719 296.96"/><path d = "M 90.066 296.96 L 109.023 296.96"/><path d = "M 90.066 307.96 L 90.066 296.96"/><path d = "M 90.066 307.96 L 109.023 307.96"/><path d = "M 321.884 211.646 L 321.884 206.646"/><path d = "M 326.884 211.646 L 321.884 211.646"/><path d = "M 326.884 206.646 L 326.884 211.646"/><path d = "M 301.019 197.708 L 301.019 214.219"/><path d = "M 261.01941 254.21866 A 40 40 0 0 0 301.01941 214.21866"/><path d = "M 261.019 254.219 L 148.019 254.219"/><path d = "M 108.01941 214.21866 A 40 40 0 0 0 148.01941 254.21866"/><path d = "M 108.019 214.219 L 108.019 199.835"/><path d = "M 108.019 199.835 L 108.019 59.8351"/><path d = "M 108.019 59.8351 L 78.0194 59.8351"/><path d = "M 78.0194 59.8351 L 78.0194 199.835"/><path d = "M 78.0194 199.835 L 78.0194 234.219"/><path d = "M 78.019394 234.21866 A 50 50 0 0 0 128.01939 284.21866"/><path d = "M 128.019 284.219 L 287.748 284.219"/><path d = "M 287.74823 284.2186 A 59.999939 59.999939 0 0 0 347.74817 224.21864"/><path d = "M 347.748 224.219 L 347.748 197.708"/><path d = "M 321.884 206.646 L 326.884 206.646"/><path d = "M 144.55 271.719 L 139.55 271.719"/><path d = "M 139.55 271.719 L 139.55 266.719"/><path d = "M 144.55 266.719 L 144.55 271.719"/><path d = "M 139.55 266.719 L 144.55 266.719"/><path d = "M 326.884 220.958 L 321.884 220.958"/><path d = "M 321.884 220.958 L 321.884 215.958"/><path d = "M 326.884 215.958 L 326.884 220.958"/><path d = "M 321.884 215.958 L 326.884 215.958"/><path d = "M 326.884 230.269 L 321.884 230.269"/><path d = "M 321.884 230.269 L 321.884 225.269"/><path d = "M 326.884 225.269 L 326.884 230.269"/><path d = "M 321.884 225.269 L 326.884 225.269"/><path d = "M 166.006 271.719 L 161.006 271.719"/><path d = "M 161.006 271.719 L 161.006 266.719"/><path d = "M 166.006 266.719 L 166.006 271.719"/><path d = "M 161.006 266.719 L 166.006 266.719"/><path d = "M 187.463 271.719 L 182.463 271.719"/><path d = "M 182.463 271.719 L 182.463 266.719"/><path d = "M 187.463 266.719 L 187.463 271.719"/><path d = "M 182.463 266.719 L 187.463 266.719"/><path d = "M 208.919 271.719 L 203.919 271.719"/><path d = "M 203.919 271.719 L 203.919 266.719"/><path d = "M 208.919 266.719 L 208.919 271.719"/><path d = "M 203.919 266.719 L 208.919 266.719"/><path d = "M 230.376 271.719 L 225.376 271.719"/><path d = "M 225.376 271.719 L 225.376 266.719"/><path d = "M 230.376 266.719 L 230.376 271.719"/><path d = "M 225.376 266.719 L 230.376 266.719"/><path d = "M 251.833 271.719 L 246.833 271.719"/><path d = "M 246.833 271.719 L 246.833 266.719"/><path d = "M 251.833 266.719 L 251.833 271.719"/><path d = "M 246.833 266.719 L 251.833 266.719"/><path d = "M 273.289 271.719 L 268.289 271.719"/><path d = "M 268.289 271.719 L 268.289 266.719"/><path d = "M 273.289 266.719 L 273.289 271.719"/><path d = "M 268.289 266.719 L 273.289 266.719"/><path d = "M 307.839 197.708 L 301.019 197.708"/><path d = "M 307.839 192.708 L 307.839 197.708"/><path d = "M 307.839 192.708 L 312.839 192.708"/><path d = "M 312.839 197.708 L 312.839 192.708"/><path d = "M 317.158 197.708 L 312.839 197.708"/><path d = "M 317.158 192.708 L 317.158 197.708"/><path d = "M 317.158 192.708 L 322.158 192.708"/><path d = "M 322.158 197.708 L 322.158 192.708"/><path d = "M 326.477 197.708 L 322.158 197.708"/><path d = "M 326.477 192.708 L 326.477 197.708"/><path d = "M 326.477 192.708 L 331.477 192.708"/><path d = "M 331.477 197.708 L 331.477 192.708"/><path d = "M 335.796 197.708 L 331.477 197.708"/><path d = "M 335.796 192.708 L 335.796 197.708"/><path d = "M 335.796 192.708 L 340.796 192.708"/><path d = "M 340.796 197.708 L 340.796 192.708"/><path d = "M 347.748 197.708 L 340.796 197.708"/><path d = "M 281.205 331.728 L 281.205 326.728"/><path d = "M 286.205 331.728 L 281.205 331.728"/><path d = "M 286.205 326.728 L 286.205 331.728"/><path d = "M 260.34 317.789 L 260.34 334.301"/><path d = "M 220.34024 374.3006 A 40.000031 40.000031 0 0 0 260.34027 334.30057"/><path d = "M 220.34 374.301 L 107.34 374.301"/><path d = "M 67.34021 334.3006 A 40.000031 40.000031 0 0 0 107.34024 374.3006"/><path d = "M 67.3402 334.301 L 67.3402 319.917"/><path d = "M 67.3402 319.917 L 67.3402 179.917"/><path d = "M 67.3402 179.917 L 37.3402 179.917"/><path d = "M 37.3402 179.917 L 37.3402 319.917"/><path d = "M 37.3402 319.917 L 37.3402 354.301"/><path d = "M 37.34024 354.3006 A 50 50 0 0 0 87.34024 404.3006"/><path d = "M 87.3402 404.301 L 247.069 404.301"/><path d = "M 247.06906 404.3006 A 60 60 0 0 0 307.06906 344.30057"/><path d = "M 307.069 344.301 L 307.069 317.789"/><path d = "M 281.205 326.728 L 286.205 326.728"/><path d = "M 103.87 391.801 L 98.8704 391.801"/><path d = "M 98.8704 391.801 L 98.8704 386.801"/><path d = "M 103.87 386.801 L 103.87 391.801"/><path d = "M 98.8704 386.801 L 103.87 386.801"/><path d = "M 286.205 341.04 L 281.205 341.04"/><path d = "M 281.205 341.04 L 281.205 336.04"/><path d = "M 286.205 336.04 L 286.205 341.04"/><path d = "M 281.205 336.04 L 286.205 336.04"/><path d = "M 286.205 350.351 L 281.205 350.351"/><path d = "M 281.205 350.351 L 281.205 345.351"/><path d = "M 286.205 345.351 L 286.205 350.351"/><path d = "M 281.205 345.351 L 286.205 345.351"/><path d = "M 125.327 391.801 L 120.327 391.801"/><path d = "M 120.327 391.801 L 120.327 386.801"/><path d = "M 125.327 386.801 L 125.327 391.801"/><path d = "M 120.327 386.801 L 125.327 386.801"/><path d = "M 146.784 391.801 L 141.784 391.801"/><path d = "M 141.784 391.801 L 141.784 386.801"/><path d = "M 146.784 386.801 L 146.784 391.801"/><path d = "M 141.784 386.801 L 146.784 386.801"/><path d = "M 168.24 391.801 L 163.24 391.801"/><path d = "M 163.24 391.801 L 163.24 386.801"/><path d = "M 168.24 386.801 L 168.24 391.801"/><path d = "M 163.24 386.801 L 168.24 386.801"/><path d = "M 189.697 391.801 L 184.697 391.801"/><path d = "M 184.697 391.801 L 184.697 386.801"/><path d = "M 189.697 386.801 L 189.697 391.801"/><path d = "M 184.697 386.801 L 189.697 386.801"/><path d = "M 211.153 391.801 L 206.153 391.801"/><path d = "M 206.153 391.801 L 206.153 386.801"/><path d = "M 211.153 386.801 L 211.153 391.801"/><path d = "M 206.153 386.801 L 211.153 386.801"/><path d = "M 232.61 391.801 L 227.61 391.801"/><path d = "M 227.61 391.801 L 227.61 386.801"/><path d = "M 232.61 386.801 L 232.61 391.801"/><path d = "M 227.61 386.801 L 232.61 386.801"/><path d = "M 267.159 317.789 L 260.34 317.789"/><path d = "M 267.159 312.789 L 267.159 317.789"/><path d = "M 267.159 312.789 L 272.159 312.789"/><path d = "M 272.159 317.789 L 272.159 312.789"/><path d = "M 276.479 317.789 L 272.159 317.789"/><path d = "M 276.479 312.789 L 276.479 317.789"/><path d = "M 276.479 312.789 L 281.479 312.789"/><path d = "M 281.479 317.789 L 281.479 312.789"/><path d = "M 285.798 317.789 L 281.479 317.789"/><path d = "M 285.798 312.789 L 285.798 317.789"/><path d = "M 285.798 312.789 L 290.798 312.789"/><path d = "M 290.798 317.789 L 290.798 312.789"/><path d = "M 295.117 317.789 L 290.798 317.789"/><path d = "M 295.117 312.789 L 295.117 317.789"/><path d = "M 295.117 312.789 L 300.117 312.789"/><path d = "M 300.117 317.789 L 300.117 312.789"/><path d = "M 307.069 317.789 L 300.117 317.789"/><path d = "M 356.45184 142.71561 A 8.0000305 8.0000305 0 0 0 345.42877 151.55716"/><path d = "M 356.45187 142.71561 A 42 42 0 0 0 396.58142 138.9361"/><path d = "M 409.06146 145.56403 A 8.0000305 8.0000305 0 0 0 396.58142 138.93607"/><path d = "M 409.061 145.564 L 409.061 196.054"/><path d = "M 401.06143 204.05424 A 8.0000305 8.0000305 0 0 0 409.06146 196.05421"/><path d = "M 362.029 204.054 L 401.061 204.054"/><path d = "M 354.16937 197.5479 A 8.0000305 8.0000305 0 0 0 362.02872 204.05424"/><path d = "M 345.429 151.557 L 354.169 197.548"/><path d = "M 410.0614 38.926575 A 16 16 0 0 0 394.0614 22.926575"/><path d = "M 394.061 22.9266 L 358.998 22.9266"/><path d = "M 410.061 38.9266 L 410.061 63.4086"/><path d = "M 397.42142 69.925537 A 8.0000305 8.0000305 0 0 0 410.06146 63.408569"/><path d = "M 397.42145 69.925507 A 42 42 0 0 0 352.52481 67.502716"/><path d = "M 340.65948 59.663361 A 8.0000305 8.0000305 0 0 0 352.52481 67.502747"/><path d = "M 343.091 37.2047 L 340.66 59.6634"/><path d = "M 358.99759 22.926575 A 16 16 0 0 0 343.09052 37.204742"/><path d = "M 399.917 248.379 L 376.7 212.73"/><path d = "M 376.70044 212.7301 A 8 8 0 0 0 362.13214 215.6304"/><path d = "M 362.132 215.63 L 355.489 251.279"/><path d = "M 355.48907 251.27882 A 8 8 0 0 0 363.3537 260.74438"/><path d = "M 363.354 260.744 L 393.213 260.744"/><path d = "M 393.21344 260.74438 A 8 8 0 0 0 399.91711 248.37852"/><path d = "M 427.448 222.62291 A 8 8 0 0 0 417.71109 212.25795"/><path d = "M 399.05338 213.26308 A 42.000031 42.000031 0 0 0 417.71112 212.258"/><path d = "M 399.05338 213.26305 A 8 8 0 0 0 390.99234 225.51292"/><path d = "M 405.102 247.177 L 390.992 225.513"/><path d = "M 405.10178 247.17747 A 8 8 0 0 0 419.34589 245.48399"/><path d = "M 419.346 245.484 L 427.448 222.623"/><path d = "M 370.61844 91.77417 A 8 8 0 0 0 362.6604 100.59247"/><path d = "M 362.66 100.592 L 366.131 134.347"/><path d = "M 366.13123 134.34698 A 8 8 0 0 0 379.22372 139.6636"/><path d = "M 423.38824 133.5593 A 42.000031 42.000031 0 0 0 379.22369 139.6636"/><path d = "M 423.38828 133.55933 A 8 8 0 0 0 434.54776 124.89063"/><path d = "M 429.94 98.4031 L 434.548 124.891"/><path d = "M 429.94025 98.403137 A 8 8 0 0 0 422.05859 91.77417"/><path d = "M 370.618 91.7742 L 422.059 91.7742"/></g><g fill = "none" stroke = "rgb(0, 0, 0)" stroke-width = "0.1" stroke-linecap = "butt" stroke-linejoin = "miter"><path d = "M 137.807 14.887 L 138.182 14.887 L 138.182 14.512 L 137.807 14.512 L 137.807 14.887 z" fill = "rgb(0, 0, 0)" stroke = "none" fill-rule = "evenodd"/></g><g fill = "none" stroke = "rgb(0, 0, 0)" stroke-width = "0.1" stroke-linecap = "butt" stroke-linejoin = "miter"><path d = "M 158.816 404.488 L 159.191 404.488 L 159.191 404.113 L 158.816 404.113 L 158.816 404.488 z" fill = "rgb(0, 0, 0)" stroke = "none" fill-rule = "evenodd"/></g><g fill = "none" stroke = "rgb(0, 0, 0)" stroke-width = "0.13" stroke-linecap = "butt" stroke-linejoin = "miter"><path d = "M 22.6639 218.243 L 22.6992 218.243 L 23.1834 218.162 L 23.5465 217.925 L 23.7785 217.552 L 23.8642 217.058 L 23.7785 216.533 L 23.5566 216.14 L 23.2036 215.888 L 22.7497 215.797 L 22.4521 215.837 L 22.21 215.948 L 22.0234 216.13 L 21.8873 216.372 L 21.6149 216.044 L 21.1812 215.928 L 20.7878 216.004 L 20.4903 216.221 L 20.3037 216.574 L 20.2381 217.058 L 20.3188 217.512 L 20.5407 217.86 L 20.8937 218.087 L 21.3628 218.162 L 21.3981 218.162 L 21.3981 217.714 L 21.0753 217.673 L 20.8433 217.542 L 20.7021 217.33 L 20.6517 217.033 L 20.692 216.77 L 20.7979 216.579 L 20.9694 216.463 L 21.2014 216.417 L 21.4485 216.463 L 21.6149 216.584 L 21.7158 216.796 L 21.7461 217.083 L 21.741 217.28 L 22.1394 217.28 L 22.1293 217.033 L 22.1747 216.715 L 22.2958 216.478 L 22.4925 216.337 L 22.7497 216.286 L 23.0422 216.342 L 23.259 216.488 L 23.3952 216.72 L 23.4406 217.028 L 23.3902 217.345 L 23.2389 217.577 L 22.9968 217.724 L 22.6639 217.779 L 22.6639 218.243 L 22.6639 218.243 z M 21.8772 213.861 L 22.0184 214.119 L 22.2151 214.295 L 22.4622 214.406 L 22.7598 214.441 L 23.2086 214.361 L 23.5566 214.129 L 23.7785 213.75 L 23.8642 213.236 L 23.7785 212.727 L 23.5566 212.348 L 23.2086 212.116 L 22.7598 212.031 L 22.4622 212.071 L 22.2151 212.177 L 22.0184 212.359 L 21.8772 212.611 L 21.7561 212.409 L 21.5897 212.268 L 21.388 212.182 L 21.1409 212.152 L 20.7828 212.232 L 20.4953 212.444 L 20.3087 212.787 L 20.2381 213.236 L 20.3087 213.69 L 20.4953 214.033 L 20.7828 214.25 L 21.1409 214.325 L 21.388 214.3 L 21.5897 214.214 L 21.8772 213.861 L 21.8772 213.861 z M 22.7497 213.957 L 22.4824 213.912 L 22.2806 213.766 L 22.1495 213.539 L 22.1041 213.236 L 22.1495 212.939 L 22.2806 212.712 L 22.4824 212.565 L 22.7497 212.515 L 23.0371 212.565 L 23.254 212.712 L 23.3952 212.939 L 23.4406 213.236 L 23.3952 213.539 L 23.254 213.766 L 23.0371 213.912 L 22.7497 213.957 L 22.7497 213.957 z M 21.1812 213.846 L 20.9593 213.806 L 20.7878 213.685 L 20.6819 213.493 L 20.6416 213.236 L 20.6819 212.984 L 20.7878 212.792 L 20.9593 212.671 L 21.1812 212.626 L 21.4082 212.671 L 21.5847 212.792 L 21.7007 212.984 L 21.736 213.236 L 21.6956 213.493 L 21.5847 213.685 L 21.4082 213.806 L 21.1812 213.846 L 21.1812 213.846 z M 22.8959 210.71 L 23.2943 210.635 L 23.602 210.418 L 23.7936 210.075 L 23.8642 209.621 L 23.8289 209.324 L 23.7381 209.056 L 23.5818 208.829 L 23.3599 208.638 L 23.0825 208.486 L 22.7396 208.375 L 22.3462 208.31 L 21.8923 208.285 L 21.1812 208.37 L 20.6618 208.617 L 20.3491 209.011 L 20.2381 209.55 L 20.3289 210.045 L 20.571 210.418 L 20.9442 210.66 L 21.4132 210.741 L 21.8974 210.66 L 22.2655 210.423 L 22.4975 210.07 L 22.5732 209.621 L 22.4773 209.147 L 22.1848 208.789 L 22.7446 208.87 L 23.143 209.031 L 23.3801 209.278 L 23.4557 209.616 L 23.4204 209.878 L 23.3095 210.07 L 23.133 210.196 L 22.8959 210.246 L 22.8959 210.71 L 22.8959 210.71 z M 21.4082 210.251 L 21.0955 210.201 L 20.8484 210.06 L 20.692 209.838 L 20.6365 209.55 L 20.692 209.253 L 20.8484 209.026 L 21.0904 208.885 L 21.4031 208.829 L 21.7208 208.885 L 21.9579 209.026 L 22.1041 209.258 L 22.1546 209.566 L 22.1041 209.843 L 21.9579 210.06 L 21.7259 210.201 L 21.4082 210.251 L 21.4082 210.251 z M 23.7634 206.112 L 23.7634 205.416 L 23.0119 205.416 L 23.0119 206.112 L 23.7634 206.112 L 23.7634 206.112 z M 21.2064 200.818 L 20.7979 200.913 L 20.4953 201.135 L 20.3037 201.478 L 20.2381 201.922 L 20.2734 202.22 L 20.3692 202.477 L 20.5256 202.704 L 20.7475 202.895 L 21.0249 203.047 L 21.3628 203.158 L 21.7612 203.228 L 22.21 203.248 L 22.9262 203.168 L 23.4456 202.921 L 23.7583 202.522 L 23.8642 201.977 L 23.7735 201.488 L 23.5364 201.115 L 23.1632 200.873 L 22.6892 200.787 L 22.21 200.873 L 21.8419 201.105 L 21.6099 201.463 L 21.5292 201.907 L 21.6301 202.386 L 21.9175 202.744 L 21.3628 202.668 L 20.9644 202.507 L 20.7273 202.26 L 20.6466 201.917 L 20.687 201.665 L 20.7929 201.473 L 20.9694 201.347 L 21.2064 201.282 L 21.2064 200.818 L 21.2064 200.818 z M 22.6942 201.276 L 23.0119 201.332 L 23.254 201.473 L 23.4154 201.7 L 23.4658 201.983 L 23.4154 202.28 L 23.259 202.507 L 23.017 202.653 L 22.6992 202.699 L 22.3866 202.648 L 22.1495 202.507 L 21.9982 202.275 L 21.9427 201.962 L 21.9982 201.69 L 22.1445 201.473 L 22.3815 201.332 L 22.6942 201.276 L 22.6942 201.276 z" fill = "rgb(0, 0, 0)" stroke = "none" fill-rule = "nonzero"/><path d = "M 25.2457 402.369 L 25.7634 404.301 L 26.281 402.369"/><path d = "M 26.281 16.6313 L 25.7634 14.6995 L 25.2457 16.6313"/><path d = "M 25.7634 404.301 L 25.7634 14.6995"/></g></svg>
