<?xml version="1.0" encoding="utf-8" ?><!DOCTYPE svg PUBLIC "-//W3C//DTD SVG 1.1//EN" "http://www.w3.org/Graphics/SVG/1.1/DTD/svg11.dtd" 
[ <!ATTLIST svg 
  xmlns:dsy CDATA #FIXED "http://www.3ds.com/print"  
    dsy:text-version CDATA #IMPLIED > 

  <!ATTLIST text 
  xmlns:dsy CDATA #FIXED "http://www.3ds.com/print" 
    dsy:text-version CDATA #IMPLIED > 
]><svg xmlns="http://www.w3.org/2000/svg" xmlns:dsy="http://www.3ds.com/print" dsy:text-version="18000" width="297" height="210" viewBox="0 0 297 210" version="1.1"><g stroke="rgb(0, 0, 0)" stroke-width="0.35" stroke-linecap="butt" stroke-linejoin="miter" fill="none"><path d="M 14.4559 40.4875 A 18.535 7.5 -236.153 0 0 28.9059 28.1346"/><path d="M 28.9059 28.1346 A 10 10 0 0 0 36.3302 17.5774"/><path d="M 14.4559 40.4875 L 18.6101 64.2109"/><path d="M 18.6101 64.2109 A 16 16 0 1 0 49.8928 57.5713"/><path d="M 49.8928 57.5713 L 39.7674 17.062"/><path d="M 39.7674 17.062 A 0.5 0.5 0 0 0 39.2118 16.6882"/><path d="M 39.2118 16.6882 L 36.7576 17.0381"/><path d="M 36.7576 17.0381 A 0.5 0.5 0 0 0 36.3302 17.5774"/><circle cx="34.3703" cy="61.4511" r="7.5"/><path d="M 102.564 33.1152 L 100.918 33.1152"/><path d="M 103.057 33.7014 A 0.5 0.5 0 0 0 102.564 33.1152"/><path d="M 103.057 33.7014 L 97.463 65.6466"/><path d="M 66.1804 59.007 A 16 16 0 1 0 97.463 65.6466"/><path d="M 66.1804 59.0069 L 76.3057 18.4977"/><path d="M 76.8614 18.1239 A 0.5 0.5 0 0 0 76.3057 18.4977"/><path d="M 76.8614 18.1239 L 79.3155 18.4738"/><path d="M 79.743 19.013 A 0.5 0.5 0 0 0 79.3155 18.4738"/><path d="M 79.743 19.013 A 9.99999 9.99999 0 0 0 88.3002 29.7984"/><path d="M 88.3002 29.7984 L 88.305 29.7991"/><path d="M 88.7336 29.9948 A 0.817844 0.817844 0 0 0 88.305 29.7995"/><path d="M 88.7332 29.9952 A 18.5348 7.49995 -303.847 0 0 97.0922 34.4411"/><path d="M 97.0922 34.4411 A 18.519 7.4967 -303.85 0 0 99.5779 33.4715"/><path d="M 100.918 33.1152 L 100.255 33.1839 L 99.9582 33.2642 L 99.7159 33.3698 L 99.5779 33.4715"/><circle cx="81.7029" cy="62.8868" r="7.49999"/><path d="M 195.919 15.8479 L 199.3 16.33"/><path d="M 199.3 16.33 A 10 10 0 0 0 206.551 27.3259"/><path d="M 206.856 27.5666 A 0.5 0.5 0 0 0 206.551 27.3259"/><path d="M 206.856 27.5666 A 11.5294 11.5294 0 0 0 208.276 29.5929"/><path d="M 208.276 29.5929 A 11.5076 11.5076 0 0 0 209.017 30.8666"/><path d="M 209.017 30.8666 A 9.30771 7.49969 -303.85 0 0 216.845 35.476"/><path d="M 216.845 35.476 A 9.31096 7.50133 -303.835 0 0 220.023 34.6697"/><path d="M 217.119 62.3443 L 220.023 34.6697"/><path d="M 185.684 56.7946 A 16 16 0 1 0 217.119 62.3443"/><path d="M 195.919 15.8479 L 185.684 56.7946"/><circle cx="201.206" cy="60.6745" r="7.5"/><path d="M 129.616 64.3413 A 16 16 0 1 0 161.051 58.7917"/><path d="M 140.184 29.3229 A 10 10 0 0 0 147.488 18.7978"/><path d="M 140.184 29.3229 A 0.5 0.5 0 0 0 139.878 29.5637"/><circle cx="145.528" cy="62.6715" r="7.5"/><path d="M 147.916 18.2585 A 0.5 0.5 0 0 0 147.488 18.7978"/><path d="M 150.926 18.2824 L 161.051 58.7917"/><path d="M 150.37 17.9086 L 147.916 18.2585"/><path d="M 150.926 18.2824 A 0.5 0.5 0 0 0 150.37 17.9086"/><path d="M 131.527 35.0312 A 9.30737 7.49934 -236.146 0 0 138.459 31.59"/><path d="M 127.25 33.4333 A 9.31329 7.50226 -236.171 0 0 131.527 35.0313"/><path d="M 127.25 33.4333 A 0.5 0.5 0 0 0 126.417 33.8561"/><path d="M 129.616 64.3413 L 126.417 33.8561"/><path d="M 139.356 30.4215 A 11.5317 11.5317 0 0 0 139.878 29.5637"/><path d="M 138.459 31.59 A 11.5074 11.5074 0 0 0 139.356 30.4214"/><path d="M 22.7308 133.995 A 9.61164 7.50588 -236.125 0 0 24.6406 128.973"/><path d="M 17.3865 138.322 A 9.60673 7.49926 -236.147 0 0 22.7308 133.995"/><path d="M 33.6557 117.658 L 36.1348 117.304"/><path d="M 24.6406 128.973 A 10 10 0 0 0 33.6558 117.658"/><circle cx="32.4298" cy="154.029" r="5.25"/><path d="M 44.5567 150.998 L 36.1348 117.304"/><path d="M 20.073 155.916 A 12.5 12.5 0 1 0 44.5567 150.998"/><path d="M 17.3865 138.322 L 20.073 155.916"/><path d="M 78.9834 132.287 A 9.60693 7.49949 -303.851 0 0 86.4444 137.089"/><path d="M 77.6818 129.747 A 12.1195 12.1195 0 0 0 78.9835 132.286"/><path d="M 69.8416 118.608 L 67.3626 118.255"/><path d="M 69.8416 118.608 A 10 10 0 0 0 77.6819 129.747"/><circle cx="71.0676" cy="154.98" r="5.25"/><path d="M 58.9407 151.949 L 67.3626 118.255"/><path d="M 58.9407 151.949 A 12.5 12.5 0 1 0 83.4244 156.867"/><path d="M 86.4444 137.089 L 83.4244 156.867"/><path d="M 131.174 134.677 A 15.4658 7.49507 -236.135 0 0 133.231 134.342"/><path d="M 127.974 133.224 A 15.4998 7.50516 -236.158 0 0 131.174 134.677"/><path d="M 131.463 161.104 L 127.974 133.224"/><path d="M 147.572 122.826 L 155.994 156.52"/><path d="M 145.093 123.18 L 147.572 122.826"/><path d="M 133.231 134.342 A 10 10 0 0 0 145.093 123.18"/><circle cx="143.867" cy="159.551" r="5.25"/><path d="M 131.463 161.104 A 12.5 12.5 0 1 0 155.994 156.52"/><path d="M 191.358 125.038 A 10 10 0 0 0 203.312 134.845"/><path d="M 199.126 134.786 A 15.4784 7.49994 -303.847 0 0 207.666 140.938"/><path d="M 205.08 161.607 L 207.667 140.938"/><path d="M 188.971 123.33 L 180.549 157.024"/><path d="M 191.45 123.683 L 188.971 123.33"/><path d="M 191.45 123.683 A 10 10 0 0 0 191.358 125.038"/><circle cx="192.676" cy="160.055" r="5.25"/><path d="M 180.549 157.024 A 12.5 12.5 0 1 0 205.08 161.607"/></g><g stroke="rgb(0, 0, 0)" stroke-width="0.13" stroke-linecap="butt" stroke-linejoin="miter" fill="none"><path d="M 20.661 44.2345 L 19.496 44.2345 L 19.496 47.7345 L 20.661 47.7345 L 21.2107 47.6236 L 21.6192 47.2857 L 21.8714 46.736 L 21.9622 45.9845 L 21.8815 45.218 L 21.7806 44.9154 L 21.6394 44.6733 L 21.2309 44.3455 L 20.9636 44.2648 L 20.661 44.2345 L 20.661 44.2345 z M 20.6257 44.6531 L 21.009 44.7288 L 21.2712 44.9608 L 21.4276 45.3743 L 21.478 45.9845 L 21.4225 46.5746 L 21.2662 46.9881 L 20.9989 47.2352 L 20.6257 47.3159 L 19.965 47.3159 L 19.965 44.6531 L 20.6257 44.6531 L 20.6257 44.6531 z M 23.4701 47.7345 L 23.9341 47.7345 L 23.9341 44.6582 L 24.9931 44.6582 L 24.9931 44.2345 L 22.406 44.2345 L 22.406 44.6582 L 23.4701 44.6582 L 23.4701 47.7345 L 23.4701 47.7345 z M 25.2201 48.5717 L 25.2201 48.9247 L 28.2561 48.9247 L 28.2561 48.5717 L 25.2201 48.5717 L 25.2201 48.5717 z M 28.7503 47.7345 L 30.9996 47.7345 L 30.9996 47.3109 L 29.2143 47.3109 L 29.2143 44.2345 L 28.7503 44.2345 L 28.7503 47.7345 L 28.7503 47.7345 z M 31.7864 47.7345 L 34.0356 47.7345 L 34.0356 47.3109 L 32.2503 47.3109 L 32.2503 44.2345 L 31.7864 44.2345 L 31.7864 47.7345 L 31.7864 47.7345 z M 34.3282 48.5717 L 34.3282 48.9247 L 37.3642 48.9247 L 37.3642 48.5717 L 34.3282 48.5717 L 34.3282 48.5717 z M 37.8584 47.7345 L 40.1077 47.7345 L 40.1077 47.3109 L 38.3224 47.3109 L 38.3224 44.2345 L 37.8584 44.2345 L 37.8584 47.7345 L 37.8584 47.7345 z" stroke="none" fill-rule="evenodd" fill="rgb(0, 0, 0)"/></g><g stroke="rgb(0, 0, 0)" stroke-width="0.13" stroke-linecap="butt" stroke-linejoin="miter" fill="none"><path d="M 78.4381 45.6702 L 77.2731 45.6702 L 77.2731 49.1702 L 78.4381 49.1702 L 78.9878 49.0593 L 79.3963 48.7214 L 79.6485 48.1716 L 79.7392 47.4202 L 79.6585 46.6536 L 79.5577 46.351 L 79.4165 46.109 L 79.008 45.7812 L 78.7407 45.7005 L 78.4381 45.6702 L 78.4381 45.6702 z M 78.4028 46.0888 L 78.7861 46.1644 L 79.0483 46.3964 L 79.2047 46.81 L 79.2551 47.4202 L 79.1996 48.0103 L 79.0433 48.4238 L 78.776 48.6709 L 78.4028 48.7516 L 77.7421 48.7516 L 77.7421 46.0888 L 78.4028 46.0888 L 78.4028 46.0888 z M 81.2472 49.1702 L 81.7111 49.1702 L 81.7111 46.0938 L 82.7702 46.0938 L 82.7702 45.6702 L 80.183 45.6702 L 80.183 46.0938 L 81.2472 46.0938 L 81.2472 49.1702 L 81.2472 49.1702 z M 82.9972 50.0074 L 82.9972 50.3604 L 86.0332 50.3604 L 86.0332 50.0074 L 82.9972 50.0074 L 82.9972 50.0074 z M 86.5274 49.1702 L 88.7767 49.1702 L 88.7767 48.7466 L 86.9914 48.7466 L 86.9914 45.6702 L 86.5274 45.6702 L 86.5274 49.1702 L 86.5274 49.1702 z M 89.5635 49.1702 L 91.8127 49.1702 L 91.8127 48.7466 L 90.0274 48.7466 L 90.0274 45.6702 L 89.5635 45.6702 L 89.5635 49.1702 L 89.5635 49.1702 z M 92.1052 50.0074 L 92.1052 50.3604 L 95.1413 50.3604 L 95.1413 50.0074 L 92.1052 50.0074 L 92.1052 50.0074 z M 95.5346 49.1702 L 96.0037 49.1702 L 96.0037 47.6926 L 96.4828 47.6926 L 96.8358 47.7077 L 97.0577 47.7783 L 97.1787 47.9447 L 97.2292 48.2423 L 97.2544 48.6962 L 97.2846 48.9937 L 97.3452 49.1702 L 97.8747 49.1702 L 97.8747 49.0744 L 97.7587 48.9332 L 97.7184 48.6709 L 97.6831 48.1061 L 97.5973 47.6875 L 97.4813 47.5564 L 97.2998 47.4606 L 97.5015 47.3345 L 97.6427 47.158 L 97.7335 46.9361 L 97.7637 46.6688 L 97.6931 46.2451 L 97.4914 45.9274 L 97.1586 45.7358 L 96.7047 45.6702 L 95.5346 45.6702 L 95.5346 49.1702 L 95.5346 49.1702 z M 96.5735 46.0989 L 96.8812 46.1292 L 97.098 46.225 L 97.2342 46.4015 L 97.2796 46.6789 L 97.2292 46.9714 L 97.093 47.1479 L 96.861 47.2387 L 96.5433 47.2639 L 96.0037 47.2639 L 96.0037 46.0989 L 96.5735 46.0989 L 96.5735 46.0989 z" stroke="none" fill-rule="evenodd" fill="rgb(0, 0, 0)"/></g><g stroke="rgb(0, 0, 0)" stroke-width="0.13" stroke-linecap="butt" stroke-linejoin="miter" fill="none"><path d="M 192.942 44.4579 L 191.777 44.4579 L 191.777 47.9579 L 192.942 47.9579 L 193.491 47.8469 L 193.9 47.509 L 194.152 46.9593 L 194.243 46.2079 L 194.162 45.4413 L 194.061 45.1387 L 193.92 44.8966 L 193.511 44.5688 L 193.244 44.4881 L 192.942 44.4579 L 192.942 44.4579 z M 192.906 44.8765 L 193.29 44.9521 L 193.552 45.1841 L 193.708 45.5976 L 193.759 46.2079 L 193.703 46.7979 L 193.547 47.2115 L 193.279 47.4586 L 192.906 47.5393 L 192.246 47.5393 L 192.246 44.8765 L 192.906 44.8765 L 192.906 44.8765 z M 195.751 47.9579 L 196.215 47.9579 L 196.215 44.8815 L 197.274 44.8815 L 197.274 44.4579 L 194.687 44.4579 L 194.687 44.8815 L 195.751 44.8815 L 195.751 47.9579 L 195.751 47.9579 z M 197.501 48.795 L 197.501 49.1481 L 200.537 49.1481 L 200.537 48.795 L 197.501 48.795 L 197.501 48.795 z M 201.031 47.9579 L 203.28 47.9579 L 203.28 47.5342 L 201.495 47.5342 L 201.495 44.4579 L 201.031 44.4579 L 201.031 47.9579 L 201.031 47.9579 z M 203.966 47.9579 L 204.435 47.9579 L 204.435 46.4802 L 204.914 46.4802 L 205.267 46.4953 L 205.489 46.5659 L 205.61 46.7324 L 205.661 47.0299 L 205.686 47.4838 L 205.716 47.7814 L 205.777 47.9579 L 206.306 47.9579 L 206.306 47.862 L 206.19 47.7208 L 206.15 47.4586 L 206.115 46.8938 L 206.029 46.4752 L 205.913 46.344 L 205.731 46.2482 L 205.933 46.1221 L 206.074 45.9456 L 206.165 45.7237 L 206.195 45.4564 L 206.125 45.0328 L 205.923 44.7151 L 205.59 44.5234 L 205.136 44.4579 L 203.966 44.4579 L 203.966 47.9579 L 203.966 47.9579 z M 205.005 44.8866 L 205.313 44.9168 L 205.529 45.0126 L 205.666 45.1891 L 205.711 45.4665 L 205.661 45.759 L 205.524 45.9355 L 205.292 46.0263 L 204.975 46.0515 L 204.435 46.0515 L 204.435 44.8866 L 205.005 44.8866 L 205.005 44.8866 z M 206.609 48.795 L 206.609 49.1481 L 209.645 49.1481 L 209.645 48.795 L 206.609 48.795 L 206.609 48.795 z M 210.038 47.9579 L 210.507 47.9579 L 210.507 46.4802 L 210.986 46.4802 L 211.339 46.4953 L 211.561 46.5659 L 211.682 46.7324 L 211.733 47.0299 L 211.758 47.4838 L 211.788 47.7814 L 211.849 47.9579 L 212.378 47.9579 L 212.378 47.862 L 212.262 47.7208 L 212.222 47.4586 L 212.187 46.8938 L 212.101 46.4752 L 211.985 46.344 L 211.803 46.2482 L 212.005 46.1221 L 212.146 45.9456 L 212.237 45.7237 L 212.267 45.4564 L 212.197 45.0328 L 211.995 44.7151 L 211.662 44.5234 L 211.208 44.4579 L 210.038 44.4579 L 210.038 47.9579 L 210.038 47.9579 z M 211.077 44.8866 L 211.385 44.9168 L 211.602 45.0126 L 211.738 45.1891 L 211.783 45.4665 L 211.733 45.759 L 211.596 45.9355 L 211.365 46.0263 L 211.047 46.0515 L 210.507 46.0515 L 210.507 44.8866 L 211.077 44.8866 L 211.077 44.8866 z" stroke="none" fill-rule="evenodd" fill="rgb(0, 0, 0)"/></g><g stroke="rgb(0, 0, 0)" stroke-width="0.13" stroke-linecap="butt" stroke-linejoin="miter" fill="none"><path d="M 134.819 40.4549 L 133.654 40.4549 L 133.654 43.9549 L 134.819 43.9549 L 135.369 43.844 L 135.777 43.5061 L 136.029 42.9564 L 136.12 42.2049 L 136.04 41.4384 L 135.939 41.1358 L 135.798 40.8937 L 135.389 40.5659 L 135.122 40.4852 L 134.819 40.4549 L 134.819 40.4549 z M 134.784 40.8735 L 135.167 40.9492 L 135.429 41.1812 L 135.586 41.5947 L 135.636 42.2049 L 135.581 42.795 L 135.424 43.2085 L 135.157 43.4556 L 134.784 43.5363 L 134.123 43.5363 L 134.123 40.8735 L 134.784 40.8735 L 134.784 40.8735 z M 137.628 43.9549 L 138.092 43.9549 L 138.092 40.8786 L 139.151 40.8786 L 139.151 40.4549 L 136.564 40.4549 L 136.564 40.8786 L 137.628 40.8786 L 137.628 43.9549 L 137.628 43.9549 z M 139.378 44.7921 L 139.378 45.1451 L 142.414 45.1451 L 142.414 44.7921 L 139.378 44.7921 L 139.378 44.7921 z M 142.908 43.9549 L 145.158 43.9549 L 145.158 43.5313 L 143.372 43.5313 L 143.372 40.4549 L 142.908 40.4549 L 142.908 43.9549 L 142.908 43.9549 z M 145.844 43.9549 L 146.313 43.9549 L 146.313 42.4773 L 146.792 42.4773 L 147.145 42.4924 L 147.367 42.563 L 147.488 42.7294 L 147.538 43.027 L 147.563 43.4809 L 147.594 43.7784 L 147.654 43.9549 L 148.184 43.9549 L 148.184 43.8591 L 148.068 43.7179 L 148.027 43.4556 L 147.992 42.8908 L 147.906 42.4722 L 147.79 42.3411 L 147.609 42.2453 L 147.81 42.1192 L 147.952 41.9427 L 148.042 41.7208 L 148.073 41.4535 L 148.002 41.0299 L 147.8 40.7121 L 147.468 40.5205 L 147.014 40.4549 L 145.844 40.4549 L 145.844 43.9549 L 145.844 43.9549 z M 146.883 40.8836 L 147.19 40.9139 L 147.407 41.0097 L 147.543 41.1862 L 147.589 41.4636 L 147.538 41.7561 L 147.402 41.9326 L 147.17 42.0234 L 146.852 42.0486 L 146.313 42.0486 L 146.313 40.8836 L 146.883 40.8836 L 146.883 40.8836 z M 148.486 44.7921 L 148.486 45.1451 L 151.522 45.1451 L 151.522 44.7921 L 148.486 44.7921 L 148.486 44.7921 z M 152.017 43.9549 L 154.266 43.9549 L 154.266 43.5313 L 152.481 43.5313 L 152.481 40.4549 L 152.017 40.4549 L 152.017 43.9549 L 152.017 43.9549 z" stroke="none" fill-rule="evenodd" fill="rgb(0, 0, 0)"/></g><g stroke="rgb(0, 0, 0)" stroke-width="0.13" stroke-linecap="butt" stroke-linejoin="miter" fill="none"><path d="M 21.0396 139.785 L 19.8746 139.785 L 19.8746 143.285 L 21.0396 143.285 L 21.5893 143.174 L 21.9978 142.837 L 22.25 142.287 L 22.3408 141.535 L 22.2601 140.769 L 22.1592 140.466 L 22.018 140.224 L 21.6095 139.896 L 21.3422 139.816 L 21.0396 139.785 L 21.0396 139.785 z M 21.0043 140.204 L 21.3876 140.28 L 21.6499 140.512 L 21.8062 140.925 L 21.8566 141.535 L 21.8012 142.125 L 21.6448 142.539 L 21.3775 142.786 L 21.0043 142.867 L 20.3437 142.867 L 20.3437 140.204 L 21.0043 140.204 L 21.0043 140.204 z M 23.8487 143.285 L 24.3127 143.285 L 24.3127 140.209 L 25.3718 140.209 L 25.3718 139.785 L 22.7846 139.785 L 22.7846 140.209 L 23.8487 140.209 L 23.8487 143.285 L 23.8487 143.285 z M 25.5987 144.123 L 25.5987 144.476 L 28.6347 144.476 L 28.6347 144.123 L 25.5987 144.123 L 25.5987 144.123 z M 29.0281 143.285 L 29.4971 143.285 L 29.4971 141.808 L 29.9762 141.808 L 30.3293 141.823 L 30.5512 141.893 L 30.6722 142.06 L 30.7226 142.357 L 30.7478 142.811 L 30.7781 143.109 L 30.8386 143.285 L 31.3682 143.285 L 31.3682 143.19 L 31.2522 143.048 L 31.2118 142.786 L 31.1765 142.221 L 31.0908 141.803 L 30.9748 141.672 L 30.7932 141.576 L 30.995 141.45 L 31.1362 141.273 L 31.2269 141.051 L 31.2572 140.784 L 31.1866 140.36 L 30.9849 140.043 L 30.652 139.851 L 30.1981 139.785 L 29.0281 139.785 L 29.0281 143.285 L 29.0281 143.285 z M 30.067 140.214 L 30.3746 140.244 L 30.5915 140.34 L 30.7277 140.517 L 30.7731 140.794 L 30.7226 141.087 L 30.5865 141.263 L 30.3545 141.354 L 30.0367 141.379 L 29.4971 141.379 L 29.4971 140.214 L 30.067 140.214 L 30.067 140.214 z M 32.165 143.285 L 34.4143 143.285 L 34.4143 142.862 L 32.629 142.862 L 32.629 139.785 L 32.165 139.785 L 32.165 143.285 L 32.165 143.285 z M 34.7068 144.123 L 34.7068 144.476 L 37.7428 144.476 L 37.7428 144.123 L 34.7068 144.123 L 34.7068 144.123 z M 38.237 143.285 L 40.4863 143.285 L 40.4863 142.862 L 38.701 142.862 L 38.701 139.785 L 38.237 139.785 L 38.237 143.285 L 38.237 143.285 z" stroke="none" fill-rule="evenodd" fill="rgb(0, 0, 0)"/></g><g stroke="rgb(0, 0, 0)" stroke-width="0.13" stroke-linecap="butt" stroke-linejoin="miter" fill="none"><path d="M 64.4837 140.736 L 63.3187 140.736 L 63.3187 144.236 L 64.4837 144.236 L 65.0334 144.125 L 65.4419 143.787 L 65.6941 143.237 L 65.7849 142.486 L 65.7042 141.719 L 65.6033 141.417 L 65.4621 141.175 L 65.0536 140.847 L 64.7863 140.766 L 64.4837 140.736 L 64.4837 140.736 z M 64.4484 141.155 L 64.8317 141.23 L 65.0939 141.462 L 65.2503 141.876 L 65.3007 142.486 L 65.2452 143.076 L 65.0889 143.49 L 64.8216 143.737 L 64.4484 143.817 L 63.7877 143.817 L 63.7877 141.155 L 64.4484 141.155 L 64.4484 141.155 z M 67.2928 144.236 L 67.7568 144.236 L 67.7568 141.16 L 68.8158 141.16 L 68.8158 140.736 L 66.2287 140.736 L 66.2287 141.16 L 67.2928 141.16 L 67.2928 144.236 L 67.2928 144.236 z M 69.0428 145.073 L 69.0428 145.426 L 72.0788 145.426 L 72.0788 145.073 L 69.0428 145.073 L 69.0428 145.073 z M 72.4722 144.236 L 72.9412 144.236 L 72.9412 142.758 L 73.4203 142.758 L 73.7733 142.773 L 73.9952 142.844 L 74.1163 143.01 L 74.1667 143.308 L 74.1919 143.762 L 74.2222 144.059 L 74.2827 144.236 L 74.8122 144.236 L 74.8122 144.14 L 74.6962 143.999 L 74.6559 143.737 L 74.6206 143.172 L 74.5349 142.753 L 74.4189 142.622 L 74.2373 142.526 L 74.439 142.4 L 74.5802 142.224 L 74.671 142.002 L 74.7013 141.735 L 74.6307 141.311 L 74.4289 140.993 L 74.0961 140.802 L 73.6422 140.736 L 72.4722 140.736 L 72.4722 144.236 L 72.4722 144.236 z M 73.5111 141.165 L 73.8187 141.195 L 74.0356 141.291 L 74.1717 141.467 L 74.2171 141.745 L 74.1667 142.037 L 74.0305 142.214 L 73.7985 142.304 L 73.4808 142.33 L 72.9412 142.33 L 72.9412 141.165 L 73.5111 141.165 L 73.5111 141.165 z M 75.6091 144.236 L 77.8584 144.236 L 77.8584 143.812 L 76.073 143.812 L 76.073 140.736 L 75.6091 140.736 L 75.6091 144.236 L 75.6091 144.236 z M 78.1509 145.073 L 78.1509 145.426 L 81.1869 145.426 L 81.1869 145.073 L 78.1509 145.073 L 78.1509 145.073 z M 81.5803 144.236 L 82.0493 144.236 L 82.0493 142.758 L 82.5284 142.758 L 82.8814 142.773 L 83.1033 142.844 L 83.2243 143.01 L 83.2748 143.308 L 83.3 143.762 L 83.3303 144.059 L 83.3908 144.236 L 83.9203 144.236 L 83.9203 144.14 L 83.8043 143.999 L 83.764 143.737 L 83.7287 143.172 L 83.6429 142.753 L 83.5269 142.622 L 83.3454 142.526 L 83.5471 142.4 L 83.6883 142.224 L 83.7791 142.002 L 83.8094 141.735 L 83.7388 141.311 L 83.537 140.993 L 83.2042 140.802 L 82.7503 140.736 L 81.5803 140.736 L 81.5803 144.236 L 81.5803 144.236 z M 82.6192 141.165 L 82.9268 141.195 L 83.1437 141.291 L 83.2798 141.467 L 83.3252 141.745 L 83.2748 142.037 L 83.1386 142.214 L 82.9066 142.304 L 82.5889 142.33 L 82.0493 142.33 L 82.0493 141.165 L 82.6192 141.165 L 82.6192 141.165 z" stroke="none" fill-rule="evenodd" fill="rgb(0, 0, 0)"/></g><g stroke="rgb(0, 0, 0)" stroke-width="0.13" stroke-linecap="butt" stroke-linejoin="miter" fill="none"><path d="M 133.477 145.307 L 132.312 145.307 L 132.312 148.807 L 133.477 148.807 L 134.026 148.696 L 134.435 148.359 L 134.687 147.809 L 134.778 147.057 L 134.697 146.291 L 134.596 145.988 L 134.455 145.746 L 134.046 145.418 L 133.779 145.338 L 133.477 145.307 L 133.477 145.307 z M 133.441 145.726 L 133.825 145.802 L 134.087 146.034 L 134.243 146.447 L 134.294 147.057 L 134.238 147.647 L 134.082 148.061 L 133.814 148.308 L 133.441 148.389 L 132.781 148.389 L 132.781 145.726 L 133.441 145.726 L 133.441 145.726 z M 136.286 148.807 L 136.75 148.807 L 136.75 145.731 L 137.809 145.731 L 137.809 145.307 L 135.222 145.307 L 135.222 145.731 L 136.286 145.731 L 136.286 148.807 L 136.286 148.807 z M 138.036 149.645 L 138.036 149.998 L 141.072 149.998 L 141.072 149.645 L 138.036 149.645 L 138.036 149.645 z M 141.465 148.807 L 141.934 148.807 L 141.934 147.33 L 142.413 147.33 L 142.766 147.345 L 142.988 147.415 L 143.109 147.582 L 143.16 147.879 L 143.185 148.333 L 143.215 148.631 L 143.276 148.807 L 143.805 148.807 L 143.805 148.712 L 143.689 148.57 L 143.649 148.308 L 143.613 147.743 L 143.528 147.325 L 143.412 147.194 L 143.23 147.098 L 143.432 146.972 L 143.573 146.795 L 143.664 146.573 L 143.694 146.306 L 143.624 145.882 L 143.422 145.565 L 143.089 145.373 L 142.635 145.307 L 141.465 145.307 L 141.465 148.807 L 141.465 148.807 z M 142.504 145.736 L 142.812 145.766 L 143.028 145.862 L 143.165 146.039 L 143.21 146.316 L 143.16 146.609 L 143.023 146.785 L 142.791 146.876 L 142.474 146.901 L 141.934 146.901 L 141.934 145.736 L 142.504 145.736 L 142.504 145.736 z M 144.501 148.807 L 144.97 148.807 L 144.97 147.33 L 145.449 147.33 L 145.802 147.345 L 146.024 147.415 L 146.145 147.582 L 146.196 147.879 L 146.221 148.333 L 146.251 148.631 L 146.312 148.807 L 146.841 148.807 L 146.841 148.712 L 146.725 148.57 L 146.685 148.308 L 146.649 147.743 L 146.564 147.325 L 146.448 147.194 L 146.266 147.098 L 146.468 146.972 L 146.609 146.795 L 146.7 146.573 L 146.73 146.306 L 146.66 145.882 L 146.458 145.565 L 146.125 145.373 L 145.671 145.307 L 144.501 145.307 L 144.501 148.807 L 144.501 148.807 z M 145.54 145.736 L 145.848 145.766 L 146.064 145.862 L 146.201 146.039 L 146.246 146.316 L 146.196 146.609 L 146.059 146.785 L 145.827 146.876 L 145.51 146.901 L 144.97 146.901 L 144.97 145.736 L 145.54 145.736 L 145.54 145.736 z M 147.144 149.645 L 147.144 149.998 L 150.18 149.998 L 150.18 149.645 L 147.144 149.645 L 147.144 149.645 z M 150.674 148.807 L 152.923 148.807 L 152.923 148.384 L 151.138 148.384 L 151.138 145.307 L 150.674 145.307 L 150.674 148.807 L 150.674 148.807 z" stroke="none" fill-rule="evenodd" fill="rgb(0, 0, 0)"/></g><g stroke="rgb(0, 0, 0)" stroke-width="0.13" stroke-linecap="butt" stroke-linejoin="miter" fill="none"><path d="M 186.093 145.811 L 184.928 145.811 L 184.928 149.311 L 186.093 149.311 L 186.642 149.2 L 187.051 148.862 L 187.303 148.313 L 187.394 147.561 L 187.313 146.794 L 187.212 146.492 L 187.071 146.25 L 186.662 145.922 L 186.395 145.841 L 186.093 145.811 L 186.093 145.811 z M 186.057 146.23 L 186.441 146.305 L 186.703 146.537 L 186.859 146.951 L 186.91 147.561 L 186.854 148.151 L 186.698 148.565 L 186.43 148.812 L 186.057 148.892 L 185.397 148.892 L 185.397 146.23 L 186.057 146.23 L 186.057 146.23 z M 188.902 149.311 L 189.366 149.311 L 189.366 146.235 L 190.425 146.235 L 190.425 145.811 L 187.837 145.811 L 187.837 146.235 L 188.902 146.235 L 188.902 149.311 L 188.902 149.311 z M 190.652 150.148 L 190.652 150.501 L 193.688 150.501 L 193.688 150.148 L 190.652 150.148 L 190.652 150.148 z M 194.081 149.311 L 194.55 149.311 L 194.55 147.833 L 195.029 147.833 L 195.382 147.849 L 195.604 147.919 L 195.725 148.086 L 195.776 148.383 L 195.801 148.837 L 195.831 149.135 L 195.892 149.311 L 196.421 149.311 L 196.421 149.215 L 196.305 149.074 L 196.265 148.812 L 196.229 148.247 L 196.144 147.828 L 196.028 147.697 L 195.846 147.601 L 196.048 147.475 L 196.189 147.299 L 196.28 147.077 L 196.31 146.81 L 196.24 146.386 L 196.038 146.068 L 195.705 145.877 L 195.251 145.811 L 194.081 145.811 L 194.081 149.311 L 194.081 149.311 z M 195.12 146.24 L 195.428 146.27 L 195.644 146.366 L 195.781 146.542 L 195.826 146.82 L 195.776 147.112 L 195.639 147.289 L 195.407 147.38 L 195.09 147.405 L 194.55 147.405 L 194.55 146.24 L 195.12 146.24 L 195.12 146.24 z M 197.117 149.311 L 197.586 149.311 L 197.586 147.833 L 198.065 147.833 L 198.418 147.849 L 198.64 147.919 L 198.761 148.086 L 198.812 148.383 L 198.837 148.837 L 198.867 149.135 L 198.928 149.311 L 199.457 149.311 L 199.457 149.215 L 199.341 149.074 L 199.301 148.812 L 199.265 148.247 L 199.18 147.828 L 199.064 147.697 L 198.882 147.601 L 199.084 147.475 L 199.225 147.299 L 199.316 147.077 L 199.346 146.81 L 199.276 146.386 L 199.074 146.068 L 198.741 145.877 L 198.287 145.811 L 197.117 145.811 L 197.117 149.311 L 197.117 149.311 z M 198.156 146.24 L 198.464 146.27 L 198.68 146.366 L 198.817 146.542 L 198.862 146.82 L 198.812 147.112 L 198.675 147.289 L 198.443 147.38 L 198.126 147.405 L 197.586 147.405 L 197.586 146.24 L 198.156 146.24 L 198.156 146.24 z M 199.76 150.148 L 199.76 150.501 L 202.796 150.501 L 202.796 150.148 L 199.76 150.148 L 199.76 150.148 z M 203.189 149.311 L 203.658 149.311 L 203.658 147.833 L 204.137 147.833 L 204.49 147.849 L 204.712 147.919 L 204.833 148.086 L 204.884 148.383 L 204.909 148.837 L 204.939 149.135 L 205 149.311 L 205.529 149.311 L 205.529 149.215 L 205.413 149.074 L 205.373 148.812 L 205.338 148.247 L 205.252 147.828 L 205.136 147.697 L 204.954 147.601 L 205.156 147.475 L 205.297 147.299 L 205.388 147.077 L 205.418 146.81 L 205.348 146.386 L 205.146 146.068 L 204.813 145.877 L 204.359 145.811 L 203.189 145.811 L 203.189 149.311 L 203.189 149.311 z M 204.228 146.24 L 204.536 146.27 L 204.752 146.366 L 204.889 146.542 L 204.934 146.82 L 204.884 147.112 L 204.747 147.289 L 204.515 147.38 L 204.198 147.405 L 203.658 147.405 L 203.658 146.24 L 204.228 146.24 L 204.228 146.24 z" stroke="none" fill-rule="evenodd" fill="rgb(0, 0, 0)"/></g></svg>