<?xml version="1.0" encoding="utf-8" ?><!DOCTYPE svg PUBLIC "-//W3C//DTD SVG 1.1//EN" "http://www.w3.org/Graphics/SVG/1.1/DTD/svg11.dtd" 
[ <!ATTLIST svg 
  xmlns:dsy CDATA #FIXED "http://www.3ds.com/print"  
    dsy:text-version CDATA #IMPLIED > 

  <!ATTLIST text 
  xmlns:dsy CDATA #FIXED "http://www.3ds.com/print" 
    dsy:text-version CDATA #IMPLIED > 
]><svg xmlns="http://www.w3.org/2000/svg" xmlns:dsy="http://www.3ds.com/print" dsy:text-version="18000" width="297" height="210" viewBox="0 0 297 210" version="1.1"><g stroke="rgb(0, 0, 0)" stroke-width="0.35" stroke-linecap="butt" stroke-linejoin="miter" fill="none"><path d="M 155.853 95.4801 A 7 7 0 0 0 141.989 95.4801"/><circle cx="148.921" cy="96.4543" r="3.2"/><path d="M 139.175 119.14 L 138.641 119.299"/><path d="M 138.641 119.299 L 141.989 95.4801"/><path d="M 151.649 116.4 A 15.4242 15.0005 -261.251 0 0 139.175 119.14"/><path d="M 158.426 113.794 L 155.853 95.4801"/><path d="M 151.649 116.4 L 158.426 113.794"/><path d="M 215.501 95.3243 A 7 7 0 0 0 201.637 95.3243"/><circle cx="208.569" cy="96.2985" r="3.19997"/><path d="M 219.023 120.388 L 215.501 95.3243"/><path d="M 219.023 120.388 A 15.4234 15 -278.771 0 0 204.557 117.607"/><path d="M 198.816 115.399 L 201.637 95.3243"/><path d="M 204.557 117.607 L 198.816 115.399"/><path d="M 9.99999 200 L 287 200"/><path d="M 287 200 L 287 10"/><path d="M 287 10 L 9.99999 10"/><path d="M 9.99999 10 L 9.99999 200"/><path d="M 148.5 10 L 148.5 0"/><path d="M 148.5 200 L 148.5 210"/><path d="M 9.99999 105 L -5.94366e-006 105"/><path d="M 287 105 L 297 105"/><path d="M 74.3 200 L 74.3 207.5"/><path d="M 222.7 10 L 222.7 2.5"/><path d="M 74.3 10 L 74.3 2.5"/><path d="M 9.99999 52.5 L 2.49999 52.5"/><path d="M 287 52.5 L 294.5 52.5"/><path d="M 9.99999 157.5 L 2.49999 157.5"/><path d="M 287 157.5 L 294.5 157.5"/><path d="M 98.5 202.5 L 198.5 202.5"/><path d="M 98.5 200 L 98.5 205"/><path d="M 108.5 200 L 108.5 202.5"/><path d="M 118.5 200 L 118.5 202.5"/><path d="M 128.5 200 L 128.5 202.5"/><path d="M 138.5 200 L 138.5 202.5"/><path d="M 97 200 L 287 200"/><path d="M 287 140 L 287 200"/></g><g stroke="rgb(0, 0, 0)" stroke-width="0.13" stroke-linecap="butt" stroke-linejoin="miter" stroke-dasharray="7, 1, 1, 1" fill="none"><path d="M 153.081 96.4543 L 144.761 96.4543"/><path d="M 148.921 92.2943 L 148.921 100.614"/><path d="M 212.729 96.2985 L 204.409 96.2985"/><path d="M 208.569 92.1385 L 208.569 100.459"/></g><g stroke="rgb(0, 0, 0)" stroke-width="0.13" stroke-linecap="butt" stroke-linejoin="miter" fill="none"><path d="M 258.267 206.833 L 258.731 206.833 L 259.099 205.804 L 260.496 205.804 L 260.864 206.833 L 261.338 206.833 L 260.057 203.328 L 259.543 203.328 L 258.267 206.833 L 258.267 206.833 z M 259.26 205.376 L 259.8 203.832 L 260.34 205.376 L 259.26 205.376 L 259.26 205.376 z" stroke="none" fill-rule="evenodd" fill="rgb(0, 0, 0)"/></g><g stroke="rgb(0, 0, 0)" stroke-width="0.13" stroke-linecap="butt" stroke-linejoin="miter" fill="none"><path d="M 37.1949 203.333 L 36.03 203.333 L 36.03 206.833 L 37.1949 206.833 L 37.7447 206.722 L 38.1532 206.384 L 38.4053 205.835 L 38.4961 205.083 L 38.4154 204.317 L 38.3145 204.014 L 38.1733 203.772 L 37.7648 203.444 L 37.4975 203.363 L 37.1949 203.333 L 37.1949 203.333 z M 37.1596 203.752 L 37.5429 203.827 L 37.8052 204.059 L 37.9615 204.473 L 38.012 205.083 L 37.9565 205.673 L 37.8001 206.087 L 37.5328 206.334 L 37.1596 206.415 L 36.499 206.415 L 36.499 203.752 L 37.1596 203.752 L 37.1596 203.752 z" stroke="none" fill-rule="evenodd" fill="rgb(0, 0, 0)"/></g><g stroke="rgb(0, 0, 0)" stroke-width="0.13" stroke-linecap="butt" stroke-linejoin="miter" fill="none"><path d="M 185.542 4.36958 L 185.249 4.01657 L 185.053 3.92578 L 184.811 3.89552 L 184.432 3.96109 L 184.16 4.15778 L 183.994 4.47549 L 183.933 4.9193 L 183.933 6.16498 L 187.433 6.16498 L 187.433 4.84869 L 187.363 4.37968 L 187.156 4.03169 L 186.828 3.81483 L 186.384 3.73918 L 186.087 3.78458 L 185.84 3.90561 L 185.658 4.10229 L 185.542 4.36958 L 185.542 4.36958 z M 185.386 5.01512 L 185.386 5.701 L 184.352 5.701 L 184.352 4.97478 L 184.382 4.70244 L 184.473 4.5108 L 184.629 4.39481 L 184.861 4.35446 L 185.093 4.39986 L 185.255 4.52089 L 185.355 4.72766 L 185.386 5.01512 L 185.386 5.01512 z M 187.015 4.90417 L 187.015 5.701 L 185.809 5.701 L 185.809 4.94955 L 185.845 4.63184 L 185.951 4.40489 L 186.132 4.26872 L 186.394 4.22334 L 186.672 4.26872 L 186.863 4.39481 L 186.979 4.60663 L 187.015 4.90417 L 187.015 4.90417 z" stroke="none" fill-rule="evenodd" fill="rgb(0, 0, 0)"/></g><g stroke="rgb(0, 0, 0)" stroke-width="0.13" stroke-linecap="butt" stroke-linejoin="miter" fill="none"><path d="M 111.932 4.183 L 112.356 4.28386 L 112.658 4.45029 L 112.845 4.68227 L 112.905 4.95461 L 112.815 5.28241 L 112.542 5.53961 L 112.098 5.71109 L 111.483 5.76657 L 110.873 5.71109 L 110.424 5.54466 L 110.152 5.28746 L 110.056 4.95461 L 110.106 4.71252 L 110.248 4.50575 L 110.475 4.34438 L 110.787 4.23343 L 110.787 3.75432 L 110.308 3.90561 L 109.945 4.16786 L 109.718 4.52592 L 109.637 4.95461 L 109.763 5.48918 L 110.116 5.89769 L 110.696 6.15994 L 111.483 6.25072 L 112.27 6.15994 L 112.85 5.89769 L 113.208 5.48918 L 113.329 4.95461 L 113.233 4.48558 L 112.966 4.10735 L 112.527 3.84006 L 111.932 3.69884 L 111.932 4.183 L 111.932 4.183 z" stroke="none" fill-rule="evenodd" fill="rgb(0, 0, 0)"/></g><g stroke="rgb(0, 0, 0)" stroke-width="0.13" stroke-linecap="butt" stroke-linejoin="miter" fill="none"><path d="M 261.633 6.53314 L 261.633 6.06915 L 260.604 5.701 L 260.604 4.30403 L 261.633 3.93587 L 261.633 3.46181 L 258.128 4.74278 L 258.128 5.2572 L 261.633 6.53314 L 261.633 6.53314 z M 260.176 5.53961 L 258.632 5 L 260.176 4.46037 L 260.176 5.53961 L 260.176 5.53961 z" stroke="none" fill-rule="evenodd" fill="rgb(0, 0, 0)"/></g><g stroke="rgb(0, 0, 0)" stroke-width="0.13" stroke-linecap="butt" stroke-linejoin="miter" fill="none"><path d="M 35.5332 5.00504 L 35.5332 6.17003 L 39.0332 6.17003 L 39.0332 5.00504 L 38.9223 4.45532 L 38.5844 4.04683 L 38.0346 3.79466 L 37.2832 3.70389 L 36.5166 3.78458 L 36.214 3.88544 L 35.972 4.02666 L 35.6442 4.43515 L 35.5635 4.70244 L 35.5332 5.00504 L 35.5332 5.00504 z M 35.9518 5.04034 L 36.0274 4.65706 L 36.2594 4.39481 L 36.673 4.23846 L 37.2832 4.18803 L 37.8733 4.24352 L 38.2868 4.39986 L 38.5339 4.66714 L 38.6146 5.04034 L 38.6146 5.701 L 35.9518 5.701 L 35.9518 5.04034 L 35.9518 5.04034 z" stroke="none" fill-rule="evenodd" fill="rgb(0, 0, 0)"/></g><g stroke="rgb(0, 0, 0)" stroke-width="0.13" stroke-linecap="butt" stroke-linejoin="miter" fill="none"><path d="M 290.729 79.4838 L 290.729 79.5191 L 290.81 80.0032 L 291.047 80.3663 L 291.42 80.5983 L 291.914 80.6841 L 292.439 80.5983 L 292.832 80.3764 L 293.084 80.0234 L 293.175 79.5695 L 293.135 79.272 L 293.024 79.0299 L 292.842 78.8433 L 292.6 78.7071 L 292.928 78.4348 L 293.044 78.0011 L 292.968 77.6077 L 292.751 77.3102 L 292.398 77.1236 L 291.914 77.058 L 291.46 77.1387 L 291.112 77.3606 L 290.885 77.7136 L 290.81 78.1826 L 290.81 78.2179 L 291.259 78.2179 L 291.299 77.8952 L 291.43 77.6632 L 291.642 77.522 L 291.939 77.4715 L 292.202 77.5119 L 292.393 77.6178 L 292.509 77.7892 L 292.555 78.0212 L 292.509 78.2684 L 292.388 78.4348 L 292.177 78.5356 L 291.889 78.5659 L 291.692 78.5609 L 291.692 78.9593 L 291.939 78.9492 L 292.257 78.9946 L 292.494 79.1156 L 292.635 79.3123 L 292.686 79.5695 L 292.63 79.862 L 292.484 80.0789 L 292.252 80.215 L 291.945 80.2604 L 291.627 80.21 L 291.395 80.0587 L 291.249 79.8166 L 291.193 79.4838 L 290.729 79.4838 L 290.729 79.4838 z" stroke="none" fill-rule="evenodd" fill="rgb(0, 0, 0)"/></g><g stroke="rgb(0, 0, 0)" stroke-width="0.13" stroke-linecap="butt" stroke-linejoin="miter" fill="none"><path d="M 5.73378 80.0209 L 5.76909 80.0209 L 6.25324 79.9402 L 6.61635 79.7032 L 6.84834 79.33 L 6.93407 78.8357 L 6.84834 78.3112 L 6.62644 77.9179 L 6.27341 77.6657 L 5.81952 77.5749 L 5.52197 77.6153 L 5.27989 77.7262 L 5.09329 77.9078 L 4.95713 78.1499 L 4.68479 77.822 L 4.25108 77.706 L 3.8577 77.7817 L 3.56015 77.9986 L 3.37355 78.3516 L 3.30799 78.8357 L 3.38868 79.2896 L 3.61059 79.6376 L 3.96361 79.8645 L 4.43263 79.9402 L 4.46793 79.9402 L 4.46793 79.4913 L 4.14517 79.451 L 3.91318 79.3199 L 3.77197 79.1081 L 3.72154 78.8105 L 3.76188 78.5483 L 3.86779 78.3566 L 4.03926 78.2406 L 4.27125 78.1952 L 4.51837 78.2406 L 4.68479 78.3617 L 4.78566 78.5735 L 4.81592 78.8609 L 4.81087 79.0576 L 5.20929 79.0576 L 5.1992 78.8105 L 5.24459 78.4928 L 5.36563 78.2558 L 5.56231 78.1145 L 5.81952 78.0641 L 6.11203 78.1196 L 6.32889 78.2658 L 6.46505 78.4978 L 6.51044 78.8055 L 6.46001 79.1232 L 6.30871 79.3552 L 6.06664 79.5014 L 5.73378 79.5569 L 5.73378 80.0209 L 5.73378 80.0209 z" stroke="none" fill-rule="evenodd" fill="rgb(0, 0, 0)"/></g><g stroke="rgb(0, 0, 0)" stroke-width="0.13" stroke-linecap="butt" stroke-linejoin="miter" fill="none"><path d="M 290.769 133.083 L 293.175 133.083 L 293.175 132.65 L 291.274 132.65 L 291.38 132.412 L 291.561 132.216 L 292.121 131.858 L 292.419 131.706 L 292.751 131.49 L 292.988 131.237 L 293.125 130.94 L 293.175 130.602 L 293.089 130.178 L 292.852 129.845 L 292.489 129.634 L 292.02 129.558 L 291.536 129.644 L 291.168 129.881 L 290.931 130.259 L 290.85 130.758 L 290.85 130.829 L 291.309 130.829 L 291.309 130.789 L 291.354 130.446 L 291.491 130.193 L 291.707 130.032 L 291.995 129.977 L 292.287 130.027 L 292.504 130.153 L 292.646 130.35 L 292.696 130.597 L 292.661 130.829 L 292.565 131.026 L 292.403 131.197 L 292.182 131.348 L 291.884 131.51 L 291.39 131.822 L 291.042 132.155 L 290.835 132.559 L 290.769 133.068 L 290.769 133.083 L 290.769 133.083 z" stroke="none" fill-rule="evenodd" fill="rgb(0, 0, 0)"/></g><g stroke="rgb(0, 0, 0)" stroke-width="0.13" stroke-linecap="butt" stroke-linejoin="miter" fill="none"><path d="M 6.83321 132.481 L 6.83321 130.075 L 6.39949 130.075 L 6.39949 131.976 L 6.16246 131.87 L 5.96577 131.689 L 5.6077 131.129 L 5.45641 130.831 L 5.23955 130.499 L 4.98738 130.262 L 4.68983 130.125 L 4.35194 130.075 L 3.92831 130.161 L 3.59545 130.398 L 3.38364 130.761 L 3.30799 131.23 L 3.39372 131.714 L 3.63075 132.082 L 4.009 132.319 L 4.50828 132.4 L 4.57888 132.4 L 4.57888 131.941 L 4.53854 131.941 L 4.1956 131.896 L 3.94343 131.759 L 3.78205 131.543 L 3.72658 131.255 L 3.77701 130.963 L 3.90309 130.746 L 4.09978 130.604 L 4.34689 130.554 L 4.57888 130.589 L 4.77557 130.685 L 4.94704 130.847 L 5.09834 131.068 L 5.25972 131.366 L 5.5724 131.86 L 5.90525 132.208 L 6.30871 132.415 L 6.81808 132.481 L 6.83321 132.481 L 6.83321 132.481 z" stroke="none" fill-rule="evenodd" fill="rgb(0, 0, 0)"/></g><g stroke="rgb(0, 0, 0)" stroke-width="0.13" stroke-linecap="butt" stroke-linejoin="miter" fill="none"><path d="M 292.277 28.0832 L 292.731 28.0832 L 292.731 27.2158 L 293.231 27.2158 L 293.231 26.8123 L 292.731 26.8123 L 292.731 24.6588 L 292.272 24.6588 L 290.739 26.772 L 290.739 27.2158 L 292.277 27.2158 L 292.277 28.0832 L 292.277 28.0832 z M 291.163 26.8123 L 292.277 25.2439 L 292.277 26.8123 L 291.163 26.8123 L 291.163 26.8123 z" stroke="none" fill-rule="evenodd" fill="rgb(0, 0, 0)"/></g><g stroke="rgb(0, 0, 0)" stroke-width="0.13" stroke-linecap="butt" stroke-linejoin="miter" fill="none"><path d="M 6.83321 25.9726 L 6.83321 25.5187 L 5.96577 25.5187 L 5.96577 25.0194 L 5.56231 25.0194 L 5.56231 25.5187 L 3.40886 25.5187 L 3.40886 25.9777 L 5.52197 27.5108 L 5.96577 27.5108 L 5.96577 25.9726 L 6.83321 25.9726 L 6.83321 25.9726 z M 5.56231 27.0872 L 3.99387 25.9726 L 5.56231 25.9726 L 5.56231 27.0872 L 5.56231 27.0872 z" stroke="none" fill-rule="evenodd" fill="rgb(0, 0, 0)"/></g><g stroke="rgb(0, 0, 0)" stroke-width="0.13" stroke-linecap="butt" stroke-linejoin="miter" fill="none"><path d="M 291.909 185.583 L 292.368 185.583 L 292.368 182.058 L 292.025 182.058 L 291.934 182.366 L 291.753 182.572 L 291.476 182.693 L 291.092 182.734 L 291.092 183.092 L 291.909 183.092 L 291.909 185.583 L 291.909 185.583 z" stroke="none" fill-rule="evenodd" fill="rgb(0, 0, 0)"/></g><g stroke="rgb(0, 0, 0)" stroke-width="0.13" stroke-linecap="butt" stroke-linejoin="miter" fill="none"><path d="M 6.83321 183.841 L 6.83321 183.382 L 3.30799 183.382 L 3.30799 183.725 L 3.61562 183.816 L 3.8224 183.997 L 3.94343 184.275 L 3.98378 184.658 L 4.34185 184.658 L 4.34185 183.841 L 6.83321 183.841 L 6.83321 183.841 z" stroke="none" fill-rule="evenodd" fill="rgb(0, 0, 0)"/></g><g stroke="rgb(0, 0, 0)" stroke-width="0.13" stroke-linecap="butt" stroke-linejoin="miter" fill="none"><path d="M 164.081 160.969 L 163.249 160.969 L 163.249 163.469 L 164.081 163.469 L 164.473 163.39 L 164.765 163.148 L 164.945 162.756 L 165.01 162.219 L 164.952 161.671 L 164.88 161.455 L 164.78 161.282 L 164.488 161.048 L 164.297 160.991 L 164.081 160.969 L 164.081 160.969 z M 164.055 161.268 L 164.329 161.322 L 164.517 161.488 L 164.628 161.783 L 164.664 162.219 L 164.625 162.64 L 164.513 162.936 L 164.322 163.112 L 164.055 163.17 L 163.584 163.17 L 163.584 161.268 L 164.055 161.268 L 164.055 161.268 z M 166.004 161.272 L 166.217 161.272 L 166.718 160.659 L 166.365 160.659 L 166.004 161.272 L 166.004 161.272 z M 165.785 162.594 L 167.053 162.594 L 167.056 162.446 L 166.999 162.032 L 166.84 161.722 L 166.588 161.535 L 166.253 161.466 L 165.925 161.538 L 165.673 161.74 L 165.511 162.068 L 165.453 162.5 L 165.507 162.943 L 165.669 163.267 L 165.918 163.469 L 166.242 163.537 L 166.523 163.491 L 166.754 163.368 L 166.923 163.174 L 167.02 162.914 L 166.707 162.914 L 166.642 163.058 L 166.548 163.166 L 166.282 163.253 L 166.076 163.213 L 165.921 163.087 L 165.821 162.882 L 165.785 162.604 L 165.785 162.594 L 165.785 162.594 z M 165.785 162.327 L 165.824 162.079 L 165.921 161.895 L 166.069 161.783 L 166.264 161.744 L 166.455 161.783 L 166.602 161.895 L 166.692 162.079 L 166.725 162.327 L 165.785 162.327 L 165.785 162.327 z M 168.623 162.341 L 168.317 162.269 L 168.09 162.187 L 168.014 162.017 L 168.036 161.898 L 168.112 161.812 L 168.234 161.758 L 168.411 161.736 L 168.58 161.758 L 168.713 161.823 L 168.8 161.92 L 168.836 162.05 L 169.146 162.05 L 169.146 162.043 L 169.092 161.808 L 168.944 161.625 L 168.713 161.509 L 168.411 161.466 L 168.104 161.509 L 167.881 161.628 L 167.741 161.805 L 167.697 162.028 L 167.73 162.244 L 167.831 162.396 L 167.996 162.504 L 168.238 162.579 L 168.591 162.666 L 168.807 162.756 L 168.865 162.828 L 168.886 162.936 L 168.854 163.069 L 168.767 163.17 L 168.627 163.235 L 168.439 163.256 L 168.241 163.235 L 168.097 163.159 L 168 163.037 L 167.96 162.867 L 167.654 162.867 L 167.705 163.156 L 167.852 163.365 L 168.086 163.491 L 168.411 163.537 L 168.749 163.491 L 168.998 163.365 L 169.149 163.163 L 169.203 162.9 L 169.164 162.673 L 169.052 162.518 L 168.868 162.417 L 168.623 162.341 L 168.623 162.341 z M 170.813 163.202 L 170.813 161.599 L 169.999 161.599 L 169.999 161.87 L 170.496 161.87 L 170.496 163.202 L 169.848 163.202 L 169.848 163.469 L 171.469 163.469 L 171.469 163.202 L 170.813 163.202 L 170.813 163.202 z M 170.824 160.883 L 170.489 160.883 L 170.489 161.243 L 170.824 161.243 L 170.824 160.883 L 170.824 160.883 z M 173.519 163.383 L 173.519 161.535 L 173.216 161.535 L 173.216 161.848 L 172.968 161.563 L 172.816 161.491 L 172.647 161.466 L 172.341 161.538 L 172.103 161.74 L 171.948 162.064 L 171.894 162.5 L 171.948 162.939 L 172.103 163.264 L 172.341 163.469 L 172.647 163.537 L 172.82 163.512 L 172.964 163.447 L 173.216 163.174 L 173.216 163.447 L 173.187 163.664 L 173.108 163.818 L 172.957 163.909 L 172.73 163.941 L 172.532 163.919 L 172.391 163.865 L 172.308 163.772 L 172.283 163.646 L 171.977 163.646 L 171.977 163.66 L 172.024 163.89 L 172.168 164.063 L 172.398 164.175 L 172.712 164.215 L 173.086 164.161 L 173.335 164.009 L 173.476 163.746 L 173.519 163.383 L 173.519 163.383 z M 172.222 162.5 L 172.254 162.179 L 172.352 161.942 L 172.503 161.801 L 172.705 161.751 L 172.917 161.801 L 173.076 161.942 L 173.173 162.179 L 173.209 162.5 L 173.173 162.828 L 173.076 163.062 L 172.917 163.206 L 172.705 163.253 L 172.503 163.206 L 172.352 163.062 L 172.254 162.824 L 172.222 162.5 L 172.222 162.5 z M 174.182 163.469 L 174.499 163.469 L 174.499 162.352 L 174.531 162.097 L 174.635 161.909 L 174.798 161.794 L 175.014 161.751 L 175.187 161.787 L 175.295 161.884 L 175.349 162.046 L 175.367 162.262 L 175.367 163.469 L 175.684 163.469 L 175.684 162.197 L 175.669 161.942 L 175.605 161.729 L 175.392 161.535 L 175.061 161.466 L 174.877 161.491 L 174.722 161.56 L 174.589 161.675 L 174.484 161.83 L 174.484 161.535 L 174.182 161.535 L 174.182 163.469 L 174.182 163.469 z M 177.499 163.217 L 177.499 163.228 L 177.517 163.35 L 177.571 163.437 L 177.798 163.505 L 177.975 163.476 L 177.975 163.231 L 177.899 163.242 L 177.798 163.195 L 177.78 163.051 L 177.78 162.05 L 177.737 161.794 L 177.611 161.614 L 177.391 161.506 L 177.081 161.466 L 176.779 161.509 L 176.556 161.632 L 176.415 161.823 L 176.368 162.075 L 176.368 162.097 L 176.653 162.097 L 176.678 161.945 L 176.757 161.837 L 176.887 161.772 L 177.071 161.747 L 177.247 161.765 L 177.373 161.819 L 177.449 161.913 L 177.474 162.043 L 177.46 162.194 L 177.402 162.269 L 177.258 162.305 L 176.988 162.334 L 176.678 162.399 L 176.458 162.514 L 176.329 162.695 L 176.289 162.961 L 176.325 163.199 L 176.437 163.375 L 176.617 163.487 L 176.865 163.527 L 177.2 163.451 L 177.499 163.217 L 177.499 163.217 z M 177.463 162.792 L 177.42 162.979 L 177.305 163.123 L 177.132 163.217 L 176.919 163.249 L 176.782 163.231 L 176.685 163.174 L 176.624 163.073 L 176.606 162.932 L 176.62 162.806 L 176.678 162.716 L 176.909 162.615 L 177.2 162.572 L 177.463 162.486 L 177.463 162.792 L 177.463 162.792 z M 178.944 161.87 L 178.944 162.839 L 178.965 163.152 L 179.066 163.368 L 179.268 163.494 L 179.61 163.537 L 179.985 163.519 L 179.985 163.246 L 179.711 163.267 L 179.463 163.238 L 179.329 163.148 L 179.272 162.997 L 179.261 162.785 L 179.261 161.87 L 179.985 161.87 L 179.985 161.599 L 179.261 161.599 L 179.261 161.034 L 178.944 161.034 L 178.944 161.599 L 178.396 161.599 L 178.396 161.87 L 178.944 161.87 L 178.944 161.87 z M 181.656 163.202 L 181.656 161.599 L 180.842 161.599 L 180.842 161.87 L 181.339 161.87 L 181.339 163.202 L 180.691 163.202 L 180.691 163.469 L 182.312 163.469 L 182.312 163.202 L 181.656 163.202 L 181.656 163.202 z M 181.667 160.883 L 181.332 160.883 L 181.332 161.243 L 181.667 161.243 L 181.667 160.883 L 181.667 160.883 z M 182.762 162.504 L 182.82 162.943 L 182.986 163.267 L 183.249 163.469 L 183.602 163.537 L 183.951 163.469 L 184.214 163.271 L 184.38 162.947 L 184.441 162.504 L 184.38 162.064 L 184.214 161.736 L 183.951 161.538 L 183.602 161.466 L 183.249 161.538 L 182.986 161.74 L 182.82 162.064 L 182.762 162.504 L 182.762 162.504 z M 183.087 162.5 L 183.119 162.176 L 183.22 161.942 L 183.382 161.798 L 183.602 161.747 L 183.818 161.798 L 183.98 161.938 L 184.081 162.176 L 184.117 162.5 L 184.081 162.828 L 183.98 163.066 L 183.818 163.21 L 183.602 163.256 L 183.382 163.21 L 183.22 163.066 L 183.119 162.828 L 183.087 162.5 L 183.087 162.5 z M 185.025 163.469 L 185.342 163.469 L 185.342 162.352 L 185.374 162.097 L 185.478 161.909 L 185.641 161.794 L 185.857 161.751 L 186.03 161.787 L 186.138 161.884 L 186.192 162.046 L 186.21 162.262 L 186.21 163.469 L 186.527 163.469 L 186.527 162.197 L 186.512 161.942 L 186.447 161.729 L 186.235 161.535 L 185.904 161.466 L 185.72 161.491 L 185.565 161.56 L 185.432 161.675 L 185.327 161.83 L 185.327 161.535 L 185.025 161.535 L 185.025 163.469 L 185.025 163.469 z" stroke="none" fill-rule="evenodd" fill="rgb(0, 0, 0)"/></g><g stroke="rgb(0, 0, 0)" stroke-width="0.13" stroke-linecap="butt" stroke-linejoin="miter" fill="none"><path d="M 155.215 175.47 L 155.818 175.47 L 155.818 173.401 L 157.712 173.401 L 157.712 172.863 L 155.818 172.863 L 155.818 171.514 L 158.146 171.514 L 158.146 170.97 L 155.215 170.97 L 155.215 175.47 L 155.215 175.47 z M 159.32 175.47 L 159.89 175.47 L 159.89 173.479 L 159.949 172.999 L 160.124 172.656 L 160.409 172.448 L 160.792 172.377 L 161.077 172.422 L 161.291 172.552 L 161.421 172.772 L 161.466 173.071 L 162.043 173.071 L 161.965 172.545 L 161.751 172.169 L 161.395 171.942 L 160.909 171.865 L 160.578 171.916 L 160.293 172.046 L 160.04 172.267 L 159.839 172.565 L 159.839 171.988 L 159.32 171.988 L 159.32 175.47 L 159.32 175.47 z M 162.841 173.732 L 162.945 174.523 L 163.243 175.107 L 163.716 175.47 L 164.352 175.593 L 164.981 175.47 L 165.454 175.113 L 165.752 174.53 L 165.862 173.732 L 165.752 172.941 L 165.454 172.351 L 164.981 171.994 L 164.352 171.865 L 163.716 171.994 L 163.243 172.357 L 162.945 172.941 L 162.841 173.732 L 162.841 173.732 z M 163.424 173.726 L 163.483 173.142 L 163.664 172.72 L 163.956 172.461 L 164.352 172.37 L 164.741 172.461 L 165.032 172.714 L 165.214 173.142 L 165.279 173.726 L 165.214 174.316 L 165.032 174.744 L 164.741 175.003 L 164.352 175.087 L 163.956 175.003 L 163.664 174.744 L 163.483 174.316 L 163.424 173.726 L 163.424 173.726 z M 166.913 175.47 L 167.483 175.47 L 167.483 173.46 L 167.542 172.999 L 167.73 172.662 L 168.022 172.455 L 168.411 172.377 L 168.722 172.442 L 168.916 172.617 L 169.014 172.909 L 169.046 173.298 L 169.046 175.47 L 169.617 175.47 L 169.617 173.181 L 169.591 172.72 L 169.474 172.338 L 169.091 171.988 L 168.495 171.865 L 168.164 171.91 L 167.885 172.033 L 167.646 172.241 L 167.457 172.519 L 167.457 171.988 L 166.913 171.988 L 166.913 175.47 L 166.913 175.47 z M 171.581 172.591 L 171.581 174.335 L 171.62 174.899 L 171.802 175.288 L 172.165 175.515 L 172.781 175.593 L 173.455 175.561 L 173.455 175.068 L 172.963 175.107 L 172.515 175.055 L 172.275 174.893 L 172.171 174.62 L 172.152 174.238 L 172.152 172.591 L 173.455 172.591 L 173.455 172.104 L 172.152 172.104 L 172.152 171.086 L 171.581 171.086 L 171.581 172.104 L 170.596 172.104 L 170.596 172.591 L 171.581 172.591 L 171.581 172.591 z M 178.649 175.47 L 181.541 175.47 L 181.541 174.925 L 179.246 174.925 L 179.246 170.97 L 178.649 170.97 L 178.649 175.47 L 178.649 175.47 z M 183.026 173.894 L 185.308 173.894 L 185.315 173.628 L 185.211 172.883 L 184.926 172.325 L 184.472 171.988 L 183.869 171.865 L 183.279 171.994 L 182.825 172.357 L 182.533 172.947 L 182.429 173.726 L 182.527 174.523 L 182.818 175.107 L 183.266 175.47 L 183.849 175.593 L 184.355 175.509 L 184.77 175.288 L 185.075 174.938 L 185.25 174.471 L 184.686 174.471 L 184.569 174.731 L 184.401 174.925 L 183.921 175.081 L 183.551 175.009 L 183.272 174.782 L 183.091 174.413 L 183.026 173.914 L 183.026 173.894 L 183.026 173.894 z M 183.026 173.414 L 183.097 172.967 L 183.272 172.636 L 183.538 172.435 L 183.888 172.364 L 184.232 172.435 L 184.498 172.636 L 184.66 172.967 L 184.718 173.414 L 183.026 173.414 L 183.026 173.414 z M 187.221 172.591 L 187.221 175.47 L 187.792 175.47 L 187.792 172.591 L 189.089 172.591 L 189.089 172.104 L 187.792 172.104 L 187.792 171.89 L 187.837 171.631 L 187.986 171.456 L 188.239 171.352 L 188.602 171.313 L 189.089 171.339 L 189.089 170.847 L 188.473 170.814 L 187.915 170.872 L 187.526 171.048 L 187.293 171.352 L 187.221 171.787 L 187.221 172.104 L 186.177 172.104 L 186.177 172.591 L 187.221 172.591 L 187.221 172.591 z M 191.099 172.591 L 191.099 174.335 L 191.138 174.899 L 191.319 175.288 L 191.682 175.515 L 192.298 175.593 L 192.973 175.561 L 192.973 175.068 L 192.48 175.107 L 192.032 175.055 L 191.792 174.893 L 191.689 174.62 L 191.669 174.238 L 191.669 172.591 L 192.973 172.591 L 192.973 172.104 L 191.669 172.104 L 191.669 171.086 L 191.099 171.086 L 191.099 172.104 L 190.113 172.104 L 190.113 172.591 L 191.099 172.591 L 191.099 172.591 z M 198.166 175.47 L 201.058 175.47 L 201.058 174.925 L 198.763 174.925 L 198.763 170.97 L 198.166 170.97 L 198.166 175.47 L 198.166 175.47 z M 201.875 173.732 L 201.979 174.523 L 202.277 175.107 L 202.751 175.47 L 203.386 175.593 L 204.015 175.47 L 204.488 175.113 L 204.787 174.53 L 204.897 173.732 L 204.787 172.941 L 204.488 172.351 L 204.015 171.994 L 203.386 171.865 L 202.751 171.994 L 202.277 172.357 L 201.979 172.941 L 201.875 173.732 L 201.875 173.732 z M 202.459 173.726 L 202.517 173.142 L 202.699 172.72 L 202.991 172.461 L 203.386 172.37 L 203.775 172.461 L 204.067 172.714 L 204.249 173.142 L 204.313 173.726 L 204.249 174.316 L 204.067 174.744 L 203.775 175.003 L 203.386 175.087 L 202.991 175.003 L 202.699 174.744 L 202.517 174.316 L 202.459 173.726 L 202.459 173.726 z M 206.771 175.47 L 207.29 172.513 L 207.808 175.47 L 208.353 175.47 L 209.209 171.988 L 208.658 171.988 L 208.081 174.945 L 207.568 171.988 L 207.004 171.988 L 206.492 174.945 L 205.915 171.988 L 205.37 171.988 L 206.226 175.47 L 206.771 175.47 L 206.771 175.47 z M 210.35 173.894 L 212.633 173.894 L 212.639 173.628 L 212.535 172.883 L 212.25 172.325 L 211.796 171.988 L 211.193 171.865 L 210.603 171.994 L 210.149 172.357 L 209.857 172.947 L 209.754 173.726 L 209.851 174.523 L 210.143 175.107 L 210.59 175.47 L 211.174 175.593 L 211.679 175.509 L 212.094 175.288 L 212.399 174.938 L 212.574 174.471 L 212.01 174.471 L 211.893 174.731 L 211.725 174.925 L 211.245 175.081 L 210.875 175.009 L 210.597 174.782 L 210.415 174.413 L 210.35 173.914 L 210.35 173.894 L 210.35 173.894 z M 210.35 173.414 L 210.421 172.967 L 210.597 172.636 L 210.862 172.435 L 211.213 172.364 L 211.556 172.435 L 211.822 172.636 L 211.984 172.967 L 212.042 173.414 L 210.35 173.414 L 210.35 173.414 z M 213.968 175.47 L 214.539 175.47 L 214.539 173.479 L 214.597 172.999 L 214.772 172.656 L 215.058 172.448 L 215.44 172.377 L 215.725 172.422 L 215.939 172.552 L 216.069 172.772 L 216.115 173.071 L 216.692 173.071 L 216.614 172.545 L 216.4 172.169 L 216.043 171.942 L 215.557 171.865 L 215.226 171.916 L 214.941 172.046 L 214.688 172.267 L 214.487 172.565 L 214.487 171.988 L 213.968 171.988 L 213.968 175.47 L 213.968 175.47 z M 220.932 175.47 L 221.529 175.47 L 222.002 174.147 L 223.798 174.147 L 224.272 175.47 L 224.881 175.47 L 223.234 170.963 L 222.573 170.963 L 220.932 175.47 L 220.932 175.47 z M 222.21 173.596 L 222.903 171.612 L 223.597 173.596 L 222.21 173.596 L 222.21 173.596 z M 226.022 173.985 L 227.591 173.985 L 227.591 173.473 L 226.022 173.473 L 226.022 173.985 L 226.022 173.985 z M 228.739 175.47 L 229.336 175.47 L 229.809 174.147 L 231.605 174.147 L 232.079 175.47 L 232.688 175.47 L 231.041 170.963 L 230.38 170.963 L 228.739 175.47 L 228.739 175.47 z M 230.017 173.596 L 230.71 171.612 L 231.404 173.596 L 230.017 173.596 L 230.017 173.596 z M 233.486 175.47 L 234.056 175.47 L 234.056 173.479 L 234.115 172.999 L 234.29 172.656 L 234.575 172.448 L 234.957 172.377 L 235.243 172.422 L 235.457 172.552 L 235.586 172.772 L 235.632 173.071 L 236.209 173.071 L 236.131 172.545 L 235.917 172.169 L 235.561 171.942 L 235.074 171.865 L 234.743 171.916 L 234.458 172.046 L 234.205 172.267 L 234.004 172.565 L 234.004 171.988 L 233.486 171.988 L 233.486 175.47 L 233.486 175.47 z M 236.948 175.47 L 237.473 175.47 L 237.473 173.142 L 237.506 172.792 L 237.603 172.539 L 237.752 172.39 L 237.947 172.331 L 238.102 172.383 L 238.206 172.513 L 238.258 172.733 L 238.277 173.025 L 238.277 175.47 L 238.77 175.47 L 238.77 173.142 L 238.803 172.798 L 238.9 172.545 L 239.055 172.39 L 239.25 172.331 L 239.406 172.383 L 239.509 172.513 L 239.574 173.025 L 239.574 175.47 L 240.099 175.47 L 240.099 173.064 L 240.067 172.565 L 239.963 172.182 L 239.756 171.949 L 239.419 171.865 L 239.023 171.994 L 238.718 172.37 L 238.478 172.001 L 238.076 171.865 L 237.707 171.994 L 237.454 172.357 L 237.454 171.988 L 236.948 171.988 L 236.948 175.47 L 236.948 175.47 z M 244.878 175.47 L 245.481 175.47 L 245.481 173.57 L 246.097 173.57 L 246.551 173.589 L 246.836 173.68 L 246.992 173.894 L 247.057 174.277 L 247.089 174.86 L 247.128 175.243 L 247.206 175.47 L 247.887 175.47 L 247.887 175.347 L 247.738 175.165 L 247.686 174.828 L 247.64 174.102 L 247.53 173.563 L 247.381 173.395 L 247.148 173.272 L 247.407 173.11 L 247.589 172.883 L 247.705 172.597 L 247.744 172.254 L 247.653 171.709 L 247.394 171.3 L 246.966 171.054 L 246.383 170.97 L 244.878 170.97 L 244.878 175.47 L 244.878 175.47 z M 246.214 171.521 L 246.609 171.56 L 246.888 171.683 L 247.063 171.91 L 247.122 172.267 L 247.057 172.643 L 246.882 172.87 L 246.584 172.986 L 246.175 173.019 L 245.481 173.019 L 245.481 171.521 L 246.214 171.521 L 246.214 171.521 z M 249.385 173.894 L 251.667 173.894 L 251.674 173.628 L 251.57 172.883 L 251.285 172.325 L 250.831 171.988 L 250.228 171.865 L 249.638 171.994 L 249.184 172.357 L 248.892 172.947 L 248.788 173.726 L 248.885 174.523 L 249.177 175.107 L 249.625 175.47 L 250.208 175.593 L 250.714 175.509 L 251.129 175.288 L 251.434 174.938 L 251.609 174.471 L 251.045 174.471 L 250.928 174.731 L 250.759 174.925 L 250.28 175.081 L 249.91 175.009 L 249.631 174.782 L 249.45 174.413 L 249.385 173.914 L 249.385 173.894 L 249.385 173.894 z M 249.385 173.414 L 249.456 172.967 L 249.631 172.636 L 249.897 172.435 L 250.247 172.364 L 250.591 172.435 L 250.857 172.636 L 251.019 172.967 L 251.077 173.414 L 249.385 173.414 L 249.385 173.414 z M 254.857 175.016 L 254.857 175.035 L 254.89 175.256 L 254.987 175.411 L 255.396 175.535 L 255.713 175.483 L 255.713 175.042 L 255.577 175.061 L 255.396 174.977 L 255.363 174.718 L 255.363 172.915 L 255.285 172.455 L 255.058 172.13 L 254.663 171.936 L 254.105 171.865 L 253.561 171.942 L 253.158 172.163 L 252.906 172.506 L 252.821 172.96 L 252.821 172.999 L 253.334 172.999 L 253.379 172.727 L 253.522 172.532 L 253.755 172.416 L 254.086 172.37 L 254.403 172.403 L 254.63 172.5 L 254.767 172.669 L 254.812 172.902 L 254.786 173.174 L 254.682 173.311 L 254.423 173.375 L 253.937 173.427 L 253.379 173.544 L 252.983 173.751 L 252.75 174.076 L 252.679 174.555 L 252.743 174.983 L 252.945 175.301 L 253.269 175.502 L 253.716 175.573 L 254.319 175.437 L 254.857 175.016 L 254.857 175.016 z M 254.792 174.251 L 254.715 174.588 L 254.507 174.847 L 254.196 175.016 L 253.813 175.074 L 253.567 175.042 L 253.392 174.938 L 253.282 174.756 L 253.249 174.504 L 253.275 174.277 L 253.379 174.115 L 253.794 173.933 L 254.319 173.855 L 254.792 173.7 L 254.792 174.251 L 254.792 174.251 z M 256.906 175.47 L 257.477 175.47 L 257.477 173.479 L 257.535 172.999 L 257.71 172.656 L 257.996 172.448 L 258.378 172.377 L 258.664 172.422 L 258.878 172.552 L 259.007 172.772 L 259.053 173.071 L 259.63 173.071 L 259.552 172.545 L 259.338 172.169 L 258.981 171.942 L 258.495 171.865 L 258.164 171.916 L 257.879 172.046 L 257.626 172.267 L 257.425 172.565 L 257.425 171.988 L 256.906 171.988 L 256.906 175.47 L 256.906 175.47 z M 264.525 175.47 L 267.417 175.47 L 267.417 174.925 L 265.122 174.925 L 265.122 170.97 L 264.525 170.97 L 264.525 175.47 L 264.525 175.47 z M 268.234 173.732 L 268.338 174.523 L 268.636 175.107 L 269.109 175.47 L 269.745 175.593 L 270.374 175.47 L 270.847 175.113 L 271.145 174.53 L 271.256 173.732 L 271.145 172.941 L 270.847 172.351 L 270.374 171.994 L 269.745 171.865 L 269.109 171.994 L 268.636 172.357 L 268.338 172.941 L 268.234 173.732 L 268.234 173.732 z M 268.818 173.726 L 268.876 173.142 L 269.058 172.72 L 269.349 172.461 L 269.745 172.37 L 270.134 172.461 L 270.426 172.714 L 270.607 173.142 L 270.672 173.726 L 270.607 174.316 L 270.426 174.744 L 270.134 175.003 L 269.745 175.087 L 269.349 175.003 L 269.058 174.744 L 268.876 174.316 L 268.818 173.726 L 268.818 173.726 z M 273.13 175.47 L 273.648 172.513 L 274.167 175.47 L 274.712 175.47 L 275.568 171.988 L 275.016 171.988 L 274.439 174.945 L 273.927 171.988 L 273.363 171.988 L 272.851 174.945 L 272.274 171.988 L 271.729 171.988 L 272.585 175.47 L 273.13 175.47 L 273.13 175.47 z M 276.709 173.894 L 278.991 173.894 L 278.998 173.628 L 278.894 172.883 L 278.609 172.325 L 278.155 171.988 L 277.552 171.865 L 276.962 171.994 L 276.508 172.357 L 276.216 172.947 L 276.112 173.726 L 276.21 174.523 L 276.501 175.107 L 276.949 175.47 L 277.532 175.593 L 278.038 175.509 L 278.453 175.288 L 278.758 174.938 L 278.933 174.471 L 278.369 174.471 L 278.252 174.731 L 278.083 174.925 L 277.604 175.081 L 277.234 175.009 L 276.955 174.782 L 276.774 174.413 L 276.709 173.914 L 276.709 173.894 L 276.709 173.894 z M 276.709 173.414 L 276.78 172.967 L 276.955 172.636 L 277.221 172.435 L 277.571 172.364 L 277.915 172.435 L 278.181 172.636 L 278.343 172.967 L 278.401 173.414 L 276.709 173.414 L 276.709 173.414 z M 280.327 175.47 L 280.898 175.47 L 280.898 173.479 L 280.956 172.999 L 281.131 172.656 L 281.416 172.448 L 281.799 172.377 L 282.084 172.422 L 282.298 172.552 L 282.428 172.772 L 282.473 173.071 L 283.05 173.071 L 282.973 172.545 L 282.759 172.169 L 282.402 171.942 L 281.916 171.865 L 281.585 171.916 L 281.3 172.046 L 281.047 172.267 L 280.846 172.565 L 280.846 171.988 L 280.327 171.988 L 280.327 175.47 L 280.327 175.47 z" stroke="none" fill-rule="evenodd" fill="rgb(0, 0, 0)"/></g><g stroke="rgb(0, 0, 0)" stroke-width="0.13" stroke-linecap="butt" stroke-linejoin="miter" fill="none"><path d="M 143.405 107.311 L 143.874 107.311 L 143.874 105.702 L 145.346 105.702 L 145.346 105.284 L 143.874 105.284 L 143.874 104.235 L 145.684 104.235 L 145.684 103.811 L 143.405 103.811 L 143.405 107.311 L 143.405 107.311 z M 146.451 107.311 L 148.7 107.311 L 148.7 106.887 L 146.915 106.887 L 146.915 103.811 L 146.451 103.811 L 146.451 107.311 L 146.451 107.311 z M 149.487 107.311 L 151.736 107.311 L 151.736 106.887 L 149.951 106.887 L 149.951 103.811 L 149.487 103.811 L 149.487 107.311 L 149.487 107.311 z M 152.937 106.156 L 154.157 106.156 L 154.157 105.758 L 152.937 105.758 L 152.937 106.156 L 152.937 106.156 z" stroke="none" fill-rule="evenodd" fill="rgb(0, 0, 0)"/></g><g stroke="rgb(0, 0, 0)" stroke-width="0.13" stroke-linecap="butt" stroke-linejoin="miter" fill="none"><path d="M 143.314 113.358 L 143.783 113.358 L 143.783 111.88 L 144.262 111.88 L 144.615 111.895 L 144.837 111.966 L 144.958 112.132 L 145.009 112.43 L 145.034 112.884 L 145.064 113.181 L 145.125 113.358 L 145.654 113.358 L 145.654 113.262 L 145.538 113.121 L 145.498 112.859 L 145.462 112.294 L 145.377 111.875 L 145.261 111.744 L 145.079 111.648 L 145.281 111.522 L 145.422 111.346 L 145.513 111.124 L 145.543 110.856 L 145.473 110.433 L 145.271 110.115 L 144.938 109.923 L 144.484 109.858 L 143.314 109.858 L 143.314 113.358 L 143.314 113.358 z M 144.353 110.286 L 144.661 110.317 L 144.877 110.413 L 145.014 110.589 L 145.059 110.866 L 145.009 111.159 L 144.872 111.335 L 144.64 111.426 L 144.323 111.451 L 143.783 111.451 L 143.783 110.286 L 144.353 110.286 L 144.353 110.286 z M 146.451 113.358 L 148.7 113.358 L 148.7 112.934 L 146.915 112.934 L 146.915 109.858 L 146.451 109.858 L 146.451 113.358 L 146.451 113.358 z M 149.305 112.026 L 149.376 112.657 L 149.598 113.106 L 149.971 113.363 L 150.511 113.454 L 151.045 113.363 L 151.419 113.106 L 151.64 112.662 L 151.716 112.026 L 151.716 109.858 L 151.247 109.858 L 151.247 112.052 L 151.202 112.48 L 151.065 112.788 L 150.833 112.969 L 150.511 113.03 L 150.178 112.969 L 149.946 112.788 L 149.81 112.485 L 149.769 112.052 L 149.769 109.858 L 149.305 109.858 L 149.305 112.026 L 149.305 112.026 z" stroke="none" fill-rule="evenodd" fill="rgb(0, 0, 0)"/></g><g stroke="rgb(0, 0, 0)" stroke-width="0.13" stroke-linecap="butt" stroke-linejoin="miter" fill="none"><path d="M 203.053 107.155 L 203.522 107.155 L 203.522 105.546 L 204.995 105.546 L 204.995 105.128 L 203.522 105.128 L 203.522 104.079 L 205.333 104.079 L 205.333 103.655 L 203.053 103.655 L 203.053 107.155 L 203.053 107.155 z M 206.099 107.155 L 208.349 107.155 L 208.349 106.732 L 206.563 106.732 L 206.563 103.655 L 206.099 103.655 L 206.099 107.155 L 206.099 107.155 z M 209.135 107.155 L 211.385 107.155 L 211.385 106.732 L 209.599 106.732 L 209.599 103.655 L 209.135 103.655 L 209.135 107.155 L 209.135 107.155 z M 212.585 106 L 213.805 106 L 213.805 105.602 L 212.585 105.602 L 212.585 106 L 212.585 106 z" stroke="none" fill-rule="evenodd" fill="rgb(0, 0, 0)"/></g><g stroke="rgb(0, 0, 0)" stroke-width="0.13" stroke-linecap="butt" stroke-linejoin="miter" fill="none"><path d="M 202.962 113.202 L 203.431 113.202 L 203.431 111.724 L 203.911 111.724 L 204.264 111.739 L 204.485 111.81 L 204.606 111.976 L 204.657 112.274 L 204.682 112.728 L 204.712 113.025 L 204.773 113.202 L 205.302 113.202 L 205.302 113.106 L 205.186 112.965 L 205.146 112.703 L 205.111 112.138 L 205.025 111.719 L 204.909 111.588 L 204.728 111.492 L 204.929 111.366 L 205.07 111.19 L 205.161 110.968 L 205.192 110.701 L 205.121 110.277 L 204.919 109.959 L 204.586 109.768 L 204.132 109.702 L 202.962 109.702 L 202.962 113.202 L 202.962 113.202 z M 204.001 110.131 L 204.309 110.161 L 204.526 110.257 L 204.662 110.433 L 204.707 110.711 L 204.657 111.003 L 204.521 111.18 L 204.289 111.27 L 203.971 111.296 L 203.431 111.296 L 203.431 110.131 L 204.001 110.131 L 204.001 110.131 z M 206.099 113.202 L 208.349 113.202 L 208.349 112.778 L 206.563 112.778 L 206.563 109.702 L 206.099 109.702 L 206.099 113.202 L 206.099 113.202 z M 210.154 109.702 L 208.989 109.702 L 208.989 113.202 L 210.154 113.202 L 210.704 113.091 L 211.112 112.753 L 211.364 112.203 L 211.455 111.452 L 211.375 110.685 L 211.274 110.383 L 211.132 110.141 L 210.724 109.813 L 210.457 109.732 L 210.154 109.702 L 210.154 109.702 z M 210.119 110.121 L 210.502 110.196 L 210.764 110.428 L 210.921 110.842 L 210.971 111.452 L 210.916 112.042 L 210.759 112.456 L 210.492 112.703 L 210.119 112.783 L 209.458 112.783 L 209.458 110.121 L 210.119 110.121 L 210.119 110.121 z" stroke="none" fill-rule="evenodd" fill="rgb(0, 0, 0)"/></g></svg>