<?xml version="1.0" encoding="utf-8"?>
<!-- Generator: Adobe Illustrator 22.1.0, SVG Export Plug-In . SVG Version: 6.00 Build 0)  -->
<svg version="1.1" id="Calque_1" dsy:text-version="18000" xmlns:dsy="http://www.3ds.com/print"
	 xmlns="http://www.w3.org/2000/svg" xmlns:xlink="http://www.w3.org/1999/xlink" x="0px" y="0px" viewBox="0 0 297 210"
	 style="enable-background:new 0 0 297 210;" xml:space="preserve">
<style type="text/css">
	.st0{fill:none;stroke:#000000;stroke-width:0.35;}
</style>
<path class="st0" d="M83.6,77c-1.5-10.9-11.6-18.4-22.4-16.9c-8.8,1.2-15.7,8.1-16.9,16.9"/>
<circle class="st0" cx="64" cy="79.7" r="9.1"/>
<path class="st0" d="M36.3,144.1l-1.5,0.5"/>
<path class="st0" d="M34.8,144.5L44.3,77"/>
<path class="st0" d="M71.7,136.3c-12.3-2.9-25.2-0.1-35.4,7.8"/>
<path class="st0" d="M90.9,128.9L83.6,77"/>
<path class="st0" d="M71.7,136.3l19.2-7.4"/>
<path class="st0" d="M151.6,73.2c-1.5-10.9-11.6-18.4-22.4-16.9c-8.8,1.2-15.7,8.1-16.9,16.9"/>
<circle class="st0" cx="132" cy="75.9" r="9.1"/>
<path class="st0" d="M161.6,144.2l-10-71"/>
<path class="st0" d="M161.6,144.2c-11.5-9.8-27-12.8-41-7.9"/>
<path class="st0" d="M104.4,130.1l8-56.9"/>
<path class="st0" d="M120.6,136.3l-16.3-6.3"/>
<path class="st0" d="M-329.8,373.3h785.2"/>
<path class="st0" d="M455.4,373.3v-538.6"/>
<path class="st0" d="M455.4-165.3h-785.2"/>
<path class="st0" d="M-329.8-165.3v538.6"/>
<path class="st0" d="M62.8-165.3v-28.3"/>
<path class="st0" d="M62.8,373.3v28.3"/>
<path class="st0" d="M-329.8,104h-28.3"/>
<path class="st0" d="M455.4,104h28.3"/>
<path class="st0" d="M-147.6,373.3v21.3"/>
<path class="st0" d="M273.1-165.3v-21.3"/>
<path class="st0" d="M-147.6-165.3v-21.3"/>
<path class="st0" d="M-329.8-44.8h-21.3"/>
<path class="st0" d="M455.4-44.8h21.3"/>
<path class="st0" d="M-329.8,252.8h-21.3"/>
<path class="st0" d="M455.4,252.8h21.3"/>
<path class="st0" d="M-79,380.3h283.5"/>
<path class="st0" d="M-79,373.3v14.2"/>
<path class="st0" d="M-50.6,373.3v7.1"/>
<path class="st0" d="M-22.3,373.3v7.1"/>
<path class="st0" d="M6.1,373.3v7.1"/>
<path class="st0" d="M34.4,373.3v7.1"/>
<path class="st0" d="M-83.2,373.3h538.6"/>
<path class="st0" d="M455.4,203.2v170.1"/>
<path d="M373.9,392.6h1.3l1-2.9h4l1,2.9h1.3l-3.6-9.9h-1.5L373.9,392.6L373.9,392.6z M376.7,388.5l1.5-4.4l1.5,4.4H376.7
	L376.7,388.5z"/>
<path d="M-252.7,382.7h-3.3v9.9h3.3l1.6-0.3l1.2-1l0.7-1.6l0.3-2.1l-0.2-2.2l-0.3-0.9l-0.4-0.7l-1.2-0.9l-0.8-0.2L-252.7,382.7
	L-252.7,382.7z M-252.8,383.9l1.1,0.2l0.7,0.7l0.4,1.2l0.1,1.7l-0.2,1.7l-0.4,1.2l-0.8,0.7l-1.1,0.2h-1.9v-7.5H-252.8L-252.8,383.9z
	"/>
<path d="M167.8-181.3l-0.8-1l-0.6-0.3l-0.7-0.1l-1.1,0.2l-0.8,0.6l-0.5,0.9l-0.2,1.3v3.5h9.9v-3.7l-0.2-1.3l-0.6-1l-0.9-0.6
	l-1.3-0.2l-0.8,0.1l-0.7,0.3l-0.5,0.6L167.8-181.3L167.8-181.3z M167.3-179.5v1.9h-2.9v-2.1l0.1-0.8l0.3-0.5l0.4-0.3l0.7-0.1
	l0.7,0.1l0.5,0.3l0.3,0.6L167.3-179.5L167.3-179.5z M171.9-179.8v2.3h-3.4v-2.1l0.1-0.9l0.3-0.6l0.5-0.4l0.7-0.1l0.8,0.1l0.5,0.4
	l0.3,0.6L171.9-179.8L171.9-179.8z"/>
<path d="M-40.9-181.8l1.2,0.3l0.9,0.5l0.5,0.7l0.2,0.8l-0.3,0.9l-0.8,0.7l-1.3,0.5l-1.7,0.2l-1.7-0.2l-1.3-0.5l-0.8-0.7l-0.3-0.9
	l0.1-0.7l0.4-0.6l0.6-0.5l0.9-0.3v-1.4l-1.4,0.4l-1,0.7l-0.6,1l-0.2,1.2l0.4,1.5l1,1.2l1.6,0.7l2.2,0.3l2.2-0.3l1.6-0.7l1-1.2
	l0.3-1.5l-0.3-1.3L-38-182l-1.2-0.8l-1.7-0.4V-181.8L-40.9-181.8z"/>
<path d="M383.5-175.1v-1.3l-2.9-1v-4l2.9-1v-1.3l-9.9,3.6v1.5L383.5-175.1L383.5-175.1z M379.3-178l-4.4-1.5l4.4-1.5V-178L379.3-178
	z"/>
<path d="M-257.5-179.5v3.3h9.9v-3.3l-0.3-1.6l-1-1.2l-1.6-0.7l-2.1-0.3l-2.2,0.2l-0.9,0.3l-0.7,0.4l-0.9,1.2l-0.2,0.8L-257.5-179.5
	L-257.5-179.5z M-256.3-179.4l0.2-1.1l0.7-0.7l1.2-0.4l1.7-0.1l1.7,0.2l1.2,0.4l0.7,0.8l0.2,1.1v1.9h-7.5V-179.4L-256.3-179.4z"/>
<path d="M465.9,31.6v0.1l0.2,1.4l0.7,1l1.1,0.7l1.4,0.2l1.5-0.2l1.1-0.6l0.7-1l0.3-1.3l-0.1-0.8l-0.3-0.7l-0.5-0.5l-0.7-0.4l0.9-0.8
	l0.3-1.2l-0.2-1.1l-0.6-0.8l-1-0.5l-1.4-0.2L468,25l-1,0.6l-0.6,1l-0.2,1.3v0.1h1.3l0.1-0.9l0.4-0.7l0.6-0.4l0.8-0.1l0.7,0.1
	l0.5,0.3l0.3,0.5l0.1,0.7l-0.1,0.7l-0.3,0.5L470,29l-0.8,0.1l-0.6,0v1.1l0.7,0l0.9,0.1l0.7,0.3l0.4,0.6l0.1,0.7l-0.2,0.8l-0.4,0.6
	l-0.7,0.4l-0.9,0.1l-0.9-0.1l-0.7-0.4l-0.4-0.7l-0.2-0.9H465.9L465.9,31.6z"/>
<path d="M-341.9,33.2h0.1l1.4-0.2l1-0.7l0.7-1.1l0.2-1.4l-0.2-1.5l-0.6-1.1l-1-0.7l-1.3-0.3l-0.8,0.1l-0.7,0.3l-0.5,0.5l-0.4,0.7
	l-0.8-0.9l-1.2-0.3l-1.1,0.2l-0.8,0.6l-0.5,1l-0.2,1.4l0.2,1.3l0.6,1l1,0.6l1.3,0.2h0.1v-1.3l-0.9-0.1l-0.7-0.4l-0.4-0.6l-0.1-0.8
	l0.1-0.7l0.3-0.5l0.5-0.3l0.7-0.1l0.7,0.1l0.5,0.3l0.3,0.6l0.1,0.8l0,0.6h1.1l0-0.7l0.1-0.9l0.3-0.7l0.6-0.4l0.7-0.1l0.8,0.2
	l0.6,0.4l0.4,0.7l0.1,0.9l-0.1,0.9l-0.4,0.7l-0.7,0.4l-0.9,0.2V33.2L-341.9,33.2z"/>
<path d="M466,183.6h6.8v-1.2h-5.4l0.3-0.7l0.5-0.6l1.6-1l0.8-0.4l0.9-0.6l0.7-0.7l0.4-0.8l0.1-1l-0.2-1.2l-0.7-0.9l-1-0.6l-1.3-0.2
	l-1.4,0.2l-1,0.7l-0.7,1.1l-0.2,1.4v0.2h1.3v-0.1l0.1-1l0.4-0.7l0.6-0.5l0.8-0.2l0.8,0.1l0.6,0.4l0.4,0.6l0.1,0.7l-0.1,0.7l-0.3,0.6
	l-0.5,0.5l-0.6,0.4l-0.8,0.5l-1.4,0.9l-1,0.9l-0.6,1.1L466,183.6L466,183.6L466,183.6z"/>
<path d="M-338.8,181.9V175h-1.2v5.4l-0.7-0.3l-0.6-0.5l-1-1.6l-0.4-0.8l-0.6-0.9l-0.7-0.7l-0.8-0.4l-1-0.1l-1.2,0.2l-0.9,0.7l-0.6,1
	l-0.2,1.3l0.2,1.4l0.7,1l1.1,0.7l1.4,0.2h0.2v-1.3h-0.1l-1-0.1l-0.7-0.4l-0.5-0.6l-0.2-0.8l0.1-0.8l0.4-0.6l0.6-0.4l0.7-0.1l0.7,0.1
	l0.6,0.3l0.5,0.5l0.4,0.6l0.5,0.8l0.9,1.4l0.9,1l1.1,0.6L-338.8,181.9L-338.8,181.9L-338.8,181.9z"/>
<path d="M470.3-114.1h1.3v-2.5h1.4v-1.1h-1.4v-6.1h-1.3l-4.3,6v1.3h4.4V-114.1L470.3-114.1z M467.2-117.7l3.2-4.4v4.4H467.2
	L467.2-117.7z"/>
<path d="M-338.8-120v-1.3h-2.5v-1.4h-1.1v1.4h-6.1v1.3l6,4.3h1.3v-4.4H-338.8L-338.8-120z M-342.4-116.9l-4.4-3.2h4.4V-116.9
	L-342.4-116.9z"/>
<path d="M469.3,332.4h1.3v-10h-1l-0.3,0.9l-0.5,0.6l-0.8,0.3l-1.1,0.1v1h2.3V332.4L469.3,332.4z"/>
<path d="M-338.8,327.5v-1.3h-10v1l0.9,0.3l0.6,0.5l0.3,0.8l0.1,1.1h1v-2.3H-338.8L-338.8,327.5z"/>
<path d="M106.9,262.6h-2.4v7.1h2.4l1.1-0.2l0.8-0.7l0.5-1.1l0.2-1.5l-0.2-1.6l-0.2-0.6l-0.3-0.5l-0.8-0.7l-0.5-0.2L106.9,262.6
	L106.9,262.6z M106.9,263.5l0.8,0.2l0.5,0.5l0.3,0.8l0.1,1.2l-0.1,1.2l-0.3,0.8l-0.5,0.5l-0.8,0.2h-1.3v-5.4H106.9L106.9,263.5z
	 M112.4,263.5h0.6l1.4-1.7h-1L112.4,263.5L112.4,263.5z M111.8,267.2h3.6l0-0.4l-0.2-1.2l-0.5-0.9l-0.7-0.5l-0.9-0.2l-0.9,0.2
	l-0.7,0.6l-0.5,0.9l-0.2,1.2l0.2,1.3l0.5,0.9l0.7,0.6l0.9,0.2l0.8-0.1l0.7-0.3l0.5-0.5l0.3-0.7h-0.9l-0.2,0.4l-0.3,0.3l-0.8,0.2
	l-0.6-0.1l-0.4-0.4l-0.3-0.6L111.8,267.2L111.8,267.2L111.8,267.2z M111.8,266.5l0.1-0.7l0.3-0.5l0.4-0.3l0.6-0.1l0.5,0.1l0.4,0.3
	l0.3,0.5l0.1,0.7H111.8L111.8,266.5z M119.8,266.5l-0.9-0.2l-0.6-0.2l-0.2-0.5l0.1-0.3l0.2-0.2l0.3-0.2l0.5-0.1l0.5,0.1l0.4,0.2
	l0.2,0.3l0.1,0.4h0.9v0l-0.2-0.7l-0.4-0.5l-0.7-0.3l-0.9-0.1l-0.9,0.1l-0.6,0.3l-0.4,0.5l-0.1,0.6l0.1,0.6l0.3,0.4l0.5,0.3l0.7,0.2
	l1,0.2l0.6,0.3l0.2,0.2l0.1,0.3l-0.1,0.4l-0.2,0.3l-0.4,0.2l-0.5,0.1l-0.6-0.1l-0.4-0.2l-0.3-0.3l-0.1-0.5h-0.9l0.1,0.8l0.4,0.6
	l0.7,0.4l0.9,0.1l1-0.1l0.7-0.4l0.4-0.6l0.2-0.7l-0.1-0.6L121,267l-0.5-0.3L119.8,266.5L119.8,266.5z M126,269v-4.5h-2.3v0.8h1.4
	v3.8h-1.8v0.8h4.6V269H126L126,269z M126,262.4h-0.9v1h0.9V262.4L126,262.4z M133.7,269.5v-5.2h-0.9v0.9l-0.7-0.8l-0.4-0.2l-0.5-0.1
	l-0.9,0.2l-0.7,0.6l-0.4,0.9l-0.2,1.2l0.2,1.2l0.4,0.9l0.7,0.6l0.9,0.2l0.5-0.1l0.4-0.2l0.7-0.8v0.8l-0.1,0.6l-0.2,0.4l-0.4,0.3
	l-0.6,0.1l-0.6-0.1l-0.4-0.2l-0.2-0.3l-0.1-0.4h-0.9v0l0.1,0.7l0.4,0.5l0.7,0.3l0.9,0.1l1.1-0.2l0.7-0.4l0.4-0.7L133.7,269.5
	L133.7,269.5z M130,267l0.1-0.9l0.3-0.7l0.4-0.4l0.6-0.1l0.6,0.1l0.5,0.4l0.3,0.7l0.1,0.9l-0.1,0.9l-0.3,0.7L132,269l-0.6,0.1
	l-0.6-0.1l-0.4-0.4l-0.3-0.7L130,267L130,267z M135.6,269.7h0.9v-3.2l0.1-0.7l0.3-0.5l0.5-0.3l0.6-0.1l0.5,0.1l0.3,0.3l0.2,0.5
	l0.1,0.6v3.4h0.9v-3.6l0-0.7l-0.2-0.6l-0.6-0.5l-0.9-0.2l-0.5,0.1l-0.4,0.2l-0.4,0.3l-0.3,0.4v-0.8h-0.9V269.7L135.6,269.7z
	 M145,269L145,269l0.1,0.4l0.2,0.2l0.6,0.2l0.5-0.1V269l-0.2,0l-0.3-0.1l-0.1-0.4v-2.8l-0.1-0.7l-0.4-0.5l-0.6-0.3l-0.9-0.1
	l-0.9,0.1l-0.6,0.3l-0.4,0.5l-0.1,0.7v0.1h0.8l0.1-0.4l0.2-0.3l0.4-0.2l0.5-0.1l0.5,0.1l0.4,0.2l0.2,0.3l0.1,0.4l0,0.4l-0.2,0.2
	l-0.4,0.1l-0.8,0.1l-0.9,0.2L142,267l-0.4,0.5l-0.1,0.8l0.1,0.7l0.3,0.5l0.5,0.3l0.7,0.1l0.9-0.2L145,269L145,269z M144.9,267.8
	l-0.1,0.5l-0.3,0.4l-0.5,0.3l-0.6,0.1l-0.4-0.1l-0.3-0.2l-0.2-0.3l-0.1-0.4l0-0.4l0.2-0.3l0.7-0.3l0.8-0.1l0.7-0.2V267.8
	L144.9,267.8z M149.1,265.2v2.7l0.1,0.9l0.3,0.6l0.6,0.4l1,0.1l1.1-0.1v-0.8l-0.8,0.1l-0.7-0.1l-0.4-0.3l-0.2-0.4l0-0.6v-2.6h2.1
	v-0.8H150v-1.6h-0.9v1.6h-1.6v0.8H149.1L149.1,265.2z M156.8,269v-4.5h-2.3v0.8h1.4v3.8H154v0.8h4.6V269H156.8L156.8,269z
	 M156.8,262.4h-0.9v1h0.9V262.4L156.8,262.4z M159.9,267l0.2,1.2l0.5,0.9l0.7,0.6l1,0.2l1-0.2l0.7-0.6l0.5-0.9l0.2-1.3l-0.2-1.2
	l-0.5-0.9l-0.7-0.6l-1-0.2l-1,0.2l-0.7,0.6l-0.5,0.9L159.9,267L159.9,267z M160.8,267l0.1-0.9l0.3-0.7l0.5-0.4l0.6-0.1l0.6,0.1
	l0.5,0.4l0.3,0.7l0.1,0.9l-0.1,0.9l-0.3,0.7l-0.5,0.4l-0.6,0.1l-0.6-0.1l-0.5-0.4l-0.3-0.7L160.8,267L160.8,267z M166.3,269.7h0.9
	v-3.2l0.1-0.7l0.3-0.5l0.5-0.3l0.6-0.1l0.5,0.1l0.3,0.3l0.2,0.5l0.1,0.6v3.4h0.9v-3.6l0-0.7l-0.2-0.6l-0.6-0.5l-0.9-0.2l-0.5,0.1
	l-0.4,0.2l-0.4,0.3l-0.3,0.4v-0.8h-0.9V269.7L166.3,269.7z"/>
<path d="M81.8,303.7h1.7v-5.9h5.4v-1.5h-5.4v-3.8h6.6V291h-8.3V303.7L81.8,303.7z M93.4,303.7h1.6v-5.6l0.2-1.4l0.5-1l0.8-0.6
	l1.1-0.2l0.8,0.1l0.6,0.4l0.4,0.6l0.1,0.8h1.6l-0.2-1.5l-0.6-1.1l-1-0.6l-1.4-0.2l-0.9,0.1l-0.8,0.4l-0.7,0.6l-0.6,0.8v-1.6h-1.5
	V303.7L93.4,303.7z M103.4,298.8l0.3,2.2l0.8,1.7l1.3,1l1.8,0.3l1.8-0.3l1.3-1l0.8-1.7l0.3-2.3l-0.3-2.2l-0.8-1.7l-1.3-1l-1.8-0.4
	l-1.8,0.4l-1.3,1l-0.8,1.7L103.4,298.8L103.4,298.8z M105.1,298.8l0.2-1.7l0.5-1.2l0.8-0.7l1.1-0.3l1.1,0.3l0.8,0.7l0.5,1.2l0.2,1.7
	l-0.2,1.7l-0.5,1.2l-0.8,0.7l-1.1,0.2l-1.1-0.2l-0.8-0.7l-0.5-1.2L105.1,298.8L105.1,298.8z M115,303.7h1.6V298l0.2-1.3l0.5-1
	l0.8-0.6l1.1-0.2l0.9,0.2l0.5,0.5l0.3,0.8l0.1,1.1v6.2h1.6v-6.5l-0.1-1.3l-0.3-1.1l-1.1-1l-1.7-0.3l-0.9,0.1l-0.8,0.3l-0.7,0.6
	l-0.5,0.8v-1.5H115V303.7L115,303.7z M128.2,295.6v4.9l0.1,1.6l0.5,1.1l1,0.6l1.7,0.2l1.9-0.1v-1.4l-1.4,0.1l-1.3-0.1l-0.7-0.5
	l-0.3-0.8l-0.1-1.1v-4.7h3.7v-1.4h-3.7v-2.9h-1.6v2.9h-2.8v1.4H128.2L128.2,295.6z M148.2,303.7h8.2v-1.5h-6.5V291h-1.7V303.7
	L148.2,303.7z M160.6,299.3h6.5l0-0.8l-0.3-2.1l-0.8-1.6l-1.3-1l-1.7-0.3l-1.7,0.4l-1.3,1l-0.8,1.7l-0.3,2.2l0.3,2.3l0.8,1.7l1.3,1
	l1.7,0.3l1.4-0.2l1.2-0.6l0.9-1l0.5-1.3h-1.6l-0.3,0.7l-0.5,0.5l-1.4,0.4l-1-0.2l-0.8-0.6l-0.5-1L160.6,299.3L160.6,299.3
	L160.6,299.3z M160.6,297.9l0.2-1.3l0.5-0.9l0.8-0.6l1-0.2l1,0.2l0.8,0.6l0.5,0.9l0.2,1.3H160.6L160.6,297.9z M172.5,295.6v8.2h1.6
	v-8.2h3.7v-1.4h-3.7v-0.6l0.1-0.7l0.4-0.5l0.7-0.3l1-0.1l1.4,0.1v-1.4l-1.7-0.1l-1.6,0.2l-1.1,0.5l-0.7,0.9l-0.2,1.2v0.9h-3v1.4
	H172.5L172.5,295.6z M183.5,295.6v4.9l0.1,1.6l0.5,1.1l1,0.6l1.7,0.2l1.9-0.1v-1.4l-1.4,0.1l-1.3-0.1l-0.7-0.5l-0.3-0.8l-0.1-1.1
	v-4.7h3.7v-1.4h-3.7v-2.9h-1.6v2.9h-2.8v1.4H183.5L183.5,295.6z M203.6,303.7h8.2v-1.5h-6.5V291h-1.7V303.7L203.6,303.7z
	 M214.1,298.8l0.3,2.2l0.8,1.7l1.3,1l1.8,0.3l1.8-0.3l1.3-1l0.8-1.7l0.3-2.3l-0.3-2.2l-0.8-1.7l-1.3-1l-1.8-0.4l-1.8,0.4l-1.3,1
	l-0.8,1.7L214.1,298.8L214.1,298.8z M215.7,298.8l0.2-1.7l0.5-1.2l0.8-0.7l1.1-0.3l1.1,0.3l0.8,0.7l0.5,1.2l0.2,1.7l-0.2,1.7
	l-0.5,1.2l-0.8,0.7l-1.1,0.2l-1.1-0.2l-0.8-0.7l-0.5-1.2L215.7,298.8L215.7,298.8z M227.9,303.7l1.5-8.4l1.5,8.4h1.5l2.4-9.9h-1.6
	l-1.6,8.4l-1.5-8.4h-1.6l-1.5,8.4l-1.6-8.4H224l2.4,9.9H227.9L227.9,303.7z M238.1,299.3h6.5l0-0.8l-0.3-2.1l-0.8-1.6l-1.3-1
	l-1.7-0.3l-1.7,0.4l-1.3,1l-0.8,1.7l-0.3,2.2l0.3,2.3l0.8,1.7l1.3,1l1.7,0.3l1.4-0.2l1.2-0.6l0.9-1l0.5-1.3h-1.6l-0.3,0.7l-0.5,0.5
	l-1.4,0.4l-1-0.2l-0.8-0.6l-0.5-1L238.1,299.3L238.1,299.3L238.1,299.3z M238.1,297.9l0.2-1.3l0.5-0.9l0.8-0.6l1-0.2l1,0.2l0.8,0.6
	l0.5,0.9l0.2,1.3H238.1L238.1,297.9z M248.3,303.7h1.6v-5.6l0.2-1.4l0.5-1l0.8-0.6l1.1-0.2l0.8,0.1l0.6,0.4l0.4,0.6l0.1,0.8h1.6
	l-0.2-1.5l-0.6-1.1l-1-0.6l-1.4-0.2l-0.9,0.1l-0.8,0.4l-0.7,0.6l-0.6,0.8v-1.6h-1.5V303.7L248.3,303.7z M268.1,303.7h1.7l1.3-3.8
	h5.1l1.3,3.8h1.7l-4.7-12.8h-1.9L268.1,303.7L268.1,303.7z M271.7,298.4l2-5.6l2,5.6H271.7L271.7,298.4z M282.5,299.5h4.4v-1.5h-4.4
	V299.5L282.5,299.5z M290.2,303.7h1.7l1.3-3.8h5.1l1.3,3.8h1.7l-4.7-12.8h-1.9L290.2,303.7L290.2,303.7z M293.8,298.4l2-5.6l2,5.6
	H293.8L293.8,298.4z M303.7,303.7h1.6v-5.6l0.2-1.4l0.5-1l0.8-0.6l1.1-0.2l0.8,0.1l0.6,0.4l0.4,0.6l0.1,0.8h1.6l-0.2-1.5l-0.6-1.1
	l-1-0.6l-1.4-0.2l-0.9,0.1l-0.8,0.4l-0.7,0.6l-0.6,0.8v-1.6h-1.5V303.7L303.7,303.7z M313.5,303.7h1.5v-6.6l0.1-1l0.3-0.7l0.4-0.4
	l0.6-0.2l0.4,0.1l0.3,0.4l0.1,0.6l0.1,0.8v6.9h1.4v-6.6l0.1-1l0.3-0.7l0.4-0.4l0.6-0.2l0.4,0.1l0.3,0.4l0.2,1.5v6.9h1.5v-6.8
	l-0.1-1.4l-0.3-1.1l-0.6-0.7l-1-0.2l-1.1,0.4l-0.9,1.1l-0.7-1l-1.1-0.4l-1,0.4l-0.7,1v-1h-1.4V303.7L313.5,303.7z M336,303.7h1.7
	v-5.4h1.7l1.3,0.1l0.8,0.3l0.4,0.6l0.2,1.1l0.1,1.7l0.1,1.1l0.2,0.6h1.9v-0.3l-0.4-0.5l-0.1-1l-0.1-2.1l-0.3-1.5l-0.4-0.5l-0.7-0.3
	l0.7-0.5l0.5-0.6l0.3-0.8l0.1-1l-0.3-1.5l-0.7-1.2l-1.2-0.7l-1.7-0.2H336V303.7L336,303.7z M339.8,292.5l1.1,0.1l0.8,0.3l0.5,0.6
	l0.2,1l-0.2,1.1l-0.5,0.6l-0.8,0.3l-1.2,0.1h-2v-4.2H339.8L339.8,292.5z M348.7,299.3h6.5l0-0.8l-0.3-2.1l-0.8-1.6l-1.3-1l-1.7-0.3
	l-1.7,0.4l-1.3,1l-0.8,1.7l-0.3,2.2l0.3,2.3l0.8,1.7l1.3,1l1.7,0.3l1.4-0.2l1.2-0.6l0.9-1l0.5-1.3h-1.6l-0.3,0.7l-0.5,0.5l-1.4,0.4
	l-1-0.2l-0.8-0.6l-0.5-1L348.7,299.3L348.7,299.3L348.7,299.3z M348.7,297.9l0.2-1.3l0.5-0.9l0.8-0.6l1-0.2l1,0.2l0.8,0.6l0.5,0.9
	l0.2,1.3H348.7L348.7,297.9z M364.3,302.4L364.3,302.4l0.1,0.7l0.3,0.4l1.2,0.4l0.9-0.1v-1.3l-0.4,0.1l-0.5-0.2l-0.1-0.7v-5.1
	l-0.2-1.3l-0.6-0.9l-1.1-0.5l-1.6-0.2l-1.5,0.2l-1.1,0.6l-0.7,1l-0.2,1.3v0.1h1.5l0.1-0.8l0.4-0.6l0.7-0.3l0.9-0.1l0.9,0.1l0.6,0.3
	l0.4,0.5l0.1,0.7l-0.1,0.8l-0.3,0.4l-0.7,0.2l-1.4,0.1l-1.6,0.3l-1.1,0.6l-0.7,0.9l-0.2,1.4l0.2,1.2l0.6,0.9l0.9,0.6l1.3,0.2
	l1.7-0.4L364.3,302.4L364.3,302.4z M364.1,300.3l-0.2,1l-0.6,0.7l-0.9,0.5l-1.1,0.2l-0.7-0.1l-0.5-0.3l-0.3-0.5l-0.1-0.7l0.1-0.6
	l0.3-0.5l1.2-0.5l1.5-0.2l1.3-0.4V300.3L364.1,300.3z M370.1,303.7h1.6v-5.6l0.2-1.4l0.5-1l0.8-0.6l1.1-0.2l0.8,0.1l0.6,0.4l0.4,0.6
	l0.1,0.8h1.6l-0.2-1.5l-0.6-1.1l-1-0.6l-1.4-0.2l-0.9,0.1l-0.8,0.4l-0.7,0.6l-0.6,0.8v-1.6h-1.5V303.7L370.1,303.7z M391.7,303.7
	h8.2v-1.5h-6.5V291h-1.7V303.7L391.7,303.7z M402.2,298.8l0.3,2.2l0.8,1.7l1.3,1l1.8,0.3l1.8-0.3l1.3-1l0.8-1.7l0.3-2.3l-0.3-2.2
	l-0.8-1.7l-1.3-1l-1.8-0.4l-1.8,0.4l-1.3,1l-0.8,1.7L402.2,298.8L402.2,298.8z M403.8,298.8l0.2-1.7l0.5-1.2l0.8-0.7l1.1-0.3
	l1.1,0.3l0.8,0.7l0.5,1.2l0.2,1.7l-0.2,1.7l-0.5,1.2l-0.8,0.7l-1.1,0.2l-1.1-0.2l-0.8-0.7l-0.5-1.2L403.8,298.8L403.8,298.8z
	 M416,303.7l1.5-8.4l1.5,8.4h1.5l2.4-9.9h-1.6l-1.6,8.4l-1.5-8.4h-1.6l-1.5,8.4l-1.6-8.4h-1.5l2.4,9.9H416L416,303.7z M426.2,299.3
	h6.5l0-0.8l-0.3-2.1l-0.8-1.6l-1.3-1l-1.7-0.3l-1.7,0.4l-1.3,1l-0.8,1.7l-0.3,2.2l0.3,2.3l0.8,1.7l1.3,1l1.7,0.3l1.4-0.2l1.2-0.6
	l0.9-1l0.5-1.3h-1.6l-0.3,0.7l-0.5,0.5l-1.4,0.4l-1-0.2l-0.8-0.6l-0.5-1L426.2,299.3L426.2,299.3L426.2,299.3z M426.2,297.9l0.2-1.3
	l0.5-0.9l0.8-0.6l1-0.2l1,0.2l0.8,0.6l0.5,0.9l0.2,1.3H426.2L426.2,297.9z M436.5,303.7h1.6v-5.6l0.2-1.4l0.5-1l0.8-0.6l1.1-0.2
	l0.8,0.1l0.6,0.4l0.4,0.6l0.1,0.8h1.6l-0.2-1.5l-0.6-1.1l-1-0.6l-1.4-0.2l-0.9,0.1l-0.8,0.4l-0.7,0.6l-0.6,0.8v-1.6h-1.5V303.7
	L436.5,303.7z"/>
<path d="M48.3,110.5h1.3V106h4.2v-1.2h-4.2v-3h5.1v-1.2h-6.5V110.5L48.3,110.5z M57,110.5h6.4v-1.2h-5.1v-8.7H57V110.5L57,110.5z
	 M65.6,110.5h6.4v-1.2h-5.1v-8.7h-1.3V110.5L65.6,110.5z M75.3,107.2h3.5v-1.1h-3.5V107.2L75.3,107.2z"/>
<path d="M48.1,127.7h1.3v-4.2h1.4l1,0l0.6,0.2l0.3,0.5l0.1,0.8l0.1,1.3l0.1,0.8l0.2,0.5h1.5v-0.3l-0.3-0.4l-0.1-0.7l-0.1-1.6
	l-0.2-1.2l-0.3-0.4l-0.5-0.3l0.6-0.4L54,122l0.3-0.6l0.1-0.8l-0.2-1.2l-0.6-0.9l-0.9-0.5l-1.3-0.2h-3.3V127.7L48.1,127.7z M51,119
	l0.9,0.1l0.6,0.3l0.4,0.5l0.1,0.8l-0.1,0.8l-0.4,0.5l-0.7,0.3l-0.9,0.1h-1.5V119H51L51,119z M57,127.7h6.4v-1.2h-5.1v-8.7H57V127.7
	L57,127.7z M65,123.9l0.2,1.8l0.6,1.3l1.1,0.7l1.5,0.3l1.5-0.3l1.1-0.7l0.6-1.3l0.2-1.8v-6.1h-1.3v6.2l-0.1,1.2L70,126l-0.7,0.5
	l-0.9,0.2l-0.9-0.2l-0.7-0.5l-0.4-0.9l-0.1-1.2v-6.2H65V123.9L65,123.9z"/>
<path d="M116.4,106.7h1.3v-4.6h4.2V101h-4.2v-3h5.1v-1.2h-6.5V106.7L116.4,106.7z M125,106.7h6.4v-1.2h-5.1v-8.7H125V106.7
	L125,106.7z M133.6,106.7h6.4v-1.2h-5.1v-8.7h-1.3V106.7L133.6,106.7z M143.4,103.4h3.5v-1.1h-3.5V103.4L143.4,103.4z"/>
<path d="M116.1,123.9h1.3v-4.2h1.4l1,0l0.6,0.2l0.3,0.5l0.1,0.8l0.1,1.3l0.1,0.8l0.2,0.5h1.5v-0.3l-0.3-0.4l-0.1-0.7l-0.1-1.6
	l-0.2-1.2l-0.3-0.4l-0.5-0.3l0.6-0.4l0.4-0.5l0.3-0.6l0.1-0.8l-0.2-1.2l-0.6-0.9l-0.9-0.5l-1.3-0.2h-3.3V123.9L116.1,123.9z
	 M119,115.2l0.9,0.1l0.6,0.3l0.4,0.5l0.1,0.8l-0.1,0.8l-0.4,0.5l-0.7,0.3l-0.9,0.1h-1.5v-3.3H119L119,115.2z M125,123.9h6.4v-1.2
	h-5.1v-8.7H125V123.9L125,123.9z M136.5,113.9h-3.3v9.9h3.3l1.6-0.3l1.2-1l0.7-1.6l0.3-2.1l-0.2-2.2l-0.3-0.9l-0.4-0.7l-1.2-0.9
	l-0.8-0.2L136.5,113.9L136.5,113.9z M136.4,115.1l1.1,0.2l0.7,0.7l0.4,1.2l0.1,1.7l-0.2,1.7l-0.4,1.2l-0.8,0.7l-1.1,0.2h-1.9v-7.5
	H136.4L136.4,115.1z"/>
</svg>
