<?xml version="1.0" encoding="utf-8"?>
<!-- Generator: Adobe Illustrator 22.1.0, SVG Export Plug-In . SVG Version: 6.00 Build 0)  -->
<svg version="1.1" id="Calque_1" dsy:text-version="18000" xmlns:dsy="http://www.3ds.com/print"
	 xmlns="http://www.w3.org/2000/svg" xmlns:xlink="http://www.w3.org/1999/xlink" x="0px" y="0px" viewBox="0 0 297 210"
	 style="enable-background:new 0 0 297 210;" xml:space="preserve">
<style type="text/css">
	.st0{fill:none;stroke:#000000;stroke-width:0.35;}
</style>
<path class="st0" d="M169.2,76.7c-1.3-10.9-11.2-18.6-22.1-17.3c-9.1,1.1-16.3,8.3-17.3,17.3"/>
<circle class="st0" cx="149.5" cy="79" r="9.1"/>
<path class="st0" d="M121,150.2l8.8-73.5"/>
<path class="st0" d="M176.8,140.3l-7.6-63.6"/>
<path class="st0" d="M176.8,140.3c-14.4-13.7-36.9-13-50.1,1.6c-2.2,2.5-4.1,5.3-5.6,8.3"/>
<path class="st0" d="M235.7,76.7c-1.3-10.9-11.2-18.7-22-17.4c-9.1,1.1-16.3,8.3-17.4,17.4"/>
<circle class="st0" cx="216" cy="79.1" r="9.1"/>
<path class="st0" d="M245.1,155.4l-9.4-78.7"/>
<path class="st0" d="M188.5,142.5l7.8-65.8"/>
<path class="st0" d="M245.1,155.4c-7.3-18.5-27.9-27.3-46.1-19.6c-3.9,1.6-7.4,3.9-10.5,6.8"/>
<path class="st0" d="M-244.1,376.6h785.2"/>
<path class="st0" d="M541.1,376.6V-162"/>
<path class="st0" d="M541.1-162h-785.2"/>
<path class="st0" d="M-244.1-162v538.6"/>
<path class="st0" d="M148.5-162v-28.3"/>
<path class="st0" d="M-244.1,107.3h-28.3"/>
<path class="st0" d="M541.1,107.3h28.3"/>
<path class="st0" d="M358.8,376.6v21.3"/>
<path class="st0" d="M-61.8,376.6v21.3"/>
<path class="st0" d="M358.8-162v-21.3"/>
<path class="st0" d="M-61.8-162v-21.3"/>
<path class="st0" d="M-244.1-41.5h-21.3"/>
<path class="st0" d="M541.1-41.5h21.3"/>
<path class="st0" d="M-244.1,256.1h-21.3"/>
<path class="st0" d="M541.1,256.1h21.3"/>
<path class="st0" d="M290.2,376.6v14.2"/>
<path class="st0" d="M261.9,376.6v7.1"/>
<path class="st0" d="M233.5,376.6v7.1"/>
<path class="st0" d="M205.2,376.6v7.1"/>
<path class="st0" d="M541.1,206.5v170.1"/>
<g>
	<path d="M459.7,396h1.3l1-2.9h4l1,2.9h1.3l-3.6-9.9h-1.5L459.7,396L459.7,396z M462.5,391.8l1.5-4.4l1.5,4.4H462.5L462.5,391.8z"/>
</g>
<g>
	<path d="M-167,386h-3.3v9.9h3.3l1.6-0.3l1.2-1l0.7-1.6l0.3-2.1l-0.2-2.2l-0.3-0.9l-0.4-0.7l-1.2-0.9l-0.8-0.2L-167,386L-167,386z
		 M-167.1,387.2l1.1,0.2l0.7,0.7l0.4,1.2l0.1,1.7l-0.2,1.7l-0.4,1.2l-0.8,0.7l-1.1,0.2h-1.9v-7.5H-167.1L-167.1,387.2z"/>
</g>
<g>
	<path d="M253.5-178l-0.8-1l-0.6-0.3l-0.7-0.1l-1.1,0.2l-0.8,0.6l-0.5,0.9l-0.2,1.3v3.5h9.9v-3.7l-0.2-1.3l-0.6-1l-0.9-0.6l-1.3-0.2
		l-0.8,0.1l-0.7,0.3l-0.5,0.6L253.5-178L253.5-178z M253.1-176.1v1.9h-2.9v-2.1l0.1-0.8l0.3-0.5l0.4-0.3l0.7-0.1l0.7,0.1l0.5,0.3
		l0.3,0.6L253.1-176.1L253.1-176.1z M257.7-176.4v2.3h-3.4v-2.1l0.1-0.9l0.3-0.6l0.5-0.4l0.7-0.1l0.8,0.1l0.5,0.4l0.3,0.6
		L257.7-176.4L257.7-176.4z"/>
</g>
<g>
	<path d="M44.8-178.5l1.2,0.3l0.9,0.5l0.5,0.7l0.2,0.8l-0.3,0.9l-0.8,0.7l-1.3,0.5l-1.7,0.2l-1.7-0.2l-1.3-0.5l-0.8-0.7l-0.3-0.9
		l0.1-0.7l0.4-0.6l0.6-0.5l0.9-0.3v-1.4l-1.4,0.4l-1,0.7l-0.6,1l-0.2,1.2l0.4,1.5l1,1.2l1.6,0.7l2.2,0.3l2.2-0.3l1.6-0.7l1-1.2
		l0.3-1.5l-0.3-1.3l-0.8-1.1l-1.2-0.8l-1.7-0.4V-178.5L44.8-178.5z"/>
</g>
<g>
	<path d="M469.2-171.8v-1.3l-2.9-1v-4l2.9-1v-1.3l-9.9,3.6v1.5L469.2-171.8L469.2-171.8z M465.1-174.6l-4.4-1.5l4.4-1.5V-174.6
		L465.1-174.6z"/>
</g>
<g>
	<path d="M-171.7-176.2v3.3h9.9v-3.3l-0.3-1.6l-1-1.2l-1.6-0.7l-2.1-0.3l-2.2,0.2l-0.9,0.3l-0.7,0.4l-0.9,1.2l-0.2,0.8L-171.7-176.2
		L-171.7-176.2z M-170.5-176.1l0.2-1.1l0.7-0.7l1.2-0.4l1.7-0.1l1.7,0.2l1.2,0.4l0.7,0.8l0.2,1.1v1.9h-7.5V-176.1L-170.5-176.1z"/>
</g>
<g>
	<path d="M551.7,35v0.1l0.2,1.4l0.7,1l1.1,0.7l1.4,0.2l1.5-0.2l1.1-0.6l0.7-1l0.3-1.3l-0.1-0.8l-0.3-0.7l-0.5-0.5l-0.7-0.4l0.9-0.8
		l0.3-1.2l-0.2-1.1l-0.6-0.8l-1-0.5l-1.4-0.2l-1.3,0.2l-1,0.6l-0.6,1l-0.2,1.3v0.1h1.3l0.1-0.9l0.4-0.7l0.6-0.4l0.8-0.1l0.7,0.1
		l0.5,0.3l0.3,0.5l0.1,0.7l-0.1,0.7l-0.3,0.5l-0.6,0.3l-0.8,0.1l-0.6,0v1.1l0.7,0l0.9,0.1l0.7,0.3l0.4,0.6l0.1,0.7l-0.2,0.8
		l-0.4,0.6L556,37l-0.9,0.1l-0.9-0.1l-0.7-0.4l-0.4-0.7L553,35H551.7L551.7,35z"/>
</g>
<g>
	<path d="M-256.2,36.5h0.1l1.4-0.2l1-0.7l0.7-1.1l0.2-1.4l-0.2-1.5l-0.6-1.1l-1-0.7l-1.3-0.3l-0.8,0.1l-0.7,0.3l-0.5,0.5l-0.4,0.7
		l-0.8-0.9l-1.2-0.3l-1.1,0.2l-0.8,0.6l-0.5,1l-0.2,1.4l0.2,1.3l0.6,1l1,0.6l1.3,0.2h0.1V35l-0.9-0.1l-0.7-0.4l-0.4-0.6l-0.1-0.8
		l0.1-0.7l0.3-0.5l0.5-0.3l0.7-0.1l0.7,0.1l0.5,0.3l0.3,0.6l0.1,0.8l0,0.6h1.1l0-0.7l0.1-0.9l0.3-0.7l0.6-0.4l0.7-0.1l0.8,0.2
		l0.6,0.4l0.4,0.7l0.1,0.9l-0.1,0.9l-0.4,0.7l-0.7,0.4l-0.9,0.2V36.5L-256.2,36.5z"/>
</g>
<g>
	<path d="M551.8,186.9h6.8v-1.2h-5.4l0.3-0.7l0.5-0.6l1.6-1l0.8-0.4l0.9-0.6l0.7-0.7l0.4-0.8l0.1-1l-0.2-1.2l-0.7-0.9l-1-0.6
		l-1.3-0.2l-1.4,0.2l-1,0.7l-0.7,1.1l-0.2,1.4v0.2h1.3v-0.1l0.1-1l0.4-0.7l0.6-0.5l0.8-0.2l0.8,0.1l0.6,0.4l0.4,0.6l0.1,0.7
		l-0.1,0.7l-0.3,0.6l-0.5,0.5l-0.6,0.4l-0.8,0.5l-1.4,0.9l-1,0.9l-0.6,1.1L551.8,186.9L551.8,186.9L551.8,186.9z"/>
</g>
<g>
	<path d="M-253.1,185.2v-6.8h-1.2v5.4l-0.7-0.3l-0.6-0.5l-1-1.6l-0.4-0.8l-0.6-0.9l-0.7-0.7l-0.8-0.4l-1-0.1l-1.2,0.2l-0.9,0.7
		l-0.6,1l-0.2,1.3l0.2,1.4l0.7,1l1.1,0.7l1.4,0.2h0.2v-1.3h-0.1l-1-0.1l-0.7-0.4l-0.5-0.6l-0.2-0.8l0.1-0.8l0.4-0.6l0.6-0.4l0.7-0.1
		l0.7,0.1l0.6,0.3l0.5,0.5l0.4,0.6l0.5,0.8l0.9,1.4l0.9,1l1.1,0.6L-253.1,185.2L-253.1,185.2L-253.1,185.2z"/>
</g>
<g>
	<path d="M556.1-110.7h1.3v-2.5h1.4v-1.1h-1.4v-6.1H556l-4.3,6v1.3h4.4V-110.7L556.1-110.7z M552.9-114.3l3.2-4.4v4.4H552.9
		L552.9-114.3z"/>
</g>
<g>
	<path d="M-253.1-116.7v-1.3h-2.5v-1.4h-1.1v1.4h-6.1v1.3l6,4.3h1.3v-4.4H-253.1L-253.1-116.7z M-256.7-113.6l-4.4-3.2h4.4V-113.6
		L-256.7-113.6z"/>
</g>
<g>
	<path d="M555,335.7h1.3v-10h-1l-0.3,0.9l-0.5,0.6l-0.8,0.3l-1.1,0.1v1h2.3V335.7L555,335.7z"/>
</g>
<g>
	<path d="M-253.1,330.8v-1.3h-10v1l0.9,0.3l0.6,0.5l0.3,0.8l0.1,1.1h1v-2.3H-253.1L-253.1,330.8z"/>
</g>
<g>
	<path d="M192.7,291.5h-2.4v7.1h2.4l1.1-0.2l0.8-0.7l0.5-1.1l0.2-1.5l-0.2-1.6l-0.2-0.6l-0.3-0.5l-0.8-0.7l-0.5-0.2L192.7,291.5
		L192.7,291.5z M192.6,292.3l0.8,0.2l0.5,0.5l0.3,0.8l0.1,1.2l-0.1,1.2l-0.3,0.8l-0.5,0.5l-0.8,0.2h-1.3v-5.4H192.6L192.6,292.3z
		 M198.1,292.3h0.6l1.4-1.7h-1L198.1,292.3L198.1,292.3z M197.5,296.1h3.6l0-0.4l-0.2-1.2l-0.5-0.9l-0.7-0.5l-0.9-0.2l-0.9,0.2
		l-0.7,0.6l-0.5,0.9l-0.2,1.2l0.2,1.3l0.5,0.9l0.7,0.6l0.9,0.2l0.8-0.1l0.7-0.3l0.5-0.5l0.3-0.7h-0.9l-0.2,0.4l-0.3,0.3l-0.8,0.2
		l-0.6-0.1l-0.4-0.4l-0.3-0.6L197.5,296.1L197.5,296.1L197.5,296.1z M197.5,295.3l0.1-0.7l0.3-0.5l0.4-0.3l0.6-0.1l0.5,0.1l0.4,0.3
		l0.3,0.5l0.1,0.7H197.5L197.5,295.3z M205.5,295.3l-0.9-0.2l-0.6-0.2l-0.2-0.5l0.1-0.3l0.2-0.2l0.3-0.2l0.5-0.1l0.5,0.1l0.4,0.2
		l0.2,0.3l0.1,0.4h0.9v0l-0.2-0.7l-0.4-0.5l-0.7-0.3l-0.9-0.1l-0.9,0.1l-0.6,0.3l-0.4,0.5l-0.1,0.6l0.1,0.6l0.3,0.4l0.5,0.3l0.7,0.2
		l1,0.2l0.6,0.3l0.2,0.2l0.1,0.3l-0.1,0.4l-0.2,0.3l-0.4,0.2l-0.5,0.1l-0.6-0.1l-0.4-0.2l-0.3-0.3l-0.1-0.5h-0.9l0.1,0.8l0.4,0.6
		l0.7,0.4l0.9,0.1l1-0.1l0.7-0.4l0.4-0.6l0.2-0.7l-0.1-0.6l-0.3-0.4l-0.5-0.3L205.5,295.3L205.5,295.3z M211.7,297.8v-4.5h-2.3v0.8
		h1.4v3.8H209v0.8h4.6v-0.8H211.7L211.7,297.8z M211.8,291.2h-0.9v1h0.9V291.2L211.8,291.2z M219.4,298.3v-5.2h-0.9v0.9l-0.7-0.8
		l-0.4-0.2l-0.5-0.1l-0.9,0.2l-0.7,0.6l-0.4,0.9l-0.2,1.2l0.2,1.2l0.4,0.9l0.7,0.6l0.9,0.2l0.5-0.1l0.4-0.2l0.7-0.8v0.8l-0.1,0.6
		l-0.2,0.4l-0.4,0.3l-0.6,0.1l-0.6-0.1l-0.4-0.2l-0.2-0.3l-0.1-0.4H215v0l0.1,0.7l0.4,0.5l0.7,0.3l0.9,0.1l1.1-0.2l0.7-0.4l0.4-0.7
		L219.4,298.3L219.4,298.3z M215.7,295.8l0.1-0.9l0.3-0.7l0.4-0.4l0.6-0.1l0.6,0.1l0.5,0.4l0.3,0.7l0.1,0.9l-0.1,0.9l-0.3,0.7
		l-0.5,0.4l-0.6,0.1l-0.6-0.1l-0.4-0.4l-0.3-0.7L215.7,295.8L215.7,295.8z M221.3,298.5h0.9v-3.2l0.1-0.7l0.3-0.5l0.5-0.3l0.6-0.1
		l0.5,0.1l0.3,0.3l0.2,0.5l0.1,0.6v3.4h0.9v-3.6l0-0.7l-0.2-0.6l-0.6-0.5l-0.9-0.2l-0.5,0.1l-0.4,0.2l-0.4,0.3l-0.3,0.4v-0.8h-0.9
		V298.5L221.3,298.5z M230.7,297.8L230.7,297.8l0.1,0.4l0.2,0.2l0.6,0.2l0.5-0.1v-0.7l-0.2,0l-0.3-0.1l-0.1-0.4v-2.8l-0.1-0.7
		l-0.4-0.5l-0.6-0.3l-0.9-0.1l-0.9,0.1l-0.6,0.3l-0.4,0.5l-0.1,0.7v0.1h0.8l0.1-0.4l0.2-0.3l0.4-0.2l0.5-0.1l0.5,0.1l0.4,0.2
		l0.2,0.3l0.1,0.4l0,0.4l-0.2,0.2l-0.4,0.1l-0.8,0.1l-0.9,0.2l-0.6,0.3l-0.4,0.5l-0.1,0.8l0.1,0.7l0.3,0.5l0.5,0.3l0.7,0.1l0.9-0.2
		L230.7,297.8L230.7,297.8z M230.6,296.6l-0.1,0.5l-0.3,0.4l-0.5,0.3l-0.6,0.1l-0.4-0.1l-0.3-0.2l-0.2-0.3l-0.1-0.4l0-0.4l0.2-0.3
		l0.7-0.3l0.8-0.1l0.7-0.2V296.6L230.6,296.6z M234.8,294v2.7l0.1,0.9l0.3,0.6l0.6,0.4l1,0.1l1.1-0.1v-0.8L237,298l-0.7-0.1
		l-0.4-0.3l-0.2-0.4l0-0.6V294h2.1v-0.8h-2.1v-1.6h-0.9v1.6h-1.6v0.8H234.8L234.8,294z M242.5,297.8v-4.5h-2.3v0.8h1.4v3.8h-1.8v0.8
		h4.6v-0.8H242.5L242.5,297.8z M242.5,291.2h-0.9v1h0.9V291.2L242.5,291.2z M245.6,295.8l0.2,1.2l0.5,0.9l0.7,0.6l1,0.2l1-0.2
		l0.7-0.6l0.5-0.9l0.2-1.3l-0.2-1.2l-0.5-0.9l-0.7-0.6l-1-0.2l-1,0.2l-0.7,0.6l-0.5,0.9L245.6,295.8L245.6,295.8z M246.5,295.8
		l0.1-0.9l0.3-0.7l0.5-0.4l0.6-0.1l0.6,0.1l0.5,0.4l0.3,0.7l0.1,0.9l-0.1,0.9l-0.3,0.7l-0.5,0.4l-0.6,0.1l-0.6-0.1l-0.5-0.4
		l-0.3-0.7L246.5,295.8L246.5,295.8z M252,298.5h0.9v-3.2l0.1-0.7l0.3-0.5l0.5-0.3l0.6-0.1l0.5,0.1l0.3,0.3l0.2,0.5l0.1,0.6v3.4h0.9
		v-3.6l0-0.7l-0.2-0.6l-0.6-0.5l-0.9-0.2l-0.5,0.1l-0.4,0.2l-0.4,0.3l-0.3,0.4v-0.8H252V298.5L252,298.5z"/>
</g>
<g>
	<path d="M142.2,338.2h1.7v-5.9h5.4v-1.5h-5.4V327h6.6v-1.5h-8.3V338.2L142.2,338.2z M153.8,338.2h1.6v-5.6l0.2-1.4l0.5-1l0.8-0.6
		l1.1-0.2l0.8,0.1l0.6,0.4l0.4,0.6l0.1,0.8h1.6l-0.2-1.5l-0.6-1.1l-1-0.6l-1.4-0.2l-0.9,0.1l-0.8,0.4l-0.7,0.6l-0.6,0.8v-1.6h-1.5
		V338.2L153.8,338.2z M163.8,333.3l0.3,2.2l0.8,1.7l1.3,1l1.8,0.3l1.8-0.3l1.3-1l0.8-1.7l0.3-2.3l-0.3-2.2l-0.8-1.7l-1.3-1l-1.8-0.4
		l-1.8,0.4l-1.3,1l-0.8,1.7L163.8,333.3L163.8,333.3z M165.4,333.3l0.2-1.7l0.5-1.2l0.8-0.7l1.1-0.3l1.1,0.3l0.8,0.7l0.5,1.2
		l0.2,1.7l-0.2,1.7l-0.5,1.2l-0.8,0.7l-1.1,0.2l-1.1-0.2l-0.8-0.7l-0.5-1.2L165.4,333.3L165.4,333.3z M175.3,338.2h1.6v-5.7l0.2-1.3
		l0.5-1l0.8-0.6l1.1-0.2l0.9,0.2l0.6,0.5l0.3,0.8l0.1,1.1v6.2h1.6v-6.5l-0.1-1.3l-0.3-1.1l-1.1-1l-1.7-0.3l-0.9,0.1l-0.8,0.3
		l-0.7,0.6l-0.5,0.8v-1.5h-1.5V338.2L175.3,338.2z M188.6,330.1v4.9l0.1,1.6l0.5,1.1l1,0.6l1.7,0.2l1.9-0.1v-1.4l-1.4,0.1l-1.3-0.1
		l-0.7-0.5l-0.3-0.8l-0.1-1.1v-4.7h3.7v-1.4h-3.7v-2.9h-1.6v2.9h-2.8v1.4H188.6L188.6,330.1z M208.6,338.2h8.2v-1.5h-6.5v-11.2h-1.7
		V338.2L208.6,338.2z M221,333.8h6.5l0-0.8l-0.3-2.1l-0.8-1.6l-1.3-1l-1.7-0.3l-1.7,0.4l-1.3,1l-0.8,1.7l-0.3,2.2l0.3,2.3l0.8,1.7
		l1.3,1l1.7,0.3l1.4-0.2l1.2-0.6l0.9-1l0.5-1.3h-1.6l-0.3,0.7l-0.5,0.5l-1.4,0.4l-1-0.2l-0.8-0.6l-0.5-1L221,333.8L221,333.8
		L221,333.8z M221,332.4l0.2-1.3l0.5-0.9l0.8-0.6l1-0.2l1,0.2l0.8,0.6l0.5,0.9l0.2,1.3H221L221,332.4z M232.9,330.1v8.2h1.6v-8.2
		h3.7v-1.4h-3.7v-0.6l0.1-0.7l0.4-0.5l0.7-0.3l1-0.1l1.4,0.1v-1.4l-1.7-0.1l-1.6,0.2l-1.1,0.5l-0.7,0.9l-0.2,1.2v0.9h-3v1.4H232.9
		L232.9,330.1z M243.9,330.1v4.9l0.1,1.6l0.5,1.1l1,0.6l1.7,0.2l1.9-0.1v-1.4l-1.4,0.1l-1.3-0.1l-0.7-0.5l-0.3-0.8l-0.1-1.1v-4.7
		h3.7v-1.4h-3.7v-2.9h-1.6v2.9h-2.8v1.4H243.9L243.9,330.1z M263.9,338.2h8.2v-1.5h-6.5v-11.2h-1.7V338.2L263.9,338.2z M274.4,333.3
		l0.3,2.2l0.8,1.7l1.3,1l1.8,0.3l1.8-0.3l1.3-1l0.8-1.7l0.3-2.3l-0.3-2.2l-0.8-1.7l-1.3-1l-1.8-0.4l-1.8,0.4l-1.3,1l-0.8,1.7
		L274.4,333.3L274.4,333.3z M276.1,333.3l0.2-1.7l0.5-1.2l0.8-0.7l1.1-0.3l1.1,0.3l0.8,0.7l0.5,1.2l0.2,1.7l-0.2,1.7l-0.5,1.2
		l-0.8,0.7l-1.1,0.2l-1.1-0.2l-0.8-0.7l-0.5-1.2L276.1,333.3L276.1,333.3z M288.3,338.2l1.5-8.4l1.5,8.4h1.5l2.4-9.9h-1.6l-1.6,8.4
		l-1.5-8.4H289l-1.5,8.4l-1.6-8.4h-1.5l2.4,9.9H288.3L288.3,338.2z M298.4,333.8h6.5l0-0.8l-0.3-2.1l-0.8-1.6l-1.3-1l-1.7-0.3
		l-1.7,0.4l-1.3,1l-0.8,1.7l-0.3,2.2l0.3,2.3l0.8,1.7l1.3,1l1.7,0.3l1.4-0.2l1.2-0.6l0.9-1l0.5-1.3h-1.6l-0.3,0.7l-0.5,0.5l-1.4,0.4
		l-1-0.2l-0.8-0.6l-0.5-1L298.4,333.8L298.4,333.8L298.4,333.8z M298.4,332.4l0.2-1.3l0.5-0.9l0.8-0.6l1-0.2l1,0.2l0.8,0.6l0.5,0.9
		l0.2,1.3H298.4L298.4,332.4z M308.7,338.2h1.6v-5.6l0.2-1.4l0.5-1l0.8-0.6l1.1-0.2l0.8,0.1l0.6,0.4l0.4,0.6l0.1,0.8h1.6l-0.2-1.5
		l-0.6-1.1l-1-0.6l-1.4-0.2l-0.9,0.1l-0.8,0.4l-0.7,0.6l-0.6,0.8v-1.6h-1.5V338.2L308.7,338.2z M328.4,338.2h1.7l1.3-3.8h5.1
		l1.3,3.8h1.7l-4.7-12.8h-1.9L328.4,338.2L328.4,338.2z M332.1,332.9l2-5.6l2,5.6H332.1L332.1,332.9z M342.9,334h4.4v-1.5h-4.4V334
		L342.9,334z M350.6,338.2h1.7l1.3-3.8h5.1l1.3,3.8h1.7l-4.7-12.8h-1.9L350.6,338.2L350.6,338.2z M354.2,332.9l2-5.6l2,5.6H354.2
		L354.2,332.9z M364,338.2h1.6v-5.6l0.2-1.4l0.5-1l0.8-0.6l1.1-0.2l0.8,0.1l0.6,0.4l0.4,0.6l0.1,0.8h1.6l-0.2-1.5l-0.6-1.1l-1-0.6
		l-1.4-0.2l-0.9,0.1l-0.8,0.4l-0.7,0.6l-0.6,0.8v-1.6H364V338.2L364,338.2z M373.8,338.2h1.5v-6.6l0.1-1l0.3-0.7l0.4-0.4l0.6-0.2
		l0.4,0.1l0.3,0.4l0.1,0.6l0.1,0.8v6.9h1.4v-6.6l0.1-1l0.3-0.7l0.4-0.4l0.5-0.2l0.4,0.1l0.3,0.4l0.2,1.5v6.9h1.5v-6.8l-0.1-1.4
		l-0.3-1.1l-0.6-0.7l-1-0.2l-1.1,0.4l-0.9,1.1l-0.7-1L377,328l-1,0.4l-0.7,1v-1h-1.4V338.2L373.8,338.2z M396.7,338.2h1.7v-5.9h5.4
		v-1.5h-5.4V327h6.6v-1.5h-8.3V338.2L396.7,338.2z M408.3,338.2h1.6v-5.6l0.2-1.4l0.5-1l0.8-0.6l1.1-0.2l0.8,0.1l0.6,0.4l0.4,0.6
		l0.1,0.8h1.6l-0.2-1.5l-0.6-1.1l-1-0.6l-1.4-0.2l-0.9,0.1l-0.8,0.4l-0.7,0.6l-0.6,0.8v-1.6h-1.5V338.2L408.3,338.2z M418.3,333.3
		l0.3,2.2l0.8,1.7l1.3,1l1.8,0.3l1.8-0.3l1.3-1l0.8-1.7l0.3-2.3l-0.3-2.2l-0.8-1.7l-1.3-1l-1.8-0.4l-1.8,0.4l-1.3,1l-0.8,1.7
		L418.3,333.3L418.3,333.3z M419.9,333.3l0.2-1.7l0.5-1.2l0.8-0.7l1.1-0.3l1.1,0.3l0.8,0.7l0.5,1.2l0.2,1.7L425,335l-0.5,1.2
		l-0.8,0.7l-1.1,0.2l-1.1-0.2l-0.8-0.7l-0.5-1.2L419.9,333.3L419.9,333.3z M429.8,338.2h1.6v-5.7l0.2-1.3l0.5-1l0.8-0.6l1.1-0.2
		l0.9,0.2l0.5,0.5l0.3,0.8l0.1,1.1v6.2h1.6v-6.5l-0.1-1.3l-0.3-1.1l-1.1-1l-1.7-0.3l-0.9,0.1l-0.8,0.3l-0.7,0.6l-0.5,0.8v-1.5h-1.5
		V338.2L429.8,338.2z M443,330.1v4.9l0.1,1.6l0.5,1.1l1,0.6l1.7,0.2l1.9-0.1v-1.4l-1.4,0.1l-1.3-0.1l-0.7-0.5l-0.3-0.8l-0.1-1.1
		v-4.7h3.7v-1.4h-3.7v-2.9H443v2.9h-2.8v1.4H443L443,330.1z M462.4,333.4l0.3,2.3l0.8,1.6l1.4,0.9l2,0.3l1.9-0.3l1.4-0.9l0.8-1.6
		l0.3-2.3v-7.9h-1.7v8l-0.2,1.6l-0.5,1.1l-0.8,0.7l-1.2,0.2l-1.2-0.2l-0.8-0.7l-0.5-1.1l-0.1-1.6v-8h-1.7V333.4L462.4,333.4z
		 M475.6,329.9v-1.5H474v13.7h1.6v-5.3l0.6,0.9l0.6,0.6l1.6,0.4l1.5-0.3l1.2-1l0.8-1.7l0.3-2.2l-0.3-2.2l-0.8-1.7l-1.2-1l-1.5-0.4
		l-0.9,0.1l-0.8,0.4l-0.6,0.6L475.6,329.9L475.6,329.9z M478.2,337.1l-1.1-0.2l-0.8-0.7l-0.5-1.2l-0.2-1.7l0.2-1.7l0.5-1.2l0.8-0.7
		l1.1-0.3l1,0.3l0.8,0.7l0.5,1.2l0.2,1.6l-0.2,1.7l-0.5,1.2l-0.8,0.7L478.2,337.1L478.2,337.1z M486.7,329.9v-1.5H485v13.7h1.6v-5.3
		l0.6,0.9l0.6,0.6l1.6,0.4l1.5-0.3l1.2-1l0.8-1.7l0.3-2.2l-0.3-2.2l-0.8-1.7l-1.2-1l-1.5-0.4l-0.9,0.1l-0.8,0.4l-0.6,0.6
		L486.7,329.9L486.7,329.9z M489.2,337.1l-1.1-0.2l-0.8-0.7l-0.5-1.2l-0.2-1.7l0.2-1.7l0.5-1.2l0.8-0.7l1.1-0.3l1,0.3l0.8,0.7
		l0.5,1.2l0.2,1.6l-0.2,1.7l-0.5,1.2l-0.8,0.7L489.2,337.1L489.2,337.1z M497.6,333.8h6.5l0-0.8l-0.3-2.1l-0.8-1.6l-1.3-1L500,328
		l-1.7,0.4l-1.3,1l-0.8,1.7l-0.3,2.2l0.3,2.3l0.8,1.7l1.3,1l1.7,0.3l1.4-0.2l1.2-0.6l0.9-1l0.5-1.3h-1.6l-0.3,0.7l-0.5,0.5l-1.4,0.4
		l-1-0.2l-0.8-0.6l-0.5-1L497.6,333.8L497.6,333.8L497.6,333.8z M497.6,332.4l0.2-1.3l0.5-0.9l0.8-0.6l1-0.2l1,0.2l0.8,0.6l0.5,0.9
		l0.2,1.3H497.6L497.6,332.4z M507.9,338.2h1.6v-5.6l0.2-1.4l0.5-1l0.8-0.6l1.1-0.2l0.8,0.1l0.6,0.4l0.4,0.6l0.1,0.8h1.6l-0.2-1.5
		l-0.6-1.1l-1-0.6l-1.4-0.2l-0.9,0.1l-0.8,0.4l-0.7,0.6l-0.6,0.8v-1.6h-1.5V338.2L507.9,338.2z"/>
</g>
<g>
	<path d="M133.9,107h1.3v-4.6h4.2v-1.2h-4.2v-3h5.1v-1.2h-6.5V107L133.9,107z M142.5,107h6.4v-1.2h-5.1v-8.7h-1.3V107L142.5,107z
		 M151.1,107h6.4v-1.2h-5.1v-8.7h-1.3V107L151.1,107z M160.9,103.7h3.5v-1.1h-3.5V103.7L160.9,103.7z"/>
</g>
<g>
	<path d="M133.9,124.1h1.3v-4.6h4.2v-1.2h-4.2v-3h5.1v-1.2h-6.5V124.1L133.9,124.1z M142,120.4l0.2,1.8l0.6,1.3l1.1,0.7l1.5,0.3
		l1.5-0.3l1.1-0.7l0.6-1.3l0.2-1.8v-6.1h-1.3v6.2l-0.1,1.2l-0.4,0.9l-0.7,0.5l-0.9,0.2l-0.9-0.2l-0.7-0.5l-0.4-0.9l-0.1-1.2v-6.2
		H142V120.4L142,120.4z M150.6,120.4l0.2,1.8l0.6,1.3l1.1,0.7l1.5,0.3l1.5-0.3l1.1-0.7l0.6-1.3l0.2-1.8v-6.1h-1.3v6.2l-0.1,1.2
		l-0.4,0.9l-0.7,0.5l-0.9,0.2L153,123l-0.7-0.5l-0.4-0.9l-0.1-1.2v-6.2h-1.3V120.4L150.6,120.4z"/>
</g>
<path d="M197.5,109.8h1.3v-4.6h4.2v-1.2h-4.2v-3h5.1v-1.2h-6.5V109.8L197.5,109.8z M206.2,109.8h6.4v-1.2h-5.1v-8.7h-1.3V109.8
	L206.2,109.8z M214.8,109.8h6.4v-1.2h-5.1v-8.7h-1.3V109.8L214.8,109.8z M224.6,106.6h3.5v-1.1h-3.5V106.6L224.6,106.6z"/>
<path d="M197.5,127h1.3v-4.6h4.2v-1.2h-4.2v-3h5.1v-1.2h-6.5V127L197.5,127z M205.7,123.2l0.2,1.8l0.6,1.3l1.1,0.7l1.5,0.3l1.5-0.3
	l1.1-0.7l0.6-1.3l0.2-1.8v-6.1h-1.3v6.2l-0.1,1.2l-0.4,0.9l-0.7,0.5l-0.9,0.2l-0.9-0.2l-0.7-0.5l-0.4-0.9l-0.1-1.2v-6.2h-1.3V123.2
	L205.7,123.2z M217.7,117.1h-3.3v9.9h3.3l1.6-0.3l1.2-1l0.7-1.6l0.3-2.1l-0.2-2.2l-0.3-0.9l-0.4-0.7l-1.2-0.9l-0.8-0.2L217.7,117.1
	L217.7,117.1z M217.6,118.2l1.1,0.2l0.7,0.7l0.4,1.2l0.1,1.7l-0.2,1.7l-0.4,1.2l-0.8,0.7l-1.1,0.2h-1.9v-7.5H217.6L217.6,118.2z"/>
</svg>
