<?xml version="1.0" encoding="utf-8"?>
<!-- Generator: Adobe Illustrator 22.1.0, SVG Export Plug-In . SVG Version: 6.00 Build 0)  -->
<svg version="1.1" id="Calque_1" dsy:text-version="18000" xmlns:dsy="http://www.3ds.com/print"
	 xmlns="http://www.w3.org/2000/svg" xmlns:xlink="http://www.w3.org/1999/xlink" x="0px" y="0px" viewBox="0 0 297 210"
	 style="enable-background:new 0 0 297 210;" xml:space="preserve">
<style type="text/css">
	.st0{fill:none;stroke:#000000;stroke-width:0.35;}
</style>
<path class="st0" d="M74.8,79.1c-1.5-10.9-11.6-18.4-22.4-16.9c-8.8,1.2-15.7,8.1-16.9,16.9"/>
<circle class="st0" cx="55.1" cy="81.8" r="9.1"/>
<path class="st0" d="M27.9,133.1l7.6-54"/>
<path class="st0" d="M27.9,133.1l45.3,17"/>
<path class="st0" d="M85.3,154.3L74.8,79.1"/>
<path class="st0" d="M85.3,154.3l-12.1-4.2"/>
<path class="st0" d="M142.3,77.6c-1.5-10.9-11.6-18.4-22.4-16.9c-8.8,1.2-15.6,8.1-16.9,16.9"/>
<circle class="st0" cx="122.6" cy="80.3" r="9.1"/>
<path class="st0" d="M150.6,136.5l-8.3-58.9"/>
<path class="st0" d="M150.6,136.5l-44.4,16.6"/>
<path class="st0" d="M91.7,158.2L103,77.6"/>
<path class="st0" d="M91.7,158.2l14.5-5.1"/>
<path class="st0" d="M-335.7,380.1h785.2"/>
<path class="st0" d="M449.5,380.1v-538.6"/>
<path class="st0" d="M449.5-158.5h-785.2"/>
<path class="st0" d="M-335.7-158.5v538.6"/>
<path class="st0" d="M56.9-158.5v-28.3"/>
<path class="st0" d="M-335.7,110.8H-364"/>
<path class="st0" d="M449.5,110.8h28.3"/>
<path class="st0" d="M267.3,380.1v21.3"/>
<path class="st0" d="M-153.4,380.1v21.3"/>
<path class="st0" d="M267.3-158.5v-21.3"/>
<path class="st0" d="M-153.4-158.5v-21.3"/>
<path class="st0" d="M-335.7-38h-21.3"/>
<path class="st0" d="M449.5-38h21.3"/>
<path class="st0" d="M-335.7,259.7h-21.3"/>
<path class="st0" d="M449.5,259.7h21.3"/>
<path class="st0" d="M198.7,380.1v14.2"/>
<path class="st0" d="M170.3,380.1v7.1"/>
<path class="st0" d="M142,380.1v7.1"/>
<path class="st0" d="M113.6,380.1v7.1"/>
<path class="st0" d="M449.5,210v170.1"/>
<path d="M368.1,399.5h1.3l1-2.9h4l1,2.9h1.3l-3.6-9.9h-1.5L368.1,399.5L368.1,399.5z M370.9,395.4l1.5-4.4l1.5,4.4H370.9
	L370.9,395.4z"/>
<path d="M-258.6,389.6h-3.3v9.9h3.3l1.6-0.3l1.2-1l0.7-1.6l0.3-2.1l-0.2-2.2l-0.3-0.9l-0.4-0.7l-1.2-0.9l-0.8-0.2L-258.6,389.6
	L-258.6,389.6z M-258.7,390.8l1.1,0.2l0.7,0.7l0.4,1.2l0.1,1.7l-0.2,1.7l-0.4,1.2l-0.8,0.7l-1.1,0.2h-1.9v-7.5H-258.7L-258.7,390.8z
	"/>
<path d="M161.9-174.4l-0.8-1l-0.6-0.3l-0.7-0.1l-1.1,0.2L158-175l-0.5,0.9l-0.2,1.3v3.5h9.9v-3.7l-0.2-1.3l-0.6-1l-0.9-0.6l-1.3-0.2
	l-0.8,0.1l-0.7,0.3l-0.5,0.6L161.9-174.4L161.9-174.4z M161.5-172.6v1.9h-2.9v-2.1l0.1-0.8l0.3-0.5l0.4-0.3l0.7-0.1l0.7,0.1l0.5,0.3
	l0.3,0.6L161.5-172.6L161.5-172.6z M166.1-172.9v2.3h-3.4v-2.1l0.1-0.9l0.3-0.6l0.5-0.4l0.7-0.1l0.8,0.1l0.5,0.4l0.3,0.6
	L166.1-172.9L166.1-172.9z"/>
<path d="M-46.7-174.9l1.2,0.3l0.9,0.5l0.5,0.7l0.2,0.8l-0.3,0.9l-0.8,0.7l-1.3,0.5l-1.7,0.2l-1.7-0.2l-1.3-0.5l-0.8-0.7l-0.3-0.9
	l0.1-0.7l0.4-0.6l0.6-0.5l0.9-0.3v-1.4l-1.4,0.4l-1,0.7l-0.6,1l-0.2,1.2l0.4,1.5l1,1.2l1.6,0.7l2.2,0.3l2.2-0.3l1.6-0.7l1-1.2
	l0.3-1.5l-0.3-1.3l-0.8-1.1l-1.2-0.8l-1.7-0.4V-174.9L-46.7-174.9z"/>
<path d="M377.6-168.3v-1.3l-2.9-1v-4l2.9-1v-1.3l-9.9,3.6v1.5L377.6-168.3L377.6-168.3z M373.5-171.1l-4.4-1.5l4.4-1.5V-171.1
	L373.5-171.1z"/>
<path d="M-263.3-172.6v3.3h9.9v-3.3l-0.3-1.6l-1-1.2l-1.6-0.7l-2.1-0.3l-2.2,0.2l-0.9,0.3l-0.7,0.4l-0.9,1.2l-0.2,0.8L-263.3-172.6
	L-263.3-172.6z M-262.1-172.5l0.2-1.1l0.7-0.7l1.2-0.4l1.7-0.1l1.7,0.2l1.2,0.4l0.7,0.8l0.2,1.1v1.9h-7.5V-172.5L-262.1-172.5z"/>
<path d="M460.1,38.5v0.1l0.2,1.4l0.7,1l1.1,0.7l1.4,0.2l1.5-0.2l1.1-0.6l0.7-1l0.3-1.3l-0.1-0.8l-0.3-0.7l-0.5-0.5l-0.7-0.4l0.9-0.8
	l0.3-1.2l-0.2-1.1l-0.6-0.8l-1-0.5l-1.4-0.2l-1.3,0.2l-1,0.6l-0.6,1l-0.2,1.3v0.1h1.3l0.1-0.9l0.4-0.7l0.6-0.4l0.8-0.1l0.7,0.1
	l0.5,0.3l0.3,0.5l0.1,0.7l-0.1,0.7l-0.3,0.5l-0.6,0.3l-0.8,0.1l-0.6,0V37l0.7,0l0.9,0.1l0.7,0.3l0.4,0.6l0.1,0.7l-0.2,0.8l-0.4,0.6
	l-0.7,0.4l-0.9,0.1l-0.9-0.1l-0.7-0.4l-0.4-0.7l-0.2-0.9H460.1L460.1,38.5z"/>
<path d="M-347.8,40h0.1l1.4-0.2l1-0.7l0.7-1.1l0.2-1.4l-0.2-1.5l-0.6-1.1l-1-0.7l-1.3-0.3l-0.8,0.1l-0.7,0.3l-0.5,0.5l-0.4,0.7
	l-0.8-0.9l-1.2-0.3l-1.1,0.2l-0.8,0.6l-0.5,1l-0.2,1.4l0.2,1.3l0.6,1l1,0.6l1.3,0.2h0.1v-1.3l-0.9-0.1l-0.7-0.4l-0.4-0.6l-0.1-0.8
	l0.1-0.7l0.3-0.5l0.5-0.3l0.7-0.1l0.7,0.1l0.5,0.3l0.3,0.6l0.1,0.8l0,0.6h1.1l0-0.7l0.1-0.9l0.3-0.7l0.6-0.4l0.7-0.1l0.8,0.2
	l0.6,0.4l0.4,0.7l0.1,0.9l-0.1,0.9l-0.4,0.7l-0.7,0.4l-0.9,0.2V40L-347.8,40z"/>
<path d="M460.2,190.4h6.8v-1.2h-5.4l0.3-0.7l0.5-0.6l1.6-1l0.8-0.4l0.9-0.6l0.7-0.7l0.4-0.8l0.1-1l-0.2-1.2l-0.7-0.9l-1-0.6
	l-1.3-0.2l-1.4,0.2l-1,0.7l-0.7,1.1l-0.2,1.4v0.2h1.3v-0.1l0.1-1l0.4-0.7l0.6-0.5l0.8-0.2l0.8,0.1l0.6,0.4l0.4,0.6l0.1,0.7l-0.1,0.7
	l-0.3,0.6l-0.5,0.5l-0.6,0.4l-0.8,0.5l-1.4,0.9l-1,0.9l-0.6,1.1L460.2,190.4L460.2,190.4L460.2,190.4z"/>
<path d="M-344.6,188.7v-6.8h-1.2v5.4l-0.7-0.3l-0.6-0.5l-1-1.6l-0.4-0.8l-0.6-0.9l-0.7-0.7l-0.8-0.4l-1-0.1l-1.2,0.2l-0.9,0.7
	l-0.6,1l-0.2,1.3l0.2,1.4l0.7,1l1.1,0.7l1.4,0.2h0.2v-1.3h-0.1l-1-0.1l-0.7-0.4l-0.5-0.6l-0.2-0.8l0.1-0.8l0.4-0.6l0.6-0.4l0.7-0.1
	l0.7,0.1l0.6,0.3l0.5,0.5l0.4,0.6l0.5,0.8l0.9,1.4l0.9,1l1.1,0.6L-344.6,188.7L-344.6,188.7L-344.6,188.7z"/>
<path d="M464.5-107.2h1.3v-2.5h1.4v-1.1h-1.4v-6.1h-1.3l-4.3,6v1.3h4.4V-107.2L464.5-107.2z M461.3-110.8l3.2-4.4v4.4H461.3
	L461.3-110.8z"/>
<path d="M-344.6-113.2v-1.3h-2.5v-1.4h-1.1v1.4h-6.1v1.3l6,4.3h1.3v-4.4H-344.6L-344.6-113.2z M-348.2-110l-4.4-3.2h4.4V-110
	L-348.2-110z"/>
<path d="M463.4,339.3h1.3v-10h-1l-0.3,0.9l-0.5,0.6l-0.8,0.3l-1.1,0.1v1h2.3V339.3L463.4,339.3z"/>
<path d="M-344.6,334.3V333h-10v1l0.9,0.3l0.6,0.5l0.3,0.8l0.1,1.1h1v-2.3H-344.6L-344.6,334.3z"/>
<path d="M101.1,295h-2.4v7.1h2.4l1.1-0.2l0.8-0.7l0.5-1.1l0.2-1.5l-0.2-1.6l-0.2-0.6l-0.3-0.5l-0.8-0.7l-0.5-0.2L101.1,295
	L101.1,295z M101,295.8l0.8,0.2l0.5,0.5l0.3,0.8l0.1,1.2l-0.1,1.2l-0.3,0.8l-0.5,0.5l-0.8,0.2h-1.3v-5.4H101L101,295.8z
	 M106.5,295.9h0.6l1.4-1.7h-1L106.5,295.9L106.5,295.9z M105.9,299.6h3.6l0-0.4l-0.2-1.2l-0.5-0.9l-0.7-0.5l-0.9-0.2l-0.9,0.2
	l-0.7,0.6l-0.5,0.9l-0.2,1.2l0.2,1.3l0.5,0.9l0.7,0.6l0.9,0.2l0.8-0.1l0.7-0.3l0.5-0.5l0.3-0.7h-0.9l-0.2,0.4l-0.3,0.3l-0.8,0.2
	l-0.6-0.1l-0.4-0.4l-0.3-0.6L105.9,299.6L105.9,299.6L105.9,299.6z M105.9,298.9l0.1-0.7l0.3-0.5l0.4-0.3l0.6-0.1l0.5,0.1l0.4,0.3
	l0.3,0.5l0.1,0.7H105.9L105.9,298.9z M114,298.9l-0.9-0.2l-0.6-0.2l-0.2-0.5l0.1-0.3l0.2-0.2l0.3-0.2l0.5-0.1l0.5,0.1l0.4,0.2
	l0.2,0.3l0.1,0.4h0.9v0l-0.2-0.7l-0.4-0.5l-0.7-0.3l-0.9-0.1l-0.9,0.1l-0.6,0.3l-0.4,0.5l-0.1,0.6l0.1,0.6l0.3,0.4l0.5,0.3l0.7,0.2
	l1,0.2l0.6,0.3l0.2,0.2l0.1,0.3l-0.1,0.4l-0.2,0.3l-0.4,0.2l-0.5,0.1l-0.6-0.1l-0.4-0.2l-0.3-0.3l-0.1-0.5h-0.9l0.1,0.8l0.4,0.6
	l0.7,0.4l0.9,0.1l1-0.1l0.7-0.4l0.4-0.6l0.2-0.7l-0.1-0.6l-0.3-0.4l-0.5-0.3L114,298.9L114,298.9z M120.2,301.3v-4.5h-2.3v0.8h1.4
	v3.8h-1.8v0.8h4.6v-0.8H120.2L120.2,301.3z M120.2,294.8h-0.9v1h0.9V294.8L120.2,294.8z M127.9,301.8v-5.2H127v0.9l-0.7-0.8
	l-0.4-0.2l-0.5-0.1l-0.9,0.2l-0.7,0.6l-0.4,0.9l-0.2,1.2l0.2,1.2l0.4,0.9l0.7,0.6l0.9,0.2l0.5-0.1l0.4-0.2l0.7-0.8v0.8l-0.1,0.6
	l-0.2,0.4l-0.4,0.3l-0.6,0.1l-0.6-0.1l-0.4-0.2l-0.2-0.3l-0.1-0.4h-0.9v0l0.1,0.7l0.4,0.5l0.7,0.3l0.9,0.1l1.1-0.2l0.7-0.4l0.4-0.7
	L127.9,301.8L127.9,301.8z M124.2,299.3l0.1-0.9l0.3-0.7l0.4-0.4l0.6-0.1l0.6,0.1l0.5,0.4l0.3,0.7l0.1,0.9l-0.1,0.9l-0.3,0.7
	l-0.5,0.4l-0.6,0.1l-0.6-0.1l-0.4-0.4l-0.3-0.7L124.2,299.3L124.2,299.3z M129.7,302.1h0.9v-3.2l0.1-0.7l0.3-0.5l0.5-0.3l0.6-0.1
	l0.5,0.1l0.3,0.3l0.2,0.5l0.1,0.6v3.4h0.9v-3.6l0-0.7l-0.2-0.6l-0.6-0.5l-0.9-0.2l-0.5,0.1l-0.4,0.2l-0.4,0.3l-0.3,0.4v-0.8h-0.9
	V302.1L129.7,302.1z M139.1,301.4L139.1,301.4l0.1,0.4l0.2,0.2l0.6,0.2l0.5-0.1v-0.7l-0.2,0l-0.3-0.1l-0.1-0.4v-2.8l-0.1-0.7
	l-0.4-0.5l-0.6-0.3l-0.9-0.1l-0.9,0.1l-0.6,0.3l-0.4,0.5l-0.1,0.7v0.1h0.8l0.1-0.4l0.2-0.3l0.4-0.2l0.5-0.1l0.5,0.1l0.4,0.2l0.2,0.3
	l0.1,0.4l0,0.4l-0.2,0.2l-0.4,0.1l-0.8,0.1l-0.9,0.2l-0.6,0.3l-0.4,0.5l-0.1,0.8l0.1,0.7l0.3,0.5l0.5,0.3l0.7,0.1l0.9-0.2
	L139.1,301.4L139.1,301.4z M139,300.2l-0.1,0.5l-0.3,0.4l-0.5,0.3l-0.6,0.1l-0.4-0.1l-0.3-0.2l-0.2-0.3l-0.1-0.4l0-0.4l0.2-0.3
	l0.7-0.3l0.8-0.1l0.7-0.2V300.2L139,300.2z M143.2,297.6v2.7l0.1,0.9l0.3,0.6l0.6,0.4l1,0.1l1.1-0.1v-0.8l-0.8,0.1l-0.7-0.1
	l-0.4-0.3l-0.2-0.4l0-0.6v-2.6h2.1v-0.8h-2.1v-1.6h-0.9v1.6h-1.6v0.8H143.2L143.2,297.6z M150.9,301.3v-4.5h-2.3v0.8h1.4v3.8h-1.8
	v0.8h4.6v-0.8H150.9L150.9,301.3z M150.9,294.8H150v1h0.9V294.8L150.9,294.8z M154.1,299.4l0.2,1.2l0.5,0.9l0.7,0.6l1,0.2l1-0.2
	l0.7-0.6l0.5-0.9l0.2-1.3l-0.2-1.2l-0.5-0.9l-0.7-0.6l-1-0.2l-1,0.2l-0.7,0.6l-0.5,0.9L154.1,299.4L154.1,299.4z M155,299.3l0.1-0.9
	l0.3-0.7l0.5-0.4l0.6-0.1l0.6,0.1l0.5,0.4l0.3,0.7l0.1,0.9l-0.1,0.9l-0.3,0.7l-0.5,0.4l-0.6,0.1l-0.6-0.1l-0.5-0.4l-0.3-0.7
	L155,299.3L155,299.3z M160.5,302.1h0.9v-3.2l0.1-0.7l0.3-0.5l0.5-0.3l0.6-0.1l0.5,0.1l0.3,0.3l0.2,0.5l0.1,0.6v3.4h0.9v-3.6l0-0.7
	l-0.2-0.6l-0.6-0.5l-0.9-0.2l-0.5,0.1l-0.4,0.2l-0.4,0.3l-0.3,0.4v-0.8h-0.9V302.1L160.5,302.1z"/>
<path d="M50.6,341.8h1.7v-5.9h5.4v-1.5h-5.4v-3.8h6.6V329h-8.3V341.8L50.6,341.8z M62.2,341.8h1.6v-5.6l0.2-1.4l0.5-1l0.8-0.6
	l1.1-0.2l0.8,0.1l0.6,0.4l0.4,0.6l0.1,0.8h1.6l-0.2-1.5l-0.6-1.1l-1-0.6l-1.4-0.2l-0.9,0.1l-0.8,0.4l-0.7,0.6l-0.6,0.8v-1.6h-1.5
	V341.8L62.2,341.8z M72.2,336.8l0.3,2.2l0.8,1.7l1.3,1l1.8,0.3l1.8-0.3l1.3-1l0.8-1.7l0.3-2.3l-0.3-2.2l-0.8-1.7l-1.3-1l-1.8-0.4
	l-1.8,0.4l-1.3,1l-0.8,1.7L72.2,336.8L72.2,336.8z M73.9,336.8l0.2-1.7l0.5-1.2l0.8-0.7l1.1-0.3l1.1,0.3l0.8,0.7l0.5,1.2l0.2,1.7
	l-0.2,1.7l-0.5,1.2l-0.8,0.7l-1.1,0.2l-1.1-0.2l-0.8-0.7l-0.5-1.2L73.9,336.8L73.9,336.8z M83.7,341.8h1.6v-5.7l0.2-1.3l0.5-1
	l0.8-0.6L88,333l0.9,0.2l0.6,0.5l0.3,0.8l0.1,1.1v6.2h1.6v-6.5l-0.1-1.3l-0.3-1.1l-1.1-1l-1.7-0.3l-0.9,0.1l-0.8,0.3l-0.7,0.6
	l-0.5,0.8v-1.5h-1.5V341.8L83.7,341.8z M97,333.6v4.9l0.1,1.6l0.5,1.1l1,0.6l1.7,0.2l1.9-0.1v-1.4l-1.4,0.1l-1.3-0.1l-0.7-0.5
	l-0.3-0.8l-0.1-1.1v-4.7h3.7v-1.4h-3.7v-2.9H97v2.9h-2.8v1.4H97L97,333.6z M117,341.8h8.2v-1.5h-6.5V329H117V341.8L117,341.8z
	 M129.4,337.3h6.5l0-0.8l-0.3-2.1l-0.8-1.6l-1.3-1l-1.7-0.3l-1.7,0.4l-1.3,1l-0.8,1.7l-0.3,2.2l0.3,2.3l0.8,1.7l1.3,1l1.7,0.3
	l1.4-0.2l1.2-0.6l0.9-1l0.5-1.3h-1.6l-0.3,0.7l-0.5,0.5l-1.4,0.4l-1-0.2l-0.8-0.6l-0.5-1L129.4,337.3L129.4,337.3L129.4,337.3z
	 M129.4,335.9l0.2-1.3l0.5-0.9l0.8-0.6l1-0.2l1,0.2l0.8,0.6l0.5,0.9l0.2,1.3H129.4L129.4,335.9z M141.3,333.6v8.2h1.6v-8.2h3.7v-1.4
	h-3.7v-0.6l0.1-0.7l0.4-0.5l0.7-0.3l1-0.1l1.4,0.1v-1.4l-1.7-0.1l-1.6,0.2l-1.1,0.5l-0.7,0.9l-0.2,1.2v0.9h-3v1.4H141.3L141.3,333.6
	z M152.3,333.6v4.9l0.1,1.6l0.5,1.1l1,0.6l1.7,0.2l1.9-0.1v-1.4l-1.4,0.1l-1.3-0.1l-0.7-0.5l-0.3-0.8l-0.1-1.1v-4.7h3.7v-1.4h-3.7
	v-2.9h-1.6v2.9h-2.8v1.4H152.3L152.3,333.6z M172.3,341.8h8.2v-1.5H174V329h-1.7V341.8L172.3,341.8z M182.9,336.8l0.3,2.2l0.8,1.7
	l1.3,1l1.8,0.3l1.8-0.3l1.3-1l0.8-1.7l0.3-2.3l-0.3-2.2l-0.8-1.7l-1.3-1l-1.8-0.4l-1.8,0.4l-1.3,1l-0.8,1.7L182.9,336.8L182.9,336.8
	z M184.5,336.8l0.2-1.7l0.5-1.2l0.8-0.7l1.1-0.3l1.1,0.3l0.8,0.7l0.5,1.2l0.2,1.7l-0.2,1.7l-0.5,1.2l-0.8,0.7l-1.1,0.2l-1.1-0.2
	l-0.8-0.7l-0.5-1.2L184.5,336.8L184.5,336.8z M196.7,341.8l1.5-8.4l1.5,8.4h1.5l2.4-9.9h-1.6l-1.6,8.4l-1.5-8.4h-1.6l-1.5,8.4
	l-1.6-8.4h-1.5l2.4,9.9H196.7L196.7,341.8z M206.9,337.3h6.5l0-0.8l-0.3-2.1l-0.8-1.6l-1.3-1l-1.7-0.3l-1.7,0.4l-1.3,1l-0.8,1.7
	l-0.3,2.2l0.3,2.3l0.8,1.7l1.3,1l1.7,0.3l1.4-0.2l1.2-0.6l0.9-1l0.5-1.3h-1.6l-0.3,0.7l-0.5,0.5l-1.4,0.4l-1-0.2l-0.8-0.6l-0.5-1
	L206.9,337.3L206.9,337.3L206.9,337.3z M206.9,335.9l0.2-1.3l0.5-0.9l0.8-0.6l1-0.2l1,0.2l0.8,0.6l0.5,0.9l0.2,1.3H206.9
	L206.9,335.9z M217.1,341.8h1.6v-5.6l0.2-1.4l0.5-1l0.8-0.6l1.1-0.2l0.8,0.1l0.6,0.4l0.4,0.6l0.1,0.8h1.6l-0.2-1.5l-0.6-1.1l-1-0.6
	l-1.4-0.2l-0.9,0.1l-0.8,0.4l-0.7,0.6l-0.6,0.8v-1.6h-1.5V341.8L217.1,341.8z M236.9,341.8h1.7l1.3-3.8h5.1l1.3,3.8h1.7l-4.7-12.8
	h-1.9L236.9,341.8L236.9,341.8z M240.5,336.5l2-5.6l2,5.6H240.5L240.5,336.5z M251.3,337.6h4.4v-1.5h-4.4V337.6L251.3,337.6z
	 M259,341.8h1.7l1.3-3.8h5.1l1.3,3.8h1.7l-4.7-12.8h-1.9L259,341.8L259,341.8z M262.6,336.5l2-5.6l2,5.6H262.6L262.6,336.5z
	 M272.5,341.8h1.6v-5.6l0.2-1.4l0.5-1l0.8-0.6l1.1-0.2l0.8,0.1l0.6,0.4l0.4,0.6l0.1,0.8h1.6l-0.2-1.5l-0.6-1.1l-1-0.6l-1.4-0.2
	l-0.9,0.1l-0.8,0.4l-0.7,0.6l-0.6,0.8v-1.6h-1.5V341.8L272.5,341.8z M282.3,341.8h1.5v-6.6l0.1-1l0.3-0.7l0.4-0.4l0.6-0.2l0.4,0.1
	l0.3,0.4l0.1,0.6l0.1,0.8v6.9h1.4v-6.6l0.1-1l0.3-0.7l0.4-0.4l0.5-0.2l0.4,0.1l0.3,0.4l0.2,1.5v6.9h1.5V335l-0.1-1.4l-0.3-1.1
	l-0.6-0.7l-1-0.2l-1.1,0.4l-0.9,1.1l-0.7-1l-1.1-0.4l-1,0.4l-0.7,1v-1h-1.4V341.8L282.3,341.8z M305.1,341.8h1.7v-5.9h5.4v-1.5h-5.4
	v-3.8h6.6V329h-8.3V341.8L305.1,341.8z M316.7,341.8h1.6v-5.6l0.2-1.4l0.5-1l0.8-0.6l1.1-0.2l0.8,0.1l0.6,0.4l0.4,0.6l0.1,0.8h1.6
	l-0.2-1.5l-0.6-1.1l-1-0.6l-1.4-0.2l-0.9,0.1l-0.8,0.4l-0.7,0.6l-0.6,0.8v-1.6h-1.5V341.8L316.7,341.8z M326.7,336.8l0.3,2.2
	l0.8,1.7l1.3,1l1.8,0.3l1.8-0.3l1.3-1l0.8-1.7l0.3-2.3l-0.3-2.2l-0.8-1.7l-1.3-1l-1.8-0.4l-1.8,0.4l-1.3,1l-0.8,1.7L326.7,336.8
	L326.7,336.8z M328.4,336.8l0.2-1.7l0.5-1.2l0.8-0.7l1.1-0.3l1.1,0.3l0.8,0.7l0.5,1.2l0.2,1.7l-0.2,1.7l-0.5,1.2l-0.8,0.7l-1.1,0.2
	l-1.1-0.2l-0.8-0.7l-0.5-1.2L328.4,336.8L328.4,336.8z M338.2,341.8h1.6v-5.7l0.2-1.3l0.5-1l0.8-0.6l1.1-0.2l0.9,0.2l0.5,0.5
	l0.3,0.8l0.1,1.1v6.2h1.6v-6.5l-0.1-1.3l-0.3-1.1l-1.1-1l-1.7-0.3l-0.9,0.1L341,332l-0.7,0.6l-0.5,0.8v-1.5h-1.5V341.8L338.2,341.8z
	 M351.5,333.6v4.9l0.1,1.6l0.5,1.1l1,0.6l1.7,0.2l1.9-0.1v-1.4l-1.4,0.1l-1.3-0.1l-0.7-0.5l-0.3-0.8l-0.1-1.1v-4.7h3.7v-1.4h-3.7
	v-2.9h-1.6v2.9h-2.8v1.4H351.5L351.5,333.6z M371.5,341.8h8.2v-1.5h-6.5V329h-1.7V341.8L371.5,341.8z M382,336.8l0.3,2.2l0.8,1.7
	l1.3,1l1.8,0.3l1.8-0.3l1.3-1l0.8-1.7l0.3-2.3l-0.3-2.2l-0.8-1.7l-1.3-1l-1.8-0.4l-1.8,0.4l-1.3,1l-0.8,1.7L382,336.8L382,336.8z
	 M383.7,336.8l0.2-1.7l0.5-1.2l0.8-0.7l1.1-0.3l1.1,0.3l0.8,0.7l0.5,1.2l0.2,1.7l-0.2,1.7l-0.5,1.2l-0.8,0.7l-1.1,0.2l-1.1-0.2
	l-0.8-0.7l-0.5-1.2L383.7,336.8L383.7,336.8z M395.9,341.8l1.5-8.4l1.5,8.4h1.5l2.4-9.9h-1.6l-1.6,8.4l-1.5-8.4h-1.6l-1.5,8.4
	l-1.6-8.4h-1.5l2.4,9.9H395.9L395.9,341.8z M406,337.3h6.5l0-0.8l-0.3-2.1l-0.8-1.6l-1.3-1l-1.7-0.3l-1.7,0.4l-1.3,1l-0.8,1.7
	l-0.3,2.2l0.3,2.3l0.8,1.7l1.3,1l1.7,0.3l1.4-0.2l1.2-0.6l0.9-1l0.5-1.3h-1.6l-0.3,0.7l-0.5,0.5l-1.4,0.4l-1-0.2l-0.8-0.6l-0.5-1
	L406,337.3L406,337.3L406,337.3z M406,335.9l0.2-1.3l0.5-0.9l0.8-0.6l1-0.2l1,0.2l0.8,0.6l0.5,0.9l0.2,1.3H406L406,335.9z
	 M416.3,341.8h1.6v-5.6l0.2-1.4l0.5-1l0.8-0.6l1.1-0.2l0.8,0.1l0.6,0.4l0.4,0.6l0.1,0.8h1.6l-0.2-1.5l-0.6-1.1l-1-0.6l-1.4-0.2
	l-0.9,0.1l-0.8,0.4l-0.7,0.6l-0.6,0.8v-1.6h-1.5V341.8L416.3,341.8z"/>
<path d="M36.7,112.6H38V108h4.2v-1.2H38v-3h5.1v-1.2h-6.5V112.6L36.7,112.6z M45.3,112.6h6.4v-1.2h-5.1v-8.7h-1.3V112.6L45.3,112.6z
	 M53.9,112.6h6.4v-1.2h-5.1v-8.7h-1.3V112.6L53.9,112.6z M63.7,109.3h3.5v-1.1h-3.5V109.3L63.7,109.3z"/>
<path d="M36.7,129.7H38v-4.6h4.2V124H38v-3h5.1v-1.2h-6.5V129.7L36.7,129.7z M45.3,129.7h6.4v-1.2h-5.1v-8.7h-1.3V129.7L45.3,129.7z
	 M53.4,126l0.2,1.8l0.6,1.3l1.1,0.7l1.5,0.3l1.5-0.3l1.1-0.7l0.6-1.3l0.2-1.8v-6.1h-1.3v6.2l-0.1,1.2l-0.4,0.9l-0.7,0.5l-0.9,0.2
	l-0.9-0.2l-0.7-0.5l-0.4-0.9l-0.1-1.2v-6.2h-1.3V126L53.4,126z"/>
<path d="M104.2,116.8h1.3v-4.6h4.2V111h-4.2v-3h5.1v-1.2h-6.5V116.8L104.2,116.8z M112.8,116.8h6.4v-1.2h-5.1v-8.7h-1.3V116.8
	L112.8,116.8z M121.4,116.8h6.4v-1.2h-5.1v-8.7h-1.3V116.8L121.4,116.8z M131.2,113.5h3.5v-1.1h-3.5V113.5L131.2,113.5z"/>
<path d="M104.2,133.9h1.3v-4.6h4.2v-1.2h-4.2v-3h5.1V124h-6.5V133.9L104.2,133.9z M112.8,133.9h6.4v-1.2h-5.1V124h-1.3V133.9
	L112.8,133.9z M124.3,124H121v9.9h3.3l1.6-0.3l1.2-1l0.7-1.6l0.3-2.1l-0.2-2.2l-0.3-0.9l-0.4-0.7l-1.2-0.9l-0.8-0.2L124.3,124
	L124.3,124z M124.2,125.2l1.1,0.2l0.7,0.7l0.4,1.2l0.1,1.7l-0.2,1.7l-0.4,1.2l-0.8,0.7l-1.1,0.2h-1.9v-7.5H124.2L124.2,125.2z"/>
</svg>
