<?xml version="1.0" encoding="utf-8"?>
<!-- Generator: Adobe Illustrator 22.1.0, SVG Export Plug-In . SVG Version: 6.00 Build 0)  -->
<svg version="1.1" id="Calque_1" dsy:text-version="18000" xmlns:dsy="http://www.3ds.com/print"
	 xmlns="http://www.w3.org/2000/svg" xmlns:xlink="http://www.w3.org/1999/xlink" x="0px" y="0px" viewBox="0 0 297 210"
	 style="enable-background:new 0 0 297 210;" xml:space="preserve">
<style type="text/css">
	.st0{fill:none;stroke:#000000;stroke-width:0.35;}
</style>
<path class="st0" d="M109,61.6C104,51.8,92,48,82.3,53c-7.9,4.1-12.1,12.8-10.3,21.5"/>
<circle class="st0" cx="91.4" cy="70.7" r="9.1"/>
<path class="st0" d="M132.9,107.7L109,61.6"/>
<path class="st0" d="M82.4,126.6l-10.4-52"/>
<path class="st0" d="M91.4,115.5c-3.6,3.2-6.7,6.9-9,11"/>
<path class="st0" d="M132.9,107.7c-14.3-5.1-30.1-2.2-41.5,7.8"/>
<path class="st0" d="M175.1,61.2c-3.5-10.4-14.8-15.9-25.2-12.4c-8.4,2.8-13.9,10.9-13.5,19.7"/>
<circle class="st0" cx="156.3" cy="67.6" r="9.1"/>
<path class="st0" d="M139.1,123.9l-2.6-55.4"/>
<path class="st0" d="M192.9,114l-17.8-52.8"/>
<path class="st0" d="M192.9,114c-4.1-2.4-8.6-4.1-13.3-5"/>
<path class="st0" d="M179.7,109c-15.3-3-30.8,2.7-40.6,14.9"/>
<path class="st0" d="M-244.1,376.6h785.2"/>
<path class="st0" d="M541.1,376.6V-162"/>
<path class="st0" d="M541.1-162h-785.2"/>
<path class="st0" d="M-244.1-162v538.6"/>
<path class="st0" d="M148.5-162v-28.3"/>
<path class="st0" d="M-244.1,107.3h-28.3"/>
<path class="st0" d="M541.1,107.3h28.3"/>
<path class="st0" d="M358.8,376.6v21.3"/>
<path class="st0" d="M-61.8,376.6v21.3"/>
<path class="st0" d="M358.8-162v-21.3"/>
<path class="st0" d="M-61.8-162v-21.3"/>
<path class="st0" d="M-244.1-41.5h-21.3"/>
<path class="st0" d="M541.1-41.5h21.3"/>
<path class="st0" d="M-244.1,256.1h-21.3"/>
<path class="st0" d="M541.1,256.1h21.3"/>
<path class="st0" d="M290.2,376.6v14.2"/>
<path class="st0" d="M261.9,376.6v7.1"/>
<path class="st0" d="M233.5,376.6v7.1"/>
<path class="st0" d="M205.2,376.6v7.1"/>
<path class="st0" d="M541.1,206.5v170.1"/>
<g>
	<path d="M459.7,396h1.3l1-2.9h4l1,2.9h1.3l-3.6-9.9h-1.5L459.7,396L459.7,396z M462.5,391.8l1.5-4.4l1.5,4.4H462.5L462.5,391.8z"/>
</g>
<g>
	<path d="M-167,386h-3.3v9.9h3.3l1.6-0.3l1.2-1l0.7-1.6l0.3-2.1l-0.2-2.2l-0.3-0.9l-0.4-0.7l-1.2-0.9l-0.8-0.2L-167,386L-167,386z
		 M-167.1,387.2l1.1,0.2l0.7,0.7l0.4,1.2l0.1,1.7l-0.2,1.7l-0.4,1.2l-0.8,0.7l-1.1,0.2h-1.9v-7.5H-167.1L-167.1,387.2z"/>
</g>
<g>
	<path d="M253.5-178l-0.8-1l-0.6-0.3l-0.7-0.1l-1.1,0.2l-0.8,0.6l-0.5,0.9l-0.2,1.3v3.5h9.9v-3.7l-0.2-1.3l-0.6-1l-0.9-0.6l-1.3-0.2
		l-0.8,0.1l-0.7,0.3l-0.5,0.6L253.5-178L253.5-178z M253.1-176.1v1.9h-2.9v-2.1l0.1-0.8l0.3-0.5l0.4-0.3l0.7-0.1l0.7,0.1l0.5,0.3
		l0.3,0.6L253.1-176.1L253.1-176.1z M257.7-176.4v2.3h-3.4v-2.1l0.1-0.9l0.3-0.6l0.5-0.4l0.7-0.1l0.8,0.1l0.5,0.4l0.3,0.6
		L257.7-176.4L257.7-176.4z"/>
</g>
<g>
	<path d="M44.8-178.5l1.2,0.3l0.9,0.5l0.5,0.7l0.2,0.8l-0.3,0.9l-0.8,0.7l-1.3,0.5l-1.7,0.2l-1.7-0.2l-1.3-0.5l-0.8-0.7l-0.3-0.9
		l0.1-0.7l0.4-0.6l0.6-0.5l0.9-0.3v-1.4l-1.4,0.4l-1,0.7l-0.6,1l-0.2,1.2l0.4,1.5l1,1.2l1.6,0.7l2.2,0.3l2.2-0.3l1.6-0.7l1-1.2
		l0.3-1.5l-0.3-1.3l-0.8-1.1l-1.2-0.8l-1.7-0.4V-178.5L44.8-178.5z"/>
</g>
<g>
	<path d="M469.2-171.8v-1.3l-2.9-1v-4l2.9-1v-1.3l-9.9,3.6v1.5L469.2-171.8L469.2-171.8z M465.1-174.6l-4.4-1.5l4.4-1.5V-174.6
		L465.1-174.6z"/>
</g>
<g>
	<path d="M-171.7-176.2v3.3h9.9v-3.3l-0.3-1.6l-1-1.2l-1.6-0.7l-2.1-0.3l-2.2,0.2l-0.9,0.3l-0.7,0.4l-0.9,1.2l-0.2,0.8L-171.7-176.2
		L-171.7-176.2z M-170.5-176.1l0.2-1.1l0.7-0.7l1.2-0.4l1.7-0.1l1.7,0.2l1.2,0.4l0.7,0.8l0.2,1.1v1.9h-7.5V-176.1L-170.5-176.1z"/>
</g>
<g>
	<path d="M551.7,35v0.1l0.2,1.4l0.7,1l1.1,0.7l1.4,0.2l1.5-0.2l1.1-0.6l0.7-1l0.3-1.3l-0.1-0.8l-0.3-0.7l-0.5-0.5l-0.7-0.4l0.9-0.8
		l0.3-1.2l-0.2-1.1l-0.6-0.8l-1-0.5l-1.4-0.2l-1.3,0.2l-1,0.6l-0.6,1l-0.2,1.3v0.1h1.3l0.1-0.9l0.4-0.7l0.6-0.4l0.8-0.1l0.7,0.1
		l0.5,0.3l0.3,0.5l0.1,0.7l-0.1,0.7l-0.3,0.5l-0.6,0.3l-0.8,0.1l-0.6,0v1.1l0.7,0l0.9,0.1l0.7,0.3l0.4,0.6l0.1,0.7l-0.2,0.8
		l-0.4,0.6L556,37l-0.9,0.1l-0.9-0.1l-0.7-0.4l-0.4-0.7L553,35H551.7L551.7,35z"/>
</g>
<g>
	<path d="M-256.2,36.5h0.1l1.4-0.2l1-0.7l0.7-1.1l0.2-1.4l-0.2-1.5l-0.6-1.1l-1-0.7l-1.3-0.3l-0.8,0.1l-0.7,0.3l-0.5,0.5l-0.4,0.7
		l-0.8-0.9l-1.2-0.3l-1.1,0.2l-0.8,0.6l-0.5,1l-0.2,1.4l0.2,1.3l0.6,1l1,0.6l1.3,0.2h0.1V35l-0.9-0.1l-0.7-0.4l-0.4-0.6l-0.1-0.8
		l0.1-0.7l0.3-0.5l0.5-0.3l0.7-0.1l0.7,0.1l0.5,0.3l0.3,0.6l0.1,0.8l0,0.6h1.1l0-0.7l0.1-0.9l0.3-0.7l0.6-0.4l0.7-0.1l0.8,0.2
		l0.6,0.4l0.4,0.7l0.1,0.9l-0.1,0.9l-0.4,0.7l-0.7,0.4l-0.9,0.2V36.5L-256.2,36.5z"/>
</g>
<g>
	<path d="M551.8,186.9h6.8v-1.2h-5.4l0.3-0.7l0.5-0.6l1.6-1l0.8-0.4l0.9-0.6l0.7-0.7l0.4-0.8l0.1-1l-0.2-1.2l-0.7-0.9l-1-0.6
		l-1.3-0.2l-1.4,0.2l-1,0.7l-0.7,1.1l-0.2,1.4v0.2h1.3v-0.1l0.1-1l0.4-0.7l0.6-0.5l0.8-0.2l0.8,0.1l0.6,0.4l0.4,0.6l0.1,0.7
		l-0.1,0.7l-0.3,0.6l-0.5,0.5l-0.6,0.4l-0.8,0.5l-1.4,0.9l-1,0.9l-0.6,1.1L551.8,186.9L551.8,186.9L551.8,186.9z"/>
</g>
<g>
	<path d="M-253.1,185.2v-6.8h-1.2v5.4l-0.7-0.3l-0.6-0.5l-1-1.6l-0.4-0.8l-0.6-0.9l-0.7-0.7l-0.8-0.4l-1-0.1l-1.2,0.2l-0.9,0.7
		l-0.6,1l-0.2,1.3l0.2,1.4l0.7,1l1.1,0.7l1.4,0.2h0.2v-1.3h-0.1l-1-0.1l-0.7-0.4l-0.5-0.6l-0.2-0.8l0.1-0.8l0.4-0.6l0.6-0.4l0.7-0.1
		l0.7,0.1l0.6,0.3l0.5,0.5l0.4,0.6l0.5,0.8l0.9,1.4l0.9,1l1.1,0.6L-253.1,185.2L-253.1,185.2L-253.1,185.2z"/>
</g>
<g>
	<path d="M556.1-110.7h1.3v-2.5h1.4v-1.1h-1.4v-6.1H556l-4.3,6v1.3h4.4V-110.7L556.1-110.7z M552.9-114.3l3.2-4.4v4.4H552.9
		L552.9-114.3z"/>
</g>
<g>
	<path d="M-253.1-116.7v-1.3h-2.5v-1.4h-1.1v1.4h-6.1v1.3l6,4.3h1.3v-4.4H-253.1L-253.1-116.7z M-256.7-113.6l-4.4-3.2h4.4V-113.6
		L-256.7-113.6z"/>
</g>
<g>
	<path d="M555,335.7h1.3v-10h-1l-0.3,0.9l-0.5,0.6l-0.8,0.3l-1.1,0.1v1h2.3V335.7L555,335.7z"/>
</g>
<g>
	<path d="M-253.1,330.8v-1.3h-10v1l0.9,0.3l0.6,0.5l0.3,0.8l0.1,1.1h1v-2.3H-253.1L-253.1,330.8z"/>
</g>
<g>
	<path d="M192.7,291.5h-2.4v7.1h2.4l1.1-0.2l0.8-0.7l0.5-1.1l0.2-1.5l-0.2-1.6l-0.2-0.6l-0.3-0.5l-0.8-0.7l-0.5-0.2L192.7,291.5
		L192.7,291.5z M192.6,292.3l0.8,0.2l0.5,0.5l0.3,0.8l0.1,1.2l-0.1,1.2l-0.3,0.8l-0.5,0.5l-0.8,0.2h-1.3v-5.4H192.6L192.6,292.3z
		 M198.1,292.3h0.6l1.4-1.7h-1L198.1,292.3L198.1,292.3z M197.5,296.1h3.6l0-0.4l-0.2-1.2l-0.5-0.9l-0.7-0.5l-0.9-0.2l-0.9,0.2
		l-0.7,0.6l-0.5,0.9l-0.2,1.2l0.2,1.3l0.5,0.9l0.7,0.6l0.9,0.2l0.8-0.1l0.7-0.3l0.5-0.5l0.3-0.7h-0.9l-0.2,0.4l-0.3,0.3l-0.8,0.2
		l-0.6-0.1l-0.4-0.4l-0.3-0.6L197.5,296.1L197.5,296.1L197.5,296.1z M197.5,295.3l0.1-0.7l0.3-0.5l0.4-0.3l0.6-0.1l0.5,0.1l0.4,0.3
		l0.3,0.5l0.1,0.7H197.5L197.5,295.3z M205.5,295.3l-0.9-0.2l-0.6-0.2l-0.2-0.5l0.1-0.3l0.2-0.2l0.3-0.2l0.5-0.1l0.5,0.1l0.4,0.2
		l0.2,0.3l0.1,0.4h0.9v0l-0.2-0.7l-0.4-0.5l-0.7-0.3l-0.9-0.1l-0.9,0.1l-0.6,0.3l-0.4,0.5l-0.1,0.6l0.1,0.6l0.3,0.4l0.5,0.3l0.7,0.2
		l1,0.2l0.6,0.3l0.2,0.2l0.1,0.3l-0.1,0.4l-0.2,0.3l-0.4,0.2l-0.5,0.1l-0.6-0.1l-0.4-0.2l-0.3-0.3l-0.1-0.5h-0.9l0.1,0.8l0.4,0.6
		l0.7,0.4l0.9,0.1l1-0.1l0.7-0.4l0.4-0.6l0.2-0.7l-0.1-0.6l-0.3-0.4l-0.5-0.3L205.5,295.3L205.5,295.3z M211.7,297.8v-4.5h-2.3v0.8
		h1.4v3.8H209v0.8h4.6v-0.8H211.7L211.7,297.8z M211.8,291.2h-0.9v1h0.9V291.2L211.8,291.2z M219.4,298.3v-5.2h-0.9v0.9l-0.7-0.8
		l-0.4-0.2l-0.5-0.1l-0.9,0.2l-0.7,0.6l-0.4,0.9l-0.2,1.2l0.2,1.2l0.4,0.9l0.7,0.6l0.9,0.2l0.5-0.1l0.4-0.2l0.7-0.8v0.8l-0.1,0.6
		l-0.2,0.4l-0.4,0.3l-0.6,0.1l-0.6-0.1l-0.4-0.2l-0.2-0.3l-0.1-0.4H215v0l0.1,0.7l0.4,0.5l0.7,0.3l0.9,0.1l1.1-0.2l0.7-0.4l0.4-0.7
		L219.4,298.3L219.4,298.3z M215.7,295.8l0.1-0.9l0.3-0.7l0.4-0.4l0.6-0.1l0.6,0.1l0.5,0.4l0.3,0.7l0.1,0.9l-0.1,0.9l-0.3,0.7
		l-0.5,0.4l-0.6,0.1l-0.6-0.1l-0.4-0.4l-0.3-0.7L215.7,295.8L215.7,295.8z M221.3,298.5h0.9v-3.2l0.1-0.7l0.3-0.5l0.5-0.3l0.6-0.1
		l0.5,0.1l0.3,0.3l0.2,0.5l0.1,0.6v3.4h0.9v-3.6l0-0.7l-0.2-0.6l-0.6-0.5l-0.9-0.2l-0.5,0.1l-0.4,0.2l-0.4,0.3l-0.3,0.4v-0.8h-0.9
		V298.5L221.3,298.5z M230.7,297.8L230.7,297.8l0.1,0.4l0.2,0.2l0.6,0.2l0.5-0.1v-0.7l-0.2,0l-0.3-0.1l-0.1-0.4v-2.8l-0.1-0.7
		l-0.4-0.5l-0.6-0.3l-0.9-0.1l-0.9,0.1l-0.6,0.3l-0.4,0.5l-0.1,0.7v0.1h0.8l0.1-0.4l0.2-0.3l0.4-0.2l0.5-0.1l0.5,0.1l0.4,0.2
		l0.2,0.3l0.1,0.4l0,0.4l-0.2,0.2l-0.4,0.1l-0.8,0.1l-0.9,0.2l-0.6,0.3l-0.4,0.5l-0.1,0.8l0.1,0.7l0.3,0.5l0.5,0.3l0.7,0.1l0.9-0.2
		L230.7,297.8L230.7,297.8z M230.6,296.6l-0.1,0.5l-0.3,0.4l-0.5,0.3l-0.6,0.1l-0.4-0.1l-0.3-0.2l-0.2-0.3l-0.1-0.4l0-0.4l0.2-0.3
		l0.7-0.3l0.8-0.1l0.7-0.2V296.6L230.6,296.6z M234.8,294v2.7l0.1,0.9l0.3,0.6l0.6,0.4l1,0.1l1.1-0.1v-0.8L237,298l-0.7-0.1
		l-0.4-0.3l-0.2-0.4l0-0.6V294h2.1v-0.8h-2.1v-1.6h-0.9v1.6h-1.6v0.8H234.8L234.8,294z M242.5,297.8v-4.5h-2.3v0.8h1.4v3.8h-1.8v0.8
		h4.6v-0.8H242.5L242.5,297.8z M242.5,291.2h-0.9v1h0.9V291.2L242.5,291.2z M245.6,295.8l0.2,1.2l0.5,0.9l0.7,0.6l1,0.2l1-0.2
		l0.7-0.6l0.5-0.9l0.2-1.3l-0.2-1.2l-0.5-0.9l-0.7-0.6l-1-0.2l-1,0.2l-0.7,0.6l-0.5,0.9L245.6,295.8L245.6,295.8z M246.5,295.8
		l0.1-0.9l0.3-0.7l0.5-0.4l0.6-0.1l0.6,0.1l0.5,0.4l0.3,0.7l0.1,0.9l-0.1,0.9l-0.3,0.7l-0.5,0.4l-0.6,0.1l-0.6-0.1l-0.5-0.4
		l-0.3-0.7L246.5,295.8L246.5,295.8z M252,298.5h0.9v-3.2l0.1-0.7l0.3-0.5l0.5-0.3l0.6-0.1l0.5,0.1l0.3,0.3l0.2,0.5l0.1,0.6v3.4h0.9
		v-3.6l0-0.7l-0.2-0.6l-0.6-0.5l-0.9-0.2l-0.5,0.1l-0.4,0.2l-0.4,0.3l-0.3,0.4v-0.8H252V298.5L252,298.5z"/>
</g>
<g>
	<path d="M164.7,335.4h1.7v-5.9h5.4V328h-5.4v-3.8h6.6v-1.5h-8.3V335.4L164.7,335.4z M176.3,335.4h1.6v-5.6l0.2-1.4l0.5-1l0.8-0.6
		l1.1-0.2l0.8,0.1l0.6,0.4l0.4,0.6l0.1,0.8h1.6l-0.2-1.5l-0.6-1.1l-1-0.6l-1.4-0.2l-0.9,0.1l-0.8,0.4l-0.7,0.6l-0.6,0.8v-1.6h-1.5
		V335.4L176.3,335.4z M186.3,330.5l0.3,2.2l0.8,1.7l1.3,1l1.8,0.3l1.8-0.3l1.3-1l0.8-1.7l0.3-2.3l-0.3-2.2l-0.8-1.7l-1.3-1l-1.8-0.4
		l-1.8,0.4l-1.3,1l-0.8,1.7L186.3,330.5L186.3,330.5z M188,330.5l0.2-1.7l0.5-1.2l0.8-0.7l1.1-0.3l1.1,0.3l0.8,0.7l0.5,1.2l0.2,1.7
		l-0.2,1.7l-0.5,1.2l-0.8,0.7l-1.1,0.2l-1.1-0.2l-0.8-0.7l-0.5-1.2L188,330.5L188,330.5z M197.9,335.4h1.6v-5.7l0.2-1.3l0.5-1
		l0.8-0.6l1.1-0.2l0.9,0.2l0.5,0.5l0.3,0.8l0.1,1.1v6.2h1.6v-6.5l-0.1-1.3l-0.3-1.1l-1.1-1l-1.7-0.3l-0.9,0.1l-0.8,0.3l-0.7,0.6
		l-0.5,0.8v-1.5h-1.5V335.4L197.9,335.4z M211.1,327.2v4.9l0.1,1.6l0.5,1.1l1,0.6l1.7,0.2l1.9-0.1v-1.4l-1.4,0.1l-1.3-0.1l-0.7-0.5
		l-0.3-0.8l-0.1-1.1v-4.7h3.7v-1.4h-3.7V323h-1.6v2.9h-2.8v1.4H211.1L211.1,327.2z M231.1,335.4h8.2v-1.5h-6.5v-11.2h-1.7V335.4
		L231.1,335.4z M243.5,330.9h6.5l0-0.8l-0.3-2.1l-0.8-1.6l-1.3-1l-1.7-0.3l-1.7,0.4l-1.3,1l-0.8,1.7l-0.3,2.2l0.3,2.3l0.8,1.7l1.3,1
		l1.7,0.3l1.4-0.2l1.2-0.6l0.9-1l0.5-1.3h-1.6l-0.3,0.7l-0.5,0.5l-1.4,0.4l-1-0.2l-0.8-0.6l-0.5-1L243.5,330.9L243.5,330.9
		L243.5,330.9z M243.5,329.6l0.2-1.3l0.5-0.9l0.8-0.6l1-0.2l1,0.2l0.8,0.6l0.5,0.9l0.2,1.3H243.5L243.5,329.6z M255.4,327.2v8.2h1.6
		v-8.2h3.7v-1.4H257v-0.6l0.1-0.7l0.4-0.5l0.7-0.3l1-0.1l1.4,0.1v-1.4l-1.7-0.1l-1.6,0.2l-1.1,0.5l-0.7,0.9l-0.2,1.2v0.9h-3v1.4
		H255.4L255.4,327.2z M266.4,327.2v4.9l0.1,1.6l0.5,1.1l1,0.6l1.7,0.2l1.9-0.1v-1.4l-1.4,0.1l-1.3-0.1l-0.7-0.5l-0.3-0.8l-0.1-1.1
		v-4.7h3.7v-1.4H268V323h-1.6v2.9h-2.8v1.4H266.4L266.4,327.2z M286.5,335.4h8.2v-1.5h-6.5v-11.2h-1.7V335.4L286.5,335.4z
		 M297,330.5l0.3,2.2l0.8,1.7l1.3,1l1.8,0.3l1.8-0.3l1.3-1l0.8-1.7l0.3-2.3l-0.3-2.2l-0.8-1.7l-1.3-1l-1.8-0.4l-1.8,0.4l-1.3,1
		l-0.8,1.7L297,330.5L297,330.5z M298.6,330.5l0.2-1.7l0.5-1.2l0.8-0.7l1.1-0.3l1.1,0.3l0.8,0.7l0.5,1.2l0.2,1.7l-0.2,1.7l-0.5,1.2
		l-0.8,0.7l-1.1,0.2l-1.1-0.2l-0.8-0.7l-0.5-1.2L298.6,330.5L298.6,330.5z M310.8,335.4l1.5-8.4l1.5,8.4h1.5l2.4-9.9h-1.6l-1.6,8.4
		l-1.5-8.4h-1.6l-1.5,8.4l-1.6-8.4h-1.5l2.4,9.9H310.8L310.8,335.4z M321,330.9h6.5l0-0.8l-0.3-2.1l-0.8-1.6l-1.3-1l-1.7-0.3
		l-1.7,0.4l-1.3,1l-0.8,1.7l-0.3,2.2l0.3,2.3l0.8,1.7l1.3,1l1.7,0.3l1.4-0.2l1.2-0.6l0.9-1l0.5-1.3h-1.6l-0.3,0.7l-0.5,0.5l-1.4,0.4
		l-1-0.2l-0.8-0.6l-0.5-1L321,330.9L321,330.9L321,330.9z M321,329.6l0.2-1.3l0.5-0.9l0.8-0.6l1-0.2l1,0.2l0.8,0.6l0.5,0.9l0.2,1.3
		H321L321,329.6z M331.2,335.4h1.6v-5.6l0.2-1.4l0.5-1l0.8-0.6l1.1-0.2l0.8,0.1l0.6,0.4l0.4,0.6l0.1,0.8h1.6l-0.2-1.5l-0.6-1.1
		l-1-0.6l-1.4-0.2l-0.9,0.1l-0.8,0.4l-0.7,0.6l-0.6,0.8v-1.6h-1.5V335.4L331.2,335.4z M351,335.4h1.7l1.3-3.8h5.1l1.3,3.8h1.7
		l-4.7-12.8h-1.9L351,335.4L351,335.4z M354.6,330.1l2-5.6l2,5.6H354.6L354.6,330.1z M365.4,331.2h4.4v-1.5h-4.4V331.2L365.4,331.2z
		 M373.1,335.4h1.7l1.3-3.8h5.1l1.3,3.8h1.7l-4.7-12.8h-1.9L373.1,335.4L373.1,335.4z M376.7,330.1l2-5.6l2,5.6H376.7L376.7,330.1z
		 M386.6,335.4h1.6v-5.6l0.2-1.4l0.5-1l0.8-0.6l1.1-0.2l0.8,0.1l0.6,0.4l0.4,0.6l0.1,0.8h1.6l-0.2-1.5l-0.6-1.1l-1-0.6l-1.4-0.2
		l-0.9,0.1l-0.8,0.4l-0.7,0.6l-0.6,0.8v-1.6h-1.5V335.4L386.6,335.4z M396.4,335.4h1.5v-6.6l0.1-1l0.3-0.7l0.4-0.4l0.6-0.2l0.4,0.1
		l0.3,0.4l0.1,0.6l0.1,0.8v6.9h1.4v-6.6l0.1-1l0.3-0.7l0.4-0.4l0.6-0.2l0.4,0.1l0.3,0.4l0.2,1.5v6.9h1.5v-6.8l-0.1-1.4l-0.3-1.1
		l-0.6-0.7l-1-0.2l-1.1,0.4l-0.9,1.1l-0.7-1l-1.1-0.4l-1,0.4l-0.7,1v-1h-1.4V335.4L396.4,335.4z M418.9,335.4h1.7V330h1.7l1.3,0.1
		l0.8,0.3l0.4,0.6l0.2,1.1l0.1,1.7l0.1,1.1l0.2,0.6h1.9V335l-0.4-0.5l-0.1-1l-0.1-2.1l-0.3-1.5l-0.4-0.5l-0.7-0.3l0.7-0.5l0.5-0.6
		l0.3-0.8l0.1-1l-0.3-1.5l-0.7-1.2l-1.2-0.7l-1.7-0.2h-4.3V335.4L418.9,335.4z M422.6,324.2l1.1,0.1l0.8,0.3l0.5,0.6l0.2,1l-0.2,1.1
		l-0.5,0.6l-0.8,0.3l-1.2,0.1h-2v-4.2H422.6L422.6,324.2z M431.6,330.9h6.5l0-0.8l-0.3-2.1l-0.8-1.6l-1.3-1l-1.7-0.3l-1.7,0.4
		l-1.3,1l-0.8,1.7l-0.3,2.2l0.3,2.3l0.8,1.7l1.3,1l1.7,0.3l1.4-0.2l1.2-0.6l0.9-1l0.5-1.3h-1.6l-0.3,0.7l-0.5,0.5l-1.4,0.4l-1-0.2
		l-0.8-0.6l-0.5-1L431.6,330.9L431.6,330.9L431.6,330.9z M431.6,329.6l0.2-1.3l0.5-0.9l0.8-0.6l1-0.2l1,0.2l0.8,0.6l0.5,0.9l0.2,1.3
		H431.6L431.6,329.6z M447.1,334.1L447.1,334.1l0.1,0.7l0.3,0.4l1.2,0.4l0.9-0.1v-1.3l-0.4,0.1l-0.5-0.2l-0.1-0.7v-5.1l-0.2-1.3
		l-0.6-0.9l-1.1-0.5l-1.6-0.2l-1.5,0.2l-1.1,0.6l-0.7,1l-0.2,1.3v0.1h1.5l0.1-0.8l0.4-0.6l0.7-0.3l0.9-0.1l0.9,0.1l0.6,0.3l0.4,0.5
		l0.1,0.7l-0.1,0.8l-0.3,0.4l-0.7,0.2l-1.4,0.1l-1.6,0.3l-1.1,0.6l-0.7,0.9l-0.2,1.4l0.2,1.2l0.6,0.9l0.9,0.6l1.3,0.2l1.7-0.4
		L447.1,334.1L447.1,334.1z M447,331.9l-0.2,1l-0.6,0.7l-0.9,0.5l-1.1,0.2l-0.7-0.1l-0.5-0.3l-0.3-0.5l-0.1-0.7l0.1-0.6l0.3-0.5
		l1.2-0.5l1.5-0.2l1.3-0.4V331.9L447,331.9z M453,335.4h1.6v-5.6l0.2-1.4l0.5-1l0.8-0.6l1.1-0.2l0.8,0.1l0.6,0.4l0.4,0.6l0.1,0.8
		h1.6l-0.2-1.5l-0.6-1.1l-1-0.6l-1.4-0.2l-0.9,0.1l-0.8,0.4l-0.7,0.6l-0.6,0.8v-1.6H453V335.4L453,335.4z M473.9,330.5l0.3,2.3
		l0.8,1.6l1.4,0.9l2,0.3l2-0.3l1.4-0.9l0.8-1.6l0.3-2.3v-7.9H481v8l-0.2,1.6l-0.5,1.1l-0.8,0.7l-1.2,0.2l-1.2-0.2l-0.8-0.7l-0.5-1.1
		l-0.1-1.6v-8h-1.7V330.5L473.9,330.5z M487.1,327.1v-1.5h-1.6v13.7h1.6v-5.3l0.6,0.9l0.6,0.6l1.6,0.4l1.5-0.3l1.2-1l0.8-1.7
		l0.3-2.2l-0.3-2.2l-0.8-1.7l-1.2-1l-1.5-0.4l-0.9,0.1l-0.8,0.4l-0.6,0.6L487.1,327.1L487.1,327.1z M489.6,334.3l-1.1-0.2l-0.8-0.7
		l-0.5-1.2l-0.2-1.7l0.2-1.7l0.5-1.2l0.8-0.7l1.1-0.3l1,0.3l0.8,0.7l0.5,1.2l0.2,1.6l-0.2,1.7l-0.5,1.2l-0.8,0.7L489.6,334.3
		L489.6,334.3z M498.1,327.1v-1.5h-1.6v13.7h1.6v-5.3l0.6,0.9l0.6,0.6l1.6,0.4l1.5-0.3l1.2-1l0.8-1.7l0.3-2.2l-0.3-2.2l-0.8-1.7
		l-1.2-1l-1.5-0.4l-0.9,0.1l-0.8,0.4l-0.6,0.6L498.1,327.1L498.1,327.1z M500.7,334.3l-1.1-0.2l-0.8-0.7l-0.5-1.2l-0.2-1.7l0.2-1.7
		l0.5-1.2l0.8-0.7l1.1-0.3l1,0.3l0.8,0.7l0.5,1.2l0.2,1.6l-0.2,1.7l-0.5,1.2l-0.8,0.7L500.7,334.3L500.7,334.3z M509.1,330.9h6.5
		l0-0.8l-0.3-2.1l-0.8-1.6l-1.3-1l-1.7-0.3l-1.7,0.4l-1.3,1l-0.8,1.7l-0.3,2.2l0.3,2.3l0.8,1.7l1.3,1l1.7,0.3l1.4-0.2l1.2-0.6l0.9-1
		l0.5-1.3h-1.6l-0.3,0.7l-0.5,0.5l-1.4,0.4l-1-0.2l-0.8-0.6l-0.5-1L509.1,330.9L509.1,330.9L509.1,330.9z M509.1,329.6l0.2-1.3
		l0.5-0.9l0.8-0.6l1-0.2l1,0.2l0.8,0.6l0.5,0.9l0.2,1.3H509.1L509.1,329.6z M519.3,335.4h1.6v-5.6l0.2-1.4l0.5-1l0.8-0.6l1.1-0.2
		l0.8,0.1l0.6,0.4l0.4,0.6l0.1,0.8h1.6l-0.2-1.5l-0.6-1.1l-1-0.6l-1.4-0.2l-0.9,0.1l-0.8,0.4l-0.7,0.6l-0.6,0.8v-1.6h-1.5V335.4
		L519.3,335.4z"/>
</g>
<g>
	<path d="M83.9,91.8h0.9v-3.3h3v-0.8h-3v-2.1h3.7v-0.9h-4.6V91.8L83.9,91.8z M90,91.8h4.6V91H91v-6.2H90V91.8L90,91.8z M96.2,91.8
		h4.6V91h-3.6v-6.2h-0.9V91.8L96.2,91.8z M103.2,89.5h2.5v-0.8h-2.5V89.5L103.2,89.5z"/>
</g>
<g>
	<path d="M83.7,104.1h0.9v-3h1l0.7,0l0.4,0.1l0.2,0.3l0.1,0.6l0.1,0.9l0.1,0.6l0.1,0.4h1.1v-0.2l-0.2-0.3l-0.1-0.5l-0.1-1.1
		l-0.2-0.8l-0.2-0.3l-0.4-0.2l0.4-0.3L88,100l0.2-0.5l0.1-0.5l-0.1-0.9l-0.4-0.6L87,97.1L86.1,97h-2.4V104.1L83.7,104.1z M85.8,97.9
		l0.6,0.1l0.4,0.2l0.3,0.4l0.1,0.6l-0.1,0.6l-0.3,0.4l-0.5,0.2l-0.6,0.1h-1.1v-2.4H85.8L85.8,97.9z M89.7,101.4l0.1,1.3l0.4,0.9
		l0.8,0.5l1.1,0.2l1.1-0.2l0.8-0.5l0.4-0.9l0.2-1.3V97h-0.9v4.4l-0.1,0.9l-0.3,0.6l-0.5,0.4l-0.7,0.1l-0.7-0.1l-0.5-0.4l-0.3-0.6
		l-0.1-0.9V97h-0.9V101.4L89.7,101.4z M95.8,101.4l0.1,1.3l0.5,0.9l0.8,0.5l1.1,0.2l1.1-0.2l0.8-0.5l0.5-0.9l0.2-1.3V97h-0.9v4.4
		l-0.1,0.9l-0.3,0.6l-0.5,0.4l-0.7,0.1l-0.7-0.1l-0.5-0.4l-0.3-0.6l-0.1-0.9V97h-0.9V101.4L95.8,101.4z"/>
</g>
<path d="M145.9,91.6h0.9v-3.3h3v-0.8h-3v-2.1h3.7v-0.9h-4.6V91.6L145.9,91.6z M152.1,91.6h4.6v-0.9H153v-6.2h-0.9V91.6L152.1,91.6z
	 M158.3,91.6h4.6v-0.9h-3.6v-6.2h-0.9V91.6L158.3,91.6z M165.2,89.2h2.5v-0.8h-2.5V89.2L165.2,89.2z"/>
<path d="M145.8,103.8h0.9v-3h1l0.7,0l0.5,0.1l0.2,0.3l0.1,0.6l0.1,0.9l0.1,0.6l0.1,0.4h1.1v-0.2l-0.2-0.3l-0.1-0.5l-0.1-1.1
	l-0.2-0.8l-0.2-0.3l-0.4-0.2l0.4-0.3l0.3-0.4l0.2-0.4l0.1-0.5l-0.1-0.9l-0.4-0.6l-0.7-0.4l-0.9-0.1h-2.4V103.8L145.8,103.8z
	 M147.9,97.6l0.6,0.1l0.4,0.2l0.3,0.4l0.1,0.6l-0.1,0.6l-0.3,0.4l-0.5,0.2l-0.6,0.1h-1.1v-2.4H147.9L147.9,97.6z M151.7,101.1
	l0.1,1.3l0.5,0.9l0.8,0.5l1.1,0.2l1.1-0.2l0.8-0.5l0.5-0.9l0.2-1.3v-4.4h-0.9v4.4l-0.1,0.9l-0.3,0.6l-0.5,0.4l-0.7,0.1l-0.7-0.1
	l-0.5-0.4l-0.3-0.6l-0.1-0.9v-4.4h-0.9V101.1L151.7,101.1z M160.3,96.7H158v7.1h2.4l1.1-0.2l0.8-0.7l0.5-1.1l0.2-1.5l-0.2-1.6
	l-0.2-0.6l-0.3-0.5l-0.8-0.7l-0.5-0.2L160.3,96.7L160.3,96.7z M160.2,97.6l0.8,0.2l0.5,0.5l0.3,0.8l0.1,1.2l-0.1,1.2l-0.3,0.8
	l-0.5,0.5l-0.8,0.2h-1.3v-5.4H160.2L160.2,97.6z"/>
</svg>
