<?xml version="1.0" encoding="UTF-8" standalone="no"?>
<svg
   xmlns:dsy="http://www.3ds.com/print"
   xmlns:dc="http://purl.org/dc/elements/1.1/"
   xmlns:cc="http://creativecommons.org/ns#"
   xmlns:rdf="http://www.w3.org/1999/02/22-rdf-syntax-ns#"
   xmlns:svg="http://www.w3.org/2000/svg"
   xmlns="http://www.w3.org/2000/svg"
   xmlns:sodipodi="http://sodipodi.sourceforge.net/DTD/sodipodi-0.dtd"
   xmlns:inkscape="http://www.inkscape.org/namespaces/inkscape"
   style="background : rgb(255,255,255)"
   width="297mm"
   height="210mm"
   version="1.1"
   viewBox="0 0 297 210"
   dsy:text-version="21000"
   id="svg68"
   sodipodi:docname="Socles_decoupe_Brice.svg"
   inkscape:version="0.92.4 (5da689c313, 2019-01-14)">
  <metadata
     id="metadata74">
    <rdf:RDF>
      <cc:Work
         rdf:about="">
        <dc:format>image/svg+xml</dc:format>
        <dc:type
           rdf:resource="http://purl.org/dc/dcmitype/StillImage" />
        <dc:title></dc:title>
      </cc:Work>
    </rdf:RDF>
  </metadata>
  <defs
     id="defs72">
    <clipPath
       clipPathUnits="userSpaceOnUse"
       id="clipPath8625">
      <path
         d="M 0,138.529 H 521.129 V 0 H 0 Z"
         id="path8623"
         inkscape:connector-curvature="0" />
    </clipPath>
  </defs>
  <sodipodi:namedview
     pagecolor="#ffffff"
     bordercolor="#666666"
     borderopacity="1"
     objecttolerance="10"
     gridtolerance="10"
     guidetolerance="10"
     inkscape:pageopacity="0"
     inkscape:pageshadow="2"
     inkscape:window-width="2560"
     inkscape:window-height="1361"
     id="namedview70"
     showgrid="false"
     inkscape:zoom="2.3787302"
     inkscape:cx="166.70577"
     inkscape:cy="606.52196"
     inkscape:window-x="-9"
     inkscape:window-y="-9"
     inkscape:window-maximized="1"
     inkscape:current-layer="svg68" />
  <path
     style="fill:none;stroke:#ff0000;stroke-width:0.01;stroke-linecap:butt;stroke-linejoin:miter;stroke-opacity:1;stroke-miterlimit:4;stroke-dasharray:none"
     inkscape:connector-curvature="0"
     id="path2"
     d="M 94.059192,2.3155334 V 102.31534" />
  <path
     style="fill:none;stroke:#ff0000;stroke-width:0.01;stroke-linecap:butt;stroke-linejoin:miter;stroke-opacity:1;stroke-miterlimit:4;stroke-dasharray:none"
     inkscape:connector-curvature="0"
     id="path4"
     d="M 179.0595,102.31534 H 94.059192" />
  <path
     style="fill:none;stroke:#ff0000;stroke-width:0.01;stroke-linecap:butt;stroke-linejoin:miter;stroke-opacity:1;stroke-miterlimit:4;stroke-dasharray:none"
     inkscape:connector-curvature="0"
     id="path6"
     d="M 179.0595,102.31534 V 2.3155334" />
  <path
     style="fill:none;stroke:#ff0000;stroke-width:0.01;stroke-linecap:butt;stroke-linejoin:miter;stroke-opacity:1;stroke-miterlimit:4;stroke-dasharray:none"
     inkscape:connector-curvature="0"
     id="path8"
     d="M 94.059192,2.3155334 H 179.0595" />
  <path
     style="fill:none;stroke:#ff0000;stroke-width:0.01;stroke-linecap:butt;stroke-linejoin:miter;stroke-opacity:1;stroke-miterlimit:4;stroke-dasharray:none"
     inkscape:connector-curvature="0"
     id="path10"
     d="m 161.5593,86.315333 v 6" />
  <path
     style="fill:none;stroke:#ff0000;stroke-width:0.01;stroke-linecap:butt;stroke-linejoin:miter;stroke-opacity:1;stroke-miterlimit:4;stroke-dasharray:none"
     inkscape:connector-curvature="0"
     id="path12"
     d="m 169.5595,86.315333 h -8.0002" />
  <path
     style="fill:none;stroke:#ff0000;stroke-width:0.01;stroke-linecap:butt;stroke-linejoin:miter;stroke-opacity:1;stroke-miterlimit:4;stroke-dasharray:none"
     inkscape:connector-curvature="0"
     id="path14"
     d="m 169.5595,92.315333 h -8.0002" />
  <path
     style="fill:none;stroke:#ff0000;stroke-width:0.01;stroke-linecap:butt;stroke-linejoin:miter;stroke-opacity:1;stroke-miterlimit:4;stroke-dasharray:none"
     inkscape:connector-curvature="0"
     id="path16"
     d="m 169.5595,92.315333 v -6" />
  <path
     style="fill:none;stroke:#ff0000;stroke-width:0.01;stroke-linecap:butt;stroke-linejoin:miter;stroke-opacity:1;stroke-miterlimit:4;stroke-dasharray:none"
     inkscape:connector-curvature="0"
     id="path18"
     d="m 123.5592,86.315333 v 6" />
  <path
     style="fill:none;stroke:#ff0000;stroke-width:0.01;stroke-linecap:butt;stroke-linejoin:miter;stroke-opacity:1;stroke-miterlimit:4;stroke-dasharray:none"
     inkscape:connector-curvature="0"
     id="path20"
     d="m 131.5593,86.315333 h -8.0001" />
  <path
     style="fill:none;stroke:#ff0000;stroke-width:0.01;stroke-linecap:butt;stroke-linejoin:miter;stroke-opacity:1;stroke-miterlimit:4;stroke-dasharray:none"
     inkscape:connector-curvature="0"
     id="path22"
     d="m 131.5593,92.315333 h -8.0001" />
  <path
     style="fill:none;stroke:#ff0000;stroke-width:0.01;stroke-linecap:butt;stroke-linejoin:miter;stroke-opacity:1;stroke-miterlimit:4;stroke-dasharray:none"
     inkscape:connector-curvature="0"
     id="path24"
     d="m 131.5593,92.315333 v -6" />
  <path
     style="fill:none;stroke:#ff0000;stroke-width:0.01;stroke-linecap:butt;stroke-linejoin:miter;stroke-opacity:1;stroke-miterlimit:4;stroke-dasharray:none"
     inkscape:connector-curvature="0"
     id="path26"
     d="m 164.0593,29.315533 v 6" />
  <path
     style="fill:none;stroke:#ff0000;stroke-width:0.01;stroke-linecap:butt;stroke-linejoin:miter;stroke-opacity:1;stroke-miterlimit:4;stroke-dasharray:none"
     inkscape:connector-curvature="0"
     id="path28"
     d="m 164.0593,29.315533 h 8.0002" />
  <path
     style="fill:none;stroke:#ff0000;stroke-width:0.01;stroke-linecap:butt;stroke-linejoin:miter;stroke-opacity:1;stroke-miterlimit:4;stroke-dasharray:none"
     inkscape:connector-curvature="0"
     id="path30"
     d="m 172.0595,35.315533 h -8.0002" />
  <path
     style="fill:none;stroke:#ff0000;stroke-width:0.01;stroke-linecap:butt;stroke-linejoin:miter;stroke-opacity:1;stroke-miterlimit:4;stroke-dasharray:none"
     inkscape:connector-curvature="0"
     id="path32"
     d="m 172.0595,35.315533 v -6" />
  <path
     style="fill:none;stroke:#ff0000;stroke-width:0.01;stroke-linecap:butt;stroke-linejoin:miter;stroke-opacity:1;stroke-miterlimit:4;stroke-dasharray:none"
     inkscape:connector-curvature="0"
     id="path34"
     d="m 129.0592,35.315533 v -6" />
  <path
     style="fill:none;stroke:#ff0000;stroke-width:0.01;stroke-linecap:butt;stroke-linejoin:miter;stroke-opacity:1;stroke-miterlimit:4;stroke-dasharray:none"
     inkscape:connector-curvature="0"
     id="path36"
     d="m 129.0592,35.315533 h -7.9999" />
  <path
     style="fill:none;stroke:#ff0000;stroke-width:0.01;stroke-linecap:butt;stroke-linejoin:miter;stroke-opacity:1;stroke-miterlimit:4;stroke-dasharray:none"
     inkscape:connector-curvature="0"
     id="path38"
     d="m 121.0593,29.315533 v 6" />
  <path
     style="fill:none;stroke:#ff0000;stroke-width:0.01;stroke-linecap:butt;stroke-linejoin:miter;stroke-opacity:1;stroke-miterlimit:4;stroke-dasharray:none"
     inkscape:connector-curvature="0"
     id="path40"
     d="m 121.0593,29.315533 h 7.9999" />
  <path
     style="fill:none;stroke:#ff0000;stroke-width:0.01;stroke-linecap:butt;stroke-linejoin:miter;stroke-opacity:1;stroke-miterlimit:4;stroke-dasharray:none"
     inkscape:connector-curvature="0"
     id="path42"
     d="M 1.8001859,2.3085999 V 108.309" />
  <path
     style="fill:none;stroke:#ff0000;stroke-width:0.01;stroke-linecap:butt;stroke-linejoin:miter;stroke-opacity:1;stroke-miterlimit:4;stroke-dasharray:none"
     inkscape:connector-curvature="0"
     id="path44"
     d="M 92.800186,108.309 H 1.8001859" />
  <path
     style="fill:none;stroke:#ff0000;stroke-width:0.01;stroke-linecap:butt;stroke-linejoin:miter;stroke-opacity:1;stroke-miterlimit:4;stroke-dasharray:none"
     inkscape:connector-curvature="0"
     id="path46"
     d="M 92.800186,108.309 V 2.3085999" />
  <path
     style="fill:none;stroke:#ff0000;stroke-width:0.01;stroke-linecap:butt;stroke-linejoin:miter;stroke-opacity:1;stroke-miterlimit:4;stroke-dasharray:none"
     inkscape:connector-curvature="0"
     id="path48"
     d="M 1.8001859,2.3085999 H 92.800186" />
  <g
     id="g8619"
     transform="matrix(2.8034733e-4,0.09748647,0.13182029,0.01798683,113.45446,33.121521)"
     style="fill:#000000">
    <g
       id="g8621"
       clip-path="url(#clipPath8625)"
       style="fill:#000000">
      <g
         id="g8627"
         transform="translate(461.4593,31.4813)"
         style="fill:#000000" />
      <g
         id="g8631"
         transform="translate(65.596,121.4623)"
         style="fill:#000000" />
      <g
         id="g8635"
         transform="translate(45.2605,70.8212)"
         style="fill:#000000" />
      <g
         id="g8639"
         transform="translate(159.5315,70.8212)"
         style="fill:#000000" />
      <g
         id="g8643"
         transform="translate(171.5984,100.7723)"
         style="fill:#000000" />
      <g
         id="g8647"
         transform="translate(53.5765,91.5111)"
         style="fill:#000000" />
      <g
         id="g8651"
         transform="translate(41.6404,61.5594)"
         style="fill:#000000" />
      <g
         id="g8655"
         transform="translate(179.9163,121.4618)"
         style="fill:#000000" />
      <g
         id="g8659"
         transform="translate(307.1273,121.4623)"
         style="fill:#000000" />
      <g
         id="g8663"
         transform="translate(422.098,121.4623)"
         style="fill:#000000" />
      <g
         id="g8667"
         transform="translate(167.9803,91.5111)"
         style="fill:#000000" />
      <g
         id="g8671"
         transform="translate(282.9193,91.5111)"
         style="fill:#000000" />
      <g
         id="g8675"
         transform="translate(398.3167,91.5111)"
         style="fill:#000000" />
      <g
         id="g8679"
         transform="translate(155.9192,61.5594)"
         style="fill:#000000" />
      <g
         id="g8683"
         transform="translate(270.763,61.5594)"
         style="fill:#000000" />
      <g
         id="g8687"
         transform="translate(385.9984,61.5594)"
         style="fill:#000000" />
      <g
         id="g8691"
         transform="translate(452.2327,61.5594)"
         style="fill:#000000" />
      <g
         id="g8695"
         transform="translate(237.5315,100.7723)"
         style="fill:#000000" />
      <g
         id="g8699"
         transform="translate(57.177,100.7723)"
         style="fill:#000000" />
      <g
         id="g8703"
         transform="translate(287.055,100.7723)"
         style="fill:#000000" />
      <g
         id="g8707"
         transform="translate(340.638,70.8212)"
         style="fill:#000000" />
      <g
         id="g8711"
         transform="translate(455.722,70.5121)"
         style="fill:#000000" />
      <g
         id="g8715"
         transform="translate(389.555,70.5121)"
         style="fill:#000000" />
      <g
         id="g8719"
         transform="translate(402.055,100.7723)"
         style="fill:#000000" />
      <g
         id="g8723"
         transform="translate(468.055,100.7723)"
         style="fill:#000000">
        <g
           id="g4326">
          <path
             inkscape:connector-curvature="0"
             id="path8629"
             style="fill:#000000;fill-opacity:1;fill-rule:evenodd;stroke:none"
             d="M 0,0 H -1.268 C -2.229,0 -3.393,0.001 -4.34,-0.17 -4.921,-0.275 -5.487,-0.456 -6.014,-0.726 -6.466,-0.957 -6.846,-1.275 -7.151,-1.682 -7.596,-2.27 -7.966,-3.195 -8.229,-3.88 l -1.664,-4.352 c -0.207,-0.54 -0.589,-1.559 -0.592,-2.14 -0.002,-0.313 0.088,-0.575 0.33,-0.779 0.325,-0.275 0.758,-0.427 1.169,-0.514 0.856,-0.181 2.052,-0.169 2.928,-0.169 h 1.267 c 0.969,0 2.129,0 3.083,0.171 0.587,0.105 1.161,0.281 1.692,0.555 0.435,0.223 0.811,0.532 1.107,0.921 0.435,0.574 0.811,1.532 1.067,2.202 l 1.673,4.373 c 0.211,0.551 0.595,1.571 0.602,2.163 0.003,0.314 -0.082,0.583 -0.327,0.788 C 3.787,-0.393 3.351,-0.245 2.947,-0.162 2.088,0.016 0.879,0 0,0 m -63.771,-7.803 h 7.758 l -0.855,7.585 h -0.271 z m -51.073,7.585 h 6.321 c 0.581,0 2.524,-0.018 2.996,-0.39 0.362,-0.286 0.136,-0.972 0.005,-1.316 l -0.687,-1.794 c -0.246,-0.645 -0.637,-1.204 -1.27,-1.512 -0.836,-0.407 -2.479,-0.44 -3.394,-0.44 h -6.057 z M -129.64,0 h -1.267 c -0.962,0 -2.126,0.001 -3.073,-0.17 -0.582,-0.105 -1.148,-0.286 -1.674,-0.556 -0.452,-0.231 -0.832,-0.549 -1.138,-0.956 -0.444,-0.588 -0.815,-1.513 -1.077,-2.198 l -1.664,-4.352 c -0.207,-0.54 -0.591,-1.559 -0.593,-2.14 -0.002,-0.313 0.088,-0.575 0.33,-0.779 0.325,-0.275 0.758,-0.427 1.169,-0.514 0.856,-0.181 2.053,-0.169 2.928,-0.169 h 1.268 c 0.968,0 2.129,0 3.082,0.171 0.587,0.105 1.162,0.281 1.693,0.555 0.435,0.223 0.811,0.531 1.107,0.921 0.435,0.574 0.811,1.532 1.067,2.202 l 1.673,4.373 c 0.21,0.55 0.595,1.571 0.601,2.163 0.003,0.313 -0.082,0.583 -0.326,0.788 -0.32,0.268 -0.756,0.416 -1.159,0.499 -0.86,0.178 -2.069,0.162 -2.947,0.162 m -24.777,-0.218 h 6.127 c 0.521,0 2.235,-0.016 2.663,-0.342 0.312,-0.236 0.109,-0.841 -10e-4,-1.128 l -0.862,-2.255 c -0.218,-0.571 -0.566,-1.069 -1.127,-1.339 -0.747,-0.359 -2.207,-0.388 -3.023,-0.388 h -5.863 z M -230.364,0 h -1.267 c -0.962,0 -2.125,0.001 -3.073,-0.17 -0.581,-0.105 -1.148,-0.286 -1.674,-0.556 -0.453,-0.231 -0.831,-0.549 -1.138,-0.956 -0.444,-0.588 -0.815,-1.513 -1.076,-2.198 l -1.665,-4.352 c -0.207,-0.54 -0.59,-1.559 -0.593,-2.14 -0.002,-0.313 0.089,-0.575 0.33,-0.779 0.326,-0.275 0.759,-0.427 1.169,-0.514 0.856,-0.181 2.054,-0.169 2.929,-0.169 h 1.267 c 0.968,0 2.129,0 3.083,0.171 0.587,0.105 1.161,0.281 1.692,0.555 0.436,0.223 0.811,0.532 1.107,0.921 0.435,0.574 0.811,1.532 1.067,2.202 l 1.673,4.373 c 0.211,0.551 0.595,1.571 0.601,2.163 0.003,0.313 -0.082,0.583 -0.326,0.788 -0.319,0.268 -0.756,0.416 -1.159,0.499 -0.859,0.178 -2.068,0.162 -2.947,0.162 m -66.942,-0.218 -2.085,-5.452 h 5.863 c 0.816,0 2.275,0.029 3.022,0.388 0.562,0.27 0.909,0.768 1.128,1.339 l 0.862,2.255 c 0.11,0.287 0.312,0.892 0,1.128 -0.428,0.326 -2.141,0.342 -2.662,0.342 z m -64.189,0 h 6.321 c 0.58,0 2.524,-0.018 2.996,-0.39 0.362,-0.286 0.136,-0.972 0.005,-1.316 l -0.686,-1.794 c -0.247,-0.645 -0.638,-1.204 -1.27,-1.512 -0.837,-0.407 -2.479,-0.44 -3.395,-0.44 h -6.057 z M -11.05,-3.19 -13.041,-8.396 c -0.512,-1.336 -1.038,-3.323 0.142,-4.473 1.19,-1.159 4.03,-1.252 5.58,-1.252 h 2.596 c 2.027,0 4.577,0.192 6.385,1.197 1.659,0.923 2.695,2.547 3.359,4.28 l 1.992,5.207 C 7.519,-2.114 8.068,-0.1 6.898,1.046 5.716,2.203 2.832,2.288 1.29,2.288 h -2.596 c -2.028,0 -4.588,-0.196 -6.393,-1.205 -1.655,-0.926 -2.688,-2.542 -3.351,-4.273 m -6.217,2.972 -5.248,-13.717 h -3.014 l 5.248,13.717 h -6.544 l 0.887,2.32 h 16.129 l -0.886,-2.32 z M -46.032,-10.39 c -0.004,-0.271 0.07,-0.506 0.261,-0.688 0.263,-0.236 0.621,-0.367 0.961,-0.44 0.728,-0.154 1.771,-0.139 2.515,-0.139 h 2.158 c 0.827,0 1.843,-0.006 2.658,0.141 0.499,0.091 0.977,0.245 1.424,0.486 0.384,0.206 0.704,0.488 0.961,0.839 0.39,0.532 0.725,1.388 0.96,2.002 l 3.937,10.291 h 3.028 l -4.11,-10.746 c -0.651,-1.7 -1.659,-3.334 -3.271,-4.269 -1.724,-1.003 -4.146,-1.208 -6.1,-1.208 h -2.488 c -1.495,0 -4.174,0.1 -5.289,1.267 -1.109,1.16 -0.561,3.15 -0.061,4.458 l 4.016,10.498 h 3.029 l -4.032,-10.538 c -0.184,-0.483 -0.549,-1.437 -0.557,-1.954 m -9.752,0.381 h -9.929 l -3.419,-3.926 h -3.264 l 14.065,16.037 h 4.205 l 1.841,-16.037 h -3.041 z m -36.037,9.791 -5.247,-13.717 h -3.015 l 5.248,13.717 h -6.544 l 0.887,2.32 h 16.131 l -0.888,-2.32 z m -14.2,-6.666 c 0.444,0.152 0.867,0.363 1.25,0.649 0.704,0.524 1.183,1.23 1.496,2.046 l 0.886,2.318 c 0.396,1.035 0.642,2.367 -0.372,3.135 -1.038,0.787 -3.436,0.838 -4.682,0.838 h -9.514 l -6.135,-16.037 h 3.001 l 2.286,5.978 h 7.051 c 0.492,0 1.888,-0.029 2.237,-0.458 0.326,-0.398 -0.057,-1.486 -0.211,-1.889 l -1.389,-3.631 h 3.113 l 1.497,3.913 c 0.266,0.695 0.564,1.703 0.214,2.417 -0.155,0.317 -0.42,0.549 -0.728,0.721 m -34.669,3.694 c 0.662,1.731 1.696,3.347 3.35,4.273 1.806,1.009 4.365,1.205 6.394,1.205 h 2.595 c 1.542,0 4.426,-0.085 5.609,-1.242 1.17,-1.146 0.619,-3.16 0.114,-4.483 l -1.992,-5.207 c -0.663,-1.733 -1.699,-3.357 -3.359,-4.28 -1.807,-1.005 -4.357,-1.197 -6.384,-1.197 h -2.597 c -1.55,0 -4.389,0.093 -5.58,1.252 -1.181,1.149 -0.652,3.137 -0.142,4.473 z m -16.696,-4.789 h 6.156 c 1.587,0 3.778,0.103 5.228,0.809 1.252,0.609 2.042,1.702 2.531,2.981 l 0.887,2.318 c 0.396,1.035 0.642,2.367 -0.372,3.135 -1.038,0.787 -3.437,0.838 -4.683,0.838 h -8.891 l -6.135,-16.037 h 3 z m -23.818,-0.266 h 3.029 l -0.29,-0.757 c -0.188,-0.496 -0.495,-1.349 -0.472,-1.886 0.011,-0.284 0.107,-0.494 0.367,-0.624 0.323,-0.161 0.938,-0.224 1.296,-0.257 1.345,-0.12 2.85,-0.085 4.204,-0.085 0.887,0 1.853,0.017 2.73,0.164 0.514,0.085 1.077,0.232 1.526,0.506 0.22,0.134 0.406,0.375 0.542,0.59 0.246,0.389 0.44,0.85 0.604,1.279 0.101,0.262 0.574,1.57 0.397,1.834 -0.186,0.274 -1.077,0.351 -1.368,0.369 l -6.194,0.373 c -1.113,0.066 -3,0.26 -3.772,1.181 -0.767,0.914 -0.37,2.375 0.009,3.367 0.303,0.79 0.698,1.593 1.239,2.249 0.493,0.598 1.095,1.074 1.78,1.436 0.635,0.337 1.366,0.519 2.074,0.621 1.278,0.185 2.771,0.173 4.062,0.173 h 0.735 c 1.352,0 3.097,0.019 4.425,-0.231 0.716,-0.136 1.452,-0.387 2.019,-0.859 0.401,-0.333 0.58,-0.795 0.597,-1.31 0.019,-0.611 -0.177,-1.275 -0.393,-1.84 -0.061,-0.159 -0.124,-0.318 -0.191,-0.474 -0.043,-0.099 -0.086,-0.201 -0.135,-0.299 l -0.095,-0.191 h -3.004 l 0.324,0.848 c 0.132,0.344 0.311,0.831 0.342,1.206 0.011,0.11 0.016,0.302 -0.07,0.39 -0.202,0.209 -0.876,0.311 -1.149,0.344 -1.273,0.157 -2.783,0.128 -4.068,0.128 -0.994,0 -3.141,-0.024 -4.034,-0.495 -0.735,-0.387 -1.189,-1.217 -1.475,-1.964 -0.122,-0.319 -0.419,-1.176 -0.199,-1.502 0.222,-0.33 1.209,-0.417 1.559,-0.439 l 6.305,-0.406 c 1.055,-0.067 2.71,-0.273 3.412,-1.177 0.703,-0.907 0.313,-2.319 -0.055,-3.28 -0.299,-0.781 -0.678,-1.662 -1.172,-2.341 -0.394,-0.542 -0.879,-0.994 -1.445,-1.352 -0.752,-0.477 -1.598,-0.765 -2.469,-0.927 -1.45,-0.27 -3.288,-0.26 -4.762,-0.26 h -1.023 c -1.225,0 -2.806,-0.011 -4.007,0.225 -0.662,0.131 -1.341,0.372 -1.84,0.826 -0.48,0.41 -0.712,0.959 -0.744,1.586 -0.036,0.753 0.211,1.59 0.477,2.286 z m -26.851,-2.778 5.021,13.125 h 3.001 l -6.135,-16.037 h -3.97 l -5.648,13.145 -5.029,-13.145 h -3 l 6.134,16.037 h 3.97 z m -33.359,7.833 -1.992,-5.206 c -0.51,-1.336 -1.038,-3.324 0.143,-4.473 1.19,-1.159 4.029,-1.252 5.579,-1.252 h 2.597 c 2.026,0 4.578,0.192 6.385,1.197 1.659,0.923 2.695,2.547 3.358,4.28 l 1.992,5.207 c 0.506,1.323 1.056,3.337 -0.114,4.483 -1.182,1.157 -4.067,1.242 -5.608,1.242 h -2.596 c -2.028,0 -4.588,-0.196 -6.393,-1.205 -1.655,-0.926 -2.689,-2.542 -3.351,-4.273 m -6.217,2.972 -5.247,-13.717 h -3.015 l 5.247,13.717 h -6.543 l 0.886,2.32 h 16.131 l -0.888,-2.32 z m -28.276,-10.67 c 0.012,-0.284 0.108,-0.494 0.368,-0.624 0.323,-0.161 0.938,-0.224 1.295,-0.257 1.346,-0.12 2.851,-0.085 4.204,-0.085 0.888,0 1.854,0.017 2.731,0.164 0.514,0.085 1.078,0.232 1.526,0.506 0.22,0.135 0.406,0.375 0.542,0.59 0.246,0.389 0.44,0.85 0.604,1.279 0.101,0.262 0.574,1.57 0.397,1.834 -0.186,0.274 -1.077,0.351 -1.368,0.369 l -6.194,0.373 c -1.113,0.066 -3,0.26 -3.773,1.181 -0.766,0.914 -0.368,2.375 0.011,3.367 0.302,0.79 0.696,1.593 1.237,2.249 0.493,0.598 1.097,1.074 1.781,1.436 0.634,0.337 1.366,0.519 2.074,0.621 1.278,0.185 2.77,0.173 4.062,0.173 h 0.735 c 1.353,0 3.096,0.019 4.425,-0.231 0.715,-0.136 1.452,-0.387 2.019,-0.859 0.4,-0.333 0.58,-0.795 0.596,-1.31 0.019,-0.611 -0.176,-1.275 -0.392,-1.84 -0.061,-0.159 -0.124,-0.318 -0.191,-0.474 -0.043,-0.099 -0.086,-0.201 -0.135,-0.299 l -0.095,-0.191 h -3.005 l 0.325,0.848 c 0.131,0.344 0.311,0.831 0.342,1.206 0.011,0.11 0.016,0.302 -0.069,0.39 -0.203,0.209 -0.877,0.311 -1.15,0.344 -1.273,0.157 -2.784,0.128 -4.068,0.128 -0.993,0 -3.141,-0.024 -4.034,-0.495 -0.735,-0.387 -1.189,-1.217 -1.475,-1.964 -0.122,-0.319 -0.419,-1.176 -0.199,-1.502 0.222,-0.33 1.209,-0.417 1.559,-0.439 l 6.304,-0.406 c 1.057,-0.067 2.71,-0.273 3.413,-1.177 0.703,-0.907 0.313,-2.319 -0.055,-3.28 -0.299,-0.781 -0.678,-1.662 -1.172,-2.341 -0.394,-0.542 -0.879,-0.994 -1.445,-1.352 -0.752,-0.476 -1.597,-0.765 -2.469,-0.927 -1.45,-0.27 -3.288,-0.26 -4.763,-0.26 h -1.022 c -1.225,0 -2.805,-0.011 -4.007,0.225 -0.662,0.131 -1.34,0.372 -1.84,0.826 -0.48,0.41 -0.712,0.959 -0.743,1.586 -0.037,0.753 0.209,1.59 0.476,2.286 l 0.372,0.975 h 3.029 l -0.29,-0.757 c -0.189,-0.495 -0.495,-1.349 -0.473,-1.886 m -11.136,-3.047 h 3.028 l 6.135,16.037 h -3.029 z m -13.231,5.956 -2.279,-5.956 h -3 l 6.135,16.037 h 8.891 c 1.246,0 3.645,-0.051 4.683,-0.838 1.013,-0.768 0.767,-2.1 0.372,-3.135 l -0.887,-2.318 c -0.489,-1.279 -1.28,-2.372 -2.531,-2.981 -1.451,-0.706 -3.641,-0.809 -5.229,-0.809 z m -34.198,7.761 h 12.15 l 0.887,2.32 h -15.149 l -6.135,-16.037 h 15.15 l 0.879,2.298 h -12.15 l 1.849,4.833 h 11.806 l 0.863,2.256 h -11.806 z m -15.507,-13.717 6.134,16.037 h 3.029 l -6.135,-16.037 z m -2.693,7.051 c 0.445,0.152 0.867,0.363 1.251,0.649 0.703,0.524 1.183,1.23 1.495,2.046 l 0.886,2.318 c 0.396,1.035 0.643,2.367 -0.371,3.135 -1.039,0.787 -3.437,0.838 -4.683,0.838 h -9.513 l -6.135,-16.037 h 3 l 2.287,5.978 h 7.05 c 0.493,0 1.887,-0.029 2.238,-0.458 0.325,-0.398 -0.058,-1.486 -0.212,-1.889 l -1.389,-3.631 h 3.113 l 1.497,3.913 c 0.266,0.695 0.564,1.703 0.214,2.417 -0.155,0.317 -0.419,0.549 -0.728,0.721 m -32.272,8.986 h 3.028 l -4.031,-10.538 c -0.184,-0.483 -0.55,-1.437 -0.557,-1.954 -0.004,-0.271 0.069,-0.506 0.261,-0.688 0.263,-0.236 0.62,-0.367 0.961,-0.44 0.727,-0.154 1.77,-0.139 2.515,-0.139 h 2.158 c 0.827,0 1.842,-0.006 2.657,0.141 0.499,0.091 0.978,0.245 1.425,0.486 0.383,0.206 0.704,0.488 0.961,0.839 0.39,0.532 0.725,1.388 0.96,2.002 l 3.937,10.291 h 3.028 l -4.11,-10.746 c -0.651,-1.7 -1.66,-3.334 -3.27,-4.269 -1.726,-1.003 -4.148,-1.208 -6.102,-1.208 h -2.487 c -1.495,0 -4.174,0.101 -5.289,1.267 -1.11,1.16 -0.561,3.15 -0.061,4.458 z m -21.789,-5.295 -1.991,-5.203 c -0.494,-1.292 -1.064,-3.298 0.013,-4.46 1.079,-1.165 3.679,-1.265 5.145,-1.265 h 2.402 c 1.842,0 4.266,0.153 5.921,1.04 1.486,0.796 2.414,2.196 3.004,3.737 l 0.566,1.479 h -3.097 l -0.07,-0.253 c -0.025,-0.091 -0.056,-0.182 -0.086,-0.271 -0.048,-0.144 -0.101,-0.288 -0.156,-0.43 -0.345,-0.904 -0.893,-1.9 -1.766,-2.391 -0.99,-0.556 -2.761,-0.624 -3.87,-0.624 h -1.587 c -0.766,0 -1.869,-0.012 -2.614,0.16 -0.356,0.082 -0.723,0.226 -0.989,0.485 -0.224,0.21 -0.306,0.47 -0.3,0.769 0.012,0.576 0.426,1.649 0.633,2.188 l 1.672,4.37 c 0.257,0.672 0.635,1.653 1.066,2.232 0.291,0.391 0.652,0.695 1.078,0.931 0.478,0.263 0.995,0.435 1.53,0.536 0.844,0.158 1.857,0.163 2.715,0.163 h 1.587 c 0.728,0 2.674,-0.032 3.251,-0.552 0.492,-0.442 0.14,-1.5 -0.051,-2.002 l -0.34,-0.89 h 3.085 l 0.341,0.893 c 0.464,1.211 0.778,2.797 -0.337,3.759 -1.154,0.996 -3.731,1.08 -5.172,1.08 h -2.403 c -1.917,0 -4.265,-0.206 -5.95,-1.202 -1.592,-0.941 -2.585,-2.594 -3.23,-4.279 m -13.283,2.975 -1.656,-4.33 h 11.806 l -0.863,-2.256 h -11.807 l -1.848,-4.833 h 12.15 l -0.88,-2.298 h -15.15 l 6.135,16.037 h 15.15 l -0.887,-2.32 z"
             transform="translate(-6.5957071,-69.290992)" />
          <path
             inkscape:connector-curvature="0"
             id="path8633"
             style="fill:#000000;fill-opacity:1;fill-rule:evenodd;stroke:none"
             d="M 0,0 H 101.391 L 94.052,-18.105 H -7.338 Z"
             transform="translate(-402.45901,20.689992)" />
          <path
             inkscape:connector-curvature="0"
             id="path8637"
             style="fill:#000000;fill-opacity:1;fill-rule:evenodd;stroke:none"
             d="M 0,0 H 35.291 L 32.737,-6.677 H -2.554 Z"
             transform="translate(-422.7945,-29.951105)" />
          <path
             inkscape:connector-curvature="0"
             id="path8641"
             style="fill:#000000;fill-opacity:1;fill-rule:evenodd;stroke:none"
             d="M 0,0 H 35.292 L 32.737,-6.677 H -2.555 Z"
             transform="translate(-308.52349,-29.951092)" />
          <path
             inkscape:connector-curvature="0"
             id="path8645"
             style="fill:#000000;fill-opacity:1;fill-rule:evenodd;stroke:none"
             d="M 0,0 H 35.413 L 32.849,-6.677 H -2.563 Z"
             transform="translate(-296.45661,7.3228053e-6)" />
          <path
             inkscape:connector-curvature="0"
             id="path8649"
             style="fill:#000000;fill-opacity:1;fill-rule:evenodd;stroke:none"
             d="M 0,0 H 93.611 L 86.272,-18.105 H -7.338 Z"
             transform="translate(-414.47849,-9.2612051)" />
          <path
             inkscape:connector-curvature="0"
             id="path8653"
             style="fill:#000000;fill-opacity:1;fill-rule:evenodd;stroke:none"
             d="M 0,0 H 101.391 L 94.052,-18.105 H -7.338 Z"
             transform="translate(-426.4146,-39.212903)" />
          <path
             inkscape:connector-curvature="0"
             id="path8657"
             style="fill:#000000;fill-opacity:1;fill-rule:evenodd;stroke:none"
             d="m 0,0 h 89.963 c 6.285,0 9.344,-5.142 6.796,-11.428 l -2.706,-6.677 H -7.338 Z"
             transform="translate(-288.1387,20.689491)" />
          <path
             inkscape:connector-curvature="0"
             id="path8661"
             style="fill:#000000;fill-opacity:1;fill-rule:evenodd;stroke:none"
             d="M 0,0 H 89.963 L 82.624,-18.105 H -18.767 l 2.706,6.677 C -13.513,-5.143 -6.286,0 0,0"
             transform="translate(-160.9277,20.690005)" />
          <path
             inkscape:connector-curvature="0"
             id="path8665"
             style="fill:#000000;fill-opacity:1;fill-rule:evenodd;stroke:none"
             d="m 0,0 h 78.534 c 6.286,0 9.344,-5.143 6.796,-11.428 l -2.706,-6.677 H -18.767 l 2.706,6.677 C -13.513,-5.143 -6.285,0 0,0"
             transform="translate(-45.956998,20.690002)" />
          <path
             inkscape:connector-curvature="0"
             id="path8669"
             style="fill:#000000;fill-opacity:1;fill-rule:evenodd;stroke:none"
             d="M 0,0 H 101.391 L 98.684,-6.677 C 96.136,-12.963 88.91,-18.105 82.625,-18.105 H -7.338 Z"
             transform="translate(-300.0747,-9.2611993)" />
          <path
             inkscape:connector-curvature="0"
             id="path8673"
             style="fill:#000000;fill-opacity:1;fill-rule:evenodd;stroke:none"
             d="m 0,0 h 89.963 c 6.285,0 9.343,-5.143 6.796,-11.428 l -2.707,-6.677 H 4.09 c -6.286,0 -9.344,5.142 -6.797,11.428 z"
             transform="translate(-185.13571,-9.261205)" />
          <path
             inkscape:connector-curvature="0"
             id="path8677"
             style="fill:#000000;fill-opacity:1;fill-rule:evenodd;stroke:none"
             d="M 0,0 H 101.391 L 94.053,-18.105 H -7.338 Z"
             transform="translate(-69.738304,-9.2611891)" />
          <path
             inkscape:connector-curvature="0"
             id="path8681"
             style="fill:#000000;fill-opacity:1;fill-rule:evenodd;stroke:none"
             d="M 0,0 H 35.032 L 27.693,-18.105 H -7.339 Z"
             transform="translate(-312.13579,-39.212903)" />
          <path
             inkscape:connector-curvature="0"
             id="path8685"
             style="fill:#000000;fill-opacity:1;fill-rule:evenodd;stroke:none"
             d="M 0,0 H 101.392 L 98.685,-6.677 C 96.137,-12.963 88.91,-18.105 82.625,-18.105 H -7.338 Z"
             transform="translate(-197.292,-39.212888)" />
          <path
             inkscape:connector-curvature="0"
             id="path8689"
             style="fill:#000000;fill-opacity:1;fill-rule:evenodd;stroke:none"
             d="M 0,0 H 35.032 L 27.693,-18.105 H -7.339 Z"
             transform="translate(-82.056603,-39.212899)" />
          <path
             inkscape:connector-curvature="0"
             id="path8693"
             style="fill:#000000;fill-opacity:1;fill-rule:evenodd;stroke:none"
             d="M 0,0 H 35.032 L 27.693,-18.105 H -7.339 Z"
             transform="translate(-15.822308,-39.212908)" />
          <path
             inkscape:connector-curvature="0"
             id="path8697"
             style="fill:#000000;fill-opacity:1;fill-rule:evenodd;stroke:none"
             d="M 0,0 H 35.292 L 32.737,-6.677 H -2.555 Z"
             transform="translate(-230.52351,3.5220985e-6)" />
          <path
             inkscape:connector-curvature="0"
             id="path8701"
             style="fill:#000000;fill-opacity:1;fill-rule:evenodd;stroke:none"
             d="M 0,0 H 35.291 L 32.737,-6.677 H -2.554 Z"
             transform="translate(-410.87801,3.8354206e-6)" />
          <path
             inkscape:connector-curvature="0"
             id="path8705"
             style="fill:#000000;fill-opacity:1;fill-rule:evenodd;stroke:none"
             d="M 0,0 H 35.291 L 32.736,-6.677 H -2.555 Z"
             transform="translate(-180.99999,5.6086334e-6)" />
          <path
             inkscape:connector-curvature="0"
             id="path8709"
             style="fill:#000000;fill-opacity:1;fill-rule:evenodd;stroke:none"
             d="M 0,0 H 35.291 L 32.737,-6.677 H -2.554 Z"
             transform="translate(-127.417,-29.951106)" />
          <path
             inkscape:connector-curvature="0"
             id="path8713"
             style="fill:#000000;fill-opacity:1;fill-rule:evenodd;stroke:none"
             d="M 0,0 H 35.291 L 32.736,-6.676 H -2.555 Z"
             transform="translate(-12.332996,-30.260194)" />
          <path
             inkscape:connector-curvature="0"
             id="path8717"
             style="fill:#000000;fill-opacity:1;fill-rule:evenodd;stroke:none"
             d="M 0,0 H 35.291 L 32.736,-6.676 H -2.555 Z"
             transform="translate(-78.499997,-30.260199)" />
          <path
             inkscape:connector-curvature="0"
             id="path8721"
             style="fill:#000000;fill-opacity:1;fill-rule:evenodd;stroke:none"
             d="M 0,0 H 35.291 L 32.736,-6.677 H -2.555 Z"
             transform="translate(-66.000007,-4.5893667e-6)" />
          <path
             inkscape:connector-curvature="0"
             id="path8725"
             style="fill:#000000;fill-opacity:1;fill-rule:evenodd;stroke:none"
             d="M 0,0 H 35.291 L 32.736,-6.677 H -2.555 Z" />
        </g>
      </g>
    </g>
  </g>
  <text
     xml:space="preserve"
     style="font-style:normal;font-weight:normal;font-size:4.23333311px;line-height:1.25;font-family:sans-serif;letter-spacing:0px;word-spacing:0px;fill:#000000;fill-opacity:1;stroke:none;stroke-width:0.26458332"
     x="44.174259"
     y="-144.42755"
     id="text1033"
     transform="rotate(90.009048)"
     inkscape:transform-center-x="-1.1122881"
     inkscape:transform-center-y="-7.2298729"><tspan
       sodipodi:role="line"
       id="tspan1031"
       x="44.174259"
       y="-144.42755"
       style="font-size:4.23333311px;stroke-width:0.26458332">Equipe Vulcanix</tspan></text>
  <text
     xml:space="preserve"
     style="font-style:normal;font-weight:normal;font-size:7.05555534px;line-height:1.25;font-family:sans-serif;text-align:center;letter-spacing:0px;word-spacing:0px;text-anchor:middle;fill:#000000;fill-opacity:1;stroke:none;stroke-width:0.25467595"
     x="50.024044"
     y="-109.77673"
     id="text903"
     transform="matrix(-0.00404113,1.0200162,-0.98035993,-0.0042046,0,0)"><tspan
       sodipodi:role="line"
       id="tspan901"
       x="50.024044"
       y="-109.77673"
       style="font-size:7.05555534px;text-align:center;text-anchor:middle;stroke-width:0.25467595">L'EPSA vous remercie</tspan><tspan
       sodipodi:role="line"
       x="50.024044"
       y="-100.95729"
       style="font-size:7.05555534px;text-align:center;text-anchor:middle;stroke-width:0.25467595"
       id="tspan905"> pour votre soutien</tspan></text>
</svg>
