<?xml version='1.0' encoding='UTF-8' ?>
<!DOCTYPE svg PUBLIC "-//W3C//DTD SVG 1.1//EN" "http://www.w3.org/Graphics/SVG/1.1/DTD/svg11.dtd" [ 
 <!ATTLIST svg 
                                               xmlns:dsy CDATA #FIXED "http://www.3ds.com/print"  
                                               dsy:text-version CDATA #IMPLIED > 

                                               <!ATTLIST text 
                                               xmlns:dsy CDATA #FIXED "http://www.3ds.com/print" 
                                               dsy:text-version CDATA #IMPLIED > 
                                                ]>
<svg style = "background : rgb(255,255,255)" width = "297mm" xmlns = "http://www.w3.org/2000/svg" height = "210mm" version = "1.1" viewBox = "0 0 297 210" xmlns:dsy = "http://www.3ds.com/print" xmlns:xlink = "http://www.w3.org/1999/xlink" dsy:text-version = "21000"><g fill = "none" stroke = "rgb(0, 0, 0)" stroke-width = "0.35" stroke-linecap = "butt" stroke-linejoin = "miter"><path d = "M 28.0727 36.5462 L 28.0727 136.546"/><path d = "M 113.073 136.546 L 28.0727 136.546"/><path d = "M 113.073 136.546 L 113.073 36.5462"/><path d = "M 28.0727 36.5462 L 113.073 36.5462"/><path d = "M 95.5728 120.546 L 95.5728 126.546"/><path d = "M 103.573 120.546 L 95.5728 120.546"/><path d = "M 103.573 126.546 L 95.5728 126.546"/><path d = "M 103.573 126.546 L 103.573 120.546"/><path d = "M 57.5727 120.546 L 57.5727 126.546"/><path d = "M 65.5728 120.546 L 57.5727 120.546"/><path d = "M 65.5728 126.546 L 57.5727 126.546"/><path d = "M 65.5728 126.546 L 65.5728 120.546"/><path d = "M 98.0728 63.5462 L 98.0728 69.5462"/><path d = "M 98.0728 63.5462 L 106.073 63.5462"/><path d = "M 106.073 69.5462 L 98.0728 69.5462"/><path d = "M 106.073 69.5462 L 106.073 63.5462"/><path d = "M 63.0727 69.5462 L 63.0727 63.5462"/><path d = "M 63.0727 69.5462 L 55.0728 69.5462"/><path d = "M 55.0728 63.5462 L 55.0728 69.5462"/><path d = "M 55.0728 63.5462 L 63.0727 63.5462"/><path d = "M 152.404 28.5586 L 152.404 134.559"/><path d = "M 243.404 134.559 L 152.404 134.559"/><path d = "M 243.404 134.559 L 243.404 28.5586"/><path d = "M 152.404 28.5586 L 243.404 28.5586"/></g><g fill = "none" stroke = "rgb(0, 0, 0)" stroke-width = "0.13" stroke-linecap = "butt" stroke-linejoin = "miter"><path d = "M 81.2939 147.248 L 80.835 147.248 L 80.9359 147.783 L 81.188 148.176 L 81.5764 148.413 L 82.1009 148.499 L 82.6203 148.418 L 83.0086 148.196 L 83.2558 147.848 L 83.3465 147.389 L 83.2709 146.976 L 83.0591 146.708 L 82.7161 146.532 L 82.2572 146.401 L 81.8638 146.305 L 81.6066 146.194 L 81.4604 146.033 L 81.415 145.78 L 81.4604 145.553 L 81.5915 145.382 L 81.7932 145.266 L 82.0706 145.226 L 82.353 145.276 L 82.5749 145.412 L 82.7212 145.639 L 82.7918 145.947 L 83.2507 145.947 L 83.2507 145.937 L 83.17 145.463 L 82.933 145.11 L 82.5598 144.888 L 82.0555 144.812 L 81.6016 144.888 L 81.2485 145.1 L 81.0216 145.427 L 80.9409 145.851 L 81.0065 146.229 L 81.1981 146.486 L 81.5007 146.658 L 81.9143 146.789 L 82.3228 146.905 L 82.6304 147.016 L 82.817 147.177 L 82.8826 147.44 L 82.822 147.707 L 82.6657 147.909 L 82.4287 148.035 L 82.121 148.075 L 81.7781 148.02 L 81.5158 147.858 L 81.3494 147.596 L 81.2939 147.248 L 81.2939 147.248 z M 83.9517 147.051 L 84.0324 147.667 L 84.2644 148.12 L 84.6326 148.403 L 85.1268 148.499 L 85.616 148.403 L 85.9841 148.126 L 86.2161 147.672 L 86.3019 147.051 L 86.2161 146.436 L 85.9841 145.977 L 85.616 145.7 L 85.1268 145.599 L 84.6326 145.7 L 84.2644 145.982 L 84.0324 146.436 L 83.9517 147.051 L 83.9517 147.051 z M 84.4056 147.046 L 84.451 146.592 L 84.5922 146.265 L 84.8192 146.063 L 85.1268 145.992 L 85.4294 146.063 L 85.6563 146.26 L 85.7975 146.592 L 85.848 147.046 L 85.7975 147.505 L 85.6563 147.838 L 85.4294 148.04 L 85.1268 148.105 L 84.8192 148.04 L 84.5922 147.838 L 84.451 147.505 L 84.4056 147.046 L 84.4056 147.046 z M 88.8437 146.592 L 89.2824 146.592 L 89.1916 146.189 L 88.9748 145.871 L 88.6369 145.674 L 88.1981 145.599 L 87.714 145.7 L 87.3458 145.982 L 87.1138 146.441 L 87.0331 147.056 L 87.1088 147.667 L 87.3357 148.12 L 87.6938 148.403 L 88.183 148.499 L 88.6167 148.423 L 88.9546 148.211 L 89.1866 147.878 L 89.2875 147.435 L 88.8638 147.435 L 88.7882 147.717 L 88.647 147.929 L 88.4452 148.06 L 88.1981 148.1 L 87.8905 148.035 L 87.6686 147.833 L 87.5324 147.505 L 87.487 147.041 L 87.5324 146.587 L 87.6736 146.26 L 87.9006 146.058 L 88.1981 145.987 L 88.4604 146.033 L 88.6571 146.149 L 88.7882 146.34 L 88.8437 146.592 L 88.8437 146.592 z M 91.0375 145.155 L 91.0375 148.03 L 90.1246 148.03 L 90.1246 148.403 L 92.389 148.403 L 92.389 148.03 L 91.4813 148.03 L 91.4813 144.782 L 90.3415 144.782 L 90.3415 145.155 L 91.0375 145.155 L 91.0375 145.155 z M 93.5792 147.177 L 95.3545 147.177 L 95.3595 146.971 L 95.2788 146.391 L 95.0569 145.957 L 94.7039 145.695 L 94.2349 145.599 L 93.7759 145.7 L 93.4229 145.982 L 93.196 146.441 L 93.1153 147.046 L 93.1909 147.667 L 93.4179 148.12 L 93.7658 148.403 L 94.2197 148.499 L 94.6131 148.433 L 94.9359 148.262 L 95.1729 147.989 L 95.3091 147.626 L 94.8703 147.626 L 94.7795 147.828 L 94.6484 147.979 L 94.2752 148.1 L 93.9877 148.045 L 93.7709 147.868 L 93.6297 147.581 L 93.5792 147.193 L 93.5792 147.177 L 93.5792 147.177 z M 93.5792 146.804 L 93.6347 146.456 L 93.7709 146.199 L 93.9777 146.043 L 94.25 145.987 L 94.5173 146.043 L 94.7241 146.199 L 94.8501 146.456 L 94.8955 146.804 L 93.5792 146.804 L 93.5792 146.804 z" fill = "rgb(0, 0, 0)" stroke = "none" fill-rule = "nonzero"/></g><g fill = "none" stroke = "rgb(0, 0, 0)" stroke-width = "0.13" stroke-linecap = "butt" stroke-linejoin = "miter"><path d = "M 82.9683 150.945 L 82.0908 153.925 L 81.188 150.945 L 80.7089 150.945 L 81.8386 154.45 L 82.3429 154.45 L 83.4474 150.945 L 82.9683 150.945 L 82.9683 150.945 z M 86.1707 151.741 L 85.7269 151.741 L 85.7269 153.305 L 85.6765 153.668 L 85.5303 153.93 L 85.3033 154.092 L 85.0058 154.142 L 84.7687 154.102 L 84.6174 153.981 L 84.5317 153.774 L 84.5115 153.481 L 84.5115 151.741 L 84.0677 151.741 L 84.0677 153.522 L 84.0828 153.88 L 84.1787 154.177 L 84.4712 154.45 L 84.9402 154.546 L 85.1924 154.51 L 85.4092 154.419 L 85.5958 154.263 L 85.7471 154.036 L 85.7471 154.45 L 86.1707 154.45 L 86.1707 151.741 L 86.1707 151.741 z M 87.5072 153.224 L 89.2824 153.224 L 89.2875 153.017 L 89.2068 152.437 L 88.9849 152.004 L 88.6318 151.741 L 88.1628 151.646 L 87.7039 151.747 L 87.3509 152.029 L 87.1239 152.488 L 87.0432 153.093 L 87.1189 153.713 L 87.3458 154.167 L 87.6938 154.45 L 88.1477 154.546 L 88.5411 154.48 L 88.8638 154.309 L 89.1009 154.036 L 89.237 153.673 L 88.7983 153.673 L 88.7075 153.875 L 88.5764 154.026 L 88.2032 154.147 L 87.9157 154.092 L 87.6988 153.915 L 87.5576 153.628 L 87.5072 153.239 L 87.5072 153.224 L 87.5072 153.224 z M 87.5072 152.851 L 87.5627 152.503 L 87.6988 152.246 L 87.9056 152.089 L 88.1779 152.034 L 88.4452 152.089 L 88.652 152.246 L 88.7781 152.503 L 88.8235 152.851 L 87.5072 152.851 L 87.5072 152.851 z M 94.8552 154.031 L 94.8552 154.45 L 95.299 154.45 L 95.299 150.829 L 94.8602 150.829 L 94.8602 152.155 L 94.5223 151.772 L 94.3156 151.681 L 94.0785 151.646 L 93.6499 151.747 L 93.317 152.029 L 93.1001 152.483 L 93.0245 153.093 L 93.1001 153.703 L 93.317 154.162 L 93.6499 154.45 L 94.0785 154.546 L 94.3156 154.51 L 94.5274 154.419 L 94.8552 154.031 L 94.8552 154.031 z M 94.1542 152.044 L 94.4467 152.115 L 94.6686 152.311 L 94.7997 152.639 L 94.8501 153.093 L 94.7997 153.552 L 94.6686 153.88 L 94.4467 154.082 L 94.1542 154.147 L 93.8768 154.082 L 93.665 153.88 L 93.5238 153.547 L 93.4784 153.093 L 93.5238 152.644 L 93.665 152.316 L 93.8768 152.115 L 94.1542 152.044 L 94.1542 152.044 z M 96.6153 153.224 L 98.3905 153.224 L 98.3955 153.017 L 98.3148 152.437 L 98.0929 152.004 L 97.7399 151.741 L 97.2709 151.646 L 96.812 151.747 L 96.4589 152.029 L 96.232 152.488 L 96.1513 153.093 L 96.2269 153.713 L 96.4539 154.167 L 96.8019 154.45 L 97.2558 154.546 L 97.6491 154.48 L 97.9719 154.309 L 98.2089 154.036 L 98.3451 153.673 L 97.9063 153.673 L 97.8156 153.875 L 97.6844 154.026 L 97.3112 154.147 L 97.0238 154.092 L 96.8069 153.915 L 96.6657 153.628 L 96.6153 153.239 L 96.6153 153.224 L 96.6153 153.224 z M 96.6153 152.851 L 96.6708 152.503 L 96.8069 152.246 L 97.0137 152.089 L 97.286 152.034 L 97.5533 152.089 L 97.7601 152.246 L 97.8862 152.503 L 97.9316 152.851 L 96.6153 152.851 L 96.6153 152.851 z M 102.914 152.211 L 102.914 154.45 L 103.358 154.45 L 103.358 152.211 L 104.367 152.211 L 104.367 151.832 L 103.358 151.832 L 103.358 151.666 L 103.393 151.464 L 103.509 151.328 L 103.706 151.247 L 103.988 151.217 L 104.367 151.237 L 104.367 150.854 L 103.888 150.829 L 103.454 150.874 L 103.151 151.01 L 102.97 151.247 L 102.914 151.585 L 102.914 151.832 L 102.102 151.832 L 102.102 152.211 L 102.914 152.211 L 102.914 152.211 z M 106.944 154.097 L 106.944 154.112 L 106.969 154.283 L 107.045 154.404 L 107.362 154.5 L 107.61 154.46 L 107.61 154.117 L 107.504 154.132 L 107.362 154.066 L 107.337 153.865 L 107.337 152.463 L 107.277 152.105 L 107.1 151.852 L 106.793 151.701 L 106.359 151.646 L 105.935 151.706 L 105.622 151.878 L 105.426 152.145 L 105.36 152.498 L 105.36 152.528 L 105.759 152.528 L 105.794 152.316 L 105.905 152.165 L 106.086 152.074 L 106.344 152.039 L 106.591 152.064 L 106.767 152.14 L 106.873 152.271 L 106.909 152.453 L 106.888 152.664 L 106.808 152.77 L 106.606 152.821 L 106.228 152.861 L 105.794 152.952 L 105.486 153.113 L 105.305 153.365 L 105.249 153.739 L 105.3 154.071 L 105.456 154.319 L 105.708 154.475 L 106.056 154.53 L 106.525 154.424 L 106.944 154.097 L 106.944 154.097 z M 106.893 153.502 L 106.833 153.764 L 106.671 153.966 L 106.429 154.097 L 106.132 154.142 L 105.94 154.117 L 105.804 154.036 L 105.718 153.895 L 105.693 153.698 L 105.713 153.522 L 105.794 153.396 L 106.117 153.254 L 106.525 153.194 L 106.893 153.073 L 106.893 153.502 L 106.893 153.502 z M 110.096 152.639 L 110.535 152.639 L 110.444 152.236 L 110.227 151.918 L 109.889 151.721 L 109.45 151.646 L 108.966 151.747 L 108.598 152.029 L 108.366 152.488 L 108.285 153.103 L 108.361 153.713 L 108.588 154.167 L 108.946 154.45 L 109.435 154.546 L 109.869 154.47 L 110.207 154.258 L 110.439 153.925 L 110.54 153.481 L 110.116 153.481 L 110.04 153.764 L 109.899 153.976 L 109.697 154.107 L 109.45 154.147 L 109.143 154.082 L 108.921 153.88 L 108.785 153.552 L 108.739 153.088 L 108.785 152.634 L 108.926 152.306 L 109.153 152.105 L 109.45 152.034 L 109.713 152.079 L 109.909 152.195 L 110.04 152.387 L 110.096 152.639 L 110.096 152.639 z M 111.795 153.224 L 113.571 153.224 L 113.576 153.017 L 113.495 152.437 L 113.273 152.004 L 112.92 151.741 L 112.451 151.646 L 111.992 151.747 L 111.639 152.029 L 111.412 152.488 L 111.331 153.093 L 111.407 153.713 L 111.634 154.167 L 111.982 154.45 L 112.436 154.546 L 112.829 154.48 L 113.152 154.309 L 113.389 154.036 L 113.525 153.673 L 113.086 153.673 L 112.996 153.875 L 112.865 154.026 L 112.491 154.147 L 112.204 154.092 L 111.987 153.915 L 111.846 153.628 L 111.795 153.239 L 111.795 153.224 L 111.795 153.224 z M 111.795 152.851 L 111.851 152.503 L 111.987 152.246 L 112.194 152.089 L 112.466 152.034 L 112.733 152.089 L 112.94 152.246 L 113.066 152.503 L 113.112 152.851 L 111.795 152.851 L 111.795 152.851 z" fill = "rgb(0, 0, 0)" stroke = "none" fill-rule = "nonzero"/></g><g fill = "none" stroke = "rgb(0, 0, 0)" stroke-width = "0.13" stroke-linecap = "butt" stroke-linejoin = "miter"><path d = "M 81.0317 160.497 L 83.2507 160.497 L 83.2507 160.073 L 81.4957 160.073 L 81.4957 158.888 L 83.0591 158.888 L 83.0591 158.469 L 81.4957 158.469 L 81.4957 157.42 L 83.2104 157.42 L 83.2104 156.997 L 81.0317 156.997 L 81.0317 160.497 L 81.0317 160.497 z M 85.8076 158.686 L 86.2464 158.686 L 86.1556 158.283 L 85.9388 157.965 L 85.6009 157.768 L 85.1621 157.693 L 84.6779 157.793 L 84.3098 158.076 L 84.0778 158.535 L 83.9971 159.15 L 84.0728 159.76 L 84.2997 160.214 L 84.6578 160.497 L 85.147 160.592 L 85.5807 160.517 L 85.9186 160.305 L 86.1506 159.972 L 86.2514 159.528 L 85.8278 159.528 L 85.7522 159.811 L 85.6109 160.022 L 85.4092 160.154 L 85.1621 160.194 L 84.8545 160.128 L 84.6326 159.927 L 84.4964 159.599 L 84.451 159.135 L 84.4964 158.681 L 84.6376 158.353 L 84.8645 158.151 L 85.1621 158.081 L 85.4243 158.126 L 85.621 158.242 L 85.7522 158.434 L 85.8076 158.686 L 85.8076 158.686 z M 87.1189 160.497 L 87.5627 160.497 L 87.5627 158.933 L 87.6081 158.575 L 87.7543 158.313 L 87.9813 158.151 L 88.2839 158.091 L 88.5259 158.141 L 88.6772 158.278 L 88.7529 158.504 L 88.7781 158.807 L 88.7781 160.497 L 89.2219 160.497 L 89.2219 158.716 L 89.2017 158.358 L 89.1109 158.061 L 88.8134 157.788 L 88.3494 157.693 L 88.0973 157.728 L 87.8804 157.824 L 87.6988 157.975 L 87.5627 158.182 L 87.5627 156.875 L 87.1189 156.875 L 87.1189 160.497 L 87.1189 160.497 z M 90.5432 159.271 L 92.3184 159.271 L 92.3235 159.064 L 92.2428 158.484 L 92.0209 158.051 L 91.6679 157.788 L 91.1988 157.693 L 90.7399 157.793 L 90.3869 158.076 L 90.1599 158.535 L 90.0792 159.14 L 90.1549 159.76 L 90.3818 160.214 L 90.7298 160.497 L 91.1837 160.592 L 91.5771 160.527 L 91.8998 160.355 L 92.1369 160.083 L 92.273 159.72 L 91.8343 159.72 L 91.7435 159.922 L 91.6124 160.073 L 91.2392 160.194 L 90.9517 160.138 L 90.7349 159.962 L 90.5937 159.674 L 90.5432 159.286 L 90.5432 159.271 L 90.5432 159.271 z M 90.5432 158.898 L 90.5987 158.55 L 90.7349 158.293 L 90.9416 158.136 L 91.214 158.081 L 91.4813 158.136 L 91.688 158.293 L 91.8141 158.55 L 91.8595 158.898 L 90.5432 158.898 L 90.5432 158.898 z M 94.0735 157.249 L 94.0735 160.123 L 93.1607 160.123 L 93.1607 160.497 L 95.4251 160.497 L 95.4251 160.123 L 94.5173 160.123 L 94.5173 156.875 L 93.3775 156.875 L 93.3775 157.249 L 94.0735 157.249 L 94.0735 157.249 z M 97.1095 157.249 L 97.1095 160.123 L 96.1967 160.123 L 96.1967 160.497 L 98.4611 160.497 L 98.4611 160.123 L 97.5533 160.123 L 97.5533 156.875 L 96.4135 156.875 L 96.4135 157.249 L 97.1095 157.249 L 97.1095 157.249 z M 99.6513 159.271 L 101.427 159.271 L 101.432 159.064 L 101.351 158.484 L 101.129 158.051 L 100.776 157.788 L 100.307 157.693 L 99.848 157.793 L 99.495 158.076 L 99.268 158.535 L 99.1873 159.14 L 99.263 159.76 L 99.4899 160.214 L 99.8379 160.497 L 100.292 160.592 L 100.685 160.527 L 101.008 160.355 L 101.245 160.083 L 101.381 159.72 L 100.942 159.72 L 100.852 159.922 L 100.72 160.073 L 100.347 160.194 L 100.06 160.138 L 99.8429 159.962 L 99.7017 159.674 L 99.6513 159.286 L 99.6513 159.271 L 99.6513 159.271 z M 99.6513 158.898 L 99.7068 158.55 L 99.8429 158.293 L 100.05 158.136 L 100.322 158.081 L 100.589 158.136 L 100.796 158.293 L 100.922 158.55 L 100.968 158.898 L 99.6513 158.898 L 99.6513 158.898 z M 106.031 160.497 L 106.727 160.497 L 106.727 159.745 L 106.031 159.745 L 106.031 160.497 L 106.031 160.497 z M 106.031 158.54 L 106.727 158.54 L 106.727 157.788 L 106.031 157.788 L 106.031 158.54 L 106.031 158.54 z" fill = "rgb(0, 0, 0)" stroke = "none" fill-rule = "nonzero"/></g><g fill = "none" stroke = "rgb(0, 0, 0)" stroke-width = "0.13" stroke-linecap = "butt" stroke-linejoin = "miter"><path d = "M 115.396 160.497 L 115.855 160.497 L 115.855 156.971 L 115.512 156.971 L 115.421 157.279 L 115.24 157.486 L 114.963 157.607 L 114.579 157.647 L 114.579 158.005 L 115.396 158.005 L 115.396 160.497 L 115.396 160.497 z M 118.175 160.497 L 118.871 160.497 L 118.871 159.745 L 118.175 159.745 L 118.175 160.497 L 118.175 160.497 z M 118.175 158.54 L 118.871 158.54 L 118.871 157.788 L 118.175 157.788 L 118.175 158.54 L 118.175 158.54 z M 121.468 160.497 L 121.927 160.497 L 121.927 156.971 L 121.584 156.971 L 121.494 157.279 L 121.312 157.486 L 121.035 157.607 L 120.651 157.647 L 120.651 158.005 L 121.468 158.005 L 121.468 160.497 L 121.468 160.497 z" fill = "rgb(0, 0, 0)" stroke = "none" fill-rule = "nonzero"/></g></svg>
