<?xml version="1.0" encoding="utf-8" ?><!DOCTYPE svg PUBLIC "-//W3C//DTD SVG 1.1//EN" "http://www.w3.org/Graphics/SVG/1.1/DTD/svg11.dtd" 
[ <!ATTLIST svg 
  xmlns:dsy CDATA #FIXED "http://www.3ds.com/print"  
    dsy:text-version CDATA #IMPLIED > 

  <!ATTLIST text 
  xmlns:dsy CDATA #FIXED "http://www.3ds.com/print" 
    dsy:text-version CDATA #IMPLIED > 
]><svg xmlns="http://www.w3.org/2000/svg" xmlns:dsy="http://www.3ds.com/print" dsy:text-version="18000" width="1189" height="841" viewBox="0 0 1189 841" version="1.1"><g stroke="rgb(0, 0, 0)" stroke-width="0.35" stroke-linecap="butt" stroke-linejoin="miter" fill="none"><path d="M 143.084 61.5035 L 135.928 80.1791"/><path d="M 135.928 80.1791 L 141.437 82.2904"/><path d="M 141.437 82.2904 L 148.594 63.6149"/><path d="M 148.594 63.6149 L 285.479 116.073"/><path d="M 285.479 116.073 L 278.322 134.749"/><path d="M 278.322 134.749 L 283.832 136.86"/><path d="M 283.832 136.86 L 290.989 118.185"/><circle cx="354.724" cy="159.322" r="3.19995"/><circle cx="72.9996" cy="56.2123" r="3.19995"/><circle cx="115.548" cy="463.671" r="3.19995"/><circle cx="130.755" cy="407.097" r="6"/><path d="M 165.471 139.692 L 146.796 132.535"/><path d="M 146.796 132.535 L 128.903 179.224"/><path d="M 128.903 179.224 L 147.579 186.381"/><path d="M 147.579 186.381 L 165.471 139.692"/><path d="M 229.729 164.318 L 243.736 169.686"/><path d="M 202.903 191.519 L 229.729 164.318"/><path d="M 205.413 154.999 L 202.903 191.519"/><path d="M 191.406 149.631 L 205.413 154.999"/><path d="M 191.406 203.177 L 191.406 149.631"/><path d="M 205.413 208.545 L 191.406 203.177"/><path d="M 243.736 169.686 L 205.413 208.545"/><path d="M 359.593 164.363 L 360.289 165.08"/><path d="M 360.289 165.08 L 369.617 156.025"/><path d="M 369.617 156.025 L 368.92 155.307"/><path d="M 359.593 164.363 L 368.92 155.307"/><path d="M 348.646 155.856 L 354.618 145.448"/><path d="M 353.751 144.95 L 354.618 145.448"/><path d="M 347.778 155.359 L 353.751 144.95"/><path d="M 348.646 155.856 L 347.778 155.359"/><path d="M 66.3159 58.3207 L 64.6703 53.114"/><path d="M 64.6703 53.114 L 63.7168 53.4153"/><path d="M 63.7168 53.4153 L 65.3624 58.6221"/><path d="M 65.3624 58.6221 L 66.3159 58.3207"/><path d="M 80.9899 55.8267 L 79.9934 55.8865"/><path d="M 80.3691 45.4802 L 80.9899 55.8267"/><path d="M 79.3691 45.4802 L 80.3691 45.4802"/><path d="M 79.9934 55.8865 L 79.3691 45.4802"/><path d="M 190.108 219.31 L 142.021 200.882"/><path d="M 142.022 200.882 A 8 8 0 0 0 136.296 215.822"/><path d="M 136.296 215.822 L 184.383 234.251"/><path d="M 184.383 234.251 A 8 8 0 0 0 190.108 219.31"/><path d="M 74.4547 262.714 A 0.5 0.5 0 0 0 75.004 263.159"/><path d="M 75.004 263.159 L 103.847 260.147"/><path d="M 104.396 260.592 A 0.5 0.5 0 0 0 103.847 260.147"/><path d="M 77.0813 283.051 A 0.5 0.5 0 0 0 76.6359 283.6"/><path d="M 104.396 260.592 L 106.37 279.49"/><path d="M 105.924 280.039 L 77.0812 283.051"/><path d="M 105.924 280.039 A 0.5 0.5 0 0 0 106.37 279.49"/><path d="M 80.1405 37.3816 L 143.084 61.5035"/><path d="M 53.0917 58.1344 L 74.4547 262.714"/><path d="M 80.1404 37.3816 A 20 20 0 0 0 53.0916 58.1344"/><path d="M 290.989 118.185 L 359.038 144.263"/><path d="M 367.607 175.297 A 20 20 0 0 0 359.038 144.263"/><path d="M 76.6359 283.6 L 95.6566 465.748"/><path d="M 367.607 175.297 L 131.274 476.029"/><path d="M 95.6566 465.748 A 20 20 0 0 0 131.274 476.029"/><path d="M 513.22 287.785 L 483.382 290.901"/><path d="M 511.143 267.893 L 513.22 287.785"/><path d="M 481.305 271.009 L 511.143 267.893"/><path d="M 549.883 69.3016 L 542.726 87.9772"/><path d="M 548.235 90.0885 L 542.726 87.9772"/><path d="M 548.235 90.0885 L 555.392 71.413"/><path d="M 692.278 123.871 L 555.392 71.413"/><path d="M 685.121 142.547 L 692.278 123.871"/><path d="M 690.63 144.658 L 685.121 142.547"/><path d="M 697.787 125.983 L 690.63 144.658"/><circle cx="761.522" cy="167.12" r="3.20001"/><circle cx="479.798" cy="64.0104" r="3.20001"/><circle cx="522.347" cy="471.469" r="3.20001"/><circle cx="537.553" cy="414.896" r="6"/><path d="M 572.269 147.49 L 553.594 140.333"/><path d="M 553.594 140.333 L 535.701 187.022"/><path d="M 535.701 187.022 L 554.377 194.179"/><path d="M 554.377 194.179 L 572.269 147.49"/><path d="M 636.527 172.116 L 650.534 177.484"/><path d="M 609.701 199.317 L 636.527 172.116"/><path d="M 612.211 162.797 L 609.701 199.317"/><path d="M 598.204 157.429 L 612.211 162.797"/><path d="M 598.204 210.975 L 598.204 157.429"/><path d="M 612.211 216.343 L 598.204 210.975"/><path d="M 650.534 177.484 L 612.211 216.343"/><path d="M 468.42 51.3708 L 469.39 51.1295"/><path d="M 472.039 65.9276 L 468.42 51.3708"/><path d="M 473.009 65.6864 L 472.039 65.9276"/><path d="M 469.39 51.1295 L 473.009 65.6864"/><path d="M 760.711 154.928 L 759.856 154.411"/><path d="M 759.856 154.411 L 754.681 162.968"/><path d="M 754.681 162.968 L 755.537 163.485"/><path d="M 760.711 154.928 L 755.537 163.485"/><path d="M 767.27 172.659 L 766.458 172.075"/><path d="M 773.693 163.73 L 767.27 172.659"/><path d="M 772.882 163.146 L 773.693 163.73"/><path d="M 766.458 172.075 L 772.882 163.146"/><path d="M 487.798 64.2821 L 486.798 64.2465"/><path d="M 488.331 49.2916 L 487.798 64.2821"/><path d="M 487.332 49.256 L 488.331 49.2916"/><path d="M 486.798 64.2465 L 487.332 49.256"/><path d="M 765.837 152.061 L 697.787 125.983"/><path d="M 774.405 183.095 A 20 20 0 0 0 765.837 152.061"/><path d="M 459.89 65.9325 L 481.305 271.009"/><path d="M 549.883 69.3016 L 486.939 45.1797"/><path d="M 486.939 45.1797 A 20 20 0 0 0 459.89 65.9325"/><path d="M 483.382 290.901 L 502.455 473.546"/><path d="M 774.405 183.095 L 538.072 483.827"/><path d="M 502.455 473.546 A 20 20 0 0 0 538.072 483.827"/><path d="M 885.144 97.7674 L 879.144 97.8213"/><path d="M 879.144 97.8213 L 879.324 117.82"/><path d="M 879.324 117.82 L 871.324 117.892"/><path d="M 871.324 117.892 L 871.144 97.8932"/><path d="M 871.144 97.8932 L 865.145 97.9471"/><path d="M 865.145 97.9471 L 865.324 117.946"/><path d="M 865.324 117.946 L 840.325 118.171"/><path d="M 840.325 118.171 L 840.325 49.1682"/><path d="M 856.568 49.0222 L 840.325 49.1682"/><path d="M 856.568 49.0222 A 10 10 0 0 0 876.467 48.8434"/><path d="M 894.703 48.6795 L 876.467 48.8434"/><path d="M 894.919 72.6785 L 894.703 48.6795"/><path d="M 886.919 72.7504 L 894.919 72.6785"/><path d="M 886.964 77.7502 L 886.919 72.7504"/><path d="M 894.964 77.6783 L 886.964 77.7502"/><path d="M 895.323 117.677 L 894.964 77.6783"/><path d="M 885.324 117.767 L 895.323 117.677"/><path d="M 885.144 97.7674 L 885.324 117.767"/><path d="M 896.648 214.503 L 890.648 214.557"/><path d="M 890.648 214.557 L 890.828 234.557"/><path d="M 890.828 234.557 L 882.828 234.628"/><path d="M 882.828 234.628 L 882.649 214.629"/><path d="M 882.649 214.629 L 876.649 214.683"/><path d="M 876.649 214.683 L 876.829 234.682"/><path d="M 876.829 234.682 L 851.83 234.907"/><path d="M 851.83 234.907 L 851.83 165.904"/><path d="M 868.097 165.758 L 851.83 165.904"/><path d="M 868.096 165.758 A 10 10 0 0 0 887.995 165.579"/><path d="M 906.207 165.415 L 887.995 165.579"/><path d="M 906.423 189.414 L 906.207 165.415"/><path d="M 898.423 189.486 L 906.423 189.414"/><path d="M 898.468 194.486 L 898.423 189.486"/><path d="M 906.468 194.414 L 898.468 194.486"/><path d="M 906.827 234.413 L 906.468 194.414"/><path d="M 896.828 234.503 L 906.827 234.413"/><path d="M 896.648 214.503 L 896.828 234.503"/></g><g stroke="rgb(0, 0, 0)" stroke-width="0.13" stroke-linecap="butt" stroke-linejoin="miter" fill="none"><path d="M 106.784 309.623 L 109.034 309.623 L 109.034 309.199 L 107.248 309.199 L 107.248 306.123 L 106.784 306.123 L 106.784 309.623 L 106.784 309.623 z M 110.189 308.397 L 111.964 308.397 L 111.969 308.191 L 111.888 307.611 L 111.666 307.177 L 111.313 306.915 L 110.844 306.819 L 110.385 306.92 L 110.032 307.202 L 109.805 307.661 L 109.725 308.266 L 109.8 308.887 L 110.027 309.341 L 110.375 309.623 L 110.829 309.719 L 111.222 309.653 L 111.545 309.482 L 111.782 309.209 L 111.918 308.846 L 111.48 308.846 L 111.389 309.048 L 111.258 309.199 L 110.885 309.32 L 110.597 309.265 L 110.38 309.088 L 110.239 308.801 L 110.189 308.413 L 110.189 308.397 L 110.189 308.397 z M 110.189 308.024 L 110.244 307.676 L 110.38 307.419 L 110.587 307.263 L 110.859 307.207 L 111.127 307.263 L 111.333 307.419 L 111.459 307.676 L 111.505 308.024 L 110.189 308.024 L 110.189 308.024 z M 113.452 307.384 L 113.452 309.623 L 113.895 309.623 L 113.895 307.384 L 114.904 307.384 L 114.904 307.006 L 113.895 307.006 L 113.895 306.839 L 113.931 306.637 L 114.047 306.501 L 114.243 306.421 L 114.526 306.39 L 114.904 306.41 L 114.904 306.027 L 114.425 306.002 L 113.991 306.047 L 113.689 306.184 L 113.507 306.421 L 113.452 306.758 L 113.452 307.006 L 112.64 307.006 L 112.64 307.384 L 113.452 307.384 L 113.452 307.384 z M 116.467 307.384 L 116.467 308.74 L 116.498 309.179 L 116.639 309.482 L 116.921 309.658 L 117.4 309.719 L 117.925 309.694 L 117.925 309.31 L 117.542 309.341 L 117.194 309.3 L 117.007 309.174 L 116.926 308.962 L 116.911 308.665 L 116.911 307.384 L 117.925 307.384 L 117.925 307.006 L 116.911 307.006 L 116.911 306.214 L 116.467 306.214 L 116.467 307.006 L 115.701 307.006 L 115.701 307.384 L 116.467 307.384 L 116.467 307.384 z M 118.434 310.46 L 118.434 310.813 L 121.47 310.813 L 121.47 310.46 L 118.434 310.46 L 118.434 310.46 z M 121.864 309.623 L 122.333 309.623 L 122.333 308.145 L 122.812 308.145 L 123.165 308.16 L 123.387 308.231 L 123.508 308.397 L 123.558 308.695 L 123.583 309.149 L 123.614 309.446 L 123.674 309.623 L 124.204 309.623 L 124.204 309.527 L 124.088 309.386 L 124.047 309.124 L 124.012 308.559 L 123.926 308.14 L 123.81 308.009 L 123.629 307.913 L 123.83 307.787 L 123.972 307.611 L 124.062 307.389 L 124.093 307.122 L 124.022 306.698 L 123.82 306.38 L 123.488 306.189 L 123.034 306.123 L 121.864 306.123 L 121.864 309.623 L 121.864 309.623 z M 122.903 306.552 L 123.21 306.582 L 123.427 306.678 L 123.563 306.854 L 123.609 307.132 L 123.558 307.424 L 123.422 307.601 L 123.19 307.691 L 122.872 307.717 L 122.333 307.717 L 122.333 306.552 L 122.903 306.552 L 122.903 306.552 z M 125.369 308.397 L 127.144 308.397 L 127.149 308.191 L 127.068 307.611 L 126.846 307.177 L 126.493 306.915 L 126.024 306.819 L 125.565 306.92 L 125.212 307.202 L 124.985 307.661 L 124.905 308.266 L 124.98 308.887 L 125.207 309.341 L 125.555 309.623 L 126.009 309.719 L 126.403 309.653 L 126.725 309.482 L 126.962 309.209 L 127.099 308.846 L 126.66 308.846 L 126.569 309.048 L 126.438 309.199 L 126.065 309.32 L 125.777 309.265 L 125.56 309.088 L 125.419 308.801 L 125.369 308.413 L 125.369 308.397 L 125.369 308.397 z M 125.369 308.024 L 125.424 307.676 L 125.56 307.419 L 125.767 307.263 L 126.039 307.207 L 126.307 307.263 L 126.513 307.419 L 126.64 307.676 L 126.685 308.024 L 125.369 308.024 L 125.369 308.024 z M 129.625 309.27 L 129.625 309.285 L 129.65 309.457 L 129.726 309.578 L 130.044 309.673 L 130.291 309.633 L 130.291 309.29 L 130.185 309.305 L 130.044 309.24 L 130.019 309.038 L 130.019 307.636 L 129.958 307.278 L 129.781 307.026 L 129.474 306.874 L 129.04 306.819 L 128.617 306.879 L 128.304 307.051 L 128.107 307.318 L 128.042 307.671 L 128.042 307.702 L 128.44 307.702 L 128.475 307.49 L 128.586 307.338 L 128.768 307.248 L 129.025 307.212 L 129.272 307.238 L 129.449 307.313 L 129.555 307.444 L 129.59 307.626 L 129.57 307.838 L 129.489 307.944 L 129.287 307.994 L 128.909 308.034 L 128.475 308.125 L 128.168 308.287 L 127.986 308.539 L 127.931 308.912 L 127.981 309.245 L 128.137 309.492 L 128.39 309.648 L 128.738 309.704 L 129.207 309.598 L 129.625 309.27 L 129.625 309.27 z M 129.575 308.675 L 129.514 308.937 L 129.353 309.139 L 129.111 309.27 L 128.813 309.315 L 128.622 309.29 L 128.485 309.209 L 128.4 309.068 L 128.374 308.872 L 128.395 308.695 L 128.475 308.569 L 128.798 308.428 L 129.207 308.367 L 129.575 308.246 L 129.575 308.675 L 129.575 308.675 z M 131.219 309.623 L 131.663 309.623 L 131.663 308.075 L 131.708 307.702 L 131.844 307.434 L 132.066 307.273 L 132.364 307.217 L 132.586 307.253 L 132.752 307.354 L 132.853 307.525 L 132.888 307.757 L 133.337 307.757 L 133.276 307.349 L 133.11 307.056 L 132.833 306.879 L 132.454 306.819 L 132.197 306.859 L 131.975 306.96 L 131.779 307.132 L 131.622 307.364 L 131.622 306.915 L 131.219 306.915 L 131.219 309.623 L 131.219 309.623 z M 133.614 310.46 L 133.614 310.813 L 136.65 310.813 L 136.65 310.46 L 133.614 310.46 L 133.614 310.46 z M 137.145 309.623 L 139.394 309.623 L 139.394 309.199 L 137.609 309.199 L 137.609 306.123 L 137.145 306.123 L 137.145 309.623 L 137.145 309.623 z M 140.029 308.271 L 140.11 308.887 L 140.342 309.341 L 140.71 309.623 L 141.204 309.719 L 141.694 309.623 L 142.062 309.346 L 142.294 308.892 L 142.379 308.271 L 142.294 307.656 L 142.062 307.197 L 141.694 306.92 L 141.204 306.819 L 140.71 306.92 L 140.342 307.202 L 140.11 307.656 L 140.029 308.271 L 140.029 308.271 z M 140.483 308.266 L 140.529 307.813 L 140.67 307.485 L 140.897 307.283 L 141.204 307.212 L 141.507 307.283 L 141.734 307.48 L 141.875 307.813 L 141.926 308.266 L 141.875 308.725 L 141.734 309.058 L 141.507 309.26 L 141.204 309.325 L 140.897 309.26 L 140.67 309.058 L 140.529 308.725 L 140.483 308.266 L 140.483 308.266 z M 143.837 309.623 L 144.24 307.323 L 144.644 309.623 L 145.068 309.623 L 145.733 306.915 L 145.305 306.915 L 144.856 309.214 L 144.457 306.915 L 144.019 306.915 L 143.62 309.214 L 143.171 306.915 L 142.748 306.915 L 143.413 309.623 L 143.837 309.623 L 143.837 309.623 z M 146.621 308.397 L 148.396 308.397 L 148.401 308.191 L 148.32 307.611 L 148.099 307.177 L 147.745 306.915 L 147.276 306.819 L 146.818 306.92 L 146.465 307.202 L 146.238 307.661 L 146.157 308.266 L 146.233 308.887 L 146.459 309.341 L 146.807 309.623 L 147.261 309.719 L 147.655 309.653 L 147.977 309.482 L 148.215 309.209 L 148.351 308.846 L 147.912 308.846 L 147.821 309.048 L 147.69 309.199 L 147.317 309.32 L 147.029 309.265 L 146.812 309.088 L 146.671 308.801 L 146.621 308.413 L 146.621 308.397 L 146.621 308.397 z M 146.621 308.024 L 146.676 307.676 L 146.812 307.419 L 147.019 307.263 L 147.292 307.207 L 147.559 307.263 L 147.766 307.419 L 147.892 307.676 L 147.937 308.024 L 146.621 308.024 L 146.621 308.024 z M 149.435 309.623 L 149.879 309.623 L 149.879 308.075 L 149.924 307.702 L 150.06 307.434 L 150.282 307.273 L 150.58 307.217 L 150.802 307.253 L 150.968 307.354 L 151.069 307.525 L 151.104 307.757 L 151.553 307.757 L 151.493 307.349 L 151.326 307.056 L 151.049 306.879 L 150.671 306.819 L 150.413 306.859 L 150.191 306.96 L 149.995 307.132 L 149.838 307.364 L 149.838 306.915 L 149.435 306.915 L 149.435 309.623 L 149.435 309.623 z M 154.851 309.623 L 155.315 309.623 L 155.684 308.594 L 157.081 308.594 L 157.449 309.623 L 157.923 309.623 L 156.642 306.118 L 156.127 306.118 L 154.851 309.623 L 154.851 309.623 z M 155.845 308.165 L 156.385 306.622 L 156.924 308.165 L 155.845 308.165 L 155.845 308.165 z M 158.81 308.468 L 160.031 308.468 L 160.031 308.07 L 158.81 308.07 L 158.81 308.468 L 158.81 308.468 z M 160.923 309.623 L 161.387 309.623 L 161.756 308.594 L 163.153 308.594 L 163.521 309.623 L 163.995 309.623 L 162.714 306.118 L 162.199 306.118 L 160.923 309.623 L 160.923 309.623 z M 161.917 308.165 L 162.457 306.622 L 162.996 308.165 L 161.917 308.165 L 161.917 308.165 z M 164.615 309.623 L 165.059 309.623 L 165.059 308.075 L 165.104 307.702 L 165.24 307.434 L 165.462 307.273 L 165.76 307.217 L 165.982 307.253 L 166.148 307.354 L 166.249 307.525 L 166.284 307.757 L 166.733 307.757 L 166.673 307.349 L 166.506 307.056 L 166.229 306.879 L 165.851 306.819 L 165.593 306.859 L 165.372 306.96 L 165.175 307.132 L 165.019 307.364 L 165.019 306.915 L 164.615 306.915 L 164.615 309.623 L 164.615 309.623 z M 167.308 309.623 L 167.717 309.623 L 167.717 307.813 L 167.742 307.54 L 167.818 307.343 L 167.934 307.227 L 168.085 307.182 L 168.206 307.222 L 168.287 307.323 L 168.327 307.495 L 168.342 307.722 L 168.342 309.623 L 168.725 309.623 L 168.725 307.813 L 168.751 307.545 L 168.826 307.349 L 168.947 307.227 L 169.099 307.182 L 169.22 307.222 L 169.3 307.323 L 169.351 307.722 L 169.351 309.623 L 169.759 309.623 L 169.759 307.752 L 169.734 307.364 L 169.653 307.066 L 169.492 306.885 L 169.23 306.819 L 168.922 306.92 L 168.685 307.212 L 168.498 306.925 L 168.186 306.819 L 167.898 306.92 L 167.702 307.202 L 167.702 306.915 L 167.308 306.915 L 167.308 309.623 L 167.308 309.623 z M 173.99 308.468 L 175.211 308.468 L 175.211 308.07 L 173.99 308.07 L 173.99 308.468 L 173.99 308.468 z M 179.609 309.623 L 180.073 309.623 L 180.073 308.145 L 180.587 308.145 L 181.106 308.12 L 181.52 307.944 L 181.787 307.601 L 181.878 307.132 L 181.807 306.698 L 181.606 306.38 L 181.273 306.189 L 180.819 306.123 L 179.609 306.123 L 179.609 309.623 L 179.609 309.623 z M 180.693 306.552 L 180.996 306.582 L 181.217 306.678 L 181.349 306.854 L 181.394 307.132 L 181.343 307.424 L 181.207 307.601 L 180.975 307.691 L 180.658 307.717 L 180.073 307.717 L 180.073 306.552 L 180.693 306.552 L 180.693 306.552 z M 183.547 306.375 L 183.547 309.25 L 182.635 309.25 L 182.635 309.623 L 184.899 309.623 L 184.899 309.25 L 183.991 309.25 L 183.991 306.002 L 182.851 306.002 L 182.851 306.375 L 183.547 306.375 L 183.547 306.375 z M 187.31 309.27 L 187.31 309.285 L 187.335 309.457 L 187.411 309.578 L 187.728 309.673 L 187.975 309.633 L 187.975 309.29 L 187.869 309.305 L 187.728 309.24 L 187.703 309.038 L 187.703 307.636 L 187.642 307.278 L 187.466 307.026 L 187.158 306.874 L 186.725 306.819 L 186.301 306.879 L 185.988 307.051 L 185.792 307.318 L 185.726 307.671 L 185.726 307.702 L 186.124 307.702 L 186.16 307.49 L 186.271 307.338 L 186.452 307.248 L 186.71 307.212 L 186.957 307.238 L 187.133 307.313 L 187.239 307.444 L 187.274 307.626 L 187.254 307.838 L 187.173 307.944 L 186.972 307.994 L 186.594 308.034 L 186.16 308.125 L 185.852 308.287 L 185.671 308.539 L 185.615 308.912 L 185.666 309.245 L 185.822 309.492 L 186.074 309.648 L 186.422 309.704 L 186.891 309.598 L 187.31 309.27 L 187.31 309.27 z M 187.259 308.675 L 187.199 308.937 L 187.037 309.139 L 186.795 309.27 L 186.498 309.315 L 186.306 309.29 L 186.17 309.209 L 186.084 309.068 L 186.059 308.872 L 186.079 308.695 L 186.16 308.569 L 186.483 308.428 L 186.891 308.367 L 187.259 308.246 L 187.259 308.675 L 187.259 308.675 z M 190.401 307.333 L 190.245 307.106 L 190.068 306.945 L 189.862 306.854 L 189.624 306.819 L 189.196 306.92 L 188.863 307.202 L 188.646 307.656 L 188.57 308.266 L 188.646 308.882 L 188.863 309.336 L 189.196 309.623 L 189.624 309.719 L 189.862 309.689 L 190.063 309.603 L 190.24 309.446 L 190.401 309.209 L 190.401 310.672 L 190.845 310.672 L 190.845 306.915 L 190.401 306.915 L 190.401 307.333 L 190.401 307.333 z M 189.024 308.266 L 189.07 307.818 L 189.211 307.49 L 189.423 307.288 L 189.7 307.217 L 189.993 307.288 L 190.215 307.485 L 190.346 307.813 L 190.396 308.266 L 190.346 308.725 L 190.215 309.053 L 189.993 309.255 L 189.7 309.32 L 189.423 309.255 L 189.211 309.053 L 189.07 308.72 L 189.024 308.266 L 189.024 308.266 z M 193.861 306.915 L 193.417 306.915 L 193.417 308.478 L 193.367 308.841 L 193.22 309.104 L 192.993 309.265 L 192.696 309.315 L 192.459 309.275 L 192.307 309.154 L 192.222 308.947 L 192.202 308.655 L 192.202 306.915 L 191.758 306.915 L 191.758 308.695 L 191.773 309.053 L 191.869 309.351 L 192.161 309.623 L 192.63 309.719 L 192.882 309.684 L 193.099 309.593 L 193.286 309.436 L 193.437 309.209 L 193.437 309.623 L 193.861 309.623 L 193.861 306.915 L 193.861 306.915 z M 195.197 308.397 L 196.972 308.397 L 196.978 308.191 L 196.897 307.611 L 196.675 307.177 L 196.322 306.915 L 195.853 306.819 L 195.394 306.92 L 195.041 307.202 L 194.814 307.661 L 194.733 308.266 L 194.809 308.887 L 195.036 309.341 L 195.384 309.623 L 195.838 309.719 L 196.231 309.653 L 196.554 309.482 L 196.791 309.209 L 196.927 308.846 L 196.488 308.846 L 196.398 309.048 L 196.266 309.199 L 195.893 309.32 L 195.606 309.265 L 195.389 309.088 L 195.248 308.801 L 195.197 308.413 L 195.197 308.397 L 195.197 308.397 z M 195.197 308.024 L 195.253 307.676 L 195.389 307.419 L 195.596 307.263 L 195.868 307.207 L 196.135 307.263 L 196.342 307.419 L 196.468 307.676 L 196.514 308.024 L 195.197 308.024 L 195.197 308.024 z M 202.545 309.204 L 202.545 309.623 L 202.989 309.623 L 202.989 306.002 L 202.55 306.002 L 202.55 307.328 L 202.212 306.945 L 202.006 306.854 L 201.769 306.819 L 201.34 306.92 L 201.007 307.202 L 200.79 307.656 L 200.715 308.266 L 200.79 308.877 L 201.007 309.336 L 201.34 309.623 L 201.769 309.719 L 202.006 309.684 L 202.217 309.593 L 202.545 309.204 L 202.545 309.204 z M 201.844 307.217 L 202.137 307.288 L 202.359 307.485 L 202.49 307.813 L 202.54 308.266 L 202.49 308.725 L 202.359 309.053 L 202.137 309.255 L 201.844 309.32 L 201.567 309.255 L 201.355 309.053 L 201.214 308.72 L 201.168 308.266 L 201.214 307.818 L 201.355 307.49 L 201.567 307.288 L 201.844 307.217 L 201.844 307.217 z M 206.005 306.915 L 205.561 306.915 L 205.561 308.478 L 205.511 308.841 L 205.364 309.104 L 205.137 309.265 L 204.84 309.315 L 204.603 309.275 L 204.452 309.154 L 204.366 308.947 L 204.346 308.655 L 204.346 306.915 L 203.902 306.915 L 203.902 308.695 L 203.917 309.053 L 204.013 309.351 L 204.305 309.623 L 204.774 309.719 L 205.027 309.684 L 205.243 309.593 L 205.43 309.436 L 205.581 309.209 L 205.581 309.623 L 206.005 309.623 L 206.005 306.915 L 206.005 306.915 z M 209.989 309.623 L 210.433 309.623 L 210.433 308.06 L 210.478 307.702 L 210.625 307.439 L 210.851 307.278 L 211.154 307.217 L 211.396 307.268 L 211.547 307.404 L 211.623 307.631 L 211.648 307.934 L 211.648 309.623 L 212.092 309.623 L 212.092 307.843 L 212.072 307.485 L 211.981 307.187 L 211.684 306.915 L 211.22 306.819 L 210.967 306.854 L 210.751 306.95 L 210.569 307.101 L 210.433 307.308 L 210.433 306.002 L 209.989 306.002 L 209.989 309.623 L 209.989 309.623 z M 214.634 309.27 L 214.634 309.285 L 214.659 309.457 L 214.735 309.578 L 215.052 309.673 L 215.3 309.633 L 215.3 309.29 L 215.194 309.305 L 215.052 309.24 L 215.027 309.038 L 215.027 307.636 L 214.967 307.278 L 214.79 307.026 L 214.483 306.874 L 214.049 306.819 L 213.625 306.879 L 213.313 307.051 L 213.116 307.318 L 213.05 307.671 L 213.05 307.702 L 213.449 307.702 L 213.484 307.49 L 213.595 307.338 L 213.777 307.248 L 214.034 307.212 L 214.281 307.238 L 214.457 307.313 L 214.563 307.444 L 214.599 307.626 L 214.578 307.838 L 214.498 307.944 L 214.296 307.994 L 213.918 308.034 L 213.484 308.125 L 213.176 308.287 L 212.995 308.539 L 212.939 308.912 L 212.99 309.245 L 213.146 309.492 L 213.398 309.648 L 213.746 309.704 L 214.215 309.598 L 214.634 309.27 L 214.634 309.27 z M 214.583 308.675 L 214.523 308.937 L 214.362 309.139 L 214.119 309.27 L 213.822 309.315 L 213.63 309.29 L 213.494 309.209 L 213.408 309.068 L 213.383 308.872 L 213.403 308.695 L 213.484 308.569 L 213.807 308.428 L 214.215 308.367 L 214.583 308.246 L 214.583 308.675 L 214.583 308.675 z M 218.149 306.915 L 217.705 306.915 L 217.705 308.478 L 217.655 308.841 L 217.509 309.104 L 217.282 309.265 L 216.984 309.315 L 216.747 309.275 L 216.596 309.154 L 216.51 308.947 L 216.49 308.655 L 216.49 306.915 L 216.046 306.915 L 216.046 308.695 L 216.061 309.053 L 216.157 309.351 L 216.449 309.623 L 216.918 309.719 L 217.171 309.684 L 217.387 309.593 L 217.574 309.436 L 217.725 309.209 L 217.725 309.623 L 218.149 309.623 L 218.149 306.915 L 218.149 306.915 z M 219.692 307.384 L 219.692 308.74 L 219.723 309.179 L 219.864 309.482 L 220.146 309.658 L 220.625 309.719 L 221.15 309.694 L 221.15 309.31 L 220.766 309.341 L 220.418 309.3 L 220.232 309.174 L 220.151 308.962 L 220.136 308.665 L 220.136 307.384 L 221.15 307.384 L 221.15 307.006 L 220.136 307.006 L 220.136 306.214 L 219.692 306.214 L 219.692 307.006 L 218.926 307.006 L 218.926 307.384 L 219.692 307.384 L 219.692 307.384 z" stroke="none" fill-rule="evenodd" fill="rgb(0, 0, 0)"/></g><g stroke="rgb(0, 0, 0)" stroke-width="0.13" stroke-linecap="butt" stroke-linejoin="miter" fill="none"><path d="M 513.583 317.421 L 515.832 317.421 L 515.832 316.997 L 514.047 316.997 L 514.047 313.921 L 513.583 313.921 L 513.583 317.421 L 513.583 317.421 z M 516.987 316.196 L 518.762 316.196 L 518.767 315.989 L 518.686 315.409 L 518.464 314.975 L 518.111 314.713 L 517.642 314.617 L 517.184 314.718 L 516.831 315 L 516.604 315.459 L 516.523 316.064 L 516.599 316.685 L 516.825 317.139 L 517.173 317.421 L 517.627 317.517 L 518.021 317.451 L 518.343 317.28 L 518.581 317.008 L 518.717 316.644 L 518.278 316.644 L 518.187 316.846 L 518.056 316.997 L 517.683 317.118 L 517.395 317.063 L 517.178 316.886 L 517.037 316.599 L 516.987 316.211 L 516.987 316.196 L 516.987 316.196 z M 516.987 315.822 L 517.042 315.474 L 517.178 315.217 L 517.385 315.061 L 517.658 315.005 L 517.925 315.061 L 518.132 315.217 L 518.258 315.474 L 518.303 315.822 L 516.987 315.822 L 516.987 315.822 z M 520.25 315.182 L 520.25 317.421 L 520.694 317.421 L 520.694 315.182 L 521.702 315.182 L 521.702 314.804 L 520.694 314.804 L 520.694 314.637 L 520.729 314.435 L 520.845 314.299 L 521.042 314.219 L 521.324 314.188 L 521.702 314.209 L 521.702 313.825 L 521.223 313.8 L 520.789 313.845 L 520.487 313.982 L 520.305 314.219 L 520.25 314.557 L 520.25 314.804 L 519.438 314.804 L 519.438 315.182 L 520.25 315.182 L 520.25 315.182 z M 523.266 315.182 L 523.266 316.539 L 523.296 316.977 L 523.437 317.28 L 523.72 317.456 L 524.199 317.517 L 524.723 317.492 L 524.723 317.108 L 524.34 317.139 L 523.992 317.098 L 523.805 316.972 L 523.725 316.76 L 523.709 316.463 L 523.709 315.182 L 524.723 315.182 L 524.723 314.804 L 523.709 314.804 L 523.709 314.012 L 523.266 314.012 L 523.266 314.804 L 522.499 314.804 L 522.499 315.182 L 523.266 315.182 L 523.266 315.182 z M 525.232 318.258 L 525.232 318.611 L 528.268 318.611 L 528.268 318.258 L 525.232 318.258 L 525.232 318.258 z M 528.662 317.421 L 529.131 317.421 L 529.131 315.943 L 529.61 315.943 L 529.963 315.959 L 530.185 316.029 L 530.306 316.196 L 530.356 316.493 L 530.382 316.947 L 530.412 317.245 L 530.472 317.421 L 531.002 317.421 L 531.002 317.325 L 530.886 317.184 L 530.846 316.922 L 530.81 316.357 L 530.725 315.938 L 530.609 315.807 L 530.427 315.711 L 530.629 315.585 L 530.77 315.409 L 530.861 315.187 L 530.891 314.92 L 530.82 314.496 L 530.619 314.178 L 530.286 313.987 L 529.832 313.921 L 528.662 313.921 L 528.662 317.421 L 528.662 317.421 z M 529.701 314.35 L 530.008 314.38 L 530.225 314.476 L 530.361 314.652 L 530.407 314.93 L 530.356 315.222 L 530.22 315.399 L 529.988 315.49 L 529.671 315.515 L 529.131 315.515 L 529.131 314.35 L 529.701 314.35 L 529.701 314.35 z M 532.167 316.196 L 533.942 316.196 L 533.947 315.989 L 533.866 315.409 L 533.645 314.975 L 533.292 314.713 L 532.823 314.617 L 532.364 314.718 L 532.011 315 L 531.784 315.459 L 531.703 316.064 L 531.779 316.685 L 532.005 317.139 L 532.354 317.421 L 532.807 317.517 L 533.201 317.451 L 533.523 317.28 L 533.761 317.008 L 533.897 316.644 L 533.458 316.644 L 533.367 316.846 L 533.236 316.997 L 532.863 317.118 L 532.575 317.063 L 532.359 316.886 L 532.217 316.599 L 532.167 316.211 L 532.167 316.196 L 532.167 316.196 z M 532.167 315.822 L 532.222 315.474 L 532.359 315.217 L 532.565 315.061 L 532.838 315.005 L 533.105 315.061 L 533.312 315.217 L 533.438 315.474 L 533.483 315.822 L 532.167 315.822 L 532.167 315.822 z M 536.423 317.068 L 536.423 317.083 L 536.449 317.255 L 536.524 317.376 L 536.842 317.471 L 537.089 317.431 L 537.089 317.088 L 536.983 317.103 L 536.842 317.038 L 536.817 316.836 L 536.817 315.434 L 536.756 315.076 L 536.58 314.824 L 536.272 314.673 L 535.838 314.617 L 535.415 314.678 L 535.102 314.849 L 534.905 315.116 L 534.84 315.469 L 534.84 315.5 L 535.238 315.5 L 535.273 315.288 L 535.384 315.137 L 535.566 315.046 L 535.823 315.01 L 536.07 315.036 L 536.247 315.111 L 536.353 315.242 L 536.388 315.424 L 536.368 315.636 L 536.287 315.742 L 536.085 315.792 L 535.707 315.832 L 535.273 315.923 L 534.966 316.085 L 534.784 316.337 L 534.729 316.71 L 534.779 317.043 L 534.936 317.29 L 535.188 317.446 L 535.536 317.502 L 536.005 317.396 L 536.423 317.068 L 536.423 317.068 z M 536.373 316.473 L 536.312 316.735 L 536.151 316.937 L 535.909 317.068 L 535.611 317.113 L 535.42 317.088 L 535.284 317.008 L 535.198 316.866 L 535.173 316.67 L 535.193 316.493 L 535.273 316.367 L 535.596 316.226 L 536.005 316.165 L 536.373 316.044 L 536.373 316.473 L 536.373 316.473 z M 538.017 317.421 L 538.461 317.421 L 538.461 315.873 L 538.506 315.5 L 538.642 315.232 L 538.864 315.071 L 539.162 315.015 L 539.384 315.051 L 539.55 315.152 L 539.651 315.323 L 539.686 315.555 L 540.135 315.555 L 540.075 315.147 L 539.908 314.854 L 539.631 314.678 L 539.253 314.617 L 538.995 314.657 L 538.773 314.758 L 538.577 314.93 L 538.42 315.162 L 538.42 314.713 L 538.017 314.713 L 538.017 317.421 L 538.017 317.421 z M 540.413 318.258 L 540.413 318.611 L 543.449 318.611 L 543.449 318.258 L 540.413 318.258 L 540.413 318.258 z M 543.943 317.421 L 546.192 317.421 L 546.192 316.997 L 544.407 316.997 L 544.407 313.921 L 543.943 313.921 L 543.943 317.421 L 543.943 317.421 z M 546.828 316.07 L 546.908 316.685 L 547.14 317.139 L 547.508 317.421 L 548.003 317.517 L 548.492 317.421 L 548.86 317.144 L 549.092 316.69 L 549.178 316.07 L 549.092 315.454 L 548.86 314.995 L 548.492 314.718 L 548.003 314.617 L 547.508 314.718 L 547.14 315 L 546.908 315.454 L 546.828 316.07 L 546.828 316.07 z M 547.281 316.064 L 547.327 315.611 L 547.468 315.283 L 547.695 315.081 L 548.003 315.01 L 548.305 315.081 L 548.532 315.278 L 548.673 315.611 L 548.724 316.064 L 548.673 316.523 L 548.532 316.856 L 548.305 317.058 L 548.003 317.124 L 547.695 317.058 L 547.468 316.856 L 547.327 316.523 L 547.281 316.064 L 547.281 316.064 z M 550.635 317.421 L 551.039 315.121 L 551.442 317.421 L 551.866 317.421 L 552.531 314.713 L 552.103 314.713 L 551.654 317.013 L 551.255 314.713 L 550.817 314.713 L 550.418 317.013 L 549.969 314.713 L 549.546 314.713 L 550.211 317.421 L 550.635 317.421 L 550.635 317.421 z M 553.419 316.196 L 555.194 316.196 L 555.199 315.989 L 555.119 315.409 L 554.897 314.975 L 554.544 314.713 L 554.075 314.617 L 553.616 314.718 L 553.263 315 L 553.036 315.459 L 552.955 316.064 L 553.031 316.685 L 553.258 317.139 L 553.606 317.421 L 554.059 317.517 L 554.453 317.451 L 554.776 317.28 L 555.013 317.008 L 555.149 316.644 L 554.71 316.644 L 554.619 316.846 L 554.488 316.997 L 554.115 317.118 L 553.827 317.063 L 553.611 316.886 L 553.469 316.599 L 553.419 316.211 L 553.419 316.196 L 553.419 316.196 z M 553.419 315.822 L 553.474 315.474 L 553.611 315.217 L 553.817 315.061 L 554.09 315.005 L 554.357 315.061 L 554.564 315.217 L 554.69 315.474 L 554.735 315.822 L 553.419 315.822 L 553.419 315.822 z M 556.233 317.421 L 556.677 317.421 L 556.677 315.873 L 556.722 315.5 L 556.858 315.232 L 557.08 315.071 L 557.378 315.015 L 557.6 315.051 L 557.766 315.152 L 557.867 315.323 L 557.902 315.555 L 558.351 315.555 L 558.291 315.147 L 558.124 314.854 L 557.847 314.678 L 557.469 314.617 L 557.211 314.657 L 556.99 314.758 L 556.793 314.93 L 556.637 315.162 L 556.637 314.713 L 556.233 314.713 L 556.233 317.421 L 556.233 317.421 z M 561.649 317.421 L 562.113 317.421 L 562.482 316.392 L 563.879 316.392 L 564.247 317.421 L 564.721 317.421 L 563.44 313.916 L 562.925 313.916 L 561.649 317.421 L 561.649 317.421 z M 562.643 315.964 L 563.183 314.42 L 563.722 315.964 L 562.643 315.964 L 562.643 315.964 z M 565.608 316.266 L 566.829 316.266 L 566.829 315.868 L 565.608 315.868 L 565.608 316.266 L 565.608 316.266 z M 567.721 317.421 L 568.185 317.421 L 568.554 316.392 L 569.951 316.392 L 570.319 317.421 L 570.793 317.421 L 569.512 313.916 L 568.997 313.916 L 567.721 317.421 L 567.721 317.421 z M 568.715 315.964 L 569.255 314.42 L 569.794 315.964 L 568.715 315.964 L 568.715 315.964 z M 571.413 317.421 L 571.857 317.421 L 571.857 315.873 L 571.902 315.5 L 572.039 315.232 L 572.26 315.071 L 572.558 315.015 L 572.78 315.051 L 572.946 315.152 L 573.047 315.323 L 573.082 315.555 L 573.531 315.555 L 573.471 315.147 L 573.304 314.854 L 573.027 314.678 L 572.649 314.617 L 572.392 314.657 L 572.17 314.758 L 571.973 314.93 L 571.817 315.162 L 571.817 314.713 L 571.413 314.713 L 571.413 317.421 L 571.413 317.421 z M 574.106 317.421 L 574.515 317.421 L 574.515 315.611 L 574.54 315.338 L 574.616 315.142 L 574.732 315.026 L 574.883 314.98 L 575.004 315.021 L 575.085 315.121 L 575.125 315.293 L 575.14 315.52 L 575.14 317.421 L 575.523 317.421 L 575.523 315.611 L 575.549 315.343 L 575.624 315.147 L 575.745 315.026 L 575.897 314.98 L 576.018 315.021 L 576.098 315.121 L 576.149 315.52 L 576.149 317.421 L 576.557 317.421 L 576.557 315.55 L 576.532 315.162 L 576.451 314.864 L 576.29 314.683 L 576.028 314.617 L 575.72 314.718 L 575.483 315.01 L 575.296 314.723 L 574.984 314.617 L 574.696 314.718 L 574.5 315 L 574.5 314.713 L 574.106 314.713 L 574.106 317.421 L 574.106 317.421 z M 580.788 316.266 L 582.009 316.266 L 582.009 315.868 L 580.788 315.868 L 580.788 316.266 L 580.788 316.266 z M 586.407 317.421 L 586.871 317.421 L 586.871 315.943 L 587.385 315.943 L 587.904 315.918 L 588.318 315.742 L 588.585 315.399 L 588.676 314.93 L 588.605 314.496 L 588.404 314.178 L 588.071 313.987 L 587.617 313.921 L 586.407 313.921 L 586.407 317.421 L 586.407 317.421 z M 587.491 314.35 L 587.793 314.38 L 588.015 314.476 L 588.146 314.652 L 588.192 314.93 L 588.141 315.222 L 588.005 315.399 L 587.773 315.49 L 587.456 315.515 L 586.871 315.515 L 586.871 314.35 L 587.491 314.35 L 587.491 314.35 z M 590.345 314.173 L 590.345 317.048 L 589.432 317.048 L 589.432 317.421 L 591.697 317.421 L 591.697 317.048 L 590.789 317.048 L 590.789 313.8 L 589.649 313.8 L 589.649 314.173 L 590.345 314.173 L 590.345 314.173 z M 594.108 317.068 L 594.108 317.083 L 594.133 317.255 L 594.208 317.376 L 594.526 317.471 L 594.773 317.431 L 594.773 317.088 L 594.667 317.103 L 594.526 317.038 L 594.501 316.836 L 594.501 315.434 L 594.44 315.076 L 594.264 314.824 L 593.956 314.673 L 593.523 314.617 L 593.099 314.678 L 592.786 314.849 L 592.59 315.116 L 592.524 315.469 L 592.524 315.5 L 592.922 315.5 L 592.958 315.288 L 593.069 315.137 L 593.25 315.046 L 593.507 315.01 L 593.755 315.036 L 593.931 315.111 L 594.037 315.242 L 594.072 315.424 L 594.052 315.636 L 593.971 315.742 L 593.77 315.792 L 593.391 315.832 L 592.958 315.923 L 592.65 316.085 L 592.469 316.337 L 592.413 316.71 L 592.464 317.043 L 592.62 317.29 L 592.872 317.446 L 593.22 317.502 L 593.689 317.396 L 594.108 317.068 L 594.108 317.068 z M 594.057 316.473 L 593.997 316.735 L 593.835 316.937 L 593.593 317.068 L 593.296 317.113 L 593.104 317.088 L 592.968 317.008 L 592.882 316.866 L 592.857 316.67 L 592.877 316.493 L 592.958 316.367 L 593.28 316.226 L 593.689 316.165 L 594.057 316.044 L 594.057 316.473 L 594.057 316.473 z M 597.199 315.131 L 597.043 314.905 L 596.866 314.743 L 596.659 314.652 L 596.422 314.617 L 595.994 314.718 L 595.661 315 L 595.444 315.454 L 595.368 316.064 L 595.444 316.68 L 595.661 317.134 L 595.994 317.421 L 596.422 317.517 L 596.659 317.487 L 596.861 317.401 L 597.038 317.245 L 597.199 317.008 L 597.199 318.47 L 597.643 318.47 L 597.643 314.713 L 597.199 314.713 L 597.199 315.131 L 597.199 315.131 z M 595.822 316.064 L 595.868 315.616 L 596.009 315.288 L 596.221 315.086 L 596.498 315.015 L 596.791 315.086 L 597.012 315.283 L 597.144 315.611 L 597.194 316.064 L 597.144 316.523 L 597.012 316.851 L 596.791 317.053 L 596.498 317.118 L 596.221 317.053 L 596.009 316.851 L 595.868 316.518 L 595.822 316.064 L 595.822 316.064 z M 600.659 314.713 L 600.215 314.713 L 600.215 316.276 L 600.164 316.639 L 600.018 316.902 L 599.791 317.063 L 599.494 317.113 L 599.257 317.073 L 599.105 316.952 L 599.02 316.745 L 598.999 316.453 L 598.999 314.713 L 598.556 314.713 L 598.556 316.493 L 598.571 316.851 L 598.667 317.149 L 598.959 317.421 L 599.428 317.517 L 599.68 317.482 L 599.897 317.391 L 600.084 317.234 L 600.235 317.008 L 600.235 317.421 L 600.659 317.421 L 600.659 314.713 L 600.659 314.713 z M 601.995 316.196 L 603.77 316.196 L 603.775 315.989 L 603.695 315.409 L 603.473 314.975 L 603.12 314.713 L 602.651 314.617 L 602.192 314.718 L 601.839 315 L 601.612 315.459 L 601.531 316.064 L 601.607 316.685 L 601.834 317.139 L 602.182 317.421 L 602.636 317.517 L 603.029 317.451 L 603.352 317.28 L 603.589 317.008 L 603.725 316.644 L 603.286 316.644 L 603.195 316.846 L 603.064 316.997 L 602.691 317.118 L 602.404 317.063 L 602.187 316.886 L 602.046 316.599 L 601.995 316.211 L 601.995 316.196 L 601.995 316.196 z M 601.995 315.822 L 602.051 315.474 L 602.187 315.217 L 602.394 315.061 L 602.666 315.005 L 602.933 315.061 L 603.14 315.217 L 603.266 315.474 L 603.311 315.822 L 601.995 315.822 L 601.995 315.822 z M 609.343 317.003 L 609.343 317.421 L 609.787 317.421 L 609.787 313.8 L 609.348 313.8 L 609.348 315.126 L 609.01 314.743 L 608.803 314.652 L 608.566 314.617 L 608.138 314.718 L 607.805 315 L 607.588 315.454 L 607.512 316.064 L 607.588 316.675 L 607.805 317.134 L 608.138 317.421 L 608.566 317.517 L 608.803 317.482 L 609.015 317.391 L 609.343 317.003 L 609.343 317.003 z M 608.642 315.015 L 608.935 315.086 L 609.156 315.283 L 609.288 315.611 L 609.338 316.064 L 609.288 316.523 L 609.156 316.851 L 608.935 317.053 L 608.642 317.118 L 608.365 317.053 L 608.153 316.851 L 608.012 316.518 L 607.966 316.064 L 608.012 315.616 L 608.153 315.288 L 608.365 315.086 L 608.642 315.015 L 608.642 315.015 z M 612.803 314.713 L 612.359 314.713 L 612.359 316.276 L 612.308 316.639 L 612.162 316.902 L 611.935 317.063 L 611.638 317.113 L 611.401 317.073 L 611.249 316.952 L 611.164 316.745 L 611.143 316.453 L 611.143 314.713 L 610.7 314.713 L 610.7 316.493 L 610.715 316.851 L 610.811 317.149 L 611.103 317.421 L 611.572 317.517 L 611.824 317.482 L 612.041 317.391 L 612.228 317.234 L 612.379 317.008 L 612.379 317.421 L 612.803 317.421 L 612.803 314.713 L 612.803 314.713 z M 617.205 317.003 L 617.533 317.391 L 617.982 317.517 L 618.406 317.421 L 618.744 317.134 L 618.955 316.675 L 619.036 316.064 L 618.955 315.454 L 618.739 315 L 618.406 314.718 L 617.982 314.617 L 617.538 314.748 L 617.357 314.91 L 617.205 315.126 L 617.205 313.8 L 616.762 313.8 L 616.762 317.421 L 617.205 317.421 L 617.205 317.003 L 617.205 317.003 z M 618.582 316.064 L 618.532 316.518 L 618.396 316.851 L 618.179 317.053 L 617.906 317.118 L 617.609 317.053 L 617.392 316.851 L 617.256 316.523 L 617.211 316.064 L 617.256 315.611 L 617.392 315.283 L 617.609 315.086 L 617.906 315.015 L 618.179 315.086 L 618.396 315.288 L 618.532 315.616 L 618.582 316.064 L 618.582 316.064 z M 621.432 317.068 L 621.432 317.083 L 621.457 317.255 L 621.533 317.376 L 621.85 317.471 L 622.097 317.431 L 622.097 317.088 L 621.991 317.103 L 621.85 317.038 L 621.825 316.836 L 621.825 315.434 L 621.765 315.076 L 621.588 314.824 L 621.28 314.673 L 620.847 314.617 L 620.423 314.678 L 620.11 314.849 L 619.914 315.116 L 619.848 315.469 L 619.848 315.5 L 620.247 315.5 L 620.282 315.288 L 620.393 315.137 L 620.574 315.046 L 620.832 315.01 L 621.079 315.036 L 621.255 315.111 L 621.361 315.242 L 621.396 315.424 L 621.376 315.636 L 621.295 315.742 L 621.094 315.792 L 620.716 315.832 L 620.282 315.923 L 619.974 316.085 L 619.793 316.337 L 619.737 316.71 L 619.788 317.043 L 619.944 317.29 L 620.196 317.446 L 620.544 317.502 L 621.013 317.396 L 621.432 317.068 L 621.432 317.068 z M 621.381 316.473 L 621.321 316.735 L 621.159 316.937 L 620.917 317.068 L 620.62 317.113 L 620.428 317.088 L 620.292 317.008 L 620.206 316.866 L 620.181 316.67 L 620.201 316.493 L 620.282 316.367 L 620.605 316.226 L 621.013 316.165 L 621.381 316.044 L 621.381 316.473 L 621.381 316.473 z M 624.185 315.843 L 623.757 315.742 L 623.439 315.626 L 623.333 315.389 L 623.363 315.222 L 623.469 315.101 L 623.641 315.026 L 623.888 314.995 L 624.125 315.026 L 624.311 315.116 L 624.432 315.253 L 624.483 315.434 L 624.917 315.434 L 624.917 315.424 L 624.841 315.096 L 624.634 314.839 L 624.311 314.678 L 623.888 314.617 L 623.459 314.678 L 623.146 314.844 L 622.95 315.091 L 622.889 315.404 L 622.935 315.706 L 623.076 315.918 L 623.308 316.07 L 623.646 316.175 L 624.14 316.296 L 624.442 316.423 L 624.523 316.523 L 624.553 316.675 L 624.508 316.861 L 624.387 317.003 L 624.19 317.093 L 623.928 317.124 L 623.651 317.093 L 623.449 316.987 L 623.313 316.816 L 623.257 316.579 L 622.829 316.579 L 622.899 316.982 L 623.106 317.275 L 623.434 317.451 L 623.888 317.517 L 624.362 317.451 L 624.71 317.275 L 624.922 316.992 L 624.997 316.624 L 624.942 316.307 L 624.785 316.09 L 624.528 315.948 L 624.185 315.843 L 624.185 315.843 z" stroke="none" fill-rule="evenodd" fill="rgb(0, 0, 0)"/></g><g stroke="rgb(0, 0, 0)" stroke-width="0.13" stroke-linecap="butt" stroke-linejoin="miter" fill="none"><path d="M 849.994 78.1138 L 850.235 78.1138 L 850.235 77.3538 L 850.481 77.3538 L 850.663 77.3616 L 850.777 77.3979 L 850.839 77.4835 L 850.865 77.6365 L 850.878 77.87 L 850.893 78.023 L 850.925 78.1138 L 851.197 78.1138 L 851.197 78.0645 L 851.137 77.9919 L 851.117 77.857 L 851.098 77.5665 L 851.054 77.3513 L 850.995 77.2838 L 850.901 77.2345 L 851.005 77.1697 L 851.078 77.0789 L 851.124 76.9648 L 851.14 76.8273 L 851.104 76.6094 L 851 76.446 L 850.829 76.3475 L 850.595 76.3138 L 849.994 76.3138 L 849.994 78.1138 L 849.994 78.1138 z M 850.528 76.5342 L 850.686 76.5498 L 850.798 76.5991 L 850.868 76.6898 L 850.891 76.8325 L 850.865 76.9829 L 850.795 77.0737 L 850.676 77.1204 L 850.512 77.1334 L 850.235 77.1334 L 850.235 76.5342 L 850.528 76.5342 L 850.528 76.5342 z M 851.796 77.4835 L 852.709 77.4835 L 852.712 77.3772 L 852.67 77.0789 L 852.556 76.8558 L 852.375 76.7209 L 852.133 76.6717 L 851.897 76.7236 L 851.716 76.8688 L 851.599 77.1049 L 851.557 77.4161 L 851.596 77.7351 L 851.713 77.9685 L 851.892 78.1138 L 852.125 78.163 L 852.328 78.1293 L 852.494 78.0411 L 852.616 77.9011 L 852.686 77.7144 L 852.46 77.7144 L 852.413 77.8181 L 852.346 77.8959 L 852.154 77.9581 L 852.006 77.9296 L 851.895 77.8389 L 851.822 77.691 L 851.796 77.4913 L 851.796 77.4835 L 851.796 77.4835 z M 851.796 77.2916 L 851.825 77.1126 L 851.895 76.9803 L 852.001 76.9 L 852.141 76.8714 L 852.279 76.9 L 852.385 76.9803 L 852.45 77.1126 L 852.473 77.2916 L 851.796 77.2916 L 851.796 77.2916 z M 853.985 77.9322 L 853.985 77.94 L 853.998 78.0282 L 854.037 78.0905 L 854.2 78.1397 L 854.328 78.119 L 854.328 77.9426 L 854.273 77.9504 L 854.2 77.9166 L 854.188 77.8129 L 854.188 77.0919 L 854.156 76.9077 L 854.066 76.778 L 853.907 76.7002 L 853.684 76.6717 L 853.466 76.7028 L 853.306 76.791 L 853.204 76.9285 L 853.171 77.11 L 853.171 77.1256 L 853.376 77.1256 L 853.394 77.0167 L 853.451 76.9388 L 853.544 76.8922 L 853.677 76.874 L 853.804 76.887 L 853.894 76.9258 L 853.949 76.9933 L 853.967 77.0867 L 853.957 77.1956 L 853.915 77.2501 L 853.811 77.276 L 853.617 77.2968 L 853.394 77.3434 L 853.236 77.4265 L 853.142 77.5562 L 853.114 77.748 L 853.14 77.9193 L 853.22 78.0463 L 853.35 78.1267 L 853.529 78.1553 L 853.77 78.1008 L 853.985 77.9322 L 853.985 77.9322 z M 853.959 77.6262 L 853.928 77.761 L 853.845 77.8648 L 853.721 77.9322 L 853.568 77.9556 L 853.469 77.9426 L 853.399 77.9011 L 853.355 77.8285 L 853.342 77.7273 L 853.352 77.6365 L 853.394 77.5717 L 853.56 77.4991 L 853.77 77.468 L 853.959 77.4057 L 853.959 77.6262 L 853.959 77.6262 z M 854.805 78.1138 L 855.033 78.1138 L 855.033 77.3175 L 855.056 77.1256 L 855.126 76.9881 L 855.241 76.9052 L 855.394 76.8766 L 855.508 76.8948 L 855.593 76.9466 L 855.645 77.0348 L 855.663 77.1541 L 855.894 77.1541 L 855.863 76.944 L 855.777 76.7936 L 855.635 76.7028 L 855.44 76.6717 L 855.308 76.6924 L 855.194 76.7443 L 855.093 76.8325 L 855.012 76.9518 L 855.012 76.7209 L 854.805 76.7209 L 854.805 78.1138 L 854.805 78.1138 z M 856.037 78.5443 L 856.037 78.7259 L 857.598 78.7259 L 857.598 78.5443 L 856.037 78.5443 L 856.037 78.5443 z M 857.852 78.1138 L 859.009 78.1138 L 859.009 77.8959 L 858.091 77.8959 L 858.091 76.3138 L 857.852 76.3138 L 857.852 78.1138 L 857.852 78.1138 z M 859.603 77.4835 L 860.516 77.4835 L 860.519 77.3772 L 860.477 77.0789 L 860.363 76.8558 L 860.182 76.7209 L 859.94 76.6717 L 859.704 76.7236 L 859.523 76.8688 L 859.406 77.1049 L 859.365 77.4161 L 859.403 77.7351 L 859.52 77.9685 L 859.699 78.1138 L 859.932 78.163 L 860.135 78.1293 L 860.301 78.0411 L 860.423 77.9011 L 860.493 77.7144 L 860.267 77.7144 L 860.22 77.8181 L 860.153 77.8959 L 859.961 77.9581 L 859.813 77.9296 L 859.702 77.8389 L 859.629 77.691 L 859.603 77.4913 L 859.603 77.4835 L 859.603 77.4835 z M 859.603 77.2916 L 859.632 77.1126 L 859.702 76.9803 L 859.808 76.9 L 859.948 76.8714 L 860.086 76.9 L 860.192 76.9803 L 860.257 77.1126 L 860.28 77.2916 L 859.603 77.2916 L 859.603 77.2916 z M 861.281 76.9622 L 861.281 78.1138 L 861.509 78.1138 L 861.509 76.9622 L 862.028 76.9622 L 862.028 76.7676 L 861.509 76.7676 L 861.509 76.6821 L 861.528 76.5783 L 861.587 76.5083 L 861.688 76.4668 L 861.834 76.4512 L 862.028 76.4616 L 862.028 76.2645 L 861.782 76.2515 L 861.559 76.2748 L 861.403 76.3449 L 861.31 76.4668 L 861.281 76.6406 L 861.281 76.7676 L 860.864 76.7676 L 860.864 76.9622 L 861.281 76.9622 L 861.281 76.9622 z M 862.832 76.9622 L 862.832 77.6599 L 862.848 77.8855 L 862.92 78.0411 L 863.066 78.1319 L 863.312 78.163 L 863.582 78.1501 L 863.582 77.9529 L 863.385 77.9685 L 863.206 77.9478 L 863.11 77.8829 L 863.068 77.774 L 863.06 77.621 L 863.06 76.9622 L 863.582 76.9622 L 863.582 76.7676 L 863.06 76.7676 L 863.06 76.3605 L 862.832 76.3605 L 862.832 76.7676 L 862.438 76.7676 L 862.438 76.9622 L 862.832 76.9622 L 862.832 76.9622 z M 863.844 78.5443 L 863.844 78.7259 L 865.405 78.7259 L 865.405 78.5443 L 863.844 78.5443 L 863.844 78.5443 z M 865.659 78.1138 L 866.816 78.1138 L 866.816 77.8959 L 865.898 77.8959 L 865.898 76.3138 L 865.659 76.3138 L 865.659 78.1138 L 865.659 78.1138 z M 867.143 77.4186 L 867.185 77.7351 L 867.304 77.9685 L 867.493 78.1138 L 867.747 78.163 L 867.999 78.1138 L 868.188 77.9711 L 868.308 77.7377 L 868.352 77.4186 L 868.308 77.1022 L 868.188 76.8662 L 867.999 76.7236 L 867.747 76.6717 L 867.493 76.7236 L 867.304 76.8688 L 867.185 77.1022 L 867.143 77.4186 L 867.143 77.4186 z M 867.376 77.4161 L 867.4 77.1826 L 867.472 77.014 L 867.589 76.9103 L 867.747 76.874 L 867.903 76.9103 L 868.02 77.0115 L 868.092 77.1826 L 868.118 77.4161 L 868.092 77.6521 L 868.02 77.8233 L 867.903 77.927 L 867.747 77.9608 L 867.589 77.927 L 867.472 77.8233 L 867.4 77.6521 L 867.376 77.4161 L 867.376 77.4161 z M 869.101 78.1138 L 869.309 76.931 L 869.516 78.1138 L 869.734 78.1138 L 870.076 76.7209 L 869.856 76.7209 L 869.625 77.9037 L 869.42 76.7209 L 869.195 76.7209 L 868.99 77.9037 L 868.759 76.7209 L 868.541 76.7209 L 868.883 78.1138 L 869.101 78.1138 L 869.101 78.1138 z M 870.533 77.4835 L 871.446 77.4835 L 871.448 77.3772 L 871.407 77.0789 L 871.293 76.8558 L 871.111 76.7209 L 870.87 76.6717 L 870.634 76.7236 L 870.453 76.8688 L 870.336 77.1049 L 870.294 77.4161 L 870.333 77.7351 L 870.45 77.9685 L 870.629 78.1138 L 870.862 78.163 L 871.065 78.1293 L 871.231 78.0411 L 871.353 77.9011 L 871.423 77.7144 L 871.197 77.7144 L 871.15 77.8181 L 871.083 77.8959 L 870.891 77.9581 L 870.743 77.9296 L 870.631 77.8389 L 870.559 77.691 L 870.533 77.4913 L 870.533 77.4835 L 870.533 77.4835 z M 870.533 77.2916 L 870.561 77.1126 L 870.631 76.9803 L 870.738 76.9 L 870.878 76.8714 L 871.015 76.9 L 871.122 76.9803 L 871.187 77.1126 L 871.21 77.2916 L 870.533 77.2916 L 870.533 77.2916 z M 871.98 78.1138 L 872.208 78.1138 L 872.208 77.3175 L 872.232 77.1256 L 872.302 76.9881 L 872.416 76.9052 L 872.569 76.8766 L 872.683 76.8948 L 872.769 76.9466 L 872.821 77.0348 L 872.839 77.1541 L 873.07 77.1541 L 873.038 76.944 L 872.953 76.7936 L 872.81 76.7028 L 872.616 76.6717 L 872.483 76.6924 L 872.369 76.7443 L 872.268 76.8325 L 872.188 76.9518 L 872.188 76.7209 L 871.98 76.7209 L 871.98 78.1138 L 871.98 78.1138 z M 874.766 78.1138 L 875.004 78.1138 L 875.194 77.5847 L 875.912 77.5847 L 876.102 78.1138 L 876.345 78.1138 L 875.687 76.3112 L 875.422 76.3112 L 874.766 78.1138 L 874.766 78.1138 z M 875.277 77.3642 L 875.554 76.5706 L 875.832 77.3642 L 875.277 77.3642 L 875.277 77.3642 z M 876.802 77.5198 L 877.43 77.5198 L 877.43 77.3149 L 876.802 77.3149 L 876.802 77.5198 L 876.802 77.5198 z M 877.889 78.1138 L 878.127 78.1138 L 878.317 77.5847 L 879.035 77.5847 L 879.224 78.1138 L 879.468 78.1138 L 878.809 76.3112 L 878.545 76.3112 L 877.889 78.1138 L 877.889 78.1138 z M 878.4 77.3642 L 878.677 76.5706 L 878.955 77.3642 L 878.4 77.3642 L 878.4 77.3642 z M 879.787 78.1138 L 880.015 78.1138 L 880.015 77.3175 L 880.039 77.1256 L 880.109 76.9881 L 880.223 76.9052 L 880.376 76.8766 L 880.49 76.8948 L 880.576 76.9466 L 880.628 77.0348 L 880.646 77.1541 L 880.877 77.1541 L 880.845 76.944 L 880.76 76.7936 L 880.617 76.7028 L 880.423 76.6717 L 880.29 76.6924 L 880.176 76.7443 L 880.075 76.8325 L 879.995 76.9518 L 879.995 76.7209 L 879.787 76.7209 L 879.787 78.1138 L 879.787 78.1138 z M 881.172 78.1138 L 881.382 78.1138 L 881.382 77.1826 L 881.395 77.0426 L 881.434 76.9414 L 881.494 76.8818 L 881.572 76.8585 L 881.634 76.8792 L 881.675 76.931 L 881.696 77.0192 L 881.704 77.136 L 881.704 78.1138 L 881.901 78.1138 L 881.901 77.1826 L 881.914 77.0452 L 881.953 76.944 L 882.015 76.8818 L 882.093 76.8585 L 882.155 76.8792 L 882.197 76.931 L 882.223 77.136 L 882.223 78.1138 L 882.433 78.1138 L 882.433 77.1516 L 882.42 76.9518 L 882.378 76.7988 L 882.295 76.7054 L 882.16 76.6717 L 882.002 76.7236 L 881.88 76.874 L 881.784 76.7261 L 881.624 76.6717 L 881.476 76.7236 L 881.375 76.8688 L 881.375 76.7209 L 881.172 76.7209 L 881.172 78.1138 L 881.172 78.1138 z" stroke="none" fill-rule="evenodd" fill="rgb(0, 0, 0)"/></g><g stroke="rgb(0, 0, 0)" stroke-width="0.13" stroke-linecap="butt" stroke-linejoin="miter" fill="none"><path d="M 859.396 81.2236 L 860.537 81.2236 L 860.537 81.0057 L 859.634 81.0057 L 859.634 80.3962 L 860.438 80.3962 L 860.438 80.181 L 859.634 80.181 L 859.634 79.6415 L 860.516 79.6415 L 860.516 79.4236 L 859.396 79.4236 L 859.396 81.2236 L 859.396 81.2236 z M 860.721 81.6541 L 860.721 81.8357 L 862.282 81.8357 L 862.282 81.6541 L 860.721 81.6541 L 860.721 81.6541 z M 862.274 81.2236 L 862.513 81.2236 L 862.702 80.6945 L 863.421 80.6945 L 863.61 81.2236 L 863.854 81.2236 L 863.195 79.421 L 862.931 79.421 L 862.274 81.2236 L 862.274 81.2236 z M 862.785 80.474 L 863.063 79.6804 L 863.34 80.474 L 862.785 80.474 L 862.785 80.474 z M 864.173 81.2236 L 864.401 81.2236 L 864.401 80.4273 L 864.424 80.2354 L 864.495 80.098 L 864.609 80.015 L 864.762 79.9864 L 864.876 80.0046 L 864.961 80.0565 L 865.013 80.1447 L 865.031 80.2639 L 865.262 80.2639 L 865.231 80.0538 L 865.146 79.9034 L 865.003 79.8126 L 864.808 79.7815 L 864.676 79.8022 L 864.562 79.8541 L 864.461 79.9423 L 864.38 80.0616 L 864.38 79.8308 L 864.173 79.8308 L 864.173 81.2236 L 864.173 81.2236 z M 865.734 81.2236 L 865.962 81.2236 L 865.962 80.4273 L 865.986 80.2354 L 866.056 80.098 L 866.17 80.015 L 866.323 79.9864 L 866.437 80.0046 L 866.523 80.0565 L 866.575 80.1447 L 866.593 80.2639 L 866.824 80.2639 L 866.792 80.0538 L 866.707 79.9034 L 866.564 79.8126 L 866.37 79.7815 L 866.237 79.8022 L 866.123 79.8541 L 866.022 79.9423 L 865.942 80.0616 L 865.942 79.8308 L 865.734 79.8308 L 865.734 81.2236 L 865.734 81.2236 z M 867.908 81.0316 L 867.908 79.8775 L 867.322 79.8775 L 867.322 80.072 L 867.679 80.072 L 867.679 81.0316 L 867.213 81.0316 L 867.213 81.2236 L 868.38 81.2236 L 868.38 81.0316 L 867.908 81.0316 L 867.908 81.0316 z M 867.915 79.3613 L 867.674 79.3613 L 867.674 79.6207 L 867.915 79.6207 L 867.915 79.3613 L 867.915 79.3613 z M 869.492 79.6415 L 869.233 79.2006 L 868.979 79.2006 L 869.339 79.6415 L 869.492 79.6415 L 869.492 79.6415 z M 868.971 80.5933 L 869.884 80.5933 L 869.887 80.487 L 869.845 80.1887 L 869.731 79.9657 L 869.549 79.8308 L 869.308 79.7815 L 869.072 79.8334 L 868.891 79.9786 L 868.774 80.2147 L 868.732 80.5259 L 868.771 80.8449 L 868.888 81.0783 L 869.067 81.2236 L 869.3 81.2728 L 869.503 81.2391 L 869.669 81.1509 L 869.791 81.0109 L 869.861 80.8242 L 869.635 80.8242 L 869.588 80.9279 L 869.521 81.0057 L 869.329 81.0679 L 869.181 81.0394 L 869.07 80.9487 L 868.997 80.8008 L 868.971 80.6011 L 868.971 80.5933 L 868.971 80.5933 z M 868.971 80.4014 L 869 80.2224 L 869.07 80.0901 L 869.176 80.0098 L 869.316 79.9812 L 869.453 80.0098 L 869.56 80.0901 L 869.625 80.2224 L 869.648 80.4014 L 868.971 80.4014 L 868.971 80.4014 z M 870.418 81.2236 L 870.646 81.2236 L 870.646 80.4273 L 870.67 80.2354 L 870.74 80.098 L 870.854 80.015 L 871.007 79.9864 L 871.121 80.0046 L 871.207 80.0565 L 871.259 80.1447 L 871.277 80.2639 L 871.508 80.2639 L 871.476 80.0538 L 871.391 79.9034 L 871.248 79.8126 L 871.054 79.7815 L 870.921 79.8022 L 870.807 79.8541 L 870.706 79.9423 L 870.626 80.0616 L 870.626 79.8308 L 870.418 79.8308 L 870.418 81.2236 L 870.418 81.2236 z M 872.094 80.5933 L 873.007 80.5933 L 873.009 80.487 L 872.968 80.1887 L 872.854 79.9657 L 872.672 79.8308 L 872.431 79.7815 L 872.195 79.8334 L 872.013 79.9786 L 871.897 80.2147 L 871.855 80.5259 L 871.894 80.8449 L 872.011 81.0783 L 872.19 81.2236 L 872.423 81.2728 L 872.625 81.2391 L 872.791 81.1509 L 872.913 81.0109 L 872.983 80.8242 L 872.758 80.8242 L 872.711 80.9279 L 872.644 81.0057 L 872.452 81.0679 L 872.304 81.0394 L 872.192 80.9487 L 872.12 80.8008 L 872.094 80.6011 L 872.094 80.5933 L 872.094 80.5933 z M 872.094 80.4014 L 872.122 80.2224 L 872.192 80.0901 L 872.299 80.0098 L 872.439 79.9812 L 872.576 80.0098 L 872.682 80.0901 L 872.747 80.2224 L 872.771 80.4014 L 872.094 80.4014 L 872.094 80.4014 z" stroke="none" fill-rule="evenodd" fill="rgb(0, 0, 0)"/></g><g stroke="rgb(0, 0, 0)" stroke-width="0.13" stroke-linecap="butt" stroke-linejoin="miter" fill="none"><path d="M 861.498 194.85 L 861.739 194.85 L 861.739 194.09 L 861.985 194.09 L 862.167 194.098 L 862.281 194.134 L 862.343 194.22 L 862.369 194.373 L 862.382 194.606 L 862.398 194.759 L 862.429 194.85 L 862.701 194.85 L 862.701 194.801 L 862.641 194.728 L 862.621 194.593 L 862.603 194.303 L 862.558 194.087 L 862.499 194.02 L 862.405 193.971 L 862.509 193.906 L 862.582 193.815 L 862.629 193.701 L 862.644 193.563 L 862.608 193.346 L 862.504 193.182 L 862.333 193.084 L 862.099 193.05 L 861.498 193.05 L 861.498 194.85 L 861.498 194.85 z M 862.032 193.27 L 862.19 193.286 L 862.302 193.335 L 862.372 193.426 L 862.395 193.569 L 862.369 193.719 L 862.299 193.81 L 862.18 193.856 L 862.016 193.869 L 861.739 193.869 L 861.739 193.27 L 862.032 193.27 L 862.032 193.27 z M 863.3 194.22 L 864.213 194.22 L 864.216 194.113 L 864.174 193.815 L 864.06 193.592 L 863.879 193.457 L 863.637 193.408 L 863.401 193.46 L 863.22 193.605 L 863.103 193.841 L 863.062 194.152 L 863.101 194.471 L 863.217 194.705 L 863.396 194.85 L 863.63 194.899 L 863.832 194.865 L 863.998 194.777 L 864.12 194.637 L 864.19 194.45 L 863.964 194.45 L 863.918 194.554 L 863.85 194.632 L 863.658 194.694 L 863.51 194.666 L 863.399 194.575 L 863.326 194.427 L 863.3 194.227 L 863.3 194.22 L 863.3 194.22 z M 863.3 194.028 L 863.329 193.849 L 863.399 193.716 L 863.505 193.636 L 863.645 193.607 L 863.783 193.636 L 863.889 193.716 L 863.954 193.849 L 863.977 194.028 L 863.3 194.028 L 863.3 194.028 z M 865.489 194.668 L 865.489 194.676 L 865.502 194.764 L 865.541 194.826 L 865.705 194.876 L 865.832 194.855 L 865.832 194.679 L 865.777 194.686 L 865.705 194.653 L 865.692 194.549 L 865.692 193.828 L 865.66 193.644 L 865.57 193.514 L 865.411 193.436 L 865.188 193.408 L 864.971 193.439 L 864.81 193.527 L 864.709 193.664 L 864.675 193.846 L 864.675 193.862 L 864.88 193.862 L 864.898 193.753 L 864.955 193.675 L 865.048 193.628 L 865.181 193.61 L 865.308 193.623 L 865.398 193.662 L 865.453 193.729 L 865.471 193.823 L 865.461 193.932 L 865.419 193.986 L 865.315 194.012 L 865.121 194.033 L 864.898 194.079 L 864.74 194.162 L 864.646 194.292 L 864.618 194.484 L 864.644 194.655 L 864.724 194.782 L 864.854 194.863 L 865.033 194.891 L 865.274 194.837 L 865.489 194.668 L 865.489 194.668 z M 865.463 194.362 L 865.432 194.497 L 865.349 194.601 L 865.225 194.668 L 865.072 194.692 L 864.973 194.679 L 864.903 194.637 L 864.859 194.565 L 864.846 194.463 L 864.856 194.373 L 864.898 194.308 L 865.064 194.235 L 865.274 194.204 L 865.463 194.142 L 865.463 194.362 L 865.463 194.362 z M 866.309 194.85 L 866.537 194.85 L 866.537 194.054 L 866.56 193.862 L 866.63 193.724 L 866.745 193.641 L 866.898 193.613 L 867.012 193.631 L 867.097 193.683 L 867.149 193.771 L 867.167 193.89 L 867.398 193.89 L 867.367 193.68 L 867.281 193.53 L 867.139 193.439 L 866.944 193.408 L 866.812 193.428 L 866.698 193.48 L 866.597 193.569 L 866.516 193.688 L 866.516 193.457 L 866.309 193.457 L 866.309 194.85 L 866.309 194.85 z M 867.541 195.28 L 867.541 195.462 L 869.102 195.462 L 869.102 195.28 L 867.541 195.28 L 867.541 195.28 z M 869.356 194.85 L 870.513 194.85 L 870.513 194.632 L 869.595 194.632 L 869.595 193.05 L 869.356 193.05 L 869.356 194.85 L 869.356 194.85 z M 871.107 194.22 L 872.02 194.22 L 872.023 194.113 L 871.981 193.815 L 871.867 193.592 L 871.685 193.457 L 871.444 193.408 L 871.208 193.46 L 871.027 193.605 L 870.91 193.841 L 870.868 194.152 L 870.907 194.471 L 871.024 194.705 L 871.203 194.85 L 871.436 194.899 L 871.639 194.865 L 871.805 194.777 L 871.927 194.637 L 871.997 194.45 L 871.771 194.45 L 871.724 194.554 L 871.657 194.632 L 871.465 194.694 L 871.317 194.666 L 871.206 194.575 L 871.133 194.427 L 871.107 194.227 L 871.107 194.22 L 871.107 194.22 z M 871.107 194.028 L 871.135 193.849 L 871.206 193.716 L 871.312 193.636 L 871.452 193.607 L 871.589 193.636 L 871.696 193.716 L 871.761 193.849 L 871.784 194.028 L 871.107 194.028 L 871.107 194.028 z M 872.785 193.698 L 872.785 194.85 L 873.013 194.85 L 873.013 193.698 L 873.532 193.698 L 873.532 193.504 L 873.013 193.504 L 873.013 193.418 L 873.031 193.314 L 873.091 193.244 L 873.192 193.203 L 873.337 193.187 L 873.532 193.198 L 873.532 193.001 L 873.286 192.988 L 873.063 193.011 L 872.907 193.081 L 872.814 193.203 L 872.785 193.377 L 872.785 193.504 L 872.367 193.504 L 872.367 193.698 L 872.785 193.698 L 872.785 193.698 z M 874.336 193.698 L 874.336 194.396 L 874.352 194.622 L 874.424 194.777 L 874.569 194.868 L 874.816 194.899 L 875.086 194.886 L 875.086 194.689 L 874.888 194.705 L 874.709 194.684 L 874.614 194.619 L 874.572 194.51 L 874.564 194.357 L 874.564 193.698 L 875.086 193.698 L 875.086 193.504 L 874.564 193.504 L 874.564 193.096 L 874.336 193.096 L 874.336 193.504 L 873.942 193.504 L 873.942 193.698 L 874.336 193.698 L 874.336 193.698 z M 875.347 195.28 L 875.347 195.462 L 876.909 195.462 L 876.909 195.28 L 875.347 195.28 L 875.347 195.28 z M 877.163 194.85 L 878.32 194.85 L 878.32 194.632 L 877.402 194.632 L 877.402 193.05 L 877.163 193.05 L 877.163 194.85 L 877.163 194.85 z M 878.647 194.155 L 878.688 194.471 L 878.807 194.705 L 878.997 194.85 L 879.251 194.899 L 879.502 194.85 L 879.692 194.707 L 879.811 194.474 L 879.855 194.155 L 879.811 193.838 L 879.692 193.602 L 879.502 193.46 L 879.251 193.408 L 878.997 193.46 L 878.807 193.605 L 878.688 193.838 L 878.647 194.155 L 878.647 194.155 z M 878.88 194.152 L 878.903 193.919 L 878.976 193.75 L 879.093 193.646 L 879.251 193.61 L 879.406 193.646 L 879.523 193.747 L 879.596 193.919 L 879.622 194.152 L 879.596 194.388 L 879.523 194.559 L 879.406 194.663 L 879.251 194.697 L 879.093 194.663 L 878.976 194.559 L 878.903 194.388 L 878.88 194.152 L 878.88 194.152 z M 880.605 194.85 L 880.812 193.667 L 881.02 194.85 L 881.238 194.85 L 881.58 193.457 L 881.359 193.457 L 881.129 194.64 L 880.924 193.457 L 880.698 193.457 L 880.493 194.64 L 880.262 193.457 L 880.044 193.457 L 880.387 194.85 L 880.605 194.85 L 880.605 194.85 z M 882.036 194.22 L 882.949 194.22 L 882.952 194.113 L 882.91 193.815 L 882.796 193.592 L 882.615 193.457 L 882.374 193.408 L 882.138 193.46 L 881.956 193.605 L 881.839 193.841 L 881.798 194.152 L 881.837 194.471 L 881.953 194.705 L 882.132 194.85 L 882.366 194.899 L 882.568 194.865 L 882.734 194.777 L 882.856 194.637 L 882.926 194.45 L 882.7 194.45 L 882.654 194.554 L 882.586 194.632 L 882.394 194.694 L 882.246 194.666 L 882.135 194.575 L 882.062 194.427 L 882.036 194.227 L 882.036 194.22 L 882.036 194.22 z M 882.036 194.028 L 882.065 193.849 L 882.135 193.716 L 882.241 193.636 L 882.381 193.607 L 882.519 193.636 L 882.625 193.716 L 882.69 193.849 L 882.713 194.028 L 882.036 194.028 L 882.036 194.028 z M 883.484 194.85 L 883.712 194.85 L 883.712 194.054 L 883.735 193.862 L 883.805 193.724 L 883.919 193.641 L 884.072 193.613 L 884.186 193.631 L 884.272 193.683 L 884.324 193.771 L 884.342 193.89 L 884.573 193.89 L 884.542 193.68 L 884.456 193.53 L 884.314 193.439 L 884.119 193.408 L 883.987 193.428 L 883.873 193.48 L 883.771 193.569 L 883.691 193.688 L 883.691 193.457 L 883.484 193.457 L 883.484 194.85 L 883.484 194.85 z M 886.269 194.85 L 886.508 194.85 L 886.697 194.321 L 887.415 194.321 L 887.605 194.85 L 887.849 194.85 L 887.19 193.047 L 886.925 193.047 L 886.269 194.85 L 886.269 194.85 z M 886.78 194.1 L 887.058 193.307 L 887.335 194.1 L 886.78 194.1 L 886.78 194.1 z M 888.305 194.256 L 888.933 194.256 L 888.933 194.051 L 888.305 194.051 L 888.305 194.256 L 888.305 194.256 z M 889.392 194.85 L 889.63 194.85 L 889.82 194.321 L 890.538 194.321 L 890.727 194.85 L 890.971 194.85 L 890.313 193.047 L 890.048 193.047 L 889.392 194.85 L 889.392 194.85 z M 889.903 194.1 L 890.18 193.307 L 890.458 194.1 L 889.903 194.1 L 889.903 194.1 z M 891.29 194.85 L 891.518 194.85 L 891.518 194.054 L 891.542 193.862 L 891.612 193.724 L 891.726 193.641 L 891.879 193.613 L 891.993 193.631 L 892.079 193.683 L 892.131 193.771 L 892.149 193.89 L 892.38 193.89 L 892.348 193.68 L 892.263 193.53 L 892.12 193.439 L 891.926 193.408 L 891.793 193.428 L 891.679 193.48 L 891.578 193.569 L 891.498 193.688 L 891.498 193.457 L 891.29 193.457 L 891.29 194.85 L 891.29 194.85 z M 892.675 194.85 L 892.885 194.85 L 892.885 193.919 L 892.898 193.779 L 892.937 193.677 L 892.997 193.618 L 893.075 193.594 L 893.137 193.615 L 893.178 193.667 L 893.199 193.755 L 893.207 193.872 L 893.207 194.85 L 893.404 194.85 L 893.404 193.919 L 893.417 193.781 L 893.456 193.68 L 893.518 193.618 L 893.596 193.594 L 893.658 193.615 L 893.7 193.667 L 893.726 193.872 L 893.726 194.85 L 893.936 194.85 L 893.936 193.888 L 893.923 193.688 L 893.881 193.535 L 893.798 193.441 L 893.663 193.408 L 893.505 193.46 L 893.383 193.61 L 893.287 193.462 L 893.127 193.408 L 892.979 193.46 L 892.878 193.605 L 892.878 193.457 L 892.675 193.457 L 892.675 194.85 L 892.675 194.85 z" stroke="none" fill-rule="evenodd" fill="rgb(0, 0, 0)"/></g><g stroke="rgb(0, 0, 0)" stroke-width="0.13" stroke-linecap="butt" stroke-linejoin="miter" fill="none"><path d="M 872.461 197.96 L 873.602 197.96 L 873.602 197.742 L 872.7 197.742 L 872.7 197.132 L 873.504 197.132 L 873.504 196.917 L 872.7 196.917 L 872.7 196.378 L 873.582 196.378 L 873.582 196.16 L 872.461 196.16 L 872.461 197.96 L 872.461 197.96 z M 873.786 198.39 L 873.786 198.572 L 875.348 198.572 L 875.348 198.39 L 873.786 198.39 L 873.786 198.39 z M 875.34 197.96 L 875.579 197.96 L 875.768 197.43 L 876.486 197.43 L 876.676 197.96 L 876.919 197.96 L 876.261 196.157 L 875.996 196.157 L 875.34 197.96 L 875.34 197.96 z M 875.851 197.21 L 876.128 196.416 L 876.406 197.21 L 875.851 197.21 L 875.851 197.21 z M 877.57 197.96 L 877.812 197.96 L 878.32 196.567 L 878.084 196.567 L 877.692 197.69 L 877.293 196.567 L 877.054 196.567 L 877.57 197.96 L 877.57 197.96 z M 879.542 197.778 L 879.542 197.786 L 879.555 197.874 L 879.594 197.936 L 879.757 197.986 L 879.884 197.965 L 879.884 197.788 L 879.83 197.796 L 879.757 197.762 L 879.744 197.659 L 879.744 196.938 L 879.713 196.754 L 879.622 196.624 L 879.464 196.546 L 879.241 196.518 L 879.023 196.549 L 878.862 196.637 L 878.761 196.774 L 878.727 196.956 L 878.727 196.971 L 878.932 196.971 L 878.95 196.862 L 879.007 196.785 L 879.101 196.738 L 879.233 196.72 L 879.36 196.733 L 879.451 196.772 L 879.505 196.839 L 879.523 196.932 L 879.513 197.041 L 879.472 197.096 L 879.368 197.122 L 879.173 197.143 L 878.95 197.189 L 878.792 197.272 L 878.699 197.402 L 878.67 197.594 L 878.696 197.765 L 878.776 197.892 L 878.906 197.973 L 879.085 198.001 L 879.326 197.947 L 879.542 197.778 L 879.542 197.778 z M 879.516 197.472 L 879.485 197.607 L 879.402 197.711 L 879.277 197.778 L 879.124 197.801 L 879.026 197.788 L 878.955 197.747 L 878.911 197.674 L 878.898 197.573 L 878.909 197.482 L 878.95 197.418 L 879.116 197.345 L 879.326 197.314 L 879.516 197.252 L 879.516 197.472 L 879.516 197.472 z M 880.276 197.96 L 880.504 197.96 L 880.504 197.156 L 880.527 196.971 L 880.602 196.837 L 880.719 196.754 L 880.875 196.722 L 880.999 196.748 L 881.077 196.818 L 881.116 196.935 L 881.129 197.091 L 881.129 197.96 L 881.357 197.96 L 881.357 197.044 L 881.347 196.86 L 881.3 196.707 L 881.147 196.567 L 880.908 196.518 L 880.776 196.536 L 880.665 196.585 L 880.569 196.668 L 880.493 196.779 L 880.493 196.567 L 880.276 196.567 L 880.276 197.96 L 880.276 197.96 z M 882.143 196.808 L 882.143 197.506 L 882.159 197.731 L 882.231 197.887 L 882.376 197.978 L 882.623 198.009 L 882.893 197.996 L 882.893 197.799 L 882.695 197.814 L 882.516 197.794 L 882.421 197.729 L 882.379 197.62 L 882.371 197.467 L 882.371 196.808 L 882.893 196.808 L 882.893 196.614 L 882.371 196.614 L 882.371 196.206 L 882.143 196.206 L 882.143 196.614 L 881.749 196.614 L 881.749 196.808 L 882.143 196.808 L 882.143 196.808 z" stroke="none" fill-rule="evenodd" fill="rgb(0, 0, 0)"/></g></svg>