<?xml version="1.0" encoding="utf-8" ?><!DOCTYPE svg PUBLIC "-//W3C//DTD SVG 1.1//EN" "http://www.w3.org/Graphics/SVG/1.1/DTD/svg11.dtd" 
[ <!ATTLIST svg 
  xmlns:dsy CDATA #FIXED "http://www.3ds.com/print"  
    dsy:text-version CDATA #IMPLIED > 

  <!ATTLIST text 
  xmlns:dsy CDATA #FIXED "http://www.3ds.com/print" 
    dsy:text-version CDATA #IMPLIED > 
]><svg xmlns="http://www.w3.org/2000/svg" xmlns:dsy="http://www.3ds.com/print" dsy:text-version="18000" width="1189" height="841" viewBox="0 0 1189 841" version="1.1"><g stroke="rgb(0, 0, 0)" stroke-width="0.13" stroke-linecap="butt" stroke-linejoin="miter" fill="none"><path d="M 900.666 216.967 L 901.035 258.028"/><path d="M 906.666 216.913 L 907.035 257.974"/></g><g stroke="rgb(0, 0, 0)" stroke-width="0.35" stroke-linecap="butt" stroke-linejoin="miter" fill="none"><path d="M 143.084 61.5035 L 135.928 80.1791"/><path d="M 135.928 80.1791 L 141.437 82.2904"/><path d="M 141.437 82.2904 L 148.594 63.6149"/><path d="M 148.594 63.6149 L 285.479 116.073"/><path d="M 285.479 116.073 L 278.322 134.749"/><path d="M 278.322 134.749 L 283.832 136.86"/><path d="M 283.832 136.86 L 290.989 118.185"/><circle cx="354.724" cy="159.322" r="3.19995"/><circle cx="72.9996" cy="56.2123" r="3.19995"/><circle cx="115.548" cy="463.671" r="3.19995"/><circle cx="130.755" cy="407.097" r="6"/><path d="M 165.471 139.692 L 146.796 132.535"/><path d="M 146.796 132.535 L 128.903 179.224"/><path d="M 128.903 179.224 L 147.579 186.381"/><path d="M 147.579 186.381 L 165.471 139.692"/><path d="M 229.729 164.318 L 243.736 169.686"/><path d="M 202.903 191.519 L 229.729 164.318"/><path d="M 205.413 154.999 L 202.903 191.519"/><path d="M 191.406 149.631 L 205.413 154.999"/><path d="M 191.406 203.177 L 191.406 149.631"/><path d="M 205.413 208.545 L 191.406 203.177"/><path d="M 243.736 169.686 L 205.413 208.545"/><path d="M 359.593 164.363 L 360.289 165.08"/><path d="M 360.289 165.08 L 369.617 156.025"/><path d="M 369.617 156.025 L 368.92 155.307"/><path d="M 359.593 164.363 L 368.92 155.307"/><path d="M 348.646 155.856 L 354.618 145.448"/><path d="M 353.751 144.95 L 354.618 145.448"/><path d="M 347.778 155.359 L 353.751 144.95"/><path d="M 348.646 155.856 L 347.778 155.359"/><path d="M 66.3159 58.3207 L 64.6703 53.114"/><path d="M 64.6703 53.114 L 63.7168 53.4153"/><path d="M 63.7168 53.4153 L 65.3624 58.6221"/><path d="M 65.3624 58.6221 L 66.3159 58.3207"/><path d="M 80.9899 55.8267 L 79.9934 55.8865"/><path d="M 80.3691 45.4802 L 80.9899 55.8267"/><path d="M 79.3691 45.4802 L 80.3691 45.4802"/><path d="M 79.9934 55.8865 L 79.3691 45.4802"/><path d="M 190.108 219.31 L 142.021 200.882"/><path d="M 142.022 200.882 A 8 8 0 0 0 136.296 215.822"/><path d="M 136.296 215.822 L 184.383 234.251"/><path d="M 184.383 234.251 A 8 8 0 0 0 190.108 219.31"/><path d="M 74.4547 262.714 A 0.5 0.5 0 0 0 75.004 263.159"/><path d="M 75.004 263.159 L 103.847 260.147"/><path d="M 104.396 260.592 A 0.5 0.5 0 0 0 103.847 260.147"/><path d="M 77.0813 283.051 A 0.5 0.5 0 0 0 76.6359 283.6"/><path d="M 104.396 260.592 L 106.37 279.49"/><path d="M 105.924 280.039 L 77.0812 283.051"/><path d="M 105.924 280.039 A 0.5 0.5 0 0 0 106.37 279.49"/><path d="M 80.1405 37.3816 L 143.084 61.5035"/><path d="M 53.0917 58.1344 L 74.4547 262.714"/><path d="M 80.1404 37.3816 A 20 20 0 0 0 53.0916 58.1344"/><path d="M 290.989 118.185 L 359.038 144.263"/><path d="M 367.607 175.297 A 20 20 0 0 0 359.038 144.263"/><path d="M 76.6359 283.6 L 95.6566 465.748"/><path d="M 367.607 175.297 L 131.274 476.029"/><path d="M 95.6566 465.748 A 20 20 0 0 0 131.274 476.029"/><path d="M 508.616 292.954 L 478.778 296.07"/><path d="M 506.539 273.063 L 508.616 292.954"/><path d="M 476.701 276.178 L 506.539 273.063"/><path d="M 451.901 38.686 L 476.701 276.178"/><path d="M 545.279 74.4711 L 451.901 38.686"/><path d="M 545.279 74.4711 L 538.122 93.1466"/><path d="M 543.631 95.2579 L 538.122 93.1466"/><path d="M 543.631 95.2579 L 550.788 76.5824"/><path d="M 687.673 129.041 L 550.788 76.5824"/><path d="M 680.516 147.716 L 687.673 129.041"/><path d="M 686.026 149.828 L 680.516 147.716"/><path d="M 693.183 131.152 L 686.026 149.828"/><path d="M 786.561 166.937 L 693.183 131.152"/><circle cx="756.918" cy="172.29" r="3.20001"/><circle cx="475.194" cy="69.1798" r="3.20001"/><circle cx="517.742" cy="476.639" r="3.20001"/><circle cx="532.949" cy="420.065" r="6"/><path d="M 567.665 152.66 L 548.99 145.503"/><path d="M 548.99 145.503 L 531.097 192.192"/><path d="M 531.097 192.192 L 549.773 199.349"/><path d="M 549.773 199.349 L 567.665 152.66"/><path d="M 631.923 177.285 L 645.93 182.653"/><path d="M 605.097 204.487 L 631.923 177.285"/><path d="M 607.607 167.967 L 605.097 204.487"/><path d="M 593.6 162.599 L 607.607 167.967"/><path d="M 593.6 216.145 L 593.6 162.599"/><path d="M 607.607 221.512 L 593.6 216.145"/><path d="M 645.93 182.653 L 607.607 221.512"/><path d="M 463.816 56.5402 L 464.786 56.299"/><path d="M 467.435 71.097 L 463.816 56.5402"/><path d="M 468.405 70.8558 L 467.435 71.097"/><path d="M 464.786 56.299 L 468.405 70.8558"/><path d="M 756.107 160.097 L 755.251 159.58"/><path d="M 755.251 159.58 L 750.077 168.137"/><path d="M 750.077 168.137 L 750.932 168.654"/><path d="M 756.107 160.097 L 750.932 168.654"/><path d="M 762.665 177.829 L 761.854 177.245"/><path d="M 769.089 168.899 L 762.665 177.829"/><path d="M 768.277 168.315 L 769.089 168.899"/><path d="M 761.854 177.245 L 768.277 168.315"/><path d="M 483.193 69.4515 L 482.194 69.4159"/><path d="M 483.727 54.461 L 483.193 69.4515"/><path d="M 482.727 54.4254 L 483.727 54.461"/><path d="M 482.194 69.4159 L 482.727 54.4254"/><path d="M 786.561 166.937 L 533.468 488.996"/><path d="M 478.778 296.07 L 497.851 478.716"/><path d="M 497.851 478.716 A 20 20 0 0 0 533.468 488.996"/><path d="M 875.144 97.8572 L 869.144 97.9111"/><path d="M 869.144 97.9111 L 869.324 117.91"/><path d="M 869.324 117.91 L 861.325 117.982"/><path d="M 861.325 117.982 L 861.145 97.983"/><path d="M 861.145 97.983 L 855.145 98.037"/><path d="M 855.145 98.037 L 855.325 118.036"/><path d="M 855.325 118.036 L 830.326 118.261"/><path d="M 830.326 118.261 L 830.326 49.2581"/><path d="M 846.568 49.1121 L 830.326 49.2581"/><path d="M 846.568 49.1121 A 10 10 0 0 0 866.467 48.9332"/><path d="M 904.703 48.5896 L 866.467 48.9332"/><path d="M 905.323 117.587 L 904.703 48.5896"/><path d="M 895.323 117.677 L 905.323 117.587"/><path d="M 895.143 97.6775 L 895.323 117.677"/><path d="M 889.144 97.7314 L 895.143 97.6775"/><path d="M 889.323 117.731 L 889.144 97.7314"/><path d="M 875.324 117.856 L 889.323 117.731"/><path d="M 875.144 97.8572 L 875.324 117.856"/><path d="M 886.648 215.093 L 880.649 215.147"/><path d="M 880.649 215.147 L 880.828 235.146"/><path d="M 880.828 235.146 L 872.829 235.218"/><path d="M 872.829 235.218 L 872.649 215.219"/><path d="M 872.649 215.219 L 866.649 215.273"/><path d="M 866.649 215.273 L 866.829 235.272"/><path d="M 866.829 235.272 L 841.83 235.497"/><path d="M 841.83 235.497 L 841.83 165.494"/><path d="M 858.038 165.348 L 841.83 165.494"/><path d="M 858.038 165.348 A 10 10 0 0 0 878.037 165.169"/><path d="M 916.198 164.826 L 878.037 165.169"/><path d="M 916.827 234.823 L 916.198 164.826"/><path d="M 906.827 234.913 L 916.827 234.823"/><path d="M 906.648 214.914 L 906.827 234.913"/><path d="M 900.648 214.967 L 906.648 214.914"/><path d="M 900.828 234.967 L 900.648 214.967"/><path d="M 886.828 235.092 L 900.828 234.967"/><path d="M 886.648 215.093 L 886.828 235.092"/><path d="M 890.678 329.584 L 896.28 331.731"/><path d="M 897.835 310.908 L 890.678 329.584"/><path d="M 1038.58 386.265 L 1045.74 367.589"/><path d="M 1032.98 384.118 L 1038.58 386.265"/><path d="M 1040.14 365.442 L 1032.98 384.118"/><path d="M 903.437 313.055 L 1040.14 365.442"/><path d="M 896.28 331.731 L 903.437 313.055"/><circle cx="827.75" cy="305.617" r="3.20001"/><circle cx="885.505" cy="656.502" r="6"/><circle cx="870.299" cy="713.076" r="3.20001"/><path d="M 897.835 310.908 L 826.788 296.56"/><path d="M 826.788 296.56 A 10 10 0 0 0 814.848 307.249"/><path d="M 1045.74 367.589 L 1062.91 374.171"/><path d="M 1068.04 388.431 A 10 10 0 0 0 1062.91 374.171"/><path d="M 852.113 725.828 L 814.848 307.249"/><path d="M 1068.04 388.431 L 874.511 730.671"/><path d="M 852.113 725.828 A 12 12 0 0 0 874.511 730.671"/></g><g stroke="rgb(0, 0, 0)" stroke-width="0.13" stroke-linecap="butt" stroke-linejoin="miter" fill="none"><path d="M 106.784 309.623 L 109.034 309.623 L 109.034 309.199 L 107.248 309.199 L 107.248 306.123 L 106.784 306.123 L 106.784 309.623 L 106.784 309.623 z M 110.189 308.397 L 111.964 308.397 L 111.969 308.191 L 111.888 307.611 L 111.666 307.177 L 111.313 306.915 L 110.844 306.819 L 110.385 306.92 L 110.032 307.202 L 109.805 307.661 L 109.725 308.266 L 109.8 308.887 L 110.027 309.341 L 110.375 309.623 L 110.829 309.719 L 111.222 309.653 L 111.545 309.482 L 111.782 309.209 L 111.918 308.846 L 111.48 308.846 L 111.389 309.048 L 111.258 309.199 L 110.885 309.32 L 110.597 309.265 L 110.38 309.088 L 110.239 308.801 L 110.189 308.413 L 110.189 308.397 L 110.189 308.397 z M 110.189 308.024 L 110.244 307.676 L 110.38 307.419 L 110.587 307.263 L 110.859 307.207 L 111.127 307.263 L 111.333 307.419 L 111.459 307.676 L 111.505 308.024 L 110.189 308.024 L 110.189 308.024 z M 113.452 307.384 L 113.452 309.623 L 113.895 309.623 L 113.895 307.384 L 114.904 307.384 L 114.904 307.006 L 113.895 307.006 L 113.895 306.839 L 113.931 306.637 L 114.047 306.501 L 114.243 306.421 L 114.526 306.39 L 114.904 306.41 L 114.904 306.027 L 114.425 306.002 L 113.991 306.047 L 113.689 306.184 L 113.507 306.421 L 113.452 306.758 L 113.452 307.006 L 112.64 307.006 L 112.64 307.384 L 113.452 307.384 L 113.452 307.384 z M 116.467 307.384 L 116.467 308.74 L 116.498 309.179 L 116.639 309.482 L 116.921 309.658 L 117.4 309.719 L 117.925 309.694 L 117.925 309.31 L 117.542 309.341 L 117.194 309.3 L 117.007 309.174 L 116.926 308.962 L 116.911 308.665 L 116.911 307.384 L 117.925 307.384 L 117.925 307.006 L 116.911 307.006 L 116.911 306.214 L 116.467 306.214 L 116.467 307.006 L 115.701 307.006 L 115.701 307.384 L 116.467 307.384 L 116.467 307.384 z M 118.434 310.46 L 118.434 310.813 L 121.47 310.813 L 121.47 310.46 L 118.434 310.46 L 118.434 310.46 z M 121.864 309.623 L 122.333 309.623 L 122.333 308.145 L 122.812 308.145 L 123.165 308.16 L 123.387 308.231 L 123.508 308.397 L 123.558 308.695 L 123.583 309.149 L 123.614 309.446 L 123.674 309.623 L 124.204 309.623 L 124.204 309.527 L 124.088 309.386 L 124.047 309.124 L 124.012 308.559 L 123.926 308.14 L 123.81 308.009 L 123.629 307.913 L 123.83 307.787 L 123.972 307.611 L 124.062 307.389 L 124.093 307.122 L 124.022 306.698 L 123.82 306.38 L 123.488 306.189 L 123.034 306.123 L 121.864 306.123 L 121.864 309.623 L 121.864 309.623 z M 122.903 306.552 L 123.21 306.582 L 123.427 306.678 L 123.563 306.854 L 123.609 307.132 L 123.558 307.424 L 123.422 307.601 L 123.19 307.691 L 122.872 307.717 L 122.333 307.717 L 122.333 306.552 L 122.903 306.552 L 122.903 306.552 z M 125.369 308.397 L 127.144 308.397 L 127.149 308.191 L 127.068 307.611 L 126.846 307.177 L 126.493 306.915 L 126.024 306.819 L 125.565 306.92 L 125.212 307.202 L 124.985 307.661 L 124.905 308.266 L 124.98 308.887 L 125.207 309.341 L 125.555 309.623 L 126.009 309.719 L 126.403 309.653 L 126.725 309.482 L 126.962 309.209 L 127.099 308.846 L 126.66 308.846 L 126.569 309.048 L 126.438 309.199 L 126.065 309.32 L 125.777 309.265 L 125.56 309.088 L 125.419 308.801 L 125.369 308.413 L 125.369 308.397 L 125.369 308.397 z M 125.369 308.024 L 125.424 307.676 L 125.56 307.419 L 125.767 307.263 L 126.039 307.207 L 126.307 307.263 L 126.513 307.419 L 126.64 307.676 L 126.685 308.024 L 125.369 308.024 L 125.369 308.024 z M 129.625 309.27 L 129.625 309.285 L 129.65 309.457 L 129.726 309.578 L 130.044 309.673 L 130.291 309.633 L 130.291 309.29 L 130.185 309.305 L 130.044 309.24 L 130.019 309.038 L 130.019 307.636 L 129.958 307.278 L 129.781 307.026 L 129.474 306.874 L 129.04 306.819 L 128.617 306.879 L 128.304 307.051 L 128.107 307.318 L 128.042 307.671 L 128.042 307.702 L 128.44 307.702 L 128.475 307.49 L 128.586 307.338 L 128.768 307.248 L 129.025 307.212 L 129.272 307.238 L 129.449 307.313 L 129.555 307.444 L 129.59 307.626 L 129.57 307.838 L 129.489 307.944 L 129.287 307.994 L 128.909 308.034 L 128.475 308.125 L 128.168 308.287 L 127.986 308.539 L 127.931 308.912 L 127.981 309.245 L 128.137 309.492 L 128.39 309.648 L 128.738 309.704 L 129.207 309.598 L 129.625 309.27 L 129.625 309.27 z M 129.575 308.675 L 129.514 308.937 L 129.353 309.139 L 129.111 309.27 L 128.813 309.315 L 128.622 309.29 L 128.485 309.209 L 128.4 309.068 L 128.374 308.872 L 128.395 308.695 L 128.475 308.569 L 128.798 308.428 L 129.207 308.367 L 129.575 308.246 L 129.575 308.675 L 129.575 308.675 z M 131.219 309.623 L 131.663 309.623 L 131.663 308.075 L 131.708 307.702 L 131.844 307.434 L 132.066 307.273 L 132.364 307.217 L 132.586 307.253 L 132.752 307.354 L 132.853 307.525 L 132.888 307.757 L 133.337 307.757 L 133.276 307.349 L 133.11 307.056 L 132.833 306.879 L 132.454 306.819 L 132.197 306.859 L 131.975 306.96 L 131.779 307.132 L 131.622 307.364 L 131.622 306.915 L 131.219 306.915 L 131.219 309.623 L 131.219 309.623 z M 133.614 310.46 L 133.614 310.813 L 136.65 310.813 L 136.65 310.46 L 133.614 310.46 L 133.614 310.46 z M 137.145 309.623 L 139.394 309.623 L 139.394 309.199 L 137.609 309.199 L 137.609 306.123 L 137.145 306.123 L 137.145 309.623 L 137.145 309.623 z M 140.029 308.271 L 140.11 308.887 L 140.342 309.341 L 140.71 309.623 L 141.204 309.719 L 141.694 309.623 L 142.062 309.346 L 142.294 308.892 L 142.379 308.271 L 142.294 307.656 L 142.062 307.197 L 141.694 306.92 L 141.204 306.819 L 140.71 306.92 L 140.342 307.202 L 140.11 307.656 L 140.029 308.271 L 140.029 308.271 z M 140.483 308.266 L 140.529 307.813 L 140.67 307.485 L 140.897 307.283 L 141.204 307.212 L 141.507 307.283 L 141.734 307.48 L 141.875 307.813 L 141.926 308.266 L 141.875 308.725 L 141.734 309.058 L 141.507 309.26 L 141.204 309.325 L 140.897 309.26 L 140.67 309.058 L 140.529 308.725 L 140.483 308.266 L 140.483 308.266 z M 143.837 309.623 L 144.24 307.323 L 144.644 309.623 L 145.068 309.623 L 145.733 306.915 L 145.305 306.915 L 144.856 309.214 L 144.457 306.915 L 144.019 306.915 L 143.62 309.214 L 143.171 306.915 L 142.748 306.915 L 143.413 309.623 L 143.837 309.623 L 143.837 309.623 z M 146.621 308.397 L 148.396 308.397 L 148.401 308.191 L 148.32 307.611 L 148.099 307.177 L 147.745 306.915 L 147.276 306.819 L 146.818 306.92 L 146.465 307.202 L 146.238 307.661 L 146.157 308.266 L 146.233 308.887 L 146.459 309.341 L 146.807 309.623 L 147.261 309.719 L 147.655 309.653 L 147.977 309.482 L 148.215 309.209 L 148.351 308.846 L 147.912 308.846 L 147.821 309.048 L 147.69 309.199 L 147.317 309.32 L 147.029 309.265 L 146.812 309.088 L 146.671 308.801 L 146.621 308.413 L 146.621 308.397 L 146.621 308.397 z M 146.621 308.024 L 146.676 307.676 L 146.812 307.419 L 147.019 307.263 L 147.292 307.207 L 147.559 307.263 L 147.766 307.419 L 147.892 307.676 L 147.937 308.024 L 146.621 308.024 L 146.621 308.024 z M 149.435 309.623 L 149.879 309.623 L 149.879 308.075 L 149.924 307.702 L 150.06 307.434 L 150.282 307.273 L 150.58 307.217 L 150.802 307.253 L 150.968 307.354 L 151.069 307.525 L 151.104 307.757 L 151.553 307.757 L 151.493 307.349 L 151.326 307.056 L 151.049 306.879 L 150.671 306.819 L 150.413 306.859 L 150.191 306.96 L 149.995 307.132 L 149.838 307.364 L 149.838 306.915 L 149.435 306.915 L 149.435 309.623 L 149.435 309.623 z M 154.851 309.623 L 155.315 309.623 L 155.684 308.594 L 157.081 308.594 L 157.449 309.623 L 157.923 309.623 L 156.642 306.118 L 156.127 306.118 L 154.851 309.623 L 154.851 309.623 z M 155.845 308.165 L 156.385 306.622 L 156.924 308.165 L 155.845 308.165 L 155.845 308.165 z M 158.81 308.468 L 160.031 308.468 L 160.031 308.07 L 158.81 308.07 L 158.81 308.468 L 158.81 308.468 z M 160.923 309.623 L 161.387 309.623 L 161.756 308.594 L 163.153 308.594 L 163.521 309.623 L 163.995 309.623 L 162.714 306.118 L 162.199 306.118 L 160.923 309.623 L 160.923 309.623 z M 161.917 308.165 L 162.457 306.622 L 162.996 308.165 L 161.917 308.165 L 161.917 308.165 z M 164.615 309.623 L 165.059 309.623 L 165.059 308.075 L 165.104 307.702 L 165.24 307.434 L 165.462 307.273 L 165.76 307.217 L 165.982 307.253 L 166.148 307.354 L 166.249 307.525 L 166.284 307.757 L 166.733 307.757 L 166.673 307.349 L 166.506 307.056 L 166.229 306.879 L 165.851 306.819 L 165.593 306.859 L 165.372 306.96 L 165.175 307.132 L 165.019 307.364 L 165.019 306.915 L 164.615 306.915 L 164.615 309.623 L 164.615 309.623 z M 167.308 309.623 L 167.717 309.623 L 167.717 307.813 L 167.742 307.54 L 167.818 307.343 L 167.934 307.227 L 168.085 307.182 L 168.206 307.222 L 168.287 307.323 L 168.327 307.495 L 168.342 307.722 L 168.342 309.623 L 168.725 309.623 L 168.725 307.813 L 168.751 307.545 L 168.826 307.349 L 168.947 307.227 L 169.099 307.182 L 169.22 307.222 L 169.3 307.323 L 169.351 307.722 L 169.351 309.623 L 169.759 309.623 L 169.759 307.752 L 169.734 307.364 L 169.653 307.066 L 169.492 306.885 L 169.23 306.819 L 168.922 306.92 L 168.685 307.212 L 168.498 306.925 L 168.186 306.819 L 167.898 306.92 L 167.702 307.202 L 167.702 306.915 L 167.308 306.915 L 167.308 309.623 L 167.308 309.623 z M 173.99 308.468 L 175.211 308.468 L 175.211 308.07 L 173.99 308.07 L 173.99 308.468 L 173.99 308.468 z M 179.609 309.623 L 180.073 309.623 L 180.073 308.145 L 180.587 308.145 L 181.106 308.12 L 181.52 307.944 L 181.787 307.601 L 181.878 307.132 L 181.807 306.698 L 181.606 306.38 L 181.273 306.189 L 180.819 306.123 L 179.609 306.123 L 179.609 309.623 L 179.609 309.623 z M 180.693 306.552 L 180.996 306.582 L 181.217 306.678 L 181.349 306.854 L 181.394 307.132 L 181.343 307.424 L 181.207 307.601 L 180.975 307.691 L 180.658 307.717 L 180.073 307.717 L 180.073 306.552 L 180.693 306.552 L 180.693 306.552 z M 183.547 306.375 L 183.547 309.25 L 182.635 309.25 L 182.635 309.623 L 184.899 309.623 L 184.899 309.25 L 183.991 309.25 L 183.991 306.002 L 182.851 306.002 L 182.851 306.375 L 183.547 306.375 L 183.547 306.375 z M 187.31 309.27 L 187.31 309.285 L 187.335 309.457 L 187.411 309.578 L 187.728 309.673 L 187.975 309.633 L 187.975 309.29 L 187.869 309.305 L 187.728 309.24 L 187.703 309.038 L 187.703 307.636 L 187.642 307.278 L 187.466 307.026 L 187.158 306.874 L 186.725 306.819 L 186.301 306.879 L 185.988 307.051 L 185.792 307.318 L 185.726 307.671 L 185.726 307.702 L 186.124 307.702 L 186.16 307.49 L 186.271 307.338 L 186.452 307.248 L 186.71 307.212 L 186.957 307.238 L 187.133 307.313 L 187.239 307.444 L 187.274 307.626 L 187.254 307.838 L 187.173 307.944 L 186.972 307.994 L 186.594 308.034 L 186.16 308.125 L 185.852 308.287 L 185.671 308.539 L 185.615 308.912 L 185.666 309.245 L 185.822 309.492 L 186.074 309.648 L 186.422 309.704 L 186.891 309.598 L 187.31 309.27 L 187.31 309.27 z M 187.259 308.675 L 187.199 308.937 L 187.037 309.139 L 186.795 309.27 L 186.498 309.315 L 186.306 309.29 L 186.17 309.209 L 186.084 309.068 L 186.059 308.872 L 186.079 308.695 L 186.16 308.569 L 186.483 308.428 L 186.891 308.367 L 187.259 308.246 L 187.259 308.675 L 187.259 308.675 z M 190.401 307.333 L 190.245 307.106 L 190.068 306.945 L 189.862 306.854 L 189.624 306.819 L 189.196 306.92 L 188.863 307.202 L 188.646 307.656 L 188.57 308.266 L 188.646 308.882 L 188.863 309.336 L 189.196 309.623 L 189.624 309.719 L 189.862 309.689 L 190.063 309.603 L 190.24 309.446 L 190.401 309.209 L 190.401 310.672 L 190.845 310.672 L 190.845 306.915 L 190.401 306.915 L 190.401 307.333 L 190.401 307.333 z M 189.024 308.266 L 189.07 307.818 L 189.211 307.49 L 189.423 307.288 L 189.7 307.217 L 189.993 307.288 L 190.215 307.485 L 190.346 307.813 L 190.396 308.266 L 190.346 308.725 L 190.215 309.053 L 189.993 309.255 L 189.7 309.32 L 189.423 309.255 L 189.211 309.053 L 189.07 308.72 L 189.024 308.266 L 189.024 308.266 z M 193.861 306.915 L 193.417 306.915 L 193.417 308.478 L 193.367 308.841 L 193.22 309.104 L 192.993 309.265 L 192.696 309.315 L 192.459 309.275 L 192.307 309.154 L 192.222 308.947 L 192.202 308.655 L 192.202 306.915 L 191.758 306.915 L 191.758 308.695 L 191.773 309.053 L 191.869 309.351 L 192.161 309.623 L 192.63 309.719 L 192.882 309.684 L 193.099 309.593 L 193.286 309.436 L 193.437 309.209 L 193.437 309.623 L 193.861 309.623 L 193.861 306.915 L 193.861 306.915 z M 195.197 308.397 L 196.972 308.397 L 196.978 308.191 L 196.897 307.611 L 196.675 307.177 L 196.322 306.915 L 195.853 306.819 L 195.394 306.92 L 195.041 307.202 L 194.814 307.661 L 194.733 308.266 L 194.809 308.887 L 195.036 309.341 L 195.384 309.623 L 195.838 309.719 L 196.231 309.653 L 196.554 309.482 L 196.791 309.209 L 196.927 308.846 L 196.488 308.846 L 196.398 309.048 L 196.266 309.199 L 195.893 309.32 L 195.606 309.265 L 195.389 309.088 L 195.248 308.801 L 195.197 308.413 L 195.197 308.397 L 195.197 308.397 z M 195.197 308.024 L 195.253 307.676 L 195.389 307.419 L 195.596 307.263 L 195.868 307.207 L 196.135 307.263 L 196.342 307.419 L 196.468 307.676 L 196.514 308.024 L 195.197 308.024 L 195.197 308.024 z M 202.545 309.204 L 202.545 309.623 L 202.989 309.623 L 202.989 306.002 L 202.55 306.002 L 202.55 307.328 L 202.212 306.945 L 202.006 306.854 L 201.769 306.819 L 201.34 306.92 L 201.007 307.202 L 200.79 307.656 L 200.715 308.266 L 200.79 308.877 L 201.007 309.336 L 201.34 309.623 L 201.769 309.719 L 202.006 309.684 L 202.217 309.593 L 202.545 309.204 L 202.545 309.204 z M 201.844 307.217 L 202.137 307.288 L 202.359 307.485 L 202.49 307.813 L 202.54 308.266 L 202.49 308.725 L 202.359 309.053 L 202.137 309.255 L 201.844 309.32 L 201.567 309.255 L 201.355 309.053 L 201.214 308.72 L 201.168 308.266 L 201.214 307.818 L 201.355 307.49 L 201.567 307.288 L 201.844 307.217 L 201.844 307.217 z M 206.005 306.915 L 205.561 306.915 L 205.561 308.478 L 205.511 308.841 L 205.364 309.104 L 205.137 309.265 L 204.84 309.315 L 204.603 309.275 L 204.452 309.154 L 204.366 308.947 L 204.346 308.655 L 204.346 306.915 L 203.902 306.915 L 203.902 308.695 L 203.917 309.053 L 204.013 309.351 L 204.305 309.623 L 204.774 309.719 L 205.027 309.684 L 205.243 309.593 L 205.43 309.436 L 205.581 309.209 L 205.581 309.623 L 206.005 309.623 L 206.005 306.915 L 206.005 306.915 z M 209.989 309.623 L 210.433 309.623 L 210.433 308.06 L 210.478 307.702 L 210.625 307.439 L 210.851 307.278 L 211.154 307.217 L 211.396 307.268 L 211.547 307.404 L 211.623 307.631 L 211.648 307.934 L 211.648 309.623 L 212.092 309.623 L 212.092 307.843 L 212.072 307.485 L 211.981 307.187 L 211.684 306.915 L 211.22 306.819 L 210.967 306.854 L 210.751 306.95 L 210.569 307.101 L 210.433 307.308 L 210.433 306.002 L 209.989 306.002 L 209.989 309.623 L 209.989 309.623 z M 214.634 309.27 L 214.634 309.285 L 214.659 309.457 L 214.735 309.578 L 215.052 309.673 L 215.3 309.633 L 215.3 309.29 L 215.194 309.305 L 215.052 309.24 L 215.027 309.038 L 215.027 307.636 L 214.967 307.278 L 214.79 307.026 L 214.483 306.874 L 214.049 306.819 L 213.625 306.879 L 213.313 307.051 L 213.116 307.318 L 213.05 307.671 L 213.05 307.702 L 213.449 307.702 L 213.484 307.49 L 213.595 307.338 L 213.777 307.248 L 214.034 307.212 L 214.281 307.238 L 214.457 307.313 L 214.563 307.444 L 214.599 307.626 L 214.578 307.838 L 214.498 307.944 L 214.296 307.994 L 213.918 308.034 L 213.484 308.125 L 213.176 308.287 L 212.995 308.539 L 212.939 308.912 L 212.99 309.245 L 213.146 309.492 L 213.398 309.648 L 213.746 309.704 L 214.215 309.598 L 214.634 309.27 L 214.634 309.27 z M 214.583 308.675 L 214.523 308.937 L 214.362 309.139 L 214.119 309.27 L 213.822 309.315 L 213.63 309.29 L 213.494 309.209 L 213.408 309.068 L 213.383 308.872 L 213.403 308.695 L 213.484 308.569 L 213.807 308.428 L 214.215 308.367 L 214.583 308.246 L 214.583 308.675 L 214.583 308.675 z M 218.149 306.915 L 217.705 306.915 L 217.705 308.478 L 217.655 308.841 L 217.509 309.104 L 217.282 309.265 L 216.984 309.315 L 216.747 309.275 L 216.596 309.154 L 216.51 308.947 L 216.49 308.655 L 216.49 306.915 L 216.046 306.915 L 216.046 308.695 L 216.061 309.053 L 216.157 309.351 L 216.449 309.623 L 216.918 309.719 L 217.171 309.684 L 217.387 309.593 L 217.574 309.436 L 217.725 309.209 L 217.725 309.623 L 218.149 309.623 L 218.149 306.915 L 218.149 306.915 z M 219.692 307.384 L 219.692 308.74 L 219.723 309.179 L 219.864 309.482 L 220.146 309.658 L 220.625 309.719 L 221.15 309.694 L 221.15 309.31 L 220.766 309.341 L 220.418 309.3 L 220.232 309.174 L 220.151 308.962 L 220.136 308.665 L 220.136 307.384 L 221.15 307.384 L 221.15 307.006 L 220.136 307.006 L 220.136 306.214 L 219.692 306.214 L 219.692 307.006 L 218.926 307.006 L 218.926 307.384 L 219.692 307.384 L 219.692 307.384 z" stroke="none" fill-rule="evenodd" fill="rgb(0, 0, 0)"/></g><g stroke="rgb(0, 0, 0)" stroke-width="0.13" stroke-linecap="butt" stroke-linejoin="miter" fill="none"><path d="M 508.978 322.591 L 511.228 322.591 L 511.228 322.167 L 509.442 322.167 L 509.442 319.091 L 508.978 319.091 L 508.978 322.591 L 508.978 322.591 z M 512.383 321.365 L 514.158 321.365 L 514.163 321.158 L 514.082 320.578 L 513.86 320.145 L 513.507 319.882 L 513.038 319.786 L 512.579 319.887 L 512.226 320.17 L 511.999 320.629 L 511.919 321.234 L 511.994 321.854 L 512.221 322.308 L 512.569 322.591 L 513.023 322.686 L 513.416 322.621 L 513.739 322.449 L 513.976 322.177 L 514.112 321.814 L 513.674 321.814 L 513.583 322.016 L 513.452 322.167 L 513.079 322.288 L 512.791 322.232 L 512.574 322.056 L 512.433 321.768 L 512.383 321.38 L 512.383 321.365 L 512.383 321.365 z M 512.383 320.992 L 512.438 320.644 L 512.574 320.387 L 512.781 320.23 L 513.053 320.175 L 513.321 320.23 L 513.527 320.387 L 513.654 320.644 L 513.699 320.992 L 512.383 320.992 L 512.383 320.992 z M 515.646 320.351 L 515.646 322.591 L 516.089 322.591 L 516.089 320.351 L 517.098 320.351 L 517.098 319.973 L 516.089 319.973 L 516.089 319.807 L 516.125 319.605 L 516.241 319.469 L 516.437 319.388 L 516.72 319.358 L 517.098 319.378 L 517.098 318.995 L 516.619 318.969 L 516.185 319.015 L 515.883 319.151 L 515.701 319.388 L 515.646 319.726 L 515.646 319.973 L 514.834 319.973 L 514.834 320.351 L 515.646 320.351 L 515.646 320.351 z M 518.661 320.351 L 518.661 321.708 L 518.692 322.147 L 518.833 322.449 L 519.115 322.626 L 519.594 322.686 L 520.119 322.661 L 520.119 322.278 L 519.736 322.308 L 519.388 322.268 L 519.201 322.142 L 519.12 321.93 L 519.105 321.632 L 519.105 320.351 L 520.119 320.351 L 520.119 319.973 L 519.105 319.973 L 519.105 319.181 L 518.661 319.181 L 518.661 319.973 L 517.895 319.973 L 517.895 320.351 L 518.661 320.351 L 518.661 320.351 z M 520.628 323.428 L 520.628 323.781 L 523.664 323.781 L 523.664 323.428 L 520.628 323.428 L 520.628 323.428 z M 524.058 322.591 L 524.527 322.591 L 524.527 321.113 L 525.006 321.113 L 525.359 321.128 L 525.581 321.199 L 525.702 321.365 L 525.752 321.663 L 525.777 322.116 L 525.808 322.414 L 525.868 322.591 L 526.398 322.591 L 526.398 322.495 L 526.282 322.353 L 526.241 322.091 L 526.206 321.526 L 526.12 321.108 L 526.004 320.977 L 525.823 320.881 L 526.024 320.755 L 526.166 320.578 L 526.256 320.356 L 526.287 320.089 L 526.216 319.665 L 526.014 319.348 L 525.682 319.156 L 525.228 319.091 L 524.058 319.091 L 524.058 322.591 L 524.058 322.591 z M 525.096 319.519 L 525.404 319.549 L 525.621 319.645 L 525.757 319.822 L 525.803 320.099 L 525.752 320.392 L 525.616 320.568 L 525.384 320.659 L 525.066 320.684 L 524.527 320.684 L 524.527 319.519 L 525.096 319.519 L 525.096 319.519 z M 527.563 321.365 L 529.338 321.365 L 529.343 321.158 L 529.262 320.578 L 529.04 320.145 L 528.687 319.882 L 528.218 319.786 L 527.759 319.887 L 527.406 320.17 L 527.179 320.629 L 527.099 321.234 L 527.174 321.854 L 527.401 322.308 L 527.749 322.591 L 528.203 322.686 L 528.596 322.621 L 528.919 322.449 L 529.156 322.177 L 529.292 321.814 L 528.854 321.814 L 528.763 322.016 L 528.632 322.167 L 528.259 322.288 L 527.971 322.232 L 527.754 322.056 L 527.613 321.768 L 527.563 321.38 L 527.563 321.365 L 527.563 321.365 z M 527.563 320.992 L 527.618 320.644 L 527.754 320.387 L 527.961 320.23 L 528.233 320.175 L 528.501 320.23 L 528.707 320.387 L 528.834 320.644 L 528.879 320.992 L 527.563 320.992 L 527.563 320.992 z M 531.819 322.237 L 531.819 322.253 L 531.844 322.424 L 531.92 322.545 L 532.238 322.641 L 532.485 322.601 L 532.485 322.258 L 532.379 322.273 L 532.238 322.207 L 532.212 322.005 L 532.212 320.604 L 532.152 320.245 L 531.975 319.993 L 531.668 319.842 L 531.234 319.786 L 530.81 319.847 L 530.498 320.018 L 530.301 320.286 L 530.236 320.639 L 530.236 320.669 L 530.634 320.669 L 530.669 320.457 L 530.78 320.306 L 530.962 320.215 L 531.219 320.18 L 531.466 320.205 L 531.643 320.281 L 531.749 320.412 L 531.784 320.593 L 531.764 320.805 L 531.683 320.911 L 531.481 320.962 L 531.103 321.002 L 530.669 321.093 L 530.362 321.254 L 530.18 321.506 L 530.125 321.879 L 530.175 322.212 L 530.331 322.459 L 530.584 322.616 L 530.932 322.671 L 531.401 322.565 L 531.819 322.237 L 531.819 322.237 z M 531.769 321.642 L 531.708 321.905 L 531.547 322.106 L 531.305 322.237 L 531.007 322.283 L 530.815 322.258 L 530.679 322.177 L 530.594 322.036 L 530.568 321.839 L 530.589 321.663 L 530.669 321.536 L 530.992 321.395 L 531.401 321.335 L 531.769 321.214 L 531.769 321.642 L 531.769 321.642 z M 533.413 322.591 L 533.857 322.591 L 533.857 321.042 L 533.902 320.669 L 534.038 320.402 L 534.26 320.24 L 534.558 320.185 L 534.779 320.22 L 534.946 320.321 L 535.047 320.493 L 535.082 320.725 L 535.531 320.725 L 535.47 320.316 L 535.304 320.023 L 535.027 319.847 L 534.648 319.786 L 534.391 319.827 L 534.169 319.928 L 533.973 320.099 L 533.816 320.331 L 533.816 319.882 L 533.413 319.882 L 533.413 322.591 L 533.413 322.591 z M 535.808 323.428 L 535.808 323.781 L 538.844 323.781 L 538.844 323.428 L 535.808 323.428 L 535.808 323.428 z M 539.339 322.591 L 541.588 322.591 L 541.588 322.167 L 539.802 322.167 L 539.802 319.091 L 539.339 319.091 L 539.339 322.591 L 539.339 322.591 z M 542.223 321.239 L 542.304 321.854 L 542.536 322.308 L 542.904 322.591 L 543.398 322.686 L 543.888 322.591 L 544.256 322.313 L 544.488 321.859 L 544.573 321.239 L 544.488 320.624 L 544.256 320.165 L 543.888 319.887 L 543.398 319.786 L 542.904 319.887 L 542.536 320.17 L 542.304 320.624 L 542.223 321.239 L 542.223 321.239 z M 542.677 321.234 L 542.723 320.78 L 542.864 320.452 L 543.091 320.25 L 543.398 320.18 L 543.701 320.25 L 543.928 320.447 L 544.069 320.78 L 544.12 321.234 L 544.069 321.693 L 543.928 322.026 L 543.701 322.227 L 543.398 322.293 L 543.091 322.227 L 542.864 322.026 L 542.723 321.693 L 542.677 321.234 L 542.677 321.234 z M 546.031 322.591 L 546.434 320.291 L 546.838 322.591 L 547.261 322.591 L 547.927 319.882 L 547.498 319.882 L 547.05 322.182 L 546.651 319.882 L 546.212 319.882 L 545.814 322.182 L 545.365 319.882 L 544.942 319.882 L 545.607 322.591 L 546.031 322.591 L 546.031 322.591 z M 548.815 321.365 L 550.59 321.365 L 550.595 321.158 L 550.514 320.578 L 550.292 320.145 L 549.939 319.882 L 549.47 319.786 L 549.011 319.887 L 548.658 320.17 L 548.431 320.629 L 548.351 321.234 L 548.426 321.854 L 548.653 322.308 L 549.001 322.591 L 549.455 322.686 L 549.849 322.621 L 550.171 322.449 L 550.408 322.177 L 550.545 321.814 L 550.106 321.814 L 550.015 322.016 L 549.884 322.167 L 549.511 322.288 L 549.223 322.232 L 549.006 322.056 L 548.865 321.768 L 548.815 321.38 L 548.815 321.365 L 548.815 321.365 z M 548.815 320.992 L 548.87 320.644 L 549.006 320.387 L 549.213 320.23 L 549.485 320.175 L 549.753 320.23 L 549.96 320.387 L 550.086 320.644 L 550.131 320.992 L 548.815 320.992 L 548.815 320.992 z M 551.629 322.591 L 552.073 322.591 L 552.073 321.042 L 552.118 320.669 L 552.254 320.402 L 552.476 320.24 L 552.774 320.185 L 552.996 320.22 L 553.162 320.321 L 553.263 320.493 L 553.298 320.725 L 553.747 320.725 L 553.686 320.316 L 553.52 320.023 L 553.243 319.847 L 552.864 319.786 L 552.607 319.827 L 552.385 319.928 L 552.189 320.099 L 552.032 320.331 L 552.032 319.882 L 551.629 319.882 L 551.629 322.591 L 551.629 322.591 z M 557.045 322.591 L 557.509 322.591 L 557.877 321.562 L 559.274 321.562 L 559.643 322.591 L 560.117 322.591 L 558.836 319.086 L 558.321 319.086 L 557.045 322.591 L 557.045 322.591 z M 558.039 321.133 L 558.578 319.59 L 559.118 321.133 L 558.039 321.133 L 558.039 321.133 z M 561.004 321.436 L 562.225 321.436 L 562.225 321.037 L 561.004 321.037 L 561.004 321.436 L 561.004 321.436 z M 563.117 322.591 L 563.581 322.591 L 563.949 321.562 L 565.346 321.562 L 565.715 322.591 L 566.189 322.591 L 564.908 319.086 L 564.393 319.086 L 563.117 322.591 L 563.117 322.591 z M 564.111 321.133 L 564.65 319.59 L 565.19 321.133 L 564.111 321.133 L 564.111 321.133 z M 566.809 322.591 L 567.253 322.591 L 567.253 321.042 L 567.298 320.669 L 567.434 320.402 L 567.656 320.24 L 567.954 320.185 L 568.176 320.22 L 568.342 320.321 L 568.443 320.493 L 568.478 320.725 L 568.927 320.725 L 568.867 320.316 L 568.7 320.023 L 568.423 319.847 L 568.044 319.786 L 567.787 319.827 L 567.565 319.928 L 567.369 320.099 L 567.212 320.331 L 567.212 319.882 L 566.809 319.882 L 566.809 322.591 L 566.809 322.591 z M 569.502 322.591 L 569.91 322.591 L 569.91 320.78 L 569.936 320.508 L 570.011 320.311 L 570.127 320.195 L 570.279 320.15 L 570.4 320.19 L 570.48 320.291 L 570.521 320.462 L 570.536 320.689 L 570.536 322.591 L 570.919 322.591 L 570.919 320.78 L 570.944 320.513 L 571.02 320.316 L 571.141 320.195 L 571.292 320.15 L 571.413 320.19 L 571.494 320.291 L 571.544 320.689 L 571.544 322.591 L 571.953 322.591 L 571.953 320.719 L 571.928 320.331 L 571.847 320.034 L 571.686 319.852 L 571.423 319.786 L 571.116 319.887 L 570.879 320.18 L 570.692 319.892 L 570.379 319.786 L 570.092 319.887 L 569.895 320.17 L 569.895 319.882 L 569.502 319.882 L 569.502 322.591 L 569.502 322.591 z M 576.184 321.436 L 577.405 321.436 L 577.405 321.037 L 576.184 321.037 L 576.184 321.436 L 576.184 321.436 z M 581.802 322.591 L 582.266 322.591 L 582.266 321.113 L 582.781 321.113 L 583.3 321.088 L 583.714 320.911 L 583.981 320.568 L 584.072 320.099 L 584.001 319.665 L 583.799 319.348 L 583.467 319.156 L 583.013 319.091 L 581.802 319.091 L 581.802 322.591 L 581.802 322.591 z M 582.887 319.519 L 583.189 319.549 L 583.411 319.645 L 583.542 319.822 L 583.588 320.099 L 583.537 320.392 L 583.401 320.568 L 583.169 320.659 L 582.851 320.684 L 582.266 320.684 L 582.266 319.519 L 582.887 319.519 L 582.887 319.519 z M 585.741 319.343 L 585.741 322.217 L 584.828 322.217 L 584.828 322.591 L 587.093 322.591 L 587.093 322.217 L 586.185 322.217 L 586.185 318.969 L 585.045 318.969 L 585.045 319.343 L 585.741 319.343 L 585.741 319.343 z M 589.503 322.237 L 589.503 322.253 L 589.529 322.424 L 589.604 322.545 L 589.922 322.641 L 590.169 322.601 L 590.169 322.258 L 590.063 322.273 L 589.922 322.207 L 589.897 322.005 L 589.897 320.604 L 589.836 320.245 L 589.66 319.993 L 589.352 319.842 L 588.918 319.786 L 588.495 319.847 L 588.182 320.018 L 587.985 320.286 L 587.92 320.639 L 587.92 320.669 L 588.318 320.669 L 588.353 320.457 L 588.464 320.306 L 588.646 320.215 L 588.903 320.18 L 589.15 320.205 L 589.327 320.281 L 589.433 320.412 L 589.468 320.593 L 589.448 320.805 L 589.367 320.911 L 589.165 320.962 L 588.787 321.002 L 588.353 321.093 L 588.046 321.254 L 587.864 321.506 L 587.809 321.879 L 587.859 322.212 L 588.016 322.459 L 588.268 322.616 L 588.616 322.671 L 589.085 322.565 L 589.503 322.237 L 589.503 322.237 z M 589.453 321.642 L 589.392 321.905 L 589.231 322.106 L 588.989 322.237 L 588.691 322.283 L 588.5 322.258 L 588.364 322.177 L 588.278 322.036 L 588.253 321.839 L 588.273 321.663 L 588.353 321.536 L 588.676 321.395 L 589.085 321.335 L 589.453 321.214 L 589.453 321.642 L 589.453 321.642 z M 592.595 320.301 L 592.438 320.074 L 592.262 319.913 L 592.055 319.822 L 591.818 319.786 L 591.389 319.887 L 591.057 320.17 L 590.84 320.624 L 590.764 321.234 L 590.84 321.849 L 591.057 322.303 L 591.389 322.591 L 591.818 322.686 L 592.055 322.656 L 592.257 322.57 L 592.433 322.414 L 592.595 322.177 L 592.595 323.64 L 593.039 323.64 L 593.039 319.882 L 592.595 319.882 L 592.595 320.301 L 592.595 320.301 z M 591.218 321.234 L 591.263 320.785 L 591.405 320.457 L 591.616 320.255 L 591.894 320.185 L 592.186 320.255 L 592.408 320.452 L 592.539 320.78 L 592.59 321.234 L 592.539 321.693 L 592.408 322.021 L 592.186 322.222 L 591.894 322.288 L 591.616 322.222 L 591.405 322.021 L 591.263 321.688 L 591.218 321.234 L 591.218 321.234 z M 596.054 319.882 L 595.611 319.882 L 595.611 321.446 L 595.56 321.809 L 595.414 322.071 L 595.187 322.232 L 594.889 322.283 L 594.652 322.243 L 594.501 322.122 L 594.415 321.915 L 594.395 321.622 L 594.395 319.882 L 593.951 319.882 L 593.951 321.663 L 593.967 322.021 L 594.062 322.318 L 594.355 322.591 L 594.824 322.686 L 595.076 322.651 L 595.293 322.56 L 595.479 322.404 L 595.631 322.177 L 595.631 322.591 L 596.054 322.591 L 596.054 319.882 L 596.054 319.882 z M 597.391 321.365 L 599.166 321.365 L 599.171 321.158 L 599.09 320.578 L 598.869 320.145 L 598.516 319.882 L 598.047 319.786 L 597.588 319.887 L 597.235 320.17 L 597.008 320.629 L 596.927 321.234 L 597.003 321.854 L 597.229 322.308 L 597.578 322.591 L 598.031 322.686 L 598.425 322.621 L 598.747 322.449 L 598.985 322.177 L 599.121 321.814 L 598.682 321.814 L 598.591 322.016 L 598.46 322.167 L 598.087 322.288 L 597.799 322.232 L 597.583 322.056 L 597.441 321.768 L 597.391 321.38 L 597.391 321.365 L 597.391 321.365 z M 597.391 320.992 L 597.446 320.644 L 597.583 320.387 L 597.789 320.23 L 598.062 320.175 L 598.329 320.23 L 598.536 320.387 L 598.662 320.644 L 598.707 320.992 L 597.391 320.992 L 597.391 320.992 z M 604.739 322.172 L 604.739 322.591 L 605.183 322.591 L 605.183 318.969 L 604.744 318.969 L 604.744 320.296 L 604.406 319.913 L 604.199 319.822 L 603.962 319.786 L 603.534 319.887 L 603.201 320.17 L 602.984 320.624 L 602.908 321.234 L 602.984 321.844 L 603.201 322.303 L 603.534 322.591 L 603.962 322.686 L 604.199 322.651 L 604.411 322.56 L 604.739 322.172 L 604.739 322.172 z M 604.038 320.185 L 604.33 320.255 L 604.552 320.452 L 604.683 320.78 L 604.734 321.234 L 604.683 321.693 L 604.552 322.021 L 604.33 322.222 L 604.038 322.288 L 603.76 322.222 L 603.549 322.021 L 603.407 321.688 L 603.362 321.234 L 603.407 320.785 L 603.549 320.457 L 603.76 320.255 L 604.038 320.185 L 604.038 320.185 z M 608.198 319.882 L 607.755 319.882 L 607.755 321.446 L 607.704 321.809 L 607.558 322.071 L 607.331 322.232 L 607.034 322.283 L 606.796 322.243 L 606.645 322.122 L 606.559 321.915 L 606.539 321.622 L 606.539 319.882 L 606.095 319.882 L 606.095 321.663 L 606.111 322.021 L 606.206 322.318 L 606.499 322.591 L 606.968 322.686 L 607.22 322.651 L 607.437 322.56 L 607.624 322.404 L 607.775 322.177 L 607.775 322.591 L 608.198 322.591 L 608.198 319.882 L 608.198 319.882 z M 612.601 322.172 L 612.929 322.56 L 613.378 322.686 L 613.802 322.591 L 614.139 322.303 L 614.351 321.844 L 614.432 321.234 L 614.351 320.624 L 614.134 320.17 L 613.802 319.887 L 613.378 319.786 L 612.934 319.918 L 612.753 320.079 L 612.601 320.296 L 612.601 318.969 L 612.157 318.969 L 612.157 322.591 L 612.601 322.591 L 612.601 322.172 L 612.601 322.172 z M 613.978 321.234 L 613.928 321.688 L 613.791 322.021 L 613.575 322.222 L 613.302 322.288 L 613.005 322.222 L 612.788 322.021 L 612.652 321.693 L 612.606 321.234 L 612.652 320.78 L 612.788 320.452 L 613.005 320.255 L 613.302 320.185 L 613.575 320.255 L 613.791 320.457 L 613.928 320.785 L 613.978 321.234 L 613.978 321.234 z M 616.827 322.237 L 616.827 322.253 L 616.853 322.424 L 616.928 322.545 L 617.246 322.641 L 617.493 322.601 L 617.493 322.258 L 617.387 322.273 L 617.246 322.207 L 617.221 322.005 L 617.221 320.604 L 617.16 320.245 L 616.984 319.993 L 616.676 319.842 L 616.242 319.786 L 615.819 319.847 L 615.506 320.018 L 615.309 320.286 L 615.244 320.639 L 615.244 320.669 L 615.642 320.669 L 615.678 320.457 L 615.789 320.306 L 615.97 320.215 L 616.227 320.18 L 616.474 320.205 L 616.651 320.281 L 616.757 320.412 L 616.792 320.593 L 616.772 320.805 L 616.691 320.911 L 616.49 320.962 L 616.111 321.002 L 615.678 321.093 L 615.37 321.254 L 615.188 321.506 L 615.133 321.879 L 615.183 322.212 L 615.34 322.459 L 615.592 322.616 L 615.94 322.671 L 616.409 322.565 L 616.827 322.237 L 616.827 322.237 z M 616.777 321.642 L 616.716 321.905 L 616.555 322.106 L 616.313 322.237 L 616.015 322.283 L 615.824 322.258 L 615.688 322.177 L 615.602 322.036 L 615.577 321.839 L 615.597 321.663 L 615.678 321.536 L 616 321.395 L 616.409 321.335 L 616.777 321.214 L 616.777 321.642 L 616.777 321.642 z M 619.581 321.012 L 619.152 320.911 L 618.835 320.795 L 618.729 320.558 L 618.759 320.392 L 618.865 320.271 L 619.036 320.195 L 619.283 320.165 L 619.521 320.195 L 619.707 320.286 L 619.828 320.422 L 619.879 320.604 L 620.312 320.604 L 620.312 320.593 L 620.237 320.266 L 620.03 320.008 L 619.707 319.847 L 619.283 319.786 L 618.855 319.847 L 618.542 320.013 L 618.345 320.261 L 618.285 320.573 L 618.33 320.876 L 618.471 321.088 L 618.703 321.239 L 619.041 321.345 L 619.536 321.466 L 619.838 321.592 L 619.919 321.693 L 619.949 321.844 L 619.904 322.031 L 619.783 322.172 L 619.586 322.263 L 619.324 322.293 L 619.046 322.263 L 618.845 322.157 L 618.709 321.985 L 618.653 321.748 L 618.224 321.748 L 618.295 322.152 L 618.502 322.444 L 618.83 322.621 L 619.283 322.686 L 619.758 322.621 L 620.106 322.444 L 620.317 322.162 L 620.393 321.794 L 620.337 321.476 L 620.181 321.259 L 619.924 321.118 L 619.581 321.012 L 619.581 321.012 z" stroke="none" fill-rule="evenodd" fill="rgb(0, 0, 0)"/></g><g stroke="rgb(0, 0, 0)" stroke-width="0.13" stroke-linecap="butt" stroke-linejoin="miter" fill="none"><path d="M 839.994 78.2036 L 840.235 78.2036 L 840.235 77.4437 L 840.482 77.4437 L 840.663 77.4514 L 840.777 77.4877 L 840.839 77.5734 L 840.865 77.7264 L 840.878 77.9598 L 840.894 78.1129 L 840.925 78.2036 L 841.197 78.2036 L 841.197 78.1544 L 841.138 78.0817 L 841.117 77.9468 L 841.099 77.6563 L 841.055 77.441 L 840.995 77.3736 L 840.902 77.3243 L 841.005 77.2595 L 841.078 77.1687 L 841.125 77.0546 L 841.14 76.9171 L 841.104 76.6993 L 841 76.5358 L 840.829 76.4373 L 840.596 76.4036 L 839.994 76.4036 L 839.994 78.2036 L 839.994 78.2036 z M 840.528 76.624 L 840.686 76.6396 L 840.798 76.6889 L 840.868 76.7797 L 840.891 76.9223 L 840.865 77.0728 L 840.795 77.1635 L 840.676 77.2102 L 840.513 77.2232 L 840.235 77.2232 L 840.235 76.624 L 840.528 76.624 L 840.528 76.624 z M 841.797 77.5734 L 842.71 77.5734 L 842.712 77.467 L 842.671 77.1687 L 842.557 76.9457 L 842.375 76.8108 L 842.134 76.7615 L 841.898 76.8134 L 841.716 76.9586 L 841.599 77.1946 L 841.558 77.5059 L 841.597 77.825 L 841.714 78.0583 L 841.893 78.2036 L 842.126 78.2529 L 842.328 78.2192 L 842.494 78.131 L 842.616 77.9909 L 842.686 77.8042 L 842.461 77.8042 L 842.414 77.908 L 842.346 77.9857 L 842.154 78.048 L 842.007 78.0195 L 841.895 77.9286 L 841.823 77.7808 L 841.797 77.5811 L 841.797 77.5734 L 841.797 77.5734 z M 841.797 77.3814 L 841.825 77.2025 L 841.895 77.0702 L 842.001 76.9897 L 842.142 76.9612 L 842.279 76.9897 L 842.385 77.0702 L 842.45 77.2025 L 842.474 77.3814 L 841.797 77.3814 L 841.797 77.3814 z M 843.986 78.022 L 843.986 78.0298 L 843.999 78.118 L 844.038 78.1803 L 844.201 78.2296 L 844.328 78.2088 L 844.328 78.0324 L 844.274 78.0402 L 844.201 78.0065 L 844.188 77.9028 L 844.188 77.1817 L 844.157 76.9976 L 844.066 76.8679 L 843.908 76.79 L 843.685 76.7615 L 843.467 76.7926 L 843.306 76.8808 L 843.205 77.0183 L 843.171 77.1998 L 843.171 77.2154 L 843.376 77.2154 L 843.394 77.1064 L 843.451 77.0287 L 843.545 76.982 L 843.677 76.9638 L 843.804 76.9768 L 843.895 77.0157 L 843.949 77.0831 L 843.967 77.1765 L 843.957 77.2855 L 843.916 77.3399 L 843.812 77.3658 L 843.617 77.3866 L 843.394 77.4333 L 843.236 77.5163 L 843.143 77.6459 L 843.114 77.8379 L 843.14 78.0091 L 843.22 78.1362 L 843.35 78.2166 L 843.529 78.2451 L 843.77 78.1907 L 843.986 78.022 L 843.986 78.022 z M 843.96 77.716 L 843.929 77.8509 L 843.846 77.9546 L 843.721 78.022 L 843.568 78.0454 L 843.469 78.0324 L 843.399 77.9909 L 843.355 77.9183 L 843.342 77.8171 L 843.353 77.7264 L 843.394 77.6615 L 843.56 77.5889 L 843.77 77.5578 L 843.96 77.4955 L 843.96 77.716 L 843.96 77.716 z M 844.805 78.2036 L 845.034 78.2036 L 845.034 77.4073 L 845.057 77.2154 L 845.127 77.0779 L 845.241 76.9949 L 845.394 76.9664 L 845.508 76.9846 L 845.594 77.0364 L 845.646 77.1246 L 845.664 77.244 L 845.895 77.244 L 845.863 77.0339 L 845.778 76.8834 L 845.635 76.7926 L 845.441 76.7615 L 845.308 76.7823 L 845.194 76.8341 L 845.093 76.9223 L 845.013 77.0416 L 845.013 76.8108 L 844.805 76.8108 L 844.805 78.2036 L 844.805 78.2036 z M 846.037 78.6342 L 846.037 78.8157 L 847.599 78.8157 L 847.599 78.6342 L 846.037 78.6342 L 846.037 78.6342 z M 847.853 78.2036 L 849.01 78.2036 L 849.01 77.9857 L 848.091 77.9857 L 848.091 76.4036 L 847.853 76.4036 L 847.853 78.2036 L 847.853 78.2036 z M 849.604 77.5734 L 850.517 77.5734 L 850.519 77.467 L 850.478 77.1687 L 850.364 76.9457 L 850.182 76.8108 L 849.941 76.7615 L 849.705 76.8134 L 849.523 76.9586 L 849.406 77.1946 L 849.365 77.5059 L 849.404 77.825 L 849.521 78.0583 L 849.7 78.2036 L 849.933 78.2529 L 850.135 78.2192 L 850.301 78.131 L 850.423 77.9909 L 850.493 77.8042 L 850.268 77.8042 L 850.221 77.908 L 850.153 77.9857 L 849.961 78.048 L 849.814 78.0195 L 849.702 77.9286 L 849.63 77.7808 L 849.604 77.5811 L 849.604 77.5734 L 849.604 77.5734 z M 849.604 77.3814 L 849.632 77.2025 L 849.702 77.0702 L 849.808 76.9897 L 849.949 76.9612 L 850.086 76.9897 L 850.192 77.0702 L 850.257 77.2025 L 850.281 77.3814 L 849.604 77.3814 L 849.604 77.3814 z M 851.282 77.052 L 851.282 78.2036 L 851.51 78.2036 L 851.51 77.052 L 852.029 77.052 L 852.029 76.8575 L 851.51 76.8575 L 851.51 76.7719 L 851.528 76.6682 L 851.588 76.5981 L 851.689 76.5566 L 851.834 76.541 L 852.029 76.5514 L 852.029 76.3543 L 851.782 76.3413 L 851.559 76.3647 L 851.404 76.4347 L 851.31 76.5566 L 851.282 76.7304 L 851.282 76.8575 L 850.864 76.8575 L 850.864 77.052 L 851.282 77.052 L 851.282 77.052 z M 852.833 77.052 L 852.833 77.7497 L 852.848 77.9753 L 852.921 78.131 L 853.066 78.2217 L 853.313 78.2529 L 853.582 78.2399 L 853.582 78.0428 L 853.385 78.0583 L 853.206 78.0376 L 853.11 77.9728 L 853.069 77.8638 L 853.061 77.7108 L 853.061 77.052 L 853.582 77.052 L 853.582 76.8575 L 853.061 76.8575 L 853.061 76.4503 L 852.833 76.4503 L 852.833 76.8575 L 852.438 76.8575 L 852.438 77.052 L 852.833 77.052 L 852.833 77.052 z M 853.844 78.6342 L 853.844 78.8157 L 855.406 78.8157 L 855.406 78.6342 L 853.844 78.6342 L 853.844 78.6342 z M 855.66 78.2036 L 856.817 78.2036 L 856.817 77.9857 L 855.898 77.9857 L 855.898 76.4036 L 855.66 76.4036 L 855.66 78.2036 L 855.66 78.2036 z M 857.143 77.5085 L 857.185 77.825 L 857.304 78.0583 L 857.494 78.2036 L 857.748 78.2529 L 857.999 78.2036 L 858.189 78.061 L 858.308 77.8275 L 858.352 77.5085 L 858.308 77.1921 L 858.189 76.9561 L 857.999 76.8134 L 857.748 76.7615 L 857.494 76.8134 L 857.304 76.9586 L 857.185 77.1921 L 857.143 77.5085 L 857.143 77.5085 z M 857.377 77.5059 L 857.4 77.2725 L 857.473 77.1039 L 857.59 77.0001 L 857.748 76.9638 L 857.903 77.0001 L 858.02 77.1013 L 858.093 77.2725 L 858.119 77.5059 L 858.093 77.7419 L 858.02 77.9131 L 857.903 78.0168 L 857.748 78.0506 L 857.59 78.0168 L 857.473 77.9131 L 857.4 77.7419 L 857.377 77.5059 L 857.377 77.5059 z M 859.102 78.2036 L 859.309 77.0209 L 859.517 78.2036 L 859.734 78.2036 L 860.077 76.8108 L 859.856 76.8108 L 859.626 77.9935 L 859.421 76.8108 L 859.195 76.8108 L 858.99 77.9935 L 858.759 76.8108 L 858.541 76.8108 L 858.884 78.2036 L 859.102 78.2036 L 859.102 78.2036 z M 860.533 77.5734 L 861.446 77.5734 L 861.449 77.467 L 861.407 77.1687 L 861.293 76.9457 L 861.112 76.8108 L 860.871 76.7615 L 860.635 76.8134 L 860.453 76.9586 L 860.336 77.1946 L 860.295 77.5059 L 860.334 77.825 L 860.45 78.0583 L 860.629 78.2036 L 860.863 78.2529 L 861.065 78.2192 L 861.231 78.131 L 861.353 77.9909 L 861.423 77.8042 L 861.197 77.8042 L 861.151 77.908 L 861.083 77.9857 L 860.891 78.048 L 860.743 78.0195 L 860.632 77.9286 L 860.559 77.7808 L 860.533 77.5811 L 860.533 77.5734 L 860.533 77.5734 z M 860.533 77.3814 L 860.562 77.2025 L 860.632 77.0702 L 860.738 76.9897 L 860.878 76.9612 L 861.016 76.9897 L 861.122 77.0702 L 861.187 77.2025 L 861.21 77.3814 L 860.533 77.3814 L 860.533 77.3814 z M 861.981 78.2036 L 862.209 78.2036 L 862.209 77.4073 L 862.232 77.2154 L 862.302 77.0779 L 862.416 76.9949 L 862.569 76.9664 L 862.684 76.9846 L 862.769 77.0364 L 862.821 77.1246 L 862.839 77.244 L 863.07 77.244 L 863.039 77.0339 L 862.953 76.8834 L 862.811 76.7926 L 862.616 76.7615 L 862.484 76.7823 L 862.37 76.8341 L 862.269 76.9223 L 862.188 77.0416 L 862.188 76.8108 L 861.981 76.8108 L 861.981 78.2036 L 861.981 78.2036 z M 864.766 78.2036 L 865.005 78.2036 L 865.194 77.6745 L 865.913 77.6745 L 866.102 78.2036 L 866.346 78.2036 L 865.687 76.401 L 865.422 76.401 L 864.766 78.2036 L 864.766 78.2036 z M 865.277 77.454 L 865.555 76.6603 L 865.832 77.454 L 865.277 77.454 L 865.277 77.454 z M 866.802 77.6097 L 867.43 77.6097 L 867.43 77.4047 L 866.802 77.4047 L 866.802 77.6097 L 866.802 77.6097 z M 867.889 78.2036 L 868.128 78.2036 L 868.317 77.6745 L 869.035 77.6745 L 869.225 78.2036 L 869.469 78.2036 L 868.81 76.401 L 868.545 76.401 L 867.889 78.2036 L 867.889 78.2036 z M 868.4 77.454 L 868.678 76.6603 L 868.955 77.454 L 868.4 77.454 L 868.4 77.454 z M 869.788 78.2036 L 870.016 78.2036 L 870.016 77.4073 L 870.039 77.2154 L 870.109 77.0779 L 870.223 76.9949 L 870.376 76.9664 L 870.491 76.9846 L 870.576 77.0364 L 870.628 77.1246 L 870.646 77.244 L 870.877 77.244 L 870.846 77.0339 L 870.76 76.8834 L 870.618 76.7926 L 870.423 76.7615 L 870.291 76.7823 L 870.177 76.8341 L 870.076 76.9223 L 869.995 77.0416 L 869.995 76.8108 L 869.788 76.8108 L 869.788 78.2036 L 869.788 78.2036 z M 871.173 78.2036 L 871.383 78.2036 L 871.383 77.2725 L 871.396 77.1324 L 871.435 77.0313 L 871.494 76.9716 L 871.572 76.9482 L 871.634 76.969 L 871.676 77.0209 L 871.697 77.1091 L 871.704 77.2258 L 871.704 78.2036 L 871.901 78.2036 L 871.901 77.2725 L 871.914 77.135 L 871.953 77.0339 L 872.016 76.9716 L 872.093 76.9482 L 872.156 76.969 L 872.197 77.0209 L 872.223 77.2258 L 872.223 78.2036 L 872.433 78.2036 L 872.433 77.2413 L 872.42 77.0416 L 872.379 76.8886 L 872.296 76.7952 L 872.161 76.7615 L 872.003 76.8134 L 871.881 76.9638 L 871.785 76.816 L 871.624 76.7615 L 871.476 76.8134 L 871.375 76.9586 L 871.375 76.8108 L 871.173 76.8108 L 871.173 78.2036 L 871.173 78.2036 z" stroke="none" fill-rule="evenodd" fill="rgb(0, 0, 0)"/></g><g stroke="rgb(0, 0, 0)" stroke-width="0.13" stroke-linecap="butt" stroke-linejoin="miter" fill="none"><path d="M 849.396 81.3134 L 850.537 81.3134 L 850.537 81.0955 L 849.635 81.0955 L 849.635 80.486 L 850.439 80.486 L 850.439 80.2708 L 849.635 80.2708 L 849.635 79.7313 L 850.516 79.7313 L 850.516 79.5134 L 849.396 79.5134 L 849.396 81.3134 L 849.396 81.3134 z M 850.721 81.744 L 850.721 81.9255 L 852.283 81.9255 L 852.283 81.744 L 850.721 81.744 L 850.721 81.744 z M 852.275 81.3134 L 852.513 81.3134 L 852.703 80.7843 L 853.421 80.7843 L 853.611 81.3134 L 853.854 81.3134 L 853.196 79.5108 L 852.931 79.5108 L 852.275 81.3134 L 852.275 81.3134 z M 852.786 80.5638 L 853.063 79.7701 L 853.341 80.5638 L 852.786 80.5638 L 852.786 80.5638 z M 854.173 81.3134 L 854.402 81.3134 L 854.402 80.5172 L 854.425 80.3252 L 854.495 80.1877 L 854.609 80.1047 L 854.762 80.0762 L 854.876 80.0944 L 854.962 80.1462 L 855.014 80.2344 L 855.032 80.3538 L 855.263 80.3538 L 855.232 80.1437 L 855.146 79.9932 L 855.003 79.9024 L 854.809 79.8713 L 854.677 79.8921 L 854.563 79.9439 L 854.461 80.0321 L 854.381 80.1514 L 854.381 79.9206 L 854.173 79.9206 L 854.173 81.3134 L 854.173 81.3134 z M 855.735 81.3134 L 855.963 81.3134 L 855.963 80.5172 L 855.986 80.3252 L 856.056 80.1877 L 856.171 80.1047 L 856.324 80.0762 L 856.438 80.0944 L 856.523 80.1462 L 856.575 80.2344 L 856.593 80.3538 L 856.824 80.3538 L 856.793 80.1437 L 856.708 79.9932 L 856.565 79.9024 L 856.37 79.8713 L 856.238 79.8921 L 856.124 79.9439 L 856.023 80.0321 L 855.942 80.1514 L 855.942 79.9206 L 855.735 79.9206 L 855.735 81.3134 L 855.735 81.3134 z M 857.908 81.1215 L 857.908 79.9673 L 857.322 79.9673 L 857.322 80.1618 L 857.68 80.1618 L 857.68 81.1215 L 857.213 81.1215 L 857.213 81.3134 L 858.38 81.3134 L 858.38 81.1215 L 857.908 81.1215 L 857.908 81.1215 z M 857.916 79.4511 L 857.675 79.4511 L 857.675 79.7105 L 857.916 79.7105 L 857.916 79.4511 L 857.916 79.4511 z M 859.493 79.7313 L 859.234 79.2903 L 858.98 79.2903 L 859.34 79.7313 L 859.493 79.7313 L 859.493 79.7313 z M 858.972 80.6832 L 859.885 80.6832 L 859.887 80.5768 L 859.846 80.2785 L 859.732 80.0555 L 859.55 79.9206 L 859.309 79.8713 L 859.073 79.9232 L 858.891 80.0684 L 858.775 80.3044 L 858.733 80.6157 L 858.772 80.9348 L 858.889 81.1682 L 859.068 81.3134 L 859.301 81.3627 L 859.503 81.329 L 859.669 81.2408 L 859.791 81.1007 L 859.861 80.914 L 859.636 80.914 L 859.589 81.0178 L 859.522 81.0955 L 859.33 81.1578 L 859.182 81.1293 L 859.07 81.0385 L 858.998 80.8906 L 858.972 80.6909 L 858.972 80.6832 L 858.972 80.6832 z M 858.972 80.4912 L 859 80.3123 L 859.07 80.18 L 859.177 80.0995 L 859.317 80.071 L 859.454 80.0995 L 859.561 80.18 L 859.625 80.3123 L 859.649 80.4912 L 858.972 80.4912 L 858.972 80.4912 z M 860.419 81.3134 L 860.647 81.3134 L 860.647 80.5172 L 860.671 80.3252 L 860.741 80.1877 L 860.855 80.1047 L 861.008 80.0762 L 861.122 80.0944 L 861.208 80.1462 L 861.259 80.2344 L 861.278 80.3538 L 861.508 80.3538 L 861.477 80.1437 L 861.392 79.9932 L 861.249 79.9024 L 861.055 79.8713 L 860.922 79.8921 L 860.808 79.9439 L 860.707 80.0321 L 860.627 80.1514 L 860.627 79.9206 L 860.419 79.9206 L 860.419 81.3134 L 860.419 81.3134 z M 862.095 80.6832 L 863.008 80.6832 L 863.01 80.5768 L 862.969 80.2785 L 862.855 80.0555 L 862.673 79.9206 L 862.432 79.8713 L 862.196 79.9232 L 862.014 80.0684 L 861.897 80.3044 L 861.856 80.6157 L 861.895 80.9348 L 862.012 81.1682 L 862.191 81.3134 L 862.424 81.3627 L 862.626 81.329 L 862.792 81.2408 L 862.914 81.1007 L 862.984 80.914 L 862.759 80.914 L 862.712 81.0178 L 862.644 81.0955 L 862.453 81.1578 L 862.305 81.1293 L 862.193 81.0385 L 862.121 80.8906 L 862.095 80.6909 L 862.095 80.6832 L 862.095 80.6832 z M 862.095 80.4912 L 862.123 80.3123 L 862.193 80.18 L 862.299 80.0995 L 862.44 80.071 L 862.577 80.0995 L 862.683 80.18 L 862.748 80.3123 L 862.772 80.4912 L 862.095 80.4912 L 862.095 80.4912 z" stroke="none" fill-rule="evenodd" fill="rgb(0, 0, 0)"/></g><g stroke="rgb(0, 0, 0)" stroke-width="0.13" stroke-linecap="butt" stroke-linejoin="miter" fill="none"><path d="M 851.498 195.44 L 851.739 195.44 L 851.739 194.68 L 851.986 194.68 L 852.167 194.687 L 852.281 194.724 L 852.344 194.809 L 852.37 194.962 L 852.383 195.196 L 852.398 195.349 L 852.429 195.44 L 852.702 195.44 L 852.702 195.39 L 852.642 195.318 L 852.621 195.183 L 852.603 194.892 L 852.559 194.677 L 852.499 194.61 L 852.406 194.56 L 852.51 194.496 L 852.582 194.405 L 852.629 194.291 L 852.645 194.153 L 852.608 193.935 L 852.504 193.772 L 852.333 193.673 L 852.1 193.64 L 851.498 193.64 L 851.498 195.44 L 851.498 195.44 z M 852.032 193.86 L 852.191 193.876 L 852.302 193.925 L 852.372 194.016 L 852.396 194.158 L 852.37 194.309 L 852.3 194.4 L 852.18 194.446 L 852.017 194.459 L 851.739 194.459 L 851.739 193.86 L 852.032 193.86 L 852.032 193.86 z M 853.301 194.809 L 854.214 194.809 L 854.216 194.703 L 854.175 194.405 L 854.061 194.182 L 853.879 194.047 L 853.638 193.998 L 853.402 194.049 L 853.22 194.195 L 853.104 194.431 L 853.062 194.742 L 853.101 195.061 L 853.218 195.294 L 853.397 195.44 L 853.63 195.489 L 853.832 195.455 L 853.998 195.367 L 854.12 195.227 L 854.19 195.04 L 853.965 195.04 L 853.918 195.144 L 853.851 195.222 L 853.659 195.284 L 853.511 195.255 L 853.399 195.165 L 853.327 195.017 L 853.301 194.817 L 853.301 194.809 L 853.301 194.809 z M 853.301 194.617 L 853.329 194.438 L 853.399 194.306 L 853.506 194.226 L 853.646 194.197 L 853.783 194.226 L 853.889 194.306 L 853.954 194.438 L 853.978 194.617 L 853.301 194.617 L 853.301 194.617 z M 855.49 195.258 L 855.49 195.266 L 855.503 195.354 L 855.542 195.416 L 855.705 195.466 L 855.832 195.445 L 855.832 195.268 L 855.778 195.276 L 855.705 195.242 L 855.692 195.139 L 855.692 194.418 L 855.661 194.234 L 855.57 194.104 L 855.412 194.026 L 855.189 193.998 L 854.971 194.029 L 854.81 194.117 L 854.709 194.254 L 854.675 194.436 L 854.675 194.451 L 854.88 194.451 L 854.898 194.342 L 854.956 194.265 L 855.049 194.218 L 855.181 194.2 L 855.308 194.213 L 855.399 194.252 L 855.453 194.319 L 855.472 194.413 L 855.461 194.521 L 855.42 194.576 L 855.316 194.602 L 855.121 194.623 L 854.898 194.669 L 854.74 194.752 L 854.647 194.882 L 854.618 195.074 L 854.644 195.245 L 854.725 195.372 L 854.854 195.453 L 855.033 195.481 L 855.274 195.427 L 855.49 195.258 L 855.49 195.258 z M 855.464 194.952 L 855.433 195.087 L 855.35 195.191 L 855.225 195.258 L 855.072 195.281 L 854.974 195.268 L 854.904 195.227 L 854.859 195.154 L 854.847 195.053 L 854.857 194.962 L 854.898 194.898 L 855.064 194.825 L 855.274 194.794 L 855.464 194.732 L 855.464 194.952 L 855.464 194.952 z M 856.309 195.44 L 856.538 195.44 L 856.538 194.643 L 856.561 194.451 L 856.631 194.314 L 856.745 194.231 L 856.898 194.202 L 857.012 194.221 L 857.098 194.272 L 857.15 194.361 L 857.168 194.48 L 857.399 194.48 L 857.368 194.27 L 857.282 194.119 L 857.139 194.029 L 856.945 193.998 L 856.813 194.018 L 856.698 194.07 L 856.597 194.158 L 856.517 194.278 L 856.517 194.047 L 856.309 194.047 L 856.309 195.44 L 856.309 195.44 z M 857.541 195.87 L 857.541 196.052 L 859.103 196.052 L 859.103 195.87 L 857.541 195.87 L 857.541 195.87 z M 859.357 195.44 L 860.514 195.44 L 860.514 195.222 L 859.596 195.222 L 859.596 193.64 L 859.357 193.64 L 859.357 195.44 L 859.357 195.44 z M 861.108 194.809 L 862.021 194.809 L 862.023 194.703 L 861.982 194.405 L 861.868 194.182 L 861.686 194.047 L 861.445 193.998 L 861.209 194.049 L 861.027 194.195 L 860.911 194.431 L 860.869 194.742 L 860.908 195.061 L 861.025 195.294 L 861.204 195.44 L 861.437 195.489 L 861.639 195.455 L 861.805 195.367 L 861.927 195.227 L 861.997 195.04 L 861.772 195.04 L 861.725 195.144 L 861.658 195.222 L 861.466 195.284 L 861.318 195.255 L 861.206 195.165 L 861.134 195.017 L 861.108 194.817 L 861.108 194.809 L 861.108 194.809 z M 861.108 194.617 L 861.136 194.438 L 861.206 194.306 L 861.313 194.226 L 861.453 194.197 L 861.59 194.226 L 861.696 194.306 L 861.761 194.438 L 861.785 194.617 L 861.108 194.617 L 861.108 194.617 z M 862.786 194.288 L 862.786 195.44 L 863.014 195.44 L 863.014 194.288 L 863.533 194.288 L 863.533 194.094 L 863.014 194.094 L 863.014 194.008 L 863.032 193.904 L 863.092 193.834 L 863.193 193.793 L 863.338 193.777 L 863.533 193.787 L 863.533 193.59 L 863.286 193.577 L 863.063 193.601 L 862.908 193.671 L 862.814 193.793 L 862.786 193.966 L 862.786 194.094 L 862.368 194.094 L 862.368 194.288 L 862.786 194.288 L 862.786 194.288 z M 864.337 194.288 L 864.337 194.986 L 864.352 195.211 L 864.425 195.367 L 864.57 195.458 L 864.817 195.489 L 865.086 195.476 L 865.086 195.279 L 864.889 195.294 L 864.71 195.274 L 864.614 195.209 L 864.573 195.1 L 864.565 194.947 L 864.565 194.288 L 865.086 194.288 L 865.086 194.094 L 864.565 194.094 L 864.565 193.686 L 864.337 193.686 L 864.337 194.094 L 863.943 194.094 L 863.943 194.288 L 864.337 194.288 L 864.337 194.288 z M 865.348 195.87 L 865.348 196.052 L 866.91 196.052 L 866.91 195.87 L 865.348 195.87 L 865.348 195.87 z M 867.164 195.44 L 868.321 195.44 L 868.321 195.222 L 867.403 195.222 L 867.403 193.64 L 867.164 193.64 L 867.164 195.44 L 867.164 195.44 z M 868.648 194.745 L 868.689 195.061 L 868.808 195.294 L 868.998 195.44 L 869.252 195.489 L 869.503 195.44 L 869.693 195.297 L 869.812 195.064 L 869.856 194.745 L 869.812 194.428 L 869.693 194.192 L 869.503 194.049 L 869.252 193.998 L 868.998 194.049 L 868.808 194.195 L 868.689 194.428 L 868.648 194.745 L 868.648 194.745 z M 868.881 194.742 L 868.904 194.508 L 868.977 194.34 L 869.094 194.236 L 869.252 194.2 L 869.408 194.236 L 869.524 194.337 L 869.597 194.508 L 869.623 194.742 L 869.597 194.978 L 869.524 195.149 L 869.408 195.253 L 869.252 195.287 L 869.094 195.253 L 868.977 195.149 L 868.904 194.978 L 868.881 194.742 L 868.881 194.742 z M 870.606 195.44 L 870.813 194.257 L 871.021 195.44 L 871.239 195.44 L 871.581 194.047 L 871.361 194.047 L 871.13 195.23 L 870.925 194.047 L 870.699 194.047 L 870.494 195.23 L 870.263 194.047 L 870.046 194.047 L 870.388 195.44 L 870.606 195.44 L 870.606 195.44 z M 872.038 194.809 L 872.951 194.809 L 872.953 194.703 L 872.912 194.405 L 872.797 194.182 L 872.616 194.047 L 872.375 193.998 L 872.139 194.049 L 871.957 194.195 L 871.84 194.431 L 871.799 194.742 L 871.838 195.061 L 871.955 195.294 L 872.133 195.44 L 872.367 195.489 L 872.569 195.455 L 872.735 195.367 L 872.857 195.227 L 872.927 195.04 L 872.702 195.04 L 872.655 195.144 L 872.587 195.222 L 872.395 195.284 L 872.248 195.255 L 872.136 195.165 L 872.063 195.017 L 872.038 194.817 L 872.038 194.809 L 872.038 194.809 z M 872.038 194.617 L 872.066 194.438 L 872.136 194.306 L 872.242 194.226 L 872.383 194.197 L 872.52 194.226 L 872.626 194.306 L 872.691 194.438 L 872.714 194.617 L 872.038 194.617 L 872.038 194.617 z M 873.485 195.44 L 873.713 195.44 L 873.713 194.643 L 873.736 194.451 L 873.806 194.314 L 873.921 194.231 L 874.074 194.202 L 874.188 194.221 L 874.273 194.272 L 874.325 194.361 L 874.343 194.48 L 874.574 194.48 L 874.543 194.27 L 874.457 194.119 L 874.315 194.029 L 874.12 193.998 L 873.988 194.018 L 873.874 194.07 L 873.773 194.158 L 873.692 194.278 L 873.692 194.047 L 873.485 194.047 L 873.485 195.44 L 873.485 195.44 z M 876.27 195.44 L 876.509 195.44 L 876.698 194.911 L 877.417 194.911 L 877.606 195.44 L 877.85 195.44 L 877.191 193.637 L 876.927 193.637 L 876.27 195.44 L 876.27 195.44 z M 876.781 194.69 L 877.059 193.896 L 877.336 194.69 L 876.781 194.69 L 876.781 194.69 z M 878.306 194.846 L 878.934 194.846 L 878.934 194.641 L 878.306 194.641 L 878.306 194.846 L 878.306 194.846 z M 879.393 195.44 L 879.632 195.44 L 879.821 194.911 L 880.54 194.911 L 880.729 195.44 L 880.973 195.44 L 880.314 193.637 L 880.049 193.637 L 879.393 195.44 L 879.393 195.44 z M 879.904 194.69 L 880.182 193.896 L 880.459 194.69 L 879.904 194.69 L 879.904 194.69 z M 881.292 195.44 L 881.52 195.44 L 881.52 194.643 L 881.543 194.451 L 881.613 194.314 L 881.728 194.231 L 881.881 194.202 L 881.995 194.221 L 882.08 194.272 L 882.132 194.361 L 882.15 194.48 L 882.381 194.48 L 882.35 194.27 L 882.264 194.119 L 882.122 194.029 L 881.927 193.998 L 881.795 194.018 L 881.681 194.07 L 881.58 194.158 L 881.499 194.278 L 881.499 194.047 L 881.292 194.047 L 881.292 195.44 L 881.292 195.44 z M 882.677 195.44 L 882.887 195.44 L 882.887 194.508 L 882.9 194.368 L 882.939 194.267 L 882.998 194.208 L 883.076 194.184 L 883.138 194.205 L 883.18 194.257 L 883.201 194.345 L 883.209 194.462 L 883.209 195.44 L 883.406 195.44 L 883.406 194.508 L 883.419 194.371 L 883.458 194.27 L 883.52 194.208 L 883.598 194.184 L 883.66 194.205 L 883.701 194.257 L 883.727 194.462 L 883.727 195.44 L 883.937 195.44 L 883.937 194.477 L 883.924 194.278 L 883.883 194.125 L 883.8 194.031 L 883.665 193.998 L 883.507 194.049 L 883.385 194.2 L 883.289 194.052 L 883.128 193.998 L 882.98 194.049 L 882.879 194.195 L 882.879 194.047 L 882.677 194.047 L 882.677 195.44 L 882.677 195.44 z" stroke="none" fill-rule="evenodd" fill="rgb(0, 0, 0)"/></g><g stroke="rgb(0, 0, 0)" stroke-width="0.13" stroke-linecap="butt" stroke-linejoin="miter" fill="none"><path d="M 862.461 198.549 L 863.603 198.549 L 863.603 198.332 L 862.7 198.332 L 862.7 197.722 L 863.504 197.722 L 863.504 197.507 L 862.7 197.507 L 862.7 196.967 L 863.582 196.967 L 863.582 196.749 L 862.461 196.749 L 862.461 198.549 L 862.461 198.549 z M 863.787 198.98 L 863.787 199.162 L 865.348 199.162 L 865.348 198.98 L 863.787 198.98 L 863.787 198.98 z M 865.341 198.549 L 865.579 198.549 L 865.768 198.02 L 866.487 198.02 L 866.676 198.549 L 866.92 198.549 L 866.261 196.747 L 865.997 196.747 L 865.341 198.549 L 865.341 198.549 z M 865.851 197.8 L 866.129 197.006 L 866.406 197.8 L 865.851 197.8 L 865.851 197.8 z M 867.571 198.549 L 867.812 198.549 L 868.321 197.157 L 868.085 197.157 L 867.693 198.28 L 867.294 197.157 L 867.055 197.157 L 867.571 198.549 L 867.571 198.549 z M 869.542 198.368 L 869.542 198.376 L 869.555 198.464 L 869.594 198.526 L 869.758 198.575 L 869.885 198.555 L 869.885 198.378 L 869.83 198.386 L 869.758 198.352 L 869.745 198.249 L 869.745 197.528 L 869.713 197.343 L 869.623 197.214 L 869.464 197.136 L 869.241 197.107 L 869.024 197.138 L 868.863 197.227 L 868.762 197.364 L 868.728 197.546 L 868.728 197.561 L 868.933 197.561 L 868.951 197.452 L 869.008 197.375 L 869.101 197.328 L 869.234 197.31 L 869.361 197.323 L 869.451 197.362 L 869.506 197.429 L 869.524 197.522 L 869.514 197.631 L 869.472 197.686 L 869.368 197.712 L 869.174 197.732 L 868.951 197.779 L 868.793 197.862 L 868.699 197.992 L 868.671 198.184 L 868.697 198.355 L 868.777 198.482 L 868.907 198.562 L 869.086 198.591 L 869.327 198.536 L 869.542 198.368 L 869.542 198.368 z M 869.516 198.062 L 869.485 198.197 L 869.402 198.3 L 869.278 198.368 L 869.125 198.391 L 869.026 198.378 L 868.956 198.337 L 868.912 198.264 L 868.899 198.163 L 868.909 198.072 L 868.951 198.007 L 869.117 197.935 L 869.327 197.904 L 869.516 197.841 L 869.516 198.062 L 869.516 198.062 z M 870.276 198.549 L 870.505 198.549 L 870.505 197.745 L 870.528 197.561 L 870.603 197.426 L 870.72 197.343 L 870.875 197.312 L 871 197.338 L 871.078 197.408 L 871.117 197.525 L 871.13 197.681 L 871.13 198.549 L 871.358 198.549 L 871.358 197.634 L 871.347 197.45 L 871.301 197.297 L 871.148 197.157 L 870.909 197.107 L 870.777 197.125 L 870.665 197.175 L 870.569 197.258 L 870.494 197.369 L 870.494 197.157 L 870.276 197.157 L 870.276 198.549 L 870.276 198.549 z M 872.144 197.398 L 872.144 198.096 L 872.159 198.321 L 872.232 198.477 L 872.377 198.568 L 872.624 198.599 L 872.893 198.586 L 872.893 198.389 L 872.696 198.404 L 872.517 198.383 L 872.421 198.319 L 872.38 198.21 L 872.372 198.057 L 872.372 197.398 L 872.893 197.398 L 872.893 197.203 L 872.372 197.203 L 872.372 196.796 L 872.144 196.796 L 872.144 197.203 L 871.75 197.203 L 871.75 197.398 L 872.144 197.398 L 872.144 197.398 z" stroke="none" fill-rule="evenodd" fill="rgb(0, 0, 0)"/></g><g stroke="rgb(0, 0, 0)" stroke-width="0.13" stroke-linecap="butt" stroke-linejoin="miter" fill="none"><path d="M 895.669 251.519 L 895.569 251.111 L 895.344 250.81 L 895 250.622 L 894.555 250.56 L 894.258 250.598 L 894.002 250.696 L 893.776 250.855 L 893.587 251.078 L 893.438 251.357 L 893.33 251.696 L 893.263 252.095 L 893.247 252.544 L 893.334 253.259 L 893.586 253.777 L 893.987 254.086 L 894.532 254.187 L 895.021 254.091 L 895.392 253.851 L 895.631 253.476 L 895.712 253.001 L 895.622 252.523 L 895.387 252.157 L 895.027 251.928 L 894.582 251.851 L 894.104 251.956 L 893.748 252.247 L 893.819 251.692 L 893.977 251.292 L 894.222 251.052 L 894.564 250.969 L 894.817 251.007 L 895.009 251.111 L 895.137 251.286 L 895.205 251.523 L 895.669 251.519 L 895.669 251.519 z M 895.223 253.01 L 895.17 253.329 L 895.031 253.572 L 894.806 253.735 L 894.524 253.788 L 894.226 253.741 L 893.998 253.586 L 893.849 253.346 L 893.801 253.028 L 893.849 252.715 L 893.988 252.477 L 894.218 252.323 L 894.53 252.265 L 894.803 252.318 L 895.021 252.462 L 895.165 252.698 L 895.223 253.01 L 895.223 253.01 z" stroke="none" fill-rule="evenodd" fill="rgb(0, 0, 0)"/><path d="M 908.944 255.439 L 907.017 255.974 L 908.953 256.474"/><path d="M 899.09 256.563 L 901.017 256.028 L 899.08 255.527"/><path d="M 892.981 256.1 L 912.016 255.929"/></g><g stroke="rgb(0, 0, 0)" stroke-width="0.13" stroke-linecap="butt" stroke-linejoin="miter" fill="none"><path d="M 871.535 439.028 L 873.784 439.028 L 873.784 438.604 L 871.999 438.604 L 871.999 435.528 L 871.535 435.528 L 871.535 439.028 L 871.535 439.028 z M 874.939 437.802 L 876.714 437.802 L 876.719 437.596 L 876.638 437.016 L 876.416 436.582 L 876.063 436.32 L 875.594 436.224 L 875.135 436.325 L 874.782 436.607 L 874.555 437.066 L 874.475 437.671 L 874.55 438.292 L 874.777 438.745 L 875.125 439.028 L 875.579 439.124 L 875.973 439.058 L 876.295 438.887 L 876.532 438.614 L 876.669 438.251 L 876.23 438.251 L 876.139 438.453 L 876.008 438.604 L 875.635 438.725 L 875.347 438.67 L 875.13 438.493 L 874.989 438.206 L 874.939 437.817 L 874.939 437.802 L 874.939 437.802 z M 874.939 437.429 L 874.994 437.081 L 875.13 436.824 L 875.337 436.668 L 875.609 436.612 L 875.877 436.668 L 876.084 436.824 L 876.21 437.081 L 876.255 437.429 L 874.939 437.429 L 874.939 437.429 z M 878.202 436.789 L 878.202 439.028 L 878.646 439.028 L 878.646 436.789 L 879.654 436.789 L 879.654 436.41 L 878.646 436.41 L 878.646 436.244 L 878.681 436.042 L 878.797 435.906 L 878.993 435.825 L 879.276 435.795 L 879.654 435.815 L 879.654 435.432 L 879.175 435.407 L 878.741 435.452 L 878.439 435.588 L 878.257 435.825 L 878.202 436.163 L 878.202 436.41 L 877.39 436.41 L 877.39 436.789 L 878.202 436.789 L 878.202 436.789 z M 881.218 436.789 L 881.218 438.145 L 881.248 438.584 L 881.389 438.887 L 881.671 439.063 L 882.151 439.124 L 882.675 439.098 L 882.675 438.715 L 882.292 438.745 L 881.944 438.705 L 881.757 438.579 L 881.676 438.367 L 881.661 438.07 L 881.661 436.789 L 882.675 436.789 L 882.675 436.41 L 881.661 436.41 L 881.661 435.619 L 881.218 435.619 L 881.218 436.41 L 880.451 436.41 L 880.451 436.789 L 881.218 436.789 L 881.218 436.789 z M 883.184 439.865 L 883.184 440.218 L 886.22 440.218 L 886.22 439.865 L 883.184 439.865 L 883.184 439.865 z M 886.614 439.028 L 887.083 439.028 L 887.083 437.55 L 887.562 437.55 L 887.915 437.565 L 888.137 437.636 L 888.258 437.802 L 888.308 438.1 L 888.333 438.554 L 888.364 438.851 L 888.424 439.028 L 888.954 439.028 L 888.954 438.932 L 888.838 438.791 L 888.797 438.529 L 888.762 437.964 L 888.676 437.545 L 888.56 437.414 L 888.379 437.318 L 888.581 437.192 L 888.722 437.016 L 888.813 436.794 L 888.843 436.526 L 888.772 436.103 L 888.57 435.785 L 888.238 435.593 L 887.784 435.528 L 886.614 435.528 L 886.614 439.028 L 886.614 439.028 z M 887.653 435.957 L 887.96 435.987 L 888.177 436.083 L 888.313 436.259 L 888.359 436.536 L 888.308 436.829 L 888.172 437.006 L 887.94 437.096 L 887.622 437.122 L 887.083 437.122 L 887.083 435.957 L 887.653 435.957 L 887.653 435.957 z M 890.119 437.802 L 891.894 437.802 L 891.899 437.596 L 891.818 437.016 L 891.596 436.582 L 891.243 436.32 L 890.774 436.224 L 890.315 436.325 L 889.962 436.607 L 889.736 437.066 L 889.655 437.671 L 889.73 438.292 L 889.957 438.745 L 890.305 439.028 L 890.759 439.124 L 891.153 439.058 L 891.475 438.887 L 891.712 438.614 L 891.849 438.251 L 891.41 438.251 L 891.319 438.453 L 891.188 438.604 L 890.815 438.725 L 890.527 438.67 L 890.31 438.493 L 890.169 438.206 L 890.119 437.817 L 890.119 437.802 L 890.119 437.802 z M 890.119 437.429 L 890.174 437.081 L 890.31 436.824 L 890.517 436.668 L 890.79 436.612 L 891.057 436.668 L 891.264 436.824 L 891.39 437.081 L 891.435 437.429 L 890.119 437.429 L 890.119 437.429 z M 894.375 438.675 L 894.375 438.69 L 894.4 438.861 L 894.476 438.982 L 894.794 439.078 L 895.041 439.038 L 895.041 438.695 L 894.935 438.71 L 894.794 438.645 L 894.769 438.443 L 894.769 437.041 L 894.708 436.683 L 894.532 436.431 L 894.224 436.279 L 893.79 436.224 L 893.367 436.284 L 893.054 436.456 L 892.857 436.723 L 892.792 437.076 L 892.792 437.106 L 893.19 437.106 L 893.225 436.895 L 893.336 436.743 L 893.518 436.652 L 893.775 436.617 L 894.022 436.642 L 894.199 436.718 L 894.305 436.849 L 894.34 437.031 L 894.32 437.243 L 894.239 437.348 L 894.037 437.399 L 893.659 437.439 L 893.225 437.53 L 892.918 437.691 L 892.736 437.944 L 892.681 438.317 L 892.731 438.65 L 892.888 438.897 L 893.14 439.053 L 893.488 439.109 L 893.957 439.003 L 894.375 438.675 L 894.375 438.675 z M 894.325 438.08 L 894.264 438.342 L 894.103 438.544 L 893.861 438.675 L 893.563 438.72 L 893.372 438.695 L 893.235 438.614 L 893.15 438.473 L 893.125 438.276 L 893.145 438.1 L 893.225 437.974 L 893.548 437.833 L 893.957 437.772 L 894.325 437.651 L 894.325 438.08 L 894.325 438.08 z M 895.969 439.028 L 896.413 439.028 L 896.413 437.48 L 896.458 437.106 L 896.594 436.839 L 896.816 436.678 L 897.114 436.622 L 897.336 436.658 L 897.502 436.758 L 897.603 436.93 L 897.638 437.162 L 898.087 437.162 L 898.027 436.753 L 897.86 436.461 L 897.583 436.284 L 897.204 436.224 L 896.947 436.264 L 896.725 436.365 L 896.529 436.536 L 896.372 436.768 L 896.372 436.32 L 895.969 436.32 L 895.969 439.028 L 895.969 439.028 z M 898.364 439.865 L 898.364 440.218 L 901.4 440.218 L 901.4 439.865 L 898.364 439.865 L 898.364 439.865 z M 901.895 439.028 L 904.144 439.028 L 904.144 438.604 L 902.359 438.604 L 902.359 435.528 L 901.895 435.528 L 901.895 439.028 L 901.895 439.028 z M 904.779 437.676 L 904.86 438.292 L 905.092 438.745 L 905.46 439.028 L 905.954 439.124 L 906.444 439.028 L 906.812 438.75 L 907.044 438.297 L 907.13 437.676 L 907.044 437.061 L 906.812 436.602 L 906.444 436.325 L 905.954 436.224 L 905.46 436.325 L 905.092 436.607 L 904.86 437.061 L 904.779 437.676 L 904.779 437.676 z M 905.233 437.671 L 905.279 437.217 L 905.42 436.89 L 905.647 436.688 L 905.954 436.617 L 906.257 436.688 L 906.484 436.884 L 906.625 437.217 L 906.676 437.671 L 906.625 438.13 L 906.484 438.463 L 906.257 438.665 L 905.954 438.73 L 905.647 438.665 L 905.42 438.463 L 905.279 438.13 L 905.233 437.671 L 905.233 437.671 z M 908.587 439.028 L 908.99 436.728 L 909.394 439.028 L 909.818 439.028 L 910.483 436.32 L 910.055 436.32 L 909.606 438.619 L 909.207 436.32 L 908.769 436.32 L 908.37 438.619 L 907.921 436.32 L 907.498 436.32 L 908.163 439.028 L 908.587 439.028 L 908.587 439.028 z M 911.371 437.802 L 913.146 437.802 L 913.151 437.596 L 913.07 437.016 L 912.849 436.582 L 912.495 436.32 L 912.026 436.224 L 911.568 436.325 L 911.215 436.607 L 910.988 437.066 L 910.907 437.671 L 910.983 438.292 L 911.209 438.745 L 911.557 439.028 L 912.011 439.124 L 912.405 439.058 L 912.727 438.887 L 912.964 438.614 L 913.101 438.251 L 912.662 438.251 L 912.571 438.453 L 912.44 438.604 L 912.067 438.725 L 911.779 438.67 L 911.563 438.493 L 911.421 438.206 L 911.371 437.817 L 911.371 437.802 L 911.371 437.802 z M 911.371 437.429 L 911.426 437.081 L 911.563 436.824 L 911.769 436.668 L 912.042 436.612 L 912.309 436.668 L 912.516 436.824 L 912.642 437.081 L 912.687 437.429 L 911.371 437.429 L 911.371 437.429 z M 914.185 439.028 L 914.629 439.028 L 914.629 437.48 L 914.674 437.106 L 914.81 436.839 L 915.032 436.678 L 915.33 436.622 L 915.552 436.658 L 915.718 436.758 L 915.819 436.93 L 915.854 437.162 L 916.303 437.162 L 916.243 436.753 L 916.076 436.461 L 915.799 436.284 L 915.421 436.224 L 915.163 436.264 L 914.941 436.365 L 914.745 436.536 L 914.588 436.768 L 914.588 436.32 L 914.185 436.32 L 914.185 439.028 L 914.185 439.028 z M 919.601 439.028 L 920.065 439.028 L 920.434 437.999 L 921.83 437.999 L 922.199 439.028 L 922.673 439.028 L 921.392 435.523 L 920.877 435.523 L 919.601 439.028 L 919.601 439.028 z M 920.595 437.57 L 921.135 436.027 L 921.674 437.57 L 920.595 437.57 L 920.595 437.57 z M 923.56 437.873 L 924.781 437.873 L 924.781 437.475 L 923.56 437.475 L 923.56 437.873 L 923.56 437.873 z M 925.673 439.028 L 926.137 439.028 L 926.506 437.999 L 927.902 437.999 L 928.271 439.028 L 928.745 439.028 L 927.464 435.523 L 926.949 435.523 L 925.673 439.028 L 925.673 439.028 z M 926.667 437.57 L 927.207 436.027 L 927.746 437.57 L 926.667 437.57 L 926.667 437.57 z M 929.365 439.028 L 929.809 439.028 L 929.809 437.48 L 929.854 437.106 L 929.99 436.839 L 930.212 436.678 L 930.51 436.622 L 930.732 436.658 L 930.898 436.758 L 930.999 436.93 L 931.034 437.162 L 931.483 437.162 L 931.423 436.753 L 931.256 436.461 L 930.979 436.284 L 930.601 436.224 L 930.343 436.264 L 930.122 436.365 L 929.925 436.536 L 929.768 436.768 L 929.768 436.32 L 929.365 436.32 L 929.365 439.028 L 929.365 439.028 z M 932.058 439.028 L 932.467 439.028 L 932.467 437.217 L 932.492 436.945 L 932.567 436.748 L 932.683 436.632 L 932.835 436.587 L 932.956 436.627 L 933.036 436.728 L 933.077 436.9 L 933.092 437.127 L 933.092 439.028 L 933.475 439.028 L 933.475 437.217 L 933.5 436.95 L 933.576 436.753 L 933.697 436.632 L 933.848 436.587 L 933.969 436.627 L 934.05 436.728 L 934.101 437.127 L 934.101 439.028 L 934.509 439.028 L 934.509 437.157 L 934.484 436.768 L 934.403 436.471 L 934.242 436.289 L 933.98 436.224 L 933.672 436.325 L 933.435 436.617 L 933.248 436.33 L 932.936 436.224 L 932.648 436.325 L 932.451 436.607 L 932.451 436.32 L 932.058 436.32 L 932.058 439.028 L 932.058 439.028 z M 938.74 437.873 L 939.961 437.873 L 939.961 437.475 L 938.74 437.475 L 938.74 437.873 L 938.74 437.873 z M 944.358 439.028 L 944.822 439.028 L 944.822 437.55 L 945.337 437.55 L 945.856 437.525 L 946.27 437.348 L 946.537 437.006 L 946.628 436.536 L 946.557 436.103 L 946.356 435.785 L 946.023 435.593 L 945.569 435.528 L 944.358 435.528 L 944.358 439.028 L 944.358 439.028 z M 945.443 435.957 L 945.745 435.987 L 945.967 436.083 L 946.098 436.259 L 946.144 436.536 L 946.093 436.829 L 945.957 437.006 L 945.725 437.096 L 945.407 437.122 L 944.822 437.122 L 944.822 435.957 L 945.443 435.957 L 945.443 435.957 z M 948.297 435.78 L 948.297 438.655 L 947.384 438.655 L 947.384 439.028 L 949.649 439.028 L 949.649 438.655 L 948.741 438.655 L 948.741 435.407 L 947.601 435.407 L 947.601 435.78 L 948.297 435.78 L 948.297 435.78 z M 952.059 438.675 L 952.059 438.69 L 952.085 438.861 L 952.16 438.982 L 952.478 439.078 L 952.725 439.038 L 952.725 438.695 L 952.619 438.71 L 952.478 438.645 L 952.453 438.443 L 952.453 437.041 L 952.392 436.683 L 952.216 436.431 L 951.908 436.279 L 951.474 436.224 L 951.051 436.284 L 950.738 436.456 L 950.541 436.723 L 950.476 437.076 L 950.476 437.106 L 950.874 437.106 L 950.91 436.895 L 951.021 436.743 L 951.202 436.652 L 951.459 436.617 L 951.706 436.642 L 951.883 436.718 L 951.989 436.849 L 952.024 437.031 L 952.004 437.243 L 951.923 437.348 L 951.722 437.399 L 951.343 437.439 L 950.91 437.53 L 950.602 437.691 L 950.42 437.944 L 950.365 438.317 L 950.415 438.65 L 950.572 438.897 L 950.824 439.053 L 951.172 439.109 L 951.641 439.003 L 952.059 438.675 L 952.059 438.675 z M 952.009 438.08 L 951.948 438.342 L 951.787 438.544 L 951.545 438.675 L 951.247 438.72 L 951.056 438.695 L 950.92 438.614 L 950.834 438.473 L 950.809 438.276 L 950.829 438.1 L 950.91 437.974 L 951.232 437.833 L 951.641 437.772 L 952.009 437.651 L 952.009 438.08 L 952.009 438.08 z M 955.151 436.738 L 954.995 436.511 L 954.818 436.35 L 954.611 436.259 L 954.374 436.224 L 953.946 436.325 L 953.613 436.607 L 953.396 437.061 L 953.32 437.671 L 953.396 438.286 L 953.613 438.74 L 953.946 439.028 L 954.374 439.124 L 954.611 439.093 L 954.813 439.008 L 954.99 438.851 L 955.151 438.614 L 955.151 440.077 L 955.595 440.077 L 955.595 436.32 L 955.151 436.32 L 955.151 436.738 L 955.151 436.738 z M 953.774 437.671 L 953.82 437.222 L 953.961 436.895 L 954.173 436.693 L 954.45 436.622 L 954.742 436.693 L 954.964 436.89 L 955.095 437.217 L 955.146 437.671 L 955.095 438.13 L 954.964 438.458 L 954.742 438.66 L 954.45 438.725 L 954.173 438.66 L 953.961 438.458 L 953.82 438.125 L 953.774 437.671 L 953.774 437.671 z M 958.611 436.32 L 958.167 436.32 L 958.167 437.883 L 958.116 438.246 L 957.97 438.508 L 957.743 438.67 L 957.446 438.72 L 957.209 438.68 L 957.057 438.559 L 956.972 438.352 L 956.951 438.06 L 956.951 436.32 L 956.508 436.32 L 956.508 438.1 L 956.523 438.458 L 956.619 438.755 L 956.911 439.028 L 957.38 439.124 L 957.632 439.088 L 957.849 438.998 L 958.036 438.841 L 958.187 438.614 L 958.187 439.028 L 958.611 439.028 L 958.611 436.32 L 958.611 436.32 z M 959.947 437.802 L 961.722 437.802 L 961.727 437.596 L 961.647 437.016 L 961.425 436.582 L 961.072 436.32 L 960.603 436.224 L 960.144 436.325 L 959.791 436.607 L 959.564 437.066 L 959.483 437.671 L 959.559 438.292 L 959.786 438.745 L 960.134 439.028 L 960.588 439.124 L 960.981 439.058 L 961.304 438.887 L 961.541 438.614 L 961.677 438.251 L 961.238 438.251 L 961.147 438.453 L 961.016 438.604 L 960.643 438.725 L 960.356 438.67 L 960.139 438.493 L 959.997 438.206 L 959.947 437.817 L 959.947 437.802 L 959.947 437.802 z M 959.947 437.429 L 960.003 437.081 L 960.139 436.824 L 960.345 436.668 L 960.618 436.612 L 960.885 436.668 L 961.092 436.824 L 961.218 437.081 L 961.263 437.429 L 959.947 437.429 L 959.947 437.429 z M 967.305 437.137 L 967.658 436.844 L 967.749 436.647 L 967.779 436.405 L 967.714 436.027 L 967.517 435.755 L 967.199 435.588 L 966.755 435.528 L 965.51 435.528 L 965.51 439.028 L 966.826 439.028 L 967.295 438.957 L 967.643 438.75 L 967.86 438.423 L 967.935 437.979 L 967.89 437.681 L 967.769 437.434 L 967.572 437.253 L 967.305 437.137 L 967.305 437.137 z M 966.66 436.98 L 965.974 436.98 L 965.974 435.946 L 966.7 435.946 L 966.972 435.977 L 967.164 436.068 L 967.28 436.224 L 967.32 436.456 L 967.275 436.688 L 967.154 436.849 L 966.947 436.95 L 966.66 436.98 L 966.66 436.98 z M 966.771 438.609 L 965.974 438.609 L 965.974 437.404 L 966.725 437.404 L 967.043 437.439 L 967.27 437.545 L 967.406 437.727 L 967.451 437.989 L 967.406 438.266 L 967.28 438.458 L 967.068 438.574 L 966.771 438.609 L 966.771 438.609 z M 970.023 438.655 L 970.023 436.41 L 968.884 436.41 L 968.884 436.789 L 969.58 436.789 L 969.58 438.655 L 968.672 438.655 L 968.672 439.028 L 970.941 439.028 L 970.941 438.655 L 970.023 438.655 L 970.023 438.655 z M 970.039 435.407 L 969.569 435.407 L 969.569 435.911 L 970.039 435.911 L 970.039 435.407 L 970.039 435.407 z M 972.091 437.802 L 973.866 437.802 L 973.871 437.596 L 973.791 437.016 L 973.569 436.582 L 973.216 436.32 L 972.747 436.224 L 972.288 436.325 L 971.935 436.607 L 971.708 437.066 L 971.627 437.671 L 971.703 438.292 L 971.93 438.745 L 972.278 439.028 L 972.732 439.124 L 973.125 439.058 L 973.448 438.887 L 973.685 438.614 L 973.821 438.251 L 973.382 438.251 L 973.291 438.453 L 973.16 438.604 L 972.787 438.725 L 972.5 438.67 L 972.283 438.493 L 972.142 438.206 L 972.091 437.817 L 972.091 437.802 L 972.091 437.802 z M 972.091 437.429 L 972.147 437.081 L 972.283 436.824 L 972.49 436.668 L 972.762 436.612 L 973.029 436.668 L 973.236 436.824 L 973.362 437.081 L 973.407 437.429 L 972.091 437.429 L 972.091 437.429 z M 975.621 435.78 L 975.621 438.655 L 974.708 438.655 L 974.708 439.028 L 976.973 439.028 L 976.973 438.655 L 976.065 438.655 L 976.065 435.407 L 974.925 435.407 L 974.925 435.78 L 975.621 435.78 L 975.621 435.78 z M 978.657 435.78 L 978.657 438.655 L 977.745 438.655 L 977.745 439.028 L 980.009 439.028 L 980.009 438.655 L 979.101 438.655 L 979.101 435.407 L 977.961 435.407 L 977.961 435.78 L 978.657 435.78 L 978.657 435.78 z M 981.199 437.802 L 982.974 437.802 L 982.979 437.596 L 982.899 437.016 L 982.677 436.582 L 982.324 436.32 L 981.855 436.224 L 981.396 436.325 L 981.043 436.607 L 980.816 437.066 L 980.735 437.671 L 980.811 438.292 L 981.038 438.745 L 981.386 439.028 L 981.84 439.124 L 982.233 439.058 L 982.556 438.887 L 982.793 438.614 L 982.929 438.251 L 982.49 438.251 L 982.399 438.453 L 982.268 438.604 L 981.895 438.725 L 981.608 438.67 L 981.391 438.493 L 981.25 438.206 L 981.199 437.817 L 981.199 437.802 L 981.199 437.802 z M 981.199 437.429 L 981.255 437.081 L 981.391 436.824 L 981.598 436.668 L 981.87 436.612 L 982.137 436.668 L 982.344 436.824 L 982.47 437.081 L 982.515 437.429 L 981.199 437.429 L 981.199 437.429 z M 984.442 436.789 L 984.442 438.145 L 984.472 438.584 L 984.613 438.887 L 984.896 439.063 L 985.375 439.124 L 985.899 439.098 L 985.899 438.715 L 985.516 438.745 L 985.168 438.705 L 984.982 438.579 L 984.901 438.367 L 984.886 438.07 L 984.886 436.789 L 985.899 436.789 L 985.899 436.41 L 984.886 436.41 L 984.886 435.619 L 984.442 435.619 L 984.442 436.41 L 983.675 436.41 L 983.675 436.789 L 984.442 436.789 L 984.442 436.789 z M 987.478 436.789 L 987.478 438.145 L 987.508 438.584 L 987.649 438.887 L 987.932 439.063 L 988.411 439.124 L 988.935 439.098 L 988.935 438.715 L 988.552 438.745 L 988.204 438.705 L 988.018 438.579 L 987.937 438.367 L 987.922 438.07 L 987.922 436.789 L 988.935 436.789 L 988.935 436.41 L 987.922 436.41 L 987.922 435.619 L 987.478 435.619 L 987.478 436.41 L 986.711 436.41 L 986.711 436.789 L 987.478 436.789 L 987.478 436.789 z M 990.307 437.802 L 992.082 437.802 L 992.087 437.596 L 992.007 437.016 L 991.785 436.582 L 991.432 436.32 L 990.963 436.224 L 990.504 436.325 L 990.151 436.607 L 989.924 437.066 L 989.843 437.671 L 989.919 438.292 L 990.146 438.745 L 990.494 439.028 L 990.948 439.124 L 991.341 439.058 L 991.664 438.887 L 991.901 438.614 L 992.037 438.251 L 991.598 438.251 L 991.507 438.453 L 991.376 438.604 L 991.003 438.725 L 990.716 438.67 L 990.499 438.493 L 990.358 438.206 L 990.307 437.817 L 990.307 437.802 L 990.307 437.802 z M 990.307 437.429 L 990.363 437.081 L 990.499 436.824 L 990.706 436.668 L 990.978 436.612 L 991.245 436.668 L 991.452 436.824 L 991.578 437.081 L 991.623 437.429 L 990.307 437.429 L 990.307 437.429 z M 995.971 439.028 L 996.435 439.028 L 996.435 437.55 L 996.949 437.55 L 997.469 437.525 L 997.882 437.348 L 998.149 437.006 L 998.24 436.536 L 998.169 436.103 L 997.968 435.785 L 997.635 435.593 L 997.181 435.528 L 995.971 435.528 L 995.971 439.028 L 995.971 439.028 z M 997.055 435.957 L 997.358 435.987 L 997.579 436.083 L 997.711 436.259 L 997.756 436.536 L 997.706 436.829 L 997.569 437.006 L 997.337 437.096 L 997.02 437.122 L 996.435 437.122 L 996.435 435.957 L 997.055 435.957 L 997.055 435.957 z M 1000.38 438.655 L 1000.38 436.41 L 999.244 436.41 L 999.244 436.789 L 999.94 436.789 L 999.94 438.655 L 999.032 438.655 L 999.032 439.028 L 1001.3 439.028 L 1001.3 438.655 L 1000.38 438.655 L 1000.38 438.655 z M 1000.4 435.407 L 999.93 435.407 L 999.93 435.911 L 1000.4 435.911 L 1000.4 435.407 L 1000.4 435.407 z M 1002.06 439.028 L 1002.51 439.028 L 1002.51 437.464 L 1002.55 437.106 L 1002.7 436.844 L 1002.93 436.683 L 1003.23 436.622 L 1003.47 436.673 L 1003.62 436.809 L 1003.7 437.036 L 1003.72 437.338 L 1003.72 439.028 L 1004.17 439.028 L 1004.17 437.248 L 1004.15 436.89 L 1004.05 436.592 L 1003.76 436.32 L 1003.29 436.224 L 1003.04 436.259 L 1002.82 436.355 L 1002.63 436.516 L 1002.49 436.733 L 1002.49 436.32 L 1002.06 436.32 L 1002.06 439.028 L 1002.06 439.028 z M 1006.82 437.217 L 1007.26 437.217 L 1007.17 436.814 L 1006.95 436.496 L 1006.62 436.299 L 1006.18 436.224 L 1005.69 436.325 L 1005.33 436.607 L 1005.09 437.066 L 1005.01 437.681 L 1005.09 438.292 L 1005.32 438.745 L 1005.67 439.028 L 1006.16 439.124 L 1006.6 439.048 L 1006.93 438.836 L 1007.17 438.503 L 1007.27 438.06 L 1006.84 438.06 L 1006.77 438.342 L 1006.63 438.554 L 1006.43 438.685 L 1006.18 438.725 L 1005.87 438.66 L 1005.65 438.458 L 1005.51 438.13 L 1005.47 437.666 L 1005.51 437.212 L 1005.65 436.884 L 1005.88 436.683 L 1006.18 436.612 L 1006.44 436.658 L 1006.64 436.774 L 1006.77 436.965 L 1006.82 437.217 L 1006.82 437.217 z M 1008.52 437.802 L 1010.3 437.802 L 1010.3 437.596 L 1010.22 437.016 L 1010 436.582 L 1009.65 436.32 L 1009.18 436.224 L 1008.72 436.325 L 1008.37 436.607 L 1008.14 437.066 L 1008.06 437.671 L 1008.13 438.292 L 1008.36 438.745 L 1008.71 439.028 L 1009.16 439.124 L 1009.56 439.058 L 1009.88 438.887 L 1010.12 438.614 L 1010.25 438.251 L 1009.81 438.251 L 1009.72 438.453 L 1009.59 438.604 L 1009.22 438.725 L 1008.93 438.67 L 1008.71 438.493 L 1008.57 438.206 L 1008.52 437.817 L 1008.52 437.802 L 1008.52 437.802 z M 1008.52 437.429 L 1008.58 437.081 L 1008.71 436.824 L 1008.92 436.668 L 1009.19 436.612 L 1009.46 436.668 L 1009.67 436.824 L 1009.79 437.081 L 1009.84 437.429 L 1008.52 437.429 L 1008.52 437.429 z" stroke="none" fill-rule="evenodd" fill="rgb(0, 0, 0)"/></g></svg>