<?xml version="1.0" encoding="utf-8"?>
<!-- Generator: Adobe Illustrator 22.1.0, SVG Export Plug-In . SVG Version: 6.00 Build 0)  -->
<svg version="1.1" id="Calque_1" dsy:text-version="18000" xmlns:dsy="http://www.3ds.com/print"
	 xmlns="http://www.w3.org/2000/svg" xmlns:xlink="http://www.w3.org/1999/xlink" x="0px" y="0px" viewBox="0 0 297 210"
	 style="enable-background:new 0 0 297 210;" xml:space="preserve">
<style type="text/css">
	.st0{fill:none;stroke:#000000;stroke-width:0.35;}
	.st1{fill:none;stroke:#000000;stroke-width:0.13;stroke-dasharray:4,1.5;}
</style>
<path class="st0" d="M98.8,73.4C97.3,62.6,87.2,55,76.4,56.5c-8.8,1.2-15.6,8.1-16.9,16.9"/>
<circle class="st0" cx="79.2" cy="76.2" r="9.1"/>
<path class="st0" d="M98.8,73.4l6.4,45.5"/>
<path class="st0" d="M105.2,118.9c-12.6,8.6-25.1,17.3-37.7,26"/>
<path class="st0" d="M67.5,144.9c-6.6,3.1-13.1,6.3-19.4,9.8"/>
<path class="st0" d="M59.5,73.4l-11.4,81.3"/>
<path class="st0" d="M237.7,72.2c-1.5-10.9-11.6-18.4-22.4-16.9c-8.8,1.2-15.6,8.1-16.9,16.9"/>
<circle class="st0" cx="218.1" cy="75" r="9.1"/>
<path class="st0" d="M198.4,72.2l-6.1,43.4"/>
<path class="st0" d="M232.3,142.7c-13.3-9-26.7-18.1-40-27.1"/>
<path class="st0" d="M249.1,153.4c-4.7-3.2-9.5-6.3-14.3-9.2"/>
<path class="st0" d="M234.8,144.2c-0.8-0.5-1.7-1-2.5-1.5"/>
<path class="st0" d="M237.7,72.2l11.4,81.2"/>
<path class="st0" d="M249.1,153.4L249.1,153.4"/>
<path class="st1" d="M234.8,144.2l14.2,8.7"/>
<g>
	<path class="st0" d="M-316.3,375.1h785.2"/>
	<path class="st0" d="M468.9,375.1v-538.6"/>
	<path class="st0" d="M468.9-163.5h-785.2"/>
	<path class="st0" d="M-316.3-163.5v538.6"/>
	<path class="st0" d="M76.3-163.5v-28.3"/>
	<path class="st0" d="M-316.3,105.8h-28.3"/>
	<path class="st0" d="M468.9,105.8h28.3"/>
	<path class="st0" d="M286.6,375.1v21.3"/>
	<path class="st0" d="M-134.1,375.1v21.3"/>
	<path class="st0" d="M286.6-163.5v-21.3"/>
	<path class="st0" d="M-134.1-163.5v-21.3"/>
	<path class="st0" d="M-316.3-43h-21.3"/>
	<path class="st0" d="M468.9-43h21.3"/>
	<path class="st0" d="M-316.3,254.7h-21.3"/>
	<path class="st0" d="M468.9,254.7h21.3"/>
	<path class="st0" d="M218,375.1v14.2"/>
	<path class="st0" d="M189.7,375.1v7.1"/>
	<path class="st0" d="M161.3,375.1v7.1"/>
	<path class="st0" d="M133,375.1v7.1"/>
	<path class="st0" d="M468.9,205.1v170.1"/>
</g>
<g>
	<path d="M387.4,394.5h1.3l1-2.9h4l1,2.9h1.3l-3.6-9.9H391L387.4,394.5L387.4,394.5z M390.2,390.4l1.5-4.4l1.5,4.4H390.2
		L390.2,390.4z"/>
</g>
<g>
	<path d="M-239.2,384.6h-3.3v9.9h3.3l1.6-0.3l1.2-1l0.7-1.6l0.3-2.1l-0.2-2.2l-0.3-0.9l-0.4-0.7l-1.2-0.9l-0.8-0.2L-239.2,384.6
		L-239.2,384.6z M-239.3,385.8l1.1,0.2l0.7,0.7l0.4,1.2l0.1,1.7l-0.2,1.7l-0.4,1.2l-0.8,0.7l-1.1,0.2h-1.9v-7.5H-239.3L-239.3,385.8
		z"/>
</g>
<g>
	<path d="M181.3-179.4l-0.8-1l-0.6-0.3l-0.7-0.1l-1.1,0.2l-0.8,0.6l-0.5,0.9l-0.2,1.3v3.5h9.9v-3.7l-0.2-1.3l-0.6-1l-0.9-0.6
		l-1.3-0.2l-0.8,0.1l-0.7,0.3l-0.5,0.6L181.3-179.4L181.3-179.4z M180.8-177.6v1.9h-2.9v-2.1l0.1-0.8l0.3-0.5l0.4-0.3l0.7-0.1
		l0.7,0.1l0.5,0.3l0.3,0.6L180.8-177.6L180.8-177.6z M185.4-177.9v2.3H182v-2.1l0.1-0.9l0.3-0.6l0.5-0.4l0.7-0.1l0.8,0.1l0.5,0.4
		l0.3,0.6L185.4-177.9L185.4-177.9z"/>
</g>
<g>
	<path d="M-27.4-179.9l1.2,0.3l0.9,0.5l0.5,0.7l0.2,0.8l-0.3,0.9l-0.8,0.7l-1.3,0.5l-1.7,0.2l-1.7-0.2l-1.3-0.5l-0.8-0.7l-0.3-0.9
		l0.1-0.7l0.4-0.6l0.6-0.5l0.9-0.3v-1.4l-1.4,0.4l-1,0.7l-0.6,1l-0.2,1.2l0.4,1.5l1,1.2l1.6,0.7l2.2,0.3l2.2-0.3l1.6-0.7l1-1.2
		l0.3-1.5l-0.3-1.3l-0.8-1.1l-1.2-0.8l-1.7-0.4V-179.9L-27.4-179.9z"/>
</g>
<g>
	<path d="M397-173.3v-1.3l-2.9-1v-4l2.9-1v-1.3l-9.9,3.6v1.5L397-173.3L397-173.3z M392.8-176.1l-4.4-1.5l4.4-1.5V-176.1
		L392.8-176.1z"/>
</g>
<g>
	<path d="M-244-177.6v3.3h9.9v-3.3l-0.3-1.6l-1-1.2l-1.6-0.7l-2.1-0.3l-2.2,0.2l-0.9,0.3l-0.7,0.4l-0.9,1.2l-0.2,0.8L-244-177.6
		L-244-177.6z M-242.8-177.5l0.2-1.1l0.7-0.7l1.2-0.4l1.7-0.1l1.7,0.2l1.2,0.4l0.7,0.8l0.2,1.1v1.9h-7.5V-177.5L-242.8-177.5z"/>
</g>
<g>
	<path d="M479.4,33.5v0.1l0.2,1.4l0.7,1l1.1,0.7l1.4,0.2l1.5-0.2l1.1-0.6l0.7-1l0.3-1.3l-0.1-0.8l-0.3-0.7l-0.5-0.5l-0.7-0.4
		l0.9-0.8l0.3-1.2l-0.2-1.1l-0.6-0.8l-1-0.5l-1.4-0.2l-1.3,0.2l-1,0.6l-0.6,1l-0.2,1.3v0.1h1.3l0.1-0.9l0.4-0.7l0.6-0.4l0.8-0.1
		l0.7,0.1l0.5,0.3l0.3,0.5l0.1,0.7l-0.1,0.7l-0.3,0.5l-0.6,0.3l-0.8,0.1l-0.6,0V32l0.7,0l0.9,0.1l0.7,0.3l0.4,0.6l0.1,0.7l-0.2,0.8
		l-0.4,0.6l-0.7,0.4l-0.9,0.1l-0.9-0.1l-0.7-0.4l-0.4-0.7l-0.2-0.9H479.4L479.4,33.5z"/>
</g>
<g>
	<path d="M-328.4,35h0.1l1.4-0.2l1-0.7l0.7-1.1l0.2-1.4l-0.2-1.5l-0.6-1.1l-1-0.7l-1.3-0.3l-0.8,0.1l-0.7,0.3l-0.5,0.5l-0.4,0.7
		l-0.8-0.9l-1.2-0.3l-1.1,0.2l-0.8,0.6l-0.5,1l-0.2,1.4l0.2,1.3l0.6,1l1,0.6l1.3,0.2h0.1v-1.3l-0.9-0.1l-0.7-0.4l-0.4-0.6l-0.1-0.8
		l0.1-0.7l0.3-0.5l0.5-0.3l0.7-0.1l0.7,0.1l0.5,0.3l0.3,0.6l0.1,0.8l0,0.6h1.1l0-0.7l0.1-0.9l0.3-0.7l0.6-0.4l0.7-0.1l0.8,0.2
		l0.6,0.4l0.4,0.7l0.1,0.9l-0.1,0.9l-0.4,0.7l-0.7,0.4l-0.9,0.2V35L-328.4,35z"/>
</g>
<g>
	<path d="M479.5,185.4h6.8v-1.2H481l0.3-0.7l0.5-0.6l1.6-1l0.8-0.4l0.9-0.6l0.7-0.7l0.4-0.8l0.1-1l-0.2-1.2l-0.7-0.9l-1-0.6
		l-1.3-0.2l-1.4,0.2l-1,0.7l-0.7,1.1l-0.2,1.4v0.2h1.3v-0.1l0.1-1l0.4-0.7l0.6-0.5l0.8-0.2l0.8,0.1l0.6,0.4l0.4,0.6l0.1,0.7
		l-0.1,0.7l-0.3,0.6l-0.5,0.5l-0.6,0.4l-0.8,0.5l-1.4,0.9l-1,0.9l-0.6,1.1L479.5,185.4L479.5,185.4L479.5,185.4z"/>
</g>
<g>
	<path d="M-325.3,183.7v-6.8h-1.2v5.4l-0.7-0.3l-0.6-0.5l-1-1.6l-0.4-0.8l-0.6-0.9l-0.7-0.7l-0.8-0.4l-1-0.1l-1.2,0.2l-0.9,0.7
		l-0.6,1l-0.2,1.3l0.2,1.4l0.7,1l1.1,0.7l1.4,0.2h0.2v-1.3h-0.1l-1-0.1l-0.7-0.4l-0.5-0.6l-0.2-0.8l0.1-0.8l0.4-0.6l0.6-0.4l0.7-0.1
		l0.7,0.1l0.6,0.3l0.5,0.5l0.4,0.6l0.5,0.8l0.9,1.4l0.9,1l1.1,0.6L-325.3,183.7L-325.3,183.7L-325.3,183.7z"/>
</g>
<g>
	<path d="M483.8-112.2h1.3v-2.5h1.4v-1.1h-1.4v-6.1h-1.3l-4.3,6v1.3h4.4V-112.2L483.8-112.2z M480.7-115.8l3.2-4.4v4.4H480.7
		L480.7-115.8z"/>
</g>
<g>
	<path d="M-325.3-118.2v-1.3h-2.5v-1.4h-1.1v1.4h-6.1v1.3l6,4.3h1.3v-4.4H-325.3L-325.3-118.2z M-328.9-115l-4.4-3.2h4.4V-115
		L-328.9-115z"/>
</g>
<g>
	<path d="M482.8,334.3h1.3v-10h-1l-0.3,0.9l-0.5,0.6l-0.8,0.3l-1.1,0.1v1h2.3V334.3L482.8,334.3z"/>
</g>
<g>
	<path d="M-325.3,329.3V328h-10v1l0.9,0.3l0.6,0.5l0.3,0.8l0.1,1.1h1v-2.3H-325.3L-325.3,329.3z"/>
</g>
<g>
	<path d="M120.4,290h-2.4v7.1h2.4l1.1-0.2l0.8-0.7l0.5-1.1l0.2-1.5l-0.2-1.6l-0.2-0.6l-0.3-0.5l-0.8-0.7l-0.5-0.2L120.4,290
		L120.4,290z M120.4,290.9l0.8,0.2l0.5,0.5l0.3,0.8l0.1,1.2l-0.1,1.2l-0.3,0.8l-0.5,0.5l-0.8,0.2H119v-5.4H120.4L120.4,290.9z
		 M125.9,290.9h0.6l1.4-1.7h-1L125.9,290.9L125.9,290.9z M125.3,294.6h3.6l0-0.4l-0.2-1.2l-0.5-0.9l-0.7-0.5l-0.9-0.2l-0.9,0.2
		l-0.7,0.6l-0.5,0.9l-0.2,1.2l0.2,1.3l0.5,0.9l0.7,0.6l0.9,0.2l0.8-0.1l0.7-0.3l0.5-0.5l0.3-0.7h-0.9l-0.2,0.4l-0.3,0.3l-0.8,0.2
		l-0.6-0.1l-0.4-0.4l-0.3-0.6L125.3,294.6L125.3,294.6L125.3,294.6z M125.3,293.9l0.1-0.7l0.3-0.5l0.4-0.3l0.6-0.1l0.5,0.1l0.4,0.3
		l0.3,0.5l0.1,0.7H125.3L125.3,293.9z M133.3,293.9l-0.9-0.2l-0.6-0.2l-0.2-0.5l0.1-0.3l0.2-0.2l0.3-0.2l0.5-0.1l0.5,0.1l0.4,0.2
		l0.2,0.3l0.1,0.4h0.9v0l-0.2-0.7l-0.4-0.5l-0.7-0.3l-0.9-0.1l-0.9,0.1l-0.6,0.3l-0.4,0.5l-0.1,0.6l0.1,0.6l0.3,0.4l0.5,0.3l0.7,0.2
		l1,0.2l0.6,0.3l0.2,0.2l0.1,0.3L134,296l-0.2,0.3l-0.4,0.2l-0.5,0.1l-0.6-0.1l-0.4-0.2l-0.3-0.3l-0.1-0.5h-0.9l0.1,0.8l0.4,0.6
		l0.7,0.4l0.9,0.1l1-0.1l0.7-0.4l0.4-0.6l0.2-0.7l-0.1-0.6l-0.3-0.4l-0.5-0.3L133.3,293.9L133.3,293.9z M139.5,296.3v-4.5h-2.3v0.8
		h1.4v3.8h-1.8v0.8h4.6v-0.8H139.5L139.5,296.3z M139.5,289.8h-0.9v1h0.9V289.8L139.5,289.8z M147.2,296.8v-5.2h-0.9v0.9l-0.7-0.8
		l-0.4-0.2l-0.5-0.1l-0.9,0.2l-0.7,0.6l-0.4,0.9l-0.2,1.2l0.2,1.2l0.4,0.9l0.7,0.6l0.9,0.2l0.5-0.1l0.4-0.2l0.7-0.8v0.8l-0.1,0.6
		l-0.2,0.4l-0.4,0.3l-0.6,0.1l-0.6-0.1l-0.4-0.2l-0.2-0.3l-0.1-0.4h-0.9v0l0.1,0.7l0.4,0.5l0.7,0.3l0.9,0.1l1.1-0.2l0.7-0.4l0.4-0.7
		L147.2,296.8L147.2,296.8z M143.5,294.3l0.1-0.9l0.3-0.7l0.4-0.4l0.6-0.1l0.6,0.1l0.5,0.4l0.3,0.7l0.1,0.9l-0.1,0.9l-0.3,0.7
		l-0.5,0.4l-0.6,0.1l-0.6-0.1l-0.4-0.4l-0.3-0.7L143.5,294.3L143.5,294.3z M149.1,297.1h0.9v-3.2l0.1-0.7l0.3-0.5l0.5-0.3l0.6-0.1
		l0.5,0.1l0.3,0.3l0.2,0.5l0.1,0.6v3.4h0.9v-3.6l0-0.7l-0.2-0.6l-0.6-0.5l-0.9-0.2l-0.5,0.1l-0.4,0.2l-0.4,0.3l-0.3,0.4v-0.8h-0.9
		V297.1L149.1,297.1z M158.5,296.4L158.5,296.4l0.1,0.4l0.2,0.2l0.6,0.2l0.5-0.1v-0.7l-0.2,0l-0.3-0.1l-0.1-0.4v-2.8l-0.1-0.7
		l-0.4-0.5l-0.6-0.3l-0.9-0.1l-0.9,0.1l-0.6,0.3l-0.4,0.5l-0.1,0.7v0.1h0.8l0.1-0.4l0.2-0.3l0.4-0.2l0.5-0.1l0.5,0.1l0.4,0.2
		l0.2,0.3l0.1,0.4l0,0.4l-0.2,0.2l-0.4,0.1l-0.8,0.1l-0.9,0.2l-0.6,0.3l-0.4,0.5l-0.1,0.8l0.1,0.7l0.3,0.5l0.5,0.3l0.7,0.1l0.9-0.2
		L158.5,296.4L158.5,296.4z M158.4,295.2l-0.1,0.5l-0.3,0.4l-0.5,0.3l-0.6,0.1l-0.4-0.1l-0.3-0.2L156,296l-0.1-0.4l0-0.4l0.2-0.3
		l0.7-0.3l0.8-0.1l0.7-0.2V295.2L158.4,295.2z M162.6,292.6v2.7l0.1,0.9l0.3,0.6l0.6,0.4l1,0.1l1.1-0.1v-0.8l-0.8,0.1l-0.7-0.1
		l-0.4-0.3l-0.2-0.4l0-0.6v-2.6h2.1v-0.8h-2.1v-1.6h-0.9v1.6H161v0.8H162.6L162.6,292.6z M170.3,296.3v-4.5h-2.3v0.8h1.4v3.8h-1.8
		v0.8h4.6v-0.8H170.3L170.3,296.3z M170.3,289.8h-0.9v1h0.9V289.8L170.3,289.8z M173.4,294.4l0.2,1.2l0.5,0.9l0.7,0.6l1,0.2l1-0.2
		l0.7-0.6l0.5-0.9l0.2-1.3l-0.2-1.2l-0.5-0.9l-0.7-0.6l-1-0.2l-1,0.2l-0.7,0.6l-0.5,0.9L173.4,294.4L173.4,294.4z M174.3,294.3
		l0.1-0.9l0.3-0.7l0.5-0.4l0.6-0.1l0.6,0.1l0.5,0.4l0.3,0.7l0.1,0.9l-0.1,0.9l-0.3,0.7l-0.5,0.4l-0.6,0.1l-0.6-0.1l-0.5-0.4
		l-0.3-0.7L174.3,294.3L174.3,294.3z M179.8,297.1h0.9v-3.2l0.1-0.7l0.3-0.5l0.5-0.3l0.6-0.1l0.5,0.1l0.3,0.3l0.2,0.5l0.1,0.6v3.4
		h0.9v-3.6l0-0.7l-0.2-0.6l-0.6-0.5l-0.9-0.2l-0.5,0.1l-0.4,0.2L181,292l-0.3,0.4v-0.8h-0.9V297.1L179.8,297.1z"/>
</g>
<g>
	<path d="M64.4,336.8h1.7v-5.9h5.4v-1.5h-5.4v-3.8h6.6V324h-8.3V336.8L64.4,336.8z M76,336.8h1.6v-5.6l0.2-1.4l0.5-1l0.8-0.6
		l1.1-0.2l0.8,0.1l0.6,0.4l0.4,0.6l0.1,0.8h1.6l-0.2-1.5l-0.6-1.1l-1-0.6l-1.4-0.2l-0.9,0.1l-0.8,0.4l-0.7,0.6l-0.6,0.8v-1.6H76
		V336.8L76,336.8z M86,331.9l0.3,2.2l0.8,1.7l1.3,1l1.8,0.3l1.8-0.3l1.3-1l0.8-1.7l0.3-2.3l-0.3-2.2l-0.8-1.7l-1.3-1l-1.8-0.4
		l-1.8,0.4l-1.3,1l-0.8,1.7L86,331.9L86,331.9z M87.7,331.8l0.2-1.7l0.5-1.2l0.8-0.7l1.1-0.3l1.1,0.3l0.8,0.7l0.5,1.2l0.2,1.7
		l-0.2,1.7l-0.5,1.2l-0.8,0.7l-1.1,0.2l-1.1-0.2l-0.8-0.7l-0.5-1.2L87.7,331.8L87.7,331.8z M97.6,336.8h1.6v-5.7l0.2-1.3l0.5-1
		l0.8-0.6l1.1-0.2l0.9,0.2l0.6,0.5l0.3,0.8l0.1,1.1v6.2h1.6v-6.5l-0.1-1.3l-0.3-1.1l-1.1-1l-1.7-0.3l-0.9,0.1l-0.8,0.3l-0.7,0.6
		l-0.5,0.8v-1.5h-1.5V336.8L97.6,336.8z M110.8,328.6v4.9l0.1,1.6l0.5,1.1l1,0.6l1.7,0.2l1.9-0.1v-1.4l-1.4,0.1l-1.3-0.1l-0.7-0.5
		l-0.3-0.8l-0.1-1.1v-4.7h3.7v-1.4h-3.7v-2.9h-1.6v2.9H108v1.4H110.8L110.8,328.6z M130.5,336.8h1.7v-5.4h1.7l1.3,0.1l0.8,0.3
		l0.4,0.6l0.2,1.1l0.1,1.7l0.1,1.1l0.2,0.6h1.9v-0.3l-0.4-0.5l-0.1-1l-0.1-2.1l-0.3-1.5l-0.4-0.5l-0.7-0.3l0.7-0.5l0.5-0.6l0.3-0.8
		l0.1-1l-0.3-1.5l-0.7-1.2l-1.2-0.7l-1.7-0.2h-4.3V336.8L130.5,336.8z M134.2,325.6l1.1,0.1l0.8,0.3l0.5,0.6l0.2,1l-0.2,1.1
		l-0.5,0.6l-0.8,0.3l-1.2,0.1h-2v-4.2H134.2L134.2,325.6z M146.8,335.4v-8.2h-4.2v1.4h2.5v6.8h-3.3v1.4h8.3v-1.4H146.8L146.8,335.4z
		 M146.8,323.6h-1.7v1.8h1.7V323.6L146.8,323.6z M160.6,336.3v-9.4H159v1.6l-1.3-1.5l-0.8-0.4l-0.9-0.1l-1.6,0.4l-1.2,1l-0.8,1.7
		l-0.3,2.2l0.3,2.2l0.8,1.7l1.2,1l1.6,0.3l0.9-0.1l0.7-0.3l1.3-1.4v1.4l-0.1,1.1l-0.4,0.8l-0.8,0.5l-1.2,0.2l-1-0.1l-0.7-0.3
		l-0.4-0.5l-0.1-0.6h-1.6v0.1l0.2,1.2l0.7,0.9l1.2,0.6l1.6,0.2l1.9-0.3l1.3-0.8l0.7-1.3L160.6,336.3L160.6,336.3z M153.9,331.8
		l0.2-1.6l0.5-1.2l0.8-0.7l1-0.3l1.1,0.3l0.8,0.7l0.5,1.2l0.2,1.6l-0.2,1.7l-0.5,1.2l-0.8,0.7l-1.1,0.2l-1-0.2l-0.8-0.7l-0.5-1.2
		L153.9,331.8L153.9,331.8z M163.9,336.8h1.6v-5.7l0.2-1.3l0.5-1l0.8-0.6l1.1-0.2l0.9,0.2l0.6,0.5l0.3,0.8l0.1,1.1v6.2h1.6v-6.5
		l-0.1-1.3l-0.3-1.1l-1.1-1l-1.7-0.3l-0.9,0.1l-0.8,0.3l-0.7,0.6l-0.5,0.8v-4.8h-1.6V336.8L163.9,336.8z M177.2,328.6v4.9l0.1,1.6
		l0.5,1.1l1,0.6l1.7,0.2l1.9-0.1v-1.4l-1.4,0.1l-1.3-0.1l-0.7-0.5l-0.3-0.8l-0.1-1.1v-4.7h3.7v-1.4h-3.7v-2.9h-1.6v2.9h-2.8v1.4
		H177.2L177.2,328.6z M196.6,331.9l0.3,2.3l0.8,1.6l1.4,0.9l2,0.3l1.9-0.3l1.4-0.9l0.8-1.6l0.3-2.3V324h-1.7v8l-0.2,1.6l-0.5,1.1
		l-0.8,0.7l-1.2,0.2l-1.2-0.2l-0.8-0.7l-0.5-1.1l-0.1-1.6v-8h-1.7V331.9L196.6,331.9z M209.7,328.4v-1.5h-1.6v13.7h1.6v-5.3l0.6,0.9
		l0.6,0.6l1.6,0.4l1.5-0.3l1.2-1l0.8-1.7l0.3-2.2l-0.3-2.2l-0.8-1.7l-1.2-1l-1.5-0.4l-0.9,0.1l-0.8,0.4l-0.6,0.6L209.7,328.4
		L209.7,328.4z M212.3,335.7l-1.1-0.2l-0.8-0.7l-0.5-1.2l-0.2-1.7l0.2-1.7l0.5-1.2l0.8-0.7l1.1-0.3l1,0.3l0.8,0.7l0.5,1.2l0.2,1.6
		l-0.2,1.7l-0.5,1.2l-0.8,0.7L212.3,335.7L212.3,335.7z M220.8,328.4v-1.5h-1.6v13.7h1.6v-5.3l0.6,0.9l0.6,0.6l1.6,0.4l1.5-0.3
		l1.2-1l0.8-1.7l0.3-2.2l-0.3-2.2l-0.8-1.7l-1.2-1l-1.5-0.4l-0.9,0.1L222,327l-0.6,0.6L220.8,328.4L220.8,328.4z M223.3,335.7
		l-1.1-0.2l-0.8-0.7l-0.5-1.2l-0.2-1.7l0.2-1.7l0.5-1.2l0.8-0.7l1.1-0.3l1,0.3l0.8,0.7l0.5,1.2l0.2,1.6l-0.2,1.7l-0.5,1.2l-0.8,0.7
		L223.3,335.7L223.3,335.7z M231.7,332.3h6.5l0-0.8l-0.3-2.1l-0.8-1.6l-1.3-1l-1.7-0.3l-1.7,0.4l-1.3,1l-0.8,1.7l-0.3,2.2l0.3,2.3
		l0.8,1.7l1.3,1l1.7,0.3l1.4-0.2l1.2-0.6l0.9-1l0.5-1.3h-1.6l-0.3,0.7l-0.5,0.5l-1.4,0.4l-1-0.2l-0.8-0.6l-0.5-1L231.7,332.3
		L231.7,332.3L231.7,332.3z M231.7,330.9l0.2-1.3l0.5-0.9l0.8-0.6l1-0.2l1,0.2l0.8,0.6l0.5,0.9l0.2,1.3H231.7L231.7,330.9z
		 M242,336.8h1.6v-5.6l0.2-1.4l0.5-1l0.8-0.6l1.1-0.2l0.8,0.1l0.6,0.4l0.4,0.6l0.1,0.8h1.6l-0.2-1.5l-0.6-1.1l-1-0.6l-1.4-0.2
		l-0.9,0.1l-0.8,0.4l-0.7,0.6l-0.6,0.8v-1.6H242V336.8L242,336.8z M261.7,336.8h1.7l1.3-3.8h5.1l1.3,3.8h1.7l-4.7-12.8h-1.9
		L261.7,336.8L261.7,336.8z M265.4,331.5l2-5.6l2,5.6H265.4L265.4,331.5z M276.2,332.6h4.4v-1.5h-4.4V332.6L276.2,332.6z
		 M283.9,336.8h1.7l1.3-3.8h5.1l1.3,3.8h1.7l-4.7-12.8h-1.9L283.9,336.8L283.9,336.8z M287.5,331.5l2-5.6l2,5.6H287.5L287.5,331.5z
		 M297.3,336.8h1.6v-5.6l0.2-1.4l0.5-1l0.8-0.6l1.1-0.2l0.8,0.1l0.6,0.4l0.4,0.6l0.1,0.8h1.6l-0.2-1.5l-0.6-1.1l-1-0.6l-1.4-0.2
		l-0.9,0.1l-0.8,0.4l-0.7,0.6l-0.6,0.8v-1.6h-1.5V336.8L297.3,336.8z M307.1,336.8h1.5v-6.6l0.1-1l0.3-0.7l0.4-0.4l0.6-0.2l0.4,0.1
		l0.3,0.4l0.1,0.6l0.1,0.8v6.9h1.4v-6.6l0.1-1l0.3-0.7l0.4-0.4l0.6-0.2l0.4,0.1l0.3,0.4l0.2,1.5v6.9h1.5V330l-0.1-1.4l-0.3-1.1
		l-0.6-0.7l-1-0.2l-1.1,0.4l-0.9,1.1l-0.7-1l-1.1-0.4l-1,0.4l-0.7,1v-1h-1.4V336.8L307.1,336.8z M330,336.8h1.7v-5.9h5.4v-1.5h-5.4
		v-3.8h6.6V324H330V336.8L330,336.8z M341.6,336.8h1.6v-5.6l0.2-1.4l0.5-1l0.8-0.6l1.1-0.2l0.8,0.1l0.6,0.4l0.4,0.6l0.1,0.8h1.6
		l-0.2-1.5l-0.6-1.1l-1-0.6l-1.4-0.2l-0.9,0.1l-0.8,0.4l-0.7,0.6l-0.6,0.8v-1.6h-1.5V336.8L341.6,336.8z M351.6,331.9l0.3,2.2
		l0.8,1.7l1.3,1l1.8,0.3l1.8-0.3l1.3-1l0.8-1.7l0.3-2.3l-0.3-2.2l-0.8-1.7l-1.3-1l-1.8-0.4l-1.8,0.4l-1.3,1l-0.8,1.7L351.6,331.9
		L351.6,331.9z M353.2,331.8l0.2-1.7l0.5-1.2l0.8-0.7l1.1-0.3l1.1,0.3l0.8,0.7l0.5,1.2l0.2,1.7l-0.2,1.7l-0.5,1.2l-0.8,0.7l-1.1,0.2
		l-1.1-0.2l-0.8-0.7l-0.5-1.2L353.2,331.8L353.2,331.8z M363.1,336.8h1.6v-5.7l0.2-1.3l0.5-1l0.8-0.6l1.1-0.2l0.9,0.2l0.6,0.5
		l0.3,0.8l0.1,1.1v6.2h1.6v-6.5l-0.1-1.3l-0.3-1.1l-1.1-1l-1.7-0.3l-0.9,0.1l-0.8,0.3l-0.7,0.6l-0.5,0.8v-1.5h-1.5V336.8
		L363.1,336.8z M376.3,328.6v4.9l0.1,1.6l0.5,1.1l1,0.6l1.7,0.2l1.9-0.1v-1.4l-1.4,0.1l-1.3-0.1l-0.7-0.5l-0.3-0.8l-0.1-1.1v-4.7
		h3.7v-1.4H378v-2.9h-1.6v2.9h-2.8v1.4H376.3L376.3,328.6z M395.7,331.9l0.3,2.3l0.8,1.6l1.4,0.9l2,0.3l1.9-0.3l1.4-0.9l0.8-1.6
		l0.3-2.3V324h-1.7v8l-0.2,1.6l-0.5,1.1l-0.8,0.7l-1.2,0.2l-1.2-0.2l-0.8-0.7l-0.5-1.1l-0.1-1.6v-8h-1.7V331.9L395.7,331.9z
		 M408.9,328.4v-1.5h-1.6v13.7h1.6v-5.3l0.6,0.9l0.6,0.6l1.6,0.4l1.5-0.3l1.2-1l0.8-1.7l0.3-2.2l-0.3-2.2l-0.8-1.7l-1.2-1l-1.5-0.4
		l-0.9,0.1l-0.8,0.4l-0.6,0.6L408.9,328.4L408.9,328.4z M411.5,335.7l-1.1-0.2l-0.8-0.7l-0.5-1.2l-0.2-1.7l0.2-1.7l0.5-1.2l0.8-0.7
		l1.1-0.3l1,0.3l0.8,0.7l0.5,1.2l0.2,1.6l-0.2,1.7l-0.5,1.2l-0.8,0.7L411.5,335.7L411.5,335.7z M420,328.4v-1.5h-1.6v13.7h1.6v-5.3
		l0.6,0.9l0.6,0.6l1.6,0.4l1.5-0.3l1.2-1l0.8-1.7l0.3-2.2l-0.3-2.2l-0.8-1.7l-1.2-1l-1.5-0.4l-0.9,0.1l-0.8,0.4l-0.6,0.6L420,328.4
		L420,328.4z M422.5,335.7l-1.1-0.2l-0.8-0.7l-0.5-1.2l-0.2-1.7l0.2-1.7l0.5-1.2l0.8-0.7l1.1-0.3l1,0.3l0.8,0.7l0.5,1.2l0.2,1.6
		l-0.2,1.7l-0.5,1.2l-0.8,0.7L422.5,335.7L422.5,335.7z M430.9,332.3h6.5l0-0.8l-0.3-2.1l-0.8-1.6l-1.3-1l-1.7-0.3l-1.7,0.4l-1.3,1
		l-0.8,1.7l-0.3,2.2l0.3,2.3l0.8,1.7l1.3,1l1.7,0.3l1.4-0.2l1.2-0.6l0.9-1l0.5-1.3h-1.6l-0.3,0.7l-0.5,0.5l-1.4,0.4l-1-0.2l-0.8-0.6
		l-0.5-1L430.9,332.3L430.9,332.3L430.9,332.3z M430.9,330.9l0.2-1.3l0.5-0.9l0.8-0.6l1-0.2l1,0.2l0.8,0.6l0.5,0.9l0.2,1.3H430.9
		L430.9,330.9z M441.2,336.8h1.6v-5.6l0.2-1.4l0.5-1l0.8-0.6l1.1-0.2l0.8,0.1l0.6,0.4l0.4,0.6l0.1,0.8h1.6l-0.2-1.5l-0.6-1.1l-1-0.6
		l-1.4-0.2l-0.9,0.1l-0.8,0.4l-0.7,0.6l-0.6,0.8v-1.6h-1.5V336.8L441.2,336.8z"/>
</g>
<g>
	<path d="M66.4,104.1h1.3v-4.6h4.2v-1.2h-4.2v-3h5.1v-1.2h-6.5V104.1L66.4,104.1z M74.7,104.1H76v-4.2h1.4l1,0l0.6,0.2l0.3,0.5
		l0.1,0.8l0.1,1.3l0.1,0.8l0.2,0.5h1.5v-0.3l-0.3-0.4l-0.1-0.7l-0.1-1.6l-0.2-1.2l-0.3-0.4l-0.5-0.3l0.6-0.4l0.4-0.5l0.3-0.6L81,97
		l-0.2-1.2l-0.6-0.9l-0.9-0.5L78,94.2h-3.3V104.1L74.7,104.1z M77.6,95.4l0.9,0.1l0.6,0.3l0.4,0.5l0.1,0.8l-0.1,0.8l-0.4,0.5
		l-0.7,0.3l-0.9,0.1H76v-3.3H77.6L77.6,95.4z M83.1,100.3l0.2,1.8l0.6,1.3l1.1,0.7l1.5,0.3l1.5-0.3l1.1-0.7l0.6-1.3l0.2-1.8v-6.1
		h-1.3v6.2l-0.1,1.2l-0.4,0.9l-0.7,0.5l-0.9,0.2l-0.9-0.2l-0.7-0.5l-0.4-0.9l-0.1-1.2v-6.2h-1.3V100.3L83.1,100.3z M93.4,100.8h3.5
		v-1.1h-3.5V100.8L93.4,100.8z"/>
</g>
<g>
	<path d="M66.4,121.3h1.3v-4.6h4.2v-1.2h-4.2v-3h5.1v-1.2h-6.5V121.3L66.4,121.3z M74.5,117.5l0.2,1.8l0.6,1.3l1.1,0.7l1.5,0.3
		l1.5-0.3l1.1-0.7l0.6-1.3l0.2-1.8v-6.1H80v6.2l-0.1,1.2l-0.4,0.9l-0.7,0.5l-0.9,0.2l-0.9-0.2l-0.7-0.5l-0.4-0.9l-0.1-1.2v-6.2h-1.3
		V117.5L74.5,117.5z M83.1,117.5l0.2,1.8l0.6,1.3l1.1,0.7l1.5,0.3l1.5-0.3l1.1-0.7l0.6-1.3l0.2-1.8v-6.1h-1.3v6.2l-0.1,1.2l-0.4,0.9
		l-0.7,0.5l-0.9,0.2l-0.9-0.2l-0.7-0.5l-0.4-0.9l-0.1-1.2v-6.2h-1.3V117.5L83.1,117.5z"/>
</g>
<path d="M202.4,100.1h1.3v-4.6h4.2v-1.2h-4.2v-3h5.1v-1.2h-6.5V100.1L202.4,100.1z M210.8,100.1h1.3v-4.2h1.4l1,0l0.6,0.2l0.3,0.5
	l0.1,0.8l0.1,1.3l0.1,0.8l0.2,0.5h1.5v-0.3l-0.3-0.4l-0.1-0.7l-0.1-1.6l-0.2-1.2l-0.3-0.4l-0.5-0.3l0.6-0.4l0.4-0.5l0.3-0.6l0.1-0.8
	l-0.2-1.2l-0.6-0.9l-0.9-0.5l-1.3-0.2h-3.3V100.1L210.8,100.1z M213.7,91.4l0.9,0.1l0.6,0.3l0.4,0.5l0.1,0.8l-0.1,0.8l-0.4,0.5
	l-0.7,0.3l-0.9,0.1h-1.5v-3.3H213.7L213.7,91.4z M219.2,96.3l0.2,1.8l0.6,1.3l1.1,0.7l1.5,0.3l1.5-0.3l1.1-0.7l0.6-1.3l0.2-1.8v-6.1
	h-1.3v6.2l-0.1,1.2l-0.4,0.9l-0.7,0.5l-0.9,0.2l-0.9-0.2l-0.7-0.5l-0.4-0.9l-0.1-1.2v-6.2h-1.3V96.3L219.2,96.3z M229.5,96.8h3.5
	v-1.1h-3.5V96.8L229.5,96.8z"/>
<path d="M202.4,117.2h1.3v-4.6h4.2v-1.2h-4.2v-3h5.1v-1.2h-6.5V117.2L202.4,117.2z M210.6,113.4l0.2,1.8l0.6,1.3l1.1,0.7l1.5,0.3
	l1.5-0.3l1.1-0.7l0.6-1.3l0.2-1.8v-6.1h-1.3v6.2l-0.1,1.2l-0.4,0.9l-0.7,0.5l-0.9,0.2l-0.9-0.2l-0.7-0.5l-0.4-0.9l-0.1-1.2v-6.2
	h-1.3V113.4L210.6,113.4z M222.6,107.3h-3.3v9.9h3.3l1.6-0.3l1.2-1l0.7-1.6l0.3-2.1l-0.2-2.2l-0.3-0.9l-0.4-0.7l-1.2-0.9l-0.8-0.2
	L222.6,107.3L222.6,107.3z M222.5,108.5l1.1,0.2l0.7,0.7l0.4,1.2l0.1,1.7l-0.2,1.7l-0.4,1.2l-0.8,0.7l-1.1,0.2h-1.9v-7.5H222.5
	L222.5,108.5z"/>
</svg>
