<?xml version="1.0" encoding="utf-8"?>
<!-- Generator: Adobe Illustrator 22.1.0, SVG Export Plug-In . SVG Version: 6.00 Build 0)  -->
<svg version="1.1" id="Calque_1" dsy:text-version="18000" xmlns:dsy="http://www.3ds.com/print"
	 xmlns="http://www.w3.org/2000/svg" xmlns:xlink="http://www.w3.org/1999/xlink" x="0px" y="0px" viewBox="0 0 297 210"
	 style="enable-background:new 0 0 297 210;" xml:space="preserve">
<style type="text/css">
	.st0{fill:none;stroke:#000000;stroke-width:0.35;}
</style>
<path class="st0" d="M257.2,63.6c-1.1-10.9-10.9-18.8-21.8-17.7c-8.8,0.9-15.9,7.5-17.5,16.3"/>
<path class="st0" d="M257.2,63.6l10.5,101"/>
<path class="st0" d="M217.9,62.2l-17.8,99.9"/>
<circle class="st0" cx="237.4" cy="65.7" r="9.1"/>
<path class="st0" d="M265.9,164.5c-9.1-18-30.5-24.9-47.9-15.6c-5.7,3.1-10.4,7.7-13.7,13.3"/>
<path class="st0" d="M267.6,164.6l-1.7-0.1"/>
<path class="st0" d="M204.3,162.3l-4.2-0.2"/>
<path class="st0" d="M89.4,64.2c-1.9-10.8-12.2-18-23-16.1c-8.7,1.5-15.4,8.7-16.3,17.5"/>
<path class="st0" d="M50.2,65.7l-10.4,101"/>
<path class="st0" d="M89.4,64.2l17.8,99.9"/>
<circle class="st0" cx="69.9" cy="67.7" r="9.1"/>
<path class="st0" d="M104.7,164.2c-8.6-18.2-29.8-25.7-47.4-16.7c-7.8,4-13.9,10.8-17.2,19.1"/>
<path class="st0" d="M39.7,166.6l0.4,0"/>
<path class="st0" d="M104.7,164.2l2.5-0.1"/>
<path class="st0" d="M-392.6,377.8h785.2"/>
<path class="st0" d="M392.6,377.8v-538.6"/>
<path class="st0" d="M392.6-160.7h-785.2"/>
<path class="st0" d="M-392.6-160.7v538.6"/>
<path class="st0" d="M0-160.7v-28.3"/>
<path class="st0" d="M-392.6,108.5h-28.3"/>
<path class="st0" d="M392.6,108.5h28.3"/>
<path class="st0" d="M210.3,377.8v21.3"/>
<path class="st0" d="M-210.3,377.8v21.3"/>
<path class="st0" d="M210.3-160.7V-182"/>
<path class="st0" d="M-210.3-160.7V-182"/>
<path class="st0" d="M-392.6-40.3h-21.3"/>
<path class="st0" d="M392.6-40.3h21.3"/>
<path class="st0" d="M-392.6,257.4h-21.3"/>
<path class="st0" d="M392.6,257.4h21.3"/>
<path class="st0" d="M141.7,377.8V392"/>
<path class="st0" d="M113.4,377.8v7.1"/>
<path class="st0" d="M85,377.8v7.1"/>
<path class="st0" d="M56.7,377.8v7.1"/>
<path class="st0" d="M392.6,207.8v170.1"/>
<g>
	<path d="M311.2,397.2h1.3l1-2.9h4l1,2.9h1.3l-3.6-9.9h-1.5L311.2,397.2L311.2,397.2z M314,393.1l1.5-4.4l1.5,4.4H314L314,393.1z"/>
</g>
<g>
	<path d="M-315.5,387.3h-3.3v9.9h3.3l1.6-0.3l1.2-1l0.7-1.6l0.3-2.1l-0.2-2.2l-0.3-0.9l-0.4-0.7l-1.2-0.9l-0.8-0.2L-315.5,387.3
		L-315.5,387.3z M-315.6,388.5l1.1,0.2l0.7,0.7l0.4,1.2l0.1,1.7l-0.2,1.7l-0.4,1.2l-0.8,0.7l-1.1,0.2h-1.9v-7.5H-315.6L-315.6,388.5
		z"/>
</g>
<g>
	<path d="M105-176.7l-0.8-1l-0.6-0.3l-0.7-0.1l-1.1,0.2l-0.8,0.6l-0.5,0.9l-0.2,1.3v3.5h9.9v-3.7l-0.2-1.3l-0.6-1l-0.9-0.6l-1.3-0.2
		l-0.8,0.1l-0.7,0.3l-0.5,0.6L105-176.7L105-176.7z M104.6-174.9v1.9h-2.9v-2.1l0.1-0.8l0.3-0.5l0.4-0.3l0.7-0.1l0.7,0.1l0.5,0.3
		l0.3,0.6L104.6-174.9L104.6-174.9z M109.2-175.2v2.3h-3.4v-2.1l0.1-0.9l0.3-0.6l0.5-0.4l0.7-0.1l0.8,0.1l0.5,0.4l0.3,0.6
		L109.2-175.2L109.2-175.2z"/>
</g>
<g>
	<path d="M-103.7-177.2l1.2,0.3l0.9,0.5l0.5,0.7l0.2,0.8l-0.3,0.9l-0.8,0.7l-1.3,0.5l-1.7,0.2l-1.7-0.2l-1.3-0.5l-0.8-0.7l-0.3-0.9
		l0.1-0.7l0.4-0.6l0.6-0.5l0.9-0.3v-1.4l-1.4,0.4l-1,0.7l-0.6,1l-0.2,1.2l0.4,1.5l1,1.2l1.6,0.7l2.2,0.3l2.2-0.3l1.6-0.7l1-1.2
		l0.3-1.5l-0.3-1.3l-0.8-1.1l-1.2-0.8l-1.7-0.4V-177.2L-103.7-177.2z"/>
</g>
<g>
	<path d="M320.7-170.6v-1.3l-2.9-1v-4l2.9-1v-1.3l-9.9,3.6v1.5L320.7-170.6L320.7-170.6z M316.6-173.4l-4.4-1.5l4.4-1.5V-173.4
		L316.6-173.4z"/>
</g>
<g>
	<path d="M-320.2-174.9v3.3h9.9v-3.3l-0.3-1.6l-1-1.2l-1.6-0.7l-2.1-0.3l-2.2,0.2l-0.9,0.3l-0.7,0.4l-0.9,1.2l-0.2,0.8L-320.2-174.9
		L-320.2-174.9z M-319-174.8l0.2-1.1l0.7-0.7l1.2-0.4l1.7-0.1l1.7,0.2l1.2,0.4l0.7,0.8l0.2,1.1v1.9h-7.5V-174.8L-319-174.8z"/>
</g>
<g>
	<path d="M403.2,36.2v0.1l0.2,1.4l0.7,1l1.1,0.7l1.4,0.2l1.5-0.2l1.1-0.6l0.7-1l0.3-1.3l-0.1-0.8l-0.3-0.7l-0.5-0.5l-0.7-0.4
		l0.9-0.8l0.3-1.2l-0.2-1.1l-0.6-0.8l-1-0.5l-1.4-0.2l-1.3,0.2l-1,0.6l-0.6,1l-0.2,1.3v0.1h1.3l0.1-0.9l0.4-0.7l0.6-0.4l0.8-0.1
		l0.7,0.1l0.5,0.3l0.3,0.5l0.1,0.7l-0.1,0.7l-0.3,0.5l-0.6,0.3l-0.8,0.1l-0.6,0v1.1l0.7,0l0.9,0.1l0.7,0.3l0.4,0.6l0.1,0.7l-0.2,0.8
		l-0.4,0.6l-0.7,0.4l-0.9,0.1l-0.9-0.1l-0.7-0.4l-0.4-0.7l-0.2-0.9H403.2L403.2,36.2z"/>
</g>
<g>
	<path d="M-404.7,37.7h0.1l1.4-0.2l1-0.7l0.7-1.1l0.2-1.4l-0.2-1.5l-0.6-1.1l-1-0.7l-1.3-0.3l-0.8,0.1l-0.7,0.3l-0.5,0.5l-0.4,0.7
		l-0.8-0.9l-1.2-0.3l-1.1,0.2l-0.8,0.6l-0.5,1l-0.2,1.4l0.2,1.3l0.6,1l1,0.6l1.3,0.2h0.1v-1.3l-0.9-0.1l-0.7-0.4l-0.4-0.6l-0.1-0.8
		l0.1-0.7l0.3-0.5l0.5-0.3l0.7-0.1l0.7,0.1l0.5,0.3l0.3,0.6l0.1,0.8l0,0.6h1.1l0-0.7l0.1-0.9l0.3-0.7l0.6-0.4l0.7-0.1l0.8,0.2
		l0.6,0.4l0.4,0.7l0.1,0.9l-0.1,0.9l-0.4,0.7l-0.7,0.4l-0.9,0.2V37.7L-404.7,37.7z"/>
</g>
<g>
	<path d="M403.3,188.1h6.8v-1.2h-5.4l0.3-0.7l0.5-0.6l1.6-1l0.8-0.4l0.9-0.6l0.7-0.7l0.4-0.8l0.1-1l-0.2-1.2l-0.7-0.9l-1-0.6
		l-1.3-0.2l-1.4,0.2l-1,0.7l-0.7,1.1l-0.2,1.4v0.2h1.3v-0.1l0.1-1l0.4-0.7l0.6-0.5l0.8-0.2l0.8,0.1l0.6,0.4l0.4,0.6l0.1,0.7
		l-0.1,0.7l-0.3,0.6l-0.5,0.5l-0.6,0.4l-0.8,0.5l-1.4,0.9l-1,0.9l-0.6,1.1L403.3,188.1L403.3,188.1L403.3,188.1z"/>
</g>
<g>
	<path d="M-401.6,186.4v-6.8h-1.2v5.4l-0.7-0.3l-0.6-0.5l-1-1.6l-0.4-0.8l-0.6-0.9l-0.7-0.7l-0.8-0.4l-1-0.1l-1.2,0.2l-0.9,0.7
		l-0.6,1l-0.2,1.3l0.2,1.4l0.7,1l1.1,0.7l1.4,0.2h0.2v-1.3h-0.1l-1-0.1l-0.7-0.4l-0.5-0.6l-0.2-0.8l0.1-0.8l0.4-0.6l0.6-0.4l0.7-0.1
		l0.7,0.1l0.6,0.3l0.5,0.5l0.4,0.6l0.5,0.8l0.9,1.4l0.9,1l1.1,0.6L-401.6,186.4L-401.6,186.4L-401.6,186.4z"/>
</g>
<g>
	<path d="M407.6-109.5h1.3v-2.5h1.4v-1.1h-1.4v-6.1h-1.3l-4.3,6v1.3h4.4V-109.5L407.6-109.5z M404.4-113.1l3.2-4.4v4.4H404.4
		L404.4-113.1z"/>
</g>
<g>
	<path d="M-401.6-115.5v-1.3h-2.5v-1.4h-1.1v1.4h-6.1v1.3l6,4.3h1.3v-4.4H-401.6L-401.6-115.5z M-405.2-112.3l-4.4-3.2h4.4V-112.3
		L-405.2-112.3z"/>
</g>
<g>
	<path d="M406.5,337h1.3v-10h-1l-0.3,0.9l-0.5,0.6l-0.8,0.3l-1.1,0.1v1h2.3V337L406.5,337z"/>
</g>
<g>
	<path d="M-401.6,332v-1.3h-10v1l0.9,0.3l0.6,0.5l0.3,0.8l0.1,1.1h1V332H-401.6L-401.6,332z"/>
</g>
<g>
	<path d="M44.2,292.7h-2.4v7.1h2.4l1.1-0.2l0.8-0.7l0.5-1.1l0.2-1.5l-0.2-1.6l-0.2-0.6l-0.3-0.5l-0.8-0.7l-0.5-0.2L44.2,292.7
		L44.2,292.7z M44.1,293.6l0.8,0.2l0.5,0.5l0.3,0.8l0.1,1.2l-0.1,1.2l-0.3,0.8l-0.5,0.5l-0.8,0.2h-1.3v-5.4H44.1L44.1,293.6z
		 M49.6,293.6h0.6l1.4-1.7h-1L49.6,293.6L49.6,293.6z M49,297.3h3.6l0-0.4l-0.2-1.2l-0.5-0.9l-0.7-0.5l-0.9-0.2l-0.9,0.2l-0.7,0.6
		l-0.5,0.9l-0.2,1.2l0.2,1.3l0.5,0.9l0.7,0.6l0.9,0.2l0.8-0.1l0.7-0.3l0.5-0.5l0.3-0.7h-0.9l-0.2,0.4l-0.3,0.3l-0.8,0.2l-0.6-0.1
		l-0.4-0.4l-0.3-0.6L49,297.3L49,297.3L49,297.3z M49,296.6l0.1-0.7l0.3-0.5l0.4-0.3l0.6-0.1l0.5,0.1l0.4,0.3l0.3,0.5l0.1,0.7H49
		L49,296.6z M57,296.6l-0.9-0.2l-0.6-0.2l-0.2-0.5l0.1-0.3l0.2-0.2l0.3-0.2l0.5-0.1l0.5,0.1l0.4,0.2l0.2,0.3l0.1,0.4h0.9v0l-0.2-0.7
		l-0.4-0.5l-0.7-0.3l-0.9-0.1l-0.9,0.1l-0.6,0.3l-0.4,0.5l-0.1,0.6l0.1,0.6l0.3,0.4l0.5,0.3l0.7,0.2l1,0.2l0.6,0.3l0.2,0.2l0.1,0.3
		l-0.1,0.4l-0.2,0.3l-0.4,0.2l-0.5,0.1l-0.6-0.1l-0.4-0.2l-0.3-0.3l-0.1-0.5h-0.9l0.1,0.8l0.4,0.6l0.7,0.4l0.9,0.1l1-0.1l0.7-0.4
		l0.4-0.6l0.2-0.7l-0.1-0.6l-0.3-0.4l-0.5-0.3L57,296.6L57,296.6z M63.2,299v-4.5h-2.3v0.8h1.4v3.8h-1.8v0.8h4.6V299H63.2L63.2,299z
		 M63.3,292.5h-0.9v1h0.9V292.5L63.3,292.5z M70.9,299.6v-5.2h-0.9v0.9l-0.7-0.8l-0.4-0.2l-0.5-0.1l-0.9,0.2l-0.7,0.6l-0.4,0.9
		l-0.2,1.2l0.2,1.2l0.4,0.9l0.7,0.6l0.9,0.2l0.5-0.1l0.4-0.2l0.7-0.8v0.8l-0.1,0.6l-0.2,0.4l-0.4,0.3l-0.6,0.1l-0.6-0.1l-0.4-0.2
		l-0.2-0.3l-0.1-0.4h-0.9v0l0.1,0.7l0.4,0.5l0.7,0.3l0.9,0.1l1.1-0.2l0.7-0.4l0.4-0.7L70.9,299.6L70.9,299.6z M67.2,297l0.1-0.9
		l0.3-0.7l0.4-0.4l0.6-0.1l0.6,0.1l0.5,0.4l0.3,0.7L70,297l-0.1,0.9l-0.3,0.7l-0.5,0.4l-0.6,0.1L68,299l-0.4-0.4l-0.3-0.7L67.2,297
		L67.2,297z M72.8,299.8h0.9v-3.2l0.1-0.7l0.3-0.5l0.5-0.3l0.6-0.1l0.5,0.1l0.3,0.3l0.2,0.5l0.1,0.6v3.4h0.9v-3.6l0-0.7l-0.2-0.6
		l-0.6-0.5l-0.9-0.2l-0.5,0.1l-0.4,0.2l-0.4,0.3l-0.3,0.4v-0.8h-0.9V299.8L72.8,299.8z M82.2,299.1L82.2,299.1l0.1,0.4l0.2,0.2
		l0.6,0.2l0.5-0.1v-0.7l-0.2,0L83,299l-0.1-0.4v-2.8l-0.1-0.7l-0.4-0.5l-0.6-0.3l-0.9-0.1l-0.9,0.1l-0.6,0.3l-0.4,0.5l-0.1,0.7v0.1
		h0.8l0.1-0.4l0.2-0.3l0.4-0.2l0.5-0.1l0.5,0.1l0.4,0.2l0.2,0.3l0.1,0.4l0,0.4l-0.2,0.2l-0.4,0.1l-0.8,0.1l-0.9,0.2l-0.6,0.3
		l-0.4,0.5l-0.1,0.8l0.1,0.7l0.3,0.5l0.5,0.3l0.7,0.1l0.9-0.2L82.2,299.1L82.2,299.1z M82.1,297.9l-0.1,0.5l-0.3,0.4l-0.5,0.3
		l-0.6,0.1l-0.4-0.1l-0.3-0.2l-0.2-0.3l-0.1-0.4l0-0.4l0.2-0.3l0.7-0.3l0.8-0.1l0.7-0.2V297.9L82.1,297.9z M86.3,295.3v2.7l0.1,0.9
		l0.3,0.6l0.6,0.4l1,0.1l1.1-0.1v-0.8l-0.8,0.1l-0.7-0.1l-0.4-0.3l-0.2-0.4l0-0.6v-2.6h2.1v-0.8h-2.1v-1.6h-0.9v1.6h-1.6v0.8H86.3
		L86.3,295.3z M94,299v-4.5h-2.3v0.8h1.4v3.8h-1.8v0.8h4.6V299H94L94,299z M94,292.5h-0.9v1H94V292.5L94,292.5z M97.1,297.1l0.2,1.2
		l0.5,0.9l0.7,0.6l1,0.2l1-0.2l0.7-0.6l0.5-0.9l0.2-1.3l-0.2-1.2l-0.5-0.9l-0.7-0.6l-1-0.2l-1,0.2l-0.7,0.6l-0.5,0.9L97.1,297.1
		L97.1,297.1z M98,297l0.1-0.9l0.3-0.7l0.5-0.4l0.6-0.1l0.6,0.1l0.5,0.4l0.3,0.7l0.1,0.9l-0.1,0.9l-0.3,0.7l-0.5,0.4l-0.6,0.1
		l-0.6-0.1l-0.5-0.4l-0.3-0.7L98,297L98,297z M103.5,299.8h0.9v-3.2l0.1-0.7l0.3-0.5l0.5-0.3l0.6-0.1l0.5,0.1l0.3,0.3l0.2,0.5
		l0.1,0.6v3.4h0.9v-3.6l0-0.7l-0.2-0.6l-0.6-0.5l-0.9-0.2l-0.5,0.1l-0.4,0.2l-0.4,0.3l-0.3,0.4v-0.8h-0.9V299.8L103.5,299.8z"/>
</g>
<g>
	<path d="M-11.9,339.5h1.7v-5.9h5.4v-1.5h-5.4v-3.8h6.6v-1.5h-8.3V339.5L-11.9,339.5z M-0.2,339.5h1.6v-5.6l0.2-1.4l0.5-1l0.8-0.6
		l1.1-0.2l0.8,0.1l0.6,0.4l0.4,0.6l0.1,0.8h1.6l-0.2-1.5l-0.6-1.1l-1-0.6l-1.4-0.2l-0.9,0.1l-0.8,0.4l-0.7,0.6l-0.6,0.8v-1.6h-1.5
		V339.5L-0.2,339.5z M9.7,334.6l0.3,2.2l0.8,1.7l1.3,1l1.8,0.3l1.8-0.3l1.3-1l0.8-1.7l0.3-2.3l-0.3-2.2l-0.8-1.7l-1.3-1l-1.8-0.4
		l-1.8,0.4l-1.3,1l-0.8,1.7L9.7,334.6L9.7,334.6z M11.4,334.5l0.2-1.7l0.5-1.2l0.8-0.7l1.1-0.3l1.1,0.3l0.8,0.7l0.5,1.2l0.2,1.7
		l-0.2,1.7l-0.5,1.2l-0.8,0.7l-1.1,0.2l-1.1-0.2l-0.8-0.7l-0.5-1.2L11.4,334.5L11.4,334.5z M21.3,339.5h1.6v-5.7l0.2-1.3l0.5-1
		l0.8-0.6l1.1-0.2l0.9,0.2l0.6,0.5l0.3,0.8l0.1,1.1v6.2H29V333l-0.1-1.3l-0.3-1.1l-1.1-1l-1.7-0.3l-0.9,0.1l-0.8,0.3l-0.7,0.6
		l-0.5,0.8v-1.5h-1.5V339.5L21.3,339.5z M34.5,331.3v4.9l0.1,1.6l0.5,1.1l1,0.6l1.7,0.2l1.9-0.1v-1.4l-1.4,0.1l-1.3-0.1l-0.7-0.5
		l-0.3-0.8l-0.1-1.1v-4.7h3.7v-1.4h-3.7v-2.9h-1.6v2.9h-2.8v1.4H34.5L34.5,331.3z M54.2,339.5h1.7v-5.4h1.7l1.3,0.1l0.8,0.3l0.4,0.6
		l0.2,1.1l0.1,1.7l0.1,1.1l0.2,0.6h1.9v-0.3l-0.4-0.5l-0.1-1l-0.1-2.1l-0.3-1.5l-0.4-0.5l-0.7-0.3l0.7-0.5l0.5-0.6l0.3-0.8l0.1-1
		l-0.3-1.5l-0.7-1.2l-1.2-0.7l-1.7-0.2h-4.3V339.5L54.2,339.5z M58,328.3l1.1,0.1l0.8,0.3l0.5,0.6l0.2,1l-0.2,1.1l-0.5,0.6l-0.8,0.3
		l-1.2,0.1h-2v-4.2H58L58,328.3z M70.5,338.1v-8.2h-4.2v1.4h2.5v6.8h-3.3v1.4h8.3v-1.4H70.5L70.5,338.1z M70.5,326.3h-1.7v1.8h1.7
		V326.3L70.5,326.3z M84.3,339v-9.4h-1.5v1.6l-1.3-1.5l-0.8-0.4l-0.9-0.1l-1.6,0.4l-1.2,1l-0.8,1.7l-0.3,2.2l0.3,2.2l0.8,1.7l1.2,1
		l1.6,0.3l0.9-0.1l0.7-0.3l1.3-1.4v1.4l-0.1,1.1l-0.4,0.8l-0.8,0.5l-1.2,0.2l-1-0.1l-0.7-0.3l-0.4-0.5l-0.1-0.6h-1.6v0.1l0.2,1.2
		l0.7,0.9l1.2,0.6l1.6,0.2l1.9-0.3l1.3-0.8l0.7-1.3L84.3,339L84.3,339z M77.7,334.5l0.2-1.6l0.5-1.2l0.8-0.7l1-0.3l1.1,0.3l0.8,0.7
		l0.5,1.2l0.2,1.6l-0.2,1.7l-0.5,1.2l-0.8,0.7l-1.1,0.2l-1-0.2l-0.8-0.7l-0.5-1.2L77.7,334.5L77.7,334.5z M87.7,339.5h1.6v-5.7
		l0.2-1.3l0.5-1l0.8-0.6l1.1-0.2l0.9,0.2l0.6,0.5l0.3,0.8l0.1,1.1v6.2h1.6V333l-0.1-1.3l-0.3-1.1l-1.1-1l-1.7-0.3l-0.9,0.1l-0.8,0.3
		l-0.7,0.6l-0.5,0.8v-4.8h-1.6V339.5L87.7,339.5z M100.9,331.3v4.9l0.1,1.6l0.5,1.1l1,0.6l1.7,0.2l1.9-0.1v-1.4l-1.4,0.1l-1.3-0.1
		l-0.7-0.5l-0.3-0.8l-0.1-1.1v-4.7h3.7v-1.4h-3.7v-2.9h-1.6v2.9h-2.8v1.4H100.9L100.9,331.3z M120.3,334.6l0.3,2.3l0.8,1.6l1.4,0.9
		l2,0.3l1.9-0.3l1.4-0.9l0.8-1.6l0.3-2.3v-7.9h-1.7v8l-0.2,1.6l-0.5,1.1l-0.8,0.7l-1.2,0.2l-1.2-0.2l-0.8-0.7l-0.5-1.1l-0.1-1.6v-8
		h-1.7V334.6L120.3,334.6z M133.5,331.1v-1.5h-1.6v13.7h1.6V338l0.6,0.9l0.6,0.6l1.6,0.4l1.5-0.3l1.2-1l0.8-1.7l0.3-2.2l-0.3-2.2
		l-0.8-1.7l-1.2-1l-1.5-0.4l-0.9,0.1l-0.8,0.4l-0.6,0.6L133.5,331.1L133.5,331.1z M136,338.4l-1.1-0.2l-0.8-0.7l-0.5-1.2l-0.2-1.7
		l0.2-1.7l0.5-1.2l0.8-0.7l1.1-0.3l1,0.3l0.8,0.7l0.5,1.2l0.2,1.6l-0.2,1.7l-0.5,1.2l-0.8,0.7L136,338.4L136,338.4z M144.5,331.1
		v-1.5h-1.6v13.7h1.6V338l0.6,0.9l0.6,0.6l1.6,0.4l1.5-0.3l1.2-1l0.8-1.7l0.3-2.2l-0.3-2.2l-0.8-1.7l-1.2-1l-1.5-0.4l-0.9,0.1
		l-0.8,0.4l-0.6,0.6L144.5,331.1L144.5,331.1z M147.1,338.4l-1.1-0.2l-0.8-0.7l-0.5-1.2l-0.2-1.7l0.2-1.7l0.5-1.2l0.8-0.7l1.1-0.3
		l1,0.3l0.8,0.7l0.5,1.2l0.2,1.6l-0.2,1.7l-0.5,1.2l-0.8,0.7L147.1,338.4L147.1,338.4z M155.5,335h6.5l0-0.8l-0.3-2.1l-0.8-1.6
		l-1.3-1l-1.7-0.3l-1.7,0.4l-1.3,1l-0.8,1.7l-0.3,2.2l0.3,2.3l0.8,1.7l1.3,1l1.7,0.3l1.4-0.2l1.2-0.6l0.9-1l0.5-1.3h-1.6l-0.3,0.7
		l-0.5,0.5l-1.4,0.4l-1-0.2l-0.8-0.6l-0.5-1L155.5,335L155.5,335L155.5,335z M155.5,333.7l0.2-1.3l0.5-0.9l0.8-0.6l1-0.2l1,0.2
		l0.8,0.6l0.5,0.9l0.2,1.3H155.5L155.5,333.7z M165.7,339.5h1.6v-5.6l0.2-1.4l0.5-1l0.8-0.6l1.1-0.2l0.8,0.1l0.6,0.4l0.4,0.6
		l0.1,0.8h1.6l-0.2-1.5l-0.6-1.1l-1-0.6l-1.4-0.2l-0.9,0.1l-0.8,0.4l-0.7,0.6l-0.6,0.8v-1.6h-1.5V339.5L165.7,339.5z M185.5,339.5
		h1.7l1.3-3.8h5.1l1.3,3.8h1.7l-4.7-12.8h-1.9L185.5,339.5L185.5,339.5z M189.1,334.2l2-5.6l2,5.6H189.1L189.1,334.2z M199.9,335.3
		h4.4v-1.5h-4.4V335.3L199.9,335.3z M207.6,339.5h1.7l1.3-3.8h5.1l1.3,3.8h1.7l-4.7-12.8h-1.9L207.6,339.5L207.6,339.5z
		 M211.2,334.2l2-5.6l2,5.6H211.2L211.2,334.2z M221.1,339.5h1.6v-5.6l0.2-1.4l0.5-1l0.8-0.6l1.1-0.2l0.8,0.1l0.6,0.4l0.4,0.6
		l0.1,0.8h1.6l-0.2-1.5l-0.6-1.1l-1-0.6l-1.4-0.2l-0.9,0.1l-0.8,0.4l-0.7,0.6l-0.6,0.8v-1.6h-1.5V339.5L221.1,339.5z M230.9,339.5
		h1.5v-6.6l0.1-1l0.3-0.7l0.4-0.4l0.6-0.2l0.4,0.1l0.3,0.4l0.1,0.6l0.1,0.8v6.9h1.4v-6.6l0.1-1l0.3-0.7l0.4-0.4l0.6-0.2l0.4,0.1
		l0.3,0.4l0.2,1.5v6.9h1.5v-6.8l-0.1-1.4l-0.3-1.1l-0.6-0.7l-1-0.2l-1.1,0.4l-0.9,1.1l-0.7-1l-1.1-0.4l-1,0.4l-0.7,1v-1h-1.4V339.5
		L230.9,339.5z M253.7,339.5h1.7v-5.9h5.4v-1.5h-5.4v-3.8h6.6v-1.5h-8.3V339.5L253.7,339.5z M265.3,339.5h1.6v-5.6l0.2-1.4l0.5-1
		l0.8-0.6l1.1-0.2l0.8,0.1l0.6,0.4l0.4,0.6l0.1,0.8h1.6l-0.2-1.5l-0.6-1.1l-1-0.6l-1.4-0.2l-0.9,0.1l-0.8,0.4l-0.7,0.6l-0.6,0.8
		v-1.6h-1.5V339.5L265.3,339.5z M275.3,334.6l0.3,2.2l0.8,1.7l1.3,1l1.8,0.3l1.8-0.3l1.3-1l0.8-1.7l0.3-2.3l-0.3-2.2l-0.8-1.7
		l-1.3-1l-1.8-0.4l-1.8,0.4l-1.3,1l-0.8,1.7L275.3,334.6L275.3,334.6z M277,334.5l0.2-1.7l0.5-1.2l0.8-0.7l1.1-0.3l1.1,0.3l0.8,0.7
		l0.5,1.2l0.2,1.7l-0.2,1.7l-0.5,1.2l-0.8,0.7l-1.1,0.2l-1.1-0.2l-0.8-0.7l-0.5-1.2L277,334.5L277,334.5z M286.8,339.5h1.6v-5.7
		l0.2-1.3l0.5-1l0.8-0.6l1.1-0.2l0.9,0.2l0.6,0.5l0.3,0.8l0.1,1.1v6.2h1.6V333l-0.1-1.3l-0.3-1.1l-1.1-1l-1.7-0.3l-0.9,0.1l-0.8,0.3
		l-0.7,0.6l-0.5,0.8v-1.5h-1.5V339.5L286.8,339.5z M300.1,331.3v4.9l0.1,1.6l0.5,1.1l1,0.6l1.7,0.2l1.9-0.1v-1.4l-1.4,0.1l-1.3-0.1
		l-0.7-0.5l-0.3-0.8l-0.1-1.1v-4.7h3.7v-1.4h-3.7v-2.9h-1.6v2.9h-2.8v1.4H300.1L300.1,331.3z M320.1,339.5h8.2v-1.5h-6.5v-11.2h-1.7
		V339.5L320.1,339.5z M330.6,334.6l0.3,2.2l0.8,1.7l1.3,1l1.8,0.3l1.8-0.3l1.3-1l0.8-1.7l0.3-2.3l-0.3-2.2l-0.8-1.7l-1.3-1l-1.8-0.4
		l-1.8,0.4l-1.3,1l-0.8,1.7L330.6,334.6L330.6,334.6z M332.3,334.5l0.2-1.7l0.5-1.2l0.8-0.7l1.1-0.3l1.1,0.3l0.8,0.7l0.5,1.2
		l0.2,1.7l-0.2,1.7l-0.5,1.2l-0.8,0.7l-1.1,0.2l-1.1-0.2l-0.8-0.7l-0.5-1.2L332.3,334.5L332.3,334.5z M344.5,339.5l1.5-8.4l1.5,8.4
		h1.5l2.4-9.9h-1.6l-1.6,8.4l-1.5-8.4h-1.6l-1.5,8.4l-1.6-8.4h-1.5l2.4,9.9H344.5L344.5,339.5z M354.6,335h6.5l0-0.8l-0.3-2.1
		l-0.8-1.6l-1.3-1l-1.7-0.3l-1.7,0.4l-1.3,1l-0.8,1.7l-0.3,2.2l0.3,2.3l0.8,1.7l1.3,1l1.7,0.3l1.4-0.2l1.2-0.6l0.9-1l0.5-1.3h-1.6
		l-0.3,0.7l-0.5,0.5l-1.4,0.4l-1-0.2l-0.8-0.6l-0.5-1L354.6,335L354.6,335L354.6,335z M354.6,333.7l0.2-1.3l0.5-0.9l0.8-0.6l1-0.2
		l1,0.2l0.8,0.6l0.5,0.9l0.2,1.3H354.6L354.6,333.7z M364.9,339.5h1.6v-5.6l0.2-1.4l0.5-1l0.8-0.6l1.1-0.2l0.8,0.1l0.6,0.4l0.4,0.6
		l0.1,0.8h1.6l-0.2-1.5l-0.6-1.1l-1-0.6l-1.4-0.2l-0.9,0.1l-0.8,0.4l-0.7,0.6l-0.6,0.8v-1.6h-1.5V339.5L364.9,339.5z"/>
</g>
<path d="M217.5,118.7h1.3v-4.6h4.2v-1.2h-4.2v-3h5.1v-1.2h-6.5V118.7L217.5,118.7z M225.9,118.7h1.3v-4.2h1.4l1,0l0.6,0.2l0.3,0.5
	l0.1,0.8l0.1,1.3l0.1,0.8l0.2,0.5h1.5v-0.3l-0.3-0.4l-0.1-0.7l-0.1-1.6l-0.2-1.2l-0.3-0.4l-0.5-0.3l0.6-0.4l0.4-0.5l0.3-0.6l0.1-0.8
	l-0.2-1.2l-0.6-0.9l-0.9-0.5l-1.3-0.2h-3.3V118.7L225.9,118.7z M228.8,110l0.9,0.1l0.6,0.3l0.4,0.5l0.1,0.8l-0.1,0.8l-0.4,0.5
	l-0.7,0.3l-0.9,0.1h-1.5V110H228.8L228.8,110z M234.2,114.9l0.2,1.8l0.6,1.3l1.1,0.7l1.5,0.3l1.5-0.3l1.1-0.7l0.6-1.3l0.2-1.8v-6.1
	h-1.3v6.2l-0.1,1.2l-0.4,0.9l-0.7,0.5l-0.9,0.2l-0.9-0.2L236,117l-0.4-0.9l-0.1-1.2v-6.2h-1.3V114.9L234.2,114.9z M244.5,115.4h3.5
	v-1.1h-3.5V115.4L244.5,115.4z"/>
<path d="M217.5,135.8h1.3v-4.6h4.2v-1.2h-4.2v-3h5.1v-1.2h-6.5V135.8L217.5,135.8z M226.1,135.8h6.4v-1.2h-5.1v-8.7h-1.3V135.8
	L226.1,135.8z M237.6,125.9h-3.3v9.9h3.3l1.6-0.3l1.2-1l0.7-1.6l0.3-2.1l-0.2-2.2l-0.3-0.9l-0.4-0.7l-1.2-0.9l-0.8-0.2L237.6,125.9
	L237.6,125.9z M237.5,127.1l1.1,0.2l0.7,0.7l0.4,1.2l0.1,1.7l-0.2,1.7l-0.4,1.2l-0.8,0.7l-1.1,0.2h-1.9v-7.5H237.5L237.5,127.1z"/>
<path d="M55.7,120.7h1.3v-4.6h4.2v-1.2h-4.2v-3h5.1v-1.2h-6.5V120.7L55.7,120.7z M64.1,120.7h1.3v-4.2h1.4l1,0l0.6,0.2l0.3,0.5
	l0.1,0.8l0.1,1.3l0.1,0.8l0.2,0.5h1.5v-0.3l-0.3-0.4l-0.1-0.7l-0.1-1.6l-0.2-1.2l-0.3-0.4l-0.5-0.3l0.6-0.4l0.4-0.5l0.3-0.6l0.1-0.8
	l-0.2-1.2l-0.6-0.9l-0.9-0.5l-1.3-0.2h-3.3V120.7L64.1,120.7z M67,112l0.9,0.1l0.6,0.3l0.4,0.5l0.1,0.8l-0.1,0.8l-0.4,0.5l-0.7,0.3
	l-0.9,0.1h-1.5V112H67L67,112z M72.5,116.9l0.2,1.8l0.6,1.3l1.1,0.7l1.5,0.3l1.5-0.3l1.1-0.7l0.6-1.3l0.2-1.8v-6.1H78v6.2l-0.1,1.2
	l-0.4,0.9l-0.7,0.5l-0.9,0.2l-0.9-0.2l-0.7-0.5l-0.4-0.9l-0.1-1.2v-6.2h-1.3V116.9L72.5,116.9z M82.8,117.4h3.5v-1.1h-3.5V117.4
	L82.8,117.4z"/>
<path d="M55.7,137.8h1.3v-4.6h4.2v-1.2h-4.2v-3h5.1v-1.2h-6.5V137.8L55.7,137.8z M64.4,137.8h6.4v-1.2h-5.1v-8.7h-1.3V137.8
	L64.4,137.8z M72.5,134l0.2,1.8l0.6,1.3l1.1,0.7l1.5,0.3l1.5-0.3l1.1-0.7l0.6-1.3l0.2-1.8v-6.1H78v6.2l-0.1,1.2l-0.4,0.9l-0.7,0.5
	l-0.9,0.2l-0.9-0.2l-0.7-0.5l-0.4-0.9l-0.1-1.2v-6.2h-1.3V134L72.5,134z"/>
</svg>
