<?xml version="1.0" encoding="utf-8" ?><!DOCTYPE svg PUBLIC "-//W3C//DTD SVG 1.1//EN" "http://www.w3.org/Graphics/SVG/1.1/DTD/svg11.dtd" 
[ <!ATTLIST svg 
  xmlns:dsy CDATA #FIXED "http://www.3ds.com/print"  
    dsy:text-version CDATA #IMPLIED > 

  <!ATTLIST text 
  xmlns:dsy CDATA #FIXED "http://www.3ds.com/print" 
    dsy:text-version CDATA #IMPLIED > 
]><svg xmlns="http://www.w3.org/2000/svg" xmlns:dsy="http://www.3ds.com/print" dsy:text-version="18000" width="297" height="210" viewBox="0 0 297 210" version="1.1"><g stroke="rgb(0, 0, 0)" stroke-width="0.35" stroke-linecap="butt" stroke-linejoin="miter" fill="none"><path d="M 134.523 95.5726 A 7.00002 7.00002 0 0 0 120.913 92.93"/><circle cx="127.533" cy="95.2076" r="3.20001"/><path d="M 133.166 121.566 A 15.1598 15.0039 -2.82411 0 0 121.186 116.561"/><path d="M 121.186 116.562 A 15.2499 15.2499 0 0 0 111.346 120.733"/><path d="M 134.523 95.5726 L 133.166 121.566"/><path d="M 120.913 92.93 L 111.346 120.734"/><path d="M 209.025 103.031 A 7 7 0 0 0 195.918 98.515"/><circle cx="202.154" cy="101.694" r="3.2"/><path d="M 203.228 132.821 A 15.1624 15.0084 -328.114 0 0 196.484 123.048"/><path d="M 196.484 123.048 A 15.1531 14.993 -328.002 0 0 184.371 121.166"/><path d="M 195.918 98.515 L 184.371 121.166"/><path d="M 209.025 103.031 L 203.228 132.821"/></g><g stroke="rgb(0, 0, 0)" stroke-width="0.13" stroke-linecap="butt" stroke-linejoin="miter" fill="none"><path d="M 119.978 176.938 L 120.641 176.938 L 121.167 175.468 L 123.163 175.468 L 123.689 176.938 L 124.366 176.938 L 122.536 171.931 L 121.801 171.931 L 119.978 176.938 L 119.978 176.938 z M 121.398 174.856 L 122.169 172.651 L 122.939 174.856 L 121.398 174.856 L 121.398 174.856 z M 125.634 175.288 L 127.378 175.288 L 127.378 174.719 L 125.634 174.719 L 125.634 175.288 L 125.634 175.288 z M 128.653 176.938 L 129.316 176.938 L 129.842 175.468 L 131.837 175.468 L 132.363 176.938 L 133.04 176.938 L 131.21 171.931 L 130.476 171.931 L 128.653 176.938 L 128.653 176.938 z M 130.072 174.856 L 130.843 172.651 L 131.614 174.856 L 130.072 174.856 L 130.072 174.856 z M 133.927 176.938 L 134.561 176.938 L 134.561 174.726 L 134.625 174.193 L 134.82 173.811 L 135.137 173.581 L 135.562 173.501 L 135.879 173.552 L 136.117 173.696 L 136.261 173.941 L 136.311 174.272 L 136.952 174.272 L 136.866 173.689 L 136.628 173.271 L 136.232 173.019 L 135.692 172.932 L 135.324 172.99 L 135.007 173.134 L 134.726 173.379 L 134.503 173.71 L 134.503 173.069 L 133.927 173.069 L 133.927 176.938 L 133.927 176.938 z M 137.774 176.938 L 138.357 176.938 L 138.357 174.352 L 138.393 173.963 L 138.501 173.682 L 138.667 173.516 L 138.883 173.451 L 139.056 173.509 L 139.172 173.653 L 139.229 173.898 L 139.251 174.222 L 139.251 176.938 L 139.798 176.938 L 139.798 174.352 L 139.834 173.97 L 139.942 173.689 L 140.115 173.516 L 140.331 173.451 L 140.504 173.509 L 140.62 173.653 L 140.692 174.222 L 140.692 176.938 L 141.275 176.938 L 141.275 174.265 L 141.239 173.71 L 141.124 173.285 L 140.893 173.026 L 140.519 172.932 L 140.079 173.076 L 139.741 173.494 L 139.474 173.084 L 139.027 172.932 L 138.617 173.076 L 138.336 173.48 L 138.336 173.069 L 137.774 173.069 L 137.774 176.938 L 137.774 176.938 z M 146.715 176.938 L 147.385 176.938 L 147.385 174.64 L 149.489 174.64 L 149.489 174.042 L 147.385 174.042 L 147.385 172.543 L 149.971 172.543 L 149.971 171.938 L 146.715 171.938 L 146.715 176.938 L 146.715 176.938 z M 150.807 175.036 L 150.908 175.937 L 151.225 176.578 L 151.758 176.945 L 152.529 177.075 L 153.293 176.945 L 153.826 176.578 L 154.143 175.944 L 154.251 175.036 L 154.251 171.938 L 153.581 171.938 L 153.581 175.072 L 153.516 175.684 L 153.321 176.124 L 152.99 176.383 L 152.529 176.47 L 152.053 176.383 L 151.722 176.124 L 151.527 175.692 L 151.47 175.072 L 151.47 171.938 L 150.807 171.938 L 150.807 175.036 L 150.807 175.036 z M 160.332 175.288 L 162.075 175.288 L 162.075 174.719 L 160.332 174.719 L 160.332 175.288 L 160.332 175.288 z M 168.271 176.938 L 168.941 176.938 L 168.941 174.827 L 169.625 174.827 L 170.13 174.849 L 170.447 174.95 L 170.62 175.187 L 170.692 175.612 L 170.728 176.261 L 170.771 176.686 L 170.857 176.938 L 171.614 176.938 L 171.614 176.801 L 171.448 176.599 L 171.391 176.225 L 171.34 175.418 L 171.218 174.82 L 171.052 174.633 L 170.793 174.496 L 171.081 174.316 L 171.283 174.063 L 171.412 173.746 L 171.455 173.365 L 171.355 172.759 L 171.066 172.305 L 170.591 172.032 L 169.942 171.938 L 168.271 171.938 L 168.271 176.938 L 168.271 176.938 z M 169.755 172.55 L 170.195 172.594 L 170.504 172.731 L 170.699 172.983 L 170.764 173.379 L 170.692 173.797 L 170.497 174.049 L 170.166 174.179 L 169.712 174.215 L 168.941 174.215 L 168.941 172.55 L 169.755 172.55 L 169.755 172.55 z M 173.278 175.187 L 175.814 175.187 L 175.821 174.892 L 175.706 174.063 L 175.389 173.444 L 174.885 173.069 L 174.215 172.932 L 173.559 173.076 L 173.055 173.48 L 172.731 174.135 L 172.615 175 L 172.723 175.886 L 173.048 176.535 L 173.545 176.938 L 174.193 177.075 L 174.755 176.981 L 175.216 176.736 L 175.555 176.347 L 175.749 175.829 L 175.123 175.829 L 174.993 176.117 L 174.806 176.333 L 174.272 176.506 L 173.862 176.427 L 173.552 176.174 L 173.35 175.764 L 173.278 175.209 L 173.278 175.187 L 173.278 175.187 z M 173.278 174.654 L 173.357 174.157 L 173.552 173.79 L 173.847 173.566 L 174.236 173.487 L 174.618 173.566 L 174.914 173.79 L 175.094 174.157 L 175.159 174.654 L 173.278 174.654 L 173.278 174.654 z M 179.359 176.434 L 179.359 176.455 L 179.395 176.7 L 179.503 176.873 L 179.957 177.01 L 180.31 176.952 L 180.31 176.463 L 180.159 176.484 L 179.957 176.39 L 179.921 176.102 L 179.921 174.099 L 179.834 173.588 L 179.582 173.228 L 179.143 173.012 L 178.523 172.932 L 177.918 173.019 L 177.471 173.264 L 177.19 173.646 L 177.097 174.15 L 177.097 174.193 L 177.666 174.193 L 177.716 173.89 L 177.875 173.674 L 178.134 173.545 L 178.502 173.494 L 178.855 173.53 L 179.107 173.638 L 179.258 173.826 L 179.309 174.085 L 179.28 174.388 L 179.164 174.539 L 178.876 174.611 L 178.336 174.669 L 177.716 174.798 L 177.277 175.029 L 177.017 175.389 L 176.938 175.922 L 177.01 176.398 L 177.234 176.751 L 177.594 176.974 L 178.091 177.053 L 178.761 176.902 L 179.359 176.434 L 179.359 176.434 z M 179.287 175.584 L 179.2 175.958 L 178.97 176.246 L 178.624 176.434 L 178.199 176.499 L 177.925 176.463 L 177.731 176.347 L 177.608 176.146 L 177.572 175.865 L 177.601 175.612 L 177.716 175.432 L 178.177 175.231 L 178.761 175.144 L 179.287 174.971 L 179.287 175.584 L 179.287 175.584 z M 181.636 176.938 L 182.27 176.938 L 182.27 174.726 L 182.334 174.193 L 182.529 173.811 L 182.846 173.581 L 183.271 173.501 L 183.588 173.552 L 183.826 173.696 L 183.97 173.941 L 184.02 174.272 L 184.662 174.272 L 184.575 173.689 L 184.337 173.271 L 183.941 173.019 L 183.401 172.932 L 183.033 172.99 L 182.716 173.134 L 182.435 173.379 L 182.212 173.71 L 182.212 173.069 L 181.636 173.069 L 181.636 176.938 L 181.636 176.938 z M 190.101 176.938 L 193.314 176.938 L 193.314 176.333 L 190.764 176.333 L 190.764 171.938 L 190.101 171.938 L 190.101 176.938 L 190.101 176.938 z M 194.222 175.007 L 194.337 175.886 L 194.669 176.535 L 195.195 176.938 L 195.901 177.075 L 196.6 176.938 L 197.126 176.542 L 197.457 175.893 L 197.579 175.007 L 197.457 174.128 L 197.126 173.473 L 196.6 173.076 L 195.901 172.932 L 195.195 173.076 L 194.669 173.48 L 194.337 174.128 L 194.222 175.007 L 194.222 175.007 z M 194.871 175 L 194.935 174.352 L 195.137 173.883 L 195.461 173.595 L 195.901 173.494 L 196.333 173.595 L 196.657 173.876 L 196.859 174.352 L 196.931 175 L 196.859 175.656 L 196.657 176.131 L 196.333 176.419 L 195.901 176.513 L 195.461 176.419 L 195.137 176.131 L 194.935 175.656 L 194.871 175 L 194.871 175 z M 199.662 176.938 L 200.238 173.653 L 200.814 176.938 L 201.42 176.938 L 202.371 173.069 L 201.758 173.069 L 201.117 176.354 L 200.548 173.069 L 199.921 173.069 L 199.352 176.354 L 198.711 173.069 L 198.105 173.069 L 199.056 176.938 L 199.662 176.938 L 199.662 176.938 z M 203.639 175.187 L 206.175 175.187 L 206.182 174.892 L 206.067 174.063 L 205.75 173.444 L 205.245 173.069 L 204.575 172.932 L 203.92 173.076 L 203.415 173.48 L 203.091 174.135 L 202.976 175 L 203.084 175.886 L 203.408 176.535 L 203.905 176.938 L 204.554 177.075 L 205.116 176.981 L 205.577 176.736 L 205.915 176.347 L 206.11 175.829 L 205.483 175.829 L 205.353 176.117 L 205.166 176.333 L 204.633 176.506 L 204.222 176.427 L 203.912 176.174 L 203.711 175.764 L 203.639 175.209 L 203.639 175.187 L 203.639 175.187 z M 203.639 174.654 L 203.718 174.157 L 203.912 173.79 L 204.208 173.566 L 204.597 173.487 L 204.979 173.566 L 205.274 173.79 L 205.454 174.157 L 205.519 174.654 L 203.639 174.654 L 203.639 174.654 z M 207.659 176.938 L 208.293 176.938 L 208.293 174.726 L 208.358 174.193 L 208.552 173.811 L 208.869 173.581 L 209.294 173.501 L 209.611 173.552 L 209.849 173.696 L 209.993 173.941 L 210.043 174.272 L 210.685 174.272 L 210.598 173.689 L 210.36 173.271 L 209.964 173.019 L 209.424 172.932 L 209.056 172.99 L 208.739 173.134 L 208.458 173.379 L 208.235 173.71 L 208.235 173.069 L 207.659 173.069 L 207.659 176.938 L 207.659 176.938 z M 218.487 174.236 L 218.992 173.818 L 219.121 173.537 L 219.165 173.192 L 219.071 172.651 L 218.79 172.262 L 218.336 172.024 L 217.702 171.938 L 215.922 171.938 L 215.922 176.938 L 217.803 176.938 L 218.473 176.837 L 218.97 176.542 L 219.28 176.073 L 219.388 175.439 L 219.323 175.014 L 219.15 174.661 L 218.869 174.402 L 218.487 174.236 L 218.487 174.236 z M 217.565 174.013 L 216.585 174.013 L 216.585 172.536 L 217.623 172.536 L 218.012 172.579 L 218.286 172.709 L 218.451 172.932 L 218.509 173.264 L 218.444 173.595 L 218.271 173.826 L 217.976 173.97 L 217.565 174.013 L 217.565 174.013 z M 217.724 176.34 L 216.585 176.34 L 216.585 174.618 L 217.659 174.618 L 218.113 174.669 L 218.437 174.82 L 218.631 175.079 L 218.696 175.454 L 218.631 175.85 L 218.451 176.124 L 218.149 176.29 L 217.724 176.34 L 217.724 176.34 z M 220.67 176.938 L 221.304 176.938 L 221.304 174.726 L 221.369 174.193 L 221.564 173.811 L 221.881 173.581 L 222.306 173.501 L 222.623 173.552 L 222.861 173.696 L 223.005 173.941 L 223.055 174.272 L 223.696 174.272 L 223.61 173.689 L 223.372 173.271 L 222.976 173.019 L 222.435 172.932 L 222.068 172.99 L 221.751 173.134 L 221.47 173.379 L 221.247 173.71 L 221.247 173.069 L 220.67 173.069 L 220.67 176.938 L 220.67 176.938 z M 227.068 176.434 L 227.068 176.455 L 227.104 176.7 L 227.212 176.873 L 227.666 177.01 L 228.019 176.952 L 228.019 176.463 L 227.868 176.484 L 227.666 176.39 L 227.63 176.102 L 227.63 174.099 L 227.544 173.588 L 227.291 173.228 L 226.852 173.012 L 226.232 172.932 L 225.627 173.019 L 225.18 173.264 L 224.899 173.646 L 224.806 174.15 L 224.806 174.193 L 225.375 174.193 L 225.425 173.89 L 225.584 173.674 L 225.843 173.545 L 226.211 173.494 L 226.564 173.53 L 226.816 173.638 L 226.967 173.826 L 227.018 174.085 L 226.989 174.388 L 226.874 174.539 L 226.585 174.611 L 226.045 174.669 L 225.425 174.798 L 224.986 175.029 L 224.727 175.389 L 224.647 175.922 L 224.719 176.398 L 224.943 176.751 L 225.303 176.974 L 225.8 177.053 L 226.47 176.902 L 227.068 176.434 L 227.068 176.434 z M 226.996 175.584 L 226.91 175.958 L 226.679 176.246 L 226.333 176.434 L 225.908 176.499 L 225.634 176.463 L 225.44 176.347 L 225.317 176.146 L 225.281 175.865 L 225.31 175.612 L 225.425 175.432 L 225.886 175.231 L 226.47 175.144 L 226.996 174.971 L 226.996 175.584 L 226.996 175.584 z M 231.571 174.352 L 232.198 174.352 L 232.068 173.775 L 231.758 173.321 L 231.276 173.04 L 230.649 172.932 L 229.957 173.076 L 229.431 173.48 L 229.1 174.135 L 228.984 175.014 L 229.093 175.886 L 229.417 176.535 L 229.928 176.938 L 230.627 177.075 L 231.247 176.967 L 231.729 176.664 L 232.061 176.189 L 232.205 175.555 L 231.6 175.555 L 231.492 175.958 L 231.29 176.261 L 231.002 176.448 L 230.649 176.506 L 230.209 176.412 L 229.892 176.124 L 229.698 175.656 L 229.633 174.993 L 229.698 174.344 L 229.899 173.876 L 230.224 173.588 L 230.649 173.487 L 231.023 173.552 L 231.304 173.718 L 231.492 173.991 L 231.571 174.352 L 231.571 174.352 z M 233.531 176.938 L 234.165 176.938 L 234.165 175.576 L 234.827 174.935 L 235.966 176.938 L 236.679 176.938 L 235.26 174.496 L 236.715 173.069 L 235.915 173.069 L 234.165 174.813 L 234.165 171.765 L 233.531 171.765 L 233.531 176.938 L 233.531 176.938 z M 238.336 175.187 L 240.872 175.187 L 240.879 174.892 L 240.764 174.063 L 240.447 173.444 L 239.943 173.069 L 239.273 172.932 L 238.617 173.076 L 238.113 173.48 L 237.789 174.135 L 237.673 175 L 237.781 175.886 L 238.106 176.535 L 238.603 176.938 L 239.251 177.075 L 239.813 176.981 L 240.274 176.736 L 240.613 176.347 L 240.807 175.829 L 240.18 175.829 L 240.051 176.117 L 239.863 176.333 L 239.33 176.506 L 238.92 176.427 L 238.61 176.174 L 238.408 175.764 L 238.336 175.209 L 238.336 175.187 L 238.336 175.187 z M 238.336 174.654 L 238.415 174.157 L 238.61 173.79 L 238.905 173.566 L 239.294 173.487 L 239.676 173.566 L 239.972 173.79 L 240.152 174.157 L 240.216 174.654 L 238.336 174.654 L 238.336 174.654 z M 242.969 173.739 L 242.969 175.677 L 243.012 176.304 L 243.214 176.736 L 243.617 176.988 L 244.301 177.075 L 245.051 177.039 L 245.051 176.491 L 244.503 176.535 L 244.006 176.477 L 243.74 176.297 L 243.624 175.994 L 243.603 175.569 L 243.603 173.739 L 245.051 173.739 L 245.051 173.199 L 243.603 173.199 L 243.603 172.068 L 242.969 172.068 L 242.969 173.199 L 241.874 173.199 L 241.874 173.739 L 242.969 173.739 L 242.969 173.739 z" stroke="none" fill-rule="evenodd" fill="rgb(0, 0, 0)"/></g><g stroke="rgb(0, 0, 0)" stroke-width="0.13" stroke-linecap="butt" stroke-linejoin="miter" fill="none"><path d="M 122.161 180.576 L 120.497 180.576 L 120.497 185.576 L 122.161 185.576 L 122.947 185.418 L 123.53 184.935 L 123.89 184.15 L 124.02 183.076 L 123.905 181.981 L 123.761 181.549 L 123.559 181.203 L 122.976 180.735 L 122.594 180.62 L 122.161 180.576 L 122.161 180.576 z M 122.111 181.174 L 122.659 181.282 L 123.033 181.614 L 123.256 182.205 L 123.329 183.076 L 123.249 183.919 L 123.026 184.51 L 122.644 184.863 L 122.111 184.978 L 121.167 184.978 L 121.167 181.174 L 122.111 181.174 L 122.111 181.174 z M 124.899 185.576 L 125.569 185.576 L 125.569 183.465 L 126.254 183.465 L 126.758 183.487 L 127.075 183.588 L 127.248 183.826 L 127.32 184.251 L 127.356 184.899 L 127.399 185.324 L 127.486 185.576 L 128.242 185.576 L 128.242 185.439 L 128.076 185.238 L 128.019 184.863 L 127.968 184.056 L 127.846 183.458 L 127.68 183.271 L 127.421 183.134 L 127.709 182.954 L 127.911 182.702 L 128.04 182.385 L 128.084 182.003 L 127.983 181.398 L 127.695 180.944 L 127.219 180.67 L 126.571 180.576 L 124.899 180.576 L 124.899 185.576 L 124.899 185.576 z M 126.383 181.189 L 126.823 181.232 L 127.133 181.369 L 127.327 181.621 L 127.392 182.017 L 127.32 182.435 L 127.125 182.687 L 126.794 182.817 L 126.34 182.853 L 125.569 182.853 L 125.569 181.189 L 126.383 181.189 L 126.383 181.189 z M 128.991 183.076 L 129.121 184.2 L 129.496 185.029 L 130.079 185.54 L 130.843 185.713 L 131.599 185.54 L 132.19 185.029 L 132.558 184.2 L 132.695 183.076 L 132.558 181.96 L 132.399 181.506 L 132.19 181.131 L 131.599 180.62 L 131.239 180.49 L 130.843 180.439 L 130.072 180.62 L 129.488 181.124 L 129.121 181.952 L 128.991 183.076 L 128.991 183.076 z M 129.683 183.076 L 129.762 182.205 L 130 181.563 L 130.367 181.174 L 130.843 181.037 L 131.311 181.174 L 131.679 181.571 L 131.916 182.212 L 132.003 183.076 L 131.916 183.948 L 131.679 184.589 L 131.311 184.978 L 130.843 185.108 L 130.367 184.978 L 130 184.589 L 129.762 183.955 L 129.683 183.076 L 129.683 183.076 z M 134.849 184.971 L 133.927 184.971 L 133.927 185.576 L 136.434 185.576 L 136.434 184.971 L 135.512 184.971 L 135.512 181.182 L 136.434 181.182 L 136.434 180.576 L 133.927 180.576 L 133.927 181.182 L 134.849 181.182 L 134.849 184.971 L 134.849 184.971 z M 139.186 185.576 L 139.849 185.576 L 139.849 181.182 L 141.362 181.182 L 141.362 180.576 L 137.666 180.576 L 137.666 181.182 L 139.186 181.182 L 139.186 185.576 L 139.186 185.576 z M 142.342 185.576 L 145.512 185.576 L 145.512 184.971 L 143.004 184.971 L 143.004 183.278 L 145.238 183.278 L 145.238 182.68 L 143.004 182.68 L 143.004 181.182 L 145.454 181.182 L 145.454 180.576 L 142.342 180.576 L 142.342 185.576 L 142.342 185.576 z" stroke="none" fill-rule="evenodd" fill="rgb(0, 0, 0)"/></g><g stroke="rgb(0, 0, 0)" stroke-width="0.13" stroke-linecap="butt" stroke-linejoin="miter" fill="none"><path d="M 119.93 107.393 L 120.399 107.393 L 120.399 105.784 L 121.872 105.784 L 121.872 105.365 L 120.399 105.365 L 120.399 104.316 L 122.21 104.316 L 122.21 103.893 L 119.93 103.893 L 119.93 107.393 L 119.93 107.393 z M 122.875 107.393 L 123.344 107.393 L 123.344 105.915 L 123.823 105.915 L 124.176 105.93 L 124.398 106.001 L 124.519 106.167 L 124.57 106.465 L 124.595 106.918 L 124.625 107.216 L 124.686 107.393 L 125.215 107.393 L 125.215 107.297 L 125.099 107.155 L 125.059 106.893 L 125.024 106.328 L 124.938 105.91 L 124.822 105.779 L 124.64 105.683 L 124.842 105.557 L 124.983 105.38 L 125.074 105.158 L 125.104 104.891 L 125.034 104.467 L 124.832 104.15 L 124.499 103.958 L 124.045 103.893 L 122.875 103.893 L 122.875 107.393 L 122.875 107.393 z M 123.914 104.321 L 124.222 104.351 L 124.439 104.447 L 124.575 104.624 L 124.62 104.901 L 124.57 105.194 L 124.434 105.37 L 124.202 105.461 L 123.884 105.486 L 123.344 105.486 L 123.344 104.321 L 123.914 104.321 L 123.914 104.321 z M 125.831 106.061 L 125.901 106.692 L 126.123 107.14 L 126.496 107.398 L 127.036 107.488 L 127.571 107.398 L 127.944 107.14 L 128.166 106.697 L 128.241 106.061 L 128.241 103.893 L 127.772 103.893 L 127.772 106.086 L 127.727 106.515 L 127.591 106.823 L 127.359 107.004 L 127.036 107.065 L 126.703 107.004 L 126.471 106.823 L 126.335 106.52 L 126.295 106.086 L 126.295 103.893 L 125.831 103.893 L 125.831 106.061 L 125.831 106.061 z M 129.462 106.238 L 130.682 106.238 L 130.682 105.839 L 129.462 105.839 L 129.462 106.238 L 129.462 106.238 z" stroke="none" fill-rule="evenodd" fill="rgb(0, 0, 0)"/></g><g stroke="rgb(0, 0, 0)" stroke-width="0.13" stroke-linecap="butt" stroke-linejoin="miter" fill="none"><path d="M 119.839 113.439 L 120.308 113.439 L 120.308 111.962 L 120.787 111.962 L 121.14 111.977 L 121.362 112.047 L 121.483 112.214 L 121.534 112.511 L 121.559 112.965 L 121.589 113.263 L 121.65 113.439 L 122.179 113.439 L 122.179 113.344 L 122.063 113.202 L 122.023 112.94 L 121.988 112.375 L 121.902 111.957 L 121.786 111.826 L 121.604 111.73 L 121.806 111.604 L 121.947 111.427 L 122.038 111.205 L 122.068 110.938 L 121.998 110.514 L 121.796 110.197 L 121.463 110.005 L 121.009 109.939 L 119.839 109.939 L 119.839 113.439 L 119.839 113.439 z M 120.878 110.368 L 121.186 110.398 L 121.403 110.494 L 121.539 110.671 L 121.584 110.948 L 121.534 111.241 L 121.398 111.417 L 121.166 111.508 L 120.848 111.533 L 120.308 111.533 L 120.308 110.368 L 120.878 110.368 L 120.878 110.368 z M 122.976 113.439 L 125.225 113.439 L 125.225 113.016 L 123.44 113.016 L 123.44 109.939 L 122.976 109.939 L 122.976 113.439 L 122.976 113.439 z M 125.831 112.108 L 125.901 112.738 L 126.123 113.187 L 126.496 113.444 L 127.036 113.535 L 127.571 113.444 L 127.944 113.187 L 128.166 112.743 L 128.241 112.108 L 128.241 109.939 L 127.772 109.939 L 127.772 112.133 L 127.727 112.562 L 127.591 112.869 L 127.359 113.051 L 127.036 113.112 L 126.703 113.051 L 126.471 112.869 L 126.335 112.567 L 126.295 112.133 L 126.295 109.939 L 125.831 109.939 L 125.831 112.108 L 125.831 112.108 z" stroke="none" fill-rule="evenodd" fill="rgb(0, 0, 0)"/></g><g stroke="rgb(0, 0, 0)" stroke-width="0.13" stroke-linecap="butt" stroke-linejoin="miter" fill="none"><path d="M 193.404 112.161 L 193.873 112.161 L 193.873 110.553 L 195.345 110.553 L 195.345 110.134 L 193.873 110.134 L 193.873 109.085 L 195.683 109.085 L 195.683 108.661 L 193.404 108.661 L 193.404 112.161 L 193.404 112.161 z M 196.349 112.161 L 196.818 112.161 L 196.818 110.684 L 197.297 110.684 L 197.65 110.699 L 197.872 110.77 L 197.993 110.936 L 198.043 111.234 L 198.068 111.687 L 198.099 111.985 L 198.159 112.161 L 198.689 112.161 L 198.689 112.066 L 198.573 111.924 L 198.532 111.662 L 198.497 111.097 L 198.411 110.679 L 198.295 110.548 L 198.114 110.452 L 198.316 110.326 L 198.457 110.149 L 198.548 109.927 L 198.578 109.66 L 198.507 109.236 L 198.306 108.919 L 197.973 108.727 L 197.519 108.661 L 196.349 108.661 L 196.349 112.161 L 196.349 112.161 z M 197.388 109.09 L 197.695 109.12 L 197.912 109.216 L 198.048 109.393 L 198.094 109.67 L 198.043 109.963 L 197.907 110.139 L 197.675 110.23 L 197.357 110.255 L 196.818 110.255 L 196.818 109.09 L 197.388 109.09 L 197.388 109.09 z M 199.304 110.83 L 199.375 111.46 L 199.597 111.909 L 199.97 112.167 L 200.509 112.257 L 201.044 112.167 L 201.417 111.909 L 201.639 111.466 L 201.715 110.83 L 201.715 108.661 L 201.246 108.661 L 201.246 110.855 L 201.2 111.284 L 201.064 111.592 L 200.832 111.773 L 200.509 111.834 L 200.177 111.773 L 199.945 111.592 L 199.808 111.289 L 199.768 110.855 L 199.768 108.661 L 199.304 108.661 L 199.304 110.83 L 199.304 110.83 z M 202.935 111.007 L 204.156 111.007 L 204.156 110.608 L 202.935 110.608 L 202.935 111.007 L 202.935 111.007 z" stroke="none" fill-rule="evenodd" fill="rgb(0, 0, 0)"/></g><g stroke="rgb(0, 0, 0)" stroke-width="0.13" stroke-linecap="butt" stroke-linejoin="miter" fill="none"><path d="M 193.313 118.208 L 193.782 118.208 L 193.782 116.731 L 194.261 116.731 L 194.614 116.746 L 194.836 116.816 L 194.957 116.983 L 195.007 117.28 L 195.032 117.734 L 195.063 118.032 L 195.123 118.208 L 195.653 118.208 L 195.653 118.113 L 195.537 117.971 L 195.496 117.709 L 195.461 117.144 L 195.375 116.726 L 195.259 116.594 L 195.078 116.499 L 195.28 116.373 L 195.421 116.196 L 195.512 115.974 L 195.542 115.707 L 195.471 115.283 L 195.27 114.966 L 194.937 114.774 L 194.483 114.708 L 193.313 114.708 L 193.313 118.208 L 193.313 118.208 z M 194.352 115.137 L 194.659 115.167 L 194.876 115.263 L 195.012 115.44 L 195.058 115.717 L 195.007 116.009 L 194.871 116.186 L 194.639 116.277 L 194.321 116.302 L 193.782 116.302 L 193.782 115.137 L 194.352 115.137 L 194.352 115.137 z M 196.45 118.208 L 198.699 118.208 L 198.699 117.785 L 196.914 117.785 L 196.914 114.708 L 196.45 114.708 L 196.45 118.208 L 196.45 118.208 z M 200.504 114.708 L 199.339 114.708 L 199.339 118.208 L 200.504 118.208 L 201.054 118.097 L 201.463 117.759 L 201.715 117.21 L 201.806 116.458 L 201.725 115.692 L 201.624 115.389 L 201.483 115.147 L 201.074 114.819 L 200.807 114.739 L 200.504 114.708 L 200.504 114.708 z M 200.469 115.127 L 200.852 115.203 L 201.115 115.435 L 201.271 115.848 L 201.321 116.458 L 201.266 117.048 L 201.11 117.462 L 200.842 117.709 L 200.469 117.79 L 199.808 117.79 L 199.808 115.127 L 200.469 115.127 L 200.469 115.127 z" stroke="none" fill-rule="evenodd" fill="rgb(0, 0, 0)"/></g></svg>