<?xml version="1.0" encoding="utf-8"?>
<!-- Generator: Adobe Illustrator 22.1.0, SVG Export Plug-In . SVG Version: 6.00 Build 0)  -->
<svg version="1.1" id="Calque_1" dsy:text-version="18000" xmlns:dsy="http://www.3ds.com/print"
	 xmlns="http://www.w3.org/2000/svg" xmlns:xlink="http://www.w3.org/1999/xlink" x="0px" y="0px" viewBox="0 0 297 210"
	 style="enable-background:new 0 0 297 210;" xml:space="preserve">
<style type="text/css">
	.st0{fill:none;stroke:#000000;stroke-width:0.35;}
</style>
<path class="st0" d="M80.7,29.4C79.6,18.5,69.9,10.6,59,11.7c-8.8,0.9-16,7.5-17.5,16.2"/>
<circle class="st0" cx="61" cy="31.4" r="9.1"/>
<path class="st0" d="M89.7,118.9C81.2,101.5,61.8,92.1,42.7,96"/>
<path class="st0" d="M42.7,96c-5.2,1-10.1,3-14.6,5.9"/>
<path class="st0" d="M80.7,29.4l9,89.4"/>
<path class="st0" d="M41.4,27.9l-13.4,73.9"/>
<path class="st0" d="M43.5,95.8c-5.6,1.2-10.9,3.6-15.5,6.9"/>
<path class="st0" d="M27.9,102.7l0.2-0.8"/>
<path class="st0" d="M269.1,48.1c-1.9-10.8-12.3-17.9-23.1-16c-8.7,1.6-15.3,8.7-16.2,17.5"/>
<circle class="st0" cx="249.5" cy="51.6" r="9.1"/>
<path class="st0" d="M266.2,115.8c-17.7-3.6-35.7,4.2-45.1,19.4"/>
<path class="st0" d="M282.6,122.8c-4.9-3.4-10.5-5.8-16.3-7"/>
<path class="st0" d="M229.8,49.6l-8.6,85.5"/>
<path class="st0" d="M269.1,48.1l13.5,74.7"/>
<path d="M164.4,314.3h1.9l1.5-4.2h5.7l1.5,4.2h1.9l-5.2-14.2h-2.1L164.4,314.3L164.4,314.3z M168.4,308.4l2.2-6.3l2.2,6.3H168.4
	L168.4,308.4z M180.4,309.6h4.9V308h-4.9V309.6L180.4,309.6z M188.9,314.3h1.9l1.5-4.2h5.7l1.5,4.2h1.9l-5.2-14.2h-2.1L188.9,314.3
	L188.9,314.3z M193,308.4l2.2-6.3l2.2,6.3H193L193,308.4z M203.9,314.3h1.8v-6.3l0.2-1.5l0.6-1.1l0.9-0.7l1.2-0.2l0.9,0.1l0.7,0.4
	l0.4,0.7l0.1,0.9h1.8l-0.2-1.7l-0.7-1.2l-1.1-0.7l-1.5-0.2l-1,0.2l-0.9,0.4l-0.8,0.7l-0.6,0.9v-1.8h-1.6V314.3L203.9,314.3z
	 M214.8,314.3h1.7V307l0.1-1.1l0.3-0.8l0.5-0.5l0.6-0.2l0.5,0.2l0.3,0.4l0.2,0.7l0.1,0.9v7.7h1.6V307l0.1-1.1l0.3-0.8l0.5-0.5
	l0.6-0.2l0.5,0.2l0.3,0.4l0.2,1.6v7.7h1.7v-7.6l-0.1-1.6l-0.3-1.2l-0.7-0.7l-1.1-0.3l-1.2,0.4l-1,1.2l-0.8-1.2l-1.3-0.4l-1.2,0.4
	l-0.8,1.1v-1.2h-1.6V314.3L214.8,314.3z M240.1,314.3h1.9v-6.5h6v-1.7h-6v-4.2h7.3v-1.7h-9.2V314.3L240.1,314.3z M251.7,308.9
	l0.3,2.6l0.9,1.8l1.5,1l2.2,0.4l2.2-0.4l1.5-1l0.9-1.8l0.3-2.6v-8.8h-1.9v8.9l-0.2,1.7l-0.6,1.2l-0.9,0.7l-1.3,0.2l-1.3-0.2
	l-0.9-0.7l-0.6-1.2l-0.2-1.8v-8.9h-1.9V308.9L251.7,308.9z M266.4,309.6h4.9V308h-4.9V309.6L266.4,309.6z M276.7,314.3h1.9v-6h1.9
	l1.4,0.1l0.9,0.3l0.5,0.7l0.2,1.2l0.1,1.8l0.1,1.2l0.2,0.7h2.1v-0.4l-0.5-0.6l-0.2-1.1l-0.1-2.3l-0.3-1.7l-0.5-0.5l-0.7-0.4l0.8-0.5
	l0.6-0.7l0.4-0.9l0.1-1.1l-0.3-1.7l-0.8-1.3l-1.3-0.8l-1.8-0.3h-4.7V314.3L276.7,314.3z M280.9,301.9l1.2,0.1l0.9,0.4l0.5,0.7
	l0.2,1.1l-0.2,1.2l-0.5,0.7l-0.9,0.4l-1.3,0.1h-2.2v-4.7H280.9L280.9,301.9z M290.9,309.4h7.2l0-0.8l-0.3-2.3l-0.9-1.8l-1.4-1.1
	l-1.9-0.4l-1.9,0.4l-1.4,1.1l-0.9,1.9l-0.3,2.5l0.3,2.5l0.9,1.8l1.4,1.1l1.8,0.4l1.6-0.3l1.3-0.7l1-1.1l0.6-1.5h-1.8l-0.4,0.8
	l-0.5,0.6l-1.5,0.5l-1.2-0.2l-0.9-0.7l-0.6-1.2L290.9,309.4L290.9,309.4L290.9,309.4z M290.9,307.9l0.2-1.4l0.6-1l0.8-0.6l1.1-0.2
	l1.1,0.2l0.8,0.6l0.5,1l0.2,1.4H290.9L290.9,307.9z M308.1,312.9L308.1,312.9l0.1,0.8l0.3,0.5l1.3,0.4l1-0.2V313l-0.4,0.1l-0.6-0.3
	l-0.1-0.8v-5.7l-0.2-1.4l-0.7-1l-1.2-0.6l-1.8-0.2l-1.7,0.2l-1.3,0.7l-0.8,1.1l-0.3,1.4v0.1h1.6l0.1-0.9l0.4-0.6l0.7-0.4l1-0.1
	l1,0.1l0.7,0.3l0.4,0.5l0.1,0.7l-0.1,0.9l-0.3,0.4l-0.8,0.2l-1.5,0.2l-1.8,0.4l-1.2,0.7l-0.7,1l-0.2,1.5l0.2,1.3l0.6,1l1,0.6
	l1.4,0.2l1.9-0.4L308.1,312.9L308.1,312.9z M307.9,310.5l-0.2,1.1l-0.7,0.8l-1,0.5l-1.2,0.2L304,313l-0.6-0.3l-0.3-0.6l-0.1-0.8
	l0.1-0.7l0.3-0.5l1.3-0.6l1.7-0.2l1.5-0.5V310.5L307.9,310.5z M314.5,314.3h1.8v-6.3l0.2-1.5l0.5-1.1l0.9-0.7l1.2-0.2l0.9,0.1
	l0.7,0.4l0.4,0.7l0.1,0.9h1.8l-0.2-1.7l-0.7-1.2l-1.1-0.7l-1.5-0.2l-1,0.2l-0.9,0.4l-0.8,0.7l-0.6,0.9v-1.8h-1.6V314.3L314.5,314.3z
	 M337.8,308.9l0.3,2.6l0.9,1.8l1.5,1l2.2,0.4l2.2-0.4l1.5-1l0.9-1.8l0.3-2.6v-8.8h-1.9v8.9l-0.2,1.7l-0.5,1.2l-0.9,0.7l-1.3,0.2
	l-1.3-0.2l-0.9-0.7l-0.5-1.2l-0.2-1.8v-8.9h-1.9V308.9L337.8,308.9z M352.4,305.1v-1.7h-1.8v15.2h1.8v-5.9l0.6,1l0.7,0.6l1.8,0.5
	l1.7-0.4l1.3-1.2l0.9-1.8l0.3-2.5l-0.3-2.5l-0.9-1.8l-1.3-1.1l-1.7-0.4l-1,0.1l-0.8,0.4l-0.7,0.7L352.4,305.1L352.4,305.1z
	 M355.3,313.1l-1.2-0.3l-0.9-0.8l-0.5-1.3l-0.2-1.9l0.2-1.8l0.5-1.3l0.9-0.8l1.2-0.3l1.1,0.3l0.9,0.8l0.6,1.3l0.2,1.8l-0.2,1.8
	l-0.6,1.3l-0.9,0.8L355.3,313.1L355.3,313.1z M364.7,305.1v-1.7h-1.8v15.2h1.8v-5.9l0.6,1l0.7,0.6l1.8,0.5l1.7-0.4l1.3-1.2l0.9-1.8
	l0.3-2.5l-0.3-2.5l-0.9-1.8l-1.3-1.1l-1.7-0.4l-1,0.1l-0.8,0.4l-0.7,0.7L364.7,305.1L364.7,305.1z M367.6,313.1l-1.2-0.3l-0.9-0.8
	l-0.6-1.3l-0.2-1.9l0.2-1.8l0.6-1.3l0.9-0.8l1.2-0.3l1.1,0.3l0.9,0.8l0.6,1.3l0.2,1.8l-0.2,1.8l-0.6,1.3l-0.9,0.8L367.6,313.1
	L367.6,313.1z M376.9,309.4h7.2l0-0.8l-0.3-2.3l-0.9-1.8l-1.4-1.1l-1.9-0.4l-1.9,0.4l-1.4,1.1l-0.9,1.9l-0.3,2.5l0.3,2.5l0.9,1.8
	l1.4,1.1l1.8,0.4l1.6-0.3l1.3-0.7l1-1.1l0.5-1.5h-1.8l-0.4,0.8l-0.5,0.6l-1.5,0.5l-1.2-0.2l-0.9-0.7l-0.6-1.2L376.9,309.4
	L376.9,309.4L376.9,309.4z M376.9,307.9l0.2-1.4l0.6-1l0.8-0.6l1.1-0.2l1.1,0.2l0.8,0.6l0.5,1l0.2,1.4H376.9L376.9,307.9z
	 M388.3,314.3h1.8v-6.3l0.2-1.5l0.5-1.1l0.9-0.7l1.2-0.2l0.9,0.1l0.7,0.4l0.4,0.7l0.1,0.9h1.8l-0.2-1.7l-0.7-1.2l-1.1-0.7l-1.5-0.2
	l-1,0.2l-0.9,0.4l-0.8,0.7l-0.6,0.9v-1.8h-1.6V314.3L388.3,314.3z"/>
<path d="M168,337.1l1.3,1.6l1.8,0.5l1.7-0.4l1.4-1.2l0.9-1.9l0.3-2.5l-0.3-2.5l-0.9-1.8l-1.3-1.1l-1.7-0.4l-1.8,0.5l-0.7,0.7
	l-0.6,0.9v-5.4h-1.8v14.7h1.8V337.1L168,337.1z M173.6,333.3l-0.2,1.8l-0.5,1.3l-0.9,0.8l-1.1,0.3l-1.2-0.3l-0.9-0.8l-0.6-1.3
	l-0.2-1.9l0.2-1.8l0.6-1.3l0.9-0.8l1.2-0.3l1.1,0.3l0.9,0.8l0.5,1.3L173.6,333.3L173.6,333.3z M179.3,338.8h1.8v-6.3l0.2-1.5
	l0.6-1.1l0.9-0.7l1.2-0.2l0.9,0.1l0.7,0.4l0.4,0.7l0.1,0.9h1.8l-0.2-1.7l-0.7-1.2l-1.1-0.7l-1.5-0.2l-1,0.2l-0.9,0.4l-0.8,0.7
	l-0.6,0.9v-1.8h-1.6V338.8L179.3,338.8z M197.4,337.4L197.4,337.4l0.1,0.8l0.3,0.5l1.3,0.4l1-0.2v-1.4l-0.4,0.1l-0.6-0.3l-0.1-0.8
	v-5.7l-0.2-1.5l-0.7-1l-1.2-0.6l-1.8-0.2l-1.7,0.2l-1.3,0.7l-0.8,1.1l-0.3,1.4v0.1h1.6l0.1-0.9l0.5-0.6l0.7-0.4l1-0.1l1,0.1l0.7,0.3
	l0.4,0.5l0.1,0.7l-0.1,0.9l-0.3,0.4l-0.8,0.2l-1.5,0.2l-1.8,0.4l-1.2,0.7l-0.7,1l-0.2,1.5l0.2,1.3l0.6,1l1,0.6l1.4,0.2l1.9-0.4
	L197.4,337.4L197.4,337.4z M197.2,335L197,336l-0.7,0.8l-1,0.5l-1.2,0.2l-0.8-0.1l-0.5-0.3l-0.3-0.6l-0.1-0.8l0.1-0.7l0.3-0.5
	l1.3-0.6l1.7-0.2l1.5-0.5V335L197.2,335z M210.2,331.5h1.8l-0.4-1.6l-0.9-1.3l-1.4-0.8l-1.8-0.3l-2,0.4l-1.5,1.1l-0.9,1.9l-0.3,2.5
	l0.3,2.5l0.9,1.8l1.4,1.1l2,0.4l1.8-0.3l1.4-0.9l0.9-1.3l0.4-1.8h-1.7L210,336l-0.6,0.9l-0.8,0.5l-1,0.2l-1.2-0.3l-0.9-0.8l-0.5-1.3
	l-0.2-1.9l0.2-1.8l0.6-1.3l0.9-0.8l1.2-0.3l1.1,0.2l0.8,0.5l0.5,0.8L210.2,331.5L210.2,331.5z M215.8,338.8h1.8V335l1.9-1.8l3.2,5.7
	h2l-4-6.9l4.1-4h-2.3l-5,4.9v-8.6h-1.8V338.8L215.8,338.8z M229.4,333.9h7.2l0-0.8l-0.3-2.3l-0.9-1.8l-1.4-1.1l-1.9-0.4l-1.9,0.4
	l-1.4,1.1l-0.9,1.9l-0.3,2.4l0.3,2.5l0.9,1.8l1.4,1.1l1.8,0.4l1.6-0.3l1.3-0.7l1-1.1l0.5-1.5h-1.8l-0.4,0.8l-0.5,0.6l-1.5,0.5
	l-1.2-0.2l-0.9-0.7l-0.6-1.2L229.4,333.9L229.4,333.9L229.4,333.9z M229.4,332.3l0.2-1.4l0.6-1l0.8-0.6l1.1-0.2l1.1,0.2l0.8,0.6
	l0.5,1l0.2,1.4H229.4L229.4,332.3z M242.5,329.7v5.5l0.1,1.8l0.6,1.2l1.1,0.7l1.9,0.2l2.1-0.1v-1.6l-1.6,0.1l-1.4-0.2l-0.8-0.5
	l-0.3-0.9l-0.1-1.2v-5.2h4.1v-1.5h-4.1V325h-1.8v3.2h-3.1v1.5H242.5L242.5,329.7z M268.9,324.6h-4.7v14.2h4.7l2.2-0.4l1.7-1.4l1-2.2
	l0.4-3l-0.3-3.1l-0.4-1.2l-0.6-1l-1.7-1.3l-1.1-0.3L268.9,324.6L268.9,324.6z M268.8,326.3l1.6,0.3l1.1,0.9l0.6,1.7l0.2,2.5
	l-0.2,2.4l-0.6,1.7l-1.1,1l-1.5,0.3h-2.7v-10.8H268.8L268.8,326.3z M276.7,338.8h1.9v-6h1.9l1.4,0.1l0.9,0.3l0.5,0.7l0.2,1.2
	l0.1,1.8l0.1,1.2l0.2,0.7h2.1v-0.4l-0.5-0.6l-0.2-1.1l-0.1-2.3l-0.3-1.7l-0.5-0.5l-0.7-0.4l0.8-0.5l0.6-0.7l0.4-0.9l0.1-1.1
	l-0.3-1.7l-0.8-1.3l-1.3-0.8l-1.8-0.3h-4.7V338.8L276.7,338.8z M280.9,326.4l1.2,0.1l0.9,0.4l0.5,0.7l0.2,1.1l-0.2,1.2l-0.5,0.7
	L282,331l-1.3,0.1h-2.2v-4.7H280.9L280.9,326.4z M288.3,331.7l0.4,3.2l1.1,2.3l1.7,1.4l2.2,0.5l2.1-0.5l1.7-1.4l1-2.3l0.4-3.2
	l-0.4-3.2l-0.4-1.3l-0.6-1.1l-1.7-1.4l-1-0.4l-1.1-0.1l-2.2,0.5l-1.7,1.4l-1,2.3L288.3,331.7L288.3,331.7z M290.2,331.7l0.2-2.5
	l0.7-1.8l1-1.1l1.3-0.4l1.3,0.4l1,1.1l0.7,1.8l0.2,2.4l-0.2,2.5l-0.7,1.8l-1,1.1l-1.3,0.4l-1.3-0.4l-1-1.1l-0.7-1.8L290.2,331.7
	L290.2,331.7z M304.9,337.1h-2.6v1.7h7.1v-1.7h-2.6v-10.7h2.6v-1.7h-7.1v1.7h2.6V337.1L304.9,337.1z M317.2,338.8h1.9v-12.5h4.3
	v-1.7h-10.5v1.7h4.3V338.8L317.2,338.8z M326.1,338.8h9v-1.7H328v-4.8h6.3v-1.7H328v-4.2h6.9v-1.7h-8.8V338.8L326.1,338.8z"/>
<path d="M50.3,68.8h1.3v-4.6h4.2V63h-4.2v-3h5.1v-1.2h-6.5V68.8L50.3,68.8z M58.7,68.8H60v-4.2h1.4l1,0l0.6,0.2l0.3,0.5l0.1,0.8
	l0.1,1.3l0.1,0.8l0.2,0.5h1.5v-0.3L65,68.1l-0.1-0.7l-0.1-1.6l-0.2-1.2l-0.3-0.4l-0.5-0.3l0.6-0.4l0.4-0.5l0.3-0.6l0.1-0.8l-0.2-1.2
	l-0.6-0.9l-0.9-0.5L62,58.9h-3.3V68.8L58.7,68.8z M61.6,60.1l0.9,0.1l0.6,0.3l0.4,0.5l0.1,0.8l-0.1,0.8l-0.4,0.5l-0.7,0.3l-0.9,0.1
	H60v-3.3H61.6L61.6,60.1z M67,65l0.2,1.8l0.6,1.3l1.1,0.7l1.5,0.3l1.5-0.3l1.1-0.7l0.6-1.3l0.2-1.8v-6.1h-1.3v6.2l-0.1,1.2L72,67.2
	l-0.7,0.5l-0.9,0.2l-0.9-0.2l-0.7-0.5l-0.4-0.9l-0.1-1.2v-6.2H67V65L67,65z M77.3,65.5h3.5v-1.1h-3.5V65.5L77.3,65.5z"/>
<path d="M50.1,85.9h1.3v-4.2h1.4l1,0l0.6,0.2l0.3,0.5l0.1,0.8l0.1,1.3l0.1,0.8l0.2,0.5h1.5v-0.3l-0.3-0.4l-0.1-0.7l-0.1-1.6
	l-0.2-1.2l-0.3-0.4l-0.5-0.3l0.6-0.4l0.4-0.5l0.3-0.6l0.1-0.8l-0.2-1.2l-0.6-0.9l-0.9-0.5L53.4,76h-3.3V85.9L50.1,85.9z M53,77.2
	l0.9,0.1l0.6,0.3l0.4,0.5l0.1,0.8l-0.1,0.8l-0.4,0.5l-0.7,0.3l-0.9,0.1h-1.5v-3.3H53L53,77.2z M58.4,82.2l0.2,1.8l0.6,1.3l1.1,0.7
	l1.5,0.3l1.5-0.3l1.1-0.7L65,84l0.2-1.8V76h-1.3v6.2l-0.1,1.2l-0.4,0.9l-0.7,0.5L61.8,85l-0.9-0.2l-0.7-0.5l-0.4-0.9l-0.1-1.2V76
	h-1.3V82.2L58.4,82.2z M67,82.2l0.2,1.8l0.6,1.3l1.1,0.7l1.5,0.3l1.5-0.3l1.1-0.7l0.6-1.3l0.2-1.8V76h-1.3v6.2l-0.1,1.2L72,84.3
	l-0.7,0.5L70.5,85l-0.9-0.2l-0.7-0.5l-0.4-0.9l-0.1-1.2V76H67V82.2L67,82.2z"/>
<path d="M234.6,88.9h1.3v-4.6h4.2v-1.2h-4.2v-3h5.1V79h-6.5V88.9L234.6,88.9z M242.9,88.9h1.3v-4.2h1.4l1,0l0.6,0.2l0.3,0.5l0.1,0.8
	l0.1,1.3l0.1,0.8l0.2,0.5h1.5v-0.3l-0.3-0.4l-0.1-0.7l-0.1-1.6l-0.2-1.2l-0.3-0.4l-0.5-0.3l0.6-0.4l0.4-0.5l0.3-0.6l0.1-0.8
	l-0.2-1.2l-0.6-0.9l-0.9-0.5l-1.3-0.2h-3.3V88.9L242.9,88.9z M245.9,80.2l0.9,0.1l0.6,0.3l0.4,0.5l0.1,0.8l-0.1,0.8l-0.4,0.5
	l-0.7,0.3l-0.9,0.1h-1.5v-3.3H245.9L245.9,80.2z M251.3,85.2l0.2,1.8l0.6,1.3l1.1,0.7l1.5,0.3l1.5-0.3l1.1-0.7l0.6-1.3l0.2-1.8V79
	h-1.3v6.2l-0.1,1.2l-0.4,0.9l-0.7,0.5l-0.9,0.2l-0.9-0.2l-0.7-0.5l-0.4-0.9l-0.1-1.2V79h-1.3V85.2L251.3,85.2z M261.6,85.7h3.5v-1.1
	h-3.5V85.7L261.6,85.7z"/>
<path d="M234.3,106.1h1.3v-4.2h1.4l1,0l0.6,0.2l0.3,0.5l0.1,0.8l0.1,1.3l0.1,0.8l0.2,0.5h1.5v-0.3l-0.3-0.4l-0.1-0.7l-0.1-1.6
	l-0.2-1.2l-0.3-0.4l-0.5-0.3l0.6-0.4l0.4-0.5l0.3-0.6l0.1-0.8l-0.2-1.2l-0.6-0.9l-0.9-0.5l-1.3-0.2h-3.3V106.1L234.3,106.1z
	 M237.3,97.4l0.9,0.1l0.6,0.3l0.4,0.5l0.1,0.8l-0.1,0.8l-0.4,0.5l-0.7,0.3l-0.9,0.1h-1.5v-3.3H237.3L237.3,97.4z M242.7,102.3
	l0.2,1.8l0.6,1.3l1.1,0.7l1.5,0.3l1.5-0.3l1.1-0.7l0.6-1.3l0.2-1.8v-6.1h-1.3v6.2l-0.1,1.2l-0.4,0.9L247,105l-0.9,0.2l-0.9-0.2
	l-0.7-0.5l-0.4-0.9l-0.1-1.2v-6.2h-1.3V102.3L242.7,102.3z M254.7,96.2h-3.3v9.9h3.3l1.6-0.3l1.2-1l0.7-1.6l0.3-2.1l-0.2-2.2
	l-0.3-0.9l-0.4-0.7l-1.2-0.9l-0.8-0.2L254.7,96.2L254.7,96.2z M254.6,97.4l1.1,0.2l0.7,0.7l0.4,1.2l0.1,1.7l-0.2,1.7l-0.4,1.2
	l-0.8,0.7l-1.1,0.2h-1.9v-7.5H254.6L254.6,97.4z"/>
</svg>
