<?xml version="1.0" encoding="utf-8" ?><!DOCTYPE svg PUBLIC "-//W3C//DTD SVG 1.1//EN" "http://www.w3.org/Graphics/SVG/1.1/DTD/svg11.dtd" 
[ <!ATTLIST svg 
  xmlns:dsy CDATA #FIXED "http://www.3ds.com/print"  
    dsy:text-version CDATA #IMPLIED > 

  <!ATTLIST text 
  xmlns:dsy CDATA #FIXED "http://www.3ds.com/print" 
    dsy:text-version CDATA #IMPLIED > 
]><svg xmlns="http://www.w3.org/2000/svg" xmlns:dsy="http://www.3ds.com/print" dsy:text-version="18000" width="297" height="210" viewBox="0 0 297 210" version="1.1"><g stroke="rgb(0, 0, 0)" stroke-width="0.35" stroke-linecap="butt" stroke-linejoin="miter" fill="none"><path d="M 130.465 66.4395 A 7 7 0 0 0 116.612 65.8975"/><circle cx="123.501" cy="67.142" r="3.2"/><path d="M 133.648 97.9904 A 15.1517 15.0002 -11.4675 0 0 117.049 89.9008"/><path d="M 117.049 89.9008 A 15.2866 15.2866 0 0 0 111.902 91.9692"/><path d="M 130.465 66.4395 L 133.648 97.9904"/><path d="M 116.612 65.8975 L 111.902 91.9692"/><path d="M 117.329 89.8468 A 15.2803 15.2803 0 0 0 111.849 92.2649"/><path d="M 111.849 92.2649 L 111.902 91.9692"/><path d="M 196.92 73.0063 A 7 7 0 0 0 183.067 73.5483"/><circle cx="190.032" cy="74.2507" r="3.2"/><path d="M 195.925 96.8965 A 15.1514 14.9999 -348.57 0 0 180.023 103.726"/><path d="M 201.684 99.3737 A 15.2818 15.2818 0 0 0 195.925 96.8966"/><path d="M 183.067 73.5483 L 180.023 103.726"/><path d="M 196.92 73.0063 L 201.684 99.3737"/></g><g stroke="rgb(0, 0, 0)" stroke-width="0.13" stroke-linecap="butt" stroke-linejoin="miter" fill="none"><path d="M 159.978 166.938 L 160.641 166.938 L 161.167 165.468 L 163.163 165.468 L 163.689 166.938 L 164.366 166.938 L 162.536 161.931 L 161.801 161.931 L 159.978 166.938 L 159.978 166.938 z M 161.398 164.856 L 162.169 162.651 L 162.939 164.856 L 161.398 164.856 L 161.398 164.856 z M 165.634 165.288 L 167.378 165.288 L 167.378 164.719 L 165.634 164.719 L 165.634 165.288 L 165.634 165.288 z M 168.653 166.938 L 169.316 166.938 L 169.841 165.468 L 171.837 165.468 L 172.363 166.938 L 173.04 166.938 L 171.21 161.931 L 170.475 161.931 L 168.653 166.938 L 168.653 166.938 z M 170.072 164.856 L 170.843 162.651 L 171.614 164.856 L 170.072 164.856 L 170.072 164.856 z M 173.927 166.938 L 174.561 166.938 L 174.561 164.726 L 174.625 164.193 L 174.82 163.811 L 175.137 163.581 L 175.562 163.501 L 175.879 163.552 L 176.117 163.696 L 176.261 163.941 L 176.311 164.272 L 176.952 164.272 L 176.866 163.689 L 176.628 163.271 L 176.232 163.019 L 175.692 162.932 L 175.324 162.99 L 175.007 163.134 L 174.726 163.379 L 174.503 163.71 L 174.503 163.069 L 173.927 163.069 L 173.927 166.938 L 173.927 166.938 z M 177.774 166.938 L 178.357 166.938 L 178.357 164.352 L 178.393 163.963 L 178.501 163.682 L 178.667 163.516 L 178.883 163.451 L 179.056 163.509 L 179.171 163.653 L 179.229 163.898 L 179.251 164.222 L 179.251 166.938 L 179.798 166.938 L 179.798 164.352 L 179.834 163.97 L 179.942 163.689 L 180.115 163.516 L 180.331 163.451 L 180.504 163.509 L 180.62 163.653 L 180.692 164.222 L 180.692 166.938 L 181.275 166.938 L 181.275 164.265 L 181.239 163.71 L 181.124 163.285 L 180.893 163.026 L 180.519 162.932 L 180.079 163.076 L 179.741 163.494 L 179.474 163.084 L 179.027 162.932 L 178.617 163.076 L 178.336 163.48 L 178.336 163.069 L 177.774 163.069 L 177.774 166.938 L 177.774 166.938 z M 186.715 166.938 L 187.385 166.938 L 187.385 164.64 L 189.488 164.64 L 189.488 164.042 L 187.385 164.042 L 187.385 162.543 L 189.971 162.543 L 189.971 161.938 L 186.715 161.938 L 186.715 166.938 L 186.715 166.938 z M 190.807 165.036 L 190.908 165.937 L 191.225 166.578 L 191.758 166.945 L 192.529 167.075 L 193.292 166.945 L 193.826 166.578 L 194.143 165.944 L 194.251 165.036 L 194.251 161.938 L 193.581 161.938 L 193.581 165.072 L 193.516 165.684 L 193.321 166.124 L 192.99 166.383 L 192.529 166.47 L 192.053 166.383 L 191.722 166.124 L 191.527 165.692 L 191.47 165.072 L 191.47 161.938 L 190.807 161.938 L 190.807 165.036 L 190.807 165.036 z M 195.994 165.288 L 197.738 165.288 L 197.738 164.719 L 195.994 164.719 L 195.994 165.288 L 195.994 165.288 z M 199.597 166.938 L 200.267 166.938 L 200.267 164.827 L 200.951 164.827 L 201.455 164.849 L 201.772 164.95 L 201.945 165.187 L 202.017 165.612 L 202.053 166.261 L 202.097 166.686 L 202.183 166.938 L 202.939 166.938 L 202.939 166.801 L 202.774 166.599 L 202.716 166.225 L 202.666 165.418 L 202.543 164.82 L 202.378 164.633 L 202.118 164.496 L 202.406 164.316 L 202.608 164.063 L 202.738 163.746 L 202.781 163.365 L 202.68 162.759 L 202.392 162.305 L 201.916 162.032 L 201.268 161.938 L 199.597 161.938 L 199.597 166.938 L 199.597 166.938 z M 201.081 162.55 L 201.52 162.594 L 201.83 162.731 L 202.024 162.983 L 202.089 163.379 L 202.017 163.797 L 201.823 164.049 L 201.491 164.179 L 201.037 164.215 L 200.267 164.215 L 200.267 162.55 L 201.081 162.55 L 201.081 162.55 z M 204.604 165.187 L 207.14 165.187 L 207.147 164.892 L 207.032 164.063 L 206.715 163.444 L 206.21 163.069 L 205.54 162.932 L 204.885 163.076 L 204.38 163.48 L 204.056 164.135 L 203.941 165 L 204.049 165.886 L 204.373 166.535 L 204.87 166.938 L 205.519 167.075 L 206.081 166.981 L 206.542 166.736 L 206.88 166.347 L 207.075 165.829 L 206.448 165.829 L 206.318 166.117 L 206.131 166.333 L 205.598 166.506 L 205.187 166.427 L 204.878 166.174 L 204.676 165.764 L 204.604 165.209 L 204.604 165.187 L 204.604 165.187 z M 204.604 164.654 L 204.683 164.157 L 204.878 163.79 L 205.173 163.566 L 205.562 163.487 L 205.944 163.566 L 206.239 163.79 L 206.419 164.157 L 206.484 164.654 L 204.604 164.654 L 204.604 164.654 z M 210.684 166.434 L 210.684 166.455 L 210.72 166.7 L 210.829 166.873 L 211.282 167.01 L 211.635 166.952 L 211.635 166.463 L 211.484 166.484 L 211.282 166.39 L 211.246 166.102 L 211.246 164.099 L 211.16 163.588 L 210.908 163.228 L 210.468 163.012 L 209.849 162.932 L 209.243 163.019 L 208.797 163.264 L 208.516 163.646 L 208.422 164.15 L 208.422 164.193 L 208.991 164.193 L 209.042 163.89 L 209.2 163.674 L 209.46 163.545 L 209.827 163.494 L 210.18 163.53 L 210.432 163.638 L 210.584 163.826 L 210.634 164.085 L 210.605 164.388 L 210.49 164.539 L 210.202 164.611 L 209.661 164.669 L 209.042 164.798 L 208.602 165.029 L 208.343 165.389 L 208.264 165.922 L 208.336 166.398 L 208.559 166.751 L 208.919 166.974 L 209.416 167.053 L 210.086 166.902 L 210.684 166.434 L 210.684 166.434 z M 210.612 165.584 L 210.526 165.958 L 210.295 166.246 L 209.95 166.434 L 209.524 166.499 L 209.251 166.463 L 209.056 166.347 L 208.934 166.146 L 208.898 165.865 L 208.926 165.612 L 209.042 165.432 L 209.503 165.231 L 210.086 165.144 L 210.612 164.971 L 210.612 165.584 L 210.612 165.584 z M 212.961 166.938 L 213.595 166.938 L 213.595 164.726 L 213.66 164.193 L 213.854 163.811 L 214.171 163.581 L 214.597 163.501 L 214.914 163.552 L 215.151 163.696 L 215.295 163.941 L 215.346 164.272 L 215.987 164.272 L 215.901 163.689 L 215.663 163.271 L 215.267 163.019 L 214.726 162.932 L 214.359 162.99 L 214.042 163.134 L 213.761 163.379 L 213.537 163.71 L 213.537 163.069 L 212.961 163.069 L 212.961 166.938 L 212.961 166.938 z M 221.167 165.036 L 221.268 165.937 L 221.585 166.578 L 222.118 166.945 L 222.889 167.075 L 223.653 166.945 L 224.186 166.578 L 224.503 165.944 L 224.611 165.036 L 224.611 161.938 L 223.941 161.938 L 223.941 165.072 L 223.876 165.684 L 223.682 166.124 L 223.35 166.383 L 222.889 166.47 L 222.414 166.383 L 222.082 166.124 L 221.888 165.692 L 221.83 165.072 L 221.83 161.938 L 221.167 161.938 L 221.167 165.036 L 221.167 165.036 z M 226.333 163.667 L 226.333 163.069 L 225.699 163.069 L 225.699 168.437 L 226.333 168.437 L 226.333 166.347 L 226.556 166.686 L 226.808 166.909 L 227.442 167.075 L 228.048 166.938 L 228.523 166.527 L 228.833 165.879 L 228.948 165 L 228.833 164.128 L 228.523 163.48 L 228.048 163.076 L 227.442 162.932 L 227.097 162.976 L 226.801 163.112 L 226.549 163.343 L 226.333 163.667 L 226.333 163.667 z M 227.334 166.506 L 226.909 166.412 L 226.599 166.124 L 226.405 165.656 L 226.34 165 L 226.405 164.352 L 226.599 163.883 L 226.909 163.602 L 227.334 163.501 L 227.723 163.602 L 228.033 163.89 L 228.228 164.359 L 228.3 165 L 228.228 165.648 L 228.033 166.124 L 227.723 166.412 L 227.334 166.506 L 227.334 166.506 z M 230.67 163.667 L 230.67 163.069 L 230.036 163.069 L 230.036 168.437 L 230.67 168.437 L 230.67 166.347 L 230.893 166.686 L 231.145 166.909 L 231.78 167.075 L 232.385 166.938 L 232.86 166.527 L 233.17 165.879 L 233.285 165 L 233.17 164.128 L 232.86 163.48 L 232.385 163.076 L 231.78 162.932 L 231.434 162.976 L 231.138 163.112 L 230.886 163.343 L 230.67 163.667 L 230.67 163.667 z M 231.671 166.506 L 231.246 166.412 L 230.937 166.124 L 230.742 165.656 L 230.677 165 L 230.742 164.352 L 230.937 163.883 L 231.246 163.602 L 231.671 163.501 L 232.06 163.602 L 232.37 163.89 L 232.565 164.359 L 232.637 165 L 232.565 165.648 L 232.37 166.124 L 232.06 166.412 L 231.671 166.506 L 231.671 166.506 z M 234.964 165.187 L 237.5 165.187 L 237.507 164.892 L 237.392 164.063 L 237.075 163.444 L 236.571 163.069 L 235.901 162.932 L 235.245 163.076 L 234.741 163.48 L 234.416 164.135 L 234.301 165 L 234.409 165.886 L 234.733 166.535 L 235.231 166.938 L 235.879 167.075 L 236.441 166.981 L 236.902 166.736 L 237.241 166.347 L 237.435 165.829 L 236.808 165.829 L 236.679 166.117 L 236.491 166.333 L 235.958 166.506 L 235.548 166.427 L 235.238 166.174 L 235.036 165.764 L 234.964 165.209 L 234.964 165.187 L 234.964 165.187 z M 234.964 164.654 L 235.043 164.157 L 235.238 163.79 L 235.533 163.566 L 235.922 163.487 L 236.304 163.566 L 236.599 163.79 L 236.779 164.157 L 236.844 164.654 L 234.964 164.654 L 234.964 164.654 z M 238.984 166.938 L 239.618 166.938 L 239.618 164.726 L 239.683 164.193 L 239.877 163.811 L 240.194 163.581 L 240.62 163.501 L 240.937 163.552 L 241.174 163.696 L 241.318 163.941 L 241.369 164.272 L 242.01 164.272 L 241.924 163.689 L 241.686 163.271 L 241.29 163.019 L 240.749 162.932 L 240.382 162.99 L 240.065 163.134 L 239.784 163.379 L 239.56 163.71 L 239.56 163.069 L 238.984 163.069 L 238.984 166.938 L 238.984 166.938 z" stroke="none" fill-rule="evenodd" fill="rgb(0, 0, 0)"/></g><g stroke="rgb(0, 0, 0)" stroke-width="0.13" stroke-linecap="butt" stroke-linejoin="miter" fill="none"><path d="M 161.275 174.978 L 161.744 175.533 L 162.385 175.713 L 162.99 175.576 L 163.473 175.166 L 163.775 174.51 L 163.89 173.638 L 163.775 172.767 L 163.465 172.118 L 162.99 171.715 L 162.385 171.571 L 161.751 171.758 L 161.491 171.988 L 161.275 172.298 L 161.275 170.403 L 160.641 170.403 L 160.641 175.576 L 161.275 175.576 L 161.275 174.978 L 161.275 174.978 z M 163.242 173.638 L 163.17 174.287 L 162.976 174.762 L 162.666 175.05 L 162.277 175.144 L 161.852 175.05 L 161.542 174.762 L 161.347 174.294 L 161.282 173.638 L 161.347 172.99 L 161.542 172.522 L 161.852 172.241 L 162.277 172.14 L 162.666 172.241 L 162.976 172.529 L 163.17 172.997 L 163.242 173.638 L 163.242 173.638 z M 165.252 175.576 L 165.886 175.576 L 165.886 173.365 L 165.951 172.831 L 166.146 172.45 L 166.463 172.219 L 166.888 172.14 L 167.205 172.19 L 167.442 172.334 L 167.586 172.579 L 167.637 172.911 L 168.278 172.911 L 168.192 172.327 L 167.954 171.909 L 167.558 171.657 L 167.017 171.571 L 166.65 171.628 L 166.333 171.772 L 166.052 172.017 L 165.829 172.349 L 165.829 171.707 L 165.252 171.707 L 165.252 175.576 L 165.252 175.576 z M 171.65 175.072 L 171.65 175.094 L 171.686 175.339 L 171.794 175.512 L 172.248 175.648 L 172.601 175.591 L 172.601 175.101 L 172.45 175.122 L 172.248 175.029 L 172.212 174.741 L 172.212 172.738 L 172.125 172.226 L 171.873 171.866 L 171.434 171.65 L 170.814 171.571 L 170.209 171.657 L 169.762 171.902 L 169.481 172.284 L 169.388 172.788 L 169.388 172.831 L 169.957 172.831 L 170.007 172.529 L 170.166 172.313 L 170.425 172.183 L 170.793 172.133 L 171.146 172.169 L 171.398 172.277 L 171.549 172.464 L 171.599 172.723 L 171.571 173.026 L 171.455 173.177 L 171.167 173.249 L 170.627 173.307 L 170.007 173.437 L 169.568 173.667 L 169.308 174.027 L 169.229 174.561 L 169.301 175.036 L 169.524 175.389 L 169.885 175.612 L 170.382 175.692 L 171.052 175.54 L 171.65 175.072 L 171.65 175.072 z M 171.578 174.222 L 171.491 174.597 L 171.261 174.885 L 170.915 175.072 L 170.49 175.137 L 170.216 175.101 L 170.022 174.986 L 169.899 174.784 L 169.863 174.503 L 169.892 174.251 L 170.007 174.071 L 170.468 173.869 L 171.052 173.782 L 171.578 173.61 L 171.578 174.222 L 171.578 174.222 z M 176.153 172.99 L 176.78 172.99 L 176.65 172.414 L 176.34 171.96 L 175.857 171.679 L 175.231 171.571 L 174.539 171.715 L 174.013 172.118 L 173.682 172.774 L 173.566 173.653 L 173.674 174.524 L 173.999 175.173 L 174.51 175.576 L 175.209 175.713 L 175.829 175.605 L 176.311 175.303 L 176.643 174.827 L 176.787 174.193 L 176.182 174.193 L 176.073 174.597 L 175.872 174.899 L 175.584 175.086 L 175.231 175.144 L 174.791 175.05 L 174.474 174.762 L 174.28 174.294 L 174.215 173.631 L 174.28 172.983 L 174.481 172.514 L 174.805 172.226 L 175.231 172.125 L 175.605 172.19 L 175.886 172.356 L 176.073 172.63 L 176.153 172.99 L 176.153 172.99 z M 178.112 175.576 L 178.746 175.576 L 178.746 174.215 L 179.409 173.573 L 180.548 175.576 L 181.261 175.576 L 179.841 173.134 L 181.297 171.707 L 180.497 171.707 L 178.746 173.451 L 178.746 170.403 L 178.112 170.403 L 178.112 175.576 L 178.112 175.576 z M 182.918 173.826 L 185.454 173.826 L 185.461 173.53 L 185.346 172.702 L 185.029 172.082 L 184.524 171.707 L 183.854 171.571 L 183.199 171.715 L 182.695 172.118 L 182.37 172.774 L 182.255 173.638 L 182.363 174.524 L 182.687 175.173 L 183.184 175.576 L 183.833 175.713 L 184.395 175.62 L 184.856 175.375 L 185.195 174.986 L 185.389 174.467 L 184.762 174.467 L 184.633 174.755 L 184.445 174.971 L 183.912 175.144 L 183.501 175.065 L 183.192 174.813 L 182.99 174.402 L 182.918 173.847 L 182.918 173.826 L 182.918 173.826 z M 182.918 173.293 L 182.997 172.795 L 183.192 172.428 L 183.487 172.205 L 183.876 172.125 L 184.258 172.205 L 184.553 172.428 L 184.733 172.795 L 184.798 173.293 L 182.918 173.293 L 182.918 173.293 z M 187.55 172.378 L 187.55 174.316 L 187.594 174.942 L 187.795 175.375 L 188.199 175.627 L 188.883 175.713 L 189.633 175.677 L 189.633 175.13 L 189.085 175.173 L 188.588 175.115 L 188.321 174.935 L 188.206 174.633 L 188.184 174.207 L 188.184 172.378 L 189.633 172.378 L 189.633 171.837 L 188.184 171.837 L 188.184 170.706 L 187.55 170.706 L 187.55 171.837 L 186.455 171.837 L 186.455 172.378 L 187.55 172.378 L 187.55 172.378 z M 196.859 170.576 L 195.195 170.576 L 195.195 175.576 L 196.859 175.576 L 197.644 175.418 L 198.228 174.935 L 198.588 174.15 L 198.718 173.076 L 198.602 171.981 L 198.458 171.549 L 198.256 171.203 L 197.673 170.735 L 197.291 170.62 L 196.859 170.576 L 196.859 170.576 z M 196.808 171.174 L 197.356 171.282 L 197.731 171.614 L 197.954 172.205 L 198.026 173.076 L 197.947 173.919 L 197.723 174.51 L 197.341 174.863 L 196.808 174.978 L 195.865 174.978 L 195.865 171.174 L 196.808 171.174 L 196.808 171.174 z M 199.597 175.576 L 200.267 175.576 L 200.267 173.465 L 200.951 173.465 L 201.455 173.487 L 201.772 173.588 L 201.945 173.826 L 202.017 174.251 L 202.053 174.899 L 202.097 175.324 L 202.183 175.576 L 202.939 175.576 L 202.939 175.439 L 202.774 175.238 L 202.716 174.863 L 202.666 174.056 L 202.543 173.458 L 202.378 173.271 L 202.118 173.134 L 202.406 172.954 L 202.608 172.702 L 202.738 172.385 L 202.781 172.003 L 202.68 171.398 L 202.392 170.944 L 201.916 170.67 L 201.268 170.576 L 199.597 170.576 L 199.597 175.576 L 199.597 175.576 z M 201.081 171.189 L 201.52 171.232 L 201.83 171.369 L 202.024 171.621 L 202.089 172.017 L 202.017 172.435 L 201.823 172.687 L 201.491 172.817 L 201.037 172.853 L 200.267 172.853 L 200.267 171.189 L 201.081 171.189 L 201.081 171.189 z M 203.689 173.076 L 203.818 174.2 L 204.193 175.029 L 204.777 175.54 L 205.54 175.713 L 206.297 175.54 L 206.888 175.029 L 207.255 174.2 L 207.392 173.076 L 207.255 171.96 L 207.097 171.506 L 206.888 171.131 L 206.297 170.62 L 205.937 170.49 L 205.54 170.439 L 204.769 170.62 L 204.186 171.124 L 203.818 171.952 L 203.689 173.076 L 203.689 173.076 z M 204.38 173.076 L 204.46 172.205 L 204.697 171.563 L 205.065 171.174 L 205.54 171.037 L 206.009 171.174 L 206.376 171.571 L 206.614 172.212 L 206.7 173.076 L 206.614 173.948 L 206.376 174.589 L 206.009 174.978 L 205.54 175.108 L 205.065 174.978 L 204.697 174.589 L 204.46 173.955 L 204.38 173.076 L 204.38 173.076 z M 209.546 174.971 L 208.624 174.971 L 208.624 175.576 L 211.131 175.576 L 211.131 174.971 L 210.209 174.971 L 210.209 171.182 L 211.131 171.182 L 211.131 170.576 L 208.624 170.576 L 208.624 171.182 L 209.546 171.182 L 209.546 174.971 L 209.546 174.971 z M 213.883 175.576 L 214.546 175.576 L 214.546 171.182 L 216.059 171.182 L 216.059 170.576 L 212.363 170.576 L 212.363 171.182 L 213.883 171.182 L 213.883 175.576 L 213.883 175.576 z M 217.039 175.576 L 220.209 175.576 L 220.209 174.971 L 217.702 174.971 L 217.702 173.278 L 219.935 173.278 L 219.935 172.68 L 217.702 172.68 L 217.702 171.182 L 220.151 171.182 L 220.151 170.576 L 217.039 170.576 L 217.039 175.576 L 217.039 175.576 z" stroke="none" fill-rule="evenodd" fill="rgb(0, 0, 0)"/></g><g stroke="rgb(0, 0, 0)" stroke-width="0.13" stroke-linecap="butt" stroke-linejoin="miter" fill="none"><path d="M 119.746 80.3201 L 120.216 80.3201 L 120.216 78.7114 L 121.688 78.7114 L 121.688 78.2928 L 120.216 78.2928 L 120.216 77.2438 L 122.026 77.2438 L 122.026 76.8201 L 119.746 76.8201 L 119.746 80.3201 L 119.746 80.3201 z M 122.692 80.3201 L 123.161 80.3201 L 123.161 78.8425 L 123.64 78.8425 L 123.993 78.8576 L 124.215 78.9282 L 124.336 79.0946 L 124.386 79.3922 L 124.411 79.8461 L 124.442 80.1436 L 124.502 80.3201 L 125.032 80.3201 L 125.032 80.2243 L 124.916 80.0831 L 124.875 79.8209 L 124.84 79.256 L 124.754 78.8374 L 124.638 78.7063 L 124.457 78.6105 L 124.659 78.4844 L 124.8 78.3079 L 124.891 78.086 L 124.921 77.8187 L 124.85 77.3951 L 124.648 77.0773 L 124.316 76.8857 L 123.862 76.8201 L 122.692 76.8201 L 122.692 80.3201 L 122.692 80.3201 z M 123.731 77.2488 L 124.038 77.2791 L 124.255 77.3749 L 124.391 77.5514 L 124.437 77.8288 L 124.386 78.1213 L 124.25 78.2978 L 124.018 78.3886 L 123.7 78.4138 L 123.161 78.4138 L 123.161 77.2488 L 123.731 77.2488 L 123.731 77.2488 z M 125.647 78.9887 L 125.718 79.6191 L 125.94 80.068 L 126.313 80.3252 L 126.852 80.416 L 127.387 80.3252 L 127.76 80.068 L 127.982 79.6242 L 128.058 78.9887 L 128.058 76.8201 L 127.589 76.8201 L 127.589 79.0139 L 127.543 79.4426 L 127.407 79.7503 L 127.175 79.9318 L 126.852 79.9923 L 126.52 79.9318 L 126.288 79.7503 L 126.151 79.4477 L 126.111 79.0139 L 126.111 76.8201 L 125.647 76.8201 L 125.647 78.9887 L 125.647 78.9887 z M 129.278 79.1653 L 130.499 79.1653 L 130.499 78.7668 L 129.278 78.7668 L 129.278 79.1653 L 129.278 79.1653 z" stroke="none" fill-rule="evenodd" fill="rgb(0, 0, 0)"/></g><g stroke="rgb(0, 0, 0)" stroke-width="0.13" stroke-linecap="butt" stroke-linejoin="miter" fill="none"><path d="M 119.656 86.367 L 120.125 86.367 L 120.125 84.8893 L 120.604 84.8893 L 120.957 84.9044 L 121.179 84.9751 L 121.3 85.1415 L 121.35 85.439 L 121.375 85.8929 L 121.406 86.1905 L 121.466 86.367 L 121.996 86.367 L 121.996 86.2712 L 121.88 86.13 L 121.839 85.8677 L 121.804 85.3029 L 121.718 84.8843 L 121.602 84.7532 L 121.421 84.6573 L 121.623 84.5313 L 121.764 84.3547 L 121.855 84.1328 L 121.885 83.8655 L 121.814 83.4419 L 121.612 83.1242 L 121.28 82.9325 L 120.826 82.867 L 119.656 82.867 L 119.656 86.367 L 119.656 86.367 z M 120.695 83.2957 L 121.002 83.3259 L 121.219 83.4217 L 121.355 83.5983 L 121.401 83.8756 L 121.35 84.1681 L 121.214 84.3447 L 120.982 84.4354 L 120.664 84.4606 L 120.125 84.4606 L 120.125 83.2957 L 120.695 83.2957 L 120.695 83.2957 z M 122.611 85.0356 L 122.682 85.666 L 122.904 86.1148 L 123.277 86.372 L 123.816 86.4628 L 124.351 86.372 L 124.724 86.1148 L 124.946 85.671 L 125.022 85.0356 L 125.022 82.867 L 124.553 82.867 L 124.553 85.0608 L 124.507 85.4895 L 124.371 85.7971 L 124.139 85.9787 L 123.816 86.0392 L 123.484 85.9787 L 123.252 85.7971 L 123.115 85.4945 L 123.075 85.0608 L 123.075 82.867 L 122.611 82.867 L 122.611 85.0356 L 122.611 85.0356 z M 125.647 85.0356 L 125.718 85.666 L 125.94 86.1148 L 126.313 86.372 L 126.852 86.4628 L 127.387 86.372 L 127.76 86.1148 L 127.982 85.671 L 128.058 85.0356 L 128.058 82.867 L 127.589 82.867 L 127.589 85.0608 L 127.543 85.4895 L 127.407 85.7971 L 127.175 85.9787 L 126.852 86.0392 L 126.52 85.9787 L 126.288 85.7971 L 126.151 85.4945 L 126.111 85.0608 L 126.111 82.867 L 125.647 82.867 L 125.647 85.0356 L 125.647 85.0356 z" stroke="none" fill-rule="evenodd" fill="rgb(0, 0, 0)"/></g><g stroke="rgb(0, 0, 0)" stroke-width="0.13" stroke-linecap="butt" stroke-linejoin="miter" fill="none"><path d="M 184.754 87.4289 L 185.223 87.4289 L 185.223 85.8202 L 186.696 85.8202 L 186.696 85.4016 L 185.223 85.4016 L 185.223 84.3526 L 187.034 84.3526 L 187.034 83.9289 L 184.754 83.9289 L 184.754 87.4289 L 184.754 87.4289 z M 187.699 87.4289 L 188.168 87.4289 L 188.168 85.9513 L 188.648 85.9513 L 189.001 85.9664 L 189.222 86.037 L 189.344 86.2034 L 189.394 86.501 L 189.419 86.9549 L 189.449 87.2524 L 189.51 87.4289 L 190.039 87.4289 L 190.039 87.3331 L 189.923 87.1919 L 189.883 86.9297 L 189.848 86.3648 L 189.762 85.9462 L 189.646 85.8151 L 189.465 85.7193 L 189.666 85.5932 L 189.807 85.4167 L 189.898 85.1948 L 189.929 84.9275 L 189.858 84.5039 L 189.656 84.1861 L 189.323 83.9945 L 188.869 83.9289 L 187.699 83.9289 L 187.699 87.4289 L 187.699 87.4289 z M 188.738 84.3576 L 189.046 84.3879 L 189.263 84.4837 L 189.399 84.6602 L 189.444 84.9376 L 189.394 85.2301 L 189.258 85.4066 L 189.026 85.4974 L 188.708 85.5226 L 188.168 85.5226 L 188.168 84.3576 L 188.738 84.3576 L 188.738 84.3576 z M 190.655 86.0975 L 190.725 86.7279 L 190.947 87.1768 L 191.32 87.434 L 191.86 87.5248 L 192.395 87.434 L 192.768 87.1768 L 192.99 86.733 L 193.065 86.0975 L 193.065 83.9289 L 192.596 83.9289 L 192.596 86.1227 L 192.551 86.5514 L 192.415 86.8591 L 192.183 87.0406 L 191.86 87.1011 L 191.527 87.0406 L 191.295 86.8591 L 191.159 86.5565 L 191.119 86.1227 L 191.119 83.9289 L 190.655 83.9289 L 190.655 86.0975 L 190.655 86.0975 z M 194.286 86.274 L 195.506 86.274 L 195.506 85.8756 L 194.286 85.8756 L 194.286 86.274 L 194.286 86.274 z" stroke="none" fill-rule="evenodd" fill="rgb(0, 0, 0)"/></g><g stroke="rgb(0, 0, 0)" stroke-width="0.13" stroke-linecap="butt" stroke-linejoin="miter" fill="none"><path d="M 184.663 93.4758 L 185.132 93.4758 L 185.132 91.9981 L 185.612 91.9981 L 185.965 92.0132 L 186.186 92.0838 L 186.307 92.2503 L 186.358 92.5478 L 186.383 93.0017 L 186.413 93.2993 L 186.474 93.4758 L 187.003 93.4758 L 187.003 93.38 L 186.887 93.2387 L 186.847 92.9765 L 186.812 92.4117 L 186.726 91.9931 L 186.61 91.8619 L 186.429 91.7661 L 186.63 91.64 L 186.771 91.4635 L 186.862 91.2416 L 186.893 90.9743 L 186.822 90.5507 L 186.62 90.233 L 186.287 90.0413 L 185.833 89.9758 L 184.663 89.9758 L 184.663 93.4758 L 184.663 93.4758 z M 185.702 90.4044 L 186.01 90.4347 L 186.227 90.5305 L 186.363 90.707 L 186.408 90.9844 L 186.358 91.2769 L 186.222 91.4534 L 185.99 91.5442 L 185.672 91.5694 L 185.132 91.5694 L 185.132 90.4044 L 185.702 90.4044 L 185.702 90.4044 z M 187.619 92.1444 L 187.689 92.7748 L 187.911 93.2236 L 188.284 93.4808 L 188.824 93.5716 L 189.359 93.4808 L 189.732 93.2236 L 189.954 92.7798 L 190.029 92.1444 L 190.029 89.9758 L 189.56 89.9758 L 189.56 92.1696 L 189.515 92.5983 L 189.379 92.9059 L 189.147 93.0874 L 188.824 93.148 L 188.491 93.0874 L 188.259 92.9059 L 188.123 92.6033 L 188.083 92.1696 L 188.083 89.9758 L 187.619 89.9758 L 187.619 92.1444 L 187.619 92.1444 z M 191.855 89.9758 L 190.69 89.9758 L 190.69 93.4758 L 191.855 93.4758 L 192.405 93.3648 L 192.813 93.0269 L 193.065 92.4772 L 193.156 91.7258 L 193.076 90.9592 L 192.975 90.6566 L 192.833 90.4145 L 192.425 90.0867 L 192.158 90.006 L 191.855 89.9758 L 191.855 89.9758 z M 191.82 90.3944 L 192.203 90.47 L 192.465 90.702 L 192.622 91.1155 L 192.672 91.7258 L 192.617 92.3158 L 192.46 92.7294 L 192.193 92.9765 L 191.82 93.0572 L 191.159 93.0572 L 191.159 90.3944 L 191.82 90.3944 L 191.82 90.3944 z" stroke="none" fill-rule="evenodd" fill="rgb(0, 0, 0)"/></g></svg>