<?xml version="1.0" encoding="utf-8"?>
<!-- Generator: Adobe Illustrator 22.1.0, SVG Export Plug-In . SVG Version: 6.00 Build 0)  -->
<svg version="1.1" id="Calque_1" dsy:text-version="18000" xmlns:dsy="http://www.3ds.com/print"
	 xmlns="http://www.w3.org/2000/svg" xmlns:xlink="http://www.w3.org/1999/xlink" x="0px" y="0px" viewBox="0 0 297 210"
	 style="enable-background:new 0 0 297 210;" xml:space="preserve">
<style type="text/css">
	.st0{fill:none;stroke:#000000;stroke-width:0.35;}
</style>
<g>
	<path class="st0" d="M72.7,48.6c0.6-10.9-7.8-20.3-18.8-20.9c-8.8-0.5-16.9,5-19.8,13.4"/>
	<ellipse transform="matrix(0.1602 -0.9871 0.9871 0.1602 -2.4834 92.132)" class="st0" cx="52.9" cy="47.5" rx="9.1" ry="9.1"/>
	<path class="st0" d="M68.9,122.2c-8.6-9.5-21.1-14.8-34-14.2"/>
	<path class="st0" d="M34.9,108.1c-10.4,0.4-20.3,4.6-27.9,11.8"/>
	<path class="st0" d="M72.7,48.6l-3.8,73.7"/>
	<path class="st0" d="M34.1,41.1L7,119.9"/>
	<path class="st0" d="M283.9,69.7c2.1-10.8-4.9-21.2-15.7-23.3c-8.7-1.7-17.4,2.6-21.5,10.5"/>
	<circle class="st0" cx="264.4" cy="65.9" r="9.1"/>
	<path class="st0" d="M267.5,154.1c-2.3-11.4-9.2-21.4-19.1-27.7"/>
	<path class="st0" d="M248.4,126.4c-10.2-6.5-22.7-8.5-34.3-5.3"/>
	<path class="st0" d="M246.7,56.9L214,121.1"/>
	<path class="st0" d="M283.9,69.7l-16.4,84.4"/>
</g>
<g>
	<path d="M31.5,279.2h1.9l1.5-4.2h5.7l1.5,4.2h1.9L38.7,265h-2.1L31.5,279.2L31.5,279.2z M35.5,273.3l2.2-6.3l2.2,6.3H35.5
		L35.5,273.3z M47.5,274.5h4.9v-1.6h-4.9V274.5L47.5,274.5z M56.1,279.2H58l1.5-4.2h5.7l1.5,4.2h1.9L63.3,265h-2.1L56.1,279.2
		L56.1,279.2z M60.1,273.3l2.2-6.3l2.2,6.3H60.1L60.1,273.3z M71,279.2h1.8v-6.3l0.2-1.5l0.6-1.1l0.9-0.7l1.2-0.2l0.9,0.1l0.7,0.4
		l0.4,0.7l0.1,0.9h1.8l-0.2-1.7l-0.7-1.2l-1.1-0.7l-1.5-0.2l-1,0.2l-0.9,0.4l-0.8,0.7l-0.6,0.9v-1.8H71V279.2L71,279.2z M81.9,279.2
		h1.7v-7.3l0.1-1.1L84,270l0.5-0.5l0.6-0.2l0.5,0.2l0.3,0.4l0.2,0.7l0.1,0.9v7.7h1.6v-7.3l0.1-1.1l0.3-0.8l0.5-0.5l0.6-0.2l0.5,0.2
		l0.3,0.4l0.2,1.6v7.7h1.7v-7.6l-0.1-1.6l-0.3-1.2l-0.7-0.7l-1.1-0.3l-1.2,0.4l-1,1.2l-0.8-1.2l-1.3-0.4l-1.2,0.4l-0.8,1.1v-1.2
		h-1.6V279.2L81.9,279.2z M107.3,279.2h1.9v-6.5h6V271h-6v-4.2h7.3V265h-9.2V279.2L107.3,279.2z M118.9,273.8l0.3,2.6l0.9,1.8l1.5,1
		l2.2,0.4l2.2-0.4l1.5-1l0.9-1.8l0.3-2.6V265h-1.9v8.9l-0.2,1.7l-0.6,1.2l-0.9,0.7l-1.3,0.2l-1.3-0.2l-0.9-0.7l-0.6-1.2l-0.2-1.8
		V265h-1.9V273.8L118.9,273.8z M145.9,274.5h4.9v-1.6h-4.9V274.5L145.9,274.5z M168.4,279.2h1.9v-6h1.9l1.4,0.1l0.9,0.3l0.5,0.7
		l0.2,1.2l0.1,1.8l0.1,1.2l0.2,0.7h2.1v-0.4l-0.5-0.6l-0.2-1.1l-0.1-2.3l-0.3-1.7l-0.5-0.5l-0.7-0.4l0.8-0.5l0.6-0.7l0.4-0.9
		l0.1-1.1l-0.3-1.7l-0.8-1.3l-1.3-0.8l-1.8-0.3h-4.7V279.2L168.4,279.2z M172.6,266.8l1.2,0.1l0.9,0.4l0.6,0.7l0.2,1.1l-0.2,1.2
		l-0.6,0.7l-0.9,0.4l-1.3,0.1h-2.2v-4.7H172.6L172.6,266.8z M182.6,274.2h7.2l0-0.8l-0.3-2.3l-0.9-1.8l-1.4-1.1l-1.9-0.4l-1.9,0.4
		l-1.4,1.1l-0.9,1.9l-0.3,2.5l0.3,2.5l0.9,1.8l1.4,1.1l1.8,0.4l1.6-0.3l1.3-0.7l1-1.1l0.5-1.5h-1.8l-0.4,0.8l-0.5,0.6l-1.5,0.5
		l-1.2-0.2l-0.9-0.7l-0.6-1.2L182.6,274.2L182.6,274.2L182.6,274.2z M182.6,272.7l0.2-1.4l0.6-1l0.8-0.6l1.1-0.2l1.1,0.2l0.8,0.6
		l0.5,1l0.2,1.4H182.6L182.6,272.7z M199.8,277.8L199.8,277.8l0.1,0.8l0.3,0.5l1.3,0.4l1-0.2v-1.4l-0.4,0.1l-0.6-0.3l-0.1-0.8v-5.7
		l-0.2-1.4l-0.7-1l-1.2-0.6l-1.8-0.2l-1.7,0.2l-1.3,0.7l-0.8,1.1l-0.3,1.4v0.1h1.6l0.1-0.9l0.5-0.6l0.7-0.4l1-0.1l1,0.1l0.7,0.3
		l0.4,0.5l0.1,0.7l-0.1,0.9l-0.3,0.4l-0.8,0.2l-1.5,0.2l-1.8,0.4l-1.2,0.7l-0.7,1l-0.2,1.5l0.2,1.3l0.6,1l1,0.6l1.4,0.2l1.9-0.4
		L199.8,277.8L199.8,277.8z M199.6,275.4l-0.2,1.1l-0.7,0.8l-1,0.5l-1.2,0.2l-0.8-0.1l-0.5-0.3l-0.3-0.6l-0.1-0.8l0.1-0.7l0.3-0.5
		l1.3-0.6l1.7-0.2l1.5-0.5V275.4L199.6,275.4z M206.3,279.2h1.8v-6.3l0.2-1.5l0.6-1.1l0.9-0.7l1.2-0.2l0.9,0.1l0.7,0.4l0.4,0.7
		l0.1,0.9h1.8l-0.2-1.7l-0.7-1.2l-1.1-0.7l-1.5-0.2l-1,0.2l-0.9,0.4l-0.8,0.7l-0.6,0.9v-1.8h-1.6V279.2L206.3,279.2z M230.3,279.2
		h9.1v-1.7h-7.2V265h-1.9V279.2L230.3,279.2z M241.9,273.7l0.3,2.5l0.9,1.8l1.5,1.1l2,0.4l2-0.4l1.5-1.1l0.9-1.8l0.3-2.5l-0.3-2.5
		l-0.9-1.9l-1.5-1.1l-2-0.4l-2,0.4l-1.5,1.1l-0.9,1.8L241.9,273.7L241.9,273.7z M243.8,273.7l0.2-1.8l0.6-1.3l0.9-0.8l1.2-0.3
		l1.2,0.3l0.9,0.8l0.6,1.3l0.2,1.8l-0.2,1.9l-0.6,1.3l-0.9,0.8l-1.2,0.3l-1.2-0.3l-0.9-0.8l-0.6-1.3L243.8,273.7L243.8,273.7z
		 M257.4,279.2l1.6-9.3l1.6,9.3h1.7l2.7-11h-1.7l-1.8,9.3l-1.6-9.3h-1.8l-1.6,9.3l-1.8-9.3h-1.7l2.7,11H257.4L257.4,279.2z
		 M268.6,274.2h7.2l0-0.8l-0.3-2.3l-0.9-1.8l-1.4-1.1l-1.9-0.4l-1.9,0.4l-1.4,1.1l-0.9,1.9l-0.3,2.5l0.3,2.5l0.9,1.8l1.4,1.1
		l1.8,0.4l1.6-0.3l1.3-0.7l1-1.1l0.6-1.5h-1.8l-0.4,0.8l-0.5,0.6l-1.5,0.5l-1.2-0.2l-0.9-0.7l-0.6-1.2L268.6,274.2L268.6,274.2
		L268.6,274.2z M268.6,272.7l0.2-1.4l0.5-1l0.8-0.6l1.1-0.2l1.1,0.2l0.8,0.6l0.5,1l0.2,1.4H268.6L268.6,272.7z M280,279.2h1.8v-6.3
		l0.2-1.5l0.5-1.1l0.9-0.7l1.2-0.2l0.9,0.1l0.7,0.4l0.4,0.7l0.1,0.9h1.8l-0.2-1.7l-0.7-1.2l-1.1-0.7l-1.5-0.2l-1,0.2l-0.9,0.4
		l-0.8,0.7l-0.6,0.9v-1.8H280V279.2L280,279.2z M310.7,271.5l1.4-1.2l0.4-0.8l0.1-1l-0.3-1.5l-0.8-1.1l-1.3-0.7l-1.8-0.2h-5v14.2
		h5.3l1.9-0.3l1.4-0.8l0.9-1.3l0.3-1.8l-0.2-1.2l-0.5-1l-0.8-0.7L310.7,271.5L310.7,271.5z M308.1,270.9h-2.8v-4.2h2.9l1.1,0.1
		l0.8,0.4l0.5,0.6l0.2,0.9l-0.2,0.9l-0.5,0.7l-0.8,0.4L308.1,270.9L308.1,270.9z M308.6,277.5h-3.2v-4.9h3l1.3,0.1l0.9,0.4l0.5,0.7
		l0.2,1.1l-0.2,1.1l-0.5,0.8l-0.9,0.5L308.6,277.5L308.6,277.5z M316.9,279.2h1.8v-6.3l0.2-1.5l0.6-1.1l0.9-0.7l1.2-0.2l0.9,0.1
		l0.7,0.4l0.4,0.7l0.1,0.9h1.8l-0.2-1.7l-0.7-1.2l-1.1-0.7l-1.5-0.2l-1,0.2l-0.9,0.4l-0.8,0.7l-0.6,0.9v-1.8h-1.6V279.2L316.9,279.2
		z M335,277.8L335,277.8l0.1,0.8l0.3,0.5l1.3,0.4l1-0.2v-1.4l-0.4,0.1l-0.6-0.3l-0.1-0.8v-5.7l-0.2-1.4l-0.7-1l-1.2-0.6l-1.8-0.2
		l-1.7,0.2l-1.3,0.7l-0.8,1.1l-0.3,1.4v0.1h1.6l0.1-0.9l0.5-0.6l0.7-0.4l1-0.1l1,0.1l0.7,0.3l0.4,0.5l0.1,0.7l-0.1,0.9l-0.3,0.4
		l-0.8,0.2l-1.5,0.2l-1.8,0.4l-1.2,0.7l-0.7,1l-0.2,1.5l0.2,1.3l0.6,1l1,0.6l1.4,0.2l1.9-0.4L335,277.8L335,277.8z M334.8,275.4
		l-0.2,1.1l-0.7,0.8l-1,0.5l-1.2,0.2l-0.8-0.1l-0.5-0.3l-0.3-0.6l-0.1-0.8l0.1-0.7l0.3-0.5l1.3-0.6l1.7-0.2l1.5-0.5V275.4
		L334.8,275.4z M347.8,271.9h1.8l-0.4-1.6l-0.9-1.3l-1.4-0.8l-1.8-0.3l-2,0.4l-1.5,1.1l-0.9,1.9l-0.3,2.5l0.3,2.5l0.9,1.8l1.4,1.1
		l2,0.4l1.8-0.3l1.4-0.9l0.9-1.3l0.4-1.8h-1.7l-0.3,1.1l-0.6,0.9l-0.8,0.5l-1,0.2l-1.2-0.3l-0.9-0.8l-0.5-1.3l-0.2-1.9l0.2-1.8
		l0.6-1.3l0.9-0.8l1.2-0.3l1.1,0.2l0.8,0.5l0.5,0.8L347.8,271.9L347.8,271.9z M353.4,279.2h1.8v-3.9l1.9-1.8l3.2,5.7h2l-4-6.9l4.1-4
		h-2.3l-5,4.9v-8.6h-1.8V279.2L353.4,279.2z M367,274.2h7.2l0-0.8l-0.3-2.3l-0.9-1.8l-1.4-1.1l-1.9-0.4l-1.9,0.4l-1.4,1.1l-0.9,1.9
		l-0.3,2.5l0.3,2.5l0.9,1.8l1.4,1.1l1.8,0.4l1.6-0.3l1.3-0.7l1-1.1l0.5-1.5h-1.8l-0.4,0.8l-0.5,0.6l-1.5,0.5l-1.2-0.2l-0.9-0.7
		l-0.6-1.2L367,274.2L367,274.2L367,274.2z M367,272.7l0.2-1.4l0.6-1l0.8-0.6l1.1-0.2l1.1,0.2l0.8,0.6l0.5,1l0.2,1.4H367L367,272.7z
		 M380.1,270.1v5.5l0.1,1.8l0.6,1.2l1.1,0.7l1.9,0.2l2.1-0.1v-1.6l-1.6,0.1l-1.4-0.2l-0.8-0.5l-0.3-0.9l-0.1-1.2v-5.2h4.1v-1.5h-4.1
		v-3.2h-1.8v3.2H377v1.5H380.1L380.1,270.1z"/>
</g>
<g>
	<path d="M37.7,289.5H33v14.2h4.7l2.2-0.4l1.7-1.4l1-2.2l0.4-3l-0.3-3.1l-0.4-1.2l-0.6-1L40,290l-1.1-0.3L37.7,289.5L37.7,289.5z
		 M37.5,291.2l1.6,0.3l1.1,0.9l0.6,1.7l0.2,2.5l-0.2,2.4l-0.6,1.7l-1.1,1l-1.5,0.3h-2.7v-10.8H37.5L37.5,291.2z M45.4,303.7h1.9v-6
		h1.9l1.4,0.1l0.9,0.3l0.5,0.7l0.2,1.2l0.1,1.8l0.1,1.2l0.2,0.7h2.1v-0.4l-0.5-0.6l-0.2-1.1l-0.1-2.3l-0.3-1.7l-0.5-0.5l-0.7-0.4
		l0.8-0.5l0.6-0.7l0.4-0.9l0.1-1.1l-0.3-1.7l-0.8-1.3l-1.3-0.8l-1.8-0.3h-4.7V303.7L45.4,303.7z M49.6,291.3l1.2,0.1l0.9,0.4
		l0.5,0.7l0.2,1.1l-0.2,1.2l-0.6,0.7l-0.9,0.4l-1.3,0.1h-2.2v-4.7H49.6L49.6,291.3z M57,296.6l0.4,3.2l1.1,2.3l1.7,1.4l2.2,0.5
		l2.1-0.5l1.7-1.4l1-2.3l0.4-3.2l-0.4-3.2l-0.5-1.3l-0.6-1.1l-1.7-1.4l-1-0.4l-1.1-0.1l-2.2,0.5l-1.7,1.4l-1,2.3L57,296.6L57,296.6z
		 M59,296.6l0.2-2.5l0.7-1.8l1-1.1l1.3-0.4l1.3,0.4l1,1.1l0.7,1.8l0.2,2.4l-0.2,2.5l-0.7,1.8l-1,1.1l-1.3,0.4l-1.3-0.4l-1-1.1
		l-0.7-1.8L59,296.6L59,296.6z M73.6,302H71v1.7h7.1V302h-2.6v-10.7h2.6v-1.7H71v1.7h2.6V302L73.6,302z M85.9,303.7h1.9v-12.5h4.3
		v-1.7H81.6v1.7h4.3V303.7L85.9,303.7z M94.9,303.7h9V302h-7.1v-4.8h6.3v-1.7h-6.3v-4.2h6.9v-1.7h-8.8V303.7L94.9,303.7z"/>
</g>
<g>
	<path d="M31.4,82.1h1.3v-4.6h4.2v-1.2h-4.2v-3h5.1v-1.2h-6.5V82.1L31.4,82.1z M39.7,82.1H41v-4.2h1.4l1,0l0.6,0.2l0.3,0.5l0.1,0.8
		l0.1,1.3l0.1,0.8l0.2,0.5h1.5v-0.3L46,81.4l-0.1-0.7L45.8,79l-0.2-1.2l-0.3-0.4l-0.5-0.3l0.6-0.4l0.4-0.5l0.3-0.6L46,75l-0.2-1.2
		l-0.6-0.9l-0.9-0.5L43,72.1h-3.3V82.1L39.7,82.1z M42.6,73.4l0.9,0.1l0.6,0.3l0.4,0.5l0.1,0.8l-0.1,0.8l-0.4,0.5l-0.7,0.3l-0.9,0.1
		H41v-3.3H42.6L42.6,73.4z M48.1,78.3l0.2,1.8l0.6,1.3l1.1,0.7l1.5,0.3l1.5-0.3l1.1-0.7l0.6-1.3l0.2-1.8v-6.1h-1.3v6.2l-0.1,1.2
		l-0.4,0.9L52.4,81l-0.9,0.2L50.5,81l-0.7-0.5l-0.4-0.9l-0.1-1.2v-6.2h-1.3V78.3L48.1,78.3z M58.4,78.8h3.5v-1.1h-3.5V78.8
		L58.4,78.8z"/>
</g>
<g>
	<path d="M31.1,99.2h1.3V95h1.4l1,0l0.6,0.2l0.3,0.5l0.1,0.8l0.1,1.3l0.1,0.8l0.2,0.5h1.5v-0.3l-0.3-0.4l-0.1-0.7l-0.1-1.6L36.9,95
		l-0.3-0.4l-0.5-0.3l0.6-0.4l0.4-0.5l0.3-0.6l0.1-0.8l-0.2-1.2L36.6,90l-0.9-0.5l-1.3-0.2h-3.3V99.2L31.1,99.2z M34,90.5l0.9,0.1
		l0.6,0.3l0.4,0.5l0.1,0.8L35.9,93l-0.4,0.5l-0.7,0.3L34,93.8h-1.5v-3.3H34L34,90.5z M40,99.2h6.4V98h-5.1v-8.7H40V99.2L40,99.2z
		 M48.1,95.4l0.2,1.8l0.6,1.3l1.1,0.7l1.5,0.3l1.5-0.3l1.1-0.7l0.6-1.3l0.2-1.8v-6.1h-1.3v6.2l-0.1,1.2l-0.4,0.9l-0.7,0.5l-0.9,0.2
		l-0.9-0.2l-0.7-0.5l-0.4-0.9l-0.1-1.2v-6.2h-1.3V95.4L48.1,95.4z"/>
</g>
<g>
	<path d="M239.6,95.6h1.3V91h4.2v-1.2H241v-3h5.1v-1.2h-6.5V95.6L239.6,95.6z M248,95.6h1.3v-4.2h1.4l1,0l0.6,0.2l0.3,0.5l0.1,0.8
		l0.1,1.3l0.1,0.8l0.2,0.5h1.5v-0.3l-0.3-0.4l-0.1-0.7l-0.1-1.6l-0.2-1.2l-0.3-0.4l-0.5-0.3l0.6-0.4l0.4-0.5l0.3-0.6l0.1-0.8
		l-0.2-1.2l-0.6-0.9l-0.9-0.5l-1.3-0.2H248V95.6L248,95.6z M250.9,86.9l0.9,0.1l0.6,0.3l0.4,0.5l0.1,0.8l-0.1,0.8l-0.4,0.5l-0.7,0.3
		l-0.9,0.1h-1.5v-3.3H250.9L250.9,86.9z M256.3,91.8l0.2,1.8l0.6,1.3l1.1,0.7l1.5,0.3l1.5-0.3l1.1-0.7l0.6-1.3l0.2-1.8v-6.1h-1.3
		v6.2l-0.1,1.2l-0.4,0.9l-0.7,0.5l-0.9,0.2l-0.9-0.2l-0.7-0.5l-0.4-0.9l-0.1-1.2v-6.2h-1.3V91.8L256.3,91.8z M266.6,92.3h3.5v-1.1
		h-3.5V92.3L266.6,92.3z"/>
</g>
<g>
	<path d="M239.4,112.7h1.3v-4.2h1.4l1,0l0.6,0.2l0.3,0.5l0.1,0.8l0.1,1.3l0.1,0.8l0.2,0.5h1.5v-0.3l-0.3-0.4l-0.1-0.7l-0.1-1.6
		l-0.2-1.2l-0.3-0.4l-0.5-0.3l0.6-0.4l0.4-0.5l0.3-0.6l0.1-0.8l-0.2-1.2l-0.6-0.9L244,103l-1.3-0.2h-3.3V112.7L239.4,112.7z
		 M242.3,104l0.9,0.1l0.6,0.3l0.4,0.5l0.1,0.8l-0.1,0.8l-0.4,0.5l-0.7,0.3l-0.9,0.1h-1.5V104H242.3L242.3,104z M248.3,112.7h6.4
		v-1.2h-5.1v-8.7h-1.3V112.7L248.3,112.7z M259.7,102.8h-3.3v9.9h3.3l1.6-0.3l1.2-1l0.7-1.6l0.3-2.1l-0.2-2.2l-0.3-0.9l-0.4-0.7
		l-1.2-0.9l-0.8-0.2L259.7,102.8L259.7,102.8z M259.6,104l1.1,0.2l0.7,0.7l0.4,1.2l0.1,1.7l-0.2,1.7l-0.4,1.2l-0.8,0.7l-1.1,0.2
		h-1.9V104H259.6L259.6,104z"/>
</g>
</svg>
