<?xml version="1.0" encoding="utf-8" ?><!DOCTYPE svg PUBLIC "-//W3C//DTD SVG 1.1//EN" "http://www.w3.org/Graphics/SVG/1.1/DTD/svg11.dtd" 
[ <!ATTLIST svg 
  xmlns:dsy CDATA #FIXED "http://www.3ds.com/print"  
    dsy:text-version CDATA #IMPLIED > 

  <!ATTLIST text 
  xmlns:dsy CDATA #FIXED "http://www.3ds.com/print" 
    dsy:text-version CDATA #IMPLIED > 
]><svg xmlns="http://www.w3.org/2000/svg" xmlns:dsy="http://www.3ds.com/print" dsy:text-version="18000" width="594" height="420" viewBox="0 0 594 420" version="1.1"><g stroke="rgb(0, 0, 0)" stroke-width="0.35" stroke-linecap="butt" stroke-linejoin="miter" fill="none"><path d="M 179.347 362.293 L 179.347 357.293"/><path d="M 179.347 362.293 L 174.347 362.293"/><path d="M 160.725 357.293 L 165.036 357.293"/><path d="M 165.036 362.293 L 165.036 357.293"/><path d="M 170.036 362.293 L 165.036 362.293"/><path d="M 170.036 362.293 L 170.036 357.293"/><path d="M 170.036 357.293 L 174.347 357.293"/><path d="M 174.347 362.293 L 174.347 357.293"/><path d="M 155.725 362.293 L 155.725 357.293"/><path d="M 160.725 362.293 L 155.725 362.293"/><path d="M 160.725 362.293 L 160.725 357.293"/><path d="M 179.347 346.293 L 179.347 341.293"/><path d="M 179.347 341.293 L 174.347 341.293"/><path d="M 155.725 346.293 L 155.725 341.293"/><path d="M 160.725 341.293 L 155.725 341.293"/><path d="M 160.725 346.293 L 160.725 341.293"/><path d="M 160.725 346.293 L 165.036 346.293"/><path d="M 165.036 346.293 L 165.036 341.293"/><path d="M 170.036 341.293 L 165.036 341.293"/><path d="M 170.036 346.293 L 170.036 341.293"/><path d="M 170.036 346.293 L 174.347 346.293"/><path d="M 174.347 346.293 L 174.347 341.293"/><path d="M 148.913 357.293 L 148.913 346.293"/><path d="M 188.286 357.293 L 188.286 346.293"/><path d="M 179.347 357.293 L 188.286 357.293"/><path d="M 179.347 346.293 L 188.286 346.293"/><path d="M 148.913 346.293 L 155.725 346.293"/><path d="M 148.913 357.293 L 155.725 357.293"/><path d="M 229.473 236.289 L 257.22 176.784"/><path d="M 224.473 224.47 L 224.473 229.47"/><path d="M 224.473 215.151 L 224.473 220.151"/><path d="M 224.473 205.831 L 224.473 210.831"/><path d="M 224.473 196.512 L 224.473 201.512"/><path d="M 137.973 114.289 A 76 76 0 0 0 170.725 176.784"/><path d="M 224.473 229.47 L 219.473 229.47"/><path d="M 219.473 224.47 L 219.473 229.47"/><path d="M 219.473 224.47 L 224.473 224.47"/><path d="M 224.473 220.151 L 219.473 220.151"/><path d="M 219.473 215.151 L 219.473 220.151"/><path d="M 219.473 215.151 L 224.473 215.151"/><path d="M 224.473 210.831 L 219.473 210.831"/><path d="M 219.473 205.831 L 219.473 210.831"/><path d="M 219.473 205.831 L 224.473 205.831"/><path d="M 224.473 201.512 L 219.473 201.512"/><path d="M 219.473 196.512 L 219.473 201.512"/><path d="M 219.473 196.512 L 224.473 196.512"/><path d="M 257.22 176.784 A 76 76 0 0 0 289.973 114.289"/><path d="M 289.973 14.289 L 289.973 114.289"/><path d="M 249.973 14.289 L 289.973 14.289"/><path d="M 249.973 114.289 L 249.973 14.289"/><path d="M 177.973 114.289 A 36 36 0 1 0 249.973 114.289"/><path d="M 177.973 14.289 L 177.973 114.289"/><path d="M 137.973 14.289 L 177.973 14.289"/><path d="M 137.973 114.289 L 137.973 14.289"/><path d="M 208.473 201.512 L 203.473 201.512"/><path d="M 203.473 196.512 L 203.473 201.512"/><path d="M 203.473 196.512 L 208.473 196.512"/><path d="M 208.473 196.512 L 208.473 201.512"/><path d="M 208.473 224.47 L 208.473 229.47"/><path d="M 208.473 229.47 L 203.473 229.47"/><path d="M 203.473 224.47 L 203.473 229.47"/><path d="M 203.473 224.47 L 208.473 224.47"/><path d="M 208.473 220.151 L 203.473 220.151"/><path d="M 203.473 215.151 L 203.473 220.151"/><path d="M 203.473 215.151 L 208.473 215.151"/><path d="M 208.473 215.151 L 208.473 220.151"/><path d="M 208.473 205.831 L 208.473 210.831"/><path d="M 208.473 210.831 L 203.473 210.831"/><path d="M 203.473 205.831 L 203.473 210.831"/><path d="M 203.473 205.831 L 208.473 205.831"/><path d="M 229.473 236.289 L 198.473 236.289"/><path d="M 198.473 236.289 L 170.725 176.784"/><path d="M 109.023 312.96 L 109.023 307.96"/><path d="M 114.023 312.96 L 109.023 312.96"/><path d="M 135.479 307.96 L 151.936 307.96"/><path d="M 135.479 312.96 L 135.479 307.96"/><path d="M 135.479 312.96 L 130.479 312.96"/><path d="M 130.479 312.96 L 130.479 307.96"/><path d="M 114.023 307.96 L 130.479 307.96"/><path d="M 114.023 312.96 L 114.023 307.96"/><path d="M 242.762 312.96 L 242.762 307.96"/><path d="M 242.762 312.96 L 237.762 312.96"/><path d="M 237.762 312.96 L 237.762 307.96"/><path d="M 221.306 307.96 L 237.762 307.96"/><path d="M 221.306 312.96 L 221.306 307.96"/><path d="M 221.306 312.96 L 216.306 312.96"/><path d="M 216.306 312.96 L 216.306 307.96"/><path d="M 199.849 307.96 L 216.306 307.96"/><path d="M 199.849 312.96 L 199.849 307.96"/><path d="M 199.849 312.96 L 194.849 312.96"/><path d="M 194.849 312.96 L 194.849 307.96"/><path d="M 178.392 307.96 L 194.849 307.96"/><path d="M 178.392 312.96 L 178.392 307.96"/><path d="M 178.392 312.96 L 173.392 312.96"/><path d="M 173.392 312.96 L 173.392 307.96"/><path d="M 156.936 307.96 L 173.392 307.96"/><path d="M 156.936 312.96 L 156.936 307.96"/><path d="M 156.936 312.96 L 151.936 312.96"/><path d="M 151.936 312.96 L 151.936 307.96"/><path d="M 109.023 296.96 L 109.023 291.96"/><path d="M 114.023 291.96 L 109.023 291.96"/><path d="M 114.023 296.96 L 114.023 291.96"/><path d="M 242.762 296.96 L 242.762 291.96"/><path d="M 242.762 291.96 L 237.762 291.96"/><path d="M 237.762 296.96 L 237.762 291.96"/><path d="M 221.306 296.96 L 237.762 296.96"/><path d="M 221.306 296.96 L 221.306 291.96"/><path d="M 221.306 291.96 L 216.306 291.96"/><path d="M 216.306 296.96 L 216.306 291.96"/><path d="M 199.849 296.96 L 216.306 296.96"/><path d="M 199.849 296.96 L 199.849 291.96"/><path d="M 199.849 291.96 L 194.849 291.96"/><path d="M 194.849 296.96 L 194.849 291.96"/><path d="M 178.392 296.96 L 194.849 296.96"/><path d="M 178.392 296.96 L 178.392 291.96"/><path d="M 178.392 291.96 L 173.392 291.96"/><path d="M 173.392 296.96 L 173.392 291.96"/><path d="M 156.936 296.96 L 173.392 296.96"/><path d="M 156.936 296.96 L 156.936 291.96"/><path d="M 156.936 291.96 L 151.936 291.96"/><path d="M 151.936 296.96 L 151.936 291.96"/><path d="M 135.479 296.96 L 151.936 296.96"/><path d="M 135.479 296.96 L 135.479 291.96"/><path d="M 135.479 291.96 L 130.479 291.96"/><path d="M 130.479 296.96 L 130.479 291.96"/><path d="M 114.023 296.96 L 130.479 296.96"/><path d="M 242.762 307.96 L 261.719 307.96"/><path d="M 261.719 307.96 L 261.719 296.96"/><path d="M 242.762 296.96 L 261.719 296.96"/><path d="M 90.066 296.96 L 109.023 296.96"/><path d="M 90.066 307.96 L 90.066 296.96"/><path d="M 90.066 307.96 L 109.023 307.96"/><path d="M 330.68 205.297 L 330.68 200.297"/><path d="M 335.68 205.297 L 330.68 205.297"/><path d="M 335.68 200.297 L 335.68 205.297"/><path d="M 309.816 191.358 L 309.816 207.869"/><path d="M 269.816 247.869 A 40 40 0 0 0 309.816 207.869"/><path d="M 269.816 247.869 L 156.816 247.869"/><path d="M 116.816 207.869 A 40 40 0 0 0 156.816 247.869"/><path d="M 116.816 207.869 L 116.816 193.485"/><path d="M 116.816 193.485 L 116.816 53.4853"/><path d="M 116.816 53.4853 L 86.8156 53.4853"/><path d="M 86.8156 53.4853 L 86.8156 193.485"/><path d="M 86.8156 193.485 L 86.8156 227.869"/><path d="M 86.8156 227.869 A 50 50 0 0 0 136.816 277.869"/><path d="M 136.816 277.869 L 296.544 277.869"/><path d="M 296.544 277.869 A 60 60 0 0 0 356.544 217.869"/><path d="M 356.544 217.869 L 356.544 191.358"/><path d="M 330.68 200.297 L 335.68 200.297"/><path d="M 153.346 265.369 L 148.346 265.369"/><path d="M 148.346 265.369 L 148.346 260.369"/><path d="M 153.346 260.369 L 153.346 265.369"/><path d="M 148.346 260.369 L 153.346 260.369"/><path d="M 335.68 214.608 L 330.68 214.608"/><path d="M 330.68 214.608 L 330.68 209.608"/><path d="M 335.68 209.608 L 335.68 214.608"/><path d="M 330.68 209.608 L 335.68 209.608"/><path d="M 335.68 223.919 L 330.68 223.919"/><path d="M 330.68 223.919 L 330.68 218.919"/><path d="M 335.68 218.919 L 335.68 223.919"/><path d="M 330.68 218.919 L 335.68 218.919"/><path d="M 174.802 265.369 L 169.802 265.369"/><path d="M 169.802 265.369 L 169.802 260.369"/><path d="M 174.802 260.369 L 174.802 265.369"/><path d="M 169.802 260.369 L 174.802 260.369"/><path d="M 196.259 265.369 L 191.259 265.369"/><path d="M 191.259 265.369 L 191.259 260.369"/><path d="M 196.259 260.369 L 196.259 265.369"/><path d="M 191.259 260.369 L 196.259 260.369"/><path d="M 217.716 265.369 L 212.716 265.369"/><path d="M 212.716 265.369 L 212.716 260.369"/><path d="M 217.716 260.369 L 217.716 265.369"/><path d="M 212.716 260.369 L 217.716 260.369"/><path d="M 239.172 265.369 L 234.172 265.369"/><path d="M 234.172 265.369 L 234.172 260.369"/><path d="M 239.172 260.369 L 239.172 265.369"/><path d="M 234.172 260.369 L 239.172 260.369"/><path d="M 260.629 265.369 L 255.629 265.369"/><path d="M 255.629 265.369 L 255.629 260.369"/><path d="M 260.629 260.369 L 260.629 265.369"/><path d="M 255.629 260.369 L 260.629 260.369"/><path d="M 282.085 265.369 L 277.085 265.369"/><path d="M 277.085 265.369 L 277.085 260.369"/><path d="M 282.085 260.369 L 282.085 265.369"/><path d="M 277.085 260.369 L 282.085 260.369"/><path d="M 316.635 191.358 L 309.816 191.358"/><path d="M 316.635 186.358 L 316.635 191.358"/><path d="M 316.635 186.358 L 321.635 186.358"/><path d="M 321.635 191.358 L 321.635 186.358"/><path d="M 325.954 191.358 L 321.635 191.358"/><path d="M 325.954 186.358 L 325.954 191.358"/><path d="M 325.954 186.358 L 330.954 186.358"/><path d="M 330.954 191.358 L 330.954 186.358"/><path d="M 335.273 191.358 L 330.954 191.358"/><path d="M 335.273 186.358 L 335.273 191.358"/><path d="M 335.273 186.358 L 340.273 186.358"/><path d="M 340.273 191.358 L 340.273 186.358"/><path d="M 344.592 191.358 L 340.273 191.358"/><path d="M 344.592 186.358 L 344.592 191.358"/><path d="M 344.592 186.358 L 349.592 186.358"/><path d="M 349.592 191.358 L 349.592 186.358"/><path d="M 356.544 191.358 L 349.592 191.358"/><path d="M 281.205 331.728 L 281.205 326.728"/><path d="M 286.205 331.728 L 281.205 331.728"/><path d="M 286.205 326.728 L 286.205 331.728"/><path d="M 260.34 317.789 L 260.34 334.301"/><path d="M 220.34 374.301 A 40 40 0 0 0 260.34 334.301"/><path d="M 220.34 374.301 L 107.34 374.301"/><path d="M 67.3403 334.301 A 40 40 0 0 0 107.34 374.301"/><path d="M 67.3402 334.301 L 67.3402 319.917"/><path d="M 67.3402 319.917 L 67.3402 179.917"/><path d="M 67.3402 179.917 L 37.3402 179.917"/><path d="M 37.3402 179.917 L 37.3402 319.917"/><path d="M 37.3402 319.917 L 37.3402 354.301"/><path d="M 37.3403 354.301 A 50 50 0 0 0 87.3402 404.301"/><path d="M 87.3402 404.301 L 247.069 404.301"/><path d="M 247.069 404.301 A 60 60 0 0 0 307.069 344.301"/><path d="M 307.069 344.301 L 307.069 317.789"/><path d="M 281.205 326.728 L 286.205 326.728"/><path d="M 103.87 391.801 L 98.8704 391.801"/><path d="M 98.8704 391.801 L 98.8704 386.801"/><path d="M 103.87 386.801 L 103.87 391.801"/><path d="M 98.8704 386.801 L 103.87 386.801"/><path d="M 286.205 341.04 L 281.205 341.04"/><path d="M 281.205 341.04 L 281.205 336.04"/><path d="M 286.205 336.04 L 286.205 341.04"/><path d="M 281.205 336.04 L 286.205 336.04"/><path d="M 286.205 350.351 L 281.205 350.351"/><path d="M 281.205 350.351 L 281.205 345.351"/><path d="M 286.205 345.351 L 286.205 350.351"/><path d="M 281.205 345.351 L 286.205 345.351"/><path d="M 125.327 391.801 L 120.327 391.801"/><path d="M 120.327 391.801 L 120.327 386.801"/><path d="M 125.327 386.801 L 125.327 391.801"/><path d="M 120.327 386.801 L 125.327 386.801"/><path d="M 146.784 391.801 L 141.784 391.801"/><path d="M 141.784 391.801 L 141.784 386.801"/><path d="M 146.784 386.801 L 146.784 391.801"/><path d="M 141.784 386.801 L 146.784 386.801"/><path d="M 168.24 391.801 L 163.24 391.801"/><path d="M 163.24 391.801 L 163.24 386.801"/><path d="M 168.24 386.801 L 168.24 391.801"/><path d="M 163.24 386.801 L 168.24 386.801"/><path d="M 189.697 391.801 L 184.697 391.801"/><path d="M 184.697 391.801 L 184.697 386.801"/><path d="M 189.697 386.801 L 189.697 391.801"/><path d="M 184.697 386.801 L 189.697 386.801"/><path d="M 211.153 391.801 L 206.153 391.801"/><path d="M 206.153 391.801 L 206.153 386.801"/><path d="M 211.153 386.801 L 211.153 391.801"/><path d="M 206.153 386.801 L 211.153 386.801"/><path d="M 232.61 391.801 L 227.61 391.801"/><path d="M 227.61 391.801 L 227.61 386.801"/><path d="M 232.61 386.801 L 232.61 391.801"/><path d="M 227.61 386.801 L 232.61 386.801"/><path d="M 267.159 317.789 L 260.34 317.789"/><path d="M 267.159 312.789 L 267.159 317.789"/><path d="M 267.159 312.789 L 272.159 312.789"/><path d="M 272.159 317.789 L 272.159 312.789"/><path d="M 276.479 317.789 L 272.159 317.789"/><path d="M 276.479 312.789 L 276.479 317.789"/><path d="M 276.479 312.789 L 281.479 312.789"/><path d="M 281.479 317.789 L 281.479 312.789"/><path d="M 285.798 317.789 L 281.479 317.789"/><path d="M 285.798 312.789 L 285.798 317.789"/><path d="M 285.798 312.789 L 290.798 312.789"/><path d="M 290.798 317.789 L 290.798 312.789"/><path d="M 295.117 317.789 L 290.798 317.789"/><path d="M 295.117 312.789 L 295.117 317.789"/><path d="M 295.117 312.789 L 300.117 312.789"/><path d="M 300.117 317.789 L 300.117 312.789"/><path d="M 307.069 317.789 L 300.117 317.789"/></g></svg>