<?xml version="1.0" encoding="utf-8" ?><!DOCTYPE svg PUBLIC "-//W3C//DTD SVG 1.1//EN" "http://www.w3.org/Graphics/SVG/1.1/DTD/svg11.dtd" 
[ <!ATTLIST svg 
  xmlns:dsy CDATA #FIXED "http://www.3ds.com/print"  
    dsy:text-version CDATA #IMPLIED > 

  <!ATTLIST text 
  xmlns:dsy CDATA #FIXED "http://www.3ds.com/print" 
    dsy:text-version CDATA #IMPLIED > 
]><svg xmlns="http://www.w3.org/2000/svg" xmlns:dsy="http://www.3ds.com/print" dsy:text-version="18000" width="297" height="210" viewBox="0 0 297 210" version="1.1"><g stroke="rgb(0, 0, 0)" stroke-width="0.35" stroke-linecap="butt" stroke-linejoin="miter" fill="none"><path d="M 141.897 115.793 A 7 7 0 0 0 155.798 115.793"/><circle cx="148.848" cy="114.964" r="3.2"/><path d="M 138.806 89.8685 A 12.8057 12.5 -256.64 0 0 158.476 93.3421"/><path d="M 158.476 93.342 L 155.798 115.793"/><path d="M 138.806 89.8685 L 141.897 115.793"/><path d="M 209.734 115.042 A 7 7 0 0 0 223.635 115.042"/><circle cx="216.685" cy="114.213" r="3.2"/><path d="M 206.966 91.8338 A 12.8057 12.5 -283.359 0 0 226.944 87.2949"/><path d="M 206.967 91.8338 L 209.734 115.042"/><path d="M 226.944 87.2949 L 223.635 115.042"/></g><g stroke="rgb(0, 0, 0)" stroke-width="0.13" stroke-linecap="butt" stroke-linejoin="miter" fill="none"><path d="M 139.985 174.857 L 140.449 174.857 L 140.817 173.828 L 142.214 173.828 L 142.582 174.857 L 143.056 174.857 L 141.775 171.352 L 141.261 171.352 L 139.985 174.857 L 139.985 174.857 z M 140.978 173.399 L 141.518 171.856 L 142.058 173.399 L 140.978 173.399 L 140.978 173.399 z M 143.944 173.702 L 145.164 173.702 L 145.164 173.303 L 143.944 173.303 L 143.944 173.702 L 143.944 173.702 z M 146.057 174.857 L 146.521 174.857 L 146.889 173.828 L 148.286 173.828 L 148.654 174.857 L 149.128 174.857 L 147.847 171.352 L 147.333 171.352 L 146.057 174.857 L 146.057 174.857 z M 147.05 173.399 L 147.59 171.856 L 148.13 173.399 L 147.05 173.399 L 147.05 173.399 z M 149.749 174.857 L 150.192 174.857 L 150.192 173.308 L 150.238 172.935 L 150.374 172.668 L 150.596 172.506 L 150.893 172.451 L 151.115 172.486 L 151.282 172.587 L 151.383 172.759 L 151.418 172.991 L 151.867 172.991 L 151.806 172.582 L 151.64 172.29 L 151.362 172.113 L 150.984 172.053 L 150.727 172.093 L 150.505 172.194 L 150.308 172.365 L 150.152 172.597 L 150.152 172.148 L 149.749 172.148 L 149.749 174.857 L 149.749 174.857 z M 152.442 174.857 L 152.85 174.857 L 152.85 173.046 L 152.875 172.774 L 152.951 172.577 L 153.067 172.461 L 153.218 172.416 L 153.339 172.456 L 153.42 172.557 L 153.46 172.728 L 153.476 172.955 L 153.476 174.857 L 153.859 174.857 L 153.859 173.046 L 153.884 172.779 L 153.96 172.582 L 154.081 172.461 L 154.232 172.416 L 154.353 172.456 L 154.434 172.557 L 154.484 172.955 L 154.484 174.857 L 154.893 174.857 L 154.893 172.986 L 154.867 172.597 L 154.787 172.3 L 154.625 172.118 L 154.363 172.053 L 154.055 172.153 L 153.818 172.446 L 153.632 172.159 L 153.319 172.053 L 153.032 172.153 L 152.835 172.436 L 152.835 172.148 L 152.442 172.148 L 152.442 174.857 L 152.442 174.857 z M 158.7 174.857 L 159.169 174.857 L 159.169 173.248 L 160.642 173.248 L 160.642 172.829 L 159.169 172.829 L 159.169 171.78 L 160.98 171.78 L 160.98 171.357 L 158.7 171.357 L 158.7 174.857 L 158.7 174.857 z M 161.746 174.857 L 163.996 174.857 L 163.996 174.433 L 162.21 174.433 L 162.21 171.357 L 161.746 171.357 L 161.746 174.857 L 161.746 174.857 z M 168.232 173.702 L 169.452 173.702 L 169.452 173.303 L 168.232 173.303 L 168.232 173.702 L 168.232 173.702 z M 173.88 174.857 L 174.349 174.857 L 174.349 173.248 L 175.822 173.248 L 175.822 172.829 L 174.349 172.829 L 174.349 171.78 L 176.16 171.78 L 176.16 171.357 L 173.88 171.357 L 173.88 174.857 L 173.88 174.857 z M 177.073 174.857 L 177.517 174.857 L 177.517 173.308 L 177.562 172.935 L 177.698 172.668 L 177.92 172.506 L 178.218 172.451 L 178.44 172.486 L 178.606 172.587 L 178.707 172.759 L 178.742 172.991 L 179.191 172.991 L 179.13 172.582 L 178.964 172.29 L 178.687 172.113 L 178.308 172.053 L 178.051 172.093 L 177.829 172.194 L 177.633 172.365 L 177.476 172.597 L 177.476 172.148 L 177.073 172.148 L 177.073 174.857 L 177.073 174.857 z M 179.811 173.505 L 179.892 174.12 L 180.124 174.574 L 180.492 174.857 L 180.986 174.952 L 181.476 174.857 L 181.844 174.579 L 182.076 174.125 L 182.161 173.505 L 182.076 172.89 L 181.844 172.431 L 181.476 172.153 L 180.986 172.053 L 180.492 172.153 L 180.124 172.436 L 179.892 172.89 L 179.811 173.505 L 179.811 173.505 z M 180.265 173.5 L 180.311 173.046 L 180.452 172.718 L 180.679 172.517 L 180.986 172.446 L 181.289 172.517 L 181.516 172.713 L 181.657 173.046 L 181.708 173.5 L 181.657 173.959 L 181.516 174.292 L 181.289 174.494 L 180.986 174.559 L 180.679 174.494 L 180.452 174.292 L 180.311 173.959 L 180.265 173.5 L 180.265 173.5 z M 182.978 174.857 L 183.422 174.857 L 183.422 173.293 L 183.468 172.935 L 183.614 172.673 L 183.841 172.512 L 184.143 172.451 L 184.385 172.501 L 184.537 172.638 L 184.612 172.865 L 184.638 173.167 L 184.638 174.857 L 185.081 174.857 L 185.081 173.076 L 185.061 172.718 L 184.971 172.421 L 184.673 172.148 L 184.209 172.053 L 183.952 172.088 L 183.735 172.184 L 183.548 172.345 L 183.402 172.562 L 183.402 172.148 L 182.978 172.148 L 182.978 174.857 L 182.978 174.857 z M 186.61 172.617 L 186.61 173.974 L 186.64 174.413 L 186.781 174.715 L 187.063 174.892 L 187.543 174.952 L 188.067 174.927 L 188.067 174.544 L 187.684 174.574 L 187.336 174.534 L 187.149 174.408 L 187.068 174.196 L 187.053 173.898 L 187.053 172.617 L 188.067 172.617 L 188.067 172.239 L 187.053 172.239 L 187.053 171.447 L 186.61 171.447 L 186.61 172.239 L 185.843 172.239 L 185.843 172.617 L 186.61 172.617 L 186.61 172.617 z M 191.925 173.525 L 191.996 174.156 L 192.218 174.604 L 192.591 174.862 L 193.13 174.952 L 193.665 174.862 L 194.038 174.604 L 194.26 174.161 L 194.336 173.525 L 194.336 171.357 L 193.867 171.357 L 193.867 173.55 L 193.821 173.979 L 193.685 174.287 L 193.453 174.468 L 193.13 174.529 L 192.798 174.468 L 192.566 174.287 L 192.429 173.984 L 192.389 173.55 L 192.389 171.357 L 191.925 171.357 L 191.925 173.525 L 191.925 173.525 z M 195.541 172.567 L 195.541 172.148 L 195.097 172.148 L 195.097 175.906 L 195.541 175.906 L 195.541 174.443 L 195.697 174.68 L 195.874 174.836 L 196.318 174.952 L 196.741 174.857 L 197.074 174.569 L 197.291 174.115 L 197.372 173.5 L 197.291 172.89 L 197.074 172.436 L 196.741 172.153 L 196.318 172.053 L 196.076 172.083 L 195.869 172.179 L 195.692 172.34 L 195.541 172.567 L 195.541 172.567 z M 196.242 174.554 L 195.945 174.488 L 195.728 174.287 L 195.592 173.959 L 195.546 173.5 L 195.592 173.046 L 195.728 172.718 L 195.945 172.522 L 196.242 172.451 L 196.514 172.522 L 196.731 172.723 L 196.867 173.051 L 196.918 173.5 L 196.867 173.954 L 196.731 174.287 L 196.514 174.488 L 196.242 174.554 L 196.242 174.554 z M 198.577 172.567 L 198.577 172.148 L 198.133 172.148 L 198.133 175.906 L 198.577 175.906 L 198.577 174.443 L 198.733 174.68 L 198.91 174.836 L 199.354 174.952 L 199.777 174.857 L 200.11 174.569 L 200.327 174.115 L 200.408 173.5 L 200.327 172.89 L 200.11 172.436 L 199.777 172.153 L 199.354 172.053 L 199.112 172.083 L 198.905 172.179 L 198.728 172.34 L 198.577 172.567 L 198.577 172.567 z M 199.278 174.554 L 198.981 174.488 L 198.764 174.287 L 198.628 173.959 L 198.582 173.5 L 198.628 173.046 L 198.764 172.718 L 198.981 172.522 L 199.278 172.451 L 199.55 172.522 L 199.767 172.723 L 199.904 173.051 L 199.954 173.5 L 199.904 173.954 L 199.767 174.287 L 199.55 174.488 L 199.278 174.554 L 199.278 174.554 z M 201.583 173.631 L 203.358 173.631 L 203.363 173.424 L 203.282 172.844 L 203.061 172.411 L 202.708 172.148 L 202.239 172.053 L 201.78 172.153 L 201.427 172.436 L 201.2 172.895 L 201.119 173.5 L 201.195 174.12 L 201.422 174.574 L 201.77 174.857 L 202.223 174.952 L 202.617 174.887 L 202.94 174.715 L 203.177 174.443 L 203.313 174.08 L 202.874 174.08 L 202.783 174.282 L 202.652 174.433 L 202.279 174.554 L 201.991 174.499 L 201.775 174.322 L 201.633 174.035 L 201.583 173.646 L 201.583 173.631 L 201.583 173.631 z M 201.583 173.258 L 201.638 172.91 L 201.775 172.653 L 201.981 172.496 L 202.254 172.441 L 202.521 172.496 L 202.728 172.653 L 202.854 172.91 L 202.899 173.258 L 201.583 173.258 L 201.583 173.258 z M 204.397 174.857 L 204.841 174.857 L 204.841 173.308 L 204.886 172.935 L 205.022 172.668 L 205.244 172.506 L 205.542 172.451 L 205.764 172.486 L 205.93 172.587 L 206.031 172.759 L 206.066 172.991 L 206.515 172.991 L 206.455 172.582 L 206.288 172.29 L 206.011 172.113 L 205.633 172.053 L 205.375 172.093 L 205.154 172.194 L 204.957 172.365 L 204.8 172.597 L 204.8 172.148 L 204.397 172.148 L 204.397 174.857 L 204.397 174.857 z M 210.721 174.438 L 211.049 174.826 L 211.498 174.952 L 211.922 174.857 L 212.259 174.569 L 212.471 174.11 L 212.552 173.5 L 212.471 172.89 L 212.254 172.436 L 211.922 172.153 L 211.498 172.053 L 211.054 172.184 L 210.873 172.345 L 210.721 172.562 L 210.721 171.236 L 210.277 171.236 L 210.277 174.857 L 210.721 174.857 L 210.721 174.438 L 210.721 174.438 z M 212.098 173.5 L 212.048 173.954 L 211.911 174.287 L 211.695 174.488 L 211.422 174.554 L 211.125 174.488 L 210.908 174.287 L 210.772 173.959 L 210.726 173.5 L 210.772 173.046 L 210.908 172.718 L 211.125 172.522 L 211.422 172.451 L 211.695 172.522 L 211.911 172.723 L 212.048 173.051 L 212.098 173.5 L 212.098 173.5 z M 213.505 174.857 L 213.949 174.857 L 213.949 173.308 L 213.994 172.935 L 214.13 172.668 L 214.352 172.506 L 214.65 172.451 L 214.872 172.486 L 215.038 172.587 L 215.139 172.759 L 215.174 172.991 L 215.623 172.991 L 215.563 172.582 L 215.396 172.29 L 215.119 172.113 L 214.741 172.053 L 214.484 172.093 L 214.262 172.194 L 214.065 172.365 L 213.909 172.597 L 213.909 172.148 L 213.505 172.148 L 213.505 174.857 L 213.505 174.857 z M 217.984 174.504 L 217.984 174.519 L 218.009 174.69 L 218.084 174.811 L 218.402 174.907 L 218.649 174.867 L 218.649 174.524 L 218.543 174.539 L 218.402 174.473 L 218.377 174.272 L 218.377 172.87 L 218.316 172.512 L 218.14 172.259 L 217.832 172.108 L 217.398 172.053 L 216.975 172.113 L 216.662 172.285 L 216.465 172.552 L 216.4 172.905 L 216.4 172.935 L 216.798 172.935 L 216.834 172.723 L 216.945 172.572 L 217.126 172.481 L 217.383 172.446 L 217.63 172.471 L 217.807 172.547 L 217.913 172.678 L 217.948 172.86 L 217.928 173.071 L 217.847 173.177 L 217.646 173.228 L 217.267 173.268 L 216.834 173.359 L 216.526 173.52 L 216.344 173.772 L 216.289 174.146 L 216.339 174.478 L 216.496 174.726 L 216.748 174.882 L 217.096 174.937 L 217.565 174.831 L 217.984 174.504 L 217.984 174.504 z M 217.933 173.909 L 217.873 174.171 L 217.711 174.372 L 217.469 174.504 L 217.172 174.549 L 216.98 174.524 L 216.844 174.443 L 216.758 174.302 L 216.733 174.105 L 216.753 173.929 L 216.834 173.803 L 217.156 173.661 L 217.565 173.601 L 217.933 173.48 L 217.933 173.909 L 217.933 173.909 z M 221.136 173.046 L 221.574 173.046 L 221.484 172.643 L 221.267 172.325 L 220.929 172.128 L 220.49 172.053 L 220.006 172.153 L 219.638 172.436 L 219.406 172.895 L 219.325 173.51 L 219.401 174.12 L 219.628 174.574 L 219.986 174.857 L 220.475 174.952 L 220.909 174.877 L 221.246 174.665 L 221.478 174.332 L 221.579 173.888 L 221.156 173.888 L 221.08 174.171 L 220.939 174.383 L 220.737 174.514 L 220.49 174.554 L 220.182 174.488 L 219.96 174.287 L 219.824 173.959 L 219.779 173.495 L 219.824 173.041 L 219.965 172.713 L 220.192 172.512 L 220.49 172.441 L 220.752 172.486 L 220.949 172.602 L 221.08 172.794 L 221.136 173.046 L 221.136 173.046 z M 222.507 174.857 L 222.951 174.857 L 222.951 173.903 L 223.415 173.455 L 224.212 174.857 L 224.711 174.857 L 223.718 173.147 L 224.736 172.148 L 224.177 172.148 L 222.951 173.369 L 222.951 171.236 L 222.507 171.236 L 222.507 174.857 L 222.507 174.857 z M 225.871 173.631 L 227.646 173.631 L 227.651 173.424 L 227.571 172.844 L 227.349 172.411 L 226.996 172.148 L 226.527 172.053 L 226.068 172.153 L 225.715 172.436 L 225.488 172.895 L 225.407 173.5 L 225.483 174.12 L 225.71 174.574 L 226.058 174.857 L 226.512 174.952 L 226.905 174.887 L 227.228 174.715 L 227.465 174.443 L 227.601 174.08 L 227.162 174.08 L 227.071 174.282 L 226.94 174.433 L 226.567 174.554 L 226.28 174.499 L 226.063 174.322 L 225.922 174.035 L 225.871 173.646 L 225.871 173.631 L 225.871 173.631 z M 225.871 173.258 L 225.927 172.91 L 226.063 172.653 L 226.27 172.496 L 226.542 172.441 L 226.809 172.496 L 227.016 172.653 L 227.142 172.91 L 227.187 173.258 L 225.871 173.258 L 225.871 173.258 z M 229.114 172.617 L 229.114 173.974 L 229.144 174.413 L 229.285 174.715 L 229.568 174.892 L 230.047 174.952 L 230.571 174.927 L 230.571 174.544 L 230.188 174.574 L 229.84 174.534 L 229.654 174.408 L 229.573 174.196 L 229.558 173.898 L 229.558 172.617 L 230.571 172.617 L 230.571 172.239 L 229.558 172.239 L 229.558 171.447 L 229.114 171.447 L 229.114 172.239 L 228.347 172.239 L 228.347 172.617 L 229.114 172.617 L 229.114 172.617 z" stroke="none" fill-rule="evenodd" fill="rgb(0, 0, 0)"/></g><g stroke="rgb(0, 0, 0)" stroke-width="0.13" stroke-linecap="butt" stroke-linejoin="miter" fill="none"><path d="M 141.513 177.403 L 140.348 177.403 L 140.348 180.903 L 141.513 180.903 L 142.063 180.793 L 142.471 180.455 L 142.723 179.905 L 142.814 179.153 L 142.733 178.387 L 142.633 178.084 L 142.491 177.842 L 142.083 177.514 L 141.816 177.434 L 141.513 177.403 L 141.513 177.403 z M 141.478 177.822 L 141.861 177.898 L 142.123 178.13 L 142.28 178.543 L 142.33 179.153 L 142.274 179.744 L 142.118 180.157 L 141.851 180.404 L 141.478 180.485 L 140.817 180.485 L 140.817 177.822 L 141.478 177.822 L 141.478 177.822 z M 143.429 180.903 L 143.898 180.903 L 143.898 179.426 L 144.378 179.426 L 144.731 179.441 L 144.952 179.512 L 145.073 179.678 L 145.124 179.976 L 145.149 180.429 L 145.179 180.727 L 145.24 180.903 L 145.769 180.903 L 145.769 180.808 L 145.653 180.666 L 145.613 180.404 L 145.578 179.839 L 145.492 179.421 L 145.376 179.29 L 145.195 179.194 L 145.396 179.068 L 145.537 178.891 L 145.628 178.669 L 145.659 178.402 L 145.588 177.978 L 145.386 177.661 L 145.053 177.469 L 144.599 177.403 L 143.429 177.403 L 143.429 180.903 L 143.429 180.903 z M 144.468 177.832 L 144.776 177.862 L 144.993 177.958 L 145.129 178.135 L 145.174 178.412 L 145.124 178.705 L 144.988 178.881 L 144.756 178.972 L 144.438 178.997 L 143.898 178.997 L 143.898 177.832 L 144.468 177.832 L 144.468 177.832 z M 146.294 179.153 L 146.385 179.94 L 146.647 180.52 L 147.055 180.878 L 147.59 180.999 L 148.12 180.878 L 148.533 180.52 L 148.79 179.94 L 148.886 179.153 L 148.79 178.372 L 148.679 178.054 L 148.533 177.792 L 148.12 177.434 L 147.867 177.343 L 147.59 177.308 L 147.05 177.434 L 146.642 177.787 L 146.385 178.367 L 146.294 179.153 L 146.294 179.153 z M 146.778 179.153 L 146.834 178.543 L 147 178.094 L 147.257 177.822 L 147.59 177.726 L 147.918 177.822 L 148.175 178.099 L 148.342 178.548 L 148.402 179.153 L 148.342 179.764 L 148.175 180.213 L 147.918 180.485 L 147.59 180.576 L 147.257 180.485 L 147 180.213 L 146.834 179.769 L 146.778 179.153 L 146.778 179.153 z M 150.394 180.48 L 149.749 180.48 L 149.749 180.903 L 151.504 180.903 L 151.504 180.48 L 150.858 180.48 L 150.858 177.827 L 151.504 177.827 L 151.504 177.403 L 149.749 177.403 L 149.749 177.827 L 150.394 177.827 L 150.394 180.48 L 150.394 180.48 z M 153.43 180.903 L 153.894 180.903 L 153.894 177.827 L 154.953 177.827 L 154.953 177.403 L 152.366 177.403 L 152.366 177.827 L 153.43 177.827 L 153.43 180.903 L 153.43 180.903 z M 155.639 180.903 L 157.858 180.903 L 157.858 180.48 L 156.103 180.48 L 156.103 179.295 L 157.666 179.295 L 157.666 178.876 L 156.103 178.876 L 156.103 177.827 L 157.818 177.827 L 157.818 177.403 L 155.639 177.403 L 155.639 180.903 L 155.639 180.903 z" stroke="none" fill-rule="evenodd" fill="rgb(0, 0, 0)"/></g><g stroke="rgb(0, 0, 0)" stroke-width="0.13" stroke-linecap="butt" stroke-linejoin="miter" fill="none"><path d="M 143.266 103.547 L 143.735 103.547 L 143.735 101.938 L 145.207 101.938 L 145.207 101.52 L 143.735 101.52 L 143.735 100.471 L 145.545 100.471 L 145.545 100.047 L 143.266 100.047 L 143.266 103.547 L 143.266 103.547 z M 146.211 103.547 L 146.68 103.547 L 146.68 102.069 L 147.159 102.069 L 147.512 102.084 L 147.734 102.155 L 147.855 102.321 L 147.905 102.619 L 147.931 103.073 L 147.961 103.37 L 148.021 103.547 L 148.551 103.547 L 148.551 103.451 L 148.435 103.31 L 148.395 103.048 L 148.359 102.483 L 148.274 102.064 L 148.158 101.933 L 147.976 101.837 L 148.178 101.711 L 148.319 101.535 L 148.41 101.313 L 148.44 101.045 L 148.369 100.622 L 148.168 100.304 L 147.835 100.112 L 147.381 100.047 L 146.211 100.047 L 146.211 103.547 L 146.211 103.547 z M 147.25 100.476 L 147.557 100.506 L 147.774 100.602 L 147.91 100.778 L 147.956 101.056 L 147.905 101.348 L 147.769 101.525 L 147.537 101.615 L 147.22 101.641 L 146.68 101.641 L 146.68 100.476 L 147.25 100.476 L 147.25 100.476 z M 149.348 103.547 L 151.597 103.547 L 151.597 103.123 L 149.812 103.123 L 149.812 100.047 L 149.348 100.047 L 149.348 103.547 L 149.348 103.547 z M 152.797 102.392 L 154.018 102.392 L 154.018 101.994 L 152.797 101.994 L 152.797 102.392 L 152.797 102.392 z" stroke="none" fill-rule="evenodd" fill="rgb(0, 0, 0)"/></g><g stroke="rgb(0, 0, 0)" stroke-width="0.13" stroke-linecap="butt" stroke-linejoin="miter" fill="none"><path d="M 143.266 109.594 L 143.735 109.594 L 143.735 107.985 L 145.207 107.985 L 145.207 107.566 L 143.735 107.566 L 143.735 106.517 L 145.545 106.517 L 145.545 106.094 L 143.266 106.094 L 143.266 109.594 L 143.266 109.594 z M 146.13 108.262 L 146.201 108.893 L 146.423 109.342 L 146.796 109.599 L 147.336 109.69 L 147.87 109.599 L 148.243 109.342 L 148.465 108.898 L 148.541 108.262 L 148.541 106.094 L 148.072 106.094 L 148.072 108.288 L 148.026 108.716 L 147.89 109.024 L 147.658 109.205 L 147.336 109.266 L 147.003 109.205 L 146.771 109.024 L 146.635 108.721 L 146.594 108.288 L 146.594 106.094 L 146.13 106.094 L 146.13 108.262 L 146.13 108.262 z M 149.166 108.262 L 149.237 108.893 L 149.459 109.342 L 149.832 109.599 L 150.372 109.69 L 150.906 109.599 L 151.279 109.342 L 151.501 108.898 L 151.577 108.262 L 151.577 106.094 L 151.108 106.094 L 151.108 108.288 L 151.062 108.716 L 150.926 109.024 L 150.694 109.205 L 150.372 109.266 L 150.039 109.205 L 149.807 109.024 L 149.671 108.721 L 149.63 108.288 L 149.63 106.094 L 149.166 106.094 L 149.166 108.262 L 149.166 108.262 z" stroke="none" fill-rule="evenodd" fill="rgb(0, 0, 0)"/></g><g stroke="rgb(0, 0, 0)" stroke-width="0.13" stroke-linecap="butt" stroke-linejoin="miter" fill="none"><path d="M 212.553 102.347 L 213.022 102.347 L 213.022 100.739 L 214.494 100.739 L 214.494 100.32 L 213.022 100.32 L 213.022 99.2711 L 214.832 99.2711 L 214.832 98.8474 L 212.553 98.8474 L 212.553 102.347 L 212.553 102.347 z M 215.498 102.347 L 215.967 102.347 L 215.967 100.87 L 216.446 100.87 L 216.799 100.885 L 217.021 100.956 L 217.142 101.122 L 217.192 101.419 L 217.218 101.873 L 217.248 102.171 L 217.308 102.347 L 217.838 102.347 L 217.838 102.252 L 217.722 102.11 L 217.682 101.848 L 217.646 101.283 L 217.561 100.865 L 217.445 100.734 L 217.263 100.638 L 217.465 100.512 L 217.606 100.335 L 217.697 100.113 L 217.727 99.846 L 217.656 99.4224 L 217.455 99.1046 L 217.122 98.913 L 216.668 98.8474 L 215.498 98.8474 L 215.498 102.347 L 215.498 102.347 z M 216.537 99.2761 L 216.844 99.3064 L 217.061 99.4022 L 217.197 99.5787 L 217.243 99.8561 L 217.192 100.149 L 217.056 100.325 L 216.824 100.416 L 216.507 100.441 L 215.967 100.441 L 215.967 99.2761 L 216.537 99.2761 L 216.537 99.2761 z M 218.635 102.347 L 220.884 102.347 L 220.884 101.924 L 219.099 101.924 L 219.099 98.8474 L 218.635 98.8474 L 218.635 102.347 L 218.635 102.347 z M 222.084 101.193 L 223.305 101.193 L 223.305 100.794 L 222.084 100.794 L 222.084 101.193 L 222.084 101.193 z" stroke="none" fill-rule="evenodd" fill="rgb(0, 0, 0)"/></g><g stroke="rgb(0, 0, 0)" stroke-width="0.13" stroke-linecap="butt" stroke-linejoin="miter" fill="none"><path d="M 212.553 108.394 L 213.022 108.394 L 213.022 106.785 L 214.494 106.785 L 214.494 106.367 L 213.022 106.367 L 213.022 105.318 L 214.832 105.318 L 214.832 104.894 L 212.553 104.894 L 212.553 108.394 L 212.553 108.394 z M 215.417 107.063 L 215.488 107.693 L 215.71 108.142 L 216.083 108.399 L 216.622 108.49 L 217.157 108.399 L 217.53 108.142 L 217.752 107.698 L 217.828 107.063 L 217.828 104.894 L 217.359 104.894 L 217.359 107.088 L 217.313 107.517 L 217.177 107.824 L 216.945 108.006 L 216.622 108.066 L 216.29 108.006 L 216.058 107.824 L 215.921 107.522 L 215.881 107.088 L 215.881 104.894 L 215.417 104.894 L 215.417 107.063 L 215.417 107.063 z M 219.653 104.894 L 218.488 104.894 L 218.488 108.394 L 219.653 108.394 L 220.203 108.283 L 220.612 107.945 L 220.864 107.396 L 220.955 106.644 L 220.874 105.878 L 220.773 105.575 L 220.632 105.333 L 220.223 105.005 L 219.956 104.925 L 219.653 104.894 L 219.653 104.894 z M 219.618 105.313 L 220.001 105.389 L 220.264 105.62 L 220.42 106.034 L 220.47 106.644 L 220.415 107.234 L 220.259 107.648 L 219.991 107.895 L 219.618 107.976 L 218.958 107.976 L 218.958 105.313 L 219.618 105.313 L 219.618 105.313 z" stroke="none" fill-rule="evenodd" fill="rgb(0, 0, 0)"/></g></svg>