<?xml version="1.0" encoding="utf-8" ?><!DOCTYPE svg PUBLIC "-//W3C//DTD SVG 1.1//EN" "http://www.w3.org/Graphics/SVG/1.1/DTD/svg11.dtd" 
[ <!ATTLIST svg 
  xmlns:dsy CDATA #FIXED "http://www.3ds.com/print"  
    dsy:text-version CDATA #IMPLIED > 

  <!ATTLIST text 
  xmlns:dsy CDATA #FIXED "http://www.3ds.com/print" 
    dsy:text-version CDATA #IMPLIED > 
]><svg xmlns="http://www.w3.org/2000/svg" xmlns:dsy="http://www.3ds.com/print" dsy:text-version="18000" width="297" height="210" viewBox="0 0 297 210" version="1.1"><g stroke="rgb(0, 0, 0)" stroke-width="0.35" stroke-linecap="butt" stroke-linejoin="miter" fill="none"><path d="M 136.976 79.5118 A 7 7 0 0 0 123.112 79.5118"/><circle cx="130.044" cy="80.486" r="3.2"/><path d="M 139.655 98.5716 L 136.976 79.5118"/><path d="M 139.655 98.5716 L 123.66 104.558"/><path d="M 119.382 106.051 L 123.66 104.558"/><path d="M 119.382 106.051 L 123.112 79.5118"/><path d="M 205.732 81.0016 A 7 7 0 0 0 191.868 81.0016"/><circle cx="198.8" cy="81.9758" r="3.2"/><path d="M 188.947 101.786 L 191.868 81.0016"/><path d="M 188.947 101.786 L 204.611 107.647"/><path d="M 209.729 109.439 L 204.611 107.647"/><path d="M 209.729 109.439 L 205.732 81.0016"/></g><g stroke="rgb(0, 0, 0)" stroke-width="0.13" stroke-linecap="butt" stroke-linejoin="miter" fill="none"><path d="M 149.978 166.938 L 150.641 166.938 L 151.167 165.468 L 153.163 165.468 L 153.689 166.938 L 154.366 166.938 L 152.536 161.931 L 151.801 161.931 L 149.978 166.938 L 149.978 166.938 z M 151.398 164.856 L 152.169 162.651 L 152.939 164.856 L 151.398 164.856 L 151.398 164.856 z M 155.634 165.288 L 157.378 165.288 L 157.378 164.719 L 155.634 164.719 L 155.634 165.288 L 155.634 165.288 z M 158.653 166.938 L 159.316 166.938 L 159.841 165.468 L 161.837 165.468 L 162.363 166.938 L 163.04 166.938 L 161.21 161.931 L 160.475 161.931 L 158.653 166.938 L 158.653 166.938 z M 160.072 164.856 L 160.843 162.651 L 161.614 164.856 L 160.072 164.856 L 160.072 164.856 z M 163.927 166.938 L 164.561 166.938 L 164.561 164.726 L 164.625 164.193 L 164.82 163.811 L 165.137 163.581 L 165.562 163.501 L 165.879 163.552 L 166.117 163.696 L 166.261 163.941 L 166.311 164.272 L 166.952 164.272 L 166.866 163.689 L 166.628 163.271 L 166.232 163.019 L 165.692 162.932 L 165.324 162.99 L 165.007 163.134 L 164.726 163.379 L 164.503 163.71 L 164.503 163.069 L 163.927 163.069 L 163.927 166.938 L 163.927 166.938 z M 167.774 166.938 L 168.357 166.938 L 168.357 164.352 L 168.393 163.963 L 168.501 163.682 L 168.667 163.516 L 168.883 163.451 L 169.056 163.509 L 169.171 163.653 L 169.229 163.898 L 169.251 164.222 L 169.251 166.938 L 169.798 166.938 L 169.798 164.352 L 169.834 163.97 L 169.942 163.689 L 170.115 163.516 L 170.331 163.451 L 170.504 163.509 L 170.62 163.653 L 170.692 164.222 L 170.692 166.938 L 171.275 166.938 L 171.275 164.265 L 171.239 163.71 L 171.124 163.285 L 170.893 163.026 L 170.519 162.932 L 170.079 163.076 L 169.741 163.494 L 169.474 163.084 L 169.027 162.932 L 168.617 163.076 L 168.336 163.48 L 168.336 163.069 L 167.774 163.069 L 167.774 166.938 L 167.774 166.938 z M 176.715 166.938 L 177.385 166.938 L 177.385 164.64 L 179.488 164.64 L 179.488 164.042 L 177.385 164.042 L 177.385 162.543 L 179.971 162.543 L 179.971 161.938 L 176.715 161.938 L 176.715 166.938 L 176.715 166.938 z M 181.066 166.938 L 184.28 166.938 L 184.28 166.333 L 181.729 166.333 L 181.729 161.938 L 181.066 161.938 L 181.066 166.938 L 181.066 166.938 z M 185.994 165.288 L 187.738 165.288 L 187.738 164.719 L 185.994 164.719 L 185.994 165.288 L 185.994 165.288 z M 189.726 166.938 L 190.396 166.938 L 190.396 164.64 L 192.5 164.64 L 192.5 164.042 L 190.396 164.042 L 190.396 162.543 L 192.983 162.543 L 192.983 161.938 L 189.726 161.938 L 189.726 166.938 L 189.726 166.938 z M 194.078 166.938 L 197.291 166.938 L 197.291 166.333 L 194.741 166.333 L 194.741 161.938 L 194.078 161.938 L 194.078 166.938 L 194.078 166.938 z M 203.321 166.34 L 203.79 166.895 L 204.431 167.075 L 205.036 166.938 L 205.519 166.527 L 205.821 165.872 L 205.937 165 L 205.821 164.128 L 205.512 163.48 L 205.036 163.076 L 204.431 162.932 L 203.797 163.12 L 203.537 163.35 L 203.321 163.66 L 203.321 161.765 L 202.687 161.765 L 202.687 166.938 L 203.321 166.938 L 203.321 166.34 L 203.321 166.34 z M 205.288 165 L 205.216 165.648 L 205.022 166.124 L 204.712 166.412 L 204.323 166.506 L 203.898 166.412 L 203.588 166.124 L 203.393 165.656 L 203.329 165 L 203.393 164.352 L 203.588 163.883 L 203.898 163.602 L 204.323 163.501 L 204.712 163.602 L 205.022 163.89 L 205.216 164.359 L 205.288 165 L 205.288 165 z M 207.298 166.938 L 207.932 166.938 L 207.932 164.726 L 207.997 164.193 L 208.192 163.811 L 208.509 163.581 L 208.934 163.501 L 209.251 163.552 L 209.488 163.696 L 209.633 163.941 L 209.683 164.272 L 210.324 164.272 L 210.238 163.689 L 210 163.271 L 209.604 163.019 L 209.063 162.932 L 208.696 162.99 L 208.379 163.134 L 208.098 163.379 L 207.875 163.71 L 207.875 163.069 L 207.298 163.069 L 207.298 166.938 L 207.298 166.938 z M 213.696 166.434 L 213.696 166.455 L 213.732 166.7 L 213.84 166.873 L 214.294 167.01 L 214.647 166.952 L 214.647 166.463 L 214.496 166.484 L 214.294 166.39 L 214.258 166.102 L 214.258 164.099 L 214.171 163.588 L 213.919 163.228 L 213.48 163.012 L 212.86 162.932 L 212.255 163.019 L 211.808 163.264 L 211.527 163.646 L 211.434 164.15 L 211.434 164.193 L 212.003 164.193 L 212.053 163.89 L 212.212 163.674 L 212.471 163.545 L 212.839 163.494 L 213.192 163.53 L 213.444 163.638 L 213.595 163.826 L 213.646 164.085 L 213.617 164.388 L 213.501 164.539 L 213.213 164.611 L 212.673 164.669 L 212.053 164.798 L 211.614 165.029 L 211.354 165.389 L 211.275 165.922 L 211.347 166.398 L 211.571 166.751 L 211.931 166.974 L 212.428 167.053 L 213.098 166.902 L 213.696 166.434 L 213.696 166.434 z M 213.624 165.584 L 213.537 165.958 L 213.307 166.246 L 212.961 166.434 L 212.536 166.499 L 212.262 166.463 L 212.068 166.347 L 211.945 166.146 L 211.909 165.865 L 211.938 165.612 L 212.053 165.432 L 212.514 165.231 L 213.098 165.144 L 213.624 164.971 L 213.624 165.584 L 213.624 165.584 z M 218.199 164.352 L 218.826 164.352 L 218.696 163.775 L 218.386 163.321 L 217.903 163.04 L 217.277 162.932 L 216.585 163.076 L 216.059 163.48 L 215.728 164.135 L 215.612 165.014 L 215.72 165.886 L 216.045 166.535 L 216.556 166.938 L 217.255 167.075 L 217.875 166.967 L 218.357 166.664 L 218.689 166.189 L 218.833 165.555 L 218.228 165.555 L 218.12 165.958 L 217.918 166.261 L 217.63 166.448 L 217.277 166.506 L 216.837 166.412 L 216.52 166.124 L 216.326 165.656 L 216.261 164.993 L 216.326 164.344 L 216.527 163.876 L 216.852 163.588 L 217.277 163.487 L 217.651 163.552 L 217.932 163.718 L 218.12 163.991 L 218.199 164.352 L 218.199 164.352 z M 220.158 166.938 L 220.792 166.938 L 220.792 165.576 L 221.455 164.935 L 222.594 166.938 L 223.307 166.938 L 221.888 164.496 L 223.343 163.069 L 222.543 163.069 L 220.792 164.813 L 220.792 161.765 L 220.158 161.765 L 220.158 166.938 L 220.158 166.938 z M 224.964 165.187 L 227.5 165.187 L 227.507 164.892 L 227.392 164.063 L 227.075 163.444 L 226.571 163.069 L 225.901 162.932 L 225.245 163.076 L 224.741 163.48 L 224.416 164.135 L 224.301 165 L 224.409 165.886 L 224.733 166.535 L 225.231 166.938 L 225.879 167.075 L 226.441 166.981 L 226.902 166.736 L 227.241 166.347 L 227.435 165.829 L 226.808 165.829 L 226.679 166.117 L 226.491 166.333 L 225.958 166.506 L 225.548 166.427 L 225.238 166.174 L 225.036 165.764 L 224.964 165.209 L 224.964 165.187 L 224.964 165.187 z M 224.964 164.654 L 225.043 164.157 L 225.238 163.79 L 225.533 163.566 L 225.922 163.487 L 226.304 163.566 L 226.599 163.79 L 226.779 164.157 L 226.844 164.654 L 224.964 164.654 L 224.964 164.654 z M 229.596 163.739 L 229.596 165.677 L 229.64 166.304 L 229.841 166.736 L 230.245 166.988 L 230.929 167.075 L 231.679 167.039 L 231.679 166.491 L 231.131 166.535 L 230.634 166.477 L 230.367 166.297 L 230.252 165.994 L 230.231 165.569 L 230.231 163.739 L 231.679 163.739 L 231.679 163.199 L 230.231 163.199 L 230.231 162.068 L 229.596 162.068 L 229.596 163.199 L 228.501 163.199 L 228.501 163.739 L 229.596 163.739 L 229.596 163.739 z" stroke="none" fill-rule="evenodd" fill="rgb(0, 0, 0)"/></g><g stroke="rgb(0, 0, 0)" stroke-width="0.13" stroke-linecap="butt" stroke-linejoin="miter" fill="none"><path d="M 152.161 170.576 L 150.497 170.576 L 150.497 175.576 L 152.161 175.576 L 152.947 175.418 L 153.53 174.935 L 153.89 174.15 L 154.02 173.076 L 153.905 171.981 L 153.761 171.549 L 153.559 171.203 L 152.976 170.735 L 152.594 170.62 L 152.161 170.576 L 152.161 170.576 z M 152.111 171.174 L 152.659 171.282 L 153.033 171.614 L 153.256 172.205 L 153.329 173.076 L 153.249 173.919 L 153.026 174.51 L 152.644 174.863 L 152.111 174.978 L 151.167 174.978 L 151.167 171.174 L 152.111 171.174 L 152.111 171.174 z M 154.899 175.576 L 155.569 175.576 L 155.569 173.465 L 156.254 173.465 L 156.758 173.487 L 157.075 173.588 L 157.248 173.826 L 157.32 174.251 L 157.356 174.899 L 157.399 175.324 L 157.486 175.576 L 158.242 175.576 L 158.242 175.439 L 158.076 175.238 L 158.019 174.863 L 157.968 174.056 L 157.846 173.458 L 157.68 173.271 L 157.421 173.134 L 157.709 172.954 L 157.911 172.702 L 158.04 172.385 L 158.084 172.003 L 157.983 171.398 L 157.695 170.944 L 157.219 170.67 L 156.571 170.576 L 154.899 170.576 L 154.899 175.576 L 154.899 175.576 z M 156.383 171.189 L 156.823 171.232 L 157.133 171.369 L 157.327 171.621 L 157.392 172.017 L 157.32 172.435 L 157.125 172.687 L 156.794 172.817 L 156.34 172.853 L 155.569 172.853 L 155.569 171.189 L 156.383 171.189 L 156.383 171.189 z M 158.991 173.076 L 159.121 174.2 L 159.496 175.029 L 160.079 175.54 L 160.843 175.713 L 161.599 175.54 L 162.19 175.029 L 162.558 174.2 L 162.695 173.076 L 162.558 171.96 L 162.399 171.506 L 162.19 171.131 L 161.599 170.62 L 161.239 170.49 L 160.843 170.439 L 160.072 170.62 L 159.488 171.124 L 159.121 171.952 L 158.991 173.076 L 158.991 173.076 z M 159.683 173.076 L 159.762 172.205 L 160 171.563 L 160.367 171.174 L 160.843 171.037 L 161.311 171.174 L 161.679 171.571 L 161.916 172.212 L 162.003 173.076 L 161.916 173.948 L 161.679 174.589 L 161.311 174.978 L 160.843 175.108 L 160.367 174.978 L 160 174.589 L 159.762 173.955 L 159.683 173.076 L 159.683 173.076 z M 164.849 174.971 L 163.927 174.971 L 163.927 175.576 L 166.434 175.576 L 166.434 174.971 L 165.512 174.971 L 165.512 171.182 L 166.434 171.182 L 166.434 170.576 L 163.927 170.576 L 163.927 171.182 L 164.849 171.182 L 164.849 174.971 L 164.849 174.971 z M 169.186 175.576 L 169.849 175.576 L 169.849 171.182 L 171.362 171.182 L 171.362 170.576 L 167.666 170.576 L 167.666 171.182 L 169.186 171.182 L 169.186 175.576 L 169.186 175.576 z M 172.341 175.576 L 175.512 175.576 L 175.512 174.971 L 173.004 174.971 L 173.004 173.278 L 175.238 173.278 L 175.238 172.68 L 173.004 172.68 L 173.004 171.182 L 175.454 171.182 L 175.454 170.576 L 172.341 170.576 L 172.341 175.576 L 172.341 175.576 z" stroke="none" fill-rule="evenodd" fill="rgb(0, 0, 0)"/></g><g stroke="rgb(0, 0, 0)" stroke-width="0.13" stroke-linecap="butt" stroke-linejoin="miter" fill="none"><path d="M 125.069 91.5342 L 125.538 91.5342 L 125.538 89.9254 L 127.01 89.9254 L 127.01 89.5069 L 125.538 89.5069 L 125.538 88.4579 L 127.348 88.4579 L 127.348 88.0342 L 125.069 88.0342 L 125.069 91.5342 L 125.069 91.5342 z M 128.014 91.5342 L 128.483 91.5342 L 128.483 90.0566 L 128.962 90.0566 L 129.315 90.0717 L 129.537 90.1423 L 129.658 90.3087 L 129.708 90.6063 L 129.734 91.0602 L 129.764 91.3577 L 129.824 91.5342 L 130.354 91.5342 L 130.354 91.4384 L 130.238 91.2972 L 130.197 91.035 L 130.162 90.4701 L 130.076 90.0515 L 129.96 89.9204 L 129.779 89.8246 L 129.981 89.6985 L 130.122 89.522 L 130.213 89.3001 L 130.243 89.0328 L 130.172 88.6092 L 129.971 88.2914 L 129.638 88.0998 L 129.184 88.0342 L 128.014 88.0342 L 128.014 91.5342 L 128.014 91.5342 z M 129.053 88.4629 L 129.36 88.4932 L 129.577 88.589 L 129.713 88.7655 L 129.759 89.0429 L 129.708 89.3354 L 129.572 89.5119 L 129.34 89.6027 L 129.022 89.6279 L 128.483 89.6279 L 128.483 88.4629 L 129.053 88.4629 L 129.053 88.4629 z M 131.151 91.5342 L 133.4 91.5342 L 133.4 91.1106 L 131.615 91.1106 L 131.615 88.0342 L 131.151 88.0342 L 131.151 91.5342 L 131.151 91.5342 z M 134.6 90.3793 L 135.821 90.3793 L 135.821 89.9809 L 134.6 89.9809 L 134.6 90.3793 L 134.6 90.3793 z" stroke="none" fill-rule="evenodd" fill="rgb(0, 0, 0)"/></g><g stroke="rgb(0, 0, 0)" stroke-width="0.13" stroke-linecap="butt" stroke-linejoin="miter" fill="none"><path d="M 125.069 97.5811 L 125.538 97.5811 L 125.538 95.9723 L 127.01 95.9723 L 127.01 95.5537 L 125.538 95.5537 L 125.538 94.5047 L 127.348 94.5047 L 127.348 94.0811 L 125.069 94.0811 L 125.069 97.5811 L 125.069 97.5811 z M 128.115 97.5811 L 130.364 97.5811 L 130.364 97.1574 L 128.579 97.1574 L 128.579 94.0811 L 128.115 94.0811 L 128.115 97.5811 L 128.115 97.5811 z M 130.969 96.2496 L 131.04 96.8801 L 131.262 97.3289 L 131.635 97.5861 L 132.174 97.6769 L 132.709 97.5861 L 133.082 97.3289 L 133.304 96.8851 L 133.38 96.2496 L 133.38 94.0811 L 132.911 94.0811 L 132.911 96.2749 L 132.865 96.7035 L 132.729 97.0112 L 132.497 97.1927 L 132.174 97.2533 L 131.842 97.1927 L 131.61 97.0112 L 131.473 96.7086 L 131.433 96.2749 L 131.433 94.0811 L 130.969 94.0811 L 130.969 96.2496 L 130.969 96.2496 z" stroke="none" fill-rule="evenodd" fill="rgb(0, 0, 0)"/></g><g stroke="rgb(0, 0, 0)" stroke-width="0.13" stroke-linecap="butt" stroke-linejoin="miter" fill="none"><path d="M 194.098 93.1194 L 194.567 93.1194 L 194.567 91.5107 L 196.039 91.5107 L 196.039 91.0921 L 194.567 91.0921 L 194.567 90.0431 L 196.377 90.0431 L 196.377 89.6194 L 194.098 89.6194 L 194.098 93.1194 L 194.098 93.1194 z M 197.043 93.1194 L 197.512 93.1194 L 197.512 91.6418 L 197.991 91.6418 L 198.344 91.6569 L 198.566 91.7275 L 198.687 91.8939 L 198.738 92.1915 L 198.763 92.6454 L 198.793 92.9429 L 198.854 93.1194 L 199.383 93.1194 L 199.383 93.0236 L 199.267 92.8824 L 199.227 92.6202 L 199.191 92.0553 L 199.106 91.6367 L 198.99 91.5056 L 198.808 91.4098 L 199.01 91.2837 L 199.151 91.1072 L 199.242 90.8853 L 199.272 90.618 L 199.202 90.1944 L 199 89.8766 L 198.667 89.685 L 198.213 89.6194 L 197.043 89.6194 L 197.043 93.1194 L 197.043 93.1194 z M 198.082 90.0481 L 198.39 90.0784 L 198.606 90.1742 L 198.743 90.3507 L 198.788 90.6281 L 198.738 90.9206 L 198.601 91.0971 L 198.369 91.1879 L 198.052 91.2131 L 197.512 91.2131 L 197.512 90.0481 L 198.082 90.0481 L 198.082 90.0481 z M 200.18 93.1194 L 202.429 93.1194 L 202.429 92.6958 L 200.644 92.6958 L 200.644 89.6194 L 200.18 89.6194 L 200.18 93.1194 L 200.18 93.1194 z M 203.63 91.9645 L 204.85 91.9645 L 204.85 91.5661 L 203.63 91.5661 L 203.63 91.9645 L 203.63 91.9645 z" stroke="none" fill-rule="evenodd" fill="rgb(0, 0, 0)"/></g><g stroke="rgb(0, 0, 0)" stroke-width="0.13" stroke-linecap="butt" stroke-linejoin="miter" fill="none"><path d="M 194.098 99.1663 L 194.567 99.1663 L 194.567 97.5575 L 196.039 97.5575 L 196.039 97.1389 L 194.567 97.1389 L 194.567 96.0899 L 196.377 96.0899 L 196.377 95.6663 L 194.098 95.6663 L 194.098 99.1663 L 194.098 99.1663 z M 197.144 99.1663 L 199.393 99.1663 L 199.393 98.7426 L 197.608 98.7426 L 197.608 95.6663 L 197.144 95.6663 L 197.144 99.1663 L 197.144 99.1663 z M 201.199 95.6663 L 200.034 95.6663 L 200.034 99.1663 L 201.199 99.1663 L 201.748 99.0553 L 202.157 98.7174 L 202.409 98.1677 L 202.5 97.4163 L 202.419 96.6497 L 202.318 96.3471 L 202.177 96.105 L 201.769 95.7772 L 201.501 95.6965 L 201.199 95.6663 L 201.199 95.6663 z M 201.163 96.0849 L 201.547 96.1605 L 201.809 96.3925 L 201.965 96.806 L 202.016 97.4163 L 201.96 98.0063 L 201.804 98.4199 L 201.537 98.667 L 201.163 98.7477 L 200.503 98.7477 L 200.503 96.0849 L 201.163 96.0849 L 201.163 96.0849 z" stroke="none" fill-rule="evenodd" fill="rgb(0, 0, 0)"/></g></svg>