  0
SECTION
  2
HEADER
  9
$ACADVER
  1
AC1006
  9
$EXTMIN
 10
0.000000
 20
0.000000
 30
0.000000
  9
$EXTMAX
 10
501.000000
 20
109.000000
 30
0.000000
  0
ENDSEC
  0
SECTION
  2
ENTITIES
  0
POLYLINE
  8
0
 66
1
 70
1
  0
VERTEX
  8
0
 10
57.094116
 20
105.750000
 42
-0.005297
  0
VERTEX
  8
0
 10
56.603360
 20
104.500598
 42
-0.001122
  0
VERTEX
  8
0
 10
55.720004
 20
102.333851
 42
-0.001174
  0
VERTEX
  8
0
 10
54.684295
 20
99.826414
 42
-0.001115
  0
VERTEX
  8
0
 10
53.618867
 20
97.280132
 42
0.002891
  0
VERTEX
  8
0
 10
52.615292
 20
94.857544
 42
0.004327
  0
VERTEX
  8
0
 10
51.769292
 20
92.728932
 42
0.001876
  0
VERTEX
  8
0
 10
51.070167
 20
90.904235
 42
0.090784
  0
VERTEX
  8
0
 10
51.000000
 20
90.520968
 42
0.412464
  0
VERTEX
  8
0
 10
51.219082
 20
90.300572
 42
0.000112
  0
VERTEX
  8
0
 10
65.878961
 20
90.216219
 42
0.001664
  0
VERTEX
  8
0
 10
82.229321
 20
90.180212
 42
0.000998
  0
VERTEX
  8
0
 10
101.651783
 20
90.240836
 42
0.000000
  0
VERTEX
  8
0
 10
152.303565
 20
90.500000
 42
0.000000
  0
VERTEX
  8
0
 10
155.651783
 20
98.346557
 42
0.003867
  0
VERTEX
  8
0
 10
156.934637
 20
101.418532
 42
0.005597
  0
VERTEX
  8
0
 10
158.016461
 20
104.153574
 42
0.003021
  0
VERTEX
  8
0
 10
158.889290
 20
106.476513
 42
0.088576
  0
VERTEX
  8
0
 10
159.000000
 20
107.096557
 42
0.408539
  0
VERTEX
  8
0
 10
158.616781
 20
107.487289
 42
0.000383
  0
VERTEX
  8
0
 10
144.768837
 20
107.745530
 42
0.002949
  0
VERTEX
  8
0
 10
128.649738
 20
107.938653
 42
0.001520
  0
VERTEX
  8
0
 10
108.475249
 20
108.000000
 42
0.000000
  0
VERTEX
  8
0
 10
57.950498
 20
108.000000
 42
0.000000
  0
SEQEND
  0
POLYLINE
  8
0
 66
1
 70
1
  0
VERTEX
  8
0
 10
170.506025
 20
103.750000
 42
0.000460
  0
VERTEX
  8
0
 10
169.715442
 20
101.781173
 42
0.000248
  0
VERTEX
  8
0
 10
168.744448
 20
99.353125
 42
0.000247
  0
VERTEX
  8
0
 10
167.757301
 20
96.877582
 42
0.000388
  0
VERTEX
  8
0
 10
166.912037
 20
94.750000
 42
0.000000
  0
VERTEX
  8
0
 10
165.029184
 20
90.000000
 42
0.000000
  0
VERTEX
  8
0
 10
215.878734
 20
90.000000
 42
0.000000
  0
VERTEX
  8
0
 10
266.728284
 20
90.000000
 42
0.000000
  0
VERTEX
  8
0
 10
268.364142
 20
94.283433
 42
0.031922
  0
VERTEX
  8
0
 10
269.580807
 20
98.202876
 42
0.067159
  0
VERTEX
  8
0
 10
269.908036
 20
101.367142
 42
0.088018
  0
VERTEX
  8
0
 10
269.372247
 20
103.922842
 42
0.101134
  0
VERTEX
  8
0
 10
268.000000
 20
106.000000
 42
0.163443
  0
VERTEX
  8
0
 10
265.533740
 20
107.226141
 42
0.024123
  0
VERTEX
  8
0
 10
259.909898
 20
107.728674
 42
0.009565
  0
VERTEX
  8
0
 10
249.259476
 20
107.960412
 42
0.000657
  0
VERTEX
  8
0
 10
219.108580
 20
108.000000
 42
0.000000
  0
VERTEX
  8
0
 10
172.217159
 20
108.000000
 42
0.000000
  0
SEQEND
  0
POLYLINE
  8
0
 66
1
 70
1
  0
VERTEX
  8
0
 10
290.814412
 20
105.097258
 42
0.031413
  0
VERTEX
  8
0
 10
288.497412
 20
103.415061
 42
0.043505
  0
VERTEX
  8
0
 10
286.668888
 20
101.614337
 42
0.041305
  0
VERTEX
  8
0
 10
285.112889
 20
99.451025
 42
0.024780
  0
VERTEX
  8
0
 10
283.618632
 20
96.659183
 42
0.003656
  0
VERTEX
  8
0
 10
282.615217
 20
94.497387
 42
0.005399
  0
VERTEX
  8
0
 10
281.769223
 20
92.584789
 42
0.002619
  0
VERTEX
  8
0
 10
281.078101
 20
90.952037
 42
0.099118
  0
VERTEX
  8
0
 10
281.000000
 20
90.561925
 42
0.410854
  0
VERTEX
  8
0
 10
281.228122
 20
90.331169
 42
0.000121
  0
VERTEX
  8
0
 10
295.907812
 20
90.166127
 42
0.001731
  0
VERTEX
  8
0
 10
312.289889
 20
90.042607
 42
0.001037
  0
VERTEX
  8
0
 10
331.750000
 20
90.003613
 42
0.000000
  0
VERTEX
  8
0
 10
382.500000
 20
90.007226
 42
0.000000
  0
VERTEX
  8
0
 10
385.750000
 20
98.280936
 42
0.002771
  0
VERTEX
  8
0
 10
386.995414
 20
101.503829
 42
0.004136
  0
VERTEX
  8
0
 10
388.045313
 20
104.336531
 42
0.001816
  0
VERTEX
  8
0
 10
388.911808
 20
106.762630
 42
0.085055
  0
VERTEX
  8
0
 10
389.000000
 20
107.277323
 42
0.409425
  0
VERTEX
  8
0
 10
388.708528
 20
107.573608
 42
0.000235
  0
VERTEX
  8
0
 10
375.251261
 20
107.787714
 42
0.002413
  0
VERTEX
  8
0
 10
360.142861
 20
107.948068
 42
0.001447
  0
VERTEX
  8
0
 10
342.195781
 20
108.000000
 42
0.000000
  0
VERTEX
  8
0
 10
295.391561
 20
108.000000
 42
0.000000
  0
SEQEND
  0
POLYLINE
  8
0
 66
1
 70
1
  0
VERTEX
  8
0
 10
405.814412
 20
105.097258
 42
0.031413
  0
VERTEX
  8
0
 10
403.497412
 20
103.415061
 42
0.043505
  0
VERTEX
  8
0
 10
401.668888
 20
101.614337
 42
0.041305
  0
VERTEX
  8
0
 10
400.112889
 20
99.451025
 42
0.024780
  0
VERTEX
  8
0
 10
398.618632
 20
96.659183
 42
0.003656
  0
VERTEX
  8
0
 10
397.615217
 20
94.497387
 42
0.005399
  0
VERTEX
  8
0
 10
396.769223
 20
92.584789
 42
0.002619
  0
VERTEX
  8
0
 10
396.078101
 20
90.952037
 42
0.099118
  0
VERTEX
  8
0
 10
396.000000
 20
90.561925
 42
0.410837
  0
VERTEX
  8
0
 10
396.228126
 20
90.331151
 42
0.000121
  0
VERTEX
  8
0
 10
410.923221
 20
90.165066
 42
0.001729
  0
VERTEX
  8
0
 10
427.322230
 20
90.040380
 42
0.001036
  0
VERTEX
  8
0
 10
446.802456
 20
90.000000
 42
0.000000
  0
VERTEX
  8
0
 10
497.604911
 20
90.000000
 42
0.000000
  0
VERTEX
  8
0
 10
499.307402
 20
94.750000
 42
0.022943
  0
VERTEX
  8
0
 10
500.574571
 20
98.871560
 42
0.070043
  0
VERTEX
  8
0
 10
500.902446
 20
101.772655
 42
0.101221
  0
VERTEX
  8
0
 10
500.378511
 20
104.019705
 42
0.088875
  0
VERTEX
  8
0
 10
499.000000
 20
106.000000
 42
0.160081
  0
VERTEX
  8
0
 10
496.593555
 20
107.216131
 42
0.026592
  0
VERTEX
  8
0
 10
491.360065
 20
107.726908
 42
0.010306
  0
VERTEX
  8
0
 10
481.453111
 20
107.959824
 42
0.000724
  0
VERTEX
  8
0
 10
453.695781
 20
108.000000
 42
0.000000
  0
VERTEX
  8
0
 10
410.391561
 20
108.000000
 42
0.000000
  0
SEQEND
  0
POLYLINE
  8
0
 66
1
 70
1
  0
VERTEX
  8
0
 10
49.589044
 20
87.144075
 42
0.028979
  0
VERTEX
  8
0
 10
49.322888
 20
86.651783
 42
0.006140
  0
VERTEX
  8
0
 10
48.920144
 20
85.762882
 42
0.006407
  0
VERTEX
  8
0
 10
48.478456
 20
84.719120
 42
0.006046
  0
VERTEX
  8
0
 10
48.054777
 20
83.644075
 42
0.000000
  0
VERTEX
  8
0
 10
47.049502
 20
81.000000
 42
0.000000
  0
VERTEX
  8
0
 10
64.926926
 20
81.000000
 42
0.000000
  0
VERTEX
  8
0
 10
82.804350
 20
81.000000
 42
0.000000
  0
VERTEX
  8
0
 10
83.902175
 20
84.149223
 42
0.003221
  0
VERTEX
  8
0
 10
84.322798
 20
85.381298
 42
0.004650
  0
VERTEX
  8
0
 10
84.677514
 20
86.476403
 42
0.002488
  0
VERTEX
  8
0
 10
84.963956
 20
87.405788
 42
0.073630
  0
VERTEX
  8
0
 10
85.000000
 20
87.649223
 42
0.417737
  0
VERTEX
  8
0
 10
84.432160
 20
88.210281
 42
0.000562
  0
VERTEX
  8
0
 10
67.477909
 20
87.987486
 42
0.000664
  0
VERTEX
  8
0
 10
50.609587
 20
87.724438
 42
0.255422
  0
SEQEND
  0
POLYLINE
  8
0
 66
1
 70
1
  0
VERTEX
  8
0
 10
163.097825
 20
84.850777
 42
0.003221
  0
VERTEX
  8
0
 10
162.677202
 20
83.618702
 42
0.004650
  0
VERTEX
  8
0
 10
162.322486
 20
82.523597
 42
0.002488
  0
VERTEX
  8
0
 10
162.036044
 20
81.594212
 42
0.073630
  0
VERTEX
  8
0
 10
162.000000
 20
81.350777
 42
0.407904
  0
VERTEX
  8
0
 10
162.140492
 20
81.207218
 42
0.000394
  0
VERTEX
  8
0
 10
167.147896
 20
81.103041
 42
0.003128
  0
VERTEX
  8
0
 10
172.804895
 20
81.025207
 42
0.001876
  0
VERTEX
  8
0
 10
179.524751
 20
81.000000
 42
0.000000
  0
VERTEX
  8
0
 10
197.049502
 20
81.000000
 42
0.000000
  0
VERTEX
  8
0
 10
198.024751
 20
83.565100
 42
0.010942
  0
VERTEX
  8
0
 10
198.398092
 20
84.615710
 42
0.011952
  0
VERTEX
  8
0
 10
198.713521
 20
85.651328
 42
0.011461
  0
VERTEX
  8
0
 10
198.941327
 20
86.547869
 42
0.056537
  0
VERTEX
  8
0
 10
199.000000
 20
87.065100
 42
0.394648
  0
VERTEX
  8
0
 10
198.628758
 20
87.462190
 42
0.003397
  0
VERTEX
  8
0
 10
194.096516
 20
87.736569
 42
0.008844
  0
VERTEX
  8
0
 10
188.543789
 20
87.936461
 42
0.004574
  0
VERTEX
  8
0
 10
181.597825
 20
88.000000
 42
0.000000
  0
VERTEX
  8
0
 10
164.195650
 20
88.000000
 42
0.000000
  0
SEQEND
  0
POLYLINE
  8
0
 66
1
 70
1
  0
VERTEX
  8
0
 10
229.160515
 20
85.452947
 42
0.012778
  0
VERTEX
  8
0
 10
228.716254
 20
84.407921
 42
0.014063
  0
VERTEX
  8
0
 10
228.340901
 20
83.374163
 42
0.013555
  0
VERTEX
  8
0
 10
228.070032
 20
82.476494
 42
0.066586
  0
VERTEX
  8
0
 10
228.000000
 20
81.952947
 42
0.394020
  0
VERTEX
  8
0
 10
228.385157
 20
81.540073
 42
0.003778
  0
VERTEX
  8
0
 10
232.847515
 20
81.263594
 42
0.009146
  0
VERTEX
  8
0
 10
238.409092
 20
81.063115
 42
0.004435
  0
VERTEX
  8
0
 10
245.524751
 20
81.000000
 42
0.000000
  0
VERTEX
  8
0
 10
263.049502
 20
81.000000
 42
0.000000
  0
VERTEX
  8
0
 10
264.024751
 20
83.565100
 42
0.010942
  0
VERTEX
  8
0
 10
264.398092
 20
84.615710
 42
0.011952
  0
VERTEX
  8
0
 10
264.713521
 20
85.651328
 42
0.011461
  0
VERTEX
  8
0
 10
264.941327
 20
86.547869
 42
0.056537
  0
VERTEX
  8
0
 10
265.000000
 20
87.065100
 42
0.394568
  0
VERTEX
  8
0
 10
264.628971
 20
87.462073
 42
0.003418
  0
VERTEX
  8
0
 10
260.113280
 20
87.736521
 42
0.008874
  0
VERTEX
  8
0
 10
254.580260
 20
87.936444
 42
0.004592
  0
VERTEX
  8
0
 10
247.660515
 20
88.000000
 42
0.000000
  0
VERTEX
  8
0
 10
230.321030
 20
88.000000
 42
0.000000
  0
SEQEND
  0
POLYLINE
  8
0
 66
1
 70
1
  0
VERTEX
  8
0
 10
279.589044
 20
87.144075
 42
0.028979
  0
VERTEX
  8
0
 10
279.322888
 20
86.651783
 42
0.006140
  0
VERTEX
  8
0
 10
278.920144
 20
85.762882
 42
0.006407
  0
VERTEX
  8
0
 10
278.478456
 20
84.719120
 42
0.006046
  0
VERTEX
  8
0
 10
278.054777
 20
83.644075
 42
0.000000
  0
VERTEX
  8
0
 10
277.049502
 20
81.000000
 42
0.000000
  0
VERTEX
  8
0
 10
294.908119
 20
81.000000
 42
0.002245
  0
VERTEX
  8
0
 10
305.476900
 20
81.047453
 42
0.021513
  0
VERTEX
  8
0
 10
309.974575
 20
81.281542
 42
0.055305
  0
VERTEX
  8
0
 10
312.326338
 20
81.771791
 42
0.248643
  0
VERTEX
  8
0
 10
313.269915
 20
82.750000
 42
-0.008968
  0
VERTEX
  8
0
 10
313.514475
 20
83.546482
 42
-0.005119
  0
VERTEX
  8
0
 10
313.836914
 20
84.500000
 42
-0.005111
  0
VERTEX
  8
0
 10
314.181108
 20
85.453134
 42
-0.008443
  0
VERTEX
  8
0
 10
314.493535
 20
86.250000
 42
0.382949
  0
VERTEX
  8
0
 10
314.154185
 20
87.206569
 42
0.099028
  0
VERTEX
  8
0
 10
312.451086
 20
87.735332
 42
0.024027
  0
VERTEX
  8
0
 10
308.422093
 20
87.959488
 42
0.001883
  0
VERTEX
  8
0
 10
297.666006
 20
88.000000
 42
0.004564
  0
VERTEX
  8
0
 10
290.901061
 20
87.938253
 42
0.007265
  0
VERTEX
  8
0
 10
285.117360
 20
87.748572
 42
0.002459
  0
VERTEX
  8
0
 10
280.169681
 20
87.489910
 42
0.244736
  0
SEQEND
  0
POLYLINE
  8
0
 66
1
 70
1
  0
VERTEX
  8
0
 10
394.589044
 20
87.144075
 42
0.028979
  0
VERTEX
  8
0
 10
394.322888
 20
86.651783
 42
0.006140
  0
VERTEX
  8
0
 10
393.920144
 20
85.762882
 42
0.006407
  0
VERTEX
  8
0
 10
393.478456
 20
84.719120
 42
0.006046
  0
VERTEX
  8
0
 10
393.054777
 20
83.644075
 42
0.000000
  0
VERTEX
  8
0
 10
392.049502
 20
81.000000
 42
0.000000
  0
VERTEX
  8
0
 10
409.908119
 20
81.000000
 42
0.002245
  0
VERTEX
  8
0
 10
420.476900
 20
81.047453
 42
0.021513
  0
VERTEX
  8
0
 10
424.974575
 20
81.281542
 42
0.055305
  0
VERTEX
  8
0
 10
427.326338
 20
81.771791
 42
0.248643
  0
VERTEX
  8
0
 10
428.269915
 20
82.750000
 42
-0.008968
  0
VERTEX
  8
0
 10
428.514475
 20
83.546482
 42
-0.005119
  0
VERTEX
  8
0
 10
428.836914
 20
84.500000
 42
-0.005111
  0
VERTEX
  8
0
 10
429.181108
 20
85.453134
 42
-0.008443
  0
VERTEX
  8
0
 10
429.493535
 20
86.250000
 42
0.382949
  0
VERTEX
  8
0
 10
429.154185
 20
87.206569
 42
0.099028
  0
VERTEX
  8
0
 10
427.451086
 20
87.735332
 42
0.024027
  0
VERTEX
  8
0
 10
423.422093
 20
87.959488
 42
0.001883
  0
VERTEX
  8
0
 10
412.666006
 20
88.000000
 42
0.004564
  0
VERTEX
  8
0
 10
405.901061
 20
87.938253
 42
0.007265
  0
VERTEX
  8
0
 10
400.117360
 20
87.748572
 42
0.002459
  0
VERTEX
  8
0
 10
395.169681
 20
87.489910
 42
0.244736
  0
SEQEND
  0
POLYLINE
  8
0
 66
1
 70
1
  0
VERTEX
  8
0
 10
460.589044
 20
87.144075
 42
0.028979
  0
VERTEX
  8
0
 10
460.322888
 20
86.651783
 42
0.006140
  0
VERTEX
  8
0
 10
459.920144
 20
85.762882
 42
0.006407
  0
VERTEX
  8
0
 10
459.478456
 20
84.719120
 42
0.006046
  0
VERTEX
  8
0
 10
459.054777
 20
83.644075
 42
0.000000
  0
VERTEX
  8
0
 10
458.049502
 20
81.000000
 42
0.000000
  0
VERTEX
  8
0
 10
475.908119
 20
81.000000
 42
0.002245
  0
VERTEX
  8
0
 10
486.476900
 20
81.047453
 42
0.021513
  0
VERTEX
  8
0
 10
490.974575
 20
81.281542
 42
0.055305
  0
VERTEX
  8
0
 10
493.326338
 20
81.771791
 42
0.248643
  0
VERTEX
  8
0
 10
494.269915
 20
82.750000
 42
-0.008968
  0
VERTEX
  8
0
 10
494.514475
 20
83.546482
 42
-0.005119
  0
VERTEX
  8
0
 10
494.836914
 20
84.500000
 42
-0.005111
  0
VERTEX
  8
0
 10
495.181108
 20
85.453134
 42
-0.008443
  0
VERTEX
  8
0
 10
495.493535
 20
86.250000
 42
0.382949
  0
VERTEX
  8
0
 10
495.154185
 20
87.206569
 42
0.099028
  0
VERTEX
  8
0
 10
493.451086
 20
87.735332
 42
0.024027
  0
VERTEX
  8
0
 10
489.422093
 20
87.959488
 42
0.001883
  0
VERTEX
  8
0
 10
478.666006
 20
88.000000
 42
0.004564
  0
VERTEX
  8
0
 10
471.901061
 20
87.938253
 42
0.007265
  0
VERTEX
  8
0
 10
466.117360
 20
87.748572
 42
0.002459
  0
VERTEX
  8
0
 10
461.169681
 20
87.489910
 42
0.244736
  0
SEQEND
  0
POLYLINE
  8
0
 66
1
 70
1
  0
VERTEX
  8
0
 10
45.636253
 20
77.220463
 42
0.043058
  0
VERTEX
  8
0
 10
44.895294
 20
75.752753
 42
0.001039
  0
VERTEX
  8
0
 10
42.072338
 20
68.672071
 42
0.000518
  0
VERTEX
  8
0
 10
39.154074
 20
61.285551
 42
0.094082
  0
VERTEX
  8
0
 10
39.000000
 20
60.473969
 42
0.411231
  0
VERTEX
  8
0
 10
39.192681
 20
60.279314
 42
0.000101
  0
VERTEX
  8
0
 10
52.732812
 20
60.144019
 42
0.001585
  0
VERTEX
  8
0
 10
67.823687
 20
60.044113
 42
0.000950
  0
VERTEX
  8
0
 10
85.750000
 20
60.016308
 42
0.000000
  0
VERTEX
  8
0
 10
132.500000
 20
60.032615
 42
0.000000
  0
VERTEX
  8
0
 10
136.119994
 20
69.016308
 42
0.000000
  0
VERTEX
  8
0
 10
139.739988
 20
78.000000
 42
0.000000
  0
VERTEX
  8
0
 10
92.929011
 20
78.000000
 42
0.001560
  0
VERTEX
  8
0
 10
74.946445
 20
77.943909
 42
0.002561
  0
VERTEX
  8
0
 10
59.727235
 20
77.771011
 42
0.000311
  0
VERTEX
  8
0
 10
46.196876
 20
77.539575
 42
0.255208
  0
SEQEND
  0
POLYLINE
  8
0
 66
1
 70
1
  0
VERTEX
  8
0
 10
156.707816
 20
69.250000
 42
0.000000
  0
VERTEX
  8
0
 10
153.206191
 20
60.500000
 42
0.000000
  0
VERTEX
  8
0
 10
198.853096
 20
60.225705
 42
0.001031
  0
VERTEX
  8
0
 10
224.362213
 20
60.125018
 42
0.006844
  0
VERTEX
  8
0
 10
237.089405
 20
60.275229
 42
0.011671
  0
VERTEX
  8
0
 10
244.747557
 20
60.649469
 42
0.072425
  0
VERTEX
  8
0
 10
248.579917
 20
61.493457
 42
0.054073
  0
VERTEX
  8
0
 10
252.151694
 20
63.305126
 42
0.056775
  0
VERTEX
  8
0
 10
255.188009
 20
65.815572
 42
0.052917
  0
VERTEX
  8
0
 10
257.747253
 20
69.107959
 42
0.037860
  0
VERTEX
  8
0
 10
259.900166
 20
73.250000
 42
0.000000
  0
VERTEX
  8
0
 10
261.928925
 20
78.000000
 42
0.000000
  0
VERTEX
  8
0
 10
211.069183
 20
78.000000
 42
0.000000
  0
VERTEX
  8
0
 10
160.209440
 20
78.000000
 42
0.000000
  0
SEQEND
  0
POLYLINE
  8
0
 66
1
 70
1
  0
VERTEX
  8
0
 10
273.608580
 20
73.979764
 42
0.033948
  0
VERTEX
  8
0
 10
272.590942
 20
70.832602
 42
0.041357
  0
VERTEX
  8
0
 10
272.091010
 20
67.777526
 42
0.046655
  0
VERTEX
  8
0
 10
272.126885
 20
65.160484
 42
0.121031
  0
VERTEX
  8
0
 10
272.765313
 20
63.399704
 42
0.192306
  0
VERTEX
  8
0
 10
275.652070
 20
61.415881
 42
0.038920
  0
VERTEX
  8
0
 10
281.927015
 20
60.503938
 42
0.015303
  0
VERTEX
  8
0
 10
293.729555
 20
60.079861
 42
0.001328
  0
VERTEX
  8
0
 10
323.798401
 20
60.000000
 42
0.000000
  0
VERTEX
  8
0
 10
369.728284
 20
60.000000
 42
0.000000
  0
VERTEX
  8
0
 10
371.364142
 20
64.283433
 42
0.031922
  0
VERTEX
  8
0
 10
372.580807
 20
68.202876
 42
0.067159
  0
VERTEX
  8
0
 10
372.908036
 20
71.367142
 42
0.088018
  0
VERTEX
  8
0
 10
372.372247
 20
73.922842
 42
0.101134
  0
VERTEX
  8
0
 10
371.000000
 20
76.000000
 42
0.163443
  0
VERTEX
  8
0
 10
368.533740
 20
77.226141
 42
0.024123
  0
VERTEX
  8
0
 10
362.909898
 20
77.728674
 42
0.009565
  0
VERTEX
  8
0
 10
352.259476
 20
77.960412
 42
0.000657
  0
VERTEX
  8
0
 10
322.108580
 20
78.000000
 42
0.000000
  0
VERTEX
  8
0
 10
275.217159
 20
78.000000
 42
0.000000
  0
SEQEND
  0
POLYLINE
  8
0
 66
1
 70
1
  0
VERTEX
  8
0
 10
387.250000
 20
69.719064
 42
0.002806
  0
VERTEX
  8
0
 10
386.004595
 20
66.495524
 42
0.004182
  0
VERTEX
  8
0
 10
384.954687
 20
63.660777
 42
0.001855
  0
VERTEX
  8
0
 10
384.089058
 20
61.234010
 42
0.084934
  0
VERTEX
  8
0
 10
384.000000
 20
60.713512
 42
0.411239
  0
VERTEX
  8
0
 10
384.295621
 20
60.414871
 42
0.000206
  0
VERTEX
  8
0
 10
398.862024
 20
60.272779
 42
0.002261
  0
VERTEX
  8
0
 10
415.193785
 20
60.194049
 42
0.001355
  0
VERTEX
  8
0
 10
434.594123
 20
60.240836
 42
0.000000
  0
VERTEX
  8
0
 10
485.188247
 20
60.500000
 42
0.000000
  0
VERTEX
  8
0
 10
488.594123
 20
68.943047
 42
0.001180
  0
VERTEX
  8
0
 10
489.899733
 20
72.201748
 42
0.001878
  0
VERTEX
  8
0
 10
490.999524
 20
74.996116
 42
0.000378
  0
VERTEX
  8
0
 10
491.956425
 20
77.459994
 42
0.092685
  0
VERTEX
  8
0
 10
492.000000
 20
77.693047
 42
0.412422
  0
VERTEX
  8
0
 10
491.874468
 20
77.819349
 42
0.000036
  0
VERTEX
  8
0
 10
477.092188
 20
77.908771
 42
0.000945
  0
VERTEX
  8
0
 10
460.710127
 20
77.975715
 42
0.000567
  0
VERTEX
  8
0
 10
441.250000
 20
77.996387
 42
0.000000
  0
VERTEX
  8
0
 10
390.500000
 20
77.992774
 42
0.000000
  0
SEQEND
  0
POLYLINE
  8
0
 66
1
 70
1
  0
VERTEX
  8
0
 10
36.945223
 20
55.355925
 42
-0.006046
  0
VERTEX
  8
0
 10
36.521544
 20
54.280880
 42
-0.006407
  0
VERTEX
  8
0
 10
36.079856
 20
53.237118
 42
-0.006140
  0
VERTEX
  8
0
 10
35.677112
 20
52.348217
 42
-0.028979
  0
VERTEX
  8
0
 10
35.410956
 20
51.855925
 42
0.567222
  0
VERTEX
  8
0
 10
35.590112
 20
51.510421
 42
0.002858
  0
VERTEX
  8
0
 10
40.313457
 20
51.251428
 42
0.007794
  0
VERTEX
  8
0
 10
45.991861
 20
51.061277
 42
0.004472
  0
VERTEX
  8
0
 10
52.843158
 20
51.000000
 42
0.000000
  0
VERTEX
  8
0
 10
70.804350
 20
51.000000
 42
0.000000
  0
VERTEX
  8
0
 10
71.902175
 20
54.149223
 42
0.003221
  0
VERTEX
  8
0
 10
72.322798
 20
55.381298
 42
0.004650
  0
VERTEX
  8
0
 10
72.677514
 20
56.476403
 42
0.002488
  0
VERTEX
  8
0
 10
72.963956
 20
57.405788
 42
0.073630
  0
VERTEX
  8
0
 10
73.000000
 20
57.649223
 42
0.407904
  0
VERTEX
  8
0
 10
72.859508
 20
57.792782
 42
0.000394
  0
VERTEX
  8
0
 10
67.852104
 20
57.896959
 42
0.003128
  0
VERTEX
  8
0
 10
62.195105
 20
57.974793
 42
0.001876
  0
VERTEX
  8
0
 10
55.475249
 20
58.000000
 42
0.000000
  0
VERTEX
  8
0
 10
37.950498
 20
58.000000
 42
0.000000
  0
SEQEND
  0
POLYLINE
  8
0
 66
1
 70
1
  0
VERTEX
  8
0
 10
151.160515
 20
55.452947
 42
0.012778
  0
VERTEX
  8
0
 10
150.716254
 20
54.407921
 42
0.014063
  0
VERTEX
  8
0
 10
150.340901
 20
53.374163
 42
0.013555
  0
VERTEX
  8
0
 10
150.070032
 20
52.476494
 42
0.066586
  0
VERTEX
  8
0
 10
150.000000
 20
51.952947
 42
0.394020
  0
VERTEX
  8
0
 10
150.385157
 20
51.540073
 42
0.003778
  0
VERTEX
  8
0
 10
154.847515
 20
51.263594
 42
0.009146
  0
VERTEX
  8
0
 10
160.409092
 20
51.063115
 42
0.004435
  0
VERTEX
  8
0
 10
167.524751
 20
51.000000
 42
0.000000
  0
VERTEX
  8
0
 10
185.049502
 20
51.000000
 42
0.000000
  0
VERTEX
  8
0
 10
186.024751
 20
53.565100
 42
0.010942
  0
VERTEX
  8
0
 10
186.398092
 20
54.615710
 42
0.011952
  0
VERTEX
  8
0
 10
186.713521
 20
55.651328
 42
0.011461
  0
VERTEX
  8
0
 10
186.941327
 20
56.547869
 42
0.056537
  0
VERTEX
  8
0
 10
187.000000
 20
57.065100
 42
0.394568
  0
VERTEX
  8
0
 10
186.628971
 20
57.462073
 42
0.003418
  0
VERTEX
  8
0
 10
182.113280
 20
57.736521
 42
0.008874
  0
VERTEX
  8
0
 10
176.580260
 20
57.936444
 42
0.004592
  0
VERTEX
  8
0
 10
169.660515
 20
58.000000
 42
0.000000
  0
VERTEX
  8
0
 10
152.321030
 20
58.000000
 42
0.000000
  0
SEQEND
  0
POLYLINE
  8
0
 66
1
 70
1
  0
VERTEX
  8
0
 10
332.097825
 20
54.850777
 42
0.003221
  0
VERTEX
  8
0
 10
331.677202
 20
53.618702
 42
0.004650
  0
VERTEX
  8
0
 10
331.322486
 20
52.523597
 42
0.002488
  0
VERTEX
  8
0
 10
331.036044
 20
51.594212
 42
0.073630
  0
VERTEX
  8
0
 10
331.000000
 20
51.350777
 42
0.407904
  0
VERTEX
  8
0
 10
331.140492
 20
51.207218
 42
0.000394
  0
VERTEX
  8
0
 10
336.147896
 20
51.103041
 42
0.003128
  0
VERTEX
  8
0
 10
341.804895
 20
51.025207
 42
0.001876
  0
VERTEX
  8
0
 10
348.524751
 20
51.000000
 42
0.000000
  0
VERTEX
  8
0
 10
366.049502
 20
51.000000
 42
0.000000
  0
VERTEX
  8
0
 10
367.024751
 20
53.565100
 42
0.010942
  0
VERTEX
  8
0
 10
367.398092
 20
54.615710
 42
0.011952
  0
VERTEX
  8
0
 10
367.713521
 20
55.651328
 42
0.011461
  0
VERTEX
  8
0
 10
367.941327
 20
56.547869
 42
0.056537
  0
VERTEX
  8
0
 10
368.000000
 20
57.065100
 42
0.394648
  0
VERTEX
  8
0
 10
367.628758
 20
57.462190
 42
0.003397
  0
VERTEX
  8
0
 10
363.096516
 20
57.736569
 42
0.008844
  0
VERTEX
  8
0
 10
357.543789
 20
57.936461
 42
0.004574
  0
VERTEX
  8
0
 10
350.597825
 20
58.000000
 42
0.000000
  0
VERTEX
  8
0
 10
333.195650
 20
58.000000
 42
0.000000
  0
SEQEND
  0
POLYLINE
  8
0
 66
1
 70
1
  0
VERTEX
  8
0
 10
380.975249
 20
54.434900
 42
0.005212
  0
VERTEX
  8
0
 10
380.601699
 20
53.420685
 42
0.007041
  0
VERTEX
  8
0
 10
380.286479
 20
52.495547
 42
0.004956
  0
VERTEX
  8
0
 10
380.041794
 20
51.716688
 42
0.073755
  0
VERTEX
  8
0
 10
380.000000
 20
51.434900
 42
0.406260
  0
VERTEX
  8
0
 10
380.172889
 20
51.257238
 42
0.000605
  0
VERTEX
  8
0
 10
385.147896
 20
51.127752
 42
0.003877
  0
VERTEX
  8
0
 10
390.804908
 20
51.031254
 42
0.002325
  0
VERTEX
  8
0
 10
397.524751
 20
51.000000
 42
0.000000
  0
VERTEX
  8
0
 10
415.049502
 20
51.000000
 42
0.000000
  0
VERTEX
  8
0
 10
416.024751
 20
53.565100
 42
0.005212
  0
VERTEX
  8
0
 10
416.398301
 20
54.579315
 42
0.007041
  0
VERTEX
  8
0
 10
416.713521
 20
55.504453
 42
0.004956
  0
VERTEX
  8
0
 10
416.958206
 20
56.283312
 42
0.073755
  0
VERTEX
  8
0
 10
417.000000
 20
56.565100
 42
0.406260
  0
VERTEX
  8
0
 10
416.827111
 20
56.742762
 42
0.000605
  0
VERTEX
  8
0
 10
411.852104
 20
56.872248
 42
0.003877
  0
VERTEX
  8
0
 10
406.195092
 20
56.968746
 42
0.002325
  0
VERTEX
  8
0
 10
399.475249
 20
57.000000
 42
0.000000
  0
VERTEX
  8
0
 10
381.950498
 20
57.000000
 42
0.000000
  0
SEQEND
  0
POLYLINE
  8
0
 66
1
 70
1
  0
VERTEX
  8
0
 10
446.975249
 20
54.434900
 42
0.005212
  0
VERTEX
  8
0
 10
446.601699
 20
53.420685
 42
0.007041
  0
VERTEX
  8
0
 10
446.286479
 20
52.495547
 42
0.004956
  0
VERTEX
  8
0
 10
446.041794
 20
51.716688
 42
0.073755
  0
VERTEX
  8
0
 10
446.000000
 20
51.434900
 42
0.406230
  0
VERTEX
  8
0
 10
446.172865
 20
51.257244
 42
0.000609
  0
VERTEX
  8
0
 10
451.130290
 20
51.127752
 42
0.003891
  0
VERTEX
  8
0
 10
456.767956
 20
51.031254
 42
0.002333
  0
VERTEX
  8
0
 10
463.464816
 20
51.000000
 42
0.002234
  0
VERTEX
  8
0
 10
474.119708
 20
51.047615
 42
0.023814
  0
VERTEX
  8
0
 10
478.445080
 20
51.292506
 42
0.066370
  0
VERTEX
  8
0
 10
480.733100
 20
51.844480
 42
0.179422
  0
VERTEX
  8
0
 10
481.964816
 20
52.934259
 42
0.151381
  0
VERTEX
  8
0
 10
482.396952
 20
55.170166
 42
0.314683
  0
VERTEX
  8
0
 10
481.282635
 20
56.442442
 42
0.057386
  0
VERTEX
  8
0
 10
477.505495
 20
56.925106
 42
0.003113
  0
VERTEX
  8
0
 10
465.475249
 20
57.000000
 42
0.000000
  0
VERTEX
  8
0
 10
447.950498
 20
57.000000
 42
0.000000
  0
SEQEND
  0
POLYLINE
  8
0
 66
1
 70
1
  0
VERTEX
  8
0
 10
33.094116
 20
45.750000
 42
-0.005297
  0
VERTEX
  8
0
 10
32.603360
 20
44.500598
 42
-0.001122
  0
VERTEX
  8
0
 10
31.720004
 20
42.333851
 42
-0.001174
  0
VERTEX
  8
0
 10
30.684295
 20
39.826414
 42
-0.001115
  0
VERTEX
  8
0
 10
29.618867
 20
37.280132
 42
0.002891
  0
VERTEX
  8
0
 10
28.615292
 20
34.857544
 42
0.004327
  0
VERTEX
  8
0
 10
27.769292
 20
32.728932
 42
0.001876
  0
VERTEX
  8
0
 10
27.070167
 20
30.904235
 42
0.090784
  0
VERTEX
  8
0
 10
27.000000
 20
30.520968
 42
0.412464
  0
VERTEX
  8
0
 10
27.219082
 20
30.300572
 42
0.000112
  0
VERTEX
  8
0
 10
41.878961
 20
30.216219
 42
0.001664
  0
VERTEX
  8
0
 10
58.229321
 20
30.180212
 42
0.000998
  0
VERTEX
  8
0
 10
77.651783
 20
30.240836
 42
0.000000
  0
VERTEX
  8
0
 10
128.303565
 20
30.500000
 42
0.000000
  0
VERTEX
  8
0
 10
131.651783
 20
38.346557
 42
0.003867
  0
VERTEX
  8
0
 10
132.934637
 20
41.418532
 42
0.005597
  0
VERTEX
  8
0
 10
134.016461
 20
44.153574
 42
0.003021
  0
VERTEX
  8
0
 10
134.889290
 20
46.476513
 42
0.088576
  0
VERTEX
  8
0
 10
135.000000
 20
47.096557
 42
0.408539
  0
VERTEX
  8
0
 10
134.616781
 20
47.487289
 42
0.000383
  0
VERTEX
  8
0
 10
120.768837
 20
47.745530
 42
0.002949
  0
VERTEX
  8
0
 10
104.649738
 20
47.938653
 42
0.001520
  0
VERTEX
  8
0
 10
84.475249
 20
48.000000
 42
0.000000
  0
VERTEX
  8
0
 10
33.950498
 20
48.000000
 42
0.000000
  0
SEQEND
  0
POLYLINE
  8
0
 66
1
 70
1
  0
VERTEX
  8
0
 10
146.506025
 20
43.750000
 42
0.000463
  0
VERTEX
  8
0
 10
145.714829
 20
41.779620
 42
0.000248
  0
VERTEX
  8
0
 10
144.741779
 20
39.346353
 42
0.000247
  0
VERTEX
  8
0
 10
143.751716
 20
36.863409
 42
0.000387
  0
VERTEX
  8
0
 10
142.902951
 20
34.726948
 42
0.000000
  0
VERTEX
  8
0
 10
141.011012
 20
29.953896
 42
0.000000
  0
VERTEX
  8
0
 10
158.677771
 20
30.226948
 42
0.000000
  0
VERTEX
  8
0
 10
176.344530
 20
30.500000
 42
0.000000
  0
VERTEX
  8
0
 10
179.087384
 20
37.194885
 42
0.008811
  0
VERTEX
  8
0
 10
182.249886
 20
45.319298
 42
0.322038
  0
VERTEX
  8
0
 10
181.746375
 20
47.142093
 42
0.168601
  0
VERTEX
  8
0
 10
179.547319
 20
47.930201
 42
0.002516
  0
VERTEX
  8
0
 10
165.675967
 20
48.000000
 42
0.000000
  0
VERTEX
  8
0
 10
148.217159
 20
48.000000
 42
0.000000
  0
SEQEND
  0
POLYLINE
  8
0
 66
1
 70
1
  0
VERTEX
  8
0
 10
262.090024
 20
45.750000
 42
-0.003290
  0
VERTEX
  8
0
 10
261.599019
 20
44.490999
 42
-0.000675
  0
VERTEX
  8
0
 10
260.714224
 20
42.274355
 42
-0.000710
  0
VERTEX
  8
0
 10
259.678939
 20
39.701412
 42
-0.000667
  0
VERTEX
  8
0
 10
258.614775
 20
37.077592
 42
0.001808
  0
VERTEX
  8
0
 10
257.612564
 20
34.590248
 42
0.002810
  0
VERTEX
  8
0
 10
256.768090
 20
32.437237
 42
0.000833
  0
VERTEX
  8
0
 10
256.048609
 20
30.562844
 42
0.091464
  0
VERTEX
  8
0
 10
256.000000
 20
30.299341
 42
0.413669
  0
VERTEX
  8
0
 10
256.145222
 20
30.153849
 42
0.000056
  0
VERTEX
  8
0
 10
269.928131
 20
30.129764
 42
0.001173
  0
VERTEX
  8
0
 10
285.233625
 20
30.140624
 42
0.000703
  0
VERTEX
  8
0
 10
303.414916
 20
30.221749
 42
0.000000
  0
VERTEX
  8
0
 10
350.829831
 20
30.500000
 42
0.000000
  0
VERTEX
  8
0
 10
355.089147
 20
33.500000
 42
0.059313
  0
VERTEX
  8
0
 10
358.016952
 20
36.131336
 42
0.032415
  0
VERTEX
  8
0
 10
360.963182
 20
39.963906
 42
0.031416
  0
VERTEX
  8
0
 10
363.267143
 20
43.916367
 42
0.111058
  0
VERTEX
  8
0
 10
363.971830
 20
46.750000
 42
0.410618
  0
VERTEX
  8
0
 10
363.305088
 20
47.456124
 42
0.002519
  0
VERTEX
  8
0
 10
353.644914
 20
47.743954
 42
0.005196
  0
VERTEX
  8
0
 10
339.391305
 20
47.948613
 42
0.000991
  0
VERTEX
  8
0
 10
313.475249
 20
48.000000
 42
0.000000
  0
VERTEX
  8
0
 10
262.950498
 20
48.000000
 42
0.000000
  0
SEQEND
  0
POLYLINE
  8
0
 66
1
 70
1
  0
VERTEX
  8
0
 10
376.506025
 20
43.750000
 42
0.000463
  0
VERTEX
  8
0
 10
375.714829
 20
41.779620
 42
0.000248
  0
VERTEX
  8
0
 10
374.741779
 20
39.346353
 42
0.000247
  0
VERTEX
  8
0
 10
373.751716
 20
36.863409
 42
0.000387
  0
VERTEX
  8
0
 10
372.902951
 20
34.726948
 42
0.000000
  0
VERTEX
  8
0
 10
371.011012
 20
29.953896
 42
0.000000
  0
VERTEX
  8
0
 10
388.658106
 20
30.226948
 42
0.000000
  0
VERTEX
  8
0
 10
406.305201
 20
30.500000
 42
0.000000
  0
VERTEX
  8
0
 10
409.652601
 20
38.346557
 42
0.003866
  0
VERTEX
  8
0
 10
410.935141
 20
41.418532
 42
0.005596
  0
VERTEX
  8
0
 10
412.016701
 20
44.153574
 42
0.003020
  0
VERTEX
  8
0
 10
412.889314
 20
46.476507
 42
0.088556
  0
VERTEX
  8
0
 10
413.000000
 20
47.096557
 42
0.395924
  0
VERTEX
  8
0
 10
412.652908
 20
47.466177
 42
0.002736
  0
VERTEX
  8
0
 10
407.937462
 20
47.737013
 42
0.008207
  0
VERTEX
  8
0
 10
402.337201
 20
47.935832
 42
0.004768
  0
VERTEX
  8
0
 10
395.608580
 20
48.000000
 42
0.000000
  0
VERTEX
  8
0
 10
378.217159
 20
48.000000
 42
0.000000
  0
SEQEND
  0
POLYLINE
  8
0
 66
1
 70
1
  0
VERTEX
  8
0
 10
440.825843
 20
38.983054
 42
0.000000
  0
VERTEX
  8
0
 10
437.151685
 20
30.000000
 42
0.000000
  0
VERTEX
  8
0
 10
454.899600
 20
30.000000
 42
0.000000
  0
VERTEX
  8
0
 10
472.647514
 20
30.000000
 42
0.000000
  0
VERTEX
  8
0
 10
476.231120
 20
39.000000
 42
0.000000
  0
VERTEX
  8
0
 10
479.814725
 20
48.000000
 42
0.000000
  0
VERTEX
  8
0
 10
462.157362
 20
47.983054
 42
0.000000
  0
VERTEX
  8
0
 10
444.500000
 20
47.966107
 42
0.000000
  0
SEQEND
  0
POLYLINE
  8
0
 66
1
 70
1
  0
VERTEX
  8
0
 10
31.628971
 20
20.208679
 42
0.048115
  0
VERTEX
  8
0
 10
30.737812
 20
18.398254
 42
0.002549
  0
VERTEX
  8
0
 10
28.491606
 20
12.360535
 42
0.001616
  0
VERTEX
  8
0
 10
26.217420
 20
6.088226
 42
0.086364
  0
VERTEX
  8
0
 10
26.000000
 20
4.838876
 42
0.419907
  0
VERTEX
  8
0
 10
26.921485
 20
3.935095
 42
0.009594
  0
VERTEX
  8
0
 10
33.693150
 20
4.196515
 42
0.009982
  0
VERTEX
  8
0
 10
40.470429
 20
4.724424
 42
0.296661
  0
VERTEX
  8
0
 10
41.753079
 20
5.750000
 42
0.325028
  0
VERTEX
  8
0
 10
41.570354
 20
6.322438
 42
0.103562
  0
VERTEX
  8
0
 10
40.707173
 20
6.715090
 42
0.044475
  0
VERTEX
  8
0
 10
39.013147
 20
6.939377
 42
0.010686
  0
VERTEX
  8
0
 10
36.176953
 20
7.000000
 42
-0.006853
  0
VERTEX
  8
0
 10
32.572513
 20
7.049407
 42
-0.081005
  0
VERTEX
  8
0
 10
31.202074
 20
7.311647
 42
-0.259773
  0
VERTEX
  8
0
 10
30.681850
 20
7.914739
 42
-0.115314
  0
VERTEX
  8
0
 10
30.710251
 20
9.000000
 42
-0.122377
  0
VERTEX
  8
0
 10
31.281643
 20
10.047617
 42
-0.137368
  0
VERTEX
  8
0
 10
32.255344
 20
10.651188
 42
-0.061399
  0
VERTEX
  8
0
 10
34.017269
 20
10.934141
 42
-0.009148
  0
VERTEX
  8
0
 10
37.616631
 20
11.000000
 42
0.009676
  0
VERTEX
  8
0
 10
40.873701
 20
11.063036
 42
0.048061
  0
VERTEX
  8
0
 10
42.686105
 20
11.308746
 42
0.109606
  0
VERTEX
  8
0
 10
43.646730
 20
11.771761
 42
0.229748
  0
VERTEX
  8
0
 10
44.000000
 20
12.500000
 42
0.213755
  0
VERTEX
  8
0
 10
43.678699
 20
13.217223
 42
0.117296
  0
VERTEX
  8
0
 10
42.815502
 20
13.683119
 42
0.053637
  0
VERTEX
  8
0
 10
41.202528
 20
13.933881
 42
0.011765
  0
VERTEX
  8
0
 10
38.393011
 20
14.000000
 42
-0.008661
  0
VERTEX
  8
0
 10
35.335568
 20
14.052966
 42
-0.068043
  0
VERTEX
  8
0
 10
33.938880
 20
14.293464
 42
-0.224458
  0
VERTEX
  8
0
 10
33.398837
 20
14.794545
 42
-0.189111
  0
VERTEX
  8
0
 10
33.393011
 20
15.581787
 42
0.008099
  0
VERTEX
  8
0
 10
33.625425
 20
16.218074
 42
0.009838
  0
VERTEX
  8
0
 10
33.821697
 20
16.821775
 42
0.008575
  0
VERTEX
  8
0
 10
33.967516
 20
17.333672
 42
0.065182
  0
VERTEX
  8
0
 10
34.000000
 20
17.581787
 42
-0.390915
  0
VERTEX
  8
0
 10
34.155473
 20
17.750256
 42
-0.003986
  0
VERTEX
  8
0
 10
35.909375
 20
17.877150
 42
-0.010032
  0
VERTEX
  8
0
 10
38.007666
 20
17.969933
 42
-0.006032
  0
VERTEX
  8
0
 10
40.500000
 20
18.000000
 42
0.009420
  0
VERTEX
  8
0
 10
43.824386
 20
18.062640
 42
0.047315
  0
VERTEX
  8
0
 10
45.666667
 20
18.307692
 42
0.108427
  0
VERTEX
  8
0
 10
46.642085
 20
18.770252
 42
0.232029
  0
VERTEX
  8
0
 10
47.000000
 20
19.500000
 42
0.249281
  0
VERTEX
  8
0
 10
46.606125
 20
20.240931
 42
0.098989
  0
VERTEX
  8
0
 10
45.509836
 20
20.699603
 42
0.042009
  0
VERTEX
  8
0
 10
43.427105
 20
20.940075
 42
0.007746
  0
VERTEX
  8
0
 10
39.559017
 20
21.000000
 42
0.009932
  0
VERTEX
  8
0
 10
36.672173
 20
20.942650
 42
0.014934
  0
VERTEX
  8
0
 10
34.160160
 20
20.767550
 42
0.009715
  0
VERTEX
  8
0
 10
32.110663
 20
20.522735
 42
0.223332
  0
SEQEND
  0
POLYLINE
  8
0
 66
1
 70
1
  0
VERTEX
  8
0
 10
51.000000
 20
19.708006
 42
0.139286
  0
VERTEX
  8
0
 10
48.536033
 20
17.438072
 42
0.038983
  0
VERTEX
  8
0
 10
46.132659
 20
12.725920
 42
0.036513
  0
VERTEX
  8
0
 10
44.514617
 20
7.855129
 42
0.239544
  0
VERTEX
  8
0
 10
45.065232
 20
5.421401
 42
0.191406
  0
VERTEX
  8
0
 10
47.458339
 20
4.114555
 42
0.040101
  0
VERTEX
  8
0
 10
52.321240
 20
3.912935
 42
0.041184
  0
VERTEX
  8
0
 10
57.237532
 20
4.510947
 42
0.146544
  0
VERTEX
  8
0
 10
60.000000
 20
6.000000
 42
0.058666
  0
VERTEX
  8
0
 10
61.324375
 20
7.677850
 42
0.101335
  0
VERTEX
  8
0
 10
61.930096
 20
9.342287
 42
0.185689
  0
VERTEX
  8
0
 10
61.670603
 20
10.501860
 42
0.250938
  0
VERTEX
  8
0
 10
60.740547
 20
11.000000
 42
0.121331
  0
VERTEX
  8
0
 10
60.168942
 20
10.859221
 42
0.047568
  0
VERTEX
  8
0
 10
59.484158
 20
10.412500
 42
0.043473
  0
VERTEX
  8
0
 10
58.803095
 20
9.765207
 42
0.041443
  0
VERTEX
  8
0
 10
58.232073
 20
9.000000
 42
-0.083663
  0
VERTEX
  8
0
 10
57.381662
 20
8.040473
 42
-0.086978
  0
VERTEX
  8
0
 10
56.274456
 20
7.428169
 42
-0.061541
  0
VERTEX
  8
0
 10
54.717600
 20
7.098433
 42
-0.021450
  0
VERTEX
  8
0
 10
52.424138
 20
7.000000
 42
-0.009321
  0
VERTEX
  8
0
 10
49.633121
 20
7.052037
 42
-0.122478
  0
VERTEX
  8
0
 10
48.647622
 20
7.336517
 42
-0.283154
  0
VERTEX
  8
0
 10
48.310978
 20
7.961376
 42
-0.058230
  0
VERTEX
  8
0
 10
48.537524
 20
9.250000
 42
-0.023313
  0
VERTEX
  8
0
 10
48.913421
 20
10.322966
 42
-0.009984
  0
VERTEX
  8
0
 10
49.510082
 20
11.720313
 42
-0.009854
  0
VERTEX
  8
0
 10
50.206243
 20
13.186722
 42
-0.012802
  0
VERTEX
  8
0
 10
50.904278
 20
14.500000
 42
-0.042883
  0
VERTEX
  8
0
 10
51.971183
 20
16.059954
 42
-0.093755
  0
VERTEX
  8
0
 10
53.076003
 20
16.987247
 42
-0.082234
  0
VERTEX
  8
0
 10
54.537905
 20
17.516243
 42
-0.027513
  0
VERTEX
  8
0
 10
56.799367
 20
17.807498
 42
-0.015808
  0
VERTEX
  8
0
 10
58.922951
 20
17.895589
 42
-0.074908
  0
VERTEX
  8
0
 10
60.125098
 20
17.726557
 42
-0.160957
  0
VERTEX
  8
0
 10
60.757192
 20
17.286271
 42
-0.162204
  0
VERTEX
  8
0
 10
61.000000
 20
16.557498
 42
0.121425
  0
VERTEX
  8
0
 10
61.150196
 20
15.948144
 42
0.106857
  0
VERTEX
  8
0
 10
61.571028
 20
15.444687
 42
0.093781
  0
VERTEX
  8
0
 10
62.215365
 20
15.113622
 42
0.072029
  0
VERTEX
  8
0
 10
63.000000
 20
15.000000
 42
0.195921
  0
VERTEX
  8
0
 10
64.403778
 20
15.572018
 42
0.198464
  0
VERTEX
  8
0
 10
64.998225
 20
16.958352
 42
0.151662
  0
VERTEX
  8
0
 10
64.490941
 20
18.672113
 42
0.123264
  0
VERTEX
  8
0
 10
63.065741
 20
19.964816
 42
0.090115
  0
VERTEX
  8
0
 10
60.624686
 20
20.751202
 42
0.038316
  0
VERTEX
  8
0
 10
57.181820
 20
20.941833
 42
0.038293
  0
VERTEX
  8
0
 10
53.675818
 20
20.597744
 42
0.073448
  0
SEQEND
  0
POLYLINE
  8
0
 66
1
 70
1
  0
VERTEX
  8
0
 10
67.671257
 20
17.750000
 42
0.016124
  0
VERTEX
  8
0
 10
64.666444
 20
9.837112
 42
0.160466
  0
VERTEX
  8
0
 10
64.622852
 20
6.336570
 42
0.274866
  0
VERTEX
  8
0
 10
66.664143
 20
4.515117
 42
0.048053
  0
VERTEX
  8
0
 10
72.011661
 20
4.000000
 42
0.043559
  0
VERTEX
  8
0
 10
76.625042
 20
4.402669
 42
0.118486
  0
VERTEX
  8
0
 10
79.612841
 20
5.701249
 42
0.108942
  0
VERTEX
  8
0
 10
81.830170
 20
8.291940
 42
0.033682
  0
VERTEX
  8
0
 10
83.952643
 20
13.000000
 42
0.009003
  0
VERTEX
  8
0
 10
85.438042
 20
17.223478
 42
0.058815
  0
VERTEX
  8
0
 10
85.889947
 20
19.422402
 42
0.184109
  0
VERTEX
  8
0
 10
85.572274
 20
20.531548
 42
0.236178
  0
VERTEX
  8
0
 10
84.635858
 20
21.000000
 42
0.215785
  0
VERTEX
  8
0
 10
84.000151
 20
20.712250
 42
0.034872
  0
VERTEX
  8
0
 10
83.156470
 20
19.604688
 42
0.033149
  0
VERTEX
  8
0
 10
82.287524
 20
18.069241
 42
0.023636
  0
VERTEX
  8
0
 10
81.515247
 20
16.250000
 42
-0.014880
  0
VERTEX
  8
0
 10
79.378911
 20
10.962006
 42
-0.090273
  0
VERTEX
  8
0
 10
77.732855
 20
8.523482
 42
-0.142703
  0
VERTEX
  8
0
 10
75.689281
 20
7.371035
 42
-0.057560
  0
VERTEX
  8
0
 10
72.476947
 20
7.000000
 42
-0.020267
  0
VERTEX
  8
0
 10
70.760979
 20
7.069582
 42
-0.032715
  0
VERTEX
  8
0
 10
69.315103
 20
7.282875
 42
-0.035198
  0
VERTEX
  8
0
 10
68.261251
 20
7.588467
 42
-0.314327
  0
VERTEX
  8
0
 10
68.000000
 20
7.962980
 42
-0.074195
  0
VERTEX
  8
0
 10
68.091118
 20
8.573642
 42
-0.005918
  0
VERTEX
  8
0
 10
68.587500
 20
10.133584
 42
-0.007908
  0
VERTEX
  8
0
 10
69.234002
 20
11.986373
 42
-0.005981
  0
VERTEX
  8
0
 10
70.000000
 20
14.000000
 42
0.007347
  0
VERTEX
  8
0
 10
71.502532
 20
17.982511
 42
0.068321
  0
VERTEX
  8
0
 10
71.884191
 20
19.776259
 42
0.242767
  0
VERTEX
  8
0
 10
71.516357
 20
20.638794
 42
0.174585
  0
VERTEX
  8
0
 10
70.513420
 20
21.000000
 42
0.163847
  0
VERTEX
  8
0
 10
69.848194
 20
20.775995
 42
0.050700
  0
VERTEX
  8
0
 10
69.065320
 20
20.045313
 42
0.044583
  0
VERTEX
  8
0
 10
68.299573
 20
18.993846
 42
0.036310
  0
SEQEND
  0
POLYLINE
  8
0
 66
1
 70
1
  0
VERTEX
  8
0
 10
87.705178
 20
14.250000
 42
-0.000489
  0
VERTEX
  8
0
 10
86.686799
 20
11.537345
 42
-0.000574
  0
VERTEX
  8
0
 10
85.716266
 20
8.968750
 42
-0.000504
  0
VERTEX
  8
0
 10
84.891490
 20
6.800064
 42
-0.003565
  0
VERTEX
  8
0
 10
84.482328
 20
5.750000
 42
0.052311
  0
VERTEX
  8
0
 10
84.247213
 20
4.914006
 42
0.194232
  0
VERTEX
  8
0
 10
84.361224
 20
4.389544
 42
0.193685
  0
VERTEX
  8
0
 10
84.807743
 20
4.090301
 42
0.051994
  0
VERTEX
  8
0
 10
85.673774
 20
4.000000
 42
0.116882
  0
VERTEX
  8
0
 10
86.537179
 20
4.204628
 42
0.079326
  0
VERTEX
  8
0
 10
87.360780
 20
4.797261
 42
0.064938
  0
VERTEX
  8
0
 10
88.095634
 20
5.745974
 42
0.042133
  0
VERTEX
  8
0
 10
88.693898
 20
7.000000
 42
-0.040748
  0
VERTEX
  8
0
 10
89.480843
 20
8.661329
 42
-0.134669
  0
VERTEX
  8
0
 10
90.334677
 20
9.504718
 42
-0.107254
  0
VERTEX
  8
0
 10
91.616075
 20
9.898051
 42
-0.021037
  0
VERTEX
  8
0
 10
94.038136
 20
10.000000
 42
-0.010771
  0
VERTEX
  8
0
 10
96.754707
 20
9.941473
 42
-0.163955
  0
VERTEX
  8
0
 10
97.620520
 20
9.607545
 42
-0.247212
  0
VERTEX
  8
0
 10
97.923282
 20
8.877174
 42
-0.026421
  0
VERTEX
  8
0
 10
97.650000
 20
7.000000
 42
0.021348
  0
VERTEX
  8
0
 10
97.400115
 20
5.397675
 42
0.128681
  0
VERTEX
  8
0
 10
97.519907
 20
4.571197
 42
0.219697
  0
VERTEX
  8
0
 10
97.990422
 20
4.142971
 42
0.076614
  0
VERTEX
  8
0
 10
98.918011
 20
4.000000
 42
0.135934
  0
VERTEX
  8
0
 10
100.224959
 20
4.362007
 42
0.125601
  0
VERTEX
  8
0
 10
101.206211
 20
5.352961
 42
0.090254
  0
VERTEX
  8
0
 10
101.807078
 20
6.996151
 42
0.042663
  0
VERTEX
  8
0
 10
102.000000
 20
9.253047
 42
-0.054824
  0
VERTEX
  8
0
 10
102.100673
 20
10.168438
 42
-0.035305
  0
VERTEX
  8
0
 10
102.405880
 20
11.192491
 42
-0.035289
  0
VERTEX
  8
0
 10
102.852473
 20
12.164249
 42
-0.054456
  0
VERTEX
  8
0
 10
103.381719
 20
12.921259
 42
0.036015
  0
VERTEX
  8
0
 10
103.960758
 20
13.687794
 42
0.019954
  0
VERTEX
  8
0
 10
104.558901
 20
14.696954
 42
0.019811
  0
VERTEX
  8
0
 10
105.085962
 20
15.772835
 42
0.030037
  0
VERTEX
  8
0
 10
105.448861
 20
16.749224
 42
0.212252
  0
VERTEX
  8
0
 10
105.222543
 20
18.587475
 42
0.157371
  0
VERTEX
  8
0
 10
103.661384
 20
19.950704
 42
0.077596
  0
VERTEX
  8
0
 10
100.490007
 20
20.763044
 42
0.023973
  0
VERTEX
  8
0
 10
95.550761
 20
21.000000
 42
0.000000
  0
VERTEX
  8
0
 10
90.231721
 20
21.000000
 42
0.000000
  0
SEQEND
  0
POLYLINE
  8
0
 66
1
 70
1
  0
VERTEX
  8
0
 10
101.408950
 20
17.147322
 42
-0.240866
  0
VERTEX
  8
0
 10
101.530732
 20
15.644292
 42
-0.151130
  0
VERTEX
  8
0
 10
100.380897
 20
14.256411
 42
-0.097390
  0
VERTEX
  8
0
 10
98.114819
 20
13.338751
 42
-0.067171
  0
VERTEX
  8
0
 10
95.342624
 20
13.182058
 42
-0.011609
  0
VERTEX
  8
0
 10
92.889355
 20
13.430421
 42
-0.137148
  0
VERTEX
  8
0
 10
92.014471
 20
13.796924
 42
-0.270259
  0
VERTEX
  8
0
 10
91.757562
 20
14.452308
 42
-0.050683
  0
VERTEX
  8
0
 10
92.096664
 20
15.750000
 42
-0.072972
  0
VERTEX
  8
0
 10
92.716764
 20
16.878209
 42
-0.121893
  0
VERTEX
  8
0
 10
93.554555
 20
17.555643
 42
-0.085997
  0
VERTEX
  8
0
 10
94.826098
 20
17.901807
 42
-0.023561
  0
VERTEX
  8
0
 10
96.908759
 20
18.000000
 42
-0.019958
  0
VERTEX
  8
0
 10
98.468860
 20
17.937703
 42
-0.026865
  0
VERTEX
  8
0
 10
99.869638
 20
17.749526
 42
-0.026123
  0
VERTEX
  8
0
 10
100.976265
 20
17.479314
 42
-0.183390
  0
SEQEND
  0
POLYLINE
  8
0
 66
1
 70
1
  0
VERTEX
  8
0
 10
109.117888
 20
18.750000
 42
-0.000030
  0
VERTEX
  8
0
 10
108.660814
 20
17.515055
 42
-0.000007
  0
VERTEX
  8
0
 10
107.890127
 20
15.433247
 42
-0.000007
  0
VERTEX
  8
0
 10
107.002309
 20
13.035246
 42
-0.000007
  0
VERTEX
  8
0
 10
106.107473
 20
10.618499
 42
0.009646
  0
VERTEX
  8
0
 10
104.723825
 20
6.648178
 42
0.087157
  0
VERTEX
  8
0
 10
104.464311
 20
4.835130
 42
0.351628
  0
VERTEX
  8
0
 10
105.031152
 20
4.172912
 42
0.139139
  0
VERTEX
  8
0
 10
106.308236
 20
4.288040
 42
0.197207
  0
VERTEX
  8
0
 10
107.454054
 20
5.368015
 42
0.006057
  0
VERTEX
  8
0
 10
110.116835
 20
11.437353
 42
0.009471
  0
VERTEX
  8
0
 10
112.509088
 20
17.385562
 42
0.091112
  0
VERTEX
  8
0
 10
113.000000
 20
20.057210
 42
0.289210
  0
VERTEX
  8
0
 10
112.487979
 20
20.868376
 42
0.194779
  0
VERTEX
  8
0
 10
111.361311
 20
20.935989
 42
0.112599
  0
VERTEX
  8
0
 10
109.994387
 20
20.099698
 42
0.111222
  0
SEQEND
  0
POLYLINE
  8
0
 66
1
 70
1
  0
VERTEX
  8
0
 10
114.705178
 20
14.250000
 42
-0.000489
  0
VERTEX
  8
0
 10
113.686799
 20
11.537345
 42
-0.000574
  0
VERTEX
  8
0
 10
112.716266
 20
8.968750
 42
-0.000504
  0
VERTEX
  8
0
 10
111.891490
 20
6.800064
 42
-0.003565
  0
VERTEX
  8
0
 10
111.482328
 20
5.750000
 42
0.210264
  0
VERTEX
  8
0
 10
111.515002
 20
4.837824
 42
0.225879
  0
VERTEX
  8
0
 10
112.207092
 20
4.282493
 42
0.053320
  0
VERTEX
  8
0
 10
114.090174
 20
4.045191
 42
0.004704
  0
VERTEX
  8
0
 10
118.893011
 20
4.000000
 42
0.006865
  0
VERTEX
  8
0
 10
123.146416
 20
4.058404
 42
0.038894
  0
VERTEX
  8
0
 10
125.398835
 20
4.296256
 42
0.092574
  0
VERTEX
  8
0
 10
126.582275
 20
4.751976
 42
0.260300
  0
VERTEX
  8
0
 10
127.000000
 20
5.500000
 42
0.211442
  0
VERTEX
  8
0
 10
126.683247
 20
6.215544
 42
0.118311
  0
VERTEX
  8
0
 10
125.833333
 20
6.681818
 42
0.054498
  0
VERTEX
  8
0
 10
124.247932
 20
6.933383
 42
0.012120
  0
VERTEX
  8
0
 10
121.500000
 20
7.000000
 42
-0.012808
  0
VERTEX
  8
0
 10
119.392433
 20
7.053998
 42
-0.021171
  0
VERTEX
  8
0
 10
117.620123
 20
7.220313
 42
-0.016622
  0
VERTEX
  8
0
 10
116.251759
 20
7.453992
 42
-0.361867
  0
VERTEX
  8
0
 10
116.015313
 20
7.750000
 42
-0.155524
  0
VERTEX
  8
0
 10
116.500402
 20
9.170894
 42
-0.125462
  0
VERTEX
  8
0
 10
117.757212
 20
10.194754
 42
-0.072849
  0
VERTEX
  8
0
 10
119.978885
 20
10.854221
 42
-0.022793
  0
VERTEX
  8
0
 10
123.445003
 20
11.193353
 42
0.019452
  0
VERTEX
  8
0
 10
128.564785
 20
11.659783
 42
0.276320
  0
VERTEX
  8
0
 10
129.948273
 20
12.753465
 42
0.496275
  0
VERTEX
  8
0
 10
129.305298
 20
13.782103
 42
0.022708
  0
VERTEX
  8
0
 10
124.510009
 20
14.000000
 42
-0.008947
  0
VERTEX
  8
0
 10
121.358732
 20
14.056393
 42
-0.070559
  0
VERTEX
  8
0
 10
119.923343
 20
14.312656
 42
-0.203776
  0
VERTEX
  8
0
 10
119.303192
 20
14.856135
 42
-0.160558
  0
VERTEX
  8
0
 10
119.185651
 20
15.750000
 42
-0.167261
  0
VERTEX
  8
0
 10
119.691616
 20
16.635522
 42
-0.099899
  0
VERTEX
  8
0
 10
120.754704
 20
17.245759
 42
-0.050071
  0
VERTEX
  8
0
 10
122.634130
 20
17.669795
 42
-0.011009
  0
VERTEX
  8
0
 10
125.930872
 20
18.000000
 42
0.015206
  0
VERTEX
  8
0
 10
128.576123
 20
18.287391
 42
0.028107
  0
VERTEX
  8
0
 10
130.696674
 20
18.705839
 42
0.030475
  0
VERTEX
  8
0
 10
132.237092
 20
19.202602
 42
0.223601
  0
VERTEX
  8
0
 10
132.755230
 20
19.750000
 42
0.374131
  0
VERTEX
  8
0
 10
132.506563
 20
20.341388
 42
0.073330
  0
VERTEX
  8
0
 10
131.314512
 20
20.723688
 42
0.033540
  0
VERTEX
  8
0
 10
129.065058
 20
20.942324
 42
0.007459
  0
VERTEX
  8
0
 10
125.199194
 20
21.000000
 42
0.000000
  0
VERTEX
  8
0
 10
117.231721
 20
21.000000
 42
0.000000
  0
SEQEND
  0
POLYLINE
  8
0
 66
1
 70
1
  0
VERTEX
  8
0
 10
153.967542
 20
18.939352
 42
0.020449
  0
VERTEX
  8
0
 10
153.394601
 20
17.754802
 42
0.004083
  0
VERTEX
  8
0
 10
152.476690
 20
15.592459
 42
0.004312
  0
VERTEX
  8
0
 10
151.449784
 20
13.055760
 42
0.004008
  0
VERTEX
  8
0
 10
150.440951
 20
10.439352
 42
0.004170
  0
VERTEX
  8
0
 10
148.946424
 20
6.366030
 42
0.065384
  0
VERTEX
  8
0
 10
148.634114
 20
4.920152
 42
0.283908
  0
VERTEX
  8
0
 10
148.968277
 20
4.264108
 42
0.137464
  0
VERTEX
  8
0
 10
149.910768
 20
4.000000
 42
0.114983
  0
VERTEX
  8
0
 10
150.779499
 20
4.202455
 42
0.084622
  0
VERTEX
  8
0
 10
151.582756
 20
4.784147
 42
0.068343
  0
VERTEX
  8
0
 10
152.284290
 20
5.728903
 42
0.041729
  0
VERTEX
  8
0
 10
152.850155
 20
7.000000
 42
-0.045239
  0
VERTEX
  8
0
 10
153.639571
 20
8.740332
 42
-0.157176
  0
VERTEX
  8
0
 10
154.538232
 20
9.565410
 42
-0.096548
  0
VERTEX
  8
0
 10
156.007985
 20
9.922645
 42
-0.011484
  0
VERTEX
  8
0
 10
159.375400
 20
10.000000
 42
0.016100
  0
VERTEX
  8
0
 10
162.449975
 20
10.099027
 42
0.067928
  0
VERTEX
  8
0
 10
164.253885
 20
10.464777
 42
0.094110
  0
VERTEX
  8
0
 10
165.588303
 20
11.234774
 42
0.048351
  0
VERTEX
  8
0
 10
166.927420
 20
12.634859
 42
0.036135
  0
VERTEX
  8
0
 10
167.720725
 20
13.808788
 42
0.030175
  0
VERTEX
  8
0
 10
168.391180
 20
15.156227
 42
0.031231
  0
VERTEX
  8
0
 10
168.854042
 20
16.469175
 42
0.069233
  0
VERTEX
  8
0
 10
169.000000
 20
17.518227
 42
0.162355
  0
VERTEX
  8
0
 10
168.456986
 20
19.146454
 42
0.142715
  0
VERTEX
  8
0
 10
167.018410
 20
20.225338
 42
0.071979
  0
VERTEX
  8
0
 10
164.336176
 20
20.814599
 42
0.017414
  0
VERTEX
  8
0
 10
159.785184
 20
20.986345
 42
0.018849
  0
VERTEX
  8
0
 10
157.337360
 20
20.901134
 42
0.066558
  0
VERTEX
  8
0
 10
155.800201
 20
20.580869
 42
0.100962
  0
VERTEX
  8
0
 10
154.758506
 20
19.957051
 42
0.084849
  0
SEQEND
  0
POLYLINE
  8
0
 66
1
 70
1
  0
VERTEX
  8
0
 10
164.984687
 20
16.750000
 42
-0.098090
  0
VERTEX
  8
0
 10
164.610546
 20
14.975531
 42
-0.153419
  0
VERTEX
  8
0
 10
163.604007
 20
13.799320
 42
-0.116029
  0
VERTEX
  8
0
 10
161.865859
 20
13.208837
 42
-0.043675
  0
VERTEX
  8
0
 10
159.279779
 20
13.185129
 42
-0.011935
  0
VERTEX
  8
0
 10
156.870467
 20
13.431727
 42
-0.138981
  0
VERTEX
  8
0
 10
156.007760
 20
13.798570
 42
-0.268674
  0
VERTEX
  8
0
 10
155.755679
 20
14.453162
 42
-0.049921
  0
VERTEX
  8
0
 10
156.096664
 20
15.750000
 42
-0.073359
  0
VERTEX
  8
0
 10
156.719785
 20
16.881642
 42
-0.122685
  0
VERTEX
  8
0
 10
157.562173
 20
17.558487
 42
-0.085529
  0
VERTEX
  8
0
 10
158.846374
 20
17.902958
 42
-0.022860
  0
VERTEX
  8
0
 10
160.967776
 20
18.000000
 42
-0.022482
  0
VERTEX
  8
0
 10
162.685879
 20
17.922710
 42
-0.052993
  0
VERTEX
  8
0
 10
163.942617
 20
17.673449
 42
-0.083997
  0
VERTEX
  8
0
 10
164.722562
 20
17.277964
 42
-0.241053
  0
SEQEND
  0
POLYLINE
  8
0
 66
1
 70
1
  0
VERTEX
  8
0
 10
171.947066
 20
18.250000
 42
-0.003585
  0
VERTEX
  8
0
 10
171.420983
 20
16.839703
 42
-0.001153
  0
VERTEX
  8
0
 10
170.620769
 20
14.755068
 42
-0.001150
  0
VERTEX
  8
0
 10
169.719646
 20
12.439491
 42
-0.001288
  0
VERTEX
  8
0
 10
168.841088
 20
10.214063
 42
0.014616
  0
VERTEX
  8
0
 10
167.561827
 20
6.702385
 42
0.099138
  0
VERTEX
  8
0
 10
167.337180
 20
4.877514
 42
0.334924
  0
VERTEX
  8
0
 10
167.958460
 20
4.171300
 42
0.143303
  0
VERTEX
  8
0
 10
169.287817
 20
4.280204
 42
0.198937
  0
VERTEX
  8
0
 10
170.375206
 20
5.311963
 42
0.005189
  0
VERTEX
  8
0
 10
173.087225
 20
11.577118
 42
0.008254
  0
VERTEX
  8
0
 10
175.540924
 20
17.691320
 42
0.093156
  0
VERTEX
  8
0
 10
176.004817
 20
20.250000
 42
0.326571
  0
VERTEX
  8
0
 10
175.455422
 20
20.991407
 42
0.192243
  0
VERTEX
  8
0
 10
174.302659
 20
20.901208
 42
0.097510
  0
VERTEX
  8
0
 10
172.877017
 20
19.812145
 42
0.093817
  0
SEQEND
  0
POLYLINE
  8
0
 66
1
 70
1
  0
VERTEX
  8
0
 10
180.634859
 20
18.927420
 42
0.085947
  0
VERTEX
  8
0
 10
178.911917
 20
17.013012
 42
0.104999
  0
VERTEX
  8
0
 10
178.082823
 20
14.756453
 42
0.138266
  0
VERTEX
  8
0
 10
178.342813
 20
12.797015
 42
0.202107
  0
VERTEX
  8
0
 10
179.581787
 20
11.606989
 42
0.051021
  0
VERTEX
  8
0
 10
180.448497
 20
11.372287
 42
0.013505
  0
VERTEX
  8
0
 10
181.871439
 20
11.178303
 42
0.013559
  0
VERTEX
  8
0
 10
183.510941
 20
11.044609
 42
0.013563
  0
VERTEX
  8
0
 10
185.155112
 20
11.000000
 42
-0.015711
  0
VERTEX
  8
0
 10
187.261585
 20
10.933792
 42
-0.096107
  0
VERTEX
  8
0
 10
188.309567
 20
10.661207
 42
-0.211837
  0
VERTEX
  8
0
 10
188.769764
 20
10.122761
 42
-0.119910
  0
VERTEX
  8
0
 10
188.814330
 20
9.250000
 42
-0.279161
  0
VERTEX
  8
0
 10
187.474494
 20
7.759217
 42
-0.053149
  0
VERTEX
  8
0
 10
183.734928
 20
7.047715
 42
-0.057274
  0
VERTEX
  8
0
 10
180.103584
 20
7.166153
 42
-0.371778
  0
VERTEX
  8
0
 10
179.000000
 20
8.445209
 42
0.122867
  0
VERTEX
  8
0
 10
178.846509
 20
9.060402
 42
0.109621
  0
VERTEX
  8
0
 10
178.417733
 20
9.561898
 42
0.094057
  0
VERTEX
  8
0
 10
177.754176
 20
9.888576
 42
0.067582
  0
VERTEX
  8
0
 10
176.933578
 20
10.000000
 42
0.063986
  0
VERTEX
  8
0
 10
175.904395
 20
9.867753
 42
0.189333
  0
VERTEX
  8
0
 10
175.338889
 20
9.455581
 42
0.140684
  0
VERTEX
  8
0
 10
175.107494
 20
8.672156
 42
0.030565
  0
VERTEX
  8
0
 10
175.183578
 20
7.250000
 42
0.067067
  0
VERTEX
  8
0
 10
175.591764
 20
5.641296
 42
0.196859
  0
VERTEX
  8
0
 10
176.373029
 20
4.837481
 42
0.084960
  0
VERTEX
  8
0
 10
177.941324
 20
4.451426
 42
0.006956
  0
VERTEX
  8
0
 10
182.170173
 20
4.206130
 42
0.010706
  0
VERTEX
  8
0
 10
185.960306
 20
4.120392
 42
0.054863
  0
VERTEX
  8
0
 10
188.049086
 20
4.347731
 42
0.090346
  0
VERTEX
  8
0
 10
189.520640
 20
4.966829
 42
0.060658
  0
VERTEX
  8
0
 10
190.920173
 20
6.144691
 42
0.075015
  0
VERTEX
  8
0
 10
192.335897
 20
8.212829
 42
0.095772
  0
VERTEX
  8
0
 10
192.927561
 20
10.440856
 42
0.125516
  0
VERTEX
  8
0
 10
192.587729
 20
12.296534
 42
0.195832
  0
VERTEX
  8
0
 10
191.418213
 20
13.393011
 42
0.051021
  0
VERTEX
  8
0
 10
190.551503
 20
13.627713
 42
0.013505
  0
VERTEX
  8
0
 10
189.128561
 20
13.821697
 42
0.013559
  0
VERTEX
  8
0
 10
187.489059
 20
13.955391
 42
0.013563
  0
VERTEX
  8
0
 10
185.844888
 20
14.000000
 42
-0.015711
  0
VERTEX
  8
0
 10
183.738415
 20
14.066208
 42
-0.096107
  0
VERTEX
  8
0
 10
182.690433
 20
14.338793
 42
-0.211837
  0
VERTEX
  8
0
 10
182.230236
 20
14.877239
 42
-0.119910
  0
VERTEX
  8
0
 10
182.185670
 20
15.750000
 42
-0.144313
  0
VERTEX
  8
0
 10
182.621737
 20
16.599370
 42
-0.108639
  0
VERTEX
  8
0
 10
183.496669
 20
17.189517
 42
-0.061538
  0
VERTEX
  8
0
 10
184.980769
 20
17.574895
 42
-0.016892
  0
VERTEX
  8
0
 10
187.389047
 20
17.810103
 42
-0.009525
  0
VERTEX
  8
0
 10
190.041585
 20
17.928291
 42
-0.077683
  0
VERTEX
  8
0
 10
191.241519
 20
17.771931
 42
-0.256082
  0
VERTEX
  8
0
 10
191.692995
 20
17.319893
 42
-0.163893
  0
VERTEX
  8
0
 10
191.661437
 20
16.560103
 42
0.074534
  0
VERTEX
  8
0
 10
191.507520
 20
15.864012
 42
0.189560
  0
VERTEX
  8
0
 10
191.660633
 20
15.379112
 42
0.167788
  0
VERTEX
  8
0
 10
192.122978
 20
15.090667
 42
0.056387
  0
VERTEX
  8
0
 10
192.924396
 20
15.000000
 42
0.151546
  0
VERTEX
  8
0
 10
194.504644
 20
15.490220
 42
0.169984
  0
VERTEX
  8
0
 10
195.442592
 20
16.770074
 42
0.166208
  0
VERTEX
  8
0
 10
195.388331
 20
18.378807
 42
0.145081
  0
VERTEX
  8
0
 10
194.363296
 20
19.723619
 42
0.123583
  0
VERTEX
  8
0
 10
191.638934
 20
20.829027
 42
0.049407
  0
VERTEX
  8
0
 10
187.586766
 20
20.994454
 42
0.049268
  0
VERTEX
  8
0
 10
183.502032
 20
20.350390
 42
0.103283
  0
SEQEND
  0
POLYLINE
  8
0
 66
1
 70
1
  0
VERTEX
  8
0
 10
197.666667
 20
20.333333
 42
0.108184
  0
VERTEX
  8
0
 10
197.055915
 20
19.380202
 42
0.292404
  0
VERTEX
  8
0
 10
197.219539
 20
18.629508
 42
0.159668
  0
VERTEX
  8
0
 10
198.182895
 20
18.139454
 42
0.038498
  0
VERTEX
  8
0
 10
199.991407
 20
18.000000
 42
0.000000
  0
VERTEX
  8
0
 10
202.982814
 20
18.000000
 42
0.000000
  0
VERTEX
  8
0
 10
200.491407
 20
11.380941
 42
0.001893
  0
VERTEX
  8
0
 10
198.503207
 20
6.037518
 42
0.060074
  0
VERTEX
  8
0
 10
198.181568
 20
4.678673
 42
0.391710
  0
VERTEX
  8
0
 10
198.551067
 20
4.176402
 42
0.095337
  0
VERTEX
  8
0
 10
199.678078
 20
4.176676
 42
0.175748
  0
VERTEX
  8
0
 10
200.518051
 20
4.678224
 42
0.030095
  0
VERTEX
  8
0
 10
201.622673
 20
6.211208
 42
0.027838
  0
VERTEX
  8
0
 10
202.814313
 20
8.348771
 42
0.016775
  0
VERTEX
  8
0
 10
203.996236
 20
11.000000
 42
-0.010621
  0
VERTEX
  8
0
 10
205.636648
 20
14.804909
 42
-0.070042
  0
VERTEX
  8
0
 10
206.749334
 20
16.547953
 42
-0.120661
  0
VERTEX
  8
0
 10
208.031264
 20
17.468239
 42
-0.058671
  0
VERTEX
  8
0
 10
209.988667
 20
18.000000
 42
0.032205
  0
VERTEX
  8
0
 10
211.302193
 20
18.283328
 42
0.039583
  0
VERTEX
  8
0
 10
212.477532
 20
18.720312
 42
0.043831
  0
VERTEX
  8
0
 10
213.370409
 20
19.234731
 42
0.161770
  0
VERTEX
  8
0
 10
213.753843
 20
19.750000
 42
0.373261
  0
VERTEX
  8
0
 10
213.507118
 20
20.340945
 42
0.074068
  0
VERTEX
  8
0
 10
212.324602
 20
20.723563
 42
0.033765
  0
VERTEX
  8
0
 10
210.089818
 20
20.942287
 42
0.007515
  0
VERTEX
  8
0
 10
206.250000
 20
21.000000
 42
0.007849
  0
VERTEX
  8
0
 10
203.168237
 20
20.951622
 42
0.011531
  0
VERTEX
  8
0
 10
200.463021
 20
20.804167
 42
0.007009
  0
VERTEX
  8
0
 10
198.221915
 20
20.598457
 42
0.171617
  0
SEQEND
  0
POLYLINE
  8
0
 66
1
 70
1
  0
VERTEX
  8
0
 10
216.302554
 20
19.802956
 42
0.146639
  0
VERTEX
  8
0
 10
213.525576
 20
17.260823
 42
0.050653
  0
VERTEX
  8
0
 10
211.198787
 20
12.280970
 42
0.050902
  0
VERTEX
  8
0
 10
210.003805
 20
7.271368
 42
0.292641
  0
VERTEX
  8
0
 10
211.104756
 20
4.914095
 42
0.126081
  0
VERTEX
  8
0
 10
213.675920
 20
4.080156
 42
0.026810
  0
VERTEX
  8
0
 10
218.419080
 20
4.036556
 42
0.027313
  0
VERTEX
  8
0
 10
223.156957
 20
4.507283
 42
0.114844
  0
VERTEX
  8
0
 10
225.792016
 20
5.566876
 42
0.117526
  0
VERTEX
  8
0
 10
228.606438
 20
8.738442
 42
0.063072
  0
VERTEX
  8
0
 10
230.488872
 20
13.652182
 42
0.070122
  0
VERTEX
  8
0
 10
230.950261
 20
18.257295
 42
0.299565
  0
VERTEX
  8
0
 10
229.418213
 20
20.393011
 42
0.081782
  0
VERTEX
  8
0
 10
226.934365
 20
20.904811
 42
0.021244
  0
VERTEX
  8
0
 10
222.840361
 20
20.894676
 42
0.021325
  0
VERTEX
  8
0
 10
218.758098
 20
20.536146
 42
0.080128
  0
SEQEND
  0
POLYLINE
  8
0
 66
1
 70
1
  0
VERTEX
  8
0
 10
227.153579
 20
15.500000
 42
-0.025928
  0
VERTEX
  8
0
 10
226.928683
 20
14.509891
 42
-0.009445
  0
VERTEX
  8
0
 10
226.511607
 20
13.132812
 42
-0.009336
  0
VERTEX
  8
0
 10
225.997847
 20
11.640922
 42
-0.011012
  0
VERTEX
  8
0
 10
225.454606
 20
10.250000
 42
-0.036041
  0
VERTEX
  8
0
 10
224.502732
 20
8.359365
 42
-0.141604
  0
VERTEX
  8
0
 10
223.558317
 20
7.477803
 42
-0.103160
  0
VERTEX
  8
0
 10
222.123410
 20
7.089842
 42
-0.014618
  0
VERTEX
  8
0
 10
219.051027
 20
7.000000
 42
-0.024788
  0
VERTEX
  8
0
 10
215.576159
 20
7.172374
 42
-0.217802
  0
VERTEX
  8
0
 10
214.279008
 20
7.928978
 42
-0.220409
  0
VERTEX
  8
0
 10
214.011604
 20
9.398686
 42
-0.025392
  0
VERTEX
  8
0
 10
215.045028
 20
12.684900
 42
-0.062218
  0
VERTEX
  8
0
 10
216.370623
 20
15.232812
 42
-0.106197
  0
VERTEX
  8
0
 10
218.110052
 20
16.870203
 42
-0.101478
  0
VERTEX
  8
0
 10
220.427999
 20
17.693607
 42
-0.053183
  0
VERTEX
  8
0
 10
223.500000
 20
17.794399
 42
-0.016385
  0
VERTEX
  8
0
 10
225.672421
 20
17.562742
 42
-0.105828
  0
VERTEX
  8
0
 10
226.702281
 20
17.186963
 42
-0.206994
  0
VERTEX
  8
0
 10
227.142014
 20
16.546724
 42
-0.091533
  0
SEQEND
  0
POLYLINE
  8
0
 66
1
 70
1
  0
VERTEX
  8
0
 10
233.695198
 20
14.250000
 42
0.000414
  0
VERTEX
  8
0
 10
232.644554
 20
11.537336
 42
0.000489
  0
VERTEX
  8
0
 10
231.655042
 20
8.968750
 42
0.000426
  0
VERTEX
  8
0
 10
230.823402
 20
6.798142
 42
0.003078
  0
VERTEX
  8
0
 10
230.430223
 20
5.750000
 42
0.056244
  0
VERTEX
  8
0
 10
230.227671
 20
4.923555
 42
0.190433
  0
VERTEX
  8
0
 10
230.361712
 20
4.395034
 42
0.185550
  0
VERTEX
  8
0
 10
230.824502
 20
4.092403
 42
0.053101
  0
VERTEX
  8
0
 10
231.692123
 20
4.000000
 42
0.126269
  0
VERTEX
  8
0
 10
232.619008
 20
4.237867
 42
0.089013
  0
VERTEX
  8
0
 10
233.459357
 20
4.917391
 42
0.063786
  0
VERTEX
  8
0
 10
234.226714
 20
6.073782
 42
0.028917
  0
VERTEX
  8
0
 10
234.936684
 20
7.750000
 42
-0.002359
  0
VERTEX
  8
0
 10
237.369326
 20
14.465370
 42
-0.213415
  0
VERTEX
  8
0
 10
238.087582
 20
15.201978
 42
-0.393028
  0
VERTEX
  8
0
 10
238.831810
 20
14.912059
 42
-0.005540
  0
VERTEX
  8
0
 10
241.056951
 20
10.176726
 42
0.010645
  0
VERTEX
  8
0
 10
242.682542
 20
6.807110
 42
0.057183
  0
VERTEX
  8
0
 10
243.805716
 20
5.111412
 42
0.118944
  0
VERTEX
  8
0
 10
244.864002
 20
4.332059
 42
0.137494
  0
VERTEX
  8
0
 10
246.103105
 20
4.176726
 42
0.142527
  0
VERTEX
  8
0
 10
247.305165
 20
4.730511
 42
0.071051
  0
VERTEX
  8
0
 10
248.412251
 20
6.007965
 42
0.040849
  0
VERTEX
  8
0
 10
249.601589
 20
8.234762
 42
0.010720
  0
VERTEX
  8
0
 10
251.131515
 20
11.983727
 42
0.003186
  0
VERTEX
  8
0
 10
252.230625
 20
14.906849
 42
0.004665
  0
VERTEX
  8
0
 10
253.157383
 20
17.494203
 42
0.002327
  0
VERTEX
  8
0
 10
253.912019
 20
19.697603
 42
0.081508
  0
VERTEX
  8
0
 10
254.000000
 20
20.233727
 42
0.321735
  0
VERTEX
  8
0
 10
253.484453
 20
20.951991
 42
0.173903
  0
VERTEX
  8
0
 10
252.342207
 20
20.930663
 42
0.100344
  0
VERTEX
  8
0
 10
250.963280
 20
20.060274
 42
0.111467
  0
VERTEX
  8
0
 10
250.094100
 20
18.750000
 42
-0.004454
  0
VERTEX
  8
0
 10
249.650403
 20
17.614803
 42
-0.001547
  0
VERTEX
  8
0
 10
248.991108
 20
15.985937
 42
-0.001537
  0
VERTEX
  8
0
 10
248.253902
 20
14.196396
 42
-0.001789
  0
VERTEX
  8
0
 10
247.541835
 20
12.500000
 42
0.000000
  0
VERTEX
  8
0
 10
245.845968
 20
8.500000
 42
0.000000
  0
VERTEX
  8
0
 10
242.984656
 20
14.750000
 42
0.027448
  0
VERTEX
  8
0
 10
240.245813
 20
19.957165
 42
0.278232
  0
VERTEX
  8
0
 10
238.174908
 20
21.059010
 42
0.266953
  0
VERTEX
  8
0
 10
236.167053
 20
19.756367
 42
0.025805
  0
SEQEND
  0
POLYLINE
  8
0
 66
1
 70
1
  0
VERTEX
  8
0
 10
278.500000
 20
19.805055
 42
0.039825
  0
VERTEX
  8
0
 10
276.836555
 20
18.678089
 42
0.081854
  0
VERTEX
  8
0
 10
275.787541
 20
17.511514
 42
0.088221
  0
VERTEX
  8
0
 10
275.214992
 20
16.130655
 42
0.052529
  0
VERTEX
  8
0
 10
275.015313
 20
14.356989
 42
0.130517
  0
VERTEX
  8
0
 10
275.424010
 20
12.772415
 42
0.156074
  0
VERTEX
  8
0
 10
276.548031
 20
11.727046
 42
0.087523
  0
VERTEX
  8
0
 10
278.643138
 20
11.158682
 42
0.022580
  0
VERTEX
  8
0
 10
282.155112
 20
11.000000
 42
-0.015708
  0
VERTEX
  8
0
 10
284.261677
 20
10.933803
 42
-0.096120
  0
VERTEX
  8
0
 10
285.309553
 20
10.661230
 42
-0.211898
  0
VERTEX
  8
0
 10
285.769599
 20
10.122791
 42
-0.119893
  0
VERTEX
  8
0
 10
285.813958
 20
9.250000
 42
-0.149235
  0
VERTEX
  8
0
 10
285.362003
 20
8.390601
 42
-0.109670
  0
VERTEX
  8
0
 10
284.451496
 20
7.804557
 42
-0.059184
  0
VERTEX
  8
0
 10
282.881303
 20
7.428289
 42
-0.014827
  0
VERTEX
  8
0
 10
280.252118
 20
7.198139
 42
-0.008764
  0
VERTEX
  8
0
 10
277.395475
 20
7.083427
 42
-0.071647
  0
VERTEX
  8
0
 10
276.102663
 20
7.239895
 42
-0.245166
  0
VERTEX
  8
0
 10
275.610619
 20
7.693109
 42
-0.179907
  0
VERTEX
  8
0
 10
275.618473
 20
8.448139
 42
0.083115
  0
VERTEX
  8
0
 10
275.763150
 20
9.159811
 42
0.210120
  0
VERTEX
  8
0
 10
275.571634
 20
9.639994
 42
0.154184
  0
VERTEX
  8
0
 10
275.024796
 20
9.918538
 42
0.041313
  0
VERTEX
  8
0
 10
274.040566
 20
10.000000
 42
0.056610
  0
VERTEX
  8
0
 10
272.936261
 20
9.874570
 42
0.189901
  0
VERTEX
  8
0
 10
272.346947
 20
9.470074
 42
0.147650
  0
VERTEX
  8
0
 10
272.106256
 20
8.694054
 42
0.030542
  0
VERTEX
  8
0
 10
272.183578
 20
7.250000
 42
0.067067
  0
VERTEX
  8
0
 10
272.591764
 20
5.641296
 42
0.196859
  0
VERTEX
  8
0
 10
273.373029
 20
4.837481
 42
0.084960
  0
VERTEX
  8
0
 10
274.941324
 20
4.451426
 42
0.006956
  0
VERTEX
  8
0
 10
279.170173
 20
4.206130
 42
0.010706
  0
VERTEX
  8
0
 10
282.960306
 20
4.120392
 42
0.054863
  0
VERTEX
  8
0
 10
285.049086
 20
4.347731
 42
0.090346
  0
VERTEX
  8
0
 10
286.520640
 20
4.966829
 42
0.060658
  0
VERTEX
  8
0
 10
287.920173
 20
6.144691
 42
0.075015
  0
VERTEX
  8
0
 10
289.335897
 20
8.212829
 42
0.095772
  0
VERTEX
  8
0
 10
289.927561
 20
10.440856
 42
0.125516
  0
VERTEX
  8
0
 10
289.587729
 20
12.296534
 42
0.195832
  0
VERTEX
  8
0
 10
288.418213
 20
13.393011
 42
0.051021
  0
VERTEX
  8
0
 10
287.551503
 20
13.627713
 42
0.013505
  0
VERTEX
  8
0
 10
286.128561
 20
13.821697
 42
0.013559
  0
VERTEX
  8
0
 10
284.489059
 20
13.955391
 42
0.013563
  0
VERTEX
  8
0
 10
282.844888
 20
14.000000
 42
-0.015711
  0
VERTEX
  8
0
 10
280.738415
 20
14.066208
 42
-0.096107
  0
VERTEX
  8
0
 10
279.690433
 20
14.338793
 42
-0.211837
  0
VERTEX
  8
0
 10
279.230236
 20
14.877239
 42
-0.119910
  0
VERTEX
  8
0
 10
279.185670
 20
15.750000
 42
-0.144313
  0
VERTEX
  8
0
 10
279.621737
 20
16.599370
 42
-0.108639
  0
VERTEX
  8
0
 10
280.496669
 20
17.189517
 42
-0.061538
  0
VERTEX
  8
0
 10
281.980769
 20
17.574895
 42
-0.016892
  0
VERTEX
  8
0
 10
284.389047
 20
17.810103
 42
-0.009525
  0
VERTEX
  8
0
 10
287.041585
 20
17.928291
 42
-0.077683
  0
VERTEX
  8
0
 10
288.241519
 20
17.771931
 42
-0.256082
  0
VERTEX
  8
0
 10
288.692995
 20
17.319893
 42
-0.163893
  0
VERTEX
  8
0
 10
288.661437
 20
16.560103
 42
0.074534
  0
VERTEX
  8
0
 10
288.507520
 20
15.864012
 42
0.189560
  0
VERTEX
  8
0
 10
288.660633
 20
15.379112
 42
0.167788
  0
VERTEX
  8
0
 10
289.122978
 20
15.090667
 42
0.056387
  0
VERTEX
  8
0
 10
289.924396
 20
15.000000
 42
0.151546
  0
VERTEX
  8
0
 10
291.504644
 20
15.490220
 42
0.169984
  0
VERTEX
  8
0
 10
292.442592
 20
16.770074
 42
0.166208
  0
VERTEX
  8
0
 10
292.388331
 20
18.378807
 42
0.145081
  0
VERTEX
  8
0
 10
291.363296
 20
19.723619
 42
0.123965
  0
VERTEX
  8
0
 10
289.085111
 20
20.645993
 42
0.032936
  0
VERTEX
  8
0
 10
285.144487
 20
20.930918
 42
0.033812
  0
VERTEX
  8
0
 10
281.134239
 20
20.684912
 42
0.097049
  0
SEQEND
  0
POLYLINE
  8
0
 66
1
 70
1
  0
VERTEX
  8
0
 10
294.383948
 20
13.280055
 42
-0.000443
  0
VERTEX
  8
0
 10
293.254790
 20
10.265601
 42
-0.000637
  0
VERTEX
  8
0
 10
292.249243
 20
7.598703
 42
-0.000333
  0
VERTEX
  8
0
 10
291.392625
 20
5.340078
 42
-0.010166
  0
VERTEX
  8
0
 10
291.166667
 20
4.780055
 42
0.267810
  0
VERTEX
  8
0
 10
291.202213
 20
4.484019
 42
0.122315
  0
VERTEX
  8
0
 10
291.514493
 20
4.229141
 42
0.072493
  0
VERTEX
  8
0
 10
292.081404
 20
4.056022
 42
0.037930
  0
VERTEX
  8
0
 10
292.818842
 20
4.000000
 42
0.105243
  0
VERTEX
  8
0
 10
293.743919
 20
4.196897
 42
0.090440
  0
VERTEX
  8
0
 10
294.566474
 20
4.759417
 42
0.072839
  0
VERTEX
  8
0
 10
295.271936
 20
5.696772
 42
0.041103
  0
VERTEX
  8
0
 10
295.850155
 20
7.000000
 42
-0.043172
  0
VERTEX
  8
0
 10
296.619884
 20
8.715707
 42
-0.150694
  0
VERTEX
  8
0
 10
297.486373
 20
9.545304
 42
-0.102115
  0
VERTEX
  8
0
 10
298.869495
 20
9.914709
 42
-0.014367
  0
VERTEX
  8
0
 10
301.837197
 20
10.000000
 42
0.050659
  0
VERTEX
  8
0
 10
305.717532
 20
10.394156
 42
0.098535
  0
VERTEX
  8
0
 10
308.575257
 20
11.598671
 42
0.113633
  0
VERTEX
  8
0
 10
310.496646
 20
13.664590
 42
0.083263
  0
VERTEX
  8
0
 10
311.593608
 20
16.608102
 42
0.113129
  0
VERTEX
  8
0
 10
311.516659
 20
18.823727
 42
0.220211
  0
VERTEX
  8
0
 10
310.409373
 20
20.155766
 42
0.096519
  0
VERTEX
  8
0
 10
307.827194
 20
20.818762
 42
0.014055
  0
VERTEX
  8
0
 10
302.383948
 20
20.986345
 42
0.000000
  0
VERTEX
  8
0
 10
297.267896
 20
21.000000
 42
0.000000
  0
SEQEND
  0
POLYLINE
  8
0
 66
1
 70
1
  0
VERTEX
  8
0
 10
308.000000
 20
16.622445
 42
-0.152828
  0
VERTEX
  8
0
 10
307.521186
 20
15.092519
 42
-0.116751
  0
VERTEX
  8
0
 10
306.208697
 20
13.913859
 42
-0.090327
  0
VERTEX
  8
0
 10
304.184107
 20
13.244925
 42
-0.057584
  0
VERTEX
  8
0
 10
301.697850
 20
13.185474
 42
-0.016106
  0
VERTEX
  8
0
 10
299.698302
 20
13.433362
 42
-0.156917
  0
VERTEX
  8
0
 10
298.946691
 20
13.812179
 42
-0.248703
  0
VERTEX
  8
0
 10
298.740765
 20
14.465965
 42
-0.043733
  0
VERTEX
  8
0
 10
299.095838
 20
15.750000
 42
-0.073350
  0
VERTEX
  8
0
 10
299.719374
 20
16.881578
 42
-0.122628
  0
VERTEX
  8
0
 10
300.562084
 20
17.558436
 42
-0.085507
  0
VERTEX
  8
0
 10
301.846493
 20
17.902936
 42
-0.022867
  0
VERTEX
  8
0
 10
303.967776
 20
18.000000
 42
-0.021148
  0
VERTEX
  8
0
 10
305.786999
 20
17.923020
 42
-0.061233
  0
VERTEX
  8
0
 10
307.018228
 20
17.664591
 42
-0.107325
  0
VERTEX
  8
0
 10
307.738077
 20
17.230117
 42
-0.206338
  0
SEQEND
  0
POLYLINE
  8
0
 66
1
 70
1
  0
VERTEX
  8
0
 10
317.199811
 20
19.950272
 42
0.147245
  0
VERTEX
  8
0
 10
315.107713
 20
18.279225
 42
0.040866
  0
VERTEX
  8
0
 10
312.987689
 20
14.600013
 42
0.041739
  0
VERTEX
  8
0
 10
311.447961
 20
10.479809
 42
0.097560
  0
VERTEX
  8
0
 10
311.187093
 20
7.213574
 42
0.066130
  0
VERTEX
  8
0
 10
311.583374
 20
5.641106
 42
0.192439
  0
VERTEX
  8
0
 10
312.340365
 20
4.843326
 42
0.088152
  0
VERTEX
  8
0
 10
313.843742
 20
4.450554
 42
0.008006
  0
VERTEX
  8
0
 10
317.727664
 20
4.202862
 42
0.029863
  0
VERTEX
  8
0
 10
322.762863
 20
4.263447
 42
0.102857
  0
VERTEX
  8
0
 10
325.888100
 20
5.151076
 42
0.121605
  0
VERTEX
  8
0
 10
328.109048
 20
7.113765
 42
0.050060
  0
VERTEX
  8
0
 10
330.065688
 20
10.653244
 42
0.025361
  0
VERTEX
  8
0
 10
331.563610
 20
14.703333
 42
0.084202
  0
VERTEX
  8
0
 10
331.945990
 20
17.507426
 42
0.154895
  0
VERTEX
  8
0
 10
331.304109
 20
19.322997
 42
0.166972
  0
VERTEX
  8
0
 10
329.750000
 20
20.369714
 42
0.049669
  0
VERTEX
  8
0
 10
326.919584
 20
20.833981
 42
0.024188
  0
VERTEX
  8
0
 10
323.254386
 20
20.888806
 42
0.023934
  0
VERTEX
  8
0
 10
319.679693
 20
20.597657
 42
0.063199
  0
SEQEND
  0
POLYLINE
  8
0
 66
1
 70
1
  0
VERTEX
  8
0
 10
327.610455
 20
14.802274
 42
-0.041985
  0
VERTEX
  8
0
 10
326.490824
 20
10.927838
 42
-0.118220
  0
VERTEX
  8
0
 10
324.907727
 20
8.616720
 42
-0.129410
  0
VERTEX
  8
0
 10
322.545022
 20
7.394237
 42
-0.055077
  0
VERTEX
  8
0
 10
318.976947
 20
7.000000
 42
-0.010032
  0
VERTEX
  8
0
 10
317.068736
 20
7.038291
 42
-0.016598
  0
VERTEX
  8
0
 10
315.461978
 20
7.156310
 42
-0.010547
  0
VERTEX
  8
0
 10
314.182280
 20
7.320498
 42
-0.371302
  0
VERTEX
  8
0
 10
314.000000
 20
7.532119
 42
-0.099802
  0
VERTEX
  8
0
 10
314.248244
 20
8.763408
 42
-0.006929
  0
VERTEX
  8
0
 10
315.670850
 20
12.020943
 42
-0.009051
  0
VERTEX
  8
0
 10
317.175457
 20
15.186406
 42
-0.057792
  0
VERTEX
  8
0
 10
318.143829
 20
16.673303
 42
-0.128115
  0
VERTEX
  8
0
 10
318.865435
 20
17.191991
 42
-0.033991
  0
VERTEX
  8
0
 10
320.231468
 20
17.615201
 42
-0.031776
  0
VERTEX
  8
0
 10
321.923138
 20
17.903754
 42
-0.026360
  0
VERTEX
  8
0
 10
323.747445
 20
18.000000
 42
0.000000
  0
VERTEX
  8
0
 10
328.250000
 20
18.000000
 42
0.000000
  0
SEQEND
  0
POLYLINE
  8
0
 66
1
 70
1
  0
VERTEX
  8
0
 10
335.890564
 20
18.250000
 42
0.001139
  0
VERTEX
  8
0
 10
332.038325
 20
8.187099
 42
0.033311
  0
VERTEX
  8
0
 10
331.234846
 20
5.559265
 42
0.240342
  0
VERTEX
  8
0
 10
331.500657
 20
4.480559
 42
0.217709
  0
VERTEX
  8
0
 10
332.552020
 20
4.000000
 42
0.156016
  0
VERTEX
  8
0
 10
333.222116
 20
4.214308
 42
0.059582
  0
VERTEX
  8
0
 10
333.955339
 20
4.881250
 42
0.051507
  0
VERTEX
  8
0
 10
334.634993
 20
5.852129
 42
0.043127
  0
VERTEX
  8
0
 10
335.149845
 20
7.000000
 42
-0.041602
  0
VERTEX
  8
0
 10
335.901129
 20
8.688751
 42
-0.143931
  0
VERTEX
  8
0
 10
336.740444
 20
9.524312
 42
-0.106895
  0
VERTEX
  8
0
 10
338.047475
 20
9.906214
 42
-0.017826
  0
VERTEX
  8
0
 10
340.677280
 20
10.000000
 42
0.000000
  0
VERTEX
  8
0
 10
345.158911
 20
10.000000
 42
0.000000
  0
VERTEX
  8
0
 10
344.479675
 20
6.907460
 42
0.015599
  0
VERTEX
  8
0
 10
344.158202
 20
5.189729
 42
0.138659
  0
VERTEX
  8
0
 10
344.250747
 20
4.433341
 42
0.280620
  0
VERTEX
  8
0
 10
344.690786
 20
4.114974
 42
0.067454
  0
VERTEX
  8
0
 10
345.629555
 20
4.167175
 42
0.119132
  0
VERTEX
  8
0
 10
346.398134
 20
4.517247
 42
0.053870
  0
VERTEX
  8
0
 10
347.196055
 20
5.294352
 42
0.049049
  0
VERTEX
  8
0
 10
347.900477
 20
6.339721
 42
0.048001
  0
VERTEX
  8
0
 10
348.393778
 20
7.509715
 42
-0.013044
  0
VERTEX
  8
0
 10
350.273649
 20
13.012943
 42
-0.063082
  0
VERTEX
  8
0
 10
351.799969
 20
15.935809
 42
-0.120185
  0
VERTEX
  8
0
 10
353.483078
 20
17.424948
 42
-0.119807
  0
VERTEX
  8
0
 10
355.664788
 20
17.974202
 42
0.000000
  0
VERTEX
  8
0
 10
358.829576
 20
18.000000
 42
0.000000
  0
VERTEX
  8
0
 10
356.298212
 20
11.449909
 42
0.009878
  0
VERTEX
  8
0
 10
355.369532
 20
8.898058
 42
0.015261
  0
VERTEX
  8
0
 10
354.678887
 20
6.655457
 42
0.009564
  0
VERTEX
  8
0
 10
354.206127
 20
4.797012
 42
0.259440
  0
VERTEX
  8
0
 10
354.340296
 20
4.326370
 42
0.292525
  0
VERTEX
  8
0
 10
355.570215
 20
4.056204
 42
0.135377
  0
VERTEX
  8
0
 10
356.957487
 20
5.050912
 42
0.063285
  0
VERTEX
  8
0
 10
358.469994
 20
7.500170
 42
0.021864
  0
VERTEX
  8
0
 10
360.027360
 20
11.364576
 42
-0.009232
  0
VERTEX
  8
0
 10
361.534306
 20
15.394566
 42
-0.082291
  0
VERTEX
  8
0
 10
362.504884
 20
17.011858
 42
-0.146599
  0
VERTEX
  8
0
 10
363.729609
 20
17.805446
 42
-0.049626
  0
VERTEX
  8
0
 10
365.839838
 20
18.199599
 42
0.032078
  0
VERTEX
  8
0
 10
367.211931
 20
18.406434
 42
0.040825
  0
VERTEX
  8
0
 10
368.436265
 20
18.778945
 42
0.045812
  0
VERTEX
  8
0
 10
369.363221
 20
19.248085
 42
0.175086
  0
VERTEX
  8
0
 10
369.756034
 20
19.750000
 42
0.385603
  0
VERTEX
  8
0
 10
369.490550
 20
20.346627
 42
0.066169
  0
VERTEX
  8
0
 10
368.191969
 20
20.725552
 42
0.031140
  0
VERTEX
  8
0
 10
365.769813
 20
20.942948
 42
0.006814
  0
VERTEX
  8
0
 10
361.583333
 20
21.000000
 42
0.009984
  0
VERTEX
  8
0
 10
358.199700
 20
20.932431
 42
0.018303
  0
VERTEX
  8
0
 10
355.450292
 20
20.721595
 42
0.013425
  0
VERTEX
  8
0
 10
353.337552
 20
20.423898
 42
0.366152
  0
VERTEX
  8
0
 10
353.000000
 20
20.024751
 42
-0.257767
  0
VERTEX
  8
0
 10
352.812422
 20
19.685075
 42
-0.141354
  0
VERTEX
  8
0
 10
352.342450
 20
19.549502
 42
-0.068170
  0
VERTEX
  8
0
 10
351.549500
 20
19.658117
 42
-0.022770
  0
VERTEX
  8
0
 10
350.434900
 20
20.024751
 42
0.045942
  0
VERTEX
  8
0
 10
349.083638
 20
20.400908
 42
0.014687
  0
VERTEX
  8
0
 10
347.019526
 20
20.713521
 42
0.014517
  0
VERTEX
  8
0
 10
344.688557
 20
20.928352
 42
0.015719
  0
VERTEX
  8
0
 10
342.410149
 20
21.000000
 42
0.012067
  0
VERTEX
  8
0
 10
339.149189
 20
20.921286
 42
0.087949
  0
VERTEX
  8
0
 10
337.629589
 20
20.575541
 42
0.147543
  0
VERTEX
  8
0
 10
336.689093
 20
19.795936
 42
0.054506
  0
SEQEND
  0
POLYLINE
  8
0
 66
1
 70
1
  0
VERTEX
  8
0
 10
347.527073
 20
16.956195
 42
-0.235915
  0
VERTEX
  8
0
 10
347.653739
 20
15.555975
 42
-0.149993
  0
VERTEX
  8
0
 10
346.615111
 20
14.247441
 42
-0.093667
  0
VERTEX
  8
0
 10
344.495557
 20
13.312750
 42
-0.057198
  0
VERTEX
  8
0
 10
341.770566
 20
13.000000
 42
-0.014198
  0
VERTEX
  8
0
 10
339.686958
 20
13.059178
 42
-0.095589
  0
VERTEX
  8
0
 10
338.689246
 20
13.311161
 42
-0.246552
  0
VERTEX
  8
0
 10
338.314806
 20
13.804380
 42
-0.133865
  0
VERTEX
  8
0
 10
338.393011
 20
14.581787
 42
0.016969
  0
VERTEX
  8
0
 10
338.625376
 20
15.254744
 42
0.015089
  0
VERTEX
  8
0
 10
338.821697
 20
15.968650
 42
0.015326
  0
VERTEX
  8
0
 10
338.959197
 20
16.621647
 42
0.044250
  0
VERTEX
  8
0
 10
339.000000
 20
17.081787
 42
-0.388139
  0
VERTEX
  8
0
 10
339.707591
 20
17.855982
 42
-0.026147
  0
VERTEX
  8
0
 10
342.965709
 20
17.978396
 42
-0.027179
  0
VERTEX
  8
0
 10
346.292210
 20
17.748260
 42
-0.227246
  0
SEQEND
  0
POLYLINE
  8
0
 66
1
 70
1
  0
VERTEX
  8
0
 10
395.480859
 20
20.234687
 42
0.055439
  0
VERTEX
  8
0
 10
393.600232
 20
18.533397
 42
0.002770
  0
VERTEX
  8
0
 10
388.116974
 20
12.270482
 42
0.001083
  0
VERTEX
  8
0
 10
382.331272
 20
5.558475
 42
0.179194
  0
VERTEX
  8
0
 10
382.000000
 20
4.663818
 42
0.345413
  0
VERTEX
  8
0
 10
382.470916
 20
4.063478
 42
0.133053
  0
VERTEX
  8
0
 10
383.601190
 20
4.090706
 42
0.076098
  0
VERTEX
  8
0
 10
385.125374
 20
4.809267
 42
0.060772
  0
VERTEX
  8
0
 10
386.500000
 20
6.000000
 42
-0.070035
  0
VERTEX
  8
0
 10
387.624975
 20
6.938725
 42
-0.065998
  0
VERTEX
  8
0
 10
388.987688
 20
7.553407
 42
-0.050942
  0
VERTEX
  8
0
 10
390.757368
 20
7.894017
 42
-0.022091
  0
VERTEX
  8
0
 10
393.154988
 20
8.000000
 42
-0.012221
  0
VERTEX
  8
0
 10
395.861936
 20
7.933828
 42
-0.085862
  0
VERTEX
  8
0
 10
397.144373
 20
7.646801
 42
-0.189463
  0
VERTEX
  8
0
 10
397.772040
 20
7.043055
 42
-0.108001
  0
VERTEX
  8
0
 10
398.000000
 20
6.000000
 42
0.072823
  0
VERTEX
  8
0
 10
398.130307
 20
5.110060
 42
0.131300
  0
VERTEX
  8
0
 10
398.514193
 20
4.486570
 42
0.125969
  0
VERTEX
  8
0
 10
399.171048
 20
4.121575
 42
0.064230
  0
VERTEX
  8
0
 10
400.113544
 20
4.000000
 42
0.191358
  0
VERTEX
  8
0
 10
401.323192
 20
4.480548
 42
0.201148
  0
VERTEX
  8
0
 10
401.841028
 20
5.647929
 42
0.040279
  0
VERTEX
  8
0
 10
401.677329
 20
8.372799
 42
0.002004
  0
VERTEX
  8
0
 10
400.385338
 20
17.250000
 42
0.059702
  0
VERTEX
  8
0
 10
399.756356
 20
19.542321
 42
0.160622
  0
VERTEX
  8
0
 10
398.673867
 20
20.813036
 42
0.199302
  0
VERTEX
  8
0
 10
397.220369
 20
21.037535
 42
0.096398
  0
SEQEND
  0
POLYLINE
  8
0
 66
1
 70
1
  0
VERTEX
  8
0
 10
395.177993
 20
11.174756
 42
-0.040623
  0
VERTEX
  8
0
 10
393.051478
 20
11.056178
 42
-0.318722
  0
VERTEX
  8
0
 10
392.302537
 20
11.616808
 42
-0.242564
  0
VERTEX
  8
0
 10
392.479199
 20
12.679012
 42
-0.028050
  0
VERTEX
  8
0
 10
394.079390
 20
14.591102
 42
0.000000
  0
VERTEX
  8
0
 10
396.500000
 20
17.174318
 42
0.000000
  0
VERTEX
  8
0
 10
397.019415
 20
14.337159
 42
-0.029134
  0
VERTEX
  8
0
 10
397.210342
 20
12.790448
 42
-0.149055
  0
VERTEX
  8
0
 10
397.014138
 20
11.957593
 42
-0.181211
  0
VERTEX
  8
0
 10
396.412297
 20
11.465939
 42
-0.047420
  0
SEQEND
  0
POLYLINE
  8
0
 66
1
 70
1
  0
VERTEX
  8
0
 10
409.294640
 20
19.750000
 42
0.066709
  0
VERTEX
  8
0
 10
407.913566
 20
17.319764
 42
0.019064
  0
VERTEX
  8
0
 10
406.442254
 20
13.231190
 42
0.017591
  0
VERTEX
  8
0
 10
405.288586
 20
9.096935
 42
0.094759
  0
VERTEX
  8
0
 10
405.177088
 20
6.775649
 42
0.098087
  0
VERTEX
  8
0
 10
405.610971
 20
5.535310
 42
0.165541
  0
VERTEX
  8
0
 10
406.437494
 20
4.823975
 42
0.074305
  0
VERTEX
  8
0
 10
408.028300
 20
4.444454
 42
0.009396
  0
VERTEX
  8
0
 10
411.560724
 20
4.207196
 42
0.047306
  0
VERTEX
  8
0
 10
416.541471
 20
4.437806
 42
0.117782
  0
VERTEX
  8
0
 10
419.912483
 20
5.765861
 42
0.114970
  0
VERTEX
  8
0
 10
422.368042
 20
8.498258
 42
0.043902
  0
VERTEX
  8
0
 10
424.445509
 20
13.208291
 42
-0.010361
  0
VERTEX
  8
0
 10
425.670201
 20
16.580312
 42
-0.109983
  0
VERTEX
  8
0
 10
426.476151
 20
17.788761
 42
-0.182382
  0
VERTEX
  8
0
 10
427.561643
 20
18.251196
 42
-0.039558
  0
VERTEX
  8
0
 10
429.633532
 20
18.174204
 42
-0.010106
  0
VERTEX
  8
0
 10
430.924118
 20
17.997030
 42
-0.016405
  0
VERTEX
  8
0
 10
432.011100
 20
17.788605
 42
-0.010320
  0
VERTEX
  8
0
 10
432.876963
 20
17.574056
 42
-0.338971
  0
VERTEX
  8
0
 10
433.000000
 20
17.413423
 42
-0.084958
  0
VERTEX
  8
0
 10
432.953273
 20
17.140408
 42
-0.000817
  0
VERTEX
  8
0
 10
432.278789
 20
15.237608
 42
-0.002691
  0
VERTEX
  8
0
 10
431.485843
 20
13.049493
 42
-0.001736
  0
VERTEX
  8
0
 10
430.544814
 20
10.522829
 42
0.004630
  0
VERTEX
  8
0
 10
429.086171
 20
6.535971
 42
0.060308
  0
VERTEX
  8
0
 10
428.740827
 20
4.998889
 42
0.255717
  0
VERTEX
  8
0
 10
429.038439
 20
4.295305
 42
0.169064
  0
VERTEX
  8
0
 10
429.886828
 20
4.000000
 42
0.188943
  0
VERTEX
  8
0
 10
430.876297
 20
4.387750
 42
0.062105
  0
VERTEX
  8
0
 10
431.901760
 20
5.605770
 42
0.038435
  0
VERTEX
  8
0
 10
433.043753
 20
7.701677
 42
0.012045
  0
VERTEX
  8
0
 10
434.430383
 20
11.000000
 42
-0.007618
  0
VERTEX
  8
0
 10
436.231425
 20
15.392529
 42
-0.079451
  0
VERTEX
  8
0
 10
437.268376
 20
17.035799
 42
-0.158423
  0
VERTEX
  8
0
 10
438.505445
 20
17.769069
 42
-0.055265
  0
VERTEX
  8
0
 10
440.588369
 20
18.000000
 42
0.026194
  0
VERTEX
  8
0
 10
442.171755
 20
18.083006
 42
0.080963
  0
VERTEX
  8
0
 10
443.201848
 20
18.364020
 42
0.136939
  0
VERTEX
  8
0
 10
443.783400
 20
18.853934
 42
0.150760
  0
VERTEX
  8
0
 10
444.000000
 20
19.555970
 42
0.278100
  0
VERTEX
  8
0
 10
443.521295
 20
20.350079
 42
0.091161
  0
VERTEX
  8
0
 10
442.163492
 20
20.776046
 42
0.033531
  0
VERTEX
  8
0
 10
439.472921
 20
20.924550
 42
0.004537
  0
VERTEX
  8
0
 10
433.819793
 20
20.805970
 42
0.000000
  0
VERTEX
  8
0
 10
423.639586
 20
20.500000
 42
0.000000
  0
VERTEX
  8
0
 10
421.004118
 20
14.000000
 42
-0.009348
  0
VERTEX
  8
0
 10
419.277393
 20
9.959884
 42
-0.083502
  0
VERTEX
  8
0
 10
418.208117
 20
8.360160
 42
-0.140857
  0
VERTEX
  8
0
 10
416.888944
 20
7.578175
 42
-0.042992
  0
VERTEX
  8
0
 10
414.579164
 20
7.183365
 42
-0.023690
  0
VERTEX
  8
0
 10
410.468268
 20
7.035348
 42
-0.264606
  0
VERTEX
  8
0
 10
409.105885
 20
7.831281
 42
-0.212032
  0
VERTEX
  8
0
 10
408.921064
 20
9.554740
 42
-0.015615
  0
VERTEX
  8
0
 10
410.553903
 20
14.137544
 42
0.001579
  0
VERTEX
  8
0
 10
411.491496
 20
16.552410
 42
0.002470
  0
VERTEX
  8
0
 10
412.281459
 20
18.636909
 42
0.000667
  0
VERTEX
  8
0
 10
412.958429
 20
20.457635
 42
0.088893
  0
VERTEX
  8
0
 10
413.000000
 20
20.689614
 42
0.407257
  0
VERTEX
  8
0
 10
412.615094
 20
21.083795
 42
0.068144
  0
VERTEX
  8
0
 10
411.455771
 20
20.953090
 42
0.056032
  0
VERTEX
  8
0
 10
410.140798
 20
20.457689
 42
0.112612
  0
SEQEND
  0
POLYLINE
  8
0
 66
1
 70
1
  0
VERTEX
  8
0
 10
448.000000
 20
20.290565
 42
0.073039
  0
VERTEX
  8
0
 10
445.931776
 20
19.165602
 42
0.066850
  0
VERTEX
  8
0
 10
444.202751
 20
17.463712
 42
0.055199
  0
VERTEX
  8
0
 10
442.735738
 20
15.068372
 42
0.029647
  0
VERTEX
  8
0
 10
441.448910
 20
11.846182
 42
0.040582
  0
VERTEX
  8
0
 10
440.415621
 20
7.615775
 42
0.224530
  0
VERTEX
  8
0
 10
441.053109
 20
5.426010
 42
0.187233
  0
VERTEX
  8
0
 10
443.262623
 20
4.288069
 42
0.027657
  0
VERTEX
  8
0
 10
448.372445
 20
4.031803
 42
0.030911
  0
VERTEX
  8
0
 10
453.065064
 20
4.346649
 42
0.110057
  0
VERTEX
  8
0
 10
455.879500
 20
5.367712
 42
0.114925
  0
VERTEX
  8
0
 10
457.927375
 20
7.459915
 42
0.035236
  0
VERTEX
  8
0
 10
459.964505
 20
11.417193
 42
0.014259
  0
VERTEX
  8
0
 10
461.491352
 20
15.279766
 42
0.084219
  0
VERTEX
  8
0
 10
461.879176
 20
17.412419
 42
0.168463
  0
VERTEX
  8
0
 10
461.407159
 20
18.827537
 42
0.106313
  0
VERTEX
  8
0
 10
460.065741
 20
19.964816
 42
0.094218
  0
VERTEX
  8
0
 10
457.955525
 20
20.625722
 42
0.022165
  0
VERTEX
  8
0
 10
454.250318
 20
20.890402
 42
0.023194
  0
VERTEX
  8
0
 10
450.482957
 20
20.817347
 42
0.071768
  0
SEQEND
  0
POLYLINE
  8
0
 66
1
 70
1
  0
VERTEX
  8
0
 10
457.492876
 20
17.011527
 42
-0.179105
  0
VERTEX
  8
0
 10
457.620994
 20
16.376639
 42
-0.022833
  0
VERTEX
  8
0
 10
457.338106
 20
14.988156
 42
-0.024405
  0
VERTEX
  8
0
 10
456.827820
 20
13.311537
 42
-0.018058
  0
VERTEX
  8
0
 10
456.108124
 20
11.511527
 42
-0.017253
  0
VERTEX
  8
0
 10
454.729299
 20
8.664227
 42
-0.129765
  0
VERTEX
  8
0
 10
453.724598
 20
7.571741
 42
-0.126782
  0
VERTEX
  8
0
 10
452.301636
 20
7.105037
 42
-0.016178
  0
VERTEX
  8
0
 10
449.056230
 20
7.000000
 42
-0.018912
  0
VERTEX
  8
0
 10
447.104504
 20
7.073850
 42
-0.031441
  0
VERTEX
  8
0
 10
445.474721
 20
7.301032
 42
-0.033433
  0
VERTEX
  8
0
 10
444.287751
 20
7.627239
 42
-0.319157
  0
VERTEX
  8
0
 10
444.000000
 20
8.032119
 42
-0.092033
  0
VERTEX
  8
0
 10
444.342011
 20
9.874460
 42
-0.017621
  0
VERTEX
  8
0
 10
445.679911
 20
13.018375
 42
-0.015817
  0
VERTEX
  8
0
 10
447.222771
 20
16.061664
 42
-0.126630
  0
VERTEX
  8
0
 10
448.288787
 20
17.199642
 42
-0.117100
  0
VERTEX
  8
0
 10
450.122712
 20
17.833918
 42
-0.030078
  0
VERTEX
  8
0
 10
453.277931
 20
17.959253
 42
-0.026047
  0
VERTEX
  8
0
 10
456.366603
 20
17.734879
 42
-0.226936
  0
SEQEND
  0
ENDSEC
  0
EOF
