  0
SECTION
  2
HEADER
  9
$ACADVER
  1
AC1006
  9
$EXTMIN
 10
0.000000
 20
0.000000
 30
0.000000
  9
$EXTMAX
 10
1000.000000
 20
319.000000
 30
0.000000
  0
ENDSEC
  0
SECTION
  2
ENTITIES
  0
POLYLINE
  8
0
 66
1
 70
1
  0
VERTEX
  8
0
 10
236.346672
 20
297.250000
 42
-0.000300
  0
VERTEX
  8
0
 10
228.187370
 20
286.683245
 42
-0.000002
  0
VERTEX
  8
0
 10
153.403012
 20
189.954030
 42
-0.000008
  0
VERTEX
  8
0
 10
84.391622
 20
100.695560
 42
-0.000029
  0
VERTEX
  8
0
 10
39.776637
 20
43.000000
 42
0.000000
  0
VERTEX
  8
0
 10
16.962061
 20
13.500000
 42
0.000000
  0
VERTEX
  8
0
 10
60.731030
 20
13.239138
 42
0.000915
  0
VERTEX
  8
0
 10
77.589526
 20
13.169497
 42
0.001469
  0
VERTEX
  8
0
 10
91.965479
 20
13.178646
 42
0.000239
  0
VERTEX
  8
0
 10
104.695598
 20
13.230234
 42
0.090678
  0
VERTEX
  8
0
 10
105.598262
 20
13.399525
 42
0.137820
  0
VERTEX
  8
0
 10
106.327966
 20
13.943013
 42
0.000169
  0
VERTEX
  8
0
 10
117.642451
 20
28.631169
 42
0.001492
  0
VERTEX
  8
0
 10
130.271079
 20
45.138469
 42
0.000916
  0
VERTEX
  8
0
 10
145.057518
 20
64.660388
 42
-0.000099
  0
VERTEX
  8
0
 10
178.295144
 20
108.691955
 42
-0.001823
  0
VERTEX
  8
0
 10
188.874990
 20
122.596158
 42
-0.001017
  0
VERTEX
  8
0
 10
195.060397
 20
130.630003
 42
-0.451991
  0
VERTEX
  8
0
 10
195.664826
 20
130.668507
 42
-0.164995
  0
VERTEX
  8
0
 10
196.018967
 20
129.950751
 42
-0.000017
  0
VERTEX
  8
0
 10
203.482942
 20
73.420687
 42
-0.000077
  0
VERTEX
  8
0
 10
210.750696
 20
18.296914
 42
-0.032745
  0
VERTEX
  8
0
 10
211.000000
 20
14.494262
 42
0.387477
  0
VERTEX
  8
0
 10
211.800931
 20
13.615913
 42
0.012255
  0
VERTEX
  8
0
 10
217.043972
 20
13.260787
 42
0.009602
  0
VERTEX
  8
0
 10
226.012894
 20
13.046233
 42
0.001178
  0
VERTEX
  8
0
 10
245.630842
 20
13.000000
 42
0.000000
  0
VERTEX
  8
0
 10
280.261685
 20
13.000000
 42
0.000000
  0
VERTEX
  8
0
 10
279.764015
 20
16.250000
 42
-0.006665
  0
VERTEX
  8
0
 10
279.401312
 20
18.849742
 42
-0.000013
  0
VERTEX
  8
0
 10
274.159353
 20
60.477671
 42
-0.000094
  0
VERTEX
  8
0
 10
268.274891
 20
107.288903
 42
-0.000058
  0
VERTEX
  8
0
 10
261.383172
 20
162.248454
 42
0.000380
  0
VERTEX
  8
0
 10
254.483617
 20
216.985305
 42
0.000633
  0
VERTEX
  8
0
 10
248.580391
 20
263.065004
 42
0.000016
  0
VERTEX
  8
0
 10
243.183991
 20
304.758574
 42
0.376238
  0
VERTEX
  8
0
 10
242.911775
 20
304.998454
 42
0.218545
  0
VERTEX
  8
0
 10
242.544791
 20
304.831170
 42
0.002466
  0
VERTEX
  8
0
 10
240.740633
 20
302.722983
 42
0.007034
  0
VERTEX
  8
0
 10
238.680171
 20
300.220589
 42
0.004460
  0
SEQEND
  0
POLYLINE
  8
0
 66
1
 70
1
  0
VERTEX
  8
0
 10
353.673545
 20
232.250000
 42
0.055739
  0
VERTEX
  8
0
 10
353.244581
 20
231.298735
 42
0.000012
  0
VERTEX
  8
0
 10
337.943816
 20
183.899776
 42
0.000197
  0
VERTEX
  8
0
 10
318.068768
 20
122.242120
 42
0.000054
  0
VERTEX
  8
0
 10
286.777197
 20
25.000000
 42
-0.000587
  0
VERTEX
  8
0
 10
285.572192
 20
21.268943
 42
-0.000808
  0
VERTEX
  8
0
 10
284.480175
 20
17.919691
 42
-0.000510
  0
VERTEX
  8
0
 10
283.554382
 20
15.105431
 42
-0.009813
  0
VERTEX
  8
0
 10
283.248778
 20
14.237247
 42
0.506935
  0
VERTEX
  8
0
 10
283.706838
 20
13.538521
 42
0.005967
  0
VERTEX
  8
0
 10
290.085295
 20
13.281807
 42
0.007561
  0
VERTEX
  8
0
 10
300.016143
 20
13.151008
 42
0.001347
  0
VERTEX
  8
0
 10
318.586039
 20
13.237247
 42
0.000000
  0
VERTEX
  8
0
 10
354.395843
 20
13.500000
 42
0.000000
  0
VERTEX
  8
0
 10
374.300675
 20
74.500000
 42
-0.000363
  0
VERTEX
  8
0
 10
381.961181
 20
97.918656
 42
-0.000597
  0
VERTEX
  8
0
 10
388.475154
 20
117.703646
 42
-0.000033
  0
VERTEX
  8
0
 10
394.367342
 20
135.524354
 42
-0.110991
  0
VERTEX
  8
0
 10
394.602754
 20
135.916667
 42
-0.101130
  0
VERTEX
  8
0
 10
394.785505
 20
136.043765
 42
-0.101877
  0
VERTEX
  8
0
 10
395.002982
 20
136.088542
 42
-0.101235
  0
VERTEX
  8
0
 10
395.221574
 20
136.043825
 42
-0.098587
  0
VERTEX
  8
0
 10
395.407399
 20
135.916667
 42
-0.126158
  0
VERTEX
  8
0
 10
395.637061
 20
135.518478
 42
-0.000039
  0
VERTEX
  8
0
 10
400.628114
 20
117.630208
 42
-0.000687
  0
VERTEX
  8
0
 10
406.139795
 20
97.764525
 42
-0.000417
  0
VERTEX
  8
0
 10
412.607953
 20
74.250000
 42
0.000000
  0
VERTEX
  8
0
 10
429.401108
 20
13.000000
 42
0.000000
  0
VERTEX
  8
0
 10
464.700554
 20
13.000000
 42
0.000904
  0
VERTEX
  8
0
 10
478.236147
 20
13.024463
 42
0.001507
  0
VERTEX
  8
0
 10
489.630788
 20
13.100003
 42
0.000092
  0
VERTEX
  8
0
 10
499.861503
 20
13.200547
 42
0.411285
  0
VERTEX
  8
0
 10
500.000000
 20
13.340437
 42
0.067698
  0
VERTEX
  8
0
 10
499.962896
 20
13.613225
 42
0.000015
  0
VERTEX
  8
0
 10
496.482556
 20
26.168631
 42
0.000318
  0
VERTEX
  8
0
 10
492.616944
 20
40.077884
 42
0.000193
  0
VERTEX
  8
0
 10
488.025721
 20
56.532825
 42
-0.001250
  0
VERTEX
  8
0
 10
483.469174
 20
72.997892
 42
-0.002061
  0
VERTEX
  8
0
 10
479.710444
 20
86.938572
 42
-0.000197
  0
VERTEX
  8
0
 10
476.409168
 20
99.406347
 42
-0.267052
  0
VERTEX
  8
0
 10
476.533338
 20
99.866671
 42
-0.092613
  0
VERTEX
  8
0
 10
476.931313
 20
100.139350
 42
-0.002548
  0
VERTEX
  8
0
 10
478.863060
 20
100.981024
 42
-0.005173
  0
VERTEX
  8
0
 10
481.157640
 20
101.938907
 42
-0.003517
  0
VERTEX
  8
0
 10
483.787603
 20
102.983509
 42
0.043493
  0
VERTEX
  8
0
 10
494.585524
 20
108.306216
 42
0.035033
  0
VERTEX
  8
0
 10
505.159085
 20
115.774462
 42
0.035502
  0
VERTEX
  8
0
 10
514.414516
 20
124.500429
 42
0.049532
  0
VERTEX
  8
0
 10
521.249645
 20
133.587871
 42
0.031858
  0
VERTEX
  8
0
 10
525.332160
 20
141.387748
 42
0.036667
  0
VERTEX
  8
0
 10
528.174208
 20
149.291095
 42
0.034700
  0
VERTEX
  8
0
 10
529.939657
 20
157.888621
 42
0.023971
  0
VERTEX
  8
0
 10
530.785607
 20
167.790800
 42
0.008973
  0
VERTEX
  8
0
 10
530.890875
 20
173.231346
 42
0.010354
  0
VERTEX
  8
0
 10
530.790733
 20
178.418124
 42
0.011150
  0
VERTEX
  8
0
 10
530.508020
 20
182.949437
 42
0.026548
  0
VERTEX
  8
0
 10
530.045009
 20
186.290800
 42
0.039171
  0
VERTEX
  8
0
 10
528.315794
 20
192.561424
 42
0.025690
  0
VERTEX
  8
0
 10
525.404920
 20
199.470405
 42
0.025737
  0
VERTEX
  8
0
 10
521.813445
 20
206.019953
 42
0.040369
  0
VERTEX
  8
0
 10
518.012799
 20
211.191933
 42
0.042367
  0
VERTEX
  8
0
 10
513.502472
 20
215.580186
 42
0.024138
  0
VERTEX
  8
0
 10
507.391001
 20
220.118379
 42
0.023627
  0
VERTEX
  8
0
 10
500.603876
 20
224.216501
 42
0.030453
  0
VERTEX
  8
0
 10
494.000000
 20
227.285883
 42
0.037681
  0
VERTEX
  8
0
 10
483.306986
 20
230.580352
 42
0.038275
  0
VERTEX
  8
0
 10
472.296588
 20
232.210965
 42
0.016092
  0
VERTEX
  8
0
 10
455.091918
 20
232.870818
 42
0.001538
  0
VERTEX
  8
0
 10
413.101175
 20
233.000000
 42
0.001191
  0
VERTEX
  8
0
 10
390.453737
 20
232.946054
 42
0.001964
  0
VERTEX
  8
0
 10
371.313763
 20
232.779687
 42
0.000181
  0
VERTEX
  8
0
 10
354.205096
 20
232.557580
 42
0.261330
  0
SEQEND
  0
POLYLINE
  8
0
 66
1
 70
1
  0
VERTEX
  8
0
 10
441.627213
 20
178.518065
 42
-0.043786
  0
VERTEX
  8
0
 10
445.399060
 20
177.028188
 42
-0.067470
  0
VERTEX
  8
0
 10
448.292889
 20
175.055038
 42
-0.067291
  0
VERTEX
  8
0
 10
450.562188
 20
172.378497
 42
-0.043298
  0
VERTEX
  8
0
 10
452.452272
 20
168.768471
 42
-0.075822
  0
VERTEX
  8
0
 10
453.967371
 20
162.693775
 42
-0.084695
  0
VERTEX
  8
0
 10
453.510103
 20
156.682062
 42
-0.079834
  0
VERTEX
  8
0
 10
451.029977
 20
150.884575
 42
-0.058606
  0
VERTEX
  8
0
 10
446.622307
 20
145.441168
 42
-0.051258
  0
VERTEX
  8
0
 10
441.316228
 20
141.231808
 42
-0.088013
  0
VERTEX
  8
0
 10
436.115406
 20
139.077867
 42
-0.050412
  0
VERTEX
  8
0
 10
428.684086
 20
138.209406
 42
-0.007794
  0
VERTEX
  8
0
 10
413.831835
 20
138.209222
 42
0.000000
  0
VERTEX
  8
0
 10
395.163670
 20
138.500000
 42
0.000000
  0
VERTEX
  8
0
 10
401.430583
 20
157.634650
 42
-0.000399
  0
VERTEX
  8
0
 10
403.876894
 20
165.083817
 42
-0.000588
  0
VERTEX
  8
0
 10
406.038675
 20
171.623006
 42
-0.000268
  0
VERTEX
  8
0
 10
407.892184
 20
177.197681
 42
-0.011221
  0
VERTEX
  8
0
 10
408.317363
 20
178.384650
 42
-0.224196
  0
VERTEX
  8
0
 10
409.220240
 20
179.248463
 42
-0.052803
  0
VERTEX
  8
0
 10
411.315228
 20
179.709653
 42
-0.024288
  0
VERTEX
  8
0
 10
415.083986
 20
179.945918
 42
-0.003510
  0
VERTEX
  8
0
 10
422.787114
 20
180.000000
 42
-0.006921
  0
VERTEX
  8
0
 10
429.215294
 20
179.911021
 42
-0.012704
  0
VERTEX
  8
0
 10
434.443943
 20
179.633173
 42
-0.015420
  0
VERTEX
  8
0
 10
438.603159
 20
179.176611
 42
-0.037143
  0
SEQEND
  0
POLYLINE
  8
0
 66
1
 70
1
  0
VERTEX
  8
0
 10
570.651069
 20
222.292047
 42
0.001538
  0
VERTEX
  8
0
 10
557.409004
 20
181.525716
 42
0.000264
  0
VERTEX
  8
0
 10
532.563589
 20
104.088784
 42
0.000009
  0
VERTEX
  8
0
 10
504.218483
 20
15.577810
 42
0.077632
  0
VERTEX
  8
0
 10
504.000000
 20
14.179120
 42
0.400262
  0
VERTEX
  8
0
 10
504.601456
 20
13.548162
 42
0.003612
  0
VERTEX
  8
0
 10
511.727970
 20
13.258358
 42
0.006781
  0
VERTEX
  8
0
 10
521.999250
 20
13.054368
 42
0.001574
  0
VERTEX
  8
0
 10
539.269709
 20
13.000000
 42
0.000000
  0
VERTEX
  8
0
 10
574.539418
 20
13.000000
 42
0.000000
  0
VERTEX
  8
0
 10
580.708807
 20
31.750000
 42
0.000273
  0
VERTEX
  8
0
 10
583.999749
 20
41.770252
 42
0.000072
  0
VERTEX
  8
0
 10
589.242391
 20
57.770313
 42
0.000073
  0
VERTEX
  8
0
 10
595.200127
 20
75.970709
 42
0.000076
  0
VERTEX
  8
0
 10
601.095907
 20
94.000000
 42
-0.001985
  0
VERTEX
  8
0
 10
606.587073
 20
110.577379
 42
-0.003455
  0
VERTEX
  8
0
 10
611.292464
 20
124.281250
 42
-0.000789
  0
VERTEX
  8
0
 10
615.427887
 20
136.000406
 42
-0.707109
  0
VERTEX
  8
0
 10
615.842292
 20
136.000000
 42
-0.017132
  0
VERTEX
  8
0
 10
616.221530
 20
134.793689
 42
-0.000041
  0
VERTEX
  8
0
 10
621.104170
 20
117.168750
 42
-0.000268
  0
VERTEX
  8
0
 10
626.594788
 20
97.301453
 42
-0.000167
  0
VERTEX
  8
0
 10
633.012674
 20
74.000000
 42
0.000000
  0
VERTEX
  8
0
 10
649.654383
 20
13.500000
 42
0.000000
  0
VERTEX
  8
0
 10
684.827191
 20
13.237207
 42
0.001755
  0
VERTEX
  8
0
 10
701.004051
 20
13.173115
 42
0.005868
  0
VERTEX
  8
0
 10
711.613336
 20
13.292832
 42
0.002216
  0
VERTEX
  8
0
 10
719.478666
 20
13.508803
 42
0.404906
  0
VERTEX
  8
0
 10
720.000000
 20
14.047029
 42
0.066551
  0
VERTEX
  8
0
 10
719.887931
 20
14.885287
 42
0.000158
  0
VERTEX
  8
0
 10
716.651170
 20
26.759246
 42
0.001030
  0
VERTEX
  8
0
 10
712.970177
 20
40.137460
 42
0.000641
  0
VERTEX
  8
0
 10
708.599728
 20
55.816436
 42
-0.000376
  0
VERTEX
  8
0
 10
704.204778
 20
71.551052
 42
-0.000586
  0
VERTEX
  8
0
 10
700.445553
 20
85.110241
 42
-0.000154
  0
VERTEX
  8
0
 10
697.180807
 20
96.953944
 42
-0.021143
  0
VERTEX
  8
0
 10
696.849728
 20
98.391340
 42
-0.147050
  0
VERTEX
  8
0
 10
696.958723
 20
99.397540
 42
-0.128989
  0
VERTEX
  8
0
 10
697.605911
 20
100.237534
 42
-0.066467
  0
VERTEX
  8
0
 10
698.986801
 20
101.037417
 42
-0.015272
  0
VERTEX
  8
0
 10
701.511690
 20
101.992826
 42
0.087915
  0
VERTEX
  8
0
 10
724.660495
 20
114.837690
 42
0.089050
  0
VERTEX
  8
0
 10
741.865393
 20
134.805793
 42
0.090256
  0
VERTEX
  8
0
 10
750.892298
 20
159.265578
 42
0.093463
  0
VERTEX
  8
0
 10
750.560880
 20
185.025435
 42
0.028485
  0
VERTEX
  8
0
 10
748.341183
 20
193.498818
 42
0.040804
  0
VERTEX
  8
0
 10
745.356214
 20
200.664159
 42
0.042521
  0
VERTEX
  8
0
 10
741.355945
 20
207.026656
 42
0.035001
  0
VERTEX
  8
0
 10
736.088674
 20
213.077972
 42
0.030551
  0
VERTEX
  8
0
 10
730.152776
 20
218.321062
 42
0.032329
  0
VERTEX
  8
0
 10
723.729039
 20
222.694923
 42
0.030519
  0
VERTEX
  8
0
 10
716.465333
 20
226.404125
 42
0.022248
  0
VERTEX
  8
0
 10
708.000000
 20
229.654664
 42
0.000000
  0
VERTEX
  8
0
 10
699.500000
 20
232.491618
 42
0.000000
  0
VERTEX
  8
0
 10
636.846689
 20
232.787856
 42
0.000000
  0
VERTEX
  8
0
 10
574.193379
 20
233.084094
 42
0.000000
  0
SEQEND
  0
POLYLINE
  8
0
 66
1
 70
1
  0
VERTEX
  8
0
 10
661.218945
 20
178.955994
 42
-0.057312
  0
VERTEX
  8
0
 10
664.519484
 20
177.617012
 42
-0.043359
  0
VERTEX
  8
0
 10
667.778464
 20
175.451141
 42
-0.043678
  0
VERTEX
  8
0
 10
670.586256
 20
172.779674
 42
-0.061508
  0
VERTEX
  8
0
 10
672.535917
 20
169.930544
 42
-0.115049
  0
VERTEX
  8
0
 10
674.116205
 20
163.693739
 42
-0.068263
  0
VERTEX
  8
0
 10
673.214630
 20
156.039571
 42
-0.067088
  0
VERTEX
  8
0
 10
670.241008
 20
148.754502
 42
-0.099749
  0
VERTEX
  8
0
 10
665.710750
 20
143.592949
 42
-0.046015
  0
VERTEX
  8
0
 10
660.748391
 20
140.484302
 42
-0.071226
  0
VERTEX
  8
0
 10
655.964812
 20
138.870030
 42
-0.039811
  0
VERTEX
  8
0
 10
649.183031
 20
138.164436
 42
-0.006023
  0
VERTEX
  8
0
 10
635.532119
 20
138.000000
 42
-0.003702
  0
VERTEX
  8
0
 10
628.042620
 20
138.055451
 42
-0.006168
  0
VERTEX
  8
0
 10
621.737560
 20
138.226634
 42
-0.001525
  0
VERTEX
  8
0
 10
616.299498
 20
138.458051
 42
-0.400926
  0
VERTEX
  8
0
 10
616.000000
 20
138.771521
 42
-0.079394
  0
VERTEX
  8
0
 10
616.372233
 20
141.100970
 42
-0.000636
  0
VERTEX
  8
0
 10
622.256155
 20
158.964997
 42
-0.000562
  0
VERTEX
  8
0
 10
628.219199
 20
176.924353
 42
-0.091012
  0
VERTEX
  8
0
 10
629.224210
 20
178.750000
 42
-0.218605
  0
VERTEX
  8
0
 10
631.408354
 20
179.820214
 42
-0.004683
  0
VERTEX
  8
0
 10
643.642113
 20
180.013575
 42
-0.009725
  0
VERTEX
  8
0
 10
655.291835
 20
179.861982
 42
-0.059680
  0
SEQEND
  0
POLYLINE
  8
0
 66
1
 70
1
  0
VERTEX
  8
0
 10
758.077901
 20
124.250000
 42
-0.000067
  0
VERTEX
  8
0
 10
744.879366
 20
82.463534
 42
-0.000110
  0
VERTEX
  8
0
 10
733.687701
 20
47.074331
 42
-0.000008
  0
VERTEX
  8
0
 10
723.622245
 20
15.272363
 42
-0.014892
  0
VERTEX
  8
0
 10
723.260302
 20
14.237083
 42
0.509012
  0
VERTEX
  8
0
 10
723.713092
 20
13.539229
 42
0.006199
  0
VERTEX
  8
0
 10
729.967670
 20
13.281515
 42
0.007693
  0
VERTEX
  8
0
 10
739.730200
 20
13.150730
 42
0.001369
  0
VERTEX
  8
0
 10
757.994420
 20
13.237083
 42
0.000000
  0
VERTEX
  8
0
 10
793.212731
 20
13.500000
 42
0.000000
  0
VERTEX
  8
0
 10
800.507003
 20
37.000000
 42
-0.000056
  0
VERTEX
  8
0
 10
804.825367
 20
50.906992
 42
-0.000008
  0
VERTEX
  8
0
 10
813.472145
 20
78.740658
 42
-0.000010
  0
VERTEX
  8
0
 10
823.681948
 20
111.601475
 42
-0.000008
  0
VERTEX
  8
0
 10
834.400637
 20
146.095856
 42
0.000203
  0
VERTEX
  8
0
 10
844.599503
 20
178.962509
 42
0.000335
  0
VERTEX
  8
0
 10
853.186437
 20
206.740084
 42
0.000015
  0
VERTEX
  8
0
 10
860.921312
 20
231.823589
 42
0.074910
  0
VERTEX
  8
0
 10
861.000000
 20
232.345856
 42
0.408221
  0
VERTEX
  8
0
 10
860.737625
 20
232.613667
 42
0.000358
  0
VERTEX
  8
0
 10
850.926036
 20
232.807845
 42
0.002981
  0
VERTEX
  8
0
 10
839.855807
 20
232.952992
 42
0.001787
  0
VERTEX
  8
0
 10
826.705654
 20
233.000000
 42
0.000000
  0
VERTEX
  8
0
 10
792.411308
 20
233.000000
 42
0.000000
  0
SEQEND
  0
POLYLINE
  8
0
 66
1
 70
1
  0
VERTEX
  8
0
 10
904.893637
 20
227.750000
 42
0.002690
  0
VERTEX
  8
0
 10
885.402181
 20
202.834806
 42
0.001566
  0
VERTEX
  8
0
 10
862.268666
 20
172.739669
 42
0.000145
  0
VERTEX
  8
0
 10
837.987652
 20
140.927011
 42
0.127681
  0
VERTEX
  8
0
 10
837.256179
 20
139.185512
 42
0.106979
  0
VERTEX
  8
0
 10
837.347984
 20
137.866450
 42
0.000268
  0
VERTEX
  8
0
 10
842.610184
 20
119.782619
 42
0.001680
  0
VERTEX
  8
0
 10
848.630434
 20
99.390134
 42
0.001044
  0
VERTEX
  8
0
 10
855.824968
 20
75.500000
 42
0.000000
  0
VERTEX
  8
0
 10
874.637578
 20
13.500000
 42
0.000000
  0
VERTEX
  8
0
 10
910.818789
 20
13.237526
 42
0.001489
  0
VERTEX
  8
0
 10
928.736926
 20
13.160910
 42
0.006725
  0
VERTEX
  8
0
 10
939.198057
 20
13.288053
 42
0.003696
  0
VERTEX
  8
0
 10
946.386504
 20
13.525321
 42
0.402434
  0
VERTEX
  8
0
 10
947.000000
 20
14.164108
 42
0.073831
  0
VERTEX
  8
0
 10
946.861195
 20
15.099003
 42
0.000094
  0
VERTEX
  8
0
 10
941.382400
 20
33.130905
 42
0.000828
  0
VERTEX
  8
0
 10
935.208056
 20
53.318105
 42
0.000510
  0
VERTEX
  8
0
 10
927.876257
 20
77.062190
 42
0.000000
  0
VERTEX
  8
0
 10
908.752513
 20
138.771216
 42
0.000000
  0
VERTEX
  8
0
 10
944.691449
 20
184.635608
 42
0.000298
  0
VERTEX
  8
0
 10
958.522706
 20
202.308397
 42
0.000479
  0
VERTEX
  8
0
 10
970.291821
 20
217.394522
 42
0.000072
  0
VERTEX
  8
0
 10
980.722662
 20
230.795628
 42
0.031130
  0
VERTEX
  8
0
 10
981.374210
 20
231.750000
 42
0.561988
  0
VERTEX
  8
0
 10
981.007754
 20
232.441654
 42
0.006166
  0
VERTEX
  8
0
 10
974.558820
 20
232.746536
 42
0.007401
  0
VERTEX
  8
0
 10
964.445063
 20
232.949940
 42
0.001327
  0
VERTEX
  8
0
 10
945.582270
 20
233.000000
 42
0.000000
  0
VERTEX
  8
0
 10
909.046507
 20
233.000000
 42
0.000000
  0
SEQEND
  0
ENDSEC
  0
EOF
