<?xml version="1.0" encoding="utf-8" ?><!DOCTYPE svg PUBLIC "-//W3C//DTD SVG 1.1//EN" "http://www.w3.org/Graphics/SVG/1.1/DTD/svg11.dtd" 
[ <!ATTLIST svg 
  xmlns:dsy CDATA #FIXED "http://www.3ds.com/print"  
    dsy:text-version CDATA #IMPLIED > 

  <!ATTLIST text 
  xmlns:dsy CDATA #FIXED "http://www.3ds.com/print" 
    dsy:text-version CDATA #IMPLIED > 
]><svg xmlns="http://www.w3.org/2000/svg" xmlns:dsy="http://www.3ds.com/print" dsy:text-version="18000" width="1189" height="841" viewBox="0 0 1189 841" version="1.1"><g stroke="rgb(0, 0, 0)" stroke-width="0.35" stroke-linecap="butt" stroke-linejoin="miter" fill="none"><path d="M 175.163 20.2463 A 2.60001 2.60001 0 0 0 172.527 15.7642"/><path d="M 172.578 21.7673 L 175.163 20.2463"/><path d="M 169.941 17.2852 A 2.60001 2.60001 0 1 0 172.578 21.7673"/><path d="M 169.941 17.2852 L 172.527 15.7642"/><path d="M 187.804 11.4052 L 187.804 26.2985"/><path d="M 187.804 26.2985 L 64.8665 74.6201"/><path d="M 64.8665 74.6201 L 19.3705 35.2007"/><path d="M 24.9573 30.7175 L 19.3705 35.2007"/><path d="M 24.9573 30.7175 L 26.4976 32.6563"/><path d="M 26.4976 32.6563 L 27.6486 33.9841 L 28.9098 35.2081 L 30.273 36.3174 L 30.9978 36.8308 L 31.7452 37.3105 L 32.4978 37.7462 L 33.2697 38.1467 L 34.7582 38.795 L 36.2999 39.305 L 37.0871 39.5048 L 37.8832 39.6661 L 38.9551 39.8188 L 40.0349 39.8976 L 41.1174 39.8998 L 42.5758 39.7767 L 44.0137 39.5046 L 44.7198 39.3118 L 45.4144 39.0811 L 46.3187 38.7147 L 47.1934 38.282 L 48.0331 37.7847 L 49.1812 36.9514 L 50.2302 35.9968 L 51.1681 34.933 L 51.9861 33.7742 L 52.6778 32.5354 L 53.1637 31.4313 L 53.5551 30.2901 L 53.8524 29.1205 L 54.0569 27.931 L 54.1426 27.1307 L 54.1886 26.3272 L 54.1649 24.7185 L 53.9928 23.1194 L 53.8421 22.2712 L 53.6521 21.431 L 53.1584 19.7806 L 52.5203 18.1804 L 51.7464 16.6414 L 50.8448 15.1739 L 49.8965 13.8795"/><path d="M 48.3563 11.9407 L 49.8965 13.8795"/><path d="M 49.8913 10.7089 L 48.3563 11.9407"/><path d="M 49.8913 10.7089 L 82.1009 35.1359"/><path d="M 82.1009 35.1359 L 143.541 11.4052"/><path d="M 143.541 11.4052 L 187.804 11.4052"/><path d="M 152.165 19.9611 A 2.60001 2.60001 0 0 0 149.529 15.4789"/><path d="M 152.165 19.9611 L 149.579 21.4821"/><path d="M 146.943 16.9999 A 2.60001 2.60001 0 1 0 149.579 21.4821"/><path d="M 146.943 16.9999 L 149.529 15.4789"/><path d="M 81.0159 38.5781 L 85.929 35.6882"/><path d="M 85.929 35.6882 L 88.971 40.86"/><path d="M 88.971 40.86 L 84.0579 43.7498"/><path d="M 81.0159 38.5781 L 84.0579 43.7498"/><path d="M 94.4914 50.2452 L 97.5333 55.4169"/><path d="M 97.5333 55.4169 L 92.6202 58.3068"/><path d="M 89.5783 53.1351 L 92.6202 58.3068"/><path d="M 94.4914 50.2452 L 89.5783 53.1351"/><path d="M 114.315 28.1284 L 119.228 25.2385"/><path d="M 119.228 25.2385 L 122.27 30.4102"/><path d="M 122.27 30.4102 L 117.357 33.3001"/><path d="M 114.315 28.1284 L 117.357 33.3001"/><path d="M 127.358 39.0602 L 130.4 44.2319"/><path d="M 130.4 44.2319 L 125.487 47.1218"/><path d="M 122.445 41.9501 L 125.487 47.1218"/><path d="M 127.358 39.0602 L 122.445 41.9501"/><path d="M 144.184 73.7856 L 147.017 73.1777"/><path d="M 144.184 73.7856 L 136.099 59.22"/><path d="M 188.277 42.2896 L 136.099 59.22"/><path d="M 188.277 42.2896 L 195.277 42.2896"/><path d="M 195.277 42.2896 L 195.277 48.2896"/><path d="M 195.277 48.2896 L 188.277 48.2896"/><path d="M 188.277 48.2896 L 188.277 58.3251"/><path d="M 188.277 58.3251 L 195.277 58.3251"/><path d="M 177.506 66.6362 L 188.277 64.3251"/><path d="M 195.277 64.3251 L 188.277 64.3251"/><path d="M 195.277 58.3251 L 195.277 64.3251"/><path d="M 164.134 61.7303 A 16.2951 15.0001 -359.998 0 0 147.017 73.1777"/><path d="M 177.506 66.6362 A 16.2922 14.9958 -359.955 0 0 164.134 61.7304"/><path d="M 126.393 79.8261 L 119.393 79.8261"/><path d="M 126.393 85.8261 L 126.393 79.8261"/><path d="M 119.393 85.8261 L 126.393 85.8261"/><path d="M 119.393 96.7145 L 119.393 85.8261"/><path d="M 126.393 96.7145 L 119.393 96.7145"/><path d="M 126.393 102.715 L 126.393 96.7145"/><path d="M 121.431 102.715 L 126.393 102.715"/><path d="M 80.8201 92.2445 A 16.2952 15.0002 -359.997 0 0 63.5311 104.433"/><path d="M 54.278 104.708 L 63.5311 104.433"/><path d="M 97.8613 103.414 L 121.431 102.715"/><path d="M 119.393 79.8261 L 57.404 84.6362"/><path d="M 57.404 84.6362 L 54.278 104.708"/><path d="M 97.8613 103.414 A 16.2947 14.9996 -359.993 0 0 80.8201 92.2445"/></g><g stroke="rgb(0, 0, 0)" stroke-width="0.13" stroke-linecap="butt" stroke-linejoin="miter" fill="none"><path d="M 56.7958 46.8923 L 56.7958 44.3052 L 56.3721 44.3052 L 56.3721 44.7439 L 56.0241 44.3455 L 55.8123 44.2446 L 55.5753 44.2094 L 55.1466 44.3102 L 54.8138 44.5926 L 54.5969 45.0465 L 54.5213 45.6567 L 54.5969 46.272 L 54.8138 46.7259 L 55.1466 47.0134 L 55.5753 47.1092 L 55.8174 47.0739 L 56.0191 46.9831 L 56.3721 46.5998 L 56.3721 46.9831 L 56.3318 47.2857 L 56.2208 47.5026 L 56.009 47.6287 L 55.6913 47.674 L 55.4139 47.6438 L 55.2172 47.5681 L 55.1012 47.437 L 55.0659 47.2605 L 54.6373 47.2605 L 54.6373 47.2806 L 54.7028 47.6035 L 54.9045 47.8455 L 55.2273 48.0018 L 55.6661 48.0573 L 56.1906 47.9817 L 56.5386 47.7698 L 56.7352 47.4017 L 56.7958 46.8923 L 56.7958 46.8923 z M 54.9802 45.6567 L 55.0256 45.2079 L 55.1618 44.8751 L 55.3736 44.6783 L 55.656 44.6077 L 55.9535 44.6783 L 56.1754 44.8751 L 56.3116 45.2079 L 56.362 45.6567 L 56.3116 46.1157 L 56.1754 46.4435 L 55.9535 46.6452 L 55.656 46.7108 L 55.3736 46.6452 L 55.1618 46.4435 L 55.0256 46.1107 L 54.9802 45.6567 L 54.9802 45.6567 z M 59.3325 46.6603 L 59.3325 46.6755 L 59.3577 46.8469 L 59.4334 46.968 L 59.7511 47.0638 L 59.9982 47.0234 L 59.9982 46.6805 L 59.8923 46.6956 L 59.7511 46.6301 L 59.7259 46.4283 L 59.7259 45.0263 L 59.6654 44.6683 L 59.4888 44.4161 L 59.1812 44.2648 L 58.7475 44.2094 L 58.3239 44.2698 L 58.0112 44.4413 L 57.8145 44.7086 L 57.7489 45.0616 L 57.7489 45.0919 L 58.1473 45.0919 L 58.1827 44.8801 L 58.2936 44.7288 L 58.4752 44.638 L 58.7324 44.6027 L 58.9795 44.6279 L 59.156 44.7036 L 59.2619 44.8347 L 59.2972 45.0162 L 59.277 45.2281 L 59.1963 45.334 L 58.9946 45.3844 L 58.6164 45.4247 L 58.1827 45.5155 L 57.875 45.6769 L 57.6935 45.9291 L 57.638 46.3022 L 57.6884 46.6351 L 57.8448 46.8823 L 58.0969 47.0386 L 58.4449 47.0941 L 58.9139 46.9882 L 59.3325 46.6603 L 59.3325 46.6603 z M 59.2821 46.0652 L 59.2216 46.3275 L 59.0602 46.5292 L 58.8181 46.6603 L 58.5205 46.7057 L 58.3289 46.6805 L 58.1927 46.5998 L 58.107 46.4586 L 58.0818 46.2619 L 58.102 46.0854 L 58.1827 45.9594 L 58.5054 45.8181 L 58.9139 45.7576 L 59.2821 45.6365 L 59.2821 46.0652 L 59.2821 46.0652 z M 61.1783 46.5948 L 61.5061 46.9831 L 61.955 47.1092 L 62.3786 47.0134 L 62.7165 46.7259 L 62.9283 46.267 L 63.009 45.6567 L 62.9283 45.0465 L 62.7115 44.5926 L 62.3786 44.3102 L 61.955 44.2094 L 61.5112 44.3405 L 61.3296 44.5018 L 61.1783 44.7187 L 61.1783 43.3923 L 60.7345 43.3923 L 60.7345 47.0134 L 61.1783 47.0134 L 61.1783 46.5948 L 61.1783 46.5948 z M 62.5551 45.6567 L 62.5047 46.1107 L 62.3685 46.4435 L 62.1517 46.6452 L 61.8793 46.7108 L 61.5818 46.6452 L 61.3649 46.4435 L 61.2288 46.1157 L 61.1834 45.6567 L 61.2288 45.2028 L 61.3649 44.8751 L 61.5818 44.6783 L 61.8793 44.6077 L 62.1517 44.6783 L 62.3685 44.8801 L 62.5047 45.2079 L 62.5551 45.6567 L 62.5551 45.6567 z M 65.4046 46.6603 L 65.4046 46.6755 L 65.4298 46.8469 L 65.5054 46.968 L 65.8232 47.0638 L 66.0703 47.0234 L 66.0703 46.6805 L 65.9644 46.6956 L 65.8232 46.6301 L 65.7979 46.4283 L 65.7979 45.0263 L 65.7374 44.6683 L 65.5609 44.4161 L 65.2533 44.2648 L 64.8195 44.2094 L 64.3959 44.2698 L 64.0832 44.4413 L 63.8865 44.7086 L 63.821 45.0616 L 63.821 45.0919 L 64.2194 45.0919 L 64.2547 44.8801 L 64.3657 44.7288 L 64.5472 44.638 L 64.8044 44.6027 L 65.0515 44.6279 L 65.228 44.7036 L 65.334 44.8347 L 65.3693 45.0162 L 65.3491 45.2281 L 65.2684 45.334 L 65.0667 45.3844 L 64.6884 45.4247 L 64.2547 45.5155 L 63.9471 45.6769 L 63.7655 45.9291 L 63.71 46.3022 L 63.7605 46.6351 L 63.9168 46.8823 L 64.169 47.0386 L 64.517 47.0941 L 64.986 46.9882 L 65.4046 46.6603 L 65.4046 46.6603 z M 65.3541 46.0652 L 65.2936 46.3275 L 65.1322 46.5292 L 64.8902 46.6603 L 64.5926 46.7057 L 64.401 46.6805 L 64.2648 46.5998 L 64.1791 46.4586 L 64.1538 46.2619 L 64.174 46.0854 L 64.2547 45.9594 L 64.5775 45.8181 L 64.986 45.7576 L 65.3541 45.6365 L 65.3541 46.0652 L 65.3541 46.0652 z M 66.9982 47.0134 L 67.442 47.0134 L 67.442 45.4651 L 67.4874 45.0919 L 67.6236 44.8246 L 67.8455 44.6632 L 68.143 44.6077 L 68.3649 44.6431 L 68.5314 44.7439 L 68.6322 44.9154 L 68.6675 45.1474 L 69.1164 45.1474 L 69.0559 44.7389 L 68.8894 44.4464 L 68.6121 44.2698 L 68.2338 44.2094 L 67.9766 44.2497 L 67.7547 44.3505 L 67.558 44.522 L 67.4017 44.754 L 67.4017 44.3052 L 66.9982 44.3052 L 66.9982 47.0134 L 66.9982 47.0134 z M 71.2244 46.6402 L 71.2244 44.3959 L 70.0847 44.3959 L 70.0847 44.7742 L 70.7806 44.7742 L 70.7806 46.6402 L 69.8729 46.6402 L 69.8729 47.0134 L 72.1423 47.0134 L 72.1423 46.6402 L 71.2244 46.6402 L 71.2244 46.6402 z M 71.2396 43.3923 L 70.7706 43.3923 L 70.7706 43.8967 L 71.2396 43.8967 L 71.2396 43.3923 L 71.2396 43.3923 z M 73.4989 44.7742 L 73.4989 46.1308 L 73.5292 46.5696 L 73.6704 46.8721 L 73.9528 47.0486 L 74.4319 47.1092 L 74.9564 47.084 L 74.9564 46.7007 L 74.5732 46.731 L 74.2252 46.6906 L 74.0386 46.5645 L 73.9579 46.3527 L 73.9427 46.0552 L 73.9427 44.7742 L 74.9564 44.7742 L 74.9564 44.3959 L 73.9427 44.3959 L 73.9427 43.6041 L 73.4989 43.6041 L 73.4989 44.3959 L 72.7324 44.3959 L 72.7324 44.7742 L 73.4989 44.7742 L 73.4989 44.7742 z" stroke="none" fill-rule="evenodd" fill="rgb(0, 0, 0)"/></g><g stroke="rgb(0, 0, 0)" stroke-width="0.13" stroke-linecap="butt" stroke-linejoin="miter" fill="none"><path d="M 56.2965 52.7072 L 56.2965 52.7223 L 56.3217 52.8937 L 56.3973 53.0148 L 56.7151 53.1106 L 56.9622 53.0703 L 56.9622 52.7274 L 56.8563 52.7424 L 56.7151 52.6769 L 56.6899 52.4752 L 56.6899 51.0731 L 56.6293 50.7151 L 56.4528 50.4629 L 56.1452 50.3116 L 55.7115 50.2562 L 55.2878 50.3167 L 54.9752 50.4882 L 54.7785 50.7554 L 54.7129 51.1085 L 54.7129 51.1387 L 55.1113 51.1387 L 55.1466 50.9269 L 55.2576 50.7756 L 55.4391 50.6848 L 55.6963 50.6495 L 55.9435 50.6747 L 56.12 50.7504 L 56.2259 50.8815 L 56.2612 51.063 L 56.241 51.2749 L 56.1603 51.3808 L 55.9586 51.4312 L 55.5803 51.4716 L 55.1466 51.5623 L 54.839 51.7238 L 54.6574 51.9759 L 54.602 52.3491 L 54.6524 52.6819 L 54.8087 52.9291 L 55.0609 53.0854 L 55.4089 53.1409 L 55.8779 53.035 L 56.2965 52.7072 L 56.2965 52.7072 z M 56.246 52.1121 L 56.1855 52.3743 L 56.0241 52.576 L 55.7821 52.7072 L 55.4845 52.7526 L 55.2929 52.7274 L 55.1567 52.6466 L 55.071 52.5054 L 55.0458 52.3087 L 55.0659 52.1322 L 55.1466 52.0062 L 55.4694 51.8649 L 55.8779 51.8044 L 56.246 51.6833 L 56.246 52.1121 L 56.246 52.1121 z M 59.388 52.6416 L 59.388 53.0602 L 59.8318 53.0602 L 59.8318 49.4391 L 59.393 49.4391 L 59.393 50.7655 L 59.0551 50.3822 L 58.8484 50.2914 L 58.6113 50.2562 L 58.1827 50.357 L 57.8498 50.6394 L 57.6329 51.0933 L 57.5573 51.7036 L 57.6329 52.3138 L 57.8498 52.7727 L 58.1827 53.0602 L 58.6113 53.156 L 58.8484 53.1207 L 59.0602 53.0299 L 59.388 52.6416 L 59.388 52.6416 z M 58.687 50.6545 L 58.9795 50.7252 L 59.2014 50.9219 L 59.3325 51.2496 L 59.3829 51.7036 L 59.3325 52.1625 L 59.2014 52.4903 L 58.9795 52.692 L 58.687 52.7576 L 58.4096 52.692 L 58.1978 52.4903 L 58.0566 52.1575 L 58.0112 51.7036 L 58.0566 51.2547 L 58.1978 50.9269 L 58.4096 50.7252 L 58.687 50.6545 L 58.687 50.6545 z M 60.5832 53.0602 L 60.9917 53.0602 L 60.9917 51.2496 L 61.0169 50.9774 L 61.0926 50.7806 L 61.2086 50.6647 L 61.3599 50.6193 L 61.4809 50.6596 L 61.5616 50.7605 L 61.602 50.9319 L 61.6171 51.1589 L 61.6171 53.0602 L 62.0004 53.0602 L 62.0004 51.2496 L 62.0256 50.9824 L 62.1012 50.7857 L 62.2223 50.6647 L 62.3736 50.6193 L 62.4946 50.6596 L 62.5753 50.7605 L 62.6257 51.1589 L 62.6257 53.0602 L 63.0342 53.0602 L 63.0342 51.1891 L 63.009 50.8008 L 62.9283 50.5032 L 62.7669 50.3217 L 62.5047 50.2562 L 62.1971 50.357 L 61.96 50.6495 L 61.7734 50.3621 L 61.4608 50.2562 L 61.1733 50.357 L 60.9766 50.6394 L 60.9766 50.352 L 60.5832 50.352 L 60.5832 53.0602 L 60.5832 53.0602 z M 65.1524 52.687 L 65.1524 50.4427 L 64.0126 50.4427 L 64.0126 50.821 L 64.7086 50.821 L 64.7086 52.687 L 63.8008 52.687 L 63.8008 53.0602 L 66.0703 53.0602 L 66.0703 52.687 L 65.1524 52.687 L 65.1524 52.687 z M 65.1675 49.4391 L 64.6985 49.4391 L 64.6985 49.9435 L 65.1675 49.9435 L 65.1675 49.4391 L 65.1675 49.4391 z M 68.1582 51.4816 L 67.7295 51.3808 L 67.4118 51.2648 L 67.3059 51.0278 L 67.3361 50.8613 L 67.442 50.7403 L 67.6135 50.6647 L 67.8606 50.6344 L 68.0976 50.6647 L 68.2842 50.7554 L 68.4053 50.8916 L 68.4557 51.0731 L 68.8894 51.0731 L 68.8894 51.063 L 68.8138 50.7352 L 68.607 50.478 L 68.2842 50.3167 L 67.8606 50.2562 L 67.4319 50.3167 L 67.1193 50.4831 L 66.9226 50.7302 L 66.8621 51.0429 L 66.9074 51.3455 L 67.0487 51.5573 L 67.2806 51.7086 L 67.6185 51.8145 L 68.1128 51.9355 L 68.4154 52.0616 L 68.4961 52.1625 L 68.5263 52.3138 L 68.4809 52.5004 L 68.3599 52.6416 L 68.1632 52.7324 L 67.901 52.7626 L 67.6236 52.7324 L 67.4219 52.6265 L 67.2857 52.455 L 67.2302 52.218 L 66.8015 52.218 L 66.8721 52.6214 L 67.0789 52.9139 L 67.4067 53.0905 L 67.8606 53.156 L 68.3347 53.0905 L 68.6827 52.9139 L 68.8945 52.6315 L 68.9701 52.2634 L 68.9146 51.9456 L 68.7583 51.7288 L 68.5011 51.5876 L 68.1582 51.4816 L 68.1582 51.4816 z M 71.1942 51.4816 L 70.7655 51.3808 L 70.4478 51.2648 L 70.3419 51.0278 L 70.3721 50.8613 L 70.4781 50.7403 L 70.6495 50.6647 L 70.8966 50.6344 L 71.1337 50.6647 L 71.3203 50.7554 L 71.4413 50.8916 L 71.4917 51.0731 L 71.9255 51.0731 L 71.9255 51.063 L 71.8498 50.7352 L 71.643 50.478 L 71.3203 50.3167 L 70.8966 50.2562 L 70.468 50.3167 L 70.1553 50.4831 L 69.9586 50.7302 L 69.8981 51.0429 L 69.9435 51.3455 L 70.0847 51.5573 L 70.3167 51.7086 L 70.6546 51.8145 L 71.1488 51.9355 L 71.4514 52.0616 L 71.5321 52.1625 L 71.5623 52.3138 L 71.517 52.5004 L 71.3959 52.6416 L 71.1992 52.7324 L 70.937 52.7626 L 70.6596 52.7324 L 70.4579 52.6265 L 70.3217 52.455 L 70.2662 52.218 L 69.8376 52.218 L 69.9082 52.6214 L 70.1149 52.9139 L 70.4427 53.0905 L 70.8966 53.156 L 71.3707 53.0905 L 71.7187 52.9139 L 71.9305 52.6315 L 72.0061 52.2634 L 71.9507 51.9456 L 71.7943 51.7288 L 71.5371 51.5876 L 71.1942 51.4816 L 71.1942 51.4816 z M 74.2605 52.687 L 74.2605 50.4427 L 73.1207 50.4427 L 73.1207 50.821 L 73.8167 50.821 L 73.8167 52.687 L 72.9089 52.687 L 72.9089 53.0602 L 75.1783 53.0602 L 75.1783 52.687 L 74.2605 52.687 L 74.2605 52.687 z M 74.2756 49.4391 L 73.8066 49.4391 L 73.8066 49.9435 L 74.2756 49.9435 L 74.2756 49.4391 L 74.2756 49.4391 z M 75.8087 51.7086 L 75.8894 52.3239 L 76.1214 52.7778 L 76.4896 53.0602 L 76.9838 53.156 L 77.473 53.0602 L 77.8412 52.7828 L 78.0732 52.3289 L 78.1589 51.7086 L 78.0732 51.0933 L 77.8412 50.6344 L 77.473 50.357 L 76.9838 50.2562 L 76.4896 50.357 L 76.1214 50.6394 L 75.8894 51.0933 L 75.8087 51.7086 L 75.8087 51.7086 z M 76.2626 51.7036 L 76.308 51.2496 L 76.4492 50.9219 L 76.6762 50.7201 L 76.9838 50.6495 L 77.2864 50.7201 L 77.5134 50.9168 L 77.6546 51.2496 L 77.705 51.7036 L 77.6546 52.1625 L 77.5134 52.4954 L 77.2864 52.6971 L 76.9838 52.7626 L 76.6762 52.6971 L 76.4492 52.4954 L 76.308 52.1625 L 76.2626 51.7036 L 76.2626 51.7036 z M 78.9759 53.0602 L 79.4197 53.0602 L 79.4197 51.4968 L 79.4651 51.1387 L 79.6113 50.8765 L 79.8383 50.7151 L 80.1409 50.6545 L 80.383 50.705 L 80.5343 50.8412 L 80.6099 51.0681 L 80.6351 51.3707 L 80.6351 53.0602 L 81.0789 53.0602 L 81.0789 51.2799 L 81.0587 50.9219 L 80.968 50.6243 L 80.6704 50.352 L 80.2064 50.2562 L 79.9492 50.2914 L 79.7324 50.3873 L 79.5458 50.5486 L 79.3995 50.7655 L 79.3995 50.352 L 78.9759 50.352 L 78.9759 53.0602 L 78.9759 53.0602 z" stroke="none" fill-rule="evenodd" fill="rgb(0, 0, 0)"/></g><g stroke="rgb(0, 0, 0)" stroke-width="0.13" stroke-linecap="butt" stroke-linejoin="miter" fill="none"><path d="M 55.1063 56.8174 L 55.1063 56.3989 L 54.6625 56.3989 L 54.6625 60.1561 L 55.1063 60.1561 L 55.1063 58.6935 L 55.2626 58.9305 L 55.4391 59.0869 L 55.8829 59.2029 L 56.3066 59.1071 L 56.6394 58.8196 L 56.8563 58.3657 L 56.937 57.7504 L 56.8563 57.1402 L 56.6394 56.6863 L 56.3066 56.4039 L 55.8829 56.303 L 55.6409 56.3333 L 55.4341 56.4291 L 55.2576 56.5905 L 55.1063 56.8174 L 55.1063 56.8174 z M 55.8073 58.8044 L 55.5097 58.7389 L 55.2929 58.5372 L 55.1567 58.2094 L 55.1113 57.7504 L 55.1567 57.2965 L 55.2929 56.9688 L 55.5097 56.772 L 55.8073 56.7014 L 56.0796 56.772 L 56.2965 56.9738 L 56.4326 57.3016 L 56.4831 57.7504 L 56.4326 58.2043 L 56.2965 58.5372 L 56.0796 58.7389 L 55.8073 58.8044 L 55.8073 58.8044 z M 58.6063 55.8592 L 58.6063 58.7339 L 57.6935 58.7339 L 57.6935 59.1071 L 59.9579 59.1071 L 59.9579 58.7339 L 59.0501 58.7339 L 59.0501 55.486 L 57.9103 55.486 L 57.9103 55.8592 L 58.6063 55.8592 L 58.6063 55.8592 z M 62.3685 58.754 L 62.3685 58.7692 L 62.3937 58.9406 L 62.4694 59.0616 L 62.7871 59.1575 L 63.0342 59.1171 L 63.0342 58.7742 L 62.9283 58.7893 L 62.7871 58.7238 L 62.7619 58.522 L 62.7619 57.12 L 62.7014 56.762 L 62.5249 56.5098 L 62.2172 56.3585 L 61.7835 56.303 L 61.3599 56.3635 L 61.0472 56.535 L 60.8505 56.8023 L 60.785 57.1553 L 60.785 57.1856 L 61.1834 57.1856 L 61.2187 56.9738 L 61.3296 56.8224 L 61.5112 56.7317 L 61.7684 56.6964 L 62.0155 56.7216 L 62.192 56.7972 L 62.2979 56.9284 L 62.3332 57.1099 L 62.3131 57.3218 L 62.2324 57.4277 L 62.0306 57.4781 L 61.6524 57.5184 L 61.2187 57.6092 L 60.911 57.7706 L 60.7295 58.0228 L 60.674 58.3959 L 60.7244 58.7288 L 60.8808 58.976 L 61.1329 59.1323 L 61.4809 59.1877 L 61.9499 59.0818 L 62.3685 58.754 L 62.3685 58.754 z M 62.3181 58.1589 L 62.2576 58.4212 L 62.0962 58.6229 L 61.8541 58.754 L 61.5566 58.7994 L 61.3649 58.7742 L 61.2288 58.6935 L 61.143 58.5523 L 61.1178 58.3556 L 61.138 58.1791 L 61.2187 58.053 L 61.5414 57.9118 L 61.9499 57.8513 L 62.3181 57.7302 L 62.3181 58.1589 L 62.3181 58.1589 z M 65.46 56.8174 L 65.3037 56.5905 L 65.1272 56.4291 L 64.9204 56.3383 L 64.6834 56.303 L 64.2547 56.4039 L 63.9218 56.6863 L 63.705 57.1402 L 63.6293 57.7504 L 63.705 58.3657 L 63.9218 58.8196 L 64.2547 59.1071 L 64.6834 59.2029 L 64.9204 59.1726 L 65.1221 59.0869 L 65.2987 58.9305 L 65.46 58.6935 L 65.46 60.1561 L 65.9038 60.1561 L 65.9038 56.3989 L 65.46 56.3989 L 65.46 56.8174 L 65.46 56.8174 z M 64.0832 57.7504 L 64.1286 57.3016 L 64.2698 56.9738 L 64.4817 56.772 L 64.759 56.7014 L 65.0515 56.772 L 65.2734 56.9688 L 65.4046 57.2965 L 65.455 57.7504 L 65.4046 58.2094 L 65.2734 58.5372 L 65.0515 58.7389 L 64.759 58.8044 L 64.4817 58.7389 L 64.2698 58.5372 L 64.1286 58.2043 L 64.0832 57.7504 L 64.0832 57.7504 z M 68.9197 56.3989 L 68.4759 56.3989 L 68.4759 57.9622 L 68.4255 58.3254 L 68.2792 58.5876 L 68.0523 58.749 L 67.7547 58.7994 L 67.5177 58.7591 L 67.3664 58.6381 L 67.2806 58.4313 L 67.2605 58.1387 L 67.2605 56.3989 L 66.8167 56.3989 L 66.8167 58.1791 L 66.8318 58.5372 L 66.9276 58.8347 L 67.2201 59.1071 L 67.6891 59.2029 L 67.9413 59.1676 L 68.1582 59.0768 L 68.3448 58.9205 L 68.4961 58.6935 L 68.4961 59.1071 L 68.9197 59.1071 L 68.9197 56.3989 L 68.9197 56.3989 z M 70.2561 57.8815 L 72.0314 57.8815 L 72.0364 57.6748 L 71.9557 57.0948 L 71.7338 56.6611 L 71.3808 56.3989 L 70.9118 56.303 L 70.4528 56.4039 L 70.0998 56.6863 L 69.8729 57.1453 L 69.7922 57.7504 L 69.8678 58.3707 L 70.0948 58.8246 L 70.4427 59.1071 L 70.8966 59.2029 L 71.29 59.1373 L 71.6128 58.9658 L 71.8498 58.6935 L 71.986 58.3304 L 71.5472 58.3304 L 71.4564 58.5321 L 71.3253 58.6834 L 70.9521 58.8044 L 70.6646 58.749 L 70.4478 58.5724 L 70.3066 58.285 L 70.2561 57.8967 L 70.2561 57.8815 L 70.2561 57.8815 z M 70.2561 57.5084 L 70.3116 57.1603 L 70.4478 56.9031 L 70.6546 56.7468 L 70.9269 56.6913 L 71.1942 56.7468 L 71.401 56.9031 L 71.527 57.1603 L 71.5724 57.5084 L 70.2561 57.5084 L 70.2561 57.5084 z" stroke="none" fill-rule="evenodd" fill="rgb(0, 0, 0)"/></g><g stroke="rgb(0, 0, 0)" stroke-width="0.13" stroke-linecap="butt" stroke-linejoin="miter" fill="none"><path d="M 142.076 60.4389 L 142.076 58.5909 L 141.774 58.5909 L 141.774 58.9043 L 141.525 58.6197 L 141.374 58.5477 L 141.205 58.5225 L 140.898 58.5945 L 140.661 58.7962 L 140.506 59.1204 L 140.452 59.5563 L 140.506 59.9958 L 140.661 60.32 L 140.898 60.5253 L 141.205 60.5938 L 141.378 60.5685 L 141.522 60.5037 L 141.774 60.2299 L 141.774 60.5037 L 141.745 60.7198 L 141.666 60.8748 L 141.514 60.9648 L 141.287 60.9973 L 141.089 60.9756 L 140.949 60.9216 L 140.866 60.8279 L 140.841 60.7018 L 140.535 60.7018 L 140.535 60.7162 L 140.581 60.9468 L 140.726 61.1197 L 140.956 61.2314 L 141.269 61.271 L 141.644 61.217 L 141.893 61.0657 L 142.033 60.8027 L 142.076 60.4389 L 142.076 60.4389 z M 140.78 59.5563 L 140.812 59.2357 L 140.909 58.9979 L 141.061 58.8575 L 141.262 58.807 L 141.475 58.8575 L 141.633 58.9979 L 141.731 59.2357 L 141.767 59.5563 L 141.731 59.8841 L 141.633 60.1183 L 141.475 60.2624 L 141.262 60.3092 L 141.061 60.2624 L 140.909 60.1183 L 140.812 59.8805 L 140.78 59.5563 L 140.78 59.5563 z M 143.888 60.2732 L 143.888 60.284 L 143.906 60.4064 L 143.96 60.4929 L 144.187 60.5613 L 144.364 60.5325 L 144.364 60.2876 L 144.288 60.2984 L 144.187 60.2515 L 144.169 60.1075 L 144.169 59.106 L 144.126 58.8503 L 144 58.6702 L 143.78 58.5621 L 143.47 58.5225 L 143.168 58.5657 L 142.945 58.6882 L 142.804 58.8791 L 142.757 59.1312 L 142.757 59.1528 L 143.042 59.1528 L 143.067 59.0015 L 143.146 58.8935 L 143.276 58.8286 L 143.46 58.8034 L 143.636 58.8214 L 143.762 58.8755 L 143.838 58.9691 L 143.863 59.0988 L 143.849 59.2501 L 143.791 59.3257 L 143.647 59.3618 L 143.377 59.3906 L 143.067 59.4554 L 142.847 59.5707 L 142.718 59.7509 L 142.678 60.0174 L 142.714 60.2551 L 142.826 60.4316 L 143.006 60.5433 L 143.254 60.5829 L 143.589 60.5073 L 143.888 60.2732 L 143.888 60.2732 z M 143.852 59.8481 L 143.809 60.0354 L 143.694 60.1795 L 143.521 60.2732 L 143.308 60.3056 L 143.171 60.2876 L 143.074 60.2299 L 143.013 60.1291 L 142.995 59.9886 L 143.009 59.8625 L 143.067 59.7725 L 143.298 59.6716 L 143.589 59.6284 L 143.852 59.5419 L 143.852 59.8481 L 143.852 59.8481 z M 145.207 60.2263 L 145.441 60.5037 L 145.762 60.5938 L 146.064 60.5253 L 146.306 60.32 L 146.457 59.9922 L 146.514 59.5563 L 146.457 59.1204 L 146.302 58.7962 L 146.064 58.5945 L 145.762 58.5225 L 145.445 58.6161 L 145.315 58.7314 L 145.207 58.8863 L 145.207 57.9388 L 144.89 57.9388 L 144.89 60.5253 L 145.207 60.5253 L 145.207 60.2263 L 145.207 60.2263 z M 146.19 59.5563 L 146.154 59.8805 L 146.057 60.1183 L 145.902 60.2624 L 145.708 60.3092 L 145.495 60.2624 L 145.34 60.1183 L 145.243 59.8841 L 145.21 59.5563 L 145.243 59.2321 L 145.34 58.9979 L 145.495 58.8575 L 145.708 58.807 L 145.902 58.8575 L 146.057 59.0015 L 146.154 59.2357 L 146.19 59.5563 L 146.19 59.5563 z M 148.226 60.2732 L 148.226 60.284 L 148.244 60.4064 L 148.298 60.4929 L 148.525 60.5613 L 148.701 60.5325 L 148.701 60.2876 L 148.625 60.2984 L 148.525 60.2515 L 148.507 60.1075 L 148.507 59.106 L 148.463 58.8503 L 148.337 58.6702 L 148.117 58.5621 L 147.808 58.5225 L 147.505 58.5657 L 147.282 58.6882 L 147.141 58.8791 L 147.094 59.1312 L 147.094 59.1528 L 147.379 59.1528 L 147.404 59.0015 L 147.483 58.8935 L 147.613 58.8286 L 147.797 58.8034 L 147.973 58.8214 L 148.099 58.8755 L 148.175 58.9691 L 148.2 59.0988 L 148.186 59.2501 L 148.128 59.3257 L 147.984 59.3618 L 147.714 59.3906 L 147.404 59.4554 L 147.184 59.5707 L 147.055 59.7509 L 147.015 60.0174 L 147.051 60.2551 L 147.163 60.4316 L 147.343 60.5433 L 147.592 60.5829 L 147.927 60.5073 L 148.226 60.2732 L 148.226 60.2732 z M 148.19 59.8481 L 148.146 60.0354 L 148.031 60.1795 L 147.858 60.2732 L 147.646 60.3056 L 147.509 60.2876 L 147.411 60.2299 L 147.35 60.1291 L 147.332 59.9886 L 147.347 59.8625 L 147.404 59.7725 L 147.635 59.6716 L 147.927 59.6284 L 148.19 59.5419 L 148.19 59.8481 L 148.19 59.8481 z M 149.364 60.5253 L 149.681 60.5253 L 149.681 59.4194 L 149.713 59.1528 L 149.811 58.9619 L 149.969 58.8467 L 150.182 58.807 L 150.34 58.8322 L 150.459 58.9043 L 150.531 59.0268 L 150.556 59.1925 L 150.877 59.1925 L 150.834 58.9007 L 150.715 58.6918 L 150.517 58.5657 L 150.246 58.5225 L 150.063 58.5513 L 149.904 58.6233 L 149.764 58.7458 L 149.652 58.9115 L 149.652 58.5909 L 149.364 58.5909 L 149.364 60.5253 L 149.364 60.5253 z M 152.383 60.2588 L 152.383 58.6558 L 151.568 58.6558 L 151.568 58.9259 L 152.066 58.9259 L 152.066 60.2588 L 151.417 60.2588 L 151.417 60.5253 L 153.038 60.5253 L 153.038 60.2588 L 152.383 60.2588 L 152.383 60.2588 z M 152.393 57.9388 L 152.058 57.9388 L 152.058 58.2991 L 152.393 58.2991 L 152.393 57.9388 L 152.393 57.9388 z M 154.007 58.9259 L 154.007 59.8949 L 154.029 60.2083 L 154.13 60.4244 L 154.331 60.5505 L 154.674 60.5938 L 155.048 60.5757 L 155.048 60.302 L 154.775 60.3236 L 154.526 60.2948 L 154.393 60.2047 L 154.335 60.0534 L 154.324 59.8409 L 154.324 58.9259 L 155.048 58.9259 L 155.048 58.6558 L 154.324 58.6558 L 154.324 58.0901 L 154.007 58.0901 L 154.007 58.6558 L 153.46 58.6558 L 153.46 58.9259 L 154.007 58.9259 L 154.007 58.9259 z M 159.069 60.2732 L 159.069 60.284 L 159.087 60.4064 L 159.141 60.4929 L 159.368 60.5613 L 159.544 60.5325 L 159.544 60.2876 L 159.468 60.2984 L 159.368 60.2515 L 159.35 60.1075 L 159.35 59.106 L 159.306 58.8503 L 159.18 58.6702 L 158.96 58.5621 L 158.651 58.5225 L 158.348 58.5657 L 158.125 58.6882 L 157.984 58.8791 L 157.937 59.1312 L 157.937 59.1528 L 158.222 59.1528 L 158.247 59.0015 L 158.326 58.8935 L 158.456 58.8286 L 158.64 58.8034 L 158.816 58.8214 L 158.942 58.8755 L 159.018 58.9691 L 159.043 59.0988 L 159.029 59.2501 L 158.971 59.3257 L 158.827 59.3618 L 158.557 59.3906 L 158.247 59.4554 L 158.027 59.5707 L 157.898 59.7509 L 157.858 60.0174 L 157.894 60.2551 L 158.006 60.4316 L 158.186 60.5433 L 158.435 60.5829 L 158.77 60.5073 L 159.069 60.2732 L 159.069 60.2732 z M 159.033 59.8481 L 158.989 60.0354 L 158.874 60.1795 L 158.701 60.2732 L 158.489 60.3056 L 158.352 60.2876 L 158.254 60.2299 L 158.193 60.1291 L 158.175 59.9886 L 158.19 59.8625 L 158.247 59.7725 L 158.478 59.6716 L 158.77 59.6284 L 159.033 59.5419 L 159.033 59.8481 L 159.033 59.8481 z M 161.277 60.2263 L 161.277 60.5253 L 161.594 60.5253 L 161.594 57.9388 L 161.28 57.9388 L 161.28 58.8863 L 161.039 58.6125 L 160.891 58.5477 L 160.722 58.5225 L 160.416 58.5945 L 160.178 58.7962 L 160.023 59.1204 L 159.969 59.5563 L 160.023 59.9922 L 160.178 60.32 L 160.416 60.5253 L 160.722 60.5938 L 160.891 60.5685 L 161.043 60.5037 L 161.277 60.2263 L 161.277 60.2263 z M 160.776 58.807 L 160.985 58.8575 L 161.143 58.9979 L 161.237 59.2321 L 161.273 59.5563 L 161.237 59.8841 L 161.143 60.1183 L 160.985 60.2624 L 160.776 60.3092 L 160.578 60.2624 L 160.427 60.1183 L 160.326 59.8805 L 160.293 59.5563 L 160.326 59.2357 L 160.427 59.0015 L 160.578 58.8575 L 160.776 58.807 L 160.776 58.807 z M 162.13 60.5253 L 162.422 60.5253 L 162.422 59.2321 L 162.44 59.0376 L 162.494 58.8971 L 162.577 58.8142 L 162.685 58.7818 L 162.772 58.8106 L 162.829 58.8827 L 162.858 59.0051 L 162.869 59.1672 L 162.869 60.5253 L 163.143 60.5253 L 163.143 59.2321 L 163.161 59.0412 L 163.215 58.9007 L 163.301 58.8142 L 163.409 58.7818 L 163.496 58.8106 L 163.553 58.8827 L 163.589 59.1672 L 163.589 60.5253 L 163.881 60.5253 L 163.881 59.1888 L 163.863 58.9115 L 163.806 58.699 L 163.69 58.5693 L 163.503 58.5225 L 163.283 58.5945 L 163.114 58.8034 L 162.981 58.5981 L 162.757 58.5225 L 162.552 58.5945 L 162.411 58.7962 L 162.411 58.5909 L 162.13 58.5909 L 162.13 60.5253 L 162.13 60.5253 z M 165.394 60.2588 L 165.394 58.6558 L 164.58 58.6558 L 164.58 58.9259 L 165.077 58.9259 L 165.077 60.2588 L 164.429 60.2588 L 164.429 60.5253 L 166.05 60.5253 L 166.05 60.2588 L 165.394 60.2588 L 165.394 60.2588 z M 165.405 57.9388 L 165.07 57.9388 L 165.07 58.2991 L 165.405 58.2991 L 165.405 57.9388 L 165.405 57.9388 z M 167.541 59.3978 L 167.235 59.3257 L 167.008 59.2429 L 166.932 59.0736 L 166.954 58.9547 L 167.03 58.8683 L 167.152 58.8142 L 167.329 58.7926 L 167.498 58.8142 L 167.631 58.8791 L 167.718 58.9763 L 167.754 59.106 L 168.064 59.106 L 168.064 59.0988 L 168.009 58.8647 L 167.862 58.681 L 167.631 58.5657 L 167.329 58.5225 L 167.022 58.5657 L 166.799 58.6846 L 166.659 58.8611 L 166.615 59.0844 L 166.648 59.3005 L 166.749 59.4518 L 166.914 59.5599 L 167.156 59.6356 L 167.509 59.722 L 167.725 59.8121 L 167.783 59.8841 L 167.804 59.9922 L 167.772 60.1255 L 167.685 60.2263 L 167.545 60.2912 L 167.357 60.3128 L 167.159 60.2912 L 167.015 60.2155 L 166.918 60.0931 L 166.878 59.9238 L 166.572 59.9238 L 166.623 60.2119 L 166.77 60.4208 L 167.004 60.5469 L 167.329 60.5938 L 167.667 60.5469 L 167.916 60.4208 L 168.067 60.2191 L 168.121 59.9562 L 168.082 59.7292 L 167.97 59.5743 L 167.786 59.4734 L 167.541 59.3978 L 167.541 59.3978 z M 169.71 59.3978 L 169.404 59.3257 L 169.177 59.2429 L 169.101 59.0736 L 169.123 58.9547 L 169.198 58.8683 L 169.321 58.8142 L 169.497 58.7926 L 169.667 58.8142 L 169.8 58.8791 L 169.886 58.9763 L 169.922 59.106 L 170.232 59.106 L 170.232 59.0988 L 170.178 58.8647 L 170.03 58.681 L 169.8 58.5657 L 169.497 58.5225 L 169.191 58.5657 L 168.968 58.6846 L 168.827 58.8611 L 168.784 59.0844 L 168.816 59.3005 L 168.917 59.4518 L 169.083 59.5599 L 169.324 59.6356 L 169.677 59.722 L 169.893 59.8121 L 169.951 59.8841 L 169.973 59.9922 L 169.94 60.1255 L 169.854 60.2263 L 169.713 60.2912 L 169.526 60.3128 L 169.328 60.2912 L 169.184 60.2155 L 169.087 60.0931 L 169.047 59.9238 L 168.741 59.9238 L 168.791 60.2119 L 168.939 60.4208 L 169.173 60.5469 L 169.497 60.5938 L 169.836 60.5469 L 170.084 60.4208 L 170.236 60.2191 L 170.29 59.9562 L 170.25 59.7292 L 170.138 59.5743 L 169.955 59.4734 L 169.71 59.3978 L 169.71 59.3978 z M 171.9 60.2588 L 171.9 58.6558 L 171.086 58.6558 L 171.086 58.9259 L 171.583 58.9259 L 171.583 60.2588 L 170.935 60.2588 L 170.935 60.5253 L 172.556 60.5253 L 172.556 60.2588 L 171.9 60.2588 L 171.9 60.2588 z M 171.911 57.9388 L 171.576 57.9388 L 171.576 58.2991 L 171.911 58.2991 L 171.911 57.9388 L 171.911 57.9388 z M 173.006 59.5599 L 173.064 59.9994 L 173.229 60.3236 L 173.492 60.5253 L 173.845 60.5938 L 174.195 60.5253 L 174.458 60.3272 L 174.623 60.003 L 174.685 59.5599 L 174.623 59.1204 L 174.458 58.7926 L 174.195 58.5945 L 173.845 58.5225 L 173.492 58.5945 L 173.229 58.7962 L 173.064 59.1204 L 173.006 59.5599 L 173.006 59.5599 z M 173.33 59.5563 L 173.363 59.2321 L 173.463 58.9979 L 173.625 58.8539 L 173.845 58.8034 L 174.061 58.8539 L 174.223 58.9943 L 174.324 59.2321 L 174.36 59.5563 L 174.324 59.8841 L 174.223 60.1219 L 174.061 60.266 L 173.845 60.3128 L 173.625 60.266 L 173.463 60.1219 L 173.363 59.8841 L 173.33 59.5563 L 173.33 59.5563 z M 175.268 60.5253 L 175.585 60.5253 L 175.585 59.4086 L 175.618 59.1528 L 175.722 58.9655 L 175.884 58.8503 L 176.1 58.807 L 176.273 58.8431 L 176.381 58.9403 L 176.435 59.1024 L 176.453 59.3185 L 176.453 60.5253 L 176.77 60.5253 L 176.77 59.2537 L 176.756 58.9979 L 176.691 58.7854 L 176.479 58.5909 L 176.147 58.5225 L 175.963 58.5477 L 175.808 58.6161 L 175.675 58.7314 L 175.571 58.8863 L 175.571 58.5909 L 175.268 58.5909 L 175.268 60.5253 L 175.268 60.5253 z M 179.605 60.5253 L 179.922 60.5253 L 179.922 59.4086 L 179.955 59.1528 L 180.059 58.9655 L 180.221 58.8503 L 180.437 58.807 L 180.61 58.8431 L 180.718 58.9403 L 180.772 59.1024 L 180.79 59.3185 L 180.79 60.5253 L 181.107 60.5253 L 181.107 59.2537 L 181.093 58.9979 L 181.028 58.7854 L 180.816 58.5909 L 180.484 58.5225 L 180.304 58.5477 L 180.149 58.6161 L 180.02 58.7242 L 179.922 58.8719 L 179.922 57.9388 L 179.605 57.9388 L 179.605 60.5253 L 179.605 60.5253 z M 182.923 60.2732 L 182.923 60.284 L 182.941 60.4064 L 182.995 60.4929 L 183.222 60.5613 L 183.399 60.5325 L 183.399 60.2876 L 183.323 60.2984 L 183.222 60.2515 L 183.204 60.1075 L 183.204 59.106 L 183.161 58.8503 L 183.035 58.6702 L 182.815 58.5621 L 182.505 58.5225 L 182.203 58.5657 L 181.979 58.6882 L 181.839 58.8791 L 181.792 59.1312 L 181.792 59.1528 L 182.077 59.1528 L 182.102 59.0015 L 182.181 58.8935 L 182.311 58.8286 L 182.494 58.8034 L 182.671 58.8214 L 182.797 58.8755 L 182.873 58.9691 L 182.898 59.0988 L 182.883 59.2501 L 182.826 59.3257 L 182.682 59.3618 L 182.412 59.3906 L 182.102 59.4554 L 181.882 59.5707 L 181.752 59.7509 L 181.713 60.0174 L 181.749 60.2551 L 181.86 60.4316 L 182.04 60.5433 L 182.289 60.5829 L 182.624 60.5073 L 182.923 60.2732 L 182.923 60.2732 z M 182.887 59.8481 L 182.844 60.0354 L 182.729 60.1795 L 182.556 60.2732 L 182.343 60.3056 L 182.206 60.2876 L 182.109 60.2299 L 182.048 60.1291 L 182.03 59.9886 L 182.044 59.8625 L 182.102 59.7725 L 182.332 59.6716 L 182.624 59.6284 L 182.887 59.5419 L 182.887 59.8481 L 182.887 59.8481 z M 185.434 58.5909 L 185.117 58.5909 L 185.117 59.7076 L 185.081 59.967 L 184.976 60.1543 L 184.814 60.2696 L 184.602 60.3056 L 184.432 60.2768 L 184.324 60.1903 L 184.263 60.0426 L 184.249 59.8337 L 184.249 58.5909 L 183.932 58.5909 L 183.932 59.8625 L 183.943 60.1183 L 184.011 60.3308 L 184.22 60.5253 L 184.555 60.5938 L 184.735 60.5685 L 184.89 60.5037 L 185.023 60.392 L 185.131 60.2299 L 185.131 60.5253 L 185.434 60.5253 L 185.434 58.5909 L 185.434 58.5909 z M 186.536 58.9259 L 186.536 59.8949 L 186.558 60.2083 L 186.659 60.4244 L 186.86 60.5505 L 187.203 60.5938 L 187.577 60.5757 L 187.577 60.302 L 187.303 60.3236 L 187.055 60.2948 L 186.922 60.2047 L 186.864 60.0534 L 186.853 59.8409 L 186.853 58.9259 L 187.577 58.9259 L 187.577 58.6558 L 186.853 58.6558 L 186.853 58.0901 L 186.536 58.0901 L 186.536 58.6558 L 185.989 58.6558 L 185.989 58.9259 L 186.536 58.9259 L 186.536 58.9259 z" stroke="none" fill-rule="evenodd" fill="rgb(0, 0, 0)"/></g><g stroke="rgb(0, 0, 0)" stroke-width="0.13" stroke-linecap="butt" stroke-linejoin="miter" fill="none"><path d="M 64.23 88.8397 L 64.23 86.9916 L 63.9274 86.9916 L 63.9274 87.3051 L 63.6788 87.0204 L 63.5275 86.9484 L 63.3582 86.9232 L 63.052 86.9952 L 62.8143 87.197 L 62.6594 87.5212 L 62.6054 87.9571 L 62.6594 88.3965 L 62.8143 88.7208 L 63.052 88.9261 L 63.3582 88.9945 L 63.5311 88.9693 L 63.6752 88.9045 L 63.9274 88.6307 L 63.9274 88.9045 L 63.8986 89.1206 L 63.8193 89.2755 L 63.668 89.3655 L 63.4411 89.398 L 63.243 89.3764 L 63.1025 89.3223 L 63.0196 89.2287 L 62.9944 89.1026 L 62.6882 89.1026 L 62.6882 89.117 L 62.735 89.3475 L 62.8791 89.5204 L 63.1097 89.6321 L 63.4231 89.6718 L 63.7977 89.6177 L 64.0463 89.4664 L 64.1868 89.2035 L 64.23 88.8397 L 64.23 88.8397 z M 62.9332 87.9571 L 62.9656 87.6365 L 63.0628 87.3987 L 63.2141 87.2582 L 63.4159 87.2078 L 63.6284 87.2582 L 63.7869 87.3987 L 63.8842 87.6365 L 63.9202 87.9571 L 63.8842 88.2849 L 63.7869 88.519 L 63.6284 88.6631 L 63.4159 88.71 L 63.2141 88.6631 L 63.0628 88.519 L 62.9656 88.2813 L 62.9332 87.9571 L 62.9332 87.9571 z M 66.042 88.674 L 66.042 88.6848 L 66.06 88.8072 L 66.114 88.8937 L 66.3409 88.9621 L 66.5175 88.9333 L 66.5175 88.6884 L 66.4418 88.6992 L 66.3409 88.6523 L 66.3229 88.5082 L 66.3229 87.5068 L 66.2797 87.251 L 66.1536 87.0709 L 65.9339 86.9628 L 65.6241 86.9232 L 65.3215 86.9664 L 65.0981 87.0889 L 64.9577 87.2798 L 64.9108 87.532 L 64.9108 87.5536 L 65.1954 87.5536 L 65.2206 87.4023 L 65.2999 87.2943 L 65.4296 87.2294 L 65.6133 87.2042 L 65.7898 87.2222 L 65.9159 87.2762 L 65.9915 87.3699 L 66.0167 87.4996 L 66.0023 87.6509 L 65.9447 87.7265 L 65.8006 87.7625 L 65.5304 87.7914 L 65.2206 87.8562 L 65.0009 87.9715 L 64.8712 88.1516 L 64.8316 88.4182 L 64.8676 88.6559 L 64.9793 88.8324 L 65.1594 88.9441 L 65.4079 88.9837 L 65.743 88.9081 L 66.042 88.674 L 66.042 88.674 z M 66.0059 88.2488 L 65.9627 88.4362 L 65.8474 88.5803 L 65.6745 88.674 L 65.462 88.7064 L 65.3251 88.6884 L 65.2278 88.6307 L 65.1666 88.5298 L 65.1486 88.3893 L 65.163 88.2632 L 65.2206 88.1732 L 65.4512 88.0723 L 65.743 88.0291 L 66.0059 87.9426 L 66.0059 88.2488 L 66.0059 88.2488 z M 67.3604 88.6271 L 67.5945 88.9045 L 67.9152 88.9945 L 68.2177 88.9261 L 68.4591 88.7208 L 68.6104 88.3929 L 68.668 87.9571 L 68.6104 87.5212 L 68.4555 87.197 L 68.2177 86.9952 L 67.9152 86.9232 L 67.5981 87.0168 L 67.4685 87.1321 L 67.3604 87.287 L 67.3604 86.3396 L 67.0434 86.3396 L 67.0434 88.9261 L 67.3604 88.9261 L 67.3604 88.6271 L 67.3604 88.6271 z M 68.3438 87.9571 L 68.3078 88.2813 L 68.2105 88.519 L 68.0556 88.6631 L 67.8611 88.71 L 67.6486 88.6631 L 67.4937 88.519 L 67.3964 88.2849 L 67.364 87.9571 L 67.3964 87.6329 L 67.4937 87.3987 L 67.6486 87.2582 L 67.8611 87.2078 L 68.0556 87.2582 L 68.2105 87.4023 L 68.3078 87.6365 L 68.3438 87.9571 L 68.3438 87.9571 z M 70.3791 88.674 L 70.3791 88.6848 L 70.3971 88.8072 L 70.4512 88.8937 L 70.6781 88.9621 L 70.8546 88.9333 L 70.8546 88.6884 L 70.779 88.6992 L 70.6781 88.6523 L 70.6601 88.5082 L 70.6601 87.5068 L 70.6169 87.251 L 70.4908 87.0709 L 70.2711 86.9628 L 69.9613 86.9232 L 69.6587 86.9664 L 69.4353 87.0889 L 69.2948 87.2798 L 69.248 87.532 L 69.248 87.5536 L 69.5326 87.5536 L 69.5578 87.4023 L 69.637 87.2943 L 69.7667 87.2294 L 69.9505 87.2042 L 70.127 87.2222 L 70.253 87.2762 L 70.3287 87.3699 L 70.3539 87.4996 L 70.3395 87.6509 L 70.2819 87.7265 L 70.1378 87.7625 L 69.8676 87.7914 L 69.5578 87.8562 L 69.3381 87.9715 L 69.2084 88.1516 L 69.1687 88.4182 L 69.2048 88.6559 L 69.3164 88.8324 L 69.4966 88.9441 L 69.7451 88.9837 L 70.0801 88.9081 L 70.3791 88.674 L 70.3791 88.674 z M 70.3431 88.2488 L 70.2999 88.4362 L 70.1846 88.5803 L 70.0117 88.674 L 69.7992 88.7064 L 69.6623 88.6884 L 69.565 88.6307 L 69.5038 88.5298 L 69.4858 88.3893 L 69.5002 88.2632 L 69.5578 88.1732 L 69.7883 88.0723 L 70.0801 88.0291 L 70.3431 87.9426 L 70.3431 88.2488 L 70.3431 88.2488 z M 71.5175 88.9261 L 71.8345 88.9261 L 71.8345 87.8202 L 71.8669 87.5536 L 71.9641 87.3627 L 72.1226 87.2474 L 72.3352 87.2078 L 72.4937 87.233 L 72.6126 87.3051 L 72.6846 87.4276 L 72.7098 87.5933 L 73.0304 87.5933 L 72.9872 87.3015 L 72.8683 87.0925 L 72.6702 86.9664 L 72.4 86.9232 L 72.2163 86.952 L 72.0578 87.024 L 71.9173 87.1465 L 71.8056 87.3123 L 71.8056 86.9916 L 71.5175 86.9916 L 71.5175 88.9261 L 71.5175 88.9261 z M 74.5362 88.6595 L 74.5362 87.0565 L 73.7221 87.0565 L 73.7221 87.3267 L 74.2192 87.3267 L 74.2192 88.6595 L 73.5708 88.6595 L 73.5708 88.9261 L 75.1918 88.9261 L 75.1918 88.6595 L 74.5362 88.6595 L 74.5362 88.6595 z M 74.547 86.3396 L 74.212 86.3396 L 74.212 86.6999 L 74.547 86.6999 L 74.547 86.3396 L 74.547 86.3396 z M 76.1608 87.3267 L 76.1608 88.2957 L 76.1824 88.6091 L 76.2833 88.8252 L 76.485 88.9513 L 76.8272 88.9945 L 77.2019 88.9765 L 77.2019 88.7028 L 76.9281 88.7244 L 76.6796 88.6956 L 76.5463 88.6055 L 76.4886 88.4542 L 76.4778 88.2416 L 76.4778 87.3267 L 77.2019 87.3267 L 77.2019 87.0565 L 76.4778 87.0565 L 76.4778 86.4909 L 76.1608 86.4909 L 76.1608 87.0565 L 75.6133 87.0565 L 75.6133 87.3267 L 76.1608 87.3267 L 76.1608 87.3267 z M 81.2221 88.674 L 81.2221 88.6848 L 81.2401 88.8072 L 81.2941 88.8937 L 81.521 88.9621 L 81.6976 88.9333 L 81.6976 88.6884 L 81.6219 88.6992 L 81.521 88.6523 L 81.503 88.5082 L 81.503 87.5068 L 81.4598 87.251 L 81.3337 87.0709 L 81.114 86.9628 L 80.8042 86.9232 L 80.5016 86.9664 L 80.2783 87.0889 L 80.1378 87.2798 L 80.0909 87.532 L 80.0909 87.5536 L 80.3755 87.5536 L 80.4007 87.4023 L 80.48 87.2943 L 80.6097 87.2294 L 80.7934 87.2042 L 80.9699 87.2222 L 81.096 87.2762 L 81.1716 87.3699 L 81.1968 87.4996 L 81.1824 87.6509 L 81.1248 87.7265 L 80.9807 87.7625 L 80.7105 87.7914 L 80.4007 87.8562 L 80.181 87.9715 L 80.0513 88.1516 L 80.0117 88.4182 L 80.0477 88.6559 L 80.1594 88.8324 L 80.3395 88.9441 L 80.5881 88.9837 L 80.9231 88.9081 L 81.2221 88.674 L 81.2221 88.674 z M 81.186 88.2488 L 81.1428 88.4362 L 81.0275 88.5803 L 80.8546 88.674 L 80.6421 88.7064 L 80.5052 88.6884 L 80.4079 88.6307 L 80.3467 88.5298 L 80.3287 88.3893 L 80.3431 88.2632 L 80.4007 88.1732 L 80.6313 88.0723 L 80.9231 88.0291 L 81.186 87.9426 L 81.186 88.2488 L 81.186 88.2488 z M 83.4303 88.6271 L 83.4303 88.9261 L 83.7473 88.9261 L 83.7473 86.3396 L 83.4339 86.3396 L 83.4339 87.287 L 83.1925 87.0132 L 83.0448 86.9484 L 82.8755 86.9232 L 82.5693 86.9952 L 82.3316 87.197 L 82.1767 87.5212 L 82.1226 87.9571 L 82.1767 88.3929 L 82.3316 88.7208 L 82.5693 88.9261 L 82.8755 88.9945 L 83.0448 88.9693 L 83.1961 88.9045 L 83.4303 88.6271 L 83.4303 88.6271 z M 82.9296 87.2078 L 83.1385 87.2582 L 83.297 87.3987 L 83.3906 87.6329 L 83.4267 87.9571 L 83.3906 88.2849 L 83.297 88.519 L 83.1385 88.6631 L 82.9296 88.71 L 82.7314 88.6631 L 82.5801 88.519 L 82.4793 88.2813 L 82.4468 87.9571 L 82.4793 87.6365 L 82.5801 87.4023 L 82.7314 87.2582 L 82.9296 87.2078 L 82.9296 87.2078 z M 84.284 88.9261 L 84.5758 88.9261 L 84.5758 87.6329 L 84.5938 87.4384 L 84.6479 87.2979 L 84.7307 87.215 L 84.8388 87.1826 L 84.9252 87.2114 L 84.9829 87.2834 L 85.0117 87.4059 L 85.0225 87.568 L 85.0225 88.9261 L 85.2963 88.9261 L 85.2963 87.6329 L 85.3143 87.442 L 85.3683 87.3015 L 85.4548 87.215 L 85.5628 87.1826 L 85.6493 87.2114 L 85.7069 87.2834 L 85.743 87.568 L 85.743 88.9261 L 86.0347 88.9261 L 86.0347 87.5896 L 86.0167 87.3123 L 85.9591 87.0997 L 85.8438 86.97 L 85.6565 86.9232 L 85.4368 86.9952 L 85.2674 87.2042 L 85.1342 86.9988 L 84.9108 86.9232 L 84.7055 86.9952 L 84.565 87.197 L 84.565 86.9916 L 84.284 86.9916 L 84.284 88.9261 L 84.284 88.9261 z M 87.5477 88.6595 L 87.5477 87.0565 L 86.7336 87.0565 L 86.7336 87.3267 L 87.2307 87.3267 L 87.2307 88.6595 L 86.5823 88.6595 L 86.5823 88.9261 L 88.2033 88.9261 L 88.2033 88.6595 L 87.5477 88.6595 L 87.5477 88.6595 z M 87.5585 86.3396 L 87.2235 86.3396 L 87.2235 86.6999 L 87.5585 86.6999 L 87.5585 86.3396 L 87.5585 86.3396 z M 89.6947 87.7986 L 89.3885 87.7265 L 89.1615 87.6437 L 89.0859 87.4744 L 89.1075 87.3555 L 89.1832 87.269 L 89.3056 87.215 L 89.4821 87.1934 L 89.6515 87.215 L 89.7847 87.2798 L 89.8712 87.3771 L 89.9072 87.5068 L 90.217 87.5068 L 90.217 87.4996 L 90.163 87.2654 L 90.0153 87.0817 L 89.7847 86.9664 L 89.4821 86.9232 L 89.1759 86.9664 L 88.9526 87.0853 L 88.8121 87.2618 L 88.7689 87.4852 L 88.8013 87.7013 L 88.9022 87.8526 L 89.0679 87.9607 L 89.3092 88.0363 L 89.6623 88.1227 L 89.8784 88.2128 L 89.936 88.2849 L 89.9576 88.3929 L 89.9252 88.5262 L 89.8388 88.6271 L 89.6983 88.692 L 89.511 88.7136 L 89.3128 88.692 L 89.1687 88.6163 L 89.0715 88.4938 L 89.0319 88.3245 L 88.7257 88.3245 L 88.7761 88.6127 L 88.9238 88.8216 L 89.1579 88.9477 L 89.4821 88.9945 L 89.8208 88.9477 L 90.0693 88.8216 L 90.2206 88.6199 L 90.2747 88.3569 L 90.235 88.13 L 90.1234 87.9751 L 89.9396 87.8742 L 89.6947 87.7986 L 89.6947 87.7986 z M 91.8633 87.7986 L 91.5571 87.7265 L 91.3301 87.6437 L 91.2545 87.4744 L 91.2761 87.3555 L 91.3517 87.269 L 91.4742 87.215 L 91.6507 87.1934 L 91.82 87.215 L 91.9533 87.2798 L 92.0398 87.3771 L 92.0758 87.5068 L 92.3856 87.5068 L 92.3856 87.4996 L 92.3316 87.2654 L 92.1839 87.0817 L 91.9533 86.9664 L 91.6507 86.9232 L 91.3445 86.9664 L 91.1212 87.0853 L 90.9807 87.2618 L 90.9375 87.4852 L 90.9699 87.7013 L 91.0708 87.8526 L 91.2365 87.9607 L 91.4778 88.0363 L 91.8308 88.1227 L 92.047 88.2128 L 92.1046 88.2849 L 92.1262 88.3929 L 92.0938 88.5262 L 92.0074 88.6271 L 91.8669 88.692 L 91.6796 88.7136 L 91.4814 88.692 L 91.3373 88.6163 L 91.2401 88.4938 L 91.2004 88.3245 L 90.8942 88.3245 L 90.9447 88.6127 L 91.0924 88.8216 L 91.3265 88.9477 L 91.6507 88.9945 L 91.9893 88.9477 L 92.2379 88.8216 L 92.3892 88.6199 L 92.4432 88.3569 L 92.4036 88.13 L 92.2919 87.9751 L 92.1082 87.8742 L 91.8633 87.7986 L 91.8633 87.7986 z M 94.0535 88.6595 L 94.0535 87.0565 L 93.2393 87.0565 L 93.2393 87.3267 L 93.7365 87.3267 L 93.7365 88.6595 L 93.088 88.6595 L 93.088 88.9261 L 94.7091 88.9261 L 94.7091 88.6595 L 94.0535 88.6595 L 94.0535 88.6595 z M 94.0643 86.3396 L 93.7293 86.3396 L 93.7293 86.6999 L 94.0643 86.6999 L 94.0643 86.3396 L 94.0643 86.3396 z M 95.1594 87.9607 L 95.217 88.4001 L 95.3827 88.7244 L 95.6457 88.9261 L 95.9987 88.9945 L 96.3481 88.9261 L 96.6111 88.728 L 96.7768 88.4037 L 96.838 87.9607 L 96.7768 87.5212 L 96.6111 87.1934 L 96.3481 86.9952 L 95.9987 86.9232 L 95.6457 86.9952 L 95.3827 87.197 L 95.217 87.5212 L 95.1594 87.9607 L 95.1594 87.9607 z M 95.4836 87.9571 L 95.516 87.6329 L 95.6169 87.3987 L 95.779 87.2546 L 95.9987 87.2042 L 96.2148 87.2546 L 96.377 87.3951 L 96.4778 87.6329 L 96.5138 87.9571 L 96.4778 88.2849 L 96.377 88.5226 L 96.2148 88.6667 L 95.9987 88.7136 L 95.779 88.6667 L 95.6169 88.5226 L 95.516 88.2849 L 95.4836 87.9571 L 95.4836 87.9571 z M 97.4216 88.9261 L 97.7386 88.9261 L 97.7386 87.8094 L 97.771 87.5536 L 97.8755 87.3663 L 98.0376 87.251 L 98.2538 87.2078 L 98.4267 87.2438 L 98.5347 87.3411 L 98.5888 87.5032 L 98.6068 87.7193 L 98.6068 88.9261 L 98.9238 88.9261 L 98.9238 87.6545 L 98.9094 87.3987 L 98.8445 87.1862 L 98.632 86.9916 L 98.3006 86.9232 L 98.1169 86.9484 L 97.962 87.0168 L 97.8287 87.1321 L 97.7242 87.287 L 97.7242 86.9916 L 97.4216 86.9916 L 97.4216 88.9261 L 97.4216 88.9261 z M 102.058 88.6271 L 102.292 88.9045 L 102.613 88.9945 L 102.915 88.9261 L 103.156 88.7208 L 103.308 88.3929 L 103.365 87.9571 L 103.308 87.5212 L 103.153 87.197 L 102.915 86.9952 L 102.613 86.9232 L 102.296 87.0168 L 102.166 87.1321 L 102.058 87.287 L 102.058 86.3396 L 101.741 86.3396 L 101.741 88.9261 L 102.058 88.9261 L 102.058 88.6271 L 102.058 88.6271 z M 103.041 87.9571 L 103.005 88.2813 L 102.908 88.519 L 102.753 88.6631 L 102.559 88.71 L 102.346 88.6631 L 102.191 88.519 L 102.094 88.2849 L 102.061 87.9571 L 102.094 87.6329 L 102.191 87.3987 L 102.346 87.2582 L 102.559 87.2078 L 102.753 87.2582 L 102.908 87.4023 L 103.005 87.6365 L 103.041 87.9571 L 103.041 87.9571 z M 105.077 88.674 L 105.077 88.6848 L 105.095 88.8072 L 105.149 88.8937 L 105.376 88.9621 L 105.552 88.9333 L 105.552 88.6884 L 105.476 88.6992 L 105.376 88.6523 L 105.357 88.5082 L 105.357 87.5068 L 105.314 87.251 L 105.188 87.0709 L 104.968 86.9628 L 104.659 86.9232 L 104.356 86.9664 L 104.133 87.0889 L 103.992 87.2798 L 103.945 87.532 L 103.945 87.5536 L 104.23 87.5536 L 104.255 87.4023 L 104.334 87.2943 L 104.464 87.2294 L 104.648 87.2042 L 104.824 87.2222 L 104.95 87.2762 L 105.026 87.3699 L 105.051 87.4996 L 105.037 87.6509 L 104.979 87.7265 L 104.835 87.7625 L 104.565 87.7914 L 104.255 87.8562 L 104.035 87.9715 L 103.906 88.1516 L 103.866 88.4182 L 103.902 88.6559 L 104.014 88.8324 L 104.194 88.9441 L 104.443 88.9837 L 104.778 88.9081 L 105.077 88.674 L 105.077 88.674 z M 105.04 88.2488 L 104.997 88.4362 L 104.882 88.5803 L 104.709 88.674 L 104.497 88.7064 L 104.36 88.6884 L 104.262 88.6307 L 104.201 88.5298 L 104.183 88.3893 L 104.198 88.2632 L 104.255 88.1732 L 104.486 88.0723 L 104.778 88.0291 L 105.04 87.9426 L 105.04 88.2488 L 105.04 88.2488 z M 107.043 87.7986 L 106.737 87.7265 L 106.51 87.6437 L 106.435 87.4744 L 106.456 87.3555 L 106.532 87.269 L 106.654 87.215 L 106.831 87.1934 L 107 87.215 L 107.133 87.2798 L 107.22 87.3771 L 107.256 87.5068 L 107.566 87.5068 L 107.566 87.4996 L 107.512 87.2654 L 107.364 87.0817 L 107.133 86.9664 L 106.831 86.9232 L 106.525 86.9664 L 106.301 87.0853 L 106.161 87.2618 L 106.118 87.4852 L 106.15 87.7013 L 106.251 87.8526 L 106.417 87.9607 L 106.658 88.0363 L 107.011 88.1227 L 107.227 88.2128 L 107.285 88.2849 L 107.306 88.3929 L 107.274 88.5262 L 107.187 88.6271 L 107.047 88.692 L 106.86 88.7136 L 106.662 88.692 L 106.517 88.6163 L 106.42 88.4938 L 106.381 88.3245 L 106.074 88.3245 L 106.125 88.6127 L 106.272 88.8216 L 106.507 88.9477 L 106.831 88.9945 L 107.169 88.9477 L 107.418 88.8216 L 107.569 88.6199 L 107.623 88.3569 L 107.584 88.13 L 107.472 87.9751 L 107.288 87.8742 L 107.043 87.7986 L 107.043 87.7986 z" stroke="none" fill-rule="evenodd" fill="rgb(0, 0, 0)"/></g></svg>