<?xml version="1.0" encoding="utf-8" ?><!DOCTYPE svg PUBLIC "-//W3C//DTD SVG 1.1//EN" "http://www.w3.org/Graphics/SVG/1.1/DTD/svg11.dtd" 
[ <!ATTLIST svg 
  xmlns:dsy CDATA #FIXED "http://www.3ds.com/print"  
    dsy:text-version CDATA #IMPLIED > 

  <!ATTLIST text 
  xmlns:dsy CDATA #FIXED "http://www.3ds.com/print" 
    dsy:text-version CDATA #IMPLIED > 
]><svg xmlns="http://www.w3.org/2000/svg" xmlns:dsy="http://www.3ds.com/print" dsy:text-version="18000" width="297" height="210" viewBox="0 0 297 210" version="1.1"><g stroke="rgb(0, 0, 0)" stroke-width="0.35" stroke-linecap="butt" stroke-linejoin="miter" fill="none"><path d="M 117.583 64.83 A 7 7 0 0 0 103.803 63.0463"/><path d="M 103.803 63.0463 L 93.0842 104.868"/><circle cx="110.583" cy="64.7842" r="3.2"/><path d="M 117.583 64.83 L 117.317 105.543"/><path d="M 93.0842 104.868 L 100.722 105.856"/><path d="M 104.671 104.215 A 18.4646 18.4646 0 0 0 100.722 105.856"/><path d="M 117.317 105.543 A 13.7639 10.0006 -15.0595 0 0 104.968 104.132"/><path d="M 104.968 104.132 L 104.671 104.215"/></g><g stroke="rgb(0, 0, 0)" stroke-width="0.13" stroke-linecap="butt" stroke-linejoin="miter" stroke-dasharray="4, 1.5" fill="none"><path d="M 101.018 105.198 A 18.8492 18.8492 0 0 0 99.5099 105.699"/><path d="M 103.167 104.715 A 18.8686 18.8686 0 0 0 101.315 105.115"/><path d="M 101.315 105.115 L 101.018 105.198"/><path d="M 104.968 104.132 L 101.315 105.115"/></g><g stroke="rgb(0, 0, 0)" stroke-width="0.35" stroke-linecap="butt" stroke-linejoin="miter" fill="none"><path d="M 165.374 62.6413 A 7 7 0 0 0 151.593 64.425"/><path d="M 165.374 62.6413 L 176.093 104.463"/><circle cx="158.593" cy="64.3792" r="3.2"/></g><g stroke="rgb(0, 0, 0)" stroke-width="0.13" stroke-linecap="butt" stroke-linejoin="miter" stroke-dasharray="4, 1.5" fill="none"><path d="M 166.01 104.31 A 18.8495 18.8495 0 0 0 164.506 103.81"/><path d="M 164.208 103.727 L 164.506 103.81"/></g><g stroke="rgb(0, 0, 0)" stroke-width="0.35" stroke-linecap="butt" stroke-linejoin="miter" fill="none"><path d="M 154.027 107.319 L 151.876 107.597"/><path d="M 151.593 64.425 L 151.876 107.597"/><path d="M 176.093 104.463 L 169.667 105.295"/><path d="M 169.667 105.294 A 18.8492 18.8492 0 0 0 168.159 104.793"/><path d="M 167.862 104.71 A 13.7635 9.99998 -344.942 0 0 154.027 107.319"/><path d="M 167.862 104.71 L 168.159 104.793"/></g><g stroke="rgb(0, 0, 0)" stroke-width="0.13" stroke-linecap="butt" stroke-linejoin="miter" stroke-dasharray="4, 1.5" fill="none"><path d="M 164.208 103.727 L 167.862 104.71"/></g><g stroke="rgb(0, 0, 0)" stroke-width="0.35" stroke-linecap="butt" stroke-linejoin="miter" fill="none"><path d="M 9.99999 200 L 287 200"/><path d="M 287 200 L 287 10"/><path d="M 287 10 L 9.99999 10"/><path d="M 9.99999 10 L 9.99999 200"/><path d="M 148.5 10 L 148.5 0"/><path d="M 148.5 200 L 148.5 210"/><path d="M 9.99999 105 L -5.94366e-006 105"/><path d="M 287 105 L 297 105"/><path d="M 222.7 200 L 222.7 207.5"/><path d="M 74.3 200 L 74.3 207.5"/><path d="M 222.7 10 L 222.7 2.5"/><path d="M 74.3 10 L 74.3 2.5"/><path d="M 9.99999 52.5 L 2.49999 52.5"/><path d="M 287 52.5 L 294.5 52.5"/><path d="M 9.99999 157.5 L 2.49999 157.5"/><path d="M 287 157.5 L 294.5 157.5"/><path d="M 98.5 202.5 L 198.5 202.5"/><path d="M 98.5 200 L 98.5 205"/><path d="M 198.5 200 L 198.5 205"/><path d="M 108.5 200 L 108.5 202.5"/><path d="M 188.5 200 L 188.5 202.5"/><path d="M 118.5 200 L 118.5 202.5"/><path d="M 178.5 200 L 178.5 202.5"/><path d="M 128.5 200 L 128.5 202.5"/><path d="M 168.5 200 L 168.5 202.5"/><path d="M 138.5 200 L 138.5 202.5"/><path d="M 158.5 200 L 158.5 202.5"/><path d="M 97 200 L 287 200"/><path d="M 287 140 L 287 200"/></g><g stroke="rgb(0, 0, 0)" stroke-width="0.13" stroke-linecap="butt" stroke-linejoin="miter" stroke-dasharray="7, 1, 1, 1" fill="none"><path d="M 114.743 64.7842 L 106.423 64.7842"/><path d="M 110.583 60.6242 L 110.583 68.9442"/><path d="M 162.753 64.3792 L 154.433 64.3792"/><path d="M 158.593 60.2192 L 158.593 68.5392"/></g><g stroke="rgb(0, 0, 0)" stroke-width="0.13" stroke-linecap="butt" stroke-linejoin="miter" fill="none"><path d="M 258.267 206.833 L 258.731 206.833 L 259.099 205.804 L 260.496 205.804 L 260.864 206.833 L 261.338 206.833 L 260.057 203.328 L 259.543 203.328 L 258.267 206.833 L 258.267 206.833 z M 259.26 205.376 L 259.8 203.832 L 260.34 205.376 L 259.26 205.376 L 259.26 205.376 z" stroke="none" fill-rule="evenodd" fill="rgb(0, 0, 0)"/></g><g stroke="rgb(0, 0, 0)" stroke-width="0.13" stroke-linecap="butt" stroke-linejoin="miter" fill="none"><path d="M 37.1949 203.333 L 36.03 203.333 L 36.03 206.833 L 37.1949 206.833 L 37.7447 206.722 L 38.1532 206.384 L 38.4053 205.835 L 38.4961 205.083 L 38.4154 204.317 L 38.3145 204.014 L 38.1733 203.772 L 37.7648 203.444 L 37.4975 203.363 L 37.1949 203.333 L 37.1949 203.333 z M 37.1596 203.752 L 37.5429 203.827 L 37.8052 204.059 L 37.9615 204.473 L 38.012 205.083 L 37.9565 205.673 L 37.8001 206.087 L 37.5328 206.334 L 37.1596 206.415 L 36.499 206.415 L 36.499 203.752 L 37.1596 203.752 L 37.1596 203.752 z" stroke="none" fill-rule="evenodd" fill="rgb(0, 0, 0)"/></g><g stroke="rgb(0, 0, 0)" stroke-width="0.13" stroke-linecap="butt" stroke-linejoin="miter" fill="none"><path d="M 185.542 4.36958 L 185.249 4.01657 L 185.053 3.92578 L 184.811 3.89552 L 184.432 3.96109 L 184.16 4.15778 L 183.994 4.47549 L 183.933 4.9193 L 183.933 6.16498 L 187.433 6.16498 L 187.433 4.84869 L 187.363 4.37968 L 187.156 4.03169 L 186.828 3.81483 L 186.384 3.73918 L 186.087 3.78458 L 185.84 3.90561 L 185.658 4.10229 L 185.542 4.36958 L 185.542 4.36958 z M 185.386 5.01512 L 185.386 5.701 L 184.352 5.701 L 184.352 4.97478 L 184.382 4.70244 L 184.473 4.5108 L 184.629 4.39481 L 184.861 4.35446 L 185.093 4.39986 L 185.255 4.52089 L 185.355 4.72766 L 185.386 5.01512 L 185.386 5.01512 z M 187.015 4.90417 L 187.015 5.701 L 185.809 5.701 L 185.809 4.94955 L 185.845 4.63184 L 185.951 4.40489 L 186.132 4.26872 L 186.394 4.22334 L 186.672 4.26872 L 186.863 4.39481 L 186.979 4.60663 L 187.015 4.90417 L 187.015 4.90417 z" stroke="none" fill-rule="evenodd" fill="rgb(0, 0, 0)"/></g><g stroke="rgb(0, 0, 0)" stroke-width="0.13" stroke-linecap="butt" stroke-linejoin="miter" fill="none"><path d="M 111.932 4.183 L 112.356 4.28386 L 112.658 4.45029 L 112.845 4.68227 L 112.905 4.95461 L 112.815 5.28241 L 112.542 5.53961 L 112.098 5.71109 L 111.483 5.76657 L 110.873 5.71109 L 110.424 5.54466 L 110.152 5.28746 L 110.056 4.95461 L 110.106 4.71252 L 110.248 4.50575 L 110.475 4.34438 L 110.787 4.23343 L 110.787 3.75432 L 110.308 3.90561 L 109.945 4.16786 L 109.718 4.52592 L 109.637 4.95461 L 109.763 5.48918 L 110.116 5.89769 L 110.696 6.15994 L 111.483 6.25072 L 112.27 6.15994 L 112.85 5.89769 L 113.208 5.48918 L 113.329 4.95461 L 113.233 4.48558 L 112.966 4.10735 L 112.527 3.84006 L 111.932 3.69884 L 111.932 4.183 L 111.932 4.183 z" stroke="none" fill-rule="evenodd" fill="rgb(0, 0, 0)"/></g><g stroke="rgb(0, 0, 0)" stroke-width="0.13" stroke-linecap="butt" stroke-linejoin="miter" fill="none"><path d="M 261.633 6.53314 L 261.633 6.06915 L 260.604 5.701 L 260.604 4.30403 L 261.633 3.93587 L 261.633 3.46181 L 258.128 4.74278 L 258.128 5.2572 L 261.633 6.53314 L 261.633 6.53314 z M 260.176 5.53961 L 258.632 5 L 260.176 4.46037 L 260.176 5.53961 L 260.176 5.53961 z" stroke="none" fill-rule="evenodd" fill="rgb(0, 0, 0)"/></g><g stroke="rgb(0, 0, 0)" stroke-width="0.13" stroke-linecap="butt" stroke-linejoin="miter" fill="none"><path d="M 35.5332 5.00504 L 35.5332 6.17003 L 39.0332 6.17003 L 39.0332 5.00504 L 38.9223 4.45532 L 38.5844 4.04683 L 38.0346 3.79466 L 37.2832 3.70389 L 36.5166 3.78458 L 36.214 3.88544 L 35.972 4.02666 L 35.6442 4.43515 L 35.5635 4.70244 L 35.5332 5.00504 L 35.5332 5.00504 z M 35.9518 5.04034 L 36.0274 4.65706 L 36.2594 4.39481 L 36.673 4.23846 L 37.2832 4.18803 L 37.8733 4.24352 L 38.2868 4.39986 L 38.5339 4.66714 L 38.6146 5.04034 L 38.6146 5.701 L 35.9518 5.701 L 35.9518 5.04034 L 35.9518 5.04034 z" stroke="none" fill-rule="evenodd" fill="rgb(0, 0, 0)"/></g><g stroke="rgb(0, 0, 0)" stroke-width="0.13" stroke-linecap="butt" stroke-linejoin="miter" fill="none"><path d="M 290.729 79.4838 L 290.729 79.5191 L 290.81 80.0032 L 291.047 80.3663 L 291.42 80.5983 L 291.914 80.6841 L 292.439 80.5983 L 292.832 80.3764 L 293.084 80.0234 L 293.175 79.5695 L 293.135 79.272 L 293.024 79.0299 L 292.842 78.8433 L 292.6 78.7071 L 292.928 78.4348 L 293.044 78.0011 L 292.968 77.6077 L 292.751 77.3102 L 292.398 77.1236 L 291.914 77.058 L 291.46 77.1387 L 291.112 77.3606 L 290.885 77.7136 L 290.81 78.1826 L 290.81 78.2179 L 291.259 78.2179 L 291.299 77.8952 L 291.43 77.6632 L 291.642 77.522 L 291.939 77.4715 L 292.202 77.5119 L 292.393 77.6178 L 292.509 77.7892 L 292.555 78.0212 L 292.509 78.2684 L 292.388 78.4348 L 292.177 78.5356 L 291.889 78.5659 L 291.692 78.5609 L 291.692 78.9593 L 291.939 78.9492 L 292.257 78.9946 L 292.494 79.1156 L 292.635 79.3123 L 292.686 79.5695 L 292.63 79.862 L 292.484 80.0789 L 292.252 80.215 L 291.945 80.2604 L 291.627 80.21 L 291.395 80.0587 L 291.249 79.8166 L 291.193 79.4838 L 290.729 79.4838 L 290.729 79.4838 z" stroke="none" fill-rule="evenodd" fill="rgb(0, 0, 0)"/></g><g stroke="rgb(0, 0, 0)" stroke-width="0.13" stroke-linecap="butt" stroke-linejoin="miter" fill="none"><path d="M 5.73378 80.0209 L 5.76909 80.0209 L 6.25324 79.9402 L 6.61635 79.7032 L 6.84834 79.33 L 6.93407 78.8357 L 6.84834 78.3112 L 6.62644 77.9179 L 6.27341 77.6657 L 5.81952 77.5749 L 5.52197 77.6153 L 5.27989 77.7262 L 5.09329 77.9078 L 4.95713 78.1499 L 4.68479 77.822 L 4.25108 77.706 L 3.8577 77.7817 L 3.56015 77.9986 L 3.37355 78.3516 L 3.30799 78.8357 L 3.38868 79.2896 L 3.61059 79.6376 L 3.96361 79.8645 L 4.43263 79.9402 L 4.46793 79.9402 L 4.46793 79.4913 L 4.14517 79.451 L 3.91318 79.3199 L 3.77197 79.1081 L 3.72154 78.8105 L 3.76188 78.5483 L 3.86779 78.3566 L 4.03926 78.2406 L 4.27125 78.1952 L 4.51837 78.2406 L 4.68479 78.3617 L 4.78566 78.5735 L 4.81592 78.8609 L 4.81087 79.0576 L 5.20929 79.0576 L 5.1992 78.8105 L 5.24459 78.4928 L 5.36563 78.2558 L 5.56231 78.1145 L 5.81952 78.0641 L 6.11203 78.1196 L 6.32889 78.2658 L 6.46505 78.4978 L 6.51044 78.8055 L 6.46001 79.1232 L 6.30871 79.3552 L 6.06664 79.5014 L 5.73378 79.5569 L 5.73378 80.0209 L 5.73378 80.0209 z" stroke="none" fill-rule="evenodd" fill="rgb(0, 0, 0)"/></g><g stroke="rgb(0, 0, 0)" stroke-width="0.13" stroke-linecap="butt" stroke-linejoin="miter" fill="none"><path d="M 290.769 133.083 L 293.175 133.083 L 293.175 132.65 L 291.274 132.65 L 291.38 132.412 L 291.561 132.216 L 292.121 131.858 L 292.419 131.706 L 292.751 131.49 L 292.988 131.237 L 293.125 130.94 L 293.175 130.602 L 293.089 130.178 L 292.852 129.845 L 292.489 129.634 L 292.02 129.558 L 291.536 129.644 L 291.168 129.881 L 290.931 130.259 L 290.85 130.758 L 290.85 130.829 L 291.309 130.829 L 291.309 130.789 L 291.354 130.446 L 291.491 130.193 L 291.707 130.032 L 291.995 129.977 L 292.287 130.027 L 292.504 130.153 L 292.646 130.35 L 292.696 130.597 L 292.661 130.829 L 292.565 131.026 L 292.403 131.197 L 292.182 131.348 L 291.884 131.51 L 291.39 131.822 L 291.042 132.155 L 290.835 132.559 L 290.769 133.068 L 290.769 133.083 L 290.769 133.083 z" stroke="none" fill-rule="evenodd" fill="rgb(0, 0, 0)"/></g><g stroke="rgb(0, 0, 0)" stroke-width="0.13" stroke-linecap="butt" stroke-linejoin="miter" fill="none"><path d="M 6.83321 132.481 L 6.83321 130.075 L 6.39949 130.075 L 6.39949 131.976 L 6.16246 131.87 L 5.96577 131.689 L 5.6077 131.129 L 5.45641 130.831 L 5.23955 130.499 L 4.98738 130.262 L 4.68983 130.125 L 4.35194 130.075 L 3.92831 130.161 L 3.59545 130.398 L 3.38364 130.761 L 3.30799 131.23 L 3.39372 131.714 L 3.63075 132.082 L 4.009 132.319 L 4.50828 132.4 L 4.57888 132.4 L 4.57888 131.941 L 4.53854 131.941 L 4.1956 131.896 L 3.94343 131.759 L 3.78205 131.543 L 3.72658 131.255 L 3.77701 130.963 L 3.90309 130.746 L 4.09978 130.604 L 4.34689 130.554 L 4.57888 130.589 L 4.77557 130.685 L 4.94704 130.847 L 5.09834 131.068 L 5.25972 131.366 L 5.5724 131.86 L 5.90525 132.208 L 6.30871 132.415 L 6.81808 132.481 L 6.83321 132.481 L 6.83321 132.481 z" stroke="none" fill-rule="evenodd" fill="rgb(0, 0, 0)"/></g><g stroke="rgb(0, 0, 0)" stroke-width="0.13" stroke-linecap="butt" stroke-linejoin="miter" fill="none"><path d="M 292.277 28.0832 L 292.731 28.0832 L 292.731 27.2158 L 293.231 27.2158 L 293.231 26.8123 L 292.731 26.8123 L 292.731 24.6588 L 292.272 24.6588 L 290.739 26.772 L 290.739 27.2158 L 292.277 27.2158 L 292.277 28.0832 L 292.277 28.0832 z M 291.163 26.8123 L 292.277 25.2439 L 292.277 26.8123 L 291.163 26.8123 L 291.163 26.8123 z" stroke="none" fill-rule="evenodd" fill="rgb(0, 0, 0)"/></g><g stroke="rgb(0, 0, 0)" stroke-width="0.13" stroke-linecap="butt" stroke-linejoin="miter" fill="none"><path d="M 6.83321 25.9726 L 6.83321 25.5187 L 5.96577 25.5187 L 5.96577 25.0194 L 5.56231 25.0194 L 5.56231 25.5187 L 3.40886 25.5187 L 3.40886 25.9777 L 5.52197 27.5108 L 5.96577 27.5108 L 5.96577 25.9726 L 6.83321 25.9726 L 6.83321 25.9726 z M 5.56231 27.0872 L 3.99387 25.9726 L 5.56231 25.9726 L 5.56231 27.0872 L 5.56231 27.0872 z" stroke="none" fill-rule="evenodd" fill="rgb(0, 0, 0)"/></g><g stroke="rgb(0, 0, 0)" stroke-width="0.13" stroke-linecap="butt" stroke-linejoin="miter" fill="none"><path d="M 291.909 185.583 L 292.368 185.583 L 292.368 182.058 L 292.025 182.058 L 291.934 182.366 L 291.753 182.572 L 291.476 182.693 L 291.092 182.734 L 291.092 183.092 L 291.909 183.092 L 291.909 185.583 L 291.909 185.583 z" stroke="none" fill-rule="evenodd" fill="rgb(0, 0, 0)"/></g><g stroke="rgb(0, 0, 0)" stroke-width="0.13" stroke-linecap="butt" stroke-linejoin="miter" fill="none"><path d="M 6.83321 183.841 L 6.83321 183.382 L 3.30799 183.382 L 3.30799 183.725 L 3.61562 183.816 L 3.8224 183.997 L 3.94343 184.275 L 3.98378 184.658 L 4.34185 184.658 L 4.34185 183.841 L 6.83321 183.841 L 6.83321 183.841 z" stroke="none" fill-rule="evenodd" fill="rgb(0, 0, 0)"/></g><g stroke="rgb(0, 0, 0)" stroke-width="0.13" stroke-linecap="butt" stroke-linejoin="miter" fill="none"><path d="M 162.081 175.969 L 161.249 175.969 L 161.249 178.469 L 162.081 178.469 L 162.473 178.39 L 162.765 178.148 L 162.945 177.756 L 163.01 177.219 L 162.952 176.671 L 162.88 176.455 L 162.78 176.282 L 162.488 176.048 L 162.297 175.991 L 162.081 175.969 L 162.081 175.969 z M 162.055 176.268 L 162.329 176.322 L 162.517 176.488 L 162.628 176.783 L 162.664 177.219 L 162.625 177.64 L 162.513 177.936 L 162.322 178.112 L 162.055 178.17 L 161.584 178.17 L 161.584 176.268 L 162.055 176.268 L 162.055 176.268 z M 164.004 176.272 L 164.217 176.272 L 164.718 175.659 L 164.365 175.659 L 164.004 176.272 L 164.004 176.272 z M 163.785 177.594 L 165.053 177.594 L 165.056 177.446 L 164.999 177.032 L 164.84 176.722 L 164.588 176.535 L 164.253 176.466 L 163.925 176.538 L 163.673 176.74 L 163.511 177.068 L 163.453 177.5 L 163.507 177.943 L 163.669 178.267 L 163.918 178.469 L 164.242 178.537 L 164.523 178.491 L 164.754 178.368 L 164.923 178.174 L 165.02 177.914 L 164.707 177.914 L 164.642 178.058 L 164.548 178.166 L 164.282 178.253 L 164.076 178.213 L 163.921 178.087 L 163.821 177.882 L 163.785 177.604 L 163.785 177.594 L 163.785 177.594 z M 163.785 177.327 L 163.824 177.079 L 163.921 176.895 L 164.069 176.783 L 164.264 176.744 L 164.455 176.783 L 164.602 176.895 L 164.692 177.079 L 164.725 177.327 L 163.785 177.327 L 163.785 177.327 z M 166.623 177.341 L 166.317 177.269 L 166.09 177.187 L 166.014 177.017 L 166.036 176.898 L 166.112 176.812 L 166.234 176.758 L 166.411 176.736 L 166.58 176.758 L 166.713 176.823 L 166.8 176.92 L 166.836 177.05 L 167.146 177.05 L 167.146 177.043 L 167.092 176.808 L 166.944 176.625 L 166.713 176.509 L 166.411 176.466 L 166.104 176.509 L 165.881 176.628 L 165.741 176.805 L 165.697 177.028 L 165.73 177.244 L 165.831 177.396 L 165.996 177.504 L 166.238 177.579 L 166.591 177.666 L 166.807 177.756 L 166.865 177.828 L 166.886 177.936 L 166.854 178.069 L 166.767 178.17 L 166.627 178.235 L 166.439 178.256 L 166.241 178.235 L 166.097 178.159 L 166 178.037 L 165.96 177.867 L 165.654 177.867 L 165.705 178.156 L 165.852 178.365 L 166.086 178.491 L 166.411 178.537 L 166.749 178.491 L 166.998 178.365 L 167.149 178.163 L 167.203 177.9 L 167.164 177.673 L 167.052 177.518 L 166.868 177.417 L 166.623 177.341 L 166.623 177.341 z M 168.813 178.202 L 168.813 176.599 L 167.999 176.599 L 167.999 176.87 L 168.496 176.87 L 168.496 178.202 L 167.848 178.202 L 167.848 178.469 L 169.469 178.469 L 169.469 178.202 L 168.813 178.202 L 168.813 178.202 z M 168.824 175.883 L 168.489 175.883 L 168.489 176.243 L 168.824 176.243 L 168.824 175.883 L 168.824 175.883 z M 171.519 178.383 L 171.519 176.535 L 171.216 176.535 L 171.216 176.848 L 170.968 176.563 L 170.816 176.491 L 170.647 176.466 L 170.341 176.538 L 170.103 176.74 L 169.948 177.064 L 169.894 177.5 L 169.948 177.939 L 170.103 178.264 L 170.341 178.469 L 170.647 178.537 L 170.82 178.512 L 170.964 178.447 L 171.216 178.174 L 171.216 178.447 L 171.187 178.664 L 171.108 178.818 L 170.957 178.909 L 170.73 178.941 L 170.532 178.919 L 170.391 178.865 L 170.308 178.772 L 170.283 178.646 L 169.977 178.646 L 169.977 178.66 L 170.024 178.89 L 170.168 179.063 L 170.398 179.175 L 170.712 179.215 L 171.086 179.161 L 171.335 179.009 L 171.476 178.746 L 171.519 178.383 L 171.519 178.383 z M 170.222 177.5 L 170.254 177.179 L 170.352 176.942 L 170.503 176.801 L 170.705 176.751 L 170.917 176.801 L 171.076 176.942 L 171.173 177.179 L 171.209 177.5 L 171.173 177.828 L 171.076 178.062 L 170.917 178.206 L 170.705 178.253 L 170.503 178.206 L 170.352 178.062 L 170.254 177.824 L 170.222 177.5 L 170.222 177.5 z M 172.182 178.469 L 172.499 178.469 L 172.499 177.352 L 172.531 177.097 L 172.635 176.909 L 172.798 176.794 L 173.014 176.751 L 173.187 176.787 L 173.295 176.884 L 173.349 177.046 L 173.367 177.262 L 173.367 178.469 L 173.684 178.469 L 173.684 177.197 L 173.669 176.942 L 173.605 176.729 L 173.392 176.535 L 173.061 176.466 L 172.877 176.491 L 172.722 176.56 L 172.589 176.675 L 172.484 176.83 L 172.484 176.535 L 172.182 176.535 L 172.182 178.469 L 172.182 178.469 z M 175.499 178.217 L 175.499 178.228 L 175.517 178.35 L 175.571 178.437 L 175.798 178.505 L 175.975 178.476 L 175.975 178.231 L 175.899 178.242 L 175.798 178.195 L 175.78 178.051 L 175.78 177.05 L 175.737 176.794 L 175.611 176.614 L 175.391 176.506 L 175.081 176.466 L 174.779 176.509 L 174.556 176.632 L 174.415 176.823 L 174.368 177.075 L 174.368 177.097 L 174.653 177.097 L 174.678 176.945 L 174.757 176.837 L 174.887 176.772 L 175.071 176.747 L 175.247 176.765 L 175.373 176.819 L 175.449 176.913 L 175.474 177.043 L 175.46 177.194 L 175.402 177.269 L 175.258 177.305 L 174.988 177.334 L 174.678 177.399 L 174.458 177.514 L 174.329 177.695 L 174.289 177.961 L 174.325 178.199 L 174.437 178.375 L 174.617 178.487 L 174.865 178.527 L 175.2 178.451 L 175.499 178.217 L 175.499 178.217 z M 175.463 177.792 L 175.42 177.979 L 175.305 178.123 L 175.132 178.217 L 174.919 178.249 L 174.782 178.231 L 174.685 178.174 L 174.624 178.073 L 174.606 177.932 L 174.62 177.806 L 174.678 177.716 L 174.909 177.615 L 175.2 177.572 L 175.463 177.486 L 175.463 177.792 L 175.463 177.792 z M 176.944 176.87 L 176.944 177.839 L 176.965 178.152 L 177.066 178.368 L 177.268 178.494 L 177.61 178.537 L 177.985 178.519 L 177.985 178.246 L 177.711 178.267 L 177.463 178.238 L 177.329 178.148 L 177.272 177.997 L 177.261 177.785 L 177.261 176.87 L 177.985 176.87 L 177.985 176.599 L 177.261 176.599 L 177.261 176.034 L 176.944 176.034 L 176.944 176.599 L 176.396 176.599 L 176.396 176.87 L 176.944 176.87 L 176.944 176.87 z M 179.656 178.202 L 179.656 176.599 L 178.842 176.599 L 178.842 176.87 L 179.339 176.87 L 179.339 178.202 L 178.691 178.202 L 178.691 178.469 L 180.312 178.469 L 180.312 178.202 L 179.656 178.202 L 179.656 178.202 z M 179.667 175.883 L 179.332 175.883 L 179.332 176.243 L 179.667 176.243 L 179.667 175.883 L 179.667 175.883 z M 180.762 177.504 L 180.82 177.943 L 180.986 178.267 L 181.249 178.469 L 181.602 178.537 L 181.951 178.469 L 182.214 178.271 L 182.38 177.947 L 182.441 177.504 L 182.38 177.064 L 182.214 176.736 L 181.951 176.538 L 181.602 176.466 L 181.249 176.538 L 180.986 176.74 L 180.82 177.064 L 180.762 177.504 L 180.762 177.504 z M 181.087 177.5 L 181.119 177.176 L 181.22 176.942 L 181.382 176.798 L 181.602 176.747 L 181.818 176.798 L 181.98 176.938 L 182.081 177.176 L 182.117 177.5 L 182.081 177.828 L 181.98 178.066 L 181.818 178.21 L 181.602 178.256 L 181.382 178.21 L 181.22 178.066 L 181.119 177.828 L 181.087 177.5 L 181.087 177.5 z M 183.025 178.469 L 183.342 178.469 L 183.342 177.352 L 183.374 177.097 L 183.478 176.909 L 183.641 176.794 L 183.857 176.751 L 184.03 176.787 L 184.138 176.884 L 184.192 177.046 L 184.21 177.262 L 184.21 178.469 L 184.527 178.469 L 184.527 177.197 L 184.512 176.942 L 184.447 176.729 L 184.235 176.535 L 183.904 176.466 L 183.72 176.491 L 183.565 176.56 L 183.432 176.675 L 183.327 176.83 L 183.327 176.535 L 183.025 176.535 L 183.025 178.469 L 183.025 178.469 z" stroke="none" fill-rule="evenodd" fill="rgb(0, 0, 0)"/></g><g stroke="rgb(0, 0, 0)" stroke-width="0.13" stroke-linecap="butt" stroke-linejoin="miter" fill="none"><path d="M 161.05 189.47 L 161.653 189.47 L 161.653 187.57 L 162.269 187.57 L 162.723 187.589 L 163.009 187.68 L 163.164 187.894 L 163.229 188.277 L 163.262 188.86 L 163.3 189.243 L 163.378 189.47 L 164.059 189.47 L 164.059 189.347 L 163.91 189.165 L 163.858 188.828 L 163.813 188.102 L 163.702 187.563 L 163.553 187.395 L 163.32 187.272 L 163.579 187.11 L 163.761 186.883 L 163.878 186.597 L 163.916 186.254 L 163.826 185.709 L 163.566 185.3 L 163.138 185.054 L 162.555 184.97 L 161.05 184.97 L 161.05 189.47 L 161.05 189.47 z M 162.386 185.521 L 162.782 185.56 L 163.061 185.683 L 163.236 185.91 L 163.294 186.267 L 163.229 186.643 L 163.054 186.87 L 162.756 186.986 L 162.347 187.019 L 161.653 187.019 L 161.653 185.521 L 162.386 185.521 L 162.386 185.521 z M 165.557 187.894 L 167.839 187.894 L 167.846 187.628 L 167.742 186.883 L 167.457 186.325 L 167.003 185.988 L 166.4 185.865 L 165.81 185.994 L 165.356 186.357 L 165.064 186.947 L 164.96 187.726 L 165.058 188.523 L 165.349 189.107 L 165.797 189.47 L 166.38 189.593 L 166.886 189.509 L 167.301 189.288 L 167.606 188.938 L 167.781 188.471 L 167.217 188.471 L 167.1 188.731 L 166.932 188.925 L 166.452 189.081 L 166.082 189.009 L 165.803 188.782 L 165.622 188.413 L 165.557 187.914 L 165.557 187.894 L 165.557 187.894 z M 165.557 187.414 L 165.628 186.967 L 165.803 186.636 L 166.069 186.435 L 166.419 186.364 L 166.763 186.435 L 167.029 186.636 L 167.191 186.967 L 167.249 187.414 L 165.557 187.414 L 165.557 187.414 z M 171.03 189.016 L 171.03 189.035 L 171.062 189.256 L 171.159 189.411 L 171.568 189.535 L 171.885 189.483 L 171.885 189.042 L 171.749 189.061 L 171.568 188.977 L 171.535 188.718 L 171.535 186.915 L 171.458 186.455 L 171.231 186.13 L 170.835 185.936 L 170.277 185.865 L 169.733 185.942 L 169.331 186.163 L 169.078 186.506 L 168.994 186.96 L 168.994 186.999 L 169.506 186.999 L 169.551 186.727 L 169.694 186.532 L 169.927 186.416 L 170.258 186.37 L 170.576 186.403 L 170.803 186.5 L 170.939 186.669 L 170.984 186.902 L 170.958 187.174 L 170.854 187.311 L 170.595 187.375 L 170.109 187.427 L 169.551 187.544 L 169.156 187.751 L 168.922 188.076 L 168.851 188.555 L 168.916 188.983 L 169.117 189.301 L 169.441 189.502 L 169.888 189.573 L 170.491 189.437 L 171.03 189.016 L 171.03 189.016 z M 170.965 188.251 L 170.887 188.588 L 170.679 188.847 L 170.368 189.016 L 169.986 189.074 L 169.739 189.042 L 169.564 188.938 L 169.454 188.756 L 169.421 188.504 L 169.447 188.277 L 169.551 188.115 L 169.966 187.933 L 170.491 187.855 L 170.965 187.7 L 170.965 188.251 L 170.965 188.251 z M 173.079 189.47 L 173.649 189.47 L 173.649 187.479 L 173.708 186.999 L 173.883 186.656 L 174.168 186.448 L 174.55 186.377 L 174.836 186.422 L 175.05 186.552 L 175.179 186.772 L 175.225 187.071 L 175.802 187.071 L 175.724 186.545 L 175.51 186.169 L 175.153 185.942 L 174.667 185.865 L 174.336 185.916 L 174.051 186.046 L 173.798 186.267 L 173.597 186.565 L 173.597 185.988 L 173.079 185.988 L 173.079 189.47 L 173.079 189.47 z M 180.697 189.47 L 183.589 189.47 L 183.589 188.925 L 181.294 188.925 L 181.294 184.97 L 180.697 184.97 L 180.697 189.47 L 180.697 189.47 z M 185.074 187.894 L 187.357 187.894 L 187.363 187.628 L 187.259 186.883 L 186.974 186.325 L 186.52 185.988 L 185.917 185.865 L 185.327 185.994 L 184.873 186.357 L 184.581 186.947 L 184.478 187.726 L 184.575 188.523 L 184.867 189.107 L 185.314 189.47 L 185.898 189.593 L 186.403 189.509 L 186.818 189.288 L 187.123 188.938 L 187.298 188.471 L 186.734 188.471 L 186.617 188.731 L 186.449 188.925 L 185.969 189.081 L 185.599 189.009 L 185.321 188.782 L 185.139 188.413 L 185.074 187.914 L 185.074 187.894 L 185.074 187.894 z M 185.074 187.414 L 185.146 186.967 L 185.321 186.636 L 185.586 186.435 L 185.937 186.364 L 186.28 186.435 L 186.546 186.636 L 186.708 186.967 L 186.767 187.414 L 185.074 187.414 L 185.074 187.414 z M 189.269 186.591 L 189.269 189.47 L 189.84 189.47 L 189.84 186.591 L 191.137 186.591 L 191.137 186.104 L 189.84 186.104 L 189.84 185.89 L 189.885 185.631 L 190.035 185.456 L 190.287 185.352 L 190.651 185.313 L 191.137 185.339 L 191.137 184.847 L 190.521 184.814 L 189.963 184.872 L 189.574 185.048 L 189.341 185.352 L 189.269 185.787 L 189.269 186.104 L 188.226 186.104 L 188.226 186.591 L 189.269 186.591 L 189.269 186.591 z M 193.147 186.591 L 193.147 188.335 L 193.186 188.899 L 193.367 189.288 L 193.731 189.515 L 194.347 189.593 L 195.021 189.561 L 195.021 189.068 L 194.528 189.107 L 194.081 189.055 L 193.841 188.893 L 193.737 188.62 L 193.718 188.238 L 193.718 186.591 L 195.021 186.591 L 195.021 186.104 L 193.718 186.104 L 193.718 185.086 L 193.147 185.086 L 193.147 186.104 L 192.161 186.104 L 192.161 186.591 L 193.147 186.591 L 193.147 186.591 z M 199.981 187.758 L 200.072 188.568 L 200.357 189.146 L 200.837 189.476 L 201.531 189.593 L 202.218 189.476 L 202.698 189.146 L 202.983 188.575 L 203.081 187.758 L 203.081 184.97 L 202.478 184.97 L 202.478 187.79 L 202.419 188.341 L 202.244 188.737 L 201.946 188.97 L 201.531 189.048 L 201.103 188.97 L 200.805 188.737 L 200.63 188.348 L 200.578 187.79 L 200.578 184.97 L 199.981 184.97 L 199.981 187.758 L 199.981 187.758 z M 204.63 186.526 L 204.63 185.988 L 204.06 185.988 L 204.06 190.818 L 204.63 190.818 L 204.63 188.938 L 204.831 189.243 L 205.058 189.444 L 205.629 189.593 L 206.174 189.47 L 206.602 189.1 L 206.88 188.517 L 206.984 187.726 L 206.88 186.941 L 206.602 186.357 L 206.174 185.994 L 205.629 185.865 L 205.318 185.903 L 205.052 186.027 L 204.825 186.234 L 204.63 186.526 L 204.63 186.526 z M 205.532 189.081 L 205.149 188.996 L 204.87 188.737 L 204.695 188.316 L 204.637 187.726 L 204.695 187.142 L 204.87 186.72 L 205.149 186.468 L 205.532 186.377 L 205.882 186.468 L 206.161 186.727 L 206.336 187.148 L 206.401 187.726 L 206.336 188.309 L 206.161 188.737 L 205.882 188.996 L 205.532 189.081 L 205.532 189.081 z M 208.534 186.526 L 208.534 185.988 L 207.963 185.988 L 207.963 190.818 L 208.534 190.818 L 208.534 188.938 L 208.735 189.243 L 208.962 189.444 L 209.532 189.593 L 210.077 189.47 L 210.505 189.1 L 210.784 188.517 L 210.888 187.726 L 210.784 186.941 L 210.505 186.357 L 210.077 185.994 L 209.532 185.865 L 209.221 185.903 L 208.955 186.027 L 208.728 186.234 L 208.534 186.526 L 208.534 186.526 z M 209.435 189.081 L 209.053 188.996 L 208.774 188.737 L 208.599 188.316 L 208.54 187.726 L 208.599 187.142 L 208.774 186.72 L 209.053 186.468 L 209.435 186.377 L 209.785 186.468 L 210.064 186.727 L 210.239 187.148 L 210.304 187.726 L 210.239 188.309 L 210.064 188.737 L 209.785 188.996 L 209.435 189.081 L 209.435 189.081 z M 212.398 187.894 L 214.681 187.894 L 214.687 187.628 L 214.584 186.883 L 214.298 186.325 L 213.844 185.988 L 213.241 185.865 L 212.651 185.994 L 212.197 186.357 L 211.906 186.947 L 211.802 187.726 L 211.899 188.523 L 212.191 189.107 L 212.638 189.47 L 213.222 189.593 L 213.728 189.509 L 214.143 189.288 L 214.447 188.938 L 214.622 188.471 L 214.058 188.471 L 213.942 188.731 L 213.773 188.925 L 213.293 189.081 L 212.924 189.009 L 212.645 188.782 L 212.463 188.413 L 212.398 187.914 L 212.398 187.894 L 212.398 187.894 z M 212.398 187.414 L 212.47 186.967 L 212.645 186.636 L 212.911 186.435 L 213.261 186.364 L 213.604 186.435 L 213.87 186.636 L 214.032 186.967 L 214.091 187.414 L 212.398 187.414 L 212.398 187.414 z M 216.017 189.47 L 216.587 189.47 L 216.587 187.479 L 216.646 186.999 L 216.821 186.656 L 217.106 186.448 L 217.488 186.377 L 217.774 186.422 L 217.988 186.552 L 218.117 186.772 L 218.163 187.071 L 218.74 187.071 L 218.662 186.545 L 218.448 186.169 L 218.091 185.942 L 217.605 185.865 L 217.274 185.916 L 216.989 186.046 L 216.736 186.267 L 216.535 186.565 L 216.535 185.988 L 216.017 185.988 L 216.017 189.47 L 216.017 189.47 z M 222.981 189.47 L 223.577 189.47 L 224.05 188.147 L 225.847 188.147 L 226.32 189.47 L 226.929 189.47 L 225.282 184.963 L 224.621 184.963 L 222.981 189.47 L 222.981 189.47 z M 224.258 187.596 L 224.952 185.612 L 225.646 187.596 L 224.258 187.596 L 224.258 187.596 z M 228.071 187.985 L 229.64 187.985 L 229.64 187.473 L 228.071 187.473 L 228.071 187.985 L 228.071 187.985 z M 233.485 189.016 L 233.485 189.035 L 233.517 189.256 L 233.615 189.411 L 234.023 189.535 L 234.341 189.483 L 234.341 189.042 L 234.205 189.061 L 234.023 188.977 L 233.991 188.718 L 233.991 186.915 L 233.913 186.455 L 233.686 186.13 L 233.29 185.936 L 232.733 185.865 L 232.188 185.942 L 231.786 186.163 L 231.533 186.506 L 231.449 186.96 L 231.449 186.999 L 231.961 186.999 L 232.006 186.727 L 232.149 186.532 L 232.383 186.416 L 232.713 186.37 L 233.031 186.403 L 233.258 186.5 L 233.394 186.669 L 233.439 186.902 L 233.414 187.174 L 233.31 187.311 L 233.05 187.375 L 232.564 187.427 L 232.006 187.544 L 231.611 187.751 L 231.378 188.076 L 231.306 188.555 L 231.371 188.983 L 231.572 189.301 L 231.896 189.502 L 232.344 189.573 L 232.947 189.437 L 233.485 189.016 L 233.485 189.016 z M 233.42 188.251 L 233.342 188.588 L 233.135 188.847 L 232.823 189.016 L 232.441 189.074 L 232.195 189.042 L 232.019 188.938 L 231.909 188.756 L 231.877 188.504 L 231.903 188.277 L 232.006 188.115 L 232.421 187.933 L 232.947 187.855 L 233.42 187.7 L 233.42 188.251 L 233.42 188.251 z M 235.534 189.47 L 236.104 189.47 L 236.104 187.479 L 236.163 186.999 L 236.338 186.656 L 236.623 186.448 L 237.006 186.377 L 237.291 186.422 L 237.505 186.552 L 237.635 186.772 L 237.68 187.071 L 238.257 187.071 L 238.179 186.545 L 237.965 186.169 L 237.609 185.942 L 237.122 185.865 L 236.792 185.916 L 236.506 186.046 L 236.254 186.267 L 236.053 186.565 L 236.053 185.988 L 235.534 185.988 L 235.534 189.47 L 235.534 189.47 z M 238.996 189.47 L 239.522 189.47 L 239.522 187.142 L 239.554 186.792 L 239.651 186.539 L 239.8 186.39 L 239.995 186.331 L 240.151 186.383 L 240.254 186.513 L 240.306 186.733 L 240.326 187.025 L 240.326 189.47 L 240.818 189.47 L 240.818 187.142 L 240.851 186.798 L 240.948 186.545 L 241.104 186.39 L 241.298 186.331 L 241.454 186.383 L 241.558 186.513 L 241.622 187.025 L 241.622 189.47 L 242.148 189.47 L 242.148 187.064 L 242.115 186.565 L 242.012 186.182 L 241.804 185.949 L 241.467 185.865 L 241.071 185.994 L 240.767 186.37 L 240.527 186.001 L 240.125 185.865 L 239.755 185.994 L 239.502 186.357 L 239.502 185.988 L 238.996 185.988 L 238.996 189.47 L 238.996 189.47 z M 246.927 189.47 L 247.53 189.47 L 247.53 187.57 L 248.146 187.57 L 248.599 187.589 L 248.885 187.68 L 249.04 187.894 L 249.105 188.277 L 249.138 188.86 L 249.177 189.243 L 249.254 189.47 L 249.935 189.47 L 249.935 189.347 L 249.786 189.165 L 249.734 188.828 L 249.689 188.102 L 249.579 187.563 L 249.429 187.395 L 249.196 187.272 L 249.455 187.11 L 249.637 186.883 L 249.754 186.597 L 249.792 186.254 L 249.702 185.709 L 249.442 185.3 L 249.014 185.054 L 248.431 184.97 L 246.927 184.97 L 246.927 189.47 L 246.927 189.47 z M 248.262 185.521 L 248.658 185.56 L 248.937 185.683 L 249.112 185.91 L 249.17 186.267 L 249.105 186.643 L 248.93 186.87 L 248.632 186.986 L 248.223 187.019 L 247.53 187.019 L 247.53 185.521 L 248.262 185.521 L 248.262 185.521 z M 251.433 187.894 L 253.715 187.894 L 253.722 187.628 L 253.618 186.883 L 253.333 186.325 L 252.879 185.988 L 252.276 185.865 L 251.686 185.994 L 251.232 186.357 L 250.94 186.947 L 250.836 187.726 L 250.934 188.523 L 251.225 189.107 L 251.673 189.47 L 252.256 189.593 L 252.762 189.509 L 253.177 189.288 L 253.482 188.938 L 253.657 188.471 L 253.093 188.471 L 252.976 188.731 L 252.808 188.925 L 252.328 189.081 L 251.958 189.009 L 251.679 188.782 L 251.498 188.413 L 251.433 187.914 L 251.433 187.894 L 251.433 187.894 z M 251.433 187.414 L 251.504 186.967 L 251.679 186.636 L 251.945 186.435 L 252.295 186.364 L 252.639 186.435 L 252.905 186.636 L 253.067 186.967 L 253.125 187.414 L 251.433 187.414 L 251.433 187.414 z M 256.906 189.016 L 256.906 189.035 L 256.938 189.256 L 257.035 189.411 L 257.444 189.535 L 257.762 189.483 L 257.762 189.042 L 257.625 189.061 L 257.444 188.977 L 257.411 188.718 L 257.411 186.915 L 257.334 186.455 L 257.107 186.13 L 256.711 185.936 L 256.153 185.865 L 255.609 185.942 L 255.207 186.163 L 254.954 186.506 L 254.87 186.96 L 254.87 186.999 L 255.382 186.999 L 255.427 186.727 L 255.57 186.532 L 255.803 186.416 L 256.134 186.37 L 256.452 186.403 L 256.679 186.5 L 256.815 186.669 L 256.86 186.902 L 256.834 187.174 L 256.731 187.311 L 256.471 187.375 L 255.985 187.427 L 255.427 187.544 L 255.032 187.751 L 254.798 188.076 L 254.727 188.555 L 254.792 188.983 L 254.993 189.301 L 255.317 189.502 L 255.764 189.573 L 256.367 189.437 L 256.906 189.016 L 256.906 189.016 z M 256.841 188.251 L 256.763 188.588 L 256.555 188.847 L 256.244 189.016 L 255.862 189.074 L 255.615 189.042 L 255.44 188.938 L 255.33 188.756 L 255.298 188.504 L 255.323 188.277 L 255.427 188.115 L 255.842 187.933 L 256.367 187.855 L 256.841 187.7 L 256.841 188.251 L 256.841 188.251 z M 258.955 189.47 L 259.525 189.47 L 259.525 187.479 L 259.584 186.999 L 259.759 186.656 L 260.044 186.448 L 260.426 186.377 L 260.712 186.422 L 260.926 186.552 L 261.055 186.772 L 261.101 187.071 L 261.678 187.071 L 261.6 186.545 L 261.386 186.169 L 261.03 185.942 L 260.543 185.865 L 260.213 185.916 L 259.927 186.046 L 259.674 186.267 L 259.473 186.565 L 259.473 185.988 L 258.955 185.988 L 258.955 189.47 L 258.955 189.47 z M 266.34 187.758 L 266.431 188.568 L 266.716 189.146 L 267.196 189.476 L 267.89 189.593 L 268.577 189.476 L 269.057 189.146 L 269.342 188.575 L 269.439 187.758 L 269.439 184.97 L 268.836 184.97 L 268.836 187.79 L 268.778 188.341 L 268.603 188.737 L 268.305 188.97 L 267.89 189.048 L 267.462 188.97 L 267.163 188.737 L 266.988 188.348 L 266.937 187.79 L 266.937 184.97 L 266.34 184.97 L 266.34 187.758 L 266.34 187.758 z M 270.989 186.526 L 270.989 185.988 L 270.419 185.988 L 270.419 190.818 L 270.989 190.818 L 270.989 188.938 L 271.19 189.243 L 271.417 189.444 L 271.988 189.593 L 272.532 189.47 L 272.96 189.1 L 273.239 188.517 L 273.343 187.726 L 273.239 186.941 L 272.96 186.357 L 272.532 185.994 L 271.988 185.865 L 271.676 185.903 L 271.411 186.027 L 271.184 186.234 L 270.989 186.526 L 270.989 186.526 z M 271.89 189.081 L 271.508 188.996 L 271.229 188.737 L 271.054 188.316 L 270.996 187.726 L 271.054 187.142 L 271.229 186.72 L 271.508 186.468 L 271.89 186.377 L 272.241 186.468 L 272.519 186.727 L 272.694 187.148 L 272.759 187.726 L 272.694 188.309 L 272.519 188.737 L 272.241 188.996 L 271.89 189.081 L 271.89 189.081 z M 274.893 186.526 L 274.893 185.988 L 274.322 185.988 L 274.322 190.818 L 274.893 190.818 L 274.893 188.938 L 275.094 189.243 L 275.321 189.444 L 275.891 189.593 L 276.436 189.47 L 276.864 189.1 L 277.143 188.517 L 277.246 187.726 L 277.143 186.941 L 276.864 186.357 L 276.436 185.994 L 275.891 185.865 L 275.58 185.903 L 275.314 186.027 L 275.087 186.234 L 274.893 186.526 L 274.893 186.526 z M 275.794 189.081 L 275.411 188.996 L 275.132 188.737 L 274.957 188.316 L 274.899 187.726 L 274.957 187.142 L 275.132 186.72 L 275.411 186.468 L 275.794 186.377 L 276.144 186.468 L 276.423 186.727 L 276.598 187.148 L 276.663 187.726 L 276.598 188.309 L 276.423 188.737 L 276.144 188.996 L 275.794 189.081 L 275.794 189.081 z M 278.757 187.894 L 281.04 187.894 L 281.046 187.628 L 280.942 186.883 L 280.657 186.325 L 280.203 185.988 L 279.6 185.865 L 279.01 185.994 L 278.556 186.357 L 278.264 186.947 L 278.161 187.726 L 278.258 188.523 L 278.55 189.107 L 278.997 189.47 L 279.581 189.593 L 280.086 189.509 L 280.501 189.288 L 280.806 188.938 L 280.981 188.471 L 280.417 188.471 L 280.3 188.731 L 280.132 188.925 L 279.652 189.081 L 279.282 189.009 L 279.004 188.782 L 278.822 188.413 L 278.757 187.914 L 278.757 187.894 L 278.757 187.894 z M 278.757 187.414 L 278.828 186.967 L 279.004 186.636 L 279.269 186.435 L 279.62 186.364 L 279.963 186.435 L 280.229 186.636 L 280.391 186.967 L 280.449 187.414 L 278.757 187.414 L 278.757 187.414 z M 282.375 189.47 L 282.946 189.47 L 282.946 187.479 L 283.004 186.999 L 283.179 186.656 L 283.465 186.448 L 283.847 186.377 L 284.132 186.422 L 284.346 186.552 L 284.476 186.772 L 284.521 187.071 L 285.099 187.071 L 285.021 186.545 L 284.807 186.169 L 284.45 185.942 L 283.964 185.865 L 283.633 185.916 L 283.348 186.046 L 283.095 186.267 L 282.894 186.565 L 282.894 185.988 L 282.375 185.988 L 282.375 189.47 L 282.375 189.47 z" stroke="none" fill-rule="evenodd" fill="rgb(0, 0, 0)"/></g><g stroke="rgb(0, 0, 0)" stroke-width="0.13" stroke-linecap="butt" stroke-linejoin="miter" fill="none"><path d="M 101.977 90.6408 L 102.446 90.6408 L 102.446 89.1632 L 102.925 89.1632 L 103.278 89.1783 L 103.5 89.2489 L 103.621 89.4153 L 103.671 89.7129 L 103.696 90.1668 L 103.727 90.4643 L 103.787 90.6408 L 104.317 90.6408 L 104.317 90.545 L 104.201 90.4038 L 104.16 90.1416 L 104.125 89.5767 L 104.039 89.1581 L 103.923 89.027 L 103.742 88.9312 L 103.944 88.8051 L 104.085 88.6286 L 104.176 88.4067 L 104.206 88.1394 L 104.135 87.7158 L 103.934 87.398 L 103.601 87.2064 L 103.147 87.1408 L 101.977 87.1408 L 101.977 90.6408 L 101.977 90.6408 z M 103.016 87.5695 L 103.323 87.5998 L 103.54 87.6956 L 103.676 87.8721 L 103.722 88.1495 L 103.671 88.442 L 103.535 88.6185 L 103.303 88.7093 L 102.985 88.7345 L 102.446 88.7345 L 102.446 87.5695 L 103.016 87.5695 L 103.016 87.5695 z M 105.114 90.6408 L 107.363 90.6408 L 107.363 90.2172 L 105.578 90.2172 L 105.578 87.1408 L 105.114 87.1408 L 105.114 90.6408 L 105.114 90.6408 z M 107.968 89.3094 L 108.039 89.9398 L 108.261 90.3887 L 108.634 90.6459 L 109.173 90.7366 L 109.708 90.6459 L 110.081 90.3887 L 110.303 89.9449 L 110.379 89.3094 L 110.379 87.1408 L 109.91 87.1408 L 109.91 89.3346 L 109.864 89.7633 L 109.728 90.0709 L 109.496 90.2525 L 109.173 90.313 L 108.841 90.2525 L 108.609 90.0709 L 108.472 89.7684 L 108.432 89.3346 L 108.432 87.1408 L 107.968 87.1408 L 107.968 89.3094 L 107.968 89.3094 z M 111.599 89.4859 L 112.82 89.4859 L 112.82 89.0875 L 111.599 89.0875 L 111.599 89.4859 L 111.599 89.4859 z" stroke="none" fill-rule="evenodd" fill="rgb(0, 0, 0)"/></g><g stroke="rgb(0, 0, 0)" stroke-width="0.13" stroke-linecap="butt" stroke-linejoin="miter" fill="none"><path d="M 101.977 96.6877 L 102.446 96.6877 L 102.446 95.21 L 102.925 95.21 L 103.278 95.2251 L 103.5 95.2957 L 103.621 95.4622 L 103.671 95.7597 L 103.696 96.2136 L 103.727 96.5111 L 103.787 96.6877 L 104.317 96.6877 L 104.317 96.5918 L 104.201 96.4506 L 104.16 96.1884 L 104.125 95.6235 L 104.039 95.205 L 103.923 95.0738 L 103.742 94.978 L 103.944 94.8519 L 104.085 94.6754 L 104.176 94.4535 L 104.206 94.1862 L 104.135 93.7626 L 103.934 93.4449 L 103.601 93.2532 L 103.147 93.1877 L 101.977 93.1877 L 101.977 96.6877 L 101.977 96.6877 z M 103.016 93.6163 L 103.323 93.6466 L 103.54 93.7424 L 103.676 93.9189 L 103.722 94.1963 L 103.671 94.4888 L 103.535 94.6653 L 103.303 94.7561 L 102.985 94.7813 L 102.446 94.7813 L 102.446 93.6163 L 103.016 93.6163 L 103.016 93.6163 z M 104.932 95.3562 L 105.003 95.9867 L 105.225 96.4355 L 105.598 96.6927 L 106.137 96.7835 L 106.672 96.6927 L 107.045 96.4355 L 107.267 95.9917 L 107.343 95.3562 L 107.343 93.1877 L 106.874 93.1877 L 106.874 95.3815 L 106.828 95.8101 L 106.692 96.1178 L 106.46 96.2993 L 106.137 96.3598 L 105.805 96.2993 L 105.573 96.1178 L 105.436 95.8152 L 105.396 95.3815 L 105.396 93.1877 L 104.932 93.1877 L 104.932 95.3562 L 104.932 95.3562 z M 107.968 95.3562 L 108.039 95.9867 L 108.261 96.4355 L 108.634 96.6927 L 109.173 96.7835 L 109.708 96.6927 L 110.081 96.4355 L 110.303 95.9917 L 110.379 95.3562 L 110.379 93.1877 L 109.91 93.1877 L 109.91 95.3815 L 109.864 95.8101 L 109.728 96.1178 L 109.496 96.2993 L 109.173 96.3598 L 108.841 96.2993 L 108.609 96.1178 L 108.472 95.8152 L 108.432 95.3815 L 108.432 93.1877 L 107.968 93.1877 L 107.968 95.3562 L 107.968 95.3562 z" stroke="none" fill-rule="evenodd" fill="rgb(0, 0, 0)"/></g><g stroke="rgb(0, 0, 0)" stroke-width="0.13" stroke-linecap="butt" stroke-linejoin="miter" fill="none"><path d="M 111.068 119.641 L 111.537 119.641 L 111.537 118.032 L 113.009 118.032 L 113.009 117.613 L 111.537 117.613 L 111.537 116.564 L 113.347 116.564 L 113.347 116.141 L 111.068 116.141 L 111.068 119.641 L 111.068 119.641 z M 115.702 119.288 L 115.702 119.303 L 115.727 119.474 L 115.803 119.595 L 116.121 119.691 L 116.368 119.651 L 116.368 119.308 L 116.262 119.323 L 116.121 119.258 L 116.096 119.056 L 116.096 117.654 L 116.035 117.296 L 115.859 117.044 L 115.551 116.892 L 115.117 116.837 L 114.694 116.897 L 114.381 117.069 L 114.184 117.336 L 114.119 117.689 L 114.119 117.719 L 114.517 117.719 L 114.552 117.508 L 114.663 117.356 L 114.845 117.265 L 115.102 117.23 L 115.349 117.255 L 115.526 117.331 L 115.632 117.462 L 115.667 117.644 L 115.647 117.856 L 115.566 117.961 L 115.364 118.012 L 114.986 118.052 L 114.552 118.143 L 114.245 118.304 L 114.063 118.557 L 114.008 118.93 L 114.058 119.263 L 114.215 119.51 L 114.467 119.666 L 114.815 119.722 L 115.284 119.616 L 115.702 119.288 L 115.702 119.288 z M 115.652 118.693 L 115.591 118.955 L 115.43 119.157 L 115.188 119.288 L 114.89 119.333 L 114.699 119.308 L 114.562 119.227 L 114.477 119.086 L 114.452 118.889 L 114.472 118.713 L 114.552 118.587 L 114.875 118.446 L 115.284 118.385 L 115.652 118.264 L 115.652 118.693 L 115.652 118.693 z M 118.854 117.83 L 119.293 117.83 L 119.202 117.427 L 118.985 117.109 L 118.647 116.912 L 118.209 116.837 L 117.725 116.938 L 117.356 117.22 L 117.124 117.679 L 117.044 118.294 L 117.119 118.905 L 117.346 119.358 L 117.704 119.641 L 118.194 119.737 L 118.627 119.661 L 118.965 119.449 L 119.197 119.116 L 119.298 118.673 L 118.874 118.673 L 118.799 118.955 L 118.658 119.167 L 118.456 119.298 L 118.209 119.338 L 117.901 119.273 L 117.679 119.071 L 117.543 118.743 L 117.498 118.279 L 117.543 117.825 L 117.684 117.497 L 117.911 117.296 L 118.209 117.225 L 118.471 117.271 L 118.668 117.387 L 118.799 117.578 L 118.854 117.83 L 118.854 117.83 z M 120.554 118.415 L 122.329 118.415 L 122.334 118.209 L 122.253 117.629 L 122.031 117.195 L 121.678 116.933 L 121.209 116.837 L 120.751 116.938 L 120.397 117.22 L 120.171 117.679 L 120.09 118.284 L 120.165 118.905 L 120.392 119.358 L 120.74 119.641 L 121.194 119.737 L 121.588 119.671 L 121.91 119.5 L 122.147 119.227 L 122.284 118.864 L 121.845 118.864 L 121.754 119.066 L 121.623 119.217 L 121.25 119.338 L 120.962 119.283 L 120.745 119.106 L 120.604 118.819 L 120.554 118.43 L 120.554 118.415 L 120.554 118.415 z M 120.554 118.042 L 120.609 117.694 L 120.745 117.437 L 120.952 117.281 L 121.225 117.225 L 121.492 117.281 L 121.699 117.437 L 121.825 117.694 L 121.87 118.042 L 120.554 118.042 L 120.554 118.042 z M 128.325 116.933 L 127.882 116.933 L 127.882 118.496 L 127.831 118.859 L 127.685 119.121 L 127.458 119.283 L 127.16 119.333 L 126.923 119.293 L 126.772 119.172 L 126.686 118.965 L 126.666 118.673 L 126.666 116.933 L 126.222 116.933 L 126.222 118.713 L 126.238 119.071 L 126.333 119.368 L 126.626 119.641 L 127.095 119.737 L 127.347 119.701 L 127.564 119.611 L 127.751 119.454 L 127.902 119.227 L 127.902 119.641 L 128.325 119.641 L 128.325 116.933 L 128.325 116.933 z M 129.692 117.351 L 129.692 116.933 L 129.248 116.933 L 129.248 120.69 L 129.692 120.69 L 129.692 119.227 L 129.848 119.464 L 130.025 119.621 L 130.469 119.737 L 130.892 119.641 L 131.225 119.353 L 131.442 118.899 L 131.523 118.284 L 131.442 117.674 L 131.225 117.22 L 130.892 116.938 L 130.469 116.837 L 130.227 116.867 L 130.02 116.963 L 129.843 117.124 L 129.692 117.351 L 129.692 117.351 z M 130.393 119.338 L 130.096 119.273 L 129.879 119.071 L 129.743 118.743 L 129.697 118.284 L 129.743 117.83 L 129.879 117.503 L 130.096 117.306 L 130.393 117.235 L 130.665 117.306 L 130.882 117.508 L 131.019 117.835 L 131.069 118.284 L 131.019 118.738 L 130.882 119.071 L 130.665 119.273 L 130.393 119.338 L 130.393 119.338 z" stroke="none" fill-rule="evenodd" fill="rgb(0, 0, 0)"/></g><g stroke="rgb(0, 0, 0)" stroke-width="0.13" stroke-linecap="butt" stroke-linejoin="miter" fill="none"><path d="M 155.987 88.2358 L 156.456 88.2358 L 156.456 86.7582 L 156.935 86.7582 L 157.288 86.7733 L 157.51 86.8439 L 157.631 87.0103 L 157.681 87.3079 L 157.706 87.7618 L 157.737 88.0593 L 157.797 88.2358 L 158.327 88.2358 L 158.327 88.14 L 158.211 87.9988 L 158.17 87.7365 L 158.135 87.1717 L 158.049 86.7531 L 157.933 86.622 L 157.752 86.5262 L 157.954 86.4001 L 158.095 86.2236 L 158.186 86.0017 L 158.216 85.7344 L 158.145 85.3108 L 157.943 84.993 L 157.611 84.8014 L 157.157 84.7358 L 155.987 84.7358 L 155.987 88.2358 L 155.987 88.2358 z M 157.026 85.1645 L 157.333 85.1948 L 157.55 85.2906 L 157.686 85.4671 L 157.732 85.7445 L 157.681 86.037 L 157.545 86.2135 L 157.313 86.3043 L 156.995 86.3295 L 156.456 86.3295 L 156.456 85.1645 L 157.026 85.1645 L 157.026 85.1645 z M 159.124 88.2358 L 161.373 88.2358 L 161.373 87.8122 L 159.588 87.8122 L 159.588 84.7358 L 159.124 84.7358 L 159.124 88.2358 L 159.124 88.2358 z M 161.978 86.9044 L 162.049 87.5348 L 162.271 87.9837 L 162.644 88.2409 L 163.183 88.3316 L 163.718 88.2409 L 164.091 87.9837 L 164.313 87.5399 L 164.389 86.9044 L 164.389 84.7358 L 163.92 84.7358 L 163.92 86.9296 L 163.874 87.3583 L 163.738 87.6659 L 163.506 87.8475 L 163.183 87.908 L 162.851 87.8475 L 162.619 87.6659 L 162.482 87.3634 L 162.442 86.9296 L 162.442 84.7358 L 161.978 84.7358 L 161.978 86.9044 L 161.978 86.9044 z M 165.609 87.0809 L 166.83 87.0809 L 166.83 86.6825 L 165.609 86.6825 L 165.609 87.0809 L 165.609 87.0809 z" stroke="none" fill-rule="evenodd" fill="rgb(0, 0, 0)"/></g><g stroke="rgb(0, 0, 0)" stroke-width="0.13" stroke-linecap="butt" stroke-linejoin="miter" fill="none"><path d="M 155.987 94.2827 L 156.456 94.2827 L 156.456 92.805 L 156.935 92.805 L 157.288 92.8201 L 157.51 92.8907 L 157.631 93.0572 L 157.681 93.3547 L 157.706 93.8086 L 157.737 94.1061 L 157.797 94.2827 L 158.327 94.2827 L 158.327 94.1868 L 158.211 94.0456 L 158.17 93.7834 L 158.135 93.2185 L 158.049 92.7999 L 157.933 92.6688 L 157.752 92.573 L 157.954 92.4469 L 158.095 92.2704 L 158.186 92.0485 L 158.216 91.7812 L 158.145 91.3576 L 157.943 91.0399 L 157.611 90.8482 L 157.157 90.7827 L 155.987 90.7827 L 155.987 94.2827 L 155.987 94.2827 z M 157.026 91.2113 L 157.333 91.2416 L 157.55 91.3374 L 157.686 91.5139 L 157.732 91.7913 L 157.681 92.0838 L 157.545 92.2603 L 157.313 92.3511 L 156.995 92.3763 L 156.456 92.3763 L 156.456 91.2113 L 157.026 91.2113 L 157.026 91.2113 z M 158.942 92.9512 L 159.013 93.5816 L 159.235 94.0305 L 159.608 94.2877 L 160.147 94.3785 L 160.682 94.2877 L 161.055 94.0305 L 161.277 93.5867 L 161.353 92.9512 L 161.353 90.7827 L 160.884 90.7827 L 160.884 92.9765 L 160.838 93.4051 L 160.702 93.7128 L 160.47 93.8943 L 160.147 93.9548 L 159.814 93.8943 L 159.582 93.7128 L 159.446 93.4102 L 159.406 92.9765 L 159.406 90.7827 L 158.942 90.7827 L 158.942 92.9512 L 158.942 92.9512 z M 163.178 90.7827 L 162.013 90.7827 L 162.013 94.2827 L 163.178 94.2827 L 163.728 94.1717 L 164.137 93.8338 L 164.389 93.2841 L 164.479 92.5327 L 164.399 91.7661 L 164.298 91.4635 L 164.157 91.2214 L 163.748 90.8936 L 163.481 90.8129 L 163.178 90.7827 L 163.178 90.7827 z M 163.143 91.2012 L 163.526 91.2769 L 163.789 91.5089 L 163.945 91.9224 L 163.995 92.5327 L 163.94 93.1227 L 163.783 93.5363 L 163.516 93.7834 L 163.143 93.8641 L 162.482 93.8641 L 162.482 91.2012 L 163.143 91.2012 L 163.143 91.2012 z" stroke="none" fill-rule="evenodd" fill="rgb(0, 0, 0)"/></g><g stroke="rgb(0, 0, 0)" stroke-width="0.13" stroke-linecap="butt" stroke-linejoin="miter" fill="none"><path d="M 182.077 115.236 L 182.546 115.236 L 182.546 113.627 L 184.019 113.627 L 184.019 113.208 L 182.546 113.208 L 182.546 112.159 L 184.357 112.159 L 184.357 111.736 L 182.077 111.736 L 182.077 115.236 L 182.077 115.236 z M 186.712 114.883 L 186.712 114.898 L 186.737 115.069 L 186.813 115.19 L 187.131 115.286 L 187.378 115.246 L 187.378 114.903 L 187.272 114.918 L 187.131 114.853 L 187.106 114.651 L 187.106 113.249 L 187.045 112.891 L 186.869 112.639 L 186.561 112.487 L 186.127 112.432 L 185.704 112.492 L 185.391 112.664 L 185.194 112.931 L 185.129 113.284 L 185.129 113.314 L 185.527 113.314 L 185.562 113.103 L 185.673 112.951 L 185.855 112.86 L 186.112 112.825 L 186.359 112.85 L 186.536 112.926 L 186.642 113.057 L 186.677 113.239 L 186.657 113.451 L 186.576 113.556 L 186.374 113.607 L 185.996 113.647 L 185.562 113.738 L 185.255 113.899 L 185.073 114.152 L 185.018 114.525 L 185.068 114.858 L 185.224 115.105 L 185.477 115.261 L 185.825 115.317 L 186.294 115.211 L 186.712 114.883 L 186.712 114.883 z M 186.662 114.288 L 186.601 114.55 L 186.44 114.752 L 186.198 114.883 L 185.9 114.928 L 185.709 114.903 L 185.572 114.822 L 185.487 114.681 L 185.461 114.484 L 185.482 114.308 L 185.562 114.182 L 185.885 114.041 L 186.294 113.98 L 186.662 113.859 L 186.662 114.288 L 186.662 114.288 z M 189.864 113.425 L 190.303 113.425 L 190.212 113.022 L 189.995 112.704 L 189.657 112.507 L 189.219 112.432 L 188.735 112.533 L 188.366 112.815 L 188.134 113.274 L 188.054 113.889 L 188.129 114.5 L 188.356 114.953 L 188.714 115.236 L 189.204 115.332 L 189.637 115.256 L 189.975 115.044 L 190.207 114.711 L 190.308 114.268 L 189.884 114.268 L 189.809 114.55 L 189.668 114.762 L 189.466 114.893 L 189.219 114.933 L 188.911 114.868 L 188.689 114.666 L 188.553 114.338 L 188.508 113.874 L 188.553 113.42 L 188.694 113.092 L 188.921 112.891 L 189.219 112.82 L 189.481 112.866 L 189.678 112.982 L 189.809 113.173 L 189.864 113.425 L 189.864 113.425 z M 191.564 114.01 L 193.339 114.01 L 193.344 113.804 L 193.263 113.224 L 193.041 112.79 L 192.688 112.528 L 192.219 112.432 L 191.76 112.533 L 191.407 112.815 L 191.18 113.274 L 191.1 113.879 L 191.175 114.5 L 191.402 114.953 L 191.75 115.236 L 192.204 115.332 L 192.598 115.266 L 192.92 115.095 L 193.157 114.822 L 193.294 114.459 L 192.855 114.459 L 192.764 114.661 L 192.633 114.812 L 192.26 114.933 L 191.972 114.878 L 191.755 114.701 L 191.614 114.414 L 191.564 114.025 L 191.564 114.01 L 191.564 114.01 z M 191.564 113.637 L 191.619 113.289 L 191.755 113.032 L 191.962 112.876 L 192.235 112.82 L 192.502 112.876 L 192.709 113.032 L 192.835 113.289 L 192.88 113.637 L 191.564 113.637 L 191.564 113.637 z M 198.286 111.736 L 197.121 111.736 L 197.121 115.236 L 198.286 115.236 L 198.836 115.125 L 199.245 114.787 L 199.497 114.237 L 199.588 113.486 L 199.507 112.719 L 199.406 112.417 L 199.265 112.175 L 198.856 111.847 L 198.589 111.766 L 198.286 111.736 L 198.286 111.736 z M 198.251 112.154 L 198.634 112.23 L 198.897 112.462 L 199.053 112.876 L 199.103 113.486 L 199.048 114.076 L 198.892 114.489 L 198.624 114.737 L 198.251 114.817 L 197.59 114.817 L 197.59 112.154 L 198.251 112.154 L 198.251 112.154 z M 200.152 113.884 L 200.233 114.5 L 200.465 114.953 L 200.833 115.236 L 201.327 115.332 L 201.817 115.236 L 202.185 114.958 L 202.417 114.505 L 202.503 113.884 L 202.417 113.269 L 202.185 112.81 L 201.817 112.533 L 201.327 112.432 L 200.833 112.533 L 200.465 112.815 L 200.233 113.269 L 200.152 113.884 L 200.152 113.884 z M 200.606 113.879 L 200.652 113.425 L 200.793 113.098 L 201.02 112.896 L 201.327 112.825 L 201.63 112.896 L 201.857 113.092 L 201.998 113.425 L 202.049 113.879 L 201.998 114.338 L 201.857 114.671 L 201.63 114.873 L 201.327 114.938 L 201.02 114.873 L 200.793 114.671 L 200.652 114.338 L 200.606 113.879 L 200.606 113.879 z M 203.96 115.236 L 204.363 112.936 L 204.767 115.236 L 205.191 115.236 L 205.856 112.528 L 205.428 112.528 L 204.979 114.827 L 204.58 112.528 L 204.142 112.528 L 203.743 114.827 L 203.294 112.528 L 202.871 112.528 L 203.536 115.236 L 203.96 115.236 L 203.96 115.236 z M 206.356 115.236 L 206.799 115.236 L 206.799 113.672 L 206.845 113.314 L 206.991 113.052 L 207.218 112.891 L 207.521 112.83 L 207.763 112.881 L 207.914 113.017 L 207.99 113.244 L 208.015 113.546 L 208.015 115.236 L 208.459 115.236 L 208.459 113.456 L 208.438 113.098 L 208.348 112.8 L 208.05 112.528 L 207.586 112.432 L 207.329 112.467 L 207.112 112.563 L 206.925 112.724 L 206.779 112.941 L 206.779 112.528 L 206.356 112.528 L 206.356 115.236 L 206.356 115.236 z" stroke="none" fill-rule="evenodd" fill="rgb(0, 0, 0)"/></g></svg>