<?xml version="1.0" encoding="utf-8" ?><!DOCTYPE svg PUBLIC "-//W3C//DTD SVG 1.1//EN" "http://www.w3.org/Graphics/SVG/1.1/DTD/svg11.dtd" 
[ <!ATTLIST svg 
  xmlns:dsy CDATA #FIXED "http://www.3ds.com/print"  
    dsy:text-version CDATA #IMPLIED > 

  <!ATTLIST text 
  xmlns:dsy CDATA #FIXED "http://www.3ds.com/print" 
    dsy:text-version CDATA #IMPLIED > 
]><svg xmlns="http://www.w3.org/2000/svg" xmlns:dsy="http://www.3ds.com/print" dsy:text-version="18000" width="297" height="210" viewBox="0 0 297 210" version="1.1"><g stroke="rgb(0, 0, 0)" stroke-width="0.35" stroke-linecap="butt" stroke-linejoin="miter" fill="none"><path d="M 133.905 52.4734 A 7.00001 7.00001 0 0 0 120.125 50.1151"/><circle cx="126.953" cy="51.6553" r="3.2"/><path d="M 133.905 52.4734 L 126.908 111.929"/><path d="M 120.125 50.1151 L 108.965 99.5882"/><path d="M 126.908 111.929 A 22.5234 9.99999 -295.384 0 0 108.965 99.5882"/><path d="M 126.908 111.929 L 126.813 112.743"/><path d="M 188.671 48.4153 A 7 7 0 0 0 174.891 50.7737"/><circle cx="181.843" cy="49.9556" r="3.2"/><path d="M 181.983 111.043 L 183.007 110.868"/><path d="M 174.891 50.7737 L 181.983 111.043"/><path d="M 188.671 48.4153 L 202.025 107.613"/><path d="M 198.358 108.24 L 202.025 107.613"/><path d="M 198.358 108.24 A 22.5234 10 -244.616 0 0 183.007 110.868"/><path d="M 9.99999 200 L 287 200"/><path d="M 287 200 L 287 10"/><path d="M 287 10 L 9.99999 10"/><path d="M 9.99999 10 L 9.99999 200"/><path d="M 148.5 10 L 148.5 0"/><path d="M 9.99999 105 L -5.94366e-006 105"/><path d="M 287 105 L 297 105"/><path d="M 222.7 200 L 222.7 207.5"/><path d="M 74.3 200 L 74.3 207.5"/><path d="M 222.7 10 L 222.7 2.5"/><path d="M 74.3 10 L 74.3 2.5"/><path d="M 9.99999 52.5 L 2.49999 52.5"/><path d="M 287 52.5 L 294.5 52.5"/><path d="M 9.99999 157.5 L 2.49999 157.5"/><path d="M 287 157.5 L 294.5 157.5"/><path d="M 98.5 202.5 L 198.5 202.5"/><path d="M 198.5 200 L 198.5 205"/><path d="M 188.5 200 L 188.5 202.5"/><path d="M 178.5 200 L 178.5 202.5"/><path d="M 168.5 200 L 168.5 202.5"/><path d="M 287 140 L 287 200"/></g><g stroke="rgb(0, 0, 0)" stroke-width="0.13" stroke-linecap="butt" stroke-linejoin="miter" stroke-dasharray="7, 1, 1, 1" fill="none"><path d="M 131.113 51.6553 L 122.793 51.6553"/><path d="M 126.953 47.4953 L 126.953 55.8154"/><path d="M 186.003 49.9556 L 177.683 49.9556"/><path d="M 181.843 45.7956 L 181.843 54.1156"/></g><g stroke="rgb(0, 0, 0)" stroke-width="0.13" stroke-linecap="butt" stroke-linejoin="miter" fill="none"><path d="M 258.267 206.833 L 258.731 206.833 L 259.099 205.804 L 260.496 205.804 L 260.864 206.833 L 261.338 206.833 L 260.057 203.328 L 259.543 203.328 L 258.267 206.833 L 258.267 206.833 z M 259.26 205.376 L 259.8 203.832 L 260.34 205.376 L 259.26 205.376 L 259.26 205.376 z" stroke="none" fill-rule="evenodd" fill="rgb(0, 0, 0)"/></g><g stroke="rgb(0, 0, 0)" stroke-width="0.13" stroke-linecap="butt" stroke-linejoin="miter" fill="none"><path d="M 37.1949 203.333 L 36.03 203.333 L 36.03 206.833 L 37.1949 206.833 L 37.7447 206.722 L 38.1532 206.384 L 38.4053 205.835 L 38.4961 205.083 L 38.4154 204.317 L 38.3145 204.014 L 38.1733 203.772 L 37.7648 203.444 L 37.4975 203.363 L 37.1949 203.333 L 37.1949 203.333 z M 37.1596 203.752 L 37.5429 203.827 L 37.8052 204.059 L 37.9615 204.473 L 38.012 205.083 L 37.9565 205.673 L 37.8001 206.087 L 37.5328 206.334 L 37.1596 206.415 L 36.499 206.415 L 36.499 203.752 L 37.1596 203.752 L 37.1596 203.752 z" stroke="none" fill-rule="evenodd" fill="rgb(0, 0, 0)"/></g><g stroke="rgb(0, 0, 0)" stroke-width="0.13" stroke-linecap="butt" stroke-linejoin="miter" fill="none"><path d="M 185.542 4.36958 L 185.249 4.01657 L 185.053 3.92578 L 184.811 3.89552 L 184.432 3.96109 L 184.16 4.15778 L 183.994 4.47549 L 183.933 4.9193 L 183.933 6.16498 L 187.433 6.16498 L 187.433 4.84869 L 187.363 4.37968 L 187.156 4.03169 L 186.828 3.81483 L 186.384 3.73918 L 186.087 3.78458 L 185.84 3.90561 L 185.658 4.10229 L 185.542 4.36958 L 185.542 4.36958 z M 185.386 5.01512 L 185.386 5.701 L 184.352 5.701 L 184.352 4.97478 L 184.382 4.70244 L 184.473 4.5108 L 184.629 4.39481 L 184.861 4.35446 L 185.093 4.39986 L 185.255 4.52089 L 185.355 4.72766 L 185.386 5.01512 L 185.386 5.01512 z M 187.015 4.90417 L 187.015 5.701 L 185.809 5.701 L 185.809 4.94955 L 185.845 4.63184 L 185.951 4.40489 L 186.132 4.26872 L 186.394 4.22334 L 186.672 4.26872 L 186.863 4.39481 L 186.979 4.60663 L 187.015 4.90417 L 187.015 4.90417 z" stroke="none" fill-rule="evenodd" fill="rgb(0, 0, 0)"/></g><g stroke="rgb(0, 0, 0)" stroke-width="0.13" stroke-linecap="butt" stroke-linejoin="miter" fill="none"><path d="M 111.932 4.183 L 112.356 4.28386 L 112.658 4.45029 L 112.845 4.68227 L 112.905 4.95461 L 112.815 5.28241 L 112.542 5.53961 L 112.098 5.71109 L 111.483 5.76657 L 110.873 5.71109 L 110.424 5.54466 L 110.152 5.28746 L 110.056 4.95461 L 110.106 4.71252 L 110.248 4.50575 L 110.475 4.34438 L 110.787 4.23343 L 110.787 3.75432 L 110.308 3.90561 L 109.945 4.16786 L 109.718 4.52592 L 109.637 4.95461 L 109.763 5.48918 L 110.116 5.89769 L 110.696 6.15994 L 111.483 6.25072 L 112.27 6.15994 L 112.85 5.89769 L 113.208 5.48918 L 113.329 4.95461 L 113.233 4.48558 L 112.966 4.10735 L 112.527 3.84006 L 111.932 3.69884 L 111.932 4.183 L 111.932 4.183 z" stroke="none" fill-rule="evenodd" fill="rgb(0, 0, 0)"/></g><g stroke="rgb(0, 0, 0)" stroke-width="0.13" stroke-linecap="butt" stroke-linejoin="miter" fill="none"><path d="M 261.633 6.53314 L 261.633 6.06915 L 260.604 5.701 L 260.604 4.30403 L 261.633 3.93587 L 261.633 3.46181 L 258.128 4.74278 L 258.128 5.2572 L 261.633 6.53314 L 261.633 6.53314 z M 260.176 5.53961 L 258.632 5 L 260.176 4.46037 L 260.176 5.53961 L 260.176 5.53961 z" stroke="none" fill-rule="evenodd" fill="rgb(0, 0, 0)"/></g><g stroke="rgb(0, 0, 0)" stroke-width="0.13" stroke-linecap="butt" stroke-linejoin="miter" fill="none"><path d="M 35.5332 5.00504 L 35.5332 6.17003 L 39.0332 6.17003 L 39.0332 5.00504 L 38.9223 4.45532 L 38.5844 4.04683 L 38.0346 3.79466 L 37.2832 3.70389 L 36.5166 3.78458 L 36.214 3.88544 L 35.972 4.02666 L 35.6442 4.43515 L 35.5635 4.70244 L 35.5332 5.00504 L 35.5332 5.00504 z M 35.9518 5.04034 L 36.0274 4.65706 L 36.2594 4.39481 L 36.673 4.23846 L 37.2832 4.18803 L 37.8733 4.24352 L 38.2868 4.39986 L 38.5339 4.66714 L 38.6146 5.04034 L 38.6146 5.701 L 35.9518 5.701 L 35.9518 5.04034 L 35.9518 5.04034 z" stroke="none" fill-rule="evenodd" fill="rgb(0, 0, 0)"/></g><g stroke="rgb(0, 0, 0)" stroke-width="0.13" stroke-linecap="butt" stroke-linejoin="miter" fill="none"><path d="M 290.729 79.4838 L 290.729 79.5191 L 290.81 80.0032 L 291.047 80.3663 L 291.42 80.5983 L 291.914 80.6841 L 292.439 80.5983 L 292.832 80.3764 L 293.084 80.0234 L 293.175 79.5695 L 293.135 79.272 L 293.024 79.0299 L 292.842 78.8433 L 292.6 78.7071 L 292.928 78.4348 L 293.044 78.0011 L 292.968 77.6077 L 292.751 77.3102 L 292.398 77.1236 L 291.914 77.058 L 291.46 77.1387 L 291.112 77.3606 L 290.885 77.7136 L 290.81 78.1826 L 290.81 78.2179 L 291.259 78.2179 L 291.299 77.8952 L 291.43 77.6632 L 291.642 77.522 L 291.939 77.4715 L 292.202 77.5119 L 292.393 77.6178 L 292.509 77.7892 L 292.555 78.0212 L 292.509 78.2684 L 292.388 78.4348 L 292.177 78.5356 L 291.889 78.5659 L 291.692 78.5609 L 291.692 78.9593 L 291.939 78.9492 L 292.257 78.9946 L 292.494 79.1156 L 292.635 79.3123 L 292.686 79.5695 L 292.63 79.862 L 292.484 80.0789 L 292.252 80.215 L 291.945 80.2604 L 291.627 80.21 L 291.395 80.0587 L 291.249 79.8166 L 291.193 79.4838 L 290.729 79.4838 L 290.729 79.4838 z" stroke="none" fill-rule="evenodd" fill="rgb(0, 0, 0)"/></g><g stroke="rgb(0, 0, 0)" stroke-width="0.13" stroke-linecap="butt" stroke-linejoin="miter" fill="none"><path d="M 5.73378 80.0209 L 5.76909 80.0209 L 6.25324 79.9402 L 6.61635 79.7032 L 6.84834 79.33 L 6.93407 78.8357 L 6.84834 78.3112 L 6.62644 77.9179 L 6.27341 77.6657 L 5.81952 77.5749 L 5.52197 77.6153 L 5.27989 77.7262 L 5.09329 77.9078 L 4.95713 78.1499 L 4.68479 77.822 L 4.25108 77.706 L 3.8577 77.7817 L 3.56015 77.9986 L 3.37355 78.3516 L 3.30799 78.8357 L 3.38868 79.2896 L 3.61059 79.6376 L 3.96361 79.8645 L 4.43263 79.9402 L 4.46793 79.9402 L 4.46793 79.4913 L 4.14517 79.451 L 3.91318 79.3199 L 3.77197 79.1081 L 3.72154 78.8105 L 3.76188 78.5483 L 3.86779 78.3566 L 4.03926 78.2406 L 4.27125 78.1952 L 4.51837 78.2406 L 4.68479 78.3617 L 4.78566 78.5735 L 4.81592 78.8609 L 4.81087 79.0576 L 5.20929 79.0576 L 5.1992 78.8105 L 5.24459 78.4928 L 5.36563 78.2558 L 5.56231 78.1145 L 5.81952 78.0641 L 6.11203 78.1196 L 6.32889 78.2658 L 6.46505 78.4978 L 6.51044 78.8055 L 6.46001 79.1232 L 6.30871 79.3552 L 6.06664 79.5014 L 5.73378 79.5569 L 5.73378 80.0209 L 5.73378 80.0209 z" stroke="none" fill-rule="evenodd" fill="rgb(0, 0, 0)"/></g><g stroke="rgb(0, 0, 0)" stroke-width="0.13" stroke-linecap="butt" stroke-linejoin="miter" fill="none"><path d="M 290.769 133.083 L 293.175 133.083 L 293.175 132.65 L 291.274 132.65 L 291.38 132.412 L 291.561 132.216 L 292.121 131.858 L 292.419 131.706 L 292.751 131.49 L 292.988 131.237 L 293.125 130.94 L 293.175 130.602 L 293.089 130.178 L 292.852 129.845 L 292.489 129.634 L 292.02 129.558 L 291.536 129.644 L 291.168 129.881 L 290.931 130.259 L 290.85 130.758 L 290.85 130.829 L 291.309 130.829 L 291.309 130.789 L 291.354 130.446 L 291.491 130.193 L 291.707 130.032 L 291.995 129.977 L 292.287 130.027 L 292.504 130.153 L 292.646 130.35 L 292.696 130.597 L 292.661 130.829 L 292.565 131.026 L 292.403 131.197 L 292.182 131.348 L 291.884 131.51 L 291.39 131.822 L 291.042 132.155 L 290.835 132.559 L 290.769 133.068 L 290.769 133.083 L 290.769 133.083 z" stroke="none" fill-rule="evenodd" fill="rgb(0, 0, 0)"/></g><g stroke="rgb(0, 0, 0)" stroke-width="0.13" stroke-linecap="butt" stroke-linejoin="miter" fill="none"><path d="M 6.83321 132.481 L 6.83321 130.075 L 6.39949 130.075 L 6.39949 131.976 L 6.16246 131.87 L 5.96577 131.689 L 5.6077 131.129 L 5.45641 130.831 L 5.23955 130.499 L 4.98738 130.262 L 4.68983 130.125 L 4.35194 130.075 L 3.92831 130.161 L 3.59545 130.398 L 3.38364 130.761 L 3.30799 131.23 L 3.39372 131.714 L 3.63075 132.082 L 4.009 132.319 L 4.50828 132.4 L 4.57888 132.4 L 4.57888 131.941 L 4.53854 131.941 L 4.1956 131.896 L 3.94343 131.759 L 3.78205 131.543 L 3.72658 131.255 L 3.77701 130.963 L 3.90309 130.746 L 4.09978 130.604 L 4.34689 130.554 L 4.57888 130.589 L 4.77557 130.685 L 4.94704 130.847 L 5.09834 131.068 L 5.25972 131.366 L 5.5724 131.86 L 5.90525 132.208 L 6.30871 132.415 L 6.81808 132.481 L 6.83321 132.481 L 6.83321 132.481 z" stroke="none" fill-rule="evenodd" fill="rgb(0, 0, 0)"/></g><g stroke="rgb(0, 0, 0)" stroke-width="0.13" stroke-linecap="butt" stroke-linejoin="miter" fill="none"><path d="M 292.277 28.0832 L 292.731 28.0832 L 292.731 27.2158 L 293.231 27.2158 L 293.231 26.8123 L 292.731 26.8123 L 292.731 24.6588 L 292.272 24.6588 L 290.739 26.772 L 290.739 27.2158 L 292.277 27.2158 L 292.277 28.0832 L 292.277 28.0832 z M 291.163 26.8123 L 292.277 25.2439 L 292.277 26.8123 L 291.163 26.8123 L 291.163 26.8123 z" stroke="none" fill-rule="evenodd" fill="rgb(0, 0, 0)"/></g><g stroke="rgb(0, 0, 0)" stroke-width="0.13" stroke-linecap="butt" stroke-linejoin="miter" fill="none"><path d="M 6.83321 25.9726 L 6.83321 25.5187 L 5.96577 25.5187 L 5.96577 25.0194 L 5.56231 25.0194 L 5.56231 25.5187 L 3.40886 25.5187 L 3.40886 25.9777 L 5.52197 27.5108 L 5.96577 27.5108 L 5.96577 25.9726 L 6.83321 25.9726 L 6.83321 25.9726 z M 5.56231 27.0872 L 3.99387 25.9726 L 5.56231 25.9726 L 5.56231 27.0872 L 5.56231 27.0872 z" stroke="none" fill-rule="evenodd" fill="rgb(0, 0, 0)"/></g><g stroke="rgb(0, 0, 0)" stroke-width="0.13" stroke-linecap="butt" stroke-linejoin="miter" fill="none"><path d="M 291.909 185.583 L 292.368 185.583 L 292.368 182.058 L 292.025 182.058 L 291.934 182.366 L 291.753 182.572 L 291.476 182.693 L 291.092 182.734 L 291.092 183.092 L 291.909 183.092 L 291.909 185.583 L 291.909 185.583 z" stroke="none" fill-rule="evenodd" fill="rgb(0, 0, 0)"/></g><g stroke="rgb(0, 0, 0)" stroke-width="0.13" stroke-linecap="butt" stroke-linejoin="miter" fill="none"><path d="M 6.83321 183.841 L 6.83321 183.382 L 3.30799 183.382 L 3.30799 183.725 L 3.61562 183.816 L 3.8224 183.997 L 3.94343 184.275 L 3.98378 184.658 L 4.34185 184.658 L 4.34185 183.841 L 6.83321 183.841 L 6.83321 183.841 z" stroke="none" fill-rule="evenodd" fill="rgb(0, 0, 0)"/></g><g stroke="rgb(0, 0, 0)" stroke-width="0.13" stroke-linecap="butt" stroke-linejoin="miter" fill="none"><path d="M 158.081 178.969 L 157.249 178.969 L 157.249 181.469 L 158.081 181.469 L 158.473 181.39 L 158.765 181.148 L 158.945 180.756 L 159.01 180.219 L 158.952 179.671 L 158.88 179.455 L 158.78 179.282 L 158.488 179.048 L 158.297 178.991 L 158.081 178.969 L 158.081 178.969 z M 158.055 179.268 L 158.329 179.322 L 158.517 179.488 L 158.628 179.783 L 158.664 180.219 L 158.625 180.64 L 158.513 180.936 L 158.322 181.112 L 158.055 181.17 L 157.584 181.17 L 157.584 179.268 L 158.055 179.268 L 158.055 179.268 z M 160.004 179.272 L 160.217 179.272 L 160.718 178.659 L 160.365 178.659 L 160.004 179.272 L 160.004 179.272 z M 159.785 180.594 L 161.053 180.594 L 161.056 180.446 L 160.999 180.032 L 160.84 179.722 L 160.588 179.535 L 160.253 179.466 L 159.925 179.538 L 159.673 179.74 L 159.511 180.068 L 159.453 180.5 L 159.507 180.943 L 159.669 181.267 L 159.918 181.469 L 160.242 181.537 L 160.523 181.491 L 160.754 181.368 L 160.923 181.174 L 161.02 180.914 L 160.707 180.914 L 160.642 181.058 L 160.548 181.166 L 160.282 181.253 L 160.076 181.213 L 159.921 181.087 L 159.821 180.882 L 159.785 180.604 L 159.785 180.594 L 159.785 180.594 z M 159.785 180.327 L 159.824 180.079 L 159.921 179.895 L 160.069 179.783 L 160.264 179.744 L 160.455 179.783 L 160.602 179.895 L 160.692 180.079 L 160.725 180.327 L 159.785 180.327 L 159.785 180.327 z M 162.623 180.341 L 162.317 180.269 L 162.09 180.187 L 162.014 180.017 L 162.036 179.898 L 162.112 179.812 L 162.234 179.758 L 162.411 179.736 L 162.58 179.758 L 162.713 179.823 L 162.8 179.92 L 162.836 180.05 L 163.146 180.05 L 163.146 180.043 L 163.092 179.808 L 162.944 179.625 L 162.713 179.509 L 162.411 179.466 L 162.104 179.509 L 161.881 179.628 L 161.741 179.805 L 161.697 180.028 L 161.73 180.244 L 161.831 180.396 L 161.996 180.504 L 162.238 180.579 L 162.591 180.666 L 162.807 180.756 L 162.865 180.828 L 162.886 180.936 L 162.854 181.069 L 162.767 181.17 L 162.627 181.235 L 162.439 181.256 L 162.241 181.235 L 162.097 181.159 L 162 181.037 L 161.96 180.867 L 161.654 180.867 L 161.705 181.156 L 161.852 181.365 L 162.086 181.491 L 162.411 181.537 L 162.749 181.491 L 162.998 181.365 L 163.149 181.163 L 163.203 180.9 L 163.164 180.673 L 163.052 180.518 L 162.868 180.417 L 162.623 180.341 L 162.623 180.341 z M 164.813 181.202 L 164.813 179.599 L 163.999 179.599 L 163.999 179.87 L 164.496 179.87 L 164.496 181.202 L 163.848 181.202 L 163.848 181.469 L 165.469 181.469 L 165.469 181.202 L 164.813 181.202 L 164.813 181.202 z M 164.824 178.883 L 164.489 178.883 L 164.489 179.243 L 164.824 179.243 L 164.824 178.883 L 164.824 178.883 z M 167.519 181.383 L 167.519 179.535 L 167.216 179.535 L 167.216 179.848 L 166.968 179.563 L 166.816 179.491 L 166.647 179.466 L 166.341 179.538 L 166.103 179.74 L 165.948 180.064 L 165.894 180.5 L 165.948 180.939 L 166.103 181.264 L 166.341 181.469 L 166.647 181.537 L 166.82 181.512 L 166.964 181.447 L 167.216 181.174 L 167.216 181.447 L 167.187 181.664 L 167.108 181.818 L 166.957 181.909 L 166.73 181.941 L 166.532 181.919 L 166.391 181.865 L 166.308 181.772 L 166.283 181.646 L 165.977 181.646 L 165.977 181.66 L 166.024 181.89 L 166.168 182.063 L 166.398 182.175 L 166.712 182.215 L 167.086 182.161 L 167.335 182.009 L 167.476 181.746 L 167.519 181.383 L 167.519 181.383 z M 166.222 180.5 L 166.254 180.179 L 166.352 179.942 L 166.503 179.801 L 166.705 179.751 L 166.917 179.801 L 167.076 179.942 L 167.173 180.179 L 167.209 180.5 L 167.173 180.828 L 167.076 181.062 L 166.917 181.206 L 166.705 181.253 L 166.503 181.206 L 166.352 181.062 L 166.254 180.824 L 166.222 180.5 L 166.222 180.5 z M 168.182 181.469 L 168.499 181.469 L 168.499 180.352 L 168.531 180.097 L 168.635 179.909 L 168.798 179.794 L 169.014 179.751 L 169.187 179.787 L 169.295 179.884 L 169.349 180.046 L 169.367 180.262 L 169.367 181.469 L 169.684 181.469 L 169.684 180.197 L 169.669 179.942 L 169.605 179.729 L 169.392 179.535 L 169.061 179.466 L 168.877 179.491 L 168.722 179.56 L 168.589 179.675 L 168.484 179.83 L 168.484 179.535 L 168.182 179.535 L 168.182 181.469 L 168.182 181.469 z M 171.499 181.217 L 171.499 181.228 L 171.517 181.35 L 171.571 181.437 L 171.798 181.505 L 171.975 181.476 L 171.975 181.231 L 171.899 181.242 L 171.798 181.195 L 171.78 181.051 L 171.78 180.05 L 171.737 179.794 L 171.611 179.614 L 171.391 179.506 L 171.081 179.466 L 170.779 179.509 L 170.556 179.632 L 170.415 179.823 L 170.368 180.075 L 170.368 180.097 L 170.653 180.097 L 170.678 179.945 L 170.757 179.837 L 170.887 179.772 L 171.071 179.747 L 171.247 179.765 L 171.373 179.819 L 171.449 179.913 L 171.474 180.043 L 171.46 180.194 L 171.402 180.269 L 171.258 180.305 L 170.988 180.334 L 170.678 180.399 L 170.458 180.514 L 170.329 180.695 L 170.289 180.961 L 170.325 181.199 L 170.437 181.375 L 170.617 181.487 L 170.865 181.527 L 171.2 181.451 L 171.499 181.217 L 171.499 181.217 z M 171.463 180.792 L 171.42 180.979 L 171.305 181.123 L 171.132 181.217 L 170.919 181.249 L 170.782 181.231 L 170.685 181.174 L 170.624 181.073 L 170.606 180.932 L 170.62 180.806 L 170.678 180.716 L 170.909 180.615 L 171.2 180.572 L 171.463 180.486 L 171.463 180.792 L 171.463 180.792 z M 172.944 179.87 L 172.944 180.839 L 172.965 181.152 L 173.066 181.368 L 173.268 181.494 L 173.61 181.537 L 173.985 181.519 L 173.985 181.246 L 173.711 181.267 L 173.463 181.238 L 173.329 181.148 L 173.272 180.997 L 173.261 180.785 L 173.261 179.87 L 173.985 179.87 L 173.985 179.599 L 173.261 179.599 L 173.261 179.034 L 172.944 179.034 L 172.944 179.599 L 172.396 179.599 L 172.396 179.87 L 172.944 179.87 L 172.944 179.87 z M 175.656 181.202 L 175.656 179.599 L 174.842 179.599 L 174.842 179.87 L 175.339 179.87 L 175.339 181.202 L 174.691 181.202 L 174.691 181.469 L 176.312 181.469 L 176.312 181.202 L 175.656 181.202 L 175.656 181.202 z M 175.667 178.883 L 175.332 178.883 L 175.332 179.243 L 175.667 179.243 L 175.667 178.883 L 175.667 178.883 z M 176.762 180.504 L 176.82 180.943 L 176.986 181.267 L 177.249 181.469 L 177.602 181.537 L 177.951 181.469 L 178.214 181.271 L 178.38 180.947 L 178.441 180.504 L 178.38 180.064 L 178.214 179.736 L 177.951 179.538 L 177.602 179.466 L 177.249 179.538 L 176.986 179.74 L 176.82 180.064 L 176.762 180.504 L 176.762 180.504 z M 177.087 180.5 L 177.119 180.176 L 177.22 179.942 L 177.382 179.798 L 177.602 179.747 L 177.818 179.798 L 177.98 179.938 L 178.081 180.176 L 178.117 180.5 L 178.081 180.828 L 177.98 181.066 L 177.818 181.21 L 177.602 181.256 L 177.382 181.21 L 177.22 181.066 L 177.119 180.828 L 177.087 180.5 L 177.087 180.5 z M 179.025 181.469 L 179.342 181.469 L 179.342 180.352 L 179.374 180.097 L 179.478 179.909 L 179.641 179.794 L 179.857 179.751 L 180.03 179.787 L 180.138 179.884 L 180.192 180.046 L 180.21 180.262 L 180.21 181.469 L 180.527 181.469 L 180.527 180.197 L 180.512 179.942 L 180.447 179.729 L 180.235 179.535 L 179.904 179.466 L 179.72 179.491 L 179.565 179.56 L 179.432 179.675 L 179.327 179.83 L 179.327 179.535 L 179.025 179.535 L 179.025 181.469 L 179.025 181.469 z" stroke="none" fill-rule="evenodd" fill="rgb(0, 0, 0)"/></g><g stroke="rgb(0, 0, 0)" stroke-width="0.13" stroke-linecap="butt" stroke-linejoin="miter" fill="none"><path d="M 157.05 192.47 L 157.653 192.47 L 157.653 190.57 L 158.269 190.57 L 158.723 190.589 L 159.009 190.68 L 159.164 190.894 L 159.229 191.277 L 159.262 191.86 L 159.3 192.243 L 159.378 192.47 L 160.059 192.47 L 160.059 192.347 L 159.91 192.165 L 159.858 191.828 L 159.813 191.102 L 159.702 190.563 L 159.553 190.395 L 159.32 190.272 L 159.579 190.11 L 159.761 189.883 L 159.878 189.597 L 159.916 189.254 L 159.826 188.709 L 159.566 188.3 L 159.138 188.054 L 158.555 187.97 L 157.05 187.97 L 157.05 192.47 L 157.05 192.47 z M 158.386 188.521 L 158.782 188.56 L 159.061 188.683 L 159.236 188.91 L 159.294 189.267 L 159.229 189.643 L 159.054 189.87 L 158.756 189.986 L 158.347 190.019 L 157.653 190.019 L 157.653 188.521 L 158.386 188.521 L 158.386 188.521 z M 161.557 190.894 L 163.839 190.894 L 163.846 190.628 L 163.742 189.883 L 163.457 189.325 L 163.003 188.988 L 162.4 188.865 L 161.81 188.994 L 161.356 189.357 L 161.064 189.947 L 160.96 190.726 L 161.058 191.523 L 161.349 192.107 L 161.797 192.47 L 162.38 192.593 L 162.886 192.509 L 163.301 192.288 L 163.606 191.938 L 163.781 191.471 L 163.217 191.471 L 163.1 191.731 L 162.932 191.925 L 162.452 192.081 L 162.082 192.009 L 161.803 191.782 L 161.622 191.413 L 161.557 190.914 L 161.557 190.894 L 161.557 190.894 z M 161.557 190.414 L 161.628 189.967 L 161.803 189.636 L 162.069 189.435 L 162.419 189.364 L 162.763 189.435 L 163.029 189.636 L 163.191 189.967 L 163.249 190.414 L 161.557 190.414 L 161.557 190.414 z M 167.03 192.016 L 167.03 192.035 L 167.062 192.256 L 167.159 192.411 L 167.568 192.535 L 167.885 192.483 L 167.885 192.042 L 167.749 192.061 L 167.568 191.977 L 167.535 191.718 L 167.535 189.915 L 167.458 189.455 L 167.231 189.13 L 166.835 188.936 L 166.277 188.865 L 165.733 188.942 L 165.331 189.163 L 165.078 189.506 L 164.994 189.96 L 164.994 189.999 L 165.506 189.999 L 165.551 189.727 L 165.694 189.532 L 165.927 189.416 L 166.258 189.37 L 166.576 189.403 L 166.803 189.5 L 166.939 189.669 L 166.984 189.902 L 166.958 190.174 L 166.854 190.311 L 166.595 190.375 L 166.109 190.427 L 165.551 190.544 L 165.156 190.751 L 164.922 191.076 L 164.851 191.555 L 164.916 191.983 L 165.117 192.301 L 165.441 192.502 L 165.888 192.573 L 166.491 192.437 L 167.03 192.016 L 167.03 192.016 z M 166.965 191.251 L 166.887 191.588 L 166.679 191.847 L 166.368 192.016 L 165.986 192.074 L 165.739 192.042 L 165.564 191.938 L 165.454 191.756 L 165.421 191.504 L 165.447 191.277 L 165.551 191.115 L 165.966 190.933 L 166.491 190.855 L 166.965 190.7 L 166.965 191.251 L 166.965 191.251 z M 169.079 192.47 L 169.649 192.47 L 169.649 190.479 L 169.708 189.999 L 169.883 189.656 L 170.168 189.448 L 170.55 189.377 L 170.836 189.422 L 171.05 189.552 L 171.179 189.772 L 171.225 190.071 L 171.802 190.071 L 171.724 189.545 L 171.51 189.169 L 171.153 188.942 L 170.667 188.865 L 170.336 188.916 L 170.051 189.046 L 169.798 189.267 L 169.597 189.565 L 169.597 188.988 L 169.079 188.988 L 169.079 192.47 L 169.079 192.47 z M 176.697 192.47 L 179.589 192.47 L 179.589 191.925 L 177.294 191.925 L 177.294 187.97 L 176.697 187.97 L 176.697 192.47 L 176.697 192.47 z M 181.074 190.894 L 183.357 190.894 L 183.363 190.628 L 183.259 189.883 L 182.974 189.325 L 182.52 188.988 L 181.917 188.865 L 181.327 188.994 L 180.873 189.357 L 180.581 189.947 L 180.478 190.726 L 180.575 191.523 L 180.867 192.107 L 181.314 192.47 L 181.898 192.593 L 182.403 192.509 L 182.818 192.288 L 183.123 191.938 L 183.298 191.471 L 182.734 191.471 L 182.617 191.731 L 182.449 191.925 L 181.969 192.081 L 181.599 192.009 L 181.321 191.782 L 181.139 191.413 L 181.074 190.914 L 181.074 190.894 L 181.074 190.894 z M 181.074 190.414 L 181.146 189.967 L 181.321 189.636 L 181.586 189.435 L 181.937 189.364 L 182.28 189.435 L 182.546 189.636 L 182.708 189.967 L 182.767 190.414 L 181.074 190.414 L 181.074 190.414 z M 185.269 189.591 L 185.269 192.47 L 185.84 192.47 L 185.84 189.591 L 187.137 189.591 L 187.137 189.104 L 185.84 189.104 L 185.84 188.89 L 185.885 188.631 L 186.035 188.456 L 186.287 188.352 L 186.651 188.313 L 187.137 188.339 L 187.137 187.847 L 186.521 187.814 L 185.963 187.872 L 185.574 188.048 L 185.341 188.352 L 185.269 188.787 L 185.269 189.104 L 184.226 189.104 L 184.226 189.591 L 185.269 189.591 L 185.269 189.591 z M 189.147 189.591 L 189.147 191.335 L 189.186 191.899 L 189.367 192.288 L 189.731 192.515 L 190.347 192.593 L 191.021 192.561 L 191.021 192.068 L 190.528 192.107 L 190.081 192.055 L 189.841 191.893 L 189.737 191.62 L 189.718 191.238 L 189.718 189.591 L 191.021 189.591 L 191.021 189.104 L 189.718 189.104 L 189.718 188.086 L 189.147 188.086 L 189.147 189.104 L 188.161 189.104 L 188.161 189.591 L 189.147 189.591 L 189.147 189.591 z M 195.981 190.758 L 196.072 191.568 L 196.357 192.146 L 196.837 192.476 L 197.531 192.593 L 198.218 192.476 L 198.698 192.146 L 198.983 191.575 L 199.081 190.758 L 199.081 187.97 L 198.478 187.97 L 198.478 190.79 L 198.419 191.341 L 198.244 191.737 L 197.946 191.97 L 197.531 192.048 L 197.103 191.97 L 196.805 191.737 L 196.63 191.348 L 196.578 190.79 L 196.578 187.97 L 195.981 187.97 L 195.981 190.758 L 195.981 190.758 z M 200.63 189.526 L 200.63 188.988 L 200.06 188.988 L 200.06 193.818 L 200.63 193.818 L 200.63 191.938 L 200.831 192.243 L 201.058 192.444 L 201.629 192.593 L 202.174 192.47 L 202.602 192.1 L 202.88 191.517 L 202.984 190.726 L 202.88 189.941 L 202.602 189.357 L 202.174 188.994 L 201.629 188.865 L 201.318 188.903 L 201.052 189.027 L 200.825 189.234 L 200.63 189.526 L 200.63 189.526 z M 201.532 192.081 L 201.149 191.996 L 200.87 191.737 L 200.695 191.316 L 200.637 190.726 L 200.695 190.142 L 200.87 189.72 L 201.149 189.468 L 201.532 189.377 L 201.882 189.468 L 202.161 189.727 L 202.336 190.148 L 202.401 190.726 L 202.336 191.309 L 202.161 191.737 L 201.882 191.996 L 201.532 192.081 L 201.532 192.081 z M 204.534 189.526 L 204.534 188.988 L 203.963 188.988 L 203.963 193.818 L 204.534 193.818 L 204.534 191.938 L 204.735 192.243 L 204.962 192.444 L 205.532 192.593 L 206.077 192.47 L 206.505 192.1 L 206.784 191.517 L 206.888 190.726 L 206.784 189.941 L 206.505 189.357 L 206.077 188.994 L 205.532 188.865 L 205.221 188.903 L 204.955 189.027 L 204.728 189.234 L 204.534 189.526 L 204.534 189.526 z M 205.435 192.081 L 205.053 191.996 L 204.774 191.737 L 204.599 191.316 L 204.54 190.726 L 204.599 190.142 L 204.774 189.72 L 205.053 189.468 L 205.435 189.377 L 205.785 189.468 L 206.064 189.727 L 206.239 190.148 L 206.304 190.726 L 206.239 191.309 L 206.064 191.737 L 205.785 191.996 L 205.435 192.081 L 205.435 192.081 z M 208.398 190.894 L 210.681 190.894 L 210.687 190.628 L 210.584 189.883 L 210.298 189.325 L 209.844 188.988 L 209.241 188.865 L 208.651 188.994 L 208.197 189.357 L 207.906 189.947 L 207.802 190.726 L 207.899 191.523 L 208.191 192.107 L 208.638 192.47 L 209.222 192.593 L 209.728 192.509 L 210.143 192.288 L 210.447 191.938 L 210.622 191.471 L 210.058 191.471 L 209.942 191.731 L 209.773 191.925 L 209.293 192.081 L 208.924 192.009 L 208.645 191.782 L 208.463 191.413 L 208.398 190.914 L 208.398 190.894 L 208.398 190.894 z M 208.398 190.414 L 208.47 189.967 L 208.645 189.636 L 208.911 189.435 L 209.261 189.364 L 209.604 189.435 L 209.87 189.636 L 210.032 189.967 L 210.091 190.414 L 208.398 190.414 L 208.398 190.414 z M 212.017 192.47 L 212.587 192.47 L 212.587 190.479 L 212.646 189.999 L 212.821 189.656 L 213.106 189.448 L 213.488 189.377 L 213.774 189.422 L 213.988 189.552 L 214.117 189.772 L 214.163 190.071 L 214.74 190.071 L 214.662 189.545 L 214.448 189.169 L 214.091 188.942 L 213.605 188.865 L 213.274 188.916 L 212.989 189.046 L 212.736 189.267 L 212.535 189.565 L 212.535 188.988 L 212.017 188.988 L 212.017 192.47 L 212.017 192.47 z M 218.981 192.47 L 219.577 192.47 L 220.05 191.147 L 221.847 191.147 L 222.32 192.47 L 222.929 192.47 L 221.282 187.963 L 220.621 187.963 L 218.981 192.47 L 218.981 192.47 z M 220.258 190.596 L 220.952 188.612 L 221.646 190.596 L 220.258 190.596 L 220.258 190.596 z M 224.071 190.985 L 225.64 190.985 L 225.64 190.473 L 224.071 190.473 L 224.071 190.985 L 224.071 190.985 z M 226.787 192.47 L 227.384 192.47 L 227.857 191.147 L 229.653 191.147 L 230.127 192.47 L 230.736 192.47 L 229.089 187.963 L 228.428 187.963 L 226.787 192.47 L 226.787 192.47 z M 228.065 190.596 L 228.759 188.612 L 229.452 190.596 L 228.065 190.596 L 228.065 190.596 z M 231.534 192.47 L 232.104 192.47 L 232.104 190.479 L 232.163 189.999 L 232.338 189.656 L 232.623 189.448 L 233.006 189.377 L 233.291 189.422 L 233.505 189.552 L 233.635 189.772 L 233.68 190.071 L 234.257 190.071 L 234.179 189.545 L 233.965 189.169 L 233.609 188.942 L 233.122 188.865 L 232.792 188.916 L 232.506 189.046 L 232.254 189.267 L 232.053 189.565 L 232.053 188.988 L 231.534 188.988 L 231.534 192.47 L 231.534 192.47 z M 234.996 192.47 L 235.522 192.47 L 235.522 190.142 L 235.554 189.792 L 235.651 189.539 L 235.8 189.39 L 235.995 189.331 L 236.151 189.383 L 236.254 189.513 L 236.306 189.733 L 236.326 190.025 L 236.326 192.47 L 236.818 192.47 L 236.818 190.142 L 236.851 189.798 L 236.948 189.545 L 237.104 189.39 L 237.298 189.331 L 237.454 189.383 L 237.558 189.513 L 237.622 190.025 L 237.622 192.47 L 238.148 192.47 L 238.148 190.064 L 238.115 189.565 L 238.012 189.182 L 237.804 188.949 L 237.467 188.865 L 237.071 188.994 L 236.767 189.37 L 236.527 189.001 L 236.125 188.865 L 235.755 188.994 L 235.502 189.357 L 235.502 188.988 L 234.996 188.988 L 234.996 192.47 L 234.996 192.47 z M 242.927 192.47 L 243.53 192.47 L 243.53 190.57 L 244.146 190.57 L 244.599 190.589 L 244.885 190.68 L 245.04 190.894 L 245.105 191.277 L 245.138 191.86 L 245.177 192.243 L 245.254 192.47 L 245.935 192.47 L 245.935 192.347 L 245.786 192.165 L 245.734 191.828 L 245.689 191.102 L 245.579 190.563 L 245.429 190.395 L 245.196 190.272 L 245.455 190.11 L 245.637 189.883 L 245.754 189.597 L 245.792 189.254 L 245.702 188.709 L 245.442 188.3 L 245.014 188.054 L 244.431 187.97 L 242.927 187.97 L 242.927 192.47 L 242.927 192.47 z M 244.262 188.521 L 244.658 188.56 L 244.937 188.683 L 245.112 188.91 L 245.17 189.267 L 245.105 189.643 L 244.93 189.87 L 244.632 189.986 L 244.223 190.019 L 243.53 190.019 L 243.53 188.521 L 244.262 188.521 L 244.262 188.521 z M 247.433 190.894 L 249.715 190.894 L 249.722 190.628 L 249.618 189.883 L 249.333 189.325 L 248.879 188.988 L 248.276 188.865 L 247.686 188.994 L 247.232 189.357 L 246.94 189.947 L 246.836 190.726 L 246.934 191.523 L 247.225 192.107 L 247.673 192.47 L 248.256 192.593 L 248.762 192.509 L 249.177 192.288 L 249.482 191.938 L 249.657 191.471 L 249.093 191.471 L 248.976 191.731 L 248.808 191.925 L 248.328 192.081 L 247.958 192.009 L 247.679 191.782 L 247.498 191.413 L 247.433 190.914 L 247.433 190.894 L 247.433 190.894 z M 247.433 190.414 L 247.504 189.967 L 247.679 189.636 L 247.945 189.435 L 248.295 189.364 L 248.639 189.435 L 248.905 189.636 L 249.067 189.967 L 249.125 190.414 L 247.433 190.414 L 247.433 190.414 z M 252.906 192.016 L 252.906 192.035 L 252.938 192.256 L 253.035 192.411 L 253.444 192.535 L 253.762 192.483 L 253.762 192.042 L 253.625 192.061 L 253.444 191.977 L 253.411 191.718 L 253.411 189.915 L 253.334 189.455 L 253.107 189.13 L 252.711 188.936 L 252.153 188.865 L 251.609 188.942 L 251.207 189.163 L 250.954 189.506 L 250.87 189.96 L 250.87 189.999 L 251.382 189.999 L 251.427 189.727 L 251.57 189.532 L 251.803 189.416 L 252.134 189.37 L 252.452 189.403 L 252.679 189.5 L 252.815 189.669 L 252.86 189.902 L 252.834 190.174 L 252.731 190.311 L 252.471 190.375 L 251.985 190.427 L 251.427 190.544 L 251.032 190.751 L 250.798 191.076 L 250.727 191.555 L 250.792 191.983 L 250.993 192.301 L 251.317 192.502 L 251.764 192.573 L 252.367 192.437 L 252.906 192.016 L 252.906 192.016 z M 252.841 191.251 L 252.763 191.588 L 252.555 191.847 L 252.244 192.016 L 251.862 192.074 L 251.615 192.042 L 251.44 191.938 L 251.33 191.756 L 251.298 191.504 L 251.323 191.277 L 251.427 191.115 L 251.842 190.933 L 252.367 190.855 L 252.841 190.7 L 252.841 191.251 L 252.841 191.251 z M 254.955 192.47 L 255.525 192.47 L 255.525 190.479 L 255.584 189.999 L 255.759 189.656 L 256.044 189.448 L 256.427 189.377 L 256.712 189.422 L 256.926 189.552 L 257.055 189.772 L 257.101 190.071 L 257.678 190.071 L 257.6 189.545 L 257.386 189.169 L 257.03 188.942 L 256.543 188.865 L 256.213 188.916 L 255.927 189.046 L 255.674 189.267 L 255.473 189.565 L 255.473 188.988 L 254.955 188.988 L 254.955 192.47 L 254.955 192.47 z M 262.573 192.47 L 265.465 192.47 L 265.465 191.925 L 263.17 191.925 L 263.17 187.97 L 262.573 187.97 L 262.573 192.47 L 262.573 192.47 z M 266.282 190.732 L 266.386 191.523 L 266.684 192.107 L 267.158 192.47 L 267.793 192.593 L 268.422 192.47 L 268.896 192.113 L 269.194 191.53 L 269.304 190.732 L 269.194 189.941 L 268.896 189.351 L 268.422 188.994 L 267.793 188.865 L 267.158 188.994 L 266.684 189.357 L 266.386 189.941 L 266.282 190.732 L 266.282 190.732 z M 266.866 190.726 L 266.924 190.142 L 267.106 189.72 L 267.398 189.461 L 267.793 189.37 L 268.182 189.461 L 268.474 189.714 L 268.656 190.142 L 268.72 190.726 L 268.656 191.316 L 268.474 191.744 L 268.182 192.003 L 267.793 192.087 L 267.398 192.003 L 267.106 191.744 L 266.924 191.316 L 266.866 190.726 L 266.866 190.726 z M 271.178 192.47 L 271.697 189.513 L 272.215 192.47 L 272.76 192.47 L 273.616 188.988 L 273.065 188.988 L 272.488 191.945 L 271.975 188.988 L 271.411 188.988 L 270.899 191.945 L 270.322 188.988 L 269.777 188.988 L 270.633 192.47 L 271.178 192.47 L 271.178 192.47 z M 274.757 190.894 L 277.04 190.894 L 277.046 190.628 L 276.942 189.883 L 276.657 189.325 L 276.203 188.988 L 275.6 188.865 L 275.01 188.994 L 274.556 189.357 L 274.264 189.947 L 274.161 190.726 L 274.258 191.523 L 274.55 192.107 L 274.997 192.47 L 275.581 192.593 L 276.086 192.509 L 276.501 192.288 L 276.806 191.938 L 276.981 191.471 L 276.417 191.471 L 276.3 191.731 L 276.132 191.925 L 275.652 192.081 L 275.282 192.009 L 275.004 191.782 L 274.822 191.413 L 274.757 190.914 L 274.757 190.894 L 274.757 190.894 z M 274.757 190.414 L 274.828 189.967 L 275.004 189.636 L 275.269 189.435 L 275.62 189.364 L 275.963 189.435 L 276.229 189.636 L 276.391 189.967 L 276.449 190.414 L 274.757 190.414 L 274.757 190.414 z M 278.375 192.47 L 278.946 192.47 L 278.946 190.479 L 279.004 189.999 L 279.179 189.656 L 279.465 189.448 L 279.847 189.377 L 280.132 189.422 L 280.346 189.552 L 280.476 189.772 L 280.522 190.071 L 281.099 190.071 L 281.021 189.545 L 280.807 189.169 L 280.45 188.942 L 279.964 188.865 L 279.633 188.916 L 279.348 189.046 L 279.095 189.267 L 278.894 189.565 L 278.894 188.988 L 278.375 188.988 L 278.375 192.47 L 278.375 192.47 z" stroke="none" fill-rule="evenodd" fill="rgb(0, 0, 0)"/></g><g stroke="rgb(0, 0, 0)" stroke-width="0.13" stroke-linecap="butt" stroke-linejoin="miter" fill="none"><path d="M 114.346 88.512 L 114.815 88.512 L 114.815 87.0343 L 115.294 87.0343 L 115.648 87.0495 L 115.869 87.1201 L 115.99 87.2865 L 116.041 87.584 L 116.066 88.0379 L 116.096 88.3355 L 116.157 88.512 L 116.686 88.512 L 116.686 88.4162 L 116.57 88.275 L 116.53 88.0127 L 116.495 87.4479 L 116.409 87.0293 L 116.293 86.8982 L 116.111 86.8023 L 116.313 86.6763 L 116.454 86.4997 L 116.545 86.2778 L 116.575 86.0105 L 116.505 85.5869 L 116.303 85.2692 L 115.97 85.0775 L 115.516 85.012 L 114.346 85.012 L 114.346 88.512 L 114.346 88.512 z M 115.385 85.4407 L 115.693 85.4709 L 115.91 85.5667 L 116.046 85.7433 L 116.091 86.0206 L 116.041 86.3131 L 115.905 86.4897 L 115.673 86.5804 L 115.355 86.6056 L 114.815 86.6056 L 114.815 85.4407 L 115.385 85.4407 L 115.385 85.4407 z M 117.483 88.512 L 119.733 88.512 L 119.733 88.0884 L 117.947 88.0884 L 117.947 85.012 L 117.483 85.012 L 117.483 88.512 L 117.483 88.512 z M 120.338 87.1806 L 120.408 87.811 L 120.63 88.2598 L 121.003 88.517 L 121.543 88.6078 L 122.078 88.517 L 122.451 88.2598 L 122.673 87.816 L 122.748 87.1806 L 122.748 85.012 L 122.279 85.012 L 122.279 87.2058 L 122.234 87.6345 L 122.098 87.9421 L 121.866 88.1237 L 121.543 88.1842 L 121.21 88.1237 L 120.978 87.9421 L 120.842 87.6395 L 120.802 87.2058 L 120.802 85.012 L 120.338 85.012 L 120.338 87.1806 L 120.338 87.1806 z M 123.969 87.3571 L 125.189 87.3571 L 125.189 86.9587 L 123.969 86.9587 L 123.969 87.3571 L 123.969 87.3571 z" stroke="none" fill-rule="evenodd" fill="rgb(0, 0, 0)"/></g><g stroke="rgb(0, 0, 0)" stroke-width="0.13" stroke-linecap="butt" stroke-linejoin="miter" fill="none"><path d="M 114.346 94.5588 L 114.815 94.5588 L 114.815 93.0811 L 115.294 93.0811 L 115.648 93.0963 L 115.869 93.1669 L 115.99 93.3333 L 116.041 93.6309 L 116.066 94.0848 L 116.096 94.3823 L 116.157 94.5588 L 116.686 94.5588 L 116.686 94.463 L 116.57 94.3218 L 116.53 94.0595 L 116.495 93.4947 L 116.409 93.0761 L 116.293 92.945 L 116.111 92.8492 L 116.313 92.7231 L 116.454 92.5466 L 116.545 92.3247 L 116.575 92.0574 L 116.505 91.6337 L 116.303 91.316 L 115.97 91.1244 L 115.516 91.0588 L 114.346 91.0588 L 114.346 94.5588 L 114.346 94.5588 z M 115.385 91.4875 L 115.693 91.5177 L 115.91 91.6136 L 116.046 91.7901 L 116.091 92.0675 L 116.041 92.36 L 115.905 92.5365 L 115.673 92.6273 L 115.355 92.6525 L 114.815 92.6525 L 114.815 91.4875 L 115.385 91.4875 L 115.385 91.4875 z M 117.483 94.5588 L 119.733 94.5588 L 119.733 94.1352 L 117.947 94.1352 L 117.947 91.0588 L 117.483 91.0588 L 117.483 94.5588 L 117.483 94.5588 z M 120.338 93.2274 L 120.408 93.8578 L 120.63 94.3067 L 121.003 94.5639 L 121.543 94.6546 L 122.078 94.5639 L 122.451 94.3067 L 122.673 93.8628 L 122.748 93.2274 L 122.748 91.0588 L 122.279 91.0588 L 122.279 93.2526 L 122.234 93.6813 L 122.098 93.9889 L 121.866 94.1705 L 121.543 94.231 L 121.21 94.1705 L 120.978 93.9889 L 120.842 93.6863 L 120.802 93.2526 L 120.802 91.0588 L 120.338 91.0588 L 120.338 93.2274 L 120.338 93.2274 z" stroke="none" fill-rule="evenodd" fill="rgb(0, 0, 0)"/></g><g stroke="rgb(0, 0, 0)" stroke-width="0.13" stroke-linecap="butt" stroke-linejoin="miter" fill="none"><path d="M 182.236 85.8122 L 182.705 85.8122 L 182.705 84.3345 L 183.184 84.3345 L 183.537 84.3497 L 183.759 84.4203 L 183.88 84.5867 L 183.931 84.8843 L 183.956 85.3382 L 183.986 85.6357 L 184.047 85.8122 L 184.576 85.8122 L 184.576 85.7164 L 184.46 85.5752 L 184.42 85.3129 L 184.385 84.7481 L 184.299 84.3295 L 184.183 84.1984 L 184.001 84.1026 L 184.203 83.9765 L 184.344 83.8 L 184.435 83.5781 L 184.465 83.3108 L 184.395 82.8871 L 184.193 82.5694 L 183.86 82.3778 L 183.406 82.3122 L 182.236 82.3122 L 182.236 85.8122 L 182.236 85.8122 z M 183.275 82.7409 L 183.583 82.7711 L 183.8 82.867 L 183.936 83.0435 L 183.981 83.3209 L 183.931 83.6134 L 183.795 83.7899 L 183.563 83.8807 L 183.245 83.9059 L 182.705 83.9059 L 182.705 82.7409 L 183.275 82.7409 L 183.275 82.7409 z M 185.373 85.8122 L 187.622 85.8122 L 187.622 85.3886 L 185.837 85.3886 L 185.837 82.3122 L 185.373 82.3122 L 185.373 85.8122 L 185.373 85.8122 z M 188.228 84.4808 L 188.298 85.1112 L 188.52 85.5601 L 188.893 85.8173 L 189.433 85.908 L 189.968 85.8173 L 190.341 85.5601 L 190.563 85.1162 L 190.638 84.4808 L 190.638 82.3122 L 190.169 82.3122 L 190.169 84.506 L 190.124 84.9347 L 189.988 85.2423 L 189.756 85.4239 L 189.433 85.4844 L 189.1 85.4239 L 188.868 85.2423 L 188.732 84.9397 L 188.692 84.506 L 188.692 82.3122 L 188.228 82.3122 L 188.228 84.4808 L 188.228 84.4808 z M 191.859 84.6573 L 193.079 84.6573 L 193.079 84.2589 L 191.859 84.2589 L 191.859 84.6573 L 191.859 84.6573 z" stroke="none" fill-rule="evenodd" fill="rgb(0, 0, 0)"/></g><g stroke="rgb(0, 0, 0)" stroke-width="0.13" stroke-linecap="butt" stroke-linejoin="miter" fill="none"><path d="M 182.236 91.859 L 182.705 91.859 L 182.705 90.3814 L 183.184 90.3814 L 183.537 90.3965 L 183.759 90.4671 L 183.88 90.6335 L 183.931 90.9311 L 183.956 91.385 L 183.986 91.6825 L 184.047 91.859 L 184.576 91.859 L 184.576 91.7632 L 184.46 91.622 L 184.42 91.3598 L 184.385 90.7949 L 184.299 90.3763 L 184.183 90.2452 L 184.001 90.1494 L 184.203 90.0233 L 184.344 89.8468 L 184.435 89.6249 L 184.465 89.3576 L 184.395 88.934 L 184.193 88.6162 L 183.86 88.4246 L 183.406 88.359 L 182.236 88.359 L 182.236 91.859 L 182.236 91.859 z M 183.275 88.7877 L 183.583 88.818 L 183.8 88.9138 L 183.936 89.0903 L 183.981 89.3677 L 183.931 89.6602 L 183.795 89.8367 L 183.563 89.9275 L 183.245 89.9527 L 182.705 89.9527 L 182.705 88.7877 L 183.275 88.7877 L 183.275 88.7877 z M 185.373 91.859 L 187.622 91.859 L 187.622 91.4354 L 185.837 91.4354 L 185.837 88.359 L 185.373 88.359 L 185.373 91.859 L 185.373 91.859 z M 189.428 88.359 L 188.263 88.359 L 188.263 91.859 L 189.428 91.859 L 189.978 91.7481 L 190.386 91.4102 L 190.638 90.8605 L 190.729 90.109 L 190.648 89.3425 L 190.548 89.0399 L 190.406 88.7978 L 189.998 88.47 L 189.731 88.3893 L 189.428 88.359 L 189.428 88.359 z M 189.393 88.7776 L 189.776 88.8533 L 190.038 89.0853 L 190.195 89.4988 L 190.245 90.109 L 190.189 90.6991 L 190.033 91.1126 L 189.766 91.3598 L 189.393 91.4405 L 188.732 91.4405 L 188.732 88.7776 L 189.393 88.7776 L 189.393 88.7776 z" stroke="none" fill-rule="evenodd" fill="rgb(0, 0, 0)"/></g></svg>