<?xml version="1.0" encoding="utf-8" ?><!DOCTYPE svg PUBLIC "-//W3C//DTD SVG 1.1//EN" "http://www.w3.org/Graphics/SVG/1.1/DTD/svg11.dtd" 
[ <!ATTLIST svg 
  xmlns:dsy CDATA #FIXED "http://www.3ds.com/print"  
    dsy:text-version CDATA #IMPLIED > 

  <!ATTLIST text 
  xmlns:dsy CDATA #FIXED "http://www.3ds.com/print" 
    dsy:text-version CDATA #IMPLIED > 
]><svg xmlns="http://www.w3.org/2000/svg" xmlns:dsy="http://www.3ds.com/print" dsy:text-version="18000" width="297" height="210" viewBox="0 0 297 210" version="1.1"><g stroke="rgb(0, 0, 0)" stroke-width="0.35" stroke-linecap="butt" stroke-linejoin="miter" fill="none"><path d="M 155.341 81.5676 A 7 7 0 0 0 141.586 79.835"/><path d="M 141.586 79.835 L 129.431 124.64"/><circle cx="148.342" cy="81.6679" r="3.2"/><path d="M 155.341 81.5676 L 155.849 117.028"/><path d="M 155.849 117.028 A 41.6769 12.5 -287.231 0 0 142.819 118.404"/><path d="M 130.56 124.782 L 129.431 124.64"/><path d="M 142.819 118.404 A 29.5727 10.0006 -226.553 0 0 130.56 124.782"/><path d="M 216.389 69.7625 A 7 7 0 0 0 202.633 71.495"/><path d="M 216.389 69.7625 L 228.544 114.567"/><circle cx="209.633" cy="71.5953" r="3.2"/><path d="M 202.633 71.495 L 202 115.668"/><path d="M 210.122 116.888 L 228.544 114.567"/><path d="M 210.122 116.888 A 41.673 12.4994 -252.769 0 0 202 115.668"/><path d="M 9.99999 200 L 287 200"/><path d="M 287 200 L 287 10"/><path d="M 287 10 L 9.99999 10"/><path d="M 9.99999 10 L 9.99999 200"/><path d="M 148.5 10 L 148.5 0"/><path d="M 9.99999 105 L -5.94366e-006 105"/><path d="M 287 105 L 297 105"/><path d="M 222.7 200 L 222.7 207.5"/><path d="M 74.3 200 L 74.3 207.5"/><path d="M 222.7 10 L 222.7 2.5"/><path d="M 74.3 10 L 74.3 2.5"/><path d="M 9.99999 52.5 L 2.49999 52.5"/><path d="M 287 52.5 L 294.5 52.5"/><path d="M 9.99999 157.5 L 2.49999 157.5"/><path d="M 287 157.5 L 294.5 157.5"/><path d="M 198.5 200 L 198.5 205"/><path d="M 188.5 200 L 188.5 202.5"/><path d="M 178.5 200 L 178.5 202.5"/><path d="M 168.5 200 L 168.5 202.5"/><path d="M 287 140 L 287 200"/></g><g stroke="rgb(0, 0, 0)" stroke-width="0.13" stroke-linecap="butt" stroke-linejoin="miter" stroke-dasharray="7, 1, 1, 1" fill="none"><path d="M 152.502 81.6679 L 144.182 81.6679"/><path d="M 148.342 77.5079 L 148.342 85.8279"/><path d="M 213.793 71.5953 L 205.473 71.5953"/><path d="M 209.633 67.4353 L 209.633 75.7553"/></g><g stroke="rgb(0, 0, 0)" stroke-width="0.13" stroke-linecap="butt" stroke-linejoin="miter" fill="none"><path d="M 258.267 206.833 L 258.731 206.833 L 259.099 205.804 L 260.496 205.804 L 260.864 206.833 L 261.338 206.833 L 260.057 203.328 L 259.543 203.328 L 258.267 206.833 L 258.267 206.833 z M 259.26 205.376 L 259.8 203.832 L 260.34 205.376 L 259.26 205.376 L 259.26 205.376 z" stroke="none" fill-rule="evenodd" fill="rgb(0, 0, 0)"/></g><g stroke="rgb(0, 0, 0)" stroke-width="0.13" stroke-linecap="butt" stroke-linejoin="miter" fill="none"><path d="M 37.1949 203.333 L 36.03 203.333 L 36.03 206.833 L 37.1949 206.833 L 37.7447 206.722 L 38.1532 206.384 L 38.4053 205.835 L 38.4961 205.083 L 38.4154 204.317 L 38.3145 204.014 L 38.1733 203.772 L 37.7648 203.444 L 37.4975 203.363 L 37.1949 203.333 L 37.1949 203.333 z M 37.1596 203.752 L 37.5429 203.827 L 37.8052 204.059 L 37.9615 204.473 L 38.012 205.083 L 37.9565 205.673 L 37.8001 206.087 L 37.5328 206.334 L 37.1596 206.415 L 36.499 206.415 L 36.499 203.752 L 37.1596 203.752 L 37.1596 203.752 z" stroke="none" fill-rule="evenodd" fill="rgb(0, 0, 0)"/></g><g stroke="rgb(0, 0, 0)" stroke-width="0.13" stroke-linecap="butt" stroke-linejoin="miter" fill="none"><path d="M 185.542 4.36958 L 185.249 4.01657 L 185.053 3.92578 L 184.811 3.89552 L 184.432 3.96109 L 184.16 4.15778 L 183.994 4.47549 L 183.933 4.9193 L 183.933 6.16498 L 187.433 6.16498 L 187.433 4.84869 L 187.363 4.37968 L 187.156 4.03169 L 186.828 3.81483 L 186.384 3.73918 L 186.087 3.78458 L 185.84 3.90561 L 185.658 4.10229 L 185.542 4.36958 L 185.542 4.36958 z M 185.386 5.01512 L 185.386 5.701 L 184.352 5.701 L 184.352 4.97478 L 184.382 4.70244 L 184.473 4.5108 L 184.629 4.39481 L 184.861 4.35446 L 185.093 4.39986 L 185.255 4.52089 L 185.355 4.72766 L 185.386 5.01512 L 185.386 5.01512 z M 187.015 4.90417 L 187.015 5.701 L 185.809 5.701 L 185.809 4.94955 L 185.845 4.63184 L 185.951 4.40489 L 186.132 4.26872 L 186.394 4.22334 L 186.672 4.26872 L 186.863 4.39481 L 186.979 4.60663 L 187.015 4.90417 L 187.015 4.90417 z" stroke="none" fill-rule="evenodd" fill="rgb(0, 0, 0)"/></g><g stroke="rgb(0, 0, 0)" stroke-width="0.13" stroke-linecap="butt" stroke-linejoin="miter" fill="none"><path d="M 111.932 4.183 L 112.356 4.28386 L 112.658 4.45029 L 112.845 4.68227 L 112.905 4.95461 L 112.815 5.28241 L 112.542 5.53961 L 112.098 5.71109 L 111.483 5.76657 L 110.873 5.71109 L 110.424 5.54466 L 110.152 5.28746 L 110.056 4.95461 L 110.106 4.71252 L 110.248 4.50575 L 110.475 4.34438 L 110.787 4.23343 L 110.787 3.75432 L 110.308 3.90561 L 109.945 4.16786 L 109.718 4.52592 L 109.637 4.95461 L 109.763 5.48918 L 110.116 5.89769 L 110.696 6.15994 L 111.483 6.25072 L 112.27 6.15994 L 112.85 5.89769 L 113.208 5.48918 L 113.329 4.95461 L 113.233 4.48558 L 112.966 4.10735 L 112.527 3.84006 L 111.932 3.69884 L 111.932 4.183 L 111.932 4.183 z" stroke="none" fill-rule="evenodd" fill="rgb(0, 0, 0)"/></g><g stroke="rgb(0, 0, 0)" stroke-width="0.13" stroke-linecap="butt" stroke-linejoin="miter" fill="none"><path d="M 261.633 6.53314 L 261.633 6.06915 L 260.604 5.701 L 260.604 4.30403 L 261.633 3.93587 L 261.633 3.46181 L 258.128 4.74278 L 258.128 5.2572 L 261.633 6.53314 L 261.633 6.53314 z M 260.176 5.53961 L 258.632 5 L 260.176 4.46037 L 260.176 5.53961 L 260.176 5.53961 z" stroke="none" fill-rule="evenodd" fill="rgb(0, 0, 0)"/></g><g stroke="rgb(0, 0, 0)" stroke-width="0.13" stroke-linecap="butt" stroke-linejoin="miter" fill="none"><path d="M 35.5332 5.00504 L 35.5332 6.17003 L 39.0332 6.17003 L 39.0332 5.00504 L 38.9223 4.45532 L 38.5844 4.04683 L 38.0346 3.79466 L 37.2832 3.70389 L 36.5166 3.78458 L 36.214 3.88544 L 35.972 4.02666 L 35.6442 4.43515 L 35.5635 4.70244 L 35.5332 5.00504 L 35.5332 5.00504 z M 35.9518 5.04034 L 36.0274 4.65706 L 36.2594 4.39481 L 36.673 4.23846 L 37.2832 4.18803 L 37.8733 4.24352 L 38.2868 4.39986 L 38.5339 4.66714 L 38.6146 5.04034 L 38.6146 5.701 L 35.9518 5.701 L 35.9518 5.04034 L 35.9518 5.04034 z" stroke="none" fill-rule="evenodd" fill="rgb(0, 0, 0)"/></g><g stroke="rgb(0, 0, 0)" stroke-width="0.13" stroke-linecap="butt" stroke-linejoin="miter" fill="none"><path d="M 290.729 79.4838 L 290.729 79.5191 L 290.81 80.0032 L 291.047 80.3663 L 291.42 80.5983 L 291.914 80.6841 L 292.439 80.5983 L 292.832 80.3764 L 293.084 80.0234 L 293.175 79.5695 L 293.135 79.272 L 293.024 79.0299 L 292.842 78.8433 L 292.6 78.7071 L 292.928 78.4348 L 293.044 78.0011 L 292.968 77.6077 L 292.751 77.3102 L 292.398 77.1236 L 291.914 77.058 L 291.46 77.1387 L 291.112 77.3606 L 290.885 77.7136 L 290.81 78.1826 L 290.81 78.2179 L 291.259 78.2179 L 291.299 77.8952 L 291.43 77.6632 L 291.642 77.522 L 291.939 77.4715 L 292.202 77.5119 L 292.393 77.6178 L 292.509 77.7892 L 292.555 78.0212 L 292.509 78.2684 L 292.388 78.4348 L 292.177 78.5356 L 291.889 78.5659 L 291.692 78.5609 L 291.692 78.9593 L 291.939 78.9492 L 292.257 78.9946 L 292.494 79.1156 L 292.635 79.3123 L 292.686 79.5695 L 292.63 79.862 L 292.484 80.0789 L 292.252 80.215 L 291.945 80.2604 L 291.627 80.21 L 291.395 80.0587 L 291.249 79.8166 L 291.193 79.4838 L 290.729 79.4838 L 290.729 79.4838 z" stroke="none" fill-rule="evenodd" fill="rgb(0, 0, 0)"/></g><g stroke="rgb(0, 0, 0)" stroke-width="0.13" stroke-linecap="butt" stroke-linejoin="miter" fill="none"><path d="M 5.73378 80.0209 L 5.76909 80.0209 L 6.25324 79.9402 L 6.61635 79.7032 L 6.84834 79.33 L 6.93407 78.8357 L 6.84834 78.3112 L 6.62644 77.9179 L 6.27341 77.6657 L 5.81952 77.5749 L 5.52197 77.6153 L 5.27989 77.7262 L 5.09329 77.9078 L 4.95713 78.1499 L 4.68479 77.822 L 4.25108 77.706 L 3.8577 77.7817 L 3.56015 77.9986 L 3.37355 78.3516 L 3.30799 78.8357 L 3.38868 79.2896 L 3.61059 79.6376 L 3.96361 79.8645 L 4.43263 79.9402 L 4.46793 79.9402 L 4.46793 79.4913 L 4.14517 79.451 L 3.91318 79.3199 L 3.77197 79.1081 L 3.72154 78.8105 L 3.76188 78.5483 L 3.86779 78.3566 L 4.03926 78.2406 L 4.27125 78.1952 L 4.51837 78.2406 L 4.68479 78.3617 L 4.78566 78.5735 L 4.81592 78.8609 L 4.81087 79.0576 L 5.20929 79.0576 L 5.1992 78.8105 L 5.24459 78.4928 L 5.36563 78.2558 L 5.56231 78.1145 L 5.81952 78.0641 L 6.11203 78.1196 L 6.32889 78.2658 L 6.46505 78.4978 L 6.51044 78.8055 L 6.46001 79.1232 L 6.30871 79.3552 L 6.06664 79.5014 L 5.73378 79.5569 L 5.73378 80.0209 L 5.73378 80.0209 z" stroke="none" fill-rule="evenodd" fill="rgb(0, 0, 0)"/></g><g stroke="rgb(0, 0, 0)" stroke-width="0.13" stroke-linecap="butt" stroke-linejoin="miter" fill="none"><path d="M 290.769 133.083 L 293.175 133.083 L 293.175 132.65 L 291.274 132.65 L 291.38 132.412 L 291.561 132.216 L 292.121 131.858 L 292.419 131.706 L 292.751 131.49 L 292.988 131.237 L 293.125 130.94 L 293.175 130.602 L 293.089 130.178 L 292.852 129.845 L 292.489 129.634 L 292.02 129.558 L 291.536 129.644 L 291.168 129.881 L 290.931 130.259 L 290.85 130.758 L 290.85 130.829 L 291.309 130.829 L 291.309 130.789 L 291.354 130.446 L 291.491 130.193 L 291.707 130.032 L 291.995 129.977 L 292.287 130.027 L 292.504 130.153 L 292.646 130.35 L 292.696 130.597 L 292.661 130.829 L 292.565 131.026 L 292.403 131.197 L 292.182 131.348 L 291.884 131.51 L 291.39 131.822 L 291.042 132.155 L 290.835 132.559 L 290.769 133.068 L 290.769 133.083 L 290.769 133.083 z" stroke="none" fill-rule="evenodd" fill="rgb(0, 0, 0)"/></g><g stroke="rgb(0, 0, 0)" stroke-width="0.13" stroke-linecap="butt" stroke-linejoin="miter" fill="none"><path d="M 6.83321 132.481 L 6.83321 130.075 L 6.39949 130.075 L 6.39949 131.976 L 6.16246 131.87 L 5.96577 131.689 L 5.6077 131.129 L 5.45641 130.831 L 5.23955 130.499 L 4.98738 130.262 L 4.68983 130.125 L 4.35194 130.075 L 3.92831 130.161 L 3.59545 130.398 L 3.38364 130.761 L 3.30799 131.23 L 3.39372 131.714 L 3.63075 132.082 L 4.009 132.319 L 4.50828 132.4 L 4.57888 132.4 L 4.57888 131.941 L 4.53854 131.941 L 4.1956 131.896 L 3.94343 131.759 L 3.78205 131.543 L 3.72658 131.255 L 3.77701 130.963 L 3.90309 130.746 L 4.09978 130.604 L 4.34689 130.554 L 4.57888 130.589 L 4.77557 130.685 L 4.94704 130.847 L 5.09834 131.068 L 5.25972 131.366 L 5.5724 131.86 L 5.90525 132.208 L 6.30871 132.415 L 6.81808 132.481 L 6.83321 132.481 L 6.83321 132.481 z" stroke="none" fill-rule="evenodd" fill="rgb(0, 0, 0)"/></g><g stroke="rgb(0, 0, 0)" stroke-width="0.13" stroke-linecap="butt" stroke-linejoin="miter" fill="none"><path d="M 292.277 28.0832 L 292.731 28.0832 L 292.731 27.2158 L 293.231 27.2158 L 293.231 26.8123 L 292.731 26.8123 L 292.731 24.6588 L 292.272 24.6588 L 290.739 26.772 L 290.739 27.2158 L 292.277 27.2158 L 292.277 28.0832 L 292.277 28.0832 z M 291.163 26.8123 L 292.277 25.2439 L 292.277 26.8123 L 291.163 26.8123 L 291.163 26.8123 z" stroke="none" fill-rule="evenodd" fill="rgb(0, 0, 0)"/></g><g stroke="rgb(0, 0, 0)" stroke-width="0.13" stroke-linecap="butt" stroke-linejoin="miter" fill="none"><path d="M 6.83321 25.9726 L 6.83321 25.5187 L 5.96577 25.5187 L 5.96577 25.0194 L 5.56231 25.0194 L 5.56231 25.5187 L 3.40886 25.5187 L 3.40886 25.9777 L 5.52197 27.5108 L 5.96577 27.5108 L 5.96577 25.9726 L 6.83321 25.9726 L 6.83321 25.9726 z M 5.56231 27.0872 L 3.99387 25.9726 L 5.56231 25.9726 L 5.56231 27.0872 L 5.56231 27.0872 z" stroke="none" fill-rule="evenodd" fill="rgb(0, 0, 0)"/></g><g stroke="rgb(0, 0, 0)" stroke-width="0.13" stroke-linecap="butt" stroke-linejoin="miter" fill="none"><path d="M 291.909 185.583 L 292.368 185.583 L 292.368 182.058 L 292.025 182.058 L 291.934 182.366 L 291.753 182.572 L 291.476 182.693 L 291.092 182.734 L 291.092 183.092 L 291.909 183.092 L 291.909 185.583 L 291.909 185.583 z" stroke="none" fill-rule="evenodd" fill="rgb(0, 0, 0)"/></g><g stroke="rgb(0, 0, 0)" stroke-width="0.13" stroke-linecap="butt" stroke-linejoin="miter" fill="none"><path d="M 6.83321 183.841 L 6.83321 183.382 L 3.30799 183.382 L 3.30799 183.725 L 3.61562 183.816 L 3.8224 183.997 L 3.94343 184.275 L 3.98378 184.658 L 4.34185 184.658 L 4.34185 183.841 L 6.83321 183.841 L 6.83321 183.841 z" stroke="none" fill-rule="evenodd" fill="rgb(0, 0, 0)"/></g><g stroke="rgb(0, 0, 0)" stroke-width="0.13" stroke-linecap="butt" stroke-linejoin="miter" fill="none"><path d="M 164.081 169.969 L 163.249 169.969 L 163.249 172.469 L 164.081 172.469 L 164.473 172.39 L 164.765 172.148 L 164.945 171.756 L 165.01 171.219 L 164.952 170.671 L 164.88 170.455 L 164.78 170.282 L 164.488 170.048 L 164.297 169.991 L 164.081 169.969 L 164.081 169.969 z M 164.055 170.268 L 164.329 170.322 L 164.517 170.488 L 164.628 170.783 L 164.664 171.219 L 164.625 171.64 L 164.513 171.936 L 164.322 172.112 L 164.055 172.17 L 163.584 172.17 L 163.584 170.268 L 164.055 170.268 L 164.055 170.268 z M 166.004 170.272 L 166.217 170.272 L 166.718 169.659 L 166.365 169.659 L 166.004 170.272 L 166.004 170.272 z M 165.785 171.594 L 167.053 171.594 L 167.056 171.446 L 166.999 171.032 L 166.84 170.722 L 166.588 170.535 L 166.253 170.466 L 165.925 170.538 L 165.673 170.74 L 165.511 171.068 L 165.453 171.5 L 165.507 171.943 L 165.669 172.267 L 165.918 172.469 L 166.242 172.537 L 166.523 172.491 L 166.754 172.368 L 166.923 172.174 L 167.02 171.914 L 166.707 171.914 L 166.642 172.058 L 166.548 172.166 L 166.282 172.253 L 166.076 172.213 L 165.921 172.087 L 165.821 171.882 L 165.785 171.604 L 165.785 171.594 L 165.785 171.594 z M 165.785 171.327 L 165.824 171.079 L 165.921 170.895 L 166.069 170.783 L 166.264 170.744 L 166.455 170.783 L 166.602 170.895 L 166.692 171.079 L 166.725 171.327 L 165.785 171.327 L 165.785 171.327 z M 168.623 171.341 L 168.317 171.269 L 168.09 171.187 L 168.014 171.017 L 168.036 170.898 L 168.112 170.812 L 168.234 170.758 L 168.411 170.736 L 168.58 170.758 L 168.713 170.823 L 168.8 170.92 L 168.836 171.05 L 169.146 171.05 L 169.146 171.043 L 169.092 170.808 L 168.944 170.625 L 168.713 170.509 L 168.411 170.466 L 168.104 170.509 L 167.881 170.628 L 167.741 170.805 L 167.697 171.028 L 167.73 171.244 L 167.831 171.396 L 167.996 171.504 L 168.238 171.579 L 168.591 171.666 L 168.807 171.756 L 168.865 171.828 L 168.886 171.936 L 168.854 172.069 L 168.767 172.17 L 168.627 172.235 L 168.439 172.256 L 168.241 172.235 L 168.097 172.159 L 168 172.037 L 167.96 171.867 L 167.654 171.867 L 167.705 172.156 L 167.852 172.365 L 168.086 172.491 L 168.411 172.537 L 168.749 172.491 L 168.998 172.365 L 169.149 172.163 L 169.203 171.9 L 169.164 171.673 L 169.052 171.518 L 168.868 171.417 L 168.623 171.341 L 168.623 171.341 z M 170.813 172.202 L 170.813 170.599 L 169.999 170.599 L 169.999 170.87 L 170.496 170.87 L 170.496 172.202 L 169.848 172.202 L 169.848 172.469 L 171.469 172.469 L 171.469 172.202 L 170.813 172.202 L 170.813 172.202 z M 170.824 169.883 L 170.489 169.883 L 170.489 170.243 L 170.824 170.243 L 170.824 169.883 L 170.824 169.883 z M 173.519 172.383 L 173.519 170.535 L 173.216 170.535 L 173.216 170.848 L 172.968 170.563 L 172.816 170.491 L 172.647 170.466 L 172.341 170.538 L 172.103 170.74 L 171.948 171.064 L 171.894 171.5 L 171.948 171.939 L 172.103 172.264 L 172.341 172.469 L 172.647 172.537 L 172.82 172.512 L 172.964 172.447 L 173.216 172.174 L 173.216 172.447 L 173.187 172.664 L 173.108 172.818 L 172.957 172.909 L 172.73 172.941 L 172.532 172.919 L 172.391 172.865 L 172.308 172.772 L 172.283 172.646 L 171.977 172.646 L 171.977 172.66 L 172.024 172.89 L 172.168 173.063 L 172.398 173.175 L 172.712 173.215 L 173.086 173.161 L 173.335 173.009 L 173.476 172.746 L 173.519 172.383 L 173.519 172.383 z M 172.222 171.5 L 172.254 171.179 L 172.352 170.942 L 172.503 170.801 L 172.705 170.751 L 172.917 170.801 L 173.076 170.942 L 173.173 171.179 L 173.209 171.5 L 173.173 171.828 L 173.076 172.062 L 172.917 172.206 L 172.705 172.253 L 172.503 172.206 L 172.352 172.062 L 172.254 171.824 L 172.222 171.5 L 172.222 171.5 z M 174.182 172.469 L 174.499 172.469 L 174.499 171.352 L 174.531 171.097 L 174.635 170.909 L 174.798 170.794 L 175.014 170.751 L 175.187 170.787 L 175.295 170.884 L 175.349 171.046 L 175.367 171.262 L 175.367 172.469 L 175.684 172.469 L 175.684 171.197 L 175.669 170.942 L 175.605 170.729 L 175.392 170.535 L 175.061 170.466 L 174.877 170.491 L 174.722 170.56 L 174.589 170.675 L 174.484 170.83 L 174.484 170.535 L 174.182 170.535 L 174.182 172.469 L 174.182 172.469 z M 177.499 172.217 L 177.499 172.228 L 177.517 172.35 L 177.571 172.437 L 177.798 172.505 L 177.975 172.476 L 177.975 172.231 L 177.899 172.242 L 177.798 172.195 L 177.78 172.051 L 177.78 171.05 L 177.737 170.794 L 177.611 170.614 L 177.391 170.506 L 177.081 170.466 L 176.779 170.509 L 176.556 170.632 L 176.415 170.823 L 176.368 171.075 L 176.368 171.097 L 176.653 171.097 L 176.678 170.945 L 176.757 170.837 L 176.887 170.772 L 177.071 170.747 L 177.247 170.765 L 177.373 170.819 L 177.449 170.913 L 177.474 171.043 L 177.46 171.194 L 177.402 171.269 L 177.258 171.305 L 176.988 171.334 L 176.678 171.399 L 176.458 171.514 L 176.329 171.695 L 176.289 171.961 L 176.325 172.199 L 176.437 172.375 L 176.617 172.487 L 176.865 172.527 L 177.2 172.451 L 177.499 172.217 L 177.499 172.217 z M 177.463 171.792 L 177.42 171.979 L 177.305 172.123 L 177.132 172.217 L 176.919 172.249 L 176.782 172.231 L 176.685 172.174 L 176.624 172.073 L 176.606 171.932 L 176.62 171.806 L 176.678 171.716 L 176.909 171.615 L 177.2 171.572 L 177.463 171.486 L 177.463 171.792 L 177.463 171.792 z M 178.944 170.87 L 178.944 171.839 L 178.965 172.152 L 179.066 172.368 L 179.268 172.494 L 179.61 172.537 L 179.985 172.519 L 179.985 172.246 L 179.711 172.267 L 179.463 172.238 L 179.329 172.148 L 179.272 171.997 L 179.261 171.785 L 179.261 170.87 L 179.985 170.87 L 179.985 170.599 L 179.261 170.599 L 179.261 170.034 L 178.944 170.034 L 178.944 170.599 L 178.396 170.599 L 178.396 170.87 L 178.944 170.87 L 178.944 170.87 z M 181.656 172.202 L 181.656 170.599 L 180.842 170.599 L 180.842 170.87 L 181.339 170.87 L 181.339 172.202 L 180.691 172.202 L 180.691 172.469 L 182.312 172.469 L 182.312 172.202 L 181.656 172.202 L 181.656 172.202 z M 181.667 169.883 L 181.332 169.883 L 181.332 170.243 L 181.667 170.243 L 181.667 169.883 L 181.667 169.883 z M 182.762 171.504 L 182.82 171.943 L 182.986 172.267 L 183.249 172.469 L 183.602 172.537 L 183.951 172.469 L 184.214 172.271 L 184.38 171.947 L 184.441 171.504 L 184.38 171.064 L 184.214 170.736 L 183.951 170.538 L 183.602 170.466 L 183.249 170.538 L 182.986 170.74 L 182.82 171.064 L 182.762 171.504 L 182.762 171.504 z M 183.087 171.5 L 183.119 171.176 L 183.22 170.942 L 183.382 170.798 L 183.602 170.747 L 183.818 170.798 L 183.98 170.938 L 184.081 171.176 L 184.117 171.5 L 184.081 171.828 L 183.98 172.066 L 183.818 172.21 L 183.602 172.256 L 183.382 172.21 L 183.22 172.066 L 183.119 171.828 L 183.087 171.5 L 183.087 171.5 z M 185.025 172.469 L 185.342 172.469 L 185.342 171.352 L 185.374 171.097 L 185.478 170.909 L 185.641 170.794 L 185.857 170.751 L 186.03 170.787 L 186.138 170.884 L 186.192 171.046 L 186.21 171.262 L 186.21 172.469 L 186.527 172.469 L 186.527 171.197 L 186.512 170.942 L 186.447 170.729 L 186.235 170.535 L 185.904 170.466 L 185.72 170.491 L 185.565 170.56 L 185.432 170.675 L 185.327 170.83 L 185.327 170.535 L 185.025 170.535 L 185.025 172.469 L 185.025 172.469 z" stroke="none" fill-rule="evenodd" fill="rgb(0, 0, 0)"/></g><g stroke="rgb(0, 0, 0)" stroke-width="0.13" stroke-linecap="butt" stroke-linejoin="miter" fill="none"><path d="M 154.099 185.47 L 154.702 185.47 L 154.702 183.57 L 155.318 183.57 L 155.772 183.589 L 156.057 183.68 L 156.213 183.894 L 156.277 184.277 L 156.31 184.86 L 156.349 185.243 L 156.427 185.47 L 157.107 185.47 L 157.107 185.347 L 156.958 185.165 L 156.906 184.828 L 156.861 184.102 L 156.751 183.563 L 156.602 183.395 L 156.368 183.272 L 156.628 183.11 L 156.809 182.883 L 156.926 182.597 L 156.965 182.254 L 156.874 181.709 L 156.615 181.3 L 156.187 181.054 L 155.603 180.97 L 154.099 180.97 L 154.099 185.47 L 154.099 185.47 z M 155.434 181.521 L 155.83 181.56 L 156.109 181.683 L 156.284 181.91 L 156.342 182.267 L 156.277 182.643 L 156.102 182.87 L 155.804 182.986 L 155.396 183.019 L 154.702 183.019 L 154.702 181.521 L 155.434 181.521 L 155.434 181.521 z M 158.605 183.894 L 160.888 183.894 L 160.894 183.628 L 160.79 182.883 L 160.505 182.325 L 160.051 181.988 L 159.448 181.865 L 158.858 181.994 L 158.404 182.357 L 158.112 182.947 L 158.009 183.726 L 158.106 184.523 L 158.398 185.107 L 158.845 185.47 L 159.429 185.593 L 159.934 185.509 L 160.349 185.288 L 160.654 184.938 L 160.829 184.471 L 160.265 184.471 L 160.148 184.731 L 159.98 184.925 L 159.5 185.081 L 159.13 185.009 L 158.852 184.782 L 158.67 184.413 L 158.605 183.914 L 158.605 183.894 L 158.605 183.894 z M 158.605 183.414 L 158.677 182.967 L 158.852 182.636 L 159.117 182.435 L 159.468 182.364 L 159.811 182.435 L 160.077 182.636 L 160.239 182.967 L 160.298 183.414 L 158.605 183.414 L 158.605 183.414 z M 164.078 185.016 L 164.078 185.035 L 164.11 185.256 L 164.207 185.411 L 164.616 185.535 L 164.934 185.483 L 164.934 185.042 L 164.798 185.061 L 164.616 184.977 L 164.584 184.718 L 164.584 182.915 L 164.506 182.455 L 164.279 182.13 L 163.883 181.936 L 163.326 181.865 L 162.781 181.942 L 162.379 182.163 L 162.126 182.506 L 162.042 182.96 L 162.042 182.999 L 162.554 182.999 L 162.599 182.727 L 162.742 182.532 L 162.976 182.416 L 163.306 182.37 L 163.624 182.403 L 163.851 182.5 L 163.987 182.669 L 164.032 182.902 L 164.006 183.174 L 163.903 183.311 L 163.643 183.375 L 163.157 183.427 L 162.599 183.544 L 162.204 183.751 L 161.97 184.076 L 161.899 184.555 L 161.964 184.983 L 162.165 185.301 L 162.489 185.502 L 162.937 185.573 L 163.54 185.437 L 164.078 185.016 L 164.078 185.016 z M 164.013 184.251 L 163.935 184.588 L 163.728 184.847 L 163.416 185.016 L 163.034 185.074 L 162.787 185.042 L 162.612 184.938 L 162.502 184.756 L 162.47 184.504 L 162.496 184.277 L 162.599 184.115 L 163.014 183.933 L 163.54 183.855 L 164.013 183.7 L 164.013 184.251 L 164.013 184.251 z M 166.127 185.47 L 166.697 185.47 L 166.697 183.479 L 166.756 182.999 L 166.931 182.656 L 167.216 182.448 L 167.599 182.377 L 167.884 182.422 L 168.098 182.552 L 168.228 182.772 L 168.273 183.071 L 168.85 183.071 L 168.772 182.545 L 168.558 182.169 L 168.202 181.942 L 167.715 181.865 L 167.385 181.916 L 167.099 182.046 L 166.847 182.267 L 166.646 182.565 L 166.646 181.988 L 166.127 181.988 L 166.127 185.47 L 166.127 185.47 z M 173.746 185.47 L 176.638 185.47 L 176.638 184.925 L 174.342 184.925 L 174.342 180.97 L 173.746 180.97 L 173.746 185.47 L 173.746 185.47 z M 178.122 183.894 L 180.405 183.894 L 180.411 183.628 L 180.308 182.883 L 180.022 182.325 L 179.568 181.988 L 178.965 181.865 L 178.375 181.994 L 177.921 182.357 L 177.63 182.947 L 177.526 183.726 L 177.623 184.523 L 177.915 185.107 L 178.362 185.47 L 178.946 185.593 L 179.452 185.509 L 179.867 185.288 L 180.171 184.938 L 180.347 184.471 L 179.782 184.471 L 179.666 184.731 L 179.497 184.925 L 179.017 185.081 L 178.648 185.009 L 178.369 184.782 L 178.187 184.413 L 178.122 183.914 L 178.122 183.894 L 178.122 183.894 z M 178.122 183.414 L 178.194 182.967 L 178.369 182.636 L 178.635 182.435 L 178.985 182.364 L 179.329 182.435 L 179.594 182.636 L 179.756 182.967 L 179.815 183.414 L 178.122 183.414 L 178.122 183.414 z M 182.318 182.591 L 182.318 185.47 L 182.888 185.47 L 182.888 182.591 L 184.185 182.591 L 184.185 182.104 L 182.888 182.104 L 182.888 181.89 L 182.934 181.631 L 183.083 181.456 L 183.336 181.352 L 183.699 181.313 L 184.185 181.339 L 184.185 180.847 L 183.569 180.814 L 183.012 180.872 L 182.622 181.048 L 182.389 181.352 L 182.318 181.787 L 182.318 182.104 L 181.274 182.104 L 181.274 182.591 L 182.318 182.591 L 182.318 182.591 z M 186.195 182.591 L 186.195 184.335 L 186.234 184.899 L 186.416 185.288 L 186.779 185.515 L 187.395 185.593 L 188.069 185.561 L 188.069 185.068 L 187.576 185.107 L 187.129 185.055 L 186.889 184.893 L 186.785 184.62 L 186.766 184.238 L 186.766 182.591 L 188.069 182.591 L 188.069 182.104 L 186.766 182.104 L 186.766 181.086 L 186.195 181.086 L 186.195 182.104 L 185.21 182.104 L 185.21 182.591 L 186.195 182.591 L 186.195 182.591 z M 193.03 183.758 L 193.12 184.568 L 193.406 185.146 L 193.885 185.476 L 194.579 185.593 L 195.267 185.476 L 195.746 185.146 L 196.032 184.575 L 196.129 183.758 L 196.129 180.97 L 195.526 180.97 L 195.526 183.79 L 195.468 184.341 L 195.292 184.737 L 194.994 184.97 L 194.579 185.048 L 194.151 184.97 L 193.853 184.737 L 193.678 184.348 L 193.626 183.79 L 193.626 180.97 L 193.03 180.97 L 193.03 183.758 L 193.03 183.758 z M 197.679 182.526 L 197.679 181.988 L 197.108 181.988 L 197.108 186.818 L 197.679 186.818 L 197.679 184.938 L 197.88 185.243 L 198.107 185.444 L 198.677 185.593 L 199.222 185.47 L 199.65 185.1 L 199.929 184.517 L 200.032 183.726 L 199.929 182.941 L 199.65 182.357 L 199.222 181.994 L 198.677 181.865 L 198.366 181.903 L 198.1 182.027 L 197.873 182.234 L 197.679 182.526 L 197.679 182.526 z M 198.58 185.081 L 198.197 184.996 L 197.919 184.737 L 197.744 184.316 L 197.685 183.726 L 197.744 183.142 L 197.919 182.72 L 198.197 182.468 L 198.58 182.377 L 198.93 182.468 L 199.209 182.727 L 199.384 183.148 L 199.449 183.726 L 199.384 184.309 L 199.209 184.737 L 198.93 184.996 L 198.58 185.081 L 198.58 185.081 z M 201.582 182.526 L 201.582 181.988 L 201.012 181.988 L 201.012 186.818 L 201.582 186.818 L 201.582 184.938 L 201.783 185.243 L 202.01 185.444 L 202.581 185.593 L 203.125 185.47 L 203.553 185.1 L 203.832 184.517 L 203.936 183.726 L 203.832 182.941 L 203.553 182.357 L 203.125 181.994 L 202.581 181.865 L 202.269 181.903 L 202.004 182.027 L 201.777 182.234 L 201.582 182.526 L 201.582 182.526 z M 202.483 185.081 L 202.101 184.996 L 201.822 184.737 L 201.647 184.316 L 201.589 183.726 L 201.647 183.142 L 201.822 182.72 L 202.101 182.468 L 202.483 182.377 L 202.834 182.468 L 203.112 182.727 L 203.287 183.148 L 203.352 183.726 L 203.287 184.309 L 203.112 184.737 L 202.834 184.996 L 202.483 185.081 L 202.483 185.081 z M 205.447 183.894 L 207.729 183.894 L 207.736 183.628 L 207.632 182.883 L 207.347 182.325 L 206.893 181.988 L 206.29 181.865 L 205.7 181.994 L 205.246 182.357 L 204.954 182.947 L 204.85 183.726 L 204.947 184.523 L 205.239 185.107 L 205.687 185.47 L 206.27 185.593 L 206.776 185.509 L 207.191 185.288 L 207.496 184.938 L 207.671 184.471 L 207.107 184.471 L 206.99 184.731 L 206.821 184.925 L 206.341 185.081 L 205.972 185.009 L 205.693 184.782 L 205.512 184.413 L 205.447 183.914 L 205.447 183.894 L 205.447 183.894 z M 205.447 183.414 L 205.518 182.967 L 205.693 182.636 L 205.959 182.435 L 206.309 182.364 L 206.653 182.435 L 206.919 182.636 L 207.081 182.967 L 207.139 183.414 L 205.447 183.414 L 205.447 183.414 z M 209.065 185.47 L 209.635 185.47 L 209.635 183.479 L 209.694 182.999 L 209.869 182.656 L 210.154 182.448 L 210.537 182.377 L 210.822 182.422 L 211.036 182.552 L 211.166 182.772 L 211.211 183.071 L 211.788 183.071 L 211.71 182.545 L 211.496 182.169 L 211.14 181.942 L 210.653 181.865 L 210.323 181.916 L 210.037 182.046 L 209.785 182.267 L 209.584 182.565 L 209.584 181.988 L 209.065 181.988 L 209.065 185.47 L 209.065 185.47 z M 216.029 185.47 L 216.625 185.47 L 217.099 184.147 L 218.895 184.147 L 219.368 185.47 L 219.978 185.47 L 218.331 180.963 L 217.669 180.963 L 216.029 185.47 L 216.029 185.47 z M 217.306 183.596 L 218 181.612 L 218.694 183.596 L 217.306 183.596 L 217.306 183.596 z M 221.119 183.985 L 222.688 183.985 L 222.688 183.473 L 221.119 183.473 L 221.119 183.985 L 221.119 183.985 z M 223.836 185.47 L 224.432 185.47 L 224.906 184.147 L 226.702 184.147 L 227.175 185.47 L 227.785 185.47 L 226.138 180.963 L 225.476 180.963 L 223.836 185.47 L 223.836 185.47 z M 225.113 183.596 L 225.807 181.612 L 226.501 183.596 L 225.113 183.596 L 225.113 183.596 z M 228.582 185.47 L 229.153 185.47 L 229.153 183.479 L 229.211 182.999 L 229.386 182.656 L 229.671 182.448 L 230.054 182.377 L 230.339 182.422 L 230.553 182.552 L 230.683 182.772 L 230.728 183.071 L 231.305 183.071 L 231.228 182.545 L 231.014 182.169 L 230.657 181.942 L 230.171 181.865 L 229.84 181.916 L 229.555 182.046 L 229.302 182.267 L 229.101 182.565 L 229.101 181.988 L 228.582 181.988 L 228.582 185.47 L 228.582 185.47 z M 232.045 185.47 L 232.57 185.47 L 232.57 183.142 L 232.602 182.792 L 232.7 182.539 L 232.849 182.39 L 233.043 182.331 L 233.199 182.383 L 233.303 182.513 L 233.354 182.733 L 233.374 183.025 L 233.374 185.47 L 233.867 185.47 L 233.867 183.142 L 233.899 182.798 L 233.996 182.545 L 234.152 182.39 L 234.347 182.331 L 234.502 182.383 L 234.606 182.513 L 234.671 183.025 L 234.671 185.47 L 235.196 185.47 L 235.196 183.064 L 235.164 182.565 L 235.06 182.182 L 234.852 181.949 L 234.515 181.865 L 234.12 181.994 L 233.815 182.37 L 233.575 182.001 L 233.173 181.865 L 232.803 181.994 L 232.55 182.357 L 232.55 181.988 L 232.045 181.988 L 232.045 185.47 L 232.045 185.47 z M 240.091 185.47 L 240.695 185.47 L 240.695 183.401 L 242.588 183.401 L 242.588 182.863 L 240.695 182.863 L 240.695 181.514 L 243.022 181.514 L 243.022 180.97 L 240.091 180.97 L 240.091 185.47 L 240.091 185.47 z M 244.196 185.47 L 244.767 185.47 L 244.767 183.479 L 244.825 182.999 L 245 182.656 L 245.285 182.448 L 245.668 182.377 L 245.953 182.422 L 246.167 182.552 L 246.297 182.772 L 246.342 183.071 L 246.919 183.071 L 246.841 182.545 L 246.628 182.169 L 246.271 181.942 L 245.785 181.865 L 245.454 181.916 L 245.169 182.046 L 244.916 182.267 L 244.715 182.565 L 244.715 181.988 L 244.196 181.988 L 244.196 185.47 L 244.196 185.47 z M 247.717 183.732 L 247.821 184.523 L 248.119 185.107 L 248.592 185.47 L 249.228 185.593 L 249.857 185.47 L 250.33 185.113 L 250.628 184.53 L 250.738 183.732 L 250.628 182.941 L 250.33 182.351 L 249.857 181.994 L 249.228 181.865 L 248.592 181.994 L 248.119 182.357 L 247.821 182.941 L 247.717 183.732 L 247.717 183.732 z M 248.3 183.726 L 248.359 183.142 L 248.54 182.72 L 248.832 182.461 L 249.228 182.37 L 249.617 182.461 L 249.908 182.714 L 250.09 183.142 L 250.155 183.726 L 250.09 184.316 L 249.908 184.744 L 249.617 185.003 L 249.228 185.087 L 248.832 185.003 L 248.54 184.744 L 248.359 184.316 L 248.3 183.726 L 248.3 183.726 z M 251.789 185.47 L 252.359 185.47 L 252.359 183.46 L 252.418 182.999 L 252.606 182.662 L 252.898 182.455 L 253.287 182.377 L 253.598 182.442 L 253.792 182.617 L 253.89 182.909 L 253.922 183.298 L 253.922 185.47 L 254.493 185.47 L 254.493 183.181 L 254.467 182.72 L 254.35 182.338 L 253.968 181.988 L 253.371 181.865 L 253.04 181.91 L 252.762 182.033 L 252.522 182.241 L 252.334 182.519 L 252.334 181.988 L 251.789 181.988 L 251.789 185.47 L 251.789 185.47 z M 256.457 182.591 L 256.457 184.335 L 256.496 184.899 L 256.678 185.288 L 257.041 185.515 L 257.657 185.593 L 258.331 185.561 L 258.331 185.068 L 257.839 185.107 L 257.391 185.055 L 257.151 184.893 L 257.048 184.62 L 257.028 184.238 L 257.028 182.591 L 258.331 182.591 L 258.331 182.104 L 257.028 182.104 L 257.028 181.086 L 256.457 181.086 L 256.457 182.104 L 255.472 182.104 L 255.472 182.591 L 256.457 182.591 L 256.457 182.591 z M 263.525 185.47 L 266.417 185.47 L 266.417 184.925 L 264.122 184.925 L 264.122 180.97 L 263.525 180.97 L 263.525 185.47 L 263.525 185.47 z M 267.234 183.732 L 267.338 184.523 L 267.636 185.107 L 268.109 185.47 L 268.745 185.593 L 269.374 185.47 L 269.847 185.113 L 270.145 184.53 L 270.256 183.732 L 270.145 182.941 L 269.847 182.351 L 269.374 181.994 L 268.745 181.865 L 268.109 181.994 L 267.636 182.357 L 267.338 182.941 L 267.234 183.732 L 267.234 183.732 z M 267.818 183.726 L 267.876 183.142 L 268.058 182.72 L 268.349 182.461 L 268.745 182.37 L 269.134 182.461 L 269.426 182.714 L 269.607 183.142 L 269.672 183.726 L 269.607 184.316 L 269.426 184.744 L 269.134 185.003 L 268.745 185.087 L 268.349 185.003 L 268.058 184.744 L 267.876 184.316 L 267.818 183.726 L 267.818 183.726 z M 272.13 185.47 L 272.648 182.513 L 273.167 185.47 L 273.712 185.47 L 274.568 181.988 L 274.017 181.988 L 273.439 184.945 L 272.927 181.988 L 272.363 181.988 L 271.851 184.945 L 271.274 181.988 L 270.729 181.988 L 271.585 185.47 L 272.13 185.47 L 272.13 185.47 z M 275.709 183.894 L 277.991 183.894 L 277.998 183.628 L 277.894 182.883 L 277.609 182.325 L 277.155 181.988 L 276.552 181.865 L 275.962 181.994 L 275.508 182.357 L 275.216 182.947 L 275.112 183.726 L 275.21 184.523 L 275.501 185.107 L 275.949 185.47 L 276.532 185.593 L 277.038 185.509 L 277.453 185.288 L 277.758 184.938 L 277.933 184.471 L 277.369 184.471 L 277.252 184.731 L 277.083 184.925 L 276.604 185.081 L 276.234 185.009 L 275.955 184.782 L 275.774 184.413 L 275.709 183.914 L 275.709 183.894 L 275.709 183.894 z M 275.709 183.414 L 275.78 182.967 L 275.955 182.636 L 276.221 182.435 L 276.571 182.364 L 276.915 182.435 L 277.181 182.636 L 277.343 182.967 L 277.401 183.414 L 275.709 183.414 L 275.709 183.414 z M 279.327 185.47 L 279.898 185.47 L 279.898 183.479 L 279.956 182.999 L 280.131 182.656 L 280.416 182.448 L 280.799 182.377 L 281.084 182.422 L 281.298 182.552 L 281.428 182.772 L 281.473 183.071 L 282.05 183.071 L 281.973 182.545 L 281.759 182.169 L 281.402 181.942 L 280.916 181.865 L 280.585 181.916 L 280.3 182.046 L 280.047 182.267 L 279.846 182.565 L 279.846 181.988 L 279.327 181.988 L 279.327 185.47 L 279.327 185.47 z" stroke="none" fill-rule="evenodd" fill="rgb(0, 0, 0)"/></g><g stroke="rgb(0, 0, 0)" stroke-width="0.13" stroke-linecap="butt" stroke-linejoin="miter" fill="none"><path d="M 139.735 97.5245 L 140.204 97.5245 L 140.204 96.0468 L 140.683 96.0468 L 141.036 96.062 L 141.258 96.1326 L 141.379 96.299 L 141.43 96.5965 L 141.455 97.0504 L 141.485 97.348 L 141.546 97.5245 L 142.075 97.5245 L 142.075 97.4287 L 141.959 97.2875 L 141.919 97.0252 L 141.884 96.4604 L 141.798 96.0418 L 141.682 95.9107 L 141.5 95.8148 L 141.702 95.6888 L 141.843 95.5123 L 141.934 95.2904 L 141.964 95.0231 L 141.894 94.5994 L 141.692 94.2817 L 141.359 94.0901 L 140.905 94.0245 L 139.735 94.0245 L 139.735 97.5245 L 139.735 97.5245 z M 140.774 94.4532 L 141.082 94.4834 L 141.299 94.5793 L 141.435 94.7558 L 141.48 95.0331 L 141.43 95.3257 L 141.294 95.5022 L 141.062 95.5929 L 140.744 95.6182 L 140.204 95.6182 L 140.204 94.4532 L 140.774 94.4532 L 140.774 94.4532 z M 142.872 97.5245 L 145.121 97.5245 L 145.121 97.1009 L 143.336 97.1009 L 143.336 94.0245 L 142.872 94.0245 L 142.872 97.5245 L 142.872 97.5245 z M 145.727 96.1931 L 145.797 96.8235 L 146.019 97.2723 L 146.392 97.5295 L 146.932 97.6203 L 147.466 97.5295 L 147.84 97.2723 L 148.062 96.8285 L 148.137 96.1931 L 148.137 94.0245 L 147.668 94.0245 L 147.668 96.2183 L 147.623 96.647 L 147.487 96.9546 L 147.255 97.1362 L 146.932 97.1967 L 146.599 97.1362 L 146.367 96.9546 L 146.231 96.652 L 146.19 96.2183 L 146.19 94.0245 L 145.727 94.0245 L 145.727 96.1931 L 145.727 96.1931 z M 149.358 96.3696 L 150.578 96.3696 L 150.578 95.9712 L 149.358 95.9712 L 149.358 96.3696 L 149.358 96.3696 z" stroke="none" fill-rule="evenodd" fill="rgb(0, 0, 0)"/></g><g stroke="rgb(0, 0, 0)" stroke-width="0.13" stroke-linecap="butt" stroke-linejoin="miter" fill="none"><path d="M 139.826 103.571 L 140.295 103.571 L 140.295 101.963 L 141.768 101.963 L 141.768 101.544 L 140.295 101.544 L 140.295 100.495 L 142.105 100.495 L 142.105 100.071 L 139.826 100.071 L 139.826 103.571 L 139.826 103.571 z M 142.872 103.571 L 145.121 103.571 L 145.121 103.148 L 143.336 103.148 L 143.336 100.071 L 142.872 100.071 L 142.872 103.571 L 142.872 103.571 z M 145.727 102.24 L 145.797 102.87 L 146.019 103.319 L 146.392 103.576 L 146.932 103.667 L 147.466 103.576 L 147.84 103.319 L 148.062 102.875 L 148.137 102.24 L 148.137 100.071 L 147.668 100.071 L 147.668 102.265 L 147.623 102.694 L 147.487 103.001 L 147.255 103.183 L 146.932 103.244 L 146.599 103.183 L 146.367 103.001 L 146.231 102.699 L 146.19 102.265 L 146.19 100.071 L 145.727 100.071 L 145.727 102.24 L 145.727 102.24 z" stroke="none" fill-rule="evenodd" fill="rgb(0, 0, 0)"/></g><g stroke="rgb(0, 0, 0)" stroke-width="0.13" stroke-linecap="butt" stroke-linejoin="miter" fill="none"><path d="M 206.026 99.4519 L 206.495 99.4519 L 206.495 97.9743 L 206.974 97.9743 L 207.327 97.9894 L 207.549 98.06 L 207.67 98.2264 L 207.721 98.524 L 207.746 98.9779 L 207.776 99.2754 L 207.837 99.4519 L 208.366 99.4519 L 208.366 99.3561 L 208.25 99.2149 L 208.21 98.9527 L 208.175 98.3878 L 208.089 97.9692 L 207.973 97.8381 L 207.791 97.7423 L 207.993 97.6162 L 208.134 97.4397 L 208.225 97.2178 L 208.255 96.9505 L 208.185 96.5269 L 207.983 96.2091 L 207.65 96.0175 L 207.196 95.9519 L 206.026 95.9519 L 206.026 99.4519 L 206.026 99.4519 z M 207.065 96.3806 L 207.373 96.4109 L 207.59 96.5067 L 207.726 96.6832 L 207.771 96.9606 L 207.721 97.2531 L 207.584 97.4296 L 207.353 97.5204 L 207.035 97.5456 L 206.495 97.5456 L 206.495 96.3806 L 207.065 96.3806 L 207.065 96.3806 z M 209.163 99.4519 L 211.412 99.4519 L 211.412 99.0283 L 209.627 99.0283 L 209.627 95.9519 L 209.163 95.9519 L 209.163 99.4519 L 209.163 99.4519 z M 212.017 98.1205 L 212.088 98.7509 L 212.31 99.1998 L 212.683 99.457 L 213.223 99.5477 L 213.757 99.457 L 214.131 99.1998 L 214.352 98.756 L 214.428 98.1205 L 214.428 95.9519 L 213.959 95.9519 L 213.959 98.1457 L 213.914 98.5744 L 213.778 98.882 L 213.546 99.0636 L 213.223 99.1241 L 212.89 99.0636 L 212.658 98.882 L 212.522 98.5795 L 212.481 98.1457 L 212.481 95.9519 L 212.017 95.9519 L 212.017 98.1205 L 212.017 98.1205 z M 215.649 98.297 L 216.869 98.297 L 216.869 97.8986 L 215.649 97.8986 L 215.649 98.297 L 215.649 98.297 z" stroke="none" fill-rule="evenodd" fill="rgb(0, 0, 0)"/></g><g stroke="rgb(0, 0, 0)" stroke-width="0.13" stroke-linecap="butt" stroke-linejoin="miter" fill="none"><path d="M 206.117 105.499 L 206.586 105.499 L 206.586 103.89 L 208.059 103.89 L 208.059 103.471 L 206.586 103.471 L 206.586 102.422 L 208.396 102.422 L 208.396 101.999 L 206.117 101.999 L 206.117 105.499 L 206.117 105.499 z M 209.163 105.499 L 211.412 105.499 L 211.412 105.075 L 209.627 105.075 L 209.627 101.999 L 209.163 101.999 L 209.163 105.499 L 209.163 105.499 z M 213.218 101.999 L 212.053 101.999 L 212.053 105.499 L 213.218 105.499 L 213.767 105.388 L 214.176 105.05 L 214.428 104.5 L 214.519 103.749 L 214.438 102.982 L 214.337 102.68 L 214.196 102.438 L 213.788 102.11 L 213.52 102.029 L 213.218 101.999 L 213.218 101.999 z M 213.182 102.417 L 213.566 102.493 L 213.828 102.725 L 213.984 103.139 L 214.035 103.749 L 213.979 104.339 L 213.823 104.752 L 213.556 104.999 L 213.182 105.08 L 212.522 105.08 L 212.522 102.417 L 213.182 102.417 L 213.182 102.417 z" stroke="none" fill-rule="evenodd" fill="rgb(0, 0, 0)"/></g></svg>