  0
SECTION
  2
HEADER
  9
$ACADVER
  1
AC1006
  9
$EXTMIN
 10
0.000000
 20
0.000000
 30
0.000000
  9
$EXTMAX
 10
488.000000
 20
451.000000
 30
0.000000
  0
ENDSEC
  0
SECTION
  2
ENTITIES
  0
POLYLINE
  8
0
 66
1
 70
1
  0
VERTEX
  8
0
 10
0.000000
 20
225.500000
 42
0.000000
  0
VERTEX
  8
0
 10
0.000000
 20
0.000000
 42
0.000000
  0
VERTEX
  8
0
 10
244.000000
 20
0.000000
 42
0.000000
  0
VERTEX
  8
0
 10
488.000000
 20
0.000000
 42
0.000000
  0
VERTEX
  8
0
 10
488.000000
 20
225.500000
 42
0.000000
  0
VERTEX
  8
0
 10
488.000000
 20
451.000000
 42
0.000000
  0
VERTEX
  8
0
 10
375.250000
 20
450.988135
 42
0.000000
  0
VERTEX
  8
0
 10
262.500000
 20
450.976270
 42
0.000000
  0
VERTEX
  8
0
 10
259.092039
 20
444.738135
 42
-0.020401
  0
VERTEX
  8
0
 10
255.502243
 20
438.760339
 42
-0.018166
  0
VERTEX
  8
0
 10
251.302918
 20
432.852317
 42
-0.018803
  0
VERTEX
  8
0
 10
246.911714
 20
427.551866
 42
-0.030469
  0
VERTEX
  8
0
 10
242.754434
 20
423.435763
 42
0.010521
  0
VERTEX
  8
0
 10
241.225724
 20
422.038390
 42
0.028768
  0
VERTEX
  8
0
 10
240.226332
 20
420.969245
 42
0.105431
  0
VERTEX
  8
0
 10
239.947240
 20
420.438462
 42
0.606329
  0
VERTEX
  8
0
 10
240.122440
 20
420.273710
 42
-0.024373
  0
VERTEX
  8
0
 10
257.003001
 20
425.250714
 42
-0.014984
  0
VERTEX
  8
0
 10
277.286418
 20
429.531821
 42
-0.014050
  0
VERTEX
  8
0
 10
299.552386
 20
432.895794
 42
-0.013096
  0
VERTEX
  8
0
 10
322.500000
 20
435.097642
 42
-0.013727
  0
VERTEX
  8
0
 10
336.567746
 20
435.689058
 42
-0.006694
  0
VERTEX
  8
0
 10
354.536185
 20
435.710208
 42
-0.006240
  0
VERTEX
  8
0
 10
371.784862
 20
435.284258
 42
-0.024767
  0
VERTEX
  8
0
 10
382.339442
 20
434.366953
 42
0.000000
  0
VERTEX
  8
0
 10
387.152284
 20
433.707279
 42
0.000000
  0
VERTEX
  8
0
 10
373.826142
 20
428.295453
 42
0.009476
  0
VERTEX
  8
0
 10
361.378280
 20
422.963315
 42
0.005024
  0
VERTEX
  8
0
 10
346.148597
 20
415.910142
 42
0.000769
  0
VERTEX
  8
0
 10
330.277206
 20
408.335260
 42
0.517235
  0
VERTEX
  8
0
 10
330.139148
 20
407.527518
 42
0.234410
  0
VERTEX
  8
0
 10
330.548344
 20
407.389690
 42
0.002354
  0
VERTEX
  8
0
 10
333.674980
 20
407.831330
 42
0.007014
  0
VERTEX
  8
0
 10
337.312395
 20
408.414825
 42
0.004417
  0
VERTEX
  8
0
 10
341.544452
 20
409.193341
 42
-0.014518
  0
VERTEX
  8
0
 10
348.143340
 20
410.269937
 42
-0.016249
  0
VERTEX
  8
0
 10
354.550456
 20
410.914040
 42
-0.012017
  0
VERTEX
  8
0
 10
362.402275
 20
411.257095
 42
-0.003920
  0
VERTEX
  8
0
 10
374.000000
 20
411.393837
 42
-0.004645
  0
VERTEX
  8
0
 10
383.506395
 20
411.343061
 42
-0.006717
  0
VERTEX
  8
0
 10
391.904686
 20
411.107288
 42
-0.007431
  0
VERTEX
  8
0
 10
398.831254
 20
410.716473
 42
-0.022772
  0
VERTEX
  8
0
 10
403.500000
 20
410.168854
 42
-0.018081
  0
VERTEX
  8
0
 10
419.033882
 20
407.044952
 42
-0.018535
  0
VERTEX
  8
0
 10
434.171926
 20
402.828012
 42
-0.018901
  0
VERTEX
  8
0
 10
448.658944
 20
397.596567
 42
-0.020808
  0
VERTEX
  8
0
 10
462.242234
 20
391.433483
 42
-0.014362
  0
VERTEX
  8
0
 10
469.562615
 20
387.469633
 42
-0.008217
  0
VERTEX
  8
0
 10
478.174841
 20
382.290412
 42
-0.008308
  0
VERTEX
  8
0
 10
485.031171
 20
377.852238
 42
-0.867416
  0
VERTEX
  8
0
 10
484.794437
 20
377.361334
 42
0.017977
  0
VERTEX
  8
0
 10
479.198295
 20
378.919933
 42
0.002816
  0
VERTEX
  8
0
 10
468.044862
 20
381.531975
 42
0.003257
  0
VERTEX
  8
0
 10
456.702666
 20
384.043308
 42
0.010539
  0
VERTEX
  8
0
 10
449.127777
 20
385.502538
 42
0.015549
  0
VERTEX
  8
0
 10
438.420858
 20
386.991038
 42
0.012653
  0
VERTEX
  8
0
 10
426.879044
 20
387.936539
 42
0.012959
  0
VERTEX
  8
0
 10
415.801992
 20
388.274664
 42
0.022197
  0
VERTEX
  8
0
 10
406.565894
 20
387.906980
 42
0.041818
  0
VERTEX
  8
0
 10
391.944085
 20
385.430712
 42
0.054198
  0
VERTEX
  8
0
 10
379.223501
 20
380.647853
 42
0.029846
  0
VERTEX
  8
0
 10
363.036047
 20
371.215307
 42
0.004695
  0
VERTEX
  8
0
 10
332.517860
 20
350.485503
 42
-0.011371
  0
VERTEX
  8
0
 10
297.374891
 20
327.293891
 42
-0.025298
  0
VERTEX
  8
0
 10
269.401568
 20
311.647082
 42
-0.033208
  0
VERTEX
  8
0
 10
246.025165
 20
301.955640
 42
-0.057132
  0
VERTEX
  8
0
 10
225.445460
 20
297.515815
 42
0.000000
  0
VERTEX
  8
0
 10
218.500000
 20
296.830578
 42
0.000000
  0
VERTEX
  8
0
 10
225.957924
 20
300.475883
 42
0.057512
  0
VERTEX
  8
0
 10
244.155805
 20
312.128118
 42
0.110342
  0
VERTEX
  8
0
 10
254.819457
 20
325.683167
 42
0.172152
  0
VERTEX
  8
0
 10
256.179403
 20
338.487004
 42
0.187828
  0
VERTEX
  8
0
 10
249.075165
 20
348.728330
 42
0.048132
  0
VERTEX
  8
0
 10
245.238599
 20
350.808362
 42
0.043242
  0
VERTEX
  8
0
 10
240.936048
 20
352.206467
 42
0.036539
  0
VERTEX
  8
0
 10
235.822654
 20
353.003925
 42
0.020169
  0
VERTEX
  8
0
 10
229.500000
 20
353.265389
 42
0.039778
  0
VERTEX
  8
0
 10
218.192545
 20
352.375742
 42
0.029897
  0
VERTEX
  8
0
 10
206.004052
 20
349.678222
 42
0.027165
  0
VERTEX
  8
0
 10
193.039284
 20
345.209945
 42
0.020798
  0
VERTEX
  8
0
 10
179.394744
 20
338.988480
 42
0.020991
  0
VERTEX
  8
0
 10
162.980027
 20
329.777198
 42
0.030118
  0
VERTEX
  8
0
 10
149.346948
 20
320.176263
 42
0.034811
  0
VERTEX
  8
0
 10
138.900812
 20
310.573139
 42
0.067134
  0
VERTEX
  8
0
 10
132.276948
 20
301.368230
 42
0.029672
  0
VERTEX
  8
0
 10
129.526481
 20
295.376779
 42
0.071843
  0
VERTEX
  8
0
 10
128.430102
 20
290.643150
 42
0.070252
  0
VERTEX
  8
0
 10
128.706150
 20
285.728684
 42
0.027405
  0
VERTEX
  8
0
 10
130.400524
 20
279.125555
 42
-0.036641
  0
VERTEX
  8
0
 10
132.576078
 20
269.946937
 42
-0.070742
  0
VERTEX
  8
0
 10
132.713428
 20
262.413672
 42
-0.100875
  0
VERTEX
  8
0
 10
130.888719
 20
256.981907
 42
-0.172253
  0
VERTEX
  8
0
 10
127.283768
 20
253.917789
 42
-0.080722
  0
VERTEX
  8
0
 10
125.289646
 20
253.508937
 42
-0.006865
  0
VERTEX
  8
0
 10
120.045077
 20
253.365202
 42
-0.007962
  0
VERTEX
  8
0
 10
113.202504
 20
253.380623
 42
-0.003967
  0
VERTEX
  8
0
 10
104.539435
 20
253.606872
 42
0.005881
  0
VERTEX
  8
0
 10
90.251270
 20
253.925297
 42
0.037984
  0
VERTEX
  8
0
 10
83.058572
 20
253.454139
 42
0.078293
  0
VERTEX
  8
0
 10
78.523580
 20
252.063166
 42
0.091001
  0
VERTEX
  8
0
 10
74.897050
 20
249.389004
 42
0.045386
  0
VERTEX
  8
0
 10
73.725087
 20
247.888892
 42
0.066365
  0
VERTEX
  8
0
 10
73.012186
 20
246.374434
 42
0.056562
  0
VERTEX
  8
0
 10
72.653245
 20
244.551532
 42
0.024024
  0
VERTEX
  8
0
 10
72.570042
 20
242.059589
 42
0.041390
  0
VERTEX
  8
0
 10
72.976511
 20
237.899369
 42
0.046386
  0
VERTEX
  8
0
 10
74.060589
 20
234.025029
 42
0.028699
  0
VERTEX
  8
0
 10
76.259221
 20
229.140037
 42
0.006250
  0
VERTEX
  8
0
 10
80.630354
 20
221.000000
 42
-0.021529
  0
VERTEX
  8
0
 10
84.475930
 20
213.281897
 42
-0.014191
  0
VERTEX
  8
0
 10
88.254327
 20
204.111298
 42
-0.011873
  0
VERTEX
  8
0
 10
91.288118
 20
195.499104
 42
-0.078900
  0
VERTEX
  8
0
 10
92.000000
 20
191.015901
 42
-0.498822
  0
VERTEX
  8
0
 10
91.542020
 20
190.671065
 42
-0.126819
  0
VERTEX
  8
0
 10
90.594761
 20
191.229028
 42
-0.031383
  0
VERTEX
  8
0
 10
88.796836
 20
193.264759
 42
-0.006137
  0
VERTEX
  8
0
 10
85.842728
 20
197.163406
 42
0.020841
  0
VERTEX
  8
0
 10
79.222106
 20
205.386983
 42
0.024284
  0
VERTEX
  8
0
 10
72.252742
 20
212.602272
 42
0.026525
  0
VERTEX
  8
0
 10
65.394292
 20
218.392427
 42
0.047694
  0
VERTEX
  8
0
 10
59.132953
 20
222.255311
 42
0.016337
  0
VERTEX
  8
0
 10
55.423461
 20
223.933251
 42
0.038152
  0
VERTEX
  8
0
 10
52.529073
 20
224.879131
 42
0.040065
  0
VERTEX
  8
0
 10
49.611625
 20
225.348461
 42
0.019786
  0
VERTEX
  8
0
 10
45.858131
 20
225.498115
 42
0.012555
  0
VERTEX
  8
0
 10
42.148220
 20
225.405993
 42
0.050931
  0
VERTEX
  8
0
 10
39.916985
 20
225.064877
 42
0.074618
  0
VERTEX
  8
0
 10
38.252339
 20
224.356280
 42
0.050607
  0
VERTEX
  8
0
 10
36.612295
 20
223.102950
 42
0.101664
  0
VERTEX
  8
0
 10
33.840094
 20
219.174345
 42
0.072017
  0
VERTEX
  8
0
 10
32.406450
 20
213.955402
 42
0.054001
  0
VERTEX
  8
0
 10
32.295331
 20
207.182565
 42
0.025351
  0
VERTEX
  8
0
 10
33.538242
 20
198.500000
 42
-0.019916
  0
VERTEX
  8
0
 10
33.816840
 20
196.693909
 42
-0.572247
  0
VERTEX
  8
0
 10
33.511066
 20
196.464105
 42
-0.104718
  0
VERTEX
  8
0
 10
32.797056
 20
196.956485
 42
-0.002363
  0
VERTEX
  8
0
 10
29.940714
 20
200.000000
 42
-0.023151
  0
VERTEX
  8
0
 10
25.538424
 20
205.198399
 42
-0.019108
  0
VERTEX
  8
0
 10
21.329068
 20
211.117610
 42
-0.018344
  0
VERTEX
  8
0
 10
17.409710
 20
217.607946
 42
-0.017090
  0
VERTEX
  8
0
 10
13.877261
 20
224.520846
 42
-0.024287
  0
VERTEX
  8
0
 10
11.068728
 20
231.359937
 42
-0.015833
  0
VERTEX
  8
0
 10
8.469232
 20
239.490931
 42
-0.007727
  0
VERTEX
  8
0
 10
6.360349
 20
247.345125
 42
-0.268481
  0
VERTEX
  8
0
 10
6.864692
 20
249.114166
 42
-0.123361
  0
VERTEX
  8
0
 10
7.402976
 20
249.424513
 42
-0.003033
  0
VERTEX
  8
0
 10
10.172461
 20
250.195314
 42
-0.006391
  0
VERTEX
  8
0
 10
13.457290
 20
251.043179
 42
-0.004285
  0
VERTEX
  8
0
 10
17.233047
 20
251.932227
 42
0.006450
  0
VERTEX
  8
0
 10
20.999710
 20
252.836360
 42
0.009709
  0
VERTEX
  8
0
 10
24.256296
 20
253.730275
 42
0.005052
  0
VERTEX
  8
0
 10
26.963543
 20
254.560069
 42
0.179311
  0
VERTEX
  8
0
 10
27.474297
 20
254.958411
 42
0.374949
  0
VERTEX
  8
0
 10
27.414121
 20
255.322322
 42
0.060796
  0
VERTEX
  8
0
 10
26.758408
 20
255.740789
 42
0.042345
  0
VERTEX
  8
0
 10
25.690782
 20
256.145015
 42
0.022968
  0
VERTEX
  8
0
 10
24.323583
 20
256.467118
 42
-0.045808
  0
VERTEX
  8
0
 10
17.601690
 20
258.378190
 42
-0.020988
  0
VERTEX
  8
0
 10
9.235831
 20
262.019401
 42
-0.012861
  0
VERTEX
  8
0
 10
1.551108
 20
266.002665
 42
-0.499274
  0
VERTEX
  8
0
 10
1.317597
 20
267.650930
 42
-0.086553
  0
VERTEX
  8
0
 10
1.786347
 20
267.980451
 42
-0.001252
  0
VERTEX
  8
0
 10
4.882469
 20
269.428759
 42
-0.003404
  0
VERTEX
  8
0
 10
8.497818
 20
271.079096
 42
-0.002234
  0
VERTEX
  8
0
 10
12.683062
 20
272.932841
 42
0.007947
  0
VERTEX
  8
0
 10
17.479558
 20
275.123212
 42
0.005132
  0
VERTEX
  8
0
 10
22.966274
 20
277.804358
 42
0.005158
  0
VERTEX
  8
0
 10
28.277330
 20
280.536460
 42
0.009698
  0
VERTEX
  8
0
 10
32.500000
 20
282.869847
 42
-0.021315
  0
VERTEX
  8
0
 10
41.674101
 20
287.664626
 42
-0.041716
  0
VERTEX
  8
0
 10
49.398597
 20
290.533321
 42
-0.043271
  0
VERTEX
  8
0
 10
57.303564
 20
292.018525
 42
-0.024812
  0
VERTEX
  8
0
 10
67.000000
 20
292.500000
 42
-0.017943
  0
VERTEX
  8
0
 10
75.108592
 20
292.208914
 42
-0.023041
  0
VERTEX
  8
0
 10
82.519480
 20
291.331548
 42
-0.022980
  0
VERTEX
  8
0
 10
88.025101
 20
290.158837
 42
-0.587834
  0
VERTEX
  8
0
 10
88.330861
 20
288.971916
 42
-0.062527
  0
VERTEX
  8
0
 10
87.640711
 20
288.463222
 42
-0.000823
  0
VERTEX
  8
0
 10
82.970628
 20
285.859287
 42
-0.002352
  0
VERTEX
  8
0
 10
77.537938
 20
282.875207
 42
-0.001541
  0
VERTEX
  8
0
 10
71.250000
 20
279.484820
 42
0.001419
  0
VERTEX
  8
0
 10
65.019421
 20
276.127320
 42
0.002338
  0
VERTEX
  8
0
 10
59.773438
 20
273.249324
 42
0.000250
  0
VERTEX
  8
0
 10
55.111388
 20
270.660201
 42
0.272281
  0
VERTEX
  8
0
 10
55.000000
 20
270.470818
 42
0.500424
  0
VERTEX
  8
0
 10
55.378600
 20
270.187269
 42
0.001041
  0
VERTEX
  8
0
 10
63.516336
 20
272.591158
 42
0.005520
  0
VERTEX
  8
0
 10
72.111164
 20
275.253175
 42
0.005122
  0
VERTEX
  8
0
 10
80.863086
 20
278.169367
 42
0.010279
  0
VERTEX
  8
0
 10
89.591435
 20
281.379593
 42
0.016647
  0
VERTEX
  8
0
 10
96.855556
 20
284.504791
 42
0.017415
  0
VERTEX
  8
0
 10
102.411409
 20
287.357833
 42
0.092472
  0
VERTEX
  8
0
 10
105.027400
 20
289.533014
 42
0.046262
  0
VERTEX
  8
0
 10
105.711875
 20
290.532939
 42
0.187795
  0
VERTEX
  8
0
 10
105.810472
 20
291.250544
 42
0.141846
  0
VERTEX
  8
0
 10
105.401909
 20
291.969882
 42
0.022951
  0
VERTEX
  8
0
 10
104.186330
 20
293.050203
 42
0.061809
  0
VERTEX
  8
0
 10
102.938792
 20
293.827485
 42
0.019787
  0
VERTEX
  8
0
 10
100.918225
 20
294.667914
 42
0.019405
  0
VERTEX
  8
0
 10
98.573117
 20
295.434131
 42
0.020521
  0
VERTEX
  8
0
 10
96.218763
 20
296.000196
 42
-0.022671
  0
VERTEX
  8
0
 10
87.091096
 20
298.236324
 42
-0.061866
  0
VERTEX
  8
0
 10
81.002954
 20
300.876343
 42
-0.118576
  0
VERTEX
  8
0
 10
78.008036
 20
303.773362
 42
-0.270674
  0
VERTEX
  8
0
 10
77.895001
 20
306.803807
 42
-0.110558
  0
VERTEX
  8
0
 10
79.601646
 20
308.782875
 42
-0.012378
  0
VERTEX
  8
0
 10
84.491464
 20
312.231118
 42
-0.015239
  0
VERTEX
  8
0
 10
90.370485
 20
315.908517
 42
-0.014889
  0
VERTEX
  8
0
 10
96.507705
 20
319.251066
 42
0.000000
  0
VERTEX
  8
0
 10
101.515409
 20
321.788131
 42
0.000000
  0
VERTEX
  8
0
 10
102.701289
 20
329.144066
 42
-0.019868
  0
VERTEX
  8
0
 10
104.360795
 20
337.348805
 42
-0.013666
  0
VERTEX
  8
0
 10
106.861258
 20
346.503492
 42
-0.012292
  0
VERTEX
  8
0
 10
110.177489
 20
356.559516
 42
-0.009131
  0
VERTEX
  8
0
 10
114.312888
 20
367.500000
 42
0.000000
  0
VERTEX
  8
0
 10
119.500000
 20
380.500000
 42
0.000000
  0
VERTEX
  8
0
 10
120.000000
 20
370.569462
 42
0.000000
  0
VERTEX
  8
0
 10
120.500000
 20
360.638924
 42
0.000000
  0
VERTEX
  8
0
 10
122.837393
 20
366.299640
 42
-0.054414
  0
VERTEX
  8
0
 10
129.946855
 20
379.303786
 42
-0.043794
  0
VERTEX
  8
0
 10
140.176611
 20
391.534002
 42
-0.040578
  0
VERTEX
  8
0
 10
153.227857
 20
402.652188
 42
-0.033416
  0
VERTEX
  8
0
 10
168.753987
 20
412.335961
 42
-0.011282
  0
VERTEX
  8
0
 10
178.852920
 20
417.444291
 42
-0.015509
  0
VERTEX
  8
0
 10
188.164238
 20
421.543651
 42
-0.012289
  0
VERTEX
  8
0
 10
199.217636
 20
425.693197
 42
-0.004266
  0
VERTEX
  8
0
 10
215.347291
 20
431.146402
 42
0.011809
  0
VERTEX
  8
0
 10
229.519303
 20
436.177213
 42
0.008742
  0
VERTEX
  8
0
 10
244.949521
 20
442.379748
 42
0.002412
  0
VERTEX
  8
0
 10
259.923132
 20
448.790315
 42
0.298810
  0
VERTEX
  8
0
 10
261.000000
 20
450.431356
 42
0.412916
  0
VERTEX
  8
0
 10
260.766880
 20
450.665511
 42
0.000019
  0
VERTEX
  8
0
 10
222.665625
 20
450.832961
 42
0.000681
  0
VERTEX
  8
0
 10
180.540335
 20
450.959138
 42
0.000408
  0
VERTEX
  8
0
 10
130.500000
 20
451.000000
 42
0.000000
  0
VERTEX
  8
0
 10
0.000000
 20
451.000000
 42
0.000000
  0
SEQEND
  0
POLYLINE
  8
0
 66
1
 70
1
  0
VERTEX
  8
0
 10
246.500000
 20
290.594960
 42
0.000000
  0
VERTEX
  8
0
 10
250.500000
 20
289.343624
 42
0.000000
  0
VERTEX
  8
0
 10
245.000000
 20
288.569694
 42
0.050438
  0
VERTEX
  8
0
 10
234.806968
 20
286.068945
 42
0.038096
  0
VERTEX
  8
0
 10
224.263225
 20
281.391575
 42
0.037922
  0
VERTEX
  8
0
 10
214.492411
 20
275.135767
 42
0.048334
  0
VERTEX
  8
0
 10
206.609378
 20
267.910431
 42
0.053273
  0
VERTEX
  8
0
 10
200.558084
 20
259.538404
 42
0.054192
  0
VERTEX
  8
0
 10
196.453357
 20
250.123604
 42
0.060700
  0
VERTEX
  8
0
 10
194.858713
 20
241.439712
 42
0.161481
  0
VERTEX
  8
0
 10
196.458105
 20
235.423595
 42
0.091796
  0
VERTEX
  8
0
 10
198.898273
 20
232.872195
 42
0.075562
  0
VERTEX
  8
0
 10
202.255887
 20
231.150711
 42
0.065108
  0
VERTEX
  8
0
 10
206.438006
 20
230.333841
 42
0.043909
  0
VERTEX
  8
0
 10
211.305469
 20
230.455050
 42
0.041428
  0
VERTEX
  8
0
 10
221.550074
 20
232.483429
 42
0.050898
  0
VERTEX
  8
0
 10
230.600020
 20
236.097924
 42
0.043510
  0
VERTEX
  8
0
 10
239.768161
 20
241.957051
 42
0.020777
  0
VERTEX
  8
0
 10
250.500000
 20
250.944527
 42
-0.025790
  0
VERTEX
  8
0
 10
258.475385
 20
257.488744
 42
-0.039428
  0
VERTEX
  8
0
 10
266.067470
 20
262.214446
 42
-0.040201
  0
VERTEX
  8
0
 10
274.195304
 20
265.627780
 42
-0.028240
  0
VERTEX
  8
0
 10
283.786293
 20
268.187066
 42
-0.033025
  0
VERTEX
  8
0
 10
293.498907
 20
269.538705
 42
-0.025189
  0
VERTEX
  8
0
 10
304.234516
 20
269.773666
 42
-0.025404
  0
VERTEX
  8
0
 10
314.802811
 20
268.934041
 42
-0.036457
  0
VERTEX
  8
0
 10
324.000000
 20
267.041314
 42
-0.027875
  0
VERTEX
  8
0
 10
330.785798
 20
264.705028
 42
-0.012605
  0
VERTEX
  8
0
 10
339.404882
 20
260.933010
 42
-0.011602
  0
VERTEX
  8
0
 10
347.525343
 20
256.900270
 42
-0.050443
  0
VERTEX
  8
0
 10
352.000000
 20
253.936924
 42
-0.016058
  0
VERTEX
  8
0
 10
353.153480
 20
252.929615
 42
-0.749990
  0
VERTEX
  8
0
 10
353.062460
 20
252.748715
 42
-0.065859
  0
VERTEX
  8
0
 10
352.239774
 20
253.015770
 42
-0.002461
  0
VERTEX
  8
0
 10
349.307465
 20
254.433438
 42
0.017807
  0
VERTEX
  8
0
 10
346.706383
 20
255.593900
 42
0.007033
  0
VERTEX
  8
0
 10
343.053044
 20
257.010758
 42
0.006951
  0
VERTEX
  8
0
 10
339.059957
 20
258.432250
 42
0.008641
  0
VERTEX
  8
0
 10
335.307465
 20
259.637656
 42
0.015195
  0
VERTEX
  8
0
 10
330.047467
 20
261.054667
 42
0.027607
  0
VERTEX
  8
0
 10
325.665734
 20
261.840965
 42
0.022340
  0
VERTEX
  8
0
 10
320.645907
 20
262.231725
 42
0.006753
  0
VERTEX
  8
0
 10
313.000000
 20
262.380900
 42
0.016767
  0
VERTEX
  8
0
 10
302.412989
 20
262.089394
 42
0.038434
  0
VERTEX
  8
0
 10
294.514794
 20
260.993372
 42
0.040257
  0
VERTEX
  8
0
 10
287.101128
 20
258.739084
 42
0.020121
  0
VERTEX
  8
0
 10
278.127855
 20
254.775977
 42
0.033039
  0
VERTEX
  8
0
 10
270.730237
 20
250.518899
 42
0.036418
  0
VERTEX
  8
0
 10
264.209098
 20
245.446909
 42
0.039051
  0
VERTEX
  8
0
 10
258.937697
 20
239.888338
 42
0.056145
  0
VERTEX
  8
0
 10
255.288114
 20
234.177573
 42
0.060280
  0
VERTEX
  8
0
 10
253.168741
 20
228.110398
 42
0.049936
  0
VERTEX
  8
0
 10
252.377114
 20
221.308478
 42
0.050635
  0
VERTEX
  8
0
 10
252.950103
 20
214.592499
 42
0.067332
  0
VERTEX
  8
0
 10
254.879957
 20
208.783647
 42
0.082618
  0
VERTEX
  8
0
 10
262.265483
 20
198.440122
 42
0.055490
  0
VERTEX
  8
0
 10
273.628427
 20
189.345082
 42
0.047358
  0
VERTEX
  8
0
 10
288.631698
 20
181.733707
 42
0.031875
  0
VERTEX
  8
0
 10
306.933309
 20
175.848815
 42
0.040966
  0
VERTEX
  8
0
 10
326.993819
 20
172.498271
 42
0.061601
  0
VERTEX
  8
0
 10
344.697039
 20
173.196816
 42
0.072709
  0
VERTEX
  8
0
 10
359.390910
 20
177.865578
 42
0.096546
  0
VERTEX
  8
0
 10
370.568811
 20
186.280574
 42
0.000000
  0
VERTEX
  8
0
 10
375.267983
 20
191.500000
 42
0.000000
  0
VERTEX
  8
0
 10
371.542623
 20
184.093531
 42
-0.070677
  0
VERTEX
  8
0
 10
362.896835
 20
171.648037
 42
-0.085384
  0
VERTEX
  8
0
 10
351.604041
 20
163.024546
 42
-0.079399
  0
VERTEX
  8
0
 10
337.397180
 20
158.263751
 42
-0.052167
  0
VERTEX
  8
0
 10
320.143545
 20
157.216209
 42
-0.030907
  0
VERTEX
  8
0
 10
310.979622
 20
158.185623
 42
-0.032205
  0
VERTEX
  8
0
 10
302.133111
 20
160.271701
 42
-0.024429
  0
VERTEX
  8
0
 10
291.781639
 20
163.989561
 42
-0.008965
  0
VERTEX
  8
0
 10
277.535826
 20
170.208225
 42
0.001692
  0
VERTEX
  8
0
 10
256.725811
 20
179.655050
 42
0.013022
  0
VERTEX
  8
0
 10
246.847062
 20
183.793477
 42
0.028309
  0
VERTEX
  8
0
 10
240.459883
 20
185.868128
 42
0.047934
  0
VERTEX
  8
0
 10
234.913275
 20
186.772726
 42
0.063710
  0
VERTEX
  8
0
 10
227.939341
 20
186.344160
 42
0.092478
  0
VERTEX
  8
0
 10
222.210956
 20
184.102180
 42
0.097078
  0
VERTEX
  8
0
 10
217.868009
 20
180.047917
 42
0.077012
  0
VERTEX
  8
0
 10
214.940904
 20
174.320936
 42
0.206102
  0
VERTEX
  8
0
 10
216.432657
 20
157.362292
 42
0.088021
  0
VERTEX
  8
0
 10
230.856946
 20
139.149657
 42
0.070688
  0
VERTEX
  8
0
 10
254.575963
 20
123.466029
 42
0.060547
  0
VERTEX
  8
0
 10
283.000000
 20
113.979082
 42
0.012246
  0
VERTEX
  8
0
 10
288.922035
 20
112.921623
 42
0.019109
  0
VERTEX
  8
0
 10
294.068761
 20
112.332364
 42
0.017252
  0
VERTEX
  8
0
 10
299.608359
 20
112.103550
 42
0.007900
  0
VERTEX
  8
0
 10
306.842434
 20
112.168793
 42
0.000000
  0
VERTEX
  8
0
 10
320.184867
 20
112.500000
 42
0.000000
  0
VERTEX
  8
0
 10
315.342434
 20
110.395305
 42
-0.027382
  0
VERTEX
  8
0
 10
308.821985
 20
107.976267
 42
-0.034689
  0
VERTEX
  8
0
 10
302.568085
 20
106.504366
 42
-0.028777
  0
VERTEX
  8
0
 10
295.310903
 20
105.744968
 42
-0.012114
  0
VERTEX
  8
0
 10
285.500000
 20
105.524221
 42
-0.019397
  0
VERTEX
  8
0
 10
274.080391
 20
105.987199
 42
-0.024860
  0
VERTEX
  8
0
 10
263.649445
 20
107.340521
 42
-0.023479
  0
VERTEX
  8
0
 10
252.944391
 20
109.798305
 42
-0.014657
  0
VERTEX
  8
0
 10
240.656276
 20
113.625609
 42
-0.019385
  0
VERTEX
  8
0
 10
230.973533
 20
117.381385
 42
-0.009373
  0
VERTEX
  8
0
 10
218.875679
 20
122.893572
 42
-0.009200
  0
VERTEX
  8
0
 10
206.299530
 20
129.197787
 42
-0.011857
  0
VERTEX
  8
0
 10
195.000000
 20
135.470687
 42
0.007551
  0
VERTEX
  8
0
 10
190.959520
 20
137.759489
 42
0.006635
  0
VERTEX
  8
0
 10
186.675000
 20
140.028465
 42
0.006682
  0
VERTEX
  8
0
 10
182.753953
 20
141.973063
 42
0.019866
  0
VERTEX
  8
0
 10
180.000000
 20
143.161195
 42
0.047580
  0
VERTEX
  8
0
 10
174.138515
 20
144.799112
 42
0.025766
  0
VERTEX
  8
0
 10
166.703844
 20
145.739939
 42
0.023292
  0
VERTEX
  8
0
 10
159.674406
 20
145.935266
 42
0.118703
  0
VERTEX
  8
0
 10
155.916408
 20
144.955263
 42
-0.589762
  0
VERTEX
  8
0
 10
155.624302
 20
145.144279
 42
-0.133973
  0
VERTEX
  8
0
 10
155.878163
 20
145.872105
 42
-0.026938
  0
VERTEX
  8
0
 10
157.263295
 20
147.672305
 42
-0.008018
  0
VERTEX
  8
0
 10
159.566496
 20
150.268213
 42
0.028097
  0
VERTEX
  8
0
 10
164.848257
 20
156.725688
 42
0.045347
  0
VERTEX
  8
0
 10
168.489905
 20
162.817894
 42
0.050555
  0
VERTEX
  8
0
 10
170.707404
 20
168.947681
 42
0.048142
  0
VERTEX
  8
0
 10
171.696868
 20
175.500000
 42
0.014707
  0
VERTEX
  8
0
 10
171.784127
 20
179.096718
 42
0.032061
  0
VERTEX
  8
0
 10
171.593268
 20
181.848199
 42
0.038983
  0
VERTEX
  8
0
 10
171.091306
 20
184.188543
 42
0.036495
  0
VERTEX
  8
0
 10
170.224318
 20
186.476849
 42
0.000000
  0
VERTEX
  8
0
 10
168.375733
 20
190.453697
 42
0.000000
  0
VERTEX
  8
0
 10
167.197747
 20
182.123912
 42
-0.063851
  0
VERTEX
  8
0
 10
163.504123
 20
168.674138
 42
-0.089945
  0
VERTEX
  8
0
 10
156.756647
 20
158.261006
 42
-0.086544
  0
VERTEX
  8
0
 10
146.561260
 20
150.610018
 42
-0.054904
  0
VERTEX
  8
0
 10
132.634107
 20
145.345133
 42
-0.038265
  0
VERTEX
  8
0
 10
128.078670
 20
144.538595
 42
-0.009901
  0
VERTEX
  8
0
 10
120.641821
 20
143.950309
 42
-0.007051
  0
VERTEX
  8
0
 10
109.866963
 20
143.464710
 42
-0.002133
  0
VERTEX
  8
0
 10
93.500000
 20
143.028098
 42
0.001938
  0
VERTEX
  8
0
 10
76.317544
 20
142.576428
 42
0.008023
  0
VERTEX
  8
0
 10
65.942830
 20
142.096734
 42
0.012743
  0
VERTEX
  8
0
 10
59.043650
 20
141.489880
 42
0.040412
  0
VERTEX
  8
0
 10
54.500000
 20
140.597193
 42
0.019515
  0
VERTEX
  8
0
 10
48.617510
 20
138.688172
 42
0.022818
  0
VERTEX
  8
0
 10
43.207628
 20
136.410743
 42
0.024128
  0
VERTEX
  8
0
 10
38.312620
 20
133.785118
 42
0.028594
  0
VERTEX
  8
0
 10
33.974551
 20
130.831578
 42
0.000000
  0
VERTEX
  8
0
 10
29.449102
 20
127.356018
 42
0.000000
  0
VERTEX
  8
0
 10
30.191705
 20
135.825666
 42
-0.021445
  0
VERTEX
  8
0
 10
32.013999
 20
149.727713
 42
-0.021786
  0
VERTEX
  8
0
 10
35.013952
 20
163.348520
 42
-0.023144
  0
VERTEX
  8
0
 10
38.870641
 20
175.529419
 42
-0.042127
  0
VERTEX
  8
0
 10
43.286124
 20
184.979127
 42
0.000000
  0
VERTEX
  8
0
 10
46.456844
 20
190.500000
 42
0.000000
  0
VERTEX
  8
0
 10
47.157623
 20
185.665417
 42
0.092807
  0
VERTEX
  8
0
 10
49.855720
 20
177.763421
 42
0.045133
  0
VERTEX
  8
0
 10
55.937987
 20
168.954933
 42
0.045197
  0
VERTEX
  8
0
 10
63.377691
 20
161.507206
 42
0.108566
  0
VERTEX
  8
0
 10
70.260680
 20
157.929806
 42
0.070717
  0
VERTEX
  8
0
 10
78.288429
 20
156.946880
 42
0.085513
  0
VERTEX
  8
0
 10
85.732887
 20
158.378409
 42
0.091815
  0
VERTEX
  8
0
 10
91.866851
 20
162.086249
 42
0.096918
  0
VERTEX
  8
0
 10
96.128851
 20
167.684016
 42
0.032635
  0
VERTEX
  8
0
 10
97.400350
 20
170.757486
 42
0.045706
  0
VERTEX
  8
0
 10
98.093758
 20
173.645153
 42
0.029687
  0
VERTEX
  8
0
 10
98.415859
 20
177.427271
 42
0.006401
  0
VERTEX
  8
0
 10
98.500000
 20
184.000000
 42
0.007785
  0
VERTEX
  8
0
 10
98.402369
 20
190.269883
 42
0.024205
  0
VERTEX
  8
0
 10
98.066596
 20
194.482331
 42
0.031947
  0
VERTEX
  8
0
 10
97.390843
 20
197.961953
 42
0.024381
  0
VERTEX
  8
0
 10
96.227579
 20
201.664163
 42
0.016695
  0
VERTEX
  8
0
 10
94.407291
 20
206.135940
 42
0.015007
  0
VERTEX
  8
0
 10
92.231283
 20
210.640892
 42
0.015170
  0
VERTEX
  8
0
 10
89.818389
 20
214.951291
 42
0.018318
  0
VERTEX
  8
0
 10
87.287052
 20
218.837852
 42
-0.020815
  0
VERTEX
  8
0
 10
86.483740
 20
220.084810
 42
-0.664867
  0
VERTEX
  8
0
 10
86.643905
 20
220.298659
 42
-0.084524
  0
VERTEX
  8
0
 10
87.397473
 20
219.967367
 42
-0.002708
  0
VERTEX
  8
0
 10
90.176302
 20
218.113780
 42
0.041120
  0
VERTEX
  8
0
 10
98.065570
 20
213.685494
 42
0.039140
  0
VERTEX
  8
0
 10
106.702653
 20
210.522452
 42
0.037318
  0
VERTEX
  8
0
 10
116.116717
 20
208.631692
 42
0.030911
  0
VERTEX
  8
0
 10
126.324788
 20
208.000000
 42
0.050923
  0
VERTEX
  8
0
 10
137.121220
 20
209.102422
 42
0.114234
  0
VERTEX
  8
0
 10
144.563470
 20
212.524564
 42
0.082065
  0
VERTEX
  8
0
 10
151.195363
 20
219.664052
 42
0.017841
  0
VERTEX
  8
0
 10
160.000000
 20
234.053380
 42
-0.009353
  0
VERTEX
  8
0
 10
166.210772
 20
244.601652
 42
-0.017059
  0
VERTEX
  8
0
 10
171.727663
 20
252.931803
 42
-0.019545
  0
VERTEX
  8
0
 10
177.227647
 20
260.045454
 42
-0.018673
  0
VERTEX
  8
0
 10
183.347224
 20
266.820834
 42
-0.025778
  0
VERTEX
  8
0
 10
192.050779
 20
274.885668
 42
-0.030902
  0
VERTEX
  8
0
 10
201.047792
 20
281.500756
 42
-0.032933
  0
VERTEX
  8
0
 10
210.232897
 20
286.594830
 42
-0.039168
  0
VERTEX
  8
0
 10
219.500000
 20
290.106608
 42
-0.044105
  0
VERTEX
  8
0
 10
225.619175
 20
291.320168
 42
-0.022389
  0
VERTEX
  8
0
 10
233.459162
 20
291.813612
 42
-0.022142
  0
VERTEX
  8
0
 10
241.114093
 20
291.613074
 42
-0.058246
  0
SEQEND
  0
POLYLINE
  8
0
 66
1
 70
1
  0
VERTEX
  8
0
 10
260.250000
 20
83.294267
 42
-0.029693
  0
VERTEX
  8
0
 10
259.225293
 20
83.159351
 42
-0.017887
  0
VERTEX
  8
0
 10
258.000000
 20
83.115502
 42
-0.017887
  0
VERTEX
  8
0
 10
256.774707
 20
83.159351
 42
-0.029693
  0
VERTEX
  8
0
 10
255.750000
 20
83.294267
 42
-0.142433
  0
VERTEX
  8
0
 10
255.439977
 20
83.453014
 42
-0.611425
  0
VERTEX
  8
0
 10
255.482812
 20
83.600334
 42
-0.039503
  0
VERTEX
  8
0
 10
256.388510
 20
83.701569
 42
-0.008087
  0
VERTEX
  8
0
 10
258.000000
 20
83.727636
 42
-0.008087
  0
VERTEX
  8
0
 10
259.611490
 20
83.701569
 42
-0.039503
  0
VERTEX
  8
0
 10
260.517188
 20
83.600334
 42
-0.611425
  0
VERTEX
  8
0
 10
260.560023
 20
83.453014
 42
-0.142433
  0
SEQEND
  0
POLYLINE
  8
0
 66
1
 70
1
  0
VERTEX
  8
0
 10
449.500000
 20
83.314898
 42
0.042715
  0
VERTEX
  8
0
 10
446.426586
 20
82.649675
 42
0.061127
  0
VERTEX
  8
0
 10
443.883512
 20
81.512068
 42
0.067607
  0
VERTEX
  8
0
 10
441.882583
 20
79.901435
 42
0.070313
  0
VERTEX
  8
0
 10
440.414686
 20
77.835022
 42
0.107434
  0
VERTEX
  8
0
 10
439.088229
 20
72.912270
 42
0.148880
  0
VERTEX
  8
0
 10
440.196454
 20
68.506606
 42
0.103248
  0
VERTEX
  8
0
 10
444.063495
 20
64.337180
 42
0.035535
  0
VERTEX
  8
0
 10
451.129368
 20
60.041918
 42
-0.022915
  0
VERTEX
  8
0
 10
459.315869
 20
55.343959
 42
-0.075578
  0
VERTEX
  8
0
 10
463.990875
 20
51.262862
 42
-0.104785
  0
VERTEX
  8
0
 10
466.405346
 20
46.773507
 42
-0.071279
  0
VERTEX
  8
0
 10
467.230769
 20
41.012865
 42
-0.085860
  0
VERTEX
  8
0
 10
466.049326
 20
34.183521
 42
-0.106918
  0
VERTEX
  8
0
 10
462.659554
 20
28.723826
 42
-0.104746
  0
VERTEX
  8
0
 10
457.253146
 20
25.077135
 42
-0.079594
  0
VERTEX
  8
0
 10
450.268077
 20
23.472310
 42
-0.000508
  0
VERTEX
  8
0
 10
446.458298
 20
23.220639
 42
-0.089676
  0
VERTEX
  8
0
 10
446.058013
 20
23.266440
 42
-0.786510
  0
VERTEX
  8
0
 10
446.063208
 20
23.360938
 42
-0.001108
  0
VERTEX
  8
0
 10
448.911239
 20
23.881349
 42
0.035431
  0
VERTEX
  8
0
 10
451.099738
 20
24.438647
 42
0.046984
  0
VERTEX
  8
0
 10
452.980069
 20
25.265036
 42
0.047202
  0
VERTEX
  8
0
 10
454.666438
 20
26.424482
 42
0.036249
  0
VERTEX
  8
0
 10
456.273356
 20
27.979908
 42
0.027563
  0
VERTEX
  8
0
 10
457.907214
 20
30.024920
 42
0.084601
  0
VERTEX
  8
0
 10
458.676011
 20
31.615689
 42
0.073627
  0
VERTEX
  8
0
 10
458.929772
 20
33.492421
 42
0.017539
  0
VERTEX
  8
0
 10
458.779206
 20
36.648946
 42
0.060182
  0
VERTEX
  8
0
 10
457.858048
 20
41.125114
 42
0.102252
  0
VERTEX
  8
0
 10
455.942781
 20
44.416748
 42
0.070739
  0
VERTEX
  8
0
 10
452.354492
 20
47.431669
 42
0.017309
  0
VERTEX
  8
0
 10
445.651124
 20
51.295856
 42
-0.039730
  0
VERTEX
  8
0
 10
438.390393
 20
55.926537
 42
-0.093672
  0
VERTEX
  8
0
 10
434.091590
 20
60.664404
 42
-0.119612
  0
VERTEX
  8
0
 10
432.415075
 20
65.863109
 42
-0.091494
  0
VERTEX
  8
0
 10
433.064887
 20
71.822238
 42
-0.078689
  0
VERTEX
  8
0
 10
435.421195
 20
76.723282
 42
-0.080319
  0
VERTEX
  8
0
 10
439.162997
 20
80.617045
 42
-0.082066
  0
VERTEX
  8
0
 10
443.864151
 20
83.071923
 42
-0.087494
  0
VERTEX
  8
0
 10
449.000000
 20
83.811026
 42
-0.000606
  0
VERTEX
  8
0
 10
451.366573
 20
83.733308
 42
-0.189073
  0
VERTEX
  8
0
 10
451.537115
 20
83.659636
 42
-0.622956
  0
VERTEX
  8
0
 10
451.509246
 20
83.576917
 42
-0.000948
  0
SEQEND
  0
POLYLINE
  8
0
 66
1
 70
1
  0
VERTEX
  8
0
 10
36.013911
 20
81.248446
 42
0.100263
  0
VERTEX
  8
0
 10
32.578168
 20
78.555730
 42
0.127750
  0
VERTEX
  8
0
 10
30.825895
 20
74.947339
 42
0.048216
  0
VERTEX
  8
0
 10
30.170860
 20
68.521675
 42
0.004386
  0
VERTEX
  8
0
 10
30.227923
 20
52.401274
 42
0.003614
  0
VERTEX
  8
0
 10
30.538582
 20
36.503996
 42
0.050379
  0
VERTEX
  8
0
 10
31.266176
 20
30.825605
 42
0.143827
  0
VERTEX
  8
0
 10
33.016831
 20
27.723624
 42
0.090318
  0
VERTEX
  8
0
 10
36.499613
 20
25.385914
 42
-0.251281
  0
VERTEX
  8
0
 10
36.980168
 20
24.776133
 42
-0.432289
  0
VERTEX
  8
0
 10
36.630605
 20
24.307607
 42
-0.027351
  0
VERTEX
  8
0
 10
33.665204
 20
24.132276
 42
-0.002003
  0
VERTEX
  8
0
 10
25.500000
 20
24.129330
 42
-0.003008
  0
VERTEX
  8
0
 10
18.791703
 20
24.194155
 42
-0.018667
  0
VERTEX
  8
0
 10
15.354084
 20
24.376550
 42
-0.168313
  0
VERTEX
  8
0
 10
14.609474
 20
24.712506
 42
-0.580148
  0
VERTEX
  8
0
 10
14.705190
 20
25.107169
 42
0.118284
  0
VERTEX
  8
0
 10
18.262317
 20
27.129465
 42
0.151185
  0
VERTEX
  8
0
 10
20.120118
 20
30.387214
 42
0.050534
  0
VERTEX
  8
0
 10
20.863843
 20
36.704233
 42
0.004053
  0
VERTEX
  8
0
 10
21.000000
 20
53.500000
 42
0.004053
  0
VERTEX
  8
0
 10
20.863843
 20
70.295767
 42
0.050534
  0
VERTEX
  8
0
 10
20.120118
 20
76.612786
 42
0.151185
  0
VERTEX
  8
0
 10
18.262317
 20
79.870535
 42
0.118284
  0
VERTEX
  8
0
 10
14.705190
 20
81.892831
 42
-0.571546
  0
VERTEX
  8
0
 10
14.603033
 20
82.291495
 42
-0.174074
  0
VERTEX
  8
0
 10
15.331258
 20
82.632982
 42
-0.018878
  0
VERTEX
  8
0
 10
18.759373
 20
82.825288
 42
-0.002989
  0
VERTEX
  8
0
 10
25.500000
 20
82.908258
 42
-0.001231
  0
VERTEX
  8
0
 10
34.990402
 20
82.944969
 42
-0.039516
  0
VERTEX
  8
0
 10
37.298124
 20
82.765564
 42
-0.631877
  0
VERTEX
  8
0
 10
37.456099
 20
82.230646
 42
-0.066602
  0
SEQEND
  0
POLYLINE
  8
0
 66
1
 70
1
  0
VERTEX
  8
0
 10
83.500000
 20
61.056217
 42
0.002088
  0
VERTEX
  8
0
 10
90.077061
 20
52.640541
 42
0.003378
  0
VERTEX
  8
0
 10
95.749450
 20
45.543722
 42
0.000615
  0
VERTEX
  8
0
 10
100.793923
 20
39.334831
 42
0.207276
  0
VERTEX
  8
0
 10
101.327915
 20
39.057839
 42
0.424656
  0
VERTEX
  8
0
 10
101.658144
 20
39.355402
 42
0.001906
  0
VERTEX
  8
0
 10
101.816304
 20
44.553846
 42
0.006888
  0
VERTEX
  8
0
 10
101.894179
 20
50.625270
 42
0.004111
  0
VERTEX
  8
0
 10
101.827915
 20
57.848871
 42
0.004722
  0
VERTEX
  8
0
 10
101.466257
 20
71.320968
 42
0.056042
  0
VERTEX
  8
0
 10
100.695818
 20
76.479789
 42
0.143138
  0
VERTEX
  8
0
 10
98.940897
 20
79.377404
 42
0.082913
  0
VERTEX
  8
0
 10
95.500387
 20
81.614086
 42
-0.080655
  0
VERTEX
  8
0
 10
94.454600
 20
82.287302
 42
-0.623293
  0
VERTEX
  8
0
 10
94.573802
 20
82.706776
 42
-0.043581
  0
VERTEX
  8
0
 10
96.437869
 20
82.878904
 42
-0.002238
  0
VERTEX
  8
0
 10
102.500000
 20
82.881911
 42
-0.004687
  0
VERTEX
  8
0
 10
106.236761
 20
82.832003
 42
-0.010003
  0
VERTEX
  8
0
 10
109.121875
 20
82.708635
 42
-0.013305
  0
VERTEX
  8
0
 10
110.980288
 20
82.542149
 42
-0.803460
  0
VERTEX
  8
0
 10
111.000000
 20
82.347931
 42
0.030294
  0
VERTEX
  8
0
 10
108.297082
 20
81.272048
 42
0.060630
  0
VERTEX
  8
0
 10
106.352539
 20
80.051557
 42
0.072656
  0
VERTEX
  8
0
 10
104.986389
 20
78.567712
 42
0.066006
  0
VERTEX
  8
0
 10
104.047845
 20
76.707403
 42
0.070346
  0
VERTEX
  8
0
 10
103.605962
 20
74.469750
 42
0.004255
  0
VERTEX
  8
0
 10
103.290644
 20
67.619241
 42
0.005923
  0
VERTEX
  8
0
 10
103.070923
 20
59.051435
 42
0.003448
  0
VERTEX
  8
0
 10
103.000000
 20
48.767443
 42
-0.002956
  0
VERTEX
  8
0
 10
102.939307
 20
38.500951
 42
-0.006614
  0
VERTEX
  8
0
 10
102.743896
 20
30.701935
 42
-0.002205
  0
VERTEX
  8
0
 10
102.476770
 20
24.448245
 42
-0.502869
  0
VERTEX
  8
0
 10
102.057873
 20
24.166667
 42
-0.136545
  0
VERTEX
  8
0
 10
101.435968
 20
24.602696
 42
-0.000461
  0
VERTEX
  8
0
 10
95.500496
 20
31.838568
 42
-0.002469
  0
VERTEX
  8
0
 10
88.815115
 20
40.086719
 42
-0.001539
  0
VERTEX
  8
0
 10
81.057873
 20
49.815694
 42
0.000000
  0
VERTEX
  8
0
 10
61.000000
 20
75.131388
 42
0.000000
  0
VERTEX
  8
0
 10
61.000000
 20
52.788200
 42
0.004272
  0
VERTEX
  8
0
 10
61.138997
 20
36.520849
 42
0.051674
  0
VERTEX
  8
0
 10
61.888698
 20
30.321388
 42
0.151516
  0
VERTEX
  8
0
 10
63.746867
 20
27.108500
 42
0.116581
  0
VERTEX
  8
0
 10
67.294810
 20
25.107169
 42
-0.205955
  0
VERTEX
  8
0
 10
67.779960
 20
24.708624
 42
-0.521019
  0
VERTEX
  8
0
 10
67.605258
 20
24.376129
 42
-0.028397
  0
VERTEX
  8
0
 10
65.282433
 20
24.214218
 42
-0.003203
  0
VERTEX
  8
0
 10
60.000000
 20
24.180377
 42
-0.003203
  0
VERTEX
  8
0
 10
54.717567
 20
24.214218
 42
-0.028397
  0
VERTEX
  8
0
 10
52.394742
 20
24.376129
 42
-0.521019
  0
VERTEX
  8
0
 10
52.220040
 20
24.708624
 42
-0.205955
  0
VERTEX
  8
0
 10
52.705190
 20
25.107169
 42
0.118284
  0
VERTEX
  8
0
 10
56.262317
 20
27.129465
 42
0.151185
  0
VERTEX
  8
0
 10
58.120118
 20
30.387214
 42
0.050534
  0
VERTEX
  8
0
 10
58.863843
 20
36.704233
 42
0.004053
  0
VERTEX
  8
0
 10
59.000000
 20
53.500000
 42
0.004053
  0
VERTEX
  8
0
 10
58.863843
 20
70.295767
 42
0.050534
  0
VERTEX
  8
0
 10
58.120118
 20
76.612786
 42
0.151185
  0
VERTEX
  8
0
 10
56.262317
 20
79.870535
 42
0.118284
  0
VERTEX
  8
0
 10
52.705190
 20
81.892831
 42
-0.069786
  0
VERTEX
  8
0
 10
51.703167
 20
82.341296
 42
-0.681190
  0
VERTEX
  8
0
 10
51.762476
 20
82.657604
 42
-0.041779
  0
VERTEX
  8
0
 10
53.409292
 20
82.832748
 42
-0.003006
  0
VERTEX
  8
0
 10
58.000000
 20
82.908190
 42
0.000000
  0
VERTEX
  8
0
 10
66.500000
 20
82.996756
 42
0.000000
  0
SEQEND
  0
POLYLINE
  8
0
 66
1
 70
1
  0
VERTEX
  8
0
 10
143.000000
 20
81.248446
 42
0.034214
  0
VERTEX
  8
0
 10
141.393996
 20
80.303804
 42
0.062969
  0
VERTEX
  8
0
 10
140.261700
 20
79.298889
 42
0.075287
  0
VERTEX
  8
0
 10
139.547683
 20
78.182136
 42
0.075871
  0
VERTEX
  8
0
 10
139.198727
 20
76.906995
 42
0.114917
  0
VERTEX
  8
0
 10
139.646243
 20
72.969249
 42
0.002652
  0
VERTEX
  8
0
 10
146.073930
 20
55.211667
 42
0.001436
  0
VERTEX
  8
0
 10
152.872070
 20
36.899893
 42
0.566472
  0
VERTEX
  8
0
 10
153.996541
 20
36.693360
 42
0.086660
  0
VERTEX
  8
0
 10
155.200742
 20
38.662976
 42
0.000835
  0
VERTEX
  8
0
 10
161.347902
 20
54.316682
 42
0.001577
  0
VERTEX
  8
0
 10
167.159618
 20
69.328593
 42
0.040875
  0
VERTEX
  8
0
 10
168.379529
 20
73.500000
 42
0.082040
  0
VERTEX
  8
0
 10
168.488738
 20
76.292068
 42
0.086919
  0
VERTEX
  8
0
 10
167.684307
 20
78.910930
 42
0.093392
  0
VERTEX
  8
0
 10
166.105780
 20
80.954671
 42
0.114359
  0
VERTEX
  8
0
 10
163.992003
 20
82.107123
 42
-0.743415
  0
VERTEX
  8
0
 10
163.986444
 20
82.374105
 42
-0.053293
  0
VERTEX
  8
0
 10
165.141303
 20
82.616132
 42
-0.017078
  0
VERTEX
  8
0
 10
167.788171
 20
82.790933
 42
-0.006434
  0
VERTEX
  8
0
 10
171.500000
 20
82.861178
 42
-0.001935
  0
VERTEX
  8
0
 10
177.801770
 20
82.874940
 42
-0.047635
  0
VERTEX
  8
0
 10
179.536425
 20
82.706352
 42
-0.655074
  0
VERTEX
  8
0
 10
179.629221
 20
82.289119
 42
-0.054937
  0
VERTEX
  8
0
 10
178.313921
 20
81.536009
 42
0.117583
  0
VERTEX
  8
0
 10
174.918755
 20
78.985192
 42
0.049734
  0
VERTEX
  8
0
 10
171.713536
 20
74.228852
 42
0.023486
  0
VERTEX
  8
0
 10
167.640520
 20
65.724066
 42
0.003530
  0
VERTEX
  8
0
 10
160.400581
 20
48.240883
 42
-0.003245
  0
VERTEX
  8
0
 10
156.563333
 20
38.959660
 42
-0.005390
  0
VERTEX
  8
0
 10
153.193752
 20
31.192274
 42
-0.001169
  0
VERTEX
  8
0
 10
150.176998
 20
24.480728
 42
-0.384353
  0
VERTEX
  8
0
 10
149.692825
 20
24.269058
 42
-0.215945
  0
VERTEX
  8
0
 10
149.215738
 20
24.710941
 42
-0.000785
  0
VERTEX
  8
0
 10
146.189817
 20
31.933095
 42
-0.003881
  0
VERTEX
  8
0
 10
142.817439
 20
40.197756
 42
-0.002404
  0
VERTEX
  8
0
 10
138.977985
 20
49.955966
 42
0.002887
  0
VERTEX
  8
0
 10
135.064638
 20
59.873805
 42
0.004091
  0
VERTEX
  8
0
 10
131.459391
 20
68.650031
 42
0.002363
  0
VERTEX
  8
0
 10
128.326564
 20
76.004677
 42
0.057649
  0
VERTEX
  8
0
 10
127.218847
 20
77.927791
 42
0.050429
  0
VERTEX
  8
0
 10
126.242804
 20
78.999894
 42
0.028721
  0
VERTEX
  8
0
 10
124.872000
 20
80.095021
 42
0.028420
  0
VERTEX
  8
0
 10
123.350037
 20
81.048825
 42
0.041516
  0
VERTEX
  8
0
 10
121.906336
 20
81.693558
 42
-0.205635
  0
VERTEX
  8
0
 10
121.301286
 20
82.248961
 42
-0.506717
  0
VERTEX
  8
0
 10
121.549809
 20
82.687606
 42
-0.026351
  0
VERTEX
  8
0
 10
124.501886
 20
82.878627
 42
-0.002002
  0
VERTEX
  8
0
 10
132.500000
 20
82.942004
 42
-0.001227
  0
VERTEX
  8
0
 10
142.003736
 20
82.955947
 42
-0.039753
  0
VERTEX
  8
0
 10
144.303405
 20
82.770538
 42
-0.632729
  0
VERTEX
  8
0
 10
144.459110
 20
82.234323
 42
-0.065552
  0
SEQEND
  0
POLYLINE
  8
0
 66
1
 70
1
  0
VERTEX
  8
0
 10
212.013911
 20
81.248446
 42
0.100263
  0
VERTEX
  8
0
 10
208.578168
 20
78.555730
 42
0.127750
  0
VERTEX
  8
0
 10
206.825895
 20
74.947339
 42
0.048216
  0
VERTEX
  8
0
 10
206.170860
 20
68.521675
 42
0.004386
  0
VERTEX
  8
0
 10
206.227923
 20
52.401274
 42
0.003614
  0
VERTEX
  8
0
 10
206.538582
 20
36.503996
 42
0.050379
  0
VERTEX
  8
0
 10
207.266176
 20
30.825605
 42
0.143827
  0
VERTEX
  8
0
 10
209.016831
 20
27.723624
 42
0.090318
  0
VERTEX
  8
0
 10
212.499613
 20
25.385914
 42
-0.251281
  0
VERTEX
  8
0
 10
212.980168
 20
24.776133
 42
-0.432289
  0
VERTEX
  8
0
 10
212.630605
 20
24.307607
 42
-0.027351
  0
VERTEX
  8
0
 10
209.665204
 20
24.132276
 42
-0.002003
  0
VERTEX
  8
0
 10
201.500000
 20
24.129330
 42
-0.003008
  0
VERTEX
  8
0
 10
194.791703
 20
24.194155
 42
-0.018667
  0
VERTEX
  8
0
 10
191.354084
 20
24.376550
 42
-0.168313
  0
VERTEX
  8
0
 10
190.609474
 20
24.712506
 42
-0.580148
  0
VERTEX
  8
0
 10
190.705190
 20
25.107169
 42
0.118284
  0
VERTEX
  8
0
 10
194.262317
 20
27.129465
 42
0.151185
  0
VERTEX
  8
0
 10
196.120118
 20
30.387214
 42
0.050534
  0
VERTEX
  8
0
 10
196.863843
 20
36.704233
 42
0.004053
  0
VERTEX
  8
0
 10
197.000000
 20
53.500000
 42
0.004053
  0
VERTEX
  8
0
 10
196.863843
 20
70.295767
 42
0.050534
  0
VERTEX
  8
0
 10
196.120118
 20
76.612786
 42
0.151185
  0
VERTEX
  8
0
 10
194.262317
 20
79.870535
 42
0.118284
  0
VERTEX
  8
0
 10
190.705190
 20
81.892831
 42
-0.571546
  0
VERTEX
  8
0
 10
190.603033
 20
82.291495
 42
-0.174074
  0
VERTEX
  8
0
 10
191.331258
 20
82.632982
 42
-0.018878
  0
VERTEX
  8
0
 10
194.759373
 20
82.825288
 42
-0.002989
  0
VERTEX
  8
0
 10
201.500000
 20
82.908258
 42
-0.001231
  0
VERTEX
  8
0
 10
210.990402
 20
82.944969
 42
-0.039516
  0
VERTEX
  8
0
 10
213.298124
 20
82.765564
 42
-0.631877
  0
VERTEX
  8
0
 10
213.456099
 20
82.230646
 42
-0.066602
  0
SEQEND
  0
POLYLINE
  8
0
 66
1
 70
1
  0
VERTEX
  8
0
 10
250.457381
 20
81.137076
 42
0.100270
  0
VERTEX
  8
0
 10
243.603273
 20
74.784001
 42
0.077619
  0
VERTEX
  8
0
 10
238.995649
 20
65.679877
 42
0.072426
  0
VERTEX
  8
0
 10
237.169976
 20
54.979595
 42
0.068721
  0
VERTEX
  8
0
 10
238.414129
 20
44.000000
 42
0.065946
  0
VERTEX
  8
0
 10
241.472964
 20
36.380647
 42
0.089725
  0
VERTEX
  8
0
 10
246.191742
 20
30.691483
 42
0.094359
  0
VERTEX
  8
0
 10
252.402900
 20
27.207154
 42
0.080944
  0
VERTEX
  8
0
 10
259.810761
 20
26.000000
 42
0.068159
  0
VERTEX
  8
0
 10
266.115167
 20
26.863409
 42
0.088453
  0
VERTEX
  8
0
 10
271.360986
 20
29.388769
 42
0.090982
  0
VERTEX
  8
0
 10
275.305898
 20
33.504388
 42
0.076623
  0
VERTEX
  8
0
 10
277.825051
 20
39.000000
 42
-0.013206
  0
VERTEX
  8
0
 10
278.224163
 20
40.275403
 42
-0.071808
  0
VERTEX
  8
0
 10
278.553229
 20
40.918336
 42
-0.538279
  0
VERTEX
  8
0
 10
278.764195
 20
40.911322
 42
-0.129686
  0
VERTEX
  8
0
 10
278.887850
 20
40.500000
 42
-0.094641
  0
VERTEX
  8
0
 10
278.444383
 20
37.654794
 42
-0.035940
  0
VERTEX
  8
0
 10
276.816817
 20
33.962627
 42
-0.035914
  0
VERTEX
  8
0
 10
274.574208
 20
30.376340
 42
-0.060237
  0
VERTEX
  8
0
 10
272.152297
 20
27.781603
 42
-0.133195
  0
VERTEX
  8
0
 10
263.511845
 20
23.769922
 42
-0.080899
  0
VERTEX
  8
0
 10
252.174357
 20
23.674723
 42
-0.079011
  0
VERTEX
  8
0
 10
241.119941
 20
27.224825
 42
-0.114826
  0
VERTEX
  8
0
 10
233.296899
 20
33.775256
 42
-0.039840
  0
VERTEX
  8
0
 10
230.750918
 20
37.787684
 42
-0.052712
  0
VERTEX
  8
0
 10
229.145033
 20
41.802999
 42
-0.046224
  0
VERTEX
  8
0
 10
228.284183
 20
46.461106
 42
-0.022594
  0
VERTEX
  8
0
 10
228.011154
 20
52.500000
 42
-0.047618
  0
VERTEX
  8
0
 10
228.900886
 20
61.821187
 42
-0.077624
  0
VERTEX
  8
0
 10
231.584161
 20
69.281485
 42
-0.084162
  0
VERTEX
  8
0
 10
236.219926
 20
75.155326
 42
-0.066392
  0
VERTEX
  8
0
 10
242.905158
 20
79.750000
 42
-0.019769
  0
VERTEX
  8
0
 10
247.742714
 20
81.968720
 42
-0.052259
  0
VERTEX
  8
0
 10
251.392104
 20
83.042118
 42
-0.651560
  0
VERTEX
  8
0
 10
251.790296
 20
82.456941
 42
-0.116964
  0
SEQEND
  0
POLYLINE
  8
0
 66
1
 70
1
  0
VERTEX
  8
0
 10
270.251583
 20
81.624799
 42
0.012017
  0
VERTEX
  8
0
 10
272.888378
 20
80.899865
 42
0.069875
  0
VERTEX
  8
0
 10
274.318539
 20
80.749512
 42
0.120146
  0
VERTEX
  8
0
 10
275.360836
 20
81.042384
 42
0.068188
  0
VERTEX
  8
0
 10
276.410514
 20
81.839085
 42
-0.232328
  0
VERTEX
  8
0
 10
277.212997
 20
82.112917
 42
-0.326102
  0
VERTEX
  8
0
 10
277.742643
 20
81.611354
 42
-0.043706
  0
VERTEX
  8
0
 10
277.944925
 20
79.484184
 42
-0.003037
  0
VERTEX
  8
0
 10
277.953226
 20
73.464286
 42
0.000000
  0
VERTEX
  8
0
 10
277.906451
 20
63.500000
 42
0.000000
  0
VERTEX
  8
0
 10
276.028030
 20
68.307535
 42
0.031731
  0
VERTEX
  8
0
 10
273.971148
 20
72.723218
 42
0.041495
  0
VERTEX
  8
0
 10
271.522909
 20
76.441258
 42
0.046383
  0
VERTEX
  8
0
 10
268.775167
 20
79.344121
 42
0.065666
  0
VERTEX
  8
0
 10
265.820373
 20
81.318244
 42
-0.049023
  0
VERTEX
  8
0
 10
264.043829
 20
82.421738
 42
-0.691033
  0
VERTEX
  8
0
 10
264.193939
 20
82.920468
 42
-0.079219
  0
VERTEX
  8
0
 10
266.219191
 20
82.739667
 42
-0.011297
  0
SEQEND
  0
POLYLINE
  8
0
 66
1
 70
1
  0
VERTEX
  8
0
 10
347.364076
 20
78.360429
 42
-0.017183
  0
VERTEX
  8
0
 10
347.772512
 20
74.364317
 42
-0.017138
  0
VERTEX
  8
0
 10
347.906051
 20
70.346100
 42
-0.035697
  0
VERTEX
  8
0
 10
347.738259
 20
68.033064
 42
-0.793365
  0
VERTEX
  8
0
 10
347.353189
 20
68.000000
 42
0.044344
  0
VERTEX
  8
0
 10
344.573913
 20
74.506097
 42
0.106816
  0
VERTEX
  8
0
 10
341.197647
 20
78.472734
 42
0.105276
  0
VERTEX
  8
0
 10
336.451685
 20
80.724585
 42
0.042314
  0
VERTEX
  8
0
 10
329.313626
 20
81.793654
 42
0.000000
  0
VERTEX
  8
0
 10
321.875067
 20
82.271032
 42
0.000000
  0
VERTEX
  8
0
 10
322.187533
 20
56.287040
 42
0.002782
  0
VERTEX
  8
0
 10
322.518039
 20
37.498181
 42
0.044615
  0
VERTEX
  8
0
 10
323.229549
 20
31.190397
 42
0.141429
  0
VERTEX
  8
0
 10
324.985798
 20
27.837369
 42
0.099403
  0
VERTEX
  8
0
 10
328.499613
 20
25.385914
 42
-0.220858
  0
VERTEX
  8
0
 10
329.047854
 20
24.767172
 42
-0.463840
  0
VERTEX
  8
0
 10
328.740922
 20
24.296936
 42
-0.028951
  0
VERTEX
  8
0
 10
325.920655
 20
24.110481
 42
-0.002033
  0
VERTEX
  8
0
 10
318.000000
 20
24.078284
 42
-0.002033
  0
VERTEX
  8
0
 10
310.079345
 20
24.110481
 42
-0.028951
  0
VERTEX
  8
0
 10
307.259078
 20
24.296936
 42
-0.463840
  0
VERTEX
  8
0
 10
306.952146
 20
24.767172
 42
-0.220858
  0
VERTEX
  8
0
 10
307.500387
 20
25.385914
 42
0.099092
  0
VERTEX
  8
0
 10
311.013242
 20
27.833481
 42
0.141532
  0
VERTEX
  8
0
 10
312.769334
 20
31.177802
 42
0.044794
  0
VERTEX
  8
0
 10
313.481409
 20
37.463810
 42
0.002805
  0
VERTEX
  8
0
 10
313.811456
 20
56.151524
 42
0.000000
  0
VERTEX
  8
0
 10
314.122913
 20
82.000000
 42
0.000000
  0
VERTEX
  8
0
 10
308.804854
 20
82.000000
 42
0.049531
  0
VERTEX
  8
0
 10
301.970580
 20
81.321317
 42
0.076850
  0
VERTEX
  8
0
 10
296.417033
 20
79.285543
 42
0.093695
  0
VERTEX
  8
0
 10
292.514437
 20
76.054052
 42
0.119601
  0
VERTEX
  8
0
 10
290.471651
 20
71.870926
 42
-0.028733
  0
VERTEX
  8
0
 10
290.151729
 20
70.731182
 42
-0.030680
  0
VERTEX
  8
0
 10
289.708805
 20
69.661101
 42
-0.032236
  0
VERTEX
  8
0
 10
289.216195
 20
68.797206
 42
-0.109064
  0
VERTEX
  8
0
 10
288.753125
 20
68.347423
 42
-0.084186
  0
VERTEX
  8
0
 10
288.331704
 20
68.176360
 42
-0.368432
  0
VERTEX
  8
0
 10
288.112284
 20
68.292939
 42
-0.161396
  0
VERTEX
  8
0
 10
288.090318
 20
68.682059
 42
-0.025697
  0
VERTEX
  8
0
 10
288.330061
 20
69.417743
 42
0.059010
  0
VERTEX
  8
0
 10
288.590505
 20
70.444041
 42
0.010862
  0
VERTEX
  8
0
 10
288.803205
 20
72.389212
 42
0.011530
  0
VERTEX
  8
0
 10
288.950833
 20
74.687982
 42
0.010269
  0
VERTEX
  8
0
 10
289.000000
 20
77.081787
 42
0.000000
  0
VERTEX
  8
0
 10
289.000000
 20
83.000000
 42
0.000000
  0
VERTEX
  8
0
 10
317.864076
 20
83.000000
 42
0.000000
  0
VERTEX
  8
0
 10
346.728152
 20
83.000000
 42
0.000000
  0
SEQEND
  0
POLYLINE
  8
0
 66
1
 70
1
  0
VERTEX
  8
0
 10
380.418665
 20
81.924925
 42
0.038812
  0
VERTEX
  8
0
 10
379.098608
 20
81.427787
 42
0.026231
  0
VERTEX
  8
0
 10
377.678865
 20
80.670127
 42
0.026477
  0
VERTEX
  8
0
 10
376.375866
 20
79.787083
 42
0.046734
  0
VERTEX
  8
0
 10
375.418665
 20
78.909655
 42
0.118333
  0
VERTEX
  8
0
 10
374.340164
 20
76.934924
 42
0.045591
  0
VERTEX
  8
0
 10
373.798379
 20
73.838076
 42
0.018591
  0
VERTEX
  8
0
 10
373.552498
 20
68.365192
 42
0.001987
  0
VERTEX
  8
0
 10
373.504869
 20
55.644541
 42
0.002481
  0
VERTEX
  8
0
 10
373.566779
 20
43.719297
 42
0.015586
  0
VERTEX
  8
0
 10
373.818268
 20
37.636668
 42
0.030993
  0
VERTEX
  8
0
 10
374.326741
 20
33.877816
 42
0.075777
  0
VERTEX
  8
0
 10
375.275679
 20
31.259418
 42
0.061311
  0
VERTEX
  8
0
 10
377.335280
 20
28.383114
 42
0.069597
  0
VERTEX
  8
0
 10
379.953589
 20
26.231193
 42
0.063217
  0
VERTEX
  8
0
 10
383.275791
 20
24.736807
 42
0.039682
  0
VERTEX
  8
0
 10
387.441156
 20
23.817959
 42
-0.003494
  0
VERTEX
  8
0
 10
389.940702
 20
23.453520
 42
-0.867133
  0
VERTEX
  8
0
 10
389.939622
 20
23.342047
 42
-0.045403
  0
VERTEX
  8
0
 10
389.094622
 20
23.306831
 42
-0.001068
  0
VERTEX
  8
0
 10
385.129656
 20
23.510126
 42
-0.036853
  0
VERTEX
  8
0
 10
378.666354
 20
24.335649
 42
-0.058076
  0
VERTEX
  8
0
 10
373.357679
 20
26.075646
 42
-0.069990
  0
VERTEX
  8
0
 10
369.349431
 20
28.658993
 42
-0.099135
  0
VERTEX
  8
0
 10
366.751554
 20
32.000000
 42
-0.066220
  0
VERTEX
  8
0
 10
365.830750
 20
34.679144
 42
-0.030390
  0
VERTEX
  8
0
 10
365.321591
 20
38.344242
 42
-0.016289
  0
VERTEX
  8
0
 10
365.065880
 20
44.060924
 42
-0.003011
  0
VERTEX
  8
0
 10
365.001554
 20
54.600777
 42
0.004911
  0
VERTEX
  8
0
 10
364.925895
 20
62.240292
 42
0.006927
  0
VERTEX
  8
0
 10
364.697302
 20
69.045194
 42
0.005208
  0
VERTEX
  8
0
 10
364.372520
 20
74.653168
 42
0.066890
  0
VERTEX
  8
0
 10
363.952155
 20
76.707403
 42
0.066006
  0
VERTEX
  8
0
 10
363.013611
 20
78.567712
 42
0.072656
  0
VERTEX
  8
0
 10
361.647461
 20
80.051557
 42
0.060630
  0
VERTEX
  8
0
 10
359.702918
 20
81.272048
 42
0.030294
  0
VERTEX
  8
0
 10
357.000000
 20
82.347931
 42
-0.826259
  0
VERTEX
  8
0
 10
357.025148
 20
82.542476
 42
-0.005633
  0
VERTEX
  8
0
 10
360.053125
 20
82.693640
 42
-0.006550
  0
VERTEX
  8
0
 10
364.230861
 20
82.800264
 42
-0.003305
  0
VERTEX
  8
0
 10
369.500000
 20
82.830864
 42
-0.003297
  0
VERTEX
  8
0
 10
375.937094
 20
82.783251
 42
-0.017200
  0
VERTEX
  8
0
 10
379.479828
 20
82.611698
 42
-0.112121
  0
VERTEX
  8
0
 10
380.465224
 20
82.300289
 42
-0.658604
  0
SEQEND
  0
POLYLINE
  8
0
 66
1
 70
1
  0
VERTEX
  8
0
 10
416.255202
 20
81.882568
 42
0.122025
  0
VERTEX
  8
0
 10
412.891649
 20
79.938872
 42
0.142596
  0
VERTEX
  8
0
 10
411.062804
 20
76.749724
 42
0.050556
  0
VERTEX
  8
0
 10
410.223343
 20
70.632044
 42
0.004652
  0
VERTEX
  8
0
 10
409.824110
 20
55.302816
 42
-0.002129
  0
VERTEX
  8
0
 10
409.558281
 20
42.641505
 42
-0.018429
  0
VERTEX
  8
0
 10
409.208114
 20
37.010377
 42
-0.043403
  0
VERTEX
  8
0
 10
408.589610
 20
33.718263
 42
-0.092478
  0
VERTEX
  8
0
 10
407.451259
 20
31.402595
 42
-0.026393
  0
VERTEX
  8
0
 10
406.498866
 20
30.258240
 42
-0.017831
  0
VERTEX
  8
0
 10
405.301413
 20
29.053903
 42
-0.017993
  0
VERTEX
  8
0
 10
404.056781
 20
27.969693
 42
-0.033819
  0
VERTEX
  8
0
 10
402.966575
 20
27.202804
 42
-0.001420
  0
VERTEX
  8
0
 10
401.298953
 20
26.197334
 42
-0.654351
  0
VERTEX
  8
0
 10
401.220164
 20
26.253478
 42
-0.157906
  0
VERTEX
  8
0
 10
401.336131
 20
26.455828
 42
-0.000736
  0
VERTEX
  8
0
 10
403.155797
 20
28.103026
 42
0.073507
  0
VERTEX
  8
0
 10
405.891462
 20
31.418801
 42
0.091907
  0
VERTEX
  8
0
 10
407.293650
 20
35.146557
 42
0.040038
  0
VERTEX
  8
0
 10
407.875249
 20
41.158244
 42
0.004284
  0
VERTEX
  8
0
 10
407.985258
 20
55.184259
 42
0.005165
  0
VERTEX
  8
0
 10
407.821315
 20
70.013802
 42
0.050445
  0
VERTEX
  8
0
 10
407.058276
 20
76.227490
 42
0.134436
  0
VERTEX
  8
0
 10
405.275673
 20
79.567431
 42
0.121169
  0
VERTEX
  8
0
 10
401.973928
 20
81.693558
 42
-0.062112
  0
VERTEX
  8
0
 10
400.723438
 20
82.305352
 42
-0.683742
  0
VERTEX
  8
0
 10
400.803419
 20
82.684811
 42
-0.039681
  0
VERTEX
  8
0
 10
402.734032
 20
82.847905
 42
-0.002043
  0
VERTEX
  8
0
 10
409.000000
 20
82.853370
 42
-0.003078
  0
VERTEX
  8
0
 10
414.372279
 20
82.803032
 42
-0.029382
  0
VERTEX
  8
0
 10
416.658772
 20
82.632898
 42
-0.552399
  0
VERTEX
  8
0
 10
416.813418
 20
82.294284
 42
-0.179053
  0
SEQEND
  0
POLYLINE
  8
0
 66
1
 70
1
  0
VERTEX
  8
0
 10
458.605887
 20
81.384068
 42
0.054586
  0
VERTEX
  8
0
 10
459.648070
 20
81.240558
 42
0.046740
  0
VERTEX
  8
0
 10
460.754089
 20
81.313256
 42
0.048876
  0
VERTEX
  8
0
 10
461.763955
 20
81.578362
 42
0.084784
  0
VERTEX
  8
0
 10
462.512986
 20
82.010777
 42
-0.284114
  0
VERTEX
  8
0
 10
463.244181
 20
82.113137
 42
-0.248416
  0
VERTEX
  8
0
 10
463.729568
 20
81.499551
 42
-0.043736
  0
VERTEX
  8
0
 10
463.924697
 20
79.449124
 42
-0.004090
  0
VERTEX
  8
0
 10
463.921053
 20
74.372445
 42
0.000000
  0
VERTEX
  8
0
 10
463.842105
 20
65.500000
 42
0.000000
  0
VERTEX
  8
0
 10
461.852057
 20
71.206987
 42
0.026015
  0
VERTEX
  8
0
 10
460.752911
 20
73.899781
 42
0.031350
  0
VERTEX
  8
0
 10
459.437537
 20
76.294810
 42
0.033240
  0
VERTEX
  8
0
 10
457.911240
 20
78.382143
 42
0.037802
  0
VERTEX
  8
0
 10
456.181004
 20
80.154417
 42
-0.012731
  0
VERTEX
  8
0
 10
454.880208
 20
81.359674
 42
-0.042870
  0
VERTEX
  8
0
 10
454.122647
 20
82.236857
 42
-0.263772
  0
VERTEX
  8
0
 10
454.084066
 20
82.583417
 42
-0.402221
  0
VERTEX
  8
0
 10
454.342901
 20
82.693165
 42
0.011081
  0
VERTEX
  8
0
 10
455.220958
 20
82.380938
 42
0.005385
  0
VERTEX
  8
0
 10
456.355350
 20
82.019169
 42
0.005338
  0
VERTEX
  8
0
 10
457.544790
 20
81.667761
 42
0.007672
  0
SEQEND
  0
POLYLINE
  8
0
 66
1
 70
1
  0
VERTEX
  8
0
 10
439.362535
 20
27.250000
 42
-0.002900
  0
VERTEX
  8
0
 10
442.318597
 20
24.627924
 42
-0.418676
  0
VERTEX
  8
0
 10
442.338074
 20
24.208426
 42
-0.308072
  0
VERTEX
  8
0
 10
441.852939
 20
24.096626
 42
-0.002353
  0
VERTEX
  8
0
 10
437.891442
 20
25.660113
 42
0.017707
  0
VERTEX
  8
0
 10
435.714591
 20
26.442906
 42
0.057143
  0
VERTEX
  8
0
 10
434.208558
 20
26.741345
 42
0.083408
  0
VERTEX
  8
0
 10
433.009018
 20
26.639179
 42
0.076864
  0
VERTEX
  8
0
 10
431.871205
 20
26.151639
 42
-0.161638
  0
VERTEX
  8
0
 10
430.865785
 20
25.907999
 42
-0.323645
  0
VERTEX
  8
0
 10
430.276240
 20
26.413473
 42
-0.056992
  0
VERTEX
  8
0
 10
430.054304
 20
28.221343
 42
-0.003382
  0
VERTEX
  8
0
 10
430.045889
 20
33.741526
 42
0.000000
  0
VERTEX
  8
0
 10
430.091778
 20
42.500000
 42
0.000000
  0
VERTEX
  8
0
 10
432.873627
 20
36.500000
 42
0.025458
  0
VERTEX
  8
0
 10
434.209793
 20
33.964772
 42
0.018949
  0
VERTEX
  8
0
 10
435.927257
 20
31.307813
 42
0.019262
  0
VERTEX
  8
0
 10
437.743030
 20
28.920539
 42
0.040579
  0
SEQEND
  0
ENDSEC
  0
EOF
