  0
SECTION
  2
HEADER
  9
$ACADVER
  1
AC1009
  9
$EXTMIN
 10
0.0
 20
0.0
 30
0.0
  9
$EXTMAX
 10
1000.0
 20
1000.0
 30
0.0
  9
$FILLMODE
 70
 0
  9
$SPLFRAME
 70
 1
  0
ENDSEC
  0
SECTION
  2
TABLES
  0
TABLE
  2
LAYER
 70
1
  0
LAYER
  2
0
 70
     0
 62
     7
  6
CONTINUOUS
  0
ENDTAB
  0
ENDSEC
  0
SECTION
  2
ENTITIES
  0
POLYLINE
  8
0
 62
     30
 66
     1
 10
0
 20
0
 30
0.0
 70
     1
 40
0
 41
0
  0
VERTEX
  8
0
 10
4.16635
 20
4.80968
 30
0.0
 40
0
 41
0
  0
VERTEX
  8
0
 10
4.1659
 20
4.81099
 30
0.0
 40
0
 41
0
  0
VERTEX
  8
0
 10
4.16097
 20
4.82406
 30
0.0
 40
0
 41
0
  0
VERTEX
  8
0
 10
4.16054
 20
4.82536
 30
0.0
 40
0
 41
0
  0
VERTEX
  8
0
 10
4.1429
 20
4.80524
 30
0.0
 40
0
 41
0
  0
VERTEX
  8
0
 10
4.08154
 20
4.75201
 30
0.0
 40
0
 41
0
  0
VERTEX
  8
0
 10
3.98161
 20
4.68647
 30
0.0
 40
0
 41
0
  0
VERTEX
  8
0
 10
3.86431
 20
4.62983
 30
0.0
 40
0
 41
0
  0
VERTEX
  8
0
 10
3.73318
 20
4.58317
 30
0.0
 40
0
 41
0
  0
VERTEX
  8
0
 10
3.5919
 20
4.54747
 30
0.0
 40
0
 41
0
  0
VERTEX
  8
0
 10
3.44401
 20
4.52387
 30
0.0
 40
0
 41
0
  0
VERTEX
  8
0
 10
3.29312
 20
4.51329
 30
0.0
 40
0
 41
0
  0
VERTEX
  8
0
 10
3.18024
 20
4.51411
 30
0.0
 40
0
 41
0
  0
VERTEX
  8
0
 10
3.14279
 20
4.51682
 30
0.0
 40
0
 41
0
  0
VERTEX
  8
0
 10
3.11865
 20
4.51861
 30
0.0
 40
0
 41
0
  0
VERTEX
  8
0
 10
3.0465
 20
4.52806
 30
0.0
 40
0
 41
0
  0
VERTEX
  8
0
 10
2.93647
 20
4.5479
 30
0.0
 40
0
 41
0
  0
VERTEX
  8
0
 10
2.81743
 20
4.57536
 30
0.0
 40
0
 41
0
  0
VERTEX
  8
0
 10
2.69433
 20
4.60932
 30
0.0
 40
0
 41
0
  0
VERTEX
  8
0
 10
2.57189
 20
4.64871
 30
0.0
 40
0
 41
0
  0
VERTEX
  8
0
 10
2.45508
 20
4.69254
 30
0.0
 40
0
 41
0
  0
VERTEX
  8
0
 10
2.34868
 20
4.73964
 30
0.0
 40
0
 41
0
  0
VERTEX
  8
0
 10
2.27962
 20
4.7755
 30
0.0
 40
0
 41
0
  0
VERTEX
  8
0
 10
2.2576
 20
4.78901
 30
0.0
 40
0
 41
0
  0
VERTEX
  8
0
 10
2.30051
 20
4.74794
 30
0.0
 40
0
 41
0
  0
VERTEX
  8
0
 10
2.43799
 20
4.63357
 30
0.0
 40
0
 41
0
  0
VERTEX
  8
0
 10
2.63282
 20
4.50028
 30
0.0
 40
0
 41
0
  0
VERTEX
  8
0
 10
2.84169
 20
4.39144
 30
0.0
 40
0
 41
0
  0
VERTEX
  8
0
 10
3.00754
 20
4.32611
 30
0.0
 40
0
 41
0
  0
VERTEX
  8
0
 10
3.06429
 20
4.30925
 30
0.0
 40
0
 41
0
  0
VERTEX
  8
0
 10
3.13129
 20
4.28933
 30
0.0
 40
0
 41
0
  0
VERTEX
  8
0
 10
3.33843
 20
4.24968
 30
0.0
 40
0
 41
0
  0
VERTEX
  8
0
 10
3.60351
 20
4.23253
 30
0.0
 40
0
 41
0
  0
VERTEX
  8
0
 10
3.84136
 20
4.257
 30
0.0
 40
0
 41
0
  0
VERTEX
  8
0
 10
3.98936
 20
4.29899
 30
0.0
 40
0
 41
0
  0
VERTEX
  8
0
 10
4.03396
 20
4.32215
 30
0.0
 40
0
 41
0
  0
VERTEX
  8
0
 10
4.06168
 20
4.34099
 30
0.0
 40
0
 41
0
  0
VERTEX
  8
0
 10
4.13108
 20
4.41786
 30
0.0
 40
0
 41
0
  0
VERTEX
  8
0
 10
4.18408
 20
4.53674
 30
0.0
 40
0
 41
0
  0
VERTEX
  8
0
 10
4.1951
 20
4.67019
 30
0.0
 40
0
 41
0
  0
VERTEX
  8
0
 10
4.17779
 20
4.77632
 30
0.0
 40
0
 41
0
  0
VERTEX
  8
0
 10
4.16635
 20
4.80968
 30
0.0
 40
0
 41
0
  0
SEQEND
 8
0
  0
POLYLINE
  8
0
 62
     152
 66
     1
 10
0
 20
0
 30
0.0
 70
     1
 40
0
 41
0
  0
VERTEX
  8
0
 10
3.66613
 20
6.10015
 30
0.0
 40
0
 41
0
  0
VERTEX
  8
0
 10
3.69835
 20
6.08117
 30
0.0
 40
0
 41
0
  0
VERTEX
  8
0
 10
3.78722
 20
6.01069
 30
0.0
 40
0
 41
0
  0
VERTEX
  8
0
 10
3.88303
 20
5.90261
 30
0.0
 40
0
 41
0
  0
VERTEX
  8
0
 10
3.95503
 20
5.77865
 30
0.0
 40
0
 41
0
  0
VERTEX
  8
0
 10
4.00461
 20
5.64133
 30
0.0
 40
0
 41
0
  0
VERTEX
  8
0
 10
4.03331
 20
5.49338
 30
0.0
 40
0
 41
0
  0
VERTEX
  8
0
 10
4.04254
 20
5.3374
 30
0.0
 40
0
 41
0
  0
VERTEX
  8
0
 10
4.03381
 20
5.17611
 30
0.0
 40
0
 41
0
  0
VERTEX
  8
0
 10
4.00851
 20
5.01215
 30
0.0
 40
0
 41
0
  0
VERTEX
  8
0
 10
3.96815
 20
4.8481
 30
0.0
 40
0
 41
0
  0
VERTEX
  8
0
 10
3.91422
 20
4.68668
 30
0.0
 40
0
 41
0
  0
VERTEX
  8
0
 10
3.8481
 20
4.53049
 30
0.0
 40
0
 41
0
  0
VERTEX
  8
0
 10
3.77132
 20
4.38222
 30
0.0
 40
0
 41
0
  0
VERTEX
  8
0
 10
3.68539
 20
4.24451
 30
0.0
 40
0
 41
0
  0
VERTEX
  8
0
 10
3.59164
 20
4.12001
 30
0.0
 40
0
 41
0
  0
VERTEX
  8
0
 10
3.4916
 20
4.01133
 30
0.0
 40
0
 41
0
  0
VERTEX
  8
0
 10
3.41433
 20
3.94185
 30
0.0
 40
0
 41
0
  0
VERTEX
  8
0
 10
3.38678
 20
3.92111
 30
0.0
 40
0
 41
0
  0
VERTEX
  8
0
 10
3.34017
 20
3.88624
 30
0.0
 40
0
 41
0
  0
VERTEX
  8
0
 10
3.1875
 20
3.79861
 30
0.0
 40
0
 41
0
  0
VERTEX
  8
0
 10
2.99061
 20
3.72586
 30
0.0
 40
0
 41
0
  0
VERTEX
  8
0
 10
2.80171
 20
3.69814
 30
0.0
 40
0
 41
0
  0
VERTEX
  8
0
 10
2.62631
 20
3.71089
 30
0.0
 40
0
 41
0
  0
VERTEX
  8
0
 10
2.47
 20
3.75939
 30
0.0
 40
0
 41
0
  0
VERTEX
  8
0
 10
2.33832
 20
3.83903
 30
0.0
 40
0
 41
0
  0
VERTEX
  8
0
 10
2.23693
 20
3.94515
 30
0.0
 40
0
 41
0
  0
VERTEX
  8
0
 10
2.18257
 20
4.03939
 30
0.0
 40
0
 41
0
  0
VERTEX
  8
0
 10
2.17133
 20
4.07308
 30
0.0
 40
0
 41
0
  0
VERTEX
  8
0
 10
2.19043
 20
4.04465
 30
0.0
 40
0
 41
0
  0
VERTEX
  8
0
 10
2.26893
 20
3.97336
 30
0.0
 40
0
 41
0
  0
VERTEX
  8
0
 10
2.39404
 20
3.91331
 30
0.0
 40
0
 41
0
  0
VERTEX
  8
0
 10
2.53444
 20
3.89486
 30
0.0
 40
0
 41
0
  0
VERTEX
  8
0
 10
2.64387
 20
3.90842
 30
0.0
 40
0
 41
0
  0
VERTEX
  8
0
 10
2.678
 20
3.91986
 30
0.0
 40
0
 41
0
  0
VERTEX
  8
0
 10
2.72721
 20
3.93961
 30
0.0
 40
0
 41
0
  0
VERTEX
  8
0
 10
2.86219
 20
4.03043
 30
0.0
 40
0
 41
0
  0
VERTEX
  8
0
 10
3.02289
 20
4.19422
 30
0.0
 40
0
 41
0
  0
VERTEX
  8
0
 10
3.16026
 20
4.39546
 30
0.0
 40
0
 41
0
  0
VERTEX
  8
0
 10
3.27453
 20
4.61817
 30
0.0
 40
0
 41
0
  0
VERTEX
  8
0
 10
3.36589
 20
4.84646
 30
0.0
 40
0
 41
0
  0
VERTEX
  8
0
 10
3.43463
 20
5.06446
 30
0.0
 40
0
 41
0
  0
VERTEX
  8
0
 10
3.48096
 20
5.25629
 30
0.0
 40
0
 41
0
  0
VERTEX
  8
0
 10
3.50108
 20
5.36843
 30
0.0
 40
0
 41
0
  0
VERTEX
  8
0
 10
3.5051
 20
5.40603
 30
0.0
 40
0
 41
0
  0
VERTEX
  8
0
 10
3.50911
 20
5.45469
 30
0.0
 40
0
 41
0
  0
VERTEX
  8
0
 10
3.51129
 20
5.6014
 30
0.0
 40
0
 41
0
  0
VERTEX
  8
0
 10
3.49468
 20
5.76406
 30
0.0
 40
0
 41
0
  0
VERTEX
  8
0
 10
3.45529
 20
5.89615
 30
0.0
 40
0
 41
0
  0
VERTEX
  8
0
 10
3.412
 20
5.97667
 30
0.0
 40
0
 41
0
  0
VERTEX
  8
0
 10
3.39312
 20
5.99978
 30
0.0
 40
0
 41
0
  0
VERTEX
  8
0
 10
3.37218
 20
6.02192
 30
0.0
 40
0
 41
0
  0
VERTEX
  8
0
 10
3.29704
 20
6.07639
 30
0.0
 40
0
 41
0
  0
VERTEX
  8
0
 10
3.17665
 20
6.12283
 30
0.0
 40
0
 41
0
  0
VERTEX
  8
0
 10
3.03
 20
6.13211
 30
0.0
 40
0
 41
0
  0
VERTEX
  8
0
 10
2.89762
 20
6.1104
 30
0.0
 40
0
 41
0
  0
VERTEX
  8
0
 10
2.85542
 20
6.09717
 30
0.0
 40
0
 41
0
  0
VERTEX
  8
0
 10
2.87224
 20
6.111
 30
0.0
 40
0
 41
0
  0
VERTEX
  8
0
 10
2.92914
 20
6.14469
 30
0.0
 40
0
 41
0
  0
VERTEX
  8
0
 10
3.01796
 20
6.17985
 30
0.0
 40
0
 41
0
  0
VERTEX
  8
0
 10
3.11822
 20
6.2021
 30
0.0
 40
0
 41
0
  0
VERTEX
  8
0
 10
3.22635
 20
6.21089
 30
0.0
 40
0
 41
0
  0
VERTEX
  8
0
 10
3.33876
 20
6.20562
 30
0.0
 40
0
 41
0
  0
VERTEX
  8
0
 10
3.45193
 20
6.18582
 30
0.0
 40
0
 41
0
  0
VERTEX
  8
0
 10
3.56222
 20
6.15088
 30
0.0
 40
0
 41
0
  0
VERTEX
  8
0
 10
3.64128
 20
6.11481
 30
0.0
 40
0
 41
0
  0
VERTEX
  8
0
 10
3.66613
 20
6.10015
 30
0.0
 40
0
 41
0
  0
SEQEND
 8
0
  0
POLYLINE
  8
0
 62
     240
 66
     1
 10
0
 20
0
 30
0.0
 70
     1
 40
0
 41
0
  0
VERTEX
  8
0
 10
4.06657
 20
4.34099
 30
0.0
 40
0
 41
0
  0
VERTEX
  8
0
 10
4.06728
 20
4.34147
 30
0.0
 40
0
 41
0
  0
VERTEX
  8
0
 10
4.07443
 20
4.34619
 30
0.0
 40
0
 41
0
  0
VERTEX
  8
0
 10
4.07519
 20
4.34663
 30
0.0
 40
0
 41
0
  0
VERTEX
  8
0
 10
4.07531
 20
4.34674
 30
0.0
 40
0
 41
0
  0
VERTEX
  8
0
 10
4.07661
 20
4.3476
 30
0.0
 40
0
 41
0
  0
VERTEX
  8
0
 10
4.07676
 20
4.34765
 30
0.0
 40
0
 41
0
  0
VERTEX
  8
0
 10
4.08046
 20
4.3501
 30
0.0
 40
0
 41
0
  0
VERTEX
  8
0
 10
4.11604
 20
4.37722
 30
0.0
 40
0
 41
0
  0
VERTEX
  8
0
 10
4.11936
 20
4.38015
 30
0.0
 40
0
 41
0
  0
VERTEX
  8
0
 10
4.12093
 20
4.38167
 30
0.0
 40
0
 41
0
  0
VERTEX
  8
0
 10
4.13683
 20
4.39708
 30
0.0
 40
0
 41
0
  0
VERTEX
  8
0
 10
4.13846
 20
4.3986
 30
0.0
 40
0
 41
0
  0
VERTEX
  8
0
 10
4.15186
 20
4.41222
 30
0.0
 40
0
 41
0
  0
VERTEX
  8
0
 10
4.18788
 20
4.45725
 30
0.0
 40
0
 41
0
  0
VERTEX
  8
0
 10
4.23144
 20
4.52636
 30
0.0
 40
0
 41
0
  0
VERTEX
  8
0
 10
4.26833
 20
4.60454
 30
0.0
 40
0
 41
0
  0
VERTEX
  8
0
 10
4.29779
 20
4.69049
 30
0.0
 40
0
 41
0
  0
VERTEX
  8
0
 10
4.31901
 20
4.78288
 30
0.0
 40
0
 41
0
  0
VERTEX
  8
0
 10
4.33122
 20
4.88032
 30
0.0
 40
0
 41
0
  0
VERTEX
  8
0
 10
4.33371
 20
4.9815
 30
0.0
 40
0
 41
0
  0
VERTEX
  8
0
 10
4.32568
 20
5.08513
 30
0.0
 40
0
 41
0
  0
VERTEX
  8
0
 10
4.30632
 20
5.18978
 30
0.0
 40
0
 41
0
  0
VERTEX
  8
0
 10
4.2749
 20
5.29417
 30
0.0
 40
0
 41
0
  0
VERTEX
  8
0
 10
4.23063
 20
5.39686
 30
0.0
 40
0
 41
0
  0
VERTEX
  8
0
 10
4.17279
 20
5.49664
 30
0.0
 40
0
 41
0
  0
VERTEX
  8
0
 10
4.10053
 20
5.59212
 30
0.0
 40
0
 41
0
  0
VERTEX
  8
0
 10
4.01318
 20
5.68197
 30
0.0
 40
0
 41
0
  0
VERTEX
  8
0
 10
3.90983
 20
5.76476
 30
0.0
 40
0
 41
0
  0
VERTEX
  8
0
 10
3.82081
 20
5.82243
 30
0.0
 40
0
 41
0
  0
VERTEX
  8
0
 10
3.78988
 20
5.83925
 30
0.0
 40
0
 41
0
  0
VERTEX
  8
0
 10
3.764
 20
5.85331
 30
0.0
 40
0
 41
0
  0
VERTEX
  8
0
 10
3.68371
 20
5.8904
 30
0.0
 40
0
 41
0
  0
VERTEX
  8
0
 10
3.55111
 20
5.94038
 30
0.0
 40
0
 41
0
  0
VERTEX
  8
0
 10
3.39578
 20
5.98301
 30
0.0
 40
0
 41
0
  0
VERTEX
  8
0
 10
3.22163
 20
6.01215
 30
0.0
 40
0
 41
0
  0
VERTEX
  8
0
 10
3.03239
 20
6.02171
 30
0.0
 40
0
 41
0
  0
VERTEX
  8
0
 10
2.83182
 20
6.00543
 30
0.0
 40
0
 41
0
  0
VERTEX
  8
0
 10
2.62381
 20
5.95719
 30
0.0
 40
0
 41
0
  0
VERTEX
  8
0
 10
2.46289
 20
5.8966
 30
0.0
 40
0
 41
0
  0
VERTEX
  8
0
 10
2.41211
 20
5.87088
 30
0.0
 40
0
 41
0
  0
VERTEX
  8
0
 10
2.37517
 20
5.85226
 30
0.0
 40
0
 41
0
  0
VERTEX
  8
0
 10
2.27197
 20
5.78125
 30
0.0
 40
0
 41
0
  0
VERTEX
  8
0
 10
2.13851
 20
5.65636
 30
0.0
 40
0
 41
0
  0
VERTEX
  8
0
 10
2.02078
 20
5.49918
 30
0.0
 40
0
 41
0
  0
VERTEX
  8
0
 10
1.9464
 20
5.36106
 30
0.0
 40
0
 41
0
  0
VERTEX
  8
0
 10
1.92763
 20
5.31267
 30
0.0
 40
0
 41
0
  0
VERTEX
  8
0
 10
1.94189
 20
5.33632
 30
0.0
 40
0
 41
0
  0
VERTEX
  8
0
 10
1.99669
 20
5.39996
 30
0.0
 40
0
 41
0
  0
VERTEX
  8
0
 10
2.09375
 20
5.47114
 30
0.0
 40
0
 41
0
  0
VERTEX
  8
0
 10
2.22553
 20
5.5255
 30
0.0
 40
0
 41
0
  0
VERTEX
  8
0
 10
2.35519
 20
5.55615
 30
0.0
 40
0
 41
0
  0
VERTEX
  8
0
 10
2.39899
 20
5.56233
 30
0.0
 40
0
 41
0
  0
VERTEX
  8
0
 10
2.45161
 20
5.56896
 30
0.0
 40
0
 41
0
  0
VERTEX
  8
0
 10
2.61154
 20
5.57303
 30
0.0
 40
0
 41
0
  0
VERTEX
  8
0
 10
2.85118
 20
5.55524
 30
0.0
 40
0
 41
0
  0
VERTEX
  8
0
 10
3.10796
 20
5.50803
 30
0.0
 40
0
 41
0
  0
VERTEX
  8
0
 10
3.30701
 20
5.45324
 30
0.0
 40
0
 41
0
  0
VERTEX
  8
0
 10
3.37175
 20
5.43039
 30
0.0
 40
0
 41
0
  0
VERTEX
  8
0
 10
3.4286
 20
5.40944
 30
0.0
 40
0
 41
0
  0
VERTEX
  8
0
 10
3.6805
 20
5.29081
 30
0.0
 40
0
 41
0
  0
VERTEX
  8
0
 10
3.89046
 20
5.15549
 30
0.0
 40
0
 41
0
  0
VERTEX
  8
0
 10
3.92638
 20
5.12619
 30
0.0
 40
0
 41
0
  0
VERTEX
  8
0
 10
3.95594
 20
5.10081
 30
0.0
 40
0
 41
0
  0
VERTEX
  8
0
 10
4.07308
 20
4.97613
 30
0.0
 40
0
 41
0
  0
VERTEX
  8
0
 10
4.15061
 20
4.85101
 30
0.0
 40
0
 41
0
  0
VERTEX
  8
0
 10
4.16043
 20
4.82536
 30
0.0
 40
0
 41
0
  0
VERTEX
  8
0
 10
4.16086
 20
4.82406
 30
0.0
 40
0
 41
0
  0
VERTEX
  8
0
 10
4.16575
 20
4.81099
 30
0.0
 40
0
 41
0
  0
VERTEX
  8
0
 10
4.16624
 20
4.80968
 30
0.0
 40
0
 41
0
  0
VERTEX
  8
0
 10
4.17768
 20
4.77632
 30
0.0
 40
0
 41
0
  0
VERTEX
  8
0
 10
4.19493
 20
4.67014
 30
0.0
 40
0
 41
0
  0
VERTEX
  8
0
 10
4.18397
 20
4.53668
 30
0.0
 40
0
 41
0
  0
VERTEX
  8
0
 10
4.13097
 20
4.41786
 30
0.0
 40
0
 41
0
  0
VERTEX
  8
0
 10
4.06147
 20
4.34099
 30
0.0
 40
0
 41
0
  0
VERTEX
  8
0
 10
4.03375
 20
4.32215
 30
0.0
 40
0
 41
0
  0
VERTEX
  8
0
 10
4.03375
 20
4.32215
 30
0.0
 40
0
 41
0
  0
VERTEX
  8
0
 10
4.03375
 20
4.32215
 30
0.0
 40
0
 41
0
  0
VERTEX
  8
0
 10
4.03375
 20
4.32215
 30
0.0
 40
0
 41
0
  0
VERTEX
  8
0
 10
4.0356
 20
4.32324
 30
0.0
 40
0
 41
0
  0
VERTEX
  8
0
 10
4.05447
 20
4.33376
 30
0.0
 40
0
 41
0
  0
VERTEX
  8
0
 10
4.05647
 20
4.33485
 30
0.0
 40
0
 41
0
  0
VERTEX
  8
0
 10
4.05669
 20
4.33501
 30
0.0
 40
0
 41
0
  0
VERTEX
  8
0
 10
4.0594
 20
4.33669
 30
0.0
 40
0
 41
0
  0
VERTEX
  8
0
 10
4.05968
 20
4.33686
 30
0.0
 40
0
 41
0
  0
VERTEX
  8
0
 10
4.06028
 20
4.33724
 30
0.0
 40
0
 41
0
  0
VERTEX
  8
0
 10
4.06603
 20
4.34065
 30
0.0
 40
0
 41
0
  0
VERTEX
  8
0
 10
4.06657
 20
4.34099
 30
0.0
 40
0
 41
0
  0
SEQEND
 8
0
  0
POLYLINE
  8
0
 62
     30
 66
     1
 10
0
 20
0
 30
0.0
 70
     1
 40
0
 41
0
  0
VERTEX
  8
0
 10
2.01617
 20
4.86057
 30
0.0
 40
0
 41
0
  0
VERTEX
  8
0
 10
2.01942
 20
4.85536
 30
0.0
 40
0
 41
0
  0
VERTEX
  8
0
 10
2.04486
 20
4.82183
 30
0.0
 40
0
 41
0
  0
VERTEX
  8
0
 10
2.07362
 20
4.78765
 30
0.0
 40
0
 41
0
  0
VERTEX
  8
0
 10
2.07856
 20
4.78207
 30
0.0
 40
0
 41
0
  0
VERTEX
  8
0
 10
2.0919
 20
4.81358
 30
0.0
 40
0
 41
0
  0
VERTEX
  8
0
 10
2.15662
 20
4.89779
 30
0.0
 40
0
 41
0
  0
VERTEX
  8
0
 10
2.27908
 20
5.00174
 30
0.0
 40
0
 41
0
  0
VERTEX
  8
0
 10
2.43235
 20
5.09278
 30
0.0
 40
0
 41
0
  0
VERTEX
  8
0
 10
2.60308
 20
5.16971
 30
0.0
 40
0
 41
0
  0
VERTEX
  8
0
 10
2.77772
 20
5.23133
 30
0.0
 40
0
 41
0
  0
VERTEX
  8
0
 10
2.94293
 20
5.27653
 30
0.0
 40
0
 41
0
  0
VERTEX
  8
0
 10
3.08524
 20
5.30404
 30
0.0
 40
0
 41
0
  0
VERTEX
  8
0
 10
3.16465
 20
5.3131
 30
0.0
 40
0
 41
0
  0
VERTEX
  8
0
 10
3.19114
 20
5.31278
 30
0.0
 40
0
 41
0
  0
VERTEX
  8
0
 10
3.14535
 20
5.32753
 30
0.0
 40
0
 41
0
  0
VERTEX
  8
0
 10
3.00504
 20
5.36219
 30
0.0
 40
0
 41
0
  0
VERTEX
  8
0
 10
2.82319
 20
5.39106
 30
0.0
 40
0
 41
0
  0
VERTEX
  8
0
 10
2.64887
 20
5.40099
 30
0.0
 40
0
 41
0
  0
VERTEX
  8
0
 10
2.4854
 20
5.39378
 30
0.0
 40
0
 41
0
  0
VERTEX
  8
0
 10
2.3361
 20
5.37099
 30
0.0
 40
0
 41
0
  0
VERTEX
  8
0
 10
2.20432
 20
5.33442
 30
0.0
 40
0
 41
0
  0
VERTEX
  8
0
 10
2.09332
 20
5.28564
 30
0.0
 40
0
 41
0
  0
VERTEX
  8
0
 10
2.02615
 20
5.24349
 30
0.0
 40
0
 41
0
  0
VERTEX
  8
0
 10
2.00646
 20
5.22635
 30
0.0
 40
0
 41
0
  0
VERTEX
  8
0
 10
1.99328
 20
5.21169
 30
0.0
 40
0
 41
0
  0
VERTEX
  8
0
 10
1.96322
 20
5.15901
 30
0.0
 40
0
 41
0
  0
VERTEX
  8
0
 10
1.94564
 20
5.07611
 30
0.0
 40
0
 41
0
  0
VERTEX
  8
0
 10
1.96089
 20
4.97683
 30
0.0
 40
0
 41
0
  0
VERTEX
  8
0
 10
1.99929
 20
4.88775
 30
0.0
 40
0
 41
0
  0
VERTEX
  8
0
 10
2.01617
 20
4.86057
 30
0.0
 40
0
 41
0
  0
SEQEND
 8
0
  0
POLYLINE
  8
0
 62
     153
 66
     1
 10
0
 20
0
 30
0.0
 70
     1
 40
0
 41
0
  0
VERTEX
  8
0
 10
3.48519
 20
4.12739
 30
0.0
 40
0
 41
0
  0
VERTEX
  8
0
 10
3.44547
 20
4.12961
 30
0.0
 40
0
 41
0
  0
VERTEX
  8
0
 10
3.32682
 20
4.14242
 30
0.0
 40
0
 41
0
  0
VERTEX
  8
0
 10
3.15554
 20
4.17193
 30
0.0
 40
0
 41
0
  0
VERTEX
  8
0
 10
2.97532
 20
4.2181
 30
0.0
 40
0
 41
0
  0
VERTEX
  8
0
 10
2.79042
 20
4.28304
 30
0.0
 40
0
 41
0
  0
VERTEX
  8
0
 10
2.60493
 20
4.36893
 30
0.0
 40
0
 41
0
  0
VERTEX
  8
0
 10
2.42296
 20
4.47786
 30
0.0
 40
0
 41
0
  0
VERTEX
  8
0
 10
2.24869
 20
4.61199
 30
0.0
 40
0
 41
0
  0
VERTEX
  8
0
 10
2.12403
 20
4.73058
 30
0.0
 40
0
 41
0
  0
VERTEX
  8
0
 10
2.08626
 20
4.77339
 30
0.0
 40
0
 41
0
  0
VERTEX
  8
0
 10
2.08567
 20
4.77403
 30
0.0
 40
0
 41
0
  0
VERTEX
  8
0
 10
2.07915
 20
4.78131
 30
0.0
 40
0
 41
0
  0
VERTEX
  8
0
 10
2.07844
 20
4.78207
 30
0.0
 40
0
 41
0
  0
VERTEX
  8
0
 10
2.07351
 20
4.78771
 30
0.0
 40
0
 41
0
  0
VERTEX
  8
0
 10
2.04482
 20
4.82189
 30
0.0
 40
0
 41
0
  0
VERTEX
  8
0
 10
2.01932
 20
4.85542
 30
0.0
 40
0
 41
0
  0
VERTEX
  8
0
 10
2.01606
 20
4.86068
 30
0.0
 40
0
 41
0
  0
VERTEX
  8
0
 10
1.99918
 20
4.88786
 30
0.0
 40
0
 41
0
  0
VERTEX
  8
0
 10
1.96078
 20
4.97694
 30
0.0
 40
0
 41
0
  0
VERTEX
  8
0
 10
1.94553
 20
5.07617
 30
0.0
 40
0
 41
0
  0
VERTEX
  8
0
 10
1.96311
 20
5.15907
 30
0.0
 40
0
 41
0
  0
VERTEX
  8
0
 10
1.99317
 20
5.21169
 30
0.0
 40
0
 41
0
  0
VERTEX
  8
0
 10
2.00635
 20
5.22635
 30
0.0
 40
0
 41
0
  0
VERTEX
  8
0
 10
2.00635
 20
5.22635
 30
0.0
 40
0
 41
0
  0
VERTEX
  8
0
 10
2.00624
 20
5.22624
 30
0.0
 40
0
 41
0
  0
VERTEX
  8
0
 10
2.00624
 20
5.22624
 30
0.0
 40
0
 41
0
  0
VERTEX
  8
0
 10
2.00299
 20
5.22336
 30
0.0
 40
0
 41
0
  0
VERTEX
  8
0
 10
1.98469
 20
5.20589
 30
0.0
 40
0
 41
0
  0
VERTEX
  8
0
 10
1.96392
 20
5.18257
 30
0.0
 40
0
 41
0
  0
VERTEX
  8
0
 10
1.95947
 20
5.17676
 30
0.0
 40
0
 41
0
  0
VERTEX
  8
0
 10
1.9394
 20
5.15082
 30
0.0
 40
0
 41
0
  0
VERTEX
  8
0
 10
1.89719
 20
5.05903
 30
0.0
 40
0
 41
0
  0
VERTEX
  8
0
 10
1.86925
 20
4.91613
 30
0.0
 40
0
 41
0
  0
VERTEX
  8
0
 10
1.87483
 20
4.75483
 30
0.0
 40
0
 41
0
  0
VERTEX
  8
0
 10
1.90013
 20
4.62397
 30
0.0
 40
0
 41
0
  0
VERTEX
  8
0
 10
1.91314
 20
4.58176
 30
0.0
 40
0
 41
0
  0
VERTEX
  8
0
 10
1.92768
 20
4.5344
 30
0.0
 40
0
 41
0
  0
VERTEX
  8
0
 10
1.99582
 20
4.39979
 30
0.0
 40
0
 41
0
  0
VERTEX
  8
0
 10
2.12067
 20
4.23915
 30
0.0
 40
0
 41
0
  0
VERTEX
  8
0
 10
2.27989
 20
4.10211
 30
0.0
 40
0
 41
0
  0
VERTEX
  8
0
 10
2.46571
 20
3.99072
 30
0.0
 40
0
 41
0
  0
VERTEX
  8
0
 10
2.67042
 20
3.90733
 30
0.0
 40
0
 41
0
  0
VERTEX
  8
0
 10
2.88624
 20
3.85411
 30
0.0
 40
0
 41
0
  0
VERTEX
  8
0
 10
3.10536
 20
3.83322
 30
0.0
 40
0
 41
0
  0
VERTEX
  8
0
 10
3.26708
 20
3.83886
 30
0.0
 40
0
 41
0
  0
VERTEX
  8
0
 10
3.3201
 20
3.84685
 30
0.0
 40
0
 41
0
  0
VERTEX
  8
0
 10
3.38189
 20
3.85618
 30
0.0
 40
0
 41
0
  0
VERTEX
  8
0
 10
3.56337
 20
3.91081
 30
0.0
 40
0
 41
0
  0
VERTEX
  8
0
 10
3.75672
 20
4.00504
 30
0.0
 40
0
 41
0
  0
VERTEX
  8
0
 10
3.9005
 20
4.10449
 30
0.0
 40
0
 41
0
  0
VERTEX
  8
0
 10
3.97179
 20
4.16385
 30
0.0
 40
0
 41
0
  0
VERTEX
  8
0
 10
3.99501
 20
4.18425
 30
0.0
 40
0
 41
0
  0
VERTEX
  8
0
 10
3.95969
 20
4.17421
 30
0.0
 40
0
 41
0
  0
VERTEX
  8
0
 10
3.85206
 20
4.14985
 30
0.0
 40
0
 41
0
  0
VERTEX
  8
0
 10
3.72325
 20
4.13097
 30
0.0
 40
0
 41
0
  0
VERTEX
  8
0
 10
3.60281
 20
4.12451
 30
0.0
 40
0
 41
0
  0
VERTEX
  8
0
 10
3.51454
 20
4.12582
 30
0.0
 40
0
 41
0
  0
VERTEX
  8
0
 10
3.48519
 20
4.12739
 30
0.0
 40
0
 41
0
  0
SEQEND
 8
0
  0
POLYLINE
  8
0
 62
     240
 66
     1
 10
0
 20
0
 30
0.0
 70
     1
 40
0
 41
0
  0
VERTEX
  8
0
 10
2.51628
 20
3.0204
 30
0.0
 40
0
 41
0
  0
VERTEX
  8
0
 10
2.4846
 20
3.0204
 30
0.0
 40
0
 41
0
  0
VERTEX
  8
0
 10
2.38954
 20
3.00553
 30
0.0
 40
0
 41
0
  0
VERTEX
  8
0
 10
2.29579
 20
2.96208
 30
0.0
 40
0
 41
0
  0
VERTEX
  8
0
 10
2.23757
 20
2.89214
 30
0.0
 40
0
 41
0
  0
VERTEX
  8
0
 10
2.21761
 20
2.82124
 30
0.0
 40
0
 41
0
  0
VERTEX
  8
0
 10
2.21761
 20
2.79758
 30
0.0
 40
0
 41
0
  0
VERTEX
  8
0
 10
2.21761
 20
2.77399
 30
0.0
 40
0
 41
0
  0
VERTEX
  8
0
 10
2.23757
 20
2.70313
 30
0.0
 40
0
 41
0
  0
VERTEX
  8
0
 10
2.29579
 20
2.63319
 30
0.0
 40
0
 41
0
  0
VERTEX
  8
0
 10
2.38954
 20
2.58979
 30
0.0
 40
0
 41
0
  0
VERTEX
  8
0
 10
2.4846
 20
2.57488
 30
0.0
 40
0
 41
0
  0
VERTEX
  8
0
 10
2.51628
 20
2.57488
 30
0.0
 40
0
 41
0
  0
VERTEX
  8
0
 10
2.5479
 20
2.57488
 30
0.0
 40
0
 41
0
  0
VERTEX
  8
0
 10
2.6429
 20
2.58979
 30
0.0
 40
0
 41
0
  0
VERTEX
  8
0
 10
2.7366
 20
2.63319
 30
0.0
 40
0
 41
0
  0
VERTEX
  8
0
 10
2.79471
 20
2.70313
 30
0.0
 40
0
 41
0
  0
VERTEX
  8
0
 10
2.81467
 20
2.77399
 30
0.0
 40
0
 41
0
  0
VERTEX
  8
0
 10
2.81467
 20
2.79758
 30
0.0
 40
0
 41
0
  0
VERTEX
  8
0
 10
2.81467
 20
2.82124
 30
0.0
 40
0
 41
0
  0
VERTEX
  8
0
 10
2.79471
 20
2.89214
 30
0.0
 40
0
 41
0
  0
VERTEX
  8
0
 10
2.7366
 20
2.96208
 30
0.0
 40
0
 41
0
  0
VERTEX
  8
0
 10
2.6429
 20
3.00553
 30
0.0
 40
0
 41
0
  0
VERTEX
  8
0
 10
2.5479
 20
3.0204
 30
0.0
 40
0
 41
0
  0
VERTEX
  8
0
 10
2.51628
 20
3.0204
 30
0.0
 40
0
 41
0
  0
SEQEND
 8
0
  0
POLYLINE
  8
0
 62
     240
 66
     1
 10
0
 20
0
 30
0.0
 70
     1
 40
0
 41
0
  0
VERTEX
  8
0
 10
2.51628
 20
2.6779
 30
0.0
 40
0
 41
0
  0
VERTEX
  8
0
 10
2.49918
 20
2.6779
 30
0.0
 40
0
 41
0
  0
VERTEX
  8
0
 10
2.44792
 20
2.68544
 30
0.0
 40
0
 41
0
  0
VERTEX
  8
0
 10
2.39908
 20
2.70801
 30
0.0
 40
0
 41
0
  0
VERTEX
  8
0
 10
2.36968
 20
2.74544
 30
0.0
 40
0
 41
0
  0
VERTEX
  8
0
 10
2.35992
 20
2.78467
 30
0.0
 40
0
 41
0
  0
VERTEX
  8
0
 10
2.35992
 20
2.79769
 30
0.0
 40
0
 41
0
  0
VERTEX
  8
0
 10
2.35992
 20
2.81076
 30
0.0
 40
0
 41
0
  0
VERTEX
  8
0
 10
2.36968
 20
2.84999
 30
0.0
 40
0
 41
0
  0
VERTEX
  8
0
 10
2.39908
 20
2.88743
 30
0.0
 40
0
 41
0
  0
VERTEX
  8
0
 10
2.44792
 20
2.91
 30
0.0
 40
0
 41
0
  0
VERTEX
  8
0
 10
2.49918
 20
2.91749
 30
0.0
 40
0
 41
0
  0
VERTEX
  8
0
 10
2.51628
 20
2.91749
 30
0.0
 40
0
 41
0
  0
VERTEX
  8
0
 10
2.53326
 20
2.91749
 30
0.0
 40
0
 41
0
  0
VERTEX
  8
0
 10
2.58436
 20
2.91
 30
0.0
 40
0
 41
0
  0
VERTEX
  8
0
 10
2.63325
 20
2.88743
 30
0.0
 40
0
 41
0
  0
VERTEX
  8
0
 10
2.66271
 20
2.84999
 30
0.0
 40
0
 41
0
  0
VERTEX
  8
0
 10
2.67258
 20
2.81076
 30
0.0
 40
0
 41
0
  0
VERTEX
  8
0
 10
2.67258
 20
2.79769
 30
0.0
 40
0
 41
0
  0
VERTEX
  8
0
 10
2.67258
 20
2.78467
 30
0.0
 40
0
 41
0
  0
VERTEX
  8
0
 10
2.66271
 20
2.74544
 30
0.0
 40
0
 41
0
  0
VERTEX
  8
0
 10
2.63325
 20
2.70801
 30
0.0
 40
0
 41
0
  0
VERTEX
  8
0
 10
2.58436
 20
2.68544
 30
0.0
 40
0
 41
0
  0
VERTEX
  8
0
 10
2.53326
 20
2.6779
 30
0.0
 40
0
 41
0
  0
VERTEX
  8
0
 10
2.51628
 20
2.6779
 30
0.0
 40
0
 41
0
  0
SEQEND
 8
0
  0
POLYLINE
  8
0
 62
     240
 66
     1
 10
0
 20
0
 30
0.0
 70
     1
 40
0
 41
0
  0
VERTEX
  8
0
 10
2.85335
 20
3.01019
 30
0.0
 40
0
 41
0
  0
VERTEX
  8
0
 10
2.85335
 20
2.91444
 30
0.0
 40
0
 41
0
  0
VERTEX
  8
0
 10
2.85335
 20
2.91444
 30
0.0
 40
0
 41
0
  0
VERTEX
  8
0
 10
2.86068
 20
2.91444
 30
0.0
 40
0
 41
0
  0
VERTEX
  8
0
 10
2.88015
 20
2.91444
 30
0.0
 40
0
 41
0
  0
VERTEX
  8
0
 10
2.90782
 20
2.91444
 30
0.0
 40
0
 41
0
  0
VERTEX
  8
0
 10
2.93983
 20
2.91444
 30
0.0
 40
0
 41
0
  0
VERTEX
  8
0
 10
2.97222
 20
2.91444
 30
0.0
 40
0
 41
0
  0
VERTEX
  8
0
 10
3.00114
 20
2.91444
 30
0.0
 40
0
 41
0
  0
VERTEX
  8
0
 10
3.02274
 20
2.91444
 30
0.0
 40
0
 41
0
  0
VERTEX
  8
0
 10
3.03043
 20
2.91444
 30
0.0
 40
0
 41
0
  0
VERTEX
  8
0
 10
3.03304
 20
2.91444
 30
0.0
 40
0
 41
0
  0
VERTEX
  8
0
 10
3.03304
 20
2.90196
 30
0.0
 40
0
 41
0
  0
VERTEX
  8
0
 10
3.03299
 20
2.86447
 30
0.0
 40
0
 41
0
  0
VERTEX
  8
0
 10
3.03299
 20
2.76351
 30
0.0
 40
0
 41
0
  0
VERTEX
  8
0
 10
3.03293
 20
2.66428
 30
0.0
 40
0
 41
0
  0
VERTEX
  8
0
 10
3.03293
 20
2.61947
 30
0.0
 40
0
 41
0
  0
VERTEX
  8
0
 10
3.03293
 20
2.61947
 30
0.0
 40
0
 41
0
  0
VERTEX
  8
0
 10
3.03293
 20
2.61501
 30
0.0
 40
0
 41
0
  0
VERTEX
  8
0
 10
3.04015
 20
2.60151
 30
0.0
 40
0
 41
0
  0
VERTEX
  8
0
 10
3.05881
 20
2.58963
 30
0.0
 40
0
 41
0
  0
VERTEX
  8
0
 10
3.08436
 20
2.58306
 30
0.0
 40
0
 41
0
  0
VERTEX
  8
0
 10
3.10519
 20
2.581
 30
0.0
 40
0
 41
0
  0
VERTEX
  8
0
 10
3.11219
 20
2.581
 30
0.0
 40
0
 41
0
  0
VERTEX
  8
0
 10
3.11914
 20
2.581
 30
0.0
 40
0
 41
0
  0
VERTEX
  8
0
 10
3.13997
 20
2.58301
 30
0.0
 40
0
 41
0
  0
VERTEX
  8
0
 10
3.16553
 20
2.58957
 30
0.0
 40
0
 41
0
  0
VERTEX
  8
0
 10
3.18419
 20
2.6014
 30
0.0
 40
0
 41
0
  0
VERTEX
  8
0
 10
3.19146
 20
2.6149
 30
0.0
 40
0
 41
0
  0
VERTEX
  8
0
 10
3.19146
 20
2.61936
 30
0.0
 40
0
 41
0
  0
VERTEX
  8
0
 10
3.19146
 20
2.61936
 30
0.0
 40
0
 41
0
  0
VERTEX
  8
0
 10
3.19146
 20
2.66
 30
0.0
 40
0
 41
0
  0
VERTEX
  8
0
 10
3.19146
 20
2.75228
 30
0.0
 40
0
 41
0
  0
VERTEX
  8
0
 10
3.19146
 20
2.85189
 30
0.0
 40
0
 41
0
  0
VERTEX
  8
0
 10
3.19146
 20
2.89882
 30
0.0
 40
0
 41
0
  0
VERTEX
  8
0
 10
3.19146
 20
2.91444
 30
0.0
 40
0
 41
0
  0
VERTEX
  8
0
 10
3.19401
 20
2.91444
 30
0.0
 40
0
 41
0
  0
VERTEX
  8
0
 10
3.20176
 20
2.91444
 30
0.0
 40
0
 41
0
  0
VERTEX
  8
0
 10
3.22336
 20
2.91444
 30
0.0
 40
0
 41
0
  0
VERTEX
  8
0
 10
3.25239
 20
2.91444
 30
0.0
 40
0
 41
0
  0
VERTEX
  8
0
 10
3.28483
 20
2.91444
 30
0.0
 40
0
 41
0
  0
VERTEX
  8
0
 10
3.31689
 20
2.91444
 30
0.0
 40
0
 41
0
  0
VERTEX
  8
0
 10
3.34463
 20
2.91444
 30
0.0
 40
0
 41
0
  0
VERTEX
  8
0
 10
3.3641
 20
2.91444
 30
0.0
 40
0
 41
0
  0
VERTEX
  8
0
 10
3.37147
 20
2.91444
 30
0.0
 40
0
 41
0
  0
VERTEX
  8
0
 10
3.37147
 20
2.91444
 30
0.0
 40
0
 41
0
  0
VERTEX
  8
0
 10
3.37147
 20
3.01019
 30
0.0
 40
0
 41
0
  0
VERTEX
  8
0
 10
2.85335
 20
3.01019
 30
0.0
 40
0
 41
0
  0
SEQEND
 8
0
  0
POLYLINE
  8
0
 62
     240
 66
     1
 10
0
 20
0
 30
0.0
 70
     1
 40
0
 41
0
  0
VERTEX
  8
0
 10
4.32781
 20
2.68414
 30
0.0
 40
0
 41
0
  0
VERTEX
  8
0
 10
4.31392
 20
2.68414
 30
0.0
 40
0
 41
0
  0
VERTEX
  8
0
 10
4.2724
 20
2.6894
 30
0.0
 40
0
 41
0
  0
VERTEX
  8
0
 10
4.24149
 20
2.70161
 30
0.0
 40
0
 41
0
  0
VERTEX
  8
0
 10
4.23742
 20
2.70508
 30
0.0
 40
0
 41
0
  0
VERTEX
  8
0
 10
4.2321
 20
2.70958
 30
0.0
 40
0
 41
0
  0
VERTEX
  8
0
 10
4.21739
 20
2.73693
 30
0.0
 40
0
 41
0
  0
VERTEX
  8
0
 10
4.21306
 20
2.76563
 30
0.0
 40
0
 41
0
  0
VERTEX
  8
0
 10
4.21289
 20
2.77078
 30
0.0
 40
0
 41
0
  0
VERTEX
  8
0
 10
4.213
 20
2.97911
 30
0.0
 40
0
 41
0
  0
VERTEX
  8
0
 10
4.213
 20
2.98351
 30
0.0
 40
0
 41
0
  0
VERTEX
  8
0
 10
4.20606
 20
2.99653
 30
0.0
 40
0
 41
0
  0
VERTEX
  8
0
 10
4.18826
 20
3.00803
 30
0.0
 40
0
 41
0
  0
VERTEX
  8
0
 10
4.1639
 20
3.01438
 30
0.0
 40
0
 41
0
  0
VERTEX
  8
0
 10
4.14399
 20
3.01633
 30
0.0
 40
0
 41
0
  0
VERTEX
  8
0
 10
4.13737
 20
3.01633
 30
0.0
 40
0
 41
0
  0
VERTEX
  8
0
 10
4.13064
 20
3.01633
 30
0.0
 40
0
 41
0
  0
VERTEX
  8
0
 10
4.11062
 20
3.01438
 30
0.0
 40
0
 41
0
  0
VERTEX
  8
0
 10
4.08604
 20
3.00803
 30
0.0
 40
0
 41
0
  0
VERTEX
  8
0
 10
4.06808
 20
2.99658
 30
0.0
 40
0
 41
0
  0
VERTEX
  8
0
 10
4.06114
 20
2.98367
 30
0.0
 40
0
 41
0
  0
VERTEX
  8
0
 10
4.06114
 20
2.97933
 30
0.0
 40
0
 41
0
  0
VERTEX
  8
0
 10
4.06114
 20
2.77756
 30
0.0
 40
0
 41
0
  0
VERTEX
  8
0
 10
4.06114
 20
2.76421
 30
0.0
 40
0
 41
0
  0
VERTEX
  8
0
 10
4.06569
 20
2.72412
 30
0.0
 40
0
 41
0
  0
VERTEX
  8
0
 10
4.07958
 20
2.67942
 30
0.0
 40
0
 41
0
  0
VERTEX
  8
0
 10
4.10265
 20
2.64367
 30
0.0
 40
0
 41
0
  0
VERTEX
  8
0
 10
4.12608
 20
2.62235
 30
0.0
 40
0
 41
0
  0
VERTEX
  8
0
 10
4.13499
 20
2.61703
 30
0.0
 40
0
 41
0
  0
VERTEX
  8
0
 10
4.14725
 20
2.60992
 30
0.0
 40
0
 41
0
  0
VERTEX
  8
0
 10
4.18907
 20
2.5969
 30
0.0
 40
0
 41
0
  0
VERTEX
  8
0
 10
4.25672
 20
2.58697
 30
0.0
 40
0
 41
0
  0
VERTEX
  8
0
 10
4.33296
 20
2.58393
 30
0.0
 40
0
 41
0
  0
VERTEX
  8
0
 10
4.39285
 20
2.58404
 30
0.0
 40
0
 41
0
  0
VERTEX
  8
0
 10
4.41282
 20
2.58425
 30
0.0
 40
0
 41
0
  0
VERTEX
  8
0
 10
4.54508
 20
2.58485
 30
0.0
 40
0
 41
0
  0
VERTEX
  8
0
 10
4.54531
 20
2.60422
 30
0.0
 40
0
 41
0
  0
VERTEX
  8
0
 10
4.54531
 20
2.68425
 30
0.0
 40
0
 41
0
  0
VERTEX
  8
0
 10
4.32781
 20
2.68425
 30
0.0
 40
0
 41
0
  0
SEQEND
 8
0
  0
POLYLINE
  8
0
 62
     240
 66
     1
 10
0
 20
0
 30
0.0
 70
     1
 40
0
 41
0
  0
VERTEX
  8
0
 10
1.87158
 20
2.71539
 30
0.0
 40
0
 41
0
  0
VERTEX
  8
0
 10
1.87158
 20
2.70253
 30
0.0
 40
0
 41
0
  0
VERTEX
  8
0
 10
1.88314
 20
2.66379
 30
0.0
 40
0
 41
0
  0
VERTEX
  8
0
 10
1.91667
 20
2.62299
 30
0.0
 40
0
 41
0
  0
VERTEX
  8
0
 10
1.97021
 20
2.59463
 30
0.0
 40
0
 41
0
  0
VERTEX
  8
0
 10
2.02387
 20
2.58182
 30
0.0
 40
0
 41
0
  0
VERTEX
  8
0
 10
2.04199
 20
2.58029
 30
0.0
 40
0
 41
0
  0
VERTEX
  8
0
 10
2.04199
 20
3.03413
 30
0.0
 40
0
 41
0
  0
VERTEX
  8
0
 10
2.28315
 20
3.03413
 30
0.0
 40
0
 41
0
  0
VERTEX
  8
0
 10
2.28315
 20
3.13872
 30
0.0
 40
0
 41
0
  0
VERTEX
  8
0
 10
1.65533
 20
3.13872
 30
0.0
 40
0
 41
0
  0
VERTEX
  8
0
 10
1.65533
 20
3.03413
 30
0.0
 40
0
 41
0
  0
VERTEX
  8
0
 10
1.87158
 20
3.03413
 30
0.0
 40
0
 41
0
  0
VERTEX
  8
0
 10
1.87158
 20
2.71539
 30
0.0
 40
0
 41
0
  0
SEQEND
 8
0
  0
POLYLINE
  8
0
 62
     240
 66
     1
 10
0
 20
0
 30
0.0
 70
     1
 40
0
 41
0
  0
VERTEX
  8
0
 10
3.99929
 20
2.58415
 30
0.0
 40
0
 41
0
  0
VERTEX
  8
0
 10
3.99571
 20
2.60135
 30
0.0
 40
0
 41
0
  0
VERTEX
  8
0
 10
3.99229
 20
2.61828
 30
0.0
 40
0
 41
0
  0
VERTEX
  8
0
 10
3.97542
 20
2.66764
 30
0.0
 40
0
 41
0
  0
VERTEX
  8
0
 10
3.94363
 20
2.73394
 30
0.0
 40
0
 41
0
  0
VERTEX
  8
0
 10
3.90403
 20
2.79796
 30
0.0
 40
0
 41
0
  0
VERTEX
  8
0
 10
3.86046
 20
2.85742
 30
0.0
 40
0
 41
0
  0
VERTEX
  8
0
 10
3.81657
 20
2.91015
 30
0.0
 40
0
 41
0
  0
VERTEX
  8
0
 10
3.77626
 20
2.95372
 30
0.0
 40
0
 41
0
  0
VERTEX
  8
0
 10
3.74317
 20
2.986
 30
0.0
 40
0
 41
0
  0
VERTEX
  8
0
 10
3.72694
 20
3.00037
 30
0.0
 40
0
 41
0
  0
VERTEX
  8
0
 10
3.72114
 20
3.00456
 30
0.0
 40
0
 41
0
  0
VERTEX
  8
0
 10
3.71783
 20
3.00694
 30
0.0
 40
0
 41
0
  0
VERTEX
  8
0
 10
3.70014
 20
3.01389
 30
0.0
 40
0
 41
0
  0
VERTEX
  8
0
 10
3.67974
 20
3.01622
 30
0.0
 40
0
 41
0
  0
VERTEX
  8
0
 10
3.67513
 20
3.01633
 30
0.0
 40
0
 41
0
  0
VERTEX
  8
0
 10
3.67042
 20
3.01628
 30
0.0
 40
0
 41
0
  0
VERTEX
  8
0
 10
3.6499
 20
3.01389
 30
0.0
 40
0
 41
0
  0
VERTEX
  8
0
 10
3.63211
 20
3.00694
 30
0.0
 40
0
 41
0
  0
VERTEX
  8
0
 10
3.62875
 20
3.00456
 30
0.0
 40
0
 41
0
  0
VERTEX
  8
0
 10
3.62289
 20
3.00037
 30
0.0
 40
0
 41
0
  0
VERTEX
  8
0
 10
3.60667
 20
2.986
 30
0.0
 40
0
 41
0
  0
VERTEX
  8
0
 10
3.57362
 20
2.95372
 30
0.0
 40
0
 41
0
  0
VERTEX
  8
0
 10
3.53326
 20
2.91015
 30
0.0
 40
0
 41
0
  0
VERTEX
  8
0
 10
3.48947
 20
2.85742
 30
0.0
 40
0
 41
0
  0
VERTEX
  8
0
 10
3.44586
 20
2.79796
 30
0.0
 40
0
 41
0
  0
VERTEX
  8
0
 10
3.40631
 20
2.73394
 30
0.0
 40
0
 41
0
  0
VERTEX
  8
0
 10
3.37451
 20
2.66764
 30
0.0
 40
0
 41
0
  0
VERTEX
  8
0
 10
3.35769
 20
2.61828
 30
0.0
 40
0
 41
0
  0
VERTEX
  8
0
 10
3.35428
 20
2.60135
 30
0.0
 40
0
 41
0
  0
VERTEX
  8
0
 10
3.35075
 20
2.58415
 30
0.0
 40
0
 41
0
  0
VERTEX
  8
0
 10
3.49094
 20
2.58415
 30
0.0
 40
0
 41
0
  0
VERTEX
  8
0
 10
3.49365
 20
2.5964
 30
0.0
 40
0
 41
0
  0
VERTEX
  8
0
 10
3.49501
 20
2.60275
 30
0.0
 40
0
 41
0
  0
VERTEX
  8
0
 10
3.51758
 20
2.66872
 30
0.0
 40
0
 41
0
  0
VERTEX
  8
0
 10
3.52061
 20
2.67557
 30
0.0
 40
0
 41
0
  0
VERTEX
  8
0
 10
3.82926
 20
2.67557
 30
0.0
 40
0
 41
0
  0
VERTEX
  8
0
 10
3.83231
 20
2.66872
 30
0.0
 40
0
 41
0
  0
VERTEX
  8
0
 10
3.85493
 20
2.60275
 30
0.0
 40
0
 41
0
  0
VERTEX
  8
0
 10
3.85633
 20
2.5964
 30
0.0
 40
0
 41
0
  0
VERTEX
  8
0
 10
3.85883
 20
2.58415
 30
0.0
 40
0
 41
0
  0
VERTEX
  8
0
 10
3.99929
 20
2.58415
 30
0.0
 40
0
 41
0
  0
SEQEND
 8
0
  0
POLYLINE
  8
0
 62
     240
 66
     1
 10
0
 20
0
 30
0.0
 70
     1
 40
0
 41
0
  0
VERTEX
  8
0
 10
3.5701
 20
2.76519
 30
0.0
 40
0
 41
0
  0
VERTEX
  8
0
 10
3.57747
 20
2.77642
 30
0.0
 40
0
 41
0
  0
VERTEX
  8
0
 10
3.61876
 20
2.83117
 30
0.0
 40
0
 41
0
  0
VERTEX
  8
0
 10
3.66521
 20
2.88297
 30
0.0
 40
0
 41
0
  0
VERTEX
  8
0
 10
3.67513
 20
2.89268
 30
0.0
 40
0
 41
0
  0
VERTEX
  8
0
 10
3.685
 20
2.88297
 30
0.0
 40
0
 41
0
  0
VERTEX
  8
0
 10
3.73128
 20
2.83117
 30
0.0
 40
0
 41
0
  0
VERTEX
  8
0
 10
3.77246
 20
2.77642
 30
0.0
 40
0
 41
0
  0
VERTEX
  8
0
 10
3.77979
 20
2.76519
 30
0.0
 40
0
 41
0
  0
VERTEX
  8
0
 10
3.5701
 20
2.76519
 30
0.0
 40
0
 41
0
  0
SEQEND
 8
0
  0
ENDSEC
  0
EOF
