<?xml version="1.0" encoding="utf-8" ?><!DOCTYPE svg PUBLIC "-//W3C//DTD SVG 1.1//EN" "http://www.w3.org/Graphics/SVG/1.1/DTD/svg11.dtd" 
[ <!ATTLIST svg 
  xmlns:dsy CDATA #FIXED "http://www.3ds.com/print"  
    dsy:text-version CDATA #IMPLIED > 

  <!ATTLIST text 
  xmlns:dsy CDATA #FIXED "http://www.3ds.com/print" 
    dsy:text-version CDATA #IMPLIED > 
]><svg xmlns="http://www.w3.org/2000/svg" xmlns:dsy="http://www.3ds.com/print" dsy:text-version="18000" width="1189" height="841" viewBox="0 0 1189 841" version="1.1"><g stroke="rgb(0, 0, 0)" stroke-width="0.13" stroke-linecap="butt" stroke-linejoin="miter" fill="none"><path d="M 783.083 128.471 L 783.083 84.4371"/></g><g stroke="rgb(0, 0, 0)" stroke-width="0.35" stroke-linecap="butt" stroke-linejoin="miter" fill="none"><circle cx="716.894" cy="282.242" r="4.20001"/><circle cx="416.894" cy="282.242" r="4.20001"/><circle cx="596.894" cy="538.416" r="4.20001"/><path d="M 1189.01 130.471 L 783.082 130.471"/><circle cx="845.523" cy="213.786" r="4.20001"/><circle cx="1145.52" cy="213.786" r="4.20001"/><circle cx="1025.52" cy="581.798" r="4.20001"/></g><g stroke="rgb(0, 0, 0)" stroke-width="0.13" stroke-linecap="butt" stroke-linejoin="miter" fill="none"><path d="M 556.061 213.843 L 557.121 213.843 L 557.121 206.811 L 559.542 206.811 L 559.542 205.843 L 553.629 205.843 L 553.629 206.811 L 556.061 206.811 L 556.061 213.843 L 556.061 213.843 z M 561.525 213.843 L 562.539 213.843 L 562.539 210.304 L 562.643 209.451 L 562.954 208.84 L 563.462 208.471 L 564.142 208.344 L 564.649 208.425 L 565.029 208.655 L 565.26 209.047 L 565.341 209.577 L 566.366 209.577 L 566.228 208.644 L 565.848 207.975 L 565.214 207.572 L 564.349 207.433 L 563.761 207.526 L 563.254 207.756 L 562.805 208.148 L 562.447 208.678 L 562.447 207.652 L 561.525 207.652 L 561.525 213.843 L 561.525 213.843 z M 571.185 212.99 L 571.185 207.86 L 568.58 207.86 L 568.58 208.724 L 570.171 208.724 L 570.171 212.99 L 568.096 212.99 L 568.096 213.843 L 573.283 213.843 L 573.283 212.99 L 571.185 212.99 L 571.185 212.99 z M 571.22 205.566 L 570.147 205.566 L 570.147 206.719 L 571.22 206.719 L 571.22 205.566 L 571.22 205.566 z M 578.701 213.036 L 578.701 213.07 L 578.758 213.462 L 578.931 213.739 L 579.658 213.958 L 580.222 213.866 L 580.222 213.082 L 579.98 213.116 L 579.658 212.966 L 579.6 212.505 L 579.6 209.301 L 579.462 208.482 L 579.058 207.906 L 578.355 207.56 L 577.364 207.433 L 576.395 207.572 L 575.681 207.964 L 575.231 208.575 L 575.081 209.381 L 575.081 209.451 L 575.992 209.451 L 576.073 208.966 L 576.326 208.621 L 576.741 208.413 L 577.329 208.332 L 577.894 208.39 L 578.297 208.563 L 578.539 208.863 L 578.62 209.278 L 578.574 209.762 L 578.39 210.004 L 577.928 210.119 L 577.064 210.211 L 576.073 210.419 L 575.369 210.788 L 574.954 211.364 L 574.828 212.217 L 574.943 212.978 L 575.3 213.543 L 575.877 213.9 L 576.672 214.027 L 577.744 213.785 L 578.701 213.036 L 578.701 213.036 z M 578.586 211.675 L 578.447 212.275 L 578.078 212.736 L 577.525 213.036 L 576.845 213.139 L 576.407 213.082 L 576.096 212.897 L 575.9 212.575 L 575.842 212.125 L 575.888 211.721 L 576.073 211.433 L 576.81 211.111 L 577.744 210.972 L 578.586 210.696 L 578.586 211.675 L 578.586 211.675 z M 581.963 213.843 L 582.977 213.843 L 582.977 210.269 L 583.081 209.451 L 583.416 208.851 L 583.934 208.482 L 584.626 208.344 L 585.179 208.459 L 585.525 208.77 L 585.698 209.289 L 585.756 209.981 L 585.756 213.843 L 586.77 213.843 L 586.77 209.773 L 586.724 208.955 L 586.516 208.275 L 585.836 207.652 L 584.776 207.433 L 584.188 207.514 L 583.692 207.733 L 583.266 208.102 L 582.931 208.598 L 582.931 207.652 L 581.963 207.652 L 581.963 213.843 L 581.963 213.843 z M 593.721 213.566 L 593.721 207.652 L 592.753 207.652 L 592.753 208.655 L 591.957 207.745 L 591.473 207.514 L 590.931 207.433 L 589.952 207.664 L 589.191 208.309 L 588.695 209.347 L 588.522 210.742 L 588.695 212.148 L 589.191 213.185 L 589.952 213.843 L 590.931 214.062 L 591.485 213.981 L 591.946 213.773 L 592.753 212.897 L 592.753 213.773 L 592.661 214.465 L 592.407 214.961 L 591.923 215.249 L 591.197 215.353 L 590.563 215.283 L 590.113 215.111 L 589.848 214.811 L 589.767 214.407 L 588.787 214.407 L 588.787 214.453 L 588.937 215.191 L 589.398 215.745 L 590.136 216.102 L 591.139 216.229 L 592.338 216.056 L 593.133 215.572 L 593.583 214.73 L 593.721 213.566 L 593.721 213.566 z M 589.571 210.742 L 589.675 209.716 L 589.986 208.955 L 590.47 208.505 L 591.116 208.344 L 591.796 208.505 L 592.303 208.955 L 592.614 209.716 L 592.73 210.742 L 592.614 211.791 L 592.303 212.54 L 591.796 213.001 L 591.116 213.151 L 590.47 213.001 L 589.986 212.54 L 589.675 211.779 L 589.571 210.742 L 589.571 210.742 z M 597.859 206.419 L 597.859 212.99 L 595.773 212.99 L 595.773 213.843 L 600.949 213.843 L 600.949 212.99 L 598.874 212.99 L 598.874 205.566 L 596.269 205.566 L 596.269 206.419 L 597.859 206.419 L 597.859 206.419 z M 603.669 211.041 L 607.727 211.041 L 607.738 210.569 L 607.554 209.243 L 607.047 208.252 L 606.24 207.652 L 605.168 207.433 L 604.119 207.664 L 603.312 208.309 L 602.793 209.358 L 602.609 210.742 L 602.782 212.16 L 603.3 213.197 L 604.096 213.843 L 605.133 214.062 L 606.032 213.912 L 606.77 213.52 L 607.312 212.897 L 607.623 212.067 L 606.62 212.067 L 606.413 212.528 L 606.113 212.874 L 605.26 213.151 L 604.603 213.024 L 604.107 212.621 L 603.785 211.964 L 603.669 211.076 L 603.669 211.041 L 603.669 211.041 z M 603.669 210.188 L 603.796 209.393 L 604.107 208.805 L 604.58 208.448 L 605.202 208.321 L 605.813 208.448 L 606.286 208.805 L 606.574 209.393 L 606.678 210.188 L 603.669 210.188 L 603.669 210.188 z M 616.372 213.843 L 617.445 213.843 L 617.445 210.085 L 620.649 210.085 L 620.649 213.843 L 621.71 213.843 L 621.71 205.843 L 620.649 205.843 L 620.649 209.105 L 617.445 209.105 L 617.445 205.843 L 616.372 205.843 L 616.372 213.843 L 616.372 213.843 z M 627.277 213.036 L 627.277 213.07 L 627.335 213.462 L 627.508 213.739 L 628.234 213.958 L 628.799 213.866 L 628.799 213.082 L 628.557 213.116 L 628.234 212.966 L 628.177 212.505 L 628.177 209.301 L 628.038 208.482 L 627.635 207.906 L 626.932 207.56 L 625.94 207.433 L 624.972 207.572 L 624.257 207.964 L 623.808 208.575 L 623.658 209.381 L 623.658 209.451 L 624.568 209.451 L 624.649 208.966 L 624.903 208.621 L 625.318 208.413 L 625.906 208.332 L 626.471 208.39 L 626.874 208.563 L 627.116 208.863 L 627.197 209.278 L 627.151 209.762 L 626.966 210.004 L 626.505 210.119 L 625.641 210.211 L 624.649 210.419 L 623.946 210.788 L 623.531 211.364 L 623.404 212.217 L 623.519 212.978 L 623.877 213.543 L 624.453 213.9 L 625.249 214.027 L 626.321 213.785 L 627.277 213.036 L 627.277 213.036 z M 627.162 211.675 L 627.024 212.275 L 626.655 212.736 L 626.102 213.036 L 625.422 213.139 L 624.983 213.082 L 624.672 212.897 L 624.476 212.575 L 624.419 212.125 L 624.465 211.721 L 624.649 211.433 L 625.387 211.111 L 626.321 210.972 L 627.162 210.696 L 627.162 211.675 L 627.162 211.675 z M 635.312 207.652 L 634.298 207.652 L 634.298 211.226 L 634.182 212.056 L 633.848 212.655 L 633.329 213.024 L 632.649 213.139 L 632.107 213.047 L 631.762 212.771 L 631.566 212.298 L 631.52 211.629 L 631.52 207.652 L 630.505 207.652 L 630.505 211.721 L 630.54 212.54 L 630.759 213.22 L 631.427 213.843 L 632.499 214.062 L 633.076 213.981 L 633.571 213.773 L 633.998 213.416 L 634.344 212.897 L 634.344 213.843 L 635.312 213.843 L 635.312 207.652 L 635.312 207.652 z M 638.839 208.724 L 638.839 211.825 L 638.909 212.828 L 639.231 213.52 L 639.877 213.923 L 640.972 214.062 L 642.171 214.004 L 642.171 213.128 L 641.295 213.197 L 640.499 213.105 L 640.073 212.817 L 639.888 212.332 L 639.854 211.652 L 639.854 208.724 L 642.171 208.724 L 642.171 207.86 L 639.854 207.86 L 639.854 206.05 L 638.839 206.05 L 638.839 207.86 L 637.087 207.86 L 637.087 208.724 L 638.839 208.724 L 638.839 208.724 z" stroke="none" fill-rule="evenodd" fill="rgb(0, 0, 0)"/></g><g stroke="rgb(0, 0, 0)" stroke-width="0.13" stroke-linecap="butt" stroke-linejoin="miter" fill="none"><path d="M 522.793 241.485 L 523.865 241.485 L 523.865 238.108 L 524.96 238.108 L 525.767 238.142 L 526.274 238.304 L 526.551 238.684 L 526.666 239.364 L 526.724 240.402 L 526.793 241.082 L 526.931 241.485 L 528.142 241.485 L 528.142 241.266 L 527.877 240.943 L 527.784 240.344 L 527.704 239.053 L 527.508 238.096 L 527.242 237.796 L 526.828 237.577 L 527.289 237.289 L 527.611 236.886 L 527.819 236.379 L 527.888 235.768 L 527.727 234.799 L 527.266 234.073 L 526.505 233.635 L 525.467 233.485 L 522.793 233.485 L 522.793 241.485 L 522.793 241.485 z M 525.168 234.465 L 525.871 234.534 L 526.366 234.753 L 526.678 235.157 L 526.781 235.791 L 526.666 236.459 L 526.355 236.863 L 525.825 237.07 L 525.098 237.128 L 523.865 237.128 L 523.865 234.465 L 525.168 234.465 L 525.168 234.465 z M 533.018 240.632 L 533.018 235.502 L 530.413 235.502 L 530.413 236.367 L 532.003 236.367 L 532.003 240.632 L 529.928 240.632 L 529.928 241.485 L 535.116 241.485 L 535.116 240.632 L 533.018 240.632 L 533.018 240.632 z M 533.052 233.208 L 531.98 233.208 L 531.98 234.361 L 533.052 234.361 L 533.052 233.208 L 533.052 233.208 z M 541.675 241.208 L 541.675 235.295 L 540.707 235.295 L 540.707 236.298 L 539.911 235.387 L 539.427 235.157 L 538.885 235.076 L 537.905 235.306 L 537.145 235.952 L 536.649 236.99 L 536.476 238.384 L 536.649 239.791 L 537.145 240.828 L 537.905 241.485 L 538.885 241.704 L 539.439 241.623 L 539.9 241.416 L 540.707 240.54 L 540.707 241.416 L 540.614 242.108 L 540.361 242.603 L 539.877 242.892 L 539.15 242.995 L 538.516 242.926 L 538.067 242.753 L 537.802 242.453 L 537.721 242.05 L 536.741 242.05 L 536.741 242.096 L 536.891 242.834 L 537.352 243.387 L 538.09 243.745 L 539.093 243.871 L 540.292 243.698 L 541.087 243.214 L 541.536 242.373 L 541.675 241.208 L 541.675 241.208 z M 537.525 238.384 L 537.629 237.358 L 537.94 236.598 L 538.424 236.148 L 539.07 235.987 L 539.75 236.148 L 540.257 236.598 L 540.568 237.358 L 540.683 238.384 L 540.568 239.433 L 540.257 240.183 L 539.75 240.644 L 539.07 240.794 L 538.424 240.644 L 537.94 240.183 L 537.629 239.422 L 537.525 238.384 L 537.525 238.384 z M 543.796 241.485 L 544.81 241.485 L 544.81 237.912 L 544.914 237.093 L 545.248 236.494 L 545.767 236.125 L 546.459 235.987 L 547.012 236.102 L 547.358 236.413 L 547.531 236.932 L 547.588 237.623 L 547.588 241.485 L 548.603 241.485 L 548.603 237.416 L 548.557 236.598 L 548.349 235.917 L 547.669 235.295 L 546.609 235.076 L 546.032 235.157 L 545.537 235.376 L 545.122 235.721 L 544.81 236.194 L 544.81 233.208 L 543.796 233.208 L 543.796 241.485 L 543.796 241.485 z M 552.096 236.367 L 552.096 239.468 L 552.165 240.471 L 552.488 241.162 L 553.133 241.566 L 554.228 241.704 L 555.427 241.647 L 555.427 240.77 L 554.551 240.84 L 553.756 240.747 L 553.329 240.459 L 553.145 239.975 L 553.11 239.295 L 553.11 236.367 L 555.427 236.367 L 555.427 235.502 L 553.11 235.502 L 553.11 233.693 L 552.096 233.693 L 552.096 235.502 L 550.344 235.502 L 550.344 236.367 L 552.096 236.367 L 552.096 236.367 z M 564.43 241.485 L 565.502 241.485 L 565.502 238.108 L 566.597 238.108 L 567.404 238.142 L 567.911 238.304 L 568.188 238.684 L 568.303 239.364 L 568.361 240.402 L 568.43 241.082 L 568.568 241.485 L 569.779 241.485 L 569.779 241.266 L 569.514 240.943 L 569.421 240.344 L 569.341 239.053 L 569.145 238.096 L 568.88 237.796 L 568.465 237.577 L 568.926 237.289 L 569.248 236.886 L 569.456 236.379 L 569.525 235.768 L 569.364 234.799 L 568.903 234.073 L 568.142 233.635 L 567.104 233.485 L 564.43 233.485 L 564.43 241.485 L 564.43 241.485 z M 566.805 234.465 L 567.508 234.534 L 568.004 234.753 L 568.315 235.157 L 568.419 235.791 L 568.303 236.459 L 567.992 236.863 L 567.462 237.07 L 566.735 237.128 L 565.502 237.128 L 565.502 234.465 L 566.805 234.465 L 566.805 234.465 z M 572.442 238.684 L 576.499 238.684 L 576.511 238.211 L 576.326 236.886 L 575.819 235.894 L 575.012 235.295 L 573.94 235.076 L 572.891 235.306 L 572.084 235.952 L 571.565 237.001 L 571.381 238.384 L 571.554 239.802 L 572.073 240.84 L 572.868 241.485 L 573.906 241.704 L 574.805 241.554 L 575.542 241.162 L 576.084 240.54 L 576.396 239.71 L 575.393 239.71 L 575.185 240.171 L 574.885 240.517 L 574.032 240.794 L 573.375 240.667 L 572.88 240.263 L 572.557 239.606 L 572.442 238.719 L 572.442 238.684 L 572.442 238.684 z M 572.442 237.831 L 572.568 237.036 L 572.88 236.448 L 573.352 236.09 L 573.975 235.964 L 574.586 236.09 L 575.058 236.448 L 575.346 237.036 L 575.45 237.831 L 572.442 237.831 L 572.442 237.831 z M 582.171 240.678 L 582.171 240.713 L 582.228 241.105 L 582.401 241.381 L 583.128 241.6 L 583.692 241.508 L 583.692 240.724 L 583.45 240.759 L 583.128 240.609 L 583.07 240.148 L 583.07 236.943 L 582.932 236.125 L 582.528 235.549 L 581.825 235.203 L 580.834 235.076 L 579.865 235.214 L 579.151 235.606 L 578.701 236.217 L 578.551 237.024 L 578.551 237.093 L 579.462 237.093 L 579.542 236.609 L 579.796 236.263 L 580.211 236.056 L 580.799 235.975 L 581.364 236.033 L 581.767 236.206 L 582.009 236.505 L 582.09 236.92 L 582.044 237.404 L 581.859 237.647 L 581.398 237.762 L 580.534 237.854 L 579.542 238.062 L 578.839 238.43 L 578.424 239.007 L 578.298 239.86 L 578.413 240.621 L 578.77 241.185 L 579.346 241.543 L 580.142 241.67 L 581.214 241.428 L 582.171 240.678 L 582.171 240.678 z M 582.055 239.318 L 581.917 239.917 L 581.548 240.379 L 580.995 240.678 L 580.315 240.782 L 579.877 240.724 L 579.566 240.54 L 579.37 240.217 L 579.312 239.768 L 579.358 239.364 L 579.542 239.076 L 580.28 238.753 L 581.214 238.615 L 582.055 238.338 L 582.055 239.318 L 582.055 239.318 z M 585.813 241.485 L 586.828 241.485 L 586.828 237.946 L 586.932 237.093 L 587.243 236.482 L 587.75 236.113 L 588.43 235.987 L 588.937 236.067 L 589.318 236.298 L 589.548 236.69 L 589.629 237.22 L 590.655 237.22 L 590.517 236.286 L 590.136 235.618 L 589.502 235.214 L 588.638 235.076 L 588.05 235.168 L 587.543 235.399 L 587.093 235.791 L 586.736 236.321 L 586.736 235.295 L 585.813 235.295 L 585.813 241.485 L 585.813 241.485 z M 598.943 238.442 L 599.105 239.883 L 599.612 240.909 L 600.465 241.497 L 601.698 241.704 L 602.92 241.497 L 603.773 240.909 L 604.28 239.894 L 604.453 238.442 L 604.453 233.485 L 603.381 233.485 L 603.381 238.5 L 603.277 239.479 L 602.966 240.183 L 602.436 240.598 L 601.698 240.736 L 600.937 240.598 L 600.407 240.183 L 600.096 239.491 L 600.004 238.5 L 600.004 233.485 L 598.943 233.485 L 598.943 238.442 L 598.943 238.442 z M 607.208 236.252 L 607.208 235.295 L 606.194 235.295 L 606.194 243.883 L 607.208 243.883 L 607.208 240.54 L 607.566 241.082 L 607.969 241.439 L 608.984 241.704 L 609.952 241.485 L 610.713 240.828 L 611.208 239.791 L 611.393 238.384 L 611.208 236.99 L 610.713 235.952 L 609.952 235.306 L 608.984 235.076 L 608.43 235.145 L 607.958 235.364 L 607.554 235.733 L 607.208 236.252 L 607.208 236.252 z M 608.811 240.794 L 608.13 240.644 L 607.635 240.183 L 607.324 239.433 L 607.22 238.384 L 607.324 237.347 L 607.635 236.598 L 608.13 236.148 L 608.811 235.987 L 609.433 236.148 L 609.929 236.609 L 610.24 237.358 L 610.355 238.384 L 610.24 239.422 L 609.929 240.183 L 609.433 240.644 L 608.811 240.794 L 608.811 240.794 z M 614.148 236.252 L 614.148 235.295 L 613.133 235.295 L 613.133 243.883 L 614.148 243.883 L 614.148 240.54 L 614.505 241.082 L 614.909 241.439 L 615.923 241.704 L 616.891 241.485 L 617.652 240.828 L 618.148 239.791 L 618.332 238.384 L 618.148 236.99 L 617.652 235.952 L 616.891 235.306 L 615.923 235.076 L 615.37 235.145 L 614.897 235.364 L 614.494 235.733 L 614.148 236.252 L 614.148 236.252 z M 615.75 240.794 L 615.07 240.644 L 614.574 240.183 L 614.263 239.433 L 614.159 238.384 L 614.263 237.347 L 614.574 236.598 L 615.07 236.148 L 615.75 235.987 L 616.373 236.148 L 616.868 236.609 L 617.18 237.358 L 617.295 238.384 L 617.18 239.422 L 616.868 240.183 L 616.373 240.644 L 615.75 240.794 L 615.75 240.794 z M 621.018 238.684 L 625.076 238.684 L 625.087 238.211 L 624.903 236.886 L 624.396 235.894 L 623.589 235.295 L 622.517 235.076 L 621.468 235.306 L 620.661 235.952 L 620.142 237.001 L 619.958 238.384 L 620.131 239.802 L 620.649 240.84 L 621.445 241.485 L 622.482 241.704 L 623.381 241.554 L 624.119 241.162 L 624.661 240.54 L 624.972 239.71 L 623.969 239.71 L 623.762 240.171 L 623.462 240.517 L 622.609 240.794 L 621.952 240.667 L 621.456 240.263 L 621.133 239.606 L 621.018 238.719 L 621.018 238.684 L 621.018 238.684 z M 621.018 237.831 L 621.145 237.036 L 621.456 236.448 L 621.929 236.09 L 622.551 235.964 L 623.162 236.09 L 623.635 236.448 L 623.923 237.036 L 624.027 237.831 L 621.018 237.831 L 621.018 237.831 z M 627.451 241.485 L 628.465 241.485 L 628.465 237.946 L 628.569 237.093 L 628.88 236.482 L 629.387 236.113 L 630.067 235.987 L 630.574 236.067 L 630.955 236.298 L 631.185 236.69 L 631.266 237.22 L 632.292 237.22 L 632.154 236.286 L 631.773 235.618 L 631.139 235.214 L 630.275 235.076 L 629.687 235.168 L 629.18 235.399 L 628.73 235.791 L 628.373 236.321 L 628.373 235.295 L 627.451 235.295 L 627.451 241.485 L 627.451 241.485 z M 639.831 241.485 L 640.891 241.485 L 641.733 239.134 L 644.926 239.134 L 645.768 241.485 L 646.851 241.485 L 643.923 233.474 L 642.747 233.474 L 639.831 241.485 L 639.831 241.485 z M 642.102 238.154 L 643.335 234.626 L 644.569 238.154 L 642.102 238.154 L 642.102 238.154 z M 648.88 238.845 L 651.67 238.845 L 651.67 237.935 L 648.88 237.935 L 648.88 238.845 L 648.88 238.845 z M 653.71 241.485 L 654.771 241.485 L 655.612 239.134 L 658.805 239.134 L 659.647 241.485 L 660.73 241.485 L 657.802 233.474 L 656.626 233.474 L 653.71 241.485 L 653.71 241.485 z M 655.981 238.154 L 657.214 234.626 L 658.448 238.154 L 655.981 238.154 L 655.981 238.154 z M 662.148 241.485 L 663.162 241.485 L 663.162 237.946 L 663.266 237.093 L 663.577 236.482 L 664.085 236.113 L 664.765 235.987 L 665.272 236.067 L 665.652 236.298 L 665.883 236.69 L 665.964 237.22 L 666.99 237.22 L 666.851 236.286 L 666.471 235.618 L 665.837 235.214 L 664.972 235.076 L 664.384 235.168 L 663.877 235.399 L 663.428 235.791 L 663.07 236.321 L 663.07 235.295 L 662.148 235.295 L 662.148 241.485 L 662.148 241.485 z M 668.304 241.485 L 669.237 241.485 L 669.237 237.347 L 669.295 236.724 L 669.468 236.275 L 669.733 236.01 L 670.079 235.906 L 670.356 235.998 L 670.54 236.229 L 670.632 236.621 L 670.667 237.139 L 670.667 241.485 L 671.543 241.485 L 671.543 237.347 L 671.601 236.736 L 671.773 236.286 L 672.05 236.01 L 672.396 235.906 L 672.673 235.998 L 672.857 236.229 L 672.972 237.139 L 672.972 241.485 L 673.906 241.485 L 673.906 237.208 L 673.848 236.321 L 673.664 235.641 L 673.295 235.226 L 672.696 235.076 L 671.992 235.306 L 671.451 235.975 L 671.024 235.318 L 670.31 235.076 L 669.652 235.306 L 669.203 235.952 L 669.203 235.295 L 668.304 235.295 L 668.304 241.485 L 668.304 241.485 z" stroke="none" fill-rule="evenodd" fill="rgb(0, 0, 0)"/></g><g stroke="rgb(0, 0, 0)" stroke-width="0.13" stroke-linecap="butt" stroke-linejoin="miter" fill="none"><path d="M 975.309 163.843 L 976.37 163.843 L 976.37 156.811 L 978.791 156.811 L 978.791 155.843 L 972.877 155.843 L 972.877 156.811 L 975.309 156.811 L 975.309 163.843 L 975.309 163.843 z M 980.773 163.843 L 981.788 163.843 L 981.788 160.304 L 981.892 159.451 L 982.203 158.84 L 982.71 158.471 L 983.39 158.344 L 983.897 158.425 L 984.278 158.655 L 984.508 159.047 L 984.589 159.577 L 985.615 159.577 L 985.477 158.644 L 985.096 157.975 L 984.462 157.572 L 983.598 157.433 L 983.01 157.526 L 982.503 157.756 L 982.053 158.148 L 981.696 158.678 L 981.696 157.652 L 980.773 157.652 L 980.773 163.843 L 980.773 163.843 z M 990.433 162.99 L 990.433 157.86 L 987.828 157.86 L 987.828 158.724 L 989.419 158.724 L 989.419 162.99 L 987.344 162.99 L 987.344 163.843 L 992.531 163.843 L 992.531 162.99 L 990.433 162.99 L 990.433 162.99 z M 990.468 155.566 L 989.396 155.566 L 989.396 156.719 L 990.468 156.719 L 990.468 155.566 L 990.468 155.566 z M 997.949 163.036 L 997.949 163.07 L 998.007 163.462 L 998.18 163.739 L 998.906 163.958 L 999.471 163.866 L 999.471 163.082 L 999.229 163.116 L 998.906 162.966 L 998.848 162.505 L 998.848 159.301 L 998.71 158.482 L 998.307 157.906 L 997.603 157.56 L 996.612 157.433 L 995.644 157.572 L 994.929 157.964 L 994.479 158.575 L 994.33 159.381 L 994.33 159.451 L 995.24 159.451 L 995.321 158.966 L 995.575 158.621 L 995.99 158.413 L 996.577 158.332 L 997.142 158.39 L 997.546 158.563 L 997.788 158.863 L 997.868 159.278 L 997.822 159.762 L 997.638 160.004 L 997.177 160.119 L 996.312 160.211 L 995.321 160.419 L 994.618 160.788 L 994.203 161.364 L 994.076 162.217 L 994.191 162.978 L 994.549 163.543 L 995.125 163.9 L 995.92 164.027 L 996.992 163.785 L 997.949 163.036 L 997.949 163.036 z M 997.834 161.675 L 997.696 162.275 L 997.327 162.736 L 996.773 163.036 L 996.093 163.139 L 995.655 163.082 L 995.344 162.897 L 995.148 162.575 L 995.09 162.125 L 995.136 161.721 L 995.321 161.433 L 996.059 161.111 L 996.992 160.972 L 997.834 160.696 L 997.834 161.675 L 997.834 161.675 z M 1001.21 163.843 L 1002.23 163.843 L 1002.23 160.269 L 1002.33 159.451 L 1002.66 158.851 L 1003.18 158.482 L 1003.87 158.344 L 1004.43 158.459 L 1004.77 158.771 L 1004.95 159.289 L 1005 159.981 L 1005 163.843 L 1006.02 163.843 L 1006.02 159.773 L 1005.97 158.955 L 1005.76 158.275 L 1005.08 157.652 L 1004.02 157.433 L 1003.44 157.514 L 1002.94 157.733 L 1002.51 158.102 L 1002.18 158.598 L 1002.18 157.652 L 1001.21 157.652 L 1001.21 163.843 L 1001.21 163.843 z M 1012.97 163.566 L 1012.97 157.652 L 1012 157.652 L 1012 158.655 L 1011.21 157.745 L 1010.72 157.514 L 1010.18 157.433 L 1009.2 157.664 L 1008.44 158.309 L 1007.94 159.347 L 1007.77 160.742 L 1007.94 162.148 L 1008.44 163.185 L 1009.2 163.843 L 1010.18 164.062 L 1010.73 163.981 L 1011.19 163.773 L 1012 162.897 L 1012 163.773 L 1011.91 164.465 L 1011.66 164.961 L 1011.17 165.249 L 1010.44 165.353 L 1009.81 165.283 L 1009.36 165.111 L 1009.1 164.811 L 1009.02 164.407 L 1008.04 164.407 L 1008.04 164.453 L 1008.19 165.191 L 1008.65 165.745 L 1009.38 166.102 L 1010.39 166.229 L 1011.59 166.056 L 1012.38 165.572 L 1012.83 164.73 L 1012.97 163.566 L 1012.97 163.566 z M 1008.82 160.742 L 1008.92 159.716 L 1009.23 158.955 L 1009.72 158.505 L 1010.36 158.344 L 1011.04 158.505 L 1011.55 158.955 L 1011.86 159.716 L 1011.98 160.742 L 1011.86 161.791 L 1011.55 162.54 L 1011.04 163.001 L 1010.36 163.151 L 1009.72 163.001 L 1009.23 162.54 L 1008.92 161.779 L 1008.82 160.742 L 1008.82 160.742 z M 1017.11 156.419 L 1017.11 162.99 L 1015.02 162.99 L 1015.02 163.843 L 1020.2 163.843 L 1020.2 162.99 L 1018.12 162.99 L 1018.12 155.566 L 1015.52 155.566 L 1015.52 156.419 L 1017.11 156.419 L 1017.11 156.419 z M 1022.92 161.041 L 1026.97 161.041 L 1026.99 160.569 L 1026.8 159.243 L 1026.29 158.252 L 1025.49 157.652 L 1024.42 157.433 L 1023.37 157.664 L 1022.56 158.309 L 1022.04 159.358 L 1021.86 160.742 L 1022.03 162.16 L 1022.55 163.197 L 1023.34 163.843 L 1024.38 164.062 L 1025.28 163.912 L 1026.02 163.52 L 1026.56 162.897 L 1026.87 162.067 L 1025.87 162.067 L 1025.66 162.528 L 1025.36 162.874 L 1024.51 163.151 L 1023.85 163.024 L 1023.36 162.621 L 1023.03 161.964 L 1022.92 161.076 L 1022.92 161.041 L 1022.92 161.041 z M 1022.92 160.188 L 1023.04 159.393 L 1023.36 158.805 L 1023.83 158.448 L 1024.45 158.321 L 1025.06 158.448 L 1025.53 158.805 L 1025.82 159.393 L 1025.93 160.188 L 1022.92 160.188 L 1022.92 160.188 z M 1039.74 159.52 L 1040.54 158.851 L 1040.75 158.402 L 1040.82 157.848 L 1040.67 156.984 L 1040.22 156.361 L 1039.49 155.981 L 1038.48 155.843 L 1035.63 155.843 L 1035.63 163.843 L 1038.64 163.843 L 1039.71 163.681 L 1040.51 163.208 L 1041 162.459 L 1041.18 161.445 L 1041.07 160.765 L 1040.8 160.2 L 1040.35 159.785 L 1039.74 159.52 L 1039.74 159.52 z M 1038.26 159.162 L 1036.69 159.162 L 1036.69 156.799 L 1038.35 156.799 L 1038.97 156.868 L 1039.41 157.076 L 1039.68 157.433 L 1039.77 157.964 L 1039.67 158.494 L 1039.39 158.863 L 1038.92 159.093 L 1038.26 159.162 L 1038.26 159.162 z M 1038.51 162.886 L 1036.69 162.886 L 1036.69 160.131 L 1038.41 160.131 L 1039.14 160.211 L 1039.66 160.453 L 1039.97 160.868 L 1040.07 161.468 L 1039.97 162.102 L 1039.68 162.54 L 1039.19 162.805 L 1038.51 162.886 L 1038.51 162.886 z M 1046.53 163.036 L 1046.53 163.07 L 1046.58 163.462 L 1046.76 163.739 L 1047.48 163.958 L 1048.05 163.866 L 1048.05 163.082 L 1047.8 163.116 L 1047.48 162.966 L 1047.42 162.505 L 1047.42 159.301 L 1047.29 158.482 L 1046.88 157.906 L 1046.18 157.56 L 1045.19 157.433 L 1044.22 157.572 L 1043.51 157.964 L 1043.06 158.575 L 1042.91 159.381 L 1042.91 159.451 L 1043.82 159.451 L 1043.9 158.966 L 1044.15 158.621 L 1044.57 158.413 L 1045.15 158.332 L 1045.72 158.39 L 1046.12 158.563 L 1046.36 158.863 L 1046.44 159.278 L 1046.4 159.762 L 1046.21 160.004 L 1045.75 160.119 L 1044.89 160.211 L 1043.9 160.419 L 1043.19 160.788 L 1042.78 161.364 L 1042.65 162.217 L 1042.77 162.978 L 1043.12 163.543 L 1043.7 163.9 L 1044.5 164.027 L 1045.57 163.785 L 1046.53 163.036 L 1046.53 163.036 z M 1046.41 161.675 L 1046.27 162.275 L 1045.9 162.736 L 1045.35 163.036 L 1044.67 163.139 L 1044.23 163.082 L 1043.92 162.897 L 1043.72 162.575 L 1043.67 162.125 L 1043.71 161.721 L 1043.9 161.433 L 1044.63 161.111 L 1045.57 160.972 L 1046.41 160.696 L 1046.41 161.675 L 1046.41 161.675 z M 1052.82 160.234 L 1051.84 160.004 L 1051.11 159.739 L 1050.87 159.197 L 1050.94 158.817 L 1051.18 158.54 L 1051.57 158.367 L 1052.14 158.298 L 1052.68 158.367 L 1053.11 158.575 L 1053.38 158.886 L 1053.5 159.301 L 1054.49 159.301 L 1054.49 159.278 L 1054.32 158.528 L 1053.85 157.941 L 1053.11 157.572 L 1052.14 157.433 L 1051.16 157.572 L 1050.44 157.952 L 1049.99 158.517 L 1049.86 159.232 L 1049.96 159.923 L 1050.28 160.407 L 1050.81 160.753 L 1051.59 160.995 L 1052.72 161.272 L 1053.41 161.56 L 1053.59 161.791 L 1053.66 162.136 L 1053.56 162.563 L 1053.28 162.886 L 1052.83 163.093 L 1052.23 163.162 L 1051.6 163.093 L 1051.14 162.851 L 1050.82 162.459 L 1050.7 161.917 L 1049.72 161.917 L 1049.88 162.84 L 1050.35 163.508 L 1051.1 163.912 L 1052.14 164.062 L 1053.22 163.912 L 1054.02 163.508 L 1054.5 162.863 L 1054.68 162.021 L 1054.55 161.295 L 1054.19 160.799 L 1053.6 160.477 L 1052.82 160.234 L 1052.82 160.234 z" stroke="none" fill-rule="evenodd" fill="rgb(0, 0, 0)"/></g><g stroke="rgb(0, 0, 0)" stroke-width="0.13" stroke-linecap="butt" stroke-linejoin="miter" fill="none"><path d="M 973.269 191.485 L 974.341 191.485 L 974.341 188.108 L 975.436 188.108 L 976.243 188.142 L 976.75 188.304 L 977.027 188.684 L 977.142 189.364 L 977.2 190.402 L 977.269 191.082 L 977.407 191.485 L 978.618 191.485 L 978.618 191.266 L 978.353 190.943 L 978.26 190.344 L 978.18 189.053 L 977.984 188.096 L 977.719 187.796 L 977.304 187.577 L 977.765 187.289 L 978.088 186.886 L 978.295 186.379 L 978.364 185.768 L 978.203 184.799 L 977.742 184.073 L 976.981 183.635 L 975.943 183.485 L 973.269 183.485 L 973.269 191.485 L 973.269 191.485 z M 975.644 184.465 L 976.347 184.534 L 976.843 184.753 L 977.154 185.157 L 977.258 185.791 L 977.142 186.459 L 976.831 186.863 L 976.301 187.07 L 975.575 187.128 L 974.341 187.128 L 974.341 184.465 L 975.644 184.465 L 975.644 184.465 z M 983.494 190.632 L 983.494 185.503 L 980.889 185.503 L 980.889 186.367 L 982.479 186.367 L 982.479 190.632 L 980.405 190.632 L 980.405 191.485 L 985.592 191.485 L 985.592 190.632 L 983.494 190.632 L 983.494 190.632 z M 983.528 183.209 L 982.456 183.209 L 982.456 184.361 L 983.528 184.361 L 983.528 183.209 L 983.528 183.209 z M 992.151 191.208 L 992.151 185.295 L 991.183 185.295 L 991.183 186.298 L 990.387 185.387 L 989.903 185.157 L 989.361 185.076 L 988.381 185.307 L 987.621 185.952 L 987.125 186.99 L 986.952 188.384 L 987.125 189.791 L 987.621 190.828 L 988.381 191.485 L 989.361 191.704 L 989.915 191.623 L 990.376 191.416 L 991.183 190.54 L 991.183 191.416 L 991.09 192.108 L 990.837 192.603 L 990.353 192.891 L 989.626 192.995 L 988.992 192.926 L 988.543 192.753 L 988.278 192.453 L 988.197 192.05 L 987.217 192.05 L 987.217 192.096 L 987.367 192.834 L 987.828 193.387 L 988.566 193.745 L 989.569 193.871 L 990.768 193.698 L 991.563 193.214 L 992.013 192.373 L 992.151 191.208 L 992.151 191.208 z M 988.001 188.384 L 988.105 187.358 L 988.416 186.598 L 988.9 186.148 L 989.546 185.987 L 990.226 186.148 L 990.733 186.598 L 991.044 187.358 L 991.16 188.384 L 991.044 189.433 L 990.733 190.183 L 990.226 190.644 L 989.546 190.794 L 988.9 190.644 L 988.416 190.183 L 988.105 189.422 L 988.001 188.384 L 988.001 188.384 z M 994.272 191.485 L 995.286 191.485 L 995.286 187.912 L 995.39 187.093 L 995.724 186.494 L 996.243 186.125 L 996.935 185.987 L 997.488 186.102 L 997.834 186.413 L 998.007 186.932 L 998.064 187.624 L 998.064 191.485 L 999.079 191.485 L 999.079 187.416 L 999.033 186.598 L 998.825 185.917 L 998.145 185.295 L 997.085 185.076 L 996.508 185.157 L 996.013 185.376 L 995.598 185.721 L 995.286 186.194 L 995.286 183.209 L 994.272 183.209 L 994.272 191.485 L 994.272 191.485 z M 1002.57 186.367 L 1002.57 189.468 L 1002.64 190.471 L 1002.96 191.162 L 1003.61 191.566 L 1004.7 191.704 L 1005.9 191.647 L 1005.9 190.77 L 1005.03 190.84 L 1004.23 190.747 L 1003.81 190.459 L 1003.62 189.975 L 1003.59 189.295 L 1003.59 186.367 L 1005.9 186.367 L 1005.9 185.503 L 1003.59 185.503 L 1003.59 183.693 L 1002.57 183.693 L 1002.57 185.503 L 1000.82 185.503 L 1000.82 186.367 L 1002.57 186.367 L 1002.57 186.367 z M 1014.91 191.485 L 1015.98 191.485 L 1015.98 188.108 L 1017.07 188.108 L 1017.88 188.142 L 1018.39 188.304 L 1018.66 188.684 L 1018.78 189.364 L 1018.84 190.402 L 1018.91 191.082 L 1019.04 191.485 L 1020.25 191.485 L 1020.25 191.266 L 1019.99 190.943 L 1019.9 190.344 L 1019.82 189.053 L 1019.62 188.096 L 1019.36 187.796 L 1018.94 187.577 L 1019.4 187.289 L 1019.72 186.886 L 1019.93 186.379 L 1020 185.768 L 1019.84 184.799 L 1019.38 184.073 L 1018.62 183.635 L 1017.58 183.485 L 1014.91 183.485 L 1014.91 191.485 L 1014.91 191.485 z M 1017.28 184.465 L 1017.98 184.534 L 1018.48 184.753 L 1018.79 185.157 L 1018.89 185.791 L 1018.78 186.459 L 1018.47 186.863 L 1017.94 187.07 L 1017.21 187.128 L 1015.98 187.128 L 1015.98 184.465 L 1017.28 184.465 L 1017.28 184.465 z M 1022.92 188.684 L 1026.97 188.684 L 1026.99 188.211 L 1026.8 186.886 L 1026.29 185.894 L 1025.49 185.295 L 1024.42 185.076 L 1023.37 185.307 L 1022.56 185.952 L 1022.04 187.001 L 1021.86 188.384 L 1022.03 189.802 L 1022.55 190.84 L 1023.34 191.485 L 1024.38 191.704 L 1025.28 191.554 L 1026.02 191.162 L 1026.56 190.54 L 1026.87 189.71 L 1025.87 189.71 L 1025.66 190.171 L 1025.36 190.517 L 1024.51 190.794 L 1023.85 190.667 L 1023.36 190.263 L 1023.03 189.606 L 1022.92 188.719 L 1022.92 188.684 L 1022.92 188.684 z M 1022.92 187.831 L 1023.04 187.036 L 1023.36 186.448 L 1023.83 186.09 L 1024.45 185.964 L 1025.06 186.09 L 1025.53 186.448 L 1025.82 187.036 L 1025.93 187.831 L 1022.92 187.831 L 1022.92 187.831 z M 1032.65 190.678 L 1032.65 190.713 L 1032.7 191.105 L 1032.88 191.381 L 1033.6 191.6 L 1034.17 191.508 L 1034.17 190.724 L 1033.93 190.759 L 1033.6 190.609 L 1033.55 190.148 L 1033.55 186.943 L 1033.41 186.125 L 1033 185.549 L 1032.3 185.203 L 1031.31 185.076 L 1030.34 185.214 L 1029.63 185.606 L 1029.18 186.217 L 1029.03 187.024 L 1029.03 187.093 L 1029.94 187.093 L 1030.02 186.609 L 1030.27 186.263 L 1030.69 186.056 L 1031.27 185.975 L 1031.84 186.033 L 1032.24 186.206 L 1032.48 186.505 L 1032.57 186.92 L 1032.52 187.404 L 1032.34 187.647 L 1031.87 187.762 L 1031.01 187.854 L 1030.02 188.062 L 1029.32 188.43 L 1028.9 189.007 L 1028.77 189.86 L 1028.89 190.621 L 1029.25 191.185 L 1029.82 191.543 L 1030.62 191.67 L 1031.69 191.428 L 1032.65 190.678 L 1032.65 190.678 z M 1032.53 189.318 L 1032.39 189.917 L 1032.02 190.379 L 1031.47 190.678 L 1030.79 190.782 L 1030.35 190.724 L 1030.04 190.54 L 1029.85 190.217 L 1029.79 189.768 L 1029.83 189.364 L 1030.02 189.076 L 1030.76 188.753 L 1031.69 188.615 L 1032.53 188.338 L 1032.53 189.318 L 1032.53 189.318 z M 1036.29 191.485 L 1037.3 191.485 L 1037.3 187.946 L 1037.41 187.093 L 1037.72 186.482 L 1038.23 186.113 L 1038.91 185.987 L 1039.41 186.067 L 1039.79 186.298 L 1040.02 186.69 L 1040.1 187.22 L 1041.13 187.22 L 1040.99 186.286 L 1040.61 185.618 L 1039.98 185.214 L 1039.11 185.076 L 1038.53 185.168 L 1038.02 185.399 L 1037.57 185.791 L 1037.21 186.321 L 1037.21 185.295 L 1036.29 185.295 L 1036.29 191.485 L 1036.29 191.485 z M 1049.83 191.485 L 1054.97 191.485 L 1054.97 190.517 L 1050.89 190.517 L 1050.89 183.485 L 1049.83 183.485 L 1049.83 191.485 L 1049.83 191.485 z M 1056.43 188.396 L 1056.61 189.802 L 1057.14 190.84 L 1057.98 191.485 L 1059.11 191.704 L 1060.23 191.485 L 1061.07 190.851 L 1061.6 189.814 L 1061.8 188.396 L 1061.6 186.99 L 1061.07 185.94 L 1060.23 185.307 L 1059.11 185.076 L 1057.98 185.307 L 1057.14 185.952 L 1056.61 186.99 L 1056.43 188.396 L 1056.43 188.396 z M 1057.46 188.384 L 1057.57 187.347 L 1057.89 186.598 L 1058.41 186.136 L 1059.11 185.975 L 1059.8 186.136 L 1060.32 186.586 L 1060.65 187.347 L 1060.76 188.384 L 1060.65 189.433 L 1060.32 190.194 L 1059.8 190.655 L 1059.11 190.805 L 1058.41 190.655 L 1057.89 190.194 L 1057.57 189.433 L 1057.46 188.384 L 1057.46 188.384 z M 1065.13 191.485 L 1066.05 186.229 L 1066.97 191.485 L 1067.94 191.485 L 1069.46 185.295 L 1068.48 185.295 L 1067.46 190.551 L 1066.55 185.295 L 1065.55 185.295 L 1064.63 190.551 L 1063.61 185.295 L 1062.64 185.295 L 1064.16 191.485 L 1065.13 191.485 L 1065.13 191.485 z M 1071.49 188.684 L 1075.55 188.684 L 1075.56 188.211 L 1075.38 186.886 L 1074.87 185.894 L 1074.06 185.295 L 1072.99 185.076 L 1071.94 185.307 L 1071.14 185.952 L 1070.62 187.001 L 1070.43 188.384 L 1070.61 189.802 L 1071.12 190.84 L 1071.92 191.485 L 1072.96 191.704 L 1073.86 191.554 L 1074.59 191.162 L 1075.14 190.54 L 1075.45 189.71 L 1074.44 189.71 L 1074.24 190.171 L 1073.94 190.517 L 1073.08 190.794 L 1072.43 190.667 L 1071.93 190.263 L 1071.61 189.606 L 1071.49 188.719 L 1071.49 188.684 L 1071.49 188.684 z M 1071.49 187.831 L 1071.62 187.036 L 1071.93 186.448 L 1072.4 186.09 L 1073.03 185.964 L 1073.64 186.09 L 1074.11 186.448 L 1074.4 187.036 L 1074.5 187.831 L 1071.49 187.831 L 1071.49 187.831 z M 1077.93 191.485 L 1078.94 191.485 L 1078.94 187.946 L 1079.04 187.093 L 1079.36 186.482 L 1079.86 186.113 L 1080.54 185.987 L 1081.05 186.067 L 1081.43 186.298 L 1081.66 186.69 L 1081.74 187.22 L 1082.77 187.22 L 1082.63 186.286 L 1082.25 185.618 L 1081.61 185.214 L 1080.75 185.076 L 1080.16 185.168 L 1079.65 185.399 L 1079.21 185.791 L 1078.85 186.321 L 1078.85 185.295 L 1077.93 185.295 L 1077.93 191.485 L 1077.93 191.485 z M 1090.31 191.485 L 1091.37 191.485 L 1092.21 189.134 L 1095.4 189.134 L 1096.24 191.485 L 1097.33 191.485 L 1094.4 183.474 L 1093.22 183.474 L 1090.31 191.485 L 1090.31 191.485 z M 1092.58 188.154 L 1093.81 184.626 L 1095.04 188.154 L 1092.58 188.154 L 1092.58 188.154 z M 1099.36 188.845 L 1102.14 188.845 L 1102.14 187.935 L 1099.36 187.935 L 1099.36 188.845 L 1099.36 188.845 z M 1104.19 191.485 L 1105.25 191.485 L 1106.09 189.134 L 1109.28 189.134 L 1110.12 191.485 L 1111.21 191.485 L 1108.28 183.474 L 1107.1 183.474 L 1104.19 191.485 L 1104.19 191.485 z M 1106.46 188.154 L 1107.69 184.626 L 1108.92 188.154 L 1106.46 188.154 L 1106.46 188.154 z M 1112.62 191.485 L 1113.64 191.485 L 1113.64 187.946 L 1113.74 187.093 L 1114.05 186.482 L 1114.56 186.113 L 1115.24 185.987 L 1115.75 186.067 L 1116.13 186.298 L 1116.36 186.69 L 1116.44 187.22 L 1117.46 187.22 L 1117.33 186.286 L 1116.95 185.618 L 1116.31 185.214 L 1115.45 185.076 L 1114.86 185.168 L 1114.35 185.399 L 1113.9 185.791 L 1113.55 186.321 L 1113.55 185.295 L 1112.62 185.295 L 1112.62 191.485 L 1112.62 191.485 z M 1118.78 191.485 L 1119.71 191.485 L 1119.71 187.347 L 1119.77 186.724 L 1119.94 186.275 L 1120.21 186.01 L 1120.55 185.906 L 1120.83 185.998 L 1121.01 186.229 L 1121.11 186.621 L 1121.14 187.139 L 1121.14 191.485 L 1122.02 191.485 L 1122.02 187.347 L 1122.08 186.736 L 1122.25 186.286 L 1122.53 186.01 L 1122.87 185.906 L 1123.15 185.998 L 1123.33 186.229 L 1123.45 187.139 L 1123.45 191.485 L 1124.38 191.485 L 1124.38 187.208 L 1124.32 186.321 L 1124.14 185.641 L 1123.77 185.226 L 1123.17 185.076 L 1122.47 185.307 L 1121.93 185.975 L 1121.5 185.318 L 1120.78 185.076 L 1120.13 185.307 L 1119.68 185.952 L 1119.68 185.295 L 1118.78 185.295 L 1118.78 191.485 L 1118.78 191.485 z" stroke="none" fill-rule="evenodd" fill="rgb(0, 0, 0)"/></g><g stroke="rgb(0, 0, 0)" stroke-width="0.13" stroke-linecap="butt" stroke-linejoin="miter" fill="none"><path d="M 411.234 36.9636 L 410.83 38.6581 L 410.165 39.8685 L 409.237 40.6149 L 408.147 40.857 L 406.836 40.4938 L 405.807 39.4045 L 405.121 37.6293 L 404.9 35.1682 L 405.121 32.7273 L 405.787 30.9319 L 406.816 29.8426 L 408.147 29.4593 L 409.116 29.661 L 409.943 30.2258 L 410.588 31.1336 L 411.032 32.3843 L 412.949 32.3843 L 412.343 30.468 L 411.294 29.0155 L 409.862 28.1077 L 408.147 27.7849 L 406.009 28.2892 L 404.375 29.7014 L 403.326 32.0212 L 402.963 35.1682 L 403.326 38.3152 L 404.375 40.6351 L 406.009 42.0673 L 408.147 42.5515 L 410.023 42.1682 L 411.536 41.0991 L 412.606 39.344 L 413.17 36.9636 L 411.234 36.9636 L 411.234 36.9636 z M 415.41 36.7619 L 415.732 39.223 L 416.66 41.0385 L 418.133 42.1682 L 420.11 42.5515 L 422.067 42.1682 L 423.539 41.0587 L 424.467 39.2432 L 424.81 36.7619 L 424.467 34.3008 L 423.539 32.465 L 422.067 31.3555 L 420.11 30.9521 L 418.133 31.3555 L 416.66 32.4852 L 415.732 34.3008 L 415.41 36.7619 L 415.41 36.7619 z M 417.225 36.7417 L 417.407 34.9261 L 417.972 33.6149 L 418.879 32.808 L 420.11 32.5256 L 421.32 32.808 L 422.228 33.5947 L 422.793 34.9261 L 422.995 36.7417 L 422.793 38.5775 L 422.228 39.9089 L 421.32 40.7158 L 420.11 40.978 L 418.879 40.7158 L 417.972 39.9089 L 417.407 38.5775 L 417.225 36.7417 L 417.225 36.7417 z M 431.609 29.1769 L 431.609 40.6754 L 427.957 40.6754 L 427.957 42.1682 L 437.015 42.1682 L 437.015 40.6754 L 433.384 40.6754 L 433.384 27.6841 L 428.825 27.6841 L 428.825 29.1769 L 431.609 29.1769 L 431.609 29.1769 z M 443.753 29.1769 L 443.753 40.6754 L 440.101 40.6754 L 440.101 42.1682 L 449.159 42.1682 L 449.159 40.6754 L 445.528 40.6754 L 445.528 27.6841 L 440.969 27.6841 L 440.969 29.1769 L 443.753 29.1769 L 443.753 29.1769 z M 458.802 40.7561 L 458.802 40.8167 L 458.902 41.5025 L 459.205 41.9866 L 460.476 42.3699 L 461.464 42.2086 L 461.464 40.8368 L 461.041 40.8973 L 460.476 40.6351 L 460.375 39.8282 L 460.375 34.2201 L 460.133 32.7878 L 459.427 31.7792 L 458.196 31.174 L 456.462 30.9521 L 454.767 31.1942 L 453.516 31.88 L 452.73 32.9492 L 452.467 34.3613 L 452.467 34.4824 L 454.061 34.4824 L 454.202 33.6351 L 454.646 33.0299 L 455.372 32.6667 L 456.401 32.5256 L 457.39 32.6264 L 458.096 32.929 L 458.519 33.4535 L 458.66 34.1797 L 458.58 35.027 L 458.257 35.4506 L 457.45 35.6523 L 455.937 35.8137 L 454.202 36.1769 L 452.972 36.8224 L 452.245 37.8311 L 452.024 39.3239 L 452.225 40.6553 L 452.851 41.6437 L 453.859 42.2691 L 455.251 42.491 L 457.127 42.0673 L 458.802 40.7561 L 458.802 40.7561 z M 458.6 38.3757 L 458.358 39.4247 L 457.712 40.2316 L 456.744 40.7561 L 455.554 40.9377 L 454.787 40.8368 L 454.243 40.514 L 453.9 39.9492 L 453.799 39.1625 L 453.879 38.4564 L 454.202 37.9521 L 455.493 37.3872 L 457.127 37.1451 L 458.6 36.661 L 458.6 38.3757 L 458.6 38.3757 z M 472.943 41.6841 L 472.943 31.3354 L 471.248 31.3354 L 471.248 33.0904 L 469.856 31.4968 L 469.009 31.0933 L 468.061 30.9521 L 466.346 31.3555 L 465.015 32.4852 L 464.147 34.3008 L 463.845 36.7417 L 464.147 39.2028 L 465.015 41.0184 L 466.346 42.1682 L 468.061 42.5515 L 469.029 42.4103 L 469.836 42.0472 L 471.248 40.514 L 471.248 42.0472 L 471.087 43.2576 L 470.643 44.125 L 469.796 44.6293 L 468.525 44.8109 L 467.415 44.6898 L 466.629 44.3872 L 466.165 43.8627 L 466.024 43.1567 L 464.309 43.1567 L 464.309 43.2374 L 464.571 44.5284 L 465.378 45.4968 L 466.669 46.1221 L 468.424 46.344 L 470.522 46.0414 L 471.914 45.1942 L 472.701 43.7215 L 472.943 41.6841 L 472.943 41.6841 z M 465.681 36.7417 L 465.862 34.9463 L 466.407 33.6149 L 467.254 32.8282 L 468.384 32.5457 L 469.574 32.8282 L 470.462 33.6149 L 471.006 34.9463 L 471.208 36.7417 L 471.006 38.5775 L 470.462 39.8887 L 469.574 40.6956 L 468.384 40.9578 L 467.254 40.6956 L 466.407 39.8887 L 465.862 38.5573 L 465.681 36.7417 L 465.681 36.7417 z M 478.208 37.2662 L 485.309 37.2662 L 485.329 36.4391 L 485.006 34.1192 L 484.119 32.3843 L 482.707 31.3354 L 480.83 30.9521 L 478.995 31.3555 L 477.583 32.4852 L 476.675 34.3209 L 476.352 36.7417 L 476.655 39.223 L 477.562 41.0385 L 478.954 42.1682 L 480.77 42.5515 L 482.343 42.2892 L 483.634 41.6034 L 484.583 40.514 L 485.127 39.0616 L 483.372 39.0616 L 483.009 39.8685 L 482.485 40.4737 L 480.992 40.9578 L 479.842 40.736 L 478.975 40.0299 L 478.41 38.88 L 478.208 37.3267 L 478.208 37.2662 L 478.208 37.2662 z M 478.208 35.7734 L 478.43 34.3815 L 478.975 33.3527 L 479.802 32.7273 L 480.891 32.5054 L 481.96 32.7273 L 482.787 33.3527 L 483.292 34.3815 L 483.473 35.7734 L 478.208 35.7734 L 478.208 35.7734 z M 504.191 42.1682 L 506.047 42.1682 L 506.047 29.8627 L 510.283 29.8627 L 510.283 28.1682 L 499.934 28.1682 L 499.934 29.8627 L 504.191 29.8627 L 504.191 42.1682 L 504.191 42.1682 z M 521.439 31.3354 L 519.663 31.3354 L 519.663 37.589 L 519.462 39.0414 L 518.877 40.0904 L 517.969 40.736 L 516.779 40.9377 L 515.831 40.7763 L 515.225 40.2921 L 514.882 39.465 L 514.802 38.295 L 514.802 31.3354 L 513.026 31.3354 L 513.026 38.4564 L 513.087 39.8887 L 513.47 41.0789 L 514.64 42.1682 L 516.516 42.5515 L 517.525 42.4103 L 518.392 42.0472 L 519.139 41.4218 L 519.744 40.514 L 519.744 42.1682 L 521.439 42.1682 L 521.439 31.3354 L 521.439 31.3354 z M 526.905 40.4938 L 528.217 42.0472 L 530.012 42.5515 L 531.707 42.1682 L 533.058 41.0184 L 533.905 39.1826 L 534.228 36.7417 L 533.905 34.3008 L 533.038 32.4852 L 531.707 31.3555 L 530.012 30.9521 L 528.237 31.4766 L 527.511 32.1221 L 526.905 32.9896 L 526.905 27.6841 L 525.13 27.6841 L 525.13 42.1682 L 526.905 42.1682 L 526.905 40.4938 L 526.905 40.4938 z M 532.413 36.7417 L 532.211 38.5573 L 531.666 39.8887 L 530.799 40.6956 L 529.709 40.9578 L 528.519 40.6956 L 527.652 39.8887 L 527.107 38.5775 L 526.926 36.7417 L 527.107 34.9261 L 527.652 33.6149 L 528.519 32.8282 L 529.709 32.5457 L 530.799 32.8282 L 531.666 33.6351 L 532.211 34.9463 L 532.413 36.7417 L 532.413 36.7417 z M 538.929 37.2662 L 546.029 37.2662 L 546.05 36.4391 L 545.727 34.1192 L 544.839 32.3843 L 543.427 31.3354 L 541.551 30.9521 L 539.715 31.3555 L 538.303 32.4852 L 537.395 34.3209 L 537.073 36.7417 L 537.375 39.223 L 538.283 41.0385 L 539.675 42.1682 L 541.49 42.5515 L 543.064 42.2892 L 544.355 41.6034 L 545.303 40.514 L 545.848 39.0616 L 544.093 39.0616 L 543.73 39.8685 L 543.205 40.4737 L 541.712 40.9578 L 540.563 40.736 L 539.695 40.0299 L 539.13 38.88 L 538.929 37.3267 L 538.929 37.2662 L 538.929 37.2662 z M 538.929 35.7734 L 539.15 34.3815 L 539.695 33.3527 L 540.522 32.7273 L 541.612 32.5054 L 542.681 32.7273 L 543.508 33.3527 L 544.012 34.3815 L 544.194 35.7734 L 538.929 35.7734 L 538.929 35.7734 z M 554.825 35.8541 L 553.11 35.4506 L 551.839 34.9866 L 551.416 34.0385 L 551.537 33.3728 L 551.96 32.8887 L 552.646 32.5861 L 553.635 32.465 L 554.583 32.5861 L 555.329 32.9492 L 555.813 33.4938 L 556.015 34.2201 L 557.75 34.2201 L 557.75 34.1797 L 557.447 32.8685 L 556.62 31.8397 L 555.329 31.1942 L 553.635 30.9521 L 551.92 31.1942 L 550.669 31.8599 L 549.882 32.8483 L 549.64 34.0991 L 549.822 35.3094 L 550.387 36.1567 L 551.315 36.7619 L 552.666 37.1855 L 554.643 37.6697 L 555.854 38.174 L 556.176 38.5775 L 556.297 39.1826 L 556.116 39.929 L 555.632 40.4938 L 554.845 40.857 L 553.796 40.978 L 552.686 40.857 L 551.88 40.4333 L 551.335 39.7474 L 551.113 38.7993 L 549.398 38.7993 L 549.681 40.4131 L 550.508 41.5832 L 551.819 42.2892 L 553.635 42.5515 L 555.531 42.2892 L 556.923 41.5832 L 557.77 40.4535 L 558.073 38.9809 L 557.851 37.71 L 557.225 36.8426 L 556.197 36.2777 L 554.825 35.8541 L 554.825 35.8541 z M 581.251 36.9636 L 580.848 38.6581 L 580.182 39.8685 L 579.254 40.6149 L 578.165 40.857 L 576.854 40.4938 L 575.825 39.4045 L 575.139 37.6293 L 574.917 35.1682 L 575.139 32.7273 L 575.805 30.9319 L 576.833 29.8426 L 578.165 29.4593 L 579.133 29.661 L 579.96 30.2258 L 580.606 31.1336 L 581.05 32.3843 L 582.966 32.3843 L 582.361 30.468 L 581.312 29.0155 L 579.88 28.1077 L 578.165 27.7849 L 576.027 28.2892 L 574.393 29.7014 L 573.344 32.0212 L 572.98 35.1682 L 573.344 38.3152 L 574.393 40.6351 L 576.027 42.0673 L 578.165 42.5515 L 580.041 42.1682 L 581.554 41.0991 L 582.623 39.344 L 583.188 36.9636 L 581.251 36.9636 L 581.251 36.9636 z M 592.387 40.7561 L 592.387 40.8167 L 592.488 41.5025 L 592.79 41.9866 L 594.061 42.3699 L 595.05 42.2086 L 595.05 40.8368 L 594.626 40.8973 L 594.061 40.6351 L 593.96 39.8282 L 593.96 34.2201 L 593.718 32.7878 L 593.012 31.7792 L 591.782 31.174 L 590.047 30.9521 L 588.352 31.1942 L 587.101 31.88 L 586.315 32.9492 L 586.052 34.3613 L 586.052 34.4824 L 587.646 34.4824 L 587.787 33.6351 L 588.231 33.0299 L 588.957 32.6667 L 589.986 32.5256 L 590.975 32.6264 L 591.681 32.929 L 592.104 33.4535 L 592.246 34.1797 L 592.165 35.027 L 591.842 35.4506 L 591.035 35.6523 L 589.522 35.8137 L 587.787 36.1769 L 586.557 36.8224 L 585.831 37.8311 L 585.609 39.3239 L 585.81 40.6553 L 586.436 41.6437 L 587.444 42.2691 L 588.836 42.491 L 590.712 42.0673 L 592.387 40.7561 L 592.387 40.7561 z M 592.185 38.3757 L 591.943 39.4247 L 591.297 40.2316 L 590.329 40.7561 L 589.139 40.9377 L 588.372 40.8368 L 587.828 40.514 L 587.485 39.9492 L 587.384 39.1625 L 587.465 38.4564 L 587.787 37.9521 L 589.078 37.3872 L 590.712 37.1451 L 592.185 36.661 L 592.185 38.3757 L 592.185 38.3757 z M 598.761 42.1682 L 600.537 42.1682 L 600.537 35.9752 L 600.718 34.4824 L 601.263 33.4131 L 602.15 32.7676 L 603.341 32.5457 L 604.228 32.687 L 604.894 33.0904 L 605.297 33.7763 L 605.439 34.7042 L 607.234 34.7042 L 606.992 33.0703 L 606.326 31.9002 L 605.217 31.1942 L 603.704 30.9521 L 602.675 31.1135 L 601.787 31.5169 L 601.001 32.2028 L 600.375 33.1307 L 600.375 31.3354 L 598.761 31.3354 L 598.761 42.1682 L 598.761 42.1682 z M 611.914 40.4938 L 613.225 42.0472 L 615.021 42.5515 L 616.715 42.1682 L 618.067 41.0184 L 618.914 39.1826 L 619.237 36.7417 L 618.914 34.3008 L 618.047 32.4852 L 616.715 31.3555 L 615.021 30.9521 L 613.246 31.4766 L 612.519 32.1221 L 611.914 32.9896 L 611.914 27.6841 L 610.139 27.6841 L 610.139 42.1682 L 611.914 42.1682 L 611.914 40.4938 L 611.914 40.4938 z M 617.421 36.7417 L 617.22 38.5573 L 616.675 39.8887 L 615.808 40.6956 L 614.718 40.9578 L 613.528 40.6956 L 612.661 39.8887 L 612.116 38.5775 L 611.934 36.7417 L 612.116 34.9261 L 612.661 33.6149 L 613.528 32.8282 L 614.718 32.5457 L 615.808 32.8282 L 616.675 33.6351 L 617.22 34.9463 L 617.421 36.7417 L 617.421 36.7417 z M 621.859 36.7619 L 622.182 39.223 L 623.11 41.0385 L 624.583 42.1682 L 626.56 42.5515 L 628.516 42.1682 L 629.989 41.0587 L 630.917 39.2432 L 631.26 36.7619 L 630.917 34.3008 L 629.989 32.465 L 628.516 31.3555 L 626.56 30.9521 L 624.583 31.3555 L 623.11 32.4852 L 622.182 34.3008 L 621.859 36.7619 L 621.859 36.7619 z M 623.675 36.7417 L 623.857 34.9261 L 624.421 33.6149 L 625.329 32.808 L 626.56 32.5256 L 627.77 32.808 L 628.678 33.5947 L 629.243 34.9261 L 629.444 36.7417 L 629.243 38.5775 L 628.678 39.9089 L 627.77 40.7158 L 626.56 40.978 L 625.329 40.7158 L 624.421 39.9089 L 623.857 38.5775 L 623.675 36.7417 L 623.675 36.7417 z M 634.528 42.1682 L 636.303 42.1682 L 636.303 35.9146 L 636.485 34.4824 L 637.07 33.4333 L 637.978 32.7878 L 639.188 32.5457 L 640.156 32.7474 L 640.761 33.2921 L 641.064 34.1999 L 641.165 35.4103 L 641.165 42.1682 L 642.94 42.1682 L 642.94 35.0472 L 642.859 33.6149 L 642.496 32.4247 L 641.306 31.3354 L 639.45 30.9521 L 638.421 31.0933 L 637.554 31.4766 L 636.808 32.1221 L 636.223 32.9896 L 636.223 31.3354 L 634.528 31.3354 L 634.528 42.1682 L 634.528 42.1682 z M 648.225 37.2662 L 655.326 37.2662 L 655.346 36.4391 L 655.024 34.1192 L 654.136 32.3843 L 652.724 31.3354 L 650.848 30.9521 L 649.012 31.3555 L 647.6 32.4852 L 646.692 34.3209 L 646.37 36.7417 L 646.672 39.223 L 647.58 41.0385 L 648.972 42.1682 L 650.787 42.5515 L 652.361 42.2892 L 653.652 41.6034 L 654.6 40.514 L 655.145 39.0616 L 653.39 39.0616 L 653.027 39.8685 L 652.502 40.4737 L 651.009 40.9578 L 649.859 40.736 L 648.992 40.0299 L 648.427 38.88 L 648.225 37.3267 L 648.225 37.2662 L 648.225 37.2662 z M 648.225 35.7734 L 648.447 34.3815 L 648.992 33.3527 L 649.819 32.7273 L 650.908 32.5054 L 651.978 32.7273 L 652.805 33.3527 L 653.309 34.3815 L 653.491 35.7734 L 648.225 35.7734 L 648.225 35.7734 z M 672.695 37.5486 L 677.577 37.5486 L 677.577 35.955 L 672.695 35.955 L 672.695 37.5486 L 672.695 37.5486 z M 694.926 42.1682 L 696.802 42.1682 L 696.802 36.2576 L 698.718 36.2576 L 700.13 36.3181 L 701.018 36.6005 L 701.502 37.2662 L 701.704 38.4564 L 701.805 40.272 L 701.926 41.4622 L 702.168 42.1682 L 704.286 42.1682 L 704.286 41.7849 L 703.822 41.2201 L 703.661 40.1711 L 703.519 37.9117 L 703.177 36.2374 L 702.713 35.7129 L 701.986 35.3296 L 702.793 34.8253 L 703.358 34.1192 L 703.721 33.2316 L 703.842 32.1625 L 703.56 30.468 L 702.753 29.197 L 701.421 28.4305 L 699.606 28.1682 L 694.926 28.1682 L 694.926 42.1682 L 694.926 42.1682 z M 699.081 29.8829 L 700.312 30.004 L 701.179 30.3872 L 701.724 31.0933 L 701.906 32.2028 L 701.704 33.3728 L 701.159 34.0789 L 700.231 34.442 L 698.96 34.5428 L 696.802 34.5428 L 696.802 29.8829 L 699.081 29.8829 L 699.081 29.8829 z M 706.868 36.7619 L 707.191 39.223 L 708.119 41.0385 L 709.591 42.1682 L 711.568 42.5515 L 713.525 42.1682 L 714.998 41.0587 L 715.926 39.2432 L 716.269 36.7619 L 715.926 34.3008 L 714.998 32.465 L 713.525 31.3555 L 711.568 30.9521 L 709.591 31.3555 L 708.119 32.4852 L 707.191 34.3008 L 706.868 36.7619 L 706.868 36.7619 z M 708.684 36.7417 L 708.865 34.9261 L 709.43 33.6149 L 710.338 32.808 L 711.568 32.5256 L 712.779 32.808 L 713.687 33.5947 L 714.251 34.9261 L 714.453 36.7417 L 714.251 38.5775 L 713.687 39.9089 L 712.779 40.7158 L 711.568 40.978 L 710.338 40.7158 L 709.43 39.9089 L 708.865 38.5775 L 708.684 36.7417 L 708.684 36.7417 z M 727.888 31.3354 L 726.113 31.3354 L 726.113 37.589 L 725.911 39.0414 L 725.326 40.0904 L 724.419 40.736 L 723.228 40.9377 L 722.28 40.7763 L 721.675 40.2921 L 721.332 39.465 L 721.251 38.295 L 721.251 31.3354 L 719.476 31.3354 L 719.476 38.4564 L 719.537 39.8887 L 719.92 41.0789 L 721.09 42.1682 L 722.966 42.5515 L 723.975 42.4103 L 724.842 42.0472 L 725.589 41.4218 L 726.194 40.514 L 726.194 42.1682 L 727.888 42.1682 L 727.888 31.3354 L 727.888 31.3354 z M 733.234 37.2662 L 740.335 37.2662 L 740.355 36.4391 L 740.032 34.1192 L 739.145 32.3843 L 737.733 31.3354 L 735.857 30.9521 L 734.021 31.3555 L 732.609 32.4852 L 731.701 34.3209 L 731.378 36.7417 L 731.681 39.223 L 732.589 41.0385 L 733.981 42.1682 L 735.796 42.5515 L 737.37 42.2892 L 738.661 41.6034 L 739.609 40.514 L 740.154 39.0616 L 738.398 39.0616 L 738.035 39.8685 L 737.511 40.4737 L 736.018 40.9578 L 734.868 40.736 L 734.001 40.0299 L 733.436 38.88 L 733.234 37.3267 L 733.234 37.2662 L 733.234 37.2662 z M 733.234 35.7734 L 733.456 34.3815 L 734.001 33.3527 L 734.828 32.7273 L 735.917 32.5054 L 736.986 32.7273 L 737.813 33.3527 L 738.318 34.3815 L 738.499 35.7734 L 733.234 35.7734 L 733.234 35.7734 z M 754.012 42.1682 L 755.868 42.1682 L 757.341 38.0529 L 762.929 38.0529 L 764.401 42.1682 L 766.298 42.1682 L 761.174 28.1481 L 759.116 28.1481 L 754.012 42.1682 L 754.012 42.1682 z M 757.986 36.3383 L 760.145 30.1653 L 762.303 36.3383 L 757.986 36.3383 L 757.986 36.3383 z M 768.779 42.1682 L 770.554 42.1682 L 770.554 35.9752 L 770.736 34.4824 L 771.28 33.4131 L 772.168 32.7676 L 773.358 32.5457 L 774.246 32.687 L 774.911 33.0904 L 775.315 33.7763 L 775.456 34.7042 L 777.252 34.7042 L 777.009 33.0703 L 776.344 31.9002 L 775.234 31.1942 L 773.721 30.9521 L 772.692 31.1135 L 771.805 31.5169 L 771.018 32.2028 L 770.393 33.1307 L 770.393 31.3354 L 768.779 31.3354 L 768.779 42.1682 L 768.779 42.1682 z M 780.923 42.1682 L 782.698 42.1682 L 782.698 35.9752 L 782.88 34.4824 L 783.424 33.4131 L 784.312 32.7676 L 785.502 32.5457 L 786.39 32.687 L 787.056 33.0904 L 787.459 33.7763 L 787.6 34.7042 L 789.396 34.7042 L 789.154 33.0703 L 788.488 31.9002 L 787.378 31.1942 L 785.865 30.9521 L 784.837 31.1135 L 783.949 31.5169 L 783.162 32.2028 L 782.537 33.1307 L 782.537 31.3354 L 780.923 31.3354 L 780.923 42.1682 L 780.923 42.1682 z M 797.828 40.6754 L 797.828 31.6985 L 793.269 31.6985 L 793.269 33.2114 L 796.053 33.2114 L 796.053 40.6754 L 792.422 40.6754 L 792.422 42.1682 L 801.499 42.1682 L 801.499 40.6754 L 797.828 40.6754 L 797.828 40.6754 z M 797.888 27.6841 L 796.012 27.6841 L 796.012 29.7014 L 797.888 29.7014 L 797.888 27.6841 L 797.888 27.6841 z M 810.154 29.8627 L 808.136 26.4333 L 806.159 26.4333 L 808.963 29.8627 L 810.154 29.8627 L 810.154 29.8627 z M 806.099 37.2662 L 813.2 37.2662 L 813.22 36.4391 L 812.897 34.1192 L 812.009 32.3843 L 810.597 31.3354 L 808.721 30.9521 L 806.886 31.3555 L 805.473 32.4852 L 804.566 34.3209 L 804.243 36.7417 L 804.545 39.223 L 805.453 41.0385 L 806.845 42.1682 L 808.661 42.5515 L 810.234 42.2892 L 811.525 41.6034 L 812.473 40.514 L 813.018 39.0616 L 811.263 39.0616 L 810.9 39.8685 L 810.375 40.4737 L 808.883 40.9578 L 807.733 40.736 L 806.865 40.0299 L 806.301 38.88 L 806.099 37.3267 L 806.099 37.2662 L 806.099 37.2662 z M 806.099 35.7734 L 806.321 34.3815 L 806.865 33.3527 L 807.692 32.7273 L 808.782 32.5054 L 809.851 32.7273 L 810.678 33.3527 L 811.182 34.3815 L 811.364 35.7734 L 806.099 35.7734 L 806.099 35.7734 z M 817.355 42.1682 L 819.13 42.1682 L 819.13 35.9752 L 819.312 34.4824 L 819.857 33.4131 L 820.744 32.7676 L 821.935 32.5457 L 822.822 32.687 L 823.488 33.0904 L 823.891 33.7763 L 824.033 34.7042 L 825.828 34.7042 L 825.586 33.0703 L 824.92 31.9002 L 823.811 31.1942 L 822.298 30.9521 L 821.269 31.1135 L 820.381 31.5169 L 819.594 32.2028 L 818.969 33.1307 L 818.969 31.3354 L 817.355 31.3354 L 817.355 42.1682 L 817.355 42.1682 z M 830.387 37.2662 L 837.488 37.2662 L 837.508 36.4391 L 837.185 34.1192 L 836.298 32.3843 L 834.886 31.3354 L 833.009 30.9521 L 831.174 31.3555 L 829.762 32.4852 L 828.854 34.3209 L 828.531 36.7417 L 828.834 39.223 L 829.741 41.0385 L 831.133 42.1682 L 832.949 42.5515 L 834.522 42.2892 L 835.814 41.6034 L 836.762 40.514 L 837.306 39.0616 L 835.551 39.0616 L 835.188 39.8685 L 834.664 40.4737 L 833.171 40.9578 L 832.021 40.736 L 831.154 40.0299 L 830.589 38.88 L 830.387 37.3267 L 830.387 37.2662 L 830.387 37.2662 z M 830.387 35.7734 L 830.609 34.3815 L 831.154 33.3527 L 831.981 32.7273 L 833.07 32.5054 L 834.139 32.7273 L 834.966 33.3527 L 835.471 34.3815 L 835.652 35.7734 L 830.387 35.7734 L 830.387 35.7734 z M 857.278 28.1682 L 852.618 28.1682 L 852.618 42.1682 L 857.278 42.1682 L 859.476 41.7244 L 861.11 40.3728 L 862.119 38.174 L 862.482 35.1682 L 862.159 32.1019 L 861.756 30.8915 L 861.191 29.9233 L 859.557 28.612 L 858.488 28.2892 L 857.278 28.1682 L 857.278 28.1682 z M 857.136 29.8426 L 858.669 30.1451 L 859.718 31.0731 L 860.344 32.7273 L 860.546 35.1682 L 860.324 37.5284 L 859.698 39.1826 L 858.629 40.1711 L 857.136 40.4938 L 854.494 40.4938 L 854.494 29.8426 L 857.136 29.8426 L 857.136 29.8426 z M 865.932 42.1682 L 867.707 42.1682 L 867.707 35.9752 L 867.888 34.4824 L 868.433 33.4131 L 869.321 32.7676 L 870.511 32.5457 L 871.399 32.687 L 872.064 33.0904 L 872.468 33.7763 L 872.609 34.7042 L 874.404 34.7042 L 874.162 33.0703 L 873.497 31.9002 L 872.387 31.1942 L 870.874 30.9521 L 869.845 31.1135 L 868.958 31.5169 L 868.171 32.2028 L 867.546 33.1307 L 867.546 31.3354 L 865.932 31.3354 L 865.932 42.1682 L 865.932 42.1682 z M 876.886 36.7619 L 877.208 39.223 L 878.136 41.0385 L 879.609 42.1682 L 881.586 42.5515 L 883.543 42.1682 L 885.015 41.0587 L 885.943 39.2432 L 886.286 36.7619 L 885.943 34.3008 L 885.015 32.465 L 883.543 31.3555 L 881.586 30.9521 L 879.609 31.3555 L 878.136 32.4852 L 877.208 34.3008 L 876.886 36.7619 L 876.886 36.7619 z M 878.701 36.7417 L 878.883 34.9261 L 879.448 33.6149 L 880.355 32.808 L 881.586 32.5256 L 882.796 32.808 L 883.704 33.5947 L 884.269 34.9261 L 884.471 36.7417 L 884.269 38.5775 L 883.704 39.9089 L 882.796 40.7158 L 881.586 40.978 L 880.355 40.7158 L 879.448 39.9089 L 878.883 38.5775 L 878.701 36.7417 L 878.701 36.7417 z M 894.981 40.6754 L 894.981 31.6985 L 890.422 31.6985 L 890.422 33.2114 L 893.206 33.2114 L 893.206 40.6754 L 889.574 40.6754 L 889.574 42.1682 L 898.652 42.1682 L 898.652 40.6754 L 894.981 40.6754 L 894.981 40.6754 z M 895.041 27.6841 L 893.165 27.6841 L 893.165 29.7014 L 895.041 29.7014 L 895.041 27.6841 L 895.041 27.6841 z M 904.079 33.2114 L 904.079 38.6379 L 904.2 40.393 L 904.765 41.6034 L 905.894 42.3094 L 907.811 42.5515 L 909.909 42.4506 L 909.909 40.9175 L 908.376 41.0385 L 906.984 40.8771 L 906.237 40.3728 L 905.914 39.5256 L 905.854 38.3354 L 905.854 33.2114 L 909.909 33.2114 L 909.909 31.6985 L 905.854 31.6985 L 905.854 28.5313 L 904.079 28.5313 L 904.079 31.6985 L 901.012 31.6985 L 901.012 33.2114 L 904.079 33.2114 L 904.079 33.2114 z M 915.396 37.2662 L 922.497 37.2662 L 922.517 36.4391 L 922.194 34.1192 L 921.306 32.3843 L 919.894 31.3354 L 918.018 30.9521 L 916.182 31.3555 L 914.77 32.4852 L 913.863 34.3209 L 913.54 36.7417 L 913.842 39.223 L 914.75 41.0385 L 916.142 42.1682 L 917.958 42.5515 L 919.531 42.2892 L 920.822 41.6034 L 921.77 40.514 L 922.315 39.0616 L 920.56 39.0616 L 920.197 39.8685 L 919.672 40.4737 L 918.18 40.9578 L 917.03 40.736 L 916.162 40.0299 L 915.597 38.88 L 915.396 37.3267 L 915.396 37.2662 L 915.396 37.2662 z M 915.396 35.7734 L 915.618 34.3815 L 916.162 33.3527 L 916.989 32.7273 L 918.079 32.5054 L 919.148 32.7273 L 919.975 33.3527 L 920.479 34.3815 L 920.661 35.7734 L 915.396 35.7734 L 915.396 35.7734 z" stroke="none" fill-rule="evenodd" fill="rgb(0, 0, 0)"/></g><g stroke="rgb(0, 0, 0)" stroke-width="0.13" stroke-linecap="butt" stroke-linejoin="miter" fill="none"><path d="M 990.5 84.4371 L 990.954 84.4371 L 990.954 83.5696 L 991.453 83.5696 L 991.453 83.1662 L 990.954 83.1662 L 990.954 81.0128 L 990.495 81.0128 L 988.962 83.1259 L 988.962 83.5696 L 990.5 83.5696 L 990.5 84.4371 L 990.5 84.4371 z M 989.386 83.1662 L 990.5 81.5977 L 990.5 83.1662 L 989.386 83.1662 L 989.386 83.1662 z M 992.688 83.3376 L 992.688 83.3729 L 992.769 83.8571 L 993.006 84.2202 L 993.379 84.4522 L 993.873 84.538 L 994.398 84.4522 L 994.791 84.2303 L 995.043 83.8773 L 995.134 83.4234 L 995.094 83.1259 L 994.983 82.8838 L 994.801 82.6971 L 994.559 82.561 L 994.887 82.2886 L 995.003 81.8549 L 994.927 81.4615 L 994.71 81.164 L 994.357 80.9774 L 993.873 80.9119 L 993.419 80.9926 L 993.071 81.2145 L 992.844 81.5675 L 992.769 82.0365 L 992.769 82.0718 L 993.218 82.0718 L 993.258 81.749 L 993.389 81.517 L 993.601 81.3759 L 993.898 81.3254 L 994.161 81.3658 L 994.352 81.4717 L 994.468 81.6431 L 994.514 81.8751 L 994.468 82.1223 L 994.347 82.2886 L 994.135 82.3895 L 993.848 82.4198 L 993.651 82.4147 L 993.651 82.8132 L 993.898 82.8031 L 994.216 82.8484 L 994.453 82.9695 L 994.594 83.1662 L 994.645 83.4234 L 994.589 83.7159 L 994.443 83.9327 L 994.211 84.0689 L 993.904 84.1143 L 993.586 84.0639 L 993.354 83.9126 L 993.208 83.6705 L 993.152 83.3376 L 992.688 83.3376 L 992.688 83.3376 z M 996.464 84.4371 L 998.87 84.4371 L 998.87 84.0034 L 996.969 84.0034 L 997.075 83.7663 L 997.256 83.5696 L 997.816 83.2115 L 998.114 83.0603 L 998.446 82.8434 L 998.683 82.5912 L 998.82 82.2937 L 998.87 81.9558 L 998.784 81.5322 L 998.547 81.1993 L 998.184 80.9875 L 997.715 80.9119 L 997.231 80.9976 L 996.863 81.2346 L 996.626 81.6129 L 996.545 82.1121 L 996.545 82.1827 L 997.004 82.1827 L 997.004 82.1424 L 997.049 81.7995 L 997.186 81.5473 L 997.403 81.3859 L 997.69 81.3304 L 997.982 81.3809 L 998.199 81.507 L 998.341 81.7037 L 998.391 81.9507 L 998.356 82.1827 L 998.26 82.3795 L 998.098 82.5509 L 997.877 82.7022 L 997.579 82.8636 L 997.085 83.1763 L 996.737 83.5091 L 996.53 83.9126 L 996.464 84.4219 L 996.464 84.4371 L 996.464 84.4371 z M 1001.08 84.4371 L 1001.78 84.4371 L 1001.78 83.6856 L 1001.08 83.6856 L 1001.08 84.4371 L 1001.08 84.4371 z M 1003.96 83.5696 L 1004.03 83.9681 L 1004.25 84.2757 L 1004.59 84.4673 L 1005.05 84.538 L 1005.34 84.5026 L 1005.61 84.4119 L 1005.84 84.2555 L 1006.03 84.0336 L 1006.18 83.7562 L 1006.29 83.4133 L 1006.36 83.02 L 1006.38 82.566 L 1006.3 81.8549 L 1006.05 81.3355 L 1005.66 81.0228 L 1005.12 80.9119 L 1004.62 81.0026 L 1004.25 81.2447 L 1004.01 81.6179 L 1003.93 82.0869 L 1004.01 82.5711 L 1004.24 82.9392 L 1004.6 83.1712 L 1005.05 83.2469 L 1005.52 83.1511 L 1005.88 82.8585 L 1005.8 83.4183 L 1005.64 83.8168 L 1005.39 84.0538 L 1005.05 84.1295 L 1004.79 84.0941 L 1004.6 83.9832 L 1004.47 83.8066 L 1004.42 83.5696 L 1003.96 83.5696 L 1003.96 83.5696 z M 1004.42 82.0819 L 1004.47 81.7692 L 1004.61 81.5221 L 1004.83 81.3658 L 1005.12 81.3103 L 1005.41 81.3658 L 1005.64 81.5221 L 1005.78 81.7642 L 1005.84 82.0768 L 1005.78 82.3946 L 1005.64 82.6316 L 1005.41 82.7778 L 1005.1 82.8283 L 1004.82 82.7778 L 1004.61 82.6316 L 1004.47 82.3996 L 1004.42 82.0819 L 1004.42 82.0819 z M 1010.11 81.8802 L 1010.02 81.4717 L 1009.8 81.1691 L 1009.45 80.9774 L 1009.01 80.9119 L 1008.71 80.9471 L 1008.45 81.043 L 1008.23 81.1993 L 1008.04 81.4212 L 1007.88 81.6986 L 1007.77 82.0365 L 1007.7 82.4349 L 1007.68 82.8838 L 1007.76 83.5999 L 1008.01 84.1193 L 1008.41 84.432 L 1008.95 84.538 L 1009.44 84.4471 L 1009.82 84.2101 L 1010.06 83.8369 L 1010.14 83.3629 L 1010.06 82.8838 L 1009.83 82.5156 L 1009.47 82.2836 L 1009.02 82.2029 L 1008.54 82.3038 L 1008.19 82.5912 L 1008.26 82.0365 L 1008.42 81.6381 L 1008.67 81.4011 L 1009.01 81.3204 L 1009.27 81.3607 L 1009.46 81.4666 L 1009.58 81.6431 L 1009.65 81.8802 L 1010.11 81.8802 L 1010.11 81.8802 z M 1009.65 83.3679 L 1009.6 83.6856 L 1009.46 83.9277 L 1009.23 84.0891 L 1008.95 84.1395 L 1008.65 84.0891 L 1008.42 83.9327 L 1008.28 83.6907 L 1008.23 83.3729 L 1008.28 83.0603 L 1008.42 82.8232 L 1008.66 82.6719 L 1008.97 82.6165 L 1009.24 82.6719 L 1009.46 82.8182 L 1009.6 83.0552 L 1009.65 83.3679 L 1009.65 83.3679 z" stroke="none" fill-rule="evenodd" fill="rgb(0, 0, 0)"/><path d="M 785.014 85.9194 L 783.083 86.4371 L 785.014 86.9547"/><path d="M 783.082 86.4375 L 1189.01 86.4375"/></g></svg>