<?xml version="1.0" encoding="utf-8"?>
<!-- Generator: Adobe Illustrator 22.1.0, SVG Export Plug-In . SVG Version: 6.00 Build 0)  -->
<svg version="1.1" id="Calque_1" dsy:text-version="18000" xmlns:dsy="http://www.3ds.com/print"
	 xmlns="http://www.w3.org/2000/svg" xmlns:xlink="http://www.w3.org/1999/xlink" x="0px" y="0px" viewBox="0 0 1189 841"
	 style="enable-background:new 0 0 1189 841;" xml:space="preserve">
<style type="text/css">
	.st0{fill:none;stroke:#FF0000;stroke-width:2.834646e-02;}
	.st1{fill:none;stroke:#000000;stroke-width:0.13;}
</style>
<path class="st0" d="M93.1,476.4c0,7.7,6.3,14,14,14c4,0,7.8-1.7,10.5-4.7"/>
<path class="st0" d="M92.1,152.4l1,324"/>
<path class="st0" d="M118.5,162.2l-26.4-9.7"/>
<path class="st0" d="M120.2,157.5l-1.7,4.7"/>
<path class="st0" d="M92.1,147.1l28.2,10.4"/>
<path class="st0" d="M91.8,44.9l0.3,102.2"/>
<path class="st0" d="M107.9,33.6c-6.2-2.3-13.1,0.9-15.4,7.1c-0.5,1.3-0.7,2.8-0.7,4.2"/>
<path class="st0" d="M169.2,56.2l-61.3-22.6"/>
<path class="st0" d="M162.3,74.9l6.9-18.8"/>
<path class="st0" d="M167.9,77l-5.5-2"/>
<path class="st0" d="M174.8,58.2L167.9,77"/>
<path class="st0" d="M337.7,118.2l-162.9-60"/>
<path class="st0" d="M330.7,136.9l6.9-18.8"/>
<path class="st0" d="M336.3,139l-5.5-2"/>
<path class="st0" d="M343.2,120.2l-6.9,18.8"/>
<path class="st0" d="M343.2,120.2l56.3,20.7"/>
<path class="st0" d="M404.4,160.1c4.4-5,3.9-12.6-1.1-16.9c-1.1-1-2.4-1.7-3.8-2.3"/>
<path class="st0" d="M117.6,485.6l286.8-325.5"/>
<circle class="st0" cx="390.3" cy="150.3" r="3.2"/>
<circle class="st0" cx="108.8" cy="46.7" r="3.2"/>
<circle class="st0" cx="110.1" cy="468.4" r="3.2"/>
<circle class="st0" cx="161.2" cy="332.4" r="6"/>
<circle class="st0" cx="192.9" cy="248.1" r="3.2"/>
<path class="st0" d="M257,165.2l-1.7,4.7"/>
<path class="st0" d="M257,165.2l-18.8-6.9"/>
<path class="st0" d="M236.5,163l1.7-4.7"/>
<path class="st0" d="M236.5,163l18.8,6.9"/>
<path class="st0" d="M241.7,148.9l-1.7,4.7"/>
<path class="st0" d="M258.7,160.5l-18.8-6.9"/>
<path class="st0" d="M258.7,160.5l1.7-4.7"/>
<path class="st0" d="M241.7,148.9l18.8,6.9"/>
<path class="st0" d="M101.8,47.5l-1.2-9.9"/>
<path class="st0" d="M100.6,37.6l-1,0.1"/>
<path class="st0" d="M99.6,37.7l1.2,9.9"/>
<path class="st0" d="M100.8,47.7l1-0.1"/>
<path class="st0" d="M115.7,47.5l1,0.1"/>
<path class="st0" d="M116.7,47.6l1-8.9"/>
<path class="st0" d="M117.8,38.7l-1-0.1"/>
<path class="st0" d="M115.7,47.5l1-8.9"/>
<path class="st0" d="M395.5,156.4l-0.7-0.8"/>
<path class="st0" d="M403.1,149.9l-7.6,6.5"/>
<path class="st0" d="M402.5,149.1l0.7,0.8"/>
<path class="st0" d="M394.9,155.6l7.6-6.5"/>
<path class="st0" d="M384.5,146.5l5-7.5"/>
<path class="st0" d="M388.6,138.4l0.8,0.6"/>
<path class="st0" d="M383.6,145.9l5-7.5"/>
<path class="st0" d="M384.5,146.5l-0.8-0.6"/>
<path class="st0" d="M213.5,138.5l-3.5,9.4"/>
<path class="st0" d="M210.1,147.9c-1,2.6,0.3,5.5,2.9,6.4c2.6,1,5.5-0.3,6.4-2.9c0,0,0,0,0-0.1"/>
<path class="st0" d="M219.4,151.4l3.5-9.4"/>
<path class="st0" d="M222.9,142c1-2.6-0.4-5.5-3-6.4c-2.6-1-5.5,0.4-6.4,3l0,0"/>
<path class="st0" d="M515.3,471.5c0,7.7,6.3,14,14,14c4,0,7.8-1.7,10.5-4.7"/>
<path class="st0" d="M514.3,147.5l1,324"/>
<path class="st0" d="M540.7,157.2l-26.4-9.7"/>
<path class="st0" d="M542.4,152.5l-1.7,4.7"/>
<path class="st0" d="M514.3,142.2l28.2,10.4"/>
<path class="st0" d="M514,39.9l0.3,102.2"/>
<path class="st0" d="M530.1,28.6c-6.2-2.3-13.1,0.9-15.4,7.1c-0.5,1.3-0.7,2.8-0.7,4.2"/>
<path class="st0" d="M591.4,51.2l-61.3-22.6"/>
<path class="st0" d="M584.5,70l6.9-18.8"/>
<path class="st0" d="M590.1,72l-5.5-2"/>
<path class="st0" d="M597,53.2L590.1,72"/>
<path class="st0" d="M759.8,113.2L597,53.2"/>
<path class="st0" d="M752.9,132l6.9-18.8"/>
<path class="st0" d="M758.5,134l-5.5-2"/>
<path class="st0" d="M765.4,115.2l-6.9,18.8"/>
<path class="st0" d="M765.4,115.2l56.3,20.7"/>
<path class="st0" d="M826.5,155.2c4.4-5,3.9-12.6-1.1-16.9c-1.1-1-2.4-1.7-3.8-2.3"/>
<path class="st0" d="M539.8,480.7l286.8-325.5"/>
<circle class="st0" cx="812.5" cy="145.4" r="3.2"/>
<circle class="st0" cx="531" cy="41.7" r="3.2"/>
<circle class="st0" cx="532.3" cy="463.5" r="3.2"/>
<circle class="st0" cx="583.4" cy="327.4" r="6"/>
<circle class="st0" cx="615.1" cy="243.2" r="3.2"/>
<path class="st0" d="M679.2,160.2l-1.7,4.7"/>
<path class="st0" d="M679.2,160.2l-18.8-6.9"/>
<path class="st0" d="M658.7,158l1.7-4.7"/>
<path class="st0" d="M658.7,158l18.8,6.9"/>
<path class="st0" d="M663.9,143.9l-1.7,4.7"/>
<path class="st0" d="M680.9,155.5l-18.8-6.9"/>
<path class="st0" d="M680.9,155.5l1.7-4.7"/>
<path class="st0" d="M663.9,143.9l18.8,6.9"/>
<path class="st0" d="M685,124c0.3-0.8-0.1-1.6-0.9-1.9c-0.8-0.3-1.6,0.1-1.9,0.9"/>
<path class="st0" d="M677.4,136.1l4.8-13.1"/>
<path class="st0" d="M677.4,136.1c-0.3,0.8,0.1,1.6,0.9,1.9c0.8,0.3,1.6-0.1,1.9-0.9l0,0"/>
<path class="st0" d="M685,124l-4.8,13.1"/>
<path class="st0" d="M524.1,42.7l-1.4-9.9"/>
<path class="st0" d="M522.6,32.8l-1,0.1"/>
<path class="st0" d="M521.6,33l1.4,9.9"/>
<path class="st0" d="M523.1,42.9l1-0.1"/>
<path class="st0" d="M538.9,42.8l-1-0.1"/>
<path class="st0" d="M540.1,33.9l-1.2,8.9"/>
<path class="st0" d="M539.1,33.8l1,0.1"/>
<path class="st0" d="M537.9,42.7l1.2-8.9"/>
<path class="st0" d="M817.1,150.7l0.7,0.8"/>
<path class="st0" d="M817.7,151.5l9.1-7.8"/>
<path class="st0" d="M826.8,143.6l-0.7-0.8"/>
<path class="st0" d="M817.1,150.7l9.1-7.8"/>
<path class="st0" d="M806.7,141.5l4.4-6.7"/>
<path class="st0" d="M811.1,134.9l-0.8-0.6"/>
<path class="st0" d="M810.2,134.3l-4.4,6.7"/>
<path class="st0" d="M805.8,141l0.8,0.6"/>
<path class="st0" d="M945.2,46.3c0-0.1-0.1-0.2-0.2-0.2"/>
<path class="st1" d="M945,46.2l0-0.2"/>
<path class="st1" d="M945.2,46.3l-0.2,0"/>
<path class="st0" d="M925.9,44L945,46"/>
<path class="st0" d="M925.7,44.1L925.7,44.1"/>
<path class="st1" d="M925.7,44.1l19.4,2.1"/>
<path class="st0" d="M925.9,44c-0.1,0-0.2,0.1-0.2,0.2"/>
<path class="st0" d="M900.8,41.4c-0.5,6.9,4.8,12.8,11.7,13.3c6.5,0.4,12.2-4.2,13.2-10.6"/>
<path class="st0" d="M900.8,41.4c0-0.1-0.1-0.2-0.2-0.2"/>
<path class="st0" d="M941.2,83.6l4.1-37.4"/>
<path class="st1" d="M941,83.6l4.1-37.4"/>
<path class="st1" d="M941.2,83.6l-0.2,0"/>
<path class="st0" d="M936.4,83.3l4.6,0.5"/>
<path class="st0" d="M936.4,83.3c-0.1,0-0.2,0.1-0.2,0.2"/>
<path class="st0" d="M940.7,85.8l-4.6-0.5"/>
<path class="st0" d="M936,85.1l0.2-1.6"/>
<path class="st0" d="M936,85.1c0,0.1,0.1,0.2,0.2,0.2"/>
<path class="st0" d="M940.9,83.8c0.1,0,0.2-0.1,0.2-0.2c0,0,0,0,0,0"/>
<path class="st1" d="M940.9,83.8l0-0.2"/>
<path class="st1" d="M936.4,83.1l4.6,0.5"/>
<path class="st1" d="M936.4,83.3l0-0.2"/>
<path class="st1" d="M936.4,83.1c-0.2,0-0.4,0.1-0.4,0.4c0,0,0,0,0,0"/>
<path class="st1" d="M936.1,83.5l-0.2,0"/>
<path class="st1" d="M935.8,85.1l0.2-1.6"/>
<path class="st1" d="M936,85.1l-0.2,0"/>
<path class="st1" d="M935.8,85.1c0,0.2,0.1,0.4,0.4,0.4c0,0,0,0,0,0"/>
<path class="st1" d="M936.2,85.3l0,0.2"/>
<path class="st1" d="M940.7,86l-4.6-0.5"/>
<path class="st1" d="M940.7,85.8l0,0.2"/>
<path class="st1" d="M940.9,86l-0.2,0"/>
<path class="st0" d="M940.9,86c0-0.1-0.1-0.2-0.2-0.2"/>
<path class="st0" d="M900.6,41.2l-14.5-1.6"/>
<path class="st1" d="M900.8,41.4l-14.7-1.6"/>
<path class="st1" d="M886.1,39.6l0,0.2"/>
<path class="st0" d="M912.1,82.9c0-0.1-0.1-0.2-0.2-0.2"/>
<path class="st0" d="M906.3,82.1l5.6,0.6"/>
<path class="st0" d="M906.3,82.1c-0.1,0-0.2,0.1-0.2,0.2"/>
<path class="st0" d="M906.1,82.3l-2.1,19.5"/>
<path class="st0" d="M903.8,101.9c0.1,0,0.2-0.1,0.2-0.2c0,0,0,0,0,0"/>
<path class="st0" d="M879.5,99.1l6.4-59.3"/>
<path class="st0" d="M903.8,101.9l-24.1-2.6"/>
<path class="st0" d="M879.5,99.1c0,0.1,0.1,0.2,0.2,0.2"/>
<path class="st0" d="M886.1,39.7c-0.1,0-0.2,0.1-0.2,0.2"/>
<path class="st1" d="M886.1,39.8l-0.2,0"/>
<path class="st1" d="M879.7,99.1l-0.2,0"/>
<path class="st1" d="M879.7,99.1l6.4-59.3"/>
<path class="st1" d="M879.7,99.1l0,0.2"/>
<path class="st1" d="M903.8,101.7l0,0.2"/>
<path class="st1" d="M903.8,101.7l-24.1-2.6"/>
<path class="st1" d="M903.8,101.7l0.2,0"/>
<path class="st1" d="M905.9,82.2l0.2,0"/>
<path class="st1" d="M905.9,82.2l-2.1,19.5"/>
<path class="st1" d="M906.3,81.9l0,0.2"/>
<path class="st1" d="M906.3,81.9c-0.2,0-0.4,0.1-0.4,0.4c0,0,0,0,0,0"/>
<path class="st1" d="M911.9,82.5l0,0.2"/>
<path class="st1" d="M906.3,81.9l5.6,0.6"/>
<path class="st1" d="M912.3,82.9l-0.2,0"/>
<path class="st1" d="M912.3,82.9c0-0.2-0.1-0.4-0.4-0.4c0,0,0,0,0,0"/>
<path class="st0" d="M920.2,83.6c-0.1,0-0.2,0.1-0.2,0.2c0,0,0,0,0,0"/>
<path class="st0" d="M917.9,103.2l2.1-19.5"/>
<path class="st0" d="M917.7,103.4c0.1,0,0.2-0.1,0.2-0.2"/>
<path class="st0" d="M938.8,105.5l2.1-19.5"/>
<path class="st1" d="M938.6,105.5l2.1-19.5"/>
<path class="st1" d="M938.8,105.5l-0.2,0"/>
<path class="st0" d="M938.6,105.7l-14.5-1.6"/>
<path class="st0" d="M923.9,103.9c0,0.1,0.1,0.2,0.2,0.2c0,0,0,0,0,0"/>
<path class="st0" d="M920.2,83.6l5.6,0.6"/>
<path class="st0" d="M923.9,103.9l2.1-19.5"/>
<path class="st0" d="M926,84.4c0-0.1-0.1-0.2-0.2-0.2"/>
<path class="st0" d="M917.7,103.4l-7.6-0.8"/>
<path class="st0" d="M910,102.4l2.1-19.5"/>
<path class="st1" d="M910.2,102.4l2.1-19.5"/>
<path class="st1" d="M917.7,103.2l-7.6-0.8"/>
<path class="st1" d="M917.7,103.2l2.1-19.5"/>
<path class="st1" d="M920.3,83.4c-0.2,0-0.4,0.1-0.4,0.4c0,0,0,0,0,0"/>
<path class="st1" d="M920.3,83.4l5.6,0.6"/>
<path class="st1" d="M926.2,84.4c0-0.2-0.1-0.4-0.4-0.4"/>
<path class="st1" d="M924.1,103.9l2.1-19.5"/>
<path class="st1" d="M938.6,105.5l-14.5-1.6"/>
<path class="st1" d="M910.2,102.4l-0.2,0"/>
<path class="st1" d="M917.7,103.2l0.2,0"/>
<path class="st1" d="M919.8,83.7l0.2,0"/>
<path class="st1" d="M920.3,83.4l0,0.2"/>
<path class="st1" d="M925.8,84l0,0.2"/>
<path class="st1" d="M926.2,84.4l-0.2,0"/>
<path class="st1" d="M924.1,103.9l-0.2,0"/>
<path class="st1" d="M924.1,103.9l0,0.2"/>
<path class="st1" d="M938.6,105.5l0,0.2"/>
<path class="st0" d="M938.6,105.7c0.1,0,0.2-0.1,0.2-0.2c0,0,0,0,0,0"/>
<path class="st0" d="M910,102.4c0,0.1,0.1,0.2,0.2,0.2c0,0,0,0,0,0"/>
<path class="st1" d="M910.2,102.4l0,0.2"/>
<path class="st1" d="M917.7,103.2l0,0.2"/>
<path class="st0" d="M1052.3,88.1l4.6,0.5"/>
<path class="st0" d="M1052.1,87.9c0,0.1,0.1,0.2,0.2,0.2"/>
<path class="st0" d="M1052.3,86.3l-0.2,1.6"/>
<path class="st0" d="M1052.5,86.1c-0.1,0-0.2,0.1-0.2,0.2"/>
<path class="st0" d="M1057.1,86.6l-4.6-0.5"/>
<path class="st0" d="M1057,88.8c0-0.1-0.1-0.2-0.2-0.2"/>
<path class="st1" d="M1056.8,88.8l0-0.2"/>
<path class="st1" d="M1057,88.8l-0.2,0"/>
<path class="st1" d="M1052.2,88.3l0-0.2"/>
<path class="st1" d="M1052.2,88.3l4.6,0.5"/>
<path class="st1" d="M1051.9,87.9l0.2,0"/>
<path class="st1" d="M1051.9,87.9c0,0.2,0.1,0.4,0.3,0.4"/>
<path class="st1" d="M1052.1,86.3l0.2,0"/>
<path class="st1" d="M1052.1,86.3l-0.2,1.6"/>
<path class="st1" d="M1052.5,85.9l0,0.2"/>
<path class="st1" d="M1052.5,85.9c-0.2,0-0.4,0.1-0.4,0.4"/>
<path class="st1" d="M1057.1,86.4l0,0.2"/>
<path class="st1" d="M1057.1,86.4l-4.6-0.5"/>
<path class="st0" d="M1057.1,86.6c0.1,0,0.2-0.1,0.2-0.2"/>
<path class="st1" d="M1057.3,86.5l-0.2,0"/>
<path class="st0" d="M1057.3,86.5l4.1-37.4"/>
<path class="st1" d="M1057.1,86.4l4.1-37.4"/>
<path class="st1" d="M1061.3,49.1l-0.2,0"/>
<path class="st0" d="M1061.3,49.1c0-0.1-0.1-0.2-0.2-0.2c0,0,0,0,0,0"/>
<path class="st1" d="M1061.1,49.1l0-0.2"/>
<path class="st0" d="M1042,46.8l19.1,2.1"/>
<path class="st0" d="M1041.8,47L1041.8,47"/>
<path class="st1" d="M1041.8,47l19.3,2.1"/>
<path class="st0" d="M1042,46.8c-0.1,0-0.2,0.1-0.2,0.2"/>
<path class="st0" d="M1017,44.3c-0.7,6.9,4.2,13,11.1,13.8c6.9,0.7,13-4.2,13.8-11.1l0,0"/>
<path class="st0" d="M1017,44.3c0-0.1-0.1-0.2-0.2-0.2"/>
<path class="st0" d="M1054.9,108.3l2.1-19.5"/>
<path class="st1" d="M1054.7,108.3l2.1-19.5"/>
<path class="st1" d="M1054.9,108.3l-0.2,0"/>
<path class="st0" d="M1040.2,106.9l14.5,1.6"/>
<path class="st0" d="M1040,106.7c0,0.1,0.1,0.2,0.2,0.2c0,0,0,0,0,0"/>
<path class="st0" d="M1016.8,44l-14.5-1.6"/>
<path class="st1" d="M1017,44.3l-14.7-1.6"/>
<path class="st1" d="M1002.3,42.5l0,0.2"/>
<path class="st0" d="M1002,42.7l-6.4,59.3"/>
<path class="st0" d="M995.6,101.9c0,0.1,0.1,0.2,0.2,0.2c0,0,0,0,0,0"/>
<path class="st0" d="M995.8,102.1l24.1,2.6"/>
<path class="st0" d="M1019.9,104.7c0.1,0,0.2-0.1,0.2-0.2c0,0,0,0,0,0"/>
<path class="st0" d="M1020.1,104.6l2.1-19.5"/>
<path class="st0" d="M1022.4,84.9c-0.1,0-0.2,0.1-0.2,0.2"/>
<path class="st0" d="M1028,85.5l-5.6-0.6"/>
<path class="st0" d="M1028.2,85.7c0-0.1-0.1-0.2-0.2-0.2"/>
<path class="st0" d="M1028.2,85.7l-2.1,19.5"/>
<path class="st0" d="M1026.1,105.2c0,0.1,0.1,0.2,0.2,0.2c0,0,0,0,0,0"/>
<path class="st0" d="M1026.3,105.4l7.6,0.8"/>
<path class="st0" d="M1033.8,106.2c0.1,0,0.2-0.1,0.2-0.2c0,0,0,0,0,0"/>
<path class="st0" d="M1034,106.1l2.1-19.5"/>
<path class="st0" d="M1036.4,86.4c-0.1,0-0.2,0.1-0.2,0.2"/>
<path class="st1" d="M1002.3,42.7l-6.4,59.3"/>
<path class="st1" d="M995.8,101.9l24.1,2.6"/>
<path class="st1" d="M1019.9,104.5l2.1-19.5"/>
<path class="st1" d="M1022.5,84.7c-0.2,0-0.4,0.1-0.4,0.4"/>
<path class="st1" d="M1028,85.3l-5.6-0.6"/>
<path class="st1" d="M1028.4,85.7c0-0.2-0.1-0.4-0.3-0.4"/>
<path class="st1" d="M1028.4,85.7l-2.1,19.5"/>
<path class="st1" d="M1026.3,105.2l7.5,0.8"/>
<path class="st1" d="M1033.8,106l2.1-19.5"/>
<path class="st1" d="M1036.4,86.2c-0.2,0-0.4,0.1-0.4,0.4"/>
<path class="st1" d="M1041.9,86.8l-5.6-0.6"/>
<path class="st1" d="M1042.3,87.3c0-0.2-0.1-0.4-0.4-0.4c0,0,0,0,0,0"/>
<path class="st1" d="M1042.3,87.3l-2.1,19.5"/>
<path class="st1" d="M1040.2,106.7l14.5,1.6"/>
<path class="st0" d="M1042.1,87.2l-2.1,19.5"/>
<path class="st0" d="M1041.9,87l-5.6-0.6"/>
<path class="st0" d="M1042.1,87.2c0-0.1-0.1-0.2-0.2-0.2c0,0,0,0,0,0"/>
<path class="st0" d="M1054.7,108.5c0.1,0,0.2-0.1,0.2-0.2c0,0,0,0,0,0"/>
<path class="st1" d="M1054.7,108.5l0-0.2"/>
<path class="st1" d="M1040.2,106.9l0-0.2"/>
<path class="st1" d="M1040,106.7l0.2,0"/>
<path class="st1" d="M1042.1,87.2l0.2,0"/>
<path class="st1" d="M1041.9,87l0-0.2"/>
<path class="st1" d="M1036.4,86.4l0-0.2"/>
<path class="st1" d="M1036.1,86.6l-0.2,0"/>
<path class="st1" d="M1034,106.1l-0.2,0"/>
<path class="st1" d="M1033.8,106.2l0-0.2"/>
<path class="st1" d="M1026.3,105.4l0-0.2"/>
<path class="st1" d="M1026.1,105.2l0.2,0"/>
<path class="st1" d="M1028.2,85.7l0.2,0"/>
<path class="st1" d="M1028,85.5l0-0.2"/>
<path class="st1" d="M1022.4,84.9l0-0.2"/>
<path class="st1" d="M1022.2,85.1l-0.2,0"/>
<path class="st1" d="M1020.1,104.6l-0.2,0"/>
<path class="st1" d="M1019.9,104.7l0-0.2"/>
<path class="st1" d="M995.8,102.1l0-0.2"/>
<path class="st1" d="M995.6,101.9l0.2,0"/>
<path class="st1" d="M1002,42.7l0.2,0"/>
<path class="st0" d="M1002.3,42.5c-0.1,0-0.2,0.1-0.2,0.2"/>
<path d="M180.6,223.3h0.5v-1.6h1.5v-0.4H181v-1h1.8v-0.4h-2.3V223.3L180.6,223.3z M183.7,223.3h0.4v-1.5l0-0.4l0.1-0.3l0.2-0.2
	l0.3-0.1l0.2,0l0.2,0.1l0.1,0.2l0,0.2h0.4l-0.1-0.4l-0.2-0.3l-0.3-0.2l-0.4-0.1l-0.3,0l-0.2,0.1l-0.2,0.2l-0.2,0.2v-0.4h-0.4V223.3
	L183.7,223.3z M186.5,222l0.1,0.6l0.2,0.5l0.4,0.3l0.5,0.1l0.5-0.1l0.4-0.3l0.2-0.5l0.1-0.6l-0.1-0.6l-0.2-0.5l-0.4-0.3l-0.5-0.1
	l-0.5,0.1l-0.4,0.3l-0.2,0.5L186.5,222L186.5,222z M186.9,221.9l0-0.5l0.1-0.3l0.2-0.2l0.3-0.1l0.3,0.1l0.2,0.2l0.1,0.3l0.1,0.5
	l-0.1,0.5l-0.1,0.3l-0.2,0.2l-0.3,0.1l-0.3-0.1l-0.2-0.2l-0.1-0.3L186.9,221.9L186.9,221.9z M189.6,223.3h0.4v-1.6l0-0.4l0.1-0.3
	l0.2-0.2l0.3-0.1l0.2,0.1l0.2,0.1l0.1,0.2l0,0.3v1.7h0.4v-1.8l0-0.4l-0.1-0.3l-0.3-0.3l-0.5-0.1l-0.3,0l-0.2,0.1l-0.2,0.2l-0.1,0.2
	v-0.4h-0.4V223.3L189.6,223.3z M193.3,221.1v1.4l0,0.4l0.1,0.3l0.3,0.2l0.5,0.1l0.5,0V223l-0.4,0l-0.3,0l-0.2-0.1l-0.1-0.2l0-0.3
	v-1.3h1v-0.4h-1v-0.8h-0.4v0.8h-0.8v0.4H193.3L193.3,221.1z M195.2,224.1v0.4h3v-0.4H195.2L195.2,224.1z M198.8,223.3h2.2v-0.4h-1.8
	v-3.1h-0.5V223.3L198.8,223.3z M202.2,222.1h1.8l0-0.2l-0.1-0.6l-0.2-0.4l-0.4-0.3l-0.5-0.1l-0.5,0.1l-0.4,0.3l-0.2,0.5l-0.1,0.6
	l0.1,0.6l0.2,0.5l0.3,0.3l0.5,0.1l0.4-0.1l0.3-0.2l0.2-0.3l0.1-0.4h-0.4l-0.1,0.2l-0.1,0.2l-0.4,0.1l-0.3-0.1l-0.2-0.2l-0.1-0.3
	L202.2,222.1L202.2,222.1L202.2,222.1z M202.2,221.7l0.1-0.3l0.1-0.3l0.2-0.2l0.3-0.1l0.3,0.1l0.2,0.2l0.1,0.3l0,0.3H202.2
	L202.2,221.7z M205.4,221.1v2.2h0.4v-2.2h1v-0.4h-1v-0.2l0-0.2l0.1-0.1l0.2-0.1l0.3,0l0.4,0v-0.4l-0.5,0l-0.4,0l-0.3,0.1l-0.2,0.2
	l-0.1,0.3v0.2h-0.8v0.4H205.4L205.4,221.1z M208.5,221.1v1.4l0,0.4l0.1,0.3l0.3,0.2l0.5,0.1l0.5,0V223l-0.4,0l-0.3,0l-0.2-0.1
	l-0.1-0.2l0-0.3v-1.3h1v-0.4h-1v-0.8h-0.4v0.8h-0.8v0.4H208.5L208.5,221.1z M210.4,224.1v0.4h3v-0.4H210.4L210.4,224.1z M214,223.3
	h2.2v-0.4h-1.8v-3.1H214V223.3L214,223.3z M216.8,222l0.1,0.6l0.2,0.5l0.4,0.3l0.5,0.1l0.5-0.1l0.4-0.3l0.2-0.5l0.1-0.6l-0.1-0.6
	l-0.2-0.5l-0.4-0.3l-0.5-0.1l-0.5,0.1l-0.4,0.3l-0.2,0.5L216.8,222L216.8,222z M217.3,221.9l0-0.5l0.1-0.3l0.2-0.2l0.3-0.1l0.3,0.1
	l0.2,0.2l0.1,0.3l0.1,0.5l-0.1,0.5l-0.1,0.3l-0.2,0.2L218,223l-0.3-0.1l-0.2-0.2l-0.1-0.3L217.3,221.9L217.3,221.9z M220.6,223.3
	l0.4-2.3l0.4,2.3h0.4l0.7-2.7h-0.4l-0.4,2.3l-0.4-2.3h-0.4l-0.4,2.3l-0.4-2.3h-0.4l0.7,2.7H220.6L220.6,223.3z M223.4,222.1h1.8
	l0-0.2l-0.1-0.6l-0.2-0.4l-0.4-0.3l-0.5-0.1l-0.5,0.1l-0.4,0.3l-0.2,0.5l-0.1,0.6l0.1,0.6l0.2,0.5l0.3,0.3l0.5,0.1l0.4-0.1l0.3-0.2
	l0.2-0.3l0.1-0.4h-0.4l-0.1,0.2l-0.1,0.2l-0.4,0.1l-0.3-0.1l-0.2-0.2l-0.1-0.3L223.4,222.1L223.4,222.1L223.4,222.1z M223.4,221.7
	l0.1-0.3l0.1-0.3l0.2-0.2l0.3-0.1l0.3,0.1l0.2,0.2l0.1,0.3l0,0.3H223.4L223.4,221.7z M226.2,223.3h0.4v-1.5l0-0.4l0.1-0.3l0.2-0.2
	l0.3-0.1l0.2,0l0.2,0.1l0.1,0.2l0,0.2h0.4l-0.1-0.4l-0.2-0.3l-0.3-0.2l-0.4-0.1l-0.3,0l-0.2,0.1l-0.2,0.2l-0.2,0.2v-0.4h-0.4V223.3
	L226.2,223.3z M231.7,223.3h0.5l0.4-1h1.4l0.4,1h0.5l-1.3-3.5h-0.5L231.7,223.3L231.7,223.3z M232.7,221.8l0.5-1.5l0.5,1.5H232.7
	L232.7,221.8z M235.6,222.1h1.2v-0.4h-1.2V222.1L235.6,222.1z M237.7,223.3h0.5l0.4-1h1.4l0.4,1h0.5l-1.3-3.5H239L237.7,223.3
	L237.7,223.3z M238.7,221.8l0.5-1.5l0.5,1.5H238.7L238.7,221.8z M241.4,223.3h0.4v-1.5l0-0.4l0.1-0.3l0.2-0.2l0.3-0.1l0.2,0l0.2,0.1
	l0.1,0.2l0,0.2h0.4l-0.1-0.4l-0.2-0.3l-0.3-0.2l-0.4-0.1l-0.3,0l-0.2,0.1l-0.2,0.2l-0.2,0.2v-0.4h-0.4V223.3L241.4,223.3z
	 M244.1,223.3h0.4v-1.8l0-0.3l0.1-0.2l0.1-0.1l0.2,0l0.1,0l0.1,0.1l0,0.2l0,0.2v1.9h0.4v-1.8l0-0.3l0.1-0.2l0.1-0.1l0.2,0l0.1,0
	l0.1,0.1l0,0.4v1.9h0.4v-1.9l0-0.4l-0.1-0.3l-0.2-0.2l-0.3-0.1l-0.3,0.1l-0.2,0.3l-0.2-0.3l-0.3-0.1l-0.3,0.1l-0.2,0.3v-0.3h-0.4
	V223.3L244.1,223.3z M250.8,222.1h1.2v-0.4h-1.2V222.1L250.8,222.1z M256.4,223.3h0.5v-1.5h0.5l0.5,0l0.4-0.2l0.3-0.3l0.1-0.5
	l-0.1-0.4l-0.2-0.3l-0.3-0.2l-0.5-0.1h-1.2V223.3L256.4,223.3z M257.5,220.2l0.3,0l0.2,0.1l0.1,0.2l0,0.3l0,0.3l-0.1,0.2l-0.2,0.1
	l-0.3,0h-0.6v-1.2H257.5L257.5,220.2z M260.4,220.1v2.9h-0.9v0.4h2.3v-0.4h-0.9v-3.2h-1.1v0.4H260.4L260.4,220.1z M264.1,223
	L264.1,223l0,0.2l0.1,0.1l0.3,0.1l0.2,0V223l-0.1,0l-0.1-0.1l0-0.2v-1.4l-0.1-0.4l-0.2-0.3l-0.3-0.2l-0.4-0.1l-0.4,0.1l-0.3,0.2
	l-0.2,0.3l-0.1,0.4v0h0.4l0-0.2l0.1-0.2l0.2-0.1l0.3,0l0.2,0l0.2,0.1l0.1,0.1l0,0.2l0,0.2l-0.1,0.1l-0.2,0.1l-0.4,0l-0.4,0.1
	l-0.3,0.2l-0.2,0.3l-0.1,0.4l0.1,0.3l0.2,0.2l0.3,0.2l0.3,0.1l0.5-0.1L264.1,223L264.1,223z M264.1,222.4l-0.1,0.3l-0.2,0.2
	l-0.2,0.1l-0.3,0l-0.2,0l-0.1-0.1l-0.1-0.1l0-0.2l0-0.2l0.1-0.1l0.3-0.1l0.4-0.1l0.4-0.1V222.4L264.1,222.4z M267.2,221l-0.2-0.2
	l-0.2-0.2l-0.2-0.1l-0.2,0l-0.4,0.1l-0.3,0.3l-0.2,0.5l-0.1,0.6l0.1,0.6l0.2,0.5l0.3,0.3l0.4,0.1l0.2,0l0.2-0.1l0.2-0.2l0.2-0.2v1.5
	h0.4v-3.8h-0.4V221L267.2,221z M265.8,221.9l0-0.4l0.1-0.3l0.2-0.2l0.3-0.1l0.3,0.1l0.2,0.2l0.1,0.3l0.1,0.5l-0.1,0.5l-0.1,0.3
	l-0.2,0.2l-0.3,0.1l-0.3-0.1l-0.2-0.2l-0.1-0.3L265.8,221.9L265.8,221.9z M270.7,220.6h-0.4v1.6l-0.1,0.4l-0.1,0.3l-0.2,0.2
	l-0.3,0.1l-0.2,0l-0.2-0.1l-0.1-0.2l0-0.3v-1.7h-0.4v1.8l0,0.4l0.1,0.3l0.3,0.3l0.5,0.1l0.3,0l0.2-0.1l0.2-0.2l0.2-0.2v0.4h0.4
	V220.6L270.7,220.6z M272,222.1h1.8l0-0.2l-0.1-0.6l-0.2-0.4l-0.4-0.3l-0.5-0.1l-0.5,0.1l-0.4,0.3l-0.2,0.5l-0.1,0.6l0.1,0.6
	l0.2,0.5l0.3,0.3l0.5,0.1l0.4-0.1l0.3-0.2l0.2-0.3l0.1-0.4h-0.4l-0.1,0.2l-0.1,0.2l-0.4,0.1l-0.3-0.1l-0.2-0.2l-0.1-0.3L272,222.1
	L272,222.1L272,222.1z M272,221.7l0.1-0.3l0.1-0.3l0.2-0.2l0.3-0.1l0.3,0.1l0.2,0.2l0.1,0.3l0,0.3H272L272,221.7z M279.4,222.9v0.4
	h0.4v-3.6h-0.4v1.3l-0.3-0.4l-0.2-0.1l-0.2,0l-0.4,0.1l-0.3,0.3l-0.2,0.5l-0.1,0.6l0.1,0.6l0.2,0.5l0.3,0.3l0.4,0.1l0.2,0l0.2-0.1
	L279.4,222.9L279.4,222.9z M278.7,220.9l0.3,0.1l0.2,0.2l0.1,0.3l0,0.5l0,0.5l-0.1,0.3l-0.2,0.2l-0.3,0.1l-0.3-0.1l-0.2-0.2
	l-0.1-0.3l0-0.5l0-0.4l0.1-0.3l0.2-0.2L278.7,220.9L278.7,220.9z M282.8,220.6h-0.4v1.6l0,0.4l-0.1,0.3l-0.2,0.2l-0.3,0.1l-0.2,0
	l-0.2-0.1l-0.1-0.2l0-0.3v-1.7h-0.4v1.8l0,0.4l0.1,0.3l0.3,0.3l0.5,0.1l0.3,0l0.2-0.1l0.2-0.2l0.2-0.2v0.4h0.4V220.6L282.8,220.6z
	 M286.8,223.3h0.4v-1.6l0-0.4l0.1-0.3l0.2-0.2l0.3-0.1l0.2,0.1l0.2,0.1l0.1,0.2l0,0.3v1.7h0.4v-1.8l0-0.4l-0.1-0.3l-0.3-0.3
	l-0.5-0.1l-0.3,0l-0.2,0.1l-0.2,0.2l-0.1,0.2v-1.3h-0.4V223.3L286.8,223.3z M291.4,223L291.4,223l0,0.2l0.1,0.1l0.3,0.1l0.2,0V223
	l-0.1,0l-0.1-0.1l0-0.2v-1.4l-0.1-0.4l-0.2-0.3l-0.3-0.2l-0.4-0.1l-0.4,0.1l-0.3,0.2l-0.2,0.3l-0.1,0.4v0h0.4l0-0.2l0.1-0.2l0.2-0.1
	l0.3,0l0.2,0l0.2,0.1l0.1,0.1l0,0.2l0,0.2l-0.1,0.1l-0.2,0.1l-0.4,0l-0.4,0.1L290,222l-0.2,0.3l-0.1,0.4l0.1,0.3l0.2,0.2l0.3,0.2
	l0.3,0.1l0.5-0.1L291.4,223L291.4,223z M291.4,222.4l-0.1,0.3l-0.2,0.2l-0.2,0.1l-0.3,0l-0.2,0l-0.1-0.1l-0.1-0.1l0-0.2l0-0.2
	l0.1-0.1l0.3-0.1l0.4-0.1l0.4-0.1V222.4L291.4,222.4z M295,220.6h-0.4v1.6l0,0.4l-0.1,0.3l-0.2,0.2l-0.3,0.1l-0.2,0l-0.2-0.1
	l-0.1-0.2l0-0.3v-1.7h-0.4v1.8l0,0.4l0.1,0.3l0.3,0.3l0.5,0.1l0.3,0l0.2-0.1l0.2-0.2l0.2-0.2v0.4h0.4V220.6L295,220.6z M296.5,221.1
	v1.4l0,0.4l0.1,0.3l0.3,0.2l0.5,0.1l0.5,0V223l-0.4,0l-0.3,0l-0.2-0.1l-0.1-0.2l0-0.3v-1.3h1v-0.4h-1v-0.8h-0.4v0.8h-0.8v0.4H296.5
	L296.5,221.1z"/>
<path d="M592.7,218.4h0.5v-1.6h1.5v-0.4h-1.5v-1h1.8v-0.4h-2.3V218.4L592.7,218.4z M595.9,218.4h0.4v-1.5l0-0.4l0.1-0.3l0.2-0.2
	l0.3-0.1l0.2,0l0.2,0.1l0.1,0.2l0,0.2h0.4l-0.1-0.4l-0.2-0.3l-0.3-0.2l-0.4-0.1l-0.3,0l-0.2,0.1l-0.2,0.2l-0.2,0.2v-0.4h-0.4V218.4
	L595.9,218.4z M598.7,217l0.1,0.6l0.2,0.5l0.4,0.3l0.5,0.1l0.5-0.1l0.4-0.3l0.2-0.5l0.1-0.6l-0.1-0.6l-0.2-0.5l-0.4-0.3l-0.5-0.1
	l-0.5,0.1l-0.4,0.3l-0.2,0.5L598.7,217L598.7,217z M599.1,217l0-0.5l0.1-0.3l0.2-0.2l0.3-0.1l0.3,0.1l0.2,0.2l0.1,0.3l0,0.5l0,0.5
	l-0.1,0.3l-0.2,0.2l-0.3,0.1l-0.3-0.1l-0.2-0.2l-0.1-0.3L599.1,217L599.1,217z M601.8,218.4h0.4v-1.6l0-0.4l0.1-0.3l0.2-0.2l0.3-0.1
	l0.2,0l0.2,0.1l0.1,0.2l0,0.3v1.7h0.4v-1.8l0-0.4l-0.1-0.3l-0.3-0.3l-0.5-0.1l-0.3,0l-0.2,0.1l-0.2,0.2l-0.1,0.2v-0.4h-0.4V218.4
	L601.8,218.4z M605.5,216.1v1.4l0,0.4l0.1,0.3l0.3,0.2l0.5,0.1l0.5,0V218l-0.4,0l-0.3,0l-0.2-0.1l-0.1-0.2l0-0.3v-1.3h1v-0.4h-1
	v-0.8h-0.4v0.8h-0.8v0.4H605.5L605.5,216.1z M607.4,219.2v0.4h3v-0.4H607.4L607.4,219.2z M611,218.4h2.2v-0.4h-1.8v-3.1H611V218.4
	L611,218.4z M614.4,217.1h1.8l0-0.2l-0.1-0.6l-0.2-0.4l-0.4-0.3l-0.5-0.1l-0.5,0.1l-0.4,0.3l-0.2,0.5l-0.1,0.6l0.1,0.6l0.2,0.5
	l0.3,0.3l0.5,0.1l0.4-0.1l0.3-0.2l0.2-0.3l0.1-0.4h-0.4l-0.1,0.2l-0.1,0.2l-0.4,0.1l-0.3-0.1l-0.2-0.2l-0.1-0.3L614.4,217.1
	L614.4,217.1L614.4,217.1z M614.4,216.8l0.1-0.3l0.1-0.3l0.2-0.2l0.3-0.1l0.3,0.1l0.2,0.2l0.1,0.3l0,0.3H614.4L614.4,216.8z
	 M617.6,216.1v2.2h0.4v-2.2h1v-0.4h-1v-0.2l0-0.2l0.1-0.1l0.2-0.1l0.3,0l0.4,0v-0.4l-0.5,0l-0.4,0l-0.3,0.1l-0.2,0.2l-0.1,0.3v0.2
	h-0.8v0.4H617.6L617.6,216.1z M620.7,216.1v1.4l0,0.4l0.1,0.3l0.3,0.2l0.5,0.1l0.5,0V218l-0.4,0l-0.3,0l-0.2-0.1l-0.1-0.2l0-0.3
	v-1.3h1v-0.4h-1v-0.8h-0.4v0.8h-0.8v0.4H620.7L620.7,216.1z M622.6,219.2v0.4h3v-0.4H622.6L622.6,219.2z M626.2,218.4h2.2v-0.4h-1.8
	v-3.1h-0.5V218.4L626.2,218.4z M629,217l0.1,0.6l0.2,0.5l0.4,0.3l0.5,0.1l0.5-0.1l0.4-0.3l0.2-0.5l0.1-0.6l-0.1-0.6l-0.2-0.5
	l-0.4-0.3l-0.5-0.1l-0.5,0.1l-0.4,0.3l-0.2,0.5L629,217L629,217z M629.5,217l0-0.5l0.1-0.3l0.2-0.2l0.3-0.1l0.3,0.1l0.2,0.2l0.1,0.3
	l0.1,0.5l-0.1,0.5l-0.1,0.3l-0.2,0.2l-0.3,0.1l-0.3-0.1l-0.2-0.2l-0.1-0.3L629.5,217L629.5,217z M632.8,218.4l0.4-2.3l0.4,2.3h0.4
	l0.7-2.7h-0.4l-0.4,2.3l-0.4-2.3H633l-0.4,2.3l-0.4-2.3h-0.4l0.7,2.7H632.8L632.8,218.4z M635.6,217.1h1.8l0-0.2l-0.1-0.6l-0.2-0.4
	l-0.4-0.3l-0.5-0.1l-0.5,0.1l-0.4,0.3l-0.2,0.5l-0.1,0.6l0.1,0.6l0.2,0.5l0.3,0.3l0.5,0.1l0.4-0.1l0.3-0.2l0.2-0.3l0.1-0.4h-0.4
	l-0.1,0.2l-0.1,0.2l-0.4,0.1L636,218l-0.2-0.2l-0.1-0.3L635.6,217.1L635.6,217.1L635.6,217.1z M635.6,216.8l0.1-0.3l0.1-0.3l0.2-0.2
	l0.3-0.1l0.3,0.1l0.2,0.2l0.1,0.3l0,0.3H635.6L635.6,216.8z M638.4,218.4h0.4v-1.5l0-0.4l0.1-0.3l0.2-0.2l0.3-0.1l0.2,0l0.2,0.1
	l0.1,0.2l0,0.2h0.4l-0.1-0.4l-0.2-0.3l-0.3-0.2l-0.4-0.1l-0.3,0l-0.2,0.1l-0.2,0.2l-0.2,0.2v-0.4h-0.4V218.4L638.4,218.4z
	 M643.9,218.4h0.5l0.4-1h1.4l0.4,1h0.5l-1.3-3.5h-0.5L643.9,218.4L643.9,218.4z M644.9,216.9l0.5-1.5l0.5,1.5H644.9L644.9,216.9z
	 M647.8,217.2h1.2v-0.4h-1.2V217.2L647.8,217.2z M649.9,218.4h0.5l0.4-1h1.4l0.4,1h0.5l-1.3-3.5h-0.5L649.9,218.4L649.9,218.4z
	 M650.9,216.9l0.5-1.5l0.5,1.5H650.9L650.9,216.9z M653.6,218.4h0.4v-1.5l0-0.4l0.1-0.3l0.2-0.2l0.3-0.1l0.2,0l0.2,0.1l0.1,0.2
	l0,0.2h0.4l-0.1-0.4l-0.2-0.3l-0.3-0.2l-0.4-0.1l-0.3,0l-0.2,0.1l-0.2,0.2l-0.2,0.2v-0.4h-0.4V218.4L653.6,218.4z M656.3,218.4h0.4
	v-1.8l0-0.3l0.1-0.2l0.1-0.1l0.2,0l0.1,0l0.1,0.1l0,0.2l0,0.2v1.9h0.4v-1.8l0-0.3l0.1-0.2l0.1-0.1l0.2,0l0.1,0l0.1,0.1l0.1,0.4v1.9
	h0.4v-1.9l0-0.4l-0.1-0.3l-0.2-0.2l-0.3-0.1l-0.3,0.1l-0.2,0.3l-0.2-0.3l-0.3-0.1l-0.3,0.1l-0.2,0.3v-0.3h-0.4V218.4L656.3,218.4z
	 M663,217.2h1.2v-0.4H663V217.2L663,217.2z M668.6,218.4h0.5v-1.5h0.5l0.5,0l0.4-0.2l0.3-0.3l0.1-0.5l-0.1-0.4l-0.2-0.3l-0.3-0.2
	l-0.5-0.1h-1.2V218.4L668.6,218.4z M669.7,215.3l0.3,0l0.2,0.1l0.1,0.2l0,0.3l-0.1,0.3l-0.1,0.2l-0.2,0.1l-0.3,0h-0.6v-1.2H669.7
	L669.7,215.3z M672.6,215.1v2.9h-0.9v0.4h2.3V218H673v-3.2h-1.1v0.4H672.6L672.6,215.1z M676.3,218L676.3,218l0,0.2l0.1,0.1l0.3,0.1
	l0.2,0V218l-0.1,0l-0.1-0.1l0-0.2v-1.4l-0.1-0.4l-0.2-0.3l-0.3-0.2l-0.4-0.1l-0.4,0.1l-0.3,0.2l-0.2,0.3l-0.1,0.4v0h0.4l0-0.2
	l0.1-0.2l0.2-0.1l0.3,0l0.2,0l0.2,0.1l0.1,0.1l0,0.2l0,0.2l-0.1,0.1l-0.2,0.1l-0.4,0l-0.4,0.1l-0.3,0.2l-0.2,0.3l-0.1,0.4l0,0.3
	l0.2,0.2l0.3,0.2l0.3,0.1l0.5-0.1L676.3,218L676.3,218z M676.3,217.4l-0.1,0.3l-0.2,0.2l-0.2,0.1l-0.3,0l-0.2,0l-0.1-0.1l-0.1-0.1
	l0-0.2l0-0.2l0.1-0.1l0.3-0.1l0.4-0.1l0.4-0.1V217.4L676.3,217.4z M679.4,216.1l-0.2-0.2l-0.2-0.2l-0.2-0.1l-0.2,0l-0.4,0.1
	l-0.3,0.3l-0.2,0.5l-0.1,0.6l0.1,0.6l0.2,0.5l0.3,0.3l0.4,0.1l0.2,0l0.2-0.1l0.2-0.2l0.2-0.2v1.5h0.4v-3.8h-0.4V216.1L679.4,216.1z
	 M678,217l0-0.4l0.1-0.3l0.2-0.2l0.3-0.1l0.3,0.1l0.2,0.2l0.1,0.3l0.1,0.5l-0.1,0.5l-0.1,0.3L679,218l-0.3,0.1l-0.3-0.1l-0.2-0.2
	l-0.1-0.3L678,217L678,217z M682.9,215.6h-0.4v1.6l-0.1,0.4l-0.1,0.3L682,218l-0.3,0.1l-0.2,0l-0.2-0.1l-0.1-0.2l0-0.3v-1.7h-0.4
	v1.8l0,0.4l0.1,0.3l0.3,0.3l0.5,0.1l0.3,0l0.2-0.1l0.2-0.2l0.2-0.2v0.4h0.4V215.6L682.9,215.6z M684.2,217.1h1.8l0-0.2l-0.1-0.6
	l-0.2-0.4l-0.4-0.3l-0.5-0.1l-0.5,0.1l-0.4,0.3l-0.2,0.5l-0.1,0.6l0.1,0.6l0.2,0.5l0.3,0.3l0.5,0.1l0.4-0.1l0.3-0.2l0.2-0.3l0.1-0.4
	h-0.4l-0.1,0.2l-0.1,0.2l-0.4,0.1l-0.3-0.1l-0.2-0.2l-0.1-0.3L684.2,217.1L684.2,217.1L684.2,217.1z M684.2,216.8l0.1-0.3l0.1-0.3
	l0.2-0.2l0.3-0.1l0.3,0.1l0.2,0.2l0.1,0.3l0,0.3H684.2L684.2,216.8z M691.6,217.9v0.4h0.4v-3.6h-0.4v1.3l-0.3-0.4l-0.2-0.1l-0.2,0
	l-0.4,0.1l-0.3,0.3l-0.2,0.5l-0.1,0.6l0.1,0.6l0.2,0.5l0.3,0.3l0.4,0.1l0.2,0l0.2-0.1L691.6,217.9L691.6,217.9z M690.9,215.9
	l0.3,0.1l0.2,0.2l0.1,0.3l0.1,0.5l-0.1,0.5l-0.1,0.3l-0.2,0.2l-0.3,0.1l-0.3-0.1l-0.2-0.2l-0.1-0.3l0-0.5l0-0.4l0.1-0.3l0.2-0.2
	L690.9,215.9L690.9,215.9z M695,215.6h-0.4v1.6l-0.1,0.4l-0.1,0.3l-0.2,0.2l-0.3,0.1l-0.2,0l-0.2-0.1l-0.1-0.2l0-0.3v-1.7h-0.4v1.8
	l0,0.4l0.1,0.3l0.3,0.3l0.5,0.1l0.3,0l0.2-0.1l0.2-0.2l0.2-0.2v0.4h0.4V215.6L695,215.6z M700.7,216.5l0.4-0.3l0.1-0.2l0-0.2
	l-0.1-0.4l-0.2-0.3l-0.3-0.2l-0.4-0.1h-1.2v3.5h1.3l0.5-0.1l0.3-0.2l0.2-0.3l0.1-0.4l0-0.3l-0.1-0.2l-0.2-0.2L700.7,216.5
	L700.7,216.5z M700,216.3h-0.7v-1h0.7l0.3,0l0.2,0.1l0.1,0.2l0,0.2l0,0.2l-0.1,0.2l-0.2,0.1L700,216.3L700,216.3z M700.1,217.9h-0.8
	v-1.2h0.8l0.3,0l0.2,0.1l0.1,0.2l0,0.3l0,0.3l-0.1,0.2l-0.2,0.1L700.1,217.9L700.1,217.9z M703.6,218L703.6,218l0,0.2l0.1,0.1
	l0.3,0.1l0.2,0V218l-0.1,0l-0.1-0.1l0-0.2v-1.4L704,216l-0.2-0.3l-0.3-0.2l-0.4-0.1l-0.4,0.1l-0.3,0.2l-0.2,0.3l-0.1,0.4v0h0.4
	l0-0.2l0.1-0.2l0.2-0.1l0.3,0l0.2,0l0.2,0.1l0.1,0.1l0,0.2l0,0.2l-0.1,0.1l-0.2,0.1l-0.4,0l-0.4,0.1l-0.3,0.2l-0.2,0.3l-0.1,0.4
	l0,0.3l0.2,0.2l0.3,0.2l0.3,0.1l0.5-0.1L703.6,218L703.6,218z M703.6,217.4l-0.1,0.3l-0.2,0.2l-0.2,0.1l-0.3,0l-0.2,0l-0.1-0.1
	l-0.1-0.1l0-0.2l0-0.2l0.1-0.1l0.3-0.1l0.4-0.1l0.4-0.1V217.4L703.6,217.4z M706.4,216.8l-0.4-0.1l-0.3-0.1l-0.1-0.2l0-0.2l0.1-0.1
	l0.2-0.1l0.2,0l0.2,0l0.2,0.1l0.1,0.1l0.1,0.2h0.4v0l-0.1-0.3l-0.2-0.3l-0.3-0.2l-0.4-0.1l-0.4,0.1l-0.3,0.2l-0.2,0.2l-0.1,0.3
	l0,0.3l0.1,0.2l0.2,0.2l0.3,0.1l0.5,0.1l0.3,0.1l0.1,0.1l0,0.2l0,0.2l-0.1,0.1l-0.2,0.1l-0.3,0l-0.3,0l-0.2-0.1l-0.1-0.2l-0.1-0.2
	H705l0.1,0.4l0.2,0.3l0.3,0.2l0.5,0.1l0.5-0.1l0.3-0.2l0.2-0.3l0.1-0.4l-0.1-0.3L707,217l-0.3-0.1L706.4,216.8L706.4,216.8z"/>
<path d="M887.7,70.3h1.6V70h-1.3v-2.2h-0.3V70.3L887.7,70.3z M890.2,69.4h1.3l0-0.1l-0.1-0.4l-0.2-0.3l-0.3-0.2l-0.3-0.1l-0.3,0.1
	l-0.3,0.2l-0.2,0.3l-0.1,0.4l0.1,0.4l0.2,0.3l0.2,0.2l0.3,0.1l0.3,0l0.2-0.1l0.2-0.2l0.1-0.3h-0.3l-0.1,0.1l-0.1,0.1l-0.3,0.1
	l-0.2,0l-0.2-0.1l-0.1-0.2L890.2,69.4L890.2,69.4L890.2,69.4z M890.2,69.2l0-0.2l0.1-0.2l0.1-0.1l0.2,0l0.2,0l0.1,0.1l0.1,0.2l0,0.2
	H890.2L890.2,69.2z M892.5,68.7v1.6h0.3v-1.6h0.7v-0.3h-0.7v-0.1l0-0.1l0.1-0.1l0.1-0.1l0.2,0l0.3,0v-0.3l-0.3,0l-0.3,0l-0.2,0.1
	l-0.1,0.2l0,0.2v0.2h-0.6v0.3H892.5L892.5,68.7z M894.6,68.7v1l0,0.3l0.1,0.2l0.2,0.1l0.3,0l0.4,0v-0.3l-0.3,0l-0.2,0L895,70
	l-0.1-0.2l0-0.2v-0.9h0.7v-0.3H895v-0.6h-0.3v0.6h-0.5v0.3H894.6L894.6,68.7z M896,70.9v0.3h2.2v-0.3H896L896,70.9z M898.6,70.3h0.3
	v-1.1h1.1v-0.3h-1.1v-0.7h1.3v-0.3h-1.6V70.3L898.6,70.3z M900.8,70.3h0.3v-1.1l0-0.3l0.1-0.2l0.2-0.1l0.2,0l0.2,0l0.1,0.1l0.1,0.1
	l0,0.2h0.3l0-0.3l-0.1-0.2l-0.2-0.1l-0.3,0l-0.2,0l-0.2,0.1l-0.1,0.1l-0.1,0.2v-0.3h-0.3V70.3L900.8,70.3z M902.8,69.3l0.1,0.4
	l0.2,0.3l0.3,0.2l0.4,0.1l0.3-0.1l0.3-0.2l0.2-0.3l0.1-0.4l-0.1-0.4l-0.2-0.3l-0.3-0.2l-0.3-0.1l-0.4,0.1l-0.3,0.2l-0.2,0.3
	L902.8,69.3L902.8,69.3z M903.1,69.3l0-0.3l0.1-0.2l0.2-0.1l0.2-0.1l0.2,0.1l0.2,0.1l0.1,0.2l0,0.3l0,0.3l-0.1,0.2l-0.2,0.1l-0.2,0
	l-0.2,0l-0.2-0.1l-0.1-0.2L903.1,69.3L903.1,69.3z M905.1,70.3h0.3v-1.1l0-0.3l0.1-0.2l0.2-0.1l0.2,0l0.2,0l0.1,0.1l0.1,0.2l0,0.2
	v1.2h0.3V69l0-0.3l-0.1-0.2l-0.2-0.2l-0.3-0.1l-0.2,0l-0.2,0.1l-0.1,0.1l-0.1,0.2v-0.3h-0.3V70.3L905.1,70.3z M907.7,68.7v1l0,0.3
	l0.1,0.2l0.2,0.1l0.3,0l0.4,0v-0.3l-0.3,0l-0.2,0L908,70l-0.1-0.2l0-0.2v-0.9h0.7v-0.3H908v-0.6h-0.3v0.6h-0.5v0.3H907.7L907.7,68.7
	z M909.1,70.9v0.3h2.2v-0.3H909.1L909.1,70.9z M911.6,70.3h1.6V70h-1.3v-2.2h-0.3V70.3L911.6,70.3z M913.6,69.3l0.1,0.4l0.2,0.3
	l0.3,0.2l0.4,0.1l0.3-0.1l0.3-0.2l0.2-0.3l0.1-0.4l-0.1-0.4l-0.2-0.3l-0.3-0.2l-0.3-0.1l-0.4,0.1l-0.3,0.2l-0.2,0.3L913.6,69.3
	L913.6,69.3z M914,69.3l0-0.3l0.1-0.2l0.2-0.1l0.2-0.1l0.2,0.1l0.2,0.1L915,69l0,0.3l0,0.3l-0.1,0.2l-0.2,0.1l-0.2,0l-0.2,0
	l-0.2-0.1l-0.1-0.2L914,69.3L914,69.3z M916.4,70.3l0.3-1.6l0.3,1.6h0.3l0.5-1.9h-0.3l-0.3,1.6l-0.3-1.6h-0.3l-0.3,1.6l-0.3-1.6
	h-0.3l0.5,1.9H916.4L916.4,70.3z M918.4,69.4h1.3l0-0.1l-0.1-0.4l-0.2-0.3l-0.3-0.2l-0.3-0.1l-0.3,0.1l-0.3,0.2l-0.2,0.3l-0.1,0.4
	l0.1,0.4l0.2,0.3l0.2,0.2l0.3,0.1l0.3,0l0.2-0.1l0.2-0.2l0.1-0.3h-0.3l-0.1,0.1l-0.1,0.1l-0.3,0.1l-0.2,0l-0.2-0.1l-0.1-0.2
	L918.4,69.4L918.4,69.4L918.4,69.4z M918.4,69.2l0-0.2l0.1-0.2l0.1-0.1l0.2,0l0.2,0l0.1,0.1l0.1,0.2l0,0.2H918.4L918.4,69.2z
	 M920.4,70.3h0.3v-1.1l0-0.3l0.1-0.2l0.2-0.1l0.2,0l0.2,0l0.1,0.1l0.1,0.1l0,0.2h0.3l0-0.3l-0.1-0.2l-0.2-0.1l-0.3,0l-0.2,0
	l-0.2,0.1l-0.1,0.1l-0.1,0.2v-0.3h-0.3V70.3L920.4,70.3z M924.2,70.3h0.3l0.3-0.7h1l0.3,0.7h0.3l-0.9-2.5h-0.4L924.2,70.3
	L924.2,70.3z M924.9,69.3l0.4-1.1l0.4,1.1H924.9L924.9,69.3z M927.1,69.5h0.9v-0.3h-0.9V69.5L927.1,69.5z M928.6,70.3h0.3l0.3-0.7h1
	l0.3,0.7h0.3l-0.9-2.5h-0.4L928.6,70.3L928.6,70.3z M929.3,69.3l0.4-1.1l0.4,1.1H929.3L929.3,69.3z M931.2,70.3h0.3v-1.1l0-0.3
	l0.1-0.2l0.2-0.1l0.2,0l0.2,0l0.1,0.1l0.1,0.1l0,0.2h0.3l0-0.3l-0.1-0.2l-0.2-0.1l-0.3,0l-0.2,0l-0.2,0.1l-0.1,0.1l-0.1,0.2v-0.3
	h-0.3V70.3L931.2,70.3z M933.1,70.3h0.3V69l0-0.2l0.1-0.1l0.1-0.1l0.1,0l0.1,0l0.1,0.1l0,0.1l0,0.2v1.4h0.3V69l0-0.2l0.1-0.1
	l0.1-0.1l0.1,0l0.1,0l0.1,0.1l0,0.3v1.4h0.3V69l0-0.3l-0.1-0.2l-0.1-0.1l-0.2,0l-0.2,0.1l-0.2,0.2l-0.1-0.2l-0.2-0.1l-0.2,0.1
	l-0.1,0.2v-0.2h-0.3V70.3L933.1,70.3z"/>
<path d="M904,74.6h1.6v-0.3h-1.3v-0.8h1.1v-0.3h-1.1v-0.7h1.2v-0.3H904V74.6L904,74.6z M908,74.6h0.3l0.3-0.7h1l0.3,0.7h0.3
	l-0.9-2.5h-0.4L908,74.6L908,74.6z M908.7,73.6l0.4-1.1l0.4,1.1H908.7L908.7,73.6z M911.1,74.6h0.3l0.7-1.9h-0.3l-0.5,1.6l-0.6-1.6
	h-0.3L911.1,74.6L911.1,74.6z M913.8,74.4L913.8,74.4l0,0.1l0.1,0.1l0.2,0.1l0.2,0v-0.2l-0.1,0l-0.1,0l0-0.1v-1l0-0.3l-0.1-0.2
	l-0.2-0.1l-0.3,0l-0.3,0l-0.2,0.1l-0.1,0.2l0,0.3v0h0.3l0-0.2l0.1-0.1l0.1-0.1l0.2,0l0.2,0l0.1,0.1l0.1,0.1l0,0.1l0,0.2l-0.1,0.1
	l-0.1,0l-0.3,0l-0.3,0.1l-0.2,0.1l-0.1,0.2l0,0.3l0,0.2l0.1,0.2l0.2,0.1l0.2,0l0.3-0.1L913.8,74.4L913.8,74.4z M913.8,74l0,0.2
	l-0.1,0.1l-0.2,0.1l-0.2,0l-0.1,0l-0.1-0.1l-0.1-0.1l0-0.1l0-0.1l0.1-0.1l0.2-0.1l0.3,0l0.3-0.1V74L913.8,74z M914.8,74.6h0.3v-1.1
	l0-0.3l0.1-0.2l0.2-0.1l0.2,0l0.2,0l0.1,0.1l0.1,0.2l0,0.2v1.2h0.3v-1.3l0-0.3l-0.1-0.2l-0.2-0.2l-0.3-0.1l-0.2,0l-0.2,0.1l-0.1,0.1
	l-0.1,0.2v-0.3h-0.3V74.6L914.8,74.6z M917.4,73v1l0,0.3l0.1,0.2l0.2,0.1l0.3,0l0.4,0v-0.3l-0.3,0l-0.2,0l-0.1-0.1l-0.1-0.2l0-0.2
	V73h0.7v-0.3h-0.7v-0.6h-0.3v0.6h-0.5V73H917.4L917.4,73z"/>
<path d="M1003.7,69.4h1.6v-0.3h-1.3v-2.2h-0.3V69.4L1003.7,69.4z M1006.2,68.6h1.3l0-0.1l-0.1-0.4l-0.2-0.3l-0.3-0.2l-0.3-0.1
	l-0.3,0.1l-0.3,0.2l-0.2,0.3l-0.1,0.4l0.1,0.4l0.2,0.3l0.3,0.2l0.3,0.1l0.3,0l0.2-0.1l0.2-0.2l0.1-0.3h-0.3L1007,69l-0.1,0.1
	l-0.3,0.1l-0.2,0l-0.2-0.1l-0.1-0.2L1006.2,68.6L1006.2,68.6L1006.2,68.6z M1006.2,68.3l0-0.2l0.1-0.2l0.2-0.1l0.2,0l0.2,0l0.1,0.1
	l0.1,0.2l0,0.2H1006.2L1006.2,68.3z M1008.5,67.8v1.6h0.3v-1.6h0.7v-0.3h-0.7v-0.1l0-0.1l0.1-0.1l0.1-0.1l0.2,0l0.3,0v-0.3l-0.3,0
	l-0.3,0l-0.2,0.1l-0.1,0.2l0,0.2v0.2h-0.6v0.3H1008.5L1008.5,67.8z M1010.6,67.8v1l0,0.3l0.1,0.2l0.2,0.1l0.3,0l0.4,0v-0.3l-0.3,0
	l-0.3,0l-0.1-0.1L1011,69l0-0.2v-0.9h0.7v-0.3h-0.7V67h-0.3v0.6h-0.5v0.3H1010.6L1010.6,67.8z M1012,70v0.3h2.2V70H1012L1012,70z
	 M1014.6,69.4h0.3v-1.1h1V68h-1v-0.7h1.3v-0.3h-1.6V69.4L1014.6,69.4z M1016.8,69.4h0.3v-1.1l0-0.3l0.1-0.2l0.2-0.1l0.2,0l0.2,0
	l0.1,0.1l0.1,0.1l0,0.2h0.3l0-0.3l-0.1-0.2l-0.2-0.1l-0.3,0l-0.2,0l-0.2,0.1l-0.1,0.1l-0.1,0.2v-0.3h-0.3V69.4L1016.8,69.4z
	 M1018.8,68.5l0.1,0.4l0.2,0.3l0.3,0.2l0.3,0.1l0.3-0.1l0.3-0.2l0.2-0.3l0.1-0.4l-0.1-0.4l-0.2-0.3l-0.3-0.2l-0.3-0.1l-0.3,0.1
	l-0.3,0.2l-0.2,0.3L1018.8,68.5L1018.8,68.5z M1019.1,68.5l0-0.3l0.1-0.2l0.2-0.1l0.2-0.1l0.2,0.1l0.2,0.1l0.1,0.2l0,0.3l0,0.3
	L1020,69l-0.2,0.1l-0.2,0l-0.2,0l-0.2-0.1l-0.1-0.2L1019.1,68.5L1019.1,68.5z M1021.1,69.4h0.3v-1.1l0-0.3l0.1-0.2l0.2-0.1l0.2,0
	l0.2,0l0.1,0.1l0,0.2l0,0.2v1.2h0.3v-1.3l0-0.3l-0.1-0.2l-0.2-0.2l-0.3-0.1l-0.2,0l-0.2,0.1l-0.1,0.1l-0.1,0.2v-0.3h-0.3V69.4
	L1021.1,69.4z M1023.7,67.8v1l0,0.3l0.1,0.2l0.2,0.1l0.3,0l0.4,0v-0.3l-0.3,0l-0.3,0l-0.1-0.1L1024,69l0-0.2v-0.9h0.7v-0.3h-0.7V67
	h-0.3v0.6h-0.6v0.3H1023.7L1023.7,67.8z M1025.1,70v0.3h2.2V70H1025.1L1025.1,70z M1027.6,69.4h1.6v-0.3h-1.3v-2.2h-0.3V69.4
	L1027.6,69.4z M1029.6,68.5l0,0.4l0.2,0.3l0.3,0.2l0.4,0.1l0.3-0.1l0.3-0.2l0.2-0.3l0.1-0.4l-0.1-0.4l-0.2-0.3l-0.3-0.2l-0.3-0.1
	l-0.4,0.1l-0.3,0.2l-0.2,0.3L1029.6,68.5L1029.6,68.5z M1030,68.5l0-0.3l0.1-0.2l0.2-0.1l0.2-0.1l0.2,0.1l0.2,0.1l0.1,0.2l0,0.3
	l0,0.3l-0.1,0.2l-0.2,0.1l-0.2,0l-0.2,0l-0.2-0.1l-0.1-0.2L1030,68.5L1030,68.5z M1032.4,69.4l0.3-1.6l0.3,1.6h0.3l0.5-1.9h-0.3
	l-0.3,1.6l-0.3-1.6h-0.3l-0.3,1.6l-0.3-1.6h-0.3l0.5,1.9H1032.4L1032.4,69.4z M1034.3,68.6h1.3l0-0.1l-0.1-0.4l-0.2-0.3l-0.3-0.2
	l-0.3-0.1l-0.3,0.1l-0.3,0.2l-0.2,0.3l-0.1,0.4l0.1,0.4l0.2,0.3l0.3,0.2l0.3,0.1l0.3,0l0.2-0.1l0.2-0.2l0.1-0.3h-0.3l-0.1,0.1
	l-0.1,0.1l-0.3,0.1l-0.2,0l-0.2-0.1l-0.1-0.2L1034.3,68.6L1034.3,68.6L1034.3,68.6z M1034.3,68.3l0-0.2l0.1-0.2l0.2-0.1l0.2,0l0.2,0
	l0.1,0.1l0.1,0.2l0,0.2H1034.3L1034.3,68.3z M1036.4,69.4h0.3v-1.1l0-0.3l0.1-0.2l0.2-0.1l0.2,0l0.2,0l0.1,0.1l0.1,0.1l0,0.2h0.3
	l0-0.3l-0.1-0.2l-0.2-0.1l-0.3,0l-0.2,0l-0.2,0.1l-0.1,0.1l-0.1,0.2v-0.3h-0.3V69.4L1036.4,69.4z M1040.2,69.4h0.3l0.3-0.7h1
	l0.3,0.7h0.3l-0.9-2.5h-0.4L1040.2,69.4L1040.2,69.4z M1040.9,68.4l0.4-1.1l0.4,1.1H1040.9L1040.9,68.4z M1043.1,68.6h0.9v-0.3h-0.9
	V68.6L1043.1,68.6z M1044.6,69.4h0.3l0.3-0.7h1l0.3,0.7h0.3l-0.9-2.5h-0.4L1044.6,69.4L1044.6,69.4z M1045.3,68.4l0.4-1.1l0.4,1.1
	H1045.3L1045.3,68.4z M1047.2,69.4h0.3v-1.1l0-0.3l0.1-0.2l0.2-0.1l0.2,0l0.2,0l0.1,0.1l0.1,0.1l0,0.2h0.3l0-0.3l-0.1-0.2l-0.2-0.1
	l-0.3,0l-0.2,0l-0.2,0.1l-0.1,0.1l-0.1,0.2v-0.3h-0.3V69.4L1047.2,69.4z M1049.1,69.4h0.3v-1.3l0-0.2l0.1-0.1l0.1-0.1l0.1,0l0.1,0
	l0.1,0.1l0,0.1l0,0.2v1.4h0.3v-1.3l0-0.2l0.1-0.1l0.1-0.1l0.1,0l0.1,0l0.1,0.1l0,0.3v1.4h0.3v-1.3l0-0.3l0-0.2l-0.1-0.1l-0.2,0
	l-0.2,0.1l-0.2,0.2l-0.1-0.2l-0.2-0.1l-0.2,0.1l-0.1,0.2v-0.2h-0.3V69.4L1049.1,69.4z"/>
<path d="M1017.8,73.8h1.6v-0.3h-1.3v-0.8h1.1v-0.3h-1.1v-0.7h1.2v-0.3h-1.6V73.8L1017.8,73.8z M1019.6,74.4v0.3h2.2v-0.3H1019.6
	L1019.6,74.4z M1021.8,73.8h0.3l0.3-0.7h1l0.3,0.7h0.3l-0.9-2.5h-0.4L1021.8,73.8L1021.8,73.8z M1022.5,72.7l0.4-1.1l0.4,1.1H1022.5
	L1022.5,72.7z M1024.4,73.8h0.3v-1.1l0-0.3l0.1-0.2l0.2-0.1l0.2,0l0.2,0l0.1,0.1l0.1,0.1l0,0.2h0.3l0-0.3l-0.1-0.2l-0.2-0.1l-0.3,0
	l-0.2,0l-0.2,0.1l-0.1,0.1l-0.1,0.2v-0.3h-0.3V73.8L1024.4,73.8z M1026.6,73.8h0.3v-1.1l0-0.3l0.1-0.2l0.2-0.1l0.2,0l0.2,0l0.1,0.1
	l0.1,0.1l0,0.2h0.3l0-0.3l-0.1-0.2l-0.2-0.1l-0.3,0l-0.2,0l-0.2,0.1L1027,72l-0.1,0.2v-0.3h-0.3V73.8L1026.6,73.8z M1029.6,73.5
	v-1.6h-0.8v0.3h0.5v1.3h-0.7v0.3h1.6v-0.3H1029.6L1029.6,73.5z M1029.6,71.2h-0.3v0.4h0.3V71.2L1029.6,71.2z M1031.8,71.6l-0.4-0.6
	h-0.4l0.5,0.6H1031.8L1031.8,71.6z M1031.1,72.9h1.3v-0.1l0-0.4l-0.2-0.3l-0.3-0.2l-0.3-0.1l-0.3,0.1L1031,72l-0.2,0.3l-0.1,0.4
	l0.1,0.4l0.2,0.3l0.3,0.2l0.3,0.1l0.3,0l0.2-0.1l0.2-0.2l0.1-0.3h-0.3l-0.1,0.1l-0.1,0.1l-0.3,0.1l-0.2,0l-0.2-0.1l-0.1-0.2
	L1031.1,72.9L1031.1,72.9L1031.1,72.9z M1031.1,72.6l0-0.2l0.1-0.2l0.2-0.1l0.2,0l0.2,0l0.2,0.1l0.1,0.2l0,0.2H1031.1L1031.1,72.6z
	 M1033.1,73.8h0.3v-1.1l0-0.3l0.1-0.2l0.2-0.1l0.2,0l0.2,0l0.1,0.1l0.1,0.1l0,0.2h0.3l-0.1-0.3l-0.1-0.2l-0.2-0.1l-0.3,0l-0.2,0
	l-0.2,0.1l-0.1,0.1l-0.1,0.2v-0.3h-0.3V73.8L1033.1,73.8z M1035.4,72.9h1.3v-0.1l-0.1-0.4l-0.2-0.3l-0.3-0.2l-0.3-0.1l-0.3,0.1
	l-0.3,0.2l-0.2,0.3l-0.1,0.4l0.1,0.4l0.2,0.3l0.3,0.2l0.3,0.1l0.3,0l0.2-0.1l0.2-0.2l0.1-0.3h-0.3l-0.1,0.1l-0.1,0.1l-0.3,0.1
	l-0.2,0l-0.2-0.1l-0.1-0.2L1035.4,72.9L1035.4,72.9L1035.4,72.9z M1035.4,72.6l0-0.2l0.1-0.2l0.1-0.1l0.2,0l0.2,0l0.2,0.1l0.1,0.2
	l0,0.2H1035.4L1035.4,72.6z"/>
</svg>
