<?xml version="1.0" encoding="utf-8" ?><!DOCTYPE svg PUBLIC "-//W3C//DTD SVG 1.1//EN" "http://www.w3.org/Graphics/SVG/1.1/DTD/svg11.dtd" 
[ <!ATTLIST svg 
  xmlns:dsy CDATA #FIXED "http://www.3ds.com/print"  
    dsy:text-version CDATA #IMPLIED > 

  <!ATTLIST text 
  xmlns:dsy CDATA #FIXED "http://www.3ds.com/print" 
    dsy:text-version CDATA #IMPLIED > 
]><svg xmlns="http://www.w3.org/2000/svg" xmlns:dsy="http://www.3ds.com/print" dsy:text-version="18000" width="1189" height="841" viewBox="0 0 1189 841" version="1.1"><g stroke="rgb(0, 0, 0)" stroke-width="0.35" stroke-linecap="butt" stroke-linejoin="miter" fill="none"><path d="M 93.0904 476.406 A 14 14 0 0 0 117.595 485.618"/><path d="M 92.1078 152.442 L 93.0904 476.406"/><path d="M 118.517 162.164 L 92.1078 152.442"/><path d="M 120.245 157.472 L 118.517 162.164"/><path d="M 92.0916 147.108 L 120.245 157.472"/><path d="M 91.7816 44.8871 L 92.0916 147.108"/><path d="M 107.927 33.5895 A 12 12 0 0 0 91.7816 44.887"/><path d="M 169.239 56.1599 L 107.927 33.5895"/><path d="M 162.329 74.9285 L 169.239 56.1599"/><path d="M 167.866 76.9667 L 162.329 74.9285"/><path d="M 174.775 58.1981 L 167.866 76.9667"/><path d="M 337.652 118.157 L 174.775 58.1981"/><path d="M 330.742 136.926 L 337.652 118.157"/><path d="M 336.279 138.964 L 330.742 136.926"/><path d="M 343.188 120.195 L 336.279 138.964"/><path d="M 343.188 120.195 L 399.494 140.923"/><path d="M 404.353 160.117 A 12 12 0 0 0 399.494 140.923"/><path d="M 117.595 485.618 L 404.353 160.117"/><circle cx="390.317" cy="150.332" r="3.2"/><circle cx="108.787" cy="46.6934" r="3.2"/><circle cx="110.066" cy="468.447" r="3.2"/><circle cx="161.213" cy="332.394" r="6"/><circle cx="192.883" cy="248.148" r="3.2"/><path d="M 256.978 165.182 L 255.25 169.875"/><path d="M 256.978 165.182 L 238.209 158.273"/><path d="M 236.482 162.965 L 238.209 158.273"/><path d="M 236.482 162.965 L 255.25 169.875"/><path d="M 241.663 148.889 L 239.936 153.581"/><path d="M 258.705 160.49 L 239.936 153.581"/><path d="M 258.705 160.49 L 260.432 155.798"/><path d="M 241.663 148.889 L 260.432 155.798"/><path d="M 101.839 47.5433 L 100.625 37.6172"/><path d="M 100.625 37.6172 L 99.6322 37.7386"/><path d="M 99.6322 37.7386 L 100.846 47.6647"/><path d="M 100.846 47.6647 L 101.839 47.5433"/><path d="M 115.74 47.5011 L 116.734 47.6165"/><path d="M 116.734 47.6165 L 117.772 38.6766"/><path d="M 117.772 38.6766 L 116.779 38.5612"/><path d="M 115.74 47.5011 L 116.779 38.5612"/><path d="M 395.526 156.404 L 394.875 155.645"/><path d="M 403.116 149.894 L 395.526 156.404"/><path d="M 402.465 149.135 L 403.116 149.894"/><path d="M 394.875 155.645 L 402.465 149.135"/><path d="M 384.472 146.481 L 389.423 138.965"/><path d="M 388.588 138.415 L 389.423 138.965"/><path d="M 383.637 145.931 L 388.588 138.415"/><path d="M 384.472 146.481 L 383.637 145.931"/><path d="M 213.511 138.525 L 210.056 147.909"/><path d="M 210.056 147.909 A 5 5 0 1 0 219.44 151.364"/><path d="M 219.44 151.364 L 222.895 141.98"/><path d="M 222.895 141.98 A 5 5 0 0 0 213.51 138.525"/><path d="M 515.286 471.457 A 14 14 0 0 0 539.791 480.669"/><path d="M 514.304 147.493 L 515.286 471.457"/><path d="M 540.713 157.215 L 514.304 147.493"/><path d="M 542.441 152.523 L 540.713 157.215"/><path d="M 514.288 142.159 L 542.441 152.523"/><path d="M 513.977 39.9382 L 514.288 142.159"/><path d="M 530.123 28.6407 A 12 12 0 0 0 513.978 39.9382"/><path d="M 591.435 51.2111 L 530.123 28.6407"/><path d="M 584.525 69.9797 L 591.435 51.2111"/><path d="M 590.062 72.0179 L 584.525 69.9797"/><path d="M 596.971 53.2493 L 590.062 72.0179"/><path d="M 759.848 113.208 L 596.971 53.2493"/><path d="M 752.938 131.977 L 759.848 113.208"/><path d="M 758.475 134.015 L 752.938 131.977"/><path d="M 765.384 115.247 L 758.475 134.015"/><path d="M 765.384 115.247 L 821.69 135.974"/><path d="M 826.549 155.168 A 12 12 0 0 0 821.69 135.974"/><path d="M 539.791 480.669 L 826.549 155.168"/><circle cx="812.513" cy="145.383" r="3.20001"/><circle cx="530.983" cy="41.7446" r="3.20001"/><circle cx="532.262" cy="463.498" r="3.20001"/><circle cx="583.408" cy="327.445" r="6"/><circle cx="615.079" cy="243.199" r="3.20001"/><path d="M 679.173 160.234 L 677.446 164.926"/><path d="M 679.173 160.234 L 660.405 153.324"/><path d="M 658.677 158.017 L 660.405 153.324"/><path d="M 658.677 158.017 L 677.446 164.926"/><path d="M 663.859 143.94 L 662.132 148.632"/><path d="M 680.901 155.542 L 662.132 148.632"/><path d="M 680.901 155.542 L 682.628 150.849"/><path d="M 663.859 143.94 L 682.628 150.849"/><path d="M 685.041 124.032 A 1.5 1.5 0 0 0 682.226 122.995"/><path d="M 677.389 136.134 L 682.226 122.995"/><path d="M 677.389 136.134 A 1.5 1.5 0 1 0 680.205 137.17"/><path d="M 685.041 124.032 L 680.205 137.17"/><path d="M 524.055 42.7398 L 522.633 32.8414"/><path d="M 522.633 32.8414 L 521.643 32.9835"/><path d="M 521.643 32.9835 L 523.065 42.882"/><path d="M 523.065 42.882 L 524.055 42.7398"/><path d="M 538.909 42.8339 L 537.918 42.6978"/><path d="M 540.134 33.9177 L 538.909 42.8339"/><path d="M 539.144 33.7816 L 540.134 33.9177"/><path d="M 537.918 42.6978 L 539.144 33.7816"/><path d="M 817.07 150.696 L 817.721 151.455"/><path d="M 817.721 151.455 L 826.83 143.642"/><path d="M 826.83 143.642 L 826.179 142.883"/><path d="M 817.07 150.696 L 826.179 142.883"/><path d="M 806.668 141.531 L 811.069 134.851"/><path d="M 811.069 134.851 L 810.234 134.301"/><path d="M 810.234 134.301 L 805.833 140.981"/><path d="M 805.833 140.981 L 806.668 141.531"/><path d="M 945.216 46.2587 A 0.199982 0.199982 0 0 0 945.039 46.0384"/></g><g stroke="rgb(0, 0, 0)" stroke-width="0.13" stroke-linecap="butt" stroke-linejoin="miter" fill="none"><path d="M 945.017 46.2372 L 945.039 46.0384"/><path d="M 945.216 46.2588 L 945.017 46.2372"/></g><g stroke="rgb(0, 0, 0)" stroke-width="0.35" stroke-linecap="butt" stroke-linejoin="miter" fill="none"><path d="M 925.873 43.9602 L 945.039 46.0384"/><path d="M 925.654 44.1293 L 925.652 44.1375"/></g><g stroke="rgb(0, 0, 0)" stroke-width="0.13" stroke-linecap="butt" stroke-linejoin="miter" fill="none"><path d="M 925.652 44.1375 L 945.017 46.2372"/></g><g stroke="rgb(0, 0, 0)" stroke-width="0.35" stroke-linecap="butt" stroke-linejoin="miter" fill="none"><path d="M 925.873 43.9603 A 0.199982 0.199982 0 0 0 925.654 44.1293"/><path d="M 900.82 41.4449 A 12.5 12.5 0 0 0 925.652 44.1375"/><path d="M 900.82 41.4449 A 0.199982 0.199982 0 0 0 900.643 41.2245"/><path d="M 941.163 83.6396 L 945.216 46.2588"/></g><g stroke="rgb(0, 0, 0)" stroke-width="0.13" stroke-linecap="butt" stroke-linejoin="miter" fill="none"><path d="M 940.964 83.6181 L 945.017 46.2372"/><path d="M 941.163 83.6396 L 940.964 83.6181"/></g><g stroke="rgb(0, 0, 0)" stroke-width="0.35" stroke-linecap="butt" stroke-linejoin="miter" fill="none"><path d="M 936.369 83.321 L 940.942 83.817"/><path d="M 936.369 83.3211 A 0.199982 0.199982 0 0 0 936.149 83.4984"/><path d="M 940.727 85.8053 L 936.153 85.3094"/><path d="M 935.976 85.089 L 936.149 83.4984"/><path d="M 935.976 85.0891 A 0.199982 0.199982 0 0 0 936.153 85.3094"/><path d="M 940.942 83.8169 A 0.199982 0.199982 0 0 0 941.163 83.6396"/></g><g stroke="rgb(0, 0, 0)" stroke-width="0.13" stroke-linecap="butt" stroke-linejoin="miter" fill="none"><path d="M 940.942 83.817 L 940.964 83.6181"/><path d="M 936.391 83.1223 L 940.964 83.6181"/><path d="M 936.369 83.321 L 936.391 83.1223"/><path d="M 936.391 83.1223 A 0.399994 0.399994 0 0 0 935.95 83.4768"/><path d="M 936.149 83.4984 L 935.95 83.4768"/><path d="M 935.777 85.0674 L 935.95 83.4768"/><path d="M 935.976 85.089 L 935.777 85.0674"/><path d="M 935.777 85.0675 A 0.399994 0.399994 0 0 0 936.132 85.5082"/><path d="M 936.153 85.3094 L 936.132 85.5082"/><path d="M 940.705 86.0042 L 936.132 85.5082"/><path d="M 940.727 85.8053 L 940.705 86.0042"/><path d="M 940.904 86.0257 L 940.705 86.0042"/></g><g stroke="rgb(0, 0, 0)" stroke-width="0.35" stroke-linecap="butt" stroke-linejoin="miter" fill="none"><path d="M 940.904 86.0257 A 0.199982 0.199982 0 0 0 940.727 85.8054"/><path d="M 900.643 41.2245 L 886.121 39.6499"/></g><g stroke="rgb(0, 0, 0)" stroke-width="0.13" stroke-linecap="butt" stroke-linejoin="miter" fill="none"><path d="M 900.82 41.4449 L 886.099 39.8488"/><path d="M 886.121 39.6499 L 886.099 39.8488"/></g><g stroke="rgb(0, 0, 0)" stroke-width="0.35" stroke-linecap="butt" stroke-linejoin="miter" fill="none"><path d="M 912.073 82.8995 A 0.199982 0.199982 0 0 0 911.896 82.6791"/><path d="M 906.328 82.0754 L 911.896 82.6791"/><path d="M 906.328 82.0755 A 0.199982 0.199982 0 0 0 906.108 82.2527"/><path d="M 906.108 82.2527 L 903.995 101.739"/><path d="M 903.775 101.916 A 0.199982 0.199982 0 0 0 903.995 101.738"/><path d="M 879.476 99.0799 L 885.901 39.8272"/><path d="M 903.775 101.916 L 879.653 99.3003"/><path d="M 879.476 99.0799 A 0.199982 0.199982 0 0 0 879.653 99.3002"/><path d="M 886.121 39.65 A 0.199982 0.199982 0 0 0 885.901 39.8272"/></g><g stroke="rgb(0, 0, 0)" stroke-width="0.13" stroke-linecap="butt" stroke-linejoin="miter" fill="none"><path d="M 886.099 39.8488 L 885.901 39.8272"/><path d="M 879.675 99.1014 L 879.476 99.0799"/><path d="M 879.675 99.1014 L 886.099 39.8488"/><path d="M 879.675 99.1014 L 879.653 99.3003"/><path d="M 903.796 101.717 L 903.775 101.916"/><path d="M 903.796 101.717 L 879.675 99.1014"/><path d="M 903.796 101.717 L 903.995 101.739"/><path d="M 905.909 82.2311 L 906.108 82.2527"/><path d="M 905.909 82.2311 L 903.796 101.717"/><path d="M 906.35 81.8766 L 906.328 82.0754"/><path d="M 906.35 81.8766 A 0.399994 0.399994 0 0 0 905.909 82.2312"/><path d="M 911.917 82.4803 L 911.896 82.6791"/><path d="M 906.35 81.8766 L 911.917 82.4803"/><path d="M 912.272 82.9211 L 912.073 82.8995"/><path d="M 912.272 82.921 A 0.399994 0.399994 0 0 0 911.917 82.4803"/></g><g stroke="rgb(0, 0, 0)" stroke-width="0.35" stroke-linecap="butt" stroke-linejoin="miter" fill="none"><path d="M 920.247 83.5847 A 0.199982 0.199982 0 0 0 920.026 83.7619"/><path d="M 917.913 103.248 L 920.026 83.7619"/><path d="M 917.693 103.425 A 0.199982 0.199982 0 0 0 917.913 103.248"/><path d="M 938.791 105.511 L 940.904 86.0257"/></g><g stroke="rgb(0, 0, 0)" stroke-width="0.13" stroke-linecap="butt" stroke-linejoin="miter" fill="none"><path d="M 938.592 105.49 L 940.705 86.0042"/><path d="M 938.791 105.511 L 938.592 105.49"/></g><g stroke="rgb(0, 0, 0)" stroke-width="0.35" stroke-linecap="butt" stroke-linejoin="miter" fill="none"><path d="M 938.571 105.689 L 924.056 104.115"/><path d="M 923.878 103.894 A 0.199982 0.199982 0 0 0 924.056 104.115"/><path d="M 920.247 83.5847 L 925.814 84.1883"/><path d="M 923.878 103.894 L 925.991 84.4087"/><path d="M 925.991 84.4087 A 0.199982 0.199982 0 0 0 925.814 84.1884"/><path d="M 917.693 103.425 L 910.137 102.606"/><path d="M 909.96 102.385 L 912.073 82.8995"/></g><g stroke="rgb(0, 0, 0)" stroke-width="0.13" stroke-linecap="butt" stroke-linejoin="miter" fill="none"><path d="M 910.159 102.407 L 912.272 82.9211"/><path d="M 917.715 103.226 L 910.159 102.407"/><path d="M 917.715 103.226 L 919.827 83.7404"/><path d="M 920.268 83.3858 A 0.399994 0.399994 0 0 0 919.827 83.7404"/><path d="M 920.268 83.3858 L 925.836 83.9895"/><path d="M 926.19 84.4302 A 0.399994 0.399994 0 0 0 925.836 83.9895"/><path d="M 924.077 103.916 L 926.19 84.4302"/><path d="M 938.592 105.49 L 924.077 103.916"/><path d="M 910.159 102.407 L 909.96 102.385"/><path d="M 917.715 103.226 L 917.913 103.248"/><path d="M 919.827 83.7404 L 920.026 83.7619"/><path d="M 920.268 83.3858 L 920.247 83.5847"/><path d="M 925.836 83.9895 L 925.814 84.1883"/><path d="M 926.19 84.4302 L 925.991 84.4087"/><path d="M 924.077 103.916 L 923.878 103.894"/><path d="M 924.077 103.916 L 924.056 104.115"/><path d="M 938.592 105.49 L 938.571 105.689"/></g><g stroke="rgb(0, 0, 0)" stroke-width="0.35" stroke-linecap="butt" stroke-linejoin="miter" fill="none"><path d="M 938.571 105.689 A 0.199982 0.199982 0 0 0 938.791 105.511"/><path d="M 909.96 102.385 A 0.199982 0.199982 0 0 0 910.137 102.606"/></g><g stroke="rgb(0, 0, 0)" stroke-width="0.13" stroke-linecap="butt" stroke-linejoin="miter" fill="none"><path d="M 910.159 102.407 L 910.137 102.606"/><path d="M 917.715 103.226 L 917.693 103.425"/></g><g stroke="rgb(0, 0, 0)" stroke-width="0.35" stroke-linecap="butt" stroke-linejoin="miter" fill="none"><path d="M 1052.26 88.1302 L 1056.84 88.6261"/><path d="M 1052.09 87.9099 A 0.200012 0.200012 0 0 0 1052.26 88.1302"/><path d="M 1052.26 86.3192 L 1052.09 87.9098"/><path d="M 1052.48 86.1418 A 0.200012 0.200012 0 0 0 1052.26 86.3192"/><path d="M 1057.05 86.6378 L 1052.48 86.1418"/><path d="M 1057.01 88.8465 A 0.200012 0.200012 0 0 0 1056.84 88.6261"/></g><g stroke="rgb(0, 0, 0)" stroke-width="0.13" stroke-linecap="butt" stroke-linejoin="miter" fill="none"><path d="M 1056.81 88.825 L 1056.84 88.6261"/><path d="M 1057.01 88.8465 L 1056.81 88.825"/><path d="M 1052.24 88.329 L 1052.26 88.1302"/><path d="M 1052.24 88.329 L 1056.81 88.825"/><path d="M 1051.89 87.8882 L 1052.09 87.9098"/><path d="M 1051.89 87.8882 A 0.400024 0.400024 0 0 0 1052.24 88.3291"/><path d="M 1052.06 86.2976 L 1052.26 86.3192"/><path d="M 1052.06 86.2976 L 1051.89 87.8882"/><path d="M 1052.5 85.9431 L 1052.48 86.1418"/><path d="M 1052.5 85.943 A 0.400024 0.400024 0 0 0 1052.06 86.2975"/><path d="M 1057.07 86.4389 L 1057.05 86.6378"/><path d="M 1057.07 86.4389 L 1052.5 85.9431"/></g><g stroke="rgb(0, 0, 0)" stroke-width="0.35" stroke-linecap="butt" stroke-linejoin="miter" fill="none"><path d="M 1057.05 86.6378 A 0.200012 0.200012 0 0 0 1057.27 86.4604"/></g><g stroke="rgb(0, 0, 0)" stroke-width="0.13" stroke-linecap="butt" stroke-linejoin="miter" fill="none"><path d="M 1057.27 86.4604 L 1057.07 86.4389"/></g><g stroke="rgb(0, 0, 0)" stroke-width="0.35" stroke-linecap="butt" stroke-linejoin="miter" fill="none"><path d="M 1057.27 86.4604 L 1061.33 49.0796"/></g><g stroke="rgb(0, 0, 0)" stroke-width="0.13" stroke-linecap="butt" stroke-linejoin="miter" fill="none"><path d="M 1057.07 86.4389 L 1061.13 49.058"/><path d="M 1061.33 49.0796 L 1061.13 49.058"/></g><g stroke="rgb(0, 0, 0)" stroke-width="0.35" stroke-linecap="butt" stroke-linejoin="miter" fill="none"><path d="M 1061.33 49.0795 A 0.200012 0.200012 0 0 0 1061.15 48.8591"/></g><g stroke="rgb(0, 0, 0)" stroke-width="0.13" stroke-linecap="butt" stroke-linejoin="miter" fill="none"><path d="M 1061.13 49.058 L 1061.15 48.8592"/></g><g stroke="rgb(0, 0, 0)" stroke-width="0.35" stroke-linecap="butt" stroke-linejoin="miter" fill="none"><path d="M 1042.04 46.7872 L 1061.15 48.8592"/><path d="M 1041.82 46.9645 L 1041.82 46.9631"/></g><g stroke="rgb(0, 0, 0)" stroke-width="0.13" stroke-linecap="butt" stroke-linejoin="miter" fill="none"><path d="M 1041.82 46.9645 L 1061.13 49.058"/></g><g stroke="rgb(0, 0, 0)" stroke-width="0.35" stroke-linecap="butt" stroke-linejoin="miter" fill="none"><path d="M 1042.04 46.7872 A 0.200012 0.200012 0 0 0 1041.82 46.9631"/><path d="M 1016.96 44.2695 A 12.5 12.5 0 0 0 1041.82 46.9645"/><path d="M 1016.96 44.2695 A 0.200012 0.200012 0 0 0 1016.79 44.0491"/><path d="M 1054.9 108.332 L 1057.01 88.8465"/></g><g stroke="rgb(0, 0, 0)" stroke-width="0.13" stroke-linecap="butt" stroke-linejoin="miter" fill="none"><path d="M 1054.7 108.311 L 1056.81 88.825"/><path d="M 1054.9 108.332 L 1054.7 108.311"/></g><g stroke="rgb(0, 0, 0)" stroke-width="0.35" stroke-linecap="butt" stroke-linejoin="miter" fill="none"><path d="M 1040.17 106.936 L 1054.68 108.51"/><path d="M 1039.99 106.715 A 0.200012 0.200012 0 0 0 1040.17 106.936"/><path d="M 1016.79 44.0492 L 1002.27 42.4753"/></g><g stroke="rgb(0, 0, 0)" stroke-width="0.13" stroke-linecap="butt" stroke-linejoin="miter" fill="none"><path d="M 1016.96 44.2696 L 1002.25 42.6742"/><path d="M 1002.27 42.4753 L 1002.25 42.6742"/></g><g stroke="rgb(0, 0, 0)" stroke-width="0.35" stroke-linecap="butt" stroke-linejoin="miter" fill="none"><path d="M 1002.05 42.6526 L 995.628 101.905"/><path d="M 995.628 101.905 A 0.200012 0.200012 0 0 0 995.805 102.126"/><path d="M 995.805 102.126 L 1019.88 104.737"/><path d="M 1019.88 104.737 A 0.200012 0.200012 0 0 0 1020.1 104.559"/><path d="M 1020.1 104.559 L 1022.22 85.0735"/><path d="M 1022.44 84.8962 A 0.200012 0.200012 0 0 0 1022.22 85.0735"/><path d="M 1028.01 85.4999 L 1022.44 84.8962"/><path d="M 1028.18 85.7203 A 0.200012 0.200012 0 0 0 1028.01 85.4999"/><path d="M 1028.18 85.7203 L 1026.07 105.206"/><path d="M 1026.07 105.206 A 0.200012 0.200012 0 0 0 1026.25 105.427"/><path d="M 1026.25 105.427 L 1033.8 106.246"/><path d="M 1033.8 106.246 A 0.200012 0.200012 0 0 0 1034.02 106.068"/><path d="M 1034.02 106.068 L 1036.14 86.5827"/><path d="M 1036.36 86.4054 A 0.200012 0.200012 0 0 0 1036.14 86.5827"/></g><g stroke="rgb(0, 0, 0)" stroke-width="0.13" stroke-linecap="butt" stroke-linejoin="miter" fill="none"><path d="M 1002.25 42.6742 L 995.827 101.927"/><path d="M 995.827 101.927 L 1019.91 104.538"/><path d="M 1019.91 104.538 L 1022.02 85.0519"/><path d="M 1022.46 84.6974 A 0.400024 0.400024 0 0 0 1022.02 85.0519"/><path d="M 1028.03 85.3011 L 1022.46 84.6974"/><path d="M 1028.38 85.7419 A 0.400024 0.400024 0 0 0 1028.03 85.301"/><path d="M 1028.38 85.7419 L 1026.27 105.228"/><path d="M 1026.27 105.228 L 1033.82 106.047"/><path d="M 1033.82 106.047 L 1035.94 86.5612"/><path d="M 1036.38 86.2065 A 0.400024 0.400024 0 0 0 1035.94 86.5611"/><path d="M 1041.94 86.8103 L 1036.38 86.2066"/><path d="M 1042.3 87.2511 A 0.400024 0.400024 0 0 0 1041.94 86.8102"/><path d="M 1042.3 87.251 L 1040.19 106.737"/><path d="M 1040.19 106.737 L 1054.7 108.311"/></g><g stroke="rgb(0, 0, 0)" stroke-width="0.35" stroke-linecap="butt" stroke-linejoin="miter" fill="none"><path d="M 1042.1 87.2295 L 1039.99 106.715"/><path d="M 1041.92 87.0091 L 1036.36 86.4055"/><path d="M 1042.1 87.2295 A 0.200012 0.200012 0 0 0 1041.92 87.0091"/><path d="M 1054.68 108.51 A 0.200012 0.200012 0 0 0 1054.9 108.332"/></g><g stroke="rgb(0, 0, 0)" stroke-width="0.13" stroke-linecap="butt" stroke-linejoin="miter" fill="none"><path d="M 1054.68 108.51 L 1054.7 108.311"/><path d="M 1040.17 106.936 L 1040.19 106.737"/><path d="M 1039.99 106.715 L 1040.19 106.737"/><path d="M 1042.1 87.2295 L 1042.3 87.251"/><path d="M 1041.92 87.0091 L 1041.94 86.8103"/><path d="M 1036.36 86.4055 L 1036.38 86.2066"/><path d="M 1036.14 86.5827 L 1035.94 86.5612"/><path d="M 1034.02 106.068 L 1033.82 106.047"/><path d="M 1033.8 106.246 L 1033.82 106.047"/><path d="M 1026.25 105.427 L 1026.27 105.228"/><path d="M 1026.07 105.206 L 1026.27 105.228"/><path d="M 1028.18 85.7203 L 1028.38 85.7419"/><path d="M 1028.01 85.4999 L 1028.03 85.3011"/><path d="M 1022.44 84.8962 L 1022.46 84.6974"/><path d="M 1022.22 85.0735 L 1022.02 85.0519"/><path d="M 1020.1 104.559 L 1019.91 104.538"/><path d="M 1019.88 104.737 L 1019.91 104.538"/><path d="M 995.805 102.126 L 995.827 101.927"/><path d="M 995.628 101.905 L 995.827 101.927"/><path d="M 1002.05 42.6526 L 1002.25 42.6742"/></g><g stroke="rgb(0, 0, 0)" stroke-width="0.35" stroke-linecap="butt" stroke-linejoin="miter" fill="none"><path d="M 1002.27 42.4753 A 0.200012 0.200012 0 0 0 1002.05 42.6526"/></g><g stroke="rgb(0, 0, 0)" stroke-width="0.13" stroke-linecap="butt" stroke-linejoin="miter" fill="none"><path d="M 180.55 223.303 L 181.02 223.303 L 181.02 221.695 L 182.492 221.695 L 182.492 221.276 L 181.02 221.276 L 181.02 220.227 L 182.83 220.227 L 182.83 219.803 L 180.55 219.803 L 180.55 223.303 L 180.55 223.303 z M 183.743 223.303 L 184.187 223.303 L 184.187 221.755 L 184.232 221.382 L 184.368 221.115 L 184.59 220.953 L 184.888 220.898 L 185.11 220.933 L 185.276 221.034 L 185.377 221.206 L 185.412 221.438 L 185.861 221.438 L 185.8 221.029 L 185.634 220.736 L 185.357 220.56 L 184.978 220.499 L 184.721 220.54 L 184.499 220.641 L 184.303 220.812 L 184.146 221.044 L 184.146 220.595 L 183.743 220.595 L 183.743 223.303 L 183.743 223.303 z M 186.481 221.952 L 186.562 222.567 L 186.794 223.021 L 187.162 223.303 L 187.656 223.399 L 188.146 223.303 L 188.514 223.026 L 188.746 222.572 L 188.831 221.952 L 188.746 221.337 L 188.514 220.878 L 188.146 220.6 L 187.656 220.499 L 187.162 220.6 L 186.794 220.883 L 186.562 221.337 L 186.481 221.952 L 186.481 221.952 z M 186.935 221.947 L 186.981 221.493 L 187.122 221.165 L 187.349 220.963 L 187.656 220.893 L 187.959 220.963 L 188.186 221.16 L 188.327 221.493 L 188.378 221.947 L 188.327 222.406 L 188.186 222.739 L 187.959 222.94 L 187.656 223.006 L 187.349 222.94 L 187.122 222.739 L 186.981 222.406 L 186.935 221.947 L 186.935 221.947 z M 189.648 223.303 L 190.092 223.303 L 190.092 221.74 L 190.138 221.382 L 190.284 221.12 L 190.511 220.958 L 190.813 220.898 L 191.056 220.948 L 191.207 221.084 L 191.282 221.311 L 191.308 221.614 L 191.308 223.303 L 191.751 223.303 L 191.751 221.523 L 191.731 221.165 L 191.641 220.868 L 191.343 220.595 L 190.879 220.499 L 190.622 220.535 L 190.405 220.631 L 190.218 220.792 L 190.072 221.009 L 190.072 220.595 L 189.648 220.595 L 189.648 223.303 L 189.648 223.303 z M 193.28 221.064 L 193.28 222.421 L 193.31 222.86 L 193.451 223.162 L 193.733 223.339 L 194.213 223.399 L 194.737 223.374 L 194.737 222.991 L 194.354 223.021 L 194.006 222.981 L 193.819 222.855 L 193.739 222.643 L 193.723 222.345 L 193.723 221.064 L 194.737 221.064 L 194.737 220.686 L 193.723 220.686 L 193.723 219.894 L 193.28 219.894 L 193.28 220.686 L 192.513 220.686 L 192.513 221.064 L 193.28 221.064 L 193.28 221.064 z M 195.246 224.141 L 195.246 224.494 L 198.282 224.494 L 198.282 224.141 L 195.246 224.141 L 195.246 224.141 z M 198.777 223.303 L 201.026 223.303 L 201.026 222.88 L 199.241 222.88 L 199.241 219.803 L 198.777 219.803 L 198.777 223.303 L 198.777 223.303 z M 202.181 222.078 L 203.956 222.078 L 203.961 221.871 L 203.88 221.291 L 203.659 220.857 L 203.306 220.595 L 202.837 220.499 L 202.378 220.6 L 202.025 220.883 L 201.798 221.342 L 201.717 221.947 L 201.793 222.567 L 202.02 223.021 L 202.368 223.303 L 202.821 223.399 L 203.215 223.334 L 203.538 223.162 L 203.775 222.89 L 203.911 222.527 L 203.472 222.527 L 203.381 222.729 L 203.25 222.88 L 202.877 223.001 L 202.589 222.945 L 202.373 222.769 L 202.231 222.481 L 202.181 222.093 L 202.181 222.078 L 202.181 222.078 z M 202.181 221.705 L 202.236 221.357 L 202.373 221.1 L 202.579 220.943 L 202.852 220.888 L 203.119 220.943 L 203.326 221.1 L 203.452 221.357 L 203.497 221.705 L 202.181 221.705 L 202.181 221.705 z M 205.444 221.064 L 205.444 223.303 L 205.888 223.303 L 205.888 221.064 L 206.896 221.064 L 206.896 220.686 L 205.888 220.686 L 205.888 220.52 L 205.923 220.318 L 206.039 220.182 L 206.236 220.101 L 206.518 220.071 L 206.896 220.091 L 206.896 219.708 L 206.417 219.682 L 205.984 219.728 L 205.681 219.864 L 205.499 220.101 L 205.444 220.439 L 205.444 220.686 L 204.632 220.686 L 204.632 221.064 L 205.444 221.064 L 205.444 221.064 z M 208.46 221.064 L 208.46 222.421 L 208.49 222.86 L 208.631 223.162 L 208.914 223.339 L 209.393 223.399 L 209.917 223.374 L 209.917 222.991 L 209.534 223.021 L 209.186 222.981 L 208.999 222.855 L 208.919 222.643 L 208.904 222.345 L 208.904 221.064 L 209.917 221.064 L 209.917 220.686 L 208.904 220.686 L 208.904 219.894 L 208.46 219.894 L 208.46 220.686 L 207.693 220.686 L 207.693 221.064 L 208.46 221.064 L 208.46 221.064 z M 210.427 224.141 L 210.427 224.494 L 213.463 224.494 L 213.463 224.141 L 210.427 224.141 L 210.427 224.141 z M 213.957 223.303 L 216.206 223.303 L 216.206 222.88 L 214.421 222.88 L 214.421 219.803 L 213.957 219.803 L 213.957 223.303 L 213.957 223.303 z M 216.842 221.952 L 216.922 222.567 L 217.154 223.021 L 217.522 223.303 L 218.017 223.399 L 218.506 223.303 L 218.874 223.026 L 219.106 222.572 L 219.192 221.952 L 219.106 221.337 L 218.874 220.878 L 218.506 220.6 L 218.017 220.499 L 217.522 220.6 L 217.154 220.883 L 216.922 221.337 L 216.842 221.952 L 216.842 221.952 z M 217.295 221.947 L 217.341 221.493 L 217.482 221.165 L 217.709 220.963 L 218.017 220.893 L 218.319 220.963 L 218.546 221.16 L 218.687 221.493 L 218.738 221.947 L 218.687 222.406 L 218.546 222.739 L 218.319 222.94 L 218.017 223.006 L 217.709 222.94 L 217.482 222.739 L 217.341 222.406 L 217.295 221.947 L 217.295 221.947 z M 220.649 223.303 L 221.053 221.004 L 221.456 223.303 L 221.88 223.303 L 222.545 220.595 L 222.117 220.595 L 221.668 222.895 L 221.27 220.595 L 220.831 220.595 L 220.432 222.895 L 219.984 220.595 L 219.56 220.595 L 220.226 223.303 L 220.649 223.303 L 220.649 223.303 z M 223.433 222.078 L 225.208 222.078 L 225.213 221.871 L 225.133 221.291 L 224.911 220.857 L 224.558 220.595 L 224.089 220.499 L 223.63 220.6 L 223.277 220.883 L 223.05 221.342 L 222.969 221.947 L 223.045 222.567 L 223.272 223.021 L 223.62 223.303 L 224.074 223.399 L 224.467 223.334 L 224.79 223.162 L 225.027 222.89 L 225.163 222.527 L 224.724 222.527 L 224.633 222.729 L 224.502 222.88 L 224.129 223.001 L 223.842 222.945 L 223.625 222.769 L 223.484 222.481 L 223.433 222.093 L 223.433 222.078 L 223.433 222.078 z M 223.433 221.705 L 223.489 221.357 L 223.625 221.1 L 223.831 220.943 L 224.104 220.888 L 224.371 220.943 L 224.578 221.1 L 224.704 221.357 L 224.749 221.705 L 223.433 221.705 L 223.433 221.705 z M 226.247 223.303 L 226.691 223.303 L 226.691 221.755 L 226.736 221.382 L 226.873 221.115 L 227.094 220.953 L 227.392 220.898 L 227.614 220.933 L 227.78 221.034 L 227.881 221.206 L 227.917 221.438 L 228.365 221.438 L 228.305 221.029 L 228.138 220.736 L 227.861 220.56 L 227.483 220.499 L 227.226 220.54 L 227.004 220.641 L 226.807 220.812 L 226.651 221.044 L 226.651 220.595 L 226.247 220.595 L 226.247 223.303 L 226.247 223.303 z M 231.664 223.303 L 232.128 223.303 L 232.496 222.275 L 233.893 222.275 L 234.261 223.303 L 234.735 223.303 L 233.454 219.798 L 232.94 219.798 L 231.664 223.303 L 231.664 223.303 z M 232.657 221.846 L 233.197 220.303 L 233.736 221.846 L 232.657 221.846 L 232.657 221.846 z M 235.623 222.149 L 236.843 222.149 L 236.843 221.75 L 235.623 221.75 L 235.623 222.149 L 235.623 222.149 z M 237.736 223.303 L 238.2 223.303 L 238.568 222.275 L 239.965 222.275 L 240.333 223.303 L 240.807 223.303 L 239.526 219.798 L 239.012 219.798 L 237.736 223.303 L 237.736 223.303 z M 238.729 221.846 L 239.269 220.303 L 239.808 221.846 L 238.729 221.846 L 238.729 221.846 z M 241.427 223.303 L 241.871 223.303 L 241.871 221.755 L 241.917 221.382 L 242.053 221.115 L 242.275 220.953 L 242.572 220.898 L 242.794 220.933 L 242.96 221.034 L 243.061 221.206 L 243.097 221.438 L 243.546 221.438 L 243.485 221.029 L 243.319 220.736 L 243.041 220.56 L 242.663 220.499 L 242.406 220.54 L 242.184 220.641 L 241.987 220.812 L 241.831 221.044 L 241.831 220.595 L 241.427 220.595 L 241.427 223.303 L 241.427 223.303 z M 244.12 223.303 L 244.529 223.303 L 244.529 221.493 L 244.554 221.221 L 244.63 221.024 L 244.746 220.908 L 244.897 220.863 L 245.018 220.903 L 245.099 221.004 L 245.139 221.175 L 245.154 221.402 L 245.154 223.303 L 245.538 223.303 L 245.538 221.493 L 245.563 221.226 L 245.638 221.029 L 245.759 220.908 L 245.911 220.863 L 246.032 220.903 L 246.113 221.004 L 246.163 221.402 L 246.163 223.303 L 246.571 223.303 L 246.571 221.432 L 246.546 221.044 L 246.466 220.747 L 246.304 220.565 L 246.042 220.499 L 245.734 220.6 L 245.497 220.893 L 245.311 220.605 L 244.998 220.499 L 244.71 220.6 L 244.514 220.883 L 244.514 220.595 L 244.12 220.595 L 244.12 223.303 L 244.12 223.303 z M 250.803 222.149 L 252.023 222.149 L 252.023 221.75 L 250.803 221.75 L 250.803 222.149 L 250.803 222.149 z M 256.421 223.303 L 256.885 223.303 L 256.885 221.826 L 257.399 221.826 L 257.919 221.801 L 258.332 221.624 L 258.6 221.281 L 258.69 220.812 L 258.62 220.378 L 258.418 220.061 L 258.085 219.869 L 257.631 219.803 L 256.421 219.803 L 256.421 223.303 L 256.421 223.303 z M 257.505 220.232 L 257.808 220.262 L 258.03 220.358 L 258.161 220.535 L 258.206 220.812 L 258.156 221.105 L 258.02 221.281 L 257.788 221.372 L 257.47 221.397 L 256.885 221.397 L 256.885 220.232 L 257.505 220.232 L 257.505 220.232 z M 260.36 220.056 L 260.36 222.93 L 259.447 222.93 L 259.447 223.303 L 261.711 223.303 L 261.711 222.93 L 260.803 222.93 L 260.803 219.682 L 259.664 219.682 L 259.664 220.056 L 260.36 220.056 L 260.36 220.056 z M 264.122 222.95 L 264.122 222.966 L 264.147 223.137 L 264.223 223.258 L 264.54 223.354 L 264.788 223.314 L 264.788 222.971 L 264.682 222.986 L 264.54 222.92 L 264.515 222.718 L 264.515 221.316 L 264.455 220.958 L 264.278 220.706 L 263.971 220.555 L 263.537 220.499 L 263.113 220.56 L 262.801 220.731 L 262.604 220.999 L 262.538 221.352 L 262.538 221.382 L 262.937 221.382 L 262.972 221.17 L 263.083 221.019 L 263.264 220.928 L 263.522 220.893 L 263.769 220.918 L 263.945 220.994 L 264.051 221.125 L 264.087 221.306 L 264.066 221.518 L 263.986 221.624 L 263.784 221.674 L 263.406 221.715 L 262.972 221.806 L 262.664 221.967 L 262.483 222.219 L 262.427 222.592 L 262.478 222.925 L 262.634 223.172 L 262.886 223.329 L 263.234 223.384 L 263.703 223.278 L 264.122 222.95 L 264.122 222.95 z M 264.071 222.355 L 264.011 222.618 L 263.85 222.819 L 263.607 222.95 L 263.31 222.996 L 263.118 222.971 L 262.982 222.89 L 262.896 222.749 L 262.871 222.552 L 262.891 222.375 L 262.972 222.249 L 263.295 222.108 L 263.703 222.048 L 264.071 221.927 L 264.071 222.355 L 264.071 222.355 z M 267.213 221.014 L 267.057 220.787 L 266.88 220.625 L 266.674 220.535 L 266.437 220.499 L 266.008 220.6 L 265.675 220.883 L 265.458 221.337 L 265.383 221.947 L 265.458 222.562 L 265.675 223.016 L 266.008 223.303 L 266.437 223.399 L 266.674 223.369 L 266.875 223.283 L 267.052 223.127 L 267.213 222.89 L 267.213 224.352 L 267.657 224.352 L 267.657 220.595 L 267.213 220.595 L 267.213 221.014 L 267.213 221.014 z M 265.837 221.947 L 265.882 221.498 L 266.023 221.17 L 266.235 220.968 L 266.512 220.898 L 266.805 220.968 L 267.027 221.165 L 267.158 221.493 L 267.208 221.947 L 267.158 222.406 L 267.027 222.734 L 266.805 222.935 L 266.512 223.001 L 266.235 222.935 L 266.023 222.734 L 265.882 222.401 L 265.837 221.947 L 265.837 221.947 z M 270.673 220.595 L 270.229 220.595 L 270.229 222.159 L 270.179 222.522 L 270.033 222.784 L 269.806 222.945 L 269.508 222.996 L 269.271 222.956 L 269.12 222.834 L 269.034 222.628 L 269.014 222.335 L 269.014 220.595 L 268.57 220.595 L 268.57 222.375 L 268.585 222.734 L 268.681 223.031 L 268.973 223.303 L 269.442 223.399 L 269.695 223.364 L 269.911 223.273 L 270.098 223.117 L 270.249 222.89 L 270.249 223.303 L 270.673 223.303 L 270.673 220.595 L 270.673 220.595 z M 272.009 222.078 L 273.785 222.078 L 273.79 221.871 L 273.709 221.291 L 273.487 220.857 L 273.134 220.595 L 272.665 220.499 L 272.206 220.6 L 271.853 220.883 L 271.626 221.342 L 271.545 221.947 L 271.621 222.567 L 271.848 223.021 L 272.196 223.303 L 272.65 223.399 L 273.043 223.334 L 273.366 223.162 L 273.603 222.89 L 273.739 222.527 L 273.301 222.527 L 273.21 222.729 L 273.079 222.88 L 272.705 223.001 L 272.418 222.945 L 272.201 222.769 L 272.06 222.481 L 272.009 222.093 L 272.009 222.078 L 272.009 222.078 z M 272.009 221.705 L 272.065 221.357 L 272.201 221.1 L 272.408 220.943 L 272.68 220.888 L 272.947 220.943 L 273.154 221.1 L 273.28 221.357 L 273.326 221.705 L 272.009 221.705 L 272.009 221.705 z M 279.357 222.885 L 279.357 223.303 L 279.801 223.303 L 279.801 219.682 L 279.362 219.682 L 279.362 221.009 L 279.025 220.625 L 278.818 220.535 L 278.581 220.499 L 278.152 220.6 L 277.819 220.883 L 277.602 221.337 L 277.527 221.947 L 277.602 222.557 L 277.819 223.016 L 278.152 223.303 L 278.581 223.399 L 278.818 223.364 L 279.03 223.273 L 279.357 222.885 L 279.357 222.885 z M 278.656 220.898 L 278.949 220.968 L 279.171 221.165 L 279.302 221.493 L 279.352 221.947 L 279.302 222.406 L 279.171 222.734 L 278.949 222.935 L 278.656 223.001 L 278.379 222.935 L 278.167 222.734 L 278.026 222.401 L 277.981 221.947 L 278.026 221.498 L 278.167 221.17 L 278.379 220.968 L 278.656 220.898 L 278.656 220.898 z M 282.817 220.595 L 282.373 220.595 L 282.373 222.159 L 282.323 222.522 L 282.177 222.784 L 281.95 222.945 L 281.652 222.996 L 281.415 222.956 L 281.264 222.834 L 281.178 222.628 L 281.158 222.335 L 281.158 220.595 L 280.714 220.595 L 280.714 222.375 L 280.729 222.734 L 280.825 223.031 L 281.117 223.303 L 281.586 223.399 L 281.839 223.364 L 282.056 223.273 L 282.242 223.117 L 282.393 222.89 L 282.393 223.303 L 282.817 223.303 L 282.817 220.595 L 282.817 220.595 z M 286.801 223.303 L 287.245 223.303 L 287.245 221.74 L 287.29 221.382 L 287.437 221.12 L 287.664 220.958 L 287.966 220.898 L 288.208 220.948 L 288.359 221.084 L 288.435 221.311 L 288.46 221.614 L 288.46 223.303 L 288.904 223.303 L 288.904 221.523 L 288.884 221.165 L 288.793 220.868 L 288.496 220.595 L 288.032 220.499 L 287.78 220.535 L 287.563 220.631 L 287.381 220.782 L 287.245 220.989 L 287.245 219.682 L 286.801 219.682 L 286.801 223.303 L 286.801 223.303 z M 291.446 222.95 L 291.446 222.966 L 291.471 223.137 L 291.547 223.258 L 291.865 223.354 L 292.112 223.314 L 292.112 222.971 L 292.006 222.986 L 291.865 222.92 L 291.839 222.718 L 291.839 221.316 L 291.779 220.958 L 291.602 220.706 L 291.295 220.555 L 290.861 220.499 L 290.437 220.56 L 290.125 220.731 L 289.928 220.999 L 289.862 221.352 L 289.862 221.382 L 290.261 221.382 L 290.296 221.17 L 290.407 221.019 L 290.589 220.928 L 290.846 220.893 L 291.093 220.918 L 291.269 220.994 L 291.375 221.125 L 291.411 221.306 L 291.39 221.518 L 291.31 221.624 L 291.108 221.674 L 290.73 221.715 L 290.296 221.806 L 289.988 221.967 L 289.807 222.219 L 289.751 222.592 L 289.802 222.925 L 289.958 223.172 L 290.21 223.329 L 290.558 223.384 L 291.027 223.278 L 291.446 222.95 L 291.446 222.95 z M 291.396 222.355 L 291.335 222.618 L 291.174 222.819 L 290.932 222.95 L 290.634 222.996 L 290.442 222.971 L 290.306 222.89 L 290.22 222.749 L 290.195 222.552 L 290.215 222.375 L 290.296 222.249 L 290.619 222.108 L 291.027 222.048 L 291.396 221.927 L 291.396 222.355 L 291.396 222.355 z M 294.961 220.595 L 294.517 220.595 L 294.517 222.159 L 294.467 222.522 L 294.321 222.784 L 294.094 222.945 L 293.796 222.996 L 293.559 222.956 L 293.408 222.834 L 293.322 222.628 L 293.302 222.335 L 293.302 220.595 L 292.858 220.595 L 292.858 222.375 L 292.873 222.734 L 292.969 223.031 L 293.262 223.303 L 293.731 223.399 L 293.983 223.364 L 294.2 223.273 L 294.386 223.117 L 294.537 222.89 L 294.537 223.303 L 294.961 223.303 L 294.961 220.595 L 294.961 220.595 z M 296.504 221.064 L 296.504 222.421 L 296.535 222.86 L 296.676 223.162 L 296.958 223.339 L 297.437 223.399 L 297.962 223.374 L 297.962 222.991 L 297.578 223.021 L 297.23 222.981 L 297.044 222.855 L 296.963 222.643 L 296.948 222.345 L 296.948 221.064 L 297.962 221.064 L 297.962 220.686 L 296.948 220.686 L 296.948 219.894 L 296.504 219.894 L 296.504 220.686 L 295.738 220.686 L 295.738 221.064 L 296.504 221.064 L 296.504 221.064 z" stroke="none" fill-rule="evenodd" fill="rgb(0, 0, 0)"/></g><g stroke="rgb(0, 0, 0)" stroke-width="0.13" stroke-linecap="butt" stroke-linejoin="miter" fill="none"><path d="M 592.746 218.355 L 593.215 218.355 L 593.215 216.746 L 594.688 216.746 L 594.688 216.327 L 593.215 216.327 L 593.215 215.278 L 595.026 215.278 L 595.026 214.855 L 592.746 214.855 L 592.746 218.355 L 592.746 218.355 z M 595.939 218.355 L 596.383 218.355 L 596.383 216.806 L 596.428 216.433 L 596.564 216.166 L 596.786 216.004 L 597.084 215.949 L 597.305 215.984 L 597.472 216.085 L 597.573 216.257 L 597.608 216.489 L 598.057 216.489 L 597.996 216.08 L 597.83 215.788 L 597.553 215.611 L 597.174 215.551 L 596.917 215.591 L 596.695 215.692 L 596.499 215.863 L 596.342 216.095 L 596.342 215.646 L 595.939 215.646 L 595.939 218.355 L 595.939 218.355 z M 598.677 217.003 L 598.758 217.618 L 598.99 218.072 L 599.358 218.355 L 599.852 218.45 L 600.341 218.355 L 600.71 218.077 L 600.942 217.623 L 601.027 217.003 L 600.942 216.388 L 600.71 215.929 L 600.341 215.651 L 599.852 215.551 L 599.358 215.651 L 598.99 215.934 L 598.758 216.388 L 598.677 217.003 L 598.677 217.003 z M 599.131 216.998 L 599.177 216.544 L 599.318 216.216 L 599.545 216.015 L 599.852 215.944 L 600.155 216.015 L 600.382 216.211 L 600.523 216.544 L 600.573 216.998 L 600.523 217.457 L 600.382 217.79 L 600.155 217.992 L 599.852 218.057 L 599.545 217.992 L 599.318 217.79 L 599.177 217.457 L 599.131 216.998 L 599.131 216.998 z M 601.844 218.355 L 602.288 218.355 L 602.288 216.791 L 602.334 216.433 L 602.48 216.171 L 602.707 216.01 L 603.009 215.949 L 603.251 215.999 L 603.403 216.136 L 603.478 216.363 L 603.504 216.665 L 603.504 218.355 L 603.947 218.355 L 603.947 216.574 L 603.927 216.216 L 603.836 215.919 L 603.539 215.646 L 603.075 215.551 L 602.818 215.586 L 602.601 215.682 L 602.414 215.843 L 602.268 216.06 L 602.268 215.646 L 601.844 215.646 L 601.844 218.355 L 601.844 218.355 z M 605.475 216.115 L 605.475 217.472 L 605.506 217.911 L 605.647 218.213 L 605.929 218.39 L 606.408 218.45 L 606.933 218.425 L 606.933 218.042 L 606.55 218.072 L 606.202 218.032 L 606.015 217.906 L 605.934 217.694 L 605.919 217.396 L 605.919 216.115 L 606.933 216.115 L 606.933 215.737 L 605.919 215.737 L 605.919 214.945 L 605.475 214.945 L 605.475 215.737 L 604.709 215.737 L 604.709 216.115 L 605.475 216.115 L 605.475 216.115 z M 607.442 219.192 L 607.442 219.545 L 610.478 219.545 L 610.478 219.192 L 607.442 219.192 L 607.442 219.192 z M 610.973 218.355 L 613.222 218.355 L 613.222 217.931 L 611.437 217.931 L 611.437 214.855 L 610.973 214.855 L 610.973 218.355 L 610.973 218.355 z M 614.377 217.129 L 616.152 217.129 L 616.157 216.922 L 616.076 216.342 L 615.854 215.909 L 615.501 215.646 L 615.032 215.551 L 614.573 215.651 L 614.22 215.934 L 613.993 216.393 L 613.913 216.998 L 613.988 217.618 L 614.215 218.072 L 614.563 218.355 L 615.017 218.45 L 615.411 218.385 L 615.733 218.213 L 615.97 217.941 L 616.107 217.578 L 615.668 217.578 L 615.577 217.78 L 615.446 217.931 L 615.073 218.052 L 614.785 217.997 L 614.568 217.82 L 614.427 217.533 L 614.377 217.144 L 614.377 217.129 L 614.377 217.129 z M 614.377 216.756 L 614.432 216.408 L 614.568 216.151 L 614.775 215.994 L 615.047 215.939 L 615.315 215.994 L 615.522 216.151 L 615.648 216.408 L 615.693 216.756 L 614.377 216.756 L 614.377 216.756 z M 617.64 216.115 L 617.64 218.355 L 618.083 218.355 L 618.083 216.115 L 619.092 216.115 L 619.092 215.737 L 618.083 215.737 L 618.083 215.571 L 618.119 215.369 L 618.235 215.233 L 618.431 215.152 L 618.714 215.122 L 619.092 215.142 L 619.092 214.759 L 618.613 214.734 L 618.179 214.779 L 617.877 214.915 L 617.695 215.152 L 617.64 215.49 L 617.64 215.737 L 616.828 215.737 L 616.828 216.115 L 617.64 216.115 L 617.64 216.115 z M 620.656 216.115 L 620.656 217.472 L 620.686 217.911 L 620.827 218.213 L 621.109 218.39 L 621.589 218.45 L 622.113 218.425 L 622.113 218.042 L 621.73 218.072 L 621.382 218.032 L 621.195 217.906 L 621.114 217.694 L 621.099 217.396 L 621.099 216.115 L 622.113 216.115 L 622.113 215.737 L 621.099 215.737 L 621.099 214.945 L 620.656 214.945 L 620.656 215.737 L 619.889 215.737 L 619.889 216.115 L 620.656 216.115 L 620.656 216.115 z M 622.622 219.192 L 622.622 219.545 L 625.658 219.545 L 625.658 219.192 L 622.622 219.192 L 622.622 219.192 z M 626.153 218.355 L 628.402 218.355 L 628.402 217.931 L 626.617 217.931 L 626.617 214.855 L 626.153 214.855 L 626.153 218.355 L 626.153 218.355 z M 629.037 217.003 L 629.118 217.618 L 629.35 218.072 L 629.718 218.355 L 630.212 218.45 L 630.702 218.355 L 631.07 218.077 L 631.302 217.623 L 631.387 217.003 L 631.302 216.388 L 631.07 215.929 L 630.702 215.651 L 630.212 215.551 L 629.718 215.651 L 629.35 215.934 L 629.118 216.388 L 629.037 217.003 L 629.037 217.003 z M 629.491 216.998 L 629.537 216.544 L 629.678 216.216 L 629.905 216.015 L 630.212 215.944 L 630.515 216.015 L 630.742 216.211 L 630.883 216.544 L 630.934 216.998 L 630.883 217.457 L 630.742 217.79 L 630.515 217.992 L 630.212 218.057 L 629.905 217.992 L 629.678 217.79 L 629.537 217.457 L 629.491 216.998 L 629.491 216.998 z M 632.845 218.355 L 633.248 216.055 L 633.652 218.355 L 634.076 218.355 L 634.741 215.646 L 634.313 215.646 L 633.864 217.946 L 633.465 215.646 L 633.026 215.646 L 632.628 217.946 L 632.179 215.646 L 631.756 215.646 L 632.421 218.355 L 632.845 218.355 L 632.845 218.355 z M 635.629 217.129 L 637.404 217.129 L 637.409 216.922 L 637.328 216.342 L 637.106 215.909 L 636.753 215.646 L 636.284 215.551 L 635.826 215.651 L 635.472 215.934 L 635.246 216.393 L 635.165 216.998 L 635.24 217.618 L 635.467 218.072 L 635.815 218.355 L 636.269 218.45 L 636.663 218.385 L 636.985 218.213 L 637.222 217.941 L 637.359 217.578 L 636.92 217.578 L 636.829 217.78 L 636.698 217.931 L 636.325 218.052 L 636.037 217.997 L 635.82 217.82 L 635.679 217.533 L 635.629 217.144 L 635.629 217.129 L 635.629 217.129 z M 635.629 216.756 L 635.684 216.408 L 635.82 216.151 L 636.027 215.994 L 636.3 215.939 L 636.567 215.994 L 636.774 216.151 L 636.9 216.408 L 636.945 216.756 L 635.629 216.756 L 635.629 216.756 z M 638.443 218.355 L 638.887 218.355 L 638.887 216.806 L 638.932 216.433 L 639.068 216.166 L 639.29 216.004 L 639.588 215.949 L 639.81 215.984 L 639.976 216.085 L 640.077 216.257 L 640.112 216.489 L 640.561 216.489 L 640.501 216.08 L 640.334 215.788 L 640.057 215.611 L 639.679 215.551 L 639.421 215.591 L 639.199 215.692 L 639.003 215.863 L 638.846 216.095 L 638.846 215.646 L 638.443 215.646 L 638.443 218.355 L 638.443 218.355 z M 643.859 218.355 L 644.323 218.355 L 644.691 217.326 L 646.088 217.326 L 646.457 218.355 L 646.931 218.355 L 645.65 214.85 L 645.135 214.85 L 643.859 218.355 L 643.859 218.355 z M 644.853 216.897 L 645.392 215.354 L 645.932 216.897 L 644.853 216.897 L 644.853 216.897 z M 647.818 217.2 L 649.039 217.2 L 649.039 216.801 L 647.818 216.801 L 647.818 217.2 L 647.818 217.2 z M 649.931 218.355 L 650.395 218.355 L 650.763 217.326 L 652.16 217.326 L 652.529 218.355 L 653.003 218.355 L 651.722 214.85 L 651.207 214.85 L 649.931 218.355 L 649.931 218.355 z M 650.925 216.897 L 651.464 215.354 L 652.004 216.897 L 650.925 216.897 L 650.925 216.897 z M 653.623 218.355 L 654.067 218.355 L 654.067 216.806 L 654.112 216.433 L 654.248 216.166 L 654.47 216.004 L 654.768 215.949 L 654.99 215.984 L 655.156 216.085 L 655.257 216.257 L 655.292 216.489 L 655.741 216.489 L 655.681 216.08 L 655.514 215.788 L 655.237 215.611 L 654.859 215.551 L 654.601 215.591 L 654.379 215.692 L 654.183 215.863 L 654.026 216.095 L 654.026 215.646 L 653.623 215.646 L 653.623 218.355 L 653.623 218.355 z M 656.316 218.355 L 656.725 218.355 L 656.725 216.544 L 656.75 216.272 L 656.825 216.075 L 656.941 215.959 L 657.093 215.914 L 657.214 215.954 L 657.294 216.055 L 657.335 216.226 L 657.35 216.453 L 657.35 218.355 L 657.733 218.355 L 657.733 216.544 L 657.758 216.277 L 657.834 216.08 L 657.955 215.959 L 658.106 215.914 L 658.227 215.954 L 658.308 216.055 L 658.359 216.453 L 658.359 218.355 L 658.767 218.355 L 658.767 216.484 L 658.742 216.095 L 658.661 215.798 L 658.5 215.616 L 658.237 215.551 L 657.93 215.651 L 657.693 215.944 L 657.506 215.656 L 657.194 215.551 L 656.906 215.651 L 656.709 215.934 L 656.709 215.646 L 656.316 215.646 L 656.316 218.355 L 656.316 218.355 z M 662.998 217.2 L 664.219 217.2 L 664.219 216.801 L 662.998 216.801 L 662.998 217.2 L 662.998 217.2 z M 668.616 218.355 L 669.08 218.355 L 669.08 216.877 L 669.595 216.877 L 670.114 216.852 L 670.528 216.675 L 670.795 216.332 L 670.886 215.863 L 670.815 215.43 L 670.614 215.112 L 670.281 214.92 L 669.827 214.855 L 668.616 214.855 L 668.616 218.355 L 668.616 218.355 z M 669.701 215.283 L 670.003 215.314 L 670.225 215.409 L 670.356 215.586 L 670.402 215.863 L 670.351 216.156 L 670.215 216.332 L 669.983 216.423 L 669.665 216.448 L 669.08 216.448 L 669.08 215.283 L 669.701 215.283 L 669.701 215.283 z M 672.555 215.107 L 672.555 217.981 L 671.642 217.981 L 671.642 218.355 L 673.907 218.355 L 673.907 217.981 L 672.999 217.981 L 672.999 214.734 L 671.859 214.734 L 671.859 215.107 L 672.555 215.107 L 672.555 215.107 z M 676.317 218.002 L 676.317 218.017 L 676.343 218.188 L 676.418 218.309 L 676.736 218.405 L 676.983 218.365 L 676.983 218.022 L 676.877 218.037 L 676.736 217.971 L 676.711 217.77 L 676.711 216.368 L 676.65 216.01 L 676.474 215.757 L 676.166 215.606 L 675.732 215.551 L 675.309 215.611 L 674.996 215.783 L 674.799 216.05 L 674.734 216.403 L 674.734 216.433 L 675.132 216.433 L 675.168 216.221 L 675.279 216.07 L 675.46 215.979 L 675.717 215.944 L 675.964 215.969 L 676.141 216.045 L 676.247 216.176 L 676.282 216.357 L 676.262 216.569 L 676.181 216.675 L 675.979 216.726 L 675.601 216.766 L 675.168 216.857 L 674.86 217.018 L 674.678 217.27 L 674.623 217.643 L 674.673 217.976 L 674.83 218.224 L 675.082 218.38 L 675.43 218.435 L 675.899 218.329 L 676.317 218.002 L 676.317 218.002 z M 676.267 217.406 L 676.206 217.669 L 676.045 217.87 L 675.803 218.002 L 675.505 218.047 L 675.314 218.022 L 675.178 217.941 L 675.092 217.8 L 675.067 217.603 L 675.087 217.427 L 675.168 217.301 L 675.49 217.159 L 675.899 217.099 L 676.267 216.978 L 676.267 217.406 L 676.267 217.406 z M 679.409 216.065 L 679.253 215.838 L 679.076 215.677 L 678.869 215.586 L 678.632 215.551 L 678.204 215.651 L 677.871 215.934 L 677.654 216.388 L 677.578 216.998 L 677.654 217.613 L 677.871 218.067 L 678.204 218.355 L 678.632 218.45 L 678.869 218.42 L 679.071 218.334 L 679.247 218.178 L 679.409 217.941 L 679.409 219.404 L 679.853 219.404 L 679.853 215.646 L 679.409 215.646 L 679.409 216.065 L 679.409 216.065 z M 678.032 216.998 L 678.077 216.549 L 678.219 216.221 L 678.43 216.02 L 678.708 215.949 L 679 216.02 L 679.222 216.216 L 679.353 216.544 L 679.404 216.998 L 679.353 217.457 L 679.222 217.785 L 679 217.986 L 678.708 218.052 L 678.43 217.986 L 678.219 217.785 L 678.077 217.452 L 678.032 216.998 L 678.032 216.998 z M 682.869 215.646 L 682.425 215.646 L 682.425 217.21 L 682.374 217.573 L 682.228 217.835 L 682.001 217.997 L 681.704 218.047 L 681.466 218.007 L 681.315 217.886 L 681.229 217.679 L 681.209 217.386 L 681.209 215.646 L 680.766 215.646 L 680.766 217.427 L 680.781 217.785 L 680.876 218.082 L 681.169 218.355 L 681.638 218.45 L 681.89 218.415 L 682.107 218.324 L 682.294 218.168 L 682.445 217.941 L 682.445 218.355 L 682.869 218.355 L 682.869 215.646 L 682.869 215.646 z M 684.205 217.129 L 685.98 217.129 L 685.985 216.922 L 685.905 216.342 L 685.683 215.909 L 685.33 215.646 L 684.861 215.551 L 684.402 215.651 L 684.049 215.934 L 683.822 216.393 L 683.741 216.998 L 683.817 217.618 L 684.044 218.072 L 684.392 218.355 L 684.845 218.45 L 685.239 218.385 L 685.562 218.213 L 685.799 217.941 L 685.935 217.578 L 685.496 217.578 L 685.405 217.78 L 685.274 217.931 L 684.901 218.052 L 684.613 217.997 L 684.397 217.82 L 684.255 217.533 L 684.205 217.144 L 684.205 217.129 L 684.205 217.129 z M 684.205 216.756 L 684.26 216.408 L 684.397 216.151 L 684.603 215.994 L 684.876 215.939 L 685.143 215.994 L 685.35 216.151 L 685.476 216.408 L 685.521 216.756 L 684.205 216.756 L 684.205 216.756 z M 691.553 217.936 L 691.553 218.355 L 691.997 218.355 L 691.997 214.734 L 691.558 214.734 L 691.558 216.06 L 691.22 215.677 L 691.013 215.586 L 690.776 215.551 L 690.348 215.651 L 690.015 215.934 L 689.798 216.388 L 689.722 216.998 L 689.798 217.608 L 690.015 218.067 L 690.348 218.355 L 690.776 218.45 L 691.013 218.415 L 691.225 218.324 L 691.553 217.936 L 691.553 217.936 z M 690.852 215.949 L 691.144 216.02 L 691.366 216.216 L 691.497 216.544 L 691.548 216.998 L 691.497 217.457 L 691.366 217.785 L 691.144 217.986 L 690.852 218.052 L 690.575 217.986 L 690.363 217.785 L 690.221 217.452 L 690.176 216.998 L 690.221 216.549 L 690.363 216.221 L 690.575 216.02 L 690.852 215.949 L 690.852 215.949 z M 695.013 215.646 L 694.569 215.646 L 694.569 217.21 L 694.518 217.573 L 694.372 217.835 L 694.145 217.997 L 693.848 218.047 L 693.611 218.007 L 693.459 217.886 L 693.374 217.679 L 693.353 217.386 L 693.353 215.646 L 692.91 215.646 L 692.91 217.427 L 692.925 217.785 L 693.021 218.082 L 693.313 218.355 L 693.782 218.45 L 694.034 218.415 L 694.251 218.324 L 694.438 218.168 L 694.589 217.941 L 694.589 218.355 L 695.013 218.355 L 695.013 215.646 L 695.013 215.646 z M 700.671 216.463 L 701.024 216.171 L 701.115 215.974 L 701.145 215.732 L 701.08 215.354 L 700.883 215.082 L 700.565 214.915 L 700.121 214.855 L 698.876 214.855 L 698.876 218.355 L 700.192 218.355 L 700.661 218.284 L 701.009 218.077 L 701.226 217.749 L 701.301 217.306 L 701.256 217.008 L 701.135 216.761 L 700.938 216.579 L 700.671 216.463 L 700.671 216.463 z M 700.026 216.307 L 699.34 216.307 L 699.34 215.273 L 700.066 215.273 L 700.338 215.303 L 700.53 215.394 L 700.646 215.551 L 700.686 215.783 L 700.641 216.015 L 700.52 216.176 L 700.313 216.277 L 700.026 216.307 L 700.026 216.307 z M 700.136 217.936 L 699.34 217.936 L 699.34 216.731 L 700.091 216.731 L 700.409 216.766 L 700.636 216.872 L 700.772 217.053 L 700.817 217.316 L 700.772 217.593 L 700.646 217.785 L 700.434 217.901 L 700.136 217.936 L 700.136 217.936 z M 703.641 218.002 L 703.641 218.017 L 703.667 218.188 L 703.742 218.309 L 704.06 218.405 L 704.307 218.365 L 704.307 218.022 L 704.201 218.037 L 704.06 217.971 L 704.035 217.77 L 704.035 216.368 L 703.974 216.01 L 703.798 215.757 L 703.49 215.606 L 703.057 215.551 L 702.633 215.611 L 702.32 215.783 L 702.123 216.05 L 702.058 216.403 L 702.058 216.433 L 702.456 216.433 L 702.492 216.221 L 702.603 216.07 L 702.784 215.979 L 703.041 215.944 L 703.288 215.969 L 703.465 216.045 L 703.571 216.176 L 703.606 216.357 L 703.586 216.569 L 703.505 216.675 L 703.304 216.726 L 702.925 216.766 L 702.492 216.857 L 702.184 217.018 L 702.002 217.27 L 701.947 217.643 L 701.997 217.976 L 702.154 218.224 L 702.406 218.38 L 702.754 218.435 L 703.223 218.329 L 703.641 218.002 L 703.641 218.002 z M 703.591 217.406 L 703.531 217.669 L 703.369 217.87 L 703.127 218.002 L 702.83 218.047 L 702.638 218.022 L 702.502 217.941 L 702.416 217.8 L 702.391 217.603 L 702.411 217.427 L 702.492 217.301 L 702.814 217.159 L 703.223 217.099 L 703.591 216.978 L 703.591 217.406 L 703.591 217.406 z M 706.395 216.776 L 705.966 216.675 L 705.649 216.559 L 705.543 216.322 L 705.573 216.156 L 705.679 216.035 L 705.85 215.959 L 706.098 215.929 L 706.335 215.959 L 706.521 216.05 L 706.642 216.186 L 706.693 216.368 L 707.126 216.368 L 707.126 216.357 L 707.051 216.03 L 706.844 215.772 L 706.521 215.611 L 706.098 215.551 L 705.669 215.611 L 705.356 215.778 L 705.159 216.025 L 705.099 216.337 L 705.144 216.64 L 705.286 216.852 L 705.518 217.003 L 705.855 217.109 L 706.35 217.23 L 706.652 217.356 L 706.733 217.457 L 706.763 217.608 L 706.718 217.795 L 706.597 217.936 L 706.4 218.027 L 706.138 218.057 L 705.861 218.027 L 705.659 217.921 L 705.523 217.749 L 705.467 217.512 L 705.038 217.512 L 705.109 217.916 L 705.316 218.208 L 705.644 218.385 L 706.098 218.45 L 706.572 218.385 L 706.92 218.208 L 707.131 217.926 L 707.207 217.558 L 707.152 217.24 L 706.995 217.023 L 706.738 216.882 L 706.395 216.776 L 706.395 216.776 z" stroke="none" fill-rule="evenodd" fill="rgb(0, 0, 0)"/></g><g stroke="rgb(0, 0, 0)" stroke-width="0.13" stroke-linecap="butt" stroke-linejoin="miter" fill="none"><path d="M 887.729 70.3143 L 889.335 70.3143 L 889.335 70.0117 L 888.06 70.0117 L 888.06 67.8143 L 887.729 67.8143 L 887.729 70.3143 L 887.729 70.3143 z M 890.16 69.439 L 891.428 69.439 L 891.432 69.2913 L 891.374 68.877 L 891.216 68.5671 L 890.964 68.3798 L 890.629 68.3114 L 890.301 68.3834 L 890.049 68.5852 L 889.887 68.913 L 889.829 69.3453 L 889.883 69.7884 L 890.045 70.1126 L 890.294 70.3143 L 890.618 70.3828 L 890.899 70.3359 L 891.129 70.2134 L 891.299 70.0189 L 891.396 69.7596 L 891.083 69.7596 L 891.018 69.9037 L 890.924 70.0117 L 890.657 70.0982 L 890.452 70.0585 L 890.297 69.9325 L 890.196 69.7271 L 890.16 69.4498 L 890.16 69.439 L 890.16 69.439 z M 890.16 69.1724 L 890.2 68.9238 L 890.297 68.7401 L 890.445 68.6284 L 890.639 68.5888 L 890.83 68.6284 L 890.978 68.7401 L 891.068 68.9238 L 891.101 69.1724 L 890.16 69.1724 L 890.16 69.1724 z M 892.491 68.7148 L 892.491 70.3143 L 892.808 70.3143 L 892.808 68.7148 L 893.529 68.7148 L 893.529 68.4447 L 892.808 68.4447 L 892.808 68.3258 L 892.833 68.1817 L 892.916 68.0845 L 893.057 68.0268 L 893.258 68.0052 L 893.529 68.0196 L 893.529 67.7458 L 893.186 67.7278 L 892.877 67.7603 L 892.66 67.8575 L 892.531 68.0268 L 892.491 68.2682 L 892.491 68.4447 L 891.911 68.4447 L 891.911 68.7148 L 892.491 68.7148 L 892.491 68.7148 z M 894.645 68.7148 L 894.645 69.6839 L 894.667 69.9973 L 894.768 70.2134 L 894.97 70.3395 L 895.312 70.3828 L 895.686 70.3647 L 895.686 70.091 L 895.413 70.1126 L 895.164 70.0838 L 895.031 69.9937 L 894.973 69.8424 L 894.962 69.6299 L 894.962 68.7148 L 895.686 68.7148 L 895.686 68.4447 L 894.962 68.4447 L 894.962 67.8791 L 894.645 67.8791 L 894.645 68.4447 L 894.098 68.4447 L 894.098 68.7148 L 894.645 68.7148 L 894.645 68.7148 z M 896.05 70.9124 L 896.05 71.1645 L 898.219 71.1645 L 898.219 70.9124 L 896.05 70.9124 L 896.05 70.9124 z M 898.565 70.3143 L 898.9 70.3143 L 898.9 69.1652 L 899.952 69.1652 L 899.952 68.8661 L 898.9 68.8661 L 898.9 68.1169 L 900.193 68.1169 L 900.193 67.8143 L 898.565 67.8143 L 898.565 70.3143 L 898.565 70.3143 z M 900.845 70.3143 L 901.162 70.3143 L 901.162 69.2084 L 901.194 68.9418 L 901.292 68.7509 L 901.45 68.6356 L 901.663 68.596 L 901.821 68.6212 L 901.94 68.6932 L 902.012 68.8157 L 902.037 68.9814 L 902.358 68.9814 L 902.315 68.6896 L 902.196 68.4807 L 901.998 68.3546 L 901.728 68.3114 L 901.544 68.3402 L 901.385 68.4123 L 901.245 68.5347 L 901.133 68.7004 L 901.133 68.3798 L 900.845 68.3798 L 900.845 70.3143 L 900.845 70.3143 z M 902.801 69.3489 L 902.859 69.7884 L 903.024 70.1126 L 903.287 70.3143 L 903.641 70.3828 L 903.99 70.3143 L 904.253 70.1162 L 904.419 69.792 L 904.48 69.3489 L 904.419 68.9094 L 904.253 68.5816 L 903.99 68.3834 L 903.641 68.3114 L 903.287 68.3834 L 903.024 68.5852 L 902.859 68.9094 L 902.801 69.3489 L 902.801 69.3489 z M 903.125 69.3453 L 903.158 69.0211 L 903.259 68.7869 L 903.421 68.6428 L 903.641 68.5924 L 903.857 68.6428 L 904.019 68.7833 L 904.12 69.0211 L 904.156 69.3453 L 904.12 69.6731 L 904.019 69.9109 L 903.857 70.0549 L 903.641 70.1018 L 903.421 70.0549 L 903.259 69.9109 L 903.158 69.6731 L 903.125 69.3453 L 903.125 69.3453 z M 905.063 70.3143 L 905.38 70.3143 L 905.38 69.1976 L 905.413 68.9418 L 905.517 68.7545 L 905.679 68.6392 L 905.896 68.596 L 906.068 68.632 L 906.177 68.7292 L 906.231 68.8914 L 906.249 69.1075 L 906.249 70.3143 L 906.566 70.3143 L 906.566 69.0427 L 906.551 68.7869 L 906.486 68.5744 L 906.274 68.3798 L 905.942 68.3114 L 905.759 68.3366 L 905.604 68.4051 L 905.47 68.5203 L 905.366 68.6752 L 905.366 68.3798 L 905.063 68.3798 L 905.063 70.3143 L 905.063 70.3143 z M 907.657 68.7148 L 907.657 69.6839 L 907.679 69.9973 L 907.78 70.2134 L 907.981 70.3395 L 908.324 70.3828 L 908.698 70.3647 L 908.698 70.091 L 908.424 70.1126 L 908.176 70.0838 L 908.043 69.9937 L 907.985 69.8424 L 907.974 69.6299 L 907.974 68.7148 L 908.698 68.7148 L 908.698 68.4447 L 907.974 68.4447 L 907.974 67.8791 L 907.657 67.8791 L 907.657 68.4447 L 907.11 68.4447 L 907.11 68.7148 L 907.657 68.7148 L 907.657 68.7148 z M 909.062 70.9124 L 909.062 71.1645 L 911.231 71.1645 L 911.231 70.9124 L 909.062 70.9124 L 909.062 70.9124 z M 911.584 70.3143 L 913.19 70.3143 L 913.19 70.0117 L 911.915 70.0117 L 911.915 67.8143 L 911.584 67.8143 L 911.584 70.3143 L 911.584 70.3143 z M 913.644 69.3489 L 913.702 69.7884 L 913.868 70.1126 L 914.131 70.3143 L 914.484 70.3828 L 914.833 70.3143 L 915.096 70.1162 L 915.262 69.792 L 915.323 69.3489 L 915.262 68.9094 L 915.096 68.5816 L 914.833 68.3834 L 914.484 68.3114 L 914.131 68.3834 L 913.868 68.5852 L 913.702 68.9094 L 913.644 69.3489 L 913.644 69.3489 z M 913.969 69.3453 L 914.001 69.0211 L 914.102 68.7869 L 914.264 68.6428 L 914.484 68.5924 L 914.7 68.6428 L 914.862 68.7833 L 914.963 69.0211 L 914.999 69.3453 L 914.963 69.6731 L 914.862 69.9109 L 914.7 70.0549 L 914.484 70.1018 L 914.264 70.0549 L 914.102 69.9109 L 914.001 69.6731 L 913.969 69.3453 L 913.969 69.3453 z M 916.364 70.3143 L 916.652 68.6716 L 916.94 70.3143 L 917.243 70.3143 L 917.719 68.3798 L 917.412 68.3798 L 917.092 70.0225 L 916.807 68.3798 L 916.494 68.3798 L 916.209 70.0225 L 915.889 68.3798 L 915.586 68.3798 L 916.062 70.3143 L 916.364 70.3143 L 916.364 70.3143 z M 918.353 69.439 L 919.621 69.439 L 919.624 69.2913 L 919.567 68.877 L 919.408 68.5671 L 919.156 68.3798 L 918.821 68.3114 L 918.493 68.3834 L 918.241 68.5852 L 918.079 68.913 L 918.021 69.3453 L 918.075 69.7884 L 918.237 70.1126 L 918.486 70.3143 L 918.81 70.3828 L 919.091 70.3359 L 919.322 70.2134 L 919.491 70.0189 L 919.588 69.7596 L 919.275 69.7596 L 919.21 69.9037 L 919.116 70.0117 L 918.85 70.0982 L 918.644 70.0585 L 918.49 69.9325 L 918.389 69.7271 L 918.353 69.4498 L 918.353 69.439 L 918.353 69.439 z M 918.353 69.1724 L 918.392 68.9238 L 918.49 68.7401 L 918.637 68.6284 L 918.832 68.5888 L 919.023 68.6284 L 919.17 68.7401 L 919.26 68.9238 L 919.293 69.1724 L 918.353 69.1724 L 918.353 69.1724 z M 920.363 70.3143 L 920.68 70.3143 L 920.68 69.2084 L 920.712 68.9418 L 920.809 68.7509 L 920.968 68.6356 L 921.181 68.596 L 921.339 68.6212 L 921.458 68.6932 L 921.53 68.8157 L 921.555 68.9814 L 921.876 68.9814 L 921.833 68.6896 L 921.714 68.4807 L 921.516 68.3546 L 921.245 68.3114 L 921.062 68.3402 L 920.903 68.4123 L 920.763 68.5347 L 920.651 68.7004 L 920.651 68.3798 L 920.363 68.3798 L 920.363 70.3143 L 920.363 70.3143 z M 924.232 70.3143 L 924.563 70.3143 L 924.826 69.5795 L 925.824 69.5795 L 926.087 70.3143 L 926.426 70.3143 L 925.511 67.8107 L 925.143 67.8107 L 924.232 70.3143 L 924.232 70.3143 z M 924.941 69.2733 L 925.327 68.1709 L 925.712 69.2733 L 924.941 69.2733 L 924.941 69.2733 z M 927.06 69.4894 L 927.931 69.4894 L 927.931 69.2048 L 927.06 69.2048 L 927.06 69.4894 L 927.06 69.4894 z M 928.569 70.3143 L 928.9 70.3143 L 929.163 69.5795 L 930.161 69.5795 L 930.424 70.3143 L 930.763 70.3143 L 929.848 67.8107 L 929.48 67.8107 L 928.569 70.3143 L 928.569 70.3143 z M 929.279 69.2733 L 929.664 68.1709 L 930.05 69.2733 L 929.279 69.2733 L 929.279 69.2733 z M 931.206 70.3143 L 931.523 70.3143 L 931.523 69.2084 L 931.555 68.9418 L 931.653 68.7509 L 931.811 68.6356 L 932.024 68.596 L 932.182 68.6212 L 932.301 68.6932 L 932.373 68.8157 L 932.398 68.9814 L 932.719 68.9814 L 932.676 68.6896 L 932.557 68.4807 L 932.359 68.3546 L 932.089 68.3114 L 931.905 68.3402 L 931.746 68.4123 L 931.606 68.5347 L 931.494 68.7004 L 931.494 68.3798 L 931.206 68.3798 L 931.206 70.3143 L 931.206 70.3143 z M 933.13 70.3143 L 933.421 70.3143 L 933.421 69.0211 L 933.439 68.8265 L 933.493 68.686 L 933.576 68.6032 L 933.684 68.5708 L 933.771 68.5996 L 933.828 68.6716 L 933.857 68.7941 L 933.868 68.9562 L 933.868 70.3143 L 934.142 70.3143 L 934.142 69.0211 L 934.16 68.8301 L 934.214 68.6896 L 934.3 68.6032 L 934.409 68.5708 L 934.495 68.5996 L 934.553 68.6716 L 934.589 68.9562 L 934.589 70.3143 L 934.88 70.3143 L 934.88 68.9778 L 934.862 68.7004 L 934.805 68.4879 L 934.69 68.3582 L 934.502 68.3114 L 934.282 68.3834 L 934.113 68.5924 L 933.98 68.387 L 933.756 68.3114 L 933.551 68.3834 L 933.411 68.5852 L 933.411 68.3798 L 933.13 68.3798 L 933.13 70.3143 L 933.13 70.3143 z" stroke="none" fill-rule="evenodd" fill="rgb(0, 0, 0)"/></g><g stroke="rgb(0, 0, 0)" stroke-width="0.13" stroke-linecap="butt" stroke-linejoin="miter" fill="none"><path d="M 903.968 74.6335 L 905.553 74.6335 L 905.553 74.3309 L 904.299 74.3309 L 904.299 73.4844 L 905.416 73.4844 L 905.416 73.1854 L 904.299 73.1854 L 904.299 72.4361 L 905.524 72.4361 L 905.524 72.1335 L 903.968 72.1335 L 903.968 74.6335 L 903.968 74.6335 z M 907.966 74.6335 L 908.298 74.6335 L 908.561 73.8986 L 909.559 73.8986 L 909.822 74.6335 L 910.16 74.6335 L 909.245 72.1299 L 908.878 72.1299 L 907.966 74.6335 L 907.966 74.6335 z M 908.676 73.5924 L 909.062 72.4901 L 909.447 73.5924 L 908.676 73.5924 L 908.676 73.5924 z M 911.064 74.6335 L 911.399 74.6335 L 912.106 72.699 L 911.778 72.699 L 911.234 74.2589 L 910.679 72.699 L 910.348 72.699 L 911.064 74.6335 L 911.064 74.6335 z M 913.802 74.3813 L 913.802 74.3922 L 913.82 74.5146 L 913.874 74.6011 L 914.101 74.6695 L 914.278 74.6407 L 914.278 74.3958 L 914.202 74.4066 L 914.101 74.3597 L 914.083 74.2156 L 914.083 73.2142 L 914.04 72.9584 L 913.914 72.7783 L 913.694 72.6702 L 913.384 72.6306 L 913.082 72.6738 L 912.858 72.7963 L 912.718 72.9872 L 912.671 73.2394 L 912.671 73.261 L 912.956 73.261 L 912.981 73.1097 L 913.06 73.0016 L 913.19 72.9368 L 913.374 72.9116 L 913.55 72.9296 L 913.676 72.9836 L 913.752 73.0773 L 913.777 73.207 L 913.763 73.3583 L 913.705 73.4339 L 913.561 73.47 L 913.291 73.4988 L 912.981 73.5636 L 912.761 73.6789 L 912.631 73.859 L 912.592 74.1255 L 912.628 74.3633 L 912.74 74.5398 L 912.92 74.6515 L 913.168 74.6911 L 913.503 74.6155 L 913.802 74.3813 L 913.802 74.3813 z M 913.766 73.9562 L 913.723 74.1436 L 913.608 74.2877 L 913.435 74.3813 L 913.222 74.4138 L 913.085 74.3958 L 912.988 74.3381 L 912.927 74.2372 L 912.909 74.0967 L 912.923 73.9706 L 912.981 73.8806 L 913.211 73.7797 L 913.503 73.7365 L 913.766 73.6501 L 913.766 73.9562 L 913.766 73.9562 z M 914.822 74.6335 L 915.139 74.6335 L 915.139 73.5168 L 915.171 73.261 L 915.276 73.0737 L 915.438 72.9584 L 915.654 72.9152 L 915.827 72.9512 L 915.935 73.0485 L 915.989 73.2106 L 916.007 73.4267 L 916.007 74.6335 L 916.324 74.6335 L 916.324 73.3619 L 916.309 73.1061 L 916.245 72.8936 L 916.032 72.699 L 915.701 72.6306 L 915.517 72.6558 L 915.362 72.7242 L 915.229 72.8395 L 915.124 72.9944 L 915.124 72.699 L 914.822 72.699 L 914.822 74.6335 L 914.822 74.6335 z M 917.415 73.0341 L 917.415 74.0031 L 917.437 74.3165 L 917.538 74.5326 L 917.74 74.6587 L 918.082 74.7019 L 918.456 74.6839 L 918.456 74.4102 L 918.183 74.4318 L 917.934 74.403 L 917.801 74.3129 L 917.743 74.1616 L 917.732 73.949 L 917.732 73.0341 L 918.456 73.0341 L 918.456 72.7639 L 917.732 72.7639 L 917.732 72.1983 L 917.415 72.1983 L 917.415 72.7639 L 916.868 72.7639 L 916.868 73.0341 L 917.415 73.0341 L 917.415 73.0341 z" stroke="none" fill-rule="evenodd" fill="rgb(0, 0, 0)"/></g><g stroke="rgb(0, 0, 0)" stroke-width="0.13" stroke-linecap="butt" stroke-linejoin="miter" fill="none"><path d="M 1003.72 69.4451 L 1005.33 69.4451 L 1005.33 69.1425 L 1004.05 69.1425 L 1004.05 66.9451 L 1003.72 66.9451 L 1003.72 69.4451 L 1003.72 69.4451 z M 1006.15 68.5698 L 1007.42 68.5698 L 1007.43 68.4221 L 1007.37 68.0078 L 1007.21 67.698 L 1006.96 67.5107 L 1006.62 67.4423 L 1006.29 67.5143 L 1006.04 67.716 L 1005.88 68.0438 L 1005.82 68.4761 L 1005.88 68.9192 L 1006.04 69.2434 L 1006.29 69.4451 L 1006.61 69.5135 L 1006.89 69.4667 L 1007.12 69.3442 L 1007.29 69.1497 L 1007.39 68.8904 L 1007.08 68.8904 L 1007.01 69.0345 L 1006.92 69.1425 L 1006.65 69.229 L 1006.45 69.1894 L 1006.29 69.0633 L 1006.19 68.858 L 1006.15 68.5806 L 1006.15 68.5698 L 1006.15 68.5698 z M 1006.15 68.3032 L 1006.19 68.0546 L 1006.29 67.8709 L 1006.44 67.7593 L 1006.63 67.7196 L 1006.82 67.7593 L 1006.97 67.8709 L 1007.06 68.0546 L 1007.09 68.3032 L 1006.15 68.3032 L 1006.15 68.3032 z M 1008.48 67.8457 L 1008.48 69.4451 L 1008.8 69.4451 L 1008.8 67.8457 L 1009.52 67.8457 L 1009.52 67.5756 L 1008.8 67.5756 L 1008.8 67.4567 L 1008.83 67.3126 L 1008.91 67.2153 L 1009.05 67.1577 L 1009.25 67.136 L 1009.52 67.1505 L 1009.52 66.8767 L 1009.18 66.8587 L 1008.87 66.8911 L 1008.65 66.9883 L 1008.52 67.1577 L 1008.48 67.399 L 1008.48 67.5756 L 1007.9 67.5756 L 1007.9 67.8457 L 1008.48 67.8457 L 1008.48 67.8457 z M 1010.64 67.8457 L 1010.64 68.8147 L 1010.66 69.1281 L 1010.76 69.3442 L 1010.96 69.4703 L 1011.31 69.5135 L 1011.68 69.4955 L 1011.68 69.2218 L 1011.41 69.2434 L 1011.16 69.2146 L 1011.02 69.1245 L 1010.97 68.9732 L 1010.96 68.7607 L 1010.96 67.8457 L 1011.68 67.8457 L 1011.68 67.5756 L 1010.96 67.5756 L 1010.96 67.0099 L 1010.64 67.0099 L 1010.64 67.5756 L 1010.09 67.5756 L 1010.09 67.8457 L 1010.64 67.8457 L 1010.64 67.8457 z M 1012.04 70.0431 L 1012.04 70.2953 L 1014.21 70.2953 L 1014.21 70.0431 L 1012.04 70.0431 L 1012.04 70.0431 z M 1014.56 69.4451 L 1014.89 69.4451 L 1014.89 68.296 L 1015.94 68.296 L 1015.94 67.997 L 1014.89 67.997 L 1014.89 67.2477 L 1016.19 67.2477 L 1016.19 66.9451 L 1014.56 66.9451 L 1014.56 69.4451 L 1014.56 69.4451 z M 1016.84 69.4451 L 1017.16 69.4451 L 1017.16 68.3392 L 1017.19 68.0726 L 1017.28 67.8817 L 1017.44 67.7665 L 1017.66 67.7268 L 1017.81 67.7521 L 1017.93 67.8241 L 1018.01 67.9466 L 1018.03 68.1123 L 1018.35 68.1123 L 1018.31 67.8205 L 1018.19 67.6116 L 1017.99 67.4855 L 1017.72 67.4423 L 1017.54 67.4711 L 1017.38 67.5431 L 1017.24 67.6656 L 1017.13 67.8313 L 1017.13 67.5107 L 1016.84 67.5107 L 1016.84 69.4451 L 1016.84 69.4451 z M 1018.79 68.4797 L 1018.85 68.9192 L 1019.02 69.2434 L 1019.28 69.4451 L 1019.63 69.5135 L 1019.98 69.4451 L 1020.25 69.247 L 1020.41 68.9228 L 1020.47 68.4797 L 1020.41 68.0402 L 1020.25 67.7124 L 1019.98 67.5143 L 1019.63 67.4423 L 1019.28 67.5143 L 1019.02 67.716 L 1018.85 68.0402 L 1018.79 68.4797 L 1018.79 68.4797 z M 1019.12 68.4761 L 1019.15 68.1519 L 1019.25 67.9178 L 1019.41 67.7737 L 1019.63 67.7232 L 1019.85 67.7737 L 1020.01 67.9141 L 1020.11 68.1519 L 1020.15 68.4761 L 1020.11 68.8039 L 1020.01 69.0417 L 1019.85 69.1858 L 1019.63 69.2326 L 1019.41 69.1858 L 1019.25 69.0417 L 1019.15 68.8039 L 1019.12 68.4761 L 1019.12 68.4761 z M 1021.06 69.4451 L 1021.37 69.4451 L 1021.37 68.3284 L 1021.41 68.0726 L 1021.51 67.8853 L 1021.67 67.7701 L 1021.89 67.7268 L 1022.06 67.7629 L 1022.17 67.8601 L 1022.22 68.0222 L 1022.24 68.2383 L 1022.24 69.4451 L 1022.56 69.4451 L 1022.56 68.1735 L 1022.54 67.9178 L 1022.48 67.7052 L 1022.27 67.5107 L 1021.94 67.4423 L 1021.75 67.4675 L 1021.6 67.5359 L 1021.46 67.6512 L 1021.36 67.8061 L 1021.36 67.5107 L 1021.06 67.5107 L 1021.06 69.4451 L 1021.06 69.4451 z M 1023.65 67.8457 L 1023.65 68.8147 L 1023.67 69.1281 L 1023.77 69.3442 L 1023.97 69.4703 L 1024.32 69.5135 L 1024.69 69.4955 L 1024.69 69.2218 L 1024.42 69.2434 L 1024.17 69.2146 L 1024.04 69.1245 L 1023.98 68.9732 L 1023.97 68.7607 L 1023.97 67.8457 L 1024.69 67.8457 L 1024.69 67.5756 L 1023.97 67.5756 L 1023.97 67.0099 L 1023.65 67.0099 L 1023.65 67.5756 L 1023.1 67.5756 L 1023.1 67.8457 L 1023.65 67.8457 L 1023.65 67.8457 z M 1025.06 70.0431 L 1025.06 70.2953 L 1027.22 70.2953 L 1027.22 70.0431 L 1025.06 70.0431 L 1025.06 70.0431 z M 1027.58 69.4451 L 1029.18 69.4451 L 1029.18 69.1425 L 1027.91 69.1425 L 1027.91 66.9451 L 1027.58 66.9451 L 1027.58 69.4451 L 1027.58 69.4451 z M 1029.64 68.4797 L 1029.69 68.9192 L 1029.86 69.2434 L 1030.12 69.4451 L 1030.48 69.5135 L 1030.83 69.4451 L 1031.09 69.247 L 1031.25 68.9228 L 1031.32 68.4797 L 1031.25 68.0402 L 1031.09 67.7124 L 1030.83 67.5143 L 1030.48 67.4423 L 1030.12 67.5143 L 1029.86 67.716 L 1029.69 68.0402 L 1029.64 68.4797 L 1029.64 68.4797 z M 1029.96 68.4761 L 1029.99 68.1519 L 1030.09 67.9178 L 1030.26 67.7737 L 1030.48 67.7232 L 1030.69 67.7737 L 1030.85 67.9141 L 1030.96 68.1519 L 1030.99 68.4761 L 1030.96 68.8039 L 1030.85 69.0417 L 1030.69 69.1858 L 1030.48 69.2326 L 1030.26 69.1858 L 1030.09 69.0417 L 1029.99 68.8039 L 1029.96 68.4761 L 1029.96 68.4761 z M 1032.36 69.4451 L 1032.65 67.8025 L 1032.93 69.4451 L 1033.24 69.4451 L 1033.71 67.5107 L 1033.41 67.5107 L 1033.08 69.1533 L 1032.8 67.5107 L 1032.49 67.5107 L 1032.2 69.1533 L 1031.88 67.5107 L 1031.58 67.5107 L 1032.05 69.4451 L 1032.36 69.4451 L 1032.36 69.4451 z M 1034.35 68.5698 L 1035.61 68.5698 L 1035.62 68.4221 L 1035.56 68.0078 L 1035.4 67.698 L 1035.15 67.5107 L 1034.81 67.4423 L 1034.49 67.5143 L 1034.23 67.716 L 1034.07 68.0438 L 1034.01 68.4761 L 1034.07 68.9192 L 1034.23 69.2434 L 1034.48 69.4451 L 1034.8 69.5135 L 1035.08 69.4667 L 1035.31 69.3442 L 1035.48 69.1497 L 1035.58 68.8904 L 1035.27 68.8904 L 1035.2 69.0345 L 1035.11 69.1425 L 1034.84 69.229 L 1034.64 69.1894 L 1034.48 69.0633 L 1034.38 68.858 L 1034.35 68.5806 L 1034.35 68.5698 L 1034.35 68.5698 z M 1034.35 68.3032 L 1034.39 68.0546 L 1034.48 67.8709 L 1034.63 67.7593 L 1034.82 67.7196 L 1035.02 67.7593 L 1035.16 67.8709 L 1035.25 68.0546 L 1035.29 68.3032 L 1034.35 68.3032 L 1034.35 68.3032 z M 1036.36 69.4451 L 1036.67 69.4451 L 1036.67 68.3392 L 1036.7 68.0726 L 1036.8 67.8817 L 1036.96 67.7665 L 1037.17 67.7268 L 1037.33 67.7521 L 1037.45 67.8241 L 1037.52 67.9466 L 1037.55 68.1123 L 1037.87 68.1123 L 1037.83 67.8205 L 1037.71 67.6116 L 1037.51 67.4855 L 1037.24 67.4423 L 1037.05 67.4711 L 1036.9 67.5431 L 1036.76 67.6656 L 1036.64 67.8313 L 1036.64 67.5107 L 1036.36 67.5107 L 1036.36 69.4451 L 1036.36 69.4451 z M 1040.22 69.4451 L 1040.56 69.4451 L 1040.82 68.7103 L 1041.82 68.7103 L 1042.08 69.4451 L 1042.42 69.4451 L 1041.5 66.9415 L 1041.14 66.9415 L 1040.22 69.4451 L 1040.22 69.4451 z M 1040.93 68.4041 L 1041.32 67.3018 L 1041.7 68.4041 L 1040.93 68.4041 L 1040.93 68.4041 z M 1043.05 68.6202 L 1043.92 68.6202 L 1043.92 68.3356 L 1043.05 68.3356 L 1043.05 68.6202 L 1043.05 68.6202 z M 1044.56 69.4451 L 1044.89 69.4451 L 1045.16 68.7103 L 1046.15 68.7103 L 1046.42 69.4451 L 1046.76 69.4451 L 1045.84 66.9415 L 1045.47 66.9415 L 1044.56 69.4451 L 1044.56 69.4451 z M 1045.27 68.4041 L 1045.66 67.3018 L 1046.04 68.4041 L 1045.27 68.4041 L 1045.27 68.4041 z M 1047.2 69.4451 L 1047.52 69.4451 L 1047.52 68.3392 L 1047.55 68.0726 L 1047.65 67.8817 L 1047.8 67.7665 L 1048.02 67.7268 L 1048.17 67.7521 L 1048.29 67.8241 L 1048.37 67.9466 L 1048.39 68.1123 L 1048.71 68.1123 L 1048.67 67.8205 L 1048.55 67.6116 L 1048.35 67.4855 L 1048.08 67.4423 L 1047.9 67.4711 L 1047.74 67.5431 L 1047.6 67.6656 L 1047.49 67.8313 L 1047.49 67.5107 L 1047.2 67.5107 L 1047.2 69.4451 L 1047.2 69.4451 z M 1049.12 69.4451 L 1049.41 69.4451 L 1049.41 68.1519 L 1049.43 67.9574 L 1049.49 67.8169 L 1049.57 67.734 L 1049.68 67.7016 L 1049.76 67.7304 L 1049.82 67.8025 L 1049.85 67.925 L 1049.86 68.087 L 1049.86 69.4451 L 1050.13 69.4451 L 1050.13 68.1519 L 1050.15 67.961 L 1050.21 67.8205 L 1050.29 67.734 L 1050.4 67.7016 L 1050.49 67.7304 L 1050.55 67.8025 L 1050.58 68.087 L 1050.58 69.4451 L 1050.87 69.4451 L 1050.87 68.1087 L 1050.85 67.8313 L 1050.8 67.6188 L 1050.68 67.4891 L 1050.49 67.4423 L 1050.27 67.5143 L 1050.11 67.7232 L 1049.97 67.5179 L 1049.75 67.4423 L 1049.54 67.5143 L 1049.4 67.716 L 1049.4 67.5107 L 1049.12 67.5107 L 1049.12 69.4451 L 1049.12 69.4451 z" stroke="none" fill-rule="evenodd" fill="rgb(0, 0, 0)"/></g><g stroke="rgb(0, 0, 0)" stroke-width="0.13" stroke-linecap="butt" stroke-linejoin="miter" fill="none"><path d="M 1017.79 73.7643 L 1019.38 73.7643 L 1019.38 73.4617 L 1018.12 73.4617 L 1018.12 72.6152 L 1019.24 72.6152 L 1019.24 72.3162 L 1018.12 72.3162 L 1018.12 71.5669 L 1019.35 71.5669 L 1019.35 71.2643 L 1017.79 71.2643 L 1017.79 73.7643 L 1017.79 73.7643 z M 1019.63 74.3622 L 1019.63 74.6144 L 1021.8 74.6144 L 1021.8 74.3622 L 1019.63 74.3622 L 1019.63 74.3622 z M 1021.79 73.7643 L 1022.12 73.7643 L 1022.39 73.0294 L 1023.38 73.0294 L 1023.65 73.7643 L 1023.99 73.7643 L 1023.07 71.2607 L 1022.7 71.2607 L 1021.79 73.7643 L 1021.79 73.7643 z M 1022.5 72.7232 L 1022.89 71.6209 L 1023.27 72.7232 L 1022.5 72.7232 L 1022.5 72.7232 z M 1024.43 73.7643 L 1024.75 73.7643 L 1024.75 72.6584 L 1024.78 72.3918 L 1024.88 72.2009 L 1025.03 72.0856 L 1025.25 72.046 L 1025.4 72.0712 L 1025.52 72.1432 L 1025.6 72.2657 L 1025.62 72.4315 L 1025.94 72.4315 L 1025.9 72.1396 L 1025.78 71.9307 L 1025.58 71.8046 L 1025.31 71.7614 L 1025.13 71.7902 L 1024.97 71.8622 L 1024.83 71.9847 L 1024.72 72.1505 L 1024.72 71.8298 L 1024.43 71.8298 L 1024.43 73.7643 L 1024.43 73.7643 z M 1026.6 73.7643 L 1026.91 73.7643 L 1026.91 72.6584 L 1026.95 72.3918 L 1027.04 72.2009 L 1027.2 72.0856 L 1027.41 72.046 L 1027.57 72.0712 L 1027.69 72.1432 L 1027.76 72.2657 L 1027.79 72.4315 L 1028.11 72.4315 L 1028.07 72.1396 L 1027.95 71.9307 L 1027.75 71.8046 L 1027.48 71.7614 L 1027.3 71.7902 L 1027.14 71.8622 L 1027 71.9847 L 1026.89 72.1505 L 1026.89 71.8298 L 1026.6 71.8298 L 1026.6 73.7643 L 1026.6 73.7643 z M 1029.62 73.4977 L 1029.62 71.8947 L 1028.8 71.8947 L 1028.8 72.1649 L 1029.3 72.1649 L 1029.3 73.4977 L 1028.65 73.4977 L 1028.65 73.7643 L 1030.27 73.7643 L 1030.27 73.4977 L 1029.62 73.4977 L 1029.62 73.4977 z M 1029.63 71.1779 L 1029.29 71.1779 L 1029.29 71.5381 L 1029.63 71.5381 L 1029.63 71.1779 L 1029.63 71.1779 z M 1031.82 71.5669 L 1031.46 70.9545 L 1031.1 70.9545 L 1031.6 71.5669 L 1031.82 71.5669 L 1031.82 71.5669 z M 1031.09 72.8889 L 1032.36 72.8889 L 1032.36 72.7412 L 1032.31 72.327 L 1032.15 72.0172 L 1031.9 71.8298 L 1031.56 71.7614 L 1031.23 71.8334 L 1030.98 72.0352 L 1030.82 72.363 L 1030.76 72.7953 L 1030.82 73.2383 L 1030.98 73.5626 L 1031.23 73.7643 L 1031.55 73.8327 L 1031.83 73.7859 L 1032.06 73.6634 L 1032.23 73.4689 L 1032.33 73.2095 L 1032.01 73.2095 L 1031.95 73.3536 L 1031.86 73.4617 L 1031.59 73.5482 L 1031.38 73.5085 L 1031.23 73.3824 L 1031.13 73.1771 L 1031.09 72.8997 L 1031.09 72.8889 L 1031.09 72.8889 z M 1031.09 72.6224 L 1031.13 72.3738 L 1031.23 72.1901 L 1031.38 72.0784 L 1031.57 72.0388 L 1031.76 72.0784 L 1031.91 72.1901 L 1032 72.3738 L 1032.03 72.6224 L 1031.09 72.6224 L 1031.09 72.6224 z M 1033.1 73.7643 L 1033.42 73.7643 L 1033.42 72.6584 L 1033.45 72.3918 L 1033.55 72.2009 L 1033.71 72.0856 L 1033.92 72.046 L 1034.08 72.0712 L 1034.2 72.1432 L 1034.27 72.2657 L 1034.3 72.4315 L 1034.62 72.4315 L 1034.57 72.1396 L 1034.45 71.9307 L 1034.26 71.8046 L 1033.99 71.7614 L 1033.8 71.7902 L 1033.64 71.8622 L 1033.5 71.9847 L 1033.39 72.1505 L 1033.39 71.8298 L 1033.1 71.8298 L 1033.1 73.7643 L 1033.1 73.7643 z M 1035.43 72.8889 L 1036.7 72.8889 L 1036.7 72.7412 L 1036.64 72.327 L 1036.49 72.0172 L 1036.23 71.8298 L 1035.9 71.7614 L 1035.57 71.8334 L 1035.32 72.0352 L 1035.16 72.363 L 1035.1 72.7953 L 1035.15 73.2383 L 1035.31 73.5626 L 1035.56 73.7643 L 1035.89 73.8327 L 1036.17 73.7859 L 1036.4 73.6634 L 1036.57 73.4689 L 1036.67 73.2095 L 1036.35 73.2095 L 1036.29 73.3536 L 1036.19 73.4617 L 1035.93 73.5482 L 1035.72 73.5085 L 1035.57 73.3824 L 1035.47 73.1771 L 1035.43 72.8997 L 1035.43 72.8889 L 1035.43 72.8889 z M 1035.43 72.6224 L 1035.47 72.3738 L 1035.57 72.1901 L 1035.71 72.0784 L 1035.91 72.0388 L 1036.1 72.0784 L 1036.25 72.1901 L 1036.34 72.3738 L 1036.37 72.6224 L 1035.43 72.6224 L 1035.43 72.6224 z" stroke="none" fill-rule="evenodd" fill="rgb(0, 0, 0)"/></g></svg>